<svg width="18" height="18" viewBox="0 0 18 18" fill="none" xmlns="http://www.w3.org/2000/svg">
<path d="M1 12V6M1 12C1 13.6569 2.34315 15 4 15H14C15.6569 15 17 13.6569 17 12M1 12H3C3.55228 12 4 11.5523 4 11V7C4 6.44772 3.55228 6 3 6H1M17 12V6M17 12H15C14.4477 12 14 11.5523 14 11V7C14 6.44772 14.4477 6 15 6H17M17 6C17 4.34315 15.6569 3 14 3H4C2.34315 3 1 4.34315 1 6M9 3V15M12 9C12 10.6569 10.6569 12 9 12C7.34315 12 6 10.6569 6 9C6 7.34315 7.34315 6 9 6C10.6569 6 12 7.34315 12 9Z" stroke="#FEBE55"/>
</svg>
