<svg width="14" height="14" viewBox="0 0 14 14" fill="none" xmlns="http://www.w3.org/2000/svg">
<g id="icon/game">
<path id="&#229;&#189;&#162;&#231;&#138;&#182;" fill-rule="evenodd" clip-rule="evenodd" d="M11.1656 1.64015H12.5081C13.3084 1.64015 13.9595 2.29001 13.9594 3.0888V4.76509C13.9594 6.45121 12.5851 7.82295 10.8959 7.82295L10.8758 7.8227C10.3318 9.0143 9.08699 9.84876 7.70467 9.84966C7.70347 9.84966 7.7025 9.85064 7.7025 9.85184L7.70249 11.859C7.70249 11.8596 7.70271 11.8601 7.70307 11.8605C7.70338 11.8608 7.70381 11.8611 7.70429 11.8612C7.70442 11.8612 7.70456 11.8612 7.7047 11.8612H9.68863C10.0779 11.8612 10.3967 12.1848 10.3734 12.5726C10.3522 12.9239 10.0601 13.2022 9.70285 13.2022H4.34303C3.9538 13.2022 3.63494 12.8786 3.65831 12.4908C3.67948 12.1396 3.97157 11.8612 4.32883 11.8612H6.3568C6.35803 11.8612 6.35901 11.8602 6.35901 11.859V9.8519C6.35901 9.85067 6.35802 9.84969 6.3568 9.84969H6.02532C4.64138 9.84969 3.51104 9.01468 3.02535 7.82197C1.37209 7.78038 0.0400391 6.42509 0.0400391 4.76509V3.0888C0.040053 2.29001 0.69113 1.64015 1.49139 1.64015H2.76876V1.47054C2.76876 1.09903 3.0705 0.797852 3.44271 0.797852H10.4917C10.8639 0.797852 11.1656 1.09901 11.1656 1.47054V1.64015ZM0.860317 3.08881V4.76509C0.860317 5.89765 1.70719 6.8364 2.80203 6.98388C2.78019 6.82425 2.76876 6.66104 2.76876 6.49493V2.4589H1.49139C1.14343 2.4589 0.860317 2.74147 0.860317 3.08881ZM9.37872 3.80797L8.28532 4.94412L8.28472 4.94596L8.48324 6.49319C8.48348 6.49491 8.48173 6.49619 8.48017 6.49547L7.03167 5.83374H7.02985L5.58137 6.49547C5.57981 6.49619 5.57806 6.4949 5.57828 6.49319L5.77682 4.94596L5.77622 4.94412L4.68279 3.80797C4.68159 3.80671 4.68227 3.80459 4.68401 3.80426L6.25492 3.51018L6.25643 3.50912L7.03079 2.13884L7.80515 3.50912L7.80668 3.51018L9.37759 3.80426C9.37925 3.80459 9.37994 3.80671 9.37872 3.80797ZM11.1267 6.99242C12.2556 6.87674 13.1392 5.92198 13.1392 4.76509V3.08878C13.1392 2.74147 12.8561 2.4589 12.5081 2.4589H11.1656V6.49713C11.1656 6.66542 11.1522 6.83079 11.1267 6.99242Z" fill="#74C4FF"/>
</g>
</svg>
