<svg width="16" height="18" viewBox="0 0 16 18" fill="none" xmlns="http://www.w3.org/2000/svg">
<path fill-rule="evenodd" clip-rule="evenodd" d="M15.7127 15.813L12.7517 12.861C13.8857 11.547 14.5067 9.89099 14.5067 8.13599C14.5067 6.20099 13.7507 4.39199 12.3917 3.02399C11.0327 1.65599 9.21473 0.899994 7.28873 0.899994C5.35373 0.899994 3.54473 1.65599 2.17673 3.01499C0.808734 4.38299 0.0527344 6.20099 0.0527344 8.13599C0.0527344 10.071 0.808734 11.88 2.16773 13.248C3.53573 14.616 5.35373 15.363 7.27973 15.363C8.87274 15.363 10.3937 14.85 11.6447 13.905L14.6327 16.893C14.7767 17.037 14.9747 17.118 15.1727 17.118C15.3707 17.118 15.5597 17.046 15.7127 16.893C16.0097 16.596 16.0097 16.11 15.7127 15.813ZM1.57373 8.13599C1.57373 4.98599 4.13873 2.42999 7.27973 2.42999C10.4297 2.42999 12.9857 4.99499 12.9857 8.13599C12.9857 11.286 10.4297 13.842 7.27973 13.842C4.12973 13.842 1.57373 11.277 1.57373 8.13599Z" fill="#7981A4"/>
</svg>
