<svg width="12" height="12" viewBox="0 0 12 12" fill="none" xmlns="http://www.w3.org/2000/svg">
<path fill-rule="evenodd" clip-rule="evenodd" d="M6 0C2.67857 0 0 2.69333 0 6C0 9.30667 2.67857 12 6 12C9.32143 12 12 9.30667 12 6C12 2.69333 9.32143 0 6 0ZM6 11.2C3.13393 11.2 0.803571 8.88 0.803571 6C0.803571 3.12 3.13393 0.8 6 0.8C8.86607 0.8 11.1964 3.12 11.1964 6C11.1964 8.88 8.86607 11.2 6 11.2ZM7.74107 3.73333C7.90179 3.57333 8.14286 3.57333 8.30357 3.73333C8.46429 3.89333 8.46429 4.13333 8.30357 4.29333L6.58929 6L8.35714 7.70667C8.51786 7.86667 8.51786 8.10667 8.35714 8.26667C8.27679 8.34667 8.16964 8.37333 8.0625 8.37333C7.95536 8.37333 7.84821 8.34667 7.76786 8.26667L6.05357 6.56L4.33929 8.26667C4.25893 8.34667 4.15179 8.37333 4.04464 8.37333C3.9375 8.37333 3.83036 8.34667 3.75 8.26667C3.58929 8.10667 3.58929 7.86667 3.75 7.70667L5.46429 6L3.75 4.29333C3.58929 4.13333 3.58929 3.89333 3.75 3.73333C3.91071 3.57333 4.15179 3.57333 4.3125 3.73333L6.02679 5.44L7.74107 3.73333Z" fill="#7981A4"/>
</svg>
