<?xml version="1.0" encoding="UTF-8"?>
<svg width="16px" height="14px" viewBox="0 0 16 14" version="1.1" xmlns="http://www.w3.org/2000/svg" xmlns:xlink="http://www.w3.org/1999/xlink">
    <title>中立场@2x</title>
    <g id="中立场" stroke="none" stroke-width="1" fill="none" fill-rule="evenodd">
        <path d="M13.4481407,1.5 C13.732841,1.5 13.9889149,1.63293608 14.1754706,1.83883354 C14.3780986,2.06246961 14.5005967,2.3719201 14.5,2.71275328 L14.5,2.71275328 L14.5,11.2872467 C14.5,11.6280345 14.3772846,11.9377359 14.174413,12.1614006 C13.9876231,12.3673353 13.731345,12.5 13.4464738,12.5 L13.4464738,12.5 L2.55351729,12.5 C2.26879427,12.5 2.01271527,12.367043 1.82598331,12.161171 C1.62295869,11.9373363 1.5,11.6275639 1.5,11.2872467 L1.5,11.2872467 L1.5,2.71275328 C1.5,2.37196454 1.62271388,2.06226219 1.82558477,1.83859697 C2.01237234,1.63266361 2.26864771,1.5 2.55351729,1.5 L2.55351729,1.5 Z" id="路径" stroke="#66A754" fill-rule="nonzero"></path>
        <path d="M5.80766587,4.13808679 L10,8.48 L10,4.00433935 L10.9,4.00433935 L10.9,9.55433935 C10.9,9.78629894 10.7244956,9.97726729 10.4990325,10.0016988 C10.3548748,10.0269991 10.2012635,9.98339116 10.0923345,9.8705919 L5.9,5.529 L5.9,10.0043393 L5,10.0043393 L5,4.45433935 C5,4.22285703 5.17478288,4.03219745 5.39957643,4.00713281 C5.54440076,3.98147432 5.69847999,4.0250215 5.80766587,4.13808679 Z" id="形状结合" fill="#66A754"></path>
    </g>
</svg>