<svg width="16" height="16" viewBox="0 0 16 16" fill="none" xmlns="http://www.w3.org/2000/svg">
<path fill-rule="evenodd" clip-rule="evenodd" d="M2 5H0.64C0.286538 5 0 5.28654 0 5.64V14.3591C0 14.7126 0.286538 14.9991 0.64 14.9991H13.36C13.7135 14.9991 14 14.7126 14 14.3591V13H13.2727V14.2718H0.727273V5.72727H2V5Z" fill="#74C4FF"/>
<path d="M8.61399 8.40253C8.42981 7.95788 8.33501 7.48129 8.33501 7C8.33501 6.51871 8.42981 6.04212 8.61399 5.59746C8.79818 5.15281 9.06814 4.74878 9.40847 4.40845C9.74879 4.06813 10.1528 3.79817 10.5975 3.61398C11.0421 3.4298 11.5187 3.335 12 3.335C12.4813 3.335 12.9579 3.4298 13.4025 3.61398C13.8472 3.79817 14.2512 4.06813 14.5916 4.40845C14.9319 4.74878 15.2018 5.15281 15.386 5.59746C15.5702 6.04212 15.665 6.51871 15.665 7C15.665 7.48129 15.5702 7.95788 15.386 8.40253C15.2018 8.84719 14.9319 9.25122 14.5916 9.59155C14.2512 9.93187 13.8472 10.2018 13.4025 10.386C12.9579 10.5702 12.4813 10.665 12 10.665C11.5187 10.665 11.0421 10.5702 10.5975 10.386C10.1528 10.2018 9.74879 9.93187 9.40847 9.59155C9.06814 9.25122 8.79818 8.84719 8.61399 8.40253Z" fill="#74C4FF" stroke="#74C4FF" stroke-width="0.67"/>
<path fill-rule="evenodd" clip-rule="evenodd" d="M11.375 5C11.1679 5 11 5.16789 11 5.375V7.625C11 7.83211 11.1679 8 11.375 8H13.625C13.8321 8 14 7.83211 14 7.625C14 7.41789 13.8321 7.25 13.625 7.25H11.75V5.375C11.75 5.16789 11.5821 5 11.375 5Z" fill="white"/>
<path fill-rule="evenodd" clip-rule="evenodd" d="M9 2H2.14C1.78654 2 1.5 2.28654 1.5 2.64V12.36C1.5 12.7135 1.78654 13 2.14 13H14.86C15.2135 13 15.5 12.7135 15.5 12.36V10.3451H14.7727V12.2727H2.22727V2.72727H9V2Z" fill="#74C4FF"/>
<path d="M6.89879 6.62685L3.31342 6.62685C3.14032 6.62685 3 6.48651 3 6.31342C3 6.14034 3.14032 6 3.31342 6L6.89879 6C7.0719 6 7.21222 6.14034 7.21222 6.31342C7.21222 6.48651 7.0719 6.62685 6.89879 6.62685ZM6.18658 9.46823H3.31342C3.14032 9.46823 3 9.32791 3 9.1548C3 8.9817 3.14032 8.84138 3.31342 8.84138H6.18658C6.35968 8.84138 6.5 8.9817 6.5 9.1548C6.5 9.32791 6.35968 9.46823 6.18658 9.46823Z" fill="#74C4FF"/>
<path d="M9.355 2.365C9.355 2.56658 9.19158 2.73 8.99 2.73C8.78842 2.73 8.625 2.56658 8.625 2.365C8.625 2.16342 8.78842 2 8.99 2C9.19158 2 9.355 2.16342 9.355 2.365Z" fill="#74C4FF"/>
<path d="M15.5001 10.3652C15.5001 10.5668 15.3366 10.7302 15.1351 10.7302C14.9335 10.7302 14.7701 10.5668 14.7701 10.3652C14.7701 10.1637 14.9335 10.0002 15.1351 10.0002C15.3366 10.0002 15.5001 10.1637 15.5001 10.3652Z" fill="#74C4FF"/>
<path d="M10 3.00005H5.96135C5.42682 3.00005 4.98138 2.60005 4.98138 2.12005C4.95169 1.64005 5.39713 1.24005 5.96135 1.24005H10C10.5345 1.24005 10.98 1.64005 10.98 2.12005V2.14672C10.98 2.38672 10.8612 2.60005 10.683 2.76005C10.5048 2.92005 10.2673 3.00005 10 3.00005Z" fill="#74C4FF"/>
</svg>
