<svg width="18" height="16" viewBox="0 0 18 18" fill="none" xmlns="http://www.w3.org/2000/svg">
<path fill-rule="evenodd" clip-rule="evenodd" d="M4 3.5H5.13378C5.30669 3.7989 5.62986 4 6 4H12C12.3701 4 12.6933 3.7989 12.8662 3.5H14C15.3807 3.5 16.5 4.61929 16.5 6V7C16.5 7.27614 16.7239 7.5 17 7.5C17.2761 7.5 17.5 7.27614 17.5 7V6C17.5 4.067 15.933 2.5 14 2.5H12.8662C12.6933 2.2011 12.3701 2 12 2H6C5.62986 2 5.30669 2.2011 5.13378 2.5H4C2.067 2.5 0.5 4.067 0.5 6V12C0.5 13.933 2.06704 15.5 4.00003 15.5H4.01056H4.02108H4.03159H4.0421H4.05261H4.06311H4.07361H4.0841H4.09459H4.10507H4.11555H4.12603H4.1365H4.14696H4.15743H4.16788H4.17834H4.18879H4.19923H4.20967H4.22011H4.23054H4.24097H4.25139H4.26181H4.27223H4.28264H4.29304H4.30345H4.31384H4.32424H4.33463H4.34501H4.3554H4.36577H4.37615H4.38652H4.39688H4.40724H4.4176H4.42795H4.4383H4.44864H4.45898H4.46932H4.47965H4.48998H4.50031H4.51063H4.52094H4.53125H4.54156H4.55187H4.56217H4.57246H4.58275H4.59304H4.60333H4.61361H4.62388H4.63415H4.64442H4.65469H4.66495H4.6752H4.68546H4.69571H4.70595H4.71619H4.72643H4.73666H4.74689H4.75712H4.76734H4.77756H4.78777H4.79798H4.80819H4.81839H4.82859H4.83879H4.84898H4.85917H4.86935H4.87953H4.88971H4.89988H4.91005H4.92022H4.93038H4.94054H4.95069H4.96084H4.97099H4.98113H4.99127H5.00141H5.01154H5.02167H5.0318H5.04192H5.05204H5.06215H5.07227H5.08237H5.09248H5.10258H5.11268H5.12277H5.13286H5.14295H5.15303H5.16311H5.17319H5.18326H5.19333H5.20339H5.21346H5.22352H5.23357H5.24362H5.25367H5.26372H5.27376H5.2838H5.29383H5.30387H5.3139H5.32392H5.33394H5.34396H5.35398H5.36399H5.374H5.384H5.394H5.404H5.414H5.42399H5.43398H5.44397H5.45395H5.46393H5.4739H5.48388H5.49385H5.50381H5.51378H5.52374H5.53369H5.54365H5.5536H5.56355H5.57349H5.58343H5.59337H5.60331H5.61324H5.62317H5.63309H5.64302H5.65294H5.66285H5.67277H5.68268H5.69259H5.70249H5.71239H5.72229H5.73219H5.74208H5.75197H5.76186H5.77174H5.78162H5.7915H5.80137H5.81125H5.82112H5.83098H5.84085H5.85071H5.86056H5.87042H5.88027H5.89012H5.89997H5.90981H5.91965H5.92949H5.93932H5.94916H5.95899H5.96881H5.97864H5.98846H5.99828H6.00809H6.0179H6.02771H6.03752H6.04733H6.05713H6.06693H6.07673H6.08652H6.09631H6.1061H6.11589H6.12567H6.13545H6.14523H6.155H6.16478H6.17455H6.18432H6.19408H6.20384H6.2136H6.22336H6.23312H6.24287H6.25262H6.26237H6.27211H6.28185H6.29159H6.30133H6.31107H6.3208H6.33053H6.34026H6.34998H6.35971H6.36943H6.37914H6.38886H6.39857H6.40828H6.41799H6.4277H6.4374H6.4471H6.4568H6.4665H6.47619H6.48589H6.49558H6.50526H6.51495H6.52463H6.53431H6.54399H6.55367H6.56334H6.57301H6.58268H6.59235H6.60201H6.61168H6.62134H6.63099H6.64065H6.6503H6.65996H6.66961H6.67925H6.6889H6.69854H6.70818H6.71782H6.72746H6.7371H6.74673H6.75636H6.76599H6.77561H6.78524H6.79486H6.80448H6.8141H6.82372H6.83333H6.84294H6.85255H6.86216H6.87177H6.88137H6.89098H6.90058H6.91018H6.91977H6.92937H6.93896H6.94855H6.95814H6.96773H6.97732H6.9869H6.99648H7.00606H7.01564H7.02522H7.03479H7.04436H7.05393H7.0635H7.07307H7.08264H7.0922H7.10176H7.11132H7.12088H7.13044H7.13999H7.14955H7.1591H7.16865H7.1782H7.18774H7.19729H7.20683H7.21637H7.22591H7.23545H7.24499H7.25452H7.26406H7.27359H7.28312H7.29265H7.30217H7.3117H7.32122H7.33075H7.34027H7.34979H7.3593H7.36882H7.37833H7.38785H7.39736H7.40687H7.41638H7.42589H7.43539H7.4449H7.4544H7.4639H7.4734H7.4829H7.4924H7.50189H7.51139H7.52088H7.53038H7.53987H7.54936H7.55884H7.56833H7.57781H7.5873H7.59678H7.60626H7.61574H7.62522H7.6347H7.64418H7.65365H7.66312H7.6726H7.68207H7.69154H7.70101H7.71047H7.71994H7.72941H7.73887H7.74833H7.75779H7.76725H7.77671H7.78617H7.79563H7.80509H7.81454H7.824H7.83345H7.8429H7.85235H7.8618H7.87125H7.8807H7.89014H7.89959H7.90903H7.91848H7.92792H7.93736H7.9468H7.95624H7.96568H7.97512H7.98455H7.99399H8.00342H8.01286H8.02229H8.03172H8.04115H8.05058H8.06001H8.06944H8.07887H8.08829H8.09772H8.10715H8.11657H8.12599H8.13542H8.14484H8.15426H8.16368H8.1731H8.18252H8.19194H8.20135H8.21077H8.22018H8.2296H8.23901H8.24843H8.25784H8.26725H8.27666H8.28607H8.29548H8.30489H8.3143H8.32371H8.33312H8.34253H8.35193H8.36134H8.37074H8.38015H8.38955H8.39896H8.40836H8.41776H8.42716H8.43656H8.44596H8.45537H8.46476H8.47416H8.48356H8.49296H8.50236H8.51176H8.52115H8.53055H8.53995H8.54934H8.55874H8.56813H8.57753H8.58692H8.59631H8.60571H8.6151H8.62449H8.63388H8.64328H8.65267H8.66206H8.67145H8.68084H8.69023H8.69962H8.70901H8.7184H8.72779H8.73718H8.74657H8.75595H8.76534H8.77473H8.78412H8.79351H8.80289H8.81228H8.82167H8.83105H8.84044H8.84983H8.85921H8.8686H8.87799H8.88737H8.89676H8.90615H8.91553H8.92492H8.9343H8.94369H8.95307H8.96246H8.97184H8.98123H8.99061H9C9.27614 15.5 9.5 15.2761 9.5 15C9.5 14.7239 9.27614 14.5 9 14.5H8.99061H8.98123H8.97184H8.96246H8.95307H8.94369H8.9343H8.92492H8.91553H8.90615H8.89676H8.88737H8.87799H8.8686H8.85921H8.84983H8.84044H8.83105H8.82167H8.81228H8.80289H8.79351H8.78412H8.77473H8.76534H8.75595H8.74657H8.73718H8.72779H8.7184H8.70901H8.69962H8.69023H8.68084H8.67145H8.66206H8.65267H8.64328H8.63388H8.62449H8.6151H8.60571H8.59631H8.58692H8.57753H8.56813H8.55874H8.54934H8.53995H8.53055H8.52115H8.51176H8.50236H8.49296H8.48356H8.47416H8.46476H8.45537H8.44596H8.43656H8.42716H8.41776H8.40836H8.39896H8.38955H8.38015H8.37074H8.36134H8.35193H8.34253H8.33312H8.32371H8.3143H8.30489H8.29548H8.28607H8.27666H8.26725H8.25784H8.24843H8.23901H8.2296H8.22018H8.21077H8.20135H8.19194H8.18252H8.1731H8.16368H8.15426H8.14484H8.13542H8.12599H8.11657H8.10715H8.09772H8.08829H8.07887H8.06944H8.06001H8.05058H8.04115H8.03172H8.02229H8.01286H8.00342H7.99399H7.98455H7.97512H7.96568H7.95624H7.9468H7.93736H7.92792H7.91848H7.90903H7.89959H7.89014H7.8807H7.87125H7.8618H7.85235H7.8429H7.83345H7.824H7.81454H7.80509H7.79563H7.78617H7.77671H7.76725H7.75779H7.74833H7.73887H7.72941H7.71994H7.71047H7.70101H7.69154H7.68207H7.6726H7.66312H7.65365H7.64418H7.6347H7.62522H7.61574H7.60626H7.59678H7.5873H7.57781H7.56833H7.55884H7.54936H7.53987H7.53038H7.52088H7.51139H7.50189H7.4924H7.4829H7.4734H7.4639H7.4544H7.4449H7.43539H7.42589H7.41638H7.40687H7.39736H7.38785H7.37833H7.36882H7.3593H7.34979H7.34027H7.33075H7.32122H7.3117H7.30217H7.29265H7.28312H7.27359H7.26406H7.25452H7.24499H7.23545H7.22591H7.21637H7.20683H7.19729H7.18774H7.1782H7.16865H7.1591H7.14955H7.13999H7.13044H7.12088H7.11132H7.10176H7.0922H7.08264H7.07307H7.0635H7.05393H7.04436H7.03479H7.02522H7.01564H7.00606H6.99648H6.9869H6.97732H6.96773H6.95814H6.94855H6.93896H6.92937H6.91977H6.91018H6.90058H6.89098H6.88137H6.87177H6.86216H6.85255H6.84294H6.83333H6.82372H6.8141H6.80448H6.79486H6.78524H6.77561H6.76599H6.75636H6.74673H6.7371H6.72746H6.71782H6.70818H6.69854H6.6889H6.67925H6.66961H6.65996H6.6503H6.64065H6.63099H6.62134H6.61168H6.60201H6.59235H6.58268H6.57301H6.56334H6.55367H6.54399H6.53431H6.52463H6.51495H6.50526H6.49558H6.48589H6.47619H6.4665H6.4568H6.4471H6.4374H6.4277H6.41799H6.40828H6.39857H6.38886H6.37914H6.36943H6.35971H6.34998H6.34026H6.33053H6.3208H6.31107H6.30133H6.29159H6.28185H6.27211H6.26237H6.25262H6.24287H6.23312H6.22336H6.2136H6.20384H6.19408H6.18432H6.17455H6.16478H6.155H6.14523H6.13545H6.12567H6.11589H6.1061H6.09631H6.08652H6.07673H6.06693H6.05713H6.04733H6.03752H6.02771H6.0179H6.00809H5.99828H5.98846H5.97864H5.96881H5.95899H5.94916H5.93932H5.92949H5.91965H5.90981H5.89997H5.89012H5.88027H5.87042H5.86056H5.85071H5.84085H5.83098H5.82112H5.81125H5.80137H5.7915H5.78162H5.77174H5.76186H5.75197H5.74208H5.73219H5.72229H5.71239H5.70249H5.69259H5.68268H5.67277H5.66285H5.65294H5.64302H5.63309H5.62317H5.61324H5.60331H5.59337H5.58343H5.57349H5.56355H5.5536H5.54365H5.53369H5.52374H5.51378H5.50381H5.49385H5.48388H5.4739H5.46393H5.45395H5.44397H5.43398H5.42399H5.414H5.404H5.394H5.384H5.374H5.36399H5.35398H5.34396H5.33394H5.32392H5.3139H5.30387H5.29383H5.2838H5.27376H5.26372H5.25367H5.24362H5.23357H5.22352H5.21346H5.20339H5.19333H5.18326H5.17319H5.16311H5.15303H5.14295H5.13286H5.12277H5.11268H5.10258H5.09248H5.08237H5.07227H5.06215H5.05204H5.04192H5.0318H5.02167H5.01154H5.00141H4.99127H4.98113H4.97099H4.96084H4.95069H4.94054H4.93038H4.92022H4.91005H4.89988H4.88971H4.87953H4.86935H4.85917H4.84898H4.83879H4.82859H4.81839H4.80819H4.79798H4.78777H4.77756H4.76734H4.75712H4.74689H4.73666H4.72643H4.71619H4.70595H4.69571H4.68546H4.6752H4.66495H4.65469H4.64442H4.63415H4.62388H4.61361H4.60333H4.59304H4.58275H4.57246H4.56217H4.55187H4.54156H4.53125H4.52094H4.51063H4.50031H4.48998H4.47965H4.46932H4.45898H4.44864H4.4383H4.42795H4.4176H4.40724H4.39688H4.38652H4.37615H4.36577H4.3554H4.34501H4.33463H4.32424H4.31384H4.30345H4.29304H4.28264H4.27223H4.26181H4.25139H4.24097H4.23054H4.22011H4.20967H4.19923H4.18879H4.17834H4.16788H4.15743H4.14696H4.1365H4.12603H4.11555H4.10507H4.09459H4.0841H4.07361H4.06311H4.05261H4.0421H4.03159H4.02108H4.01056H4.00003C2.61931 14.5 1.5 13.3807 1.5 12V6C1.5 4.61929 2.61929 3.5 4 3.5ZM9.5 11C9.5 9.067 11.067 7.5 13 7.5C14.933 7.5 16.5 9.067 16.5 11C16.5 12.933 14.933 14.5 13 14.5C11.067 14.5 9.5 12.933 9.5 11ZM13 6.5C10.5147 6.5 8.5 8.51472 8.5 11C8.5 13.4853 10.5147 15.5 13 15.5C15.4853 15.5 17.5 13.4853 17.5 11C17.5 8.51472 15.4853 6.5 13 6.5ZM13.5 9C13.5 8.72386 13.2761 8.5 13 8.5C12.7239 8.5 12.5 8.72386 12.5 9V11C12.5 11.2761 12.7239 11.5 13 11.5H15C15.2761 11.5 15.5 11.2761 15.5 11C15.5 10.7239 15.2761 10.5 15 10.5H13.5V9ZM3.25 8C3.25 7.58579 3.58579 7.25 4 7.25H7C7.41421 7.25 7.75 7.58579 7.75 8C7.75 8.41421 7.41421 8.75 7 8.75H4C3.58579 8.75 3.25 8.41421 3.25 8ZM4 10.5C3.72386 10.5 3.5 10.7239 3.5 11C3.5 11.2761 3.72386 11.5 4 11.5H6C6.27614 11.5 6.5 11.2761 6.5 11C6.5 10.7239 6.27614 10.5 6 10.5H4Z" fill="#FEBE55"/>
</svg>
