<?xml version="1.0" encoding="UTF-8"?>
<svg width="27px" height="12px" viewBox="0 0 27 12" version="1.1" xmlns="http://www.w3.org/2000/svg" xmlns:xlink="http://www.w3.org/1999/xlink">
    <title>编组 7</title>
    <g id="页面-1" stroke="none" stroke-width="1" fill="none" fill-rule="evenodd">
        <g id="简版虚拟足球2备份" transform="translate(-125.000000, -635.000000)" fill="#999999">
            <g id="编组-7" transform="translate(125.000000, 635.000000)">
                <path d="M21,0 C24.3137085,-6.08718376e-16 27,2.6862915 27,6 C27,9.3137085 24.3137085,12 21,12 L6,12 C2.6862915,12 4.05812251e-16,9.3137085 0,6 C-4.05812251e-16,2.6862915 2.6862915,6.08718376e-16 6,0 L21,0 Z M21,1 C18.2385763,1 16,3.23857625 16,6 C16,8.76142375 18.2385763,11 21,11 C23.7614237,11 26,8.76142375 26,6 C26,3.23857625 23.7614237,1 21,1 Z" id="形状结合"></path>
                <path d="M19.85,9.8 C18.388775,9.8 17.2,8.6112 17.2,7.15 C17.2,5.688775 18.388775,4.5 19.85,4.5 L24.809425,4.5 C25.016525,4.5 25.184425,4.6679 25.184425,4.875 L25.184425,6.71 C25.184425,6.9171 25.016525,7.085 24.809425,7.085 L22.499225,7.085 C22.49975,7.106725 22.5,7.12845 22.5,7.150175 C22.5,8.6112 21.3112,9.8 19.85,9.8 Z M19.85,5.25 C18.802325,5.25 17.95,6.10235 17.95,7.15 C17.95,8.19765 18.802325,9.05 19.85,9.05 C20.897675,9.05 21.75,8.19765 21.75,7.15 C21.7500338,7.02646741 21.7381369,6.90322028 21.714475,6.781975 C21.6929751,6.67199292 21.7217858,6.55815901 21.7930173,6.4716467 C21.8642488,6.38513439 21.9704362,6.33500997 22.0825,6.335 L24.434425,6.335 L24.434425,5.25 L19.85,5.25 Z" id="形状" fill-rule="nonzero"></path>
                <path d="M19.85,8.325 C19.2021,8.325 18.675,7.7979 18.675,7.15 C18.675,6.5021 19.2021,5.975 19.85,5.975 C20.4979,5.975 21.025,6.5021 21.025,7.15 C21.025,7.7979 20.4979,8.325 19.85,8.325 Z M19.85,6.725 C19.61565,6.725 19.425,6.91565 19.425,7.15 C19.425,7.38435 19.61565,7.575 19.85,7.575 C20.08435,7.575 20.275,7.38435 20.275,7.15 C20.275,6.91565 20.08435,6.725 19.85,6.725 Z M20.2,3.175 C19.9929,3.175 19.825,3.0071 19.825,2.8 L19.825,1.8 C19.825,1.5929 19.9929,1.425 20.2,1.425 C20.4071,1.425 20.575,1.5929 20.575,1.8 L20.575,2.8 C20.575,3.0071 20.4071,3.175 20.2,3.175 Z M19.2,4.17500038 C19.1005173,4.17514094 19.0050856,4.13560418 18.93485,4.06515 L17.93485,3.06515 C17.7884,2.9187 17.7884,2.681275 17.93485,2.534825 C18.081275,2.388375 18.318725,2.388375 18.465175,2.534825 L19.465175,3.534825 C19.611625,3.681275 19.611625,3.9187 19.465175,4.06515 C19.3949176,4.13558688 19.2994859,4.17511992 19.2,4.17500038 Z M21.2,4.17500038 C21.1005173,4.17514094 21.0050856,4.13560418 20.93485,4.06515 C20.7884,3.9187 20.7884,3.681275 20.93485,3.534825 L21.93485,2.534825 C22.081275,2.388375 22.318725,2.388375 22.465175,2.534825 C22.611625,2.681275 22.611625,2.9187 22.465175,3.06515 L21.465175,4.06515 C21.3949176,4.13558688 21.2994859,4.17511992 21.2,4.17500038 Z" id="形状" fill-rule="nonzero"></path>
            </g>
        </g>
    </g>
</svg>