<svg width="18" height="14" viewBox="0 0 18 14" fill="none" xmlns="http://www.w3.org/2000/svg">
<path fill-rule="evenodd" clip-rule="evenodd" d="M4 0.5C2.067 0.5 0.5 2.067 0.5 4V10C0.5 11.933 2.067 13.5 4 13.5H14C15.933 13.5 17.5 11.933 17.5 10V4C17.5 2.067 15.933 0.5 14 0.5H4ZM1.5 4C1.5 2.61929 2.61929 1.5 4 1.5H14V12.5H4C2.61929 12.5 1.5 11.3807 1.5 10V4ZM15 3.5C15 3.22386 15.2239 3 15.5 3C15.7761 3 16 3.22386 16 3.5V4.5C16 4.77614 15.7761 5 15.5 5C15.2239 5 15 4.77614 15 4.5V3.5ZM15.5 6C15.2239 6 15 6.22386 15 6.5V10.5C15 10.7761 15.2239 11 15.5 11C15.7761 11 16 10.7761 16 10.5V6.5C16 6.22386 15.7761 6 15.5 6ZM10.8 6.30718C11.3333 6.6151 11.3333 7.3849 10.8 7.69282L7.2 9.77128C6.66667 10.0792 6 9.6943 6 9.07846L6 4.92154C6 4.3057 6.66667 3.9208 7.2 4.22872L10.8 6.30718Z" fill="#66BAFD"/>
</svg>
