<?xml version="1.0" encoding="UTF-8"?>
<svg width="18px" height="12px" viewBox="0 0 18 12" version="1.1" xmlns="http://www.w3.org/2000/svg" xmlns:xlink="http://www.w3.org/1999/xlink">
    <title>视频播放中</title>
    <g id="页面-1" stroke="none" stroke-width="1" fill="none" fill-rule="evenodd">
        <g id="简版虚拟足球2备份" transform="translate(-129.000000, -465.000000)" fill="#75AC6B" fill-rule="nonzero">
            <g id="视频播放中" transform="translate(129.000000, 465.000000)">
                <path d="M12.1271307,0.016875 C15.3681787,0.0206912283 17.9944541,2.68788707 17.9975852,5.97879808 C17.9944541,9.26970908 15.3681787,11.9369049 12.1271307,11.9407212 L5.87826705,11.9407212 C2.6370345,11.9369061 0.0104333649,9.26989574 0.00667613636,5.97879808 C0.0104333649,2.68770042 2.6370345,0.020690032 5.87826705,0.016875 L12.1271307,0.016875 Z M12.1271307,1.17072115 L5.87826705,1.17072115 C3.26411187,1.17326549 1.14554555,3.32442513 1.14303977,5.97879808 C1.14554555,8.63317103 3.26411187,10.7843307 5.87826705,10.786875 L12.1271307,10.786875 C14.7408421,10.7836948 16.8587169,8.6327211 16.8612216,5.97879808 C16.8580922,3.32513818 14.7405828,1.17453564 12.1271307,1.17072115 Z M8.30667614,3.53149038 L10.9703125,5.80341346 L10.9703125,6.59610577 L8.23622159,8.42725962 L7.41917614,8.42725962 L7.41917614,3.53149038 L8.30667614,3.53149038 Z"></path>
            </g>
        </g>
    </g>
</svg>