<svg width="16" height="16" viewBox="0 0 16 16" fill="none" xmlns="http://www.w3.org/2000/svg">
<g id="sport / event_list/ ico_live_nor">
<path id="Union" fill-rule="evenodd" clip-rule="evenodd" d="M8.76584 0.366094C8.65238 0.21914 8.44127 0.191986 8.29432 0.305445C8.14736 0.418904 8.12021 0.630011 8.23367 0.776965L9.89346 2.92676H1.37004C0.627409 2.92676 0.0253906 3.52878 0.0253906 4.2714V13.6829C0.0253906 14.4255 0.627411 15.0275 1.37004 15.0275H2.18835C2.23548 15.3891 2.54468 15.6683 2.9191 15.6683H5.32395C5.69836 15.6683 6.00757 15.3891 6.0547 15.0275H9.94567C9.99281 15.3891 10.302 15.6683 10.6764 15.6683H13.0813C13.4557 15.6683 13.7649 15.3891 13.812 15.0275H14.5858C15.3285 15.0275 15.9305 14.4255 15.9305 13.6829V4.2714C15.9305 3.52878 15.3285 2.92676 14.5858 2.92676H11.1911L13.6393 0.826683C13.7803 0.705807 13.7965 0.493582 13.6756 0.352665C13.5548 0.211748 13.3425 0.195501 13.2016 0.316376L10.51 2.62517L8.76584 0.366094ZM0.697714 4.2714C0.697714 3.90009 0.998723 3.59908 1.37004 3.59908H12.7881V14.3552H1.37004C0.998724 14.3552 0.697714 14.0542 0.697714 13.6829V4.2714ZM15.2581 13.6936L15.2582 13.6829V4.2714L15.2581 4.26067V13.6936ZM14.7526 5.9145C14.7526 6.19064 14.5288 6.4145 14.2526 6.4145C13.9765 6.4145 13.7526 6.19064 13.7526 5.9145C13.7526 5.63836 13.9765 5.4145 14.2526 5.4145C14.5288 5.4145 14.7526 5.63836 14.7526 5.9145ZM14.2527 8.17725C14.0742 8.17725 13.9295 8.32196 13.9295 8.50048V11.7328C13.9295 11.9113 14.0742 12.056 14.2527 12.056C14.4312 12.056 14.5759 11.9113 14.5759 11.7328V8.50048C14.5759 8.32196 14.4312 8.17725 14.2527 8.17725ZM5.98423 10.733C5.88133 10.798 5.75786 10.7547 5.69612 10.6464C5.67554 10.6248 5.67554 10.5815 5.67554 10.5382V7.0742C5.67554 7.0309 5.67554 7.00925 5.69612 6.9876C5.7167 6.9443 5.75786 6.901 5.79901 6.901C5.86075 6.87935 5.92249 6.87935 5.98423 6.901L8.69349 8.633C8.73465 8.65465 8.75523 8.6763 8.77581 8.71959C8.85812 8.8062 8.81696 8.93609 8.71407 9.00104L5.98423 10.733Z" fill="#6AAAF5"/>
</g>
</svg>
