<?xml version="1.0" encoding="UTF-8"?>
<svg width="22px" height="22px" viewBox="0 0 22 22" version="1.1" xmlns="http://www.w3.org/2000/svg" xmlns:xlink="http://www.w3.org/1999/xlink">
    <title>体操选</title>
    <defs>
        <path d="M7.72835747,6.7112259 C7.21316836,5.23297307 5.82673562,3.99581909 5.93635069,3.67616594 C6.30489162,2.60144807 5.15441895,1.28626252 3.44226074,0.849555981 C1.57165527,0.465376294 0.962099189,0.991075426 0.748840332,1.74125029 C0.38239063,3.03030041 0.748840332,3.84143831 2.28284362,4.92800595 C3.81684691,6.0145736 3.7025567,8.7957282 7.72835747,10.4396637 C9.05419131,10.8805148 10.870528,5.52294741 12.1129712,4.30193263 C13.3554143,3.08091785 13.87052,2.90534793 15.6126597,2.17096866 C16.0087198,1.96633574 16.0968872,1.62769228 15.8962398,1.51867237 C15.6755381,1.3987562 15.1300522,1.51867237 14.8326204,1.51867237 C14.2647831,1.51867237 13.097991,1.74125029 12.1129712,1.74125029 C11.3357806,1.74125029 11.6459058,2.31439429 11.0894932,3.19330202 C10.5330807,4.07220974 8.19287109,5.86072541 7.72835747,6.7112259 Z" id="path-1"></path>
        <path d="M1.05058013,1.89445705 C1.2670923,1.04235451 1.9732954,0.799067181 3.16918945,1.16459504 C5.14402019,1.76820676 5.61621094,2.56938865 5.61621094,3.19330202 C5.61621094,3.49630586 6.9848348,4.98633407 7.59681108,6.37875184 C7.40305156,6.69519667 7.37491944,6.88707957 7.46897334,7.16074242 L7.44039558,7.24755312 C7.40013897,7.39687948 7.41263897,7.53145348 7.46897334,7.69536613 L7.505,7.791 L7.49573378,7.76020843 C7.46992423,7.64194208 7.47821972,7.49127721 7.52062028,7.30821382 L7.55704405,7.37434196 C7.54483325,7.34795393 7.53336407,7.32243111 7.52265883,7.29766327 C7.56254395,7.13063994 7.63110806,6.9345579 7.72835747,6.7112259 C7.61289659,6.87761313 7.53179704,7.01121867 7.4813488,7.13037625 C7.47163876,6.95502124 7.51780229,6.72623888 7.621175,6.44310995 C7.66231119,6.53214604 7.69729997,6.62211137 7.72835747,6.7112259 L7.72835747,6.7112259 L7.8825375,6.50301673 C8.76507658,5.37715404 10.5658108,4.02050928 11.0894932,3.19330202 C11.6459058,2.31439429 11.3357806,1.74125029 12.1129712,1.74125029 C13.097991,1.74125029 14.2647831,1.51867237 14.8326204,1.51867237 C15.1300522,1.51867237 15.6755381,1.3987562 15.8962398,1.51867237 L15.8219327,1.49277799 C15.7656851,1.54430786 15.6959867,1.59329231 15.6126597,1.63634495 C13.87052,2.37072422 13.3554143,2.54629415 12.1129712,3.76730893 C11.647055,4.22518947 11.100435,5.26477273 10.5292416,6.36214421 L10.2995866,6.80293296 C9.41523889,8.49491666 8.49071193,10.1585294 7.72835747,9.90503997 C3.7025567,8.26110449 3.20765125,5.17588495 2.28284362,4.39338225 C1.66630521,3.87171378 1.23869066,2.95270135 1,1.63634495 Z" id="path-3"></path>
        <path d="M7.46897334,7.69536613 L7.50530602,7.79072786 L7.49573378,7.76020843 C7.47499604,7.66518249 7.47627644,7.54924014 7.49957498,7.41238138 C7.5191675,7.53654268 7.55704405,7.6935602 7.55704405,7.90896567 C7.55704405,8.20012406 7.19275619,8.83491342 6.46418047,9.81333375 C5.89245881,9.47723455 5.41653128,9.10934037 5.01330602,8.73069158 C5.16704633,7.77740691 6.64747711,7.42188659 7.60978324,7.05072786 L7.49794559,7.09301491 C7.39666496,7.3111027 7.39401414,7.47726196 7.46897334,7.69536613 Z" id="path-5"></path>
    </defs>
    <g id="体操选" stroke="none" stroke-width="1" fill="none" fill-rule="evenodd">
        <g id="编组">
            <circle id="椭圆形" fill="#FFFDF7" cx="11" cy="11" r="11"></circle>
            <path d="M11,0 C13.7841744,0 17.3214443,1.65544074 19,3.38910057 C19.3830566,3.7847323 19.7495117,3.7847323 20.138916,3.95492972 C19.6869303,4.14092856 19.2727049,4.20218418 18.8962398,4.13869659 C18.7868651,4.20218418 18.880778,4.32747855 19.1779785,4.51457969 C18.2435303,4.51457969 15.4281006,1 11,1 C5.4771525,1 1,5.4771525 1,11 C1,16.5228475 5.4771525,21 11,21 C16.5228475,21 21,16.5228475 21,11 C21,10.6286444 20.9797579,10.2620165 20.9403168,9.90115967 L21,10.0035727 L21.9788905,10.3129149 C21.9928945,10.5401458 22,10.7692431 22,11 C22,17.0751322 17.0751322,22 11,22 C4.92486775,22 0,17.0751322 0,11 C0,4.92486775 4.92486775,0 11,0 Z" id="路径" fill-opacity="0.167777535" fill="#FFB001" fill-rule="nonzero" transform="translate(11.000000, 11.000000) scale(1, -1) translate(-11.000000, -11.000000) "></path>
            <path d="M19.3706323,9.99834883 C19.1953901,10.0516184 18.948899,9.99730486 18.6311589,9.83540819 C18.6299108,10.0918624 18.5291401,10.4827388 18.3288468,11.0080374 C18.9500021,11.0679406 19.4208478,11.1151159 19.7413839,11.1495633 C20.2259318,11.0011999 20.737993,11.1675763 20.9291323,10.7924443 C21.1690152,10.3216477 22.383146,9.6082761 22.2689742,9.30856687 C22.1548024,9.00885764 20.9420577,10.0202805 20.5775487,10.0202805 C20.2172075,9.98688176 20.0370369,9.90507532 20.0370369,9.77486117 C20.0370369,9.49284029 20.015133,9.26233774 20.015133,9.26233774 C20.015133,9.26233774 19.594353,8.52434174 19.5814852,9.04138314 C19.5729067,9.38607741 19.5026224,9.70506597 19.3706323,9.99834883 Z" id="路径-12" fill="#ECA58E" transform="translate(20.302687, 10.003573) scale(1, -1) rotate(-27.000000) translate(-20.302687, -10.003573) "></path>
            <g id="路径-15" transform="translate(3.000000, 10.934624)">
                <mask id="mask-2" fill="white">
                    <use xlink:href="#path-1"></use>
                </mask>
                <use id="蒙版" fill="#E0987F" xlink:href="#path-1"></use>
                <mask id="mask-4" fill="white">
                    <use xlink:href="#path-3"></use>
                </mask>
                <use id="形状结合" fill="#ECA58E" xlink:href="#path-3"></use>
                <mask id="mask-6" fill="white">
                    <use xlink:href="#path-5"></use>
                </mask>
                <use id="形状结合" fill="#E59D83" xlink:href="#path-5"></use>
            </g>
            <path d="M11.7094852,2.4 C12.0114581,2.4 12.429434,2.67118644 12.8706105,2.96177094 C13.2295849,3.19821234 13.7306727,2.85749422 13.9049404,2.72231723 C13.9052339,2.73047142 13.9053587,2.73902105 13.9053587,2.74763213 C13.9053587,3.33869659 15.1900266,3.40754424 13.513635,5.67390166 C12.3960406,7.18480661 11.0428912,6.90339385 9.45418679,4.82966338 L9,3.43052358 C9.8363728,2.94332017 10.3808084,2.78706929 10.6333069,2.96177094 C11.0532923,3.25235544 11.4075122,2.4 11.7094852,2.4 Z" id="形状结合" fill="#333333"></path>
            <path d="M9.32078738,4.11957214 C8.17367346,3.93610361 6.6980575,3.88141507 5.94198949,4.06488359 C5.18592148,4.24835212 4.34833968,5.19869937 4.00011605,6.18616274 C3.65189241,7.17362612 3.49214198,7.10787032 3.23179343,7.80682486 C2.97144488,8.5057794 3.10930641,9.46225008 3.00914511,11.3850947 C2.97517483,12.0372385 3.03290785,12.6951393 3.23179343,13.3491795 C3.44278697,14.0430371 3.94536359,14.7266439 4.73952329,15.4 C4.24658513,14.7088367 4.00011605,14.2303823 4.00011605,13.9646369 C4.00011605,13.5660188 3.10728805,12.0167446 4.92675311,11.7276726 C6.74621816,11.4386005 8.23219265,12.7199233 8.74179157,13.3491795 C8.87149765,13.6272219 8.93635069,14.0477586 8.93635069,14.6107896 C9.19264182,14.3709523 9.32078738,14.155568 9.32078738,13.9646369 C9.32078738,13.6782401 9.32078738,12.9595729 8.93635069,12.4925237 C8.551914,12.0254745 7.9609155,11.3841091 7.0929588,10.9155111 C7.76902762,10.3148382 8.45845259,9.47212206 9.32078738,9.07350395 C10.1831222,8.67488584 10.3007429,8.020848 10.6495173,7.80682486 C10.9982918,7.59280171 14.1963314,8.2124832 14.1963314,8.2124832 C14.1963314,8.2124832 15.5461974,8.73438755 16.7597475,9.07350395 C17.7592093,9.35279516 18.7218018,9.4 18.7218018,9.4 C18.7218018,9.4 19,9.07350395 19,8.2124832 C17.6380948,7.17196553 17.028385,7.00128116 15.0124332,6.55098772 C12.9964813,6.10069429 11.5246891,5.63251866 11.5246891,5.63251866 C11.5246891,5.63251866 11.8339459,5.35151941 12.4524593,4.78952091 C11.9978204,4.78952091 11.6885636,4.69996912 11.5246891,4.52086554 C10.7631069,3.68850854 11.7705009,3.31252729 11.5246891,3.41709748 C10.9706156,3.65280455 10.4045629,3.65280455 9.32078738,4.11957214 Z" id="路径-4" fill="#CC2B3F"></path>
            <path d="M11.4395316,3.49385291 C11.2704078,3.64834602 11.0414716,3.99274199 11.5246891,4.52086554 C11.5812344,4.5826656 11.655089,4.63380354 11.7462529,4.67427937 L11.7501023,4.6771312 L11.8438226,4.78952091 C12.0076972,4.96862449 11.9772427,4.96862449 11.7524593,4.78952091 C10.9906753,5.5071515 10.6097832,5.8659668 10.6097832,5.8659668 C10.6097832,5.8659668 9.30489162,6.62915938 8.62078738,6.18616274 C7.93668314,5.7431661 6.71956647,6.62915938 5.96761452,7.80682486 C5.21566257,8.98449034 4.64538942,10.0191123 5.24198949,10.4960937 C6.1099462,10.9646918 5.45350621,10.9628214 4.22675311,11.7276726 C3,12.4925237 3.66625977,13.5660188 3.66625977,13.9646369 C3.66625977,14.2303823 4.02401427,14.7088367 4.73952329,15.4 L4.73952329,15.4 L4.53016362,15.2161033 C3.8563958,14.602267 3.42360574,13.9799591 3.23179343,13.3491795 C3.03290785,12.6951393 2.97517483,12.0372385 3.00914511,11.3850947 C3.10930641,9.46225008 2.97144488,8.5057794 3.23179343,7.80682486 C3.49214198,7.10787032 3.65189241,7.17362612 4.00011605,6.18616274 C4.34833968,5.19869937 5.18592148,4.24835212 5.94198949,4.06488359 C6.19334366,4.00388963 6.52422404,3.96921738 6.89612201,3.95684797 C7.47193632,3.97574844 8.08252623,4.03348306 8.62078738,4.11957214 C8.68002075,4.09406112 8.740479,4.06989332 8.80194173,4.04695964 C8.98050275,4.06897528 9.15411271,4.09291432 9.32078738,4.11957214 C10.1349882,3.76890676 10.656988,3.68168343 11.1012274,3.56004552 C11.1772098,3.54733878 11.2496672,3.53419686 11.3180437,3.52053733 Z" id="形状结合" fill="#FD3C4A"></path>
            <path d="M8,3.9470518 C8.89103033,3.34633564 9.47894593,2.96825018 9.7637468,2.81279542 C10.1018788,2.48393375 10.2770024,2.01221263 10.4106445,1.721 C10.5801504,1.35163852 10.6719576,1.2 10.8244885,1.2 C11.0063482,1.2 11.1525392,1.27042254 11.2630615,1.41126761 C11.4706902,1.38922157 11.6069096,1.38922157 11.6717197,1.41126761 C11.7365298,1.43331365 11.8725977,1.49915275 12.0799233,1.60878491 C12.2629608,1.39878595 12.4361431,1.33294685 12.5994702,1.41126761 C12.6837984,1.52346543 12.8040161,1.721 13.177247,2.13869659 C13.2387642,2.20754277 13.3238629,2.11142353 13.5777588,2.3194458 C13.8316547,2.52746807 14.354407,3.02583008 14.2185669,3.29729004 C13.8316547,3.01982422 13.5777588,3.01982422 13.177247,3.01982422 C11.6879124,3.01982422 11.4021013,3.6 11.1658936,3.6 C10.9296858,3.6 9.49176025,4.13869659 9.15924072,4.13869659 C8.93756104,4.13869659 8.55114746,4.07481499 8,3.9470518 Z" id="路径-8" fill="#ECA58E"></path>
            <path d="M12.2988281,3.10913086 C12.003049,3.2071549 11.7719585,3.29317804 11.6879124,3.5 C11.6474724,3.5995155 11.5741905,3.57481432 11.5,3.73828125 C11.2192383,4.35689491 12.1756592,4.76581582 12.4857788,4.64019775 C12.7958984,4.51457969 12.5960889,4.94543457 12.7958984,4.94543457 C12.995708,4.94543457 13.1554565,4.8143087 13.1554565,4.41864014 C13.3689575,4.32415771 13.6142255,4.26282875 14.0485229,4.05914307 C14.4828204,3.85545738 14.5528511,3.57609898 14.2667048,3.31907527 C13.7120528,2.8208731 12.7958984,2.94439697 12.2988281,3.10913086 Z" id="路径-13" fill="#E69C83"></path>
        </g>
    </g>
</svg>