<?xml version="1.0" encoding="UTF-8"?>
<svg width="22px" height="22px" viewBox="0 0 22 22" version="1.1" xmlns="http://www.w3.org/2000/svg" xmlns:xlink="http://www.w3.org/1999/xlink">
    <title>政治娱乐选备份 8@2x</title>
    <defs>
        <linearGradient x1="29.7520558%" y1="0%" x2="70.2479442%" y2="100%" id="linearGradient-1">
            <stop stop-color="#00A3FF" offset="0%"></stop>
            <stop stop-color="#006AFF" offset="100%"></stop>
        </linearGradient>
    </defs>
    <g id="政治娱乐选备份-8" stroke="none" stroke-width="1" fill="none" fill-rule="evenodd">
        <path d="M15.5441601,7.79355 C15.6832531,7.70755 15.8605286,7.78955 15.8941654,7.95555 L15.8941654,7.95555 L16.0878048,8.92455 C16.419628,10.37455 16.3223538,11.88455 15.9959852,13.33355 L15.9959852,13.33355 L15.5987064,15.09955 C15.5541603,15.29755 15.4550678,15.47655 15.3123384,15.61655 L15.3123384,15.61655 L13.2741255,17.61155 L13.2741255,19.61255 C13.2741255,21.00655 12.1213807,22.13155 10.7659055,21.98755 C9.58679666,21.86255 8.72496535,20.74555 8.72496535,19.49955 L8.72496535,19.49955 L8.72496535,17.61155 L6.68675249,15.61655 C6.54493215,15.47655 6.44493063,15.29755 6.4003845,15.09955 L6.4003845,15.09955 L6.00310572,13.33355 C5.67764622,11.88455 5.5794629,10.37455 5.91219524,8.92455 L5.91219524,8.92455 L6.10492545,7.95555 C6.13856233,7.78955 6.31583776,7.70755 6.45493078,7.79355 L6.45493078,7.79355 L7.06584918,8.17255 C7.50585588,8.44655 7.97222662,8.66955 8.45223393,8.84455 C8.56405381,8.88555 8.62769114,9.00255 8.60223621,9.12355 C8.1413201,11.36355 8.11768338,13.68455 8.55041724,15.94255 L8.55041724,15.94255 L8.72496535,16.85755 L8.72496535,14.10355 C8.72496535,13.55555 8.90951362,13.05455 9.21042729,12.65055 C9.26224626,12.58055 9.29224672,12.49855 9.29406493,12.41055 C9.30951971,11.40055 9.41679407,10.39355 9.61679712,9.40355 C9.64316115,9.27555 9.76043567,9.19355 9.88407391,9.21355 C10.2522613,9.27055 10.6249943,9.30255 10.9995454,9.30255 C11.3740966,9.30255 11.7468296,9.27055 12.115017,9.21355 C12.2386552,9.19355 12.3568388,9.27555 12.3822938,9.40355 C12.5822968,10.39355 12.6895712,11.40055 12.7059351,12.41055 C12.7068442,12.49855 12.7377537,12.58155 12.7886636,12.65055 C13.0895773,13.05455 13.2741255,13.55555 13.2741255,14.10355 L13.2741255,14.10355 L13.2741255,16.85755 L13.4495828,15.94255 C13.8814075,13.68455 13.8577708,11.36355 13.3968547,9.12355 C13.3723089,9.00255 13.4359462,8.88555 13.546857,8.84455 C14.0277734,8.66955 14.4923259,8.44655 14.9341508,8.17255 L14.9341508,8.17255 Z M7.99704518,0.71025 C9.89707411,-0.23675 12.1025622,-0.23675 14.0025912,0.71025 L14.0025912,0.71025 L14.3725968,0.89525 C14.64351,1.02925 14.8162399,1.31725 14.8162399,1.63225 L14.8162399,1.63225 L14.8162399,1.81525 C14.8162399,2.87525 15.2226098,3.89225 15.945348,4.63425 L15.945348,4.63425 L16.2708075,4.96925 C16.7035414,5.41425 16.6162673,6.16925 16.0944412,6.49325 L16.0944412,6.49325 L14.5344175,7.46225 C12.3543843,8.81625 9.6452521,8.81625 7.4652189,7.46225 L7.4652189,7.46225 L5.90428603,6.49325 C5.38336901,6.16925 5.29609495,5.41425 5.72882882,4.96925 L5.72882882,4.96925 L6.05428832,4.63425 C6.77611749,3.89225 7.18339642,2.87525 7.18339642,1.81525 L7.18339642,1.81525 L7.18339642,1.63225 C7.18339642,1.31725 7.35612633,1.02925 7.62703954,0.89525 L7.62703954,0.89525 Z M13.3089443,1.88625 C11.839831,1.15425 10.1552599,1.15425 8.68796479,1.88625 C8.56796296,1.94525 8.49341637,2.07325 8.4979619,2.21225 C8.53887161,3.64025 9.63707015,4.75825 10.998,4.75825 C12.3580207,4.75825 13.4562192,3.64025 13.4989471,2.21425 C13.5034927,2.07325 13.4289461,1.94525 13.3089443,1.88625 Z M6.42365758,3.08235 C6.48638581,3.06835 6.54093209,3.13535 6.51638626,3.19635 C6.34456547,3.62235 6.09728897,4.01335 5.77910231,4.34035 L5.77910231,4.34035 L5.76546574,4.35535 L4.63272121,4.60935 C4.59635702,4.61635 4.55908373,4.62035 4.52271954,4.62035 C4.28089767,4.62035 4.06362164,4.44435 4.01180267,4.18635 C3.95089265,3.88935 4.13180449,3.59635 4.41453607,3.53235 L4.41453607,3.53235 Z M15.5754333,3.08265 L17.5854639,3.53265 C17.8681955,3.59565 18.0491074,3.88865 17.9881973,4.18565 C17.9354693,4.44365 17.7181932,4.62065 17.4763714,4.62065 C17.4400072,4.62065 17.403643,4.61665 17.3663697,4.60865 L17.3663697,4.60865 L16.2345343,4.35465 L16.2208977,4.34065 C15.902711,4.01265 15.6545254,3.62265 15.4827046,3.19665 C15.4581588,3.13565 15.5127051,3.06765 15.5754333,3.08265 L15.5754333,3.08265 Z M9.19188155,2.25435 C10.3555356,1.76435 11.6419189,1.76635 12.8046638,2.25435 C12.9001198,2.29535 12.961939,2.40435 12.9428478,2.51135 C12.7746634,3.48435 11.9710148,4.20835 10.9982727,4.20835 C10.0255306,4.20835 9.22188201,3.48535 9.05369763,2.51135 C9.03460643,2.40435 9.09642556,2.29435 9.19188155,2.25435 Z" id="摩托车" fill="url(#linearGradient-1)"></path>
    </g>
</svg>