<?xml version="1.0" encoding="UTF-8"?>
<svg width="16px" height="16px" viewBox="0 0 16 16" version="1.1" xmlns="http://www.w3.org/2000/svg" xmlns:xlink="http://www.w3.org/1999/xlink">
    <!-- Generator: Sketch 61.2 (89653) - https://sketch.com -->
    <title>D</title>
    <desc>Created with Sketch.</desc>
    <g id="页面-1" stroke="none" stroke-width="1" fill="none" fill-rule="evenodd">
        <g id="H5-logo样式" transform="translate(-74.000000, -388.000000)">
            <g id="D" transform="translate(74.000000, 388.000000)">
                <circle id="椭圆形备份-17" stroke="#FFFFFF" stroke-width="0.5" fill="#F1F2F5" cx="8" cy="8" r="7.75"></circle>
                <path d="M7.884,11.832 C8.698,11.832 9.391,11.579 9.864,11.106 C10.678,10.292 10.634,8.917 10.634,7.828 C10.634,6.739 10.678,5.54 9.864,4.726 C9.391,4.253 8.698,4 7.884,4 L5.2,4 L5.2,11.832 L7.884,11.832 Z M7.741,11.084 L6.036,11.084 L6.036,4.748 L7.741,4.748 C8.346,4.748 8.874,4.902 9.281,5.32 C9.7815,5.84092857 9.79828061,6.7317602 9.79812531,7.62259184 L9.798,7.828 C9.798,8.785 9.82,9.951 9.281,10.512 C8.874,10.93 8.346,11.084 7.741,11.084 Z" fill="#414655" fill-rule="nonzero"></path>
            </g>
        </g>
    </g>
</svg>