<?xml version="1.0" encoding="UTF-8"?>
<svg width="22px" height="22px" viewBox="0 0 22 22" version="1.1" xmlns="http://www.w3.org/2000/svg" xmlns:xlink="http://www.w3.org/1999/xlink">
    <title>画板</title>
    <g id="画板" stroke="none" stroke-width="1" fill="none" fill-rule="evenodd">
        <circle id="椭圆形" fill="#D1D1D1" cx="11" cy="11" r="11"></circle>
        <g id="编组-5" transform="translate(3.200000, 3.000000)" fill="#999999">
            <path d="M11.4659195,3.41574325 C11.3799905,3.39534596 11.3174966,3.49342654 11.3704428,3.56373208 C11.7746273,4.10013735 12.1508922,4.66836817 12.4935956,5.25960018 C12.9861684,6.11035514 13.4016365,6.9961182 13.7281378,7.8922969 C13.9360165,8.46226366 14.1052706,9.02760125 14.2312709,9.57268621 C14.2393719,9.60161853 14.2399506,9.6386519 14.2312709,9.67438332 C14.0527584,10.3567522 13.8253504,11.0188684 13.5525186,11.6516183 C13.5183784,11.7310375 13.5988103,11.8117587 13.6775062,11.7757379 C14.312426,11.4848234 14.876317,11.1460259 15.3442973,10.7743902 C15.5495722,10.6112119 15.6519926,10.3506764 15.6200224,10.0904301 C15.4471517,8.68504254 14.8702412,7.17202672 13.9701567,5.77893538 L13.9558352,5.7573808 C13.4801878,5.02481438 12.920926,4.32928134 12.2922266,3.68843039 C12.2472368,3.64257266 12.1916868,3.6088665 12.1299163,3.5907838 C11.9172637,3.52857931 11.6954974,3.46999135 11.4659195,3.41574325" id="Fill-1"></path>
            <path d="M9.92706707,13.4415453 C9.98768028,13.3776049 9.93444481,13.2741719 9.84677987,13.2847322 C9.18017915,13.3653087 8.49983558,13.4056693 7.81645412,13.4053799 C6.83333379,13.4048013 5.85874849,13.3197403 4.91974996,13.1525114 C4.32229749,13.0464745 3.74828021,12.9091906 3.21361088,12.7447104 C3.18467856,12.737188 3.15227435,12.7191052 3.12565662,12.6937895 C2.62498277,12.1968768 2.16640545,11.6678493 1.75600046,11.1145186 C1.70435626,11.045081 1.59397945,11.074592 1.58573374,11.160521 C1.51890007,11.8557647 1.52902638,12.5133964 1.61582335,13.1044838 C1.65386936,13.3631388 1.82543803,13.5821564 2.06572097,13.6848662 C3.36883279,14.2413794 4.96835626,14.5020596 6.62646768,14.4220618 L6.65221745,14.4206152 C7.52452698,14.376638 8.4066735,14.2418134 9.27652379,14.0196132 C9.33887295,14.0037004 9.39572496,13.9724535 9.442306,13.928187 C9.60302505,13.7754244 9.7649014,13.6129694 9.92706707,13.4415453" id="Fill-3"></path>
            <path d="M9.0021875,1.53793423 L8.97629308,1.53938085 C8.10398354,1.58393663 7.22198168,1.7193399 6.35242072,1.94226345 L6.35242072,1.94226345 C6.29007156,1.95832089 6.23307489,1.98956779 6.18649385,2.03383425 L6.18649385,2.03383425 C6.02591946,2.18659691 5.86433243,2.34919657 5.70216676,2.52076524 L5.70216676,2.52076524 C5.64169821,2.58470567 5.69507834,2.68813873 5.78245396,2.67743377 L5.78245396,2.67743377 C6.44905468,2.59642327 7.12954291,2.55562869 7.81277971,2.55548403 L7.81277971,2.55548403 C8.79590004,2.55548403 9.77048534,2.63982175 10.7096285,2.80632727 L10.7096285,2.80632727 C11.307081,2.91207491 11.8812429,3.04906946 12.4160569,3.21311573 L12.4160569,3.21311573 C12.4449893,3.22063813 12.4773935,3.23872083 12.5041559,3.26403661 L12.5041559,3.26403661 C13.005119,3.76051527 13.4641303,4.28910881 13.8748247,4.84229482 L13.8748247,4.84229482 C13.9263242,4.9117324 14.0368457,4.88222143 14.0449467,4.79614777 L14.0449467,4.79614777 C14.1113464,4.10104871 14.1007861,3.44327235 14.0136998,2.85232966 L14.0136998,2.85232966 C13.9756538,2.59367469 13.8039405,2.37480167 13.5632235,2.27223659 L13.5632235,2.27223659 C12.4162016,1.78313567 11.039457,1.52346807 9.59558945,1.52346807 L9.59558945,1.52346807 C9.39884965,1.52346807 9.20095256,1.52824191 9.0021875,1.53793423" id="Fill-5"></path>
            <path d="M6.97547829,6.02533751 L5.5437623,7.56077588 C5.36930039,7.74811267 5.34181468,8.02904552 5.47692863,8.24647193 L5.47692863,8.24647193 L6.43212927,9.78248895 C6.56608592,9.99817941 6.82691081,10.0982853 7.07081029,10.0276904 L7.07081029,10.0276904 L8.96255022,9.47985685 C9.18446114,9.41577176 9.34518019,9.22337181 9.36876003,8.99335984 L9.36876003,8.99335984 L9.53975006,7.32425414 C9.56318524,7.09612277 9.44673264,6.87638178 9.24478503,6.76759625 L9.24478503,6.76759625 L7.65871509,5.91293543 C7.57394339,5.86722236 7.48164928,5.84508913 7.39007848,5.84508913 L7.39007848,5.84508913 C7.23673717,5.84508913 7.08556578,5.90729363 6.97547829,6.02533751" id="Fill-7"></path>
            <path d="M10.5308268,4.75506387 L10.6413483,6.2793633 C10.648726,6.38134974 10.6971876,6.47610309 10.7755942,6.54177947 L10.7755942,6.54177947 L12.0487611,7.60605496 C12.1432251,7.6850402 12.2870188,7.65393796 12.3401096,7.54269318 L12.3401096,7.54269318 L12.6258163,6.94581936 C12.6739886,6.84513487 12.6755799,6.72766964 12.6289988,6.62626185 L12.6289988,6.62626185 C12.4279192,6.18952844 12.2498407,5.8546368 11.9921984,5.4080664 L11.9921984,5.4080664 C11.8416057,5.14724151 11.746563,4.98623313 11.6060966,4.77025334 L11.6060966,4.77025334 C11.5423008,4.67188344 11.4355405,4.60852166 11.3186539,4.59926331 L11.3186539,4.59926331 L10.7339317,4.55311626 C10.7288685,4.55268227 10.7238054,4.55253761 10.7188869,4.55253761 L10.7188869,4.55253761 C10.6103907,4.55253761 10.5227257,4.64483172 10.5308268,4.75506387" id="Fill-9"></path>
            <path d="M13.4143667,8.86678093 C13.1512273,9.48477535 12.8464252,10.094524 12.5050238,10.6863347 L12.5050238,10.6863347 C12.0136083,11.5376683 11.4531892,12.3396723 10.83939,13.0697795 L10.83939,13.0697795 C10.4492376,13.5342879 10.0436065,13.9630649 9.6342141,14.3442483 L9.6342141,14.3442483 C9.6130935,14.3656582 9.58141261,14.3846089 9.54611517,14.3950245 L9.54611517,14.3950245 C8.86562694,14.58077 8.17819495,14.7138587 7.49380085,14.7932779 L7.49380085,14.7932779 C7.40787186,14.8032596 7.37836089,14.9134917 7.44895575,14.963834 L7.44895575,14.963834 C8.01762056,15.3687418 8.59265048,15.688444 9.14800641,15.9083297 L9.14800641,15.9083297 C9.23465872,15.9426145 9.32536155,15.9596845 9.4156304,15.9604078 L9.4156304,15.9604078 L9.42763731,15.9604078 C9.58690975,15.9591059 9.74430159,15.9067384 9.87565433,15.8082238 L9.87565433,15.8082238 C11.0084994,14.9573242 12.0328483,13.7015167 12.7915985,12.2251003 L12.7915985,12.2251003 L12.8031714,12.2019544 C13.2007015,11.4241089 13.5243096,10.5924493 13.7660391,9.72795152 L13.7660391,9.72795152 C13.7833985,9.66603635 13.7848451,9.60108328 13.7698003,9.5384448 L13.7698003,9.5384448 C13.7177221,9.32318832 13.6576876,9.10171139 13.5902753,8.87574995 L13.5902753,8.87574995 C13.5771111,8.83162816 13.5392097,8.80906095 13.501019,8.80906095 L13.501019,8.80906095 C13.4660109,8.80906095 13.4308582,8.82801162 13.4143667,8.86678093" id="Fill-11"></path>
            <path d="M1.95528629,4.16744839 C1.31920918,4.45561433 0.753582266,4.79166326 0.284155328,5.16127368 L0.284155328,5.16127368 C0.0780125279,5.32343935 -0.0255651878,5.58339627 0.00539239763,5.84393184 L0.00539239763,5.84393184 C0.171608592,7.25004273 0.741575352,8.76566246 1.63558413,10.1628043 L1.63558413,10.1628043 L1.64976097,10.1845036 C2.12193647,10.9190953 2.67816038,11.6172322 3.30382186,12.2608317 L3.30382186,12.2608317 C3.34866696,12.3069788 3.40407236,12.3408296 3.46569821,12.3592016 L3.46569821,12.3592016 C3.67806146,12.4224187 3.89982771,12.4820193 4.12911637,12.5374247 L4.12911637,12.5374247 C4.21475605,12.5581113 4.27768385,12.4603201 4.22517168,12.3898699 L4.22517168,12.3898699 C3.82344638,11.851584 3.44964077,11.2817619 3.10968598,10.6889386 L3.10968598,10.6889386 C2.62101904,9.83586908 2.20960141,8.94822542 1.88715067,8.0506001 L1.88715067,8.0506001 C1.68173118,7.47976537 1.515081,6.91355982 1.39153998,6.36789621 L1.39153998,6.36789621 C1.38372826,6.33910855 1.38329427,6.30193051 1.39211863,6.26619909 L1.39211863,6.26619909 C1.57366896,5.58469823 1.80411491,4.92359465 2.07983994,4.29214671 L2.07983994,4.29214671 C2.10862761,4.22603635 2.05785138,4.1587687 1.99434493,4.1587687 L1.99434493,4.1587687 C1.98175937,4.1587687 1.9684505,4.16151727 1.95528629,4.16744839" id="Fill-13"></path>
            <path d="M2.0352263,7.07932756 C2.06039742,7.16380994 2.1765607,7.16945175 2.21127949,7.08829658 C2.47514227,6.47088081 2.78052294,5.86156609 3.12293698,5.27018941 C3.61550978,4.4192898 4.17679684,3.61815378 4.79146404,2.88876992 C5.18233972,2.42469546 5.58840487,1.99649709 5.99837588,1.61574772 C6.01935182,1.59448246 6.05132203,1.57553179 6.08661947,1.56511615 C6.76725236,1.38038327 7.45468435,1.24801789 8.13922311,1.1696113 C8.22515211,1.15977431 8.25480774,1.04954216 8.1845022,0.999199917 C7.61612671,0.593568751 7.04153078,0.273143276 6.48660883,0.0523896525 C6.24357732,-0.0440996441 5.96814161,-0.0051856699 5.75881625,0.15162752 C4.62481386,1.00108052 3.59887369,2.25558604 2.83824292,3.73098984 L2.82652533,3.7541357 C2.42812725,4.53125789 2.10336192,5.36262818 1.86047507,6.22683667 C1.84311568,6.28875184 1.8415244,6.3537049 1.85656921,6.41619872 C1.90835807,6.63159986 1.96810331,6.85322146 2.0352263,7.07932756" id="Fill-15"></path>
        </g>
    </g>
</svg>