<?xml version="1.0" encoding="UTF-8"?>
<svg width="16px" height="16px" viewBox="0 0 16 16" version="1.1" xmlns="http://www.w3.org/2000/svg" xmlns:xlink="http://www.w3.org/1999/xlink">
    <!-- Generator: Sketch 61.2 (89653) - https://sketch.com -->
    <title>S</title>
    <desc>Created with Sketch.</desc>
    <g id="页面-1" stroke="none" stroke-width="1" fill="none" fill-rule="evenodd">
        <g id="H5-logo样式" transform="translate(-48.000000, -388.000000)">
            <g id="S" transform="translate(48.000000, 388.000000)">
                <circle id="椭圆形备份-18" stroke="#FFFFFF" stroke-width="0.5" fill="#F1F2F5" cx="8" cy="8" r="7.75"></circle>
                <path d="M7.684,11.964 C9.312,11.964 10.39,11.117 10.39,9.742 C10.39,9.093 10.159,8.554 9.73,8.191 C9.4,7.905 9.037,7.751 8.3,7.641 L7.442,7.509 C7.035,7.443 6.628,7.289 6.386,7.08 C6.144,6.871 6.034,6.563 6.034,6.178 C6.034,5.309 6.639,4.726 7.684,4.726 C8.509,4.726 9.026,4.957 9.51,5.397 L10.049,4.858 C9.378,4.253 8.718,4 7.717,4 C6.166,4 5.209,4.88 5.209,6.211 C5.209,6.838 5.407,7.322 5.803,7.674 C6.144,7.971 6.628,8.169 7.244,8.268 L8.157,8.411 C8.729,8.499 8.927,8.565 9.18,8.785 C9.433,9.005 9.554,9.357 9.554,9.764 C9.554,10.677 8.85,11.216 7.706,11.216 C6.826,11.216 6.221,11.007 5.572,10.358 L5,10.93 C5.737,11.667 6.507,11.964 7.684,11.964 Z" fill="#414655" fill-rule="nonzero"></path>
            </g>
        </g>
    </g>
</svg>