<svg width="77" height="122" viewBox="0 0 77 122" fill="none" xmlns="http://www.w3.org/2000/svg">
<path d="M34.1836 43.1074H42.8311V51.7549H34.1836V43.1074Z" fill="#FFB300"/>
<path d="M45.1816 55.0029H31.8242V50.8193C31.8242 50.0332 32.4668 49.3906 33.2529 49.3906H43.7598C44.5459 49.3906 45.1885 50.0332 45.1885 50.8193V55.0029H45.1816Z" fill="#FFCA28"/>
<path d="M51.9111 70.001H25.1006C24.3145 70.001 23.6719 69.3584 23.6719 68.5723V56.3975C23.6719 55.6113 24.3145 54.9688 25.1006 54.9688H51.918C52.7041 54.9688 53.3467 55.6113 53.3467 56.3975V68.5723C53.3398 69.3652 52.7041 70.001 51.9111 70.001Z" fill="#455A64"/>
<path d="M47.1387 66.4326H29.8711C29.4746 66.4326 29.1602 66.1113 29.1602 65.7217V58.8242C29.1602 58.4277 29.4814 58.1133 29.8711 58.1133H47.1387C47.5352 58.1133 47.8496 58.4346 47.8496 58.8242V65.7148C47.8496 66.1113 47.5352 66.4326 47.1387 66.4326Z" fill="#CFD8DC"/>
<path fill-rule="evenodd" clip-rule="evenodd" d="M10.2168 4.88086H24.6543V31.6094H22.7197C14.2363 31.6094 7.35938 24.7324 7.35938 16.249V7.73828C7.35938 6.15918 8.6377 4.88086 10.2168 4.88086ZM21.0859 27.918V8.44922H10.9346V16.2422C10.9346 22.1895 15.3574 27.1182 21.0859 27.918ZM66.0732 8.44922V15.8867C66.0732 21.9023 61.6709 26.9131 55.9219 27.8633V8.44922H66.0732ZM52.3535 4.88086H66.791C68.3633 4.88086 69.6484 6.15918 69.6416 7.73828V15.8936C69.6416 24.5684 62.6074 31.6025 53.9326 31.6025H52.3535V4.88086Z" fill="#FFB300"/>
<path d="M38.5059 44.8232C27.3838 44.8232 18.3672 35.8066 18.3672 24.6846V2.41992C18.3672 1.6748 18.9756 1.06641 19.7207 1.06641H57.2842C58.0293 1.06641 58.6377 1.6748 58.6377 2.41992V24.6846C58.6445 35.8066 49.6279 44.8232 38.5059 44.8232Z" fill="#FFCA28"/>
<path d="M57.3232 31.8691L47.2607 18.6484L33.1445 28.7656L44.5605 43.9004C47.5615 42.9092 49.6602 41.583 51.6631 39.915C54.0488 37.9258 55.9629 35.2803 57.3232 31.8691Z" fill="#FFB806"/>
<path d="M39.208 12.7222L41.3476 17.0493C41.4501 17.2612 41.6552 17.4048 41.8876 17.439L46.666 18.1362C47.2539 18.2183 47.4863 18.9429 47.0624 19.353L43.6035 22.7231C43.4326 22.8872 43.3574 23.1265 43.3984 23.3521L44.2119 28.1099C44.3144 28.6909 43.6992 29.1353 43.1728 28.8618L38.5654 26.4419L33.958 28.8618C33.4316 29.1353 32.8232 28.6909 32.9189 28.1099L33.7324 23.3521C33.7734 23.1196 33.6982 22.8872 33.5273 22.7231L30.0683 19.353C29.6445 18.9429 29.8769 18.2183 30.4648 18.1362L35.2431 17.439C35.4755 17.4048 35.6738 17.2612 35.7832 17.0493L37.9228 12.7222C38.1894 12.189 38.9482 12.189 39.208 12.7222Z" fill="#FFF8E1"/>
<rect width="1" height="10" transform="translate(38 70)" fill="#BFCEDD"/>
<rect x="38" y="70" width="1" height="10" fill="#BFCEDD"/>
<rect width="76" height="1" transform="translate(0.5 80)" fill="#BFCEDD"/>
<path d="M38.5864 88.76H34.9464L32.5864 96.72L30.1864 88.76H26.5664L31.2664 103H33.8664L38.5864 88.76ZM49.5781 98.64C49.5781 97.32 49.2781 96.26 48.5181 95.52C47.9181 94.92 46.9981 94.52 45.7181 94.34L43.9981 94.1C43.4981 94.04 43.1981 93.86 43.0181 93.68C42.7981 93.46 42.7381 93.2 42.7381 93.02C42.7381 92.4 43.2381 91.7 44.4581 91.7C45.0781 91.7 46.2581 91.64 47.1581 92.54L49.3581 90.34C48.1381 89.12 46.5981 88.64 44.5581 88.64C41.3181 88.64 39.3581 90.54 39.3581 93.14C39.3581 94.36 39.6781 95.32 40.3381 96C40.9781 96.66 41.9381 97.08 43.1981 97.26L44.9181 97.5C45.3781 97.56 45.6781 97.7 45.8581 97.88C46.0581 98.1 46.1381 98.38 46.1381 98.72C46.1381 99.54 45.4781 100 44.0981 100C42.9581 100 41.6581 99.74 40.9181 99L38.6781 101.24C40.1181 102.72 41.8981 103.12 44.0781 103.12C47.0781 103.12 49.5781 101.54 49.5781 98.64Z" fill="#CBCED8"/>
</svg>
