<?xml version="1.0" encoding="UTF-8"?>
<svg width="16px" height="16px" viewBox="0 0 16 16" version="1.1" xmlns="http://www.w3.org/2000/svg" xmlns:xlink="http://www.w3.org/1999/xlink">
    <title>形状结合@3x</title>
    <g id="页面-1" stroke="none" stroke-width="1" fill="none" fill-rule="evenodd">
        <g id="虚拟体育备份-4" transform="translate(-13.000000, -538.000000)" fill="#999999" fill-rule="nonzero">
            <path d="M17.9482484,543.746299 C18.0736465,543.746299 18.2030255,543.752467 18.3324045,543.762747 L27.9263535,543.762747 C28.4717357,543.762747 28.9136146,544.215049 28.9215764,544.776316 L28.9475568,546.69449 C28.955414,547.268092 28.5075637,547.736842 27.9522293,547.736842 L23.3622611,547.736842 C23.0656847,547.736842 22.8367834,548.004112 22.8686306,548.308388 C22.8865446,548.476974 22.8945064,548.647615 22.8964968,548.818257 C22.906449,550.173109 22.392914,551.480674 21.4713376,552.444901 C20.5338376,553.427632 19.2818471,553.968339 17.9482484,553.968339 C16.6265924,553.968339 15.3845541,553.435855 14.4490446,552.471628 C13.5214968,551.511513 13,550.214227 13,548.857319 C13,547.492187 13.5155255,546.209293 14.4490446,545.24301 C15.3825637,544.278783 16.6265924,543.746299 17.9482484,543.746299 Z M20.906051,545.495888 C20.906051,545.66653 20.7726911,545.804276 20.6074841,545.804276 L20.2093949,545.804276 C20.0441879,545.804276 19.910828,545.66653 19.910828,545.495888 L19.91,544.792168 L18.2925955,544.792763 L18.2726911,544.790707 C18.1632166,544.780428 18.053742,544.776316 17.9482484,544.776316 C15.7647293,544.776316 13.991242,546.612253 13.9952162,548.869655 C14.0011943,551.108553 15.7707006,552.936266 17.9382962,552.94245 C20.1218153,552.948602 21.9012739,551.11472 21.9012739,548.859375 C21.9012739,548.359786 21.8156847,547.872533 21.6445064,547.407895 C21.5210987,547.070724 21.7619427,546.710937 22.1102707,546.710937 L27.4486465,546.710937 C27.7253185,546.710937 27.9502389,546.476562 27.94631,546.190789 L27.9343153,545.300576 C27.9303344,545.018914 27.7093949,544.792763 27.4367038,544.792763 L20.906,544.792168 L20.906051,545.495888 Z M17.9482484,546.708882 C19.0947452,546.708882 20.0282643,547.673109 20.0282643,548.857319 C20.0282643,550.043586 19.0947452,551.005757 17.9482484,551.005757 C16.8017516,551.005757 15.8682325,550.04153 15.8682325,548.857319 C15.8682325,547.673109 16.8017516,546.708882 17.9482484,546.708882 Z M17.9482484,547.738898 C17.3511146,547.738898 16.8634554,548.240543 16.8634554,548.859375 C16.8634554,549.476151 17.3491242,549.979852 17.9482484,549.979852 C18.5473726,549.979852 19.0330414,549.478207 19.0330414,548.859375 C19.0330414,548.240543 18.5453822,547.738898 17.9482484,547.738898 Z M17.2197452,539.712582 L18.6269904,541.166118 C18.8200637,541.367599 18.8200637,541.692434 18.6269904,541.893914 C18.4319268,542.095395 18.1174363,542.095395 17.9223726,541.893914 L16.5151274,540.440378 C16.3200637,540.238898 16.3200637,539.914062 16.5151274,539.712582 C16.7101911,539.511102 17.0246815,539.511102 17.2197452,539.712582 Z M23.6170382,539.712582 C23.8121019,539.511102 24.1265924,539.511102 24.3216561,539.712582 C24.5167197,539.914062 24.5167197,540.238898 24.3216561,540.440378 L24.3216561,540.440378 L22.9144108,541.893914 C22.7193471,542.095395 22.4048567,542.095395 22.209793,541.893914 C22.0147293,541.692434 22.0147293,541.367599 22.209793,541.166118 L22.209793,541.166118 Z M20.4084395,538.006168 C20.683121,538.006168 20.906051,538.236431 20.906051,538.520148 L20.906051,540.576069 C20.906051,540.859786 20.683121,541.090049 20.4084395,541.090049 C20.133758,541.090049 19.910828,540.859786 19.910828,540.576069 L19.910828,538.520148 C19.910828,538.236431 20.133758,538.006168 20.4084395,538.006168 Z" id="形状结合"></path>
        </g>
    </g>
</svg>