<svg width="12" height="13" viewBox="0 0 12 13" fill="none" xmlns="http://www.w3.org/2000/svg">
<path fill-rule="evenodd" clip-rule="evenodd" d="M2.58186 10.6338C2.48216 10.7342 2.35157 10.7843 2.22095 10.7843C2.09038 10.7843 1.95974 10.7342 1.86041 10.6335C1.66112 10.4325 1.66112 10.1072 1.86041 9.90619L5.24062 6.49872L1.86041 3.0908C1.66111 2.8899 1.66111 2.56417 1.86041 2.36357C2.05975 2.16267 2.38251 2.16267 2.58186 2.36357L5.99751 5.80717L9.41316 2.36357C9.61251 2.16267 9.93527 2.16267 10.1346 2.36357C10.3339 2.56417 10.3339 2.8899 10.1346 3.0908L6.75439 6.49872L10.1346 9.90619C10.3339 10.1072 10.3339 10.4325 10.1346 10.6335C10.0353 10.7342 9.90464 10.7843 9.77406 10.7843C9.64344 10.7843 9.51286 10.7342 9.41316 10.6338L5.99751 7.19054L2.58186 10.6338Z" fill="#8A8986"/>
</svg>
