<svg width="13" height="13" viewBox="0 0 13 13" fill="none" xmlns="http://www.w3.org/2000/svg">
<mask id="path-1-inside-1_10596_91258" fill="white">
<path fill-rule="evenodd" clip-rule="evenodd" d="M4.78613 1C4.78613 0.723858 5.00999 0.5 5.28613 0.5H7.7147C7.99085 0.5 8.2147 0.723858 8.2147 1V12C8.2147 12.2761 7.99085 12.5 7.7147 12.5H5.28613C5.00999 12.5 4.78613 12.2761 4.78613 12V1ZM0.5 3.57143C0.5 3.29529 0.723858 3.07143 1 3.07143H3.42857C3.70471 3.07143 3.92857 3.29529 3.92857 3.57143V12C3.92857 12.2761 3.70471 12.5 3.42857 12.5H1C0.723857 12.5 0.5 12.2761 0.5 12V3.57143ZM9.57143 6.5C9.29529 6.5 9.07143 6.72386 9.07143 7V12C9.07143 12.2761 9.29529 12.5 9.57143 12.5H12C12.2761 12.5 12.5 12.2761 12.5 12V7C12.5 6.72386 12.2761 6.5 12 6.5H9.57143Z"/>
</mask>
<path d="M5.28613 -0.5C4.45771 -0.5 3.78613 0.171573 3.78613 1H5.78613C5.78613 1.27614 5.56228 1.5 5.28613 1.5V-0.5ZM7.7147 -0.5H5.28613V1.5H7.7147V-0.5ZM9.2147 1C9.2147 0.171573 8.54313 -0.5 7.7147 -0.5V1.5C7.43856 1.5 7.2147 1.27614 7.2147 1H9.2147ZM9.2147 12V1H7.2147V12H9.2147ZM7.7147 13.5C8.54313 13.5 9.2147 12.8284 9.2147 12H7.2147C7.2147 11.7239 7.43856 11.5 7.7147 11.5V13.5ZM5.28613 13.5H7.7147V11.5H5.28613V13.5ZM3.78613 12C3.78613 12.8284 4.4577 13.5 5.28613 13.5V11.5C5.56228 11.5 5.78613 11.7239 5.78613 12H3.78613ZM3.78613 1V12H5.78613V1H3.78613ZM1 2.07143C0.171571 2.07143 -0.5 2.743 -0.5 3.57143H1.5C1.5 3.84757 1.27614 4.07143 1 4.07143V2.07143ZM3.42857 2.07143H1V4.07143H3.42857V2.07143ZM4.92857 3.57143C4.92857 2.743 4.257 2.07143 3.42857 2.07143V4.07143C3.15243 4.07143 2.92857 3.84757 2.92857 3.57143H4.92857ZM4.92857 12V3.57143H2.92857V12H4.92857ZM3.42857 13.5C4.257 13.5 4.92857 12.8284 4.92857 12H2.92857C2.92857 11.7239 3.15243 11.5 3.42857 11.5V13.5ZM1 13.5H3.42857V11.5H1V13.5ZM-0.5 12C-0.5 12.8284 0.171573 13.5 1 13.5V11.5C1.27614 11.5 1.5 11.7239 1.5 12H-0.5ZM-0.5 3.57143V12H1.5V3.57143H-0.5ZM10.0714 7C10.0714 7.27614 9.84757 7.5 9.57143 7.5V5.5C8.743 5.5 8.07143 6.17157 8.07143 7H10.0714ZM10.0714 12V7H8.07143V12H10.0714ZM9.57143 11.5C9.84757 11.5 10.0714 11.7239 10.0714 12H8.07143C8.07143 12.8284 8.743 13.5 9.57143 13.5V11.5ZM12 11.5H9.57143V13.5H12V11.5ZM11.5 12C11.5 11.7239 11.7239 11.5 12 11.5V13.5C12.8284 13.5 13.5 12.8284 13.5 12H11.5ZM11.5 7V12H13.5V7H11.5ZM12 7.5C11.7239 7.5 11.5 7.27614 11.5 7H13.5C13.5 6.17157 12.8284 5.5 12 5.5V7.5ZM9.57143 7.5H12V5.5H9.57143V7.5Z" fill="#8A8986" mask="url(#path-1-inside-1_10596_91258)"/>
</svg>
