<svg width="12" height="12" viewBox="0 0 12 12" fill="none" xmlns="http://www.w3.org/2000/svg">
<mask id="path-1-inside-1_10640_130694" fill="white">
<path d="M8.03324 0.712891C8.3649 0.712786 8.68947 0.808844 8.96766 0.98943C9.24584 1.17002 9.4657 1.42738 9.60061 1.73036H10.7418L10.7967 1.73179C11.0427 1.74529 11.275 1.84908 11.4492 2.02328C11.6234 2.19748 11.7272 2.42983 11.7407 2.67582L11.7422 2.73069L11.741 2.85187C11.7104 5.10689 11.0557 6.40503 9.7255 6.55679C9.37167 8.12387 8.08783 9.2531 6.57448 9.47574V10.4303H8.14642C8.26011 10.4304 8.36913 10.4755 8.44952 10.5559C8.5299 10.6363 8.57506 10.7454 8.57506 10.8591C8.57506 10.9727 8.5299 11.0818 8.44952 11.1622C8.36913 11.2426 8.26011 11.2877 8.14642 11.2878H3.85931C3.74562 11.2877 3.63659 11.2426 3.55621 11.1622C3.47582 11.0818 3.43066 10.9727 3.43066 10.8591C3.43066 10.7454 3.47582 10.6363 3.55621 10.5559C3.63659 10.4755 3.74562 10.4304 3.85931 10.4303H5.71706V9.50261C4.91457 9.43773 4.15349 9.11941 3.54378 8.59364C2.93406 8.06787 2.50728 7.36187 2.32509 6.57766C0.84547 6.52478 0.146671 5.16291 0.164391 2.72326C0.166271 2.46864 0.265181 2.22431 0.440961 2.04009C0.616741 1.85587 0.856158 1.74561 1.11041 1.73179L1.16472 1.73036H2.43827C2.57294 1.42792 2.79227 1.17091 3.06979 0.990363C3.3473 0.809816 3.67114 0.713449 4.00221 0.712891H8.03324ZM8.03324 1.57031H4.00364C3.78491 1.57069 3.57458 1.65465 3.41572 1.80501C3.25686 1.95537 3.16147 2.16076 3.14908 2.37915L3.14793 2.42916L3.15479 6.35987L3.17337 6.43733C3.30608 6.96302 3.58163 7.44175 3.96952 7.82057C4.35742 8.19938 4.84254 8.46351 5.37123 8.58374L5.45411 8.60146C6.99376 8.90527 8.48939 7.94696 8.87094 6.44419L8.89066 6.36044V2.42773C8.89068 2.20908 8.80716 1.99868 8.65718 1.83956C8.5072 1.68045 8.3021 1.58464 8.08383 1.57174L8.03324 1.57031ZM6.02287 3.28516C6.28638 3.28516 6.52017 3.43492 6.62421 3.669L6.78969 4.02111L7.16038 4.07313C7.4016 4.10657 7.59138 4.26348 7.68512 4.48669L7.7037 4.53528C7.7903 4.78736 7.72199 5.06231 7.53879 5.23493L7.26556 5.51817L7.33387 5.91887C7.36645 6.15695 7.28471 6.39989 7.11322 6.54193L7.07521 6.57051C6.97541 6.65034 6.854 6.69847 6.72661 6.70871C6.59922 6.71895 6.47168 6.69082 6.36041 6.62796L6.03287 6.45047L5.70134 6.63053C5.61331 6.67626 5.52785 6.70427 5.43496 6.71227L5.37809 6.71484C5.2409 6.71484 5.10486 6.66769 4.98082 6.58109C4.77446 6.42046 4.673 6.16467 4.72359 5.92059L4.7899 5.52874L4.50695 5.23493C4.3469 5.06831 4.27944 4.82909 4.32975 4.58729L4.34204 4.53556C4.42778 4.28634 4.62699 4.10885 4.88507 4.07313L5.25605 4.02111L5.42668 3.65928C5.537 3.44607 5.74249 3.30488 5.97314 3.28716L6.02287 3.28516ZM6.02287 3.85677C6.00521 3.8579 5.98816 3.86365 5.97342 3.87342C5.95867 3.8832 5.94675 3.89668 5.93884 3.9125L5.64132 4.54442L4.96395 4.63931C4.94646 4.64189 4.93005 4.64934 4.91661 4.66081C4.90316 4.67229 4.89322 4.68732 4.88793 4.70419C4.88137 4.72739 4.88078 4.75187 4.88623 4.77536C4.89168 4.79885 4.90298 4.82057 4.91908 4.83852L5.4021 5.34011L5.2852 6.02605C5.28196 6.04346 5.28341 6.06142 5.28938 6.07809C5.29536 6.09476 5.30565 6.10955 5.31921 6.12094C5.33657 6.13335 5.35686 6.14104 5.37809 6.14323C5.39764 6.14187 5.41657 6.13579 5.43325 6.12551L6.03287 5.80026L6.63593 6.12722C6.66737 6.14495 6.69423 6.14294 6.73682 6.11008C6.75797 6.09579 6.77483 6.05006 6.76883 6.00576L6.65393 5.32982L7.13638 4.8288C7.16667 4.80022 7.17667 4.76021 7.16324 4.72134C7.14524 4.66846 7.1178 4.64417 7.0815 4.63931L6.40442 4.54442L6.10432 3.90707C6.09003 3.87478 6.06203 3.85677 6.02287 3.85677ZM2.2908 2.58779H1.16472C1.12701 2.58779 1.09084 2.60268 1.06407 2.62924C1.0373 2.65579 1.02211 2.69185 1.02181 2.72955C1.00752 4.71448 1.45195 5.63878 2.29623 5.71652L2.29051 2.58779H2.2908ZM10.7418 2.58779H9.74808V5.67965C10.4677 5.49873 10.8607 4.60644 10.8839 2.84444L10.8847 2.73069L10.8825 2.70497C10.8772 2.67641 10.8634 2.65013 10.8429 2.6296C10.8224 2.60908 10.7961 2.59529 10.7676 2.59007L10.7418 2.58779Z"/>
</mask>
<path d="M8.03324 0.712891C8.3649 0.712786 8.68947 0.808844 8.96766 0.98943C9.24584 1.17002 9.4657 1.42738 9.60061 1.73036H10.7418L10.7967 1.73179C11.0427 1.74529 11.275 1.84908 11.4492 2.02328C11.6234 2.19748 11.7272 2.42983 11.7407 2.67582L11.7422 2.73069L11.741 2.85187C11.7104 5.10689 11.0557 6.40503 9.7255 6.55679C9.37167 8.12387 8.08783 9.2531 6.57448 9.47574V10.4303H8.14642C8.26011 10.4304 8.36913 10.4755 8.44952 10.5559C8.5299 10.6363 8.57506 10.7454 8.57506 10.8591C8.57506 10.9727 8.5299 11.0818 8.44952 11.1622C8.36913 11.2426 8.26011 11.2877 8.14642 11.2878H3.85931C3.74562 11.2877 3.63659 11.2426 3.55621 11.1622C3.47582 11.0818 3.43066 10.9727 3.43066 10.8591C3.43066 10.7454 3.47582 10.6363 3.55621 10.5559C3.63659 10.4755 3.74562 10.4304 3.85931 10.4303H5.71706V9.50261C4.91457 9.43773 4.15349 9.11941 3.54378 8.59364C2.93406 8.06787 2.50728 7.36187 2.32509 6.57766C0.84547 6.52478 0.146671 5.16291 0.164391 2.72326C0.166271 2.46864 0.265181 2.22431 0.440961 2.04009C0.616741 1.85587 0.856158 1.74561 1.11041 1.73179L1.16472 1.73036H2.43827C2.57294 1.42792 2.79227 1.17091 3.06979 0.990363C3.3473 0.809816 3.67114 0.713449 4.00221 0.712891H8.03324ZM8.03324 1.57031H4.00364C3.78491 1.57069 3.57458 1.65465 3.41572 1.80501C3.25686 1.95537 3.16147 2.16076 3.14908 2.37915L3.14793 2.42916L3.15479 6.35987L3.17337 6.43733C3.30608 6.96302 3.58163 7.44175 3.96952 7.82057C4.35742 8.19938 4.84254 8.46351 5.37123 8.58374L5.45411 8.60146C6.99376 8.90527 8.48939 7.94696 8.87094 6.44419L8.89066 6.36044V2.42773C8.89068 2.20908 8.80716 1.99868 8.65718 1.83956C8.5072 1.68045 8.3021 1.58464 8.08383 1.57174L8.03324 1.57031ZM6.02287 3.28516C6.28638 3.28516 6.52017 3.43492 6.62421 3.669L6.78969 4.02111L7.16038 4.07313C7.4016 4.10657 7.59138 4.26348 7.68512 4.48669L7.7037 4.53528C7.7903 4.78736 7.72199 5.06231 7.53879 5.23493L7.26556 5.51817L7.33387 5.91887C7.36645 6.15695 7.28471 6.39989 7.11322 6.54193L7.07521 6.57051C6.97541 6.65034 6.854 6.69847 6.72661 6.70871C6.59922 6.71895 6.47168 6.69082 6.36041 6.62796L6.03287 6.45047L5.70134 6.63053C5.61331 6.67626 5.52785 6.70427 5.43496 6.71227L5.37809 6.71484C5.2409 6.71484 5.10486 6.66769 4.98082 6.58109C4.77446 6.42046 4.673 6.16467 4.72359 5.92059L4.7899 5.52874L4.50695 5.23493C4.3469 5.06831 4.27944 4.82909 4.32975 4.58729L4.34204 4.53556C4.42778 4.28634 4.62699 4.10885 4.88507 4.07313L5.25605 4.02111L5.42668 3.65928C5.537 3.44607 5.74249 3.30488 5.97314 3.28716L6.02287 3.28516ZM6.02287 3.85677C6.00521 3.8579 5.98816 3.86365 5.97342 3.87342C5.95867 3.8832 5.94675 3.89668 5.93884 3.9125L5.64132 4.54442L4.96395 4.63931C4.94646 4.64189 4.93005 4.64934 4.91661 4.66081C4.90316 4.67229 4.89322 4.68732 4.88793 4.70419C4.88137 4.72739 4.88078 4.75187 4.88623 4.77536C4.89168 4.79885 4.90298 4.82057 4.91908 4.83852L5.4021 5.34011L5.2852 6.02605C5.28196 6.04346 5.28341 6.06142 5.28938 6.07809C5.29536 6.09476 5.30565 6.10955 5.31921 6.12094C5.33657 6.13335 5.35686 6.14104 5.37809 6.14323C5.39764 6.14187 5.41657 6.13579 5.43325 6.12551L6.03287 5.80026L6.63593 6.12722C6.66737 6.14495 6.69423 6.14294 6.73682 6.11008C6.75797 6.09579 6.77483 6.05006 6.76883 6.00576L6.65393 5.32982L7.13638 4.8288C7.16667 4.80022 7.17667 4.76021 7.16324 4.72134C7.14524 4.66846 7.1178 4.64417 7.0815 4.63931L6.40442 4.54442L6.10432 3.90707C6.09003 3.87478 6.06203 3.85677 6.02287 3.85677ZM2.2908 2.58779H1.16472C1.12701 2.58779 1.09084 2.60268 1.06407 2.62924C1.0373 2.65579 1.02211 2.69185 1.02181 2.72955C1.00752 4.71448 1.45195 5.63878 2.29623 5.71652L2.29051 2.58779H2.2908ZM10.7418 2.58779H9.74808V5.67965C10.4677 5.49873 10.8607 4.60644 10.8839 2.84444L10.8847 2.73069L10.8825 2.70497C10.8772 2.67641 10.8634 2.65013 10.8429 2.6296C10.8224 2.60908 10.7961 2.59529 10.7676 2.59007L10.7418 2.58779Z" fill="#8A8986" stroke="#8A8986" stroke-width="2" mask="url(#path-1-inside-1_10640_130694)"/>
</svg>
