<?xml version="1.0" encoding="UTF-8"?>
<svg width="23px" height="14px" viewBox="0 0 23 14" version="1.1" xmlns="http://www.w3.org/2000/svg" xmlns:xlink="http://www.w3.org/1999/xlink">
    <title>形状结合@2x</title>
    <g id="页面-1" stroke="none" stroke-width="1" fill="none" fill-rule="evenodd">
        <g id="注单流程页面" transform="translate(-4415.000000, -884.000000)" fill="#E7E7E7" fill-rule="nonzero">
            <g id="编组-27" transform="translate(4104.000000, 195.000000)">
                <g id="编组" transform="translate(0.000000, 501.000000)">
                    <path d="M333,188 C333.552285,188 334,188.447715 334,189 L334,201 C334,201.552285 333.552285,202 333,202 L317.459935,202 C317.16801,202 316.890661,201.872437 316.700678,201.650791 L311.557821,195.650791 C311.23683,195.276302 311.23683,194.723698 311.557821,194.349209 L316.700678,188.349209 C316.890661,188.127563 317.16801,188 317.459935,188 L333,188 Z M332.8,189.2 L317.551,189.2 L312.58,194.999 L317.552,200.8 L332.8,200.8 L332.8,189.2 Z M327.532251,192.155933 C327.538202,192.161598 327.544012,192.167409 327.549677,192.17336 L327.868996,192.508821 C328.052784,192.701899 328.052784,193.005208 327.868996,193.198286 L326.009,195.151 L327.868996,197.105015 C328.052784,197.298093 328.052784,197.601402 327.868996,197.79448 L327.549677,198.129941 C327.359286,198.329956 327.0428,198.337758 326.842785,198.147368 C326.836834,198.141703 326.831023,198.135892 326.825359,198.129941 L324.999,196.211 L323.174641,198.129941 C322.984251,198.329956 322.667764,198.337758 322.467749,198.147368 C322.461798,198.141703 322.455988,198.135892 322.450323,198.129941 L322.131004,197.79448 C321.947216,197.601402 321.947216,197.298093 322.131004,197.105015 L323.99,195.151 L322.131004,193.198286 C321.947216,193.005208 321.947216,192.701899 322.131004,192.508821 L322.450323,192.17336 C322.640714,191.973345 322.9572,191.965543 323.157215,192.155933 C323.163166,192.161598 323.168977,192.167409 323.174641,192.17336 L325,194.091 L326.825359,192.17336 C327.015749,191.973345 327.332236,191.965543 327.532251,192.155933 Z" id="形状结合"></path>
                </g>
            </g>
        </g>
    </g>
</svg>