<?xml version="1.0" encoding="UTF-8"?>
<svg width="14px" height="14px" viewBox="0 0 14 14" version="1.1" xmlns="http://www.w3.org/2000/svg" xmlns:xlink="http://www.w3.org/1999/xlink">
    <title>bet_xuanx</title>
    <g id="页面-1" stroke="none" stroke-width="1" fill="none" fill-rule="evenodd">
        <g id="bet_xuanx">
            <rect id="矩形" x="0" y="0" width="14" height="14"></rect>
            <path d="M7,0.5 C10.5898506,0.5 13.5,3.41014917 13.5,7 C13.5,10.5898508 10.5898506,13.5 7,13.5 C3.41014936,13.5 0.5,10.5898508 0.5,7 C0.5,3.41014917 3.41014936,0.5 7,0.5 Z M7,1.58333336 C4.00845764,1.58333336 1.58333364,4.00845764 1.58333364,7 C1.58333364,9.99154236 4.00845764,12.4166666 7,12.4166666 C9.99154236,12.4166666 12.4166664,9.99154236 12.4166664,7 C12.4166664,4.00845764 9.99154236,1.58333336 7,1.58333336 Z M9.55357143,6.1875 C9.93819871,6.1875 10.25,6.49930166 10.25,6.88392857 L10.25,7.11607143 C10.25,7.50069834 9.93819871,7.8125 9.55357143,7.8125 L4.44642857,7.8125 C4.06180129,7.8125 3.75,7.50069834 3.75,7.11607143 L3.75,6.88392857 C3.75,6.49930166 4.06180129,6.1875 4.44642857,6.1875 L9.55357143,6.1875 Z" id="形状结合" fill="#FF2A2A" fill-rule="nonzero"></path>
        </g>
    </g>
</svg>