<?xml version="1.0" encoding="UTF-8"?>
<svg width="28px" height="28px" viewBox="0 0 28 28" version="1.1" xmlns="http://www.w3.org/2000/svg" xmlns:xlink="http://www.w3.org/1999/xlink">
    <title>编组@2x</title>
    <defs>
        <filter id="filter-1">
            <feColorMatrix in="SourceGraphic" type="matrix" values="0 0 0 0 0.847000 0 0 0 0 0.847000 0 0 0 0 0.847000 0 0 0 1.000000 0"></feColorMatrix>
        </filter>
    </defs>
    <g id="控件" stroke="none" stroke-width="1" fill="none" fill-rule="evenodd">
        <g id="角球让球" transform="translate(-66.000000, -14.000000)">
            <g id="编组-4" transform="translate(67.000000, 15.000000)">
                <rect id="矩形备份-11" stroke="#EBEBEE" fill="#F9F9F9" transform="translate(13.000000, 13.000000) rotate(45.000000) translate(-13.000000, -13.000000) " x="4" y="4" width="18" height="18" rx="4"></rect>
                <g id="矩形备份-9" transform="translate(7.000000, 6.000000)" filter="url(#filter-1)">
                    <g>
                        <rect id="矩形备份-2" x="0" y="0" width="14" height="14"></rect>
                        <path d="M7.82882065,10.9384667 C8.26133686,10.9176475 8.58084064,11.026098 8.78733198,11.2638181 C8.99382332,11.5015382 9.05608682,11.9054767 8.97412247,12.4756336 L4.55381658,12.4816242 L7.82882065,10.9384667 Z" id="路径-2备份" fill="#006AFF"></path>
                        <path d="M6.26184484,9.72851038 C6.42753027,9.72851038 6.56184484,9.86282495 6.56184484,10.0285104 L6.56184484,13.0285104 C6.56184484,13.1941958 6.42753027,13.3285104 6.26184484,13.3285104 C6.09615942,13.3285104 5.96184484,13.1941958 5.96184484,13.0285104 L5.96184484,10.0285104 C5.96184484,9.86282495 6.09615942,9.72851038 6.26184484,9.72851038 Z" id="矩形备份-13" fill="#006AFF" transform="translate(6.261845, 11.528510) rotate(-112.000000) translate(-6.261845, -11.528510) "></path>
                        <polygon id="路径-3备份" fill="#006AFF" points="5 1 10 6 5 6"></polygon>
                        <path d="M4.736,1 L4.836,1 L4.836,1 L4.836,12.7 C4.836,12.8656854 4.70168542,13 4.536,13 C4.37031458,13 4.236,12.8656854 4.236,12.7 L4.236,1.5 C4.236,1.22385763 4.45985763,1 4.736,1 Z" id="矩形备份-3" fill="#006AFF"></path>
                        <path d="M6.71475875,10.2151849 C6.88044417,10.2151849 7.01475875,10.3494995 7.01475875,10.5151849 L7.01475875,14.7151849 C7.01475875,14.8808703 6.88044417,15.0151849 6.71475875,15.0151849 C6.54907332,15.0151849 6.41475875,14.8808703 6.41475875,14.7151849 L6.41475875,10.5151849 C6.41475875,10.3494995 6.54907332,10.2151849 6.71475875,10.2151849 Z" id="矩形备份-12" fill="#006AFF" transform="translate(6.714759, 12.615185) rotate(-90.000000) translate(-6.714759, -12.615185) "></path>
                    </g>
                </g>
            </g>
        </g>
    </g>
</svg>