<svg width="14" height="14" viewBox="0 0 14 14" fill="none" xmlns="http://www.w3.org/2000/svg">
<circle cx="7" cy="7" r="7" fill="url(#paint0_linear_914_64121)"/>
<path d="M9.42082 9.98112C8.82062 10.5757 8.0237 10.9021 7.17425 10.9021C6.3248 10.9021 5.52789 10.5757 4.92769 9.98112C4.32972 9.38762 4 8.60077 4 7.76361C4 7.27742 4.10953 6.81134 4.32525 6.37767C4.53538 5.95407 4.84833 5.57517 5.22835 5.28345C5.46865 5.10015 5.68884 4.88667 5.88332 4.6486C6.16274 4.3077 6.38181 3.92769 6.53381 3.51973C6.59417 3.35766 6.63999 3.18442 6.66905 3C6.93842 3.24813 7.16419 3.54767 7.35308 3.89863C7.72639 4.5983 7.89852 5.22086 7.86499 5.75065C7.84934 6.00548 7.94881 6.24802 8.13771 6.41903C8.30201 6.56656 8.51437 6.64145 8.73455 6.62915C8.95474 6.61798 9.15704 6.52074 9.30458 6.35644C9.45323 6.1899 9.58177 6.02001 9.68907 5.84677C9.84554 6.04684 9.97631 6.26479 10.0803 6.4995C10.258 6.89964 10.3485 7.32548 10.3485 7.76361C10.3485 8.60077 10.0188 9.38874 9.42082 9.98112Z" fill="white"/>
<defs>
<linearGradient id="paint0_linear_914_64121" x1="0" y1="0" x2="0" y2="14" gradientUnits="userSpaceOnUse">
<stop stop-color="#62B6FF"/>
<stop offset="1" stop-color="#3D72FA"/>
</linearGradient>
</defs>
</svg>
