<svg width="16" height="16" viewBox="0 0 16 16" fill="none" xmlns="http://www.w3.org/2000/svg">
<circle cx="8" cy="8" r="7" fill="#4987FB" fill-opacity="0.3" stroke="#4987FB" stroke-width="0.5"/>
<path d="M10.4208 10.9811C9.82062 11.5757 9.0237 11.9021 8.17425 11.9021C7.3248 11.9021 6.52789 11.5757 5.92769 10.9811C5.32972 10.3876 5 9.60077 5 8.76361C5 8.27742 5.10953 7.81134 5.32525 7.37767C5.53538 6.95407 5.84833 6.57517 6.22835 6.28345C6.46865 6.10015 6.68884 5.88667 6.88332 5.6486C7.16274 5.3077 7.38181 4.92769 7.53381 4.51973C7.59417 4.35766 7.63999 4.18442 7.66905 4C7.93842 4.24813 8.16419 4.54767 8.35308 4.89863C8.72639 5.5983 8.89852 6.22086 8.86499 6.75065C8.84934 7.00548 8.94881 7.24802 9.13771 7.41903C9.30201 7.56656 9.51437 7.64145 9.73455 7.62915C9.95474 7.61798 10.157 7.52074 10.3046 7.35644C10.4532 7.1899 10.5818 7.02001 10.6891 6.84677C10.8455 7.04684 10.9763 7.26479 11.0803 7.4995C11.258 7.89964 11.3485 8.32548 11.3485 8.76361C11.3485 9.60077 11.0188 10.3887 10.4208 10.9811Z" fill="white"/>
</svg>
