<?xml version="1.0" encoding="UTF-8"?>
<svg width="20px" height="20px" viewBox="0 0 20 20" version="1.1" xmlns="http://www.w3.org/2000/svg" xmlns:xlink="http://www.w3.org/1999/xlink">
    <title>黑版注单</title>
    <g id="页面-1" stroke="none" stroke-width="1" fill="none" fill-rule="evenodd">
        <g id="虚拟足球分析" transform="translate(-295.000000, -56.000000)">
            <g id="黑版注单" transform="translate(295.000000, 56.000000)">
                <path d="M11.3636364,7.27272727 C11.6146749,7.27272727 11.8181818,7.4965849 11.8181818,7.77272727 C11.8181818,8.01818716 11.6573862,8.22233564 11.4453415,8.2646716 L11.3636364,8.27272727 L5,8.27272727 C4.74896148,8.27272727 4.54545455,8.04886965 4.54545455,7.77272727 C4.54545455,7.52726738 4.70625015,7.3231189 4.91829488,7.28078294 L5,7.27272727 L11.3636364,7.27272727 Z" id="直线-7备份-6" fill="#A3A3A3" fill-rule="nonzero"></path>
                <path d="M14.9586777,10.9090909 C15.2097162,10.9090909 15.4132231,11.1329485 15.4132231,11.4090909 C15.4132231,11.6545508 15.2524275,11.8586993 15.0403828,11.9010352 L14.9586777,11.9090909 L5.04132231,11.9090909 C4.79028379,11.9090909 4.58677686,11.6852333 4.58677686,11.4090909 C4.58677686,11.163631 4.74757246,10.9594825 4.95961719,10.9171466 L5.04132231,10.9090909 L14.9586777,10.9090909 Z" id="直线-7备份-7" fill="#FFB001"></path>
                <path d="M14.9586777,14.5454545 C15.2097162,14.5454545 15.4132231,14.7693122 15.4132231,15.0454545 C15.4132231,15.2909144 15.2524275,15.4950629 15.0403828,15.5373989 L14.9586777,15.5454545 L5.04132231,15.5454545 C4.79028379,15.5454545 4.58677686,15.3215969 4.58677686,15.0454545 C4.58677686,14.7999947 4.74757246,14.5958462 4.95961719,14.5535102 L5.04132231,14.5454545 L14.9586777,14.5454545 Z" id="直线-7备份-8" fill="#A3A3A3" fill-rule="nonzero"></path>
                <path d="M6.21573533,1.81818182 L6.21573533,2.72727273 L4.20454545,2.72727273 C3.42837356,2.72727273 2.80061334,3.27752173 2.73325779,3.96773697 L2.72727273,4.09090909 L2.72727273,17.7272727 C2.72727273,18.4325349 3.31191229,19.0219652 4.06919841,19.0852807 L4.20454545,19.0909091 L15.7954545,19.0909091 C16.5716264,19.0909091 17.1993867,18.5406601 17.2667422,17.8504448 L17.2727273,17.7272727 L17.2727273,4.09090909 C17.2727273,3.3856469 16.6880877,2.79621666 15.9308016,2.73290115 L15.7954545,2.72727273 L13.8880125,2.72727273 L13.8880125,1.81818182 L15.7954545,1.81818182 C17.0569915,1.81818182 18.0988232,2.75306283 18.1770979,3.94649897 L18.1818182,4.09090909 L18.1818182,17.7272727 C18.1818182,18.9403112 17.1885071,19.9218475 15.9457368,19.9955559 L15.7954545,20 L4.20454545,20 C2.94300855,20 1.90117683,19.065119 1.8229021,17.8716828 L1.81818182,17.7272727 L1.81818182,4.09090909 C1.81818182,2.87787065 2.81149289,1.89633432 4.05426322,1.82262596 L4.20454545,1.81818182 L6.21573533,1.81818182 Z" id="路径" fill="#A3A3A3" fill-rule="nonzero"></path>
                <path d="M13.1818182,0 L6.81818182,0 C6.06506625,0 5.45454545,0.610520796 5.45454545,1.36363636 L5.45454545,3.18181818 C5.45454545,3.93493375 6.06506625,4.54545455 6.81818182,4.54545455 L13.1818182,4.54545455 C13.9349337,4.54545455 14.5454545,3.93493375 14.5454545,3.18181818 L14.5454545,1.36363636 C14.5454545,0.610520796 13.9349337,0 13.1818182,0 Z M6.81818182,0.909090909 L13.1818182,0.909090909 C13.4328567,0.909090909 13.6363636,1.11259784 13.6363636,1.36363636 L13.6363636,3.18181818 C13.6363636,3.4328567 13.4328567,3.63636364 13.1818182,3.63636364 L6.81818182,3.63636364 C6.5671433,3.63636364 6.36363636,3.4328567 6.36363636,3.18181818 L6.36363636,1.36363636 C6.36363636,1.11259784 6.5671433,0.909090909 6.81818182,0.909090909 Z" id="矩形备份-7" fill="#A3A3A3" fill-rule="nonzero"></path>
                <rect id="矩形" x="0" y="0" width="20" height="20"></rect>
            </g>
        </g>
    </g>
</svg>