<svg width="20" height="20" xmlns="http://www.w3.org/2000/svg"><g fill="none" fill-rule="evenodd"><path d="M11.364 7.273c.25 0 .454.224.454.5 0 .245-.16.45-.373.492l-.081.008H5c-.251 0-.455-.224-.455-.5 0-.246.161-.45.373-.492L5 7.273h6.364z" fill="#FFF" fill-rule="nonzero"/><path d="M14.959 10.91c.25 0 .454.223.454.5 0 .245-.16.449-.373.491l-.081.008H5.04c-.25 0-.454-.224-.454-.5 0-.245.16-.45.373-.492l.081-.008h9.918z" fill="#569FFD"/><path d="M14.959 14.545c.25 0 .454.224.454.5 0 .246-.16.45-.373.492l-.081.008H5.04c-.25 0-.454-.223-.454-.5 0-.245.16-.45.373-.491l.081-.009h9.918z" fill="#FFF" fill-rule="nonzero"/><path d="M6.216 1.818v.91H4.205c-.777 0-1.404.55-1.472 1.24l-.006.123v13.636c0 .706.585 1.295 1.342 1.358l.136.006h11.59c.777 0 1.404-.55 1.472-1.24l.006-.124V4.091c0-.705-.585-1.295-1.342-1.358l-.136-.006h-1.907v-.909h1.907c1.262 0 2.304.935 2.382 2.128l.005.145v13.636c0 1.213-.993 2.195-2.236 2.269l-.15.004H4.204c-1.262 0-2.304-.935-2.382-2.128l-.005-.145V4.091c0-1.213.993-2.195 2.236-2.268l.15-.005h2.012z" fill="#FFF" fill-rule="nonzero"/><path d="M13.182 0H6.818c-.753 0-1.363.61-1.363 1.364v1.818c0 .753.61 1.363 1.363 1.363h6.364c.753 0 1.363-.61 1.363-1.363V1.364C14.545.61 13.935 0 13.182 0zM6.818.91h6.364c.25 0 .454.203.454.454v1.818a.455.455 0 01-.454.454H6.818a.455.455 0 01-.454-.454V1.364c0-.251.203-.455.454-.455z" fill="#FFF" fill-rule="nonzero"/><path d="M0 0h20v20H0z"/></g></svg>