<?xml version="1.0" encoding="UTF-8"?>
<svg width="24px" height="22px" viewBox="0 0 24 22" version="1.1" xmlns="http://www.w3.org/2000/svg" xmlns:xlink="http://www.w3.org/1999/xlink">
    <title>编组 4</title>
    <g id="页面-1" stroke="none" stroke-width="1" fill="none" fill-rule="evenodd">
        <g id="篮球" transform="translate(-249.000000, -106.000000)" fill-rule="nonzero">
            <g id="编组-4" transform="translate(249.000000, 106.000000)">
                <polygon id="路径" fill="#D43A3A" transform="translate(13.000000, 11.000000) rotate(-90.000000) translate(-13.000000, -11.000000) " points="16.54625 3.12638804e-13 2 0 24 22 24 7.45375"></polygon>
                <path d="M5.94350543,6.88055906 L7.69449751,10.8766867 L6.50568834,11.3811215 L4.01603419,9.83554761 L4.97742435,12.0296934 L3.79130221,12.5330077 L2.04031013,8.53685766 L3.21798404,8.0371064 L5.72346438,9.59587945 L4.75471903,7.38499387 L5.94350543,6.88055906 Z M10.1587842,5.0917987 L10.5325329,5.94474396 L8.41660469,6.84262 L8.69496357,7.47792551 L10.6576851,6.64503663 L11.0148334,7.4601997 L9.05218016,8.29304377 L9.39739617,9.08095705 L11.5744659,8.15710856 L11.9709405,9.06199873 L8.52989293,10.5221706 L6.77885531,6.52606531 L10.1587842,5.0917987 Z M16.1888153,2.53300773 L17.0403101,6.91083411 L15.8034303,7.43566145 L13.9852395,5.22354336 L14.3744501,8.04203646 L13.1377297,8.56681898 L10.4786783,4.95604277 L11.6767327,4.44768631 L13.0882927,6.50208729 L12.7392511,3.99678747 L13.9326146,3.49040305 L15.5444272,5.45604052 L14.9971369,3.03869747 L16.1888153,2.53300773 Z" id="形状结合" fill="#FFFFFF" transform="translate(9.540310, 7.533008) rotate(-23.000000) translate(-9.540310, -7.533008) "></path>
            </g>
        </g>
    </g>
</svg>