<?xml version="1.0" encoding="UTF-8"?>
<svg width="9px" height="9px" viewBox="0 0 9 9" version="1.1" xmlns="http://www.w3.org/2000/svg" xmlns:xlink="http://www.w3.org/1999/xlink">
    <title>编组 24备份 10@2x</title>
    <g id="页面-1" stroke="none" stroke-width="1" fill="none" fill-rule="evenodd">
        <g id="设置备份-6" transform="translate(-346.000000, -199.000000)" fill-rule="nonzero">
            <g id="编组-8" transform="translate(284.000000, 188.000000)">
                <g id="编组" transform="translate(62.000000, 11.000000)">
                    <g id="编组-24" transform="translate(4.500000, 4.500000) scale(-1, -1) rotate(90.000000) translate(-4.500000, -4.500000) ">
                        <path d="M4.90835682,-1.74957146 C5.21379758,-2.18098444 5.90598893,-2.0182521 5.99131972,-1.54139723 L6,-1.44192093 L6,5.44294411 C6,5.75059758 5.73345901,6 5.40466404,6 C5.11240184,6 4.86932797,5.8029413 4.81891973,5.54307561 L4.80932807,5.44294411 L4.80932807,0.406056317 L4.09170804,1.42118305 C3.93029763,1.64916358 3.62048409,1.72994305 3.36111813,1.62574576 L3.26660901,1.57792721 C3.02296198,1.42689548 2.93663147,1.13700294 3.04798905,0.894314195 L3.09909362,0.805882003 L4.90835682,-1.74957146 Z" id="路径-9" fill="#FFB001" transform="translate(4.500000, 2.000000) rotate(90.000000) translate(-4.500000, -2.000000) "></path>
                        <path d="M4.90835682,3.25042854 C5.21379758,2.81901556 5.90598893,2.9817479 5.99131972,3.45860277 L6,3.55807907 L6,10.4429441 C6,10.7505976 5.73345901,11 5.40466404,11 C5.11240184,11 4.86932797,10.8029413 4.81891973,10.5430756 L4.80932807,10.4429441 L4.80869553,5.40717043 L4.09170804,6.42118305 C3.93029763,6.64916358 3.62048409,6.72994305 3.36111813,6.62574576 L3.26660901,6.57792721 C3.02296198,6.42689548 2.93663147,6.13700294 3.04798905,5.8943142 L3.09909362,5.805882 L4.90835682,3.25042854 Z" id="路径-9" fill="#888888" transform="translate(4.500000, 7.000000) scale(-1, -1) rotate(90.000000) translate(-4.500000, -7.000000) "></path>
                    </g>
                </g>
            </g>
        </g>
    </g>
</svg>