<?xml version="1.0" encoding="UTF-8"?>
<svg width="21px" height="20px" viewBox="0 0 21 20" version="1.1" xmlns="http://www.w3.org/2000/svg" xmlns:xlink="http://www.w3.org/1999/xlink">
    <title>形状结合备份 9@2x</title>
    <g id="页面-1" stroke="none" stroke-width="1" fill="none" fill-rule="evenodd">
        <g id="画板" transform="translate(-105.000000, -34.000000)" fill="#A0A0A0">
            <path d="M115.79899,50 C116.213203,50 116.54899,50.3357864 116.54899,50.75 L116.54899,53.25 C116.54899,53.6642136 116.213203,54 115.79899,54 C115.384776,54 115.04899,53.6642136 115.04899,53.25 L115.04899,52.75 L115.04899,52.75 L106.54899,52.75 C106.134776,52.75 105.79899,52.4142136 105.79899,52 C105.79899,51.5857864 106.134776,51.25 106.54899,51.25 L115.04899,51.25 L115.04899,50.75 C115.04899,50.3357864 115.384776,50 115.79899,50 Z M125.04899,51.25 C125.463203,51.25 125.79899,51.5857864 125.79899,52 C125.79899,52.4142136 125.463203,52.75 125.04899,52.75 L119.54899,52.75 C119.134776,52.75 118.79899,52.4142136 118.79899,52 C118.79899,51.5857864 119.134776,51.25 119.54899,51.25 L125.04899,51.25 Z M111.79899,42.12 C112.213203,42.12 112.54899,42.4557864 112.54899,42.87 L112.54899,45.37 C112.54899,45.7842136 112.213203,46.12 111.79899,46.12 C111.384776,46.12 111.04899,45.7842136 111.04899,45.37 L111.04799,44.87 L106.54899,44.87 C106.134776,44.87 105.79899,44.5342136 105.79899,44.12 C105.79899,43.7057864 106.134776,43.37 106.54899,43.37 L111.04899,43.37 L111.04899,42.87 C111.04899,42.4557864 111.384776,42.12 111.79899,42.12 Z M125.04899,43.37 C125.463203,43.37 125.79899,43.7057864 125.79899,44.12 C125.79899,44.5342136 125.463203,44.87 125.04899,44.87 L115.54899,44.87 C115.134776,44.87 114.79899,44.5342136 114.79899,44.12 C114.79899,43.7057864 115.134776,43.37 115.54899,43.37 L125.04899,43.37 Z M118.79899,34 C119.213203,34 119.54899,34.3357864 119.54899,34.75 L119.54899,37.25 C119.54899,37.6642136 119.213203,38 118.79899,38 C118.384776,38 118.04899,37.6642136 118.04899,37.25 L118.04899,36.75 L118.04899,36.75 L106.54899,36.75 C106.134776,36.75 105.79899,36.4142136 105.79899,36 C105.79899,35.5857864 106.134776,35.25 106.54899,35.25 L118.04899,35.25 L118.04899,34.75 C118.04899,34.3357864 118.384776,34 118.79899,34 Z M125.04899,35.25 C125.463203,35.25 125.79899,35.5857864 125.79899,36 C125.79899,36.4142136 125.463203,36.75 125.04899,36.75 L122.54899,36.75 C122.134776,36.75 121.79899,36.4142136 121.79899,36 C121.79899,35.5857864 122.134776,35.25 122.54899,35.25 L125.04899,35.25 Z" id="形状结合备份-9"></path>
        </g>
    </g>
</svg>