<?xml version="1.0" encoding="UTF-8"?>
<svg width="16px" height="16px" viewBox="0 0 16 16" version="1.1" xmlns="http://www.w3.org/2000/svg" xmlns:xlink="http://www.w3.org/1999/xlink">
    <title>形状结合备份 2</title>
    <g id="页面-1" stroke="none" stroke-width="1" fill="none" fill-rule="evenodd">
        <path d="M8.33333333,13.3333333 C8.88561808,13.3333333 9.33333333,13.7810486 9.33333333,14.3333333 L9.33333333,15 C9.33333333,15.5522847 8.88561808,16 8.33333333,16 L7.66666667,16 C7.11438192,16 6.66666667,15.5522847 6.66666667,15 L6.66666667,14.3333333 C6.66666667,13.7810486 7.11438192,13.3333333 7.66666667,13.3333333 L8.33333333,13.3333333 Z M13.421152,11.5355339 L13.8925565,12.0069384 C14.2830808,12.3974627 14.2830808,13.0306277 13.8925565,13.421152 L13.421152,13.8925565 C13.0306277,14.2830808 12.3974627,14.2830808 12.0069384,13.8925565 L11.5355339,13.421152 C11.1450096,13.0306277 11.1450096,12.3974627 11.5355339,12.0069384 L12.0069384,11.5355339 C12.3974627,11.1450096 13.0306277,11.1450096 13.421152,11.5355339 Z M3.99306157,11.5355339 L4.46446609,12.0069384 C4.85499039,12.3974627 4.85499039,13.0306277 4.46446609,13.421152 L3.99306157,13.8925565 C3.60253728,14.2830808 2.9693723,14.2830808 2.57884801,13.8925565 L2.10744349,13.421152 C1.7169192,13.0306277 1.7169192,12.3974627 2.10744349,12.0069384 L2.57884801,11.5355339 C2.9693723,11.1450096 3.60253728,11.1450096 3.99306157,11.5355339 Z M8,3.33333333 C10.5773288,3.33333333 12.6666667,5.42267117 12.6666667,8 C12.6666667,10.5773288 10.5773288,12.6666667 8,12.6666667 C5.42267117,12.6666667 3.33333333,10.5773288 3.33333333,8 C3.33333333,5.42267117 5.42267117,3.33333333 8,3.33333333 Z M1.66666667,6.66666667 C2.21895142,6.66666667 2.66666667,7.11438192 2.66666667,7.66666667 L2.66666667,8.33333333 C2.66666667,8.88561808 2.21895142,9.33333333 1.66666667,9.33333333 L1,9.33333333 C0.44771525,9.33333333 1.77635684e-15,8.88561808 1.77635684e-15,8.33333333 L1.77635684e-15,7.66666667 C1.77635684e-15,7.11438192 0.44771525,6.66666667 1,6.66666667 L1.66666667,6.66666667 Z M15,6.66666667 C15.5522847,6.66666667 16,7.11438192 16,7.66666667 L16,8.33333333 C16,8.88561808 15.5522847,9.33333333 15,9.33333333 L14.3333333,9.33333333 C13.7810486,9.33333333 13.3333333,8.88561808 13.3333333,8.33333333 L13.3333333,7.66666667 C13.3333333,7.11438192 13.7810486,6.66666667 14.3333333,6.66666667 L15,6.66666667 Z M3.99306157,2.10744349 L4.46446609,2.57884801 C4.85499039,2.9693723 4.85499039,3.60253728 4.46446609,3.99306157 L3.99306157,4.46446609 C3.60253728,4.85499039 2.9693723,4.85499039 2.57884801,4.46446609 L2.10744349,3.99306157 C1.7169192,3.60253728 1.7169192,2.9693723 2.10744349,2.57884801 L2.57884801,2.10744349 C2.9693723,1.7169192 3.60253728,1.7169192 3.99306157,2.10744349 Z M13.421152,2.10744349 L13.8925565,2.57884801 C14.2830808,2.9693723 14.2830808,3.60253728 13.8925565,3.99306157 L13.421152,4.46446609 C13.0306277,4.85499039 12.3974627,4.85499039 12.0069384,4.46446609 L11.5355339,3.99306157 C11.1450096,3.60253728 11.1450096,2.9693723 11.5355339,2.57884801 L12.0069384,2.10744349 C12.3974627,1.7169192 13.0306277,1.7169192 13.421152,2.10744349 Z M8.33333333,0 C8.88561808,-1.01453063e-16 9.33333333,0.44771525 9.33333333,1 L9.33333333,1.66666667 C9.33333333,2.21895142 8.88561808,2.66666667 8.33333333,2.66666667 L7.66666667,2.66666667 C7.11438192,2.66666667 6.66666667,2.21895142 6.66666667,1.66666667 L6.66666667,1 C6.66666667,0.44771525 7.11438192,1.01453063e-16 7.66666667,0 L8.33333333,0 Z" id="形状结合备份-2" fill="#666666"></path>
    </g>
</svg>