<?xml version="1.0" encoding="UTF-8"?>
<svg width="16px" height="16px" viewBox="0 0 16 16" version="1.1" xmlns="http://www.w3.org/2000/svg" xmlns:xlink="http://www.w3.org/1999/xlink">
    <!-- Generator: Sketch 61.2 (89653) - https://sketch.com -->
    <title>B</title>
    <desc>Created with Sketch.</desc>
    <g id="页面-1" stroke="none" stroke-width="1" fill="none" fill-rule="evenodd">
        <g id="H5-logo样式" transform="translate(-132.000000, -412.000000)">
            <g id="B" transform="translate(132.000000, 412.000000)">
                <circle id="椭圆形备份-20" stroke="#FFFFFF" stroke-width="0.5" fill="#F1F2F5" cx="8" cy="8" r="7.75"></circle>
                <path d="M8.347,11.832 C9.733,11.832 10.679,11.084 10.679,9.665 C10.679,8.73 10.151,8.081 9.403,7.806 C10.063,7.564 10.558,6.915 10.558,6.09 C10.558,4.781 9.612,4 8.248,4 L5.3,4 L5.3,11.832 L8.347,11.832 Z M8.182,7.465 L6.136,7.465 L6.136,4.748 L8.182,4.748 C9.051,4.748 9.722,5.166 9.722,6.101 C9.722,7.036 9.051,7.465 8.182,7.465 Z M8.27,11.084 L6.136,11.084 L6.136,8.213 L8.27,8.213 C9.238,8.213 9.843,8.763 9.843,9.643 C9.843,10.523 9.238,11.084 8.27,11.084 Z" fill="#414655" fill-rule="nonzero"></path>
            </g>
        </g>
    </g>
</svg>