<?xml version="1.0" encoding="UTF-8"?>
<svg width="16px" height="16px" viewBox="0 0 16 16" version="1.1" xmlns="http://www.w3.org/2000/svg" xmlns:xlink="http://www.w3.org/1999/xlink">
    <!-- Generator: Sketch 61.2 (89653) - https://sketch.com -->
    <title>G</title>
    <desc>Created with Sketch.</desc>
    <g id="页面-1" stroke="none" stroke-width="1" fill="none" fill-rule="evenodd">
        <g id="H5-logo样式" transform="translate(-124.000000, -388.000000)">
            <g id="G" transform="translate(124.000000, 388.000000)">
                <circle id="椭圆形备份-15" stroke="#FFFFFF" stroke-width="0.5" fill="#F1F2F5" cx="8" cy="8" r="7.75"></circle>
                <path d="M7.9381404,11.964 C8.7411404,11.964 9.4781404,11.656 10.0281404,11.062 C10.5121404,10.545 10.6991404,9.94 10.6991404,9.038 L10.6991404,7.795 L7.9381404,7.795 L7.9381404,8.532 L9.8631404,8.532 L9.8631404,9.126 C9.8631404,9.731 9.7421404,10.16 9.4231404,10.545 C9.0601404,10.985 8.5101404,11.216 7.9381404,11.216 C7.4211404,11.216 6.9261404,11.018 6.5851404,10.666 C6.11619303,10.1866316 6.04214871,9.67764543 6.03565359,8.23180376 L6.0351404,7.982 C6.0351404,6.343 6.0901404,5.815 6.5851404,5.309 C6.9261404,4.957 7.4211404,4.748 7.9381404,4.748 C8.9171404,4.748 9.6211404,5.353 9.8411404,6.343 L10.6771404,6.343 C10.4461404,4.968 9.4341404,4 7.9381404,4 C7.1571404,4 6.4641404,4.286 5.9361404,4.814 C5.27671935,5.47342105 5.2073066,6.15926039 5.2,7.48609068 L5.2,8.47790932 C5.2073066,9.80473961 5.27671935,10.4905789 5.9361404,11.15 C6.4641404,11.678 7.1681404,11.964 7.9381404,11.964 Z" fill="#414655" fill-rule="nonzero"></path>
            </g>
        </g>
    </g>
</svg>