<?xml version="1.0" encoding="UTF-8"?>
<svg width="16px" height="16px" viewBox="0 0 16 16" version="1.1" xmlns="http://www.w3.org/2000/svg" xmlns:xlink="http://www.w3.org/1999/xlink">
    <!-- Generator: Sketch 61.2 (89653) - https://sketch.com -->
    <title>O</title>
    <desc>Created with Sketch.</desc>
    <g id="页面-1" stroke="none" stroke-width="1" fill="none" fill-rule="evenodd">
        <g id="H5-logo样式" transform="translate(-211.000000, -365.000000)">
            <g id="O" transform="translate(211.000000, 365.000000)">
                <circle id="椭圆形备份-25" stroke="#FFFFFF" stroke-width="0.5" fill="#F1F2F5" cx="8" cy="8" r="7.75"></circle>
                <path d="M7.7381404,11.964 C8.5191404,11.964 9.2121404,11.678 9.7401404,11.15 C10.4771404,10.413 10.4771404,9.643 10.4771404,7.982 C10.4771404,6.321 10.4771404,5.551 9.7401404,4.814 C9.2121404,4.286 8.5191404,4 7.7381404,4 C6.9571404,4 6.2641404,4.286 5.7361404,4.814 C5.07671935,5.47342105 5.0073066,6.15926039 5,7.48609068 L5,8.47790932 C5.0073066,9.80473961 5.07671935,10.4905789 5.7361404,11.15 C6.2641404,11.678 6.9571404,11.964 7.7381404,11.964 Z M7.7381404,11.216 C7.2211404,11.216 6.7261404,11.007 6.3851404,10.655 C5.91619303,10.1756316 5.84214871,9.67651801 5.83565359,8.23171556 L5.8351404,7.982 C5.8351404,6.343 5.8901404,5.815 6.3851404,5.309 C6.7261404,4.957 7.2211404,4.748 7.7381404,4.748 C8.2551404,4.748 8.7501404,4.957 9.0911404,5.309 C9.5861404,5.815 9.6411404,6.343 9.6411404,7.982 C9.6411404,9.621 9.5861404,10.149 9.0911404,10.655 C8.7501404,11.007 8.2551404,11.216 7.7381404,11.216 Z" fill="#414655" fill-rule="nonzero"></path>
            </g>
        </g>
    </g>
</svg>