<?xml version="1.0" encoding="UTF-8"?>
<svg width="16px" height="16px" viewBox="0 0 16 16" version="1.1" xmlns="http://www.w3.org/2000/svg" xmlns:xlink="http://www.w3.org/1999/xlink">
    <!-- Generator: Sketch 61.2 (89653) - https://sketch.com -->
    <title>Q</title>
    <desc>Created with Sketch.</desc>
    <g id="页面-1" stroke="none" stroke-width="1" fill="none" fill-rule="evenodd">
        <g id="H5-logo样式" transform="translate(-22.000000, -365.000000)">
            <g id="Q" transform="translate(22.000000, 365.000000)">
                <circle id="椭圆形备份-33" stroke="#FFFFFF" stroke-width="0.5" fill="#F1F2F5" cx="8" cy="8" r="7.75"></circle>
                <path d="M10.2901404,12.283 L10.7961404,11.777 L9.9381404,10.919 C10.4771404,10.248 10.4771404,9.478 10.4771404,7.982 C10.4771404,6.321 10.4771404,5.551 9.7401404,4.814 C9.2121404,4.286 8.5191404,4 7.7381404,4 C6.9571404,4 6.2641404,4.286 5.7361404,4.814 C5.07671935,5.47342105 5.0073066,6.15926039 5,7.48609068 L5,8.47790932 C5.0073066,9.80473961 5.07671935,10.4905789 5.7361404,11.15 C6.2641404,11.678 6.9571404,11.964 7.7381404,11.964 C8.3651404,11.964 8.9481404,11.777 9.4211404,11.414 L10.2901404,12.283 Z M7.7381404,11.216 C7.2211404,11.216 6.7261404,11.007 6.3851404,10.655 C5.91619303,10.1756316 5.84214871,9.67651801 5.83565359,8.23171556 L5.8351404,7.982 C5.8351404,6.343 5.8901404,5.815 6.3851404,5.309 C6.7261404,4.957 7.2211404,4.748 7.7381404,4.748 C8.2551404,4.748 8.7501404,4.957 9.0911404,5.309 C9.5861404,5.815 9.6411404,6.343 9.6411404,7.982 C9.6411404,9.236 9.6081404,9.841 9.3221404,10.303 L8.3651404,9.346 L7.8591404,9.852 L8.8491404,10.842 C8.5301404,11.084 8.1561404,11.216 7.7381404,11.216 Z" fill="#414655" fill-rule="nonzero"></path>
            </g>
        </g>
    </g>
</svg>