<?xml version="1.0" encoding="UTF-8"?>
<svg width="39px" height="39px" viewBox="0 0 39 39" version="1.1" xmlns="http://www.w3.org/2000/svg" xmlns:xlink="http://www.w3.org/1999/xlink">
    <title>close</title>
    <g id="页面-1" stroke="none" stroke-width="1" fill="none" fill-rule="evenodd">
        <g id="合成奖卷-合成提升完成-Final" transform="translate(-1510.000000, -82.000000)" fill="#FFFFFF" fill-rule="nonzero">
            <g id="close" transform="translate(1510.000000, 82.000000)">
                <path d="M19.335,4.68351719e-16 C8.65628784,4.68351719e-16 9.36703437e-16,8.65628784 9.36703437e-16,19.335 C9.36703437e-16,30.0137122 8.65628784,38.67 19.335,38.67 C30.0137122,38.67 38.67,30.0137122 38.67,19.335 C38.67,8.65628784 30.0137122,4.68351719e-16 19.335,4.68351719e-16 Z M26.5430673,26.1708839 C25.6710579,27.0419235 24.2586373,27.0419235 23.3875977,26.1708839 L19.7071834,22.4904695 L16.026769,26.1708839 C15.1547596,27.0419235 13.742339,27.0419235 12.8712994,26.1708839 C12.0002599,25.2988746 12.0002599,23.8864539 12.8712994,23.0154144 L16.5517138,19.335 L12.8703342,15.6545856 C11.9992946,14.7825763 11.9992946,13.3701556 12.8703342,12.4991161 C13.7423435,11.6280765 15.1547642,11.6280765 16.0258037,12.4991161 L19.7062181,16.1795305 L23.3866325,12.4991161 C24.2586418,11.6280765 25.6710625,11.6271068 26.542102,12.4991161 C27.4131416,13.3711254 27.4131416,14.7835461 26.542102,15.6545856 L22.8616876,19.335 L26.5430673,23.0154144 C27.4141068,23.8874237 27.4150766,25.2998444 26.5430673,26.1708839 Z" id="Shape"></path>
            </g>
        </g>
    </g>
</svg>