<?xml version="1.0" encoding="UTF-8"?>
<svg width="40px" height="40px" viewBox="0 0 40 40" version="1.1" xmlns="http://www.w3.org/2000/svg" xmlns:xlink="http://www.w3.org/1999/xlink">
    <title>形状结合</title>
    <g id="页面logo展示" stroke="none" stroke-width="1" fill="none" fill-rule="evenodd">
        <g id="logo位置" transform="translate(-322.000000, -752.000000)" fill="#464B53">
            <path d="M342.000224,752 C353.045858,752 362,760.954142 362,771.999776 L362,771.999776 L361.997093,772.344264 C361.813228,783.230993 352.930799,792 342.000224,792 L342.000224,792 L341.655736,791.997093 C330.769007,791.813219 322,782.930352 322,771.999776 L322,771.999776 L322.002907,771.655289 C322.186781,760.768569 331.069648,752 342.000224,752 Z M341.213392,782.06778 L341.178702,782.073014 C340.914086,782.174113 340.647713,782.264222 340.38046,782.329717 C340.344416,782.338508 340.318482,782.370596 340.318482,782.407959 L340.318482,782.407959 L340.318482,783.801805 L340.311714,783.94828 C340.231165,784.81242 339.443595,785.405761 338.594086,785.405761 L338.594086,785.405761 L337.647273,785.405761 L337.588607,785.41522 C337.514789,785.439765 337.461339,785.509321 337.461339,785.591255 L337.461339,785.591255 L337.461339,786.434332 L337.470844,786.492952 C337.495502,786.566658 337.565339,786.619827 337.647273,786.619827 L337.647273,786.619827 L344.23013,786.619827 L344.273099,786.61176 C344.350013,786.580796 344.370413,786.468681 344.291669,786.41631 C342.805075,785.43653 341.709251,783.915211 341.286394,782.129717 C341.274965,782.082244 341.224855,782.055431 341.178702,782.073014 Z M345.013954,785.026904 C344.975273,785.022948 344.937471,785.039211 344.913295,785.069541 L344.913295,785.069541 L344.668899,785.383387 L344.648089,785.425908 C344.636674,785.471052 344.653075,785.52108 344.693954,785.549102 C345.686042,786.229541 346.86802,786.619871 348.163405,786.619871 C348.302745,786.619871 348.439449,786.6102 348.576152,786.600091 L348.576152,786.600091 L348.650877,786.564486 L348.917251,786.281409 L348.935932,786.249205 C348.946399,786.214404 348.932636,786.174596 348.89835,786.154816 L348.89835,786.154816 L347.354614,785.274376 L347.332031,785.267124 L347.332031,785.267124 L347.309778,785.259871 Z M350.282913,782.316512 L350.250614,782.325189 L347.873031,783.347168 L347.842848,783.366459 C347.82507,783.382284 347.812372,783.403578 347.807097,783.427607 L347.807097,783.427607 L347.485339,784.940574 L347.483526,784.976096 C347.487317,785.011124 347.507427,785.043431 347.539405,785.061893 L347.539405,785.061893 L349.096767,785.966508 L349.129751,785.979239 C349.15264,785.984188 349.176767,785.982039 349.198745,785.972662 L349.198745,785.972662 L351.408855,785.010025 L351.437915,784.991889 C351.455107,784.977009 351.46761,784.956984 351.473471,784.93442 L351.473471,784.93442 L351.910394,783.23508 L351.913512,783.196845 C351.910092,783.159118 351.887756,783.12442 351.852811,783.106288 L351.852811,783.106288 L350.347317,782.328266 L350.315896,782.317603 C350.294179,782.313663 350.271419,782.316105 350.250614,782.325189 Z M342.425502,781.488251 C342.395317,781.475744 342.359383,781.482091 342.335317,781.507475 L342.335317,781.507475 L342.149822,781.7022 L342.134389,781.724423 C342.12677,781.740638 342.124621,781.759197 342.128724,781.777365 C342.441691,783.196266 343.201251,784.390992 344.304548,785.256926 C344.353339,785.295607 344.424987,785.286816 344.464548,785.238904 L344.464548,785.238904 L344.711141,784.937805 L344.731866,784.899465 C344.740396,784.872017 344.738247,784.841834 344.724767,784.815168 L344.724767,784.815168 L343.719932,782.816926 L343.699713,782.788794 L342.453119,781.507036 Z M353.517647,781.164003 C353.475449,781.160926 353.435449,781.181585 353.413031,781.217189 L353.413031,781.217189 L352.216548,783.151255 L352.202921,783.183343 L351.77391,784.922684 L351.773107,784.958385 C351.779927,784.992547 351.808196,785.020157 351.845119,785.023783 L351.845119,785.023783 L352.20424,785.058508 L352.24902,785.044003 L352.24902,785.044003 L352.293471,785.029497 C353.351053,784.078728 354.071493,782.819387 354.275888,781.343783 C354.28468,781.278288 354.235449,781.218508 354.169954,781.213233 L354.169954,781.213233 Z M348.275525,777.878617 L348.237691,777.887783 L346.010877,778.877233 L345.978138,778.899179 C345.959351,778.917282 345.947141,778.941702 345.944504,778.968662 L345.944504,778.968662 L345.672855,781.541409 L345.675721,781.580384 C345.682037,781.605585 345.696885,781.628442 345.71857,781.644266 L345.71857,781.644266 L347.663185,783.075475 L347.698187,783.092846 C347.723063,783.100139 347.750218,783.098772 347.774833,783.088222 L347.774833,783.088222 L350.114174,782.079871 L350.147255,782.057909 C350.166238,782.039773 350.178643,782.015255 350.181866,781.988003 L350.181866,781.988003 L350.458789,779.468003 L350.455973,779.42797 C350.449461,779.402215 350.434028,779.379065 350.411756,779.362948 L350.411756,779.362948 L348.349339,777.898772 L348.313848,777.882443 C348.288875,777.875671 348.262013,777.877233 348.237691,777.887783 Z M345.338107,778.506536 C345.305531,778.493926 345.267207,778.503321 345.24446,778.533981 C344.582042,779.421893 343.658965,780.322113 342.545119,781.101453 C342.50424,781.129585 342.498086,781.187168 342.532372,781.223211 L342.532372,781.223211 L342.860284,781.568266 L343.793031,782.545409 L343.825538,782.56907 C343.861245,782.586316 343.90468,782.584091 343.938965,782.560354 L343.938965,782.560354 L345.340724,781.596398 L345.364734,781.555574 L345.364734,781.555574 L345.389075,781.51508 L345.658526,778.91508 L345.656507,778.868193 C345.650711,778.837619 345.636255,778.808999 345.61457,778.785849 L345.61457,778.785849 L345.367976,778.526508 Z M338.193427,758.000023 C335.79035,757.993893 333.501119,759.201365 331.705075,761.469058 C329.908592,763.73675 329.004855,766.498508 329.004855,769.832135 C328.922658,772.517849 329.894526,775.579387 331.129691,777.407959 C332.364855,779.23697 334.719581,781.640486 338.225954,781.629098 C341.732767,781.618069 343.653647,779.392135 344.492767,778.485761 C345.331888,777.579387 346.345515,775.869497 347.016284,773.408398 C347.627713,771.052794 347.591669,768.533233 346.916943,765.897189 C346.895844,765.814552 346.8198,765.755651 346.734526,765.755651 L346.734526,765.755651 L344.485295,765.755651 L344.429117,765.764391 C344.341021,765.792708 344.283756,765.885688 344.304636,765.982025 C344.551669,767.113893 344.742877,768.133233 344.741119,769.365761 C344.749471,770.838728 344.634745,772.047959 344.339361,773.579827 C344.093647,774.854113 343.387273,776.623343 342.694965,777.700266 C341.061559,780.240486 339.097163,780.301585 338.214526,780.301585 C336.263756,780.301585 334.457163,779.051475 333.417603,777.160486 C332.377603,775.269937 331.678262,772.264222 331.705075,769.745981 C331.705075,767.091475 332.258482,764.53675 333.501119,762.344662 C334.743317,760.153014 336.447493,759.321365 338.175844,759.321365 C339.904196,759.321365 340.917383,759.933233 341.699361,760.668618 C342.002218,760.953893 342.701119,761.89675 342.98991,762.445761 C343.055405,762.570157 343.181119,762.651036 343.321778,762.651036 L343.321778,762.651036 L345.240899,762.651036 L345.292111,762.644183 C345.404821,762.613041 345.466504,762.481695 345.402658,762.373233 C344.717383,761.211036 342.292767,757.994772 338.193427,758.000023 Z M353.005822,776.593585 C352.970218,776.54875 352.906042,776.537761 352.857251,776.566772 L352.857251,776.566772 L352.557031,776.746113 L352.526571,776.772649 C352.509901,776.793585 352.500914,776.820252 352.502086,776.848091 L352.502086,776.848091 L352.586042,778.765453 L353.440987,780.850728 L353.463698,780.885437 C353.482745,780.905331 353.508826,780.918127 353.537251,780.920179 L353.537251,780.920179 L354.239229,780.972926 L354.271317,780.969038 C354.301399,780.959025 354.324064,780.931827 354.326702,780.8982 C354.339888,780.742596 354.346042,780.602376 354.346042,780.437102 C354.346042,778.983915 353.844504,777.64897 353.005822,776.593585 Z M350.329568,775.305536 L350.295185,775.308662 L348.445515,775.766244 L348.410233,775.781904 C348.378563,775.80292 348.358698,775.838772 348.359345,775.878332 L348.359345,775.878332 L348.391449,777.549541 L348.397407,777.584332 C348.404929,777.60644 348.419288,777.625878 348.438921,777.639651 L348.438921,777.639651 L350.587493,779.161849 L350.617318,779.177022 C350.638384,779.184022 350.661339,779.184706 350.683317,779.178552 L350.683317,779.178552 L352.224416,778.747343 L352.258963,778.730791 C352.289828,778.708992 352.308702,778.672728 352.307053,778.633497 L352.307053,778.633497 L352.232767,776.841409 L352.19013,776.757014 L350.392767,775.329761 L350.36278,775.312667 C350.341485,775.304559 350.318042,775.303094 350.295185,775.308662 Z M347.15646,763.683028 L337.647009,763.683028 L337.588389,763.692489 C337.514684,763.717035 337.461515,763.786596 337.461515,763.86853 L337.461515,763.86853 L337.461515,764.512047 L337.47116,764.571029 C337.49617,764.645339 337.566921,764.699563 337.649207,764.700618 L337.649207,764.700618 L338.803493,764.700618 L338.929428,764.704717 C339.643495,764.765822 340.350941,765.458738 340.339317,766.166552 L340.339317,766.166552 L340.339058,766.531267 C340.339017,766.569973 340.338972,766.610949 340.338922,766.654107 L340.33803,767.361339 L340.33803,767.361339 L340.337905,767.45421 L340.337056,768.064106 C340.336953,768.136583 340.336847,768.210542 340.336739,768.285896 L340.336056,768.754065 C340.3357,768.995821 340.335322,769.24856 340.334927,769.509921 L340.334927,769.509921 L340.334114,770.043438 C340.333002,770.768257 340.331782,771.543193 340.330526,772.323475 L340.330526,772.323475 L340.329647,772.695783 L340.329647,778.70853 L340.337402,778.762908 C340.372559,778.881532 340.519866,778.938695 340.626789,778.857541 C341.368767,778.292266 343.15646,776.603036 343.1758,773.910288 C343.183713,772.865893 343.187669,771.650948 343.188108,770.265014 L343.188108,770.265014 L343.188108,769.540618 L343.187734,768.990408 C343.186619,767.873904 343.183336,766.660932 343.178438,765.352047 C343.177119,764.992926 343.468108,764.700618 343.826789,764.700618 L343.826789,764.700618 L347.476899,764.700618 L347.647758,764.707912 C347.761393,764.71781 347.874115,764.738127 347.983713,764.770948 C348.323053,764.872926 348.840855,765.10853 349.223713,765.639959 C349.843493,766.500618 350.323053,767.593365 350.269866,769.583255 C350.269866,770.749849 349.681734,772.783255 348.309866,773.501058 C348.266789,773.523915 348.279976,773.58853 348.328328,773.592047 C348.568328,773.612266 348.993383,773.650948 349.2558,773.689189 C349.637339,773.745014 349.903273,773.771827 350.414482,773.945893 C350.483053,773.969189 350.559537,773.962157 350.621075,773.923915 C352.512504,772.752486 353.392064,770.910728 353.356899,769.173146 C353.387229,767.511607 352.615361,765.932706 351.327449,764.896662 C350.039537,763.860618 348.701075,763.681717 347.15646,763.683028 L347.15646,763.683028 Z M348.163449,774.254113 C347.85268,774.254113 347.557295,774.280047 347.268943,774.320486 C347.235976,774.325321 347.209603,774.349058 347.201691,774.381146 C347.128724,774.674332 347.035976,774.994332 346.920811,775.332794 C346.903669,775.382904 346.937954,775.43697 346.990702,775.440926 L346.990702,775.440926 L348.288724,775.540706 L348.30691,775.538948 L348.30691,775.538948 L348.324767,775.537189 L350.079932,775.098948 L350.115333,775.083282 C350.157348,775.05515 350.177251,775.000574 350.158614,774.949937 L350.158614,774.949937 L350.025427,774.587739 L350.007991,774.556384 C349.993437,774.537629 349.973412,774.523563 349.950262,774.51653 C349.384548,774.345981 348.784548,774.254113 348.163449,774.254113 Z" id="形状结合"></path>
        </g>
    </g>
</svg>