<?xml version="1.0" encoding="UTF-8"?>
<svg width="22px" height="22px" viewBox="0 0 22 22" version="1.1" xmlns="http://www.w3.org/2000/svg" xmlns:xlink="http://www.w3.org/1999/xlink">
    <title>形状结合@2x</title>
    <defs>
        <linearGradient x1="78.0273438%" y1="85.990767%" x2="19.1051136%" y2="15.9801136%" id="linearGradient-1">
            <stop stop-color="#FF9124" offset="0.0218531469%"></stop>
            <stop stop-color="#F7B500" offset="100%"></stop>
        </linearGradient>
    </defs>
    <g id="页面-1" stroke="none" stroke-width="1" fill="none" fill-rule="evenodd">
        <g id="滚球全部" transform="translate(-27.000000, -100.000000)" fill="url(#linearGradient-1)">
            <g id="形状结合" transform="translate(27.000000, 100.000000)">
                <path d="M11,0 C17.0751322,-1.11598369e-15 22,4.92486775 22,11 C22,17.0751322 17.0751322,22 11,22 C4.92486775,22 7.43989126e-16,17.0751322 0,11 C-7.43989126e-16,4.92486775 4.92486775,1.11598369e-15 11,0 Z M9.44942718,11.760568 L6.23130838,11.760568 C5.82907585,11.760568 5.5,12.0937704 5.5,12.501047 L5.5,12.501047 L5.5,15.759521 C5.5,16.1667975 5.82907585,16.5 6.23130838,16.5 L6.23130838,16.5 L9.44942718,16.5 C9.85165971,16.5 10.1807356,16.1667975 10.1807356,15.759521 L10.1807356,15.759521 L10.1807356,12.501047 C10.1807356,12.0937704 9.85165971,11.760568 9.44942718,11.760568 L9.44942718,11.760568 Z M15.4580988,11.760568 L12.23998,11.760568 C11.8377475,11.760568 11.5086716,12.0937704 11.5086716,12.501047 L11.5086716,12.501047 L11.5086716,15.759521 C11.5086716,16.1667975 11.8377475,16.5 12.23998,16.5 L12.23998,16.5 L15.4580988,16.5 C15.8603314,16.5 16.1894072,16.1667975 16.1894072,15.759521 L16.1894072,15.759521 L16.1894072,12.501047 C16.1894072,12.0937704 15.8603314,11.760568 15.4580988,11.760568 L15.4580988,11.760568 Z M14.3049116,5.6904201 C14.0541625,5.43652663 13.6436578,5.43652663 13.3929088,5.6904201 L13.3929088,5.6904201 L11.3858821,7.72261484 C11.1351331,7.97650831 11.1351331,8.39216071 11.3858821,8.64605418 L11.3858821,8.64605418 L13.3929088,10.6782489 C13.6439163,10.9321424 14.0541625,10.9321424 14.3049116,10.6782489 L14.3049116,10.6782489 L16.3119382,8.64605418 C16.5626873,8.39216071 16.5626873,7.97650831 16.3119382,7.72261484 L16.3119382,7.72261484 Z M9.44942718,5.81448763 L6.23130838,5.81448763 C5.82907585,5.81448763 5.5,6.14769009 5.5,6.55496663 L5.5,6.55496663 L5.5,9.81344065 C5.5,10.2207172 5.82907585,10.5539196 6.23130838,10.5539196 L6.23130838,10.5539196 L9.44942718,10.5539196 C9.85165971,10.5539196 10.1807356,10.2207172 10.1807356,9.81344065 L10.1807356,9.81344065 L10.1807356,6.55496663 C10.1807356,6.14769009 9.85165971,5.81448763 9.44942718,5.81448763 L9.44942718,5.81448763 Z"></path>
            </g>
        </g>
    </g>
</svg>