<?xml version="1.0" encoding="UTF-8"?>
<svg width="99px" height="120px" viewBox="0 0 99 120" version="1.1" xmlns="http://www.w3.org/2000/svg" xmlns:xlink="http://www.w3.org/1999/xlink">
    <title>横竖屏切换-01</title>
    <g id="页面-1" stroke="none" stroke-width="1" fill="none" fill-rule="evenodd">
        <g id="横版提示" transform="translate(-356.000000, -85.000000)" fill="#FFFFFF">
            <g id="横竖屏切换-01" transform="translate(405.200000, 145.000000) rotate(-90.000000) translate(-405.200000, -145.000000) translate(345.200000, 95.800000)">
                <path d="M106.82069,35.8138672 C114.103448,35.8138672 120,41.7240885 120,49.0237302 L120,85.1901369 C120,92.4897786 114.103448,98.4 106.82069,98.4 L35.0068966,98.4 C27.724138,98.4 21.8275862,92.4897787 21.8275862,85.1901369 L21.8275862,49.0237302 C21.8275862,41.7240885 27.724138,35.8138672 35.0068966,35.8138672 L106.82069,35.8138672 Z M106.82069,42.6572814 L35.0068966,42.6572814 C31.4989362,42.6572814 28.6551725,45.5076376 28.6551725,49.0237302 L28.6551725,85.1901369 C28.6551725,86.8786242 29.32437,88.4979554 30.5155493,89.6918961 C31.7067287,90.8858369 33.3223146,91.5565859 35.0068966,91.5565859 L106.82069,91.5565859 C108.505272,91.5565859 110.120858,90.8858369 111.312037,89.6918961 C112.503216,88.4979554 113.172414,86.8786242 113.172414,85.1901369 L113.172414,49.0237302 C113.172414,45.5076376 110.32865,42.6572814 106.82069,42.6572814 Z" id="形状结合" fill-rule="nonzero"></path>
                <rect id="矩形" x="104.800493" y="56.0730393" width="3.42857143" height="20.6191179" rx="1.71428571"></rect>
                <path d="M19.8413793,91.5358482 C21.7241379,91.5358482 23.2551725,93.070432 23.2551725,94.9575553 C23.2551725,96.8446785 21.7241379,98.3792623 19.8413793,98.3792623 L13.3448276,98.3792623 C5.97931031,98.3792623 0,92.4068282 0,85.024236 L0,13.375764 C0,5.99317173 5.97931031,0 13.3448276,0 L49.0758621,0 C56.4413794,0 62.4206897,5.99317173 62.4206897,13.375764 L62.4206897,30.7331507 C62.4206897,32.6202739 60.8896552,34.1548577 59.0068966,34.1548577 C57.124138,34.1548577 55.5931035,32.6202739 55.5931035,30.7331507 L55.5931035,13.375764 C55.5931035,9.76804676 52.6752351,6.84341412 49.0758621,6.84341412 L13.3448276,6.84341412 C9.74545456,6.84341412 6.82758621,9.76804676 6.82758621,13.375764 L6.82758621,85.024236 C6.82758621,88.6319532 9.74545456,91.5565859 13.3448276,91.5565859 L19.8413793,91.5565859 L19.8413793,91.5358482 Z" id="路径" fill-rule="nonzero" opacity="0.2"></path>
                <rect id="矩形" opacity="0.2" x="20.5714286" y="11.1686888" width="20.5714286" height="3.43651964" rx="1.71825982"></rect>
                <path d="M102.765517,22.8943309 C95.6068966,13.3550264 85.2827586,9.06233933 71.4206897,9.91258163 C69.5379311,10.0162698 67.924138,8.58537408 67.8,6.69825082 C67.6965517,4.81112757 69.1241379,3.19359332 71.0068966,3.06916751 C86.4413794,2.13597468 98.5862069,6.92636456 107.110345,17.3573867 L107.110345,10.3895469 C107.110345,8.50242363 108.641379,6.96783983 110.524138,6.96783983 C112.406897,6.96783983 113.937931,8.50242363 113.937931,10.3895469 L113.937931,25.4450579 C114,25.714647 114.041379,26.0049736 114.041379,26.3160379 C114.041379,28.2031612 112.510345,29.737745 110.627586,29.737745 L94.737931,29.737745 C92.8551724,29.737745 91.3241379,28.2031612 91.3241379,26.3160379 C91.3241379,24.4289147 92.8551724,22.8943309 94.737931,22.8943309 L102.765517,22.8943309 Z" id="路径" fill-rule="nonzero"></path>
            </g>
        </g>
    </g>
</svg>