<?xml version="1.0" encoding="UTF-8"?>
<svg width="14px" height="12px" viewBox="0 0 14 12" version="1.1" xmlns="http://www.w3.org/2000/svg" xmlns:xlink="http://www.w3.org/1999/xlink">
    <title>设置黑</title>
    <g id="页面-1" stroke="none" stroke-width="1" fill="none" fill-rule="evenodd">
        <g id="未结算备份-2" transform="translate(-313.000000, -823.000000)" fill="#B8B8B8" fill-rule="nonzero">
            <path d="M320,833.5 L313,833.5 L313,832.5 L320,832.5 L320,832.999 L320.005513,832.851305 C320.082231,831.820041 320.95,831 322,831 C323.1,831 324,831.9 324,833 C324,834.1 323.1,835 322,835 C320.9,835 320,834.1 320,833 L320,833.5 Z M322,832 C321.45,832 321,832.45 321,833 C321,833.55 321.45,834 322,834 C322.55,834 323,833.55 323,833 C323,832.45 322.55,832 322,832 Z M327,832.5 L327,833.5 L325,833.5 L325,832.5 L327,832.5 Z M320,824.5 L327,824.5 L327,825.5 L320,825.5 L320,825 L319.994487,825.148695 C319.921422,826.130851 319.130851,826.921422 318.148695,826.994487 L318,827 C316.9,827 316,826.1 316,825 C316,823.9 316.9,823 318,823 C319.1,823 320,823.9 320,825 L320,824.999 L320,824.5 Z M318,824 C317.45,824 317,824.45 317,825 C317,825.55 317.45,826 318,826 C318.55,826 319,825.55 319,825 C319,824.45 318.55,824 318,824 Z M315,824.5 L315,825.5 L313,825.5 L313,824.5 L315,824.5 Z" id="设置黑"></path>
        </g>
    </g>
</svg>