<?xml version="1.0" encoding="UTF-8"?>
<svg width="20px" height="20px" viewBox="0 0 20 20" version="1.1" xmlns="http://www.w3.org/2000/svg" xmlns:xlink="http://www.w3.org/1999/xlink">
    <title>矩形备份 24@2x</title>
    <g id="矩形备份-24" stroke="none" stroke-width="1" fill="none" fill-rule="evenodd">
        <path d="M2,0 L18,0 C19.1045695,0 20,0.8954305 20,2 L20,18 C20,19.1045695 19.1045695,20 18,20 L2,20 C0.8954305,20 0,19.1045695 0,18 L0,2 C0,0.8954305 0.8954305,0 2,0 Z" id="矩形备份-2" fill="#62AA62"></path>
        <path d="M18,0 C19.1045695,0 20,0.8954305 20,2 L20,18 C20,19.1045695 19.1045695,20 18,20 L2,20 C0.8954305,20 0,19.1045695 0,18 L0,2 C0,0.8954305 0.8954305,0 2,0 L18,0 Z M18,1 L2,1 C1.48716416,1 1.06449284,1.38604019 1.00672773,1.88337887 L1,2 L1,18 C1,18.5128358 1.38604019,18.9355072 1.88337887,18.9932723 L2,19 L18,19 C18.5128358,19 18.9355072,18.6139598 18.9932723,18.1166211 L19,18 L19,2 C19,1.48716416 18.6139598,1.06449284 18.1166211,1.00672773 L18,1 Z" id="矩形备份-2" fill-opacity="0.25" fill="#000000" fill-rule="nonzero"></path>
        <path d="M9.836,15.084 C10.872,15.084 11.586,14.72 12.034,14.272 C12.762,13.544 12.916,12.76 12.916,11.64 C12.916,10.702 12.804,9.764 12.02,8.98 C11.614,8.574 10.984,8.308 10.158,8.308 C9.486,8.308 8.926,8.56 8.66,8.812 L8.66,6.67 L12.692,6.67 L12.692,5.032 L7.008,5.032 L7.008,10.66 L8.674,10.66 C8.8,10.268 9.136,9.848 9.878,9.848 C10.76,9.848 11.096,10.492 11.096,11.64 C11.096,12.27 11.026,12.802 10.704,13.124 C10.48,13.348 10.186,13.446 9.836,13.446 C9.08,13.446 8.716,12.998 8.618,12.214 L6.798,12.214 C6.854,12.942 6.994,13.67 7.61,14.286 C8.044,14.72 8.8,15.084 9.836,15.084 Z" id="5" fill="#FFFFFF" fill-rule="nonzero"></path>
    </g>
</svg>