<?xml version="1.0" encoding="UTF-8"?>
<svg width="20px" height="14px" viewBox="0 0 20 14" version="1.1" xmlns="http://www.w3.org/2000/svg" xmlns:xlink="http://www.w3.org/1999/xlink">
    <title>演播厅02</title>
    <defs>
        <polygon id="path-1" points="0 0 19.9996 0 19.9996 13.9996 0 13.9996"></polygon>
    </defs>
    <g id="页面-1" stroke="none" stroke-width="1" fill="none" fill-rule="evenodd">
        <g id="画板备份-3" transform="translate(-13.000000, -94.000000)">
            <g id="编组" transform="translate(13.000000, 94.000100)">
                <mask id="mask-2" fill="white">
                    <use xlink:href="#path-1"></use>
                </mask>
                <g id="Clip-2"></g>
                <path d="M17.9996,-0.0004 C19.1046,-0.0004 19.9996,0.8956 19.9996,1.9996 L19.9996,1.9996 L19.9996,11.9996 C19.9996,13.1046 19.1046,13.9996 17.9996,13.9996 L17.9996,13.9996 L1.9996,13.9996 C0.8956,13.9996 -0.0004,13.1046 -0.0004,11.9996 L-0.0004,11.9996 L-0.0004,1.9996 C-0.0004,0.8956 0.8956,-0.0004 1.9996,-0.0004 L1.9996,-0.0004 Z M12.9207,1.9995 L4.3387,1.9995 L4.19122034,2.00577978 C3.3162928,2.08062188 2.6297,2.81513158 2.6297,3.7085 L2.6297,3.7085 L2.6297,10.2905 L2.63597191,10.4379797 C2.71072216,11.3129072 3.44438421,11.9995 4.3387,11.9995 L4.3387,11.9995 L12.9207,11.9995 L13.0681797,11.9932281 C13.9431072,11.9184778 14.6297,11.1848158 14.6297,10.2905 L14.6297,10.2905 L14.6297,10.1605 L15.9687,10.3845 L16.059075,10.396125 L16.059075,10.396125 L16.1487,10.3995 C16.8117,10.3995 17.3707,9.7855 17.3707,9.0035 L17.3707,9.0035 L17.3707,4.9955 L17.3642603,4.85112866 C17.3004188,4.14014844 16.7702625,3.6005 16.1487,3.6005 C16.0897,3.6005 16.0287,3.6055 15.9687,3.6145 L15.9687,3.6145 L14.6297,3.8395 L14.6297,3.7085 L14.6234281,3.56116205 C14.5486778,2.6869903 13.8150158,1.9995 12.9207,1.9995 L12.9207,1.9995 Z M12.9207,2.9995 C13.3117,2.9995 13.6297,3.3175 13.6297,3.7085 L13.6297,3.7085 L13.6297,10.2905 L13.6232168,10.3867975 C13.5761931,10.7331319 13.2791167,10.9995 12.9207,10.9995 L12.9207,10.9995 L4.3387,10.9995 L4.24261262,10.9930359 C3.89690833,10.9461458 3.6297,10.6498333 3.6297,10.2905 L3.6297,10.2905 L3.6297,3.7085 L3.63618322,3.61241262 C3.68320694,3.26670833 3.98028333,2.9995 4.3387,2.9995 L4.3387,2.9995 Z M16.1487,4.6005 C16.2267,4.6005 16.3707,4.7505 16.3707,4.9955 L16.3707,4.9955 L16.3707,9.0035 L16.3643738,9.09085742 C16.3357313,9.28389063 16.216075,9.3995 16.1347,9.3995 L16.1347,9.3995 L14.6297,9.1475 L14.6297,4.8535 L16.1347,4.6015 Z M7.5728,4.9247 C6.4278,4.9247 5.4978,5.8557 5.4978,7.0007 C5.4978,8.1447 6.4278,9.0757 7.5728,9.0757 C8.7178,9.0757 9.6488,8.1447 9.6488,7.0007 C9.6488,5.8557 8.7178,4.9247 7.5728,4.9247 Z M7.5728,5.9247 C8.1668,5.9247 8.6488,6.4067 8.6488,7.0007 C8.6488,7.5937 8.1668,8.0757 7.5728,8.0757 C6.9798,8.0757 6.4978,7.5937 6.4978,7.0007 C6.4978,6.4067 6.9798,5.9247 7.5728,5.9247 Z" id="形状结合" fill="#717B88" mask="url(#mask-2)"></path>
            </g>
        </g>
    </g>
</svg>