<?xml version="1.0" encoding="UTF-8"?>
<svg width="10px" height="10px" viewBox="0 0 10 10" version="1.1" xmlns="http://www.w3.org/2000/svg" xmlns:xlink="http://www.w3.org/1999/xlink">
    <title>notice备份</title>
    <defs>
        <linearGradient x1="50%" y1="98.8040433%" x2="50%" y2="0%" id="linearGradient-1">
            <stop stop-color="#FFC855" offset="0%"></stop>
            <stop stop-color="#FF7300" offset="100%"></stop>
        </linearGradient>
        <linearGradient x1="50%" y1="98.8040433%" x2="50%" y2="0%" id="linearGradient-2">
            <stop stop-color="#C9E0FF" offset="0%"></stop>
            <stop stop-color="#569FFD" offset="100%"></stop>
        </linearGradient>
        <path d="M5.83119816,0.133499982 C5.90921002,0.213695982 5.9527284,0.320293072 5.95272684,0.431149982 L5.95272684,2.72924998 C6.02086438,2.73010865 6.08750682,2.74896999 6.14564406,2.78384998 C6.96366963,3.27291248 7.46887988,4.09038748 7.46887988,4.98857498 C7.46887988,5.85878748 6.99468874,6.65429998 6.21807719,7.14858748 C6.13966494,7.19865807 6.04516741,7.21854312 5.95272684,7.20442498 L5.95272684,9.56885 C5.95272684,9.806975 5.75597522,10 5.51326181,10 C5.40027379,10 5.29162508,9.9573057 5.20987324,9.880775 L2.80659907,7.63089998 C2.6975996,7.52885864 2.55273823,7.47192715 2.40208946,7.47192498 L0.73244595,7.47192498 C0.32792361,7.47192498 0,7.15021248 0,6.75334998 L0,3.24664998 C0,2.84978748 0.32792361,2.52807498 0.73244595,2.52807498 L2.40208946,2.52807498 C2.55273823,2.52807282 2.6975996,2.47114132 2.80659907,2.36909998 L5.20987324,0.119224982 C5.38546562,-0.0451500177 5.663644,-0.0387750177 5.83119816,0.133499982 Z M5.95272684,3.55907498 L5.95272684,6.41801248 C6.42923645,6.05741248 6.70712183,5.54086248 6.70712183,4.98857498 C6.70712183,4.43574998 6.42847212,3.91903748 5.95272684,3.55907498 Z" id="path-3"></path>
        <linearGradient x1="50%" y1="98.8040433%" x2="50%" y2="0%" id="linearGradient-4">
            <stop stop-color="#FFC855" offset="0%"></stop>
            <stop stop-color="#FF7300" offset="100%"></stop>
        </linearGradient>
        <linearGradient x1="50%" y1="98.8040433%" x2="50%" y2="0%" id="linearGradient-5">
            <stop stop-color="#C9E0FF" offset="0%"></stop>
            <stop stop-color="#569FFD" offset="100%"></stop>
        </linearGradient>
        <path d="M0.0480286762,0.19221077 C0.150206976,0.0118357698 0.382092376,-0.0531267302 0.565952276,0.0471107698 L1.45453838,0.53161077 L1.46281858,0.53623577 C1.64037278,0.63873577 1.70307338,0.86207327 1.60243648,1.03973577 C1.50024538,1.22011077 1.26835998,1.28507327 1.08450008,1.18482327 L0.195926776,0.70034827 L0.187646476,0.69569827 C0.0100923762,0.59321077 -0.0526083238,0.36986077 0.0480286762,0.19221077 Z" id="path-6"></path>
        <linearGradient x1="50%" y1="98.8040433%" x2="50%" y2="0%" id="linearGradient-7">
            <stop stop-color="#FFC855" offset="0%"></stop>
            <stop stop-color="#FF7300" offset="100%"></stop>
        </linearGradient>
        <linearGradient x1="50%" y1="98.8040433%" x2="50%" y2="0%" id="linearGradient-8">
            <stop stop-color="#C9E0FF" offset="0%"></stop>
            <stop stop-color="#569FFD" offset="100%"></stop>
        </linearGradient>
        <path d="M1.46449639,0.113487336 C1.67075119,0.113287516 1.84045819,0.274762516 1.84546459,0.478125016 C1.85054739,0.684437516 1.68419069,0.855725016 1.47389759,0.860712516 L0.390075791,0.886387516 L0.381069491,0.886512686 C0.174827391,0.886700016 0.00512039091,0.725225016 0.000113990912,0.521862516 C-0.00498150909,0.315550016 0.161387891,0.144262516 0.371668191,0.139275016 L1.45551549,0.113600016 L1.46449639,0.113487336 Z" id="path-9"></path>
        <linearGradient x1="50%" y1="98.8040433%" x2="50%" y2="0%" id="linearGradient-10">
            <stop stop-color="#FFC855" offset="0%"></stop>
            <stop stop-color="#FF7300" offset="100%"></stop>
        </linearGradient>
        <linearGradient x1="50%" y1="98.8040433%" x2="50%" y2="0%" id="linearGradient-11">
            <stop stop-color="#C9E0FF" offset="0%"></stop>
            <stop stop-color="#569FFD" offset="100%"></stop>
        </linearGradient>
        <path d="M1.60243652,0.192216317 C1.70307342,0.369878817 1.64037282,0.593216317 1.46281862,0.695716317 L1.45453842,0.700341317 L0.565952324,1.18484132 C0.382092424,1.28509132 0.150207024,1.22011632 0.0480286243,1.03974132 C-0.0526082857,0.862091317 0.0100923643,0.638741317 0.187646524,0.536241317 L0.195926824,0.531616317 L1.08450012,0.0471163172 C1.26837272,-0.0531336828 1.50025812,0.0118413172 1.60243652,0.192216317 Z" id="path-12"></path>
    </defs>
    <g id="页面-1" stroke="none" stroke-width="1" fill="none" fill-rule="evenodd">
        <g id="画板" transform="translate(-2.000000, -578.000000)" fill-rule="nonzero">
            <g id="编组" transform="translate(0.000000, 576.000000)">
                <rect id="矩形" fill="#000000" opacity="0" x="0" y="0" width="14" height="14"></rect>
                <g id="形状结合" transform="translate(2.000000, 2.000000)">
                    <use fill="url(#linearGradient-1)" xlink:href="#path-3"></use>
                    <use fill="url(#linearGradient-2)" xlink:href="#path-3"></use>
                </g>
                <g id="路径" transform="translate(10.232418, 10.709852)">
                    <g id="path-5-link" fill="#888888">
                        <path d="M0.0480286762,0.19221077 C0.150206976,0.0118357698 0.382092376,-0.0531267302 0.565952276,0.0471107698 L1.45453838,0.53161077 L1.46281858,0.53623577 C1.64037278,0.63873577 1.70307338,0.86207327 1.60243648,1.03973577 C1.50024538,1.22011077 1.26835998,1.28507327 1.08450008,1.18482327 L0.195926776,0.70034827 L0.187646476,0.69569827 C0.0100923762,0.59321077 -0.0526083238,0.36986077 0.0480286762,0.19221077 Z" id="path-5"></path>
                    </g>
                    <g id="path-5">
                        <use fill="url(#linearGradient-4)" xlink:href="#path-6"></use>
                        <use fill="url(#linearGradient-5)" xlink:href="#path-6"></use>
                    </g>
                </g>
                <g id="路径" transform="translate(10.154422, 6.431700)">
                    <g id="path-7-link" fill="#888888">
                        <path d="M1.46449639,0.113487336 C1.67075119,0.113287516 1.84045819,0.274762516 1.84546459,0.478125016 C1.85054739,0.684437516 1.68419069,0.855725016 1.47389759,0.860712516 L0.390075791,0.886387516 L0.381069491,0.886512686 C0.174827391,0.886700016 0.00512039091,0.725225016 0.000113990912,0.521862516 C-0.00498150909,0.315550016 0.161387891,0.144262516 0.371668191,0.139275016 L1.45551549,0.113600016 L1.46449639,0.113487336 Z" id="path-7"></path>
                    </g>
                    <g id="path-7">
                        <use fill="url(#linearGradient-7)" xlink:href="#path-9"></use>
                        <use fill="url(#linearGradient-8)" xlink:href="#path-9"></use>
                    </g>
                </g>
                <g id="路径" transform="translate(9.968915, 2.036559)">
                    <g id="path-9-link" fill="#888888">
                        <path d="M1.60243652,0.192216317 C1.70307342,0.369878817 1.64037282,0.593216317 1.46281862,0.695716317 L1.45453842,0.700341317 L0.565952324,1.18484132 C0.382092424,1.28509132 0.150207024,1.22011632 0.0480286243,1.03974132 C-0.0526082857,0.862091317 0.0100923643,0.638741317 0.187646524,0.536241317 L0.195926824,0.531616317 L1.08450012,0.0471163172 C1.26837272,-0.0531336828 1.50025812,0.0118413172 1.60243652,0.192216317 Z" id="path-9"></path>
                    </g>
                    <g id="path-9">
                        <use fill="url(#linearGradient-10)" xlink:href="#path-12"></use>
                        <use fill="url(#linearGradient-11)" xlink:href="#path-12"></use>
                    </g>
                </g>
            </g>
        </g>
    </g>
</svg>