<?xml version="1.0" encoding="UTF-8"?>
<svg width="20px" height="14px" viewBox="0 0 20 14" version="1.1" xmlns="http://www.w3.org/2000/svg" xmlns:xlink="http://www.w3.org/1999/xlink">
    <title>主播02@1x</title>
    <defs>
        <polygon id="path-1" points="0 0 19.9999 0 19.9999 13.9998 0 13.9998"></polygon>
    </defs>
    <g id="页面-1" stroke="none" stroke-width="1" fill="none" fill-rule="evenodd">
        <g id="画板" transform="translate(-41.000000, -94.000000)">
            <g id="主播02" transform="translate(41.000000, 94.000000)">
                <path d="M18,0 C19.104,0 20,0.896 20,2 L20,2 L20,12 C20,13.105 19.104,14 18,14 L18,14 L2,14 C0.896,14 0,13.105 0,12 L0,12 L0,2 C0,0.896 0.896,0 2,0 L2,0 Z M16,3.688 C15.724,3.688 15.5,3.911 15.5,4.188 L15.5,4.188 L15.5,6.64 C15.5,8.824 13.729,10.594 11.547,10.594 L11.547,10.594 L8.453,10.594 C6.27,10.594 4.5,8.824 4.5,6.64 L4.5,6.64 L4.5,4.188 C4.5,3.911 4.276,3.688 4,3.688 C3.724,3.688 3.5,3.911 3.5,4.188 L3.5,4.188 L3.5,6.64 C3.5,9.376 5.718,11.594 8.453,11.594 L8.453,11.594 L9.5,11.594 L9.5,12.385 L6.5,12.385 C6.225,12.385 6,12.61 6,12.885 C6,13.16 6.225,13.385 6.5,13.385 L6.5,13.385 L13.5,13.385 C13.774,13.385 14,13.16 14,12.885 C14,12.61 13.774,12.385 13.5,12.385 L13.5,12.385 L10.5,12.385 L10.5,11.594 L11.547,11.594 C14.282,11.594 16.5,9.376 16.5,6.64 L16.5,6.64 L16.5,4.188 C16.5,3.911 16.276,3.688 16,3.688 Z M11.488,0.615 L8.512,0.615 C6.849,0.615 5.5,1.964 5.5,3.627 L5.5,3.627 L5.5,6.748 C5.5,8.411 6.849,9.76 8.512,9.76 L8.512,9.76 L11.488,9.76 C13.151,9.76 14.5,8.411 14.5,6.748 L14.5,6.748 L14.5,3.627 C14.5,1.964 13.151,0.615 11.488,0.615 L11.488,0.615 Z M11.4887,1.6151 C12.5497,1.6151 13.4127,2.4451 13.4857,3.4891 L13.4857,3.4891 L11.7807,3.4891 C11.5037,3.4891 11.2807,3.7131 11.2807,3.9891 C11.2807,4.2651 11.5037,4.4891 11.7807,4.4891 L11.7807,4.4891 L13.4997,4.4891 L13.4997,5.8861 L11.7807,5.8861 C11.5037,5.8861 11.2807,6.1101 11.2807,6.3861 C11.2807,6.6621 11.5037,6.8861 11.7807,6.8861 L11.7807,6.8861 L13.4857,6.8861 C13.4127,7.9301 12.5497,8.7601 11.4887,8.7601 L11.4887,8.7601 L8.5117,8.7601 C7.4487,8.7601 6.5857,7.9301 6.5137,6.8861 L6.5137,6.8861 L8.2197,6.8861 C8.4947,6.8861 8.7197,6.6621 8.7197,6.3861 C8.7197,6.1101 8.4947,5.8861 8.2197,5.8861 L8.2197,5.8861 L6.4997,5.8861 L6.4997,4.4891 L8.2197,4.4891 C8.4947,4.4891 8.7197,4.2651 8.7197,3.9891 C8.7197,3.7131 8.4947,3.4891 8.2197,3.4891 L8.2197,3.4891 L6.5137,3.4891 C6.5857,2.4451 7.4487,1.6151 8.5117,1.6151 L8.5117,1.6151 Z" id="形状结合" fill="#C1C4C7"></path>
                <g id="编组" transform="translate(0.000000, 0.000200)">
                    <mask id="mask-2" fill="white">
                        <use xlink:href="#path-1"></use>
                    </mask>
                    <g id="Clip-4"></g>
                </g>
            </g>
        </g>
    </g>
</svg>