<?xml version="1.0" encoding="UTF-8"?>
<svg width="20px" height="14px" viewBox="0 0 20 14" version="1.1" xmlns="http://www.w3.org/2000/svg" xmlns:xlink="http://www.w3.org/1999/xlink">
    <title>动画-默认</title>
    <g id="页面-1" stroke="none" stroke-width="1" fill="none" fill-rule="evenodd">
        <g id="组件_1" transform="translate(-1629.000000, -103.000000)" fill="#C1C4C7" fill-rule="nonzero">
            <path d="M1647,103 C1648.10457,103 1649,103.895431 1649,105 L1649,115 C1649,116.104569 1648.10457,117 1647,117 L1639.75,117 L1639.7506,113.929688 C1641.60095,113.578395 1643,111.95258 1643,110 C1643,108.04742 1641.60095,106.421605 1639.7506,106.070312 L1639.75,103 L1647,103 Z M1638.25,103 L1638.25039,106.070123 C1636.39955,106.421022 1635,108.047069 1635,110 C1635,111.952931 1636.39955,113.578978 1638.25039,113.929877 L1638.25,117 L1631,117 C1629.89543,117 1629,116.104569 1629,115 L1629,105 C1629,103.895431 1629.89543,103 1631,103 L1638.25,103 Z M1639,107.5 C1640.38071,107.5 1641.5,108.619288 1641.5,110 C1641.5,111.380712 1640.38071,112.5 1639,112.5 C1637.61929,112.5 1636.5,111.380712 1636.5,110 C1636.5,108.619288 1637.61929,107.5 1639,107.5 Z M1631.75,108 C1631.33579,108 1631,108.335786 1631,108.75 L1631,108.75 L1631,111.25 C1631,111.664214 1631.33579,112 1631.75,112 C1632.16421,112 1632.5,111.664214 1632.5,111.25 L1632.5,111.25 L1632.5,108.75 C1632.5,108.335786 1632.16421,108 1631.75,108 Z M1646.25,108 C1645.83579,108 1645.5,108.335786 1645.5,108.75 L1645.5,108.75 L1645.5,111.25 C1645.5,111.664214 1645.83579,112 1646.25,112 C1646.66421,112 1647,111.664214 1647,111.25 L1647,111.25 L1647,108.75 C1647,108.335786 1646.66421,108 1646.25,108 Z" id="动画-默认"></path>
        </g>
    </g>
</svg>