<?xml version="1.0" encoding="UTF-8"?>
<svg width="30px" height="14px" viewBox="0 0 30 14" version="1.1" xmlns="http://www.w3.org/2000/svg" xmlns:xlink="http://www.w3.org/1999/xlink">
    <title>编组 46</title>
    <g id="页面-1" stroke="none" stroke-width="1" fill="none" fill-rule="evenodd">
        <g id="live_足球" transform="translate(-1371.000000, -191.000000)" fill-rule="nonzero">
            <g id="编组-3" transform="translate(1356.000000, 180.000000)">
                <g id="编组-46" transform="translate(15.000000, 11.000000)">
                    <polygon id="路径" fill="#FF7000" points="14.3 0.926080893 20.3 0.926080893 20.3 2.26851742 14.3 2.26851742"></polygon>
                    <path d="M17.2172245,3.49723515 C20.3301953,3.49723515 22.0512552,5.9352552 22.0512552,8.861434 C22.0512552,9.03617264 22.0400976,9.20813765 22.0317294,9.37178177 L22.0317294,9.37178177 L14.8657601,9.37178177 C14.8657601,10.955524 15.7025802,11.8874634 17.303696,11.8874634 C18.1321478,11.8874634 19.1976987,11.4436828 19.4599024,10.5977259 L19.4599024,10.5977259 L21.8671548,10.5977259 C21.1279637,12.8637809 19.5910042,13.9260809 17.2172245,13.9260809 C14.0819386,13.9260809 12.1321478,11.8125755 12.1321478,8.73384705 C12.1321478,5.76329019 14.1907252,3.49723515 17.2172245,3.49723515 Z M17.1307531,5.54417349 C15.8253138,5.54417349 14.9522315,6.35684684 14.8657601,7.65767893 L14.8657601,7.65767893 L19.3092748,7.65767893 C19.1893305,6.34575232 18.5031381,5.54417349 17.1307531,5.54417349 Z" id="形状结合" fill="#333333"></path>
                    <path d="M6.47140865,1.50990331e-14 C8.82287308,1.50990331e-14 10.8591353,0.676685621 10.8591353,3.4658814 C10.8591353,4.87611698 10.2147838,5.7887896 8.9846583,6.38870837 C10.6722455,6.87774167 11.4867503,8.1770918 11.4867503,9.93419984 C11.4867503,12.7774167 9.14644351,14 6.65271967,14 L6.65271967,14 L-8.52651283e-14,14 L-8.52651283e-14,1.50990331e-14 Z M6.30404463,7.76766856 L3.0153417,7.76766856 L3.0153417,11.6230707 L6.23988842,11.6230707 C7.47001395,11.6230707 8.47140865,11.1766856 8.47140865,9.76645004 C8.47140865,8.33346872 7.63179916,7.76766856 6.30404463,7.76766856 L6.30404463,7.76766856 Z M5.84937238,2.38830219 L3.0181311,2.38830219 L3.0181311,5.65515841 L6.07810321,5.65515841 C7.15760112,5.65515841 7.91910739,5.17749797 7.91910739,3.98903331 C7.91910739,2.69821284 6.94002789,2.38830219 5.84937238,2.38830219 L5.84937238,2.38830219 Z" id="形状结合" fill="#333333"></path>
                    <path d="M28.672,13.9203125 L28.672,12.5923125 L28.544,12.5923125 C28.3093333,12.5923125 28.048,12.4776458 27.76,12.2483125 C27.472,12.0189792 27.328,11.6856458 27.328,11.2483125 L27.328,5.9203125 L30,5.9203125 L30,4.5923125 L27.328,4.5923125 L27.328,1.9203125 L24.672,1.9203125 L24.672,4.5923125 L22,4.5923125 L22,5.9203125 L24.672,5.9203125 L24.672,11.2483125 C24.672,11.9843125 24.9333333,12.6136458 25.456,13.1363125 C25.9786667,13.6589792 26.6026667,13.9203125 27.328,13.9203125 L28.672,13.9203125 Z" id="t" fill="#333333"></path>
                </g>
            </g>
        </g>
    </g>
</svg>