<?xml version="1.0" encoding="UTF-8"?>
<svg width="16px" height="16px" viewBox="0 0 16 16" version="1.1" xmlns="http://www.w3.org/2000/svg" xmlns:xlink="http://www.w3.org/1999/xlink">
    <title>聊天室02@1x</title>
    <defs>
        <linearGradient x1="100%" y1="50%" x2="0%" y2="50%" id="linearGradient-1">
            <stop stop-color="#C1C4C7" offset="0%"></stop>
            <stop stop-color="#A3A6A9" offset="100%"></stop>
        </linearGradient>
    </defs>
    <g id="页面-1" stroke="none" stroke-width="1" fill="none" fill-rule="evenodd">
        <g id="画板" transform="translate(-13.000000, -36.000000)">
            <g id="聊天室02" transform="translate(13.000000, 36.000000)">
                <circle id="蒙版" fill="url(#linearGradient-1)" cx="8" cy="8" r="8"></circle>
                <path d="M7.58169701,4.27950676 C8.1490344,4.27950676 8.61370438,4.72284326 8.65803803,5.27950676 L8.65803803,5.27950676 L11.0997221,5.27950676 C11.961395,5.27950676 12.6667333,5.98451894 12.6667333,6.84652509 L12.6667333,6.84652509 L12.6667333,9.04587414 C12.6667333,9.90788029 11.9617283,10.6128853 11.0997221,10.6128853 L11.0997221,10.6128853 L10.933721,10.6128853 L10.933721,11.3805575 C10.933721,11.6375593 10.6590523,11.8015605 10.4330507,11.6792263 L10.4330507,11.6792263 L8.46003662,10.6128853 L6.90035881,10.6128853 C6.03835265,10.6128853 5.33334762,9.90788029 5.33334762,9.04587414 L5.33334762,9.04587414 L5.33334762,8.65187132 L5.05701231,8.80153906 C4.8833444,8.89520639 4.6733429,8.76953883 4.6733429,8.57287076 L4.6733429,8.57287076 L4.6733429,8.27953533 L4.41834108,8.27953533 C3.82167015,8.27953533 3.33333333,7.79119851 3.33333333,7.19452758 L3.33333333,7.19452758 L3.33333333,5.36451451 C3.33333333,4.76784358 3.82167015,4.27950676 4.41834108,4.27950676 L4.41834108,4.27950676 Z M7.43982576,7.49996309 C7.16382736,7.49996309 6.93982576,7.72396469 6.93982576,7.99996309 C6.93982576,8.27630197 7.16382736,8.49996309 7.43982576,8.49996309 C7.7158313,8.49996309 7.93982576,8.27630197 7.93982576,7.99996309 C7.93982576,7.72396469 7.7158313,7.49996309 7.43982576,7.49996309 Z M8.9951702,7.49996309 C8.7191718,7.49996309 8.4951702,7.72396469 8.4951702,7.99996309 C8.4951702,8.27630197 8.7191718,8.49996309 8.9951702,8.49996309 C9.27150908,8.49996309 9.4951702,8.27630197 9.4951702,7.99996309 C9.4951702,7.72396469 9.27150908,7.49996309 8.9951702,7.49996309 Z M10.550848,7.49996309 C10.2748496,7.49996309 10.050848,7.72396469 10.050848,7.99996309 C10.050848,8.27630197 10.2748496,8.49996309 10.550848,8.49996309 C10.8268535,8.49996309 11.050848,8.27630197 11.050848,7.99996309 C11.050848,7.72396469 10.8268535,7.49996309 10.550848,7.49996309 Z M5.33334762,6.84652509 L5.33334762,7.98586657 C5.33334762,7.77986509 5.16634643,7.6128639 4.96034495,7.6128639 L4.6733429,7.6128639 L4.41834108,7.6128639 C4.1880061,7.6128639 4.00000476,7.42486256 4.00000476,7.19452758 L4.00000476,5.36451451 C4.00000476,5.13451287 4.1880061,4.94617819 4.41834108,4.94617819 L7.58169701,4.94617819 C7.77836508,4.94617819 7.94069958,5.09351257 7.98236654,5.2795139 L6.90035881,5.2795139 C6.03835265,5.2795139 5.33334762,5.98451894 5.33334762,6.84652509 L5.33334762,6.84652509 Z" id="形状结合" fill="#FFFFFF"></path>
            </g>
        </g>
    </g>
</svg>