<?xml version="1.0" encoding="UTF-8"?>
<svg width="16px" height="16px" viewBox="0 0 16 16" version="1.1" xmlns="http://www.w3.org/2000/svg" xmlns:xlink="http://www.w3.org/1999/xlink">
    <title>编组 26备份 3</title>
    <g id="页面-1" stroke="none" stroke-width="1" fill="none" fill-rule="evenodd">
        <g id="live_足球" transform="translate(-752.000000, -853.000000)" fill-rule="nonzero">
            <g id="编组-21" transform="translate(234.000000, 841.000000)">
                <g id="数据" transform="translate(518.000000, 12.000000)">
                    <path d="M16,6.86470588 L8.709375,6.86470588 L8.709375,0 C10.6140625,0.107352941 12.4015625,0.858823529 13.7453125,2.12352941 C15.0875,3.38676471 15.8859375,5.06911765 16,6.86470588 Z" id="路径" fill="#FFB001"></path>
                    <path d="M1.8859375,12.8941176 C0.6703125,11.5720588 0,9.89411765 0,8.15735294 C0,6.22205882 0.8,4.40441176 2.2546875,3.03676471 C3.559375,1.80882353 5.2953125,1.06617647 7.14375,0.941176471 L7.14375,7.95882353 L1.8859375,12.8941176 Z M7.6984375,15.3985294 C9.753125,15.3985294 11.6828125,14.6455882 13.134375,13.2794118 C14.4421875,12.0485294 15.23125,10.4147059 15.3625,8.675 L7.940625,8.65294118 L2.6609375,13.6235294 C4.0671875,14.7691176 5.85,15.3985294 7.69375,15.3985294 L7.6984375,15.3985294 Z" id="形状" fill="#999999"></path>
                </g>
            </g>
        </g>
    </g>
</svg>