<?xml version="1.0" encoding="UTF-8"?>
<svg width="24px" height="24px" viewBox="0 0 24 24" version="1.1" xmlns="http://www.w3.org/2000/svg" xmlns:xlink="http://www.w3.org/1999/xlink">
    <title>信息屏蔽-黄-浅@1x</title>
    <defs>
        <circle id="path-1" cx="12" cy="12" r="12"></circle>
    </defs>
    <g id="页面-1" stroke="none" stroke-width="1" fill="none" fill-rule="evenodd">
        <g id="画板" transform="translate(-108.000000, -33.000000)">
            <g id="信息屏蔽-黄-浅" transform="translate(108.000000, 33.000000)">
                <mask id="mask-2" fill="white">
                    <use xlink:href="#path-1"></use>
                </mask>
                <circle stroke="#FF7000" cx="12" cy="12" r="11.5"></circle>
                <path d="M11.3725455,6.41926014 C12.2235516,6.41926014 12.9205566,7.08426489 12.9870571,7.91927085 L12.9870571,7.91927085 L16.6495832,7.91927085 C17.9420924,7.91927085 19.0001,8.97677841 19.0001,10.2697876 L19.0001,10.2697876 L19.0001,13.5688112 C19.0001,14.8618204 17.9425924,15.919328 16.6495832,15.919328 L16.6495832,15.919328 L16.4005814,15.919328 L16.4005814,17.0708362 C16.4005814,17.456339 15.9885785,17.7023407 15.6495761,17.5188394 L15.6495761,17.5188394 L12.6900549,15.919328 L10.3505382,15.919328 C9.05752898,15.919328 8.00002143,14.8618204 8.00002143,13.5688112 L8.00002143,13.5688112 L8.00002143,12.977807 L7.58551847,13.2023086 C7.32501661,13.3428096 7.01001436,13.1543082 7.01001436,12.8593061 L7.01001436,12.8593061 L7.01001436,12.419303 L6.62751163,12.419303 C5.73250523,12.419303 5,11.6867978 5,10.7917914 L5,10.7917914 L5,8.04677176 C5,7.15176537 5.73250523,6.41926014 6.62751163,6.41926014 L6.62751163,6.41926014 Z M16.6495832,8.91927799 L10.3505382,8.91927799 C9.60453289,8.91927799 9.00002857,9.52378231 9.00002857,10.2697876 L9.00002857,10.2697876 L9.00002857,13.5688112 C9.00002857,14.3148165 9.60453289,14.9193209 10.3505382,14.9193209 L10.3505382,14.9193209 L12.9430567,14.9193209 L13.1650583,15.0393217 L15.4005743,16.2473303 L15.4005743,15.633326 C15.4005743,15.2393231 15.7200766,14.9193209 16.1145794,14.9193209 L16.1145794,14.9193209 L16.6495832,14.9193209 C17.3955885,14.9193209 18.0000929,14.3148165 18.0000929,13.5688112 L18.0000929,13.5688112 L18.0000929,10.2697876 C18.0000929,9.52528232 17.3940885,8.91927799 16.6495832,8.91927799 L16.6495832,8.91927799 Z M11.159744,11.2499446 C11.573747,11.2499446 11.9097494,11.585947 11.9097494,11.99995 C11.9097494,12.414453 11.573747,12.7499554 11.159744,12.7499554 C10.745741,12.7499554 10.4097386,12.414453 10.4097386,11.99995 C10.4097386,11.585947 10.745741,11.2499446 11.159744,11.2499446 Z M13.4927607,11.2499446 C13.9072636,11.2499446 14.242766,11.585947 14.242766,11.99995 C14.242766,12.414453 13.9072636,12.7499554 13.4927607,12.7499554 C13.0787577,12.7499554 12.7427553,12.414453 12.7427553,11.99995 C12.7427553,11.585947 13.0787577,11.2499446 13.4927607,11.2499446 Z M15.8262773,11.2499446 C16.2402803,11.2499446 16.5762827,11.585947 16.5762827,11.99995 C16.5762827,12.414453 16.2402803,12.7499554 15.8262773,12.7499554 C15.4122744,12.7499554 15.076272,12.414453 15.076272,11.99995 C15.076272,11.585947 15.4122744,11.2499446 15.8262773,11.2499446 Z M11.3725455,7.41926728 L6.62751163,7.41926728 C6.28200916,7.41926728 6.00000714,7.7017693 6.00000714,8.04677176 L6.00000714,8.04677176 L6.00000714,10.7917914 C6.00000714,11.1372938 6.28200916,11.4192959 6.62751163,11.4192959 L6.62751163,11.4192959 L7.44051743,11.4192959 C7.74951964,11.4192959 8.00002143,11.6697976 8.00002143,11.9787998 L8.00002143,11.9787998 L8.00002143,10.2697876 C8.00002143,8.97677841 9.05752898,7.91926728 10.3505382,7.91926728 L10.3505382,7.91926728 L11.9735498,7.91926728 C11.9110494,7.64026886 11.6675476,7.41926728 11.3725455,7.41926728 L11.3725455,7.41926728 Z" id="形状结合" fill="#6C6C6C" mask="url(#mask-2)"></path>
                <rect id="矩形" fill="#FF7000" mask="url(#mask-2)" transform="translate(12.146447, 12.353553) rotate(45.000000) translate(-12.146447, -12.353553) " x="11.6464466" y="-3.14644661" width="1" height="31"></rect>
            </g>
        </g>
    </g>
</svg>