<?xml version="1.0" encoding="UTF-8"?>
<svg width="48px" height="48px" viewBox="0 0 48 48" version="1.1" xmlns="http://www.w3.org/2000/svg" xmlns:xlink="http://www.w3.org/1999/xlink">
    <title>形状结合@3x</title>
    <g id="页面-1" stroke="none" stroke-width="1" fill="none" fill-rule="evenodd">
        <g id="联赛筛选" transform="translate(-1599.000000, -283.000000)" fill="#808080">
            <g id="编组-3" transform="translate(1355.000000, 173.000000)">
                <path d="M285.473058,136.492739 L285.542741,136.500859 C285.615673,136.518156 285.682088,136.563003 285.722301,136.634601 L285.74724,136.693303 L285.9467,137.36818 C286.031933,137.665955 286.112572,137.960723 286.188461,138.252024 L286.298713,138.686319 L286.323904,138.828659 C286.334402,138.924087 286.332347,139.020249 286.31796,139.115133 L286.287159,139.256249 L286.056872,140.033202 C285.422779,142.096837 284.62928,144.09323 283.688886,145.99008 L283.329378,146.69667 L283.293827,146.766279 L283.0213,147.275639 C280.816387,151.319419 277.93446,154.781737 274.753119,157.228911 L274.336494,157.542315 L274.181579,157.646885 C273.864829,157.842897 273.508304,157.959803 273.143312,157.991362 L272.960255,158 L272.923372,158 L272.715368,157.98911 C272.576819,157.97565 272.438798,157.949737 272.303026,157.911044 L272.101272,157.843378 L271.587748,157.636028 C270.213944,157.059314 268.80658,156.293289 267.406611,155.360452 L266.882049,155.002862 L266.83043,154.957467 C266.699476,154.811875 266.761358,154.57726 266.945261,154.507754 L267.019806,154.489925 L267.808566,154.392796 C269.386722,154.183431 270.967971,153.883489 272.539378,153.494253 L273.324201,153.292201 L273.403106,153.26418 C273.453876,153.242672 273.500536,153.215888 273.540419,153.186114 L273.594827,153.139494 L274.132982,152.639526 C275.028379,151.791987 275.915256,150.87402 276.780499,149.898626 L277.296943,149.306603 L277.857624,148.641458 C279.339402,146.850801 280.713164,144.926103 281.954337,142.902114 L282.413514,142.138531 L282.856042,141.372526 C283.727151,139.834251 284.514027,138.259399 285.206876,136.666329 C285.257535,136.549732 285.365519,136.492739 285.473058,136.492739 Z M249.394164,143.42627 C250.654865,145.090379 252.063544,146.681399 253.601537,148.175835 C253.683303,148.251971 253.782844,148.306353 253.871719,148.328976 C255.514142,148.823641 257.277435,149.236515 259.112717,149.555415 C261.997176,150.058346 264.990953,150.314162 268.010947,150.315902 C270.11019,150.316772 272.200101,150.19539 274.247797,149.953061 C274.51709,149.921301 274.680621,150.23237 274.494427,150.424667 C273.996278,150.940215 273.499019,151.428789 273.005315,151.888214 C272.862225,152.021343 272.687584,152.115316 272.496057,152.163173 C270.091215,152.764602 267.655778,153.153181 265.23931,153.321299 L264.434591,153.369163 L264.355492,153.373514 C259.262028,153.614102 254.348537,152.830122 250.345578,151.156441 C249.607465,150.847547 249.080433,150.188864 248.963561,149.410974 C248.696934,147.633313 248.665828,145.655524 248.871131,143.564619 C248.89646,143.306193 249.235521,143.21744 249.394164,143.42627 Z M250.126322,122.507255 L250.189619,122.514466 C250.332619,122.547456 250.438164,122.688995 250.409656,122.842261 L250.388949,122.908382 L250.077871,123.624649 C249.468842,125.065328 248.938833,126.554217 248.492529,128.079569 L248.276375,128.84523 L248.258534,128.953045 C248.254628,129.000633 248.255959,129.047132 248.262021,129.089946 L248.274597,129.151078 L248.445308,129.858029 C248.74321,131.042119 249.107704,132.254241 249.533932,133.476953 L249.797037,134.211712 L250.102356,135.020605 C250.93821,137.174855 251.946668,139.305159 253.1093,141.37365 L253.552478,142.146362 L254.006344,142.906144 C254.77322,144.16514 255.591822,145.386971 256.455509,146.562284 L256.979079,147.261814 L257.012183,147.316242 C257.098136,147.499833 256.958886,147.714515 256.754378,147.714041 L256.684012,147.705577 L255.987589,147.534807 C255.681681,147.457098 255.380718,147.377011 255.085207,147.294699 L254.646093,147.169581 L254.507905,147.119563 C254.418446,147.080598 254.334598,147.030593 254.258026,146.970745 L254.148834,146.87374 L253.578697,146.288197 C252.075635,144.713919 250.711959,143.038149 249.510648,141.288732 L249.067812,140.629303 L249.024263,140.564044 L248.699506,140.058159 C246.246571,136.167266 244.644439,131.998002 244.083773,128.084278 L244.016565,127.575286 L244.002476,127.407516 C243.971358,126.742051 244.234582,126.092977 244.731585,125.640596 L244.872882,125.522231 L245.273424,125.221607 C246.63259,124.228085 248.230038,123.321216 250.006339,122.533359 C250.046778,122.515522 250.087661,122.507255 250.126322,122.507255 Z M279.157218,120.264482 L279.221545,120.27265 C279.926773,120.435798 280.608005,120.611997 281.261241,120.799074 C281.450991,120.853456 281.621632,120.954826 281.759834,121.09274 C283.497975,122.82733 285.063342,124.695127 286.424187,126.657438 L286.870184,127.314989 L286.914177,127.379813 C289.679099,131.569454 291.451279,136.119761 291.982311,140.346383 C292.080519,141.129058 291.765899,141.912604 291.135326,142.403353 C289.697763,143.521026 287.965576,144.53994 286.0152,145.414848 C285.773458,145.523178 285.526384,145.280414 285.631257,145.041565 C286.469355,143.138607 287.167917,141.147331 287.71628,139.095146 C287.742943,138.987686 287.741165,138.87631 287.71628,138.789298 C287.329227,137.149987 286.809304,135.449767 286.170732,133.735625 C285.167771,131.040419 283.891516,128.376538 282.378408,125.817942 C281.325676,124.039846 280.169848,122.330925 278.928255,120.717717 C278.79272,120.541517 278.903444,120.307309 279.096872,120.269634 L279.157218,120.264482 Z M266.701187,127.578766 L266.870026,127.586789 C267.038726,127.602869 267.206402,127.643225 267.367584,127.708797 L267.526397,127.78281 L272.398561,130.353153 L272.527413,130.428255 C273.026254,130.748194 273.323376,131.297108 273.313558,131.880748 L273.304648,132.027269 L272.779393,137.047008 L272.757509,137.193408 C272.644859,137.771291 272.234947,138.251753 271.67469,138.463012 L271.531579,138.510119 L265.720444,140.157697 L265.570037,140.193363 C264.916405,140.31868 264.245839,140.066698 263.845878,139.545319 L263.758514,139.420268 L260.824284,134.800786 L260.74792,134.6676 C260.445743,134.080638 260.51633,133.37388 260.928437,132.854889 L261.029587,132.738595 L265.427599,128.120853 C265.765771,127.765843 266.230146,127.578766 266.701187,127.578766 Z M276.926775,123.691493 L276.972991,123.693233 L278.769168,123.832017 L278.902159,123.849974 C279.164438,123.900693 279.402127,124.038899 279.572669,124.240367 L279.652147,124.34626 L279.808022,124.583 C280.109112,125.044617 280.353524,125.445971 280.672112,125.983452 L280.838193,126.264446 L281.124141,126.753594 C281.675585,127.70542 282.111702,128.513472 282.565411,129.448657 L282.794346,129.928098 L282.846625,130.061471 C282.918703,130.287729 282.915639,130.531427 282.839214,130.756574 L282.78457,130.889148 L281.906923,132.684212 L281.860595,132.762779 C281.690202,133.005136 281.354568,133.078338 281.095233,132.931817 L281.011945,132.874769 L277.100972,129.674022 L277.003481,129.584209 C276.850714,129.426236 276.747374,129.228435 276.705929,129.014748 L276.688589,128.884821 L276.349084,124.300579 C276.324199,123.969062 276.593492,123.691493 276.926775,123.691493 Z M263.925867,110.157559 C265.630502,110.821463 267.395572,111.785124 269.141535,113.005036 C269.357503,113.156437 269.266405,113.487954 269.002444,113.517538 C266.899646,113.753341 264.787961,114.151423 262.697161,114.706996 C262.588733,114.73832 262.490525,114.795313 262.42609,114.859267 C261.166722,116.004349 259.919352,117.292131 258.718642,118.687808 C256.830479,120.881387 255.106291,123.290758 253.593183,125.849789 C252.54134,127.62832 251.603257,129.460798 250.792711,131.31764 C250.68606,131.56171 250.329225,131.544743 250.251903,131.290667 C250.045711,130.610666 249.862183,129.944152 249.703096,129.296345 C249.65688,129.108399 249.661769,128.913056 249.715094,128.72685 C250.386594,126.387699 251.261824,124.128542 252.322318,121.99632 L252.682652,121.290345 L252.718647,121.220735 C255.055188,116.783544 258.206718,113.010692 261.6902,110.456011 C262.333215,109.984404 263.179311,109.867373 263.925867,110.157559 Z M273.476178,114.581742 L274.079672,114.586574 C278.083785,114.650782 281.899673,115.35377 285.154876,116.627733 L285.664141,116.83362 L285.819277,116.904988 C286.426263,117.211206 286.867094,117.762334 287.016679,118.41344 L287.047935,118.578216 L287.115065,119.067831 C287.296692,120.532911 287.324736,122.123974 287.198495,123.794187 L287.143921,124.424136 L287.129706,124.490421 C287.066684,124.673758 286.827656,124.738447 286.674309,124.617225 L286.621332,124.562921 L286.141317,123.942554 C285.167524,122.70893 284.111619,121.5185 282.98185,120.380808 L282.410848,119.816401 L282.323898,119.747887 C282.283607,119.720988 282.241737,119.699045 282.200745,119.682936 L282.140221,119.663259 L281.428879,119.456837 C280.231455,119.121225 278.975957,118.82804 277.680361,118.581882 L276.898335,118.439866 L276.029681,118.29706 C273.704999,117.936046 271.315929,117.733603 268.904789,117.693073 L267.99966,117.68547 L267.100792,117.693137 C265.603872,117.718379 264.113754,117.805898 262.642907,117.955221 L261.762811,118.052227 L261.698028,118.053391 C261.492358,118.0354 261.371679,117.809981 261.473727,117.636575 L261.516181,117.581055 L262.013687,117.07416 C262.234494,116.852956 262.454862,116.637251 262.674674,116.427276 L263.00396,116.116638 L263.117033,116.024235 C263.196091,115.967664 263.282175,115.921289 263.373342,115.885927 L263.513662,115.841245 L264.316087,115.648022 C266.458584,115.153872 268.621189,114.828819 270.769089,114.677985 L271.573795,114.629599 L271.653338,114.625248 C272.263914,114.596099 272.871824,114.581742 273.476178,114.581742 Z" id="形状结合"></path>
            </g>
        </g>
    </g>
</svg>