<?xml version="1.0" encoding="UTF-8"?>
<svg width="20px" height="14px" viewBox="0 0 20 14" version="1.1" xmlns="http://www.w3.org/2000/svg" xmlns:xlink="http://www.w3.org/1999/xlink">
    <title>视频-选中</title>
    <defs>
        <linearGradient x1="100%" y1="50%" x2="0%" y2="50%" id="linearGradient-1">
            <stop stop-color="#FFB001" offset="0%"></stop>
            <stop stop-color="#FF7000" offset="100%"></stop>
        </linearGradient>
    </defs>
    <g id="页面-1" stroke="none" stroke-width="1" fill="none" fill-rule="evenodd">
        <g id="组件_1" transform="translate(-1604.000000, -240.000000)" fill="url(#linearGradient-1)">
            <path d="M1622,240 C1623.10457,240 1624,240.895431 1624,242 L1624,252 C1624,253.104569 1623.10457,254 1622,254 L1606,254 C1604.89543,254 1604,253.104569 1604,252 L1604,242 C1604,240.895431 1604.89543,240 1606,240 L1622,240 Z M1620.5,251 L1607.5,251 C1607.22386,251 1607,251.223858 1607,251.5 C1607,251.776142 1607.22386,252 1607.5,252 L1607.5,252 L1620.5,252 C1620.77614,252 1621,251.776142 1621,251.5 C1621,251.223858 1620.77614,251 1620.5,251 L1620.5,251 Z M1608.17829,243 L1607,243 L1607,250 L1610.35707,250 L1610.35707,248.75 L1608.17829,248.75 L1608.17829,243 Z M1612.23606,243 L1611.06125,243 L1611.06125,250 L1612.23606,250 L1612.23606,243 Z M1613.94422,243 L1612.71365,243 L1614.35209,250 L1615.6245,250 L1617.26992,243 L1616.03586,243 L1615.02839,248.120192 L1614.99353,248.355769 L1614.97261,248.355769 L1614.93775,248.100962 L1613.94422,243 Z M1621,243 L1617.6743,243 L1617.6743,250 L1620.99651,250 L1620.99651,248.75 L1618.85259,248.75 L1618.85259,247.004808 L1620.64094,247.004808 L1620.64094,245.754808 L1618.85259,245.754808 L1618.85259,244.25 L1621,244.25 L1621,243 Z" id="视频-选中"></path>
        </g>
    </g>
</svg>