<?xml version="1.0" encoding="UTF-8"?>
<svg width="10px" height="10px" viewBox="0 0 10 10" version="1.1" xmlns="http://www.w3.org/2000/svg" xmlns:xlink="http://www.w3.org/1999/xlink">
    <title>编组 9</title>
    <g id="页面-1" stroke="none" stroke-width="1" fill="none" fill-rule="evenodd">
        <g id="浮窗和其他入口" transform="translate(-70.000000, -667.000000)">
            <g id="编组-9" transform="translate(70.000000, 667.000000)">
                <rect id="矩形" fill="#333333" x="0" y="0" width="10" height="10" rx="5"></rect>
                <path d="M5,2.5 C5.34517797,2.5 5.625,2.77982203 5.625,3.125 L5.625,4.375 L6.875,4.375 C7.22017797,4.375 7.5,4.65482203 7.5,5 C7.5,5.34517797 7.22017797,5.625 6.875,5.625 L5.625,5.625 L5.625,6.875 C5.625,7.22017797 5.34517797,7.5 5,7.5 C4.65482203,7.5 4.375,7.22017797 4.375,6.875 L4.375,5.625 L3.125,5.625 C2.77982203,5.625 2.5,5.34517797 2.5,5 C2.5,4.65482203 2.77982203,4.375 3.125,4.375 L4.375,4.375 L4.375,3.125 C4.375,2.77982203 4.65482203,2.5 5,2.5 Z" id="形状结合" fill="#FFFFFF" transform="translate(5.000000, 5.000000) rotate(-315.000000) translate(-5.000000, -5.000000) "></path>
            </g>
        </g>
    </g>
</svg>