<?xml version="1.0" encoding="UTF-8"?>
<svg width="27px" height="12px" viewBox="0 0 27 12" version="1.1" xmlns="http://www.w3.org/2000/svg" xmlns:xlink="http://www.w3.org/1999/xlink">
    <title>进行中</title>
    <g id="页面-1" stroke="none" stroke-width="1" fill="none" fill-rule="evenodd">
        <g id="简版虚拟足球2备份" transform="translate(-125.000000, -439.000000)">
            <g id="进行中" transform="translate(125.000000, 439.000000)">
                <path d="M21,0 C24.3137085,-6.08718376e-16 27,2.6862915 27,6 C27,9.3137085 24.3137085,12 21,12 L6,12 C2.6862915,12 4.05812251e-16,9.3137085 0,6 C-4.05812251e-16,2.6862915 2.6862915,6.08718376e-16 6,0 L21,0 Z M21,1 C18.2385763,1 16,3.23857625 16,6 C16,8.76142375 18.2385763,11 21,11 C23.7614237,11 26,8.76142375 26,6 C26,3.23857625 23.7614237,1 21,1 Z" id="形状结合" fill="#5A6074"></path>
                <path d="M23.1645,9.204 C23.007,9.312 22.836,9.4065 22.665,9.492 L22.935,10.059 C23.1375,9.96 23.331,9.852 23.52,9.726 L23.1645,9.204 Z M24.006,8.43 C23.8845,8.5785 23.754,8.7225 23.61,8.853 L24.0375,9.3165 C24.204,9.1635 24.357,9.0015 24.4965,8.826 L24.006,8.43 Z M24.933,3.8175 L24.384,4.1235 C24.4785,4.29 24.5595,4.4655 24.627,4.65 L25.2165,4.4295 C25.1375419,4.21865378 25.0427724,4.01407197 24.933,3.8175 L24.933,3.8175 Z M22.3185,10.302 L22.134,9.699 C21.9495,9.753 21.765,9.798 21.5715,9.825 L21.666,10.4505 C21.8865,10.419 22.107,10.3695 22.3185,10.302 Z M21.0045,9.87 C21,9.87 21,9.87 21.0045,9.87 C18.867,9.87 17.13,8.133 17.13,6 C17.13,3.867 18.867,2.13 21,2.13 C22.251,2.13 23.3625,2.724 24.069,3.6465 L24.5685,3.264 C23.745,2.193 22.4535,1.5 21,1.5 C18.5205,1.5 16.5,3.5205 16.5,6 C16.5,8.4795 18.5205,10.5 21,10.5 L21.0045,10.5 L21.0045,9.87 Z M24.7845,5.1945 C24.825,5.379 24.852,5.5725 24.861,5.766 L25.491,5.73 C25.4775,5.505 25.446,5.28 25.401,5.064 L24.7845,5.1945 Z M24.8565,6.333 C24.8385,6.5265 24.807,6.72 24.762,6.9045 L25.374,7.053 C25.428,6.837 25.464,6.6165 25.482,6.387 L24.8565,6.333 L24.8565,6.333 Z M24.5865,7.4445 C24.5145,7.6245 24.429,7.7955 24.33,7.962 L24.8745,8.2815 C24.987,8.088 25.086,7.89 25.1715,7.6785 L24.5865,7.4445 Z" id="形状" fill="#5A6074" fill-rule="nonzero"></path>
                <path d="M24,8 L21.3938585,5.6652452 L20.7263017,3 L20.0640854,5.73987207 C20.0534045,5.7771855 20.0427236,5.82515991 20.0320427,5.87313433 C20.0106809,5.93710021 20,6.00639659 20,6.08102345 C20,6.20362473 20.0320427,6.31556503 20.0801068,6.41684435 C20.0961282,6.45415778 20.1121495,6.48081023 20.1335113,6.50746269 L20.1388518,6.51279318 C20.2242991,6.63006397 20.3417891,6.7206823 20.4806409,6.76865672 L20.4859813,6.77398721 L24,8 L24,8 Z" id="路径" fill="#FF2A2A" fill-rule="nonzero"></path>
            </g>
        </g>
    </g>
</svg>