<?xml version="1.0" encoding="UTF-8"?>
<svg width="20px" height="20px" viewBox="0 0 20 20" version="1.1" xmlns="http://www.w3.org/2000/svg" xmlns:xlink="http://www.w3.org/1999/xlink">
    <title>2备份 4</title>
    <g id="页面-1" stroke="none" stroke-width="1" fill="none" fill-rule="evenodd">
        <g id="赛狗-赛马" transform="translate(0.000000, -450.000000)">
            <g id="2备份-4" transform="translate(0.000000, 450.000000)">
                <rect id="矩形备份-22" stroke-opacity="0.25" stroke="#000000" fill="#E8E8E8" x="0.5" y="0.5" width="19" height="19" rx="2"></rect>
                <path d="M12.63125,15 L12.63125,13.8625 L9.00625,13.8625 L11.79375,10.45 C12.34375,9.775 12.63125,9.3125 12.63125,8.525 C12.63125,6.9875 11.58125,6.025 10.05625,6.025 C8.54375,6.025 7.46875,7.025 7.46875,8.5375 L8.74375,8.5375 C8.74375,7.5375 9.38125,7.1625 10.05625,7.1625 C10.88125,7.1625 11.35625,7.7125 11.35625,8.5125 C11.35625,8.9625 11.21875,9.2875 10.88125,9.7 L7.45625,13.8625 L7.45625,15 L12.63125,15 Z" id="2" fill="#000000" fill-rule="nonzero"></path>
            </g>
        </g>
    </g>
</svg>