<?xml version="1.0" encoding="UTF-8"?>
<svg width="18px" height="18px" viewBox="0 0 18 18" version="1.1" xmlns="http://www.w3.org/2000/svg" xmlns:xlink="http://www.w3.org/1999/xlink">
    <title>收藏</title>
    <g id="收藏" stroke="none" stroke-width="1" fill="none" fill-rule="evenodd">
        <rect id="矩形" x="0" y="0" width="18" height="18"></rect>
        <path d="M9.00847462,0.5 L11.7083793,5.56939062 L17.3119818,6.35681465 C17.3611782,6.36050716 17.4043195,6.37291988 17.4365671,6.39834241 C17.4632859,6.41940621 17.4807049,6.4484957 17.4903814,6.47984561 C17.5033962,6.52201087 17.5030437,6.56843196 17.4907449,6.61323089 C17.4770494,6.66311719 17.4482665,6.71053335 17.4122928,6.74559747 L17.4122928,6.74559747 L13.3568648,10.5558313 L14.3068892,15.9641065 C14.316847,15.9990224 14.3136972,16.0331508 14.3012509,16.0631845 C14.2845963,16.103373 14.2541961,16.136775 14.217987,16.1616171 C14.1798085,16.1878104 14.1341332,16.2046645 14.0853435,16.206922 C14.0381004,16.209108 13.9888857,16.1968939 13.9335333,16.1670799 L13.9335333,16.1670799 L9.01003371,13.6105325 L4.00115367,16.1762669 C3.96297761,16.2022472 3.92221174,16.2154561 3.88220862,16.2141976 C3.84082188,16.2128956 3.80156147,16.197633 3.76780655,16.1744746 C3.728856,16.1477517 3.69678493,16.1100406 3.67636906,16.0649464 C3.65767002,16.0236442 3.6493174,15.9763974 3.65247283,15.9258341 L3.65247283,15.9258341 L4.59577427,10.5558313 L0.561671126,6.76563304 C0.532428221,6.72807182 0.513952766,6.68519305 0.505482101,6.64126199 C0.495583709,6.58992637 0.498804673,6.53689332 0.516021643,6.48908243 C0.528581604,6.45420388 0.548903499,6.42174066 0.579447515,6.39843349 C0.612371867,6.37330997 0.65548536,6.36050229 0.704923517,6.35682081 L0.704923517,6.35682081 L6.31371773,5.56866724 L8.81693153,0.636978335 C8.8363961,0.591438839 8.8644973,0.555132909 8.90010614,0.531771458 C8.93283115,0.510301964 8.97073581,0.5 9.00847462,0.5 L9.00847462,0.5 Z" id="路径" stroke="#727D89" fill="#727D89"></path>
    </g>
</svg>