<?xml version="1.0" encoding="UTF-8"?>
<svg width="20px" height="20px" viewBox="0 0 20 20" version="1.1" xmlns="http://www.w3.org/2000/svg" xmlns:xlink="http://www.w3.org/1999/xlink">
    <title>无联赛logo</title>
    <g id="页面-1" stroke="none" stroke-width="1" fill="none" fill-rule="evenodd">
        <g id="已结算" transform="translate(-21.000000, -1037.000000)">
            <g id="编组备份-2" transform="translate(15.000000, 1027.000000)">
                <g id="无联赛logo" transform="translate(6.000000, 10.000000)">
                    <rect id="矩形" fill-opacity="0.2" fill="#FFFFFF" x="0" y="0" width="20" height="20" rx="10"></rect>
                    <path d="M10.0294567,7.1498287 C9.83651759,7.1498287 9.66793602,7.24442188 9.59156948,7.38639422 L9.59156948,7.38639422 L8.30704767,9.78118464 L5.40438252,10.1546071 C5.22455136,10.1775481 5.07795356,10.2860415 5.02313016,10.4281611 C4.97092535,10.5640532 5.0081259,10.7144319 5.12424466,10.821924 L5.12424466,10.821924 L7.23704143,12.7867109 L6.71895361,15.4911416 C6.69093708,15.6361536 6.75908314,15.784548 6.8998313,15.8753094 C6.98496941,15.9287004 7.08396101,15.9574486 7.1830694,15.9581927 L7.1830694,15.9581927 L7.25079197,15.9548262 C7.31209363,15.9480997 7.37159526,15.9314096 7.42571347,15.905805 L7.42571347,15.905805 L9.96469259,14.676733 L12.480699,15.9428766 C12.5554428,15.9797163 12.637925,15.9992694 12.7191024,16 L12.7191024,16 L12.8004536,15.994981 C12.8741514,15.9850182 12.9446398,15.9604499 13.0054413,15.9233074 C13.1509314,15.8326593 13.2219866,15.684772 13.1966356,15.5392664 L13.1966356,15.5392664 L12.7248413,12.8282751 L14.8712545,10.8952785 C14.9891172,10.7893918 15.0288415,10.6397795 14.9788511,10.5034224 C14.9263864,10.3601582 14.7816794,10.2494803 14.6022445,10.2239773 L14.6022445,10.2239773 L11.7061641,9.80686518 L10.4628347,7.39227121 C10.3891219,7.24869083 10.2202818,7.1513254 10.0294567,7.1498287 Z M13.8265137,4 C14.0149322,4 14.1676755,4.13861253 14.1676755,4.30959974 L14.1676755,8.25699645 C14.1676755,8.42798367 14.0149322,8.5665962 13.8265137,8.5665962 L12.6218713,8.5665962 C12.4334528,8.5665962 12.2807095,8.42798367 12.2807095,8.25699645 L12.2807095,4.30959974 C12.2807095,4.13861253 12.4334528,4 12.6218713,4 L13.8265137,4 Z M7.37650816,4 C7.5647934,4.00017087 7.71732883,4.13873336 7.71732883,4.30959974 L7.71732883,8.25699645 C7.71732883,8.42786284 7.5647934,8.56642533 7.37650816,8.5665962 L6.17152458,8.5665962 C5.9831061,8.5665962 5.83036276,8.42798367 5.83036276,8.25699645 L5.83036276,4.30959974 C5.83036276,4.13861253 5.9831061,4 6.17152458,4 L7.37650816,4 Z M10.7772093,4 C10.9656278,4 11.1183711,4.12437856 11.1183711,4.27780729 L11.1183711,6.00549082 C11.1183711,6.15891955 10.9656278,6.2832981 10.7772093,6.2832981 L9.22082902,6.2832981 C9.03241055,6.2832981 8.87966719,6.15891955 8.87966719,6.00549082 L8.87966719,4.27780729 C8.87966719,4.12437856 9.03241054,4 9.22082902,4 L10.7772093,4 Z" id="形状结合" fill="#8C8C8C" fill-rule="nonzero"></path>
                </g>
            </g>
        </g>
    </g>
</svg>