<?xml version="1.0" encoding="UTF-8"?>
<svg width="16px" height="16px" viewBox="0 0 16 16" version="1.1" xmlns="http://www.w3.org/2000/svg" xmlns:xlink="http://www.w3.org/1999/xlink">
    <title>编组</title>
    <g id="页面-1" stroke="none" stroke-width="1" fill="none" fill-rule="evenodd">
        <g id="篮球标准版" transform="translate(-322.000000, -473.000000)">
            <g id="编组-3" transform="translate(7.000000, 374.000000)">
                <g id="编组" transform="translate(315.000000, 99.000000)">
                    <rect id="矩形" x="0" y="0" width="16" height="16"></rect>
                    <path d="M8.00002964,1 C10.0365991,1 11.6933395,2.37061078 11.6933395,4.05524111 L11.693,5.884 L11.8649718,5.88448435 C13.0421793,5.88448435 14,6.84082265 14,8.01630273 L14,12.8681816 C14,14.0436765 13.0422683,15 11.8650607,15 L4.13502825,15 C2.95773173,15 2,14.0436617 2,12.8681816 L2,8.01630273 C2,6.84080788 2.95773173,5.88448435 4.13493932,5.88448435 L4.306,5.884 L4.30689765,4.05524111 C4.30689765,2.37062555 5.96362325,1 8.00002964,1 Z M11.8650459,6.32558841 L4.13501343,6.32558841 C3.20139618,6.32558841 2.44181227,7.08410842 2.44181227,8.0163175 L2.44181227,12.8681964 C2.44181227,13.8005827 3.20139618,14.5590141 4.13501343,14.5590141 L11.8650459,14.5590141 C12.7988113,14.5590141 13.5583359,13.8004941 13.5583359,12.8681964 L13.5583359,8.0163175 C13.5583359,7.08401982 12.7988261,6.32558841 11.8650459,6.32558841 Z M8.00002964,7.93061002 C9.07084895,7.93061002 9.94197901,8.80057633 9.94197901,9.86982286 C9.94197901,10.8644148 9.18823382,11.6865825 8.22117132,11.7965412 L8.2208839,12.8929606 L8.2208839,12.8929606 C8.2208839,13.0145075 8.12206937,13.113077 8.00011857,13.1132542 C7.89839163,13.1131065 7.81282046,13.0446309 7.78712002,12.9514701 L7.77923467,12.8926948 L7.77923467,12.8926948 L7.77889871,11.7965412 C6.81187676,11.6865825 6.05808028,10.8644148 6.05808028,9.86982286 C6.05808028,8.80057633 6.92928445,7.93061002 8.00002964,7.93061002 Z M8.00002964,8.37168455 C7.17281551,8.37168455 6.49972951,9.04375874 6.49972951,9.86980809 C6.49972951,10.6958574 7.17272658,11.3679316 8.00002964,11.3679316 C8.82733271,11.3679316 9.50024085,10.6958574 9.50024085,9.86980809 C9.50024085,9.04368491 8.82724378,8.37168455 8.00002964,8.37168455 Z M8.00002964,1.44110406 C6.20722842,1.44110406 4.74854688,2.61389656 4.74854688,4.05532971 L4.748,5.884 L11.251,5.884 L11.2516606,4.05532971 C11.2516606,2.61391133 9.79297908,1.44110406 8.00002964,1.44110406 Z" id="形状结合备份" stroke="#999999" stroke-width="0.1" fill="#999999" fill-rule="nonzero"></path>
                </g>
            </g>
        </g>
    </g>
</svg>