<?xml version="1.0" encoding="UTF-8"?>
<svg width="180px" height="180px" viewBox="0 0 180 180" version="1.1" xmlns="http://www.w3.org/2000/svg" xmlns:xlink="http://www.w3.org/1999/xlink">
    <title>Default/img_default_nodata备份 4</title>
    <defs>
        <linearGradient x1="50%" y1="0%" x2="50%" y2="87.8255208%" id="linearGradient-1">
            <stop stop-color="#D8DADC" stop-opacity="0.994973776" offset="0%"></stop>
            <stop stop-color="#D8DADC" stop-opacity="0" offset="100%"></stop>
        </linearGradient>
        <linearGradient x1="50%" y1="0%" x2="50%" y2="87.8255208%" id="linearGradient-2">
            <stop stop-color="#D8DADC" stop-opacity="0.994973776" offset="0%"></stop>
            <stop stop-color="#D8DADC" stop-opacity="0" offset="100%"></stop>
        </linearGradient>
        <linearGradient x1="50%" y1="0%" x2="50%" y2="87.8255208%" id="linearGradient-3">
            <stop stop-color="#D8DADC" stop-opacity="0.994973776" offset="0%"></stop>
            <stop stop-color="#D8DADC" stop-opacity="0" offset="100%"></stop>
        </linearGradient>
        <linearGradient x1="50%" y1="0%" x2="50%" y2="87.8255208%" id="linearGradient-4">
            <stop stop-color="#D8DADC" stop-opacity="0.994973776" offset="0%"></stop>
            <stop stop-color="#D8DADC" stop-opacity="0" offset="100%"></stop>
        </linearGradient>
    </defs>
    <g id="页面-1" stroke="none" stroke-width="1" fill="none" fill-rule="evenodd">
        <g id="组件_1" transform="translate(-407.000000, -71.000000)">
            <g id="编组-7" transform="translate(407.000000, 71.000000)">
                <rect id="矩形" x="0" y="0" width="180" height="180"></rect>
                <path d="M10,82.8181818 C10,82.8181818 15.3736009,71.9090909 24.8073887,71.9090909 C31.0965806,71.9090909 35.3548903,73.6703645 37.5823176,77.1929115 C40.0659711,77.3707192 42.1485124,77.7114867 43.8299416,78.215214 C45.5113708,78.7189413 46.9619963,80.2532639 48.1818182,82.8181818 C22.7272727,82.8181818 10,82.8181818 10,82.8181818 Z" id="路径-5备份" fill="url(#linearGradient-1)" opacity="0.398875"></path>
                <path d="M108,47.6363636 C108,47.6363636 118.133076,28 135.922504,28 C147.782123,28 155.812079,31.1702924 160.01237,37.5108772 C164.695831,37.830931 168.622909,38.4443125 171.793604,39.3510216 C174.964299,40.2577308 177.699765,43.0195115 180,47.6363636 C132,47.6363636 108,47.6363636 108,47.6363636 Z" id="路径-5备份-2" fill="url(#linearGradient-2)" opacity="0.398875" transform="translate(144.000000, 37.818182) scale(-1, 1) translate(-144.000000, -37.818182) "></path>
                <path d="M88,133 C121.177196,133 150.600344,139.545455 176.269445,152.636364 L0.181818182,152.636364 C25.5500765,139.545455 54.8228037,133 88,133 Z" id="路径-2" fill="url(#linearGradient-3)" opacity="0.398875"></path>
                <g id="编组-2" transform="translate(32.000000, 24.000000)" fill="#BEC0C2" opacity="0.7">
                    <polygon id="路径-4备份" points="56.5189056 0 71.5683937 0 63.0759794 28.7490872 73.0909091 28.7490872 52.9255826 72 59.3274551 39.0673327 48 39.0673327"></polygon>
                    <path d="M57.7596808,80.1920387 C61.6662572,80.1920387 64.8479428,83.3560922 64.9736475,87.3076678 L64.9775056,87.5505648 L64.9736475,87.7934606 C64.8479428,91.7450176 61.6662572,94.9090909 57.7596808,94.9090909 C53.8531243,94.9090909 50.6714197,91.7450374 50.5457141,87.7934618 L50.5418561,87.5505648 L50.5457141,87.3076678 C50.6714189,83.3560922 53.8531045,80.1920387 57.7596808,80.1920387 Z M79.2968054,64.9999329 C81.7415518,66.7802195 81.9743947,70.3407926 79.8788874,72.4771489 C78.13252,74.2574375 75.5713451,74.4948091 73.5922643,72.951892 C69.0520289,69.5099902 63.5804501,67.7297015 57.8760304,67.7297015 C57.6620444,67.7297015 57.448386,67.7322067 57.2350921,67.7372109 L62.2515542,58.1414612 C68.5742663,58.9079957 74.3611631,61.3228024 79.2968054,64.9999329 Z M53.7421236,58.1130186 L52.1698663,68.341542 C48.5612135,69.1312081 45.1575081,70.6793827 42.1597965,72.951892 C40.1807097,74.3761233 37.5031265,74.1387518 35.8732949,72.4771489 C33.7777876,70.3407926 34.0106285,66.7802215 36.4553769,64.9999329 C41.4538338,61.2760418 47.3252917,58.8467836 53.7421236,58.1130186 Z M46.1871773,34.3709247 L44.316125,42.9897765 L56.067069,42.9897765 L56.0525184,43.083996 C44.9590544,43.5228136 34.6486111,47.5121644 26.0944693,54.5559646 C24.1153824,56.2175675 20.8557314,56.3362533 18.7602241,54.9120219 C16.1990512,53.2504253 16.082651,50.2832748 18.2945585,48.2656146 C26.1471585,41.391195 35.6894029,36.4945641 46.1871773,34.3709247 Z M93.3832158,44.8237107 C95.5319338,46.4378533 96.032762,49.3959915 94.5655416,51.7397222 L94.4309654,51.9448776 C92.9175786,54.0812277 90.0071707,54.5559708 88.2609227,52.8943679 C82.4643599,48.5758545 76.098527,45.7566161 69.4965403,44.2822875 L74.1158432,35.4477329 C81.1620903,37.4332912 87.7547268,40.6566829 93.3832158,44.8237107 Z M113.989175,30.1062996 C116.084672,32.005276 116.201089,35.3284756 114.222008,37.3461358 C112.359342,39.2451102 109.44893,39.3637959 107.586265,37.5835073 C101.532685,32.1239577 94.664122,27.613886 87.0970359,24.4093619 C81.7377352,22.0578936 76.141282,20.391551 70.3998017,19.4103344 L73.5949077,9.97351255 C88.8947223,12.8748432 102.720168,19.9535103 113.989175,30.1062996 Z M51.7561833,8.72730681 L49.5653854,18.8182594 C42.380965,19.6250349 35.396374,21.4887305 28.655713,24.4093619 C21.0885864,27.613886 14.2200028,32.1239577 8.04992158,37.5835073 C6.18725518,39.2451102 3.27684321,39.2451102 1.41417883,37.3461358 C-0.564717798,35.3284281 -0.44831759,32.123902 1.64718971,30.2249276 C15.2300914,17.9876466 32.6220598,10.11926 51.7561833,8.72730681 Z" id="形状结合"></path>
                </g>
                <path d="M40.3371094,134.090909 C40.0358632,134.090909 39.7916549,133.846701 39.7916549,133.545455 C39.7916549,133.460775 39.8113704,133.377259 39.8492401,133.30152 L44.4212215,124.157557 C44.5559429,123.888114 44.8835828,123.778901 45.1530256,123.913622 C45.258586,123.966402 45.3441801,124.051997 45.3969603,124.157557 L49.9689417,133.30152 C50.1036632,133.570963 49.9944499,133.898603 49.7250071,134.033324 C49.6492677,134.071194 49.5657515,134.090909 49.4810724,134.090909 L46,134.090909 L46,139.545455 L43.8181818,139.545455 L43.8181818,134.090909 L40.3371094,134.090909 Z" id="形状结合" fill="#D8DADC"></path>
                <path d="M130.882564,136.272727 C130.581318,136.272727 130.337109,136.028519 130.337109,135.727273 C130.337109,135.642594 130.356825,135.559077 130.394695,135.483338 L133.875767,128.521193 C134.010488,128.25175 134.338128,128.142537 134.607571,128.277259 C134.713131,128.330039 134.798726,128.415633 134.851506,128.521193 L138.332578,135.483338 C138.4673,135.752781 138.358086,136.080421 138.088643,136.215142 C138.012904,136.253012 137.929388,136.272727 137.844709,136.272727 L135.454545,136.272727 L135.454545,139.545455 L133.272727,139.545455 L133.272727,136.272727 L130.882564,136.272727 Z" id="形状结合" fill="#D8DADC"></path>
                <path d="M130,107.909091 C130,107.909091 134.605944,95.9090909 142.692047,95.9090909 C148.082783,95.9090909 151.732763,97.8464918 153.641987,101.721294 C155.770832,101.916882 157.555868,102.291726 158.997093,102.845826 C160.438318,103.399926 161.681711,105.087681 162.727273,107.909091 C140.909091,107.909091 130,107.909091 130,107.909091 Z" id="路径-5" fill="url(#linearGradient-4)" opacity="0.398875"></path>
            </g>
        </g>
    </g>
</svg>