<?xml version="1.0" encoding="UTF-8"?>
<svg width="9px" height="10px" viewBox="0 0 9 10" version="1.1" xmlns="http://www.w3.org/2000/svg" xmlns:xlink="http://www.w3.org/1999/xlink">
    <title>形状结合备份 4@2x</title>
    <g id="页面-1" stroke="none" stroke-width="1" fill="none" fill-rule="evenodd">
        <g id="足球标准版" transform="translate(-361.000000, -299.000000)" fill="#FF9124" fill-rule="nonzero">
            <g id="编组" transform="translate(360.000000, 299.000000)">
                <g id="形状结合备份-4" transform="translate(5.000000, 5.000000) scale(-1, 1) translate(-5.000000, -5.000000) ">
                    <g id="形状结合备份" transform="translate(0.833333, 0.833333)">
                        <path d="M1.85146873,2.17384431 C1.96859773,2.0682032 2.13678207,2.05504233 2.2666305,2.13433593 L2.31967211,2.17397931 L6.12990851,5.61441219 C6.27672078,5.74697556 6.29089126,5.97642776 6.16155916,6.12690803 C6.04659729,6.26066827 5.85694731,6.28700668 5.7131112,6.19810481 L5.66155554,6.15934945 L2.0847871,2.9301166 L-1.49503838,6.15948445 C-1.62560284,6.27724328 -1.81698012,6.27874944 -1.94867254,6.17189086 L-1.99502412,6.12675471 C-2.10991255,5.99292819 -2.111382,5.7967695 -2.00712813,5.66178684 L-1.96309217,5.61427719 L1.85146873,2.17384431 Z" id="路径-7" transform="translate(2.083333, 4.166667) rotate(-90.000000) translate(-2.083333, -4.166667) "></path>
                        <path d="M5.36233505,2.50598137 C5.45994255,2.41794711 5.60009617,2.40697972 5.70830319,2.47305772 L5.75250454,2.50609387 L8.92770154,5.37312127 C9.0500451,5.48359074 9.06185383,5.67480091 8.95407708,5.80020114 C8.85827552,5.911668 8.70023387,5.93361668 8.58037044,5.85953179 L8.53740739,5.82723565 L5.55676703,3.13620827 L2.57357912,5.82734815 C2.46477541,5.92548051 2.30529435,5.92673564 2.19555066,5.83768683 L2.15692434,5.80007337 C2.06118398,5.68855127 2.05995945,5.52508569 2.14683767,5.41260014 L2.1835343,5.37300877 L5.36233505,2.50598137 Z" id="路径-7备份" fill-opacity="0.403196" transform="translate(5.555556, 4.166667) rotate(-90.000000) translate(-5.555556, -4.166667) "></path>
                    </g>
                </g>
            </g>
        </g>
    </g>
</svg>