<?xml version="1.0" encoding="UTF-8"?>
<svg width="14px" height="14px" viewBox="0 0 14 14" version="1.1" xmlns="http://www.w3.org/2000/svg" xmlns:xlink="http://www.w3.org/1999/xlink">
    <title>形状结合复制 6@2x</title>
    <g id="页面-1" stroke="none" stroke-width="1" fill="none" fill-rule="evenodd">
        <g id="赛果" transform="translate(-181.000000, -1154.000000)" fill="#213B5B" fill-rule="nonzero">
            <g id="编组-4备份" transform="translate(0.000000, 216.000000)">
                <g id="编组-24" transform="translate(0.000000, 323.000000)">
                    <path d="M190.354545,615.405912 C193.122727,616.392837 195,619.035247 195,621.99602 C195,625.848209 191.85,629 188,629 C184.15,629 181,625.848209 181,621.99602 C181,619.035247 182.877273,616.392837 185.677273,615.405912 C187.172727,614.864696 188.859091,614.864696 190.354545,615.405912 Z M189.463636,616.456509 L188.35,617.252416 C188.127273,617.411598 187.809091,617.411598 187.586364,617.252416 L186.472727,616.456509 C186.377273,616.488346 186.218182,616.552018 186.090909,616.583854 C184.881818,617.029562 183.863636,617.857305 183.195455,618.876066 L183.609091,620.181353 C183.704545,620.436043 183.609091,620.72257 183.386364,620.881751 L182.272727,621.709494 L182.272727,621.99602 C182.272727,623.36498 182.75,624.606595 183.545455,625.593519 L184.913636,625.593519 C185.2,625.593519 185.422727,625.784537 185.518182,626.039227 L185.931818,627.344514 C186.568182,627.599204 187.268182,627.726549 188,627.726549 C188.731818,627.726549 189.4,627.599204 190.036364,627.344514 L190.45,626.039227 C190.545455,625.784537 190.768182,625.593519 191.054545,625.593519 L192.422727,625.593519 C193.218182,624.606595 193.695455,623.36498 193.695455,621.99602 L193.695455,621.709494 L192.581818,620.913587 C192.359091,620.754406 192.263636,620.467879 192.359091,620.213189 L192.804545,618.876066 C192.136364,617.857305 191.118182,617.029562 189.909091,616.583854 C189.781818,616.520182 189.622727,616.488346 189.463636,616.456509 Z M188.381818,619.003411 L190.736364,620.690733 C190.959091,620.849915 191.054545,621.136441 190.959091,621.391131 L190.068182,624.160887 C189.972727,624.415577 189.75,624.606595 189.463636,624.606595 L186.568182,624.606595 C186.281818,624.606595 186.059091,624.415577 185.963636,624.160887 L185.072727,621.391131 C184.977273,621.136441 185.072727,620.849915 185.295455,620.690733 L187.618182,619.003411 C187.840909,618.84423 188.159091,618.84423 188.381818,619.003411 Z M188,620.340534 L186.409091,621.48664 L187.013636,623.36498 L188.986364,623.36498 L189.590909,621.48664 L188,620.340534 Z" id="形状结合复制-6"></path>
                </g>
            </g>
        </g>
    </g>
</svg>