<?xml version="1.0" encoding="UTF-8"?>
<svg width="14px" height="14px" viewBox="0 0 14 14" version="1.1" xmlns="http://www.w3.org/2000/svg" xmlns:xlink="http://www.w3.org/1999/xlink">
    <title>口哨</title>
    <g id="页面-1" stroke="none" stroke-width="1" fill="none" fill-rule="evenodd">
        <g id="赛况备份" transform="translate(-118.000000, -339.000000)" fill-rule="nonzero">
            <g id="口哨" transform="translate(118.000000, 339.000000)">
                <rect id="矩形" fill="#000000" opacity="0" x="0" y="0" width="14" height="14"></rect>
                <path d="M5.16,3.2 L5.72,1.25 L3.92,1.25 L4.5,3.2 M4.76,5.03 L0.64,7.26 L0.64,7.9 C0.4,8.35 0.24,8.85 0.24,9.4 C0.24,11.24 1.87,12.75 3.88,12.75 C5.25,12.75 6.42,12.05 7.04,11 L9.88,12.17 L14,9.95 L14,8.82 L4.76,5.02 L4.76,5.03 Z M4.4,8.08 L2.85,7.34 L5.45,5.92 L7.03,6.62 L4.4,8.1 L4.4,8.08 Z M9.5,3.17 L8.24,1.9 L7.1,3.73 L7.6,4.26 M2.4,3.73 L1.24,1.9 L0,3.18 L1.9,4.24" id="形状" fill="#FFB001"></path>
            </g>
        </g>
    </g>
</svg>