<?xml version="1.0" encoding="UTF-8"?>
<svg width="16px" height="16px" viewBox="0 0 16 16" version="1.1" xmlns="http://www.w3.org/2000/svg" xmlns:xlink="http://www.w3.org/1999/xlink">
    <title>左选中</title>
    <g id="页面-1" stroke="none" stroke-width="1" fill="none" fill-rule="evenodd">
        <g id="右侧" transform="translate(-2040.000000, -1120.000000)">
            <g id="编组-5" transform="translate(1900.000000, 88.000000)">
                <g id="编组-57备份-3" transform="translate(0.000000, 776.000000)">
                    <g id="左选中" transform="translate(140.000000, 256.000000)">
                        <circle id="椭圆形备份" fill="#3B4359" transform="translate(8.000000, 8.000000) scale(-1, 1) translate(-8.000000, -8.000000) " cx="8" cy="8" r="8"></circle>
                        <path d="M8.25939153,9.59272486 C8.12921677,9.72289963 7.91816177,9.72289963 7.78798701,9.59272486 L5.43096441,7.23570226 C5.30078964,7.1055275 5.30078964,6.8944725 5.43096441,6.76429774 C5.56113917,6.63412298 5.77219416,6.63412298 5.90236893,6.76429774 L8.02368927,8.88561808 L10.1450096,6.76429774 C10.2751844,6.63412298 10.4862394,6.63412298 10.6164141,6.76429774 C10.7465889,6.8944725 10.7465889,7.1055275 10.6164141,7.23570226 L8.25939153,9.59272486 Z" id="路径" fill="#FFFFFF" transform="translate(8.023689, 8.178511) scale(-1, 1) rotate(-90.000000) translate(-8.023689, -8.178511) "></path>
                    </g>
                </g>
            </g>
        </g>
    </g>
</svg>