<?xml version="1.0" encoding="UTF-8"?>
<svg width="125px" height="36px" viewBox="0 0 125 36" version="1.1" xmlns="http://www.w3.org/2000/svg" xmlns:xlink="http://www.w3.org/1999/xlink">
    <title>网站logo</title>
    <g id="页面-1" stroke="none" stroke-width="1" fill="none" fill-rule="evenodd">
        <g id="画板" transform="translate(-121.000000, -62.000000)" fill-rule="nonzero">
            <g id="网站logo" transform="translate(121.000000, 62.000000)">
                <g id="编组-3" transform="translate(0.000227, 0.312662)" fill="#FFB001">
                    <path d="M3.44081625,24.1277274 C3.45870827,23.9419591 3.69821022,23.8781599 3.81027077,24.0282757 C4.70079114,25.2245112 5.69583857,26.3682062 6.78222947,27.4424726 C6.83998617,27.4972023 6.91029867,27.536295 6.97307769,27.5525575 C8.13323394,27.9081444 9.37876965,28.2049359 10.6751564,28.4341753 C12.7126494,28.7957043 14.8273606,28.9795961 16.9605916,28.9808471 C18.443432,28.9814726 19.9196806,28.8942178 21.3661092,28.7200209 C21.5563296,28.6971907 21.671843,28.9208008 21.540321,29.0590324 C21.1884446,29.4296309 20.837196,29.7808394 20.4884585,30.1110942 C20.3873843,30.2067931 20.2640236,30.2743452 20.1287348,30.3087467 C18.2412836,30.7891174 16.3271513,31.0805923 14.434364,31.1756656 L14.434364,31.1756656 L14.3784906,31.1787931 C10.7806251,31.351739 7.30988712,30.7881792 4.48232015,29.5850633 C3.96094041,29.363017 3.58866083,28.8895266 3.50610643,28.3303452 C3.31776937,27.0524842 3.29579672,25.6307622 3.44081625,24.1277274 Z M24.8194174,7.37878714 L24.8794114,7.38443321 C25.3775629,7.5017112 25.8587641,7.62837143 26.3201899,7.7628502 C26.4542231,7.80194286 26.5747588,7.87481159 26.6723801,7.97395058 C28.0365682,9.3593946 29.2500866,10.8630548 30.2821737,12.4467768 L30.2821737,12.4467768 L30.3132493,12.4933753 C32.2663045,15.5050741 33.5181181,18.7760355 33.8932228,21.8143174 C33.9625936,22.376939 33.7403559,22.9401861 33.2949387,23.2929583 C32.2794881,24.0963907 31.0559251,24.8288309 29.6782395,25.4577537 C29.5074806,25.5356263 29.3329549,25.3611166 29.4070342,25.1894216 C29.9990403,23.8214911 30.4924834,22.3900741 30.8798299,20.9148734 C30.8986636,20.8376263 30.897408,20.7575645 30.8798299,20.6950162 C30.6064273,19.516607 30.23917,18.2944139 29.7881028,17.0622131 C29.0796416,15.1247807 28.1781349,13.2098656 27.1093221,11.370634 C26.3657046,10.0924602 25.5492635,8.86401236 24.6722406,7.70436757 C24.557355,7.55237529 24.6929577,7.34033668 24.8794114,7.38443321 L24.8194174,7.37878714 Z M12.4958107,0.327800778 C12.9500169,-0.0112108054 13.5476731,-0.0953382186 14.0750169,0.113260237 C15.2791184,0.59050348 16.5259097,1.28322549 17.7592035,2.16015213 C17.9117565,2.26898611 17.847408,2.50729499 17.6609544,2.5285614 C16.1756028,2.69806719 14.6839733,2.98422549 13.2070969,3.38359614 C13.1305065,3.40611352 13.0611357,3.44708263 13.0156209,3.4930556 C12.1260423,4.31619074 11.2449387,5.24190502 10.3967942,6.24517916 C9.06305397,7.82202085 7.84514102,9.55398224 6.77632825,11.3935266 C6.03333857,12.6720131 5.37070604,13.9892795 4.79816139,15.3240595 C4.72282657,15.4995073 4.47076881,15.4873104 4.41615107,15.3046695 C4.27050375,14.8158548 4.14086508,14.3367351 4.02849063,13.8710633 C3.99584554,13.7359591 3.99929839,13.5955382 4.0369658,13.4616849 C4.56399566,11.5933683 5.26869013,9.79604402 6.13315721,8.11599769 L6.13315721,8.11599769 L6.15858271,8.06595908 C7.80904309,4.87631043 10.0351871,2.16421777 12.4958107,0.327800778 Z" id="形状结合"></path>
                    <path d="M29.2952875,19.0441487 L29.3445088,19.0499857 C29.408905,19.0655277 29.4661092,19.1120135 29.4889608,19.1883224 L29.4889608,19.1883224 L29.6298532,19.6734537 C29.720162,19.9945348 29.8031698,20.310751 29.8785046,20.6209904 L29.8785046,20.6209904 L29.8962985,20.7233105 C29.9074222,20.8262073 29.8985939,20.9302915 29.8703433,21.0306815 L29.8703433,21.0306815 L29.6889473,21.6509706 C29.1878036,23.2977317 28.5477987,24.8844189 27.7810576,26.3791834 L27.7810576,26.3791834 L27.755946,26.429222 L27.5168652,26.8819114 C25.8973475,29.8776375 23.7698221,32.4235645 21.4287627,34.1755116 L21.4287627,34.1755116 L21.2817886,34.2736371 C21.0297933,34.4231593 20.7446283,34.5021699 20.4566296,34.5045154 L20.4566296,34.5045154 L20.4305763,34.5045154 L20.2836489,34.4966871 C20.136849,34.482174 19.9908877,34.4475183 19.8498704,34.3919286 L19.8498704,34.3919286 L19.4466857,34.225524 C18.3677236,33.7606969 17.2599918,33.1281409 16.1631726,32.3500405 L16.1631726,32.3500405 L16.1200273,32.3094421 C16.025733,32.1909247 16.0947434,32.0005 16.26048,31.9813185 L16.26048,31.9813185 L16.8972652,31.9006377 C18.1713901,31.725094 19.4480847,31.4645359 20.7137097,31.1203417 L20.7137097,31.1203417 L20.7871262,31.0921602 C20.8335827,31.0699209 20.8743193,31.0414266 20.9048718,31.0105695 L20.9048718,31.0105695 L21.3482355,30.5900772 C22.0856492,29.875362 22.8144525,29.0921622 23.5199318,28.2553185 L23.5199318,28.2553185 L23.9595476,27.7234936 C25.1201689,26.2902992 26.1862962,24.7385772 27.1341198,23.1025927 L27.1341198,23.1025927 L27.4978472,22.4597457 C28.0928601,21.3832712 28.6314517,20.2822915 29.1072644,19.1689324 C29.1430484,19.0851178 29.2193249,19.0441487 29.2952875,19.0441487 L29.2952875,19.0441487 Z M4.32744432,8.99076641 L4.37754124,8.99729428 C4.49009102,9.0270835 4.5676133,9.15405647 4.51295631,9.2791139 L4.51295631,9.2791139 L4.262587,9.86803041 C3.7739704,11.0534805 3.35836049,12.2839324 3.02069906,13.5467819 L3.02069906,13.5467819 L3.00809675,13.6242838 C3.00395799,13.6755965 3.00814326,13.7251487 3.01944348,13.766639 L3.01944348,13.766639 L3.16122815,14.3600106 C3.41038238,15.3546004 3.72340553,16.3760483 4.09484806,17.404446 L4.09484806,17.404446 L4.36622446,18.1310405 C5.02031868,19.8235831 5.81978005,21.4945159 6.74757546,23.108222 L6.74757546,23.108222 L7.12246356,23.7447997 C7.75728005,24.7985714 8.44161494,25.8156757 9.16802049,26.7854344 L9.16802049,26.7854344 L9.19700045,26.8379595 C9.2510128,26.9815579 9.12477272,27.1441834 8.95959415,27.1044305 L8.95959415,27.1044305 L8.46766242,26.9816738 C8.14353667,26.8978822 7.82726993,26.8102452 7.52007127,26.7191332 L7.52007127,26.7191332 L7.42245971,26.6831777 C7.3276732,26.6411629 7.24180327,26.5812925 7.16882267,26.5064691 L7.16882267,26.5064691 L6.72191442,26.0383606 C5.54527201,24.7787124 4.4904605,23.4293378 3.57974621,22.0176931 L3.57974621,22.0176931 L3.5489845,21.9707819 L3.2632988,21.5158541 C1.48762838,18.623259 0.354332919,15.5217432 0.0117007345,12.63389 L0.0117007345,12.63389 L0.000566302582,12.480466 C-0.0127701116,11.970209 0.209939751,11.4767755 0.616576572,11.1580637 L0.616576572,11.1580637 L0.963760902,10.8944421 C1.90979334,10.1988436 3.01585113,9.56329151 4.24269264,9.00953089 C4.2712571,8.9967085 4.30013544,8.99076641 4.32744432,8.99076641 L4.32744432,8.99076641 Z M16.0354173,12.6363919 L16.1844537,12.6454125 C16.3332252,12.6635027 16.4803635,12.7089479 16.6183204,12.7830676 L16.6183204,12.7830676 L20.0598662,14.6307432 L20.1746865,14.7006643 C20.541498,14.9524481 20.7461265,15.3858145 20.6998983,15.8341718 L20.6998983,15.8341718 L20.3288743,19.4425811 L20.3076662,19.5760337 C20.2132052,20.0131737 19.8851978,20.3683807 19.4474569,20.4943301 L19.4474569,20.4943301 L15.3426508,21.6786815 L15.2097595,21.7092166 C14.7210099,21.7934945 14.2232486,21.5760241 13.956804,21.1485849 L13.956804,21.1485849 L11.8841547,17.8278977 L11.818191,17.7077214 C11.6031314,17.2580287 11.6821632,16.7167539 12.0291742,16.3455039 L12.0291742,16.3455039 L15.1357939,13.0260676 C15.3746681,12.7708707 15.7026885,12.6363919 16.0354173,12.6363919 L16.0354173,12.6363919 Z M23.274662,9.84232192 L23.2911022,9.84329923 L24.5598662,9.94306371 L24.6670106,9.95868254 C24.8777779,10.0037611 25.0649234,10.1304404 25.1835757,10.3127239 L25.1835757,10.3127239 L25.3287726,10.5378311 C25.5604591,10.901668 25.7490577,11.2217066 26.0213617,11.6916004 L26.0213617,11.6916004 L26.2510323,12.0919211 C26.6918288,12.8683821 27.0291443,13.5159098 27.4031279,14.325195 L27.4031279,14.325195 L27.4449704,14.437375 C27.5002436,14.6280676 27.4833281,14.8346506 27.3962222,15.0160405 L27.3962222,15.0160405 L26.7762794,16.3064112 L26.731007,16.3800714 C26.5930654,16.5589131 26.3262934,16.5951757 26.1440947,16.4433919 L26.1440947,16.4433919 L23.381504,14.1425541 L23.301965,14.066542 C23.1787976,13.9318533 23.1035499,13.7589768 23.0902094,13.5752413 L23.0902094,13.5752413 L22.8503935,10.2798861 C22.8328154,10.0415772 23.0230358,9.84204827 23.2584572,9.84204827 L23.2584572,9.84204827 L23.274662,9.84232192 L23.274662,9.84232192 Z M20.8210618,3.29355792 L21.3723581,3.29937199 C24.3037756,3.36131782 27.0877926,3.9171273 29.4302624,4.91230696 L29.4302624,4.91230696 L29.568896,4.9788896 C30.0179311,5.22078361 30.3326822,5.65805283 30.4077317,6.16639962 L30.4077317,6.16639962 L30.4645687,6.59751288 C30.599727,7.76095174 30.6036022,9.03295174 30.475533,10.3687046 L30.475533,10.3687046 L30.4619232,10.426077 C30.4062436,10.5663224 30.2057228,10.6019054 30.1063924,10.4684691 L30.1063924,10.4684691 L29.7180932,9.95923326 C28.9288182,8.94746132 28.0639668,7.97645698 27.1322364,7.0564614 L27.1322364,7.0564614 L27.0708176,7.00721043 C27.0281279,6.97820657 26.982927,6.95721815 26.9410743,6.94637645 L26.9410743,6.94637645 L26.3538856,6.77396767 C25.3639172,6.49488224 24.3186901,6.25745946 23.2383679,6.06694788 L23.2383679,6.06694788 L22.4706994,5.94029681 C20.6715938,5.66424946 18.8191959,5.52465445 16.9526187,5.52465445 L16.9526187,5.52465445 L16.2119643,5.53212983 C14.9787418,5.55677993 13.7524583,5.64234943 12.5471011,5.78829537 L12.5471011,5.78829537 L12.4868733,5.78732626 C12.3348189,5.76280116 12.2562599,5.57246912 12.3728894,5.44959653 L12.3728894,5.44959653 L12.7243123,5.08521815 C12.9582688,4.84670078 13.1915277,4.61707916 13.4238101,4.39690927 L13.4238101,4.39690927 L13.5036817,4.33048595 C13.5874475,4.26948673 13.6823812,4.22497974 13.7838478,4.19894402 L13.7838478,4.19894402 L14.4925781,4.02710183 C16.1487971,3.64689696 17.8210879,3.41224325 19.4772769,3.32795946 L19.4772769,3.32795946 L19.5334641,3.32483205 C19.964756,3.30387838 20.3941645,3.29355792 20.8210618,3.29355792 L20.8210618,3.29355792 Z" id="形状结合"></path>
                </g>
                <path d="M45.2831334,19.6739618 C45.3305315,19.6739618 45.3697684,19.6952282 45.3917411,19.7333826 C45.4137137,19.7709116 45.4143415,19.8184483 45.3936244,19.8628575 L45.3936244,19.8628575 L44.0046387,22.8035641 C43.9757603,22.8642359 43.9136091,22.905205 43.8498884,22.905205 L43.8498884,22.905205 L41.0621861,22.905205 C41.0151018,22.905205 40.9752372,22.8836259 40.9532645,22.8457842 C40.9322335,22.8076297 40.9312919,22.7607185 40.9523228,22.7163093 L40.9523228,22.7163093 L42.3413086,19.7746645 C42.3701869,19.7143054 42.4320243,19.6739618 42.495745,19.6739618 L42.495745,19.6739618 L45.2831334,19.6739618 Z M54.5331822,19.6738367 C54.5959612,19.6738367 54.6452427,19.7135548 54.6559152,19.7732884 L54.6559152,19.7732884 L55.1782366,22.713995 C55.1857701,22.7590297 55.171017,22.8065664 55.1374302,22.8450336 C55.1041574,22.8828753 55.057387,22.9050799 55.0103027,22.9050799 L55.0103027,22.9050799 L52.2257394,22.9050799 C52.1623326,22.9050799 52.113365,22.8653618 52.1030064,22.8053154 L52.1030064,22.8053154 L51.580685,19.8642961 C51.5728376,19.8195741 51.5875907,19.7720375 51.6208636,19.7341958 C51.6544503,19.6960413 51.7012207,19.6738367 51.748305,19.6738367 L51.748305,19.6738367 L54.5331822,19.6738367 Z M49.8002407,19.6738054 C49.8633336,19.6738054 49.912929,19.714149 49.9236014,19.7735699 L49.9236014,19.7735699 L50.4277169,22.7145892 C50.4349365,22.7596239 50.4201835,22.8071606 50.3862828,22.8450023 C50.3533238,22.882844 50.3065534,22.9050486 50.2594692,22.9050486 L50.2594692,22.9050486 L47.4940534,22.9050486 C47.4309605,22.9050486 47.3819929,22.8656432 47.3713205,22.8052842 L47.3713205,22.8052842 L46.8493129,19.8642649 C46.8411516,19.8195429 46.8559047,19.7720062 46.8894915,19.7341645 C46.9230783,19.69601 46.9698486,19.6738054 47.0169329,19.6738054 L47.0169329,19.6738054 L49.8002407,19.6738054 Z M82.4930106,11.9759282 C82.5730539,11.9759282 82.6282994,12.0409784 82.6157436,12.1210402 L82.6157436,12.1210402 L81.3328544,20.3789745 C81.2779227,20.7311212 81.1661761,21.0648162 80.9998117,21.37099 C80.8334473,21.6759127 80.6253348,21.9470595 80.3814383,22.1756734 C80.1378557,22.4027236 79.8641392,22.5828625 79.5665667,22.7123375 C79.2715053,22.8405614 78.9610631,22.9049861 78.6427734,22.9049861 L78.6427734,22.9049861 L69.4713867,22.9049861 C69.3913435,22.9049861 69.3364118,22.8399359 69.3486537,22.7598741 L69.3486537,22.7598741 L70.888623,12.8481637 L71.0016253,12.1210402 C71.0138672,12.0409784 71.0895159,11.9759282 71.1695592,11.9759282 L71.1695592,11.9759282 L82.4930106,11.9759282 Z M67.6501046,5.63838185 C67.6959333,5.63838185 67.7364258,5.66027375 67.7577706,5.6978027 L67.7577706,5.6978027 L68.3522879,6.7273471 L69.1159947,5.70937413 C69.1489537,5.66559035 69.2013742,5.63838185 69.2525391,5.63838185 L69.2525391,5.63838185 L72.3961984,5.63838185 L71.1760882,7.24086834 L73.2481097,7.24086834 L73.0742118,5.63838185 L75.7297642,5.63838185 C75.7950544,5.63838185 75.8455915,5.68216564 75.8534389,5.74502664 L75.8534389,5.74502664 L76.035498,7.24086834 L79.676995,7.24086834 L80.3270717,5.74502664 C80.3543806,5.68216564 80.4187291,5.63838185 80.4833915,5.63838185 L80.4833915,5.63838185 L82.9490374,5.63838185 C82.9945522,5.63838185 83.0331613,5.65902278 83.0557617,5.69498803 C83.0780483,5.73064054 83.0799316,5.77661351 83.0610979,5.82008456 L83.0610979,5.82008456 L82.4650112,7.24086834 L86.3202706,7.24086834 L87.1254116,5.73220425 C87.1549177,5.67591081 87.2154994,5.63838185 87.2757673,5.63838185 L87.2757673,5.63838185 L89.6302944,5.63838185 C89.6783203,5.63838185 89.7184989,5.66089923 89.7404715,5.70061737 C89.7618164,5.74033552 89.7602469,5.78912317 89.7363909,5.83447066 L89.7363909,5.83447066 L88.6129604,7.94954015 L88.6022879,7.94954015 L87.8665179,12.6850691 L86.6068569,20.7913239 L88.231264,20.7913239 L91.0133161,9.37908069 L89.9501535,9.37908069 C89.8697963,9.37908069 89.8142369,9.31371776 89.8267927,9.23396873 L89.8267927,9.23396873 L90.1064732,7.43476795 C90.1187151,7.35501892 90.1943638,7.28965598 90.274721,7.28965598 L90.274721,7.28965598 L95.4379813,7.28965598 L95.672147,5.78349382 C95.684389,5.70343205 95.7597238,5.63838185 95.8400809,5.63838185 L95.8400809,5.63838185 L98.278418,5.63838185 C98.3584612,5.63838185 98.4140206,5.70343205 98.4011509,5.78349382 L98.4011509,5.78349382 L98.1672991,7.28965598 L103.330873,7.28965598 C103.410917,7.28965598 103.466162,7.35501892 103.453606,7.43476795 L103.453606,7.43476795 L103.174554,9.23396873 C103.161684,9.31371776 103.086349,9.37908069 103.005992,9.37908069 L103.005992,9.37908069 L102.031662,9.37908069 L101.248807,20.7913239 L103.991936,20.7913239 L105.142676,13.3843587 C105.155232,13.3042969 105.230566,13.2392467 105.310924,13.2392467 L105.310924,13.2392467 L121.362577,13.2392467 C121.616204,13.2392467 121.841581,13.283656 122.034626,13.3702853 C122.293276,13.4863124 122.505155,13.6508143 122.663044,13.8594127 C122.806494,14.0486212 122.911021,14.2787988 122.973486,14.5430653 C123.035638,14.8088954 123.045054,15.0891116 123.000481,15.3762081 L123.000481,15.3762081 L122.222963,20.3791309 C122.168345,20.7312776 122.056285,21.0649726 121.88992,21.3708336 C121.724184,21.6754436 121.517327,21.9412737 121.275628,22.1614436 C121.031104,22.3825517 120.757073,22.5598761 120.460128,22.6877873 C120.164753,22.8160112 119.850544,22.9051425 119.533196,22.9051425 L119.533196,22.9051425 L118.249679,22.9051425 C118.199456,22.9051425 118.157394,22.8798104 118.136677,22.8369649 L118.136677,22.8369649 L117.55754,21.5925672 L118.403802,21.5925672 C118.638281,21.5925672 118.853299,21.5031232 119.041636,21.3264243 C119.225893,21.1541039 119.339523,20.9414398 119.377818,20.6949996 L119.377818,20.6949996 L119.453153,20.2096251 L106.878202,20.2096251 L106.482066,22.7600305 C106.46951,22.8397795 106.393862,22.9051425 106.313818,22.9051425 L106.313818,22.9051425 L98.775,22.9051425 C98.6987235,22.9051425 98.6456752,22.8479108 98.6500698,22.7725402 L98.6500698,22.7725402 L99.5487514,9.37908069 L97.8427316,9.37908069 L96.4430734,18.3869687 L97.8524623,18.3869687 C97.9325056,18.3869687 97.988065,18.4520189 97.9755092,18.5320807 L97.9755092,18.5320807 L97.6958287,20.3312815 C97.6835868,20.4113432 97.6079381,20.4767062 97.5275809,20.4767062 L97.5275809,20.4767062 L96.1185059,20.4767062 L95.7638044,22.7600305 C95.7512486,22.8397795 95.6759138,22.9051425 95.5955566,22.9051425 L95.5955566,22.9051425 L93.1572196,22.9051425 C93.0774902,22.9051425 93.0219308,22.8397795 93.0344866,22.7600305 L93.0344866,22.7600305 L93.3891881,20.4767062 L91.9794852,20.4767062 C91.8997559,20.4767062 91.8441964,20.4113432 91.8567522,20.3312815 L91.8567522,20.3312815 L92.1361189,18.5320807 C92.1486747,18.4520189 92.2243234,18.3869687 92.3043666,18.3869687 L92.3043666,18.3869687 L93.7137556,18.3869687 L95.1134138,9.37908069 L93.476137,9.37908069 L90.2320312,22.7719147 C90.2135114,22.8479108 90.1425711,22.9051425 90.0662946,22.9051425 L90.0662946,22.9051425 L83.8502302,22.9051425 C83.769873,22.9051425 83.7146275,22.8397795 83.7271833,22.7600305 L83.7271833,22.7600305 L85.2925781,12.6850691 L85.4102888,11.9285479 L85.8098772,9.35468687 L81.5713518,9.35468687 L80.9322614,10.8029919 C80.9049526,10.8652274 80.8402902,10.9083857 80.7753139,10.9083857 L80.7753139,10.9083857 L78.3109235,10.9083857 C78.2650949,10.9083857 78.2261719,10.8877448 78.2038853,10.8514668 C78.1815988,10.8155015 78.1797154,10.7695286 78.1985491,10.725432 L78.1985491,10.725432 L78.7833357,9.35468687 L76.269036,9.35468687 L76.4476423,10.7235556 C76.4536063,10.7676521 76.4379116,10.8142506 76.4040109,10.8508413 C76.370738,10.887432 76.3252232,10.9083857 76.2790806,10.9083857 L76.2790806,10.9083857 L73.800565,10.9083857 C73.734647,10.9083857 73.6834821,10.8642892 73.6762626,10.8014282 L73.6762626,10.8014282 L73.5083287,9.35468687 L69.5661203,9.35468687 L69.3391741,9.65335483 L68.7481097,13.4575402 L70.4177176,13.4575402 L68.3278041,16.1615015 L67.6764718,20.3547371 C67.6215402,20.7068838 67.5094796,21.0405788 67.3428013,21.346127 C67.1764369,21.6529263 66.9711496,21.9243857 66.733531,22.1526869 C66.4968541,22.3806753 66.2237653,22.5852081 65.9412598,22.713432 C65.6625209,22.840405 65.3671456,22.9051425 65.0648647,22.9051425 L65.0648647,22.9051425 L56.9582101,22.9051425 C56.8951172,22.9051425 56.8458357,22.8647988 56.8351632,22.804127 L56.8351632,22.804127 L56.3310477,19.8637332 C56.3238281,19.8190112 56.3385812,19.7721 56.3718541,19.7342583 C56.4054408,19.6957911 56.4522112,19.6738992 56.4992955,19.6738992 L56.4992955,19.6738992 L59.2647112,19.6738992 C59.3278041,19.6738992 59.3767718,19.7136174 59.3874442,19.773351 L59.3874442,19.773351 L59.6156459,21.0580923 L64.2248814,21.0580923 C64.4452358,21.0580923 64.6520926,20.9686483 64.8404297,20.7922622 C65.025,20.6193162 65.13863,20.4066521 65.1769252,20.160212 L65.1769252,20.160212 L65.3238281,19.2141695 L62.9906459,19.2141695 C62.9137416,19.2141695 62.8842355,19.1619417 62.8751325,19.1397371 C62.8660296,19.1172197 62.8506487,19.0574861 62.9008719,18.9924359 L62.9008719,18.9924359 L65.9742187,15.029378 L66.323584,12.7788915 L63.9841239,12.7788915 C63.9072196,12.7788915 63.8777134,12.7272892 63.8686105,12.7050846 C63.8595075,12.6831927 63.8438128,12.6240846 63.8937221,12.5587216 L63.8937221,12.5587216 L66.5781529,9.03256332 L64.8482771,5.86668301 C64.8231655,5.82133552 64.8285017,5.76535483 64.8617746,5.71656718 C64.8950474,5.6674668 64.9477818,5.63838185 65.0030273,5.63838185 L65.0030273,5.63838185 L67.6501046,5.63838185 Z M78.9679687,18.4612448 L77.1216378,18.4612448 L76.7597168,20.7911676 L77.7720285,20.7911676 C78.0058803,20.7911676 78.2199568,20.7017236 78.4095494,20.524712 C78.5941197,20.3523915 78.7083775,20.1319089 78.7491839,19.8688934 L78.7491839,19.8688934 L78.9679687,18.4612448 Z M74.5922712,18.4612448 L72.7459403,18.4612448 L72.3837054,20.7911676 L74.2300363,20.7911676 L74.5922712,18.4612448 Z M119.868122,17.5385015 L107.293485,17.5385015 L107.085686,18.8729687 L119.660638,18.8729687 L119.868122,17.5385015 Z M52.1542655,10.4459664 C52.2346226,10.4459664 52.2895543,10.5110166 52.2769985,10.5910784 L52.2769985,10.5910784 L51.4583601,15.8623332 C51.4009173,16.2310552 51.2860317,16.5822637 51.1165283,16.9047 C50.9467111,17.2271363 50.7354597,17.5145456 50.4874826,17.7597347 C50.2420166,18.0021093 49.9667306,18.1941324 49.6682164,18.3304876 C49.3722133,18.4652792 49.0623989,18.5337695 48.7453648,18.5337695 L48.7453648,18.5337695 L47.2075928,18.5337695 C47.1611363,18.5337695 47.1218994,18.5121903 47.0996129,18.4749741 C47.0776402,18.4374452 47.0770124,18.3902212 47.0980434,18.3454992 L47.0980434,18.3454992 L47.541891,17.3916382 L47.6570905,17.3916382 C47.8934535,17.3916382 48.1094134,17.2968776 48.299006,17.1111093 C48.4835763,16.9306575 48.5978341,16.7067347 48.6383266,16.4449703 L48.6383266,16.4449703 L48.660927,16.2998583 L45.037636,16.2998583 L44.7133824,18.3886575 C44.7008266,18.4687193 44.624864,18.5337695 44.5451346,18.5337695 L44.5451346,18.5337695 L42.1284563,18.5337695 C42.0484131,18.5337695 41.9931676,18.4687193 42.0054095,18.3886575 L42.0054095,18.3886575 L43.2170445,10.5910784 C43.2292864,10.5110166 43.3049351,10.4459664 43.3849784,10.4459664 L43.3849784,10.4459664 L52.1542655,10.4459664 Z M61.4276995,12.6250541 C61.4713309,12.6150463 61.5140206,12.6272432 61.5438407,12.65539 C61.5733468,12.6832239 61.5862165,12.7238803 61.5796247,12.7676641 L61.5796247,12.7676641 L61.39631,13.9473243 C61.3856376,14.0164402 61.3269392,14.075861 61.2566267,14.0896216 L61.2566267,14.0896216 L55.3359375,15.20861 L55.2345494,15.8622394 C55.193743,16.1243166 55.2383161,16.3479266 55.3666992,16.5283784 C55.4997907,16.7141467 55.6865583,16.8089073 55.9216657,16.8089073 L55.9216657,16.8089073 L60.4056571,16.8089073 C60.4722028,16.8089073 60.5233677,16.8539421 60.5296456,16.9171158 L60.5296456,16.9171158 L60.6486119,18.0354788 C60.6533203,18.0795753 60.6366839,18.1255483 60.603411,18.162139 C60.5698242,18.1977915 60.5246233,18.2181197 60.4791085,18.2181197 L60.4791085,18.2181197 L54.4366281,18.2181197 C54.119594,18.2181197 53.8308105,18.1496293 53.5771833,18.0145251 C53.3204171,17.8784826 53.1038295,17.6898996 52.931815,17.4540927 C52.7588588,17.2170347 52.6367536,16.9343166 52.5683245,16.613444 C52.4986398,16.2919459 52.4926758,15.9416757 52.5504325,15.5710772 L52.5504325,15.5710772 L52.9842355,12.7773591 C52.9967913,12.6972973 53.07244,12.6319344 53.1524833,12.6319344 L53.1524833,12.6319344 L55.5908203,12.6319344 C55.6708636,12.6319344 55.726423,12.6972973 55.7138672,12.7773591 L55.7138672,12.7773591 L55.5616281,13.7562394 L61.4276995,12.6250541 Z M79.6469238,14.0900595 L77.8009068,14.0900595 L77.450286,16.3474263 L79.2966169,16.3474263 L79.6469238,14.0900595 Z M75.2712263,14.0900595 L73.4248954,14.0900595 L73.0742746,16.3474263 L74.9209194,16.3474263 L75.2712263,14.0900595 Z M119.456606,14.8185903 L107.715674,14.8185903 L107.504422,16.1774514 L120.079374,16.1774514 L120.151256,15.7164707 C120.189551,15.4700305 120.142153,15.2573664 120.011258,15.0850459 C119.877539,14.9080344 119.691085,14.8185903 119.456606,14.8185903 L119.456606,14.8185903 Z M49.023162,13.9689973 L45.399871,13.9689973 L45.2228341,15.1089394 L48.8461251,15.1089394 L49.023162,13.9689973 Z M49.3891636,11.613117 L45.7655587,11.613117 L45.5847552,12.7777656 L49.2083601,12.7777656 L49.3891636,11.613117 Z M116.617268,5.63819421 C116.680988,5.63819421 116.729956,5.67853784 116.740628,5.73858417 L116.740628,5.73858417 L116.938382,6.90073089 L124.571683,6.90073089 C124.651726,6.90073089 124.707286,6.96578108 124.695044,7.04584286 L124.695044,7.04584286 L124.464017,8.52948764 C124.451775,8.60923668 124.376127,8.67428687 124.296083,8.67428687 L124.296083,8.67428687 L109.69745,8.67428687 L108.620163,10.5191479 L120.556965,10.5191479 L120.365803,9.64628687 C120.355758,9.60093938 120.36957,9.55246448 120.403156,9.51305907 C120.437057,9.47334093 120.484141,9.45051081 120.532167,9.45051081 L120.532167,9.45051081 L122.9049,9.45051081 C122.966424,9.45051081 123.015391,9.48960347 123.027005,9.54777336 L123.027005,9.54777336 L123.569416,12.3189741 C123.578205,12.3636961 123.56408,12.4115456 123.530807,12.4503255 C123.496592,12.4894181 123.450136,12.5116228 123.40211,12.5116228 L123.40211,12.5116228 L120.943056,12.5116228 L120.874313,12.0984915 L105.205612,12.0984915 C105.15633,12.0984915 105.115838,12.0750359 105.094493,12.0346923 C105.073148,11.9940359 105.075659,11.9449355 105.101085,11.8992753 L105.101085,11.8992753 L106.898448,8.67428687 L105.353142,8.67428687 C105.273099,8.67428687 105.217854,8.60923668 105.230409,8.52948764 L105.230409,8.52948764 L105.460808,7.04584286 C105.47305,6.96578108 105.548699,6.90073089 105.628742,6.90073089 L105.628742,6.90073089 L114.178931,6.90073089 L113.996244,5.82771544 C113.98871,5.78330618 114.003463,5.73639498 114.036422,5.69855328 C114.070637,5.6600861 114.117093,5.63819421 114.164491,5.63819421 L114.164491,5.63819421 L116.617268,5.63819421 Z M56.6773368,5.63819421 C56.75738,5.63819421 56.8129395,5.70355714 56.8003836,5.78330618 L56.8003836,5.78330618 L56.610791,7.00518649 L62.4737235,5.89714402 C62.5355608,5.88557259 62.5722866,5.91153012 62.5895508,5.92747992 C62.618743,5.9553139 62.6319266,5.99597027 62.6250209,6.03975405 L62.6250209,6.03975405 L62.445159,7.19689691 C62.4344866,7.26601274 62.3757882,7.32605907 62.3051618,7.33919421 L62.3051618,7.33919421 L56.3851004,8.45755714 L56.3135324,8.91697413 C56.2730399,9.17842587 56.3172991,9.40203591 56.4450544,9.58248764 C56.577832,9.76856873 56.7652274,9.86332934 57.0006487,9.86332934 L57.0006487,9.86332934 L61.484954,9.86332934 C61.5514997,9.86332934 61.6023507,9.90805135 61.6089425,9.97185058 L61.6089425,9.97185058 L61.727281,11.090839 C61.7319894,11.1352483 61.7156669,11.1809085 61.682394,11.2168737 C61.6488072,11.2525263 61.6036063,11.2731672 61.5580915,11.2731672 L61.5580915,11.2731672 L55.515611,11.2731672 C55.1998326,11.2731672 54.9104213,11.2043641 54.6564802,11.0692598 C54.4000279,10.9325919 54.1840681,10.7405687 54.0145647,10.4978815 C53.8412946,10.2526923 53.7195033,9.96528301 53.6513881,9.6434722 C53.5813895,9.32228687 53.5757394,8.9720166 53.6331822,8.60141815 L53.6331822,8.60141815 L54.0710658,5.78330618 C54.0836217,5.70355714 54.1589565,5.63819421 54.2393136,5.63819421 L54.2393136,5.63819421 L56.6773368,5.63819421 Z M48.2150705,5.6384444 C48.2640381,5.6384444 48.3045306,5.66127452 48.3255615,5.70130541 C48.3469064,5.74102355 48.345023,5.79012394 48.3202253,5.83547143 L48.3202253,5.83547143 L47.0866176,8.11504286 L49.3745989,8.11504286 L49.2267543,6.64484595 C49.2226737,6.60106216 49.2389962,6.55540193 49.2722691,6.51974942 C49.3058559,6.48409691 49.3510568,6.46376873 49.3965716,6.46376873 L49.3965716,6.46376873 L52.2840925,6.46376873 C52.3500105,6.46376873 52.4011754,6.50817799 52.4077672,6.57197722 L52.4077672,6.57197722 L52.7382987,9.60994633 C52.7430071,9.65373012 52.7263707,9.69939035 52.6927839,9.7353556 C52.659511,9.77100811 52.6149379,9.79164903 52.5691092,9.79164903 L52.5691092,9.79164903 L49.5500663,9.79164903 L49.5142822,9.45169923 L43.1101946,9.45169923 C43.0615409,9.45169923 43.0219901,9.42886911 43.0003313,9.38977645 C42.9789865,9.35037104 42.9799282,9.30189614 43.0034703,9.25623591 L43.0034703,9.25623591 L44.8485456,5.73351776 C44.8780518,5.67659884 44.9389474,5.6384444 44.9998431,5.6384444 L44.9998431,5.6384444 L48.2150705,5.6384444 Z" id="形状结合" fill="#FFFFFF"></path>
                <path d="M83.2088797,25.5841471 C83.9289551,25.5841471 84.3982282,25.7671008 84.829834,26.2180737 L84.829834,26.2180737 L84.9208636,26.3134598 L84.2965262,26.8529386 L84.213344,26.765371 C83.9258161,26.4623247 83.605957,26.3391046 83.1081194,26.3391046 C82.4671456,26.3391046 82.0157645,26.6837456 81.9285017,27.2385486 C81.8930315,27.4709154 81.930385,27.6451124 82.0415039,27.7542591 C82.1604701,27.8734135 82.3977748,27.9741162 82.660505,28.0172745 L82.660505,28.0172745 L83.2424665,28.1076568 C83.7472098,28.1855293 84.0199847,28.2987417 84.2469308,28.5242282 C84.536656,28.8056954 84.650286,29.2150737 84.5752651,29.7073286 C84.4192592,30.7081008 83.5378418,31.3539116 82.3290318,31.3539116 C81.4720982,31.3539116 80.9356515,31.133429 80.476423,30.593012 L80.476423,30.593012 L80.3954381,30.4973131 L81.0464565,29.936568 L81.1293248,30.0338305 C81.4689593,30.4353903 81.819894,30.5842552 82.4244559,30.5842552 C83.1614816,30.5842552 83.6533552,30.2477456 83.7403041,29.6844985 C83.7798549,29.4327417 83.7374791,29.2297726 83.621024,29.1137456 C83.4942104,28.9867726 83.3934501,28.9495564 83.0202288,28.8901355 L83.0202288,28.8901355 L82.4009138,28.7906838 C81.9551828,28.719066 81.61649,28.5683247 81.3923689,28.3440892 C81.1264997,28.0713788 81.0285645,27.6942127 81.1004464,27.2229116 C81.2561384,26.2268305 82.0835658,25.5841471 83.2088797,25.5841471 Z M98.0044189,25.584022 C98.5832415,25.584022 99.0669538,25.7948097 99.4053327,26.1926166 C99.8755476,26.7477324 99.7854597,27.3291185 99.6055978,28.4878251 C99.4266776,29.6393386 99.3369036,30.21791 98.7094273,30.7592653 C98.2580462,31.1480027 97.7178327,31.3537865 97.1465437,31.3537865 C96.5670933,31.3537865 96.0830671,31.1433116 95.7450021,30.7455046 C95.2747872,30.1894506 95.3648751,29.60869 95.5453648,28.4493579 C95.724285,27.2978444 95.814059,26.7198985 96.4412214,26.1785432 C96.8919747,25.7898058 97.4321882,25.584022 98.0044189,25.584022 Z M119.714816,25.5841471 C120.434891,25.5841471 120.90385,25.7671008 121.33577,26.2180737 L121.33577,26.2180737 L121.426486,26.3134598 L120.802148,26.8529386 L120.71928,26.765371 C120.431752,26.4623247 120.111893,26.3391046 119.614056,26.3391046 C118.972768,26.3391046 118.521701,26.6837456 118.434438,27.2385486 C118.398968,27.4709154 118.436321,27.6451124 118.547126,27.7542591 C118.666406,27.8734135 118.903711,27.9741162 119.166441,28.0172745 L119.166441,28.0172745 L119.748403,28.1089077 C120.253146,28.1855293 120.525607,28.2987417 120.752867,28.5242282 C121.043534,28.8066336 121.15685,29.2163247 121.079946,29.7079541 C120.924881,30.7081008 120.043464,31.3539116 118.834654,31.3539116 C117.978034,31.3539116 117.441588,31.133429 116.982045,30.593012 L116.982045,30.593012 L116.90106,30.4973131 L117.553334,29.9375062 L117.636203,30.0338305 C117.975837,30.4353903 118.326458,30.5842552 118.930392,30.5842552 C119.667418,30.5842552 120.158977,30.2477456 120.24624,29.6844985 C120.286733,29.4327417 120.244357,29.2307108 120.126646,29.1146838 C120.000146,28.9867726 119.899386,28.9495564 119.526165,28.8901355 L119.526165,28.8901355 L118.906536,28.7906838 C118.461119,28.719066 118.122112,28.5683247 117.898933,28.3440892 C117.632436,28.0713788 117.534501,27.6942127 117.60858,27.2219734 C117.762702,26.2268305 118.589502,25.5841471 119.714816,25.5841471 Z M42.7186419,25.6294008 C43.2651332,25.6294008 43.702703,25.8026595 43.9842669,26.1304124 C44.2539028,26.4434664 44.3546631,26.8716093 44.2787005,27.3685552 C44.1195557,28.3893429 43.2936977,29.0751846 42.221746,29.0751846 L42.221746,29.0751846 L40.8851807,29.0751846 L40.5386405,31.3084703 L39.7008545,31.3084703 L40.5226318,26.0153236 C40.5571603,25.7985938 40.7549142,25.6294008 40.9724435,25.6294008 L40.9724435,25.6294008 L42.7186419,25.6294008 Z M49.6290737,25.629432 L49.6497907,25.7288838 L50.8360003,31.3085015 L49.9567801,31.3085015 L49.7110003,30.0813046 L47.5137347,30.0813046 L46.887514,31.3085015 L45.980671,31.3085015 L48.9604771,25.629432 L49.6290737,25.629432 Z M55.6322859,25.6293382 L55.667756,25.6981413 L57.7077602,29.6884077 L58.3380615,25.6293382 L59.1749058,25.6293382 L58.2934884,31.3087205 L57.555835,31.3087205 L57.5209926,31.2396046 L55.4841274,27.2368286 L54.8516288,31.3087205 L54.0141567,31.3087205 L54.8952602,25.6293382 L55.6322859,25.6293382 Z M65.0724609,25.6293382 C65.6798479,25.6293382 66.1619908,25.818234 66.4674107,26.1766355 C66.960226,26.7592726 66.828704,27.5889753 66.7131906,28.3204772 L66.7131906,28.3204772 L66.6786621,28.5428363 C66.5647182,29.2849714 66.4225237,30.2094347 65.7667969,30.7751838 C65.3596749,31.1245158 64.8282506,31.3087205 64.2287109,31.3087205 L64.2287109,31.3087205 L62.2153878,31.3087205 L63.0964914,25.6293382 L65.0724609,25.6293382 Z M72.7778948,25.629432 L72.7986119,25.7288838 L73.9848214,31.3085015 L73.1056013,31.3085015 L72.8595075,30.0813046 L70.6625558,30.0813046 L70.0363351,31.3085015 L69.1304339,31.3085015 L72.1089844,25.629432 L72.7778948,25.629432 Z M90.9054932,25.6294008 C91.4513567,25.6294008 91.8901821,25.8026595 92.171746,26.1304124 C92.4404402,26.4434664 92.5424561,26.8716093 92.4642962,27.3685552 C92.3060931,28.3893429 91.4802351,29.0751846 90.409225,29.0751846 L90.409225,29.0751846 L89.0717181,29.0751846 L88.7251779,31.3084703 L87.8873919,31.3084703 L88.7694371,25.6294008 L90.9054932,25.6294008 Z M105.960498,25.6294946 C106.491922,25.6294946 106.915681,25.795873 107.186572,26.1108035 C107.441455,26.4069695 107.537193,26.812595 107.464997,27.2848344 L107.464997,27.2848344 C107.345403,28.0485486 106.838777,28.6096066 106.096101,28.8103865 L106.096101,28.8103865 L107.020522,31.3085641 L106.068164,31.3085641 L106.037716,31.2250622 L105.204011,28.8998305 L104.09345,28.8998305 L103.718973,31.3085641 L102.881501,31.3085641 L103.763546,25.6294946 L105.960498,25.6294946 Z M114.812748,25.6295884 L114.694409,26.400183 L113.117714,26.400183 L112.356205,31.3086579 L111.518419,31.3086579 L112.281184,26.400183 L110.705116,26.400183 L110.824711,25.6295884 L114.812748,25.6295884 Z M97.9231201,26.3536784 C97.5969831,26.3536784 97.262371,26.4837788 97.0065465,26.7111417 C96.645881,27.0282614 96.5532819,27.3557015 96.3759312,28.4887633 C96.2026611,29.6115046 96.1926165,29.9355046 96.4443604,30.2416784 C96.622025,30.4590336 96.9079834,30.5841301 97.2265869,30.5841301 C97.5536656,30.5841301 97.8889056,30.4543425 98.1444162,30.2269795 C98.5060233,29.9079834 98.5976807,29.5811687 98.7728341,28.4493579 C98.9489293,27.3263039 98.95866,27.0026166 98.7053467,26.6964429 C98.5267404,26.4787749 98.2414097,26.3536784 97.9231201,26.3536784 Z M64.8913435,26.4002456 L63.8149972,26.4002456 L63.1718262,30.5378131 L64.2098772,30.5378131 C64.6377162,30.5378131 64.9804897,30.4186587 65.2579729,30.1737822 C65.6424944,29.8303923 65.7548689,29.1048324 65.8537458,28.4659019 L65.8537458,28.4659019 L65.8772879,28.3135969 C65.9723982,27.7071915 66.0700195,27.0792069 65.8025809,26.7495776 C65.6095354,26.5143961 65.3113351,26.4002456 64.8913435,26.4002456 L64.8913435,26.4002456 Z M49.10738,26.9679649 L47.8960589,29.3263471 L49.5706892,29.3263471 L49.10738,26.9679649 Z M72.2558873,26.9679649 L71.0458217,29.3263471 L72.7195103,29.3263471 L72.2558873,26.9679649 Z M42.5842948,26.4003081 L41.3010917,26.4003081 L41.003833,28.30459 L42.248427,28.30459 C42.9132568,28.30459 43.3511405,27.9493158 43.4478202,27.3291498 C43.4923933,27.0417405 43.4456229,26.8165668 43.310648,26.6589452 C43.1653146,26.4897521 42.9145124,26.4003081 42.5842948,26.4003081 L42.5842948,26.4003081 Z M90.7708322,26.4003081 L89.487629,26.4003081 L89.1913121,28.30459 L90.4359061,28.30459 C91.1019915,28.30459 91.5386196,27.9493158 91.6334159,27.3304008 C91.6789307,27.0417405 91.6324742,26.8165668 91.4968715,26.6589452 C91.351852,26.4897521 91.1010498,26.4003081 90.7708322,26.4003081 L90.7708322,26.4003081 Z M105.826151,26.4000892 L104.481738,26.4000892 L104.211161,28.1373672 L105.516964,28.1373672 C106.138163,28.1373672 106.544029,27.8155564 106.631292,27.2523093 C106.67304,26.992734 106.63035,26.7869502 106.505734,26.6430892 C106.369503,26.4835911 106.134396,26.4000892 105.826151,26.4000892 L105.826151,26.4000892 Z" id="形状结合" fill="#FFFFFF"></path>
            </g>
        </g>
    </g>
</svg>