<?xml version="1.0" encoding="UTF-8"?>
<svg width="11px" height="14px" viewBox="0 0 11 14" version="1.1" xmlns="http://www.w3.org/2000/svg" xmlns:xlink="http://www.w3.org/1999/xlink">
    <title>排行榜黑黄</title>
    <g id="页面-1" stroke="none" stroke-width="1" fill="none" fill-rule="evenodd">
        <g id="虚拟体育" transform="translate(-828.000000, -789.000000)" fill="#FFB001" fill-rule="nonzero">
            <g id="编组-15" transform="translate(808.000000, 780.000000)">
                <g id="排行榜黑黄" transform="translate(20.000000, 9.000000)">
                    <path d="M10.9170864,0.609221354 L9.37525477,3.72981203 C8.0574909,2.47444192 5.8440579,2.33757774 5.8440579,2.33757774 L6.87597574,0.298565531 C6.92562268,0.124131069 7.06250053,3.68975255e-08 7.24902532,3.68975255e-08 L10.6185209,3.68975255e-08 C10.8298691,3.68975255e-08 11.0036608,0.173791687 11.0036608,0.38513995 L11.0036608,0.38513951 C11.001491,0.467578872 10.970908,0.546736887 10.9170867,0.609220914 L10.9170864,0.609221354 Z M10.9667333,8.56665509 C10.9667333,11.5631147 8.52984804,14 5.52066893,14 C2.51148983,14 0.0873376984,11.5758479 0.0873376984,8.56665509 C0.0873376984,5.57019544 2.52422297,3.13332385 5.53340207,3.13332385 C8.54258118,3.13332385 10.9667333,5.57020912 10.9667333,8.56665509 Z M8.07023772,7.32340266 L6.59014339,7.1120544 L5.93127513,5.76883792 C5.70719373,5.30921392 5.34687728,5.32130425 5.12279588,5.76883792 L4.46392762,7.09932126 L2.97174296,7.32340266 C2.46247202,7.39788675 2.36252165,7.73336604 2.72346722,8.09368249 L3.79295535,9.13833347 L3.5440368,10.6184141 C3.45683325,11.1276987 3.75539874,11.326943 4.1901856,11.0907713 L5.52066893,10.3943464 L6.85115227,11.0907713 C7.31140541,11.326943 7.58450462,11.1155947 7.4979302,10.6184141 L7.24902532,9.13831979 L8.31849978,8.08157848 C8.69154936,7.72126204 8.56677552,7.38576907 8.07023772,7.32338898 L8.07023772,7.32340266 Z M0.0746045571,0.609221354 L0.0746045279,0.609221317 C0.0243391192,0.545534411 -0.00201643181,0.466244963 0.000120438215,0.385139913 C0.000120436977,0.17379165 0.174541223,0 0.385889486,0 L3.75541239,0 C3.9419235,0 4.07880135,0.124131032 4.1284483,0.298565494 L5.159737,2.33757771 C5.159737,2.33757771 2.93480178,2.47444188 1.62916927,3.72981199 L0.0746045279,0.609221317 L0.0746045571,0.609221354 Z" id="Shape"></path>
                </g>
            </g>
        </g>
    </g>
</svg>