<?xml version="1.0" encoding="UTF-8"?>
<svg width="16px" height="17px" viewBox="0 0 16 17" version="1.1" xmlns="http://www.w3.org/2000/svg" xmlns:xlink="http://www.w3.org/1999/xlink">
    <title>编组 26备份 3</title>
    <g id="页面-1" stroke="none" stroke-width="1" fill="none" fill-rule="evenodd">
        <g id="live_篮球" transform="translate(-752.000000, -853.000000)" fill-rule="nonzero">
            <g id="编组-21备份" transform="translate(234.000000, 841.000000)">
                <g id="数据" transform="translate(518.000000, 12.000000)">
                    <path d="M16,7.29375 L8.709375,7.29375 L8.709375,0 C10.6140625,0.1140625 12.4015625,0.9125 13.7453125,2.25625 C15.0875,3.5984375 15.8859375,5.3859375 16,7.29375 Z" id="路径" fill="#569ffd"></path>
                    <path d="M1.8859375,13.7 C0.6703125,12.2953125 0,10.5125 0,8.6671875 C0,6.6109375 0.8,4.6796875 2.2546875,3.2265625 C3.559375,1.921875 5.2953125,1.1328125 7.14375,1 L7.14375,8.45625 L1.8859375,13.7 Z M7.6984375,16.3609375 C9.753125,16.3609375 11.6828125,15.5609375 13.134375,14.109375 C14.4421875,12.8015625 15.23125,11.065625 15.3625,9.2171875 L7.940625,9.19375 L2.6609375,14.475 C4.0671875,15.6921875 5.85,16.3609375 7.69375,16.3609375 L7.6984375,16.3609375 Z" id="形状" fill="#5A6074"></path>
                </g>
            </g>
        </g>
    </g>
</svg>