<?xml version="1.0" encoding="UTF-8"?>
<svg width="16px" height="16px" viewBox="0 0 16 16" version="1.1" xmlns="http://www.w3.org/2000/svg" xmlns:xlink="http://www.w3.org/1999/xlink">
    <title>编组</title>
    <g id="页面-1" stroke="none" stroke-width="1" fill="none" fill-rule="evenodd">
        <g id="编组" fill="#5A6074" transform="translate(0.000000, 0.000200)">
            <g id="Fill-2">
                <path d="M13.654,4.151 L8.826,8.98 C8.752,9.053 8.664,9.112 8.565,9.152 C8.469,9.192 8.369,9.212 8.266,9.213 C8.264,9.213 8.262,9.214 8.259,9.214 C8.257,9.214 8.254,9.213 8.25,9.213 C8.149,9.211 8.049,9.192 7.954,9.152 C7.758,9.071 7.602,8.916 7.521,8.72 C7.481,8.623 7.461,8.52 7.46,8.416 L7.46,8.414 L7.46,4.414 L5.41,4.414 L5.41,8.414 C5.41,8.856 5.051,9.214 4.61,9.214 C4.168,9.214 3.809,8.856 3.809,8.414 L3.809,4.414 L2.91,4.414 C2.467,4.414 2.11,4.056 2.11,3.614 C2.11,3.172 2.467,2.814 2.91,2.814 L8.259,2.814 C8.702,2.814 9.06,3.172 9.06,3.614 L9.06,6.483 L12.523,3.02 C12.836,2.707 13.342,2.707 13.654,3.02 C13.966,3.332 13.966,3.839 13.654,4.151 M12.571,0 L3.427,0 C1.542,0 0,1.543 0,3.428 L0,8.571 C0,10.457 1.542,12 3.427,12 L12.571,12 C14.457,12 16,10.457 16,8.571 L16,3.428 C16,1.543 14.457,0 12.571,0"></path>
            </g>
            <path d="M12.9997,15.3956 L2.9987,15.3956 C2.4467,15.3956 1.9987,14.9476 1.9987,14.3956 C1.9987,13.8436 2.4467,13.3956 2.9987,13.3956 L12.9997,13.3956 C13.5517,13.3956 13.9987,13.8436 13.9987,14.3956 C13.9987,14.9476 13.5517,15.3956 12.9997,15.3956" id="Fill-4"></path>
        </g>
    </g>
</svg>