<?xml version="1.0" encoding="UTF-8"?>
<svg width="16px" height="16px" viewBox="0 0 16 16" version="1.1" xmlns="http://www.w3.org/2000/svg" xmlns:xlink="http://www.w3.org/1999/xlink">
    <title>编组备份</title>
    <defs>
        <linearGradient x1="100%" y1="3.70615247%" x2="0%" y2="96.2938475%" id="linearGradient-1">
            <stop stop-color="#3D72FA" offset="0%"></stop>
            <stop stop-color="#62B6FF" offset="100%"></stop>
        </linearGradient>
    </defs>
    <g id="页面-1" stroke="none" stroke-width="1" fill="none" fill-rule="evenodd">
        <g id="Y0蓝白版备份-9" transform="translate(-1364.000000, -907.000000)" fill="url(#linearGradient-1)">
            <g id="编组备份" transform="translate(1364.000000, 907.000000)">
                <path d="M12.9997,13.3958 C13.5517,13.3958 13.9987,13.8438 13.9987,14.3958 C13.9987,14.9478 13.5517,15.3958 12.9997,15.3958 L2.9987,15.3958 C2.4467,15.3958 1.9987,14.9478 1.9987,14.3958 C1.9987,13.8438 2.4467,13.3958 2.9987,13.3958 L12.9997,13.3958 Z M12.571,0.0002 C14.457,0.0002 16,1.5432 16,3.4282 L16,3.4282 L16,8.5712 C16,10.4572 14.457,12.0002 12.571,12.0002 L12.571,12.0002 L3.427,12.0002 C1.542,12.0002 0,10.4572 0,8.5712 L0,8.5712 L0,3.4282 C0,1.5432 1.542,0.0002 3.427,0.0002 L3.427,0.0002 Z M13.654,3.0202 C13.342,2.7072 12.836,2.7072 12.523,3.0202 L12.523,3.0202 L9.06,6.4832 L9.06,3.6142 C9.06,3.1722 8.702,2.8142 8.259,2.8142 L8.259,2.8142 L2.91,2.8142 C2.467,2.8142 2.11,3.1722 2.11,3.6142 C2.11,4.0562 2.467,4.4142 2.91,4.4142 L2.91,4.4142 L3.809,4.4142 L3.809,8.4142 C3.809,8.8562 4.168,9.2142 4.61,9.2142 C5.051,9.2142 5.41,8.8562 5.41,8.4142 L5.41,8.4142 L5.41,4.4142 L7.46,4.4142 L7.46,8.4162 C7.461,8.5202 7.481,8.6232 7.521,8.7202 C7.602,8.9162 7.758,9.0712 7.954,9.1522 C8.049,9.1922 8.149,9.2112 8.25,9.2132 L8.25,9.2132 L8.266,9.2132 C8.369,9.2122 8.469,9.1922 8.565,9.1522 C8.664,9.1122 8.752,9.0532 8.826,8.9802 L8.826,8.9802 L13.654,4.1512 C13.966,3.8392 13.966,3.3322 13.654,3.0202 Z" id="形状结合"></path>
            </g>
        </g>
    </g>
</svg>