<?xml version="1.0" encoding="UTF-8"?>
<svg width="20px" height="20px" viewBox="0 0 20 20" version="1.1" xmlns="http://www.w3.org/2000/svg" xmlns:xlink="http://www.w3.org/1999/xlink">
    <title>G</title>
    <g id="页面-1" stroke="none" stroke-width="1" fill="none" fill-rule="evenodd">
        <g id="画板" transform="translate(-870.000000, -198.000000)">
            <g id="G" transform="translate(870.000000, 198.000000)">
                <rect id="矩形" fill="#5A6074" x="0" y="0" width="20" height="20" rx="10"></rect>
                <path d="M10.1611328,14.1171875 C10.8642578,14.1171875 11.5048828,14.0126953 12.0830078,13.8037109 C12.6611328,13.5947266 13.1083984,13.3007812 13.4248047,12.921875 L13.4248047,12.921875 L13.4248047,9.51757812 L10.0673828,9.51757812 L10.0673828,10.8125 L11.6669922,10.8125 L11.6669922,12.2832031 C11.3857422,12.5644531 10.9150391,12.7050781 10.2548828,12.7050781 C9.59863281,12.7050781 9.10058594,12.4765625 8.76074219,12.0195312 C8.42089844,11.5625 8.25097656,10.8867188 8.25097656,9.9921875 L8.25097656,9.9921875 L8.25097656,9.44726562 C8.25488281,8.56054688 8.41308594,7.89257812 8.72558594,7.44335938 C9.03808594,6.99414062 9.49316406,6.76953125 10.0908203,6.76953125 C10.5595703,6.76953125 10.9277344,6.8828125 11.1953125,7.109375 C11.4628906,7.3359375 11.6357422,7.69335938 11.7138672,8.18164062 L11.7138672,8.18164062 L13.4248047,8.18164062 C13.3193359,7.25976562 12.9814453,6.55761719 12.4111328,6.07519531 C11.8408203,5.59277344 11.0498047,5.3515625 10.0380859,5.3515625 C9.31152344,5.3515625 8.67773438,5.51660156 8.13671875,5.84667969 C7.59570312,6.17675781 7.18164062,6.65332031 6.89453125,7.27636719 C6.60742188,7.89941406 6.46386719,8.63671875 6.46386719,9.48828125 L6.46386719,9.48828125 L6.46386719,10.0683594 C6.47167969,10.8964844 6.62695312,11.6171875 6.9296875,12.2304688 C7.23242188,12.84375 7.66210938,13.3115234 8.21875,13.6337891 C8.77539062,13.9560547 9.42285156,14.1171875 10.1611328,14.1171875 Z" fill="#FFFFFF" fill-rule="nonzero"></path>
            </g>
        </g>
    </g>
</svg>