<?xml version="1.0" encoding="UTF-8"?>
<svg width="20px" height="20px" viewBox="0 0 20 20" version="1.1" xmlns="http://www.w3.org/2000/svg" xmlns:xlink="http://www.w3.org/1999/xlink">
    <title>J</title>
    <g id="页面-1" stroke="none" stroke-width="1" fill="none" fill-rule="evenodd">
        <g id="画板" transform="translate(-960.000000, -198.000000)">
            <g id="J" transform="translate(960.000000, 198.000000)">
                <rect id="矩形" fill="#5A6074" x="0" y="0" width="20" height="20" rx="10"></rect>
                <path d="M9.36523438,14.1171875 C9.91601562,14.1171875 10.4101562,14.0039062 10.8476562,13.7773438 C11.2851562,13.5507812 11.6240234,13.2294922 11.8642578,12.8134766 C12.1044922,12.3974609 12.2246094,11.9179688 12.2246094,11.375 L12.2246094,11.375 L12.2246094,5.46875 L10.4667969,5.46875 L10.4667969,11.375 C10.4667969,11.8007812 10.3671875,12.1289062 10.1679688,12.359375 C9.96875,12.5898438 9.70117188,12.7050781 9.36523438,12.7050781 C8.98632812,12.7050781 8.70898438,12.6054688 8.53320312,12.40625 C8.35742188,12.2070312 8.26953125,11.8984375 8.26953125,11.4804688 L8.26953125,11.4804688 L6.5,11.4804688 C6.5,12.3203125 6.75195312,12.9697266 7.25585938,13.4287109 C7.75976562,13.8876953 8.46289062,14.1171875 9.36523438,14.1171875 Z" fill="#FFFFFF" fill-rule="nonzero"></path>
            </g>
        </g>
    </g>
</svg>