<?xml version="1.0" encoding="UTF-8"?>
<svg width="20px" height="20px" viewBox="0 0 20 20" version="1.1" xmlns="http://www.w3.org/2000/svg" xmlns:xlink="http://www.w3.org/1999/xlink">
    <!-- Generator: Sketch 61.1 (89650) - https://sketch.com -->
    <title>编组 21</title>
    <desc>Created with Sketch.</desc>
    <g id="页面-1" stroke="none" stroke-width="1" fill="none" fill-rule="evenodd">
        <g id="组件_1" transform="translate(-50.000000, -459.000000)">
            <g id="编组-21" transform="translate(50.000000, 459.000000)">
                <rect id="矩形" fill="#5A6074" x="0" y="0" width="20" height="20" rx="10"></rect>
                <path d="M15.0963087,10.8925243 L15.1296282,10.8992304 C15.1436773,10.9051765 15.156233,10.9150568 15.1653722,10.9287915 L15.1762783,10.9522747 L15.2618535,11.2527438 L15.3371247,11.5460196 L15.3456982,11.6026545 L15.3445365,11.6596062 L15.3445365,11.6596062 L15.3337549,11.7158091 L15.1950614,12.176859 C15.0476789,12.6340776 14.8744003,13.0793513 14.6767653,13.5086207 L14.4710685,13.932405 L14.4606997,13.9531426 L14.285872,14.27963 C13.6871308,15.3535581 12.931282,16.2806695 12.0997822,16.9654066 L11.8481442,17.1634609 L11.7558434,17.2218382 C11.6918443,17.2554964 11.6233655,17.2785428 11.5531126,17.2904264 L11.446741,17.299811 L11.4359834,17.299811 L11.3551257,17.2942522 L11.2749017,17.2787565 L11.2749017,17.2787565 L11.1962043,17.2531513 L10.8957312,17.1243197 C10.5733686,16.9756755 10.245697,16.7914727 9.91883248,16.5751429 L9.67393092,16.4069254 L9.64643072,16.3745716 C9.62790951,16.3356412 9.64291892,16.286486 9.68119804,16.264718 L9.71411013,16.2541149 L10.1743706,16.191746 C10.4813648,16.1441749 10.7884805,16.0846392 11.0945999,16.0132523 L11.5528919,15.8972976 L11.5971214,15.8782449 L11.6318246,15.8518044 L11.9061266,15.5878327 C12.0883547,15.4067428 12.2690842,15.2156566 12.4470027,15.0159028 L12.7116082,14.7099374 L13.0357191,14.3098832 C13.3538668,13.9024225 13.6537893,13.4732277 13.9324629,13.0266662 L14.2039416,12.5744776 L14.4271326,12.1739229 C14.6440335,11.7706262 14.8418512,11.3595103 15.0186721,10.9442388 C15.0334477,10.9095032 15.064943,10.8925243 15.0963087,10.8925243 Z M4.57329781,12.9581112 C4.94100231,13.4538707 5.35186706,13.9278557 5.80044842,14.3730672 C5.82429672,14.395749 5.85332943,14.4119503 5.8792515,14.41869 C6.35829128,14.5660569 6.87258508,14.6890571 7.40787574,14.7840615 C8.2491764,14.9338911 9.1223612,15.0101019 10.003193,15.0106204 C10.6154722,15.0108796 11.2250296,14.9747183 11.822274,14.9025254 C11.9008179,14.8930638 11.9485145,14.9857352 11.8942077,15.043023 C11.7489146,15.1966112 11.6038806,15.3421636 11.4598835,15.4790321 C11.418149,15.5186929 11.3672121,15.5466887 11.3113501,15.5609458 C10.6878725,15.720211 10.0573442,15.829374 9.42991822,15.8868422 L8.96008906,15.9202257 L8.93701843,15.9215218 C7.45142481,15.9931963 6.01832338,15.7596385 4.85079352,15.2610275 C4.63551076,15.1690042 4.48179291,14.9727742 4.44770539,14.7410309 C4.3699392,14.2114431 4.36086647,13.6222345 4.42074645,12.9993273 C4.42813423,12.9223387 4.52702692,12.8958982 4.57329781,12.9581112 Z M4.78684379,6.7260706 L4.81913542,6.73281241 C4.84910029,6.74580558 4.87064775,6.77608152 4.87084372,6.81039819 L4.86344349,6.84557132 L4.68582266,7.27473543 C4.57254728,7.56399329 4.46961643,7.85937523 4.37743513,8.15984438 L4.24727598,8.6142339 L4.24142731,8.66212492 L4.24675754,8.70534996 L4.33695418,9.07524569 C4.40183225,9.32384641 4.47612327,9.57615722 4.5593412,9.83039598 L4.69080253,10.2129773 L4.87362464,10.6942671 C5.06584402,11.1741313 5.28600324,11.6491894 5.53183464,12.1146823 L5.78613944,12.5768105 L6.02018127,12.9711844 C6.17988955,13.231365 6.34684791,13.4859156 6.52039209,13.7338804 L6.7855647,14.1007688 L6.80085452,14.1337654 C6.81077451,14.1788698 6.78088013,14.2251839 6.73578773,14.2339974 L6.69950344,14.2329714 L6.3966203,14.155756 L6.10511046,14.0732914 L6.05189822,14.0523138 L6.00326554,14.0227242 L6.00326554,14.0227242 L5.9600765,13.9851564 L5.63130797,13.6334406 C5.31021445,13.2761205 5.01246012,12.9023761 4.74087256,12.515707 L4.47811198,12.1248593 L4.46541017,12.1054178 L4.27125201,11.7903804 C3.65076287,10.7442392 3.23192823,9.63743485 3.05484889,8.58466574 L3.00483135,8.23590134 L3.00024057,8.13614635 C3.00461067,7.97078738 3.0683918,7.81204117 3.18114523,7.69164905 L3.25459045,7.62427019 L3.51710011,7.42928856 C3.88041135,7.17439792 4.2959317,6.94039424 4.751849,6.73384722 C4.76364354,6.72853319 4.77556769,6.7260706 4.78684379,6.7260706 Z M13.2365877,6.05945478 L13.2729506,6.06035305 C13.4786422,6.10895693 13.6773348,6.16144911 13.867862,6.21718156 C13.9232056,6.23338285 13.972976,6.26358205 14.0132848,6.30466853 C14.463914,6.76400754 14.8747269,7.25470189 15.2392202,7.76865558 L15.5038036,8.15835548 L15.516635,8.17766742 C16.3230705,9.42581491 16.8399565,10.7814094 16.9948409,12.0405737 C17.0234847,12.2737427 16.9317206,12.5071709 16.7478036,12.6533714 C16.3285141,12.9863403 15.8232931,13.2898877 15.2544333,13.5505341 C15.1839253,13.582807 15.111862,13.5104845 15.14245,13.4393284 C15.3868951,12.8724128 15.5906425,12.2791863 15.7505817,11.6678144 C15.7583583,11.6358007 15.7578399,11.6026204 15.7505817,11.5766983 C15.6376911,11.0883266 15.486047,10.5818094 15.2997969,10.0711447 C15.0072664,9.26820874 14.6350256,8.47460469 14.1937024,7.71236633 C13.8866555,7.18264891 13.549539,6.67353953 13.1874078,6.19294442 C13.1557829,6.15095068 13.1701264,6.09789685 13.2060141,6.07260843 L13.2365877,6.05945478 Z M9.62117952,8.23693822 L9.70316525,8.24359636 L9.78394129,8.26376276 L9.78394129,8.26376276 L9.8618659,8.29772547 L11.2829136,9.0634633 L11.3556257,9.11105335 C11.4685227,9.19962104 11.5387863,9.33221089 11.5486563,9.47533395 L11.547189,9.56220386 L11.3939896,11.0576479 L11.3776111,11.1436679 C11.338437,11.2828063 11.2415335,11.3988283 11.1116983,11.4621182 L11.0300438,11.4935274 L9.33512952,11.9843617 L9.25272418,12.0010078 C9.08749835,12.0203476 8.92280108,11.9571306 8.81298367,11.8321898 L8.76289991,11.7646722 L7.90708289,10.3884697 L7.86408022,10.3019089 C7.80713859,10.1532028 7.82350426,9.98572583 7.90807594,9.85077427 L7.96696287,9.77411675 L9.24971631,8.3984327 C9.34834977,8.29267067 9.48379257,8.23693822 9.62117952,8.23693822 Z M12.610334,7.07898333 L12.6171223,7.07938836 L13.1410073,7.12073405 L13.2173903,7.13577695 C13.2665653,7.15150841 13.3116332,7.17828914 13.3489164,7.21398059 L13.398543,7.27393347 L13.4867145,7.41199682 C13.5492403,7.51186867 13.6060453,7.60712695 13.6732309,7.72245426 L13.744473,7.84538541 L13.8751554,8.07497301 C13.9987539,8.29561438 14.1033059,8.49400839 14.2086605,8.7114769 L14.3150177,8.93683401 L14.3382483,9.00721445 C14.34837,9.05532013 14.3477908,9.10518366 14.3366889,9.15312733 L14.3121662,9.22314323 L14.0561858,9.75791546 L14.026211,9.80164274 C13.978764,9.85163633 13.9044925,9.86772961 13.8405706,9.84197316 L13.7951506,9.81468478 L12.6544501,8.86114158 L12.6069499,8.81243037 C12.5788447,8.77710751 12.5580706,8.73649492 12.5458751,8.693039 L12.5341717,8.62602844 L12.4351494,7.26032438 C12.4278912,7.16156131 12.5064351,7.07886992 12.6036428,7.07886992 L12.610334,7.07898333 Z M8.81171116,3.04693878 C9.30889639,3.24472415 9.82370862,3.53181103 10.3329476,3.8952384 C10.3959382,3.94034279 10.3693681,4.03910587 10.2923796,4.04791937 C9.67906349,4.11816817 9.0631552,4.23676162 8.45333859,4.40227401 C8.42171367,4.41160596 8.39306979,4.42858491 8.37427629,4.44763763 C8.00696061,4.78877202 7.64314441,5.1724186 7.2929373,5.58820854 C6.742223,6.24170383 6.23933492,6.95948584 5.79801174,7.72185381 C5.49122409,8.25170084 5.21761668,8.79761955 4.98120744,9.35079645 C4.95010096,9.42350784 4.84602386,9.41845304 4.82347167,9.34276061 C4.76333247,9.14017966 4.70980341,8.94161663 4.66340291,8.74862685 C4.64992343,8.69263519 4.65134915,8.63444015 4.66690239,8.57896693 C4.84099498,7.95953323 5.06203763,7.35892933 5.32624777,6.78697657 L5.53244018,6.36353754 L5.54293861,6.34279989 C6.22442973,5.02090412 7.1436262,3.89692333 8.15964158,3.13585147 C8.34718773,2.99535387 8.5939658,2.96048869 8.81171116,3.04693878 Z M11.5972186,4.3649592 L11.983361,4.37191163 C13.0074858,4.40891901 13.9837979,4.59308906 14.8377081,4.91055246 L15.1520412,5.03582227 L15.2405178,5.0813854 C15.3811072,5.16729098 15.485931,5.30136588 15.5338755,5.45862326 L15.5556477,5.5555597 L15.5942322,5.88020869 C15.6266062,6.23371434 15.6308645,6.60958081 15.6069053,7.0008769 L15.5836436,7.29713372 L15.5694341,7.33701948 C15.5465273,7.37021631 15.5009999,7.38243494 15.4640951,7.36547258 L15.4312218,7.33847941 L15.1472213,6.97099362 C14.9525952,6.72889772 14.747503,6.4927315 14.5326577,6.26333741 L14.2031639,5.9244307 L14.1644266,5.89564101 L14.1242312,5.87880786 L13.7584689,5.77317747 C13.5105203,5.70586515 13.2546573,5.64484704 12.9926784,5.59059297 L12.5953478,5.51434361 L12.0868719,5.43368451 C11.5749713,5.36189076 11.0533747,5.3167397 10.5272895,5.29865129 L9.99990091,5.2895993 L9.54140638,5.29651928 C9.23625911,5.30567706 8.93235124,5.32391566 8.63093026,5.35118648 L8.18081991,5.39886081 L8.14454702,5.39577176 C8.10045071,5.38198986 8.07519109,5.33295396 8.08996667,5.28944809 L8.10888618,5.25849282 L8.32638851,5.03404013 L8.54282157,4.82222445 L8.58749873,4.786524 L8.6373891,4.75903221 L8.6373891,4.75903221 L8.69148461,4.74018111 L9.16011617,4.62977695 C9.62976802,4.52883021 10.1020048,4.45632722 10.5725432,4.41291191 L11.0423568,4.37921634 L11.065557,4.37792023 C11.2436416,4.36923634 11.4209486,4.3649592 11.5972186,4.3649592 Z" id="形状结合" fill="#FFFFFF"></path>
            </g>
        </g>
    </g>
</svg>