<?xml version="1.0" encoding="UTF-8"?>
<svg width="20px" height="20px" viewBox="0 0 20 20" version="1.1" xmlns="http://www.w3.org/2000/svg" xmlns:xlink="http://www.w3.org/1999/xlink">
    <title>O</title>
    <g id="页面-1" stroke="none" stroke-width="1" fill="none" fill-rule="evenodd">
        <g id="画板" transform="translate(-810.000000, -228.000000)">
            <g id="O" transform="translate(810.000000, 228.000000)">
                <rect id="矩形" fill="#5A6074" x="0" y="0" width="20" height="20" rx="10"></rect>
                <path d="M10.0058594,14.1171875 C10.7207031,14.1171875 11.3544922,13.9453125 11.9072266,13.6015625 C12.4599609,13.2578125 12.8847656,12.7695312 13.1816406,12.1367188 C13.4785156,11.5039062 13.6269531,10.7675781 13.6269531,9.92773438 L13.6269531,9.92773438 L13.6269531,9.546875 C13.6269531,8.7109375 13.4755859,7.97363281 13.1728516,7.33496094 C12.8701172,6.69628906 12.4423828,6.20605469 11.8896484,5.86425781 C11.3369141,5.52246094 10.7050781,5.3515625 9.99414062,5.3515625 C9.28320312,5.3515625 8.65136719,5.52246094 8.09863281,5.86425781 C7.54589844,6.20605469 7.11816406,6.69628906 6.81542969,7.33496094 C6.51269531,7.97363281 6.36132812,8.71289062 6.36132812,9.55273438 L6.36132812,9.55273438 L6.36132812,9.97460938 C6.36523438,10.7949219 6.51953125,11.5205078 6.82421875,12.1513672 C7.12890625,12.7822266 7.55859375,13.2675781 8.11328125,13.6074219 C8.66796875,13.9472656 9.29882812,14.1171875 10.0058594,14.1171875 Z M10.0058594,12.6757812 C9.40429688,12.6757812 8.94335938,12.4355469 8.62304688,11.9550781 C8.30273438,11.4746094 8.14257812,10.7988281 8.14257812,9.92773438 L8.14257812,9.92773438 L8.14257812,9.51171875 C8.14648438,8.625 8.30859375,7.95214844 8.62890625,7.49316406 C8.94921875,7.03417969 9.40429688,6.8046875 9.99414062,6.8046875 C10.5878906,6.8046875 11.0449219,7.03710938 11.3652344,7.50195312 C11.6855469,7.96679688 11.8457031,8.64648438 11.8457031,9.54101562 L11.8457031,9.54101562 L11.8457031,9.95703125 C11.8417969,10.84375 11.6816406,11.5185547 11.3652344,11.9814453 C11.0488281,12.4443359 10.5957031,12.6757812 10.0058594,12.6757812 Z" fill="#FFFFFF" fill-rule="nonzero"></path>
            </g>
        </g>
    </g>
</svg>