<?xml version="1.0" encoding="UTF-8"?>
<svg width="20px" height="20px" viewBox="0 0 20 20" version="1.1" xmlns="http://www.w3.org/2000/svg" xmlns:xlink="http://www.w3.org/1999/xlink">
    <title>S</title>
    <g id="页面-1" stroke="none" stroke-width="1" fill="none" fill-rule="evenodd">
        <g id="画板" transform="translate(-930.000000, -228.000000)">
            <g id="S" transform="translate(930.000000, 228.000000)">
                <rect id="矩形" fill="#5A6074" x="0" y="0" width="20" height="20" rx="10"></rect>
                <path d="M10.1669922,14.1171875 C11.1123047,14.1171875 11.8642578,13.9072266 12.4228516,13.4873047 C12.9814453,13.0673828 13.2607422,12.4882812 13.2607422,11.75 C13.2607422,11.0859375 13.0322266,10.53125 12.5751953,10.0859375 C12.1181641,9.640625 11.3896484,9.26757812 10.3896484,8.96679688 C9.84667969,8.80273438 9.43554688,8.62695312 9.15625,8.43945312 C8.87695312,8.25195312 8.73730469,8.01953125 8.73730469,7.7421875 C8.73730469,7.4453125 8.85644531,7.20605469 9.09472656,7.02441406 C9.33300781,6.84277344 9.66699219,6.75195312 10.0966797,6.75195312 C10.5419922,6.75195312 10.8876953,6.86035156 11.1337891,7.07714844 C11.3798828,7.29394531 11.5029297,7.59765625 11.5029297,7.98828125 L11.5029297,7.98828125 L13.2607422,7.98828125 C13.2607422,7.4765625 13.1289062,7.01953125 12.8652344,6.6171875 C12.6015625,6.21484375 12.2314453,5.90332031 11.7548828,5.68261719 C11.2783203,5.46191406 10.7353516,5.3515625 10.1259766,5.3515625 C9.52050781,5.3515625 8.97460938,5.453125 8.48828125,5.65625 C8.00195312,5.859375 7.62890625,6.14160156 7.36914062,6.50292969 C7.109375,6.86425781 6.97949219,7.27539062 6.97949219,7.73632812 C6.97949219,8.62304688 7.46386719,9.328125 8.43261719,9.8515625 C8.78808594,10.0429688 9.27050781,10.2373047 9.87988281,10.4345703 C10.4892578,10.6318359 10.9111328,10.8193359 11.1455078,10.9970703 C11.3798828,11.1748047 11.4970703,11.4296875 11.4970703,11.7617188 C11.4970703,12.0664062 11.3798828,12.3037109 11.1455078,12.4736328 C10.9111328,12.6435547 10.5849609,12.7285156 10.1669922,12.7285156 C9.04199219,12.7285156 8.47949219,12.2578125 8.47949219,11.3164062 L8.47949219,11.3164062 L6.71582031,11.3164062 C6.71582031,11.8671875 6.85742188,12.3515625 7.140625,12.7695312 C7.42382812,13.1875 7.83496094,13.5166016 8.37402344,13.7568359 C8.91308594,13.9970703 9.51074219,14.1171875 10.1669922,14.1171875 Z" fill="#FFFFFF" fill-rule="nonzero"></path>
            </g>
        </g>
    </g>
</svg>