<?xml version="1.0" encoding="UTF-8"?>
<svg width="18px" height="18px" viewBox="0 0 18 18" version="1.1" xmlns="http://www.w3.org/2000/svg" xmlns:xlink="http://www.w3.org/1999/xlink">
    <title>刷新黑@2x</title>
    <g id="页面-1" stroke="none" stroke-width="1" fill="none" fill-rule="evenodd">
        <g id="设置黑色" transform="translate(-225.000000, -105.000000)">
            <g id="刷新黑" transform="translate(225.000000, 105.000000)">
                <g id="编组-5" fill="#242424" stroke="#333333" stroke-width="0.5">
                    <rect id="矩形" x="0.25" y="0.25" width="17.5" height="17.5" rx="8.75"></rect>
                </g>
                <path d="M7.29290882,3.43541744 C10.2256099,3.43541744 12.7147784,5.55358125 13.2060353,8.41283623 C13.2591099,8.72174508 13.0181481,9.00275675 12.7047582,8.9974299 L12.3575129,8.99281708 L11.6150304,8.9905157 C11.3568767,8.99128809 11.088067,8.99360052 10.808612,8.99750443 C10.5324959,9.00126258 10.3055726,8.78051324 10.3017646,8.50439712 C10.2979565,8.22828101 10.5187059,8.00135767 10.794822,7.99754966 L11.2119387,7.99286019 L12.0800826,7.99041744 L12.0625589,7.92961445 C11.4412808,5.95585966 9.63787619,4.53612071 7.52088922,4.44055459 L7.29290882,4.43541744 C4.85410575,4.43541744 2.78229457,6.19386019 2.3676322,8.56894175 C2.32013926,8.84096938 2.06111665,9.0229907 1.78908902,8.97549775 C1.51706139,8.92800481 1.33504007,8.6689822 1.38253301,8.39695457 C1.88042365,5.54516245 4.36614194,3.43541744 7.29290882,3.43541744 Z" id="椭圆形备份-4" fill="#888888" transform="translate(7.294196, 6.216485) rotate(-30.000000) translate(-7.294196, -6.216485) "></path>
                <path d="M10.5429088,9.06458256 C13.4756099,9.06458256 15.9647784,11.1827464 16.4560353,14.0420014 C16.5091099,14.3509102 16.2681481,14.6319219 15.9547582,14.626595 L15.6075129,14.6219822 L14.8650304,14.6196808 C14.6068767,14.6204532 14.338067,14.6227656 14.058612,14.6266696 C13.7824959,14.6304277 13.5555726,14.4096784 13.5517646,14.1335622 C13.5479565,13.8574461 13.7687059,13.6305228 14.044822,13.6267148 L14.4619387,13.6220253 L15.3300826,13.6195826 L15.3125589,13.5587796 C14.6912808,11.5850248 12.8878762,10.1652858 10.7708892,10.0697197 L10.5429088,10.0645826 C8.10410575,10.0645826 6.03229457,11.8230253 5.6176322,14.1981069 C5.57013926,14.4701345 5.31111665,14.6521558 5.03908902,14.6046629 C4.76706139,14.5571699 4.58504007,14.2981473 4.63253301,14.0261197 C5.13042365,11.1743276 7.61614194,9.06458256 10.5429088,9.06458256 Z" id="椭圆形备份-5" fill="#569FFD" fill-rule="nonzero" transform="translate(10.544196, 11.845650) scale(-1, -1) rotate(-30.000000) translate(-10.544196, -11.845650) "></path>
            </g>
        </g>
    </g>
</svg>