<?xml version="1.0" encoding="UTF-8"?>
<svg width="10px" height="10px" viewBox="0 0 10 10" version="1.1" xmlns="http://www.w3.org/2000/svg" xmlns:xlink="http://www.w3.org/1999/xlink">
    <title>路径@2x</title>
    <g id="页面-1" stroke="none" stroke-width="1" fill="none" fill-rule="evenodd">
        <g id="设置备份-6" transform="translate(-345.000000, -59.000000)" fill="#000000">
            <path d="M351.348761,64 L354.720663,67.3719018 C355.093112,67.7443518 355.093112,68.3482125 354.720663,68.7206625 C354.348213,69.0931125 353.744352,69.0931125 353.371902,68.7206625 L350,65.3487607 L346.628098,68.7206625 C346.255648,69.0931125 345.651787,69.0931125 345.279337,68.7206625 C344.906888,68.3482125 344.906888,67.7443518 345.279337,67.3719018 L348.651239,64 L345.279337,60.6280982 C344.906888,60.2556482 344.906888,59.6517875 345.279337,59.2793375 C345.651787,58.9068875 346.255648,58.9068875 346.628098,59.2793375 L350,62.6512393 L353.371902,59.2793375 C353.744352,58.9068875 354.348213,58.9068875 354.720663,59.2793375 C355.093112,59.6517875 355.093112,60.2556482 354.720663,60.6280982 L351.348761,64 Z" id="路径"></path>
        </g>
    </g>
</svg>