<?xml version="1.0" encoding="UTF-8"?>
<svg width="20px" height="20px" viewBox="0 0 20 20" version="1.1" xmlns="http://www.w3.org/2000/svg" xmlns:xlink="http://www.w3.org/1999/xlink">
    <title>编组备份 2</title>
    <g id="页面-1" stroke="none" stroke-width="1" fill="none" fill-rule="evenodd">
        <g id="虚拟足球详情页" transform="translate(-335.000000, -56.000000)">
            <g id="编组备份-2" transform="translate(335.000000, 56.000000)">
                <rect id="矩形" opacity="0.100000001" fill-rule="nonzero" x="0" y="0" width="20" height="20"></rect>
                <path d="M10,15.4 C10.3727922,15.4 10.675,15.7022078 10.675,16.075 L10.675,18.325 C10.675,18.6977922 10.3727922,19 10,19 C9.62720779,19 9.325,18.6977922 9.325,18.325 L9.325,17.875 L9.325,17.875 L1.675,17.875 C1.30220779,17.875 1,17.5727922 1,17.2 C1,16.8272078 1.30220779,16.525 1.675,16.525 L9.325,16.525 L9.325,16.075 C9.325,15.7022078 9.62720779,15.4 10,15.4 Z M18.325,16.525 C18.6977922,16.525 19,16.8272078 19,17.2 C19,17.5727922 18.6977922,17.875 18.325,17.875 L13.375,17.875 C13.0022078,17.875 12.7,17.5727922 12.7,17.2 C12.7,16.8272078 13.0022078,16.525 13.375,16.525 L18.325,16.525 Z M6.4,8.308 C6.77279221,8.308 7.075,8.61020779 7.075,8.983 L7.075,11.233 C7.075,11.6057922 6.77279221,11.908 6.4,11.908 C6.02720779,11.908 5.725,11.6057922 5.725,11.233 L5.725,10.783 L5.725,10.783 L1.675,10.783 C1.30220779,10.783 1,10.4807922 1,10.108 C1,9.73520779 1.30220779,9.433 1.675,9.433 L5.725,9.433 L5.725,8.983 C5.725,8.61020779 6.02720779,8.308 6.4,8.308 Z M18.325,9.433 C18.6977922,9.433 19,9.73520779 19,10.108 C19,10.4807922 18.6977922,10.783 18.325,10.783 L9.775,10.783 C9.40220779,10.783 9.1,10.4807922 9.1,10.108 C9.1,9.73520779 9.40220779,9.433 9.775,9.433 L18.325,9.433 Z M12.7,1 C13.0727922,1 13.375,1.30220779 13.375,1.675 L13.375,3.925 C13.375,4.29779221 13.0727922,4.6 12.7,4.6 C12.3272078,4.6 12.025,4.29779221 12.025,3.925 L12.0260165,3.47499925 L12.0260165,3.47499925 L1.675,3.475 C1.30220779,3.475 1,3.17279221 1,2.8 C1,2.42720779 1.30220779,2.125 1.675,2.125 L12.025,2.125 L12.025,1.675 C12.025,1.30220779 12.3272078,1 12.7,1 Z M18.325,2.125 C18.6977922,2.125 19,2.42720779 19,2.8 C19,3.17279221 18.6977922,3.475 18.325,3.475 L16.075,3.475 C15.7022078,3.475 15.4,3.17279221 15.4,2.8 C15.4,2.42720779 15.7022078,2.125 16.075,2.125 L18.325,2.125 Z" id="形状结合备份-10" fill="#000000"></path>
            </g>
        </g>
    </g>
</svg>