<?xml version="1.0" encoding="UTF-8"?>
<svg width="24px" height="24px" viewBox="0 0 24 24" version="1.1" xmlns="http://www.w3.org/2000/svg" xmlns:xlink="http://www.w3.org/1999/xlink">
    <title>编组 20@2x</title>
    <g id="页面-1" stroke="none" stroke-width="1" fill="none" fill-rule="evenodd">
        <g id="设置备份-6" transform="translate(-288.000000, -648.000000)">
            <g id="编组-20" transform="translate(288.000000, 648.000000)">
                <rect id="换肤按钮备份-4" stroke="#E4E4E4" stroke-width="0.5" fill="#FFFFFF" x="0.25" y="0.25" width="23.5" height="23.5" rx="11.75"></rect>
                <path d="M12.3333333,17.3333333 C12.8856181,17.3333333 13.3333333,17.7810486 13.3333333,18.3333333 L13.3333333,19 C13.3333333,19.5522847 12.8856181,20 12.3333333,20 L11.6666667,20 C11.1143819,20 10.6666667,19.5522847 10.6666667,19 L10.6666667,18.3333333 C10.6666667,17.7810486 11.1143819,17.3333333 11.6666667,17.3333333 L12.3333333,17.3333333 Z M17.421152,15.5355339 L17.8925565,16.0069384 C18.2830808,16.3974627 18.2830808,17.0306277 17.8925565,17.421152 L17.421152,17.8925565 C17.0306277,18.2830808 16.3974627,18.2830808 16.0069384,17.8925565 L15.5355339,17.421152 C15.1450096,17.0306277 15.1450096,16.3974627 15.5355339,16.0069384 L16.0069384,15.5355339 C16.3974627,15.1450096 17.0306277,15.1450096 17.421152,15.5355339 Z M7.99306157,15.5355339 L8.46446609,16.0069384 C8.85499039,16.3974627 8.85499039,17.0306277 8.46446609,17.421152 L7.99306157,17.8925565 C7.60253728,18.2830808 6.9693723,18.2830808 6.57884801,17.8925565 L6.10744349,17.421152 C5.7169192,17.0306277 5.7169192,16.3974627 6.10744349,16.0069384 L6.57884801,15.5355339 C6.9693723,15.1450096 7.60253728,15.1450096 7.99306157,15.5355339 Z M12,7.33333333 C14.5773288,7.33333333 16.6666667,9.42267117 16.6666667,12 C16.6666667,14.5773288 14.5773288,16.6666667 12,16.6666667 C9.42267117,16.6666667 7.33333333,14.5773288 7.33333333,12 C7.33333333,9.42267117 9.42267117,7.33333333 12,7.33333333 Z M5.66666667,10.6666667 C6.21895142,10.6666667 6.66666667,11.1143819 6.66666667,11.6666667 L6.66666667,12.3333333 C6.66666667,12.8856181 6.21895142,13.3333333 5.66666667,13.3333333 L5,13.3333333 C4.44771525,13.3333333 4,12.8856181 4,12.3333333 L4,11.6666667 C4,11.1143819 4.44771525,10.6666667 5,10.6666667 L5.66666667,10.6666667 Z M19,10.6666667 C19.5522847,10.6666667 20,11.1143819 20,11.6666667 L20,12.3333333 C20,12.8856181 19.5522847,13.3333333 19,13.3333333 L18.3333333,13.3333333 C17.7810486,13.3333333 17.3333333,12.8856181 17.3333333,12.3333333 L17.3333333,11.6666667 C17.3333333,11.1143819 17.7810486,10.6666667 18.3333333,10.6666667 L19,10.6666667 Z M7.99306157,6.10744349 L8.46446609,6.57884801 C8.85499039,6.9693723 8.85499039,7.60253728 8.46446609,7.99306157 L7.99306157,8.46446609 C7.60253728,8.85499039 6.9693723,8.85499039 6.57884801,8.46446609 L6.10744349,7.99306157 C5.7169192,7.60253728 5.7169192,6.9693723 6.10744349,6.57884801 L6.57884801,6.10744349 C6.9693723,5.7169192 7.60253728,5.7169192 7.99306157,6.10744349 Z M17.421152,6.10744349 L17.8925565,6.57884801 C18.2830808,6.9693723 18.2830808,7.60253728 17.8925565,7.99306157 L17.421152,8.46446609 C17.0306277,8.85499039 16.3974627,8.85499039 16.0069384,8.46446609 L15.5355339,7.99306157 C15.1450096,7.60253728 15.1450096,6.9693723 15.5355339,6.57884801 L16.0069384,6.10744349 C16.3974627,5.7169192 17.0306277,5.7169192 17.421152,6.10744349 Z M12.3333333,4 C12.8856181,4 13.3333333,4.44771525 13.3333333,5 L13.3333333,5.66666667 C13.3333333,6.21895142 12.8856181,6.66666667 12.3333333,6.66666667 L11.6666667,6.66666667 C11.1143819,6.66666667 10.6666667,6.21895142 10.6666667,5.66666667 L10.6666667,5 C10.6666667,4.44771525 11.1143819,4 11.6666667,4 L12.3333333,4 Z" id="形状结合备份" fill="#FFB001"></path>
            </g>
        </g>
    </g>
</svg>