<?xml version="1.0" encoding="UTF-8"?>
<svg width="36px" height="36px" viewBox="0 0 36 36" version="1.1" xmlns="http://www.w3.org/2000/svg" xmlns:xlink="http://www.w3.org/1999/xlink">
    <title>编组 22@2x</title>
    <defs>
        <linearGradient x1="67.7636719%" y1="0%" x2="0%" y2="100%" id="linearGradient-1">
            <stop stop-color="#FFB001" offset="0%"></stop>
            <stop stop-color="#FF7000" offset="100%"></stop>
        </linearGradient>
    </defs>
    <g id="页面-1" stroke="none" stroke-width="1" fill="none" fill-rule="evenodd">
        <g id="滚球（标准参照）" transform="translate(-510.000000, -373.000000)">
            <g id="编组-22" transform="translate(510.000000, 373.000000)">
                <polygon id="矩形" fill="url(#linearGradient-1)" points="12.6 0 36 0 1.2490009e-16 36 5.1159077e-13 12.6"></polygon>
                <path d="M4.1976,16.2 L4.1976,12.9816 L6.8004,12.9816 L6.8004,16.2 L8.3016,16.2 L8.3016,8.5104 L6.8004,8.5104 L6.8004,11.6532 L4.1976,11.6532 L4.1976,8.5104 L2.6964,8.5104 L2.6964,16.2 L4.1976,16.2 Z M12.6756,16.2648 C13.5504,16.2648 14.2092,15.9624 14.7492,15.4224 C15.5268,14.6448 15.5160079,13.6836 15.5160079,12.3552 C15.5160079,11.0268 15.5268,10.0656 14.7492,9.288 C14.2092,8.748 13.5504,8.4456 12.6756,8.4456 C11.8008,8.4456 11.1312,8.748 10.5912,9.288 C9.8136,10.0656 9.8352,11.0268 9.8352,12.3552 C9.8352,13.6836 9.8136,14.6448 10.5912,15.4224 C11.1312,15.9624 11.8008,16.2648 12.6756,16.2648 Z M12.6756,14.9256 C12.2652,14.9256 11.9196,14.7636 11.7036,14.5152 C11.42658,14.2074 11.3445,13.870359 11.3369846,12.5688524 L11.3364,12.3552 C11.3364,10.8756 11.412,10.5192 11.7036,10.1952 C11.9196,9.9468 12.2652,9.7848 12.6756,9.7848 C13.086,9.7848 13.4208,9.9468 13.6368,10.1952 C13.9284,10.5192 14.0148,10.8756 14.0148,12.3552 C14.0148,13.8348 13.9284,14.1912 13.6368,14.5152 C13.4208,14.7636 13.086,14.9256 12.6756,14.9256 Z M19.7712,16.2 L19.7712,9.8496 L21.78,9.8496 L21.78,8.5104 L16.2612,8.5104 L16.2612,9.8496 L18.27,9.8496 L18.27,16.2 L19.7712,16.2 Z" id="HOT" fill="#FFFFFF" fill-rule="nonzero" transform="translate(12.238200, 12.355200) rotate(-45.000000) translate(-12.238200, -12.355200) "></path>
            </g>
        </g>
    </g>
</svg>