<?xml version="1.0" encoding="UTF-8"?>
<svg width="18px" height="18px" viewBox="0 0 18 18" version="1.1" xmlns="http://www.w3.org/2000/svg" xmlns:xlink="http://www.w3.org/1999/xlink">
    <title>投注</title>
    <defs>
        <polygon id="path-1" points="0 0 15.9998 0 15.9998 13 0 13"></polygon>
    </defs>
    <g id="页面-1" stroke="none" stroke-width="1" fill="none" fill-rule="evenodd">
        <g id="06-篮球样式" transform="translate(-1759.000000, -975.000000)">
            <g id="编组-12" transform="translate(1744.000000, 968.000000)">
                <g id="投注" transform="translate(16.000000, 8.000000)">
                    <g id="编组" transform="translate(0.000000, 3.000000)">
                        <mask id="mask-2" fill="white">
                            <use xlink:href="#path-1"></use>
                        </mask>
                        <g id="Clip-2"></g>
                    </g>
                    <path d="M13.4164,3.51366667 L11.8570667,3.51366667 L11.8570667,6.375 L4.1424,6.375 L4.1424,3.51366667 L2.58306667,3.51366667 C1.48306667,3.51366667 0.583066667,4.41433333 0.583066667,5.51366667 L0.583066667,13.4863333 C0.583066667,14.5856667 1.48306667,15.4863333 2.58306667,15.4863333 L13.4164,15.4863333 C14.5164,15.4863333 15.4164,14.5856667 15.4164,13.4863333 L15.4164,5.51366667 C15.4164,4.41433333 14.5164,3.51366667 13.4164,3.51366667" id="Fill-11" fill="#FFFFFF" opacity="0.200947"></path>
                    <path d="M12.2373333,6 L13,6 C13.2113333,6 13.3846667,6.17333333 13.3846667,6.38466667 C13.3846667,6.59666667 13.2113333,6.76933333 13,6.76933333 L13,6.76933333 L3,6.76933333 C2.788,6.76933333 2.61533333,6.59666667 2.61533333,6.38466667 C2.61533333,6.17333333 2.788,6 3,6 L3,6 L3.77533333,6 L3.77533333,1.24733333 C3.77533333,0.561333333 4.33666667,0 5.02266667,0 L5.02266667,0 L10.9893333,0 C11.6753333,0 12.2373333,0.561333333 12.2373333,1.24733333 L12.2373333,1.24733333 L12.237,3 L13.6286667,3 C14.8783333,3 15.9106447,3.9802419 15.9945011,5.20962606 L16,5.37133333 L16,13.6286667 C16,14.9326667 14.9326667,16 13.6286667,16 L13.6286667,16 L2.37133333,16 C1.06666667,16 0,14.9326667 0,13.6286667 L0,13.6286667 L0,5.37133333 C0,4.06733333 1.06666667,3 2.37133333,3 L2.37133333,3 L3.76866667,3 L3.76866667,3.92333333 L2.37133333,3.92333333 C1.57266667,3.92333333 0.922666667,4.57266667 0.922666667,5.37133333 L0.922666667,5.37133333 L0.922666667,13.6286667 C0.922666667,14.4273333 1.57266667,15.0766667 2.37133333,15.0766667 L2.37133333,15.0766667 L13.6286667,15.0766667 C14.4273333,15.0766667 15.0766667,14.4273333 15.0766667,13.6286667 L15.0766667,13.6286667 L15.0766667,5.37133333 C15.0766667,4.57266667 14.4273333,3.92333333 13.6286667,3.92333333 L13.6286667,3.92333333 L12.237,3.923 L12.2373333,6 Z M10.9893333,0.769333333 L5.02266667,0.769333333 C4.764,0.769333333 4.54466667,0.988 4.54466667,1.24733333 L4.54466667,1.24733333 L4.54466667,6 L11.468,6 L11.468,1.24733333 C11.468,0.988 11.2486667,0.769333333 10.9893333,0.769333333 L10.9893333,0.769333333 Z" id="形状结合" stroke="#FFFFFF" stroke-width="0.2" fill="#FFFFFF"></path>
                    <path d="M13.8396,8.96706667 L13.8396,9.67773333 L12.6029333,9.67773333 L12.6029333,13.0517333 L11.6782667,13.0517333 L11.6782667,9.67773333 L10.4416,9.67773333 L10.4416,8.96706667 L13.8396,8.96706667 Z M4.2982,8.9666 C5.2222,8.9666 5.76086667,9.41393333 5.76086667,10.1139333 C5.76086667,10.5672667 5.41486667,10.8599333 5.17553333,10.9572667 C5.46153333,11.0719333 5.82753333,11.3299333 5.82753333,11.8752667 C5.82753333,12.6379333 5.2222,13.0512667 4.3782,13.0512667 L2.3962,13.0512667 L2.3962,8.9666 L4.2982,8.9666 Z M9.8902,8.96673333 L9.8902,9.6774 L7.69553333,9.6774 L7.69553333,10.6360667 L9.5642,10.6360667 L9.5642,11.3474 L7.69553333,11.3474 L7.69553333,12.3400667 L9.8902,12.3400667 L9.8902,13.0514 L6.77153333,13.0514 L6.77153333,8.96673333 L9.8902,8.96673333 Z M4.28486667,11.3359333 L3.32086667,11.3359333 L3.32086667,12.3399333 L4.28486667,12.3399333 C4.70353333,12.3399333 4.90286667,12.1106 4.90286667,11.8352667 C4.90286667,11.5599333 4.70353333,11.3359333 4.28486667,11.3359333 Z M4.22486667,9.67793333 L3.32086667,9.67793333 L3.32086667,10.6192667 L4.22486667,10.6192667 C4.61753333,10.6192667 4.83686667,10.4299333 4.83686667,10.1486 C4.83686667,9.86726667 4.61753333,9.67793333 4.22486667,9.67793333 Z" id="形状结合" fill="#FFFFFF"></path>
                </g>
            </g>
        </g>
    </g>
</svg>