<?xml version="1.0" encoding="UTF-8"?>
<svg width="70" height="60" viewBox="0 0 70 60" fill="none" xmlns="http://www.w3.org/2000/svg">
    <path d="M69.4578 29.9904C65.0124 40.0165 52.7802 59.5 29.6667 59.5C13.3815 59.5 0.5 46.2997 0.5 30C0.5 13.7003 13.3815 0.5 29.6667 0.5C41.0566 0.5 50.0339 5.42916 56.6677 11.6157C63.2216 17.7276 67.4678 25.0498 69.4578 29.9904Z" fill="#1F222B"/>
    <path d="M69.4578 29.9904C65.0124 40.0165 52.7802 59.5 29.6667 59.5C13.3815 59.5 0.5 46.2997 0.5 30C0.5 13.7003 13.3815 0.5 29.6667 0.5C41.0566 0.5 50.0339 5.42916 56.6677 11.6157C63.2216 17.7276 67.4678 25.0498 69.4578 29.9904Z" fill="#4987FB" fill-opacity="0.3"/>
    <path d="M69.4578 29.9904C65.0124 40.0165 52.7802 59.5 29.6667 59.5C13.3815 59.5 0.5 46.2997 0.5 30C0.5 13.7003 13.3815 0.5 29.6667 0.5C41.0566 0.5 50.0339 5.42916 56.6677 11.6157C63.2216 17.7276 67.4678 25.0498 69.4578 29.9904Z" stroke="#4987FB"/>
</svg>