<?xml version="1.0" encoding="UTF-8"?>
<svg width="18px" height="19px" viewBox="0 0 18 19" version="1.1" xmlns="http://www.w3.org/2000/svg" xmlns:xlink="http://www.w3.org/1999/xlink">
    <title>详情数据@2x</title>
    <g id="页面-1" stroke="none" stroke-width="1" fill="none" fill-rule="evenodd">
        <g id="详情样式" transform="translate(-338.000000, -56.000000)" fill="#FFFFFF">
            <g id="形状结合" transform="translate(338.000000, 56.000000)">
                <path d="M7.58243499,8.19556008 C7.85857736,8.19556008 8.08243499,8.4194177 8.08243499,8.69556008 L8.08243499,18.4054081 C8.08243499,18.6815504 7.85857736,18.9054081 7.58243499,18.9054081 L7.02243268,18.9054081 C6.74629031,18.9054081 6.52243268,18.6815504 6.52243268,18.4054081 L6.52243268,8.69556008 C6.52243268,8.4194177 6.74629031,8.19556008 7.02243268,8.19556008 L7.58243499,8.19556008 Z M2.62242691,12.6573921 C3.05320966,12.6573921 3.40242807,13.0066105 3.40242807,13.4373932 L3.40242807,18.1254069 C3.40242807,18.5561896 3.05320966,18.9054081 2.62242691,18.9054081 C2.19164417,18.9054081 1.84242576,18.5561896 1.84242576,18.1254069 L1.84242576,13.4373932 C1.84242576,13.0066105 2.19164417,12.6573921 2.62242691,12.6573921 Z M11.9824408,10.8726593 C12.4132235,10.8726593 12.7624419,11.2218777 12.7624419,11.6526604 L12.7624419,18.1254069 C12.7624419,18.5561896 12.4132235,18.9054081 11.9824408,18.9054081 C11.551658,18.9054081 11.2024396,18.5561896 11.2024396,18.1254069 L11.2024396,11.6526604 C11.2024396,11.2218777 11.551658,10.8726593 11.9824408,10.8726593 Z M16.6624477,6.41082727 C17.0932304,6.41082727 17.4424488,6.76004568 17.4424488,7.19082842 L17.4424488,18.1254069 C17.4424488,18.5561896 17.0932304,18.9054081 16.6624477,18.9054081 C16.2316649,18.9054081 15.8824465,18.5561896 15.8824465,18.1254069 L15.8824465,7.19082842 C15.8824465,6.76004568 16.2316649,6.41082727 16.6624477,6.41082727 Z M17.6754792,1.08414308 C17.8714599,1.31585296 17.9112858,1.65529747 17.7810862,1.94196224 L17.7242643,2.04667397 L17.6571954,2.13303247 L12.3878561,7.89583209 C12.2319439,8.06634503 12.0131339,8.13976302 11.789848,8.09294241 L11.6940503,8.06544741 L11.5986592,8.01859733 L6.79178854,5.09946442 L1.9221653,10.0186795 C1.72895635,10.2137465 1.45873086,10.2613471 1.22111673,10.1537834 L1.13375421,10.1061587 L1.04072542,10.0350807 L0.967485237,9.95541267 C0.780015392,9.71531744 0.752138231,9.37442707 0.892471919,9.09362907 L0.952998768,8.99146088 L1.02313027,8.90810789 L6.24624735,3.63476081 C6.39966539,3.47986737 6.60681457,3.4143095 6.81808108,3.45661616 L6.92382775,3.48684398 L7.0159596,3.53242445 L11.802516,6.43692566 L16.7192472,1.06335262 C16.9871072,0.770408179 17.4182006,0.779960007 17.6754792,1.08414308 Z"></path>
            </g>
        </g>
    </g>
</svg>