<?xml version="1.0" encoding="UTF-8"?>
<svg width="12px" height="12px" viewBox="0 0 12 12" version="1.1" xmlns="http://www.w3.org/2000/svg" xmlns:xlink="http://www.w3.org/1999/xlink">
    <title>更好赔率说明-选中</title>
    <g id="页面-1" stroke="none" stroke-width="1" fill="none" fill-rule="evenodd">
        <g id="全屏模式-快速投注弹出-投注备份-4" transform="translate(-615.000000, -282.000000)">
            <g id="编组-31备份" transform="translate(488.000000, 16.000000)">
                <g id="编组-16" transform="translate(17.000000, 266.000000)">
                    <g id="更好赔率说明-选中" transform="translate(110.000000, 0.000000)">
                        <rect id="矩形" stroke="#FFB001" stroke-width="0.5" x="0.25" y="0.25" width="11.5" height="11.5" rx="5.75"></rect>
                        <path d="M6.49955357,4.59642857 C6.94821429,4.59642857 7.39821429,4.846875 7.04866071,5.79508929 L7.04866071,5.79508929 L6.3,7.74375 C6.20089286,7.89375 6.10044643,8.14151786 6.10044643,8.29285714 C6.10044643,8.39330357 6.10044643,8.44419643 6.20089286,8.44419643 C6.54910714,8.44419643 7.09821429,7.59508929 7.24955357,7.59508929 C7.29910714,7.59508929 7.34866071,7.64330357 7.39821429,7.75044643 C7.39821429,7.99821429 6.19955357,9.24776786 5.15089286,9.24776786 C4.75044643,9.24776786 4.50133929,8.84598214 4.50133929,8.446875 C4.50133929,7.996875 4.90044643,7.39955357 4.95133929,7.24821429 L4.95133929,7.24821429 L5.7,5.49910714 C5.79910714,5.35044643 5.7,5.25 5.59955357,5.25 C5.20044643,5.25 4.85089286,6.19821429 4.65133929,6.19821429 C4.55089286,6.19821429 4.5,6.09776786 4.5,6.046875 C4.5,5.89553571 4.79866071,5.39732143 4.95,5.24598214 C5.35044643,4.89642857 5.89955357,4.59642857 6.49955357,4.59642857 Z M7.05,2.74821429 C7.44910714,2.74821429 7.75044643,2.99732143 7.75044643,3.44866071 C7.75044643,3.9 7.35133929,4.24955357 6.90133929,4.24955357 C6.50089286,4.24955357 6.20089286,3.94821429 6.20089286,3.54910714 C6.20089286,3.09776786 6.6,2.74821429 7.05,2.74821429 Z" id="形状结合" fill="#FFB001" fill-rule="nonzero"></path>
                    </g>
                </g>
            </g>
        </g>
    </g>
</svg>