<?xml version="1.0" encoding="UTF-8"?>
<svg width="12px" height="12px" viewBox="0 0 12 12" version="1.1" xmlns="http://www.w3.org/2000/svg" xmlns:xlink="http://www.w3.org/1999/xlink">
    <title>勾选</title>
    <g id="页面-1" stroke="none" stroke-width="1" fill="none" fill-rule="evenodd">
        <g id="全屏模式-快速投注弹出-投注备份-2" transform="translate(-689.000000, -175.000000)">
            <g id="编组-31备份" transform="translate(488.000000, 34.000000)">
                <g id="编组-57" transform="translate(16.000000, 101.000000)">
                    <g id="勾选" transform="translate(185.000000, 40.000000)">
                        <rect id="矩形复制-96备份-10" stroke="#FFB001" x="1" y="1" width="10" height="10" rx="2"></rect>
                        <g id="编组" fill="#FFB001" transform="translate(2.649707, 3.647271)">
                            <path d="M2.91075,4.54907143 L2.91075,4.54907143 C2.70246429,4.75735714 2.36132143,4.75735714 2.15260714,4.54907143 L0.155892857,2.55235714 C-0.0519642857,2.34407143 -0.0519642857,2.00335714 0.155892857,1.79464286 C0.364607143,1.58635714 0.705321429,1.58635714 0.914035714,1.79464286 L2.91075,3.79135714 C3.11860714,3.99964286 3.11860714,4.34078571 2.91075,4.54907143" id="Fill-2"></path>
                            <path d="M2.15153571,4.54907143 L2.15153571,4.54907143 C2.35982143,4.75735714 2.70096429,4.75735714 2.90925,4.54907143 L6.54439286,0.913928571 C6.75267857,0.705642857 6.75267857,0.3645 6.54439286,0.156214286 C6.33610714,-0.0520714286 5.99539286,-0.0520714286 5.78667857,0.156214286 L2.15153571,3.79135714 C1.94325,3.99964286 1.94325,4.34078571 2.15153571,4.54907143" id="Fill-4"></path>
                        </g>
                    </g>
                </g>
            </g>
        </g>
    </g>
</svg>