<svg width="12" height="12" xmlns="http://www.w3.org/2000/svg"><g fill="none" fill-rule="evenodd"><path d="M0 0h12v12H0z"/><path d="M6 .5a5.5 5.5 0 100 11 5.5 5.5 0 100-11z" fill="#569FFD" fill-rule="nonzero"/><path d="M9.313 5.743a.533.533 0 01.163.392.536.536 0 01-.163.392.528.528 0 01-.391.162.541.541 0 01-.393-.162.533.533 0 01-.162-.392c0-.154.054-.283.162-.392a.534.534 0 01.393-.162c.152 0 .284.054.391.162m-.731 2.553a.535.535 0 01-.165.39.535.535 0 01-.391.165.54.54 0 01-.393-.162.533.533 0 01-.162-.392c0-.154.054-.283.162-.393a.534.534 0 01.393-.162c.153 0 .283.055.392.162a.53.53 0 01.164.392m.416-4.319a.93.93 0 01-.286.687.938.938 0 01-.686.283.942.942 0 01-.688-.283.936.936 0 01-.283-.687c0-.266.095-.494.283-.685.18-.186.43-.29.689-.286.266 0 .495.096.685.287a.927.927 0 01.286.684m-2.74 4.819a.533.533 0 01.162.392.537.537 0 01-.162.393.534.534 0 01-.393.162.54.54 0 01-.393-.162.53.53 0 01-.162-.393c0-.153.054-.282.162-.392a.534.534 0 01.393-.162.54.54 0 01.393.162m.198-6.303a.804.804 0 01.243.59.803.803 0 01-.243.59.803.803 0 01-.59.242.807.807 0 01-.59-.242.8.8 0 01-.244-.59c0-.232.082-.427.243-.59a.804.804 0 01.59-.243c.231 0 .428.081.59.243m-2.358 5.41a.533.533 0 01.162.393.54.54 0 01-.162.392.534.534 0 01-.393.162.536.536 0 01-.391-.165.534.534 0 01-.164-.39c0-.154.054-.283.161-.393a.534.534 0 01.393-.161c.154 0 .285.054.394.162m.097-4.417c.136.136.204.3.204.49a.67.67 0 01-.204.49.669.669 0 01-.491.205.667.667 0 01-.49-.204.667.667 0 01-.204-.49c0-.19.067-.353.204-.49a.668.668 0 01.49-.204c.19 0 .354.067.49.203m-.99 2.257a.533.533 0 01.161.392.538.538 0 01-.162.392.529.529 0 01-.393.162.539.539 0 01-.392-.162.528.528 0 01-.163-.391c0-.154.055-.284.163-.393a.534.534 0 01.392-.162c.154 0 .284.055.393.162" fill="#FFF" fill-rule="nonzero"/></g></svg>