<?xml version="1.0" encoding="UTF-8"?>
<svg width="19px" height="16px" viewBox="0 0 19 16" version="1.1" xmlns="http://www.w3.org/2000/svg" xmlns:xlink="http://www.w3.org/1999/xlink">
    <!-- Generator: Sketch 58 (84663) - https://sketch.com -->
    <title>188_投注弹窗_向右滑动</title>
    <desc>Created with Sketch.</desc>
    <g id="页面-1" stroke="none" stroke-width="1" fill="none" fill-rule="evenodd">
        <g id="36投注界面---投注弹窗---默认" transform="translate(-97.000000, -588.000000)" fill="#FFFFFF">
            <g id="弹框" transform="translate(48.000000, 193.000000)">
                <g id="编组-2">
                    <g transform="translate(0.000000, 379.000000)" id="pic/huakuai">
                        <g transform="translate(20.000000, 0.000000)">
                            <g id="188_投注弹窗_向右滑动" transform="translate(38.500000, 24.000000) scale(-1, 1) translate(-38.500000, -24.000000) translate(29.000000, 16.000000)">
                                <path d="M2.75910121,8 L8.80812204,1.95097918 C9.25443551,1.5046657 9.25443551,0.781048584 8.80812204,0.334735107 C8.36180856,-0.111578369 7.63819144,-0.111578369 7.19187796,0.334735107 L0.334735107,7.19187796 C-0.111578369,7.63819144 -0.111578369,8.36180856 0.334735107,8.80812204 L7.19187796,15.6652649 C7.63819144,16.1115784 8.36180856,16.1115784 8.80812204,15.6652649 C9.25443551,15.2189514 9.25443551,14.4953343 8.80812204,14.0490208 L2.75910121,8 Z" id="Path"></path>
                                <path d="M11.7591012,8 L17.808122,1.95097918 C18.2544355,1.5046657 18.2544355,0.781048584 17.808122,0.334735107 C17.3618086,-0.111578369 16.6381914,-0.111578369 16.191878,0.334735107 L9.33473511,7.19187796 C8.88842163,7.63819144 8.88842163,8.36180856 9.33473511,8.80812204 L16.191878,15.6652649 C16.6381914,16.1115784 17.3618086,16.1115784 17.808122,15.6652649 C18.2544355,15.2189514 18.2544355,14.4953343 17.808122,14.0490208 L11.7591012,8 Z" id="Path"></path>
                            </g>
                        </g>
                    </g>
                </g>
            </g>
        </g>
    </g>
</svg>