<?xml version="1.0" encoding="UTF-8"?>
<svg width="12px" height="12px" viewBox="0 0 12 12" version="1.1" xmlns="http://www.w3.org/2000/svg" xmlns:xlink="http://www.w3.org/1999/xlink">
    <title>bet_tijiao</title>
    <g id="页面-1" stroke="none" stroke-width="1" fill="none" fill-rule="evenodd">
        <g id="bet_tijiao">
            <rect id="矩形" x="0" y="0" width="12" height="12"></rect>
            <path d="M6,0.5 C2.96640625,0.5 0.5,2.9578125 0.5,6 C0.5,9.03359375 2.9578125,11.5 6,11.5 C9.03359375,11.5 11.5,9.0421875 11.5,6 C11.5,2.96640625 9.0421875,0.5 6,0.5 Z" id="形状结合备份-6" fill="#FF9124" fill-rule="nonzero"></path>
            <g id="加载" transform="translate(2.254298, 2.250011)" fill="#FFFFFF" fill-rule="nonzero">
                <path d="M7.05909248,3.4927209 C7.16522969,3.59539353 7.2240028,3.73743531 7.22141101,3.88500937 C7.22141101,4.03860662 7.16730483,4.16812069 7.05909248,4.27729783 C6.95698626,4.38365918 6.8149761,4.44246506 6.66749233,4.439458 C6.51481648,4.439458 6.38464024,4.38486943 6.27482077,4.27729783 C6.16868355,4.1746252 6.10991045,4.03258343 6.11250224,3.88500937 C6.11250224,3.73141211 6.16660842,3.60189804 6.27482077,3.4927209 C6.37759367,3.38668724 6.51977415,3.32797147 6.66749233,3.33056074 C6.81963246,3.33056074 6.95141583,3.38514931 7.05909248,3.4927209 M6.32731983,6.04553943 C6.32851048,6.19290786 6.26881964,6.33424488 6.16232277,6.43622235 C6.06031962,6.54272251 5.91879597,6.6023756 5.77125833,6.60105843 C5.61751108,6.60105843 5.48840624,6.54646986 5.37858677,6.43889826 C5.27244956,6.33622563 5.21367645,6.19418385 5.21626824,6.04660979 C5.21626824,5.89301254 5.27091012,5.76403365 5.37858677,5.65432133 C5.48135967,5.54828766 5.62354016,5.4895719 5.77125833,5.49216116 C5.92500559,5.49216116 6.05464613,5.54674973 6.16392989,5.65432133 C6.27051383,5.75633103 6.32972307,5.89810065 6.32731983,6.04553943 M6.7440981,1.72715522 C6.7440981,1.99581663 6.64874267,2.22540974 6.45749608,2.41432901 C6.27758888,2.5988347 6.02959457,2.70122611 5.77179404,2.69744034 C5.50340598,2.69744034 5.27358865,2.6027131 5.08394918,2.41432901 C4.89880612,2.23406557 4.79644653,1.9853885 4.80109708,1.72715522 C4.80109708,1.46116973 4.89591682,1.23264698 5.08394918,1.04212215 C5.26387484,0.855645587 5.51309988,0.751983863 5.77232974,0.755799744 C6.03857499,0.755799744 6.2673209,0.851597339 6.45749608,1.04265734 C6.64874267,1.23157662 6.7440981,1.46009936 6.7440981,1.72715522 M4.00343276,6.54593467 C4.10937304,6.64869905 4.1679473,6.790729 4.16521558,6.93822314 C4.16521558,7.0918204 4.1111094,7.22133446 4.00343276,7.33051161 C3.90053192,7.43668254 3.75812872,7.49541016 3.61022549,7.49267178 C3.45647824,7.49267178 3.3273734,7.43808321 3.21755393,7.33051161 C3.11108819,7.22806226 3.05225316,7.08587083 3.0552354,6.93822314 C3.0552354,6.78462588 3.10987728,6.655647 3.21755393,6.54593467 C3.32032683,6.43990101 3.46250732,6.38118524 3.61022549,6.3837745 C3.76397275,6.3837745 3.89414899,6.43836307 4.00343276,6.54593467 M4.20164351,0.242560132 C4.36342633,0.404720303 4.44485345,0.600596947 4.44485345,0.832865969 C4.44485345,1.06513499 4.36342633,1.25994127 4.20164351,1.42263662 C4.04687896,1.58151765 3.83316811,1.66928222 3.6112969,1.6650741 C3.37880105,1.6650741 3.18380453,1.58372642 3.0209503,1.42263662 C2.86155389,1.26822523 2.77347425,1.05463697 2.77774036,0.832865969 C2.77774036,0.600596947 2.85970318,0.405790666 3.0209503,0.242560132 C3.17569637,0.0839782863 3.38911124,-0.00374434285 3.6107612,0.000122646334 C3.84218564,0.000122646334 4.03825357,0.0814703244 4.2011078,0.242560132 M1.84293562,5.65325096 C1.94887591,5.75601533 2.00745017,5.89804528 2.00471845,6.04553943 C2.00471845,6.19913669 1.95061227,6.32865075 1.84293562,6.43836307 C1.73994286,6.54433727 1.59755152,6.6028662 1.44972836,6.59998807 C1.30221602,6.60117756 1.16074098,6.54154495 1.05866392,6.43515198 C0.952256974,6.33315644 0.892744504,6.19178277 0.894202568,6.04446907 C0.894202568,5.89087181 0.948308747,5.76189293 1.05598539,5.6521806 C1.15897816,5.54620641 1.3013695,5.48767748 1.44919265,5.49055562 C1.60293991,5.49055562 1.73418756,5.54460901 1.84293562,5.65325096 M1.93936247,1.23639325 C2.07543147,1.3723295 2.14346597,1.53609522 2.14346597,1.72608486 C2.14346597,1.91660968 2.07543147,2.07930504 1.93936247,2.21631164 C1.80329347,2.35278307 1.63936782,2.42128638 1.44865695,2.42128638 C1.25848177,2.42128638 1.09509184,2.35385344 0.95848714,2.21684683 C0.825598028,2.08883554 0.751709238,1.9115592 0.754383642,1.72715522 C0.754383642,1.53716558 0.821882433,1.37393505 0.95848714,1.23746361 C1.09562754,1.100457 1.25848178,1.03302406 1.44865695,1.03302406 C1.63936783,1.03302406 1.80222207,1.100457 1.93936247,1.23639325 M0.947773046,3.4927209 C1.05391025,3.59539353 1.11268336,3.73743531 1.11009156,3.88500937 C1.11009156,4.03860662 1.05544968,4.16812069 0.947773046,4.27729783 C0.845336753,4.38382543 0.702930406,4.44263447 0.555101486,4.439458 C0.401354233,4.439458 0.271713686,4.38486943 0.162429926,4.27729783 C0.0559368956,4.17508858 -0.00291747226,4.03304446 0.000111395337,3.88554455 C0.000111395337,3.7319473 0.0547532752,3.60243323 0.162429926,3.49325609 C0.265202824,3.38722242 0.40738331,3.32850665 0.555101486,3.33109592 C0.708848739,3.33109592 0.839024987,3.38568449 0.947773046,3.49325609" id="形状"></path>
            </g>
        </g>
    </g>
</svg>