<?xml version="1.0" encoding="UTF-8"?>
<svg width="12px" height="12px" viewBox="0 0 12 12" version="1.1" xmlns="http://www.w3.org/2000/svg" xmlns:xlink="http://www.w3.org/1999/xlink">
    <title>bet_shib</title>
    <g id="页面-1" stroke="none" stroke-width="1" fill="none" fill-rule="evenodd">
        <g id="bet_shib">
            <rect id="矩形" x="0" y="0" width="12" height="12"></rect>
            <path d="M6,0.5 C9.0421875,0.5 11.5,2.96640625 11.5,6 C11.5,9.0421875 9.03359375,11.5 6,11.5 C2.9578125,11.5 0.5,9.03359375 0.5,6 C0.5,2.9578125 2.96640625,0.5 6,0.5 Z M5.896875,8.0625 C5.46022487,8.0625 5.10625,8.41647487 5.10625,8.853125 C5.10625,9.28977513 5.46022487,9.64375 5.896875,9.64375 C6.33352513,9.64375 6.6875,9.28977513 6.6875,8.853125 C6.6875,8.41647487 6.33352513,8.0625 5.896875,8.0625 Z M5.90178571,1.875 C5.5763322,1.875 5.3125,2.1388322 5.3125,2.46428571 L5.3125,2.46428571 L5.3125,6.78571429 C5.3125,7.1111678 5.5763322,7.375 5.90178571,7.375 C6.22723923,7.375 6.49107143,7.1111678 6.49107143,6.78571429 L6.49107143,6.78571429 L6.49107143,2.46428571 C6.49107143,2.1388322 6.22723923,1.875 5.90178571,1.875 Z" id="投注失败" fill="#FF2A2A" fill-rule="nonzero"></path>
        </g>
    </g>
</svg>