<?xml version="1.0" encoding="UTF-8"?>
<svg width="31px" height="32px" viewBox="0 0 31 32" version="1.1" xmlns="http://www.w3.org/2000/svg" xmlns:xlink="http://www.w3.org/1999/xlink">
    <!-- Generator: Sketch 61.1 (89650) - https://sketch.com -->
    <title>编组 3</title>
    <desc>Created with Sketch.</desc>
    <defs>
        <linearGradient x1="100%" y1="50%" x2="-2.22044605e-14%" y2="50%" id="linearGradient-1">
            <stop stop-color="#FFEED8" offset="0%"></stop>
            <stop stop-color="#A2784E" offset="100%"></stop>
        </linearGradient>
        <linearGradient x1="-1.11022302e-14%" y1="50%" x2="98.9188692%" y2="58.3620568%" id="linearGradient-2">
            <stop stop-color="#E5CBAB" offset="0%"></stop>
            <stop stop-color="#BA9C7E" offset="100%"></stop>
        </linearGradient>
        <linearGradient x1="100%" y1="50%" x2="-2.22044605e-14%" y2="50%" id="linearGradient-3">
            <stop stop-color="#DAC1A7" offset="0%"></stop>
            <stop stop-color="#F6DBBA" offset="100%"></stop>
        </linearGradient>
        <radialGradient cx="69.8406859%" cy="29.9835248%" fx="69.8406859%" fy="29.9835248%" r="70.7392501%" id="radialGradient-4">
            <stop stop-color="#F7E1C6" offset="0%"></stop>
            <stop stop-color="#CCAA87" offset="100%"></stop>
        </radialGradient>
        <linearGradient x1="50%" y1="62.5%" x2="44.3714458%" y2="39.8769921%" id="linearGradient-5">
            <stop stop-color="#EFDDCD" offset="0%"></stop>
            <stop stop-color="#FAF8F2" offset="100%"></stop>
        </linearGradient>
    </defs>
    <g id="页面-1" stroke="none" stroke-width="1" fill="none" fill-rule="evenodd">
        <g id="我的" transform="translate(-128.000000, -277.000000)">
            <g id="编组-3" transform="translate(128.000000, 277.000000)">
                <path d="M4,3 L25,3 C27.209139,3 29,4.790861 29,7 L29,28 C29,29.1045695 28.1045695,30 27,30 L2,30 C0.8954305,30 1.3527075e-16,29.1045695 0,28 L0,7 C-2.705415e-16,4.790861 1.790861,3 4,3 Z" id="矩形" fill="url(#linearGradient-1)"></path>
                <path d="M4,3 L25,3 C27.209139,3 29,4.790861 29,7 L29,28 L29,28 L2,28 C0.8954305,28 1.3527075e-16,27.1045695 0,26 L0,7 C-2.705415e-16,4.790861 1.790861,3 4,3 Z" id="矩形备份" fill="#C69E79"></path>
                <path d="M4,3 L25,3 C27.209139,3 29,4.790861 29,7 L29,28 L29,28 L6.97861511,28 L0,21 L0,7 C-2.705415e-16,4.790861 1.790861,3 4,3 Z" id="矩形备份-2" fill="url(#linearGradient-2)"></path>
                <path d="M0,21 L5,21 C6.1045695,21 7,21.8954305 7,23 L7,28 L7,28 L0,21 Z" id="矩形" fill="#FEE4C7"></path>
                <path d="M0,7 L0,15.6788045 L0,15.6788045 C1.47576772,17.8483215 3.83658294,18.9552471 7.08244565,18.9995812 C11.9512397,19.0660824 15.7609063,11.1905695 20.8313853,11.1905695 C24.2117046,11.1905695 26.9345762,12.5204097 29,15.1800901 L29,7 C29,4.790861 27.209139,3 25,3 L4,3 C1.790861,3 -2.705415e-16,4.790861 0,7 Z" id="路径-3" fill="url(#linearGradient-3)"></path>
                <circle id="椭圆形" stroke="#FFFFFF" stroke-width="0.5" fill="url(#radialGradient-4)" cx="25" cy="26" r="5.75"></circle>
                <path d="M23.3377087,22.6255257 L25.0145714,24.3025714 L26.6927489,22.6255257 C26.8601165,22.4581581 27.1314729,22.4581581 27.2988404,22.6255257 C27.466208,22.7928932 27.466208,23.0642496 27.2988404,23.2316172 L25.636,24.8931429 L27.5714286,24.8939085 C27.808122,24.8939085 28,25.0857864 28,25.3224799 C28,25.5591734 27.808122,25.7510513 27.5714286,25.7510513 L25.4285714,25.7502857 L25.4285714,26.6074286 L27.5714286,26.6081942 C27.808122,26.6081942 28,26.8000722 28,27.0367656 C28,27.2734591 27.808122,27.465337 27.5714286,27.465337 L25.4285714,27.4645714 L25.4285714,29.6081942 C25.4285714,29.8448877 25.2366935,30.0367656 25,30.0367656 C24.7633065,30.0367656 24.5714286,29.8448877 24.5714286,29.6081942 L24.5714286,27.4645714 L22.4285714,27.465337 C22.191878,27.465337 22,27.2734591 22,27.0367656 C22,26.8000722 22.191878,26.6081942 22.4285714,26.6081942 L24.5714286,26.6074286 L24.5714286,25.7502857 L22.4285714,25.7510513 C22.191878,25.7510513 22,25.5591734 22,25.3224799 C22,25.0857864 22.191878,24.8939085 22.4285714,24.8939085 L24.3931429,24.8931429 L22.7316172,23.2316172 C22.5642496,23.0642496 22.5642496,22.7928932 22.7316172,22.6255257 C22.8989847,22.4581581 23.1703412,22.4581581 23.3377087,22.6255257 Z" id="路径" fill="#FFFFFF"></path>
                <rect id="矩形" fill="#B88E68" x="8" y="0" width="2" height="7" rx="1"></rect>
                <rect id="矩形备份-3" fill="#B88E68" x="19" y="0" width="2" height="7" rx="1"></rect>
                <path d="M9.5,15 C10.3284271,15 11,15.6715729 11,16.5 C11,17.3284271 10.3284271,18 9.5,18 C8.67157288,18 8,17.3284271 8,16.5 C8,15.6715729 8.67157288,15 9.5,15 Z M21,15.5 C21.5522847,15.5 22,15.9477153 22,16.5 C22,17.0522847 21.5522847,17.5 21,17.5 L15,17.5 C14.4477153,17.5 14,17.0522847 14,16.5 C14,15.9477153 14.4477153,15.5 15,15.5 L21,15.5 Z M9.5,11 C10.3284271,11 11,11.6715729 11,12.5 C11,13.3284271 10.3284271,14 9.5,14 C8.67157288,14 8,13.3284271 8,12.5 C8,11.6715729 8.67157288,11 9.5,11 Z M21,11.5 C21.5522847,11.5 22,11.9477153 22,12.5 C22,13.0522847 21.5522847,13.5 21,13.5 L15,13.5 C14.4477153,13.5 14,13.0522847 14,12.5 C14,11.9477153 14.4477153,11.5 15,11.5 L21,11.5 Z" id="形状" fill="url(#linearGradient-5)"></path>
            </g>
        </g>
    </g>
</svg>