<?xml version="1.0" encoding="UTF-8"?>
<svg width="14px" height="14px" viewBox="0 0 14 14" version="1.1" xmlns="http://www.w3.org/2000/svg" xmlns:xlink="http://www.w3.org/1999/xlink">
    <!-- Generator: Sketch 61.1 (89650) - https://sketch.com -->
    <title>中文语言</title>
    <desc>Created with Sketch.</desc>
    <g id="日间模式" stroke="none" stroke-width="1" fill="none" fill-rule="evenodd">
        <g id="我的" transform="translate(-15.000000, -373.000000)" fill="#000000" fill-rule="nonzero">
            <g id="中文语言" transform="translate(14.000000, 372.000000)">
                <rect id="矩形" opacity="0" x="0" y="0" width="16" height="16"></rect>
                <path d="M13.6061094,11.9056875 L13.0429531,11.9056875 L13.0429531,13.0319688 C13.0429531,13.6540312 12.53875,14.1582969 11.916625,14.1582969 L2.34295312,14.1582969 C1.72084375,14.1582969 1.2165625,13.6540469 1.2165625,13.0319688 L1.2165625,5.14775 C1.2165625,4.5256875 1.7208125,4.02142188 2.34295312,4.02142188 L2.90604687,4.02142188 L2.90604687,2.89503125 C2.90604687,2.27296875 3.41029687,1.76875 4.032375,1.76875 L13.6060937,1.76875 C14.2281562,1.76875 14.7324219,2.27295313 14.7324219,2.89503125 L14.7324219,10.7792813 C14.7324219,11.401375 14.2281719,11.9056875 13.6060937,11.9056875 L13.6061094,11.9056875 Z M2.34296875,4.58453125 C2.0318125,4.58453125 1.77975,4.83671875 1.77975,5.14775 L1.77975,13.0319531 C1.77975,13.3429688 2.0318125,13.5951719 2.34296875,13.5951719 L11.9166406,13.5951719 C12.2276562,13.5951719 12.4797344,13.3429844 12.4797344,13.0319531 L12.4797344,5.14775 C12.4797344,4.83673438 12.2276719,4.58453125 11.9166406,4.58453125 L2.34296875,4.58453125 Z M14.1693437,2.89504687 C14.1693437,2.58403125 13.9172344,2.33195313 13.606125,2.33195313 L4.032375,2.33195313 C3.72140625,2.33195313 3.46928125,2.58401563 3.46928125,2.89504688 L3.46928125,4.0214375 L11.916625,4.0214375 C12.5387344,4.0214375 13.0429531,4.5256875 13.0429531,5.14776562 L13.0429531,11.3424687 L13.6061094,11.3424687 C13.9172031,11.3424687 14.1693437,11.0903594 14.1693437,10.7793125 L14.1693437,2.89504687 L14.1693437,2.89504687 Z M9.10078125,9.653 L7.97439063,9.653 L7.97439063,11.9057031 L6.28496875,11.9057031 L6.28496875,9.653 L5.15865625,9.653 L5.15865625,10.2162187 L4.03226563,10.2162187 L4.03226563,6.83725 L6.28496875,6.83725 L6.28496875,5.71085938 L7.97439063,5.71085938 L7.97439063,6.83725 L10.2270938,6.83725 L10.2270938,10.2162187 L9.10076563,10.2162187 L9.10076563,9.653 L9.10078125,9.653 Z M6.28498437,7.40032812 L5.15867187,7.40032812 L5.15867187,9.0898125 L6.285,9.0898125 L6.285,7.40032812 L6.28498437,7.40032812 Z M9.10078125,7.40032812 L7.97439063,7.40032812 L7.97439063,9.0898125 L9.10078125,9.0898125 L9.10078125,7.40032812 L9.10078125,7.40032812 Z" id="形状"></path>
            </g>
        </g>
    </g>
</svg>