<svg width="12" height="12" viewBox="0 0 12 12" fill="none" xmlns="http://www.w3.org/2000/svg">
<g id="Frame 36827">
<path id="Union" fill-rule="evenodd" clip-rule="evenodd" d="M3.56785 2.18306C3.32377 1.93898 2.92804 1.93898 2.68397 2.18306C2.43989 2.42714 2.43989 2.82286 2.68396 3.06694L6.04228 6.42526L2.68306 9.78448C2.43898 10.0286 2.43898 10.4243 2.68306 10.6684C2.92714 10.9124 3.32286 10.9124 3.56694 10.6684L6.92617 7.30914L10.2854 10.6683C10.5294 10.9124 10.9252 10.9124 11.1692 10.6683C11.4133 10.4243 11.4133 10.0285 11.1692 9.78446L7.81005 6.42526L11.1683 3.06697C11.4124 2.82289 11.4124 2.42716 11.1683 2.18309C10.9243 1.93901 10.5285 1.93901 10.2845 2.18309L6.92617 5.54138L3.56785 2.18306Z" fill="#8A8986"/>
</g>
</svg>
