<?xml version="1.0" encoding="UTF-8"?>
<svg width="10px" height="10px" viewBox="0 0 10 10" version="1.1" xmlns="http://www.w3.org/2000/svg" xmlns:xlink="http://www.w3.org/1999/xlink">
    <!-- Generator: Sketch 60.1 (88133) - https://sketch.com -->
    <title>corner-kick</title>
    <desc>Created with Sketch.</desc>
    <g id="corner-kick" stroke="none" stroke-width="1" fill="none" fill-rule="evenodd">
        <g id="编组-8" transform="translate(1.500000, 1.000000)">
            <path d="M1.53,0 L1.53,0 L1.53,0 L1.53,8.75 C1.53,8.88807119 1.41807119,9 1.28,9 C1.14192881,9 1.03,8.88807119 1.03,8.75 L1.03,0.5 C1.03,0.223857625 1.25385763,5.07265313e-17 1.53,0 Z" id="矩形" fill="#CFD3DA"></path>
            <path d="M4.97029823,7.2820556 C5.49440194,7.41874422 5.79095116,7.56775365 5.85994588,7.72908388 C5.92894059,7.89041411 5.94711632,8.16706309 5.91447307,8.55903081 L1.29484715,8.5680202 L4.97029823,7.2820556 Z" id="路径-2" fill="#8EB50F"></path>
            <g id="编组-7" transform="translate(0.700000, 5.930107)" fill="#CFD3DA">
                <rect id="矩形备份-10" transform="translate(2.895632, 2.749214) rotate(-90.000000) translate(-2.895632, -2.749214) " x="2.64563229" y="0.249213762" width="1" height="5" rx="0.5"></rect>
                <rect id="矩形备份-11" transform="translate(2.540038, 1.820818) rotate(-107.000000) translate(-2.540038, -1.820818) " x="2.29003777" y="-0.179181871" width="1" height="4" rx="0.5"></rect>
            </g>
            <polygon id="路径-3" fill="#FF5A5F" points="1.52904494 0 6.52904494 5 1.52904494 5"></polygon>
        </g>
    </g>
</svg>