<?xml version="1.0" encoding="UTF-8"?>
<svg width="14px" height="14px" viewBox="0 0 14 14" version="1.1" xmlns="http://www.w3.org/2000/svg" xmlns:xlink="http://www.w3.org/1999/xlink">
    <!-- Generator: Sketch 58 (84663) - https://sketch.com -->
    <title>登录_记住密码_未选中</title>
    <desc>Created with Sketch.</desc>
    <g id="页面-1" stroke="none" stroke-width="1" fill="none" fill-rule="evenodd">
        <g id="188体育-首页" transform="translate(-80.000000, -437.000000)" fill="#FFFFFF" fill-rule="nonzero">
            <g id="编组-4">
                <g id="编组-2" transform="translate(45.000000, 213.000000)">
                    <g id="编组-8备份-2" transform="translate(35.000000, 224.000000)">
                        <path d="M7,0 C10.8659932,0 14,3.13400675 14,7 C14,10.8659932 10.8659932,14 7,14 C3.13400675,14 0,10.8659932 0,7 C0,3.13400675 3.13400675,0 7,0 Z M7,1 C3.6862915,1 1,3.6862915 1,7 C1,10.3137085 3.6862915,13 7,13 C10.3137085,13 13,10.3137085 13,7 C13,3.6862915 10.3137085,1 7,1 Z" id="登录_记住密码_未选中"></path>
                    </g>
                </g>
            </g>
        </g>
    </g>
</svg>