<?xml version="1.0" encoding="UTF-8"?>
<svg width="14px" height="14px" viewBox="0 0 14 14" version="1.1" xmlns="http://www.w3.org/2000/svg" xmlns:xlink="http://www.w3.org/1999/xlink">
    <!-- Generator: Sketch 61.1 (89650) - https://sketch.com -->
    <title>英文语言</title>
    <desc>Created with Sketch.</desc>
    <g id="日间模式" stroke="none" stroke-width="1" fill="none" fill-rule="evenodd">
        <g id="我的" transform="translate(-15.000000, -427.000000)" fill="#000000" fill-rule="nonzero">
            <g id="英文语言" transform="translate(14.000000, 426.000000)">
                <rect id="矩形" opacity="0" x="0" y="0" width="16" height="16"></rect>
                <path d="M13.6679531,11.8785781 L13.09575,11.8785781 L13.09575,13.0230313 C13.09575,13.6551406 12.5832344,14.1675469 11.9512344,14.1675469 L2.22276563,14.1675469 C1.59076563,14.1675469 1.078375,13.6551563 1.078375,13.0230313 L1.078375,5.0115 C1.078375,4.37939063 1.59076563,3.86698437 2.22276563,3.86698437 L2.7950625,3.86698437 L2.7950625,2.72242188 C2.7950625,2.0903125 3.30745313,1.57796875 3.939625,1.57796875 L13.6679219,1.57796875 C14.3001094,1.57796875 14.8124844,2.09029687 14.8124844,2.72242188 L14.8124844,10.734 C14.8124844,11.3661562 14.3000938,11.8785781 13.6679219,11.8785781 L13.6679531,11.8785781 Z M2.22276563,4.4391875 C1.90676563,4.4391875 1.6505625,4.6954375 1.6505625,5.01148438 L1.6505625,13.0230156 C1.6505625,13.3390625 1.90676563,13.5953125 2.22276563,13.5953125 L11.9512344,13.5953125 C12.2672344,13.5953125 12.5234375,13.3390625 12.5234375,13.0230156 L12.5234375,5.01148438 C12.5234375,4.6954375 12.2672344,4.4391875 11.9512344,4.4391875 L2.22276563,4.4391875 Z M14.24025,2.72242188 C14.24025,2.406375 13.9840156,2.15021875 13.6679688,2.15021875 L3.93965625,2.15021875 C3.6235625,2.15021875 3.36735938,2.406375 3.36735938,2.72242188 L3.36735938,3.86698438 L11.9512813,3.86698438 C12.5832812,3.86698438 13.0957969,4.379375 13.0957969,5.0115 L13.0957969,11.30625 L13.668,11.30625 C13.9840469,11.30625 14.24025,11.0500469 14.24025,10.734 L14.24025,2.72239062 L14.24025,2.72242188 Z M9.66215625,9.01723437 C9.66215625,9.01723437 9.72875,8.44503125 9.08985938,8.44503125 C8.82935938,8.44503125 8.51765625,8.57029688 8.51765625,9.01723437 L8.51765625,11.3062812 L7.37314063,11.3062812 L7.37314063,7.87273437 C7.37314063,7.87273437 8.4570625,7.87273437 9.66217188,7.87273437 C9.628,7.87273437 10.8066875,7.80217187 10.8066875,9.01725 L10.8066875,11.3062812 L9.66217188,11.3062812 L9.66217188,9.01723437 L9.66215625,9.01723437 Z M3.36734375,6.15595313 L6.80089063,6.15595313 L6.80089063,6.72826563 L4.51185938,6.72826563 L4.51185938,8.44503125 L6.22857813,8.44503125 L6.22857813,9.01723438 L4.51185938,9.01723438 L4.51185938,10.734 L6.80089063,10.734 L6.80089063,11.30625 L3.36734375,11.30625 L3.36734375,6.15595313 L3.36734375,6.15595313 Z" id="形状"></path>
            </g>
        </g>
    </g>
</svg>