<?xml version="1.0" encoding="UTF-8"?>
<svg width="42px" height="42px" viewBox="0 0 42 42" version="1.1" xmlns="http://www.w3.org/2000/svg" xmlns:xlink="http://www.w3.org/1999/xlink">
    <!-- Generator: Sketch 61.2 (89653) - https://sketch.com -->
    <title>搜狗浏览器</title>
    <desc>Created with Sketch.</desc>
    <g id="页面-1" stroke="none" stroke-width="1" fill="none" fill-rule="evenodd">
        <g id="版本过低" transform="translate(-67.000000, -490.000000)" fill-rule="nonzero">
            <g id="搜狗浏览器" transform="translate(67.000000, 490.000000)">
                <path d="M0.105,20.9631844 C0.105,32.4753844 9.45,41.8098844 20.979,41.8098844 C32.5059,41.8098844 41.8509,32.4753844 41.8509,20.9631844 C41.8509,9.44888438 32.5059,0.114384375 20.9769,0.114384375 C9.45,0.114384375 0.105,9.45098438 0.105,20.9631844" id="路径" fill="#FFFFFF"></path>
                <path d="M20.979,0.219384375 C9.5067,0.219384375 0.21,9.50558438 0.21,20.9610844 C0.21,32.4186844 9.5088,41.7048844 20.979,41.7048844 C32.4471,41.7048844 41.7459,32.4186844 41.7459,20.9610844 C41.7312,9.51188438 32.4429,0.234084375 20.9769,0.219384375 M20.9769,41.9148844 C9.3912,41.9148844 0,32.5341844 0,20.9610844 C0,9.39008437 9.3912,0.009384375 20.979,0.009384375 C32.5626,0.009384375 41.9559,9.39008437 41.9559,20.9610844 C41.9433,32.5278844 32.5584,41.9022844 20.9769,41.9148844" id="形状" fill="#FBFBFB"></path>
                <path d="M28.6398,37.9332844 C36.3153,34.2561844 40.0218,28.0821844 39.7593,19.4112844 C38.8353,5.10398437 21.5082,-0.641615625 17.598,8.25398437 C15.7563,16.4019844 26.8926,15.4989844 31.2816,21.5616844 C35.2086,27.0888844 34.3266,32.5467844 28.6377,37.9332844" id="路径" fill="#3EA1FC"></path>
                <path d="M13.146,4.02038437 C5.4684,7.69748438 1.764,13.8714844 2.0244,22.5423844 C2.9484,36.8496844 20.2734,42.5952844 24.1836,33.6996844 C26.0295,25.5516844 14.8911,26.4546844 10.5042,20.3940844 C6.5772,14.8584844 7.4571,9.39848438 13.1418,4.02038437" id="路径" fill="#3EA1FC"></path>
            </g>
        </g>
    </g>
</svg>