<?xml version="1.0" encoding="UTF-8"?>
<svg width="14px" height="14px" viewBox="0 0 14 14" version="1.1" xmlns="http://www.w3.org/2000/svg" xmlns:xlink="http://www.w3.org/1999/xlink">
    <!-- Generator: Sketch 58 (84663) - https://sketch.com -->
    <title>单赛事收藏_灰</title>
    <desc>Created with Sketch.</desc>
    <g id="单赛事收藏_灰" stroke="none" stroke-width="1" fill="none" fill-rule="evenodd">
        <g id="icon/icon_Favorite_normal">
            <g>
                <g>
                    <rect id="矩形" fill="#000000" fill-rule="nonzero" opacity="0" x="0" y="0" width="14" height="14"></rect>
                    <path d="M7.06092757,1.05445906 L7.05206746,1.03608392 C7.03006699,0.987972025 6.98311575,0.987972025 6.95225517,1.05445906 L4.98351855,4.93315154 L4.72527406,4.96944033 L0.552486857,5.5553441 C0.497355582,5.56070251 0.473155167,5.63597062 0.496350598,5.66559856 L3.69430961,8.67020661 L3.64758617,8.93619264 L2.95223434,12.8873188 C2.94352676,12.9719509 3.00721466,13.0155106 3.07723066,12.9745154 L7.00815046,10.9609522 L7.23700716,11.079787 L10.8955429,12.9795704 C10.9629778,13.0159829 11.0261246,12.9705201 11.0158439,12.9226514 L10.2688541,8.67020661 L10.4656715,8.48528892 L13.4606923,5.67144763 C13.5243443,5.60958194 13.5100372,5.56013976 13.4394879,5.55282454 L9.02966419,4.93315154 L7.06092757,1.05445906 Z" id="路径" stroke="#CBCED8" fill-rule="nonzero"></path>
                </g>
            </g>
        </g>
    </g>
</svg>