<?xml version="1.0" encoding="UTF-8"?>
<svg width="14px" height="14px" viewBox="0 0 14 14" version="1.1" xmlns="http://www.w3.org/2000/svg" xmlns:xlink="http://www.w3.org/1999/xlink">
    <!-- Generator: Sketch 61.2 (89653) - https://sketch.com -->
    <title>筛选</title>
    <desc>Created with Sketch.</desc>
    <g id="页面-1" stroke="none" stroke-width="1" fill="none" fill-rule="evenodd">
        <g id="点开" transform="translate(-308.000000, -564.000000)" fill-rule="nonzero">
            <g id="编组-33" transform="translate(295.000000, 507.000000)">
                <g id="筛选" transform="translate(12.000000, 56.000000)">
                    <path d="M4.17678322,12.4867135 C4.17678322,12.9674716 4.56651465,13.357203 5.04727273,13.357203 C5.52803081,13.357203 5.91776224,12.9674716 5.91776224,12.4867135 L5.91776224,8.24615406 L5.81706294,8.05594427 L3.34657343,3.40699322 C3.33775585,3.39371711 3.33710346,3.37662464 3.34488341,3.36271502 C3.35266336,3.34880541 3.36756897,3.34041487 3.3834965,3.34097924 L12.6008392,3.34097924 C12.6097902,3.34097924 12.6176224,3.343217 12.6243357,3.34769253 C12.6444755,3.3611191 12.648951,3.38685336 12.6109091,3.44615406 L9.78573427,8.22489532 L9.78573427,13.7029373 C9.78573427,14.1836954 10.1754657,14.5734268 10.6562238,14.5734268 C11.1369819,14.5734268 11.5267133,14.1836954 11.5267133,13.7029373 L11.5267133,8.70153868 L14.0844755,4.37146875 C14.4493838,3.82443076 14.4834501,3.12091174 14.1731031,2.5411761 C13.8627562,1.96144047 13.2584169,1.59967584 12.6008392,1.6 L3.3834965,1.6 C2.39888112,1.6 1.6,2.39888134 1.6,3.38349672 C1.6,3.73482539 1.70405594,4.07944078 1.8551049,4.29650371 L4.17678322,8.67916106 L4.17678322,12.4867135 Z" id="路径" fill="#1B3142"></path>
                    <path d="M6.59356643,4.40615406 L9.39076923,4.40615406 C9.95020979,4.40615406 10.2299301,4.68587434 10.2299301,5.2453149 L10.2299301,5.2453149 C10.2299301,5.80475546 9.95020979,6.08447574 9.39076923,6.08447574 L6.59356643,6.08447574 C6.03412587,6.08447574 5.75440559,5.80475546 5.75440559,5.2453149 L5.75440559,5.2453149 C5.75440559,4.68587434 6.03412587,4.40615406 6.59356643,4.40615406 L6.59356643,4.40615406 Z" id="路径" fill="#008BFF"></path>
                </g>
            </g>
        </g>
    </g>
</svg>