<?xml version="1.0" encoding="UTF-8"?>
<svg width="14px" height="15px" viewBox="0 0 14 15" version="1.1" xmlns="http://www.w3.org/2000/svg" xmlns:xlink="http://www.w3.org/1999/xlink">
    <!-- Generator: Sketch 61.2 (89653) - https://sketch.com -->
    <title>注单</title>
    <desc>Created with Sketch.</desc>
    <g id="页面-1" stroke="none" stroke-width="1" fill="none" fill-rule="evenodd">
        <g id="点开" transform="translate(-308.000000, -613.000000)" fill-rule="nonzero">
            <g id="编组-33" transform="translate(295.000000, 507.000000)">
                <g id="注单" transform="translate(12.000000, 106.000000)">
                    <path d="M12.7304348,0.8 C13.1146329,0.8 13.426087,1.11145409 13.426087,1.49565217 L13.426,4.28 L11.779,5.876 L11.7796571,2.44571429 L3.24571429,2.44571429 L3.24571429,13.0669714 L11.7796571,13.0669714 L11.779,10.638 L13.426,9.149 L13.426087,14.0173913 C13.426087,14.4015894 13.1146329,14.7130435 12.7304348,14.7130435 L2.29565217,14.7130435 C1.91145409,14.7130435 1.6,14.4015894 1.6,14.0173913 L1.6,1.49565217 C1.6,1.11145409 1.91145409,0.8 2.29565217,0.8 L12.7304348,0.8 Z" id="形状结合" fill="#1B3142"></path>
                    <path d="M5.08097826,4.49689441 L8.55923913,4.49689441 C9.02300725,4.49689441 9.2548913,4.72877847 9.2548913,5.19254658 L9.2548913,5.19254658 C9.2548913,5.6563147 9.02300725,5.88819876 8.55923913,5.88819876 L5.08097826,5.88819876 C4.61721014,5.88819876 4.38532609,5.6563147 4.38532609,5.19254658 L4.38532609,5.19254658 C4.38532609,4.72877847 4.61721014,4.49689441 5.08097826,4.49689441 Z" id="路径" fill="#008BFF"></path>
                    <path d="M5.08097826,7.27950311 L8.55923913,7.27950311 C9.02300725,7.27950311 9.2548913,7.51138716 9.2548913,7.97515528 L9.2548913,7.97515528 C9.2548913,8.4389234 9.02300725,8.67080745 8.55923913,8.67080745 L5.08097826,8.67080745 C4.61721014,8.67080745 4.38532609,8.4389234 4.38532609,7.97515528 L4.38532609,7.97515528 C4.38532609,7.51138716 4.61721014,7.27950311 5.08097826,7.27950311 Z" id="路径" fill="#008BFF"></path>
                    <path d="M14.1912391,5.9506087 C14.4628092,6.22226077 14.4628092,6.6626088 14.1912391,6.93426087 L9.96167391,11.1645217 L8.60793478,11.7349565 C8.55610833,11.7571196 8.49603052,11.7458228 8.45579417,11.7063485 C8.41555783,11.6668742 8.40311443,11.6070233 8.42428261,11.5547826 L8.97732609,10.1808696 L13.207587,5.9506087 C13.479239,5.67903865 13.9195871,5.67903865 14.1912391,5.9506087 L14.1912391,5.9506087 Z" id="路径" fill="#008BFF"></path>
                </g>
            </g>
        </g>
    </g>
</svg>