<?xml version="1.0" encoding="UTF-8"?>
<svg width="12px" height="12px" viewBox="0 0 12 12" version="1.1" xmlns="http://www.w3.org/2000/svg" xmlns:xlink="http://www.w3.org/1999/xlink">
    <title>编组 13备份</title>
    <defs>
        <polygon id="path-1" points="0 0 7.99754859 0 7.99754859 7.42842857 0 7.42842857"></polygon>
    </defs>
    <g id="页面-1" stroke="none" stroke-width="1" fill="none" fill-rule="evenodd">
        <g id="全屏模式-快速投注弹出" transform="translate(-693.000000, -235.000000)">
            <g id="编组-5" transform="translate(488.000000, 0.000000)">
                <g id="编组-4" transform="translate(0.000000, 32.000000)">
                    <g id="编组-113备份-2" transform="translate(0.000000, 196.000000)">
                        <g id="编组-13备份" transform="translate(205.000000, 7.000000)">
                            <rect id="矩形" x="0" y="0" width="12" height="12"></rect>
                            <g id="编组" transform="translate(2.000000, 2.000000)">
                                <g id="编组" transform="translate(0.000026, 0.285714)">
                                    <mask id="mask-2" fill="white">
                                        <use xlink:href="#path-1"></use>
                                    </mask>
                                    <g id="Clip-2"></g>
                                    <path d="M3.99863144,7.42857143 C3.88463144,7.42857143 3.77006001,7.40085714 3.66606001,7.34542857 C2.75320287,6.862 0.855202865,5.48085714 0.207774294,3.71457143 C-0.0927971349,2.89485714 -0.065939992,2.00742857 0.279774294,1.34085714 C0.854917151,0.232571429 1.63891715,0 2.19520287,0 C2.99606001,0 3.66377429,0.493714286 3.99863144,0.797428571 C4.33463144,0.492571429 4.99977429,0 5.79120287,0 C6.35891715,0 7.14263144,0.232571429 7.71777429,1.34085714 C8.06348858,2.00714286 8.09034572,2.89457143 7.78977429,3.71457143 C7.14206001,5.48114286 5.24434572,6.86228571 4.33148858,7.34571429 C4.22748858,7.40085714 4.11291715,7.42857143 3.99863144,7.42857143" id="路径" fill="#FFB001" mask="url(#mask-2)"></path>
                                </g>
                            </g>
                        </g>
                    </g>
                </g>
            </g>
        </g>
    </g>
</svg>