<?xml version="1.0" encoding="UTF-8"?>
<svg width="140px" height="100px" viewBox="0 0 140 100" version="1.1" xmlns="http://www.w3.org/2000/svg" xmlns:xlink="http://www.w3.org/1999/xlink">
    <title>全部锁盘@1x</title>
    <defs>
        <linearGradient x1="50.0000569%" y1="93.7762516%" x2="50%" y2="14.3087405%" id="linearGradient-1">
            <stop stop-color="#373737" stop-opacity="0" offset="0%"></stop>
            <stop stop-color="#373737" offset="100%"></stop>
        </linearGradient>
        <linearGradient x1="50%" y1="100%" x2="50%" y2="0%" id="linearGradient-2">
            <stop stop-color="#DFE2E5" stop-opacity="0" offset="0%"></stop>
            <stop stop-color="#D7DCE2" stop-opacity="0.5" offset="100%"></stop>
        </linearGradient>
        <linearGradient x1="50%" y1="100%" x2="50%" y2="0.0562289562%" id="linearGradient-3">
            <stop stop-color="#464646" offset="0%"></stop>
            <stop stop-color="#878787" offset="100%"></stop>
        </linearGradient>
        <linearGradient x1="50%" y1="100.011976%" x2="50%" y2="2.85490917%" id="linearGradient-4">
            <stop stop-color="#616161" offset="0%"></stop>
            <stop stop-color="#A8A8A8" offset="100%"></stop>
        </linearGradient>
        <linearGradient x1="49.9950748%" y1="100%" x2="49.9950748%" y2="0.224869677%" id="linearGradient-5">
            <stop stop-color="#616161" stop-opacity="0" offset="0%"></stop>
            <stop stop-color="#595959" offset="100%"></stop>
        </linearGradient>
        <linearGradient x1="76.4646012%" y1="100%" x2="24.4897959%" y2="0%" id="linearGradient-6">
            <stop stop-color="#464646" offset="0%"></stop>
            <stop stop-color="#878787" offset="100%"></stop>
        </linearGradient>
        <linearGradient x1="65.3153947%" y1="103.38074%" x2="29.0898248%" y2="13.97582%" id="linearGradient-7">
            <stop stop-color="#9E9E9E" offset="0%"></stop>
            <stop stop-color="#EEEEEE" offset="100%"></stop>
        </linearGradient>
        <linearGradient x1="49.9950748%" y1="100%" x2="49.9950748%" y2="0.224869677%" id="linearGradient-8">
            <stop stop-color="#616161" stop-opacity="0" offset="0%"></stop>
            <stop stop-color="#595959" offset="100%"></stop>
        </linearGradient>
        <linearGradient x1="67.2673973%" y1="100%" x2="33.3553196%" y2="0%" id="linearGradient-9">
            <stop stop-color="#464646" offset="0%"></stop>
            <stop stop-color="#878787" offset="100%"></stop>
        </linearGradient>
        <linearGradient x1="60.5159715%" y1="103.38074%" x2="35.6424983%" y2="13.97582%" id="linearGradient-10">
            <stop stop-color="#9E9E9E" offset="0%"></stop>
            <stop stop-color="#EEEEEE" offset="100%"></stop>
        </linearGradient>
        <linearGradient x1="50%" y1="100%" x2="50%" y2="0%" id="linearGradient-11">
            <stop stop-color="#666666" stop-opacity="0" offset="0%"></stop>
            <stop stop-color="#949393" offset="50%"></stop>
            <stop stop-color="#666666" stop-opacity="0" offset="100%"></stop>
        </linearGradient>
        <linearGradient x1="50%" y1="100%" x2="50%" y2="0%" id="linearGradient-12">
            <stop stop-color="#666666" stop-opacity="0" offset="0%"></stop>
            <stop stop-color="#949393" offset="50%"></stop>
            <stop stop-color="#666666" stop-opacity="0" offset="100%"></stop>
        </linearGradient>
        <linearGradient x1="50%" y1="100%" x2="50%" y2="0%" id="linearGradient-13">
            <stop stop-color="#666666" stop-opacity="0" offset="0%"></stop>
            <stop stop-color="#949393" offset="50%"></stop>
            <stop stop-color="#666666" stop-opacity="0" offset="100%"></stop>
        </linearGradient>
        <linearGradient x1="50%" y1="100%" x2="50%" y2="0%" id="linearGradient-14">
            <stop stop-color="#F8FAFC" stop-opacity="0" offset="0%"></stop>
            <stop stop-color="#CACACA" offset="50%"></stop>
            <stop stop-color="#F8FAFC" stop-opacity="0" offset="100%"></stop>
        </linearGradient>
        <linearGradient x1="1.01034483%" y1="49.819469%" x2="100.33908%" y2="49.819469%" id="linearGradient-15">
            <stop stop-color="#999999" offset="0%"></stop>
            <stop stop-color="#CACACA" offset="100%"></stop>
        </linearGradient>
        <linearGradient x1="1.01034483%" y1="49.819469%" x2="100.33908%" y2="49.819469%" id="linearGradient-16">
            <stop stop-color="#999999" offset="0%"></stop>
            <stop stop-color="#CACACA" offset="100%"></stop>
        </linearGradient>
        <linearGradient x1="0.539634146%" y1="49.8271186%" x2="98.8715137%" y2="49.8271186%" id="linearGradient-17">
            <stop stop-color="#999999" offset="0%"></stop>
            <stop stop-color="#CACACA" offset="100%"></stop>
        </linearGradient>
        <linearGradient x1="50%" y1="100%" x2="50%" y2="0%" id="linearGradient-18">
            <stop stop-color="#666666" stop-opacity="0" offset="0%"></stop>
            <stop stop-color="#949393" offset="50%"></stop>
            <stop stop-color="#666666" stop-opacity="0" offset="100%"></stop>
        </linearGradient>
        <linearGradient x1="50%" y1="100%" x2="50%" y2="0%" id="linearGradient-19">
            <stop stop-color="#666666" stop-opacity="0" offset="0%"></stop>
            <stop stop-color="#949393" offset="50%"></stop>
            <stop stop-color="#666666" stop-opacity="0" offset="100%"></stop>
        </linearGradient>
        <linearGradient x1="1.01034483%" y1="49.819469%" x2="100.33908%" y2="49.819469%" id="linearGradient-20">
            <stop stop-color="#999999" offset="0%"></stop>
            <stop stop-color="#CACACA" offset="100%"></stop>
        </linearGradient>
    </defs>
    <g id="页面-1" stroke="none" stroke-width="1" fill="none" fill-rule="evenodd">
        <g id="全屏模式-快速投注弹出备份-2" transform="translate(-558.000000, -147.000000)" fill-rule="nonzero">
            <g id="编组-15" transform="translate(488.000000, 0.000000)">
                <g id="全部锁盘" transform="translate(70.000000, 147.000000)">
                    <g id="12_权限-(1)@2x" transform="translate(0.000000, 0.000000)">
                        <path d="M140,99.3806563 C140,63.3447009 108.659932,34.1317873 70,34.1317873 C31.3400675,34.1317873 0,63.3447009 0,99.3806563 C57.9110106,99.3806563 112,99.3806563 140,99.3806563 Z" id="椭圆形" fill="url(#linearGradient-1)" opacity="0.577145531"></path>
                        <ellipse id="椭圆形" fill="url(#linearGradient-2)" opacity="0.381757464" cx="70" cy="54.479638" rx="33.8914027" ry="12.0361991"></ellipse>
                        <g id="编组" transform="translate(39.909502, 42.443439)">
                            <path d="M60.8144796,12.02922 C60.8144796,16.9365749 47.2011234,20.9049774 30.4072398,20.9049774 C13.6133562,20.9049774 0,16.9365749 0,12.02922 C0,10.9662551 0,10.2576118 0,9.07063425 C4.21157747,5.65143032 17.2307692,5.11994785 30.4072398,5.11994785 C43.8283664,5.11994785 56.7776564,5.15538001 60.8144796,8.66316435 C60.8144796,10.6473656 60.8144796,11.0371194 60.8144796,12.02922 Z" id="路径" fill="url(#linearGradient-3)"></path>
                            <ellipse id="椭圆形" fill="url(#linearGradient-4)" cx="30.4072398" cy="8.87575734" rx="30.4072398" ry="8.87575734"></ellipse>
                        </g>
                        <g id="编组" transform="translate(48.000000, 10.000000)">
                            <g>
                                <polygon id="路径" fill="url(#linearGradient-5)" opacity="0.884438651" points="37.5907487 48.280543 2.96028117 47.4075436 1.14781259 40.3886286 29.9185517 40.3886286"></polygon>
                                <g id="形状">
                                    <path d="M25.9034726,15.3954434 L24.5438493,15.3954434 L24.5438493,9.79088688 C24.5438493,4.34011392 20.3237198,0 15.0088288,0 C9.69393763,0 5.45615068,4.35720097 5.45615068,9.80797395 L5.45615068,15.4125305 L4.09652738,15.4125305 C1.783402,15.4125305 0,17.2237592 0,19.615948 L0,37.7965826 C0,40.1716844 1.76574456,42 4.09652738,42 L25.9034726,42 C28.216598,42 30,40.1887713 30,37.7965826 L30,19.5817738 C29.9823426,17.2237592 28.216598,15.3954434 25.9034726,15.3954434 L25.9034726,15.3954434 Z M16.7258065,29.2879581 L16.7258065,32.5689354 C16.7258065,33.4240838 16.2258065,34 15.483871,34 C14.7419355,34 14.2419355,33.4240838 14.2419355,32.5689354 L14.2419355,29.2879581 C13.5,28.8691099 13,27.8568936 13,26.8621292 C13,25.2914485 14.1129032,24 15.5,24 C16.8870968,24 18,25.2739965 18,26.8621292 C17.967742,27.8568936 17.4677419,28.8516579 16.7258065,29.2879581 L16.7258065,29.2879581 Z M22,15 L8,15 L8,9.21438262 C8,5.15739486 11.0829015,2 15,2 C18.9170984,2 22,5.17503393 22,9.21438262 C22,9.23202171 22,15 22,15 L22,15 Z" fill="url(#linearGradient-6)"></path>
                                    <path d="M27.0150826,15.5081464 L25.6953239,15.5081464 L25.6953239,9.97333043 C25.6953239,4.57819425 21.6304672,0.30049731 16.4922068,0.30049731 C11.3715431,0.30049731 7.27149283,4.59565424 7.27149283,9.99079043 L7.27149283,15.5256064 L5.95173416,15.5256064 C3.71694281,15.5256064 2.01005492,17.3065251 2.01005492,19.6810834 L2.01005492,37.6648706 C2.01005492,40.0045089 3.71694281,41.8203476 5.95173416,41.8203476 L26.979889,41.8203476 C29.2146804,41.8203476 30.9218386,40.0394289 30.9218386,37.6648706 L30.9218386,19.6636234 C30.939165,17.3239851 29.2498739,15.5081464 27.0150826,15.5081464 L27.0150826,15.5081464 Z M17.7943686,28.9348768 L17.7943686,32.1125946 C17.7943686,32.950674 17.2664652,33.4919336 16.47461,33.4919336 C15.6827548,33.4919336 15.1548513,32.933214 15.1548513,32.1125946 L15.1548513,28.9348768 C14.3629961,28.5332971 13.8350926,27.5555378 13.8350926,26.5952385 C13.8350926,25.0762196 15.014077,23.8191005 16.47461,23.8191005 C17.9351429,23.8191005 19.1141273,25.0587596 19.1141273,26.5952385 C19.1141273,27.5555378 18.5862239,28.4983771 17.7943686,28.9348768 L17.7943686,28.9348768 Z M23.0558066,15.5081464 L9.91101018,15.5081464 L9.91101018,9.97333043 C9.91101018,6.09721317 12.8144793,3.07663532 16.47461,3.07663532 C20.1347407,3.07663532 23.0382098,6.11467315 23.0382098,9.97333043 C23.0558066,9.99079043 23.0558066,15.5081464 23.0558066,15.5081464 L23.0558066,15.5081464 Z" fill="url(#linearGradient-7)"></path>
                                </g>
                            </g>
                            <g transform="translate(26.627791, 11.628458)">
                                <ellipse id="椭圆形" fill="url(#linearGradient-8)" opacity="0.884438651" cx="9.60800479" cy="30.7331494" rx="6.5635998" ry="2.53169819"></ellipse>
                                <g id="形状">
                                    <path d="M7.54918126,0.00357136109 C6.44058397,0.0559513237 5.89508372,0.614670925 5.94787407,1.73211012 L5.98306763,2.70986942 L5.29679312,2.7447894 C5.27919634,2.7447894 5.26159956,2.7447894 5.24400278,2.7447894 C4.3289701,2.79716936 3.62509881,3.5828688 3.67788915,4.49078815 C3.7306795,5.3987075 4.5225347,6.09710701 5.43756738,6.04472704 L6.12384189,6.00980707 L6.17663224,7.38914608 L3.81866341,7.47644602 C2.92122751,7.52882598 2.21735622,8.27960545 2.234953,9.17006481 C2.25254979,10.0779842 3.02680821,10.8113037 3.94184089,10.7938437 L6.29980972,10.7065437 L6.37019685,12.6446024 C4.82168,13.0112621 3.37874385,13.8318815 2.21735622,15.0715406 C-0.914871025,18.4413182 -0.703709638,23.6967745 2.69246934,26.8046522 C6.08864833,29.91253 11.3852798,29.7030102 14.517507,26.3332326 C17.6497343,22.963455 17.4385729,17.7079987 14.0423939,14.600121 C12.7930223,13.4477618 11.2796991,12.7668223 9.71358548,12.5049225 L9.27366593,1.57497024 C9.25606914,0.474991025 8.67537533,-0.0488086015 7.54918126,0.00357136109 Z M10.8397795,22.963455 C9.59040801,24.307874 7.46119735,24.395174 6.10624511,23.1555149 C4.75129287,21.9158557 4.66330896,19.8031972 5.91268051,18.4587782 C7.16205205,17.1143592 9.29126271,17.0270592 10.6462149,18.2667183 C12.0187639,19.5063775 12.1067478,21.601576 10.8397795,22.963455 Z" fill="url(#linearGradient-9)"></path>
                                    <path d="M8.6049882,0.178171237 C7.49639091,0.230551199 6.95089066,0.7892708 7.00368101,1.90671 L7.03887457,2.8844693 L6.35260006,2.91938927 C6.33500328,2.91938927 6.3174065,2.91938927 6.29980972,2.91938927 C5.38477704,2.97176924 4.68090574,3.75746868 4.73369609,4.66538803 C4.78648644,5.57330738 5.57834164,6.27170688 6.49337432,6.21932692 L7.17964883,6.18440694 L7.23243918,7.56374596 L4.87447035,7.6510459 C3.97703445,7.70342586 3.27316316,8.45420532 3.29075994,9.34466469 C3.30835672,10.2525841 4.08261515,10.9859035 4.99764783,10.9684436 L7.35561665,10.8811436 L7.42600378,12.8192022 C5.87748694,13.185862 4.43455079,14.0064814 3.27316316,15.2461405 C0.140935913,18.6159181 0.352097301,23.8713743 3.74827628,26.9792521 C7.14445527,30.0871299 12.4410867,29.87761 15.5733139,26.5078325 C18.7055412,23.1380549 18.4943798,17.8825986 15.0982008,14.7747208 C13.8488293,13.6223617 12.335506,12.9414221 10.7693924,12.6795223 L10.3294728,1.74957011 C10.2942793,0.667050888 9.71358548,0.143251262 8.6049882,0.178171237 Z M11.8955864,23.1380549 C10.6462149,24.4824739 8.51700429,24.5697738 7.16205205,23.3301147 C5.80709981,22.0904556 5.7191159,19.9777971 6.96848744,18.6333781 C8.21785899,17.288959 10.3470696,17.2016591 11.7020218,18.4413182 C13.0569741,19.6984373 13.144958,21.7936358 11.8955864,23.1380549 Z" fill="url(#linearGradient-10)"></path>
                                </g>
                            </g>
                        </g>
                        <rect id="矩形" fill="url(#linearGradient-11)" opacity="0.631926037" x="78.5520362" y="0" width="2.53393665" height="14.5701357"></rect>
                        <rect id="矩形" fill="url(#linearGradient-12)" opacity="0.631926037" x="95.0226244" y="14.5701357" width="3.80090498" height="19.638009"></rect>
                        <rect id="矩形" fill="url(#linearGradient-13)" opacity="0.631926037" x="34.841629" y="37.3755656" width="4.43438914" height="18.3710407"></rect>
                        <rect id="矩形" fill="url(#linearGradient-14)" x="60.1809955" y="11.4072398" width="4.43438914" height="19"></rect>
                        <path d="M97.8829014,23.2603254 C98.0940628,23.5467411 98.1900452,23.9173967 98.1900452,24.3891402 C98.1900452,24.8608838 98.0940628,25.2483874 97.8829014,25.5179551 C97.6525435,25.8212188 97.3453997,25.9728506 96.9230769,25.9728506 C96.5199506,25.9728506 96.1936103,25.8212188 95.9632524,25.5179551 C95.752091,25.2315394 95.6561086,24.8608838 95.6561086,24.3891402 C95.6561086,23.9005487 95.752091,23.5298931 95.9632524,23.2603254 C96.1936103,22.9570617 96.5007541,22.8054298 96.9230769,22.8054298 C97.3262032,22.8054298 97.6525435,22.9570617 97.8829014,23.2603254 Z M96.3087892,23.614133 C96.2320033,23.7994608 96.1744138,24.0521806 96.1744138,24.3891402 C96.1744138,24.7260999 96.2128068,24.9788196 96.3087892,25.1641475 C96.4239682,25.4337152 96.6351296,25.585347 96.9230769,25.585347 C97.2110243,25.585347 97.4029892,25.4505632 97.5373646,25.1641475 C97.6141506,24.9619717 97.67174,24.7092519 97.67174,24.3891402 C97.67174,24.0521806 97.633347,23.7994608 97.5373646,23.614133 C97.4221857,23.3445653 97.2110243,23.1929334 96.9230769,23.1929334 C96.6351296,23.1929334 96.4431647,23.3445653 96.3087892,23.614133 Z" id="形状" fill="url(#linearGradient-15)"></path>
                        <path d="M62.7149321,18.3710407 L62.7149321,22.1719457 L62.2052322,22.1719457 L62.2052322,19.0605854 C62.0013523,19.2792215 61.7537837,19.4474032 61.4479638,19.531494 L61.4479638,18.9596764 C61.5935923,18.9092219 61.7537837,18.8419493 61.9139751,18.7410403 C62.0741665,18.6233131 62.2197951,18.4887678 62.3217351,18.3710407 L62.7149321,18.3710407 L62.7149321,18.3710407 Z" id="路径" fill="url(#linearGradient-16)"></path>
                        <path d="M38.2562631,44.982744 C38.5073391,45.3773295 38.6425339,45.9034435 38.6425339,46.5610859 C38.6425339,47.2187284 38.5073391,47.7448424 38.2562631,48.1394278 C37.96656,48.5528031 37.5802892,48.7782805 37.0588235,48.7782805 C36.5566714,48.7782805 36.1510871,48.5715929 35.861384,48.1394278 C35.6103079,47.7448424 35.4751131,47.2187284 35.4751131,46.5610859 C35.4751131,45.9034435 35.6103079,45.3773295 35.861384,44.982744 C36.1510871,44.5693688 36.5373579,44.3438914 37.0588235,44.3438914 C37.5802892,44.3438914 37.9858735,44.550579 38.2562631,44.982744 Z M36.3055954,45.4712784 C36.2090277,45.7343354 36.1510871,46.0913413 36.1510871,46.5610859 C36.1510871,47.0308306 36.2090277,47.3878365 36.3055954,47.6508934 C36.4601037,48.0266891 36.7111798,48.2333768 37.0588235,48.2333768 C37.4257808,48.2333768 37.6768569,48.0454789 37.8120516,47.6508934 C37.9086194,47.3690467 37.96656,47.0120408 37.96656,46.5610859 C37.96656,46.1101311 37.9086194,45.7531252 37.8120516,45.4712784 C37.6575433,45.0954828 37.4064673,44.8887951 37.0588235,44.8887951 C36.7111798,44.8887951 36.4601037,45.0954828 36.3055954,45.4712784 Z" id="形状" fill="url(#linearGradient-17)"></path>
                        <rect id="矩形" fill="url(#linearGradient-18)" x="69.0497738" y="39.9095022" width="4.43438914" height="17.1040724"></rect>
                        <rect id="矩形" fill="url(#linearGradient-19)" opacity="0.631926037" x="101.99095" y="44.3438914" width="4.43438914" height="21.5384615"></rect>
                        <path d="M72.2171946,46.2443439 L72.2171946,50.0452488 L71.7074947,50.0452488 L71.7074947,46.9338886 C71.5036147,47.1525247 71.2560462,47.3207063 70.9502262,47.4047972 L70.9502262,46.8329796 C71.0958548,46.7825251 71.2560462,46.7152524 71.4162376,46.6143435 C71.576429,46.4966163 71.7220575,46.362071 71.8239975,46.2443439 L72.2171946,46.2443439 L72.2171946,46.2443439 Z" id="路径" fill="#C6C6C6"></path>
                        <path d="M105.405584,53.8515223 C105.65666,54.2461078 105.791855,54.7722218 105.791855,55.4298642 C105.791855,56.0875067 105.65666,56.6136206 105.405584,57.0082061 C105.115881,57.4215814 104.72961,57.6470588 104.208145,57.6470588 C103.705993,57.6470588 103.300408,57.4403712 103.010705,57.0082061 C102.759629,56.6136206 102.624434,56.0875067 102.624434,55.4298642 C102.624434,54.7722218 102.759629,54.2461078 103.010705,53.8515223 C103.300408,53.4381471 103.686679,53.2126697 104.208145,53.2126697 C104.72961,53.2126697 105.135195,53.4193573 105.405584,53.8515223 Z M103.454917,54.3400567 C103.358349,54.6031137 103.300408,54.9601196 103.300408,55.4298642 C103.300408,55.8996088 103.358349,56.2566147 103.454917,56.5196717 C103.609425,56.8954674 103.860501,57.102155 104.208145,57.102155 C104.575102,57.102155 104.826178,56.9142572 104.961373,56.5196717 C105.057941,56.237825 105.115881,55.8808191 105.115881,55.4298642 C105.115881,54.9789094 105.057941,54.6219035 104.961373,54.3400567 C104.806865,53.964261 104.555789,53.7575734 104.208145,53.7575734 C103.860501,53.7575734 103.609425,53.964261 103.454917,54.3400567 Z" id="形状" fill="url(#linearGradient-20)"></path>
                    </g>
                </g>
            </g>
        </g>
    </g>
</svg>