<?xml version="1.0" encoding="UTF-8"?>
<svg width="14px" height="14px" viewBox="0 0 14 14" version="1.1" xmlns="http://www.w3.org/2000/svg" xmlns:xlink="http://www.w3.org/1999/xlink">
    <title>全屏@2x</title>
    <g id="页面-1" stroke="none" stroke-width="1" fill="none" fill-rule="evenodd">
        <g id="直播样式备份-3" transform="translate(-339.000000, -783.000000)" fill="#FFFFFF" fill-rule="nonzero">
            <g id="编组-5" transform="translate(0.000000, 44.000000)">
                <path d="M340.5,747 C340.776142,747 341,747.223858 341,747.5 L341,747.5 L341,751.001 L344.5,751 C344.776142,751 345,751.223858 345,751.5 L345,751.5 L345,752.5 C345,752.776142 344.776142,753 344.5,753 L344.5,753 L339.5,753 C339.223858,753 339,752.776142 339,752.5 L339,752.5 L339,747.5 C339,747.223858 339.223858,747 339.5,747 L339.5,747 Z M352.5,747 C352.776142,747 353,747.223858 353,747.5 L353,752.5 C353,752.776142 352.776142,753 352.5,753 L347.5,753 C347.223858,753 347,752.776142 347,752.5 L347,751.5 C347,751.223858 347.223858,751 347.5,751 L351,751.001 L351,747.5 C351,747.223858 351.223858,747 351.5,747 L352.5,747 Z M344.5,739 C344.776142,739 345,739.223858 345,739.5 L345,740.5 C345,740.776142 344.776142,741 344.5,741 L341,740.999 L341,744.5 C341,744.776142 340.776142,745 340.5,745 L339.5,745 C339.223858,745 339,744.776142 339,744.5 L339,739.5 C339,739.223858 339.223858,739 339.5,739 L344.5,739 Z M352.5,739 C352.776142,739 353,739.223858 353,739.5 L353,739.5 L353,744.5 C353,744.776142 352.776142,745 352.5,745 L352.5,745 L351.5,745 C351.223858,745 351,744.776142 351,744.5 L351,744.5 L351,740.999 L347.5,741 C347.223858,741 347,740.776142 347,740.5 L347,740.5 L347,739.5 C347,739.223858 347.223858,739 347.5,739 L347.5,739 Z" id="全屏"></path>
            </g>
        </g>
    </g>
</svg>