<?xml version="1.0" encoding="UTF-8"?>
<svg width="6px" height="4px" viewBox="0 0 6 4" version="1.1" xmlns="http://www.w3.org/2000/svg" xmlns:xlink="http://www.w3.org/1999/xlink">
    <!-- Generator: Sketch 58 (84663) - https://sketch.com -->
    <title>icon/touzhu_green</title>
    <desc>Created with Sketch.</desc>
    <g id="专业版" stroke="none" stroke-width="1" fill="none" fill-rule="evenodd">
        <g id="投注区切图" transform="translate(-269.000000, -442.000000)">
            <g id="icon/touzhu_green" transform="translate(269.000000, 437.000000)">
                <rect id="矩形" fill="#D8D8D8" opacity="0" x="0" y="0" width="6" height="15"></rect>
                <g id="Sheet/Betting-Sheet/_resource/Icon_AngleGreen" transform="translate(0.000000, 5.000000)" fill="#69C969">
                    <path d="M3.16,0.213333333 L5.76,3.68 C5.82627417,3.76836556 5.80836556,3.89372583 5.72,3.96 C5.68538077,3.98596443 5.64327404,4 5.6,4 L0.4,4 C0.28954305,4 0.2,3.91045695 0.2,3.8 C0.2,3.75672596 0.214035574,3.71461923 0.24,3.68 L2.84,0.213333333 C2.90627417,0.124967773 3.03163444,0.107059163 3.12,0.173333333 C3.13516113,0.184704183 3.14862915,0.1981722 3.16,0.213333333 Z" id="三角形" transform="translate(3.000000, 2.000000) scale(1, -1) translate(-3.000000, -2.000000) "></path>
                </g>
            </g>
        </g>
    </g>
</svg>