<svg width="23" height="14" viewBox="0 0 23 14" fill="none" xmlns="http://www.w3.org/2000/svg">
<g id="Group 36502">
<path id="&#231;&#159;&#169;&#229;&#189;&#162;" d="M5.69085 0.752317C5.76671 0.656129 5.88245 0.6 6.00495 0.6H22C22.2209 0.6 22.4 0.779087 22.4 1V13C22.4 13.2209 22.2209 13.4 22 13.4H6.00495C5.88245 13.4 5.76671 13.3439 5.69085 13.2477L0.959426 7.24768C0.84488 7.10243 0.844881 6.89757 0.959426 6.75232L5.69085 0.752317L5.22673 0.386322L5.69085 0.752317Z" stroke="black" stroke-width="1.2"/>
<path id="&#229;&#189;&#162;&#231;&#138;&#182;&#231;&#187;&#147;&#229;&#144;&#136;" fill-rule="evenodd" clip-rule="evenodd" d="M11.4493 10.1294C11.6464 10.3365 11.9766 10.3365 12.1737 10.1294L13.999 8.21186L15.8245 10.1297C16.0216 10.3367 16.3518 10.3367 16.5488 10.1297L16.8681 9.79421C17.0519 9.60114 17.0519 9.29783 16.8681 9.10475L15.0086 7.1512L16.868 5.19777C17.0518 5.00469 17.0518 4.70138 16.868 4.50831L16.5487 4.17285C16.3516 3.96582 16.0214 3.96582 15.8244 4.17285L13.999 6.09054L12.1738 4.17309C11.9767 3.96607 11.6465 3.96607 11.4495 4.17309L11.1301 4.50855C10.9464 4.70163 10.9464 5.00494 11.1301 5.19802L12.9893 7.1512L11.13 9.1045C10.9462 9.29758 10.9462 9.60089 11.13 9.79397L11.4493 10.1294Z" fill="black"/>
</g>
</svg>
