<?xml version="1.0" encoding="UTF-8"?>
<svg width="14px" height="14px" viewBox="0 0 14 14" version="1.1" xmlns="http://www.w3.org/2000/svg" xmlns:xlink="http://www.w3.org/1999/xlink">
    <!-- Generator: Sketch 58 (84663) - https://sketch.com -->
    <title>投注单_保留选项</title>
    <desc>Created with Sketch.</desc>
    <g id="页面-1" stroke="none" stroke-width="1" fill="none" fill-rule="evenodd">
        <g id="单关-成功欧盘" transform="translate(-15.000000, -742.000000)" fill="#9AA4C2" fill-rule="nonzero">
            <g id="编组-3">
                <g id="编组" transform="translate(0.000000, 702.000000)">
                    <g id="勾选" transform="translate(14.000000, 19.000000)">
                        <path d="M7.97178712,21.01181 C4.1187355,21.01181 0.983597125,24.1469644 0.983597125,28.000016 C0.983597125,31.8535953 4.11819187,34.98819 7.97178712,34.98819 C11.8253824,34.98819 14.9599771,31.8535953 14.9599771,28.000016 C14.9599771,24.1469644 11.8253664,21.01181 7.97178712,21.01181 L7.97178712,21.01181 Z M11.3440767,26.8473095 L7.32955056,30.9054861 C7.32854325,30.9064934 7.32656059,30.907021 7.32547333,30.90854 C7.3240343,30.9095473 7.3240343,30.911514 7.32249934,30.9125053 C7.29044108,30.9435722 7.25081994,30.9626313 7.21370911,30.983737 C7.19520966,30.9941939 7.18013187,31.010279 7.16056114,31.0177779 C7.10042591,31.0418896 7.03675708,31.0544091 6.9730243,31.0544091 C6.90884381,31.0544091 6.84419964,31.0418896 6.78353677,31.0167706 C6.76348636,31.0082804 6.74741725,30.99122 6.72835817,30.9806671 C6.69126333,30.9596254 6.65269747,30.94103 6.62055927,30.9095313 C6.61958392,30.908524 6.6190403,30.9064774 6.61803298,30.9054701 C6.61705764,30.9039991 6.615059,30.9039991 6.61405169,30.9024641 L4.63964631,28.8733918 C4.44662519,28.6748385 4.45113412,28.3575176 4.64967152,28.1644645 C4.84819292,27.971923 5.16506608,27.9754407 5.35863084,28.1745217 L6.97654191,29.8370265 L10.6315838,26.1418838 C10.8261399,25.9448814 11.1440203,25.9428987 11.3405591,26.1379025 C11.5365542,26.3329063 11.5385529,26.6503231 11.3440767,26.8473095 L11.3440767,26.8473095 Z" id="投注单_保留选项"></path>
                    </g>
                </g>
            </g>
        </g>
    </g>
</svg>