<svg width="24" height="24" viewBox="0 0 24 24" fill="none" xmlns="http://www.w3.org/2000/svg">
<path fill-rule="evenodd" clip-rule="evenodd" d="M21.5 12.0002C21.5 17.2469 17.2467 21.5002 12 21.5002C6.75331 21.5002 2.50001 17.2469 2.50001 12.0002C2.50001 6.75349 6.75331 2.5002 12 2.5002C17.2467 2.5002 21.5 6.75349 21.5 12.0002ZM14.5957 5.47812C14.3631 4.78035 14.0862 4.168 13.7664 3.68398C17.4552 4.46362 20.2614 7.63551 20.4855 11.5002H15.4955C15.4538 9.17249 15.1223 7.05786 14.5957 5.47812ZM14.4954 11.5002C14.4536 9.25551 14.1329 7.25215 13.647 5.79435C13.3853 5.00913 13.0846 4.40975 12.775 4.01695C12.461 3.61851 12.1954 3.5002 12 3.5002C11.8047 3.5002 11.539 3.61851 11.225 4.01695C10.9154 4.40975 10.6148 5.00913 10.353 5.79435C9.8671 7.25215 9.54638 9.25551 9.50465 11.5002H14.4954ZM9.50465 12.5002H14.4954C14.4536 14.7449 14.1329 16.7482 13.647 18.206C13.3853 18.9913 13.0846 19.5906 12.775 19.9834C12.461 20.3819 12.1954 20.5002 12 20.5002C11.8047 20.5002 11.539 20.3819 11.225 19.9834C10.9154 19.5906 10.6148 18.9913 10.353 18.206C9.8671 16.7482 9.54638 14.7449 9.50465 12.5002ZM8.50448 11.5002C8.54621 9.17249 8.87777 7.05786 9.40435 5.47812C9.63694 4.78035 9.91377 4.168 10.2336 3.68398C6.54485 4.46362 3.73865 7.63551 3.51447 11.5002H8.50448ZM3.51447 12.5002H8.50448C8.54621 14.8279 8.87777 16.9425 9.40435 18.5223C9.63694 19.22 9.91378 19.8324 10.2336 20.3164C6.54485 19.5368 3.73865 16.3649 3.51447 12.5002ZM15.4955 12.5002H20.4855C20.2614 16.3649 17.4552 19.5368 13.7664 20.3164C14.0863 19.8324 14.3631 19.22 14.5957 18.5223C15.1223 16.9425 15.4538 14.8279 15.4955 12.5002Z" fill="white"/>
<path fill-rule="evenodd" clip-rule="evenodd" d="M14.3784 4.15035C14.5652 4.52408 14.7322 4.93911 14.8803 5.38325C15.3962 6.93114 15.7249 8.96599 15.7887 11.2002H20.1615C19.8376 7.85386 17.5017 5.09536 14.3784 4.15035ZM13.9822 4.04132C14.2124 4.45694 14.4171 4.94235 14.5957 5.47812C15.1223 7.05786 15.4538 9.17249 15.4955 11.5002H20.4855C20.4797 11.3997 20.4721 11.2997 20.4629 11.2002C20.1283 7.61663 17.5692 4.6791 14.1802 3.78238C14.0436 3.74623 13.9056 3.7134 13.7664 3.68398C13.8407 3.79636 13.9126 3.91564 13.9822 4.04132ZM14.188 11.2002C14.1245 9.10247 13.8145 7.24563 13.3624 5.88922C13.1065 5.12145 12.8194 4.55786 12.5394 4.20264C12.2532 3.83951 12.065 3.8002 12 3.8002C11.935 3.8002 11.7468 3.83951 11.4606 4.20264C11.1807 4.55786 10.8936 5.12145 10.6376 5.88922C10.1855 7.24563 9.87553 9.10247 9.81206 11.2002H14.188ZM14.4881 11.2002C14.4246 9.07722 14.1112 7.18689 13.647 5.79435C13.3853 5.00913 13.0846 4.40975 12.775 4.01695C12.461 3.61851 12.1954 3.5002 12 3.5002C11.8047 3.5002 11.539 3.61851 11.225 4.01695C10.9154 4.40975 10.6148 5.00913 10.353 5.79435C9.88885 7.18689 9.57543 9.07722 9.51192 11.2002C9.50894 11.2997 9.50652 11.3997 9.50465 11.5002H14.4954C14.4935 11.3997 14.4911 11.2997 14.4881 11.2002ZM9.50465 12.5002C9.50652 12.6007 9.50894 12.7007 9.51192 12.8002C9.57543 14.9232 9.88885 16.8135 10.353 18.206C10.6148 18.9913 10.9154 19.5906 11.225 19.9834C11.539 20.3819 11.8047 20.5002 12 20.5002C12.1954 20.5002 12.461 20.3819 12.775 19.9834C13.0846 19.5906 13.3853 18.9913 13.647 18.206C14.1112 16.8135 14.4246 14.9232 14.4881 12.8002C14.4911 12.7007 14.4935 12.6007 14.4954 12.5002H9.50465ZM9.81206 12.8002C9.87553 14.8979 10.1855 16.7548 10.6376 18.1112C10.8936 18.8789 11.1807 19.4425 11.4606 19.7978C11.7468 20.1609 11.935 20.2002 12 20.2002C12.065 20.2002 12.2532 20.1609 12.5394 19.7978C12.8194 19.4425 13.1065 18.8789 13.3624 18.1112C13.8145 16.7548 14.1245 14.8979 14.188 12.8002H9.81206ZM8.21137 11.2002C8.27508 8.96599 8.60378 6.93114 9.11975 5.38325C9.26779 4.93911 9.43486 4.52408 9.62161 4.15035C6.49833 5.09536 4.16245 7.85386 3.83852 11.2002H8.21137ZM8.50448 11.5002C8.54621 9.17249 8.87777 7.05786 9.40435 5.47812C9.58294 4.94235 9.78762 4.45694 10.0178 4.04132C10.0874 3.91565 10.1594 3.79636 10.2336 3.68398C10.0944 3.7134 9.95647 3.74623 9.81987 3.78237C6.43084 4.6791 3.87168 7.61663 3.53717 11.2002C3.52788 11.2997 3.5203 11.3997 3.51447 11.5002H8.50448ZM3.51447 12.5002C3.5203 12.6007 3.52788 12.7007 3.53717 12.8002C3.87168 16.3838 6.43084 19.3213 9.81987 20.218C9.95647 20.2542 10.0944 20.287 10.2336 20.3164C10.1594 20.204 10.0874 20.0847 10.0178 19.9591C9.78762 19.5434 9.58294 19.058 9.40435 18.5223C8.87777 16.9425 8.54621 14.8279 8.50448 12.5002H3.51447ZM9.62161 19.85C9.43486 19.4763 9.26779 19.0613 9.11975 18.6171C8.60378 17.0693 8.27508 15.0344 8.21137 12.8002H3.83852C4.16245 16.1465 6.49833 18.905 9.62161 19.85ZM15.7887 12.8002C15.7249 15.0344 15.3962 17.0692 14.8803 18.6171C14.7322 19.0613 14.5652 19.4763 14.3784 19.85C17.5017 18.905 19.8376 16.1465 20.1615 12.8002H15.7887ZM15.4955 12.5002C15.4538 14.8279 15.1223 16.9425 14.5957 18.5223C14.4171 19.058 14.2124 19.5434 13.9822 19.9591C13.9126 20.0847 13.8407 20.204 13.7664 20.3164C13.9056 20.287 14.0436 20.2542 14.1802 20.218C17.5692 19.3213 20.1283 16.3838 20.4629 12.8002C20.4721 12.7007 20.4797 12.6007 20.4855 12.5002H15.4955ZM21.8 12.0002C21.8 17.4126 17.4124 21.8002 12 21.8002C6.58762 21.8002 2.20001 17.4126 2.20001 12.0002C2.20001 6.5878 6.58762 2.2002 12 2.2002C17.4124 2.2002 21.8 6.58781 21.8 12.0002ZM12 21.5002C17.2467 21.5002 21.5 17.2469 21.5 12.0002C21.5 6.75349 17.2467 2.5002 12 2.5002C6.75331 2.5002 2.50001 6.75349 2.50001 12.0002C2.50001 17.2469 6.75331 21.5002 12 21.5002Z" fill="white"/>
</svg>
