<?xml version="1.0" encoding="UTF-8"?>
<svg width="12px" height="12px" viewBox="0 0 12 12" version="1.1" xmlns="http://www.w3.org/2000/svg" xmlns:xlink="http://www.w3.org/1999/xlink">
    <title>形状结合备份 3</title>
    <g id="定稿" stroke="none" stroke-width="1" fill="none" fill-rule="evenodd">
        <g id="形状结合备份-3" fill="#CCCCCE" fill-rule="nonzero">
            <path d="M0.5,2.57142857 L2.92857143,2.57142857 C3.2047138,2.57142857 3.42857143,2.7952862 3.42857143,3.07142857 L3.42857143,11.5 C3.42857143,11.7761424 3.2047138,12 2.92857143,12 L0.5,12 C0.223857625,12 1.01487248e-15,11.7761424 0,11.5 L0,3.07142857 C-3.38176876e-17,2.7952862 0.223857625,2.57142857 0.5,2.57142857 Z M4.78571429,0 L7.21428571,0 C7.49042809,1.94537167e-16 7.71428571,0.223857625 7.71428571,0.5 L7.71428571,11.5 C7.71428571,11.7761424 7.49042809,12 7.21428571,12 L4.78571429,12 C4.50957191,12 4.28571429,11.7761424 4.28571429,11.5 L4.28571429,0.5 C4.28571429,0.223857625 4.50957191,5.07265313e-17 4.78571429,0 Z M9.07142857,6 L11.5,6 C11.7761424,6 12,6.22385763 12,6.5 L12,11.5 C12,11.7761424 11.7761424,12 11.5,12 L9.07142857,12 C8.7952862,12 8.57142857,11.7761424 8.57142857,11.5 L8.57142857,6.5 C8.57142857,6.22385763 8.7952862,6 9.07142857,6 Z" id="形状结合"></path>
        </g>
    </g>
</svg>