<?xml version="1.0" encoding="UTF-8"?>
<svg width="20px" height="20px" viewBox="0 0 20 20" version="1.1" xmlns="http://www.w3.org/2000/svg" xmlns:xlink="http://www.w3.org/1999/xlink">
    <!-- Generator: Sketch 61.2 (89653) - https://sketch.com -->
    <title>编组 15</title>
    <desc>Created with Sketch.</desc>
    <g id="页面-1" stroke="none" stroke-width="1" fill="none" fill-rule="evenodd">
        <g id="H5-滚球" transform="translate(-277.000000, -165.000000)">
            <g id="编组-15" transform="translate(275.000000, 163.000000)">
                <rect id="矩形备份-7" fill="#D8D8D8" opacity="0" x="0" y="0" width="24" height="24"></rect>
                <path d="M12,2 C14.6711881,2 17.1823762,3.04019802 19.0710891,4.92891089 C20.959802,6.81772277 22,9.32891089 22,12 C22,14.6711881 20.959802,17.1822772 19.0710891,19.0710891 C17.1823762,20.959901 14.6711881,22 12,22 C9.32881188,22 6.81762376,20.959901 4.92891089,19.0710891 C3.04019802,17.1822772 2,14.6711881 2,12 C2,9.32891089 3.04019802,6.81772277 4.92891089,4.92891089 C6.81762376,3.04019802 9.32881188,2 12,2 Z M12,6.77534653 C9.11910891,6.77534653 6.77534653,9.11910891 6.77534653,12 C6.77534653,14.8808911 9.11910891,17.2246535 12,17.2246535 C14.8808911,17.2246535 17.2246535,14.8808911 17.2246535,12 C17.2246535,9.11910891 14.8808911,6.77534653 12,6.77534653 Z M12.0677985,7.94783141 L12.2649208,7.95575248 C14.2841287,8.08486139 15.9151188,9.71585149 16.0443267,11.7351584 C16.2004653,14.1781287 14.1779901,16.200604 11.7350198,16.0443663 C9.71571287,15.9151584 8.08462376,14.2840693 7.95571287,12.2647624 C7.79957426,9.82179208 9.8219505,7.79961386 12.2649208,7.95575248 Z M12.0381881,9.22060396 C10.8233366,9.22060396 9.98264356,9.8090198 9.98264356,10.7489208 C9.98264356,11.1222871 10.1160099,11.431396 10.3613564,11.6653564 C10.4639307,11.7631782 10.446901,11.9299109 10.3336337,12.0153564 C9.98719802,12.2768416 9.79175248,12.6458515 9.79175248,13.1100099 C9.79175248,14.1188218 10.6857129,14.7529802 12.0382871,14.7529802 C13.3982871,14.7529802 14.3000693,14.1188218 14.3000693,13.1100099 C14.3000693,12.6456535 14.1042277,12.2765446 13.7534356,12.0149604 C13.6390792,11.9296139 13.6221485,11.7618911 13.7256139,11.6634752 C13.9717525,11.4298119 14.1089802,11.121297 14.1089802,10.7489208 C14.1089802,9.8090198 13.2684851,9.22060396 12.0381881,9.22060396 Z M12.0382871,12.307703 C12.657099,12.307703 13.046901,12.598198 13.046901,13.0718614 C13.046901,13.5456238 12.657198,13.8436436 12.0382871,13.8436436 C11.426901,13.8436436 11.0448218,13.5456238 11.0448218,13.0718614 C11.0448218,12.598099 11.426901,12.307703 12.0382871,12.307703 Z M12.0382871,10.1300396 C12.5426436,10.1300396 12.8787822,10.3821188 12.8787822,10.8024158 C12.8787822,11.2074653 12.5501683,11.4595446 12.0382871,11.4595446 C11.5338317,11.4595446 11.2129406,11.2073663 11.2129406,10.8024158 C11.2129406,10.3822178 11.5415545,10.1300396 12.0382871,10.1300396 Z" id="形状结合" fill="#B6C1CB"></path>
            </g>
        </g>
    </g>
</svg>