<?xml version="1.0" encoding="UTF-8"?>
<svg width="20px" height="20px" viewBox="0 0 20 20" version="1.1" xmlns="http://www.w3.org/2000/svg" xmlns:xlink="http://www.w3.org/1999/xlink">
    <!-- Generator: Sketch 61.2 (89653) - https://sketch.com -->
    <title>乒</title>
    <desc>Created with Sketch.</desc>
    <g id="页面-1" stroke="none" stroke-width="1" fill="none" fill-rule="evenodd">
        <g id="乒" transform="translate(-2.000000, -2.000000)">
            <rect id="矩形备份-13" fill="#D8D8D8" opacity="0" x="0" y="0" width="24" height="24"></rect>
            <path d="M19.7210399,17.3679012 C20.9796832,17.3679012 22,18.4048009 22,19.6839006 C22,20.9630003 20.9796832,22 19.7210399,22 C18.4623967,22 17.4420799,20.9630003 17.4420799,19.6839006 C17.4420799,18.4048009 18.4623967,17.3679012 19.7210399,17.3679012 Z M4.45957454,8.73952332 L14.0797183,18.5159209 C13.7765458,18.5758209 13.469142,18.6188208 13.158983,18.6436208 C11.3551015,18.7874208 9.55476245,18.3222209 8.04933024,17.3292212 L8.04933024,17.3292212 L4.54331353,20.8921203 C4.46242816,20.9743203 4.35635221,21.0154202 4.25027626,21.0154202 C4.14410191,21.0154202 4.03812436,20.9743203 3.9573374,20.8921203 L3.9573374,20.8921203 L2.12147566,19.0264207 C1.95950811,18.8619208 1.95950811,18.5953209 2.12147566,18.4309209 L2.12147566,18.4309209 L5.62729557,14.8679218 C4.65027508,13.3381222 4.19231825,11.5082226 4.33401525,9.67522308 C4.35832022,9.35992316 4.40063252,9.04762324 4.45957454,8.73952332 L4.45957454,8.73952332 Z M6.71114968,4.43787439 C9.90956583,1.1874752 15.1139785,1.1872752 18.3124931,4.43787439 C21.5110076,7.68827358 21.5110076,12.9773723 18.3123946,16.2277714 C17.5283379,17.0245712 16.598845,17.6453711 15.5860066,18.061671 L15.5860066,18.061671 L4.90657937,7.2085737 C5.31622145,6.17937396 5.92699456,5.23467419 6.71114968,4.43787439 Z" id="形状结合" fill="#B6C1CB"></path>
        </g>
    </g>
</svg>