<?xml version="1.0" encoding="UTF-8"?>
<svg width="20px" height="20px" viewBox="0 0 20 20" version="1.1" xmlns="http://www.w3.org/2000/svg" xmlns:xlink="http://www.w3.org/1999/xlink">
    <!-- Generator: Sketch 61.2 (89653) - https://sketch.com -->
    <title>网</title>
    <desc>Created with Sketch.</desc>
    <g id="页面-1" stroke="none" stroke-width="1" fill="none" fill-rule="evenodd">
        <g id="网" transform="translate(-2.000000, -2.000000)">
            <rect id="矩形" fill="#D8D8D8" opacity="0" x="0" y="0" width="24" height="24"></rect>
            <path d="M16.4697308,2.89692266 L16.5258397,2.91428025 C17.4432414,3.38348012 18.3035431,4.00197995 19.0712445,4.77647974 C22.9755518,8.71677865 22.9769518,15.1049769 19.0712445,19.0447758 C15.1656372,22.9857747 8.83372532,22.9843747 4.92871801,19.0447758 C1.02441069,15.1043769 1.02311069,8.71677865 4.92871801,4.77647974 C5.66251938,4.03547994 6.48422092,3.43678011 7.35902256,2.97588024 C7.45092273,2.92748025 7.56572294,2.97158024 7.60142301,3.06908021 C8.0737239,4.36457985 7.53092288,5.72517948 6.6368212,7.72537892 C5.459219,10.3544782 3.84911598,13.9543772 7.77072333,17.1286763 C9.01012565,18.130876 10.4470283,18.6620759 11.9304311,18.6620759 L11.9304311,18.6620759 C13.4163339,18.6620759 14.8546366,18.130876 16.0933389,17.1286763 C20.0128463,13.9530772 18.4028432,10.3538782 17.227241,7.72467892 C16.3177393,5.69347949 15.7720383,4.32077987 16.2862393,3.00538023 C16.3233393,2.91068026 16.4353396,2.86808027 16.5258397,2.91428025 Z M8.97002557,2.46573038 C10.9399293,1.85823055 13.0490332,1.84573055 15.0236369,2.42423039 C15.1208371,2.45263038 15.1721372,2.55943035 15.1350371,2.65353033 C13.1965335,7.57242897 20.9773481,11.6029279 15.4155376,16.1078266 C14.3095356,17.0003264 13.1325334,17.3776263 12.0006312,17.3769263 L12.0006312,17.3769263 L11.9993312,17.3776263 C10.8648291,17.3782263 9.69042692,17.0022264 8.58372485,16.1078266 C3.03661446,11.6153278 10.7465289,7.59672896 8.86052537,2.69303032 C8.8247253,2.60003034 8.8749254,2.49513037 8.97002557,2.46573038 Z" id="形状结合" fill="#B6C1CB"></path>
        </g>
    </g>
</svg>