<?xml version="1.0" encoding="UTF-8"?>
<svg width="20px" height="20px" viewBox="0 0 20 20" version="1.1" xmlns="http://www.w3.org/2000/svg" xmlns:xlink="http://www.w3.org/1999/xlink">
    <title>paiqiu_weixuanzhong</title>
    <g id="paiqiu_weixuanzhong" stroke="none" stroke-width="1" fill="none" fill-rule="evenodd">
        <path d="M10.0683202,7.40862163 C10.4939636,7.55109512 11.3452504,7.9785156 12.4802996,8.26346259 C12.4802996,6.69625416 12.0546561,4.98657225 11.4871316,3.56183732 C11.0614882,2.27957589 10.4939636,1.13978794 9.7845579,0 C8.79138992,0 7.94010307,0.142473493 7.08881623,0.427420479 C8.36574649,2.70699636 9.35891448,4.98657225 10.0683202,7.40862163 Z M7.08881623,11.1129324 C6.52129167,11.8252999 5.67000483,12.5376674 4.96059913,13.5349818 C5.95376711,14.3898228 6.94693509,15.1021902 8.08198421,15.6720842 C10.6358447,17.0968191 13.4734675,17.6667131 16.3110904,17.3817661 L16.7367338,16.9543457 C17.4461395,16.2419782 18.1555452,15.2446637 18.5811886,14.2473493 C18.4393075,14.3898228 12.6221807,14.9597168 7.08881623,11.1129324 L7.08881623,11.1129324 Z M12.7640618,9.54572402 C11.3452504,8.97583005 10.3520825,8.69088307 9.7845579,8.40593608 L7.94010307,10.2580915 C9.21703334,10.970459 10.4939636,11.5403529 11.7708939,12.1102469 C14.0409921,13.1075613 16.5948526,13.5349818 19.1487132,13.2500348 L19.4324754,13.2500348 C19.7162377,12.5376674 19.8581189,11.8252999 20,11.1129324 C17.4461395,10.8279855 15.0341601,10.2580915 12.7640618,9.54572402 L12.7640618,9.54572402 Z M17.1623772,9.68819752 C18.013664,9.83067101 19.006832,9.9731445 19.8581189,10.115618 L19.8581189,9.9731445 C19.8581189,7.26614814 18.8649509,4.70162526 17.0204961,2.84946986 C16.5948526,2.42204938 16.3110904,2.13710239 15.7435658,1.85215541 C16.8786149,4.27420479 17.4461395,6.98120115 17.1623772,9.68819752 Z M6.52129167,10.115618 C7.65634079,8.97583005 8.64950878,8.12098909 9.0751522,7.69356862 C8.79138992,6.83872766 8.50762763,5.9838867 8.22386535,5.27151924 C7.23069737,5.69893971 6.37941053,6.12636019 5.67000483,6.83872766 C3.39990658,8.69088307 1.83921404,11.1129324 0.846046058,13.8199288 C1.12980834,14.5322963 1.55545176,15.2446637 1.98109518,15.9570312 C3.25802544,13.8199288 4.81871799,11.8252999 6.52129167,10.115618 Z M4.39307457,14.2473493 L2.69050088,16.8118722 L2.97426316,17.0968191 C6.23752939,20.231236 11.0614882,20.9436035 15.0341601,18.6640276 C13.7572298,18.5215541 8.50762763,18.2366071 4.39307457,14.2473493 Z M13.4734675,8.69088307 C14.3247544,8.97583005 15.1760412,9.26077704 16.1692092,9.40325053 C16.3110904,7.12367464 15.1760412,2.42204938 13.899111,0.854840957 C13.0478241,0.427420479 12.0546561,0.284946986 11.0614882,0.142473493 C12.3384184,1.56720842 13.4734675,6.83872766 13.4734675,8.69088307 Z M2.26485746,8.97583005 C3.1161443,7.83604211 3.96743114,6.83872766 5.10248027,5.9838867 C5.95376711,5.27151924 6.80505395,4.70162526 7.79822193,4.27420479 C7.08881623,2.56452287 6.37941053,1.13978794 6.09564825,0.854840957 C1.55545176,2.70699636 -0.856527626,7.55109512 0.278521497,12.2527204 C0.846046058,11.1129324 1.41357062,9.9731445 2.26485746,8.97583005 Z" id="Mask" fill="#B6C1CB"></path>
    </g>
</svg>