<?xml version="1.0" encoding="UTF-8"?>
<svg width="20px" height="20px" viewBox="0 0 20 20" version="1.1" xmlns="http://www.w3.org/2000/svg" xmlns:xlink="http://www.w3.org/1999/xlink">
    <title>meizu_weixuanzhong</title>
    <g id="meizu_weixuanzhong" stroke="none" stroke-width="1" fill="none" fill-rule="evenodd">
        <path d="M0.0633708218,12.5932149 C0.0711708355,12.4975147 0.188071041,12.4553147 0.25607116,12.5232148 L0.25607116,12.5232148 L7.47728384,19.7441287 C7.54498396,19.8119288 7.50298389,19.928729 7.40738372,19.936729 C7.08258315,19.9638291 6.75338257,19.9819291 6.41988199,19.9908291 C4.65347888,20.0457292 2.88807578,19.8539289 1.17467277,19.421128 C0.886472268,19.3387279 0.661271872,19.1135274 0.578971727,18.8254269 C0.146070967,17.1119236 -0.0457293698,15.3465202 0.00917072661,13.5801168 L0.00917072661,13.5801168 L0.0298207629,13.0834784 L0.0298207629,13.0834784 Z M15.4398578,5.78632183 C15.4841579,5.74212175 15.555658,5.74212175 15.5999581,5.78632183 L15.5999581,5.78632183 L19.530265,9.71662939 C19.5581651,9.74452944 19.5696651,9.78502952 19.5606651,9.82332959 C18.977764,12.3026344 17.819862,14.4480385 16.1338591,16.1341417 C14.4477561,17.820145 12.3029523,18.9781472 9.82334797,19.5610483 C9.7849479,19.5700483 9.74454783,19.5585483 9.71674778,19.5307482 L9.71674778,19.5307482 L5.78634087,15.6003407 C5.7421408,15.5561406 5.7421408,15.4845405 5.78634087,15.4402404 L5.78634087,15.4402404 L7.47774385,13.7492371 C7.54164396,13.685337 7.65084415,13.7185371 7.66864418,13.8071372 L7.66864418,13.8071372 L7.90034459,14.9667395 C7.91254461,15.0279396 7.97214471,15.0677397 8.03344482,15.0555396 L8.03344482,15.0555396 L9.51274742,14.7596391 C9.57394753,14.7474391 9.6136476,14.6878389 9.60134758,14.6265388 L9.60134758,14.6265388 L9.29904704,13.1127359 C9.28324702,13.0336358 9.35294714,12.9639356 9.43204728,12.9796357 L9.43204728,12.9796357 L10.9459499,13.2820362 C11.00715,13.2943363 11.0667501,13.2546362 11.0789502,13.1934361 L11.0789502,13.1934361 L11.3748507,11.7141332 C11.3871507,11.6527331 11.3473506,11.593233 11.2860505,11.581033 L11.2860505,11.581033 L10.1267485,11.3491325 C10.0382483,11.3313325 10.0050483,11.2221323 10.0689484,11.1582322 L10.0689484,11.1582322 L11.1579503,10.0692301 C11.2217504,10.0053299 11.3310506,10.03843 11.3488506,10.1270302 L11.3488506,10.1270302 L11.5806511,11.2863324 C11.5928511,11.3477325 11.6524512,11.3874326 11.7137513,11.3751326 L11.7137513,11.3751326 L13.1929539,11.079232 C13.254354,11.067032 13.2940541,11.0074319 13.281754,10.9462317 L13.281754,10.9462317 L12.9793535,9.43242884 C12.9634535,9.35322869 13.0333536,9.28342855 13.1124537,9.29932858 L13.1124537,9.29932858 L14.6261564,9.60172917 C14.6875565,9.61402919 14.7470566,9.57422911 14.7592566,9.51292899 L14.7592566,9.51292899 L15.0551572,8.03362615 C15.0674572,7.97242603 15.0277571,7.91282592 14.966457,7.9005259 L14.966457,7.9005259 L13.807055,7.66862545 C13.7184548,7.65092542 13.6853547,7.54162521 13.7492549,7.47772508 L13.7492549,7.47772508 Z M10.1767786,0.439461555 C10.2150787,0.430361538 10.2555787,0.44196156 10.2833788,0.469761613 L10.2833788,0.469761613 L14.2137857,4.39976917 C14.2578858,4.44396925 14.2578858,4.51556939 14.2137857,4.55976947 L14.2137857,4.55976947 L12.5222827,6.25077272 C12.4583826,6.31457285 12.3490824,6.28147278 12.3313824,6.19287261 L12.3313824,6.19287261 L12.099882,5.03357039 C12.0875819,4.97227027 12.0280818,4.93247019 11.9667817,4.94477021 L11.9667817,4.94477021 L10.4874791,5.24067078 C10.426279,5.25287081 10.386579,5.31247092 10.398779,5.37377104 L10.398779,5.37377104 L10.7011795,6.88747395 C10.7169795,6.9666741 10.6472794,7.03637423 10.5680793,7.0205742 L10.5680793,7.0205742 L9.05427661,6.71817362 C8.99307651,6.7059736 8.9334764,6.74567368 8.92117638,6.80687379 L8.92117638,6.80687379 L8.62537586,8.28617664 C8.61307584,8.34747675 8.65287591,8.40707687 8.71407602,8.41927689 L8.71407602,8.41927689 L9.87367805,8.65097734 C9.96217821,8.66867737 9.99527827,8.77797758 9.93147816,8.8418777 L9.93147816,8.8418777 L8.84247624,9.9307798 C8.77857613,9.99467992 8.66937594,9.96157986 8.65157591,9.87297969 L8.65157591,9.87297969 L8.4197755,8.71367746 C8.40757548,8.65237734 8.34797537,8.61267726 8.28667527,8.62497729 L8.28667527,8.62497729 L6.80737267,8.92077786 C6.74607256,8.93307788 6.70637249,8.99257799 6.71867251,9.05387811 L6.71867251,9.05387811 L7.02097304,10.567581 C7.03687307,10.6467812 6.96707295,10.7165813 6.88797281,10.7006813 L6.88797281,10.7006813 L5.37427015,10.3982807 C5.31287004,10.3860807 5.25336994,10.4257807 5.24106992,10.4870809 L5.24106992,10.4870809 L4.9451694,11.9663837 C4.93286938,12.0276838 4.97266945,12.0872839 5.03396955,12.099484 L5.03396955,12.099484 L6.19307159,12.3312844 C6.28167174,12.3490844 6.3147718,12.4583847 6.25087169,12.5221848 L6.25087169,12.5221848 L4.56016872,14.213688 C4.51596864,14.2579881 4.44436852,14.2579881 4.40016844,14.213688 L4.40016844,14.213688 L0.469861536,10.2833805 C0.441961487,10.2554804 0.430361466,10.2150803 0.439461482,10.1766803 C1.02236251,7.69737551 2.18006454,5.55237138 3.8661675,3.86636814 C5.55237046,2.1803649 7.69717423,1.02236268 10.1767786,0.439461555 Z M13.5801146,0.00917072813 C15.3465177,-0.0457293774 17.1119208,0.146070991 18.8254238,0.578971823 C19.1135243,0.661271981 19.3388247,0.886572415 19.4211248,1.17467297 C19.8540256,2.88807626 20.0457259,4.65357965 19.9908258,6.41998305 C19.9814258,6.75318369 19.9633258,7.08228432 19.9367257,7.40718495 C19.9288257,7.50288513 19.8119255,7.54508521 19.7440254,7.47718508 L19.7440254,7.47718508 L12.5229127,0.255971202 C12.4550126,0.188171072 12.4970127,0.0712708475 12.5926128,0.0632708321 C12.9175134,0.0362707802 13.246614,0.0182707456 13.5801146,0.00917072813 Z" id="形状结合" fill="#B6C1CB"></path>
    </g>
</svg>