<?xml version="1.0" encoding="UTF-8"?>
<svg width="21px" height="18px" viewBox="0 0 21 18" version="1.1" xmlns="http://www.w3.org/2000/svg" xmlns:xlink="http://www.w3.org/1999/xlink">
    <!-- Generator: Sketch 61.2 (89653) - https://sketch.com -->
    <title>设置 </title>
    <desc>Created with Sketch.</desc>
    <g id="页面-1" stroke="none" stroke-width="1" fill="none" fill-rule="evenodd">
        <g id="H5-今日" transform="translate(-340.000000, -58.000000)" fill-rule="nonzero">
            <g id="设置-" transform="translate(339.000000, 56.000000)">
                <path d="M15.8286141,3.01864345 L6.62593162,3.01864294 L2.02373315,10.9888139 L6.62593132,18.9589844 L15.8286138,18.9589849 L20.4308123,10.9888139 L15.8286141,3.01864345 Z" id="形状" stroke="#333333" stroke-width="2"></path>
                <path d="M11.2272727,6.72745029 C8.87372159,6.72745029 6.9659091,8.63526278 6.9659091,10.9888139 C6.9659091,13.3423651 8.87372159,15.2501776 11.2272727,15.2501776 C13.5808239,15.2501776 15.4886364,13.3423651 15.4886364,10.9888139 C15.4886364,8.63532777 13.5807589,6.72745029 11.2272727,6.72745029 Z M13.0340909,12.7956321 C12.3895866,13.4499209 11.4436775,13.7082753 10.5560587,13.4724526 C9.66843982,13.23663 8.9754904,12.5428634 8.74071398,11.6549672 C8.50593757,10.767071 8.76540666,9.8214671 9.42045455,9.17773437 C10.4218352,8.1936514 12.0294032,8.20112761 13.0215875,9.19448192 C14.0137718,10.1878362 14.0193534,11.795412 13.0340909,12.7956321 L13.0340909,12.7956321 Z" id="形状" fill="#333333"></path>
            </g>
        </g>
    </g>
</svg>