<?xml version="1.0" encoding="UTF-8"?>
<svg width="20px" height="20px" viewBox="0 0 20 20" version="1.1" xmlns="http://www.w3.org/2000/svg" xmlns:xlink="http://www.w3.org/1999/xlink">
    <!-- Generator: Sketch 61.1 (89650) - https://sketch.com -->
    <title>mima-xianshi</title>
    <desc>Created with Sketch.</desc>
    <g id="mima-xianshi" stroke="none" stroke-width="1" fill="none" fill-rule="evenodd">
        <g id="编组" fill-rule="nonzero">
            <rect id="矩形" fill="#000000" opacity="0" x="0" y="0" width="20" height="20"></rect>
            <path d="M15.8476563,5.86328125 C16.7478693,6.703125 17.5334775,7.78024923 18.2044809,9.09612134 L18.4023438,9.49804688 L18.4588192,9.6391388 C18.5496652,9.92223374 18.53125,10.2307478 18.4023438,10.5019531 C16.5507813,14.4042969 13.7539063,16.3671875 10,16.3671875 C8.8462358,16.3671875 7.78399406,16.1815276 6.80792608,15.8134171 L6.48575437,15.6839606 L6.172,15.542 L8.55681848,13.1572257 C8.97609188,13.3391487 9.43870004,13.44 9.92486328,13.44 C11.8247228,13.44 13.3648633,11.8998595 13.3648633,10 C13.3648633,9.51409653 13.2641197,9.05172298 13.0823805,8.63262733 L15.8475342,5.86738586 L15.845,5.865 L15.8476563,5.86328125 Z M10,3.6328125 C11.4101563,3.6328125 12.6835938,3.91015625 13.8242188,4.46289062 C14.3673735,4.72609747 14.8666619,5.04015916 15.3220838,5.4050757 L15.5900729,5.6301282 L15.845,5.865 L13.0810872,8.62964871 C12.5515497,7.41169004 11.3376679,6.56 9.92486328,6.56 C8.02500374,6.56 6.48486328,8.10014046 6.48486328,10 C6.48486328,11.412924 7.33669723,12.6268915 8.55482068,13.1563581 L6.16992188,15.5410156 L5.87776651,15.398212 C5.2920308,15.0888385 4.71623884,14.6696429 4.15039063,14.140625 C3.16015625,13.2148437 2.30859375,12.0039062 1.59765625,10.5058594 C1.44726563,10.1875 1.44726563,9.81640625 1.59765625,9.49804687 C3.44921875,5.59570312 6.24609375,3.6328125 10,3.6328125 Z M10,7.5 C11.3807119,7.5 12.5,8.61928813 12.5,10 C12.5,11.3807119 11.3807119,12.5 10,12.5 C8.61928813,12.5 7.5,11.3807119 7.5,10 C7.5,8.61928813 8.61928813,7.5 10,7.5 Z" id="形状结合" fill="#FFFFFF" opacity="0.5"></path>
        </g>
    </g>
</svg>