<?xml version="1.0" encoding="UTF-8"?>
<svg width="20px" height="20px" viewBox="0 0 20 20" version="1.1" xmlns="http://www.w3.org/2000/svg" xmlns:xlink="http://www.w3.org/1999/xlink">
    <!-- Generator: Sketch 61.1 (89650) - https://sketch.com -->
    <title>mima-buxianshi</title>
    <desc>Created with Sketch.</desc>
    <g id="mima-buxianshi" stroke="none" stroke-width="1" fill="none" fill-rule="evenodd">
        <g id="编组" fill-rule="nonzero">
            <rect id="矩形" fill="#000000" opacity="0" x="0" y="0" width="20" height="20"></rect>
            <path d="M18.4042969,9.5 L18.4023438,9.49804688 L18.4003906,9.49609375 C17.6894531,7.99804688 16.8378906,6.78710938 15.8476563,5.86328125 L13.0742188,8.63671875 C13.2558594,9.0546875 13.3554688,9.51757812 13.3554688,10.0019531 C13.3554688,11.9003906 11.8164063,13.4394531 9.91796875,13.4394531 C9.43359375,13.4394531 8.97070313,13.3398437 8.55273438,13.1582031 L6.16992188,15.5410156 C7.31640625,16.0898438 8.58984375,16.3671875 10,16.3671875 C13.7539063,16.3671875 16.5507813,14.4042969 18.4023438,10.5019531 C18.5527344,10.1855469 18.5527344,9.81835938 18.4042969,9.5 L18.4042969,9.5 Z M15.5813184,2.70729533 L13.8242188,4.46289062 L13.8242188,4.46289062 C12.6835938,3.91015625 11.4101563,3.6328125 10,3.6328125 C6.24609375,3.6328125 3.44921875,5.59570312 1.59765625,9.49804687 L1.59765625,9.5 C1.44726562,9.81640625 1.44726562,10.1875 1.59765625,10.5058594 C2.30859375,12.0039062 3.16015625,13.2148437 4.15039062,14.140625 L2.70852884,15.5796231 C2.41890324,15.8686735 2.41843692,16.3377831 2.7074873,16.6274087 C2.70766072,16.6275824 2.70783422,16.6277561 2.70800781,16.6279297 C2.9976337,16.9175556 3.46721005,16.9175556 3.75683594,16.6279297 L16.6303709,3.75439476 C16.9194577,3.46530796 16.9194577,2.99660565 16.6303709,2.70751885 C16.6302083,2.70735624 16.6300456,2.70719371 16.6298828,2.70703125 C16.3401416,2.4178296 15.8709139,2.41794778 15.5813184,2.70729533 Z M6.81445312,11.4726563 C6.60351563,11.0253906 6.484375,10.5273438 6.484375,10 C6.484375,8.1015625 8.0234375,6.5625 9.921875,6.5625 C10.4492188,6.5625 10.9472656,6.68164063 11.3945312,6.89257812 L6.81445312,11.4726563 Z" id="形状" fill="#FFFFFF" opacity="0.5"></path>
        </g>
    </g>
</svg>