<?xml version="1.0" encoding="UTF-8"?>
<svg width="20px" height="20px" viewBox="0 0 20 20" version="1.1" xmlns="http://www.w3.org/2000/svg" xmlns:xlink="http://www.w3.org/1999/xlink">
    <title>筛选</title>
    <g id="页面-1" stroke="none" stroke-width="1" fill="none" fill-rule="evenodd">
        <g id="玩法切换备份-2" transform="translate(-342.000000, -56.000000)" fill="#17191D" fill-rule="nonzero">
            <path d="M361.503451,56 C361.915511,56 362.135585,56.5093684 361.909281,56.8553274 L361.853862,56.9267151 L354.84975,63.8247429 L354.850586,76 L353.859476,76 L353.859476,63.6 C353.859476,63.4848203 353.89289,63.3734145 353.953838,63.281335 L354.00462,63.216142 L360.306345,57.0857143 L343.777067,57.0857143 L349.905398,63.1986066 C349.987907,63.2809044 350.04203,63.3906267 350.060379,63.5094564 L350.067318,63.6 L350.066652,69.4161714 L351.985545,70.7406717 L351.457308,71.6593283 L349.307644,70.1760135 C349.187604,70.0931832 349.106911,69.9589349 349.083348,69.8085618 L349.076208,69.7166853 L349.075542,63.8388571 L342.162917,56.9442506 C341.850459,56.6325908 342.017484,56.0801488 342.409254,56.007875 L342.496552,56 L361.503451,56 Z" id="筛选"></path>
        </g>
    </g>
</svg>