<?xml version="1.0" encoding="UTF-8"?>
<svg width="250px" height="210px" viewBox="0 0 250 210" version="1.1" xmlns="http://www.w3.org/2000/svg" xmlns:xlink="http://www.w3.org/1999/xlink">
    <title>暂无记录备份@2x</title>
    <defs>
        <linearGradient x1="50%" y1="0%" x2="50%" y2="100%" id="linearGradient-1">
            <stop stop-color="#414141" offset="0%"></stop>
            <stop stop-color="#707070" offset="100%"></stop>
        </linearGradient>
        <linearGradient x1="50%" y1="0%" x2="50%" y2="100%" id="linearGradient-2">
            <stop stop-color="#414141" offset="0%"></stop>
            <stop stop-color="#707070" offset="100%"></stop>
        </linearGradient>
        <linearGradient x1="50%" y1="0%" x2="50%" y2="100%" id="linearGradient-3">
            <stop stop-color="#414141" offset="0%"></stop>
            <stop stop-color="#707070" offset="100%"></stop>
        </linearGradient>
        <linearGradient x1="51.5966474%" y1="24.0866279%" x2="60.5356485%" y2="59.8394163%" id="linearGradient-4">
            <stop stop-color="#868686" stop-opacity="0.994973776" offset="0%"></stop>
            <stop stop-color="#313131" stop-opacity="0" offset="100%"></stop>
        </linearGradient>
        <linearGradient x1="43.4983487%" y1="46.7111601%" x2="53.4847101%" y2="55.4610505%" id="linearGradient-5">
            <stop stop-color="#707070" offset="0%"></stop>
            <stop stop-color="#5A5A5A" offset="100%"></stop>
        </linearGradient>
        <linearGradient x1="50%" y1="0%" x2="50%" y2="100%" id="linearGradient-6">
            <stop stop-color="#5B5B5B" offset="0%"></stop>
            <stop stop-color="#9D9D9D" offset="100%"></stop>
        </linearGradient>
        <linearGradient x1="50%" y1="0%" x2="50%" y2="100%" id="linearGradient-7">
            <stop stop-color="#5B5B5B" offset="0%"></stop>
            <stop stop-color="#9D9D9D" offset="100%"></stop>
        </linearGradient>
        <linearGradient x1="50%" y1="0%" x2="50%" y2="100%" id="linearGradient-8">
            <stop stop-color="#CACACA" offset="0%"></stop>
            <stop stop-color="#F6F6F6" offset="100%"></stop>
        </linearGradient>
        <linearGradient x1="50%" y1="0%" x2="50%" y2="100%" id="linearGradient-9">
            <stop stop-color="#FFFFFF" offset="0%"></stop>
            <stop stop-color="#F6F6F6" offset="100%"></stop>
        </linearGradient>
    </defs>
    <g id="页面-1" stroke="none" stroke-width="1" fill="none" fill-rule="evenodd">
        <g id="缺失页面" transform="translate(-1063.000000, -147.000000)" fill-rule="nonzero">
            <g id="暂无记录备份@2x" transform="translate(1063.000000, 147.000000)">
                <g id="背景_41_" style="mix-blend-mode: luminosity;">
                    <path d="M81.1994609,67.4455645 L81.1994609,66.2975692 L71.2601078,66.2975692 L71.2601078,67.630725 L69.0768194,67.630725 L69.0768194,98.8824559 L83.5815364,98.8824559 L83.5815364,67.4455645 L81.1994609,67.4455645 L81.1994609,67.4455645 Z M82.3247978,95.3004413 L70.1819407,95.3004413 L70.1819407,94.3746386 L82.3247978,94.3746386 L82.3247978,95.3004413 L82.3247978,95.3004413 Z M82.3247978,91.0316494 L70.1819407,91.0316494 L70.1819407,90.1058468 L82.3247978,90.1058468 L82.3247978,91.0316494 L82.3247978,91.0316494 Z M82.3247978,86.7628576 L70.1819407,86.7628576 L70.1819407,85.8370549 L82.3247978,85.8370549 L82.3247978,86.7628576 L82.3247978,86.7628576 Z M82.3247978,82.6085286 L70.1819407,82.6085286 L70.1819407,81.682726 L82.3247978,81.682726 L82.3247978,82.6085286 L82.3247978,82.6085286 Z M82.3247978,78.4642993 L70.1819407,78.4642993 L70.1819407,77.5384967 L82.3247978,77.5384967 L82.3247978,78.4642993 L82.3247978,78.4642993 Z M82.3247978,74.1955075 L70.1819407,74.1955075 L70.1819407,73.2697048 L82.3247978,73.2697048 L82.3247978,74.1955075 L82.3247978,74.1955075 Z M82.3247978,70.0411785 L70.1819407,70.0411785 L70.1819407,69.1153758 L82.3247978,69.1153758 L82.3247978,70.0411785 L82.3247978,70.0411785 Z" id="形状" fill="#606060"></path>
                    <path d="M61.6644205,84.8876864 L61.6644205,48.464927 L50.6300539,48.464927 L50.6300539,45.5225578 L45.9568733,45.5225578 L45.9568733,63.4763961 L44.7001348,63.4763961 L44.7001348,118.405109 L64.4137466,118.405109 L64.4137466,84.8876864 L61.6644205,84.8876864 L61.6644205,84.8876864 Z M53.4097035,95.5966981 L50.6266846,95.5966981 L50.6266846,92.9000875 L53.4097035,92.9000875 L53.4097035,95.5966981 Z M53.4097035,91.3784046 L50.6266846,91.3784046 L50.6266846,88.681794 L53.4097035,88.681794 L53.4097035,91.3784046 Z M53.4097035,87.1769439 L50.6266846,87.1769439 L50.6266846,84.4803332 L53.4097035,84.4803332 L53.4097035,87.1769439 Z M53.4097035,82.9923159 L50.6266846,82.9923159 L50.6266846,80.2957053 L53.4097035,80.2957053 L53.4097035,82.9923159 Z M53.4097035,78.7740224 L50.6266846,78.7740224 L50.6266846,76.0774117 L53.4097035,76.0774117 L53.4097035,78.7740224 Z M53.4097035,70.3542681 L50.6266846,70.3542681 L50.6266846,67.6576575 L53.4097035,67.6576575 L53.4097035,70.3542681 Z M53.4097035,66.1393411 L50.6266846,66.1393411 L50.6266846,63.4427305 L53.4097035,63.4427305 L53.4097035,66.1393411 Z M53.4097035,61.9378804 L50.6266846,61.9378804 L50.6266846,59.2412698 L53.4097035,59.2412698 L53.4097035,61.9378804 Z M53.4097035,57.7498859 L50.6266846,57.7498859 L50.6266846,55.0532753 L53.4097035,55.0532753 L53.4097035,57.7498859 Z M53.4097035,53.5315924 L50.6266846,53.5315924 L50.6266846,50.8349817 L53.4097035,50.8349817 L53.4097035,53.5315924 Z M57.5707547,95.5966981 L54.7877358,95.5966981 L54.7877358,92.9000875 L57.5707547,92.9000875 L57.5707547,95.5966981 Z M57.5707547,91.3784046 L54.7877358,91.3784046 L54.7877358,88.681794 L57.5707547,88.681794 L57.5707547,91.3784046 Z M57.5707547,87.1769439 L54.7877358,87.1769439 L54.7877358,84.4803332 L57.5707547,84.4803332 L57.5707547,87.1769439 Z M57.5707547,82.9923159 L54.7877358,82.9923159 L54.7877358,80.2957053 L57.5707547,80.2957053 L57.5707547,82.9923159 Z M57.5707547,78.7740224 L54.7877358,78.7740224 L54.7877358,76.0774117 L57.5707547,76.0774117 L57.5707547,78.7740224 Z M57.5707547,70.3542681 L54.7877358,70.3542681 L54.7877358,67.6576575 L57.5707547,67.6576575 L57.5707547,70.3542681 Z M57.5707547,66.1393411 L54.7877358,66.1393411 L54.7877358,63.4427305 L57.5707547,63.4427305 L57.5707547,66.1393411 Z M57.5707547,61.9378804 L54.7877358,61.9378804 L54.7877358,59.2412698 L57.5707547,59.2412698 L57.5707547,61.9378804 Z M57.5707547,57.7498859 L54.7877358,57.7498859 L54.7877358,55.0532753 L57.5707547,55.0532753 L57.5707547,57.7498859 Z M57.5707547,53.5315924 L54.7877358,53.5315924 L54.7877358,50.8349817 L57.5707547,50.8349817 L57.5707547,53.5315924 Z" id="形状" fill="#8B8B8B"></path>
                    <path d="M170.259434,104.036652 C170.380728,102.471204 170.259434,51.3567978 170.259434,51.3567978 L176.502695,51.3567978 L176.502695,62.705455 L186.442049,62.705455 L186.442049,86.4228355 L192.078841,86.4228355 L192.078841,104.036652 L170.259434,104.036652 L170.259434,104.036652 Z" id="路径" fill="#606060"></path>
                    <path d="M211.098383,81.0969454 L211.098383,79.4641662 L209.413747,79.4641662 L209.413747,65.2135385 L205.303235,65.2135385 L205.303235,63.6312576 L202.530323,63.6312576 L202.530323,61.304968 L201.084906,61.304968 L201.084906,54.5247261 L200.043801,54.5247261 L200.043801,61.3520998 L198.716307,61.3520998 L198.716307,63.6783894 L194.605795,63.6783894 L194.605795,67.4893297 L192.230458,67.4893297 L192.230458,111.668632 L212.237197,111.668632 L212.237197,81.0935788 L211.098383,81.0935788 L211.098383,81.0969454 Z M195.764825,98.8656231 L194.410377,98.8656231 L194.410377,93.7349932 L195.764825,93.7349932 L195.764825,98.8656231 Z M195.764825,92.5869979 L194.410377,92.5869979 L194.410377,87.4563679 L195.764825,87.4563679 L195.764825,92.5869979 Z M195.764825,86.3083726 L194.410377,86.3083726 L194.410377,81.1777427 L195.764825,81.1777427 L195.764825,86.3083726 Z M195.764825,79.9186511 L194.410377,79.9186511 L194.410377,74.7880212 L195.764825,74.7880212 L195.764825,79.9186511 Z M195.764825,73.525563 L194.410377,73.525563 L194.410377,68.394933 L195.764825,68.394933 L195.764825,73.525563 Z M198.554582,98.8656231 L197.200135,98.8656231 L197.200135,93.7349932 L198.554582,93.7349932 L198.554582,98.8656231 Z M198.554582,92.5869979 L197.200135,92.5869979 L197.200135,87.4563679 L198.554582,87.4563679 L198.554582,92.5869979 Z M198.554582,86.3083726 L197.200135,86.3083726 L197.200135,81.1777427 L198.554582,81.1777427 L198.554582,86.3083726 Z M198.554582,79.9186511 L197.200135,79.9186511 L197.200135,74.7880212 L198.554582,74.7880212 L198.554582,79.9186511 Z M198.554582,73.525563 L197.200135,73.525563 L197.200135,68.394933 L198.554582,68.394933 L198.554582,73.525563 Z M201.34434,98.8656231 L199.989892,98.8656231 L199.989892,93.7349932 L201.34434,93.7349932 L201.34434,98.8656231 Z M201.34434,92.5869979 L199.989892,92.5869979 L199.989892,87.4563679 L201.34434,87.4563679 L201.34434,92.5869979 Z M201.34434,86.3083726 L199.989892,86.3083726 L199.989892,81.1777427 L201.34434,81.1777427 L201.34434,86.3083726 Z M201.34434,79.9186511 L199.989892,79.9186511 L199.989892,74.7880212 L201.34434,74.7880212 L201.34434,79.9186511 Z M201.34434,73.525563 L199.989892,73.525563 L199.989892,68.394933 L201.34434,68.394933 L201.34434,73.525563 Z M204.134097,98.8656231 L202.77965,98.8656231 L202.77965,93.7349932 L204.134097,93.7349932 L204.134097,98.8656231 Z M204.134097,92.5869979 L202.77965,92.5869979 L202.77965,87.4563679 L204.134097,87.4563679 L204.134097,92.5869979 Z M204.134097,86.3083726 L202.77965,86.3083726 L202.77965,81.1777427 L204.134097,81.1777427 L204.134097,86.3083726 Z M204.134097,79.9186511 L202.77965,79.9186511 L202.77965,74.7880212 L204.134097,74.7880212 L204.134097,79.9186511 Z M204.134097,73.525563 L202.77965,73.525563 L202.77965,68.394933 L204.134097,68.394933 L204.134097,73.525563 Z M206.923854,98.8656231 L205.569407,98.8656231 L205.569407,93.7349932 L206.923854,93.7349932 L206.923854,98.8656231 Z M206.923854,92.5869979 L205.569407,92.5869979 L205.569407,87.4563679 L206.923854,87.4563679 L206.923854,92.5869979 Z M206.923854,86.3083726 L205.569407,86.3083726 L205.569407,81.1777427 L206.923854,81.1777427 L206.923854,86.3083726 Z M206.923854,79.9186511 L205.569407,79.9186511 L205.569407,74.7880212 L206.923854,74.7880212 L206.923854,79.9186511 Z M206.923854,73.525563 L205.569407,73.525563 L205.569407,68.394933 L206.923854,68.394933 L206.923854,73.525563 Z" id="形状" fill="#8B8B8B"></path>
                    <polygon id="路径" fill="#525252" style="mix-blend-mode: luminosity;" points="21.8665768 125.835096 21.8665768 95.6909617 25.3200809 95.6909617 25.3200809 80.3058049 37.2001348 75.1650753 37.2001348 95.4485697 39.8079515 95.4485697 39.8079515 125.835096"></polygon>
                    <polygon id="路径" fill="#525252" points="225.630054 120.246614 215.202156 120.246614 215.202156 78.7908551 225.630054 83.8339547"></polygon>
                    <path d="M20.1179245,20.323893 C20.1179245,20.323893 23.2648248,11.7459107 31.0006739,15.1124658 C32.7863881,13.3012591 34.9966307,11.9849361 37.9851752,12.5774498 C40.9737197,13.17333 42.9009434,15.4087226 43.5545822,16.89674 C44.4912399,16.8529747 51.9912399,17.1020998 51.9912399,24.8754755 C51.9912399,32.6488512 42.9144205,32.5007228 42.2574124,31.8846432 C41.4487871,32.605086 37.5606469,36.5136564 32.8436658,32.0529709 C31.8227763,32.9249087 28.4871968,36.6180196 23.2142857,31.5210552 C20.7715633,32.5411214 14.9663073,33.3255288 13.8409704,27.3364273 C12.7156334,21.3473258 18.490566,19.6573151 20.1179245,20.323893 Z" id="路径" fill="url(#linearGradient-1)"></path>
                    <path d="M194.332884,7.92823722 C194.332884,7.92823722 197.479784,-0.649745131 205.215633,2.71680995 C207.001348,0.905603317 209.21159,-0.41071972 212.200135,0.181793974 C215.188679,0.777674224 217.115903,3.0130668 217.769542,4.50108414 C218.706199,4.45731893 226.206199,4.706444 226.206199,12.4798197 C226.206199,20.2531954 217.12938,20.105067 216.472372,19.4889874 C215.663747,20.2094302 211.775606,24.1180006 207.058625,19.6573151 C206.037736,20.5292529 202.702156,24.2223638 197.429245,19.1253994 C194.986523,20.1454656 189.181267,20.9298729 188.05593,14.9407715 C186.930593,8.95503652 192.705526,7.26165931 194.332884,7.92823722 Z" id="路径" fill="url(#linearGradient-2)"></path>
                    <path d="M154.123989,26.2826955 C154.123989,26.2826955 156.401617,20.0714014 162.001348,22.5121538 C163.295148,21.1991974 164.892183,20.2464623 167.058625,20.6773813 C169.221698,21.1083004 170.616577,22.7276134 171.088275,23.8015444 C171.765499,23.7712454 177.196765,23.9496729 177.196765,29.5751864 C177.196765,35.2006999 170.626685,35.0929702 170.151617,34.6485849 C169.565364,35.1704009 166.752022,37.9983072 163.33558,34.7731474 C162.597709,35.4026932 160.181941,38.0791045 156.367925,34.3893602 C154.599057,35.1266357 150.397574,35.6955835 149.58221,31.3594606 C148.766846,27.0267042 152.944744,25.8012781 154.123989,26.2826955 Z" id="路径" fill="url(#linearGradient-3)"></path>
                    <ellipse id="椭圆形" fill="#303030" cx="125" cy="150.582642" rx="124.993261" ry="59.2715688"></ellipse>
                </g>
                <g id="树苗_41_" transform="translate(27.628032, 83.827222)">
                    <g id="编组" transform="translate(0.000000, 12.792909)">
                        <path d="M11.7756065,46.7143183 C11.7756065,46.7143183 10.5862534,48.4009624 12.574124,50.9124125 C14.3463612,53.1478051 17.1462264,52.7135195 18.0761456,51.9964432 C18.3625337,53.9423121 20.7513477,58.0427762 24.5316712,55.7232197 C28.0862534,53.5450586 26.3746631,50.2323684 25.2392183,48.9295116 C27.4595687,48.3033323 29.1138814,42.9875418 24.0195418,41.1527693 C24.7742588,38.9577754 24.9090296,37.9646417 23.8039084,35.9918404 C22.7392183,34.0931033 20.990566,33.7901134 18.2008086,34.9448418 L14.1644205,36.6449521 L11.5936658,31.8509776 L10.2190027,32.6454846 L13.1839623,37.2239995 L9.25539084,39.1934343 C9.25539084,39.1934343 5.89622642,40.5063907 7.34501348,44.1086047 C8.6893531,47.4448608 11.7756065,46.7143183 11.7756065,46.7143183 Z" id="路径" fill="#414141" opacity="0.4"></path>
                        <path d="M4.93598383,26.2730902 L17.0855795,26.2730902 C17.0855795,26.2730902 21.0107817,26.3836922 21.7924528,21.9028074 C22.6516173,16.9842704 19.0700809,16.3075928 19.0700809,16.3075928 C19.0700809,16.3075928 21.2264151,15.3178256 20.7580863,11.5977823 C20.2863881,7.88110545 17.0114555,7.40978774 15.6469003,7.58148205 C15.8692722,5.37638847 16.3342318,0.383787279 11.1455526,0.333288953 C6.13544474,0.282790627 6.16576819,5.32252358 6.53975741,7.30879108 C4.75404313,7.32899041 -0.640161725,10.0054017 3.15363881,15.8766738 C1.08827493,17.6441152 0.215633423,18.6641814 0.306603774,21.2126636 C0.397574124,23.7645123 1.96091644,26.2730902 4.93598383,26.2730902 Z" id="路径" fill="#707070"></path>
                        <polygon id="路径" fill="#414141" style="mix-blend-mode: luminosity;" points="16.7857143 19.4586884 11.6037736 22.8656421 11.4622642 19.5731512 14.740566 15.7150791 11.4150943 18.4015901 10.9804582 8.33559038 10.6637466 18.4689212 7.16981132 15.6881467 10.6334232 19.499087 10.5256065 22.889208 5.19541779 18.977271 10.4885445 24.1112675 10.2190027 32.6488512 12.0249326 32.6488512 11.6610512 24.1651324"></polygon>
                    </g>
                    <g id="编组" transform="translate(177.223720, 10.436321)">
                        <path d="M10.569407,42.9067445 C10.569407,42.9067445 9.47439353,44.462093 11.3039084,46.7715498 C12.9346361,48.8318815 15.5154987,48.4312614 16.3712938,47.7680501 C16.634097,49.5590574 18.8376011,53.3329656 22.3180593,51.2019362 C25.5896226,49.1954694 24.0161725,46.1453705 22.9683288,44.9468769 C25.0134771,44.371196 26.5363881,39.4728583 21.8463612,37.7862142 C22.5438005,35.7662812 22.6684636,34.8505782 21.6475741,33.036005 C20.6671159,31.2887629 19.0566038,31.0059723 16.4892183,32.0731703 L12.7695418,33.6386184 L10.4009434,29.2250647 L9.13746631,29.9556071 L11.8665768,34.1705341 L8.25134771,35.9851073 C8.25134771,35.9851073 5.1583558,37.1937005 6.4925876,40.5131239 C7.72911051,43.5800555 10.569407,42.9067445 10.569407,42.9067445 Z" id="路径" fill="#414141" opacity="0.4"></path>
                        <path d="M4.2722372,24.0843351 L15.458221,24.0843351 C15.458221,24.0843351 19.0734501,24.1886983 19.7911051,20.0613017 C20.5795148,15.5332851 17.2843666,14.9104725 17.2843666,14.9104725 C17.2843666,14.9104725 19.2722372,13.998136 18.8376011,10.5743495 C18.402965,7.15056299 15.3874663,6.71627739 14.1307278,6.87787203 C14.3362534,4.84783932 14.7641509,0.249125076 9.98652291,0.201993305 C5.37398922,0.154861534 5.4009434,4.79397444 5.74460916,6.6253804 C4.10040431,6.64221318 -0.869272237,9.1065315 2.62803235,14.5165855 C0.727762803,16.1426316 -0.0774932615,17.085267 0.00673854447,19.4283894 C0.0909703504,21.7715117 1.5296496,24.0843351 4.2722372,24.0843351 Z" id="路径" fill="#707070"></path>
                        <polygon id="路径" fill="#414141" style="mix-blend-mode: luminosity;" points="15.18531 17.8090764 10.4110512 20.9467057 10.2830189 17.9134396 13.2985175 14.361724 10.2358491 16.836142 9.83827493 7.56464927 9.54514825 16.89674 6.32749326 14.3347915 9.51819407 17.8461085 9.42048518 20.9669051 4.51145553 17.3646911 9.38342318 22.094701 9.13746631 29.9556071 10.7985175 29.9556071 10.4649596 22.1418328"></polygon>
                    </g>
                    <g id="编组" transform="translate(34.029650, 0.000000)">
                        <path d="M5.68733154,22.9767384 C5.68733154,22.9767384 5.09770889,23.8116441 6.08153639,25.0539029 C6.95754717,26.1614995 8.34231806,25.94604 8.80390836,25.5891852 C8.94541779,26.5520199 10.1280323,28.5786861 11.9979784,27.4340574 C13.7567385,26.3567597 12.9110512,24.7172474 12.3483827,24.0742354 C13.4467655,23.7645123 14.2654987,21.1352328 11.745283,20.2296295 C12.1192722,19.1455988 12.1866577,18.6540817 11.6374663,17.6777807 C11.1118598,16.7385119 10.2459569,16.5870169 8.86792453,17.1593313 L6.86994609,18.00097 L5.59973046,15.6309152 L4.91913747,16.0248022 L6.38477089,18.2871272 L4.44070081,19.2600616 C4.44070081,19.2600616 2.7796496,19.9098068 3.49730458,21.6907144 C4.16105121,23.3403264 5.68733154,22.9767384 5.68733154,22.9767384 Z" id="路径" fill="#363636" style="mix-blend-mode: luminosity;"></path>
                        <path d="M2.30458221,12.8672045 L8.31199461,12.8672045 C8.31199461,12.8672045 10.2526954,12.9208384 10.6401617,10.7056452 C11.06469,8.27162584 9.29245283,7.93833688 9.29245283,7.93833688 C9.29245283,7.93833688 10.3605121,7.44681984 10.1280323,5.60868077 C9.89555256,3.77054169 8.27493261,3.53824939 7.60107817,3.62241327 C7.71226415,2.53164942 7.94137466,0.0605979915 5.37398922,0.0370321059 C2.89420485,0.0134662203 2.91105121,2.50471698 3.09636119,3.48775107 C2.21361186,3.49785073 -0.454851752,4.82090688 1.42183288,7.72624391 C0.400943396,8.59818168 -0.0336927224,9.1065315 0.0134770889,10.3656231 C0.0606469003,11.6247147 0.832210243,12.8672045 2.30458221,12.8672045 Z" id="路径" fill="#707070"></path>
                        <polygon id="路径" fill="#C9C9C9" points="8.1671159 9.49705189 5.60309973 11.183696 5.53234501 9.55428332 7.15296496 7.64544659 5.50876011 8.97523585 5.29649596 3.99610088 5.13814016 9.00553484 3.4097035 7.63198037 5.1212938 9.51725122 5.07075472 11.1937956 2.43261456 9.25802648 5.05053908 11.7997756 4.91913747 16.0214356 5.81199461 16.0214356 5.63005391 11.8233414"></polygon>
                    </g>
                </g>
                <g id="编组" transform="translate(90.970350, 39.725350)">
                    <polygon id="路径" fill="url(#linearGradient-4)" opacity="0.5" style="mix-blend-mode: luminosity;" points="71.1623989 77.1479763 135.235849 125.017023 43.3995957 162.924433 0.0741239892 80.8915855"></polygon>
                    <path d="M66.7958221,85.2512743 L4.44070081,85.2512743 C2.02830189,85.2512743 0.0741239892,83.2986724 0.0741239892,80.888219 L0.0741239892,7.74644324 C0.0741239892,5.33598981 2.02830189,3.38338786 4.44070081,3.38338786 L66.7991914,3.38338786 C69.2115903,3.38338786 71.1657682,5.33598981 71.1657682,7.74644324 L71.1657682,80.888219 C71.1623989,83.2986724 69.208221,85.2512743 66.7958221,85.2512743 Z" id="路径" fill="#707070"></path>
                    <path d="M61.5397574,77.4812652 L9.6967655,77.4812652 C8.10983827,77.4812652 6.81940701,76.1952412 6.81940701,74.6062272 L6.81940701,14.028435 C6.81940701,12.4427876 8.106469,11.153397 9.6967655,11.153397 L61.5397574,11.153397 C63.1266846,11.153397 64.4171159,12.439421 64.4171159,14.028435 L64.4171159,74.6095937 C64.4171159,76.1952412 63.1266846,77.4812652 61.5397574,77.4812652 Z" id="路径" fill="#414141"></path>
                    <path d="M51.9238544,15.0384016 L19.7574124,15.0384016 C18.2850404,15.0384016 17.0923181,13.8466411 17.0923181,12.3754565 L17.0923181,2.83463938 C17.0923181,1.36345481 18.2850404,0.171694309 19.7574124,0.171694309 L51.9238544,0.171694309 C53.3962264,0.171694309 54.588963,1.36345481 54.588963,2.83463938 L54.588963,12.3754565 C54.5923181,13.8432745 53.3962264,15.0384016 51.9238544,15.0384016 Z" id="路径" fill="#8E8E8E" style="mix-blend-mode: luminosity;"></path>
                    <path d="M51.6913747,33.7766471 L19.9898922,33.7766471 C18.3894879,33.7766471 17.0889488,32.4805234 17.0889488,30.8780432 C17.0889488,29.2789295 18.3861186,27.9794393 19.9898922,27.9794393 L51.6913747,27.9794393 C53.291779,27.9794393 54.5923181,29.275563 54.5923181,30.8780432 C54.5923181,32.4805234 53.291779,33.7766471 51.6913747,33.7766471 Z" id="路径" fill="#707070"></path>
                    <path d="M51.6913747,47.6670534 L19.9898922,47.6670534 C18.3894879,47.6670534 17.0889488,46.3709297 17.0889488,44.7684495 L17.0889488,44.7684495 C17.0889488,43.1693358 18.3861186,41.8698456 19.9898922,41.8698456 L51.6913747,41.8698456 C53.291779,41.8698456 54.5923181,43.1659693 54.5923181,44.7684495 L54.5923181,44.7684495 C54.5923181,46.3709297 53.291779,47.6670534 51.6913747,47.6670534 Z" id="路径" fill="#707070"></path>
                    <path d="M51.6913747,62.5202944 L19.9898922,62.5202944 C18.3894879,62.5202944 17.0889488,61.2241707 17.0889488,59.6216905 L17.0889488,59.6216905 C17.0889488,58.0225768 18.3861186,56.7230866 19.9898922,56.7230866 L51.6913747,56.7230866 C53.291779,56.7230866 54.5923181,58.0192103 54.5923181,59.6216905 L54.5923181,59.6216905 C54.5923181,61.2241707 53.291779,62.5202944 51.6913747,62.5202944 Z" id="路径" fill="#707070"></path>
                    <path d="M71.4925876,86.8268221 L63.9521563,92.3042072 C62.5202156,93.2603089 60.0606469,91.7015939 59.9865229,90.4290361 L60.8322102,81.440334 C60.8153639,81.1541768 60.8760108,80.8680196 61.0074124,80.6121614 L86.559973,30.4942559 C87.3281671,28.9894058 89.171159,28.3867925 90.6738544,29.1510005 L96.2264151,31.9789067 C97.7291105,32.7431147 98.3254717,34.5846204 97.5572776,36.092837 L71.9811321,86.2545078 C71.8665768,86.480067 71.6981132,86.6753271 71.4925876,86.8268221 Z" id="路径" fill="#414141" style="mix-blend-mode: luminosity;"></path>
                    <path d="M70.0606469,85.9548844 L62.5202156,91.4322695 C61.4858491,92.1830113 60.0336927,91.496234 59.9595687,90.2203096 L59.4002695,80.5650297 C59.3834232,80.2788725 59.4440701,79.9927153 59.5754717,79.7368571 L85.1280323,29.6189516 C85.8962264,28.1141015 87.7392183,27.5114881 89.2419137,28.2756961 L94.7944744,31.1036024 C96.2971698,31.8678104 96.893531,33.709316 96.1253369,35.2175327 L70.5491914,85.3792034 C70.4346361,85.6081292 70.2661725,85.8067559 70.0606469,85.9548844 Z" id="路径" fill="url(#linearGradient-5)" style="mix-blend-mode: luminosity;"></path>
                </g>
                <g id="小人_2_" transform="translate(57.277628, 100.659997)">
                    <path d="M5.53234501,22.3505592 C5.53234501,22.3505592 4.45754717,22.7107806 3.29514825,21.8859746 C3.08962264,23.071002 4.25876011,24.2290969 4.25876011,24.2290969 L6.13544474,24.4445565 L5.53234501,22.3505592 Z" id="路径" fill="#FFBE92"></path>
                    <polygon id="路径" fill="#FFBE92" points="13.5545822 20.9467057 12.2371968 23.0979344 14.5822102 23.3234936 15.5963612 22.185598"></polygon>
                    <path d="M15.5559299,23.5557859 L9.04986523,23.1046675 C9.04986523,23.1046675 8.79380054,21.1857311 11.3544474,21.4415893 C13.9150943,21.6974475 15.3908356,21.9061739 15.3908356,21.9061739 L15.5559299,23.5557859 Z" id="路径" fill="#F8B62D"></path>
                    <polygon id="路径" fill="#E6E8E8" points="15.6704852 23.9799719 12.796496 24.0271036 12.7088949 23.5120207 9.02291105 23.4884548 8.96563342 23.0541692 15.5862534 23.0339699"></polygon>
                    <path d="M3.94204852,25.484822 L0.60309973,20.3306261 C0.60309973,20.3306261 1.93733154,19.1792643 3.19070081,21.2463291 C3.44339623,21.663782 4.1138814,21.7378462 4.31940701,22.0846013 C4.14083558,23.2595291 5.1212938,24.4378233 5.1212938,24.4378233 L3.94204852,25.484822 Z" id="路径" fill="#BBBBBB"></path>
                    <polygon id="路径" fill="#E6E8E8" points="3.68261456 25.7844454 2.0148248 23.6298501 2.36185984 23.3100274 0.293126685 20.5023205 0.596361186 20.2430957 4.36320755 25.2491631"></polygon>
                    <path d="M27.3079515,16.6206824 L27.2102426,16.563451 L21.3915094,13.0723334 C19.925876,12.1936625 18.0626685,12.5033856 16.9743935,13.8668404 C16.583558,14.3583574 16.1859838,14.9811701 15.8153639,15.7723106 C14.1105121,19.3947238 12.884097,22.0442027 12.884097,22.0442027 L15.1987871,22.7343465 L19.1307278,17.388257 C19.1307278,17.388257 19.4541779,17.2636945 19.8450135,17.7350122 C20.2358491,18.2063299 22.1260108,20.0040703 22.3955526,20.3373593 C22.6684636,20.6706482 23.4770889,23.4918214 28.2345013,22.1822314 C27.5202156,17.5027199 27.3079515,16.6206824 27.3079515,16.6206824 Z" id="路径" fill="url(#linearGradient-6)"></path>
                    <path d="M26.9777628,17.4421219 C26.9777628,17.4421219 19.7270889,18.122166 18.6489218,18.3106931 C17.5707547,18.4992202 17.0586253,18.3510918 15.606469,19.1826309 C13.8881402,20.1622984 4.8180593,22.1384662 4.8180593,22.1384662 L5.38409704,24.629717 C5.38409704,24.629717 14.2351752,24.1954314 16.9171159,22.8824749 C17.277628,22.707414 17.6752022,22.6367164 18.0660377,22.6905813 C18.5983827,22.7612789 19.3227763,22.8656421 19.8618598,22.9767384 C21.8699461,23.3975578 24.5721024,23.8789752 27.5471698,24.2021645 C28.9959569,24.387325 32.2338275,24.8754755 32.2338275,20.9197733 C31.7486523,17.6575814 26.9777628,17.4421219 26.9777628,17.4421219 Z" id="路径" fill="url(#linearGradient-7)"></path>
                    <path d="M28.9016173,2.56531497 C28.9016173,2.56531497 27.6246631,3.65607882 27.9245283,5.90493761 C28.0289757,6.34595633 28.2412399,7.11689744 29.3126685,6.81054093 C29.4002695,6.81054093 29.430593,6.94183658 29.430593,7.05966601 C29.430593,7.17412888 29.3126685,9.16039638 29.3126685,9.16039638 L32.0923181,9.79330873 C32.0923181,9.79330873 31.745283,4.736743 31.9508086,3.80420724 C32.0552561,3.32615642 31.7014825,2.36668822 30.6772237,2.09063071 C29.6563342,1.81457319 28.9016173,2.56531497 28.9016173,2.56531497 Z" id="路径" fill="#CDCDCD"></path>
                    <path d="M29.8787062,0.700243457 C29.8787062,0.700243457 29.7001348,0.114462873 28.8443396,0.323189288 C27.9885445,0.531915703 28.2311321,1.29275715 28.2243935,1.46781802 C28.217655,1.64287888 28.0862534,1.75060864 27.8739892,1.60584677 C27.6617251,1.46108491 27.2641509,1.30622337 26.8800539,1.76070831 C26.4959569,2.21519324 26.8261456,3.71331026 27.7628032,3.78064136 C28.6994609,3.84797246 29.245283,3.48775107 29.6394879,3.23525943 C30.0336927,2.9827678 30.7412399,2.73364273 30.7580863,3.13762934 C30.7749326,3.5449825 30.6907008,4.45731893 30.7951482,4.26879184 C30.8995957,4.08026476 31.0512129,3.3429892 31.5566038,3.45408551 C32.0619946,3.56518183 31.8834232,4.2721584 31.4757412,4.58524802 C31.3005391,4.71654367 31.3173854,4.68961123 31.3342318,4.86803865 C31.3510782,5.04646607 31.4622642,5.12053028 31.5026954,5.40668746 C31.5397574,5.69284464 31.6576819,5.7635423 31.8665768,5.50768411 C32.0754717,5.25182593 32.4663073,4.76367544 32.5471698,3.56181528 C32.5505391,3.21842666 32.6583558,3.22179321 32.8672507,3.07703135 C33.0761456,2.93226948 33.3827493,2.69661062 33.2142857,2.2185598 C33.0458221,1.74050898 32.7931267,1.74050898 32.4730458,1.68327754 C32.152965,1.6260461 32.190027,1.51831634 32.2237197,1.32978926 C32.2574124,1.14126217 32.166442,0.380420724 31.5397574,0.255858186 C30.9130728,0.131295648 30.5761456,0.41745283 30.3605121,0.676677572 C30.1415094,0.939268868 29.9595687,0.818072885 29.8787062,0.700243457 Z" id="路径" fill="#171C61"></path>
                    <path d="M33.0256065,11.9378043 C33.0256065,11.9378043 33.3692722,7.09669811 31.6138814,7.2178941 C29.8584906,7.33909008 28.1873315,7.44008673 27.1361186,11.6078819 C26.782345,13.1834297 26.8463612,15.6107159 26.5869272,16.8563413 C26.3274933,18.1019667 25.7580863,20.3609251 26.4521563,20.8793746 C27.1495957,21.3978241 30.8086253,22.798311 31.9070081,22.7309799 C33.0087601,22.6636488 33.2479784,22.1115338 33.2580863,20.7447124 C33.2681941,19.3778911 32.9312668,14.5300517 33.0256065,11.9378043 Z" id="路径" fill="url(#linearGradient-8)"></path>
                    <path d="M22.8032345,9.1738626 C22.7695418,9.08633217 21.8766846,5.94196972 21.9002695,5.9285035 C21.9238544,5.91167072 22.4595687,5.73997642 22.4595687,5.73997642 L23.3456873,8.94830341 L23.3827493,9.30515825 L22.8032345,9.1738626 Z" id="路径" fill="#171C61"></path>
                    <path d="M28.3827493,10.2848258 C28.3827493,10.2848258 27.277628,11.7694766 27.0283019,12.1970291 C26.7789757,12.6279481 26.4184636,12.4495207 26.2297844,12.2407943 C25.9703504,11.9546371 24.4070081,10.4598866 24.2183288,10.2713596 C24.0296496,10.0828325 24.009434,10.0659997 23.9858491,9.80677495 C23.9588949,9.54755021 23.6994609,8.79680843 23.5040431,8.38945526 C23.3052561,7.9821021 23.3052561,7.62188071 23.1401617,7.88783856 C22.9750674,8.15379641 23.1401617,8.63184723 23.1334232,8.76987599 C23.1266846,8.90790475 22.796496,8.89780508 22.6819407,8.62174757 C22.5673854,8.34569005 22.5673854,8.36925593 22.5842318,8.09656497 C22.6010782,7.82724057 22.4797844,7.50068472 22.2304582,7.75317635 C21.9811321,8.00566799 21.7722372,9.20752815 22.0215633,9.73271074 C22.2708895,10.2578933 22.5269542,10.3790893 22.7897574,10.5002853 C23.0559299,10.6214813 23.1907008,10.8908057 23.4332884,11.3149916 C23.675876,11.7391776 25.4380054,14.3718236 25.6603774,14.6344149 C25.9130728,14.9306718 26.175876,15.0518678 26.8429919,14.7724437 C27.4460916,14.5199521 28.787062,13.7826765 29.9898922,12.2407943 C29.3598383,11.36549 28.3827493,10.2848258 28.3827493,10.2848258 Z" id="路径" fill="#CDCDCD"></path>
                    <path d="M27.7122642,10.6349475 L29.7136119,13.3046257 C29.7136119,13.3046257 32.8537736,10.7830759 31.1859838,9.00553484 C29.5181941,7.22799376 27.7122642,10.6349475 27.7122642,10.6349475 Z" id="路径" fill="url(#linearGradient-9)"></path>
                </g>
            </g>
        </g>
    </g>
</svg>