<?xml version="1.0" encoding="UTF-8"?>
<svg width="9px" height="8px" viewBox="0 0 9 8" version="1.1" xmlns="http://www.w3.org/2000/svg" xmlns:xlink="http://www.w3.org/1999/xlink">
    <!-- Generator: Sketch 58 (84663) - https://sketch.com -->
    <title>投注单_更多串关串关类型</title>
    <desc>Created with Sketch.</desc>
    <g id="页面-1" stroke="none" stroke-width="1" fill="none" fill-rule="evenodd">
        <g id="混合投注-失效" transform="translate(-123.000000, -669.000000)" fill-rule="nonzero">
            <g id="弹框">
                <g id="编组" transform="translate(0.000000, 239.000000)">
                    <g id="投注单_更多串关串关类型" transform="translate(128.000000, 434.000000) scale(1, -1) rotate(90.000000) translate(-128.000000, -434.000000) translate(120.000000, 426.000000)">
                        <rect id="Rectangle" fill="#000000" opacity="0" x="5.45696821e-12" y="0" width="16" height="16"></rect>
                        <g id="arrow" transform="translate(8.000000, 8.500000) scale(-1, 1) translate(-8.000000, -8.500000) translate(4.000000, 4.000000)" fill="#6AAAF5">
                            <path d="M1.08896484,4.125 L4.19912109,0.151171875 C4.24716797,0.090234375 4.20380859,0 4.12529297,0 L3.21943359,0 C3.16201172,0 3.10693359,0.026953125 3.07177734,0.071484375 L0.0799804687,3.89414063 C-0.0266601563,4.03007813 -0.0266601563,4.22109375 0.0799804687,4.35703125 L3.07177734,8.17851562 C3.10693359,8.22421875 3.16201172,8.25 3.21943359,8.25 L4.12529297,8.25 C4.20380859,8.25 4.24716797,8.15976563 4.19912109,8.09882813 L1.08896484,4.125 Z" id="Path"></path>
                            <path d="M4.65146484,4.125 L7.76162109,0.151171875 C7.80966797,0.090234375 7.76630859,0 7.68779297,0 L6.78193359,0 C6.72451172,0 6.66943359,0.026953125 6.63427734,0.071484375 L3.64248047,3.89414063 C3.53583984,4.03007813 3.53583984,4.22109375 3.64248047,4.35703125 L6.63427734,8.17851562 C6.66943359,8.22421875 6.72451172,8.25 6.78193359,8.25 L7.68779297,8.25 C7.76630859,8.25 7.80966797,8.15976563 7.76162109,8.09882813 L4.65146484,4.125 Z" id="Path" opacity="0.5"></path>
                        </g>
                    </g>
                </g>
            </g>
        </g>
    </g>
</svg>