<?xml version="1.0" encoding="UTF-8"?>
<svg width="14px" height="14px" viewBox="0 0 14 14" version="1.1" xmlns="http://www.w3.org/2000/svg" xmlns:xlink="http://www.w3.org/1999/xlink">
    <title>收起@2x</title>
    <g id="页面-1" stroke="none" stroke-width="1" fill="none" fill-rule="evenodd">
        <g id="直播样式备份-2" transform="translate(-771.000000, -346.000000)" fill="#FFFFFF" fill-rule="nonzero">
            <path d="M776.5,354 C776.776142,354 777,354.223858 777,354.5 L777,354.5 L777,359.5 C777,359.776142 776.776142,360 776.5,360 L776.5,360 L775.5,360 C775.223858,360 775,359.776142 775,359.5 L775,359.5 L775,355.999 L771.5,356 C771.223858,356 771,355.776142 771,355.5 L771,355.5 L771,354.5 C771,354.223858 771.223858,354 771.5,354 L771.5,354 Z M784.5,354 C784.776142,354 785,354.223858 785,354.5 L785,355.5 C785,355.776142 784.776142,356 784.5,356 L781,355.999 L781,359.5 C781,359.776142 780.776142,360 780.5,360 L779.5,360 C779.223858,360 779,359.776142 779,359.5 L779,354.5 C779,354.223858 779.223858,354 779.5,354 L784.5,354 Z M776.5,346 C776.776142,346 777,346.223858 777,346.5 L777,351.5 C777,351.776142 776.776142,352 776.5,352 L771.5,352 C771.223858,352 771,351.776142 771,351.5 L771,350.5 C771,350.223858 771.223858,350 771.5,350 L775,350.001 L775,346.5 C775,346.223858 775.223858,346 775.5,346 L776.5,346 Z M780.5,346 C780.776142,346 781,346.223858 781,346.5 L781,346.5 L781,350.001 L784.5,350 C784.776142,350 785,350.223858 785,350.5 L785,350.5 L785,351.5 C785,351.776142 784.776142,352 784.5,352 L784.5,352 L779.5,352 C779.223858,352 779,351.776142 779,351.5 L779,351.5 L779,346.5 C779,346.223858 779.223858,346 779.5,346 L779.5,346 Z" id="收起"></path>
        </g>
    </g>
</svg>