<?xml version="1.0" encoding="UTF-8"?>
<svg width="16px" height="16px" viewBox="0 0 16 16" version="1.1" xmlns="http://www.w3.org/2000/svg" xmlns:xlink="http://www.w3.org/1999/xlink">
    <!-- Generator: Sketch 61.1 (89650) - https://sketch.com -->
    <title>sahnghudaima</title>
    <desc>Created with Sketch.</desc>
    <g id="sahnghudaima" stroke="none" stroke-width="1" fill="none" fill-rule="evenodd">
        <g id="编组-6">
            <circle id="椭圆形" stroke="#FFFFFF" stroke-width="0.7" cx="8" cy="8" r="7.65"></circle>
            <g id="编组-4" transform="translate(4.000000, 3.000000)">
                <path d="M7.5,6.81193529 L7.5,8.6 C7.5,9.09705627 7.10824916,9.5 6.625,9.5 L1.375,9.5 C0.891750844,9.5 0.5,9.09705627 0.5,8.6 L0.5,1.4 C0.5,0.902943725 0.891750844,0.5 1.375,0.5 L6.625,0.5 C7.10824916,0.5 7.5,0.902943725 7.5,1.4 L7.5,3.5542785" id="路径" stroke="#FFFFFF" stroke-width="0.6" stroke-linecap="round"></path>
                <path d="M5.5,3.35 C5.5,3.15670034 5.34329966,3 5.15,3 L1.85,3 C1.65670034,3 1.5,3.15670034 1.5,3.35 C1.5,3.54329966 1.65670034,3.7 1.85,3.7 L5.15,3.7 C5.34329966,3.7 5.5,3.54329966 5.5,3.35 Z" id="路径" fill="#FFFFFF" fill-rule="nonzero"></path>
                <path d="M8.01310368,4.04550982 L5.94592289,6.0663497 L5.02718041,4.94366088 C4.23964159,4.6869949 4.56780917,5.39273641 4.56780917,5.39273641 L5.48655165,6.5154452 C5.91306831,6.99664894 6.40530435,6.5154452 6.40530435,6.5154452 L8.47249536,4.49458535 C8.63655361,3.78884385 8.01310368,4.04550982 8.01310368,4.04550982 Z" id="路径" fill="#FFFFFF" fill-rule="nonzero"></path>
            </g>
        </g>
    </g>
</svg>