<?xml version="1.0" encoding="UTF-8"?>
<svg width="20px" height="20px" viewBox="0 0 20 20" version="1.1" xmlns="http://www.w3.org/2000/svg" xmlns:xlink="http://www.w3.org/1999/xlink">
    <!-- Generator: Sketch 61.1 (89650) - https://sketch.com -->
    <title>shanchu</title>
    <desc>Created with Sketch.</desc>
    <g id="shanchu" stroke="none" stroke-width="1" fill="none" fill-rule="evenodd">
        <g id="编组">
            <rect id="矩形" fill="#000000" fill-rule="nonzero" opacity="0" x="0" y="0" width="20" height="20"></rect>
            <path d="M10,3.43422375 C13.5346224,3.43422375 16.4,6.29960135 16.4,9.83422375 C16.4,13.3688461 13.5346224,16.2342237 10,16.2342237 C6.4653776,16.2342237 3.6,13.3688461 3.6,9.83422375 C3.6,6.29960135 6.4653776,3.43422375 10,3.43422375 Z M12.5455844,7.28863933 C12.3893747,7.13242962 12.1361087,7.13242962 11.979899,7.28863933 L11.979899,7.28863933 L9.99929289,9.26783122 L8.02010101,7.28863933 C7.8638913,7.13242962 7.6106253,7.13242962 7.45441559,7.28863933 C7.29820587,7.44484905 7.29820587,7.69811504 7.45441559,7.85432476 L7.45441559,7.85432476 L9.43360747,9.83351664 L7.45441559,11.8141227 C7.29820587,11.9703325 7.29820587,12.2235984 7.45441559,12.3798082 C7.6106253,12.5360179 7.8638913,12.5360179 8.02010101,12.3798082 L8.02010101,12.3798082 L9.99929289,10.3992021 L11.979899,12.3798082 C12.1361087,12.5360179 12.3893747,12.5360179 12.5455844,12.3798082 C12.7017941,12.2235984 12.7017941,11.9703325 12.5455844,11.8141227 L12.5455844,11.8141227 L10.5649783,9.83351664 L12.5455844,7.85432476 C12.7017941,7.69811504 12.7017941,7.44484905 12.5455844,7.28863933 Z" id="形状结合" fill="#FFFFFF" opacity="0.5"></path>
        </g>
    </g>
</svg>