<?xml version="1.0" encoding="UTF-8"?>
<svg width="16px" height="16px" viewBox="0 0 16 16" version="1.1" xmlns="http://www.w3.org/2000/svg" xmlns:xlink="http://www.w3.org/1999/xlink">
    <!-- Generator: Sketch 61.1 (89650) - https://sketch.com -->
    <title>shipin-buzhichi</title>
    <desc>Created with Sketch.</desc>
    <g id="shipin-buzhichi" stroke="none" stroke-width="1" fill="none" fill-rule="evenodd">
        <g id="编组">
            <rect id="矩形" fill="#D8D8D8" opacity="0" x="0" y="0" width="16" height="16"></rect>
            <g id="编组-2" transform="translate(0.000000, 2.000000)">
                <rect id="矩形备份" fill="#D7D9DF" x="0" y="0" width="16" height="12" rx="2"></rect>
                <path d="M12.3671151,9.46666667 C12.514391,9.46666667 12.6337818,9.5860574 12.6337818,9.73333333 C12.6337818,9.88060927 12.514391,10 12.3671151,10 L3.55814649,10 C3.41087055,10 3.29147982,9.88060927 3.29147982,9.73333333 C3.29147982,9.5860574 3.41087055,9.46666667 3.55814649,9.46666667 L12.3671151,9.46666667 Z M3.83707025,2 L3.83707025,7.49213483 L5.23467862,7.49213483 L5.23467862,8.4 L3,8.4 L3,2 L3.83707025,2 Z M6.69955157,2 L6.69955157,8.4 L5.86248132,8.4 L5.86248132,2 L6.69955157,2 Z M8.09715994,2 L8.77727952,6.85393258 L9.46487294,2 L10.3841555,2 L9.21076233,8.4 L8.34379671,8.4 L7.17787743,2 L8.09715994,2 Z M13,2 L13,2.90786517 L11.6023916,2.90786517 L11.6023916,4.72359551 L12.8056801,4.72359551 L12.8056801,5.63146067 L11.6023916,5.63146067 L11.6023916,7.49213483 L13,7.49213483 L13,8.4 L10.7653214,8.4 L10.7653214,2 L13,2 Z" id="形状结合" fill="#FFFFFF" fill-rule="nonzero"></path>
            </g>
        </g>
    </g>
</svg>