<?xml version="1.0" encoding="UTF-8"?>
<svg width="72px" height="72px" viewBox="0 0 72 72" version="1.1" xmlns="http://www.w3.org/2000/svg" xmlns:xlink="http://www.w3.org/1999/xlink">
    <!-- Generator: Sketch 61.1 (89650) - https://sketch.com -->
    <title>iPhone X/Bars/_resource/Icon_home</title>
    <desc>Created with Sketch.</desc>
    <g id="iPhone-X/Bars/_resource/Icon_home" stroke="none" stroke-width="1" fill="none" fill-rule="evenodd">
        <g id="编组">
            <rect id="矩形" fill-opacity="0" fill="#D8D8D8" x="0" y="0" width="72" height="72"></rect>
            <g id="编组@3x" transform="translate(3.000000, 6.000000)" fill-rule="nonzero">
                <path d="M48.8514692,46.7604805 L48.8757911,46.1913473 L48.8757911,25.5742519 L29.6753544,6.37381514 L33.9429333,2.1062362 L61.583182,29.7464848 L56.9500652,29.7464848 L56.9500652,57.3867334 C51.5011412,57.9437058 48.7766793,58.1334169 48.7766793,57.9558667 C48.7766793,57.7783166 48.8016092,54.0465212 48.8514692,46.7604805 Z" id="路径-28" fill="#DCE2F3"></path>
                <path d="M7.55647362,32.6154517 L7.55647362,54.8961674 C7.55647362,57.3032953 9.50783634,59.254658 11.9149642,59.254658 L23.2477693,59.254658 C25.6548972,59.254658 27.6062599,57.3032953 27.6062599,54.8961674 L27.6062599,41.1402896 C27.6062599,38.7331617 29.5576226,36.7817991 31.9647505,36.7817991 L33.832675,36.7817991 C36.2398028,36.7817991 38.1911656,38.7331617 38.1911656,41.1402896 L38.1911656,54.8961674 C38.1911656,57.3032953 40.1425282,59.254658 42.5496561,59.254658 L53.9724524,59.254658 C56.3795803,59.254658 58.330943,57.3032953 58.330943,54.8961674 L58.330943,32.6154517 L62.3428572,32.6154517 C64.0622338,32.6154517 65.4560647,31.2216213 65.4560647,29.5022442 C65.4560647,28.6206474 65.0822868,27.7803851 64.4275207,27.1900509 L35.5136442,1.12142001 C33.8495275,-0.378940685 31.31894,-0.37312482 29.6617372,1.13486902 L1.0179594,27.1996574 C-0.253724207,28.3568428 -0.346543271,30.3258303 0.810642214,31.5975139 C1.40062556,32.2458734 2.23661609,32.6154517 3.11322907,32.6154517 L7.55647362,32.6154517 Z M57.7083014,28.8796027 C55.9889244,28.8796027 54.5950939,30.2734332 54.5950939,31.9928102 L54.5950939,54.8961674 C54.5950939,55.2400428 54.3163278,55.5188089 53.9724524,55.5188089 L42.5496561,55.5188089 C42.2057807,55.5188089 41.9270146,55.2400428 41.9270146,54.8961674 L41.9270146,41.1402896 C41.9270146,36.6699093 38.3030553,33.04595 33.832675,33.04595 L31.9647505,33.04595 C27.4943701,33.04595 23.8704108,36.6699093 23.8704108,41.1402896 L23.8704108,54.8961674 C23.8704108,55.2400428 23.5916447,55.5188089 23.2477693,55.5188089 L11.9149642,55.5188089 C11.5710888,55.5188089 11.2923227,55.2400428 11.2923227,54.8961674 L11.2923227,31.9928102 C11.2923227,30.2734332 9.89849221,28.8796027 8.17911513,28.8796027 L4.72261542,28.8796027 L32.1760609,3.89797325 C32.4128041,3.68254556 32.7743166,3.68171472 33.0120476,3.89605196 L60.7224135,28.8796027 L57.7083014,28.8796027 Z" id="路径-8" fill="#97A1BD"></path>
                <rect id="矩形备份" fill="#97A1BD" x="23.2477693" y="23.7063274" width="18.6792453" height="3.73584906" rx="1.75804661"></rect>
            </g>
        </g>
    </g>
</svg>