<svg width="16" height="16" viewBox="0 0 16 16" fill="none" xmlns="http://www.w3.org/2000/svg">
<g id="icon/&#231;&#189;&#174;&#233;&#161;&#182;">
<path id="Vector" d="M14.3518 4.85542L10.5188 1.02237C10.2818 0.785575 9.89753 0.785447 9.66045 1.02237C9.60896 1.07386 8.50406 2.20263 8.92867 3.68718L7.19335 5.42259C6.24457 5.13453 3.79086 4.63605 1.98434 6.44251C1.74733 6.67959 1.74733 7.06383 1.98434 7.30092L4.59962 9.91621L1.69045 12.8254C1.45344 13.0625 1.45344 13.4468 1.69045 13.6838C1.80899 13.8023 1.96428 13.8616 2.11965 13.8616C2.27501 13.8616 2.43032 13.8023 2.54884 13.6838L5.45803 10.7746L8.07331 13.3899C8.19186 13.5084 8.34721 13.5677 8.50251 13.5677C8.65788 13.5677 8.81317 13.5084 8.93171 13.3899C10.7381 11.5834 10.2398 9.12976 9.95161 8.18088L11.687 6.44554C13.1718 6.87039 14.3004 5.76517 14.3518 5.71377C14.5888 5.47675 14.5888 5.09245 14.3518 4.85542Z" fill="#FF7000"/>
</g>
</svg>
