<svg width="16" height="16" viewBox="0 0 16 16" fill="none" xmlns="http://www.w3.org/2000/svg">
<g id="icon/&#231;&#189;&#174;&#233;&#161;&#182;">
<path id="Vector" d="M9.49032 3.83262L9.28223 4.04072L7.54692 5.77613L7.33494 5.98812L7.04809 5.90103C6.12521 5.62083 3.93138 5.2027 2.33795 6.796C2.33793 6.79602 2.33791 6.79604 2.33789 6.79607M9.49032 3.83262L1.98434 7.30092C1.74733 7.06383 1.74733 6.67959 1.98434 6.44251L2.33789 6.79607M9.49032 3.83262L9.40939 3.54968M9.49032 3.83262L9.40939 3.54968M2.33789 6.79607C2.29613 6.83791 2.29615 6.90561 2.33795 6.94742M2.33789 6.79607L2.33795 6.94742M2.33795 6.94742L4.95318 9.56266L5.30673 9.91621L4.95318 10.2698L2.04408 13.1789L2.33795 6.94742ZM9.40939 3.54968C9.24084 2.96036 9.37187 2.43634 9.56605 2.03526C9.66311 1.8348 9.77338 1.67114 9.86187 1.55542C9.90587 1.49788 9.94378 1.4531 9.97091 1.42251C9.99806 1.39188 10.0141 1.37588 10.014 1.37593M9.40939 3.54968L5.45803 10.0675M5.45803 10.0675L5.81159 10.4211L8.42675 13.0363C8.44783 13.0573 8.47442 13.0677 8.50251 13.0677C8.53061 13.0677 8.55717 13.0574 8.5783 13.0362C10.1715 11.4428 9.75346 9.24908 9.47319 8.32617L9.38607 8.03931L9.59806 7.82732L11.3335 6.09198L11.5416 5.88387L11.8246 5.96484C12.414 6.13349 12.938 6.00244 13.339 5.80824C13.5394 5.71118 13.703 5.60089 13.8188 5.51239C13.8763 5.46839 13.921 5.43047 13.9516 5.40334C13.9669 5.38979 13.9786 5.37901 13.9864 5.37158L13.9953 5.36305C13.9961 5.36232 13.9967 5.36171 13.9972 5.36125C13.9978 5.36065 13.9982 5.36028 13.9983 5.36016C13.9983 5.36015 13.9983 5.36015 13.9983 5.36014C13.9983 5.36013 13.9983 5.36013 13.9983 5.36012C14.04 5.31836 14.04 5.25071 13.9982 5.20897C13.9982 5.20897 13.9982 5.20897 13.9982 5.20896L10.1653 1.37602C10.1236 1.33434 10.0558 1.33428 10.014 1.37593M5.45803 10.0675L5.10448 10.4211M5.45803 10.0675L5.10448 10.4211M10.014 1.37593L9.66045 1.02237M10.014 1.37593C10.014 1.37597 10.0139 1.37601 10.0139 1.37605L9.66045 1.02237M9.66045 1.02237C9.60896 1.07386 8.50406 2.20263 8.92867 3.68718L10.5188 1.02237C10.2818 0.785575 9.89753 0.785447 9.66045 1.02237ZM5.10448 10.4211L2.19539 13.3302L5.10448 10.4211ZM2.04406 13.3304C2.06511 13.3513 2.09156 13.3616 2.11965 13.3616C2.14775 13.3616 2.17425 13.3513 2.19529 13.3303L2.04406 13.3304ZM2.04406 13.3304C2.00227 13.2885 2.00223 13.2209 2.04401 13.179L2.04406 13.3304Z" stroke="#8A8986"/>
</g>
</svg>
