<?xml version="1.0" encoding="UTF-8"?>
<svg width="20px" height="20px" viewBox="0 0 20 20" version="1.1" xmlns="http://www.w3.org/2000/svg" xmlns:xlink="http://www.w3.org/1999/xlink">
    <!-- Generator: Sketch 58 (84663) - https://sketch.com -->
    <title>Icon/tab_paiqiu_normal</title>
    <desc>Created with Sketch.</desc>
    <g id="专业版" stroke="none" stroke-width="1" fill="none" fill-rule="evenodd">
        <g id="投注区切图" transform="translate(-124.000000, -238.000000)" fill="#CBCED8">
            <g id="Icon/tab_paiqiu_normal" transform="translate(123.000000, 237.000000)">
                <g id="Tabbar/Sports/BetSheet/_resource/Icon_paiqiu">
                    <path d="M11.0626268,8.62456983 C11.4528,8.75517053 12.2331462,9.14697263 13.2736079,9.40817404 C13.2736079,7.97156632 12.8834348,6.4043579 12.3632039,5.09835088 C11.9730308,3.92294456 11.4528,2.87813895 10.8025114,1.83333333 C9.89210742,1.83333333 9.11176115,1.96393404 8.33141488,2.22513544 C9.50193429,4.31474667 10.4123383,6.4043579 11.0626268,8.62456983 Z M8.33141488,12.0201881 C7.81118403,12.6731916 7.03083776,13.3261951 6.3805492,14.2404 C7.29095318,15.0240042 8.20135717,15.6770077 9.24181886,16.1994105 C11.5828577,17.5054175 14.1840119,18.0278204 16.7851662,17.766619 L17.1753393,17.3748168 C17.8256279,16.7218133 18.4759164,15.8076084 18.8660895,14.8934035 C18.7360318,15.0240042 13.4036656,15.546407 8.33141488,12.0201881 L8.33141488,12.0201881 Z M13.5337234,10.5835804 C12.2331462,10.0611775 11.3227423,9.79997614 10.8025114,9.53877474 L9.11176115,11.2365839 C10.2822806,11.8895874 11.4528,12.4119902 12.6233194,12.934393 C14.7042428,13.8485979 17.0452816,14.2404 19.3863204,13.9791986 L19.6464358,13.9791986 C19.9065512,13.3261951 20.036609,12.6731916 20.1666667,12.0201881 C17.8256279,11.7589867 15.6146467,11.2365839 13.5337234,10.5835804 L13.5337234,10.5835804 Z M17.5655124,10.7141811 C18.3458587,10.8447818 19.2562627,10.9753825 20.036609,11.1059832 L20.036609,10.9753825 C20.036609,8.49396913 19.126205,6.14315649 17.4354547,4.44534737 C17.0452816,4.05354526 16.7851662,3.79234386 16.2649353,3.53114246 C17.305397,5.75135439 17.8256279,8.23276772 17.5655124,10.7141811 Z M7.81118403,11.1059832 C8.85164573,10.0611775 9.76204971,9.27757334 10.1522228,8.88577123 C9.89210742,8.10216702 9.631992,7.31856281 9.37187657,6.6655593 C8.46147259,7.05736141 7.68112632,7.44916351 7.03083776,8.10216702 C4.94991437,9.79997614 3.51927954,12.0201881 2.60887555,14.5016014 C2.86899098,15.1546049 3.25916411,15.8076084 3.64933725,16.4606119 C4.81985666,14.5016014 6.25049149,12.6731916 7.81118403,11.1059832 Z M5.86031835,14.8934035 L4.29962581,17.2442161 L4.55974123,17.5054175 C7.55106861,20.378633 11.9730308,21.0316365 15.6146467,18.9420253 C14.4441273,18.8114246 9.631992,18.5502232 5.86031835,14.8934035 Z M14.1840119,9.79997614 C14.9643582,10.0611775 15.7447045,10.322379 16.6551084,10.4529797 C16.7851662,8.36336842 15.7447045,4.05354526 14.5741851,2.61693754 C13.7938388,2.22513544 12.8834348,2.09453474 11.9730308,1.96393404 C13.1435502,3.26994105 14.1840119,8.10216702 14.1840119,9.79997614 Z M3.90945267,10.0611775 C4.68979894,9.01637193 5.47014522,8.10216702 6.51060691,7.31856281 C7.29095318,6.6655593 8.07129946,6.14315649 8.98170344,5.75135439 C8.33141488,4.18414597 7.68112632,2.87813895 7.4210109,2.61693754 C3.25916411,4.31474667 1.04818301,8.75517053 2.08864471,13.0649937 C2.60887555,12.0201881 3.1291064,10.9753825 3.90945267,10.0611775 Z" id="Mask"></path>
                </g>
            </g>
        </g>
    </g>
</svg>