<?xml version="1.0" encoding="UTF-8"?>
<svg width="20px" height="20px" viewBox="0 0 20 20" version="1.1" xmlns="http://www.w3.org/2000/svg" xmlns:xlink="http://www.w3.org/1999/xlink">
    <!-- Generator: Sketch 58 (84663) - https://sketch.com -->
    <title>Icon/tab_basketball_normal</title>
    <desc>Created with Sketch.</desc>
    <g id="专业版" stroke="none" stroke-width="1" fill="none" fill-rule="evenodd">
        <g id="投注区切图" transform="translate(-192.000000, -196.000000)" fill="#CBCED8">
            <g id="Icon/tab_basketball_normal" transform="translate(191.000000, 195.000000)">
                <g id="Tabbar/Sports/BetSheet/_resource/Icon_Basketball">
                    <path d="M11.6467546,5.10686289 C11.9551505,5.12455457 12.2592785,5.1548046 12.5584893,5.1969713 C12.6719575,5.21301298 12.753881,5.31063807 12.7487781,5.4238465 C12.7448814,5.50872991 12.7434898,5.59544665 12.7446959,5.6843634 C12.7782817,8.10005719 14.1132722,9.71385028 15.2912814,11.1377099 C16.0655183,12.0736274 16.8131278,12.9533531 17.0733717,13.955729 C17.9891887,17.4837071 15.5782454,19.0029001 15.4787868,19.0505668 C14.2966026,19.616884 13.0271138,20.0652261 11.6500946,20.1660595 C11.543322,20.1738512 11.4493708,20.1058268 11.4210197,20.0094643 L11.4123032,19.948626 L11.4123032,5.32438808 C11.4123032,5.19871297 11.5197408,5.09952955 11.6467546,5.10686289 Z M10.3531341,5.10677122 C10.4801479,5.09943788 10.5875855,5.1986213 10.5875855,5.32429641 L10.5875855,5.32429641 L10.5875855,19.948626 C10.5875855,20.0755844 10.4781068,20.1754095 10.3498868,20.1660595 C8.96628039,20.0646761 7.63806275,19.610009 6.45235295,19.0505668 C6.4274883,19.0388335 3.95800179,17.6195573 4.92670257,13.955729 C5.19130698,12.9545448 5.93446312,12.0736274 6.70879285,11.1377099 C7.88670925,9.71375861 9.2217925,8.09996553 9.25528556,5.68427173 C9.25658446,5.59544665 9.25500722,5.50872991 9.2512033,5.42375483 C9.2460077,5.31063807 9.32802393,5.21292131 9.44149209,5.1969713 C9.74061012,5.15471293 10.044831,5.1244629 10.3531341,5.10677122 Z M8.42332165,5.6112764 L8.43082722,5.67024672 C8.40102711,7.8045236 7.21615232,9.23681653 6.07024452,10.6219927 C5.23894876,11.6268436 4.45385672,12.5758695 4.13126572,13.7405872 C3.86267183,14.7103297 3.79345904,15.5317554 3.84439446,16.221181 C3.86035237,16.4377895 3.58220229,16.5448563 3.44990009,16.3713312 C2.62389271,15.2876469 1.98019517,14.0330041 1.8542019,12.6454445 C1.55601166,9.3617583 4.49263815,6.4435474 8.15163838,5.45959653 C8.27219747,5.4271465 8.39255207,5.49935371 8.42332165,5.6112764 Z M13.8483616,5.45959653 L13.8483616,5.45959653 C17.5073619,6.44363906 20.4439883,9.3617583 20.1457981,12.6454445 C20.0198048,14.0330041 19.3761073,15.2876469 18.5500999,16.3713312 C18.4177977,16.5448563 18.1396476,16.4377895 18.1556055,16.221181 C18.206541,15.5317554 18.1373282,14.7103297 17.8687343,13.7405872 C17.5461433,12.5758695 16.7610512,11.6268436 15.9297555,10.6220844 C14.8384147,9.30286897 13.7117297,7.94083413 13.5812545,5.97297325 L13.5692838,5.67318005 C13.5679583,5.56822163 13.639199,5.4849639 13.7312405,5.45971947 L13.788547,5.45181608 Z M7.80779182,3.9884919 C7.92673391,4.08593365 8.02860475,4.20079209 8.11349712,4.3325172 C8.19347223,4.45663398 8.12936225,4.62236746 7.98555551,4.66040916 C5.78252897,5.24276801 3.90997961,6.4458024 2.66721101,8.02063712 C2.51236362,8.21698729 2.19886492,8.04447048 2.28681898,7.8111786 C2.92355813,6.12148545 4.05026077,4.66563416 5.49537938,3.61265824 C5.5272952,3.58937488 5.56468495,3.57507487 5.60411583,3.5711332 C6.03293826,3.52814149 7.17699049,3.47185811 7.80779182,3.9884919 Z M16.3833776,3.56426736 C16.4240146,3.5677507 16.4627033,3.58205071 16.4955469,3.60597573 C17.9449333,4.65950166 19.0750687,6.11791961 19.7131996,7.81118777 C19.8011536,8.04438798 19.4877477,8.21699646 19.3328075,8.02064629 C18.0899462,6.4457199 16.2174896,5.24277717 14.014463,4.66041833 C13.8707491,4.62246829 13.8065463,4.45673481 13.8864287,4.33280137 C13.9706716,4.20199292 14.0717074,4.08777615 14.1895362,3.99079274 C14.7942667,3.4930423 15.8948058,3.52219232 16.3833776,3.56426736 Z M10.5876133,1.83333333 L10.5875205,4.07220197 C10.5875205,4.18871041 10.4945564,4.28349383 10.3768204,4.28954383 C9.99392338,4.30934385 9.61668582,4.34701888 9.24659221,4.4018356 C9.14564915,4.41686894 9.04851001,4.3621439 9.00889358,4.26910215 C8.85534508,3.90775183 8.63044989,3.60405989 8.334208,3.36123468 C8.07897423,3.1522345 7.79423687,3.00905104 7.50662339,2.91252595 C7.31234511,2.84735089 7.30139724,2.58060066 7.49131493,2.50378392 C8.45389232,2.11465858 9.49653761,1.88063338 10.5876133,1.83333333 Z M11.6495287,1.84658835 C12.6545986,1.91543007 13.6160627,2.14294694 14.5085923,2.50383892 C14.69851,2.58065566 14.6876549,2.84731423 14.4933766,2.91248928 C14.2056703,3.00910604 13.920933,3.1522895 13.665792,3.36128968 C13.3694573,3.60402323 13.1446549,3.90771516 12.9910136,4.26915715 C12.95149,4.3621989 12.8543508,4.41683228 12.753315,4.40179893 C12.3833142,4.34698222 12.0060766,4.30930718 11.6231796,4.28959883 C11.5249889,4.28455716 11.4440654,4.21789507 11.4198184,4.1283375 L11.4123867,4.07216531 L11.4123867,2.06402187 C11.4123867,1.93733843 11.5215871,1.83778834 11.6495287,1.84658835 Z" id="形状结合"></path>
                </g>
            </g>
        </g>
    </g>
</svg>