<?xml version="1.0" encoding="UTF-8"?>
<svg width="20px" height="20px" viewBox="0 0 20 20" version="1.1" xmlns="http://www.w3.org/2000/svg" xmlns:xlink="http://www.w3.org/1999/xlink">
    <!-- Generator: Sketch 58 (84663) - https://sketch.com -->
    <title>Icon/tab_tennis_normal</title>
    <desc>Created with Sketch.</desc>
    <g id="专业版" stroke="none" stroke-width="1" fill="none" fill-rule="evenodd">
        <g id="投注区切图" transform="translate(-260.000000, -196.000000)" fill="#CBCED8">
            <g id="Icon/tab_tennis_normal" transform="translate(259.000000, 195.000000)">
                <g id="Tabbar/Sports/BetSheet/_resource/Icon_Tennis">
                    <path d="M15.0972533,2.65551244 L15.1486864,2.67142357 C15.989638,3.10152345 16.7782478,3.66848162 17.4819741,4.37843976 C21.0609225,7.99038043 21.0622058,13.8462288 17.4819741,17.4577111 C13.9018341,21.0702935 8.09758154,21.0690101 4.5179915,17.4577111 C0.939043135,13.8456788 0.937851467,7.99038043 4.5179915,4.37843976 C5.19064276,3.69918995 5.94386918,3.15038177 6.74577068,2.72789022 C6.8300125,2.68352356 6.93524603,2.72394855 6.96797109,2.81332353 C7.40091357,4.00086487 6.90334597,5.24808119 6.08375277,7.08159735 C5.00428408,9.49160501 3.52835632,12.7915124 7.12316305,15.7012866 C8.25928184,16.6199697 9.57644264,17.1069029 10.9362285,17.1069029 L10.9362285,17.1069029 C12.2983061,17.1069029 13.6167502,16.6199697 14.7522273,15.7012866 C18.3451091,12.7903208 16.869273,9.49105501 15.7916376,7.08095568 C14.9579277,5.21902286 14.4577018,3.96071488 14.9290527,2.75493188 C14.9630611,2.66812357 15.0657279,2.62907358 15.1486864,2.67142357 Z M8.22252344,2.26025285 C10.0282685,1.703378 11.9616138,1.69191967 13.7716672,2.22221119 C13.8607673,2.24824452 13.9077924,2.34614449 13.873784,2.4324028 C12.0968224,6.94139322 19.2292357,10.6360172 14.1309095,14.7655077 C13.1170743,15.5836325 12.0381556,15.9294907 11.0005786,15.9288491 L11.0005786,15.9288491 L10.999387,15.9294907 C9.9594267,15.9300407 8.88289135,15.5853742 7.86841445,14.7655077 C2.78356326,10.6473839 9.85098483,6.96366821 8.12214825,2.46861112 C8.08933153,2.38336115 8.13534828,2.28720284 8.22252344,2.26025285 Z" id="形状结合"></path>
                </g>
            </g>
        </g>
    </g>
</svg>