<?xml version="1.0" encoding="UTF-8"?>
<svg width="20px" height="20px" viewBox="0 0 20 20" version="1.1" xmlns="http://www.w3.org/2000/svg" xmlns:xlink="http://www.w3.org/1999/xlink">
    <!-- Generator: Sketch 58 (84663) - https://sketch.com -->
    <title>Icon/tab_football_normal</title>
    <desc>Created with Sketch.</desc>
    <g id="专业版" stroke="none" stroke-width="1" fill="none" fill-rule="evenodd">
        <g id="投注区切图" transform="translate(-192.000000, -238.000000)" fill="#CBCED8">
            <g id="Icon/tab_football_normal" transform="translate(191.000000, 237.000000)">
                <g id="Tabbar/Sports/BetSheet/_resource/Icon_meishi">
                    <path d="M1.89142325,13.3771137 C1.89857327,13.2893885 2.00573179,13.2507051 2.06806523,13.3129469 L2.06806523,13.3129469 L8.68751019,19.9321179 C8.74956863,19.9942681 8.71106857,20.1013349 8.62343508,20.1086683 C8.32570122,20.13351 8.02393403,20.1501017 7.71822515,20.15826 C6.09902231,20.2085851 4.48073613,20.0327681 2.91011671,19.636034 C2.64593291,19.5605006 2.43949922,19.3540668 2.36405742,19.0899747 C1.96723172,17.5192633 1.79141474,15.9009769 1.84173983,14.2817737 L1.84173983,14.2817737 L1.86066903,13.8265218 L1.86066903,13.8265218 Z M16.0989428,7.11467101 L16.1332949,7.13746168 L19.7360763,10.7402436 C19.7616513,10.7658187 19.772193,10.8029437 19.763943,10.8380521 C19.229617,13.1107482 18.1682068,15.0773686 16.6227041,16.6229632 C15.0771097,18.1684662 13.1110396,19.2299683 10.838069,19.7642943 C10.8146023,19.7697943 10.7903207,19.7669424 10.7691898,19.7568795 L10.7403521,19.7365192 L7.13747913,16.1336456 C7.10709158,16.1032581 7.09949469,16.0587424 7.11468847,16.0212521 L7.13747913,15.986887 L8.68793186,14.4368007 C8.73479194,14.3899406 8.80822807,14.400046 8.84408227,14.4475455 L8.86292383,14.4898758 L9.07531587,15.5528445 C9.08370339,15.5949196 9.11653157,15.6259603 9.15612734,15.634133 L9.19732442,15.6342447 L10.5533518,15.3630025 C10.5954269,15.354615 10.626416,15.3217868 10.6345242,15.282191 L10.6345686,15.2409939 L10.3574598,13.8533413 C10.3458731,13.7953345 10.3844465,13.7428424 10.4374637,13.7315344 L10.4793767,13.7313327 L11.8671208,14.0085332 C11.9091958,14.0169895 11.9504459,13.9986332 11.9731592,13.9652593 L11.9890377,13.9273164 L12.2602798,12.5712888 C12.2687361,12.5290762 12.2503282,12.4878433 12.2168899,12.4651472 L12.1788797,12.4492802 L11.1161861,12.2367048 C11.051286,12.2236515 11.0188286,12.1569767 11.0384321,12.1008384 L11.0632027,12.0617128 L12.0614545,11.0634609 C12.1082412,11.0166008 12.1817213,11.0266475 12.2175961,11.0741236 L12.2364464,11.1164443 L12.4489301,12.179138 C12.4573176,12.2213506 12.4901458,12.2523741 12.5297416,12.2604909 L12.5709387,12.2605382 L13.9268744,11.989296 C13.969087,11.9809085 14.0001105,11.9480803 14.0082273,11.9085232 L14.0082745,11.8673791 L13.7310741,10.4797264 C13.719414,10.4216463 13.7580901,10.3690809 13.8111513,10.3578403 L13.8530826,10.3577179 L15.2406434,10.6349184 C15.2828559,10.6433747 15.3240888,10.6249668 15.346785,10.5915285 L15.3626519,10.5535182 L15.6338941,9.19749064 C15.6423503,9.15541556 15.623994,9.11416548 15.5905815,9.09141348 L15.5525856,9.07548207 L14.4898004,8.86290666 C14.4248269,8.84992664 14.3924135,8.78320784 14.4120376,8.72704907 L14.436817,8.68791466 L15.9865363,7.13746168 C16.0169926,7.10707412 16.061474,7.09947723 16.0989428,7.11467101 Z M11.2309058,2.24356755 L11.2597639,2.26394815 L14.8626369,5.86645507 C14.8929557,5.89684263 14.9005354,5.94135834 14.885376,5.97880997 L14.8626369,6.01312202 L13.3120925,7.56320833 C13.2652324,7.60999509 13.1917376,7.59993373 13.1559069,7.55245471 L13.1371005,7.51013323 L12.9248918,6.44743952 C12.9164355,6.40529569 12.8836417,6.37423782 12.8440674,6.36609952 L12.8028833,6.36603936 L11.4468559,6.63728155 C11.4047808,6.64566907 11.3737917,6.67849726 11.3656448,6.71809303 L11.3655474,6.75929012 L11.6427479,8.14685112 C11.6543346,8.20493123 11.6157612,8.257438 11.5626971,8.26870202 L11.5207393,8.26885969 L10.1330869,7.99165915 C10.0910118,7.98327164 10.0497618,8.00164511 10.0270098,8.0350233 L10.0110783,8.07296764 L9.73992787,9.42899525 C9.73147161,9.47113908 9.74987945,9.51240635 9.78327912,9.53512397 L9.82123635,9.55100382 L10.8842049,9.76339589 C10.949105,9.77637592 10.9815037,9.84309471 10.9619237,9.89925349 L10.9371883,9.9383879 L9.93893656,10.9365481 C9.89207647,10.9834082 9.81864034,10.9733616 9.78278615,10.9258855 L9.76394458,10.8835647 L9.55146088,9.820871 C9.54307336,9.77872717 9.51024518,9.74772086 9.47064941,9.73960835 L9.42945233,9.73956251 L8.07342495,10.010713 C8.03128112,10.0191693 8.00027482,10.0519631 7.9921623,10.0915374 L7.99211647,10.1327216 L8.26922529,11.5202826 C8.28088531,11.5783627 8.24226791,11.6309281 8.18923022,11.6421687 L8.14730841,11.6422912 L6.75974764,11.3650906 C6.71753506,11.3567031 6.67630218,11.3750766 6.65356737,11.4084935 L6.63764742,11.4464908 L6.36640528,12.8025184 C6.35794902,12.8446622 6.37635686,12.8859295 6.4097952,12.9086471 L6.44780542,12.924527 L7.51031562,13.1370107 C7.57528907,13.1500641 7.60770246,13.2167975 7.58807843,13.2729123 L7.56329905,13.3120027 L6.01348799,14.8625474 C5.98310044,14.8930037 5.93858474,14.9006177 5.90113311,14.8853896 L5.86682107,14.8625474 L2.26403974,11.2597654 C2.2384647,11.2341904 2.22783134,11.197157 2.23617303,11.1619569 C2.77049896,8.88926088 3.83172583,6.9230071 5.37732021,5.37750413 C6.92300626,3.83200116 8.88907638,2.77049912 11.162047,2.23617309 C11.1854526,2.23061197 11.2097545,2.2334842 11.2309058,2.24356755 Z M19.0899718,2.3640575 C19.3540639,2.43949932 19.5605893,2.64602471 19.6360311,2.91011689 C20.0328568,4.48073657 20.2085821,6.09911468 20.158257,7.7183178 C20.1496403,8.02375172 20.1330486,8.3254273 20.1086653,8.62325287 C20.1026305,8.69635718 20.0272091,8.7354047 19.9662167,8.71037032 L19.9320233,8.68741966 L13.31267,2.0679736 C13.2504282,2.00582348 13.2889283,1.89866494 13.3765618,1.8913316 C13.6743873,1.86658155 13.9760628,1.85008152 14.2817717,1.84173983 C15.9009745,1.79141474 17.5192607,1.96723174 19.0899718,2.3640575 Z" id="形状结合"></path>
                </g>
            </g>
        </g>
    </g>
</svg>