<?xml version="1.0" encoding="UTF-8"?>
<svg width="18px" height="18px" viewBox="0 0 18 18" version="1.1" xmlns="http://www.w3.org/2000/svg" xmlns:xlink="http://www.w3.org/1999/xlink">
    <!-- Generator: Sketch 58 (84663) - https://sketch.com -->
    <title>Icon/tab_all_normal</title>
    <desc>Created with Sketch.</desc>
    <g id="专业版" stroke="none" stroke-width="1" fill="none" fill-rule="evenodd">
        <g id="投注区切图" transform="translate(-126.000000, -196.000000)" fill="#CBCED8" fill-rule="nonzero">
            <g id="Icon/tab_all_normal" transform="translate(123.000000, 195.000000)">
                <g id="Tabbar/Sports/BetSheet/_resource/Icon_All">
                    <path d="M9.85791667,9.93787207 L4.29666667,9.93787207 C3.94979167,9.93787207 3.66666667,9.65445721 3.66666667,9.30722709 L3.66666667,3.74028362 C3.66666667,3.3930535 3.94979167,3.10963865 4.29666667,3.10963865 L9.85791667,3.10963865 C10.2047917,3.10963865 10.4879167,3.3930535 10.4879167,3.74028362 L10.4879167,9.30722709 C10.4860417,9.65445721 10.2047917,9.93787207 9.85791667,9.93787207 L9.85791667,9.93787207 Z M9.87666667,18.3277026 L4.31541667,18.3277026 C3.96854167,18.3277026 3.68541667,18.0442877 3.68541667,17.6970576 L3.68541667,12.1301141 C3.68541667,11.782884 3.96854167,11.4994692 4.31541667,11.4994692 L9.87666667,11.4994692 C10.2235417,11.4994692 10.5066667,11.782884 10.5066667,12.1301141 L10.5066667,17.6970576 C10.5047917,18.0442877 10.2235417,18.3277026 9.87666667,18.3277026 L9.87666667,18.3277026 Z M18.4022917,18.3333333 L12.8410417,18.3333333 C12.4941667,18.3333333 12.2110417,18.0499185 12.2110417,17.7026884 L12.2110417,12.1376218 C12.2110417,11.7903917 12.4941667,11.5069768 12.8410417,11.5069768 L18.4022917,11.5069768 C18.7491667,11.5069768 19.0322917,11.7903917 19.0322917,12.1376218 L19.0322917,17.7045653 C19.0322917,18.0499185 18.7491667,18.3333333 18.4022917,18.3333333 Z M15.6704167,10.8650703 C15.5016667,10.8650703 15.3441667,10.7993782 15.2241667,10.6811322 L11.3297917,6.78089334 C11.2116667,6.6626474 11.1460417,6.50310924 11.1460417,6.3360634 C11.1460417,6.16901756 11.2116667,6.00947939 11.3297917,5.89123346 L11.7272917,6.28914041 L11.3297917,5.89123346 L15.1979167,2.01727145 C15.3160417,1.89902552 15.4754167,1.83333333 15.6422917,1.83333333 C15.8110417,1.83333333 15.9685417,1.89902552 16.0866667,2.01727145 L19.9829167,5.91751033 C20.1010417,6.03575627 20.1666667,6.19529443 20.1666667,6.36234027 C20.1666667,6.52938611 20.1010417,6.68892428 19.9829167,6.80717021 L16.1147917,10.6811322 C15.9966667,10.7993782 15.8391667,10.8650703 15.6704167,10.8650703 L15.6704167,10.8650703 Z" id="形状"></path>
                </g>
            </g>
        </g>
    </g>
</svg>