<?xml version="1.0" encoding="UTF-8"?>
<svg width="8px" height="8px" viewBox="0 0 8 8" version="1.1" xmlns="http://www.w3.org/2000/svg" xmlns:xlink="http://www.w3.org/1999/xlink">
    <title>黄色已点赞</title>
    <defs>
        <linearGradient x1="100%" y1="50%" x2="0%" y2="50%" id="linearGradient-1">
            <stop stop-color="#FFB001" offset="0%"></stop>
            <stop stop-color="#FF7000" offset="100%"></stop>
        </linearGradient>
        <path d="M5.69828276,0.5 C5.40694943,0.5 5.10878276,0.601833333 4.77811609,0.832666667 C4.75044943,0.851833333 4.72411609,0.872833333 4.69844943,0.894666667 L3.99994943,1.48983333 L3.30128276,0.894666667 C3.27594943,0.872833333 3.24944943,0.851833333 3.22194943,0.832666667 C2.89111609,0.601833333 2.59294943,0.5 2.30161609,0.5 C1.54128276,0.5 1.05944943,0.651166667 0.691949425,1.036 C0.483782758,1.25366667 0.339116092,1.451 0.188616092,1.769 C-0.0437172416,2.26016667 -0.0628839083,2.82733333 0.139282758,3.33166667 C0.278949425,3.68083333 0.577616092,4.045 0.861116092,4.35233333 L3.99994943,7.4445 L7.13894943,4.35233333 C7.42228276,4.045 7.72094943,3.68083333 7.86094943,3.33166667 C8.06294943,2.82733333 8.04344943,2.26016667 7.81128276,1.769 C7.66061609,1.451 7.51611609,1.25366667 7.30811609,1.036 C6.94028276,0.651166667 6.45861609,0.5 5.69828276,0.5" id="path-2"></path>
    </defs>
    <g id="页面-1" stroke="none" stroke-width="1" fill="none" fill-rule="evenodd">
        <g id="画板" transform="translate(-135.000000, -220.000000)">
            <g id="路径" transform="translate(135.000000, 220.000000)">
                <use fill="#999999" xlink:href="#path-2"></use>
                <use fill="url(#linearGradient-1)" xlink:href="#path-2"></use>
            </g>
        </g>
    </g>
</svg>