<?xml version="1.0" encoding="UTF-8"?>
<svg width="20px" height="20px" viewBox="0 0 20 20" version="1.1" xmlns="http://www.w3.org/2000/svg" xmlns:xlink="http://www.w3.org/1999/xlink">
    <title>动画</title>
    <g id="页面-1" stroke="none" stroke-width="1" fill="none" fill-rule="evenodd">
        <g id="动画">
            <rect id="矩形复制-67" fill-opacity="0.8" fill="#000000" x="0" y="0" width="20" height="20" rx="10"></rect>
            <g id="形状结合" transform="translate(4.000000, 4.000000)">
                <rect id="矩形" stroke="#FFFFFF" x="0.5" y="0.5" width="11" height="11" rx="2"></rect>
                <path d="M6.5,0.50025 L6.4998026,3.55018684 C7.63964133,3.78238128 8.5,4.79261187 8.5,6 C8.5,7.20738813 7.63964133,8.21761872 6.4998026,8.44981316 L6.5,11.50025 L5.5,11.50025 L5.49918995,8.44960771 C4.35985176,8.2170234 3.5,7.20703239 3.5,6 C3.5,4.79296761 4.35985176,3.7829766 5.49918995,3.55039229 L5.5,0.50025 L6.5,0.50025 Z M6,4.5 C5.173,4.5 4.5,5.173 4.5,6 C4.5,6.827 5.173,7.5 6,7.5 C6.827,7.5 7.5,6.827 7.5,6 C7.5,5.173 6.827,4.5 6,4.5 Z M2.55005,4.5 C2.82505,4.5 3.05005,4.725 3.05005,5 L3.05005,7 C3.05005,7.275 2.82505,7.5 2.55005,7.5 C2.27505,7.5 2.05005,7.275 2.05005,7 L2.05005,5 C2.05005,4.725 2.27505,4.5 2.55005,4.5 Z M9.55005,4.5 C9.82505,4.5 10.05005,4.725 10.05005,5 L10.05005,7 C10.05005,7.275 9.82505,7.5 9.55005,7.5 C9.27505,7.5 9.05005,7.275 9.05005,7 L9.05005,5 C9.05005,4.725 9.27505,4.5 9.55005,4.5 Z" fill="#FFFFFF"></path>
            </g>
        </g>
    </g>
</svg>