<svg width="14" height="14" viewBox="0 0 14 14" fill="none" xmlns="http://www.w3.org/2000/svg">
<path d="M8.48934 3.83164L8.28126 4.03974L6.54594 5.77516L6.33397 5.98714L6.04712 5.90005C5.12423 5.61985 2.93041 5.20172 1.33698 6.79502C1.33695 6.79505 1.33693 6.79507 1.33691 6.79509M8.48934 3.83164L0.983363 7.29994C0.746355 7.06285 0.746355 6.67862 0.983363 6.44153L1.33691 6.79509M8.48934 3.83164L8.40842 3.5487M8.48934 3.83164L8.40842 3.5487M1.33691 6.79509C1.29515 6.83693 1.29517 6.90463 1.33698 6.94645M1.33691 6.79509L1.33698 6.94645M1.33698 6.94645L3.9522 9.56169L4.30575 9.91524L3.9522 10.2688L1.0431 13.1779L1.33698 6.94645ZM8.40842 3.5487C8.23986 2.95938 8.3709 2.43536 8.56508 2.03428C8.66213 1.83382 8.7724 1.67016 8.86089 1.55444C8.90489 1.4969 8.9428 1.45212 8.96993 1.42153C8.99709 1.3909 9.01307 1.3749 9.01303 1.37495M8.40842 3.5487L4.45706 10.0665M4.45706 10.0665L4.81061 10.4201L7.42577 13.0353C7.44685 13.0564 7.47345 13.0667 7.50154 13.0667C7.52963 13.0667 7.5562 13.0564 7.57732 13.0353C9.17052 11.4418 8.75248 9.2481 8.47221 8.32519L8.38509 8.03833L8.59709 7.82634L10.3325 6.09101L10.5406 5.88289L10.8236 5.96386C11.413 6.13251 11.937 6.00146 12.338 5.80727C12.5384 5.7102 12.7021 5.59992 12.8178 5.51142C12.8753 5.46741 12.9201 5.4295 12.9507 5.40236C12.9659 5.38882 12.9776 5.37803 12.9855 5.3706L12.9944 5.36208C12.9951 5.36134 12.9957 5.36074 12.9962 5.36027C12.9968 5.35967 12.9972 5.35931 12.9973 5.35918C12.9973 5.35918 12.9973 5.35917 12.9973 5.35916C12.9973 5.35916 12.9974 5.35915 12.9974 5.35915C13.039 5.31738 13.039 5.24973 12.9973 5.208C12.9973 5.20799 12.9973 5.20799 12.9973 5.20799L9.16434 1.37505C9.12264 1.33337 9.05483 1.3333 9.01303 1.37495M4.45706 10.0665L4.1035 10.4201M4.45706 10.0665L4.1035 10.4201M9.01303 1.37495L8.65947 1.0214M9.01303 1.37495C9.01299 1.37499 9.01295 1.37503 9.01291 1.37507L8.65947 1.0214M8.65947 1.0214C8.60799 1.07288 7.50309 2.20165 7.92769 3.6862L9.5178 1.0214C9.28087 0.784598 8.89656 0.78447 8.65947 1.0214ZM4.1035 10.4201L1.19441 13.3292L4.1035 10.4201ZM1.04309 13.3294C1.06413 13.3503 1.09059 13.3606 1.11867 13.3606C1.14677 13.3606 1.17327 13.3503 1.19431 13.3293L1.04309 13.3294ZM1.04309 13.3294C1.00129 13.2876 1.00125 13.2199 1.04303 13.178L1.04309 13.3294Z" stroke="#8A8986"/>
</svg>
