<?xml version="1.0" encoding="UTF-8"?>
<svg width="14px" height="14px" viewBox="0 0 14 14" version="1.1" xmlns="http://www.w3.org/2000/svg" xmlns:xlink="http://www.w3.org/1999/xlink">
    <!-- Generator: Sketch 58 (84663) - https://sketch.com -->
    <title>26-说明-点亮</title>
    <desc>Created with Sketch.</desc>
    <g id="日间模式" stroke="none" stroke-width="1" fill="none" fill-rule="evenodd">
        <g id="提示信息" transform="translate(-21.000000, -255.000000)" fill-rule="nonzero">
            <g id="26-说明-点亮" transform="translate(28.000000, 262.000000) scale(1, -1) translate(-28.000000, -262.000000) translate(20.000000, 254.000000)">
                <rect id="矩形" fill="#000000" opacity="0" x="0" y="0" width="16" height="16"></rect>
                <path d="M8,1.3328125 C11.6765625,1.3328125 14.6671875,4.3234375 14.6671875,8 C14.6671875,11.6765625 11.6765625,14.6671875 8,14.6671875 C4.3234375,14.6671875 1.3328125,11.675 1.3328125,8 C1.3328125,4.325 4.3234375,1.3328125 8,1.3328125 Z M8,10 C7.63152252,10 7.3328125,10.29871 7.3328125,10.6671875 C7.3328125,11.035665 7.63152252,11.334375 8,11.334375 C8.36847748,11.334375 8.6671875,11.035665 8.6671875,10.6671875 C8.6671875,10.29871 8.36847748,10 8,10 Z M8,4.665625 C7.63125,4.665625 7.3328125,4.9640625 7.3328125,5.3328125 L7.3328125,8.6664032 C7.3328125,9.03445089 7.63117411,9.3328125 7.9992218,9.3328125 C8.3672695,9.3328125 8.66563111,9.03445089 8.66563111,8.6664032 L8.66563111,5.3328125 C8.6671875,4.9640625 8.36875,4.665625 8,4.665625 Z" id="形状结合" fill="#0091FF"></path>
            </g>
        </g>
    </g>
</svg>