<?xml version="1.0" encoding="UTF-8"?>
<svg width="14px" height="12px" viewBox="0 0 14 12" version="1.1" xmlns="http://www.w3.org/2000/svg" xmlns:xlink="http://www.w3.org/1999/xlink">
    <!-- Generator: Sketch 58 (84663) - https://sketch.com -->
    <title>live</title>
    <desc>Created with Sketch.</desc>
    <g id="日间模式" stroke="none" stroke-width="1" fill="none" fill-rule="evenodd">
        <g id="视频-点击" transform="translate(-342.000000, -133.000000)" fill="#FFFFFF">
            <g id="编组-5" transform="translate(339.000000, 129.000000)">
                <g id="live">
                    <g id="编组复制-6" transform="translate(3.125000, 3.750000)">
                        <path d="M10.6657768,6.25 C10.6657768,7.46899038 11.5487232,8.49230769 12.7685446,8.86161859 L12.7685446,9.77564103 C12.7685446,10.2621795 12.3265804,10.6570513 11.7864018,10.6570513 L7.36675893,10.6570513 L7.36675893,8.33629808 C8.4431875,8.13357372 9.25247321,7.27684295 9.25247321,6.25 C9.25247321,5.22315705 8.4431875,4.36642628 7.36675893,4.16370192 L7.36675893,1.84294872 L11.7864018,1.84294872 C12.3265804,1.84294872 12.7685446,2.23782051 12.7685446,2.72435897 L12.7685446,3.63838141 C11.5487232,4.00769231 10.6657768,5.03100962 10.6657768,6.25 L10.6657768,6.25 Z M12.7685446,7.90793269 C12.1046161,7.590625 11.6479196,6.97011218 11.6479196,6.25 C11.6479196,5.52988782 12.1046161,4.909375 12.7685446,4.59206731 L12.7685446,7.90793269 Z M0.982830357,9.77564103 L0.982830357,8.86161859 C2.20166964,8.49230769 3.08461607,7.46899038 3.08461607,6.25 C3.08461607,5.03100962 2.20166964,4.00769231 0.982830357,3.63838141 L0.982830357,2.72435897 C0.982830357,2.23782051 1.42283036,1.84294872 1.96497321,1.84294872 L6.38461607,1.84294872 L6.38461607,4.16282051 C5.30720536,4.36554487 4.49791964,5.22315705 4.49791964,6.25 C4.49791964,7.27684295 5.30720536,8.13445513 6.38461607,8.33717949 L6.38461607,10.6570513 L1.96497321,10.6570513 C1.42283036,10.6570513 0.982830357,10.2621795 0.982830357,9.77564103 L0.982830357,9.77564103 Z M0.982830357,4.59206731 C1.64479464,4.909375 2.10247321,5.52988782 2.10247321,6.25 C2.10247321,6.97011218 1.64479464,7.590625 0.982830357,7.90793269 L0.982830357,4.59206731 Z M7.36675893,5.08213141 C7.8931875,5.26105769 8.27033036,5.71586538 8.27033036,6.25 C8.27033036,6.78413462 7.8931875,7.23894231 7.36675893,7.41786859 L7.36675893,5.08213141 Z M6.38461607,7.41786859 C5.85720536,7.23894231 5.4800625,6.78413462 5.4800625,6.25 C5.4800625,5.71586538 5.85720536,5.26105769 6.38461607,5.08213141 L6.38461607,7.41786859 Z M11.7864018,0.961538462 L1.96497321,0.961538462 C0.879705357,0.961538462 0.0006875,1.75128205 0.0006875,2.72435897 L0.0006875,3.48149038 L0.0006875,4.36290064 L0.0006875,8.13709936 L0.0006875,9.01850962 L0.0006875,9.77564103 C0.0006875,10.7487179 0.879705357,11.5384615 1.96497321,11.5384615 L11.7864018,11.5384615 C12.8706875,11.5384615 13.7506875,10.7487179 13.7506875,9.77564103 L13.7506875,9.01850962 L13.7506875,8.13709936 L13.7506875,4.36290064 L13.7506875,3.48149038 L13.7506875,2.72435897 C13.7506875,1.75128205 12.8706875,0.961538462 11.7864018,0.961538462 L11.7864018,0.961538462 Z" id="live"></path>
                    </g>
                </g>
            </g>
        </g>
    </g>
</svg>