<?xml version="1.0" encoding="UTF-8"?>
<svg width="72px" height="72px" viewBox="0 0 72 72" version="1.1" xmlns="http://www.w3.org/2000/svg" xmlns:xlink="http://www.w3.org/1999/xlink">
    <!-- Generator: Sketch 61.1 (89650) - https://sketch.com -->
    <title>wo-xuanzhong@3x</title>
    <desc>Created with Sketch.</desc>
    <defs>
        <linearGradient x1="43.7165683%" y1="-10.6593865%" x2="43.7165683%" y2="72.4807082%" id="linearGradient-1">
            <stop stop-color="#C5A585" offset="0%"></stop>
            <stop stop-color="#FFE4C4" offset="27.4387669%"></stop>
            <stop stop-color="#B99978" offset="100%"></stop>
        </linearGradient>
        <filter x="-6.3%" y="-6.1%" width="112.7%" height="112.1%" filterUnits="objectBoundingBox" id="filter-2">
            <feOffset dx="0" dy="1" in="SourceAlpha" result="shadowOffsetOuter1"></feOffset>
            <feGaussianBlur stdDeviation="0.5" in="shadowOffsetOuter1" result="shadowBlurOuter1"></feGaussianBlur>
            <feColorMatrix values="0 0 0 0 0.865687274   0 0 0 0 0.729798402   0 0 0 0 0.584850272  0 0 0 0.7 0" type="matrix" in="shadowBlurOuter1" result="shadowMatrixOuter1"></feColorMatrix>
            <feMerge>
                <feMergeNode in="shadowMatrixOuter1"></feMergeNode>
                <feMergeNode in="SourceGraphic"></feMergeNode>
            </feMerge>
        </filter>
        <linearGradient x1="50.0000016%" y1="96.7865045%" x2="50.0000016%" y2="-12.2369731%" id="linearGradient-3">
            <stop stop-color="#C5A585" offset="0%"></stop>
            <stop stop-color="#FFE4C4" offset="77.2835471%"></stop>
            <stop stop-color="#B99978" offset="100%"></stop>
        </linearGradient>
        <linearGradient x1="50%" y1="14.6107486%" x2="50%" y2="84.483216%" id="linearGradient-4">
            <stop stop-color="#C5A585" offset="0%"></stop>
            <stop stop-color="#FFE4C4" offset="27.4387669%"></stop>
            <stop stop-color="#B99978" offset="100%"></stop>
        </linearGradient>
        <linearGradient x1="50.0000016%" y1="96.7865045%" x2="50%" y2="9.18996107%" id="linearGradient-5">
            <stop stop-color="#C5A585" offset="0%"></stop>
            <stop stop-color="#FFE4C4" offset="32.2099048%"></stop>
            <stop stop-color="#B99978" offset="100%"></stop>
        </linearGradient>
        <linearGradient x1="50%" y1="6.813245%" x2="50%" y2="84.483216%" id="linearGradient-6">
            <stop stop-color="#C5A585" offset="0%"></stop>
            <stop stop-color="#FFE4C4" offset="27.4387669%"></stop>
            <stop stop-color="#B99978" offset="100%"></stop>
        </linearGradient>
    </defs>
    <g id="wo-xuanzhong" stroke="none" stroke-width="1" fill="none" fill-rule="evenodd">
        <g id="编组-3">
            <rect id="矩形" fill-opacity="0" fill="#D8D8D8" x="0" y="0" width="72" height="72"></rect>
            <g id="编组" filter="url(#filter-2)" transform="translate(5.400000, 4.500000)">
                <g id="编组-2" transform="translate(0.000000, 36.400000)">
                    <path d="M18.0351999,0 L43.6923791,0 C51.5797528,0 58.3711053,5.56617579 59.9198557,13.3 L61.0739239,19.0629434 C61.7571314,22.4746013 59.5452853,25.7941456 56.1336274,26.4773531 C55.7263269,26.5589177 55.311958,26.6 54.8965709,26.6 L6.3,26.6 C2.82060608,26.6 0,23.7793939 0,20.3 C0,19.77282 0.0661701025,19.2477246 0.196958762,18.737026 L1.76042326,12.6320694 C3.66405159,5.19885403 10.3620981,0 18.0351999,0 Z M18.0351999,4.2 C12.2803735,4.2 7.25683867,8.09914052 5.82911742,13.674052 L4.26565292,19.7790087 C4.2220567,19.9492415 4.2,20.1242733 4.2,20.3 C4.2,21.459798 5.14020203,22.4 6.3,22.4 L54.8965709,22.4 C55.0350332,22.4 55.1731562,22.3863059 55.308923,22.3591177 C56.4461423,22.1313819 57.1834244,21.0248671 56.9556885,19.8876478 L55.8016203,14.1247044 C54.6459143,8.35358265 49.5780823,4.2 43.6923791,4.2 L18.0351999,4.2 Z" id="矩形备份" fill="#9AA4C2" fill-rule="nonzero"></path>
                    <path d="M18.0351999,0 L43.6923791,0 C51.5797528,0 58.3711053,5.56617579 59.9198557,13.3 L61.0739239,19.0629434 C61.7571314,22.4746013 59.5452853,25.7941456 56.1336274,26.4773531 C55.7263269,26.5589177 55.311958,26.6 54.8965709,26.6 L6.3,26.6 C2.82060608,26.6 0,23.7793939 0,20.3 C0,19.77282 0.0661701025,19.2477246 0.196958762,18.737026 L1.76042326,12.6320694 C3.66405159,5.19885403 10.3620981,0 18.0351999,0 Z" id="路径" fill="url(#linearGradient-3)"></path>
                    <path d="M17.2436337,0.0171856175 C12.4966899,1.40248727 8.62759869,6.12150312 7.38077405,12.4220253 L7.38077405,12.4220253 L6.15448305,18.6187858 C6.0519,19.1371641 6,19.6701557 6,20.2052632 C6,23.7369788 8.21232004,26.6 10.9413551,26.6 L10.903,26.599 L6.3,26.6 C2.82060608,26.6 -6.82121026e-13,23.7793939 -6.82121026e-13,20.3 C-6.82121026e-13,19.77282 0.0661701025,19.2477246 0.196958762,18.737026 L1.76042326,12.6320694 C3.57619182,5.54192551 9.75402983,0.484653804 16.979377,0.0329319892 Z M43.6923791,0 C51.5797528,0 58.3711053,5.56617579 59.9198557,13.3 L61.0739239,19.0629434 C61.7571314,22.4746013 59.5452853,25.7941456 56.1336274,26.4773531 C55.7263269,26.5589177 55.311958,26.6 54.8965709,26.6 L49.0887331,26.5998738 C49.4041367,26.5973096 49.7186502,26.5556703 50.0279662,26.4755088 C52.7038731,25.7820275 54.438717,22.4125652 53.9028487,18.9496042 L53.9028487,18.9496042 L52.9976644,13.1 C51.972379,6.47426243 48.0177655,1.41594919 43.0893745,-0.000760299963 L43.6923791,0 Z" id="形状结合" fill="url(#linearGradient-4)"></path>
                </g>
                <path d="M30,0 C45.9693707,0 46.4838145,13.260262 46.499419,18.2028426 L46.4995523,18.9108148 C46.4792355,23.4784106 45.3864661,38.9999319 30,38.9999319 C14.4581151,38.9999319 13.4999857,23.6250413 13.4999857,18.8106769 L13.5004208,18.1903632 C13.5160372,12.8990015 14.0306293,0 30,0 Z M35.4654622,26.6 L24.5037043,26.6 C24.4719783,26.6 24.4403649,26.6037741 24.4095306,26.6112428 C24.1948043,26.6632535 24.0628972,26.8794865 24.1149459,27.0942036 C25.2462355,31.7647345 27.1317204,34.1 29.7714005,34.1 C32.4068996,34.1 34.4324975,31.7721264 35.8481944,27.1163793 C35.8596666,27.0786511 35.8654973,27.0394339 35.8654973,27 C35.8654973,26.7790667 35.6863955,26.5999649 35.4654622,26.6 L35.4654622,26.6 Z" id="形状结合" fill="url(#linearGradient-5)"></path>
                <path d="M30.0000028,0 C43.4719054,0 44.9997692,12.0640535 44.9997692,18.0536375 L44.999333,18.4209178 C44.9832275,24.54641 44.4362281,36.75 30.0000028,36.75 C15.563772,36.75 15.0165535,24.5432142 15.0004393,18.4523047 L15.0004716,17.9067719 C15.031759,11.8930083 16.6628137,0 30.0000028,0 Z M35.4654622,26.6 L24.5037043,26.6 C24.4719783,26.6 24.4403649,26.6037741 24.4095306,26.6112428 C24.1948043,26.6632535 24.0628972,26.8794865 24.1149459,27.0942036 C25.2462355,31.7647345 27.1317204,34.1 29.7714005,34.1 C32.4068996,34.1 34.4324975,31.7721264 35.8481944,27.1163793 C35.8596666,27.0786511 35.8654973,27.0394339 35.8654973,27 C35.8654973,26.7790667 35.6863955,26.5999649 35.4654622,26.6 L35.4654622,26.6 Z" id="形状结合" fill="url(#linearGradient-6)"></path>
            </g>
        </g>
    </g>
</svg>