<?xml version="1.0" encoding="UTF-8"?>
<svg width="14px" height="14px" viewBox="0 0 14 14" version="1.1" xmlns="http://www.w3.org/2000/svg" xmlns:xlink="http://www.w3.org/1999/xlink">
    <!-- Generator: Sketch 61.1 (89650) - https://sketch.com -->
    <title>xuanzhong-jizhumima</title>
    <desc>Created with Sketch.</desc>
    <g id="xuanzhong-jizhumima" stroke="none" stroke-width="1" fill="none" fill-rule="evenodd">
        <g id="编组-8备份-2" opacity="0.5" stroke="#FFFFFF">
            <rect id="矩形备份-14" x="0.5" y="0.5" width="13" height="13" rx="6.5"></rect>
        </g>
        <g id="编组-8备份-2">
            <path d="M7,0 C10.8659932,-7.10171439e-16 14,3.13400675 14,7 C14,10.8659932 10.8659932,14 7,14 C3.13400675,14 4.73447626e-16,10.8659932 0,7 C-4.73447626e-16,3.13400675 3.13400675,7.10171439e-16 7,0 Z M9.96166667,4.33319851 C9.83051838,4.33319851 9.70492115,4.38613017 9.61333334,4.48 L9.61333334,4.48 L5.46666667,8.11 L3.84333333,6.47666667 C3.75072265,6.38343663 3.6247433,6.33100815 3.49333333,6.33100815 C3.36192337,6.33100815 3.23594401,6.38343663 3.14333333,6.47666667 C2.95410947,6.67292971 2.95410947,6.98373696 3.14333333,7.18 L3.14333333,7.18 L5.13333334,9.16 C5.22127614,9.25018546 5.3407616,9.30275907 5.46666667,9.30666666 C5.59814774,9.30603279 5.72401267,9.2532894 5.81666667,9.16 L5.81666667,9.16 L10.31,5.18 C10.40323,5.08738932 10.4556585,4.96140997 10.4556585,4.83 C10.4556585,4.69859004 10.40323,4.57261068 10.31,4.48 C10.2184122,4.38613017 10.092815,4.33319851 9.96166667,4.33319851 Z" id="形状结合" fill="#FFFFFF"></path>
            <g id="对号" transform="translate(2.000000, 2.000000)" fill="#000000" fill-rule="nonzero" opacity="0">
                <rect id="矩形" x="0" y="0" width="10" height="10"></rect>
            </g>
        </g>
    </g>
</svg>