<?xml version="1.0" encoding="UTF-8"?>
<svg width="68px" height="27px" viewBox="0 0 68 27" version="1.1" xmlns="http://www.w3.org/2000/svg" xmlns:xlink="http://www.w3.org/1999/xlink">
    <!-- Generator: Sketch 61.1 (89650) - https://sketch.com -->
    <title>Common/Logo/yabo_gold_horizontal@3x</title>
    <desc>Created with Sketch.</desc>
    <g id="Common/Logo/yabo_gold_horizontal" stroke="none" stroke-width="1" fill="none" fill-rule="evenodd">
        <path d="M14.1307853,0.273116812 L17.5289165,3.6789734 L22.3349214,3.6789734 C22.84855,3.6789734 23.26922,4.10035853 23.26922,4.61555176 L23.26922,9.43196448 L26.6675654,12.8376064 C27.0310466,13.2018909 27.0310466,13.7977978 26.6675654,14.1618677 L23.26922,17.5679389 L23.26922,22.3843516 C23.26922,22.8995449 22.84855,23.32093 22.3349214,23.32093 L17.5289165,23.32093 L14.1307853,26.7267866 C13.7673041,27.0910711 13.1729257,27.0910711 12.8092303,26.7267866 L9.41109916,23.32093 L4.60509427,23.32093 C4.09125142,23.32093 3.67079561,22.8995449 3.67079561,22.3843516 L3.67079561,17.5679389 L0.272450228,14.1618677 C-0.0908167428,13.7977978 -0.0908167428,13.2018909 0.272450228,12.8376064 L3.67079561,9.43196448 L3.67079561,4.61555176 C3.67079561,4.10035853 4.09125142,3.6789734 4.60509427,3.6789734 L9.41109916,3.6789734 L12.8092303,0.273116812 C13.1729257,-0.0909530717 13.7673041,-0.0909530717 14.1307853,0.273116812 Z M43.4232116,15.6306621 L43.4232116,17.4870751 L43.9719675,17.4870751 L43.9719675,18.2092042 L43.4232116,18.2092042 L43.4232116,23.6410582 L42.3940266,23.6410582 L42.3940266,18.2092042 L41.7422451,18.2092042 L41.7422451,17.4870751 L42.3940266,17.4870751 L42.3940266,15.6306621 L43.4232116,15.6306621 Z M56.2034406,15.6649439 L56.2034406,16.8340032 L58.2960811,16.8340032 L58.2960811,17.5559177 L57.5755445,17.5559177 C57.5294935,19.2979149 57.8270041,20.7419586 58.4674334,21.8878342 L58.4674334,22.8503869 C57.7584631,22.0484027 57.2893861,21.2919273 57.0610591,20.58139 C56.7866811,19.8480983 56.6493851,18.8398222 56.6493851,17.5559177 L56.2034406,17.5559177 L56.2034406,21.2689583 L57.335437,21.2689583 L57.335437,21.9565266 L56.2034406,21.9565266 L56.2034406,23.6066476 L55.1399851,23.6066476 L55.1399851,21.9565266 L53.9394477,21.9565266 L53.9394477,21.3376507 C53.7336107,21.7732037 53.3675593,22.2890409 52.8417218,22.8847331 L52.8417218,21.8878342 C53.4817228,20.7419586 53.7792333,19.2979149 53.7336107,17.5559177 L53.0818292,17.5559177 L53.0818292,16.8340032 L55.1399851,16.8340032 L55.1399851,15.6649439 L56.2034406,15.6649439 Z M66.582552,19.0687183 L66.582552,22.4722136 C66.6281745,23.2286889 66.2736894,23.583743 65.5190965,23.5380196 L64.661478,23.5380196 L64.661478,22.8847975 L65.073152,22.8847975 C65.3702341,22.9073372 65.507316,22.7585751 65.484826,22.4378673 L65.484826,22.1972292 L61.5055962,22.1972292 L61.5055962,23.606712 L60.4078702,23.606712 L60.4078702,19.0687183 L66.582552,19.0687183 Z M53.2533958,15.6649439 C53.0244262,16.6051716 52.7843187,17.2695562 52.5328592,17.6589564 L52.5328592,23.6066476 L51.5038883,23.6066476 L51.5038883,18.6217237 C51.2520004,18.7822923 50.9549183,18.9087293 50.6119994,18.9999614 L50.6119994,18.3810856 C51.4351332,17.8309021 51.9609707,16.9256647 52.1899403,15.6649439 L53.2533958,15.6649439 Z M48.7745454,20.6158006 L48.7745454,20.9938236 L49.7694599,20.9938236 L49.7694599,21.6470457 L48.7745454,21.6470457 L48.7745454,22.4378673 C48.7970354,23.1941281 48.4314123,23.5605593 47.6768194,23.5380196 L46.8877419,23.5380196 L46.8877419,22.8504513 L47.2994159,22.8504513 C47.6194164,22.872991 47.7680645,22.7128517 47.7453603,22.3691749 L47.7453603,21.6470457 L43.800401,21.6470457 L43.800401,20.9938236 L47.7453603,20.9938236 L47.7453603,20.6158006 L48.7745454,20.6158006 Z M40.6255633,16.0775278 L40.6255633,16.8340032 L38.4986523,16.8340032 L38.4986523,22.4721492 L40.8314003,22.4721492 L40.8314003,23.2286245 L32.9414816,23.2286245 L32.9414816,22.4721492 L35.2740154,22.4721492 L35.2740154,16.8340032 L33.1473186,16.8340032 L33.1473186,16.0775278 L40.6255633,16.0775278 Z M45.6186635,21.8876839 C45.8469905,22.2545444 46.007205,22.6561805 46.0988785,23.0910894 L45.0696935,23.0910894 C45.0011525,22.7014745 44.8752086,22.3002678 44.6922899,21.8876839 L45.6186635,21.8876839 Z M37.4351968,16.8337886 L36.3374709,16.8337886 L36.3374709,22.4721492 L37.4351968,22.4721492 L37.4351968,16.8337886 Z M8.9334545,11.8990961 C8.9334545,12.7463743 8.93602478,13.5889299 8.93602478,14.4347054 C8.8953286,15.231323 9.62914502,15.7012221 9.62914502,15.7012221 C9.95342933,15.96118 10.4679147,16.2546255 10.9284242,16.6109675 C11.6472473,17.1675908 11.9316922,17.6750562 11.9316922,18.5605445 L11.9316922,21.7268363 L13.2080529,21.7268363 L13.2085306,17.7214347 C13.2066333,16.9005153 13.1921834,16.1508453 13.1545053,15.7012221 C13.1163794,15.2480667 12.9193242,14.9859622 12.6278111,14.7665757 C12.0741288,14.3505572 11.3962161,13.9882046 10.8146891,13.6196268 C10.3188382,13.3051443 9.09623923,12.6083454 8.9334545,11.8990961 Z M18.1854102,11.8990961 C18.0228396,12.6083454 16.8000265,13.3051443 16.3041756,13.6196268 C15.7226486,13.9882046 15.0447359,14.3505572 14.4910536,14.7665757 C14.1995404,14.9859622 14.0024852,15.2480667 13.9645735,15.7012221 C13.9267202,16.1508453 13.9122385,16.9005153 13.9103354,17.7214347 L13.9108117,21.7268363 L15.1871725,21.7268363 L15.1871725,18.5605445 C15.1871725,17.6750562 15.4714032,17.1675908 16.1904405,16.6109675 C16.6509499,16.2546255 17.1656495,15.96118 17.4899338,15.7012221 C17.4899338,15.7012221 18.2235361,15.231323 18.1828399,14.4347054 C18.1828399,13.5889299 18.1854102,12.7463743 18.1854102,11.8990961 Z M65.484826,20.9594774 L61.5055962,20.9594774 L61.5055962,21.5783533 L65.484826,21.5783533 L65.484826,20.9594774 Z M55.1399851,17.5559177 L54.6597702,17.5559177 C54.6597702,19.1373463 54.4310148,20.375098 53.9737182,21.2689583 L55.1399851,21.2689583 L55.1399851,17.5559177 Z M34.2105599,17.7622097 C34.279315,18.954238 34.485152,20.0543903 34.8280709,21.0626663 L33.936182,21.0626663 C33.6388856,20.2374985 33.398564,19.1373463 33.2158595,17.7622097 L34.2105599,17.7622097 Z M40.5225377,17.7622097 C40.3854558,18.9999614 40.1451342,20.1001137 39.8022153,21.0626663 L38.9445968,21.0626663 C39.2877299,20.0543903 39.4935669,18.954238 39.5621078,17.7622097 L40.5225377,17.7622097 Z M47.2994159,15.6306621 L47.2994159,16.249538 L48.0542229,16.249538 L48.0542229,15.6993545 L48.9803824,15.6993545 L48.9803824,16.249538 L49.6664343,16.249538 L49.6664343,16.833853 L47.2994159,16.833853 L47.2994159,17.2464369 L49.3235154,17.2464369 L49.3235154,20.5812397 L48.3971418,20.5812397 L48.3971418,20.0656172 L47.2994159,20.0656172 L47.2994159,20.5468935 L46.3047155,20.5468935 L46.3047155,20.0656172 L45.1727191,20.0656172 L45.1727191,20.5812397 L44.2463455,20.5812397 L44.2463455,17.2464369 L46.3047155,17.2464369 L46.3047155,16.833853 L43.9719675,16.833853 L43.9719675,16.249538 L46.3047155,16.249538 L46.3047155,15.6306621 L47.2994159,15.6306621 Z M65.484826,19.7217257 L61.5055962,19.7217257 L61.5055962,20.3406016 L65.484826,20.3406016 L65.484826,19.7217257 Z M48.3971418,18.8967725 L47.2994159,18.8967725 L47.2994159,19.5156484 L48.3971418,19.5156484 L48.3971418,18.8967725 Z M46.3047155,18.8967725 L45.1727191,18.8967725 L45.1727191,19.5156484 L46.3047155,19.5156484 L46.3047155,18.8967725 Z M64.1125079,15.6650083 L64.1125079,16.249538 L67.4056858,16.249538 L67.4056858,16.9714525 L63.1863485,16.9714525 C62.8434296,17.2696206 62.3857047,17.5677887 61.8142446,17.8653127 C62.7973787,17.8653127 63.4834306,17.8539356 63.8724005,17.8309665 C64.3528296,17.8309665 64.7987741,17.8084268 65.2102339,17.7622741 C65.073152,17.5789512 64.9240755,17.4070054 64.7642894,17.2464369 L65.7249335,17.2464369 C66.1366075,17.6132974 66.5137969,18.1179721 66.8569299,18.759173 L65.759204,18.759173 C65.713153,18.6447572 65.6561784,18.530556 65.5876374,18.4154962 C64.2380235,18.530556 62.9119706,18.5872273 61.6084076,18.5872273 L60.4078702,18.5872273 L60.4078702,17.8653127 C60.9566261,17.5903284 61.4252748,17.2928043 61.8142446,16.9714525 L59.5502518,16.9714525 L59.5502518,16.249538 L62.8434296,16.249538 L62.8434296,15.6650083 L64.1125079,15.6650083 Z M48.3971418,17.8309665 L47.2994159,17.8309665 L47.2994159,18.3465891 L48.3971418,18.3465891 L48.3971418,17.8309665 Z M46.3047155,17.8309665 L45.1727191,17.8309665 L45.1727191,18.3465891 L46.3047155,18.3465891 L46.3047155,17.8309665 Z M41.0968037,3.93017303 L35.9549482,13.4792796 C35.6205969,14.0378349 34.8576506,13.9614146 34.2287875,13.954116 C33.6292685,13.9470321 33.4619858,14.1198365 33.2572197,14.2370429 L33.2572197,14.2370429 L34.6734468,11.6205053 L35.820865,9.48460006 C35.6777858,9.38091742 35.4792312,9.29977448 35.2284143,9.26414029 C34.5629246,9.16925887 33.8985059,9.15702303 33.5018252,8.45034964 L33.5018252,8.45034964 L31.5272036,3.9499221 C32.3726132,4.69351767 33.8222541,3.86577388 34.2894034,4.93115055 L34.2894034,4.93115055 L36.0757516,9.00267972 L38.2810563,4.90732286 C38.3029037,4.86975669 38.3307485,4.83455182 38.3568797,4.80406955 C38.4948183,4.64221301 38.6370408,4.53466642 38.8612982,4.45695811 C39.660871,4.17961242 40.4266018,4.54776092 41.0968037,3.93017303 L41.0968037,3.93017303 Z M13.5194858,6.13644511 C11.6283985,6.13644511 10.0950092,7.67343825 10.0950092,9.56870535 C10.0950092,11.4639724 11.6283985,13.0007509 13.5194858,13.0007509 C15.4105731,13.0007509 16.9443908,11.4639724 16.9443908,9.56870535 C16.9443908,7.67343825 15.4105731,6.13644511 13.5194858,6.13644511 Z M13.5167013,6.38781648 C15.2732771,6.38781648 16.6972151,7.81511639 16.6972151,9.57535993 C16.6972151,11.3353888 15.2732771,12.7629034 13.5167013,12.7629034 C11.7603398,12.7629034 10.3364018,11.3353888 10.3364018,9.57535993 C10.3364018,7.81511639 11.7603398,6.38781648 13.5167013,6.38781648 Z M51.9945129,-1.42108547e-14 L51.9945129,5.05511892 C52.7024123,4.57598921 53.5638862,4.29477957 54.4934727,4.29477957 C56.9020441,4.29477957 58.855675,6.1827481 58.855675,8.51034819 C58.855675,10.8381629 56.9020441,12.7257021 54.4934727,12.7257021 C53.1603515,12.7257021 51.9670966,12.1478271 51.1673095,11.2367937 C50.7410705,10.7520827 50.1190615,10.1250496 50.4326363,9.42868012 C50.5457289,9.17730876 50.591994,8.9252934 50.5937075,8.68680187 C50.5986339,7.9717566 50.2203736,7.26422456 50.2203736,7.26422456 L50.2203736,7.26422456 L51.2358504,8.45002765 C51.7428392,9.04185587 52.1438037,9.63497208 52.6687844,10.1731343 C52.8116494,10.3193204 52.973149,10.4485481 53.1496419,10.5569533 L53.1496419,10.5569533 L53.1500703,10.5573826 L53.3207482,10.6531421 C53.6705618,10.8323933 54.0697428,10.9341177 54.4934727,10.9341177 C55.878428,10.9341177 57.0014285,9.84877727 57.0014285,8.51034819 C57.0014285,7.17191911 55.878428,6.08679336 54.4934727,6.08679336 C53.3203517,6.08679336 52.3547813,6.78530952 52.1123177,7.72510784 L52.1123177,7.72510784 L51.263481,6.73400486 L50.9768942,6.39955859 L50.2178033,5.5129969 L50.2178033,2.11207758 C50.2178033,1.1239799 50.6521815,1.05163818 51.3358774,0.736511657 C51.8197336,0.513690584 51.9945129,-1.42108547e-14 51.9945129,-1.42108547e-14 L51.9945129,-1.42108547e-14 Z M13.0424837,11.8422101 L12.0657754,11.8840696 L11.925909,12.1646352 L11.8320936,12.1272837 C12.3148788,12.4484208 12.8940498,12.6356077 13.5167013,12.6356077 C13.6417886,12.6356077 13.7647339,12.6278798 13.8861798,12.6128534 L13.9973447,12.3252038 L13.0424837,11.8422101 Z M63.7615998,4.32174135 C66.1020586,4.32174135 68,6.15604392 68,8.41752754 C68,10.6794405 66.1020586,12.5135284 63.7615998,12.5135284 C61.4211409,12.5135284 59.5231995,10.6794405 59.5231995,8.41752754 C59.5231995,6.15604392 61.4211409,4.32174135 63.7615998,4.32174135 Z M44.8676691,4.32180575 C46.7917417,4.32180575 48.4165903,5.56170413 48.9338602,7.25948049 C49.0852928,7.75664196 49.1191349,8.21859856 49.1191349,8.71726267 L49.1191349,12.4150621 L47.2888777,12.4150621 L47.2888777,9.07446331 C47.2888777,8.71382805 47.2989446,8.31326531 47.2218361,7.94962476 C46.9975787,6.89154666 46.0287954,6.09557311 44.8676691,6.09557311 C43.5407593,6.09557311 42.4644524,7.13540479 42.4644524,8.41759194 C42.4644524,9.69999376 43.5407593,10.7398254 44.8676691,10.7398254 C44.9726224,10.7398254 45.0762905,10.7333855 45.1776026,10.7207203 C45.1846709,10.7198617 45.1919534,10.719003 45.1992358,10.7179297 L45.2337205,10.7132071 L45.2337205,10.7132071 L45.2341489,10.7129924 C45.4110702,10.6868035 45.58178,10.6419387 45.7437079,10.5805449 C46.2136417,10.4141804 46.5856905,10.1591597 46.8125182,9.97712478 L46.8125182,9.98614067 C46.7330535,10.112363 46.6274576,10.2686383 46.5512058,10.4403694 C46.4666006,10.6320642 46.4338295,10.8596079 46.4391842,11.0042913 C46.4526782,11.3653559 46.4648871,11.6229525 46.221781,11.9363617 C45.8269566,12.4454585 45.1089693,12.5057647 44.9162524,12.5127646 L44.8830908,12.5135928 L44.8676691,12.5135928 C42.5272102,12.5135928 40.6290546,10.6795049 40.6290546,8.41759194 C40.6290546,6.15589366 42.5272102,4.32180575 44.8676691,4.32180575 Z M14.5328207,10.3384899 L13.2348267,10.994288 L13.1358708,11.7657898 L14.0847344,12.2459928 L15.0631563,11.6466514 L15.2400775,10.8244889 L14.5328207,10.3384899 Z M10.8530291,9.97012674 L10.5304584,10.2154875 C10.6990262,11.0082411 11.173458,11.6867935 11.8245969,12.1223465 L11.9830979,11.8078639 L11.5769928,10.8201956 L10.8530291,9.97012674 Z M16.0555005,9.96132553 L16.0450052,10.0396778 L16.0115915,10.0353846 L16.0173746,9.99331044 L15.3585249,10.7985145 L15.1691805,11.6767043 L15.5557942,11.8185971 L15.5808545,11.830189 C16.0737067,11.3763896 16.4174823,10.7628803 16.5301465,10.0714481 L16.0555005,9.96132553 Z M13.6225114,8.50139671 L12.4997252,8.71799253 L12.3221613,10.156455 L12.3230181,10.1560256 L13.2080529,10.8837361 L14.4831286,10.2397445 L14.6360605,9.16556665 L13.6225114,8.50139671 Z M63.7615998,6.09550872 C62.43469,6.09550872 61.3585973,7.13534039 61.3585973,8.41752754 C61.3585973,9.70014402 62.43469,10.7399757 63.7615998,10.7399757 C65.0885095,10.7399757 66.1648164,9.70014402 66.1648164,8.41752754 C66.1648164,7.13534039 65.0885095,6.09550872 63.7615998,6.09550872 Z M11.79204,8.10770321 L10.8806597,8.78389433 L10.8806597,9.83274188 L11.571638,10.6430979 L12.2011437,10.2345926 L12.3902739,8.70661534 L11.79204,8.10770321 Z M15.8318857,7.57984481 L15.4917513,7.73053883 L15.6067716,8.85323075 L15.609556,8.85280142 L16.0327963,9.8795386 L16.0372943,9.84712436 L16.5457824,9.96239884 C16.5618467,9.83553251 16.5702001,9.70651954 16.5702001,9.57535993 C16.5702001,8.81308861 16.2915384,8.11628977 15.8318857,7.57984481 Z M14.6358463,7.20353909 L13.6257243,7.44546525 L13.6447872,8.38419025 L14.7463686,9.1058901 L15.499248,8.88457167 L15.3769452,7.6897527 C15.2160882,7.57769818 14.8511077,7.32740013 14.6358463,7.20353909 Z M12.2767529,6.77807535 C11.5669258,7.09470452 11.000178,7.67472623 10.6992404,8.39427945 L10.869736,8.65488136 L11.7134321,8.02870692 L11.7082915,8.02291099 L12.445535,7.23895863 L12.4337545,7.24389589 L12.2767529,6.77807535 Z M13.5167013,6.51511214 C13.113595,6.51511214 12.7280522,6.59346444 12.3759231,6.7362159 L12.5346382,7.19946048 L13.6139438,7.33426937 L14.477988,7.12733343 L14.4394337,6.65764893 C14.1483489,6.56534348 13.8382012,6.51511214 13.5167013,6.51511214 Z" id="合并形状" fill="#B1987F"></path>
    </g>
</svg>