<svg width="14" height="14" viewBox="0 0 14 14" fill="none" xmlns="http://www.w3.org/2000/svg">
<path fill-rule="evenodd" clip-rule="evenodd" d="M7 14C10.866 14 14 10.866 14 7C14 3.13401 10.866 0 7 0C3.13401 0 0 3.13401 0 7C0 10.866 3.13401 14 7 14ZM7 2.5C6.79372 2.5 6.59589 2.5878 6.45003 2.74408C6.30416 2.90036 6.22222 3.11232 6.22222 3.33333C6.21949 3.37356 6.21949 3.41394 6.22222 3.45417C5.10222 3.80833 4.27778 4.925 4.27778 6.25V8.75L3.5 9.58333V10H10.5V9.58333L9.72222 8.75V6.25C9.72222 4.925 8.89778 3.80833 7.77778 3.45417C7.7805 3.41394 7.7805 3.37356 7.77778 3.33333C7.77778 3.11232 7.69584 2.90036 7.54997 2.74408C7.40409 2.5878 7.20628 2.5 7 2.5ZM6.3 10.75C6.3 10.9489 6.37375 11.1397 6.50503 11.2803C6.6363 11.421 6.81435 11.5 7 11.5C7.18565 11.5 7.36368 11.421 7.49497 11.2803C7.62626 11.1397 7.7 10.9489 7.7 10.75H6.3Z" fill="#4987FB"/>
</svg>
