<svg width="16" height="16" viewBox="0 0 16 16" fill="none" xmlns="http://www.w3.org/2000/svg">
<path fill-rule="evenodd" clip-rule="evenodd" d="M8 16C12.4183 16 16 12.4183 16 8C16 3.58172 12.4183 0 8 0C3.58172 0 0 3.58172 0 8C0 12.4183 3.58172 16 8 16ZM8 15C11.866 15 15 11.866 15 8C15 4.13401 11.866 1 8 1C4.13401 1 1 4.13401 1 8C1 11.866 4.13401 15 8 15Z" fill="#4987FB"/>
<path fill-rule="evenodd" clip-rule="evenodd" d="M8.7529 9.9608C8.75013 10.024 8.74729 10.0887 8.74425 10.1556C8.22294 10.1556 7.71412 10.1556 7.20709 10.1521C7.18189 10.1521 7.15668 10.1506 7.13054 10.1491C7.11594 10.1482 7.10104 10.1474 7.08569 10.1467C7.01071 9.22193 7.12854 8.36319 7.85159 7.70084C8.16023 7.41824 8.47743 7.14514 8.79485 6.87185C8.91259 6.77048 9.03036 6.66908 9.14773 6.56716C9.34947 6.3922 9.51015 6.19046 9.58335 5.92802C9.73331 5.38886 9.48694 4.82827 8.9692 4.52833C8.07654 4.01416 6.90537 4.3498 6.43941 5.26388C6.3851 5.36953 6.34554 5.48227 6.30593 5.59517C6.27391 5.68641 6.24186 5.77776 6.20196 5.86553C6.16447 5.94944 6.1002 6.05121 6.02343 6.08334C5.62352 6.25116 5.20932 6.2708 4.80049 6.11726C4.53983 6.02086 4.46663 5.85125 4.51305 5.5299C4.63981 4.66759 5.08257 3.99988 5.78598 3.50535C6.50725 3.0001 7.33028 2.87156 8.18902 2.90548C8.73175 2.9269 9.26378 3.01796 9.75474 3.25897C10.5296 3.63925 11.108 4.20341 11.3455 5.05679C11.5418 5.76913 11.4079 6.42612 10.9545 7.00992C10.6008 7.46509 10.1646 7.83918 9.72974 8.21205C9.69043 8.24576 9.65114 8.27946 9.61191 8.3132C9.44409 8.45781 9.28341 8.61135 9.12452 8.76489C8.88707 8.99341 8.78531 9.28263 8.76924 9.60577C8.76336 9.72224 8.75825 9.83871 8.7529 9.9608ZM7.97635 13.4144C7.32292 13.4144 6.79625 12.893 6.79982 12.2503C6.80339 11.6165 7.33185 11.1024 7.97635 11.1006C8.6262 11.1006 9.16358 11.6326 9.15823 12.2664C9.15287 12.8966 8.62084 13.4161 7.97635 13.4144Z" fill="#4987FB"/>
</svg>
