<svg width="142" height="80" viewBox="0 0 142 80" fill="none" xmlns="http://www.w3.org/2000/svg">
<mask id="mask0_1180_131265" style="mask-type:alpha" maskUnits="userSpaceOnUse" x="0" y="0" width="142" height="80">
<rect width="141.782" height="80" fill="#D9D9D9"/>
</mask>
<g mask="url(#mask0_1180_131265)">
<path fill-rule="evenodd" clip-rule="evenodd" d="M70.2021 50.3428C136.704 50.3428 190.613 104.254 190.613 170.758C190.613 237.263 136.704 291.172 70.2021 291.172C3.70057 291.172 -50.209 237.261 -50.209 170.758C-50.209 104.255 3.70057 50.3428 70.2021 50.3428Z" fill="url(#paint0_linear_1180_131265)"/>
<path fill-rule="evenodd" clip-rule="evenodd" d="M34.0273 54.5462L70.4517 42.2041L90.169 60.1153L61.8724 66.5873L34.0273 54.5462Z" fill="url(#paint1_linear_1180_131265)"/>
<path fill-rule="evenodd" clip-rule="evenodd" d="M42.5833 48.6106C42.4976 48.2252 42.189 47.9272 41.8007 47.8535C41.3883 47.7587 41.3868 47.6563 41.7962 47.5464C42.1815 47.4606 42.4795 47.1521 42.5517 46.7638C42.6481 46.3513 42.7504 46.3498 42.8603 46.7577C42.9461 47.1446 43.2546 47.4426 43.643 47.5148C44.0554 47.6112 44.0569 47.7135 43.6475 47.8234C43.2622 47.9092 42.9641 48.2162 42.8919 48.6061C42.7956 49.0185 42.6932 49.02 42.5833 48.6106Z" fill="#CCCCCC"/>
<path fill-rule="evenodd" clip-rule="evenodd" d="M42.513 48.4846C42.4272 48.0978 42.1202 47.8013 41.7304 47.7275C41.318 47.6327 41.3164 47.5303 41.7258 47.4204C42.1112 47.3347 42.4092 47.0261 42.4829 46.6378C42.5778 46.2254 42.6801 46.2239 42.79 46.6318C42.8758 47.0186 43.1843 47.3166 43.5727 47.3888C43.9851 47.4852 43.9866 47.5875 43.5787 47.6974C43.1919 47.7832 42.8938 48.0902 42.8216 48.4801C42.7253 48.891 42.6229 48.8925 42.513 48.4846Z" fill="url(#paint2_radial_1180_131265)"/>
<path fill-rule="evenodd" clip-rule="evenodd" d="M113.777 52.5236C113.691 52.1383 113.382 51.8403 112.994 51.7666C112.582 51.6717 112.58 51.5694 112.99 51.4595C113.375 51.3737 113.673 51.0652 113.745 50.6768C113.841 50.2644 113.944 50.2629 114.054 50.6708C114.139 51.0576 114.448 51.3557 114.836 51.4279C115.249 51.5242 115.25 51.6266 114.841 51.7365C114.456 51.8223 114.158 52.1293 114.085 52.5191C113.989 52.9315 113.887 52.933 113.777 52.5236Z" fill="#CCCCCC"/>
<path fill-rule="evenodd" clip-rule="evenodd" d="M113.704 52.4006C113.619 52.0138 113.312 51.7173 112.922 51.6435C112.509 51.5487 112.508 51.4463 112.917 51.3365C113.303 51.2507 113.601 50.9421 113.673 50.5538C113.769 50.1414 113.872 50.1399 113.981 50.5478C114.067 50.9346 114.376 51.2326 114.764 51.3049C115.176 51.4012 115.178 51.5035 114.77 51.6134C114.383 51.6992 114.085 52.0063 114.013 52.3961C113.917 52.807 113.814 52.8085 113.704 52.4006Z" fill="url(#paint3_radial_1180_131265)"/>
<path fill-rule="evenodd" clip-rule="evenodd" d="M109.619 47.4581C109.56 47.1977 109.352 46.996 109.089 46.9463C108.81 46.8816 108.809 46.8124 109.086 46.7386C109.346 46.6799 109.548 46.4722 109.597 46.2088C109.662 45.9304 109.731 45.9289 109.805 46.2058C109.864 46.4662 110.072 46.6679 110.335 46.7175C110.613 46.7823 110.615 46.8515 110.338 46.9252C110.078 46.984 109.876 47.1917 109.826 47.4551C109.761 47.7335 109.692 47.735 109.619 47.4581Z" fill="url(#paint4_radial_1180_131265)"/>
<path fill-rule="evenodd" clip-rule="evenodd" d="M51.127 57.6472L51.151 34.9708L83.2316 31.9951L83.2075 54.6715L51.127 57.6472Z" fill="url(#paint5_linear_1180_131265)"/>
<path fill-rule="evenodd" clip-rule="evenodd" d="M51.104 34.9843L83.4299 32.0674L77.9858 24.6816L45.541 27.3367L51.104 34.9843Z" fill="url(#paint6_linear_1180_131265)"/>
<path fill-rule="evenodd" clip-rule="evenodd" d="M83.2051 54.6715L83.2292 31.9951L94.0632 40.9236L94.0391 63.6L83.2051 54.6715Z" fill="url(#paint7_linear_1180_131265)"/>
<path fill-rule="evenodd" clip-rule="evenodd" d="M61.8809 66.6194L61.9049 43.943L94.2188 40.9463L94.1947 63.6227L61.8809 66.6194Z" fill="url(#paint8_linear_1180_131265)"/>
<path fill-rule="evenodd" clip-rule="evenodd" d="M50.9707 57.6256L50.9933 34.9492L61.9055 43.9424L61.883 66.6188L50.9707 57.6256Z" fill="url(#paint9_linear_1180_131265)"/>
<path d="M67.4434 46.4187C67.4434 46.4187 78.7861 37.6287 73.7649 33.9261C68.7438 30.2234 67.9115 34.1759 68.1959 36.0333C68.4804 37.8906 76.3011 37.9102 76.3237 32.1199C76.3538 24.5972 87.6122 13.3057 87.6122 13.3057" stroke="url(#paint10_linear_1180_131265)" stroke-dasharray="12 6"/>
<path fill-rule="evenodd" clip-rule="evenodd" d="M93.9719 41.1433L83.1289 32.1275L88.9207 28.0771L99.8871 36.831L93.9719 41.1433Z" fill="url(#paint11_linear_1180_131265)"/>
<path fill-rule="evenodd" clip-rule="evenodd" d="M57.1301 51.5946L46.2871 42.5788L50.9696 35.002L61.936 43.7558L57.1301 51.5946Z" fill="url(#paint12_linear_1180_131265)"/>
<path fill-rule="evenodd" clip-rule="evenodd" d="M57.1301 51.5946L46.2871 42.5788L50.9696 35.002L61.936 43.7558L57.1301 51.5946Z" fill="url(#paint13_linear_1180_131265)"/>
<path fill-rule="evenodd" clip-rule="evenodd" d="M66.5266 51.5721L98.8088 48.1735L94.1278 40.5967L61.7207 43.7319L66.5266 51.5721Z" fill="url(#paint14_linear_1180_131265)"/>
<path fill-rule="evenodd" clip-rule="evenodd" d="M98.0491 4.11426L87.5763 13.5229L85.7656 13.6854L98.0491 4.11426Z" fill="white"/>
<path fill-rule="evenodd" clip-rule="evenodd" d="M98.0491 4.11426L87.5763 13.5229L85.7656 13.6854L98.0491 4.11426Z" fill="url(#paint15_linear_1180_131265)"/>
<path fill-rule="evenodd" clip-rule="evenodd" d="M85.7666 13.6864L83.998 12.2535L97.8589 4.20703" fill="url(#paint16_linear_1180_131265)"/>
<path fill-rule="evenodd" clip-rule="evenodd" d="M87.1582 15.1123L88.9644 17.8215L97.9952 4.42578" fill="url(#paint17_linear_1180_131265)"/>
<path fill-rule="evenodd" clip-rule="evenodd" d="M87.4557 13.505L87.084 15.2856L97.7584 4.48926" fill="white"/>
<path fill-rule="evenodd" clip-rule="evenodd" d="M87.4557 13.505L87.084 15.2856L97.7584 4.48926" fill="url(#paint18_linear_1180_131265)"/>
<path fill-rule="evenodd" clip-rule="evenodd" d="M67.5625 60.7853L70.7684 60.4693V59.4744L68.7516 59.673V58.624L70.4027 58.4614V57.4665L68.7516 57.629V56.7124L70.6947 56.5213V55.5399L67.564 55.8485V60.7853H67.5625ZM71.5045 60.397L72.5656 60.2931V58.6014C72.546 58.0324 72.4948 57.4665 72.4136 56.9036L72.4406 56.9021L72.838 58.043L73.5078 59.7829L74.158 59.7182L74.8218 57.8488L75.2327 56.6266L75.2598 56.6236C75.18 57.1971 75.1288 57.7736 75.1078 58.3515V60.0433L76.1884 59.9364V54.9996L74.9016 55.126L74.146 57.331C74.0527 57.6245 73.9729 57.9451 73.8735 58.2597L73.8404 58.2627C73.7471 57.9662 73.6673 57.6637 73.568 57.3867L72.7853 55.3352L71.5045 55.4601V60.397ZM77.1051 59.8461L78.2926 59.7302V58.0911L78.8706 58.0339C79.9122 57.9316 80.8213 57.325 80.8213 56.1495C80.8213 54.9288 79.9257 54.6323 78.8375 54.7392L77.1066 54.9093V59.8461H77.1051ZM78.2926 57.1549V55.7281L78.7773 55.6814C79.3477 55.6242 79.6668 55.7657 79.6668 56.2639C79.6668 56.7486 79.3884 57.0481 78.8104 57.1038L78.2926 57.1549ZM82.492 59.3163L83.6795 59.1989V55.2449L85.0206 55.1125V54.1311L81.1584 54.5104V55.4933L82.492 55.3623V59.3163ZM86.7049 58.9024L87.8864 58.7865V57.0405L89.3795 53.7021L88.1377 53.8241L87.7268 54.9604C87.5884 55.3443 87.4544 55.7025 87.3159 56.1013L87.2888 56.1044C87.1504 55.7326 87.0239 55.3999 86.8915 55.0417L86.4791 53.9881L85.2193 54.113L86.7049 57.1579V58.9024Z" fill="url(#paint19_linear_1180_131265)"/>
</g>
<defs>
<linearGradient id="paint0_linear_1180_131265" x1="70.2039" y1="291.174" x2="70.2039" y2="50.3417" gradientUnits="userSpaceOnUse">
<stop offset="0.919" stop-color="#E6E6E6" stop-opacity="0"/>
<stop offset="1" stop-color="#E6E6E6"/>
</linearGradient>
<linearGradient id="paint1_linear_1180_131265" x1="72.6962" y1="66.5873" x2="51.5002" y2="42.2041" gradientUnits="userSpaceOnUse">
<stop stop-color="#CCCCCC"/>
<stop offset="1" stop-color="#E6E6E6" stop-opacity="0"/>
</linearGradient>
<radialGradient id="paint2_radial_1180_131265" cx="0" cy="0" r="1" gradientUnits="userSpaceOnUse" gradientTransform="translate(42.6511 47.5586) scale(1.23)">
<stop stop-color="#FAFAFA"/>
<stop offset="1" stop-color="#E6E6E6"/>
</radialGradient>
<radialGradient id="paint3_radial_1180_131265" cx="0" cy="0" r="1" gradientUnits="userSpaceOnUse" gradientTransform="translate(113.842 51.4746) scale(1.23)">
<stop stop-color="#FAFAFA"/>
<stop offset="1" stop-color="#E6E6E6"/>
</radialGradient>
<radialGradient id="paint4_radial_1180_131265" cx="0" cy="0" r="1" gradientUnits="userSpaceOnUse" gradientTransform="translate(109.714 46.8334) scale(0.832491 0.832494)">
<stop stop-color="#FAFAFA"/>
<stop offset="1" stop-color="#E6E6E6"/>
</radialGradient>
<linearGradient id="paint5_linear_1180_131265" x1="70.3766" y1="57.6463" x2="63.9819" y2="31.9978" gradientUnits="userSpaceOnUse">
<stop stop-color="#999999"/>
<stop offset="1" stop-color="#CCCCCC"/>
</linearGradient>
<linearGradient id="paint6_linear_1180_131265" x1="59.335" y1="34.9845" x2="69.6359" y2="24.6838" gradientUnits="userSpaceOnUse">
<stop stop-color="#CCCCCC"/>
<stop offset="1" stop-color="#F0F0F0"/>
</linearGradient>
<linearGradient id="paint7_linear_1180_131265" x1="92.5743" y1="63.6009" x2="84.6947" y2="31.9978" gradientUnits="userSpaceOnUse">
<stop stop-color="#999999"/>
<stop offset="1" stop-color="#CCCCCC"/>
</linearGradient>
<linearGradient id="paint8_linear_1180_131265" x1="65.2114" y1="66.6208" x2="90.8882" y2="40.944" gradientUnits="userSpaceOnUse">
<stop stop-color="#B3B3B3"/>
<stop offset="1" stop-color="#E6E6E6"/>
</linearGradient>
<linearGradient id="paint9_linear_1180_131265" x1="60.3855" y1="66.6202" x2="52.4895" y2="34.9512" gradientUnits="userSpaceOnUse">
<stop stop-color="#999999"/>
<stop offset="1" stop-color="#CCCCCC"/>
</linearGradient>
<linearGradient id="paint10_linear_1180_131265" x1="67.4434" y1="39.9466" x2="87.6122" y2="19.7778" gradientUnits="userSpaceOnUse">
<stop stop-color="#CCCCCC"/>
<stop offset="1" stop-color="#F0F0F0"/>
</linearGradient>
<linearGradient id="paint11_linear_1180_131265" x1="84.9735" y1="41.143" x2="98.04" y2="28.0764" gradientUnits="userSpaceOnUse">
<stop stop-color="#CCCCCC"/>
<stop offset="1" stop-color="white"/>
</linearGradient>
<linearGradient id="paint12_linear_1180_131265" x1="61.9372" y1="43.2968" x2="46.2885" y2="43.2968" gradientUnits="userSpaceOnUse">
<stop stop-color="#E6E6E6" stop-opacity="0"/>
<stop offset="1" stop-color="#E6E6E6"/>
</linearGradient>
<linearGradient id="paint13_linear_1180_131265" x1="61.9372" y1="43.2968" x2="46.2885" y2="43.2968" gradientUnits="userSpaceOnUse">
<stop stop-color="#E6E6E6" stop-opacity="0"/>
<stop offset="1" stop-color="#E6E6E6"/>
</linearGradient>
<linearGradient id="paint14_linear_1180_131265" x1="74.7769" y1="51.5737" x2="85.7551" y2="40.5956" gradientUnits="userSpaceOnUse">
<stop stop-color="#CCCCCC"/>
<stop offset="1" stop-color="#F0F0F0"/>
</linearGradient>
<linearGradient id="paint15_linear_1180_131265" x1="87.5993" y1="4.11546" x2="96.2176" y2="13.6871" gradientUnits="userSpaceOnUse">
<stop offset="0.4" stop-color="#E6E6E6" stop-opacity="0.4"/>
<stop offset="0.443" stop-color="white"/>
<stop offset="0.6" stop-color="#CCCCCC"/>
</linearGradient>
<linearGradient id="paint16_linear_1180_131265" x1="86.1876" y1="13.688" x2="95.6699" y2="4.20567" gradientUnits="userSpaceOnUse">
<stop stop-color="#E6E6E6"/>
<stop offset="0.761" stop-color="white"/>
<stop offset="1" stop-color="#F0F0F0"/>
</linearGradient>
<linearGradient id="paint17_linear_1180_131265" x1="87.1582" y1="16.5421" x2="97.9952" y2="5.70515" gradientUnits="userSpaceOnUse">
<stop stop-color="#CCCCCC"/>
<stop offset="0.761" stop-color="white"/>
<stop offset="1" stop-color="#F0F0F0"/>
</linearGradient>
<linearGradient id="paint18_linear_1180_131265" x1="87.5613" y1="4.49046" x2="97.2808" y2="15.285" gradientUnits="userSpaceOnUse">
<stop offset="0.4" stop-color="#E6E6E6" stop-opacity="0.4"/>
<stop offset="0.443" stop-color="white"/>
<stop offset="0.6" stop-color="#CCCCCC"/>
</linearGradient>
<linearGradient id="paint19_linear_1180_131265" x1="77.5873" y1="60.785" x2="79.3536" y2="53.7014" gradientUnits="userSpaceOnUse">
<stop stop-color="#CCCCCC"/>
<stop offset="1" stop-color="white"/>
</linearGradient>
</defs>
</svg>
