<svg width="5" height="8" viewBox="0 0 5 8" fill="none" xmlns="http://www.w3.org/2000/svg">
    <path d="M4.13467 0.191674C4.00248 0.0642632 3.83711 0.000488281 3.67178 0.000488281C3.60573 0.000488281 3.53959 0.0323703 3.47348 0.0323703H3.44039C3.34125 0.0960598 3.27516 0.159952 3.20901 0.223642L0.531357 2.80523C0.266891 3.06018 0.266891 3.44275 0.531357 3.66586C0.66359 3.79332 0.828881 3.85705 0.994117 3.85705C1.15944 3.85705 1.32477 3.79332 1.45692 3.66586L3.07675 2.10406V7.39493C3.07675 7.74554 3.37435 8.00049 3.70492 8.00049C4.03553 8.00049 4.33301 7.71357 4.33301 7.39493V0.669863C4.333 0.510399 4.26695 0.319213 4.13467 0.191674Z" fill="#AFB3C8"/>
</svg>