<svg width="5" height="8" viewBox="0 0 5 8" fill="none" xmlns="http://www.w3.org/2000/svg">
<path d="M4.13491 0.191186C4.00272 0.0637749 3.83736 0 3.67202 0C3.60597 0 3.53983 0.0318821 3.47373 0.0318821H3.44064C3.34149 0.0955715 3.2754 0.159464 3.20925 0.223154L0.531601 2.80474C0.267136 3.05969 0.267136 3.44227 0.531601 3.66538C0.663834 3.79283 0.829125 3.85656 0.994361 3.85656C1.15969 3.85656 1.32501 3.79283 1.45716 3.66538L3.077 2.10357V7.39444C3.077 7.74505 3.3746 8 3.70517 8C4.03577 8 4.33325 7.71308 4.33325 7.39444V0.669375C4.33324 0.509911 4.26719 0.318725 4.13491 0.191186Z" fill="#AFB3C8"/>
</svg>
