<svg width="5" height="8" viewBox="0 0 5 8" fill="none" xmlns="http://www.w3.org/2000/svg">
<path d="M4.46768 0.191674C4.33549 0.0642632 4.17012 0.000488281 4.00479 0.000488281C3.93873 0.000488281 3.8726 0.0323703 3.80649 0.0323703H3.7734C3.67426 0.0960598 3.60816 0.159952 3.54201 0.223642L0.864365 2.80523C0.599899 3.06018 0.599899 3.44275 0.864365 3.66586C0.996598 3.79332 1.16189 3.85705 1.32712 3.85705C1.49245 3.85705 1.65777 3.79332 1.78993 3.66586L3.40976 2.10406V7.39493C3.40976 7.74554 3.70736 8.00049 4.03793 8.00049C4.36854 8.00049 4.66602 7.71357 4.66602 7.39493V0.669863C4.666 0.510399 4.59995 0.319213 4.46768 0.191674Z" fill="#249CFC"/>
</svg>
