<svg width="5" height="8" viewBox="0 0 5 8" fill="none" xmlns="http://www.w3.org/2000/svg">
<path d="M4.46817 0.191186C4.33598 0.0637749 4.17061 0 4.00527 0C3.93922 0 3.87308 0.0318821 3.80698 0.0318821H3.77389C3.67475 0.0955715 3.60865 0.159464 3.5425 0.223154L0.864853 2.80474C0.600387 3.05969 0.600387 3.44227 0.864853 3.66538C0.997086 3.79283 1.16238 3.85656 1.32761 3.85656C1.49294 3.85656 1.65826 3.79283 1.79042 3.66538L3.41025 2.10357V7.39444C3.41025 7.74505 3.70785 8 4.03842 8C4.36902 8 4.6665 7.71308 4.6665 7.39444V0.669375C4.66649 0.509911 4.60044 0.318725 4.46817 0.191186Z" fill="#249CFC"/>
</svg>
