<svg width="5" height="8" viewBox="0 0 5 8" fill="none" xmlns="http://www.w3.org/2000/svg">
<path d="M0.53159 7.80881C0.663779 7.93623 0.829147 8 0.994483 8C1.06053 8 1.12667 7.96812 1.19278 7.96812H1.22587C1.32501 7.90443 1.3911 7.84054 1.45725 7.77685L4.1349 5.19526C4.39937 4.94031 4.39937 4.55773 4.1349 4.33462C4.00267 4.20717 3.83738 4.14344 3.67214 4.14344C3.50682 4.14344 3.34149 4.20717 3.20934 4.33462L1.58951 5.89643V0.605557C1.58951 0.254951 1.29191 0 0.961336 0C0.630732 0 0.333252 0.286918 0.333252 0.605557V7.33062C0.333263 7.49009 0.399313 7.68127 0.53159 7.80881Z" fill="#AFB3C8"/>
</svg>
