<svg width="5" height="8" viewBox="0 0 5 8" fill="none" xmlns="http://www.w3.org/2000/svg">
<path d="M0.531346 7.8093C0.663535 7.93671 0.828903 8.00049 0.994238 8.00049C1.06029 8.00049 1.12643 7.96861 1.19253 7.96861H1.22562C1.32477 7.90492 1.39086 7.84102 1.45701 7.77733L4.13466 5.19575C4.39912 4.9408 4.39912 4.55822 4.13466 4.33511C4.00243 4.20766 3.83713 4.14393 3.6719 4.14393C3.50657 4.14393 3.34125 4.20766 3.20909 4.33511L1.58926 5.89692V0.606046C1.58926 0.255439 1.29166 0.000488281 0.961092 0.000488281C0.630487 0.000488281 0.333008 0.287406 0.333008 0.606046V7.33111C0.333019 7.49058 0.399069 7.68176 0.531346 7.8093Z" fill="#AFB3C8"/>
</svg>
