<svg width="5" height="8" viewBox="0 0 5 8" fill="none" xmlns="http://www.w3.org/2000/svg">
<path d="M0.864842 7.80881C0.997031 7.93623 1.1624 8 1.32773 8C1.39378 8 1.45992 7.96812 1.52603 7.96812H1.55912C1.65826 7.90443 1.72436 7.84054 1.79051 7.77685L4.46815 5.19526C4.73262 4.94031 4.73262 4.55773 4.46815 4.33462C4.33592 4.20717 4.17063 4.14344 4.00539 4.14344C3.84007 4.14344 3.67475 4.20717 3.54259 4.33462L1.92276 5.89643V0.605557C1.92276 0.254951 1.62516 0 1.29459 0C0.963984 0 0.666504 0.286918 0.666504 0.605557V7.33062C0.666515 7.49009 0.732565 7.68127 0.864842 7.80881Z" fill="#3F5075"/>
</svg>
