<?xml version="1.0" encoding="UTF-8"?>
<svg width="12px" height="12px" viewBox="0 0 12 12" version="1.1" xmlns="http://www.w3.org/2000/svg" xmlns:xlink="http://www.w3.org/1999/xlink">
    <title>编组 113</title>
    <g id="页面-1" stroke="none" stroke-width="1" fill="none" fill-rule="evenodd">
        <g id="滚球-注单" transform="translate(-856.000000, -272.000000)">
            <g id="编组-34备份-4" transform="translate(234.000000, 229.000000)">
                <g id="编组-30备份-6" transform="translate(558.000000, 32.000000)">
                    <g id="编组-113" transform="translate(64.000000, 11.000000)">
                        <rect id="矩形" x="0" y="0" width="12" height="12"></rect>
                        <path d="M6,8.8817842e-16 C7.65685425,8.8817842e-16 9,1.34314575 9,3 L9,4.6 L10.1961161,4.83922323 C10.6635403,4.93270807 11,5.34312288 11,5.8198039 L11,10.2964321 C11,10.7731132 10.6635403,11.183528 10.1961161,11.2770128 L7.17669681,11.8808967 C6.39992384,12.0362513 5.60007616,12.0362513 4.82330319,11.8808967 L1.80388386,11.2770128 C1.33645967,11.183528 1,10.7731132 1,10.2964321 L1,5.8198039 C1,5.34312288 1.33645967,4.93270807 1.80388386,4.83922323 L3,4.6 L3,3 C3,1.34314575 4.34314575,8.8817842e-16 6,8.8817842e-16 Z M5.00544231,5.21705811 L2,5.8198039 L2,10.1801961 L5.01941932,10.78408 C5.57425716,10.8950475 6.14322237,10.9109 6.7020966,10.8316375 L6.98058068,10.78408 L10,10.1801961 L10,5.8198039 L6.99455769,5.21705811 C6.33490831,5.12237419 5.66509169,5.12237419 5.00544231,5.21705811 Z M6,6.5 C6.55228475,6.5 7,6.94771525 7,7.5 L7,8.5 C7,9.05228475 6.55228475,9.5 6,9.5 C5.44771525,9.5 5,9.05228475 5,8.5 L5,7.5 C5,6.94771525 5.44771525,6.5 6,6.5 Z M6,1 C4.9456382,1 4.08183488,1.81587779 4.00548574,2.85073766 L4,3 L4,4.39 L4.39089144,4.30954278 C4.54685328,4.27751835 4.70353214,4.25019841 4.86071736,4.22758296 L4.82330319,4.23533936 C5.58777282,4.08244544 6.37459199,4.08002374 7.13976961,4.22807428 C7.17757989,4.23309308 7.21584708,4.23888247 7.25408116,4.24495113 L7.60910856,4.30954278 L8,4.39 L8,3 C8,1.9456382 7.18412221,1.08183488 6.14926234,1.00548574 L6,1 Z" id="形状结合" fill="#A5AEC8" fill-rule="nonzero"></path>
                    </g>
                </g>
            </g>
        </g>
    </g>
</svg>