<?xml version="1.0" encoding="UTF-8"?>
<svg width="20px" height="14px" viewBox="0 0 20 14" version="1.1" xmlns="http://www.w3.org/2000/svg" xmlns:xlink="http://www.w3.org/1999/xlink">
    <title>视频01</title>
    <g id="页面-1" stroke="none" stroke-width="1" fill="none" fill-rule="evenodd">
        <g id="Y0蓝白版备份-3" transform="translate(-1282.000000, -502.000000)" fill="#A5AEC8" fill-rule="nonzero">
            <g id="编组-62" transform="translate(234.000000, 273.000000)">
                <g id="编组-93" transform="translate(1038.000000, 0.000000)">
                    <g id="视频01" transform="translate(10.000000, 229.000100)">
                        <path d="M18,0 C19.1045,0 20,0.8955 20,2 L20,12 C20,13.1045 19.1045,14 18,14 L2,14 C0.8955,14 0,13.1045 0,12 L0,2 C0,0.8955 0.8955,0 2,0 L18,0 Z M16.5,11 L3.5,11 C3.2235,11 3,11.2235 3,11.5 C3,11.776 3.2235,12 3.5,12 L16.5,12 C16.7765,12 17,11.776 17,11.5 C17,11.2235 16.7765,11 16.5,11 Z M16.375,3 L14.4765,3 C14.0335,3 13.6745,3.359 13.6745,3.802 L13.6745,9.1975 C13.6745,9.6405 14.0335,10 14.4765,10 L16.3715,10 C16.717,10 16.9965,9.72 16.9965,9.375 C16.9965,9.03 16.717,8.75 16.3715,8.75 L14.8525,8.75 L14.8525,7.0045 L16.016,7.0045 C16.3615,7.0045 16.641,6.725 16.641,6.3795 C16.641,6.0345 16.3615,5.7545 16.016,5.7545 L14.8525,5.7545 L14.8525,4.25 L16.375,4.25 C16.72,4.25 17,3.97 17,3.625 C17,3.28 16.72,3 16.375,3 Z M12.525,3 L12.521,3 C12.239,3 11.9965,3.1995 11.9425,3.476 L11.0285,8.12 L10.9935,8.3555 L10.9725,8.3555 L10.938,8.101 L10.037,3.4775 C9.98944444,3.23083333 9.79176543,3.04540123 9.55036626,3.00723937 L9.458,3 C9.0775,3 8.7965,3.354 8.8835,3.7245 L10.207,9.38 C10.292,9.743 10.6155,10 10.989,10 C11.3615,10 11.6845,9.7435 11.77,9.381 L13.0995,3.725 C13.1865,3.3545 12.9055,3 12.525,3 Z M7.64845,3 C7.32445,3 7.06095,3.263 7.06095,3.5875 L7.06095,9.4125 C7.06095,9.737 7.32445,10 7.64845,10 C7.97295,10 8.23595,9.737 8.23595,9.4125 L8.23595,3.5875 C8.23595,3.29545 8.02292,3.053215 7.7437535,3.0076885 L7.64845,3 Z M3.58935,3 C3.26385,3 2.99985,3.2635 2.99985,3.589 L2.99985,9.201 C2.99985,9.6425 3.35735,10 3.79885,10 L5.76785,10 C6.09335,10 6.35685,9.736 6.35685,9.4105 L6.35685,9.339 C6.35685,9.0135 6.09335,8.75 5.76785,8.75 L4.57835,8.75 C4.35735,8.75 4.17835,8.571 4.17835,8.35 L4.17835,3.589 C4.17835,3.29605 3.96451,3.05332 3.684817,3.0077035 L3.58935,3 Z" id="形状结合"></path>
                    </g>
                </g>
            </g>
        </g>
    </g>
</svg>