<?xml version="1.0" encoding="UTF-8"?>
<svg width="20px" height="20px" viewBox="0 0 20 20" version="1.1" xmlns="http://www.w3.org/2000/svg" xmlns:xlink="http://www.w3.org/1999/xlink">
    <title>黄色注单</title>
    <g id="页面-1" stroke="none" stroke-width="1" fill="none" fill-rule="evenodd">
        <g id="画板" transform="translate(-329.000000, -255.000000)">
            <g id="黄色注单" transform="translate(329.000000, 255.000000)">
                <rect id="矩形" x="0" y="0" width="20" height="20"></rect>
                <g id="编组-15" transform="translate(1.800000, 0.000000)">
                    <path d="M9.54545455,7.27272727 C9.79649307,7.27272727 10,7.4965849 10,7.77272727 C10,8.01818716 9.8392044,8.22233564 9.62715967,8.2646716 L9.54545455,8.27272727 L3.18181818,8.27272727 C2.93077966,8.27272727 2.72727273,8.04886965 2.72727273,7.77272727 C2.72727273,7.52726738 2.88806833,7.3231189 3.10011306,7.28078294 L3.18181818,7.27272727 L9.54545455,7.27272727 Z" id="直线-7备份-6" fill="#6C6C6C" fill-rule="nonzero"></path>
                    <path d="M13.1404959,10.9090909 C13.3915344,10.9090909 13.5950413,11.1329485 13.5950413,11.4090909 C13.5950413,11.6545508 13.4342457,11.8586993 13.222201,11.9010352 L13.1404959,11.9090909 L3.2231405,11.9090909 C2.97210197,11.9090909 2.76859504,11.6852333 2.76859504,11.4090909 C2.76859504,11.163631 2.92939064,10.9594825 3.14143538,10.9171466 L3.2231405,10.9090909 L13.1404959,10.9090909 Z" id="直线-7备份-7" fill="#FF9124"></path>
                    <path d="M13.1404959,14.5454545 C13.3915344,14.5454545 13.5950413,14.7693122 13.5950413,15.0454545 C13.5950413,15.2909144 13.4342457,15.4950629 13.222201,15.5373989 L13.1404959,15.5454545 L3.2231405,15.5454545 C2.97210197,15.5454545 2.76859504,15.3215969 2.76859504,15.0454545 C2.76859504,14.7999947 2.92939064,14.5958462 3.14143538,14.5535102 L3.2231405,14.5454545 L13.1404959,14.5454545 Z" id="直线-7备份-8" fill="#6C6C6C" fill-rule="nonzero"></path>
                    <path d="M4.39755351,1.81818182 L4.39755351,2.72727273 L2.38636364,2.72727273 C1.61019175,2.72727273 0.982431518,3.27752173 0.915075974,3.96773697 L0.909090909,4.09090909 L0.909090909,17.7272727 C0.909090909,18.4325349 1.49373048,19.0219652 2.25101659,19.0852807 L2.38636364,19.0909091 L13.9772727,19.0909091 C14.7534446,19.0909091 15.3812048,18.5406601 15.4485604,17.8504448 L15.4545455,17.7272727 L15.4545455,4.09090909 C15.4545455,3.3856469 14.8699059,2.79621666 14.1126198,2.73290115 L13.9772727,2.72727273 L12.0698307,2.72727273 L12.0698307,1.81818182 L13.9772727,1.81818182 C15.2388096,1.81818182 16.2806414,2.75306283 16.3589161,3.94649897 L16.3636364,4.09090909 L16.3636364,17.7272727 C16.3636364,18.9403112 15.3703253,19.9218475 14.127555,19.9955559 L13.9772727,20 L2.38636364,20 C1.12482673,20 0.0829950094,19.065119 0.00472028662,17.8716828 L0,17.7272727 L0,4.09090909 C0,2.87787065 0.99331107,1.89633432 2.2360814,1.82262596 L2.38636364,1.81818182 L4.39755351,1.81818182 Z" id="路径" fill="#6C6C6C" fill-rule="nonzero"></path>
                    <path d="M11.3636364,0 L5,0 C4.24688443,0 3.63636364,0.610520796 3.63636364,1.36363636 L3.63636364,3.18181818 C3.63636364,3.93493375 4.24688443,4.54545455 5,4.54545455 L11.3636364,4.54545455 C12.1167519,4.54545455 12.7272727,3.93493375 12.7272727,3.18181818 L12.7272727,1.36363636 C12.7272727,0.610520796 12.1167519,0 11.3636364,0 Z M5,0.909090909 L11.3636364,0.909090909 C11.6146749,0.909090909 11.8181818,1.11259784 11.8181818,1.36363636 L11.8181818,3.18181818 C11.8181818,3.4328567 11.6146749,3.63636364 11.3636364,3.63636364 L5,3.63636364 C4.74896148,3.63636364 4.54545455,3.4328567 4.54545455,3.18181818 L4.54545455,1.36363636 C4.54545455,1.11259784 4.74896148,0.909090909 5,0.909090909 Z" id="矩形备份-7" fill="#6C6C6C" fill-rule="nonzero"></path>
                </g>
            </g>
        </g>
    </g>
</svg>