<?xml version="1.0" encoding="UTF-8"?>
<svg width="12px" height="8px" viewBox="0 0 12 8" version="1.1" xmlns="http://www.w3.org/2000/svg" xmlns:xlink="http://www.w3.org/1999/xlink">
    <title>晒单收起</title>
    <g id="页面-1" stroke="none" stroke-width="1" fill="none" fill-rule="evenodd">
        <g id="画板" transform="translate(-159.000000, -402.000000)" fill="#999999" fill-rule="nonzero">
            <path d="M166.124833,406.167946 L169.219592,409.254324 C169.621298,409.654942 170.27171,409.65406 170.672328,409.252354 C170.684391,409.240258 170.696151,409.227863 170.707597,409.21518 C171.112843,408.766116 171.094752,408.078156 170.666462,407.651012 L165.000299,402 L165.000299,402 L159.333563,407.650794 C158.90519,408.077962 158.88715,408.766041 159.292553,409.215068 C159.672833,409.63627 160.322563,409.669443 160.743765,409.289162 C160.756438,409.277721 160.768823,409.265966 160.78091,409.253907 L163.874079,406.167946 L163.874079,406.167946 L163.912705,406.142813 C164.587503,405.703717 165.460186,405.713633 166.124833,406.167946 L166.124833,406.167946 L166.124833,406.167946 Z" id="晒单收起" transform="translate(165.000000, 405.777106) scale(1, -1) translate(-165.000000, -405.777106) "></path>
        </g>
    </g>
</svg>