<?xml version="1.0" encoding="UTF-8"?>
<svg width="14px" height="14px" viewBox="0 0 14 14" version="1.1" xmlns="http://www.w3.org/2000/svg" xmlns:xlink="http://www.w3.org/1999/xlink">
    <title>黄白禁言提示</title>
    <g id="页面-1" stroke="none" stroke-width="1" fill="none" fill-rule="evenodd">
        <g id="画板" transform="translate(-375.000000, -258.000000)" fill="#FF9124" fill-rule="nonzero">
            <path d="M375,265 C375,268.865993 378.134007,272 382,272 C385.865993,272 389,268.865993 389,265 C389,261.134007 385.865993,258 382,258 C378.134007,258 375,261.134007 375,265 Z M383.309,261.610838 C383.309208,262.017227 383.092593,262.392858 382.740753,262.596232 C382.388913,262.799607 381.955301,262.799828 381.603253,262.596813 C381.251206,262.393798 381.034208,262.01839 381.034,261.612 C381.033679,260.983776 381.542695,260.47424 382.170919,260.473919 C382.799143,260.473598 383.308679,260.982614 383.309,261.610838 L383.309,261.610838 Z M380.384162,269.0635 L380.384162,268.564162 L380.861324,268.388 C381.128489,268.289323 381.305887,268.034644 381.305838,267.749838 L381.305838,265.0595 C381.306086,264.774908 381.128536,264.520467 380.861338,264.4225 L380.384162,264.246338 L380.384162,263.7365 L383.271662,263.7365 L383.271662,267.749838 C383.271662,268.0345 383.449,268.29 383.717338,268.388 L384.193338,268.563 L384.193338,269.0635 L380.384162,269.0635 L380.384162,269.0635 Z" id="黄白禁言提示"></path>
        </g>
    </g>
</svg>