<?xml version="1.0" encoding="UTF-8"?>
<svg width="20px" height="20px" viewBox="0 0 20 20" version="1.1" xmlns="http://www.w3.org/2000/svg" xmlns:xlink="http://www.w3.org/1999/xlink">
    <title>黄色晒单</title>
    <g id="页面-1" stroke="none" stroke-width="1" fill="none" fill-rule="evenodd">
        <g id="画板" transform="translate(-278.000000, -255.000000)">
            <g id="黄色晒单" transform="translate(278.000000, 255.000000)">
                <path d="M3.74882354,13.5294118 C4.19764705,13.5294118 4.53647059,13.8764706 4.53647059,14.3364706 L4.53647059,14.3364706 L4.53647059,14.7058824 L4.63176471,14.7058824 C4.79941176,14.7058824 5.03941176,14.6123529 5.31823529,14.5035294 C5.75823529,14.3311765 6.30647059,14.1176471 6.96294117,14.1176471 L6.96294117,14.1176471 L7.35176471,14.1176471 C7.71411766,14.1176471 8.13705883,14.2658824 8.58529412,14.4229412 C8.98411766,14.5617647 9.39529412,14.7058824 9.68294117,14.7058824 L9.68294117,14.7058824 L11.2476471,14.7058824 C12.2411765,14.7058824 12.8552941,15.2011765 12.9182353,16.0382353 L12.9182353,16.0382353 L16.4941177,13.9335294 C16.6552941,13.8323529 16.8294118,13.7682353 17.0070588,13.7464706 C17.5229412,13.6594118 18.0523529,13.9082353 18.3423529,14.3823529 L18.3423529,14.3823529 L18.4623529,14.5876471 C18.8435294,15.2211765 18.6470588,16.0817647 18.03,16.4635294 L18.03,16.4635294 L13.72,19.2017647 C13.6282353,19.2494118 13.5511765,19.2788235 13.4694118,19.3011765 C13.3247059,19.3735294 13.1452941,19.4117647 12.9464706,19.4117647 L12.9464706,19.4117647 L4.49705883,19.4117647 C4.39647059,19.7511765 4.10117646,20 3.74882354,20 L3.74882354,20 L1.81235295,20 C1.37705883,20 1.01,19.6170588 1.01,19.1635294 L1.01,19.1635294 L1.01,14.3364706 C1.01,13.8841177 1.36294117,13.5294118 1.81235295,13.5294118 L1.81235295,13.5294118 Z M3.19294117,14.7058824 L2.43882354,14.7058824 C2.31411766,14.7058824 2.22647059,14.7958824 2.22647059,14.9247059 L2.22647059,14.9247059 L2.22647059,18.5752941 C2.22647059,18.7029412 2.33,18.8235294 2.43882354,18.8235294 L2.43882354,18.8235294 L3.19294117,18.8235294 C3.30882354,18.8235294 3.39058824,18.6923529 3.39058824,18.5752941 L3.39058824,18.5752941 L3.39058824,14.9247059 C3.39058824,14.79 3.31470588,14.7058824 3.19294117,14.7058824 L3.19294117,14.7058824 Z M17.0884651,14.9089557 L16.9858823,14.9176471 C16.8817647,14.9311765 16.7911765,14.9658824 16.6958823,15.0258824 L16.6958823,15.0258824 L12.7882353,17.3494118 C12.4294118,17.5817647 11.2441177,17.6476471 11.2,17.6476471 L11.2,17.6476471 L10.9547059,17.6476471 C10.6317647,17.6476471 10.6341177,17.0594118 10.9558823,17.0594118 L10.9558823,17.0594118 L11.2035294,17.0594118 C11.6976471,17.0588235 12.1429412,16.7923529 12.1429412,16.4635294 C12.1429412,15.7811765 11.9152941,15.8823529 11.2,15.8823529 L9.65058824,15.8823529 C9.26705883,15.8823529 8.81176471,15.7217647 8.37176471,15.5658824 C7.99352941,15.4323529 7.60176471,15.2941177 7.34235295,15.2941177 L7.34235295,15.2941177 L6.95764705,15.2941177 C6.41764705,15.2941177 5.95058824,15.4782353 5.53941176,15.64 C5.20941176,15.77 4.92411766,15.8823529 4.64882354,15.8823529 L4.64882354,15.8823529 L4.55470588,15.8823529 L4.55470588,18.2352941 L12.8658823,18.2352941 C12.9941177,18.2352941 13.0894118,18.2158824 13.15,18.1811765 L13.15,18.1811765 L13.2264706,18.1505882 C13.2788235,18.1382353 13.3223529,18.1223529 13.3617647,18.1023529 L13.3617647,18.1023529 L17.29,15.6782353 C17.29,15.6782353 17.6311765,15.3858824 17.4158823,15.0258824 C17.4158823,15.0258824 17.2788235,14.8711765 16.9858823,14.9176471 Z" id="形状结合" fill="#FF9124" fill-rule="nonzero"></path>
                <path d="M13.8770588,2.35294117 C13.8770588,1.05588236 12.8352941,0 11.5511765,0 L8.04823529,0 C6.76352941,0 5.72235295,1.05352941 5.72235295,2.35294117 L5.72235295,2.94117648 C5.72235295,3.26588236 5.98117646,3.52941178 6.30470588,3.52941178 C6.62647059,3.52941178 6.88705883,3.26823529 6.88705883,2.94117648 L6.88705883,2.35294117 C6.88705883,1.70235295 7.40764705,1.17647059 8.04823529,1.17647059 L11.5511765,1.17647059 C12.1905882,1.17647059 12.7117647,1.70411766 12.7117647,2.35294117 L12.7117647,2.94117648 C12.7117647,3.26588236 12.9705882,3.52941178 13.2941177,3.52941178 C13.6158823,3.52941178 13.8770588,3.26823529 13.8770588,2.94117648 L13.8770588,2.35294117 Z" id="路径" fill="#6C6C6C" fill-rule="nonzero"></path>
                <path d="M17.4452941,4.70411766 C17.4452941,4.05588236 16.9182353,3.52941178 16.2682353,3.52941178 L15.6805882,3.52941178 C15.3558823,3.52941178 15.0923529,3.26588236 15.0923529,2.94117648 C15.0923529,2.61647059 15.3558823,2.35294117 15.6805882,2.35294117 L16.2688235,2.35294117 C17.5682353,2.35294117 18.6217647,3.40647059 18.6217647,4.70529412 L18.6217647,11.7652941 C18.6217647,12.09 18.3605882,12.3529412 18.0335294,12.3529412 C17.7088235,12.3529412 17.4452941,12.09 17.4452941,11.7652941 L17.4452941,4.70411766 Z" id="路径" fill="#6C6C6C" fill-rule="nonzero"></path>
                <path d="M13.8770588,4.70588236 L5.72235295,4.70588236 C5.40058824,4.70588236 5.14,4.96941178 5.14,5.29411766 C5.14,5.61882354 5.40058824,5.88235295 5.72235295,5.88235295 L13.8770588,5.88235295 C14.1982353,5.88235295 14.4594118,5.61882354 14.4594118,5.29411766 C14.4594118,4.96941178 14.1982353,4.70588236 13.8770588,4.70588236 L13.8770588,4.70588236 Z" id="路径" fill="#6C6C6C" fill-rule="nonzero"></path>
                <path d="M13.8770588,7.64705883 L5.72235295,7.64705883 C5.40058824,7.64705883 5.14,7.91058824 5.14,8.23529412 C5.14,8.56 5.40058824,8.82352941 5.72235295,8.82352941 L13.8770588,8.82352941 C14.1982353,8.82352941 14.4594118,8.56 14.4594118,8.23529412 C14.4594118,7.91058824 14.1982353,7.64705883 13.8770588,7.64705883 L13.8770588,7.64705883 Z" id="路径" fill="#FF9124" fill-rule="nonzero"></path>
                <path d="M13.8770588,10.5882353 L5.72235295,10.5882353 C5.40058824,10.5882353 5.14,10.8517647 5.14,11.1764706 C5.14,11.5011765 5.40058824,11.7647059 5.72235295,11.7647059 L13.8770588,11.7647059 C14.1982353,11.7647059 14.4594118,11.5011765 14.4594118,11.1764706 C14.4594118,10.8517647 14.1982353,10.5882353 13.8770588,10.5882353 L13.8770588,10.5882353 Z" id="路径" fill="#6C6C6C" fill-rule="nonzero"></path>
                <path d="M2.17647059,4.11941178 C2.17647059,3.79352941 2.43705883,3.52941178 2.76411766,3.52941178 L3.94117646,3.52941178 C4.26647059,3.52941178 4.52941176,3.26588236 4.52941176,2.94117648 C4.52941176,2.61647059 4.26647059,2.35294117 3.94117646,2.35294117 L3.35294117,2.35294117 C2.05352941,2.35294117 1,3.40411766 1,4.70529412 L1,11.7652941 C1,12.09 1.26117646,12.3529412 1.58823529,12.3529412 C1.91352941,12.3529412 2.17647059,12.0882353 2.17647059,11.7605882 L2.17647059,4.11941178 Z" id="路径" fill="#6C6C6C" fill-rule="nonzero"></path>
                <rect id="矩形" x="0" y="0" width="20" height="20"></rect>
            </g>
        </g>
    </g>
</svg>