<svg width="11" height="11" viewBox="0 0 11 11" fill="none" xmlns="http://www.w3.org/2000/svg">
<path d="M9.54386 1.04376C9.07523 0.575128 8.31543 0.575129 7.8468 1.04376L5.19523 3.69533L2.35137 0.851472C1.88274 0.382843 1.12294 0.382843 0.654311 0.851472C0.185682 1.3201 0.185682 2.0799 0.654311 2.54853L3.49817 5.39239L0.351472 8.53909C-0.117157 9.00772 -0.117157 9.76752 0.351472 10.2361C0.820101 10.7048 1.5799 10.7048 2.04853 10.2361L5.19523 7.08945L8.14964 10.0439C8.61827 10.5125 9.37807 10.5125 9.8467 10.0439C10.3153 9.57523 10.3153 8.81543 9.8467 8.3468L6.89228 5.39239L9.54386 2.74081C10.0125 2.27218 10.0125 1.51239 9.54386 1.04376Z" fill="#F53F3F"/>
</svg>
