<svg width="40" height="42" viewBox="0 0 40 42" fill="none" xmlns="http://www.w3.org/2000/svg">
<path d="M19.9053 38.4473C29.1689 38.4473 36.8389 30.7607 36.8389 21.5137C36.8389 12.25 29.1523 4.58008 19.8887 4.58008C10.6416 4.58008 2.97168 12.25 2.97168 21.5137C2.97168 30.7607 10.6582 38.4473 19.9053 38.4473ZM19.9053 35.625C12.0693 35.625 5.81055 29.3496 5.81055 21.5137C5.81055 13.6777 12.0527 7.40234 19.8887 7.40234C27.7246 7.40234 34.0166 13.6777 34.0166 21.5137C34.0166 29.3496 27.7412 35.625 19.9053 35.625Z" fill="#F53F3F"/>
<path d="M24.2104 25.8501L19.9369 21.5766M15.6633 17.303L19.9369 21.5766M19.9369 21.5766L15.7262 25.7872M19.9369 21.5766L24.2733 17.2401" stroke="#F53F3F" stroke-width="3" stroke-linecap="round"/>
</svg>
