<svg width="41" height="41" viewBox="0 0 41 41" fill="none" xmlns="http://www.w3.org/2000/svg">
<path d="M22.3848 38.8709C22.2367 39.3524 21.7181 40.5005 20.4959 40.5005C19.0885 40.5005 18.607 38.982 18.57 38.9079L18.533 38.7598C18.533 38.7598 19.7552 38.8709 20.3848 38.8709C21.0515 38.8709 22.1996 38.7968 22.3478 38.7598L22.3848 38.8709Z" fill="black"/>
<path d="M26.0514 38.1289L26.3477 38.1659C26.0143 39.0548 25.3847 40.0548 24.1995 40.0548C23.0143 40.0548 22.4588 39.3882 22.1995 38.9067L21.9773 38.7956C21.9773 38.7956 24.0143 38.7585 26.0514 38.1289Z" fill="black"/>
<path d="M14.9772 38.1289L14.6809 38.1659C15.0142 39.0548 15.6439 40.0548 16.8661 40.0548C18.0513 40.0548 18.6809 39.3511 18.9402 38.9067L19.0883 38.7956C19.0513 38.7956 17.0142 38.7585 14.9772 38.1289Z" fill="black"/>
<path d="M21.4589 38.9823C21.2737 39.2416 21.1255 39.2416 20.9033 39.2416C20.7922 39.2416 20.607 39.3527 20.607 39.5009C20.607 39.649 20.7181 39.7601 20.9033 39.7601C21.3107 39.7601 21.6441 39.1675 21.7181 38.9453C21.7181 38.9453 21.9774 38.9453 22.0515 38.9453C22.0515 38.9453 21.607 40.2416 20.4959 40.2416C19.3478 40.2416 18.9033 38.9453 18.9033 38.9453C18.9033 38.9453 19.8663 39.0194 20.4218 39.0194C20.9404 38.9823 21.3107 38.9823 21.4589 38.9823Z" fill="url(#paint0_radial_1698_78628)"/>
<path d="M15.1255 38.3887C15.8662 38.5739 16.3847 38.759 17.644 38.9072C17.644 38.9072 17.607 39.0183 17.3477 39.0183C17.2366 39.0183 17.2366 38.9813 17.1996 38.9813C17.1255 38.9813 17.0144 39.0553 17.0144 39.1664C17.0144 39.2776 17.0885 39.3887 17.3847 39.3887C17.644 39.3887 17.9773 39.1664 18.1625 38.9442C18.1625 38.9442 18.3107 38.9813 18.4959 38.9813C18.4959 38.9813 17.9773 39.722 16.9033 39.722C15.7181 39.759 15.3107 38.722 15.1255 38.3887Z" fill="url(#paint1_radial_1698_78628)"/>
<path d="M20.3846 32.2772C24.3476 32.2772 28.755 29.8328 31.8291 26.3142C32.1624 25.9439 32.718 25.2031 34.0513 25.2031C35.3846 25.2031 37.1624 26.4253 36.9772 28.6476C36.8291 30.2772 34.4958 33.9439 30.5328 36.1661C26.5698 38.4254 22.9032 38.9068 20.3846 38.9068C17.8291 38.9068 14.1995 38.4254 10.2365 36.1661C6.27353 33.9068 3.9402 30.2402 3.79205 28.6476C3.56983 26.4253 5.38464 25.2031 6.71798 25.2031C8.05131 25.2031 8.6439 25.9068 8.97724 26.3142C12.0143 29.8328 16.4217 32.2772 20.3846 32.2772Z" fill="#FFE500"/>
<path d="M20.3845 39.1286C16.7919 39.1286 13.3475 38.2027 10.1253 36.3508C6.16232 34.1286 3.75491 30.3879 3.60676 28.6842C3.49565 27.4249 3.97713 26.5731 4.42158 26.0916C5.01417 25.4249 5.90306 25.0175 6.71787 25.0175C8.08824 25.0175 8.71787 25.7212 9.05121 26.1286L9.08824 26.1657C12.2734 29.7953 16.6068 32.0545 20.3845 32.0545C24.1623 32.0545 28.4957 29.7953 31.6808 26.1657L31.7179 26.0916C32.0512 25.7212 32.6808 24.9805 34.0512 24.9805C34.866 24.9805 35.7549 25.3879 36.3475 26.0545C36.7919 26.536 37.2734 27.3879 37.1623 28.6471C37.0142 30.3508 34.5697 34.0916 30.6438 36.3138C27.4216 38.2027 23.9771 39.1286 20.3845 39.1286ZM6.71787 25.4249C6.01417 25.4249 5.23639 25.7953 4.71787 26.3508C4.31047 26.7953 3.86602 27.536 3.97713 28.6471C4.12528 30.2768 6.49565 33.8694 10.3105 36.0175C13.4957 37.8323 16.866 38.7212 20.3845 38.7212C23.9031 38.7212 27.2734 37.7953 30.4586 36.0175C34.3105 33.8694 36.6438 30.3138 36.829 28.6471C36.9401 27.499 36.4956 26.7582 36.0882 26.3508C35.5697 25.7582 34.7919 25.4249 34.0882 25.4249C32.9031 25.4249 32.3845 26.0175 32.0512 26.3879L32.0142 26.462C28.7549 30.1657 24.3105 32.462 20.4216 32.462C16.5327 32.462 12.0882 30.1657 8.82899 26.462L8.79195 26.4249C8.42158 26.0175 7.90306 25.4249 6.71787 25.4249Z" fill="black"/>
<path d="M20.3479 32.8339C16.3479 32.8339 11.8293 30.4635 8.45897 26.6858C8.12564 26.3154 7.6812 25.7969 6.64416 25.7969C6.05157 25.7969 5.34786 26.1302 4.90342 26.6117C4.57009 26.9821 4.16268 27.6487 4.27379 28.6487C4.42194 30.0191 6.57009 33.5747 10.459 35.7598C13.5701 37.5376 16.9034 38.4265 20.3479 38.4265C23.7923 38.4265 27.1256 37.5376 30.2368 35.7598C34.0886 33.5747 36.2738 30.0191 36.3849 28.6487C36.496 27.6487 36.0886 26.9821 35.7553 26.6117C35.3108 26.1302 34.6071 25.7969 34.0145 25.7969C32.9775 25.7969 32.533 26.2784 32.1997 26.6858C28.9034 30.4635 24.3479 32.8339 20.3479 32.8339Z" fill="#DB1F23"/>
<path d="M37.5329 12.9444V12.0185C37.8292 12.2407 38.3477 12.2407 38.6811 11.9074C38.8292 11.7593 38.9033 11.537 38.9033 11.2778C38.9033 11.0185 38.7551 10.7222 38.57 10.537C37.3848 9.38889 36.3477 8.27778 36.3477 8.27778C36.2366 8.09259 36.0885 7.98148 35.9774 7.94444C35.8292 7.87037 35.3477 7.64815 34.9403 8.24074C34.607 8.75926 34.644 9.5 34.7181 9.79629L35.7922 11.2778C36.1996 11.7222 37.2366 12.7222 37.5329 12.9444Z" fill="black"/>
<path d="M14.3107 3.35272C15.6811 2.90828 16.9403 2.50087 18.607 2.35272L18.8663 2.20457C17.9403 1.46383 16.9774 0.945312 16.0514 0.945312C15.4588 0.945312 14.2737 1.35272 14.0144 3.42679L14.3107 3.35272Z" fill="black"/>
<path d="M26.4589 3.35272C25.0885 2.90828 23.8663 2.53791 22.1626 2.35272L21.9033 2.20457C22.8292 1.46383 23.7922 0.945312 24.7181 0.945312C25.3107 0.945312 26.4959 1.35272 26.7552 3.42679L26.4589 3.35272Z" fill="black"/>
<path d="M18.8662 2.31481C19.5329 0.981482 20.1625 0.5 20.5329 0.5C20.9773 0.5 21.4958 1.2037 21.8662 2.09259L21.9403 2.27778L21.5699 2.24074C21.3477 2.2037 20.681 2.2037 20.4218 2.2037C20.1625 2.2037 19.607 2.2037 19.2736 2.24074L18.8662 2.31481Z" fill="black"/>
<path d="M13.4216 32.0935L12.4216 33.9083C12.1254 34.4639 11.8291 34.7972 11.3105 34.5009C10.792 34.2046 10.9402 33.7972 11.2365 33.2417L12.2365 31.4269L11.4216 30.9824L10.3846 32.8713C9.79202 33.9083 10.5328 34.575 11.1253 34.8713C11.7179 35.2046 12.6439 35.4639 13.1994 34.4269L14.2735 32.5009L13.4216 32.0935ZM26.2365 35.7972L25.9031 34.7602L26.9031 34.4269L26.755 34.0195L25.755 34.3528L25.4587 33.4639L26.4957 33.1306L26.3476 32.7232L24.4587 33.3158L25.4957 36.5009L27.5698 35.8343L27.4216 35.3898L26.2365 35.7972ZM28.3846 31.6491L27.2365 32.3158L28.9402 35.2417L30.0883 34.575C31.2735 33.9083 31.3846 32.8713 30.9031 32.0565C30.3105 31.0935 29.3846 31.0565 28.3846 31.6491ZM30.0883 32.538C30.5328 33.2787 30.4216 33.8343 29.755 34.2046L29.4587 34.3898L28.2365 32.2787L28.5698 32.0935C29.3476 31.6121 29.792 32.0195 30.0883 32.538ZM20.9772 33.9083L21.0513 34.3528L21.9772 34.2046L22.3846 37.0935L23.2735 36.9824L22.8661 34.0935L23.792 33.9824L23.7179 33.538L20.9772 33.9083ZM20.1624 33.9454L19.2735 33.9083L19.0883 37.2787L19.9772 37.3158L20.1624 33.9454ZM17.4957 33.538L16.8661 35.8343L15.7179 33.0565L15.0142 32.8713L14.1624 36.1306L14.9402 36.3528L15.5698 34.0195L16.755 36.7972L17.4587 36.9824L18.3105 33.7232L17.4957 33.538Z" fill="#FFE500"/>
<path d="M12.8662 12.3146V28.0553L20.3847 32.9072L27.9032 28.0553V12.3146C27.644 12.0924 27.1625 11.6479 26.7551 11.3887H13.9403C13.607 11.6479 12.9773 12.2035 12.8662 12.3146Z" fill="#FFE500"/>
<path d="M12.8662 12.3146V28.0553L20.3847 32.9072L27.9032 28.0553V12.3146C27.644 12.0924 27.1625 11.6479 26.7551 11.3887H13.9403C13.607 11.6479 12.9773 12.2035 12.8662 12.3146Z" fill="#FFE500"/>
<mask id="mask0_1698_78628" style="mask-type:alpha" maskUnits="userSpaceOnUse" x="12" y="11" width="16" height="22">
<path d="M12.866 12.3126V28.0534L20.3845 32.9052L27.903 28.0534V12.3126C27.6437 12.0904 27.1623 11.646 26.7549 11.3867H13.94C13.6067 11.646 12.9771 12.2015 12.866 12.3126Z" fill="#FFE500"/>
</mask>
<g mask="url(#mask0_1698_78628)">
<g filter="url(#filter0_f_1698_78628)">
<path fill-rule="evenodd" clip-rule="evenodd" d="M11.9839 5.93945H13.7476V27.6072L20.3842 31.8899L27.0209 27.6072V5.93945H28.7846V28.568L20.3842 33.989L11.9839 28.568V5.93945Z" fill="#B54005"/>
</g>
</g>
<path d="M13.459 11.9824H27.3479V15.7602H13.459V11.9824Z" fill="#DB1F23"/>
<path d="M20.3851 33.1661L12.6814 28.2031V12.2772L12.9036 12.0179C13.1629 11.7957 13.5703 11.4253 13.8295 11.2402L13.8666 11.2031H26.8295L26.8666 11.2402C27.1999 11.4624 27.6444 11.8328 27.9036 12.092L28.0888 12.2592V28.1661L20.3851 33.1661ZM13.0518 27.9809L20.3851 32.7216L27.7184 27.9809V12.4622L27.6444 12.3883C27.3851 12.1661 27.0147 11.8328 26.7184 11.6105H14.0147C13.7555 11.7957 13.3851 12.1291 13.1629 12.3142L13.0518 12.4253V27.9809Z" fill="black"/>
<path d="M23.4219 23.648V23.0554C23.4219 23.0554 23.2737 22.7962 22.8663 22.7962C22.4959 22.7962 22.2367 22.9073 22.2367 23.0184C22.2367 23.1665 22.607 23.648 23.4219 23.648ZM20.3848 18.4628L20.9774 17.4628L21.4219 18.4628H22.1626C21.7181 18.9073 21.533 19.5369 21.533 19.9813V20.4628C21.533 20.648 21.4219 20.9813 21.4219 20.9813C21.4219 20.9813 22.0885 21.4999 22.1626 21.5739C22.1996 21.611 22.2367 21.611 22.2367 21.7221C22.1996 21.8702 21.7552 22.0554 21.6811 22.0924C21.57 22.1665 21.57 22.2406 21.57 22.3147C21.607 22.3887 21.6811 22.4258 21.8663 22.3517C22.0515 22.3147 22.3848 22.0924 22.6811 21.9813C22.9774 21.8332 23.3848 21.8702 23.3848 21.8702V21.3147H22.2737V19.4999L22.0885 19.1665L22.57 18.2776L23.0885 19.1665L22.9033 19.4999V20.4628H23.4959V19.4999L23.3107 19.1665L23.7922 18.2776L24.2737 19.1665L24.0885 19.4999V20.4628H24.6811V19.4999L24.4589 19.1665L24.9774 18.2776L25.4589 19.1665L25.2737 19.4999V21.3147H24.1256V22.1665C24.3848 22.4258 24.6441 22.9443 24.6441 23.2776C24.6441 23.611 24.4219 23.7591 24.4219 23.7591C24.4959 24.0184 24.4959 24.1295 24.4589 24.3517C24.3848 24.5739 24.0885 24.9443 24.0885 24.9443V29.3147C24.0885 29.611 23.4219 29.5739 23.4219 29.3147V25.0184C23.0515 24.611 21.9774 24.2776 21.9774 24.2776C21.607 24.648 21.3478 25.3517 21.3478 25.3517C21.533 25.4628 21.7922 25.3517 21.8663 25.2406C21.9774 25.1295 22.1626 25.0924 22.2737 25.1665C22.3848 25.2406 22.4219 25.2776 22.3848 25.4258C22.3478 25.611 22.2737 25.8702 22.2737 26.0924C22.2737 26.2776 22.4959 26.2406 22.6811 26.2776C23.0144 26.3147 23.0885 26.685 23.0515 26.9073C23.0144 27.1295 22.9404 27.5739 22.9404 27.8702C22.9404 28.1665 22.9404 28.4258 22.9774 28.611C23.0144 28.7591 23.0515 28.9443 23.0515 29.1295C23.0515 29.3887 22.8663 29.4258 22.6811 29.2776C22.4959 29.0924 20.1256 26.5739 20.1256 26.5739C19.9774 27.0924 20.6441 27.9813 20.8293 28.2406C21.0515 28.4999 21.0144 28.7221 20.8293 28.9073C20.6441 29.0924 20.2737 29.2036 20.1996 29.3517C20.1256 29.5369 20.3848 30.0554 20.8663 30.685C21.3478 31.3147 20.3107 31.7591 19.6441 31.8702C19.0144 31.9813 19.0144 31.5369 19.0515 31.3147C19.0885 31.0924 19.0885 30.9443 19.0885 30.7221C19.0885 30.4999 18.8663 30.2036 18.607 29.8702C18.3478 29.4999 18.3478 29.2036 18.4589 28.3517C18.57 27.5369 18.533 26.9813 18.533 26.9813C18.533 26.9813 18.2367 26.9813 17.8293 26.9813C17.4219 26.9813 17.0885 26.7221 17.0515 25.7221C17.0144 24.7221 17.0144 22.3517 16.9404 22.0924C16.8663 21.8332 16.607 21.7962 16.4959 21.7591C16.3848 21.7221 16.3848 21.5739 16.4959 21.4999C16.7922 21.3517 17.1626 20.9813 17.0144 20.7591C16.8663 20.5369 16.3478 20.5739 16.0144 20.7591C15.6441 20.9443 15.2737 21.3147 15.1996 21.3887C15.1256 21.4999 15.0144 21.4999 15.0515 21.3887C15.0515 21.2776 14.9774 20.7221 14.9404 20.5369C14.9033 20.3517 14.7181 19.9813 14.6441 19.9073C14.57 19.7962 14.6441 19.7591 14.7552 19.7962C14.8293 19.8332 15.0515 19.9073 15.2737 19.9813C15.4589 20.0554 15.6811 19.9443 15.7552 19.7591C15.8663 19.5739 16.0515 19.1665 16.1256 18.9813C16.2367 18.7962 16.3848 18.8332 16.4959 18.8702C16.607 18.9073 16.7181 18.9813 16.8293 19.0184C16.9404 19.0554 17.0515 19.0554 17.0885 18.9813C17.1256 18.9443 17.1626 18.9073 17.2367 18.7591C17.3107 18.611 17.3848 18.685 17.3848 18.7591C17.7181 20.7591 18.607 20.8702 18.607 20.8702C18.4589 21.2036 18.1626 21.7591 18.0885 21.9073C18.0144 22.0184 17.9774 22.2036 17.9774 22.3517C17.9774 22.4999 18.0144 23.8332 18.1256 24.3517C18.2367 24.8332 18.533 24.648 18.607 24.4999C18.6811 24.3517 18.9774 23.7221 18.9774 23.7221C18.9774 23.7221 19.0515 23.5369 19.0515 23.4258C19.0515 23.2776 18.7922 22.9813 18.7552 22.8702C18.6811 22.7591 18.4959 22.5739 18.4959 22.0924C18.4959 21.611 18.9404 21.2776 19.0885 21.1665C19.2367 21.0554 19.2367 20.8702 19.2367 20.7591C19.1626 20.3887 18.7922 19.611 18.607 19.3147C18.4219 19.0184 18.0515 18.4628 18.0515 18.4628H18.8293L19.3107 17.4258L19.8663 18.4628H20.3848ZM20.2367 21.5739C20.4959 21.1665 20.607 20.7221 20.607 20.7221H19.8663C19.8663 20.7221 19.9774 21.1665 20.2367 21.5739ZM19.4959 19.4628C19.533 19.685 19.6811 19.7591 19.7922 19.685C19.9033 19.611 19.9033 19.4628 19.7922 19.3147C19.7182 19.1665 19.533 19.0184 19.4589 19.0554C19.4219 19.0924 19.4589 19.3517 19.4959 19.4628ZM20.9404 19.0554C20.9033 19.0184 20.7182 19.1665 20.607 19.3147C20.533 19.4628 20.4959 19.611 20.607 19.685C20.7182 19.7591 20.8663 19.648 20.9033 19.4628C20.9404 19.3517 20.9774 19.0924 20.9404 19.0554Z" fill="url(#paint2_linear_1698_78628)"/>
<path d="M13.459 16.2402V17.2032H27.3479V16.2402H26.3108V16.4254H14.459V16.2773H13.459V16.2402Z" fill="#DB1F23"/>
<path d="M15.8291 14.685L16.9032 14.9442L17.4958 13.3516V12.9442L15.8291 14.685ZM24.6069 15.6109V15.1294H23.6069V14.722H24.4217V12.9072H23.681L23.4217 12.3887L23.1625 12.9072H22.4217V14.722H23.2365V15.1294H21.2736V14.722H22.0884V12.9072H21.3477L21.0884 12.3887L20.8291 12.9072H20.0884V14.722H20.9032V15.1294H18.9032V14.722H19.718V12.9072H18.9773L18.718 12.3887L18.4588 12.9072H17.718V14.722H18.5328V15.1294H16.9402L15.3477 14.759L15.681 15.6109H24.6069Z" fill="#FFE500"/>
<path d="M14.3848 3.20327C15.7181 2.75883 16.7551 2.38845 18.3848 2.24031C17.607 1.72179 16.9403 1.27734 16.1625 1.27734C15.7551 1.27734 15.4218 1.42549 15.3107 1.72179C15.2366 1.98105 15.4588 2.09216 15.4959 2.09216C15.644 2.05512 15.6811 2.05512 15.6811 1.98105C15.644 1.90697 15.7181 1.72179 15.9774 1.72179C16.2366 1.72179 16.3477 1.98105 16.3477 2.1292C16.3477 2.27734 16.0885 2.57364 15.607 2.57364C15.1255 2.57364 14.8662 2.24031 14.9033 1.94401C14.644 2.27734 14.4959 2.64771 14.3848 3.20327Z" fill="url(#paint3_radial_1698_78628)"/>
<path d="M5.05154 11.2407L6.12561 9.75918C6.19969 9.49993 6.23673 8.75918 5.90339 8.20363C5.53302 7.61104 5.0145 7.83326 4.86636 7.90733C4.75524 7.94437 4.6071 8.05548 4.49598 8.24067C4.49598 8.24067 3.45895 9.38881 2.3108 10.537C2.16265 10.6851 1.97747 10.9814 1.94043 11.2777C1.94043 11.537 2.0145 11.7592 2.16265 11.9073C2.49599 12.2407 3.0145 12.2407 3.3108 12.0184L3.34784 12.9444C3.64413 12.7221 4.68117 11.7221 5.05154 11.2407Z" fill="black"/>
<path d="M20.3848 9.09021C26.607 9.09021 30.1256 14.905 30.9033 15.9421C32.2737 17.7569 33.9404 19.2384 35.9033 18.7569C38.7552 18.0161 38.607 13.7939 38.607 13.7939C37.9033 13.3124 36.7552 12.6828 34.607 9.64576C32.4959 6.6828 27.7922 2.27539 20.4219 2.27539C13.0515 2.27539 8.31074 6.6828 6.23666 9.64576C4.08852 12.6828 2.90333 13.3124 2.23666 13.7939C2.23666 13.7939 2.08852 18.0161 4.94037 18.7569C6.86629 19.2384 8.57 17.7569 9.94037 15.9421C10.6441 14.905 14.1996 9.09021 20.3848 9.09021Z" fill="#FFE500"/>
<path d="M3.60693 12.5718V11.8311C4.86619 10.683 5.45879 9.49777 5.45879 9.49777C5.45879 9.49777 4.9773 9.31258 4.79212 9.05333C4.68101 8.90518 4.64397 8.71999 4.68101 8.57184C4.71804 8.31258 4.90323 8.20147 4.9773 8.16444C5.12545 8.09036 5.38471 7.94221 5.68101 8.38666C6.01434 8.8311 5.90323 9.68295 5.86619 9.86814C5.86619 9.86814 5.2736 10.9052 3.60693 12.5718Z" fill="url(#paint4_radial_1698_78628)"/>
<path d="M35.1255 19.0158C33.6811 19.0158 32.2366 18.0158 30.7551 16.0158C30.6811 15.9417 30.607 15.7935 30.4959 15.6454C29.3848 14.0528 25.9773 9.23799 20.3848 9.23799C14.7922 9.23799 11.3848 14.0898 10.2736 15.6454C10.1625 15.7935 10.0885 15.9047 10.0144 15.9787C8.23661 18.3491 6.5329 19.3121 4.8292 18.8676C1.86624 18.1269 1.97735 13.9047 1.97735 13.7195V13.6454L2.05142 13.6084C2.1255 13.5713 2.19957 13.4973 2.31068 13.4232C2.97735 12.9417 4.1255 12.1639 6.01438 9.49725C7.27364 7.79355 11.9403 2.08984 20.3848 2.08984C28.8292 2.08984 33.4959 7.79355 34.7181 9.53429C36.607 12.201 37.7551 13.0158 38.4218 13.4602C38.4959 13.5343 38.5699 13.5713 38.644 13.6084L38.7181 13.6454V13.7195C38.7181 13.9047 38.8292 18.0898 35.8662 18.8676C35.6811 19.0158 35.3848 19.0158 35.1255 19.0158ZM20.3848 8.90466C26.1625 8.90466 29.644 13.8676 30.7922 15.4602C30.9033 15.6084 30.9773 15.7195 31.0514 15.7935C32.7181 18.0528 34.3107 18.9417 35.8292 18.5343C38.2736 17.9047 38.3848 14.4602 38.3848 13.8676C38.3477 13.8306 38.2736 13.7935 38.2366 13.7565C37.5329 13.275 36.3477 12.4602 34.4218 9.71947C33.2366 8.05281 28.644 2.46021 20.3848 2.46021C12.1255 2.46021 7.56994 8.05281 6.34772 9.75651C4.42179 12.4973 3.23661 13.3121 2.5329 13.7935C2.45883 13.8306 2.42179 13.8676 2.38475 13.9047C2.38475 14.4973 2.49587 17.9417 4.94031 18.5713C6.49587 18.9787 8.05142 18.0528 9.71809 15.8306C9.79216 15.7565 9.86624 15.6454 9.97735 15.4973C11.1255 13.8676 14.607 8.90466 20.3848 8.90466Z" fill="black"/>
<path d="M20.3848 8.53769C26.3848 8.53769 29.9403 13.6118 31.1996 15.4266C32.9033 17.6858 34.3477 18.5747 35.7181 18.2044C37.7181 17.6858 37.9715 14.9396 37.9715 14.0878V14.0539H37.9377C37.234 13.5724 36.0514 12.7599 34.0885 9.9451C32.9774 8.27843 28.4959 2.83398 20.3848 2.83398C12.3107 2.83398 7.8292 8.27843 6.64402 9.98213C4.68105 12.7599 3.45883 13.6118 2.79216 14.0562L2.75513 14.0932V14.1303C2.79216 14.9451 3.05142 17.7229 5.05142 18.2044C6.42179 18.5747 7.86624 17.6858 9.56994 15.4266C10.8662 13.6118 14.4218 8.53769 20.3848 8.53769Z" fill="#DB1F23"/>
<path d="M17.1626 4.31402C16.0514 4.53624 15.3477 5.35106 15.57 6.46217C15.7181 7.05476 16.2366 8.12883 17.9033 7.7955C18.3848 7.72143 18.607 7.53624 18.8663 7.27698L18.57 6.94365C18.4588 7.05476 18.2737 7.23995 17.9033 7.35106C17.0885 7.53624 16.607 6.86957 16.4959 6.31402C16.3107 5.46217 16.7922 4.90661 17.3477 4.7955C17.7551 4.72143 17.9774 4.83254 18.1255 4.86957L18.2366 4.42513C17.9774 4.27698 17.644 4.20291 17.1626 4.31402ZM26.3107 9.12883C26.9403 9.4992 27.607 9.42513 27.9403 8.90661C28.1626 8.53624 28.1626 8.23994 27.9033 7.68439C27.8292 7.53624 27.7181 7.42513 27.6811 7.27698C27.57 7.05476 27.4588 6.86958 27.5329 6.68439C27.644 6.4992 27.9403 6.46217 28.1626 6.61032C28.4218 6.75846 28.5329 7.01772 28.57 7.20291L28.9774 7.01772C28.8663 6.68439 28.6811 6.38809 28.2366 6.12883C27.5329 5.68439 26.9403 5.7955 26.6811 6.20291C26.4218 6.61032 26.4959 6.94365 26.6811 7.31402C26.6811 7.31402 26.7922 7.4992 26.8663 7.64735C27.0144 7.90661 27.2366 8.27698 27.0885 8.46217C26.9403 8.72143 26.644 8.7955 26.3848 8.61032C26.0514 8.38809 25.9403 8.12883 25.8663 7.90661L25.4218 8.0918C25.57 8.46217 25.8292 8.83254 26.3107 9.12883ZM21.5329 4.12883L21.4959 5.4992L20.1626 5.46217L20.1996 4.0918H19.3107L19.2366 7.46217L20.1255 7.4992L20.1626 5.94365L21.4959 5.98069L21.4589 7.53624H22.3477L22.4218 4.16587L21.5329 4.12883ZM34.1996 14.7955C34.1996 14.7955 34.7181 15.0548 35.2737 14.5362C35.7551 14.0918 35.607 13.5362 35.0885 12.9807L34.1996 11.9807L31.6811 14.2029L32.2737 14.8696L33.2737 13.9807L33.57 14.314L32.9403 15.7214L33.6811 16.314L34.1996 14.7955ZM34.644 13.1288C34.8663 13.3881 34.8663 13.6844 34.607 13.9436C34.3477 14.2029 34.0144 14.1288 33.7551 13.8325L33.607 13.6474L34.4589 12.8696L34.644 13.1288ZM30.7551 12.277L31.607 11.5733L32.2737 12.3881L32.607 12.0918L31.9403 11.277L32.644 10.6844L33.3477 11.4992L33.6811 11.2029L32.4218 9.68439L29.8292 11.8325L31.2366 13.4992L31.57 13.2029L30.7551 12.277ZM29.7922 7.23995L29.4959 7.57328L30.1996 8.20291L28.2366 10.3511L28.9033 10.9436L30.8663 8.75846L31.57 9.38809L31.8663 9.05476L29.7922 7.23995ZM24.0144 7.42513L24.3848 6.38809L25.3848 6.72143L25.5329 6.27698L24.5329 5.98069L24.8292 5.0918L25.8663 5.42513L26.0144 5.01772L24.1626 4.38809L23.0514 7.57328L25.0885 8.27698L25.2366 7.86957L24.0144 7.42513ZM13.3477 5.7955L14.607 7.7955L11.7922 6.75846L11.1996 7.16587L12.9774 10.0177L13.644 9.57328L12.3848 7.53624L15.2366 8.57328L15.8663 8.20291L14.0885 5.35106L13.3477 5.7955ZM9.42181 8.83254L8.82922 9.46217L10.4588 12.6844L10.8663 12.277L10.4218 11.4251L11.1996 10.5733L12.0885 10.9436L12.7551 10.2399L9.42181 8.83254ZM10.7922 10.3511L10.1996 10.9807L9.607 9.83254L10.7922 10.3511ZM7.53292 10.8696L6.90329 11.6103L8.08848 14.0177L5.56996 13.2029L5.0144 13.8325L7.607 15.9807L8.0144 15.4992L6.19959 13.9807L8.64403 14.7585L8.90329 14.4622L7.75515 12.1288L9.56996 13.6474L10.1255 12.9807L7.53292 10.8696Z" fill="#FFE500"/>
<path d="M4.97747 9.6488C4.79229 9.9451 4.38488 10.6488 3.27377 11.6858C3.08858 11.871 2.64414 11.9821 2.38488 11.7229C2.3108 11.6118 2.23673 11.4636 2.27377 11.2784C2.27377 11.0562 2.42192 10.834 2.53303 10.7229C2.75525 10.5377 3.68117 9.57473 4.34784 8.83398C4.34784 8.98213 4.49599 9.20435 4.49599 9.20435C4.57006 9.31547 4.68117 9.50065 4.97747 9.6488Z" fill="url(#paint5_linear_1698_78628)"/>
<path d="M20.3479 32.8339C16.3479 32.8339 11.8293 30.4635 8.45898 26.6858C8.12564 26.3154 7.6812 25.7969 6.64416 25.7969C6.05157 25.7969 5.34786 26.1302 4.90342 26.6117C4.57009 26.9821 4.16268 27.6487 4.27379 28.6487C4.42194 30.0191 6.57009 33.5747 10.459 35.7598C13.5701 37.5376 16.9034 38.4265 20.3479 38.4265" fill="url(#paint6_linear_1698_78628)"/>
<path d="M20.3477 32.8339C24.3477 32.8339 28.8662 30.4635 32.2365 26.6858C32.5699 26.3154 33.0143 25.7969 34.0514 25.7969C34.644 25.7969 35.3477 26.1302 35.7921 26.6117C36.1254 26.9821 36.5328 27.6487 36.4217 28.6487C36.2736 30.0191 34.1254 33.5747 30.2365 35.7598C27.1254 37.5376 23.7921 38.4265 20.3477 38.4265" fill="url(#paint7_linear_1698_78628)"/>
<path d="M31.2202 15.4399C32.9239 17.6992 34.3848 18.5732 35.7551 18.2029C37.7177 17.6396 37.9715 14.9492 37.9715 14.0863V14.0524H37.9376C37.2339 13.571 36.0766 12.7894 34.1136 9.97461" fill="url(#paint8_linear_1698_78628)"/>
<path d="M9.56994 15.4269C7.86624 17.6861 6.42179 18.575 5.05142 18.2046C3.05142 17.7232 2.79216 14.9454 2.75513 14.1306V14.0935H2.79216C3.49587 13.6121 4.68105 12.7972 6.64402 9.98242" fill="url(#paint9_linear_1698_78628)"/>
<path d="M26.3848 3.20327C25.0514 2.75883 24.0144 2.38845 22.3848 2.24031C23.1625 1.72179 23.8292 1.27734 24.607 1.27734C25.0144 1.27734 25.3477 1.42549 25.4588 1.72179C25.5329 1.98105 25.3107 2.09216 25.2737 2.09216C25.1996 2.05512 25.1255 2.05512 25.1625 1.98105C25.1996 1.90697 25.1255 1.72179 24.8662 1.72179C24.607 1.72179 24.4959 1.98105 24.4959 2.1292C24.4959 2.27734 24.7551 2.57364 25.2366 2.57364C25.7181 2.57364 25.9774 2.24031 25.9403 1.94401C26.1625 2.27734 26.3107 2.64771 26.3848 3.20327Z" fill="url(#paint10_radial_1698_78628)"/>
<path d="M20.4589 1.4634C20.4219 1.72266 20.1256 1.98192 19.8293 1.98192C19.533 1.98192 19.4589 1.94488 19.4589 1.94488C19.3849 1.98192 19.3478 2.01895 19.3108 2.09303C19.5701 2.09303 20.1997 2.05599 20.4589 2.05599C20.7182 2.05599 21.4219 2.09303 21.57 2.09303C21.3108 1.53747 20.8663 0.722656 20.533 0.722656H20.496C20.4219 0.722656 20.1626 0.944878 20.0145 1.1671C19.8293 1.4634 20.4589 1.4634 20.4589 1.4634Z" fill="url(#paint11_radial_1698_78628)"/>
<path d="M37.1994 12.5738V11.8331C35.9401 10.6849 35.3475 9.49972 35.3475 9.49972C35.3475 9.49972 35.829 9.31454 36.0142 9.05528C36.1253 8.90713 36.1623 8.72194 36.1253 8.5738C36.0882 8.31454 35.9031 8.20343 35.829 8.16639C35.6808 8.09232 35.4216 7.94417 35.1253 8.38861C34.7919 8.83306 34.9031 9.68491 34.9401 9.87009C34.9401 9.87009 35.5327 10.9071 37.1994 12.5738Z" fill="url(#paint12_radial_1698_78628)"/>
<path d="M35.7922 9.6488C35.9774 9.9451 36.3848 10.6488 37.4959 11.6858C37.6811 11.871 38.1256 11.9821 38.3848 11.7229C38.4959 11.6118 38.533 11.4636 38.533 11.2784C38.533 11.0562 38.3848 10.834 38.2737 10.7229C38.0515 10.5377 37.1256 9.57473 36.4589 8.83398C36.4589 8.98213 36.3108 9.20435 36.3108 9.20435C36.2367 9.31547 36.1256 9.50065 35.7922 9.6488Z" fill="url(#paint13_linear_1698_78628)"/>
<path d="M25.9033 38.3887C25.1626 38.5739 24.6441 38.759 23.3848 38.9072C23.3848 38.9072 23.4218 39.0183 23.6811 39.0183C23.7922 39.0183 23.7922 38.9813 23.8293 38.9813C23.9033 38.9813 24.0144 39.0553 24.0144 39.1664C24.0144 39.2776 23.9404 39.3887 23.6441 39.3887C23.3848 39.3887 23.0515 39.1664 22.8663 38.9442C22.8663 38.9442 22.7181 38.9813 22.533 38.9813C22.533 38.9813 23.0515 39.722 24.1256 39.722C25.3107 39.759 25.7552 38.722 25.9033 38.3887Z" fill="url(#paint14_radial_1698_78628)"/>
<path d="M0.82959 22.2433C0.82959 20.3544 2.38515 18.7988 4.27403 18.7988C6.16292 18.7988 7.71848 20.3544 7.71848 22.2433C7.71848 24.1322 6.16292 25.6877 4.27403 25.6877C2.38515 25.6877 0.82959 24.1322 0.82959 22.2433Z" fill="#FFE500"/>
<path d="M4.27392 25.8725C2.27392 25.8725 0.644287 24.2429 0.644287 22.2429C0.644287 20.2429 2.27392 18.6133 4.27392 18.6133C6.27392 18.6133 7.90355 20.2429 7.90355 22.2429C7.90355 24.2429 6.27392 25.8725 4.27392 25.8725ZM4.27392 18.9466C2.4591 18.9466 1.01466 20.4281 1.01466 22.2059C1.01466 23.9837 2.49614 25.4651 4.27392 25.4651C6.08873 25.4651 7.53318 23.9837 7.53318 22.2059C7.53318 20.4281 6.08873 18.9466 4.27392 18.9466Z" fill="black"/>
<path d="M1.60718 22.0925C1.60718 20.6481 2.79236 19.4629 4.27384 19.4629C5.75533 19.4629 6.94051 20.6481 6.94051 22.0925C6.94051 23.537 5.75533 24.7222 4.27384 24.7222C2.79236 24.7222 1.60718 23.537 1.60718 22.0925Z" fill="url(#paint15_radial_1698_78628)"/>
<path d="M5.01447 24.6107C4.86632 24.6478 4.79225 24.5367 4.71817 24.4626C4.45891 24.1663 4.38484 23.3145 4.38484 23.2404C4.38484 23.1293 4.42188 23.0182 4.49595 23.0182C5.12558 23.0182 5.60706 22.833 6.01447 22.4626C6.42188 22.1293 6.60706 21.7219 6.6441 21.6478C6.68114 21.5737 6.75521 21.5737 6.79225 21.6848C6.79225 21.7589 6.82928 21.9441 6.82928 22.1293C6.86632 23.2774 6.08854 24.2404 5.01447 24.6107ZM4.31076 24.6848C4.31076 24.6848 4.27373 24.6848 4.23669 24.6848C3.75521 24.6848 3.23669 24.4996 2.94039 24.3145C2.60706 24.1293 2.49595 23.3145 2.49595 22.907C2.49595 21.5367 3.0515 20.7219 3.16262 20.5737C3.23669 20.4256 3.45891 20.3885 3.60706 20.4256C3.75521 20.4626 3.82928 20.4996 3.97743 20.5367C4.05151 20.5737 4.23669 20.6107 4.38484 20.6107C4.53299 20.6478 4.68113 20.6848 4.57002 20.9441C4.49595 21.2033 4.16262 21.833 4.16262 22.5737C4.12558 23.2404 4.23669 23.907 4.38484 24.3145C4.45891 24.6108 4.45891 24.7219 4.31076 24.6848ZM2.3478 21.6107C2.23669 21.5367 2.0515 21.2033 2.01447 21.1293C1.97743 21.0552 1.97743 20.87 2.01447 20.7959C2.23669 20.4256 2.53299 20.0922 2.90336 19.907C2.97743 19.833 3.0515 19.833 3.0515 19.9441C3.0515 20.0182 3.08854 20.0922 3.08854 20.1663C3.08854 20.2404 3.12558 20.3515 3.0515 20.4626C2.97743 20.5737 2.60706 21.1663 2.53299 21.5367C2.49595 21.5737 2.49595 21.6848 2.3478 21.6107ZM2.27373 23.7959C1.90336 23.4256 1.6441 22.7959 1.6441 22.1293C1.6441 21.87 1.68113 21.6108 1.75521 21.3885C1.75521 21.3885 1.82928 21.2774 1.86632 21.3885C1.90336 21.4626 1.97743 21.5367 2.01447 21.6107C2.0515 21.6848 2.3478 21.907 2.31076 22.0922C2.19965 22.7219 2.31076 23.5737 2.3478 23.7219C2.38484 23.7959 2.3478 23.833 2.27373 23.7959ZM3.42188 19.6478C3.68113 19.5737 3.97743 19.4996 4.27373 19.4996C4.71817 19.4996 5.16262 19.5737 5.53299 19.7959C5.6441 19.87 5.6441 19.9441 5.6441 20.0182C5.6441 20.3515 5.12558 20.4626 4.75521 20.4626C4.38484 20.4626 3.97743 20.3145 3.6441 20.2404C3.3478 20.1293 3.27373 19.9811 3.27373 19.87C3.27373 19.833 3.31076 19.6848 3.42188 19.6478ZM5.82928 20.0182C5.86632 20.0552 6.01447 20.1663 6.01447 20.1663C6.27373 20.3885 6.49595 20.6478 6.60706 20.9441C6.75521 21.3515 6.27373 21.9441 6.12558 22.0552C5.45891 22.6848 5.05151 22.6848 4.79225 22.7219C4.57002 22.7589 4.38484 22.6107 4.42188 22.4256C4.42188 21.907 4.79225 21.0182 4.90336 20.833C4.97743 20.7219 5.08854 20.6478 5.08854 20.6478C5.3478 20.5737 5.57002 20.4626 5.71817 20.3515C5.82928 20.2033 5.82928 20.0182 5.82928 20.0182ZM4.31076 19.3145C2.71817 19.3145 1.42188 20.6107 1.42188 22.2033C1.42188 23.7959 2.71817 25.0922 4.31076 25.0922C5.90336 25.0922 7.19965 23.7959 7.19965 22.2033C7.19965 20.6107 5.90336 19.3145 4.31076 19.3145Z" fill="#DA020E"/>
<path d="M33.1255 22.2042C33.1255 20.3153 34.681 18.7598 36.5699 18.7598C38.4588 18.7598 40.0144 20.3153 40.0144 22.2042C40.0144 24.0931 38.4588 25.6487 36.5699 25.6487C34.681 25.6487 33.1255 24.1301 33.1255 22.2042Z" fill="#FFE500"/>
<path fill-rule="evenodd" clip-rule="evenodd" d="M36.5699 18.9442C34.7832 18.9442 33.3104 20.4169 33.3104 22.2037C33.3104 24.0261 34.7819 25.4631 36.5699 25.4631C38.3566 25.4631 39.8293 23.9904 39.8293 22.2037C39.8293 20.4169 38.3566 18.9442 36.5699 18.9442ZM32.9404 22.2037C32.9404 20.2126 34.5788 18.5742 36.5699 18.5742C38.5609 18.5742 40.1993 20.2126 40.1993 22.2037C40.1993 24.1947 38.5609 25.8331 36.5699 25.8331C34.5801 25.8331 32.9404 24.2331 32.9404 22.2037Z" fill="black"/>
<path d="M38.6069 23.7589C38.5328 23.833 38.4958 23.7589 38.5328 23.6108C38.5699 23.4626 38.6439 22.6107 38.5328 21.9811C38.4958 21.7959 38.7921 21.6107 38.8291 21.4996C38.8662 21.4256 38.9402 21.3515 38.9773 21.2774C39.0514 21.1663 39.0884 21.2774 39.0884 21.2774C39.1625 21.5367 39.1995 21.7589 39.1995 22.0182C39.2365 22.7589 38.9773 23.4256 38.6069 23.7589ZM38.3847 21.4996C38.3106 21.1663 37.9402 20.5367 37.8662 20.4256C37.7921 20.3145 37.8291 20.2033 37.8291 20.1293C37.8291 20.0552 37.8662 19.9811 37.8662 19.907C37.8662 19.7959 37.9402 19.7959 37.9773 19.833C38.3847 20.0404 38.6068 20.3144 38.8662 20.7219C38.9032 20.7959 38.9032 21.0182 38.8662 21.0552C38.8291 21.1663 38.681 21.4626 38.5328 21.5367C38.4217 21.6478 38.3847 21.5737 38.3847 21.4996ZM37.9402 24.3515C37.6439 24.5367 37.0884 24.7219 36.6069 24.7219H36.5699C36.4217 24.7219 36.4217 24.6108 36.5328 24.3515C36.681 23.9441 36.7551 23.2774 36.7551 22.6107C36.718 21.87 36.4217 21.2404 36.3476 20.9811C36.2736 20.7219 36.4217 20.6848 36.5328 20.6478C36.681 20.6108 36.8662 20.5737 36.9402 20.5367C37.1254 20.4996 37.1625 20.4626 37.3106 20.4256C37.4588 20.3885 37.6439 20.3885 37.7551 20.5737C37.8291 20.7219 38.3847 21.5367 38.3847 22.907C38.3847 23.3145 38.2736 24.1663 37.9402 24.3515ZM35.9032 24.5737C34.8291 24.2404 34.0513 23.2774 34.0513 22.0922C34.0513 21.907 34.0884 21.7589 34.0884 21.6478C34.1254 21.5367 34.1995 21.5367 34.2365 21.6107C34.2736 21.6848 34.4588 22.0922 34.8662 22.4256C35.3106 22.7589 35.7551 22.9811 36.3847 22.9811C36.4588 22.9811 36.4958 23.0922 36.4958 23.2033C36.4958 23.3145 36.4217 24.1293 36.1625 24.4256C36.0884 24.5367 36.0513 24.6478 35.9032 24.5737ZM34.2736 20.9441C34.3847 20.6478 34.6439 20.3885 34.8662 20.1663C34.8662 20.1663 34.9773 20.0552 35.0514 20.0182C35.0514 20.0182 35.0514 20.2033 35.1995 20.3515C35.3106 20.4996 35.5699 20.6107 35.7921 20.6848C35.7921 20.6848 35.9032 20.7589 35.9773 20.87C36.0884 21.0182 36.4588 21.9441 36.4588 22.4626C36.4588 22.6478 36.3106 22.7959 36.0884 22.7589C35.8662 22.7219 35.4217 22.7219 34.7551 22.0922C34.6439 21.907 34.1254 21.3515 34.2736 20.9441ZM35.3847 19.7959C35.7551 19.5737 36.1625 19.4996 36.6439 19.4996C36.9402 19.4996 37.2365 19.5367 37.4958 19.6478C37.6069 19.6848 37.6439 19.833 37.6439 19.907C37.6439 19.9811 37.5699 20.1663 37.2736 20.2774C36.9773 20.3885 36.5328 20.4996 36.1625 20.4996C35.7921 20.4996 35.2736 20.3885 35.2736 20.0552C35.2736 19.9441 35.2736 19.87 35.3847 19.7959ZM36.6069 19.3145C35.0143 19.3145 33.718 20.6107 33.718 22.2033C33.718 23.7959 35.0143 25.0922 36.6069 25.0922C38.1995 25.0922 39.4958 23.7959 39.4958 22.2033C39.4958 20.6107 38.1995 19.3145 36.6069 19.3145Z" fill="#DA020E"/>
<path d="M33.9773 22.1018C33.9773 20.6522 35.1625 19.4629 36.644 19.4629C38.1254 19.4629 39.3106 20.6522 39.3106 22.1018C39.3106 23.5513 38.1254 24.7407 36.644 24.7407C35.1625 24.7035 33.9773 23.5513 33.9773 22.1018Z" fill="url(#paint16_radial_1698_78628)"/>
<path d="M32.5145 37.5371C32.3277 37.5371 32.1451 37.5925 31.9898 37.6963C31.8345 37.8001 31.7134 37.9476 31.642 38.1201C31.5705 38.2927 31.5518 38.4826 31.5882 38.6658C31.6247 38.849 31.7146 39.0173 31.8467 39.1494C31.9788 39.2815 32.1471 39.3714 32.3303 39.4078C32.5135 39.4443 32.7034 39.4256 32.8759 39.3541C33.0485 39.2826 33.196 39.1616 33.2998 39.0063C33.4036 38.8509 33.459 38.6683 33.459 38.4816C33.459 38.2311 33.3595 37.9908 33.1823 37.8137C33.0052 37.6366 32.765 37.5371 32.5145 37.5371ZM32.8855 37.8137C32.8131 37.7893 32.7371 37.7771 32.6607 37.7777H32.2109C32.3182 37.7297 32.4353 37.708 32.5526 37.7142C32.6699 37.7205 32.784 37.7546 32.8855 37.8137ZM32.9215 38.1611C32.9215 38.3613 32.7731 38.3849 32.6404 38.3849H32.2188V37.9351H32.6719C32.7686 37.9351 32.9215 37.9509 32.9215 38.16V38.1611ZM31.7455 38.4816C31.7463 38.3677 31.7723 38.2553 31.8217 38.1527C31.8711 38.0501 31.9426 37.9596 32.031 37.8879V39.0752C31.9442 39.0025 31.8742 38.9117 31.826 38.8092C31.7779 38.7067 31.7459 38.5979 31.7455 38.4846V38.4816ZM32.112 39.1337H32.2188V38.5513H32.6652C32.89 38.5513 32.9058 38.6817 32.9058 38.7919C32.9056 38.9036 32.9161 39.015 32.9373 39.1247C32.8137 39.2058 32.6691 39.2488 32.5213 39.2484C32.379 39.2483 32.2396 39.2086 32.1187 39.1337H32.112ZM33.0902 38.983C33.0902 38.983 33.0902 38.983 33.0902 38.9673L33.0789 38.7199C33.0789 38.531 32.9957 38.495 32.917 38.4658C32.9776 38.4373 33.0281 38.3911 33.0618 38.3333C33.0955 38.2755 33.1109 38.2088 33.1059 38.142C33.1094 38.0616 33.0856 37.9824 33.0384 37.9171C33.1157 37.9885 33.1774 38.0751 33.2196 38.1715C33.2618 38.2678 33.2835 38.3719 33.2836 38.4771C33.2861 38.663 33.2196 38.8433 33.0969 38.983H33.0902Z" fill="#231F20"/>
<defs>
<filter id="filter0_f_1698_78628" x="10.8934" y="4.84901" width="18.9817" height="30.2297" filterUnits="userSpaceOnUse" color-interpolation-filters="sRGB">
<feFlood flood-opacity="0" result="BackgroundImageFix"/>
<feBlend mode="normal" in="SourceGraphic" in2="BackgroundImageFix" result="shape"/>
<feGaussianBlur stdDeviation="0.545223" result="effect1_foregroundBlur_1698_78628"/>
</filter>
<radialGradient id="paint0_radial_1698_78628" cx="0" cy="0" r="1" gradientUnits="userSpaceOnUse" gradientTransform="translate(20.501 39.5403) scale(1.35037 1.00385)">
<stop stop-color="#FFE500"/>
<stop offset="0.5" stop-color="#FFE500"/>
<stop offset="1" stop-color="#E15007"/>
</radialGradient>
<radialGradient id="paint1_radial_1698_78628" cx="0" cy="0" r="1" gradientUnits="userSpaceOnUse" gradientTransform="translate(16.7741 39.0819) scale(1.42793 1.28389)">
<stop stop-color="#FFE500"/>
<stop offset="0.5" stop-color="#FFE500"/>
<stop offset="1" stop-color="#E15007"/>
</radialGradient>
<linearGradient id="paint2_linear_1698_78628" x1="20.0248" y1="17.3618" x2="20.0248" y2="24.8576" gradientUnits="userSpaceOnUse">
<stop stop-color="#8F0904"/>
<stop offset="0.2496" stop-color="#B40509"/>
<stop offset="1" stop-color="#DA020E"/>
</linearGradient>
<radialGradient id="paint3_radial_1698_78628" cx="0" cy="0" r="1" gradientUnits="userSpaceOnUse" gradientTransform="translate(16.1197 2.33331) scale(1.63252 1.55441)">
<stop stop-color="#FFE500"/>
<stop offset="0.5" stop-color="#FFE500"/>
<stop offset="1" stop-color="#E15007"/>
</radialGradient>
<radialGradient id="paint4_radial_1698_78628" cx="0" cy="0" r="1" gradientUnits="userSpaceOnUse" gradientTransform="translate(4.24723 10.5986) rotate(-60.271) scale(2.54727 2.24088)">
<stop stop-color="#FFE500"/>
<stop offset="0.5" stop-color="#FFE500"/>
<stop offset="1" stop-color="#E15007"/>
</radialGradient>
<linearGradient id="paint5_linear_1698_78628" x1="3.28358" y1="10.1638" x2="3.90277" y2="10.8445" gradientUnits="userSpaceOnUse">
<stop stop-color="#FFE500"/>
<stop offset="0.5" stop-color="#FFE500"/>
<stop offset="1" stop-color="#E15007"/>
</linearGradient>
<linearGradient id="paint6_linear_1698_78628" x1="6.87946" y1="25.1272" x2="11.1564" y2="30.0365" gradientUnits="userSpaceOnUse">
<stop stop-color="#740703"/>
<stop offset="1" stop-color="#DA020E" stop-opacity="0"/>
</linearGradient>
<linearGradient id="paint7_linear_1698_78628" x1="33.8455" y1="25.1272" x2="29.5686" y2="30.0365" gradientUnits="userSpaceOnUse">
<stop stop-color="#740703"/>
<stop offset="1" stop-color="#DA020E" stop-opacity="0"/>
</linearGradient>
<linearGradient id="paint8_linear_1698_78628" x1="37.2812" y1="17.1744" x2="34.9665" y2="14.9962" gradientUnits="userSpaceOnUse">
<stop stop-color="#740703"/>
<stop offset="1" stop-color="#DA020E" stop-opacity="0"/>
</linearGradient>
<linearGradient id="paint9_linear_1698_78628" x1="3.72839" y1="17.4085" x2="6.1792" y2="14.822" gradientUnits="userSpaceOnUse">
<stop stop-color="#740703"/>
<stop offset="1" stop-color="#DA020E" stop-opacity="0"/>
</linearGradient>
<radialGradient id="paint10_radial_1698_78628" cx="0" cy="0" r="1" gradientUnits="userSpaceOnUse" gradientTransform="translate(24.6705 2.32901) rotate(180) scale(1.63252 1.55441)">
<stop stop-color="#FFE500"/>
<stop offset="0.5" stop-color="#FFE500"/>
<stop offset="1" stop-color="#E15007"/>
</radialGradient>
<radialGradient id="paint11_radial_1698_78628" cx="0" cy="0" r="1" gradientUnits="userSpaceOnUse" gradientTransform="translate(20.3943 1.56978) scale(1.23337 1.17889)">
<stop stop-color="#FFE500"/>
<stop offset="0.5" stop-color="#FFE500"/>
<stop offset="1" stop-color="#E15007"/>
</radialGradient>
<radialGradient id="paint12_radial_1698_78628" cx="0" cy="0" r="1" gradientUnits="userSpaceOnUse" gradientTransform="translate(36.5535 10.6144) rotate(-119.729) scale(2.54727 2.24088)">
<stop stop-color="#FFE500"/>
<stop offset="0.5" stop-color="#FFE500"/>
<stop offset="1" stop-color="#E15007"/>
</radialGradient>
<linearGradient id="paint13_linear_1698_78628" x1="37.5141" y1="10.1638" x2="36.8949" y2="10.8444" gradientUnits="userSpaceOnUse">
<stop stop-color="#FFE500"/>
<stop offset="0.5" stop-color="#FFE500"/>
<stop offset="1" stop-color="#E15007"/>
</linearGradient>
<radialGradient id="paint14_radial_1698_78628" cx="0" cy="0" r="1" gradientUnits="userSpaceOnUse" gradientTransform="translate(24.2626 39.0775) rotate(180) scale(1.42793 1.28389)">
<stop stop-color="#FFE500"/>
<stop offset="0.5" stop-color="#FFE500"/>
<stop offset="1" stop-color="#E15007"/>
</radialGradient>
<radialGradient id="paint15_radial_1698_78628" cx="0" cy="0" r="1" gradientUnits="userSpaceOnUse" gradientTransform="translate(4.28979 22.1019) scale(2.65707 2.61356)">
<stop stop-color="#DA030E" stop-opacity="0"/>
<stop offset="0.875" stop-color="#DA020E" stop-opacity="0"/>
<stop offset="1" stop-color="#DA020E"/>
</radialGradient>
<radialGradient id="paint16_radial_1698_78628" cx="0" cy="0" r="1" gradientUnits="userSpaceOnUse" gradientTransform="translate(36.6168 22.0984) scale(2.65711 2.62276)">
<stop stop-color="#DA030E" stop-opacity="0"/>
<stop offset="0.875" stop-color="#DA020E" stop-opacity="0"/>
<stop offset="1" stop-color="#DA020E"/>
</radialGradient>
</defs>
</svg>
