<svg width="41" height="41" viewBox="0 0 41 41" fill="none" xmlns="http://www.w3.org/2000/svg">
<path d="M40.5938 20.5C40.5938 31.5457 31.6394 40.5 20.5938 40.5C9.54806 40.5 0.59375 31.5457 0.59375 20.5C0.59375 9.45431 9.54806 0.5 20.5938 0.5C25.8982 0.499626 30.9855 2.60664 34.7363 6.35745C38.4871 10.1083 40.5941 15.1956 40.5938 20.5Z" fill="#FBB700"/>
<circle cx="20.5937" cy="20.5" r="19.3339" fill="#001489"/>
<path d="M34.372 20.501C34.372 28.1105 28.2033 34.2793 20.5937 34.2793C12.9842 34.2793 6.81543 28.1105 6.81543 20.501C6.81543 12.8914 12.9842 6.72266 20.5937 6.72266C24.2481 6.72228 27.7529 8.1738 30.3369 10.7578C32.9209 13.3418 34.3724 16.8466 34.372 20.501Z" fill="#FBB700"/>
<path d="M33.9544 20.4993C33.9544 27.8782 27.9726 33.8599 20.5938 33.8599C13.2149 33.8599 7.23315 27.8782 7.23315 20.4993C7.23315 13.1204 13.2149 7.13867 20.5938 7.13867C24.1372 7.13867 27.5355 8.5463 30.0411 11.0519C32.5467 13.5575 33.9544 16.9558 33.9544 20.4993Z" fill="white"/>
<path fill-rule="evenodd" clip-rule="evenodd" d="M30.15 19.9739C29.8678 19.2429 28.9223 18.924 28.0234 19.2683C27.6702 19.3979 27.361 19.6249 27.1316 19.9231C27.4119 19.124 28.0983 18.6218 28.7451 18.1487C29.4688 17.6192 30.1429 17.126 30.1429 16.2936C30.1429 13.6506 26.3907 14.3914 26.9368 16.2936C26.9368 15.43 28.3113 15.272 28.3113 16.2936C28.3113 16.738 27.8575 17.1162 27.3446 17.5435C26.6783 18.0987 25.9124 18.737 25.9124 19.7114C25.9124 20.6562 26.3819 21.1752 26.831 21.6715C27.286 22.1745 27.72 22.6542 27.6226 23.5299C27.5493 23.9273 27.2054 24.2174 26.8014 24.2228C24.9097 24.2228 24.6833 22.7126 24.4796 21.354C24.3694 20.6188 24.2658 19.9279 23.9085 19.5449L23.9608 18.8069C24.5506 19.1681 26.1127 18.3229 25.0897 17.0331C25.0897 17.6681 23.7688 17.6328 23.7688 16.4348C23.7688 14.8134 25.2844 15.66 25.3578 16.0114C25.2844 15.4216 25.2576 15.0462 25.3578 14.7061C24.5393 14.97 24.4645 14.4973 24.5661 14.3152C24.6861 14.1036 24.8484 13.8566 25.1616 13.8566C25.2781 13.846 25.3951 13.869 25.4989 13.9229C25.547 13.9563 25.5887 13.9382 25.6179 13.9256C25.6503 13.9115 25.6672 13.9042 25.6598 13.9822C25.7038 13.9111 25.7168 13.9199 25.7301 13.929C25.7432 13.9379 25.7568 13.9471 25.8009 13.8806C25.9166 13.7049 26.0525 13.5434 26.2059 13.3994L26.1974 13.1003L26.4345 13.1877L26.6645 12.818C26.5498 12.5807 26.4162 12.5066 26.2812 12.4318C26.1257 12.3456 25.9684 12.2584 25.8362 11.9191C25.7999 11.9097 25.6705 11.9127 25.4825 11.9171C24.6023 11.9377 22.4362 11.9883 22.5129 10.9313C22.2519 10.9313 21.631 11.0725 22.0162 11.596C21.9472 11.6041 21.8827 11.5924 21.8187 11.5807C21.6051 11.5419 21.3977 11.5041 21.0524 12.2098C21.4943 12.127 21.4104 12.4947 21.3531 12.7457C21.3372 12.8153 21.3233 12.8759 21.3233 12.9154C21.3233 14.0768 19.7711 14.057 19.7711 13.5123C19.3986 13.875 19.6102 14.6666 20.1733 14.8613C20.1733 14.8613 19.9602 15.708 19.431 16.2443C18.645 16.2132 17.3863 16.0777 16.661 15.3976C16.4407 15.1709 16.1792 14.9884 15.8905 14.8599V14.4705C16.2848 14.2598 16.6267 13.9632 16.891 13.6026C17.1743 13.2609 17.3122 12.8215 17.2748 12.3792C17.2748 12.3391 17.2673 12.2998 17.26 12.2612L17.26 12.2612C17.2572 12.2468 17.2545 12.2325 17.2522 12.2183C17.2493 12.2017 17.2455 12.1852 17.2409 12.1689C17.2325 12.1308 17.224 12.0955 17.2141 12.0588L17.1972 12.0066C17.1859 11.9699 17.1732 11.9347 17.1591 11.9008L17.1422 11.857C17.1288 11.8256 17.1142 11.7954 17.0987 11.7635L17.0987 11.7635C17.0912 11.7481 17.0836 11.7324 17.0758 11.7159L17.0462 11.6651C17.0397 11.6549 17.0334 11.6446 17.0272 11.6344L17.0272 11.6344L17.0272 11.6344C17.0172 11.618 17.0073 11.6018 16.9968 11.5861L16.9545 11.524L16.9079 11.4647L16.896 11.4497L16.896 11.4497C16.883 11.4332 16.8697 11.4164 16.8557 11.4012L16.8218 11.366C16.7779 11.3159 16.7307 11.2688 16.6807 11.2249L16.6666 11.2122C16.637 11.1868 16.6059 11.1642 16.5749 11.1416C16.5675 11.1347 16.5595 11.1286 16.5509 11.1233L16.4507 11.0569C16.1067 10.8438 15.7042 10.745 15.3006 10.7747C14.2874 10.8565 13.5339 11.7032 13.6186 12.6684C13.6966 13.4133 14.2324 14.0297 14.9591 14.2108C14.793 14.3135 14.6122 14.3901 14.4229 14.438L14.4539 14.4564H14.4624L14.4977 14.4761H14.5062L14.5584 14.5015H14.5668L14.619 14.5241H14.6346C14.6834 14.5435 14.7334 14.56 14.7841 14.5735L14.8053 14.5805L14.873 14.5961H14.897L14.9874 14.6116V14.8303H14.9549C14.6247 14.8853 14.4116 14.9855 14.3142 15.2805C14.2216 15.5611 14.3052 15.6705 14.4485 15.8579L14.4709 15.8872C14.4414 15.9396 14.4013 15.9847 14.3619 16.0288C14.2263 16.1811 14.0996 16.3234 14.4441 16.7226C14.413 16.9174 14.4539 17.2278 14.7362 17.321C14.8181 17.3483 14.9021 17.3691 14.9874 17.383V21.2453C14.766 21.3516 14.5891 21.5324 14.4878 21.7561C14.4878 21.7561 14.262 21.2524 14.2761 22.2486C14.5344 22.0497 14.4328 22.4815 14.4328 22.4815C14.0814 22.9344 14.5273 22.9048 14.5273 22.9048C14.8293 22.6028 14.7672 23.0459 14.7672 23.0459C14.7672 23.5764 14.9824 23.7862 14.9873 23.7909L14.9874 23.791V26.7332H14.7305V27.546H15.1779C14.9236 27.6467 14.7645 27.9013 14.7856 28.174C14.8255 28.5292 15.144 28.786 15.4996 28.7497C15.7967 28.7419 16.0469 28.5255 16.0977 28.2327C16.1484 27.9399 15.9856 27.652 15.7084 27.5446H16.1233V26.7332H15.8764V24.1226C15.9284 24.1499 15.984 24.1698 16.0415 24.1819C16.0651 24.1872 16.0892 24.1905 16.1134 24.1918H16.1459C16.1084 23.992 16.1599 23.7859 16.287 23.6273C16.3943 23.4704 16.5401 23.3436 16.7103 23.259C17.2296 22.9979 17.9352 23.0643 18.1469 23.4876C19.486 23.1348 20.6361 21.7942 20.6361 21.7942L21.2965 22.9161C19.8981 23.3832 16.8543 26.0291 18.9682 26.9449C18.9682 27.2116 18.9315 29.1914 17.6615 29.0348C15.834 28.809 15.3782 29.5654 15.7296 30.4163C15.5631 31.1331 16.1163 31.3815 16.1163 31.3815C16.033 30.968 16.232 30.6251 16.9883 30.6294C16.9883 31.3843 17.4724 31.5212 17.4724 31.5212C17.4724 30.8735 17.9253 30.635 18.319 30.6364C18.319 31.1698 18.9357 31.3716 18.9357 31.3716C18.9357 31.3716 18.7777 30.7578 19.479 30.6364C20.2725 30.4979 20.3765 30.0555 20.4919 29.5641C20.6342 28.9588 20.7939 28.2791 22.2815 28.0018C22.2815 28.0018 20.9395 27.8 20.9395 27.0648C20.9395 26.3988 22.1545 25.9359 22.5722 25.9359C23.4127 27.5409 24.325 27.5858 24.5913 27.5989L24.6071 27.5997C24.9866 28.023 24.8596 29.4539 24.3107 29.4257C22.3041 29.3184 22.3775 30.5405 22.6018 30.7888C22.5928 31.0781 22.7197 31.3548 22.9447 31.5367C22.9447 31.0287 23.4288 30.8862 24.0482 30.9201C24.0158 31.541 24.4109 31.6327 24.4109 31.6327C24.4222 31.009 24.8836 30.9031 25.2124 30.9201C25.2086 31.1786 25.3759 31.4086 25.6231 31.4845C25.6085 31.3353 25.6606 31.1873 25.7653 31.0801C25.8701 30.9729 26.0169 30.9174 26.1664 30.9285C26.6262 30.9285 26.6184 30.5196 26.6061 29.8733C26.5888 28.9605 26.5625 27.5742 27.8315 26.197C25.9279 27.0775 24.9147 24.8762 24.9147 24.4528C25.8926 25.5987 29.0634 25.8273 29.0634 23.8714C29.0634 22.9453 28.5585 22.3074 28.1667 21.8125C27.7688 21.3097 27.4877 20.9546 27.9712 20.5948C28.5357 20.1714 29.6279 21.0181 28.9999 21.8846C29.9228 21.5798 30.4252 20.7063 30.15 19.9739ZM17.9875 20.0336C17.7003 20.2032 17.4509 20.3903 17.2131 20.5687C16.8574 20.8355 16.5277 21.0828 16.1361 21.2232C16.0574 21.2532 15.9733 21.2666 15.8892 21.2627V17.6191C16.2841 17.6623 16.6709 17.7616 17.0378 17.9141C17.5571 18.1963 17.5571 18.7861 16.8967 18.9244C17.3116 19.7203 18.7509 19.3308 19.0642 18.6831C19.2116 18.6696 19.3421 18.9216 19.4707 19.1699L19.4876 19.2024L19.4695 19.2116L19.4695 19.2116C19.259 19.319 18.8443 19.5305 17.9875 20.035V20.0336ZM25.7925 14.2958L26.0169 13.991V13.9924C26.2233 14.166 26.493 14.2454 26.7605 14.2111C27.1627 14.173 27.4802 13.9458 27.5352 13.6777C27.5423 13.6961 27.5423 13.713 27.5423 13.7314C27.5814 14.1699 27.3118 14.5771 26.8928 14.7123C26.4738 14.8475 26.017 14.6746 25.7925 14.2958Z" fill="#CCCCCC"/>
<path fill-rule="evenodd" clip-rule="evenodd" d="M14.6051 26.9909H14.1564L14.1705 26.5577C14.368 26.5577 14.8464 26.4561 14.8464 26.3488V22.8803C14.6107 22.8803 14.4231 23.2415 14.4231 23.2415C14.4133 23.002 14.4817 22.7658 14.6178 22.5684C14.5105 22.4555 14.1945 22.4964 14.1945 22.4964C14.1945 22.4964 14.0632 22.495 13.7612 22.797C13.7612 22.4809 14.1211 22.0745 14.2015 21.9955C14.0937 21.9476 13.9765 21.9249 13.8586 21.9292C13.6869 21.9481 13.5253 22.0195 13.3958 22.1338C13.3958 21.8699 13.788 21.4071 14.0604 21.4071C14.0604 21.0698 15.051 21.0698 15.4969 21.0698C16.5383 21.0698 20.1537 18.7612 20.1537 18.7612C19.2604 18.7612 18.9006 18.6201 18.9006 18.6201L18.8752 18.5708C18.75 18.327 18.6271 18.0875 18.4843 18.1008C18.1696 18.7471 16.7303 19.1365 16.3154 18.3407C16.6653 18.4479 17.0181 18.3181 17.0972 18.05C17.1762 17.7818 16.9617 17.477 16.6117 17.3698C16.5656 17.3562 16.5184 17.3463 16.4706 17.3402L16.4551 17.3303C16.0883 17.1777 15.7014 17.0788 15.3064 17.0368V20.6761C15.2504 20.6713 15.192 20.6654 15.1329 20.6594L15.1329 20.6594C15.0341 20.6493 14.9333 20.639 14.8379 20.6337V17.3148C14.8488 17.1934 14.8099 17.0728 14.73 16.9807C14.6502 16.8886 14.5363 16.8329 14.4146 16.8265C14.3298 16.8125 14.2463 16.7917 14.1648 16.7644C13.8812 16.6699 13.8403 16.3594 13.8727 16.1661C13.5269 15.7656 13.6546 15.623 13.7906 15.4713C13.83 15.4274 13.8701 15.3827 13.8995 15.3307L13.8772 15.3015C13.7326 15.1127 13.6488 15.0033 13.7415 14.7225C13.8388 14.4276 14.0533 14.3274 14.3821 14.2738H14.4146C14.543 14.3603 14.6866 14.4216 14.8379 14.4544V13.9845C14.6987 14.0124 14.5564 14.0228 14.4146 14.0155L14.3243 14.0014H14.3003L14.234 13.9859H14.2114C14.1606 13.9718 14.1107 13.9548 14.0618 13.9351H14.0477L13.9955 13.9125H13.9856L13.9334 13.8871H13.9249L13.8911 13.8674H13.8812L13.8515 13.849C14.033 13.7996 14.2064 13.7245 14.3666 13.6261H14.344C13.812 13.3664 13.4353 12.7173 13.4353 11.9553C13.4353 11.1467 13.8586 10.4637 14.4499 10.2379C14.5371 10.2172 14.6258 10.2031 14.7152 10.1956C15.1184 10.1645 15.5209 10.2634 15.8638 10.4778H15.8709C15.9047 10.499 15.9386 10.5216 15.9711 10.5456L15.9951 10.5625C16.0261 10.5851 16.0557 10.6076 16.0854 10.633L16.0995 10.6457C16.1491 10.6901 16.1963 10.7372 16.2406 10.7869L16.2787 10.8264L16.2971 10.8489L16.2971 10.8489L16.2971 10.8489C16.3084 10.8627 16.32 10.8767 16.3309 10.8913L16.3761 10.9505C16.3916 10.9703 16.4029 10.9872 16.4198 11.0126L16.4198 11.0126C16.4367 11.038 16.4579 11.0719 16.4678 11.0903C16.4727 11.0994 16.478 11.1079 16.4833 11.1164C16.4886 11.1248 16.4939 11.1333 16.4988 11.1425C16.5214 11.1862 16.544 11.2314 16.5637 11.2765L16.5679 11.2845C16.5741 11.2963 16.5807 11.3088 16.5807 11.3203C16.5948 11.3555 16.6145 11.4078 16.6202 11.4261C16.6224 11.4333 16.6235 11.4377 16.6248 11.4425C16.6267 11.4499 16.6289 11.4583 16.6357 11.4797C16.6407 11.4952 16.6448 11.5147 16.6487 11.5331L16.6487 11.5331L16.6487 11.5331C16.6537 11.5569 16.6584 11.5789 16.6639 11.5884C16.6738 11.6053 16.6738 11.6208 16.6738 11.6378C16.6841 11.691 16.6916 11.7447 16.6964 11.7986C16.7358 12.2412 16.5977 12.6813 16.3126 13.0221C16.0488 13.3832 15.7068 13.6798 15.3121 13.8899V14.6393C15.6913 14.766 16.0634 14.913 16.4269 15.0795C16.5901 15.18 16.7626 15.2645 16.9419 15.3321C17.9438 15.8641 18.9754 16.6685 18.624 17.6167C19.6033 17.6167 19.5314 16.3453 19.3211 16.1351C19.6344 15.8218 20.2764 14.3923 20.2764 14.1284C20.2764 14.1284 18.9937 13.8518 19.1969 12.9614C19.2082 13.1731 19.4721 13.2973 19.7727 13.2973C21.8089 13.2973 21.0907 10.6613 19.9857 11.7662C20.3575 11.0099 20.8985 11.0206 21.2443 11.0274C21.3172 11.0288 21.3814 11.0301 21.4336 11.0239H21.998C21.5592 10.578 22.2083 9.75391 22.4482 9.75391C22.3642 10.8916 24.482 11.216 25.102 11.311C25.1802 11.323 25.2346 11.3313 25.2577 11.3372C25.39 11.6774 25.5475 11.7645 25.7031 11.8505C25.8379 11.9251 25.9714 11.9989 26.0861 12.2361L25.8575 12.6058L25.619 12.5183L25.6275 12.8175C25.3288 13.11 25.2224 13.295 25.1175 13.4772L25.1175 13.4773L25.1175 13.4773C25.0791 13.5439 25.041 13.6101 24.9939 13.6811L24.9964 13.6496C25.0144 13.4293 25.0269 13.2761 24.5889 13.2761C24.2756 13.2761 24.1119 13.5216 23.9934 13.7333C23.8904 13.9168 23.9666 14.3881 24.7836 14.1256C24.682 14.4643 24.7102 14.8396 24.7836 15.4309C24.7088 15.0795 23.1947 14.2343 23.1947 15.8542C23.1947 17.0523 24.5155 17.0876 24.5155 16.454C25.5386 17.7423 23.9764 18.589 23.3866 18.2278L23.3344 18.9644C23.6926 19.3475 23.7962 20.0395 23.9065 20.7756C24.0021 21.414 24.1027 22.0856 24.3786 22.6178C24.6961 23.4687 25.2563 24.1207 26.4233 24.1207C27.6313 24.1207 27.7399 23.2274 27.7399 23.02C27.7399 22.1385 27.2741 21.5976 26.8142 21.0635C26.3655 20.5425 25.9224 20.0279 25.9224 19.2099C25.9224 18.3455 26.6318 17.7536 27.2888 17.2053C27.8556 16.7324 28.3834 16.292 28.3834 15.7371C28.3834 14.3359 26.4614 14.556 26.3655 15.6313C26.364 15.6595 26.364 15.6877 26.3655 15.7159C25.8194 13.8137 29.5716 13.0743 29.5716 15.7159C29.5716 16.5492 28.8968 17.0428 28.1725 17.5725C27.5256 18.0458 26.8391 18.5478 26.5588 19.3468C26.7884 19.0485 27.0976 18.8211 27.4506 18.6906C28.3495 18.3463 29.302 18.6652 29.5772 19.3962C29.8524 20.1272 29.3486 20.9992 28.4483 21.3337C28.8748 21.1625 29.1135 20.7064 29.011 20.2584C28.9085 19.8104 28.4953 19.5035 28.0368 19.5347C27.5782 19.566 27.2105 19.9262 27.1698 20.384C27.1198 20.6405 27.339 20.9171 27.6139 21.2641C28.0061 21.7591 28.5118 22.3974 28.5118 23.3248C28.5118 25.2792 25.341 25.0506 24.3631 23.9062C24.3631 24.3281 25.3763 26.5309 27.2785 25.6503C26.0098 27.0264 26.0363 28.4121 26.0537 29.3247C26.0661 29.9713 26.0739 30.3805 25.6133 30.3805C25.4638 30.3697 25.3172 30.4256 25.2127 30.533C25.1082 30.6405 25.0565 30.7887 25.0715 30.9378C24.9304 30.7967 24.8288 30.475 24.9304 30.3734H24.6594C24.3306 30.348 23.8678 30.4552 23.8579 31.079C23.69 30.9181 23.6617 30.5314 23.8212 30.3734H23.4938C22.8743 30.3395 22.3903 30.4821 22.3903 30.9901C22.2746 30.8743 22.1786 30.4101 22.3466 30.2422H22.0474C22.0474 29.3207 22.674 29.102 24.2558 29.102C24.2558 29.102 25.5484 27.4523 24.5169 26.4208L24.4812 26.421C24.1595 26.4232 23.0337 26.431 22.9294 25.4147C22.6297 25.3535 22.3215 25.3458 22.0192 25.3921C21.6001 25.3921 20.3865 25.8535 20.3865 26.521C20.3865 27.2548 21.7271 27.458 21.7271 27.458C20.2397 27.7352 20.0802 28.4147 19.9382 29.0199C19.8228 29.5115 19.7189 29.9541 18.9246 30.0926C18.2247 30.2139 18.3813 30.8278 18.3813 30.8278C18.1569 30.6091 18.0073 30.1843 18.0991 30.0926H17.7576C17.3639 30.0898 16.9109 30.3297 16.9109 30.976C16.774 30.8391 16.599 30.3847 16.8982 30.0841H16.4269C15.6705 30.0813 15.4715 30.4228 15.5548 30.8377C15.5548 30.8377 15.1893 30.2619 15.5802 29.871H15.1681C15.1681 28.7632 15.8365 28.7829 16.7744 28.8105C16.9285 28.815 17.0898 28.8197 17.2566 28.8197C17.9975 28.8197 19.0784 27.8842 19.0784 26.3093C19.0784 26.3093 18.3601 26.0327 18.3601 25.3074C18.3601 24.4021 19.4967 23.9155 20.5785 23.4524C21.5606 23.0319 22.4976 22.6307 22.4976 21.9532C22.4976 21.7269 22.407 21.51 22.2461 21.3509C22.0852 21.1919 21.8673 21.1038 21.641 21.1065C21.7426 21.2081 22.2802 22.3652 20.7351 22.3652L20.0761 21.2434C20.0761 21.2434 18.9246 22.5839 17.5868 22.9367C17.3751 22.5134 16.6682 22.4485 16.1489 22.7081C15.9785 22.7932 15.8328 22.9205 15.7255 23.0778C15.5985 23.2364 15.5469 23.4426 15.5844 23.6423C15.5844 23.6423 15.2316 23.3093 15.3727 22.996C15.2569 22.9253 15.1232 22.8896 14.9875 22.893C14.9337 23.1647 15.0629 23.4398 15.3064 23.5717V26.188H15.552V26.9994H15.1427C15.3622 27.0868 15.5146 27.2893 15.5379 27.5243C15.5486 27.6946 15.4909 27.8622 15.3774 27.9897C15.264 28.1172 15.1043 28.194 14.9339 28.2031C14.5785 28.2394 14.2598 27.9836 14.2184 27.6287V27.5921C14.2857 27.7899 14.4918 27.9049 14.6955 27.8583C14.8993 27.8116 15.0348 27.6185 15.0093 27.411C14.9838 27.2036 14.8056 27.0489 14.5966 27.053C14.5484 27.0533 14.5005 27.0624 14.4555 27.0798C14.5014 27.044 14.5517 27.0141 14.6051 26.9909ZM14.4231 11.7987C14.4235 11.7976 14.4239 11.7966 14.4243 11.7955L14.4231 11.7987ZM14.4243 11.7955C14.4316 11.7767 14.4401 11.7584 14.4499 11.7408L14.4243 11.7955ZM14.4499 11.7408C14.44 11.7583 14.4315 11.7765 14.4244 11.7953L14.4499 11.7408ZM14.4244 11.7953C14.5177 11.4735 14.8333 11.2687 15.1655 11.3151C15.4993 11.3618 15.7475 11.6476 15.7467 11.9847C15.751 12.4122 15.4476 12.8074 15.0835 13.1249H15.0807C15.1278 12.9722 15.1307 12.8093 15.0892 12.655H15.0722C14.6997 12.655 14.3977 12.353 14.3977 11.9804C14.3925 11.9191 14.4012 11.8574 14.4231 11.7998C14.4235 11.7984 14.4239 11.7969 14.4243 11.7955M14.3116 16.4986L14.3104 16.4986C14.5221 16.4901 14.9382 16.3674 14.9368 16.3208C14.9354 16.2742 14.512 16.1797 14.3004 16.1797C14.2115 16.1825 14.1776 16.301 14.179 16.3434C14.1804 16.3855 14.2224 16.4976 14.3104 16.4986L14.3102 16.4986H14.3116ZM14.0123 15.6941C14.008 15.7519 14.0475 15.9185 14.1703 15.9269H14.1731C14.4667 15.9481 15.0537 15.8239 15.0593 15.7689C15.065 15.7138 14.4963 15.5078 14.2028 15.4867C14.08 15.4782 14.0165 15.6362 14.0123 15.6941ZM14.1212 15.1934C13.9899 15.1596 13.9801 14.9733 13.997 14.9112C14.0139 14.8491 14.1127 14.6925 14.2425 14.7278C14.553 14.8082 15.1231 15.1412 15.1062 15.2019C15.0892 15.2626 14.4345 15.2739 14.124 15.1934H14.1212Z" fill="#001489"/>
<path d="M25.2112 13.715C25.4369 14.0945 25.8956 14.2668 26.3154 14.1298C26.7352 13.9928 27.004 13.5831 26.9624 13.1435C26.9624 13.1251 26.9624 13.1082 26.9539 13.0898C26.9003 13.358 26.5814 13.5866 26.1792 13.6233C25.9131 13.6597 25.6438 13.5829 25.437 13.4116L25.2112 13.715Z" fill="#FF0000"/>
<path fill-rule="evenodd" clip-rule="evenodd" d="M23.6433 11.9648H23.1734H23.172C22.9745 12.2584 23.8973 12.4983 23.8973 12.4983L23.9693 12.3783C23.6264 12.3444 23.6433 11.9648 23.6433 11.9648ZM24.2769 11.9818L23.9509 11.9648C23.8973 12.2753 24.1146 12.2118 24.1146 12.2118L24.2769 11.9818Z" fill="white"/>
<path fill-rule="evenodd" clip-rule="evenodd" d="M22.4372 9.74609C22.1973 9.74609 21.5482 10.5758 21.987 11.0161H21.4268C21.043 10.4884 22.1747 9.74609 22.4372 9.74609ZM13.4355 11.9567C13.4355 12.7187 13.808 13.3678 14.34 13.6233L14.3443 13.6289C13.5463 13.4392 12.9912 12.7152 13.0151 11.8953C13.0391 11.0755 13.6354 10.3851 14.4431 10.2422C13.8588 10.4651 13.4355 11.1481 13.4355 11.9567ZM14.4233 14.2752V14.0564C14.5652 14.0638 14.7074 14.0533 14.8467 14.0254V14.4558C14.6954 14.423 14.5517 14.3617 14.4233 14.2752ZM15.109 15.2038C15.1259 15.1431 14.5558 14.8101 14.2454 14.7297C14.1156 14.6944 14.0154 14.8525 13.9998 14.9131C13.9843 14.9738 13.9998 15.1615 14.124 15.1954C14.4345 15.2758 15.0935 15.2659 15.109 15.2038ZM15.0625 15.7669C15.0625 15.7091 14.498 15.503 14.2059 15.4847C14.0832 15.4762 14.0197 15.6343 14.0154 15.6921C14.0112 15.75 14.0507 15.9165 14.1735 15.925C14.467 15.949 15.0597 15.8304 15.0625 15.7726V15.7669ZM14.3047 16.182C14.2158 16.182 14.182 16.3034 14.1834 16.3457C14.1848 16.388 14.2271 16.5037 14.316 16.5009C14.5277 16.4924 14.9426 16.3598 14.9412 16.3175C14.9398 16.2751 14.5108 16.1749 14.2991 16.182H14.3047ZM13.7615 22.798C13.6143 22.5159 13.6528 22.1727 13.8589 21.9302C13.9768 21.9259 14.094 21.9486 14.2018 21.9965C14.1214 22.0755 13.7615 22.482 13.7615 22.798ZM14.9879 22.8948C14.9355 23.1685 15.0685 23.4442 15.3153 23.5736C15.3676 23.6002 15.423 23.6201 15.4804 23.6328L15.5523 23.6427H15.5848C15.5848 23.6427 15.2306 23.3097 15.3731 22.9964C15.2571 22.9262 15.1234 22.891 14.9879 22.8948ZM19.9846 11.76C20.1633 11.7193 20.3508 11.7598 20.4968 11.8707C20.6428 11.9815 20.7322 12.1513 20.7409 12.3344C20.7409 13.0131 20.2103 13.2883 19.7715 13.2897C21.8021 13.2953 21.0838 10.6607 19.9789 11.7643L19.9846 11.76ZM19.3215 16.1282C19.5318 16.3398 19.5981 17.6099 18.6244 17.6099L18.6188 17.6141C18.9702 16.6658 17.9386 15.8615 16.948 15.3295C17.5637 15.5418 18.2089 15.6561 18.8601 15.6681C19.3893 15.1305 19.6038 14.2838 19.6038 14.2838C19.0393 14.0933 18.8305 13.3228 19.1804 12.9531H19.1973C18.9927 13.8393 20.2769 14.1215 20.2769 14.1215C20.2769 14.3854 19.6348 15.8163 19.3215 16.1282ZM14.8198 11.508C15.0655 11.4833 15.2856 11.6606 15.3137 11.906C15.3214 12.0249 15.2808 12.142 15.2011 12.2307C15.1215 12.3194 15.0094 12.3722 14.8903 12.3773C14.6443 12.4021 14.4238 12.225 14.395 11.9794C14.395 12.3519 14.697 12.6539 15.0695 12.6539H15.0865C15.1281 12.8082 15.1251 12.9711 15.078 13.1238C15.4421 12.8063 15.7455 12.4182 15.7455 11.9808C15.7404 11.6469 15.4919 11.367 15.1609 11.3225C14.83 11.278 14.5163 11.4823 14.4232 11.803C14.486 11.6353 14.6411 11.5199 14.8198 11.508ZM16.3198 18.3364L16.3308 18.3397L16.3198 18.3421V18.3364ZM16.3308 18.3397C16.9704 18.2001 16.9732 17.6278 16.475 17.3359C16.5228 17.342 16.57 17.3519 16.6162 17.3656C16.9605 17.4728 17.1778 17.7776 17.1016 18.0457C17.0262 18.311 16.6772 18.4409 16.3308 18.3397ZM16.4229 15.0716C16.0594 14.905 15.6873 14.7581 15.3081 14.6313V14.2715C15.5978 14.3996 15.8599 14.5827 16.08 14.8105C16.1859 14.908 16.3007 14.9954 16.4229 15.0716ZM15.497 21.0617C16.5427 21.0617 20.1538 18.7531 20.1538 18.7531C19.2605 18.7531 18.9007 18.612 18.9007 18.612L18.849 18.6387L18.849 18.6387C18.6309 18.751 18.216 18.9648 17.4035 19.4432C17.1169 19.6124 16.8681 19.7992 16.6307 19.9774L16.6307 19.9774L16.6307 19.9774L16.6306 19.9774L16.6306 19.9774L16.6306 19.9774L16.6306 19.9774C16.2742 20.245 15.9437 20.493 15.5507 20.6328C15.4719 20.6626 15.3879 20.6765 15.3037 20.6737C15.2477 20.6689 15.1894 20.663 15.1303 20.657L15.1302 20.657L15.1301 20.657L15.1301 20.6569C15.0313 20.6469 14.9305 20.6366 14.8352 20.6313V17.3222C14.8461 17.2008 14.8072 17.0802 14.7273 16.9881C14.6475 16.896 14.5336 16.8404 14.4119 16.834V20.6963C14.1913 20.8024 14.0149 20.9827 13.9138 21.2057C13.9138 21.2057 13.3747 21.1351 13.3902 22.1314C13.3902 21.8675 13.7825 21.4046 14.0549 21.4046C14.0605 21.0674 15.0511 21.0674 15.497 21.0674V21.0617ZM24.4772 26.4044L24.5128 26.4042V26.4099C25.5444 27.4414 24.2518 29.0953 24.2518 29.0896C22.6699 29.0896 22.0433 29.3083 22.0433 30.2298C21.819 29.98 21.7456 28.758 23.7536 28.8652C24.3012 28.8935 24.4296 27.464 24.0486 27.0406L24.0328 27.0399C23.7666 27.0268 22.8557 26.9819 22.0151 25.3755C22.3175 25.3292 22.6256 25.3369 22.9253 25.3981C23.0296 26.4144 24.1555 26.4066 24.4772 26.4044ZM24.9265 30.3555H24.6556C24.6513 30.6141 24.8188 30.8444 25.0662 30.9199C24.9279 30.7943 24.8249 30.4684 24.9265 30.3668V30.3555ZM22.3427 30.2246C22.1748 30.3925 22.2708 30.8568 22.3865 30.9725V30.981C22.1599 30.7966 22.0329 30.5166 22.0436 30.2246H22.3427ZM28.3795 15.7319C28.3795 14.3307 26.4561 14.5508 26.3615 15.6275C26.4462 14.8373 27.7317 14.7216 27.7317 15.7108C27.7317 16.1552 27.2777 16.5335 26.7647 16.9608C26.0985 17.5158 25.3328 18.1537 25.3328 19.1271C25.3328 20.073 25.8024 20.5921 26.2514 21.0884C26.7061 21.591 27.1397 22.0702 27.0431 22.9457C26.9702 23.3441 26.6254 23.6351 26.2204 23.6399C25.2185 23.6399 24.6837 23.2166 24.3718 22.614C24.6893 23.4607 25.2496 24.1169 26.4166 24.1169C27.6245 24.1169 27.7332 23.2237 27.7332 23.0162C27.7332 22.1336 27.267 21.5923 26.8068 21.058C26.3584 20.5373 25.9156 20.0231 25.9156 19.2062C25.9171 18.3411 26.627 17.7489 27.2843 17.2005C27.8515 16.7274 28.3795 16.2869 28.3795 15.7319ZM14.4177 23.2445C14.4177 23.2445 14.199 23.0356 14.199 22.4994C14.199 22.4994 14.5151 22.4585 14.6265 22.5714C14.4854 22.767 14.4121 23.0034 14.4177 23.2445ZM28.0942 19.5341C27.6125 19.5348 27.2101 19.9012 27.1643 20.3808C27.2016 20.241 27.2903 20.1205 27.4127 20.0435C27.9771 19.6286 29.0679 20.4668 28.4428 21.3305C28.8589 21.1646 29.0983 20.7264 29.0131 20.2866C28.9279 19.8469 28.5422 19.5298 28.0942 19.5313V19.5341ZM23.8131 30.3714H23.8173V30.3672L23.8131 30.3714ZM23.8131 30.3714H23.4899C23.4575 30.9909 23.854 31.077 23.854 31.077C23.6876 30.9133 23.6584 30.532 23.8131 30.3714ZM14.6054 27.0586C14.5572 27.0589 14.5094 27.068 14.4643 27.0854C14.3043 27.205 14.2127 27.3951 14.2188 27.5948C14.2824 27.7931 14.4856 27.9112 14.6894 27.8683C14.8932 27.8255 15.0316 27.6355 15.01 27.4284C14.9884 27.2213 14.8137 27.0641 14.6054 27.0642V27.0586ZM16.4243 30.0684H16.8956C16.5965 30.3689 16.7715 30.8233 16.9083 30.9602C16.9083 30.9602 16.4243 30.8247 16.4243 30.0684ZM18.3577 25.2928C18.3577 24.3875 19.4943 23.9009 20.576 23.4377C21.5582 23.0172 22.4951 22.6161 22.4951 21.9385C22.4951 21.7123 22.4046 21.4954 22.2436 21.3363C22.0827 21.1773 21.8648 21.0892 21.6386 21.0919C21.7402 21.1935 22.2778 22.3506 20.7326 22.3506C19.3356 22.8177 16.2918 25.4635 18.4042 26.3808C18.4042 26.6475 18.3676 28.6259 17.0989 28.4707C15.2645 28.2449 14.8143 29.0013 15.1657 29.8508C15.1657 28.7429 15.8341 28.7626 16.772 28.7902C16.926 28.7947 17.0873 28.7995 17.2542 28.7995C17.995 28.7995 19.0759 27.8639 19.0759 26.2891C19.0802 26.2947 18.3577 26.0181 18.3577 25.2928ZM14.8467 22.8828V26.3514C14.8467 26.4657 14.3613 26.5602 14.1609 26.5574V26.1835H14.4234V23.2441C14.4234 23.2441 14.6125 22.8828 14.8467 22.8828ZM15.5522 30.8221C15.5522 30.8221 15.1868 30.2464 15.5776 29.8555H15.1656C15.0005 30.5737 15.5522 30.8221 15.5522 30.8221ZM17.7607 30.0781H18.1022C18.0105 30.1698 18.1601 30.5946 18.3774 30.8133C18.3774 30.8133 17.7607 30.6101 17.7607 30.0781Z" fill="#6672B8"/>
<path d="M38.4766 23.992L38.4427 23.9271L38.4201 23.8565C38.3439 23.6167 38.2042 23.1693 37.8359 23.151C37.7331 23.1472 37.6317 23.1764 37.5466 23.2342C37.5572 23.1317 37.535 23.0284 37.4831 22.9393C37.294 22.6232 36.834 22.7093 36.5856 22.7559L36.5137 22.7686H36.4361C36.1849 22.7686 35.7164 22.7686 35.5894 23.1044C35.5543 23.2015 35.5504 23.307 35.5781 23.4064C35.4844 23.3639 35.3794 23.353 35.2789 23.3754C34.9191 23.4572 34.8556 23.9229 34.826 24.1712L34.8161 24.2446L34.7935 24.3152C34.7131 24.5536 34.5649 24.9982 34.8514 25.2296C34.932 25.2932 35.0309 25.3294 35.1336 25.3326C35.0636 25.4085 35.02 25.505 35.0094 25.6078C34.9784 25.9747 35.4003 26.1722 35.6275 26.2837L35.6938 26.3176L35.7545 26.3599C35.9563 26.5095 36.333 26.7832 36.6407 26.5885C36.7266 26.5309 36.7918 26.4473 36.8269 26.35C36.8776 26.4396 36.9558 26.5104 37.0499 26.5518C37.39 26.6929 37.7117 26.3571 37.8853 26.1736L37.9361 26.1214L37.9954 26.0763C38.2014 25.9351 38.5824 25.6529 38.4864 25.3044C38.4586 25.2046 38.3992 25.1164 38.3171 25.0532C38.4185 25.0323 38.5105 24.9794 38.5796 24.9022C38.8223 24.6284 38.5979 24.2136 38.4766 23.992Z" fill="white"/>
<path fill-rule="evenodd" clip-rule="evenodd" d="M36.4364 22.9826C36.0957 22.9799 35.2024 22.9728 36.3215 24.0806C36.3772 24.0456 36.4376 24.0185 36.5008 24.0002C36.5318 23.7744 36.5657 23.5458 36.5657 23.5458H36.6136L36.7548 23.9833C36.8156 23.9889 36.8754 24.0026 36.9326 24.0242C37.8342 22.7397 36.9569 22.9038 36.6243 22.966C36.5842 22.9735 36.552 22.9796 36.5318 22.9814C36.5114 22.9832 36.478 22.983 36.4364 22.9826ZM36.1028 25.7548L36.4627 25.3738H36.4683C36.5212 25.3923 36.5762 25.4041 36.632 25.4091C36.8656 26.9109 36.1594 26.3892 35.8877 26.1884L35.8877 26.1884C35.854 26.1635 35.827 26.1436 35.8093 26.133C35.792 26.1227 35.7626 26.1087 35.7259 26.0913C35.4215 25.9466 34.6168 25.5643 36.0788 25.0605C36.1164 25.1264 36.164 25.1859 36.22 25.2369C36.1452 25.4698 36.0605 25.7294 36.0605 25.7294L36.1028 25.7548ZM35.9688 24.7565V24.7L35.5342 24.4856L35.5455 24.4376H36.0239C36.051 24.3648 36.0901 24.297 36.1396 24.2372C35.1983 22.9787 35.0818 23.8661 35.0376 24.203C35.0323 24.2439 35.028 24.2766 35.0234 24.2965C35.0188 24.3164 35.0083 24.3478 34.9951 24.387C34.8875 24.7086 34.605 25.5522 35.9886 24.844C35.9823 24.8151 35.9775 24.7859 35.9745 24.7565H35.9688ZM37.2375 25.1448C37.2854 25.0856 37.3231 25.0189 37.349 24.9473H37.3547C38.8551 25.1884 38.15 25.6916 37.8707 25.891C37.8345 25.9169 37.8055 25.9376 37.7893 25.952C37.7743 25.9653 37.7524 25.9886 37.7251 26.0177L37.7251 26.0177L37.7251 26.0177C37.495 26.2625 36.8838 26.9127 36.8523 25.3875C36.91 25.3739 36.9659 25.3535 37.0188 25.3269L37.4421 25.6345L37.4802 25.602L37.2375 25.1448ZM38.2379 24.0098C38.23 23.9911 38.2201 23.9597 38.2078 23.9206C38.1061 23.597 37.8377 22.7433 37.1301 24.1509C37.1934 24.2012 37.2478 24.2618 37.291 24.3301L37.7637 24.2483L37.7835 24.2934L37.3855 24.5757C37.3855 24.5864 37.388 24.5962 37.3905 24.6062C37.3926 24.6146 37.3948 24.623 37.3954 24.6321C37.3975 24.6617 37.3975 24.6914 37.3954 24.721C38.8719 25.1691 38.4475 24.3889 38.2866 24.093L38.2866 24.0929C38.2671 24.0571 38.2514 24.0284 38.2435 24.0098H38.2379ZM36.298 24.5169C36.3623 24.3793 36.4951 24.2865 36.6463 24.2734L36.6407 24.2777C36.8109 24.2631 36.9731 24.3523 37.0521 24.5038C37.1311 24.6552 37.1113 24.8393 37.0019 24.9705C36.931 25.0553 36.8297 25.109 36.7197 25.1201C36.5684 25.1332 36.4217 25.0647 36.3347 24.9402C36.2477 24.8158 36.2337 24.6544 36.298 24.5169Z" fill="#FF0000"/>
<path d="M34.6933 16.5848C34.8228 17.3212 35.3832 17.9071 36.1131 18.0693C36.843 18.2314 37.5988 17.9379 38.0279 17.3255C38.457 16.7132 38.4749 15.9026 38.0733 15.2719C37.6717 14.6411 36.9297 14.3144 36.1933 14.4441C35.1885 14.6219 34.5174 15.5797 34.6933 16.5848Z" fill="white"/>
<path fill-rule="evenodd" clip-rule="evenodd" d="M37.2824 14.8318C36.9608 14.6562 36.589 14.5955 36.2282 14.6596C36.1587 14.6729 36.0899 14.6899 36.0222 14.7104C36.3121 14.7102 36.5924 14.8138 36.8125 15.0025C36.9598 14.9227 37.1181 14.8651 37.2824 14.8318ZM35.6484 14.8813C36.0046 14.7894 36.3832 14.8597 36.6828 15.0732H36.687C36.5725 15.14 36.4527 15.2187 36.3187 15.3066L36.3046 15.3159C35.9462 15.1028 35.5384 15.1607 35.2251 15.2679C35.3419 15.1147 35.4853 14.9837 35.6484 14.8813ZM35.7739 15.838L35.8529 15.7858L36.3102 15.4838L36.4301 15.402C36.5627 15.3131 36.6813 15.2355 36.7928 15.172L36.9169 15.1042C37.0873 15.0156 37.2732 14.961 37.4645 14.9434C37.6189 15.0559 37.7525 15.1943 37.8596 15.3526C37.3995 15.5177 36.9522 15.7759 36.0166 16.3644C35.9644 16.2402 35.7852 15.8606 35.7739 15.838ZM38.0939 15.8882C38.0605 15.7402 38.0063 15.5977 37.9331 15.4648C37.473 15.6271 37.0285 15.8882 36.0718 16.4851C36.1042 16.5655 36.1861 16.7673 36.2129 16.8209C37.1259 16.605 37.8301 16.2508 38.0939 15.8882ZM38.0938 16.6131C38.1339 16.4344 38.143 16.2501 38.1206 16.0684C37.7495 16.4719 36.9677 16.7739 36.2537 16.9588C36.3115 17.0999 36.4667 17.4851 36.4724 17.5021L36.5048 17.4935L36.5048 17.4935C36.6115 17.4653 36.9399 17.3785 37.0947 17.3285C37.1469 17.3116 37.1977 17.2946 37.2471 17.2749C37.364 17.2336 37.4773 17.1826 37.5858 17.1225C37.6372 17.0948 37.6867 17.0636 37.7339 17.0293C37.8909 16.9262 38.0167 16.7823 38.098 16.6131H38.0938ZM36.7265 17.8651C36.5638 17.887 36.3987 17.8842 36.2368 17.8566C36.3145 17.7931 36.3867 17.7233 36.4527 17.6477L36.6023 17.6096C36.7406 17.5744 36.8902 17.5348 37.0426 17.4883C36.9693 17.6376 36.8608 17.7669 36.7265 17.8651ZM35.2263 15.7405C35.2701 15.7405 35.3167 15.7405 35.3675 15.732C35.4668 15.7305 35.5662 15.7342 35.6652 15.7433L36.1817 15.4018C35.8077 15.2184 35.3787 15.3412 35.0979 15.4667C35.0412 15.5676 34.9962 15.6746 34.9639 15.7857C35.0499 15.7633 35.1377 15.7482 35.2263 15.7405ZM34.9132 16.5384C34.8792 16.3397 34.8821 16.1364 34.9216 15.9387V15.9429C35.0204 15.912 35.122 15.8912 35.225 15.8809C35.2506 16.5857 35.5188 17.2601 35.9842 17.7901C35.4264 17.5983 35.0164 17.1192 34.9132 16.5384ZM36.1366 17.7671C35.6629 17.2505 35.3887 16.5821 35.3633 15.8818C35.4565 15.8792 35.5498 15.882 35.6427 15.8902C35.7655 16.1457 35.8374 16.3037 35.8981 16.4448L35.9107 16.4747C35.9248 16.508 35.9387 16.5409 35.9517 16.5746C35.9814 16.6452 36.0688 16.8668 36.0688 16.8668L36.1211 16.998L36.3497 17.5624C36.2892 17.6408 36.2173 17.7098 36.1366 17.7671ZM37.0002 17.8097C37.1409 17.7676 37.2749 17.7059 37.3982 17.6262C37.4632 17.5237 37.5157 17.4138 37.5548 17.2988C37.4459 17.3517 37.3343 17.3988 37.2204 17.4399C37.1736 17.5772 37.0986 17.7031 37.0002 17.8097ZM37.9399 17.0527C37.8632 17.187 37.7682 17.31 37.6577 17.4182H37.6506C37.6811 17.3497 37.7061 17.279 37.7254 17.2065C37.8012 17.1615 37.8729 17.11 37.9399 17.0527Z" fill="#FF0000"/>
<path d="M6.59475 24.3152L6.57217 24.2446L6.56229 24.1712C6.52983 23.9229 6.46915 23.4572 6.10932 23.3754C6.00886 23.3531 5.90389 23.364 5.81015 23.4064C5.8383 23.3072 5.83485 23.2016 5.80028 23.1044C5.66763 22.7615 5.19913 22.7657 4.9536 22.7686H4.87881L4.80684 22.7559C4.55848 22.7093 4.10127 22.6232 3.90936 22.9393C3.85789 23.0285 3.83615 23.1318 3.84727 23.2342C3.76175 23.1762 3.65988 23.147 3.55657 23.151C3.18968 23.1693 3.04857 23.6167 2.97236 23.8565L2.94979 23.9271L2.91592 23.992C2.79456 24.2136 2.5716 24.6242 2.81291 24.9022C2.88065 24.9778 2.97052 25.0302 3.06973 25.0518C2.98764 25.115 2.92824 25.2031 2.9004 25.303C2.80444 25.6572 3.18262 25.9295 3.39147 26.0748L3.45074 26.12L3.50295 26.1722C3.67511 26.3557 3.99685 26.6943 4.33693 26.5504C4.43107 26.5089 4.50927 26.4382 4.55989 26.3486C4.59498 26.4459 4.66025 26.5295 4.74616 26.5871C5.0552 26.7861 5.43056 26.5081 5.63235 26.3585L5.69303 26.3162L5.75935 26.2823C5.98655 26.175 6.40989 25.9732 6.37743 25.6064C6.36673 25.5039 6.32374 25.4076 6.25466 25.3312C6.35728 25.3276 6.45612 25.2916 6.53689 25.2282C6.82476 24.9982 6.67518 24.5536 6.59475 24.3152Z" fill="white"/>
<path fill-rule="evenodd" clip-rule="evenodd" d="M4.76756 23.5462L4.62645 23.9836H4.63209C4.56907 23.9872 4.50685 23.9995 4.44723 24.0203C3.54557 22.7358 4.42292 22.8999 4.75552 22.9621C4.79562 22.9696 4.8278 22.9756 4.848 22.9775C4.8685 22.9793 4.90201 22.979 4.94381 22.9787C5.28473 22.9757 6.17715 22.9681 5.05967 24.0767C5.00352 24.0436 4.94327 24.018 4.88045 24.0005C4.84941 23.7748 4.81695 23.5462 4.81695 23.5462H4.76756ZM5.40653 24.7584C5.40285 24.7865 5.39767 24.8143 5.39101 24.8417C6.77699 25.5511 6.49681 24.7068 6.39075 24.3872L6.39075 24.3872L6.39075 24.3872C6.37803 24.3488 6.36781 24.3181 6.36328 24.2984C6.3587 24.2786 6.3544 24.2458 6.34903 24.2049C6.30483 23.8681 6.18839 22.9807 5.24707 24.2392C5.2963 24.2992 5.33539 24.3669 5.36278 24.4395H5.84257L5.85386 24.4875L5.40653 24.702V24.7584ZM3.98002 24.7219C3.97791 24.6923 3.97791 24.6626 3.98002 24.633C3.98002 24.6204 3.98287 24.6084 3.98568 24.5967C3.98728 24.5899 3.98887 24.5832 3.9899 24.5766L3.59196 24.2943L3.61171 24.2492L4.08444 24.331C4.12782 24.2624 4.18272 24.2018 4.24672 24.1518C3.54048 22.7556 3.27137 23.5986 3.16876 23.92L3.16876 23.92C3.15594 23.9602 3.14572 23.9922 3.13757 24.0107C3.13009 24.0277 3.11579 24.0538 3.09789 24.0866L3.09789 24.0866L3.09788 24.0866L3.09788 24.0866C2.9403 24.3747 2.50378 25.173 3.98002 24.7219ZM5.16556 25.2344C5.22166 25.183 5.26928 25.123 5.30667 25.0566H5.31232C6.77332 25.5596 5.97026 25.9415 5.66504 26.0867C5.6277 26.1044 5.59781 26.1186 5.58043 26.1291C5.56295 26.1396 5.53625 26.1595 5.50291 26.1843C5.23224 26.3858 4.52405 26.9129 4.75774 25.4052C4.81241 25.4013 4.86641 25.3908 4.91861 25.3741L5.28268 25.7509L5.32502 25.7255L5.16556 25.2344ZM4.36255 25.3327L3.93921 25.6403L3.90111 25.6079L4.14382 25.1507C4.09593 25.0915 4.05826 25.0247 4.03234 24.9531C2.52279 25.1959 3.24261 25.7101 3.51663 25.9058C3.55 25.9296 3.57675 25.9488 3.59207 25.9621C3.60745 25.9755 3.63018 25.9994 3.65852 26.0293L3.65853 26.0293C3.89034 26.2737 4.49763 26.914 4.52906 25.3976C4.47119 25.3826 4.4153 25.3608 4.36255 25.3327ZM4.5719 24.299C4.7348 24.2475 4.91271 24.299 5.02297 24.4295C5.13235 24.5607 5.15215 24.7448 5.07317 24.8963C4.9942 25.0477 4.83192 25.1369 4.66172 25.1223C4.42981 25.1014 4.25832 24.8972 4.27789 24.6651C4.29303 24.495 4.40899 24.3505 4.5719 24.299Z" fill="#FF0000"/>
<path d="M4.99474 14.4363C3.99093 14.2601 3.03407 14.9302 2.85646 15.9338C2.67884 16.9373 3.3476 17.8951 4.35092 18.0741C5.35423 18.2532 6.31296 17.5857 6.49337 16.5827C6.57993 16.0992 6.47057 15.6012 6.18941 15.1985C5.90825 14.7959 5.4784 14.5216 4.99474 14.4363Z" fill="white"/>
<path fill-rule="evenodd" clip-rule="evenodd" d="M4.36547 14.9928L4.36565 14.9926L4.37111 14.9956L4.36547 14.9928ZM4.36565 14.9926C4.58576 14.8042 4.86596 14.7007 5.1557 14.7007C5.08802 14.6799 5.01924 14.663 4.94968 14.6499C4.58941 14.5857 4.21805 14.6465 3.89697 14.822C4.06077 14.8555 4.21871 14.9129 4.36565 14.9926ZM5.95849 15.2622C5.6438 15.1549 5.23599 15.0971 4.87756 15.3101L4.87755 15.3101C4.74209 15.2198 4.61932 15.138 4.5022 15.0674C4.80116 14.8538 5.17939 14.7835 5.53515 14.8755C5.69824 14.978 5.84162 15.109 5.95849 15.2622ZM5.1696 16.3566C4.23543 15.7752 3.78669 15.5099 3.32666 15.3448C3.43421 15.1865 3.56837 15.048 3.72319 14.9355C3.91395 14.9532 4.09945 15.0078 4.2693 15.0964L4.39489 15.1642C4.50637 15.2277 4.62349 15.3053 4.75614 15.3942L4.8775 15.476L5.33329 15.778L5.41232 15.8302C5.40103 15.8528 5.22322 16.2324 5.1696 16.3566ZM4.98209 16.8209C5.00044 16.773 5.08228 16.5655 5.11615 16.4851C4.1594 15.891 3.71348 15.6271 3.25345 15.4648C3.18064 15.5977 3.12696 15.7403 3.09399 15.8882C3.35647 16.2438 4.06062 16.598 4.98209 16.8209ZM3.44817 17.0215C3.49613 17.0555 3.54608 17.0866 3.59775 17.1147C3.70572 17.1748 3.81854 17.2258 3.93501 17.2671C3.97893 17.2846 4.02507 17.3 4.07047 17.3151L4.08742 17.3207C4.24218 17.3707 4.57061 17.4575 4.67731 17.4857L4.70973 17.4943L4.92986 16.951C4.21442 16.7732 3.43406 16.4641 3.06152 16.0605C3.03986 16.2423 3.04892 16.4265 3.08833 16.6052C3.16843 16.774 3.29279 16.9179 3.44817 17.0215ZM4.58548 17.6057L4.73365 17.6438C4.79967 17.7193 4.87189 17.7892 4.94956 17.8527C4.7877 17.8803 4.6226 17.8831 4.45989 17.8611C4.32588 17.7627 4.21748 17.6335 4.1438 17.4844C4.2962 17.5309 4.44437 17.5705 4.58548 17.6057ZM6.22652 15.7818C6.19071 15.6708 6.14341 15.5639 6.08541 15.4628C5.80318 15.3373 5.37984 15.2145 5.00024 15.3979L5.51672 15.7394C5.6157 15.7304 5.71509 15.7266 5.81447 15.7281C5.86386 15.7281 5.90901 15.7281 5.95558 15.7366C6.047 15.7441 6.13763 15.7592 6.22652 15.7818ZM5.19653 17.7818C5.66223 17.2514 5.93042 16.5764 5.95572 15.8711C6.05861 15.8805 6.16026 15.9003 6.25912 15.9304C6.30012 16.1279 6.303 16.3315 6.26758 16.5301C6.16434 17.1108 5.75435 17.59 5.19653 17.7818ZM5.28823 16.4278C5.34891 16.2852 5.42088 16.1286 5.54365 15.8732C5.6367 15.8678 5.73 15.8678 5.82305 15.8732C5.79599 16.5704 5.52247 17.2355 5.05116 17.75C4.96995 17.6928 4.89767 17.6238 4.83667 17.5454L5.06527 16.9809L5.11749 16.8497L5.23461 16.5576L5.28823 16.4278ZM3.98024 17.4263C3.86683 17.3851 3.75567 17.338 3.64722 17.2852C3.68524 17.4003 3.73738 17.5102 3.80244 17.6125C3.92587 17.692 4.05982 17.7537 4.20038 17.796C4.102 17.6895 4.02701 17.5635 3.98024 17.4263ZM3.25781 17.0469C3.32435 17.1047 3.39616 17.1562 3.4723 17.2007C3.48865 17.2731 3.51132 17.3439 3.54004 17.4124C3.42911 17.3045 3.33408 17.1815 3.25781 17.0469Z" fill="#FF0000"/>
<path fill-rule="evenodd" clip-rule="evenodd" d="M9.39236 32.697L8.92668 32.2539L9.14682 32.0182L9.65765 32.5051L10.0062 32.1382L8.96619 31.1504L8.83214 31.2915L7.43652 32.7563L7.9657 33.2614L8.57813 32.6194L9.04381 33.0639L9.39236 32.697ZM11.437 34.5868C11.5865 34.3817 11.6679 34.135 11.6699 33.8812C11.6713 33.8208 11.668 33.7604 11.66 33.7006C11.5552 33.1152 11.0013 32.7213 10.414 32.8144C9.77042 32.94 9.33693 33.5463 9.42618 34.1959C9.47414 34.4776 9.63328 34.7283 9.86787 34.8916C10.1005 35.0595 10.3904 35.128 10.6736 35.0821C10.984 35.0254 11.2588 34.8471 11.437 34.5868ZM10.8234 34.1404C10.9377 33.9809 11.1747 33.59 10.9207 33.4094C10.6667 33.2288 10.4042 33.5435 10.2631 33.7424C10.122 33.9414 9.92164 34.3069 10.1629 34.472C10.4042 34.6371 10.7062 34.3012 10.8205 34.1404H10.8234ZM13.0711 36.386C13.3696 36.2835 13.6149 36.0661 13.7526 35.782H13.7498C14.0476 35.1922 13.8486 34.5332 13.2884 34.2495C12.7282 33.9659 12.0819 34.1973 11.7841 34.7872C11.6375 35.0679 11.6091 35.3956 11.7051 35.6974C11.8968 36.2607 12.5042 36.5669 13.0711 36.386ZM13.0767 35.4407C13.1853 35.2639 13.2278 35.0545 13.1967 34.8494C13.1719 34.7844 13.1206 34.7331 13.0556 34.7083C12.7903 34.5672 12.5659 34.9185 12.4558 35.1316C12.3759 35.2754 12.3278 35.4347 12.3147 35.5987C12.3065 35.7111 12.3658 35.8176 12.4657 35.8696C12.5266 35.903 12.5984 35.9101 12.6647 35.8894C12.8501 35.7932 12.9951 35.6341 13.0739 35.4407H13.0767ZM14.3412 35.3514L14.4471 35.0607L14.5106 34.873L15.8878 35.3557L15.7199 35.834L15.377 35.7141L14.8125 37.327L14.1211 37.0843L14.6855 35.4714L14.3412 35.3514ZM17.8987 36.3672C17.8986 36.4099 17.8938 36.4525 17.8846 36.4942C17.8574 36.6344 17.7814 36.7603 17.6701 36.8498C17.7473 36.9528 17.7889 37.0781 17.7886 37.2068C17.7893 37.4377 17.6771 37.6543 17.488 37.7868C17.3029 37.8987 17.0801 37.9298 16.8714 37.8729L15.9231 37.6725L16.3464 35.6969L16.3874 35.5078L17.3187 35.704C17.6485 35.7521 17.8938 36.0339 17.8959 36.3672H17.8987ZM16.9207 36.9656C17.0079 36.9813 17.069 37.0607 17.0618 37.1491H17.059C17.0616 37.1692 17.0621 37.1895 17.0604 37.2097C17.0551 37.258 17.0331 37.3029 16.9983 37.3367C16.9441 37.3597 16.8834 37.3622 16.8276 37.3438L16.7485 37.3269C16.7729 37.2152 16.7902 37.1322 16.8109 37.0336L16.8109 37.0335L16.829 36.9473L16.9207 36.9656ZM16.9207 36.4543L16.9686 36.4642C17.1292 36.498 17.1464 36.4179 17.1591 36.3587L17.1591 36.3584C17.161 36.3396 17.161 36.3207 17.1591 36.3019C17.1608 36.2792 17.1554 36.2565 17.1436 36.237C17.0997 36.191 17.0415 36.1612 16.9785 36.1523L16.9207 36.4543ZM18.0144 38.0966L19.0262 36.0236L19.2435 35.5918L20.1029 38.2574L19.3338 38.1982C19.3338 38.1982 19.2209 37.8496 19.1758 37.7085L18.8117 37.6803C18.7482 37.8115 18.5916 38.1417 18.5916 38.1417L18.0144 38.0966ZM21.3093 37.6796L21.2388 35.9961L21.0455 36.0046L20.5078 36.0271L20.6009 38.2412L22.0643 38.1805L22.0431 37.6499L21.3093 37.6796ZM23.052 35.8027C23.052 35.8027 23.2651 37.1673 23.3131 37.4679L24.0384 37.355L24.1203 37.8799L22.6724 38.1071L22.3281 35.917L22.8601 35.8338L23.052 35.8027ZM27.5069 35.9945C27.5031 36.1818 27.3875 36.3486 27.2134 36.4179C27.1234 36.4571 27.0212 36.4571 26.9312 36.4179C26.7656 36.3302 26.6395 36.1829 26.5784 36.0058C26.4885 35.8289 26.4703 35.6242 26.5276 35.4343C26.576 35.3295 26.6661 35.2496 26.776 35.2142C26.9171 35.1591 27.0427 35.2142 27.219 35.3144L27.3813 35.4103L27.6509 34.987L27.4914 34.8825C27.2039 34.6897 26.8403 34.6497 26.5177 34.7753C26.2315 34.886 26.0013 35.1065 25.8785 35.3877C25.7563 35.6803 25.7563 36.0096 25.8785 36.3021C25.9879 36.5814 26.2041 36.8057 26.4792 36.9254C26.7543 37.045 27.0657 37.0503 27.3446 36.94C27.7373 36.8042 28.0071 36.4421 28.0248 36.027L28.0389 35.8351L27.5097 35.7955L27.5069 35.9945ZM28.3932 33.916L29.2116 35.3892L29.8551 35.0294L30.1147 35.4937L28.8348 36.2077L27.7539 34.273L28.2238 34.0106L28.3932 33.916ZM30.6341 32.4062L30.4775 32.5206L30.2037 32.7209L31.0998 33.9444C31.1289 33.9749 31.1429 34.0168 31.1379 34.0587C31.1158 34.1301 31.0694 34.1916 31.0066 34.2323C30.9604 34.2626 30.9049 34.2756 30.85 34.2689C30.8025 34.2609 30.7605 34.2332 30.7343 34.1927L29.8467 32.9834L29.2568 33.4152L30.1388 34.6189C30.2509 34.7848 30.4256 34.8979 30.6228 34.9322C30.8678 34.9553 31.112 34.8813 31.303 34.7262C31.7644 34.3875 31.7574 33.9373 31.557 33.6622L30.6341 32.4062ZM33.2461 33.0023C33.4137 32.8609 33.5157 32.6568 33.5283 32.4378L33.534 32.4364C33.5322 32.2583 33.4596 32.0882 33.3322 31.9637C33.2061 31.8284 33.0256 31.7574 32.8411 31.7704C32.8308 31.6283 32.7709 31.4945 32.6718 31.3922C32.5406 31.2609 32.3609 31.1898 32.1754 31.1957C31.9899 31.2015 31.8151 31.2839 31.6925 31.4232L31.0081 32.0865L32.5504 33.6782L33.2461 33.0023ZM31.894 31.9372L32.1085 32.1588L32.1424 32.1235C32.1814 32.0937 32.2068 32.0494 32.213 32.0007C32.2088 31.9643 32.1906 31.9308 32.1622 31.9076C32.1184 31.854 32.0535 31.7933 31.8997 31.9358L31.894 31.9372ZM32.7297 32.8036L32.4587 32.5214L32.5251 32.4649C32.5635 32.4266 32.6166 32.4068 32.6707 32.4106C32.7248 32.4144 32.7746 32.4414 32.8073 32.4847C32.8439 32.5165 32.8688 32.5598 32.8778 32.6074C32.8638 32.6634 32.8315 32.713 32.7861 32.7486L32.7297 32.8036Z" fill="#FBB700"/>
<path fill-rule="evenodd" clip-rule="evenodd" d="M33.1586 32.8986C33.2933 32.7837 33.3761 32.6194 33.3886 32.4428V32.4386C33.389 32.2982 33.333 32.1635 33.2334 32.0646C33.0967 31.916 32.8807 31.8707 32.6957 31.9517C32.7117 31.9064 32.7202 31.8587 32.7211 31.8106C32.7182 31.6898 32.6675 31.5751 32.58 31.4917C32.4558 31.3633 32.1355 31.2067 31.8067 31.5256L31.2253 32.09L32.5659 33.4729L33.1586 32.8986ZM8.72188 32.2604L9.18755 32.7049L9.03797 32.8602L8.5723 32.4171L7.96127 33.0577L7.64941 32.7529L8.93778 31.4025L8.97024 31.3672L9.80139 32.1588L9.65181 32.3141L9.14098 31.8258L8.72188 32.2604ZM11.5103 33.7209C11.5199 33.774 11.5246 33.8278 11.5244 33.8817C11.5212 34.1037 11.4492 34.3191 11.3184 34.4984C11.1606 34.7251 10.9197 34.8803 10.6481 34.9302C10.1399 35.0082 9.6618 34.6682 9.56858 34.1626C9.49248 33.5939 9.86995 33.0634 10.4322 32.949C10.9404 32.8695 11.4191 33.2104 11.5103 33.7166V33.7209ZM10.1414 33.665C10.2811 33.4688 10.6424 33.0427 11.0022 33.2981V33.2938C11.362 33.5507 11.0784 34.0375 10.9387 34.2322C10.799 34.427 10.4349 34.8545 10.0765 34.5991C9.71806 34.3437 10.0017 33.8611 10.1414 33.665ZM13.62 35.7233C13.4996 35.9725 13.2847 36.1635 13.0231 36.2539C12.5326 36.4089 12.008 36.1447 11.8405 35.6584C11.7571 35.3935 11.7836 35.1063 11.9139 34.8611C12.175 34.3446 12.7366 34.1414 13.2235 34.3869C13.7103 34.6325 13.881 35.2026 13.62 35.719V35.7233ZM13.2036 35.5115C13.1218 35.6738 12.9511 35.9546 12.7154 36.0323V36.028C12.6123 36.0618 12.4998 36.0511 12.4049 35.9984C12.0126 35.8008 12.2215 35.2773 12.3302 35.067C12.4388 34.8568 12.7323 34.3756 13.126 34.5746C13.2235 34.6203 13.2979 34.7039 13.3321 34.806C13.4097 35.0459 13.2855 35.3493 13.2036 35.5115ZM14.5822 35.116L14.5258 35.2726L14.8701 35.394C14.8391 35.4801 14.3057 37.0069 14.3057 37.0069L14.729 37.148L15.2935 35.5337L15.6364 35.6537L15.7083 35.4519L14.5978 35.0723L14.5822 35.116ZM17.7405 36.4715C17.747 36.439 17.7503 36.4059 17.7504 36.3728V36.3685C17.7462 36.1021 17.544 35.8805 17.279 35.8521L16.4888 35.6855L16.4789 35.7335L16.0923 37.568L16.8995 37.7373C17.0702 37.7848 17.2528 37.7614 17.4061 37.6724C17.5229 37.5931 17.6028 37.47 17.6276 37.3309C17.6364 37.2925 17.6411 37.2532 17.6417 37.2138C17.6399 37.053 17.5557 36.9044 17.4188 36.8201C17.5846 36.7762 17.71 36.6403 17.7405 36.4715ZM16.8769 35.9844C16.8599 36.0606 16.7682 36.4952 16.7527 36.5714L16.9432 36.6109C17.0201 36.6389 17.1055 36.6309 17.1758 36.5891C17.2461 36.5472 17.2938 36.476 17.3059 36.395C17.3113 36.3662 17.3141 36.3369 17.3143 36.3075C17.3154 36.2576 17.3016 36.2085 17.2748 36.1664C17.208 36.0813 17.11 36.0264 17.0025 36.014L16.8769 35.9844ZM16.5664 37.4473C16.5848 37.3697 16.692 36.8603 16.7075 36.7812L16.9446 36.8321C17.1038 36.858 17.2166 37.0015 17.2042 37.1623C17.2048 37.1907 17.2019 37.2191 17.1958 37.2469C17.1856 37.3339 17.1402 37.413 17.0702 37.4656C16.9836 37.5121 16.8821 37.5222 16.788 37.4939L16.5664 37.4473ZM19.2193 35.9844L19.9023 38.1011L19.4465 38.0658L19.2885 37.5761L18.724 37.5324L18.5039 37.9938L18.24 37.9727L19.1586 36.0916L19.2193 35.9844ZM19.2178 37.3562L18.8284 37.3252L19.0598 36.8496C19.0912 36.9487 19.1417 37.1113 19.179 37.2315L19.1794 37.2325L19.2178 37.3562ZM21.175 37.8378C21.175 37.7461 21.1031 36.1543 21.1031 36.1543H21.0551L20.6614 36.1712L20.7418 38.0946L21.9159 38.0466L21.906 37.8053L21.175 37.8378ZM22.9363 35.9746L23.1973 37.6397L23.9227 37.5254L23.9594 37.7639L22.7994 37.946L22.5002 36.0438L22.8883 35.9831L22.9363 35.9746ZM27.6578 36.002C27.6532 36.2477 27.5012 36.4665 27.2726 36.5566C27.148 36.611 27.0063 36.611 26.8817 36.5566C26.6791 36.4556 26.5241 36.2793 26.4499 36.0655C26.3458 35.8533 26.3281 35.609 26.4005 35.3839C26.4646 35.2434 26.5834 35.1353 26.7293 35.0848C26.941 35.0001 27.1357 35.0975 27.2937 35.1948L27.3332 35.2188L27.4518 35.0326L27.4123 35.0072C27.1629 34.8381 26.8462 34.8027 26.5656 34.9126C26.3129 35.0081 26.1094 35.2014 26.0011 35.4488C25.8932 35.7056 25.8932 35.995 26.0011 36.2518C26.2015 36.7568 26.7721 37.0052 27.2782 36.8078C27.6192 36.6932 27.854 36.3798 27.8681 36.0204V35.9724L27.6352 35.9554L27.6578 36.002ZM28.3393 34.1191C28.3393 34.1191 29.1169 35.5105 29.1606 35.591L29.8013 35.2325L29.9184 35.4428L28.8939 36.0157L27.9541 34.335L28.297 34.1431L28.3393 34.1191ZM30.6083 32.6133L30.5688 32.6429L30.4122 32.7572L31.2236 33.8635C31.274 33.9262 31.2969 34.0067 31.2871 34.0865C31.2591 34.1964 31.1912 34.292 31.0966 34.3546C31.0201 34.4077 30.9265 34.4304 30.8341 34.4181C30.7468 34.4031 30.6699 34.3519 30.6225 34.277L29.8209 33.1834L29.4653 33.4458L30.2612 34.531C30.3498 34.6672 30.4908 34.7606 30.6507 34.7892C30.8545 34.803 31.056 34.7395 31.2151 34.6114C31.599 34.3292 31.6046 33.975 31.4395 33.7507L30.6083 32.6133ZM32.2724 31.8114C32.1312 31.659 31.9661 31.6702 31.7855 31.8466L31.6924 31.9369L32.1157 32.3688L32.2568 32.2276C32.3232 32.1703 32.3642 32.0892 32.3711 32.0019C32.3668 31.926 32.331 31.8554 32.2724 31.8071V31.8114ZM33.0286 32.6063C33.0179 32.7034 32.9698 32.7925 32.8945 32.8547L32.7337 33.0141C32.6829 32.9563 32.316 32.5823 32.2595 32.5259L32.4317 32.3594C32.4987 32.2965 32.5884 32.2635 32.6802 32.268C32.772 32.2725 32.858 32.3142 32.9185 32.3834C32.9834 32.4401 33.023 32.5203 33.0286 32.6063Z" fill="white"/>
<path fill-rule="evenodd" clip-rule="evenodd" d="M21.1343 2.05882L19.9264 2.03906V2.33399L19.8516 5.92533L22.3775 5.97895L22.3958 5.13227L21.0708 5.10405C21.0821 4.6299 21.1357 2.06446 21.1357 2.06446L21.1343 2.05882ZM17.5096 5.07654C17.5343 5.19952 17.559 5.3226 17.584 5.44506L18.9105 5.17977L19.0686 5.96012L16.5652 6.46531L15.7961 2.65525L17.9947 2.21215L18.2769 2.1543L18.4336 2.93465L17.1297 3.19712C17.1654 3.36042 17.1952 3.50651 17.2263 3.65896L17.2263 3.65918L17.2264 3.65928L17.2264 3.65935L17.2264 3.65936C17.2407 3.72943 17.2552 3.80084 17.2708 3.87588L18.4985 3.62752L18.6565 4.40788L17.4246 4.65624C17.4532 4.79549 17.4814 4.93595 17.5096 5.07654ZM13.9023 3.26925L13.0768 3.65873C13.0768 3.65873 13.5382 4.63523 13.6963 4.97249L12.9978 5.29846C12.8397 4.9612 12.3783 3.9847 12.3783 3.9847L11.2903 4.50117L12.9455 8.0149L14.0349 7.50124L13.3562 6.0633L14.0618 5.73309L14.7405 7.17104L15.8285 6.6588L14.1662 3.14648L13.9023 3.26925ZM11.7856 7.60206C11.986 8.3302 11.7856 8.9892 11.1915 9.50286C10.3633 10.2188 9.11162 10.1285 8.39468 9.30106C7.61714 8.41205 7.68911 7.16461 8.55978 6.40119C9.01993 6.00787 9.6427 5.8631 10.2292 6.01312L10.5114 6.08227L10.3308 6.85557L10.0485 6.80195C9.67599 6.72716 9.40082 6.7201 9.1835 6.9106C9.0055 7.04714 8.89249 7.2517 8.87164 7.47506C8.85188 7.75728 9.00429 8.10442 9.31474 8.46285C9.538 8.73752 9.8573 8.9171 10.208 8.96521C10.3995 8.9781 10.5881 8.91237 10.7301 8.78318C10.9983 8.54794 11.1014 8.17604 10.9926 7.83631L10.8952 7.54138L11.7038 7.32265L11.7856 7.60206ZM24.6651 3.57897C24.6327 3.70456 24.7258 3.79629 25.0377 4.0263C25.4116 4.29583 25.9761 4.71211 25.7729 5.53762C25.5753 6.32363 24.7794 6.62843 24.1233 6.46474C23.539 6.31798 23.182 6.00894 23.0324 5.51646L22.9548 5.26245L23.7521 4.93648L23.8495 5.23282C23.9299 5.47695 24.0132 5.57008 24.2037 5.61806C24.2853 5.63508 24.3704 5.62099 24.4422 5.57855C24.5008 5.54467 24.5435 5.48879 24.5607 5.42332C24.6143 5.20601 24.517 5.09876 24.1599 4.84476C23.8029 4.59075 23.2667 4.20693 23.4614 3.41528C23.5411 3.09904 23.7445 2.82805 24.0259 2.66314C24.3447 2.47694 24.7248 2.42612 25.0814 2.52203C25.5953 2.64496 25.9956 3.04752 26.1158 3.56204L26.1652 3.81322L25.3707 4.08133L25.3058 3.75818C25.2451 3.46749 25.1167 3.39693 24.9756 3.36307C24.9053 3.34601 24.8311 3.35988 24.7718 3.40116C24.7124 3.44244 24.6736 3.50717 24.6651 3.57897ZM27.9092 6.09843L29.0282 6.66288L29.3866 5.95732L28.2676 5.39286L28.3602 5.21033C28.4332 5.06659 28.5024 4.93026 28.5795 4.7762L29.7676 5.37593L30.1261 4.67036L27.8682 3.52734L27.737 3.78699L26.1128 6.97898L28.3932 8.13046L28.7516 7.42489L27.5465 6.81246L27.9092 6.09843ZM31.5076 10.7031L33.0598 6.13672L32.4107 6.45705L28.7883 8.33103L29.4727 8.93782L30.2884 8.50601L30.8528 8.99144C30.7752 9.22287 30.5537 9.87199 30.5537 9.87199L31.5076 10.7031Z" fill="#FBB700"/>
<path fill-rule="evenodd" clip-rule="evenodd" d="M20.1226 2.23828L20.9368 2.25521C20.9368 2.25521 20.8775 5.11558 20.869 5.29621L22.1941 5.32443L22.1842 5.77882L20.052 5.73366L20.1226 2.33565V2.23828ZM17.2793 4.9116L17.2784 4.90708L17.197 4.5057L18.4261 4.25734L18.3457 3.85799L17.1166 4.10635L16.9035 3.048L18.206 2.78412L18.1255 2.38477L18.031 2.40452L16.0229 2.80952L16.7144 6.23575L18.8311 5.81241L18.7507 5.41306L17.4341 5.67412C17.4149 5.58068 17.3405 5.21382 17.2793 4.9116ZM13.3362 3.7472L13.9868 3.44663L14.0743 3.4043L15.5644 6.56947L14.8264 6.92084L14.1491 5.48149L13.0978 5.97679L13.7765 7.41615L13.0385 7.75764L11.5483 4.59388L12.2864 4.24251L12.9044 5.55628L13.9557 5.06097L13.3362 3.7472ZM11.0658 9.36054C11.6006 8.89063 11.7826 8.31771 11.6006 7.65589L11.5695 7.56276L11.1462 7.67847L11.1772 7.77443C11.3136 8.19271 11.185 8.65197 10.8513 8.93861C10.6715 9.10258 10.4321 9.18526 10.1895 9.16722C9.79274 9.11459 9.43122 8.91212 9.17908 8.60135C8.82912 8.20341 8.66543 7.81394 8.68801 7.47244C8.71236 7.19546 8.84901 6.94051 9.06619 6.76688C9.37382 6.49876 9.75906 6.54815 10.0977 6.61447L10.1895 6.63282L10.2812 6.22782L10.1895 6.20525C9.66169 6.0661 9.09924 6.19537 8.68518 6.55097C7.90059 7.24102 7.8385 8.36992 8.54407 9.17709C9.19054 9.92255 10.3182 10.0046 11.0658 9.36054ZM25.029 3.17302C25.2887 3.23652 25.4383 3.41009 25.5018 3.71772L25.5243 3.82496L25.9477 3.68385L25.9307 3.59918C25.8353 3.22774 25.5726 2.92176 25.2199 2.77111C24.8672 2.62047 24.4645 2.64227 24.1301 2.83011C23.8925 2.96872 23.7207 3.19704 23.6532 3.46371C23.4854 4.13067 23.9206 4.44256 24.269 4.69223L24.2698 4.69281C24.6184 4.94258 24.8343 5.11615 24.7468 5.47599C24.7187 5.59467 24.6432 5.69666 24.538 5.75822C24.4221 5.8273 24.2842 5.84904 24.1527 5.81889C23.8959 5.75398 23.7618 5.61569 23.6602 5.30665L23.6292 5.20787L23.1875 5.3885L23.2129 5.47317C23.3413 5.89651 23.6532 6.1618 24.1654 6.29021C24.7299 6.43133 25.4129 6.17591 25.5766 5.50421C25.7529 4.79864 25.2943 4.45997 24.9176 4.18621C24.5986 3.95196 24.4067 3.79533 24.473 3.53709C24.4897 3.41199 24.5597 3.3002 24.6649 3.23044C24.77 3.16068 24.9002 3.13974 25.022 3.17302H25.029ZM29.6886 5.10804L28.5018 4.50831H28.4947C28.4256 4.64378 28.0756 5.33665 28.0135 5.47212L29.1326 6.03657L28.9477 6.40064L27.8287 5.83619L27.2939 6.90018L28.499 7.50979L28.3141 7.87387L26.3809 6.89736L27.9134 3.86342L27.9571 3.77734L29.872 4.74397L29.6886 5.10804ZM32.721 6.52734L31.42 10.3656L30.7807 9.81529L31.0813 8.93474L30.3235 8.27574L29.5079 8.70755L29.1311 8.38016L32.5009 6.63741L32.721 6.52734ZM31.3886 8.04258C31.3226 8.2314 31.2585 8.41486 31.2254 8.51097C31.1336 8.4341 30.9803 8.30004 30.853 8.18871C30.8004 8.14266 30.7522 8.10049 30.7146 8.06787L31.5274 7.64453C31.4882 7.75739 31.4379 7.90148 31.3886 8.04258Z" fill="white"/>
</svg>
