<svg width="40" height="42" viewBox="0 0 40 42" fill="none" xmlns="http://www.w3.org/2000/svg">
<path d="M19.9053 38.4473C29.1689 38.4473 36.8389 30.7607 36.8389 21.5137C36.8389 12.25 29.1523 4.58008 19.8887 4.58008C10.6416 4.58008 2.97168 12.25 2.97168 21.5137C2.97168 30.7607 10.6582 38.4473 19.9053 38.4473ZM19.9053 35.625C12.0693 35.625 5.81055 29.3496 5.81055 21.5137C5.81055 13.6777 12.0527 7.40234 19.8887 7.40234C27.7246 7.40234 34.0166 13.6777 34.0166 21.5137C34.0166 29.3496 27.7412 35.625 19.9053 35.625ZM18.0791 29.3994C18.627 29.3994 19.0918 29.1338 19.4238 28.6191L27.0107 16.6826C27.1934 16.3506 27.4092 15.9854 27.4092 15.6201C27.4092 14.873 26.7451 14.3916 26.0479 14.3916C25.6328 14.3916 25.2178 14.6572 24.9023 15.1387L18.0127 26.1953L14.7422 21.9619C14.3438 21.4307 13.9785 21.2979 13.5137 21.2979C12.7998 21.2979 12.2354 21.8789 12.2354 22.6094C12.2354 22.9746 12.3848 23.3232 12.6172 23.6387L16.668 28.6191C17.083 29.167 17.5312 29.3994 18.0791 29.3994Z" fill="#179CFF"/>
</svg>
