<?xml version="1.0" encoding="UTF-8"?>
<svg width="22px" height="22px" viewBox="0 0 22 22" version="1.1" xmlns="http://www.w3.org/2000/svg" xmlns:xlink="http://www.w3.org/1999/xlink">
    <title>编组 9@2x</title>
    <g id="页面-1" stroke="none" stroke-width="1" fill="none" fill-rule="evenodd">
        <g id="新手版滚球列表" transform="translate(-1536.000000, -629.000000)">
            <g id="编组-18" transform="translate(1278.000000, 615.000000)">
                <g id="编组-9" transform="translate(258.000000, 14.000000)">
                    <rect id="矩形" x="0" y="0" width="22" height="22"></rect>
                    <g id="编组-14" transform="translate(4.000000, 0.000000)">
                        <path d="M0.500027782,13.0009993 C0.745487671,13.0009993 0.949636152,13.1778744 0.991972113,13.4111236 L1.00002778,13.5009993 L1,20.5839993 L7.22964899,16.58041 C7.46193401,16.4310839 7.77129093,16.4983354 7.92061702,16.7306205 C8.05335132,16.937096 8.01496258,17.2044679 7.84165186,17.3662113 L7.77040658,17.4215885 L6.62739772,18.156354 C7.38634255,19.0558722 7.7822902,20.0348766 7.74860153,21.0000769 L10.5000278,21.000019 C10.7761702,21.000019 11.0000278,21.2238766 11.0000278,21.500019 C11.0000278,21.7454788 10.8231526,21.9496273 10.5899034,21.9919633 L10.5000278,22.000019 L0.500027782,22.000019 L0.482360341,22.0007316 C0.459571979,21.9999058 0.436893388,21.997527 0.414490795,21.9936311 L0.500027782,22.000019 C0.466457532,22.000019 0.433659996,21.9967106 0.401943429,21.9904021 C0.37850514,21.9866143 0.354995121,21.9801299 0.332039271,21.9719602 C0.325134996,21.9686407 0.31805113,21.9659334 0.311046687,21.9630718 C0.291235033,21.9558765 0.272124532,21.9466395 0.253610031,21.9361765 C0.24783681,21.9319179 0.241416003,21.9280955 0.235090138,21.9241355 C0.21709755,21.9139108 0.200444854,21.902013 0.184490962,21.889035 C0.177348825,21.8821132 0.169500559,21.8753383 0.16187069,21.8683294 C0.148319819,21.8569886 0.135783583,21.8441367 0.123878102,21.8305119 C0.116564885,21.8211083 0.109304512,21.8122442 0.102350068,21.8031341 C0.0943037863,21.7935275 0.0866828458,21.782647 0.0794385443,21.7713781 L0.0720569217,21.7586978 C0.066988392,21.7503301 0.0621583431,21.7418019 0.0575761997,21.7331226 L0.0794385443,21.7713781 C0.0602789804,21.7415743 0.0446848587,21.7105017 0.0325473041,21.6786612 C0.0300392881,21.6712226 0.0273678395,21.6637054 0.024873532,21.6561079 C0.0179055883,21.6357048 0.0126662138,21.6152653 0.00874993803,21.5946939 C0.00764729642,21.5877725 0.00640800942,21.5804585 0.00532933963,21.5730924 C0.00192612376,21.550857 0.000250740846,21.5290186 -2.09889614e-14,21.5072274 C4.48783284e-05,21.5048414 2.77819966e-05,21.5024322 2.77819966e-05,21.500019 L0.000810881535,21.4724039 L0.000810881535,21.4724039 L2.77819966e-05,21.450822 L2.77819966e-05,13.5009993 C2.77819966e-05,13.2248569 0.223885407,13.0009993 0.500027782,13.0009993 Z M5.80228366,18.6869868 L2.203,20.9999993 L6.67905653,21.0007187 C6.73044322,20.2344387 6.42554349,19.4384188 5.80228366,18.6869868 Z" id="形状结合" fill="#17191D" fill-rule="nonzero"></path>
                        <path d="M12.1183346,-0.821971865 L1.11833464,12.1780281 C0.843369478,12.502987 1.07434706,13.0009993 1.50002778,13.0009993 L12.5000278,13.0009993 C12.7761702,13.0009993 13.0000278,12.7771416 13.0000278,12.5009993 L13.0000278,-0.499000744 C13.0000278,-0.964781877 12.4192023,-1.17754279 12.1183346,-0.821971865 Z M12.0000278,0.863999256 L12.0000278,12.0009993 L2.57702778,12.0009993 L12.0000278,0.863999256 Z" id="三角形备份-2" fill="#FFB001" transform="translate(6.999547, 6.000500) rotate(-270.000000) translate(-6.999547, -6.000500) "></path>
                    </g>
                </g>
            </g>
        </g>
    </g>
</svg>