<?xml version="1.0" encoding="UTF-8"?>
<svg width="22px" height="22px" viewBox="0 0 22 22" version="1.1" xmlns="http://www.w3.org/2000/svg" xmlns:xlink="http://www.w3.org/1999/xlink">
    <title>编组 3备份@2x</title>
    <g id="编组-3备份" stroke="none" stroke-width="1" fill="none" fill-rule="evenodd">
        <g>
            <path d="M11,0 C4.92486775,0 0,4.92486775 0,11 C0,17.0751322 4.92486775,22 11,22 C17.0751322,22 22,17.0751322 22,11 C22,4.92486775 17.0751322,0 11,0 Z M11,1 C16.5228475,1 21,5.4771525 21,11 C21,16.5228475 16.5228475,21 11,21 C5.4771525,21 1,16.5228475 1,11 C1,5.4771525 5.4771525,1 11,1 Z" id="矩形" fill="#ACACAC" fill-rule="nonzero"></path>
            <path d="M11,5 C11.2454599,5 11.4496084,5.17687516 11.4919443,5.41012437 L11.5,5.5 L11.5,8.5 L14.5,8.5 C14.7761424,8.5 15,8.72385763 15,9 C15,9.24545989 14.8231248,9.44960837 14.5898756,9.49194433 L14.5,9.5 L11.5,9.5 L11.5,12.5 C11.5,12.7761424 11.2761424,13 11,13 C10.7545401,13 10.5503916,12.8231248 10.5080557,12.5898756 L10.5,12.5 L10.5,9.5 L7.5,9.5 C7.22385763,9.5 7,9.27614237 7,9 C7,8.75454011 7.17687516,8.55039163 7.41012437,8.50805567 L7.5,8.5 L10.5,8.5 L10.5,5.5 C10.5,5.22385763 10.7238576,5 11,5 Z" id="形状结合" fill="#FFB001"></path>
            <path d="M14,15.5 C14.2761424,15.5 14.5,15.7238576 14.5,16 C14.5,16.2454599 14.3231248,16.4496084 14.0898756,16.4919443 L14,16.5 L8,16.5 C7.72385763,16.5 7.5,16.2761424 7.5,16 C7.5,15.7545401 7.67687516,15.5503916 7.91012437,15.5080557 L8,15.5 L14,15.5 Z" id="直线-6" fill="#FFB001"></path>
        </g>
    </g>
</svg>