<?xml version="1.0" encoding="UTF-8"?>
<svg width="22px" height="22px" viewBox="0 0 22 22" version="1.1" xmlns="http://www.w3.org/2000/svg" xmlns:xlink="http://www.w3.org/1999/xlink">
    <title>田径</title>
    <defs>
        <circle id="path-1" cx="11" cy="11" r="11"></circle>
        <path d="M5.65820313,1 C6.6476237,2.20735677 7.14233398,2.95076497 7.14233398,3.23022461 C6.15291341,3.84318034 5.2964681,4.1496582 4.57299805,4.1496582 L4.57299805,4.1496582 L4.05225611,3.55981445 L2.09793701,4.66760254 C1.78673558,4.39356839 1.50673689,4.12478327 1.25794093,3.86124715 L1.40658217,3.75094781 C2.56211335,2.86209335 3.56682902,1.92980788 4.42054674,0.953952977 L4.37839453,0.999952977 Z M3.84039453,0.999952977 L3.79893974,1.04704631 C2.9254221,1.99249505 1.90221089,2.89687658 0.729123641,3.76005248 L0.988468976,3.56382595 C0.632396236,3.15332255 0.354371421,2.7559486 0.154394531,2.3717041 C0.517513021,2.06609251 1.08779297,1.60885781 1.86523438,1 L1.86523438,1 L3.84039453,0.999952977 Z" id="path-3"></path>
        <path d="M2.72240536,0.862061968 C2.01825773,0.808765777 1.22308154,1.00617382 0.336876796,1.45428609 C-0.154781733,1.85243876 -0.108272944,2.2503066 0.476403163,2.6478896 C0.476403163,3.1442555 0.548485683,3.54934584 0.692650722,3.8631606 C0.600650396,4.17167297 0.554650233,4.40541727 0.554650233,4.56439351 C0.646650559,4.61810445 0.820610927,4.61810445 1.07653134,4.56439351 C1.03106675,4.67367565 1.03106675,4.77405813 1.07653134,4.86554097 C1.12199592,4.95702381 1.19738451,5.03040841 1.30269711,5.08569478 C1.36635678,5.33687479 1.55390989,5.42679945 1.86535645,5.35546875 C2.176803,5.28413805 2.42168419,5.28413805 2.6,5.35546875 C2.80224645,5.47606498 2.91813187,5.54308158 2.94765625,5.55651855 C3.38061523,5.75356445 4.05313416,5.35972443 4.50878906,4.77520752 C4.14099121,4.56439351 4.04623413,4.52185059 3.87886898,4.30255127 C3.77151489,4.12054301 3.78600399,3.97992085 3.87886898,3.72387837 C3.97173397,3.46783589 4.05342953,2.13366841 3.79308407,1.71588277 C3.53273861,1.29809712 3.37682431,1.02160787 2.72240536,0.862061968 Z" id="path-5"></path>
    </defs>
    <g id="田径" stroke="none" stroke-width="1" fill="none" fill-rule="evenodd">
        <g id="编组">
            <g id="矩形">
                <mask id="mask-2" fill="white">
                    <use xlink:href="#path-1"></use>
                </mask>
                <use id="蒙版" fill="#F7FCFF" opacity="0.900000036" xlink:href="#path-1"></use>
                <rect fill="#DCD4CD" mask="url(#mask-2)" x="-1" y="17" width="25" height="10"></rect>
                <rect fill="#C4B8AE" mask="url(#mask-2)" x="-1" y="17" width="25" height="1"></rect>
            </g>
            <g id="矩形备份" transform="translate(3.608714, 16.000000)" fill="#5C7CB8">
                <path d="M1.54327393,2.42883301 C1.13366699,2.32122803 0.834777832,2.5993042 0.795349121,3.081604 C0.761118178,3.18465831 0.944754448,3.42339994 1.2875061,3.58587646 C2.18903562,4.01323366 3.90951538,4.45361328 4.13543701,4.35101318 C4.37307739,4.30728149 4.58288574,3.59823608 4.48504639,3.27606201 C3.99810791,3.44470215 3.35887451,3.27001953 3.1,3.081604 C2.92741699,2.95599365 2.92741699,2.82409668 3.1,2.68591309 C2.33525391,2.58626302 1.81634521,2.50056966 1.54327393,2.42883301 Z" id="路径"></path>
                <path d="M14.9287502,1.0818763 C14.5191433,0.974271316 13.9808933,1.201225 14.0650275,1.67837364 C13.9991535,1.99394129 17.0990847,3.14178335 17.4051154,2.94778282 C17.7048144,2.72140564 17.8406865,1.77126759 17.6993428,1.7961903 C17.6514034,1.90022835 17.2596331,2.01971334 17.0115733,1.96131115 C16.6002644,1.86447428 16.3989933,1.64888577 16.40776,1.31454563 C15.6948248,1.23116939 15.2018215,1.15361295 14.9287502,1.0818763 Z" id="路径备份" transform="translate(15.905843, 2.012640) rotate(-80.000000) translate(-15.905843, -2.012640) "></path>
            </g>
            <path d="M9.5080853,6.1 C9.32916649,6.37773908 9.19458397,6.55520897 9.10433774,6.63240967 C8.74600577,6.93894299 8.45028435,7.07851377 8.31918149,7.21547852 C7.83779021,7.71839379 7.74441342,8.00905762 7.74441342,8.00905762 C7.74441342,8.00905762 7.71700864,8.05035807 7.66219907,8.13295898 C7.3076512,8.0828869 7.08532047,7.96909703 6.99520688,7.79158936 C6.92968154,7.66251615 7.17023702,7.59698554 7.31149106,7.37264404 C7.34682792,7.31652158 7.34682792,7.18857154 7.31149106,6.98879395 C7.23349588,6.9587091 7.18224669,6.92912739 7.1577435,6.90004883 C7.0835049,6.81194799 7.05470067,6.68626978 6.99520688,6.63240967 C6.72018073,6.38342671 6.38455014,6.2897583 6.38455014,6.2897583 C6.38455014,6.2897583 6.17623611,6.41241146 5.84548764,6.72506104 C5.79678251,6.77110098 5.72996936,6.85901195 5.64504819,6.98879395 C5.59660202,7.30021259 5.59660202,7.51208596 5.64504819,7.62441406 C5.81094174,8.00905762 5.96279721,8.00905762 6.14022641,8.23116455 C6.21131519,8.32015391 6.41132366,8.76941371 6.5025311,8.89217529 C6.79296798,9.28309177 7.20414153,9.70119629 7.57656674,9.70119629 C7.90282,9.70119629 8.54665952,9.28660822 9.5080853,8.4574321 L9.5080853,6.1 Z" id="路径-19备份-2" fill="#ECA58E" opacity="0.900000036"></path>
            <path d="M14.1227516,15.2842407 L15.0132057,15.9932202 C16.3437722,16.4650869 17.3365293,16.7674202 17.9914772,16.9002202 C18.9738991,17.0994202 18.7877907,17.1750488 18.9986061,17.2142029 C19.1702065,17.2142029 19.3181853,17.0515924 19.3896889,16.9002202 C19.5145566,16.635877 19.5145566,16.3627625 19.3896889,16.2498169 C18.3533871,15.5088294 17.4463723,15.0957754 16.5545754,14.9211426 C15.6627785,14.7465098 15.8400612,14.7091064 15.7221169,14.5852051 C15.5321144,14.7465098 15.3868652,14.8416925 15.0132057,15.0031128 C14.8580231,15.0701515 14.5612051,15.1638608 14.1227516,15.2842407 Z" id="路径-18备份-2" fill="#ECA58E" opacity="0.900000036"></path>
            <path d="M9.08436053,14.2572021 C8.64358091,14.6798706 8.34880959,15.0151164 8.20004657,15.2629395 C8.05128355,15.5107625 7.57699155,16.6817424 6.77717059,18.7758789 C6.77717059,18.8630371 6.83792092,18.9331665 6.95942157,18.9862671 C7.20148135,19.0920568 7.60053848,19.1331787 7.96723407,19.1331787 C8.04899066,18.981781 8.05865863,18.9141541 8.20004657,18.6948242 C8.98032,17.5137634 9.35385516,16.7724609 9.56747821,16.050415 C9.63661069,15.8096313 9.84176206,15.6059977 10.1829323,15.4395142 C9.88922358,15.1540368 9.68036941,14.9457034 9.55636981,14.8145142 C9.43237021,14.6833249 9.27503378,14.4975542 9.08436053,14.2572021 Z" id="路径-17备份-2" fill="#ECA58E" opacity="0.900000036"></path>
            <g id="路径-16备份-2" transform="translate(8.708714, 11.000000)">
                <mask id="mask-4" fill="white">
                    <use xlink:href="#path-3"></use>
                </mask>
                <use id="形状结合" fill="#5C7CB8" xlink:href="#path-3"></use>
            </g>
            <path d="M9.53105939,6.08659668 C9.19817365,7.1979248 8.58606952,8.35852051 10.5883889,11.8222656 C11.4080125,11.8222656 13.5474343,11.8222656 14.2017311,11.8222656 C14.2017311,10.5725098 13.0422899,9.68181152 13.0422899,8.02519531 C12.3217088,7.76103516 11.4080125,7.46013184 11.4080125,6.68144531 C11.4080125,5.90275879 12.0436326,5.61552734 12.6763231,5.61552734 C12.2333706,5.44462891 11.8106004,5.30611979 11.4080125,5.2 C10.5186896,6.06401367 9.89303856,6.3595459 9.53105939,6.08659668 Z" id="路径-10备份-2" fill="#CE4B6D" opacity="0.900000036"></path>
            <g id="路径-45" transform="translate(6.608714, 0.346436)">
                <mask id="mask-6" fill="white">
                    <use xlink:href="#path-5"></use>
                </mask>
                <use id="蒙版" fill="#ECA58E" opacity="0.900000036" xlink:href="#path-5"></use>
                <path d="M0,2.37280273 C0.752980777,2.93310547 1.50965121,2.37280273 1.50965121,2.37280273 C1.50965121,2.37280273 1.31137255,3.07151945 1.87133789,3.5 C2.46168668,3.07151945 2.5670057,2.94519043 2.5670057,3.65917969 C2.5670057,4.13517253 2.90274338,4.30045573 3.57421875,4.1550293 L4.38621635,3.65917969 L5.74836426,0 L-0.349531174,0 L-1,2.10012818 C-0.818846895,2.22915998 -0.485513562,2.3200515 0,2.37280273 Z" fill="#8A211E" mask="url(#mask-6)"></path>
            </g>
            <path d="M12.5498757,5.6 C14.5501198,7.01521727 15.6369932,7.89351317 15.8104958,8.2348877 C15.8387673,9.03548584 15.3905739,10.1385742 14.3694557,11.969751 C14.2017311,12.3717041 14.1227516,12.7386475 13.3150124,12.7386475 C12.9787331,12.7386475 11.6087136,11.5523682 13.5301003,10.7920166 C14.1752244,10.1255127 13.9948045,8.87470456 14.3694557,8.72282591 C13.6896055,8.48836953 12.9734678,8.1550362 12.2210427,7.72282591 C11.5461566,7.34512491 11.2087136,6.899764 11.2087136,6.38674316 C11.2087136,5.87372233 11.6557676,5.61147461 12.5498757,5.6 Z" id="路径-32备份" fill="#ECA58E" opacity="0.900000036"></path>
        </g>
    </g>
</svg>