<?xml version="1.0" encoding="UTF-8"?>
<svg width="22px" height="22px" viewBox="0 0 22 22" version="1.1" xmlns="http://www.w3.org/2000/svg" xmlns:xlink="http://www.w3.org/1999/xlink">
    <title>乒乓球备份@2x</title>
    <g id="页面-1" stroke="none" stroke-width="1" fill="none" fill-rule="evenodd">
        <g id="画板" transform="translate(-246.000000, -187.000000)" fill="#FF9124">
            <path d="M264.254902,199.54775 C263.484902,200.31775 262.237902,200.31775 261.469902,199.54775 C260.699902,198.77875 260.699902,197.53175 261.469902,196.76275 C262.237902,195.99375 263.484902,195.99375 264.254902,196.76275 C265.024902,197.53175 265.024902,198.77875 264.254902,199.54775 M253.471902,204.49275 C253.288902,204.30975 253.034902,204.21475 252.777902,204.23075 C252.519902,204.24675 252.280902,204.37375 252.122902,204.57675 L249.647902,207.77075 C249.591902,207.84175 249.522902,207.85575 249.526902,207.86475 L247.156902,205.50275 C247.152902,205.48475 247.165902,205.41575 247.236902,205.35975 L250.429902,202.88475 C250.633902,202.72675 250.760902,202.48775 250.776902,202.23075 C250.793902,201.97275 250.697902,201.71875 250.515902,201.53575 C249.180902,200.20075 248.495902,198.39175 248.588902,196.53875 L258.468902,206.41875 C256.612902,206.50975 254.805902,205.82675 253.471902,204.49275 M265.124902,189.88375 C261.280902,186.03875 255.025902,186.03875 251.181902,189.88375 L249.702902,191.36175 C248.906902,192.15775 248.299902,193.11375 247.913902,194.16475 L247.912902,194.16375 L247.903902,194.19575 C247.786902,194.51975 247.688902,194.85075 247.613902,195.19075 L247.546902,195.49675 L247.558902,195.50875 C247.089902,197.91075 247.843902,200.35975 249.508902,202.14675 L246.532902,204.45275 C246.224902,204.69375 246.032902,205.04575 246.009902,205.42075 C245.988902,205.75475 246.103902,206.06475 246.330902,206.29175 L248.715902,208.67675 C248.925902,208.88675 249.204902,208.99975 249.508902,208.99975 C249.534902,208.99975 249.560902,208.99975 249.586902,208.99775 C249.961902,208.97475 250.314902,208.78275 250.554902,208.47475 L252.861902,205.49875 C254.647902,207.16375 257.095902,207.91875 259.498902,207.44875 L259.510902,207.46075 L259.817902,207.39375 C260.126902,207.32575 260.428902,207.23575 260.723902,207.13275 L260.788902,207.11375 L260.786902,207.11175 C261.858902,206.72775 262.835902,206.11475 263.645902,205.30475 L265.124902,203.82575 C268.968902,199.98275 268.968902,193.72775 265.124902,189.88375" id="乒乓球备份"></path>
        </g>
    </g>
</svg>