<?xml version="1.0" encoding="UTF-8"?>
<svg width="22px" height="19px" viewBox="0 0 22 19" version="1.1" xmlns="http://www.w3.org/2000/svg" xmlns:xlink="http://www.w3.org/1999/xlink">
    <title>美式足球备份@2x</title>
    <g id="页面-1" stroke="none" stroke-width="1" fill="none" fill-rule="evenodd">
        <g id="画板" transform="translate(-506.000000, -189.000000)" fill="#FF9124">
            <path d="M517.484786,189 C522.307786,189 526.600786,192.393 527.714786,197.102 C528.362786,199.842 527.931786,202.665 526.499786,205.051 C526.418786,205.187 526.278786,205.279 526.121786,205.301 L526.121786,205.301 L521.069786,205.983 C520.126786,207.25 518.645786,208 517.061786,208 C514.585786,208 512.457786,206.147 512.109786,203.692 C512.058786,203.333 512.064786,202.939 512.123786,202.525 L512.123786,202.525 L511.520786,202.52 L511.214786,204.485 C510.980786,206.228 509.767786,207.563 508.124786,207.875 L508.124786,207.875 L507.686786,207.984 C507.645786,207.994 507.602786,208 507.560786,208 C507.461786,208 507.363786,207.971 507.277786,207.916 C507.156786,207.838 507.072786,207.713 507.046786,207.57 L507.046786,207.57 L506.017786,202.054 C505.988786,201.9 506.030786,201.741 506.131786,201.62 C506.230786,201.5 506.385786,201.448 506.536786,201.432 L506.536786,201.432 L510.625786,201.463 L511.118786,198.287 L507.657786,197.353 C507.522786,197.316 507.407786,197.227 507.338786,197.104 C507.268786,196.982 507.251786,196.837 507.290786,196.702 C508.581786,192.139 512.639786,189.044 517.388786,189 L517.388786,189 Z M510.099786,204.716 L507.579786,204.716 L507.974786,206.834 C509.052786,206.601 509.827786,205.81 510.099786,204.716 L510.099786,204.716 Z M517.061786,200.857 C515.892786,200.857 514.944786,201.809 514.944786,202.981 C514.944786,204.154 515.892786,205.104 517.061786,205.104 C518.230786,205.104 519.177786,204.154 519.177786,202.981 C519.177786,201.809 518.230786,200.857 517.061786,200.857 Z M517.062086,201.9091 C517.651086,201.9091 518.130086,202.3891 518.130086,202.9811 C518.130086,203.5721 517.651086,204.0541 517.062086,204.0541 C516.472086,204.0541 515.993086,203.5721 515.993086,202.9811 C515.993086,202.3891 516.472086,201.9091 517.062086,201.9091 Z M507.164786,202.487 L507.384786,203.664 L510.281786,203.664 L510.461786,202.513 L507.164786,202.487 Z M512.123786,198.647 L511.683786,201.471 L512.274786,201.475 L512.538786,199.672 C512.596786,199.27 512.427786,198.883 512.123786,198.647 L512.123786,198.647 Z M523.611786,195.476 C523.477786,195.306 523.230786,195.275 523.059786,195.412 C522.889786,195.547 522.861786,195.795 522.995786,195.966 C523.148786,196.159 523.293786,196.38 523.425786,196.62 C523.927786,197.534 524.221786,198.701 524.253786,199.907 C524.259786,200.121 524.433786,200.291 524.646786,200.291 L524.646786,200.291 L524.656786,200.291 C524.873786,200.285 525.045786,200.104 525.039786,199.887 C525.004786,198.557 524.676786,197.262 524.113786,196.239 C523.960786,195.961 523.791786,195.704 523.611786,195.476 Z" id="美式足球备份"></path>
        </g>
    </g>
</svg>