<?xml version="1.0" encoding="UTF-8"?>
<svg width="19px" height="22px" viewBox="0 0 19 22" version="1.1" xmlns="http://www.w3.org/2000/svg" xmlns:xlink="http://www.w3.org/1999/xlink">
    <title>政治娱乐备份@2x</title>
    <g id="页面-1" stroke="none" stroke-width="1" fill="none" fill-rule="evenodd">
        <g id="画板" transform="translate(-610.000000, -187.000000)" fill="#FF9124">
            <path d="M622.887658,194.562555 C622.91146,194.464555 623.036676,194.435555 623.101871,194.512555 L623.101871,194.512555 L628.798706,201.211555 C629.123648,201.593555 629.065696,202.182555 628.666245,202.569555 L628.666245,202.569555 L627.643816,203.556555 C628.209878,204.522555 628.575179,206.277555 626.901831,207.893555 C626.016001,208.750555 624.965631,208.999557 624.042548,208.999557 C622.796591,209.000555 621.782441,208.545555 621.710002,208.512555 C621.636528,208.476555 616.584403,205.880555 613.128013,208.565555 C612.927253,208.721555 612.633356,208.690555 612.470885,208.495555 C612.309449,208.301555 612.341529,208.017555 612.54229,207.861555 C616.486093,204.797555 621.904553,207.588555 622.133254,207.707555 C622.211903,207.742555 624.629306,208.811555 626.241598,207.254555 C627.483415,206.054555 627.235051,204.874555 626.943225,204.234555 L626.943225,204.234555 L626.093615,205.055555 C625.694164,205.441555 625.084639,205.496555 624.689327,205.182555 L624.689327,205.182555 L617.761025,199.681555 C617.681341,199.618555 617.712387,199.498555 617.812767,199.475555 C619.035956,199.196555 620.157731,198.594555 621.069431,197.713555 C622.000794,196.814555 622.60618,195.717555 622.887658,194.562555 Z M622.795557,198.742555 C622.612389,198.566555 622.316422,198.566555 622.133254,198.742555 C621.951121,198.918555 621.951121,199.204555 622.133254,199.381555 L622.133254,199.381555 L623.777627,200.970555 C623.869728,201.058555 623.988736,201.102555 624.108778,201.102555 C624.227785,201.102555 624.347828,201.058555 624.438894,200.970555 C624.622062,200.793555 624.622062,200.507555 624.438894,200.331555 L624.438894,200.331555 Z M621.934253,191.142655 C622.000483,191.078655 622.117421,191.104655 622.145362,191.191655 C622.831466,193.268655 622.32853,195.633655 620.622067,197.281655 C618.915604,198.930655 616.469225,199.416655 614.318812,198.754655 C614.229815,198.727655 614.202909,198.613655 614.269139,198.549655 L614.269139,198.549655 Z M611.857842,188.716955 C614.295942,186.411955 618.20456,186.427955 620.621963,188.763955 C620.988299,189.117955 621.295649,189.505955 621.550221,189.915955 C621.62473,190.033955 621.600929,190.186955 621.500549,190.284955 L621.500549,190.284955 L613.381137,198.130955 C613.280757,198.226955 613.122425,198.249955 613.000313,198.179955 C612.322488,197.785955 611.702615,197.263955 611.19347,196.587955 C609.391801,194.198955 609.670175,190.782955 611.857842,188.716955 Z M617.954127,190.409955 C616.874781,189.366955 615.120715,189.367955 614.042404,190.409955 C613.860271,190.586955 613.860271,190.871955 614.042404,191.048955 C614.225572,191.224955 614.520504,191.224955 614.703672,191.048955 C615.417716,190.358955 616.578815,190.357955 617.293895,191.048955 C617.384961,191.136955 617.503969,191.180955 617.624011,191.180955 C617.744053,191.180955 617.863061,191.136955 617.954127,191.048955 C618.137295,190.871955 618.137295,190.586955 617.954127,190.409955 Z" id="政治娱乐备份"></path>
        </g>
    </g>
</svg>