<?xml version="1.0" encoding="UTF-8"?>
<svg width="22px" height="22px" viewBox="0 0 22 22" version="1.1" xmlns="http://www.w3.org/2000/svg" xmlns:xlink="http://www.w3.org/1999/xlink">
    <title>网球备份@2x</title>
    <g id="页面-1" stroke="none" stroke-width="1" fill="none" fill-rule="evenodd">
        <g id="画板" transform="translate(-142.000000, -187.000000)" fill="#FF9124">
            <path d="M163.494355,199.317046 C163.692355,199.183046 163.951355,199.356046 163.917355,199.594046 C163.274355,203.962046 160.027355,207.696046 155.463355,208.735046 C154.494355,208.956046 153.527355,209.028046 152.580355,208.991046 L152.580355,208.991046 L152.228355,208.741046 C149.680355,206.926046 148.574355,204.656046 149.342355,202.818046 C150.146355,200.896046 152.829355,200.034046 156.184355,200.620046 C159.799355,201.252046 162.204355,200.192046 163.494355,199.317046 Z M154.143455,187.041446 C158.714455,187.511446 162.684455,190.821446 163.760455,195.548446 C163.899455,196.161446 163.972455,196.772446 164.007455,197.379446 L164.007455,197.379446 L163.789455,197.638446 C163.765455,197.665446 161.390455,200.415446 156.373455,199.534446 C151.668455,198.711446 149.129455,200.470446 148.326455,202.392446 C147.593455,204.147446 148.116455,206.147446 149.686455,207.937446 C149.873455,208.150446 149.665455,208.480446 149.397455,208.386446 C145.934455,207.178446 143.150455,204.277446 142.277455,200.438446 C141.745455,198.102446 142.006455,195.774446 142.872455,193.723446 C142.952455,193.533446 143.216455,193.500446 143.340455,193.665446 C143.989455,194.531446 144.760455,194.993446 145.643455,195.033446 L145.643455,195.033446 L145.769455,195.035446 C148.510455,195.035446 151.437455,191.045446 153.972455,187.293446 L153.972455,187.293446 Z M152.310155,187.000546 C152.536155,186.986546 152.677155,187.244546 152.549155,187.430546 C150.831155,189.944546 147.927155,193.933546 145.770155,193.933546 C145.744155,193.933546 145.719155,193.933546 145.693155,193.932546 C144.991155,193.900546 144.386155,193.407546 143.844155,192.424546 L143.844155,192.424546 L143.687155,192.139546 C145.188155,189.746546 147.602155,187.927546 150.574155,187.251546 C151.154155,187.120546 151.734155,187.037546 152.310155,187.000546 Z" id="网球备份"></path>
        </g>
    </g>
</svg>