<?xml version="1.0" encoding="UTF-8"?>
<svg width="22px" height="22px" viewBox="0 0 22 22" version="1.1" xmlns="http://www.w3.org/2000/svg" xmlns:xlink="http://www.w3.org/1999/xlink">
    <title>赛狗选备份</title>
    <defs>
        <polygon id="path-1" points="2.26882837e-05 0.00011 21.9997795 0.00011 21.9997795 21.78671 2.26882837e-05 21.78671"></polygon>
        <linearGradient x1="74.0154399%" y1="99.037213%" x2="23.8071351%" y2="23.3755538%" id="linearGradient-3">
            <stop stop-color="#FF9124" offset="0.0218531469%"></stop>
            <stop stop-color="#F7B500" offset="100%"></stop>
        </linearGradient>
    </defs>
    <g id="赛狗选备份" stroke="none" stroke-width="1" fill="none" fill-rule="evenodd">
        <g id="编组">
            <mask id="mask-2" fill="white">
                <use xlink:href="#path-1"></use>
            </mask>
            <g id="Clip-2"></g>
            <path d="M17.516675,7.13548 L15.034525,10.55428 C14.661625,11.08558 13.968625,11.38258 13.261875,11.38258 C12.895025,11.38258 12.523775,11.30228 12.191575,11.13398 C11.256025,10.65713 10.945275,9.64458 11.361075,8.42358 L12.665675,4.24193 C12.733325,4.02413 12.965975,3.90203 13.182125,3.97133 C13.399925,4.03898 13.520375,4.27053 13.452725,4.48833 L12.144825,8.67933 C11.858275,9.52193 12.005125,10.11318 12.565575,10.39808 C13.160675,10.70113 14.034075,10.54328 14.364075,10.07468 L16.849525,6.65093 C16.983175,6.46723 17.241675,6.42598 17.425375,6.55963 C17.609625,6.69328 17.650875,6.95123 17.516675,7.13548 M8.623175,4.93273 L8.531325,4.98223 C8.265675,5.12523 7.944475,5.10048 7.701925,4.91843 L7.455525,4.73363 C7.241575,4.57303 7.168975,4.27713 7.282825,4.02963 L7.366425,3.84758 C7.453875,3.65783 7.686525,3.59623 7.850975,3.72053 L8.666625,4.33708 C8.870125,4.49053 8.846475,4.81228 8.623175,4.93273 M21.879825,10.92223 L17.500725,3.32508 C15.763275,0.31273 12.135475,-0.83952 9.062075,0.64603 L7.091975,1.59753 C6.427575,1.91763 5.910025,2.51218 5.672975,3.22828 C5.617425,3.39548 5.497525,3.53133 5.345175,3.60118 L0.559075,5.78743 C0.262075,5.94033 0.056925,6.23128 0.010175,6.56678 C-0.037125,6.90503 0.082775,7.24438 0.329725,7.47538 L0.385275,7.52708 C0.676775,7.80043 0.849475,8.17608 0.873125,8.58473 C0.935825,9.69628 1.826275,10.55703 2.907575,10.55703 L2.937825,10.55703 L7.943925,10.48058 C8.738125,10.50973 9.425625,11.06468 9.654975,11.86108 L12.326875,21.14563 C12.417625,21.46243 12.672825,21.70058 12.991275,21.76768 C13.051225,21.78033 13.111175,21.78693 13.171125,21.78693 C13.426325,21.78693 13.672725,21.67363 13.841025,21.47068 L21.791825,11.94688 C22.032725,11.65923 22.067375,11.24673 21.879825,10.92223" id="Fill-1" fill="url(#linearGradient-3)" mask="url(#mask-2)"></path>
        </g>
    </g>
</svg>