<?xml version="1.0" encoding="UTF-8"?>
<svg width="27px" height="27px" viewBox="0 0 27 27" version="1.1" xmlns="http://www.w3.org/2000/svg" xmlns:xlink="http://www.w3.org/1999/xlink">
    <title>击剑</title>
    <g id="页面-1" stroke="none" stroke-width="1" fill="none" fill-rule="evenodd">
        <g id="12-PC-分类icon" transform="translate(-937.000000, -94.000000)" fill="#FF9124" fill-rule="nonzero">
            <g id="击剑" transform="translate(937.000000, 94.000000)">
                <path d="M13.5,0 C20.9475,0 27,6.0525 27,13.5 C27,20.9475 20.9475,27 13.5,27 C6.0525,27 0,20.9475 0,13.5 C0,6.0525 6.0525,0 13.5,0 Z M13.7475,12.7575 C13.4892391,12.8005435 12.6442769,13.0751796 11.7516537,13.3795759 L11.2632814,13.5473486 C10.4522495,13.827845 9.68282609,14.1026087 9.36,14.22 C9.1125,14.31 8.955,14.5575 8.91,14.8275 C8.6175,16.785 8.37,18.7875 8.1675,20.7675 C8.1675,20.835 8.1675,20.9025 8.2125,20.97 C8.3025,21.1725 8.55,21.2625 8.7525,21.1725 C8.865,21.1275 8.9325,21.0375 8.955,20.9475 C9.0225,20.745 9.99,17.325 10.395,15.8175 C11.3625,15.75 13.0725,15.57 14.0625,15.39 L22.3875,21.15 C22.455,21.195 22.545,21.2175 22.635,21.2175 C22.86,21.2175 23.04,21.015 23.04,20.79 C23.04,20.6775 22.995,20.5875 22.9275,20.52 L15.3675,13.095 C15.2775,13.005 15.1875,12.9375 15.0975,12.8925 C15.0075,12.8475 14.8725,12.78 14.7825,12.7575 C14.4225,12.6675 13.95,12.7125 13.7475,12.7575 Z M14.6925,8.2125 C14.085,8.235 13.6575,8.7525 13.7025,9.315 C13.725,9.72 13.995,10.0575 14.355,10.215 C14.9625,10.4625 18.0675,11.565 18.1125,11.5875 C18.855,11.9925 21.285,13.365 21.645,13.545 C21.7125,13.59 21.825,13.6125 21.915,13.59 C22.1175,13.545 22.275,13.3425 22.23,13.14 C22.2075,13.05 22.1625,12.9825 22.1175,12.915 C21.825,12.645 19.0125,10.5525 18.72,10.3725 C18.18,10.0125 15.5925,8.46 15.2325,8.3025 C15.075,8.235 14.895,8.19 14.6925,8.2125 Z M11.6325,8.64 L5.2425,9.225 L5.2425,8.865 C5.13,8.865 5.0175,8.8875 4.905,8.955 C4.7475,9.045 4.635,9.2025 4.59,9.36 L0.6525,9.36 C0.6075,9.4725 0.585,9.585 0.54,9.72 L4.59,9.72 C4.6125,9.765 4.635,9.81 4.6575,9.855 C4.77,10.0575 4.995,10.1925 5.2425,10.1925 L5.2425,9.8325 L11.79,10.44 C11.655,9.765 11.5875,9.135 11.6325,8.64 Z M12.24,4.9725 C11.3625,5.085 11.1375,5.67 11.1375,6.39 C11.115,7.0875 11.34,7.695 12.24,7.785 L12.24,4.9725 Z M12.6225,4.9725 L12.6225,7.74 L13.725,7.3125 L13.725,5.1075 C13.725,5.1075 13.23,4.9725 12.6225,4.9725 Z" id="形状结合"></path>
            </g>
        </g>
    </g>
</svg>