<?xml version="1.0" encoding="UTF-8"?>
<svg width="23px" height="18px" viewBox="0 0 23 18" version="1.1" xmlns="http://www.w3.org/2000/svg" xmlns:xlink="http://www.w3.org/1999/xlink">
    <title>电竞备份@2x</title>
    <g id="页面-1" stroke="none" stroke-width="1" fill="none" fill-rule="evenodd">
        <g id="画板" transform="translate(-558.000000, -189.000000)" fill="#FF9124">
            <path d="M574.233804,191.1201 C577.417804,191.1201 580.008804,193.7471 580.008804,196.9771 L580.008804,196.9771 L580.008804,205.3821 C580.008804,205.9381 579.731804,206.4471 579.269804,206.7461 C578.807804,207.0431 578.236804,207.0831 577.738804,206.8481 L577.738804,206.8481 L572.017804,204.1401 C571.677804,203.9791 571.299804,203.8941 570.925804,203.8941 L570.925804,203.8941 L567.091804,203.8941 C566.716804,203.8941 566.338804,203.9791 565.997804,204.1401 L565.997804,204.1401 L560.277804,206.8481 C560.061804,206.9501 559.830804,207.000148 559.602804,207.000148 C559.303804,207.000148 559.007804,206.9151 558.745804,206.7461 C558.283804,206.4471 558.008804,205.9381 558.008804,205.3821 L558.008804,205.3821 L558.008804,196.9771 C558.008804,193.7471 560.598804,191.1201 563.782804,191.1201 L563.782804,191.1201 Z M573.359804,198.4211 C572.927804,198.4211 572.575804,198.7781 572.575804,199.2161 C572.575804,199.6531 572.927804,200.0111 573.359804,200.0111 C573.790804,200.0111 574.142804,199.6531 574.142804,199.2161 C574.142804,198.7781 573.790804,198.4211 573.359804,198.4211 Z M564.656804,195.2411 C564.297804,195.2411 564.003804,195.5391 564.003804,195.9031 L564.003804,195.9031 L564.003804,196.9641 L562.958804,196.9641 C562.599804,196.9641 562.305804,197.2621 562.305804,197.6261 C562.305804,197.9901 562.599804,198.2881 562.958804,198.2881 L562.958804,198.2881 L564.003804,198.2881 L564.003804,199.3481 C564.003804,199.7131 564.297804,200.0111 564.656804,200.0111 C565.015804,200.0111 565.309804,199.7131 565.309804,199.3481 L565.309804,199.3481 L565.309804,198.2881 L566.354804,198.2881 C566.714804,198.2881 567.008804,197.9901 567.008804,197.6261 C567.008804,197.2621 566.714804,196.9641 566.354804,196.9641 L566.354804,196.9641 L565.309804,196.9641 L565.309804,195.9031 C565.309804,195.5391 565.015804,195.2411 564.656804,195.2411 Z M574.926804,196.8311 C574.495804,196.8311 574.142804,197.1891 574.142804,197.6261 C574.142804,198.0641 574.495804,198.4211 574.926804,198.4211 C575.357804,198.4211 575.710804,198.0641 575.710804,197.6261 C575.710804,197.1891 575.357804,196.8311 574.926804,196.8311 Z M571.791804,196.8311 C571.360804,196.8311 571.008804,197.1891 571.008804,197.6261 C571.008804,198.0641 571.360804,198.4211 571.791804,198.4211 C572.222804,198.4211 572.575804,198.0641 572.575804,197.6261 C572.575804,197.1891 572.222804,196.8311 571.791804,196.8311 Z M573.359804,195.2411 C572.927804,195.2411 572.575804,195.5991 572.575804,196.0361 C572.575804,196.4741 572.927804,196.8311 573.359804,196.8311 C573.790804,196.8311 574.142804,196.4741 574.142804,196.0361 C574.142804,195.5991 573.790804,195.2411 573.359804,195.2411 Z M566.520404,189 C567.430404,189 568.170404,189.751 568.170404,190.674 L568.170404,190.674 L568.170404,190.679 L562.188404,190.679 C562.188404,189.751 562.928404,189 563.838404,189 L563.838404,189 Z M574.177704,189 C575.087704,189 575.827704,189.751 575.827704,190.674 L575.827704,190.674 L575.827704,190.679 L569.846704,190.679 C569.846704,189.751 570.586704,189 571.495704,189 L571.495704,189 Z" id="电竞备份"></path>
        </g>
    </g>
</svg>