<?xml version="1.0" encoding="UTF-8"?>
<svg width="22px" height="22px" viewBox="0 0 22 22" version="1.1" xmlns="http://www.w3.org/2000/svg" xmlns:xlink="http://www.w3.org/1999/xlink">
    <title>体操未选</title>
    <g id="体操未选" stroke="none" stroke-width="1" fill="none" fill-rule="evenodd">
        <path d="M10.8244885,1.2 C11.0063482,1.2 11.1525392,1.27042254 11.2630615,1.41126761 C11.4706902,1.38922157 11.6069096,1.38922157 11.6717197,1.41126761 C11.7365298,1.43331365 11.8725977,1.49915275 12.0799233,1.60878491 C12.2629608,1.39878595 12.4361431,1.33294685 12.5994702,1.41126761 C12.6837984,1.52346543 12.8040161,1.721 13.177247,2.13869659 C13.2387642,2.20754277 13.3238629,2.11142353 13.5777588,2.3194458 C13.8316547,2.52746807 14.354407,3.02583008 14.2185669,3.29729004 L14.1812748,3.27239067 C14.4352962,3.63567754 14.624039,4.17271761 13.513635,5.67390166 C13.3942556,5.83529378 13.2721885,5.97623534 13.1474337,6.09672632 C13.6766602,6.23577516 14.3116708,6.39446181 15.0124332,6.55098772 C17.028385,7.00128116 17.6380948,7.17196553 19,8.2124832 L19,8.2124832 C19.5806489,8.44110768 20.0215926,8.61283366 20.3228311,8.72766113 C20.687211,9.07983398 21.2189941,9.1640625 21.2189941,9.58508301 C21.2189941,10.1134703 21.9769287,11.300293 21.7391357,11.5155029 C21.5013428,11.7307129 20.8799557,10.278954 20.5551758,10.1134703 C20.2189467,9.97963733 20.0212742,9.97073166 19.9621582,10.0867533 C19.8341234,10.3380358 19.7099609,10.5334709 19.7099609,10.5334709 C19.7099609,10.5334709 19,11 19.2232666,10.5334709 C19.372111,10.2224515 19.454305,9.90632218 19.4698486,9.58508301 C19.3378906,9.45806119 19.0936076,9.39455028 18.7369995,9.39455028 L18.7563295,9.35028447 C18.7352913,9.38416856 18.7218018,9.4 18.7218018,9.4 C18.7218018,9.4 17.7592093,9.35279516 16.7597475,9.07350395 C15.5461974,8.73438755 14.1963314,8.2124832 14.1963314,8.2124832 C14.1963314,8.2124832 10.9982918,7.59280171 10.6495173,7.80682486 C10.3007429,8.020848 10.1831222,8.67488584 9.32078738,9.07350395 C8.45845259,9.47212206 7.76902762,10.3148382 7.0929588,10.9155111 C7.9609155,11.3841091 8.551914,12.0254745 8.93635069,12.4925237 C9.32078738,12.9595729 9.32078738,13.6782401 9.32078738,13.9646369 C9.32078738,14.155568 9.19264182,14.3709523 8.93635069,14.6107896 C8.82673562,14.9304428 10.2131684,16.1675968 10.7283575,17.6458496 C10.934808,17.2678494 11.5117663,16.7045622 12.1379601,16.1181937 L12.6118173,15.676624 C13.2425493,15.0888527 13.8421988,14.5185514 14.0894932,14.1279257 C14.6459058,13.249018 14.3357806,12.675874 15.1129712,12.675874 C16.097991,12.675874 17.2647831,12.4532961 17.8326204,12.4532961 C18.1300522,12.4532961 18.6755381,12.3333799 18.8962398,12.4532961 C19.0968872,12.562316 19.0087198,12.9009595 18.6126597,13.1055924 C16.87052,13.8399716 16.3554143,14.0155416 15.1129712,15.2365563 C13.870528,16.4575711 12.0541913,21.8151386 10.7283575,21.3742874 C6.7025567,19.7303519 6.81684691,16.9491973 5.28284362,15.8626297 C4.67689423,15.4334226 4.25312326,15.0471921 3.98474064,14.6575055 C3.61686036,14.2254323 3.36564955,13.7893687 3.23179343,13.3491795 C3.03290785,12.6951393 2.97517483,12.0372385 3.00914511,11.3850947 C3.10930641,9.46225008 2.97144488,8.5057794 3.23179343,7.80682486 C3.49214198,7.10787032 3.65189241,7.17362612 4.00011605,6.18616274 C4.34833968,5.19869937 5.18592148,4.24835212 5.94198949,4.06488359 C6.46259401,3.93855297 7.32435521,3.9251389 8.18511785,3.98893322 L8,3.9470518 L8,3.9470518 C8.89103033,3.34633564 9.47894593,2.96825018 9.7637468,2.81279542 C10.1018788,2.48393375 10.2770024,2.01221263 10.4106445,1.721 C10.5801504,1.35163852 10.6719576,1.2 10.8244885,1.2 Z" id="形状结合" fill="#FF9124" fill-rule="nonzero"></path>
    </g>
</svg>