<?xml version="1.0" encoding="UTF-8"?>
<svg width="22px" height="22px" viewBox="0 0 22 22" version="1.1" xmlns="http://www.w3.org/2000/svg" xmlns:xlink="http://www.w3.org/1999/xlink">
    <title>曲棍球备份@2x</title>
    <defs>
        <linearGradient x1="74.0154399%" y1="87.133095%" x2="23.8071351%" y2="29.8388198%" id="linearGradient-1">
            <stop stop-color="#FF9124" offset="0.0218531469%"></stop>
            <stop stop-color="#F7B500" offset="100%"></stop>
        </linearGradient>
    </defs>
    <g id="曲棍球备份" stroke="none" stroke-width="1" fill="none" fill-rule="evenodd">
        <path d="M16.5,15 C17.8807119,15 19,16.1192881 19,17.5 C19,18.8807119 17.8807119,20 16.5,20 C15.1192881,20 14,18.8807119 14,17.5 C14,16.1192881 15.1192881,15 16.5,15 Z M11.4052715,10.5784322 L12.8678484,11.9765244 C11.009858,13.8727265 8.75149971,16.1025163 6.09277344,18.6658936 C4.81036377,19.8555298 2.68371582,20.5009155 1.20300293,19.203125 C0.218636426,18.3403639 0.147033691,17.0564575 0.817260742,16.0129395 C1.68253822,14.6657353 3.22277832,15.9162598 2.85546875,16.4672852 C2.48815918,17.0183105 2.55603027,17.4486084 2.85546875,17.6630859 C3.15490723,17.8775635 3.76794434,17.7957153 4.5567627,17.1859131 C5.07190938,16.7876749 7.48783879,14.4988083 10.0029647,11.9903541 L10.4752735,11.5178537 C10.7866091,11.2054203 11.0977402,10.89123 11.4052715,10.5784322 Z M12.6631337,9.28493055 L14.1231276,10.6827519 C13.9829267,10.8288292 13.839897,10.9772635 13.6940386,11.1280548 L12.2415984,9.72179459 C12.3837622,9.57508383 12.5243968,9.42934856 12.6631337,9.28493055 Z M21.5791016,1.70544434 C22.0430706,2.05842914 21.6807167,2.88523289 21.4146339,3.20056152 C18.7138805,6.03708854 16.8741718,7.9815262 15.8955078,9.03387451 C15.7493346,9.19105325 15.5950951,9.12393929 15.4610596,9.26806641 C15.2999005,9.44135928 15.1337127,9.6188421 14.9624961,9.80051488 L13.4990611,8.40589716 C13.6098457,8.28808107 13.7186751,8.17175328 13.8253174,8.05712891 C13.947031,7.92630508 13.8685608,7.75400933 14,7.61273193 C15.0089935,6.52821583 17.0154225,4.64501677 20.0192871,1.96313477 C20.4251629,1.61014997 21.1151325,1.35245954 21.5791016,1.70544434 Z" id="形状结合" fill="url(#linearGradient-1)"></path>
    </g>
</svg>