<?xml version="1.0" encoding="UTF-8"?>
<svg width="22px" height="22px" viewBox="0 0 22 22" version="1.1" xmlns="http://www.w3.org/2000/svg" xmlns:xlink="http://www.w3.org/1999/xlink">
    <title>沙滩排球备份@2x</title>
    <defs>
        <linearGradient x1="74.0154399%" y1="99.6173488%" x2="23.8071351%" y2="23.0605727%" id="linearGradient-1">
            <stop stop-color="#FF9124" offset="0.0218531469%"></stop>
            <stop stop-color="#F7B500" offset="100%"></stop>
        </linearGradient>
    </defs>
    <g id="沙滩排球备份" stroke="none" stroke-width="1" fill="none" fill-rule="evenodd">
        <path d="M17.02568,18.2628779 L17.0262746,20.2038844 C15.6560225,21.1028854 14.0729051,21.7041347 12.3688996,21.9156551 C12.7447812,21.375738 12.6421872,20.2013365 12.0614887,18.3916754 C13.4784062,18.4010231 14.9639718,18.3673729 16.5170396,18.2909118 L16.5170396,18.2909118 L17.02568,18.2628779 Z M3.932,17.752 L4.17411162,17.7903221 C5.28259189,19.0801844 8.44859946,21.6939408 9.0722993,21.8420289 L9.00059062,21.8187322 C6.78716177,21.4122831 4.80551853,20.343282 3.26886221,18.8249304 C3.53099017,19.0586081 3.79168938,19.273002 4.04333496,19.4775269 C3.92419434,18.952177 3.89194743,18.2941366 3.94659424,17.5034059 L3.932,17.752 Z M21.4900451,7.67977987 C21.82132,8.72739686 22,9.84283195 22,11 C22,14.6316239 20.2401128,17.8522041 17.526657,19.855422 L17.52568,18.1178779 L17.646961,18.0189668 C19.05826,16.8051465 19.9258857,14.9841082 20.2538314,12.568297 L20.2538314,12.568297 L20.0063209,12.5359454 C20.1756923,11.8278431 20.4989653,8.09101755 18.0819092,4.87303476 L18.0819092,4.87303476 L18.0810707,5.05162733 C18.064581,6.3022597 17.7237933,9.08418883 10.6808472,11.0810426 C14.2271716,14.4808283 18.4861864,13.4864157 19.7218729,12.7530643 L19.7050309,12.8585923 C19.360116,14.9745188 18.5680244,16.5615557 17.3321263,17.6302056 L17.3321263,17.6302056 L17.18068,17.7538779 L16.4936236,17.7914588 C11.6605591,18.0294613 7.49187762,17.8502579 3.98848804,17.2547559 L3.98848804,17.2547559 L3.94659424,17.5034059 C2.74945068,17.6854534 1.68428548,16.8419475 0.751098633,14.9728883 C0.767891598,15.0279853 0.785050245,15.0824411 0.802563455,15.1362678 C0.285426149,13.8583988 0,12.4625318 0,11 C0,7.45765816 1.67441859,4.30639774 4.27495618,2.29451832 L4.21173486,2.63624255 L4.14723573,3.01465344 L4.0996098,3.34331443 L4.06901662,3.62404884 C4.05127642,3.83136952 4.05026888,3.99381952 4.06636924,4.11568709 L4.06636924,4.11568709 L3.93977837,4.25788482 L3.56763958,4.68848767 L3.2858138,5.03417197 C2.24344635,6.35595829 1.63730409,7.65887153 1.41868,9.40721235 L1.41868,9.40721235 L1.668,9.438 C1.28390664,10.3071296 1.27383186,14.0520492 3.36386545,16.9339359 L3.53796387,17.1656373 C3.00158691,12.6409791 9.77514648,11.2875855 10.3687744,10.8455689 C7.04322825,7.83285846 3.09067821,8.62602032 1.94701389,9.2392894 L1.96434769,9.12358546 C2.22134359,7.53917738 2.84163812,6.34580858 3.88487817,5.08873673 L3.88487817,5.08873673 L4.15262465,4.77357018 L4.46468,4.41887791 L4.74108803,4.38329807 C6.84949868,4.12246857 9.42528314,4.0773924 12.467412,4.24856558 L12.467412,4.24856558 L13.5604667,4.31795966 C14.3020767,4.37020961 15.0694985,4.43443506 15.8627184,4.51064249 L15.8627184,4.51064249 L17.0718954,4.63394092 L17.6909923,4.70233151 L17.718,4.456 C17.7188883,4.45579064 17.7186601,4.45547751 17.7184317,4.45516422 L17.7472401,4.2055054 L17.4918779,4.17844846 C16.3857723,2.93292925 13.1543176,0.332824076 12.2101135,0.0497010166 L12.2818304,0.0738887129 C14.4083781,0.320686629 16.3499762,1.17398421 17.9291355,2.45629212 C17.8828739,2.4235045 17.8398078,2.39496145 17.7985229,2.36967782 C17.8270467,3.35749114 17.8005778,4.0529664 17.7191162,4.4561036 C19.0234985,3.61976938 20.98703,6.17946176 21.5536499,7.90306405 C21.5244751,7.80409687 21.4858919,7.67140875 21.434486,7.51096469 Z M11,1.79412041e-13 C11.2192529,1.79412041e-13 11.4370076,0.00641466182 11.6530866,0.0190665501 C11.1750817,0.00687477655 10.5841467,0.0171126993 10.1955566,0.0497010166 C9.07228521,0.48314188 8.76643733,1.08695155 9.39152236,3.64692824 C7.63349683,3.63699328 6.06730706,3.71614477 4.69248043,3.88550508 L4.69248043,3.88550508 L4.54668,3.90387791 L4.55196026,3.79590476 C4.55425368,3.76629288 4.55710019,3.73440482 4.56050376,3.70028567 L4.56050376,3.70028567 L4.58764129,3.46915849 L4.62833736,3.1866496 L4.68278137,2.85492335 L4.7906391,2.26978596 L4.87218336,1.86354213 C6.62338671,0.686689363 8.73150091,1.79412041e-13 11,1.79412041e-13 Z" id="形状结合" fill="url(#linearGradient-1)"></path>
    </g>
</svg>