<?xml version="1.0" encoding="UTF-8"?>
<svg width="22px" height="22px" viewBox="0 0 22 22" version="1.1" xmlns="http://www.w3.org/2000/svg" xmlns:xlink="http://www.w3.org/1999/xlink">
    <title>水球未选中备份 3@2x</title>
    <defs>
        <linearGradient x1="74.0154399%" y1="100%" x2="23.8071351%" y2="22.8528147%" id="linearGradient-1">
            <stop stop-color="#FF9124" offset="0.0218531469%"></stop>
            <stop stop-color="#F7B500" offset="100%"></stop>
        </linearGradient>
    </defs>
    <g id="水球未选中备份-3" stroke="none" stroke-width="1" fill="none" fill-rule="evenodd">
        <path d="M2.74385155,17.8531991 L2.79356158,17.8576989 L4.42416147,18.2494676 L4.80168139,18.3405124 L8.53725752,19.2382697 C8.55982067,19.2437875 8.57963221,19.2531679 8.59834311,19.2675144 C9.44473617,19.9423497 10.9234476,20.8886642 12.2849407,21.6236443 C12.4252725,21.6992391 12.3873003,21.9144359 12.2282577,21.9320931 C8.70730658,22.3244136 5.07353976,21.0117126 2.62516348,18.1264191 C2.52335417,18.0055778 2.63947181,17.8207292 2.79356158,17.8576989 Z M10.4459894,16.2111669 C10.494968,16.1212257 10.6110856,16.0986024 10.6914324,16.1615061 C12.7936571,17.8157631 15.7274161,18.9894138 18.2814539,19.2333036 C18.1466254,19.3524895 18.020602,19.4777452 17.8786193,19.5914133 C16.7278989,20.5140009 15.4489539,21.1640058 14.1182787,21.5568781 C14.0792059,21.5684656 14.0384822,21.5662584 14.0010604,21.5497048 C12.6395673,20.9443946 10.5588052,19.711151 9.36020692,18.812842 C9.29912134,18.7670437 9.28041044,18.685931 9.31067807,18.6153023 L9.31067807,18.6153023 L9.57153003,18.0061296 C9.83678455,17.3908873 10.1284545,16.7927503 10.4459894,16.2111669 Z M12.477718,13.1723112 C12.5310991,13.1060967 12.6230026,13.0906467 12.6945443,13.136445 C14.4698785,14.2819545 17.830136,15.2492369 20.7638951,15.2492369 C20.8970726,15.2492369 21.026398,15.2409601 21.1573743,15.2370976 C20.6802463,16.3815035 19.9961978,17.4486593 19.1294429,18.3988363 C19.0958734,18.435806 19.0474451,18.4573257 18.997366,18.4562626 C16.4598378,18.3850416 13.227805,17.1451766 11.0832056,15.4136694 C11.0171672,15.3601461 11.0023085,15.2630316 11.0474348,15.1912993 C11.483839,14.4894264 11.960967,13.8162464 12.477718,13.1723112 Z M12.9552312,5.30040942 C13.0245716,5.25350754 13.121428,5.26619863 13.1770104,5.32855055 C14.2671955,6.55020666 15.0552545,7.83862899 15.351327,8.96537776 C15.3678366,9.02552253 15.3469244,9.08897802 15.3006975,9.1314656 L15.3006975,9.1314656 L14.112005,10.2190375 C12.5287327,11.6685816 11.193655,13.3206315 10.1117247,15.1431835 C10.0423843,15.2596105 9.97084265,15.3743822 9.90425385,15.4919128 C9.50362047,16.1965446 9.13765728,16.9249032 8.81406878,17.6791959 L8.81406878,17.6791959 L8.56752515,18.2530542 C8.53615688,18.3264419 8.45525975,18.3672741 8.37766455,18.3479616 L8.37766455,18.3479616 L5.48462924,17.6532619 C5.40043019,17.6333976 5.34539813,17.5511813 5.35695486,17.4662062 C6.06356649,12.4874333 8.79976044,8.10845276 12.9552312,5.30040942 Z M9.9699071,2.70447295 C10.0260398,2.66695144 10.0997828,2.66805501 10.1564658,2.70557652 C10.9467261,3.23474012 11.6885583,3.83563602 12.3533456,4.4746052 C12.4281892,4.54578571 12.4155318,4.66717882 12.3307824,4.72566822 C8.10101839,7.64903502 5.30814143,12.143339 4.55585319,17.2462639 C4.54209517,17.341723 4.45074196,17.4046267 4.35718746,17.3820035 L4.35718746,17.3820035 L2.05244485,16.8285613 C1.628698,16.7270325 1.3480345,16.3098816 1.43113291,15.8800396 C2.60606735,9.8214199 6.38732009,5.04791175 9.9699071,2.70447295 Z M6.42074086,0.970774976 L6.46111808,0.97649721 C7.34053038,1.21321377 8.21498979,1.57518596 9.05532932,2.0353762 C9.16209151,2.09496918 9.17089664,2.24505521 9.0707383,2.31568392 C5.71873561,4.68284956 2.29519126,9.02706753 0.892424086,14.4952753 C0.851700363,14.6530864 0.632122449,14.6685364 0.579841994,14.5134843 C-0.864199221,10.2393433 0.414195498,5.33285449 4.13271169,2.35155007 C4.82666595,1.7959007 5.5712497,1.34895334 6.34169852,0.987532947 C6.37857,0.969875768 6.421495,0.96601326 6.46111808,0.97649721 Z M15.965318,9.71556821 L16.0091802,9.72618148 C17.0503868,10.1378145 18.2110129,10.418674 19.3683371,10.5549654 C19.6456987,10.5875208 19.9219596,10.6140065 20.1965696,10.6294566 C20.4469654,10.6443548 20.6957103,10.6526316 20.940603,10.6526316 C21.2399774,10.6526316 21.5327479,10.6399405 21.8189146,10.6167655 C21.9146704,10.6090405 21.9966682,10.6829799 21.9983192,10.7789908 C22.018681,11.9653326 21.8541352,13.1489154 21.4997287,14.2833892 C21.4788165,14.3518108 21.4171806,14.400368 21.3456389,14.4036787 C18.5384536,14.5421772 15.0664811,13.6212449 13.2735366,12.5237409 C13.184935,12.4696658 13.1706267,12.3460655 13.2405174,12.2688153 C13.6906796,11.7694482 14.1672572,11.2893937 14.6685993,10.830307 L14.6685993,10.830307 L15.8418828,9.75708155 C15.8875594,9.71514575 15.9519469,9.70355822 16.0091802,9.72618148 Z M12.7784132,0.0895550077 C15.375376,0.512223744 17.8303561,1.85748011 19.6023884,4.08062938 C20.9171043,5.72936853 21.6737951,7.64131 21.9164865,9.59298014 C21.9285935,9.68843926 21.8581525,9.77672516 21.7623967,9.78389839 C21.2841681,9.81921275 20.7828261,9.82417883 20.2682763,9.79548591 C20.1923321,9.79107162 20.1290452,9.73589293 20.1158375,9.66029813 C19.5627653,6.61112393 16.2514864,2.56983695 12.6633962,0.394693143 C12.5087561,0.300337589 12.599559,0.0608620909 12.7784132,0.0895550077 Z M9.88884488,2.66453526e-14 L10.0016606,0.0380732935 C14.2473839,1.46775305 18.400103,6.25174515 19.2178794,9.46314469 C19.2470464,9.57791635 19.1441365,9.68496301 19.0280188,9.66730583 C18.0605552,9.52163409 17.1051987,9.27277822 16.2522018,8.92956679 C16.2032233,8.91025425 16.1691034,8.86997381 16.1558957,8.81865763 C15.8383607,7.55672108 14.9831625,6.11821273 13.7785108,4.76357598 C13.5936031,4.55610412 13.4020915,4.3513912 13.2023251,4.14888542 C12.4979148,3.43597679 11.7027015,2.76390039 10.8447517,2.16907416 C10.5921546,1.99360593 10.3346046,1.82586273 10.072652,1.66584454 C9.42822655,1.27186872 8.75628511,0.933623371 8.06948502,0.653867432 C7.92365007,0.594826237 7.93080424,0.384043656 8.08159208,0.342107855 C8.67703895,0.177123583 9.28019031,0.0618001286 9.88884488,2.66453526e-14 L9.88884488,2.66453526e-14 Z" id="形状结合" fill="url(#linearGradient-1)" transform="translate(11.000000, 11.000000) scale(-1, 1) rotate(90.000000) translate(-11.000000, -11.000000) "></path>
    </g>
</svg>