<?xml version="1.0" encoding="UTF-8"?>
<svg width="22px" height="22px" viewBox="0 0 22 22" version="1.1" xmlns="http://www.w3.org/2000/svg" xmlns:xlink="http://www.w3.org/1999/xlink">
    <title>游泳备份@2x</title>
    <defs>
        <linearGradient x1="74.0154399%" y1="83.5400597%" x2="23.8071351%" y2="31.7896357%" id="linearGradient-1">
            <stop stop-color="#FF9124" offset="0.0218531469%"></stop>
            <stop stop-color="#F7B500" offset="100%"></stop>
        </linearGradient>
    </defs>
    <g id="游泳备份" stroke="none" stroke-width="1" fill="none" fill-rule="evenodd">
        <path d="M8,11.9938965 L9.94467396,12.716276 C11.1054062,13.1437544 12.0935021,13.4727582 13.122663,13.6235499 L13.5109406,13.6715873 L13.8937327,13.701343 C13.7651273,13.6942985 13.6380404,13.6843694 13.5119455,13.6716885 L13.7493379,13.5161689 C16.0064011,12.0058299 18.6157166,11.3503593 21.5785487,11.5512957 L21.9005298,11.5778985 L21.3133592,11.8293951 L21.5112434,11.7470237 L21.9015385,11.5774563 L21.9815979,11.5834563 L21.9667858,11.8311758 C21.8326697,13.63818 21.2616149,15.3236086 20.3588747,16.7822534 L20.1608519,17.0913609 L20.0069139,17.31578 L19.8482551,17.536354 L19.5979532,17.8614289 L19.3361085,18.1772846 C19.177758,18.3608628 19.013396,18.5393283 18.8433444,18.7122559 L18.5842581,18.9674015 L18.3215001,19.2095017 C18.2235543,19.2970405 18.1242068,19.3825783 18.0233383,19.4663478 C17.9120854,19.5586509 17.7991196,19.6487944 17.6843702,19.736728 C17.420809,19.9387531 17.147735,20.1291209 16.8660218,20.3070514 C16.7498911,20.3803727 16.6324887,20.4514937 16.5136762,20.5204542 C16.2370892,20.6809923 15.9530687,20.82971 15.6620979,20.9660601 C15.5175498,21.0337885 15.3715836,21.0983444 15.223991,21.1597778 C15.0537099,21.2306592 14.8810282,21.2974686 14.7063037,21.3599834 C14.4008917,21.4692742 14.0887555,21.5655672 13.7710389,21.6480161 C13.5268794,21.7113825 13.2791247,21.7666307 13.028378,21.8133725 C12.6689182,21.8803764 12.3034185,21.929889 11.932688,21.9610157 C11.7276527,21.9782283 11.521072,21.9898171 11.3130651,21.9956305 L11,22 C10.4287507,22 9.8676717,21.9564554 9.31990134,21.8725043 L8.93236619,21.8059807 C8.58011407,21.7389723 8.23426676,21.6552994 7.89521794,21.5557357 L7.63874108,21.4769788 L7.35591286,21.3820365 C7.14398748,21.3076563 6.93474452,21.2268552 6.72870234,21.1399574 C6.46083528,21.0269854 6.19844752,20.9037454 5.94198645,20.770715 L5.56175981,20.5638553 C5.33779474,20.4362408 5.11871473,20.300953 4.90491081,20.1583778 L4.58264164,19.9350822 L4.36764994,19.7764231 L4.1248514,19.5872659 L3.79420934,19.3114581 L3.5422578,19.0859938 C3.34657783,18.9054316 3.15738715,18.7177706 2.9751708,18.5234898 C2.84342887,18.3830085 2.71531748,18.239055 2.59099959,18.0917875 L2.40738759,17.868474 C2.04412381,17.4145391 1.71608509,16.9312311 1.42741472,16.4226654 L1.21835826,16.0365695 L1.10955726,15.8201612 C0.921119431,15.433893 0.75454916,15.0349342 0.611549337,14.6249153 L0.476121605,14.2112479 C0.356578668,13.8177145 0.25816641,13.414801 0.182597912,13.003895 L0.116227549,12.6046494 C0.0559335874,12.1923071 0.0185433318,11.7725399 0.00535915162,11.3466755 C2.13983589,10.6142235 4.80448732,10.8302136 8,11.9938965 Z M7.76672363,4.91369629 C8.13588867,4.53238066 8.43151855,3.55609433 10.4733887,4.23489531 C11.8346354,4.6874293 12.1726481,5.65450033 11.4874268,7.1361084 C11.3797607,7.71203613 11.2155951,8.12680104 10.9949299,8.38040312 C10.9949299,8.89187773 11.6512984,8.67449082 12.1123047,9.08337402 C13.3,10.0915527 14.4197998,11.2155191 14.7021484,11.5152918 C14.8903809,11.7151402 15.1109212,11.9725348 15.3637695,12.2874756 C14.7345378,12.5166829 14.1335856,12.8491618 13.5609131,13.2849121 C12.9191895,13.3446045 11.5771484,12.9802856 9.53479004,12.1919556 L9.53479004,12.1919556 L9.53479004,11.7583328 C7.94753418,11.3098145 7.10717773,10.6776123 4.91894531,8.91555937 C4.12719727,8.16650391 3.43801925,7.35956757 2.81347656,6.52514648 C2.56938442,6.19902686 1.60703796,6.04925638 1.65673828,5.80895996 C1.70029968,5.59834466 2.30957031,5.80895996 2.81347656,5.80895996 C3.31738281,5.80895996 4.92626953,8.01701582 5.71069336,8.38040312 C6.23364258,8.62266133 7.31465658,8.80104674 8.95373535,8.91555937 C9.51462402,8.91555937 9.27821452,8.7987681 8.24450684,8.56518555 C7.67036947,7.97403971 7.5111084,7.16129557 7.76672363,6.12695313 C7.52061361,5.57232565 7.52061361,5.16790671 7.76672363,4.91369629 Z" id="形状结合" fill="url(#linearGradient-1)"></path>
    </g>
</svg>