<?xml version="1.0" encoding="UTF-8"?>
<svg width="20px" height="20px" viewBox="0 0 20 20" version="1.1" xmlns="http://www.w3.org/2000/svg" xmlns:xlink="http://www.w3.org/1999/xlink">
    <title>编组 2备份</title>
    <defs>
        <linearGradient x1="86.206803%" y1="15.2277981%" x2="13.6949774%" y2="87.3724982%" id="linearGradient-1">
            <stop stop-color="#CFD4D9" offset="0%"></stop>
            <stop stop-color="#A8ABAF" offset="100%"></stop>
        </linearGradient>
    </defs>
    <g id="页面logo展示" stroke="none" stroke-width="1" fill="none" fill-rule="evenodd">
        <g id="logo位置" transform="translate(-934.000000, -64.000000)">
            <g id="编组-2备份" transform="translate(934.000000, 64.000000)">
                <rect id="矩形" fill="url(#linearGradient-1)" fill-rule="nonzero" x="0" y="0" width="20" height="20" rx="10"></rect>
                <path d="M10,3 C13.8659287,3 17,6.13407134 17,10 C17,13.8659287 13.8659287,17 10,17 C6.13407134,17 3,13.8659287 3,10 C3,6.13407134 6.13407134,3 10,3 Z M9.84026058,13.47573 L9.82391591,13.4770346 C9.72967461,13.5130404 9.63496366,13.5451325 9.53962652,13.568458 C9.52678967,13.571589 9.51770994,13.5830169 9.51770994,13.5963234 L9.51770994,13.5963234 L9.51770994,14.092734 L9.50913242,14.1903265 C9.45847881,14.4732622 9.19083976,14.6639741 8.90341943,14.6639741 L8.90341943,14.6639741 L8.56621715,14.6639741 L8.53287844,14.6729958 C8.51330426,14.6844643 8.50015431,14.7057199 8.50015431,14.7300369 L8.50015431,14.7300369 L8.50015431,15.0302941 L8.50917606,15.0636328 C8.52064458,15.083207 8.54190018,15.0963569 8.56621715,15.0963569 L8.56621715,15.0963569 L10.9106653,15.0963569 L10.9353557,15.0880917 C10.9547724,15.0728064 10.9572381,15.0401957 10.9325819,15.0238757 C10.4031399,14.6749323 10.0128682,14.1331231 9.86226993,13.4972291 C9.85819971,13.480322 9.84035335,13.4707727 9.82391591,13.4770346 Z M11.1898982,14.5290462 C11.1759656,14.5276373 11.1625025,14.5334295 11.154049,14.5442312 L11.154049,14.5442312 L11.0670088,14.6560058 L11.0586075,14.6765599 C11.0569376,14.6910897 11.0629908,14.706153 11.075932,14.715024 C11.4292586,14.9573588 11.850057,15.0963726 12.3115576,15.0963726 C12.3610265,15.0963726 12.4098692,15.0929285 12.4585553,15.089328 C12.4677916,15.0849446 12.475932,15.081031 12.4851683,15.0766477 L12.4851683,15.0766477 L12.5800358,14.9758314 L12.587608,14.9601071 C12.5892199,14.9488357 12.584106,14.9370077 12.5731477,14.9307458 L12.5731477,14.9307458 L12.0235111,14.6171822 L12.0154685,14.6145991 L12.0075433,14.6120161 Z M13.0722392,13.563519 L13.0548429,13.5668456 L12.2082366,13.9308174 L12.1929537,13.9422649 L12.1929537,13.9422649 L12.184598,13.9594655 L12.0700056,14.4983003 L12.070023,14.5150625 C12.0723538,14.5259048 12.0791375,14.5356107 12.0892609,14.5413508 L12.0892609,14.5413508 L12.643907,14.8636811 L12.6618316,14.8690624 L12.6618316,14.8690624 L12.6802259,14.8658727 L13.4673443,14.5230348 L13.4819619,14.5122722 L13.4819619,14.5122722 L13.4903567,14.4961087 L13.6459644,13.8908979 L13.6464573,13.8728486 C13.6441033,13.8611714 13.6366238,13.8507697 13.6254568,13.8450296 L13.6254568,13.8450296 L13.0892832,13.5679414 L13.0722392,13.563519 Z M10.2643383,13.2675387 L10.2492924,13.2675793 L10.2492924,13.2675793 L10.2359164,13.2756212 L10.169697,13.3449715 L10.1626524,13.3573583 L10.1626524,13.3573583 L10.1621827,13.371741 C10.2738007,13.8770748 10.544314,14.3025696 10.937247,14.6109672 C10.9546237,14.6247434 10.9801409,14.6216124 10.9942301,14.6045488 L10.9942301,14.6045488 L11.082053,14.4971576 L11.090937,14.4761607 L11.090937,14.4761607 L11.086906,14.4536375 L10.7290395,13.7419747 L10.7218383,13.7319557 L10.2777144,13.2754646 L10.2643383,13.2675387 Z M14.2185195,13.153311 C14.203491,13.1522151 14.1890887,13.1594163 14.1811048,13.1722532 L14.1811048,13.1722532 L13.7549838,13.86106 L13.7501308,13.872488 L13.5973409,14.4919445 L13.5981411,14.5086197 C13.601759,14.5189054 13.6110127,14.5268023 13.6227016,14.5279504 L13.6227016,14.5279504 L13.750757,14.5403176 L13.7665683,14.5350928 L13.7665683,14.5350928 L13.7823795,14.5299855 C14.1590316,14.1913743 14.4156122,13.742867 14.4884066,13.2173387 C14.4916941,13.1940132 14.4741608,13.1727228 14.4506787,13.1708442 L14.4506787,13.1708442 Z M12.3583613,11.9833372 L12.3379515,11.9864878 L11.5448843,12.3388751 L11.5287208,12.3519272 L11.5287208,12.3519272 L11.5212457,12.3714369 L11.4244996,13.2877066 L11.4278262,13.308136 L11.4278262,13.308136 L11.4407805,13.3243386 L12.1333445,13.8340557 L12.1526585,13.8416091 L12.1526585,13.8416091 L12.173264,13.8385955 L13.0062507,13.4794767 L13.0227077,13.466405 L13.0227077,13.466405 L13.0303589,13.4467584 L13.1289836,12.5492743 L13.1256569,12.5283361 L13.1256569,12.5283361 L13.112233,12.5118596 L12.3777144,11.9904014 L12.3583613,11.9833372 Z M11.3013644,12.205646 L11.2854082,12.2065795 L11.2854082,12.2065795 L11.2719915,12.2166275 C11.0360751,12.5328525 10.7073264,12.8534608 10.3106363,13.1310187 C10.2960774,13.1410377 10.2938857,13.1615453 10.3059398,13.1743822 L10.3059398,13.1743822 L10.4228805,13.2972716 L10.7550732,13.6452756 L10.7709831,13.6554918 C10.7827647,13.6595736 10.7961929,13.6581125 10.8070469,13.6505982 L10.8070469,13.6505982 L11.3062753,13.3072906 L11.3148071,13.2927513 L11.3148071,13.2927513 L11.3233389,13.2783294 L11.4194588,12.3523538 L11.4165431,12.3276389 L11.4165431,12.3276389 L11.4036475,12.306329 L11.3158247,12.2139662 L11.3013644,12.205646 Z M8.7608051,4.90357212 C7.90496254,4.9013888 7.08950911,5.33142346 6.44985799,6.13904954 C5.81020687,6.94667561 5.48834619,7.93026054 5.48834619,9.11751314 C5.45891535,10.0740154 5.80519736,11.1643654 6.24509449,11.815601 C6.68483507,12.4669932 7.523614,13.3229923 8.77238958,13.3189365 C10.0211652,13.3150084 10.7054322,12.5222543 11.0042804,12.1994543 C11.3031287,11.8766544 11.6639696,11.2676865 11.9030169,10.3911797 C12.1207738,9.55224421 12.1079369,8.65491669 11.8676373,7.71610422 C11.860123,7.68667338 11.8330404,7.66569608 11.8025137,7.66569608 L11.8025137,7.66569608 L11.0016191,7.66569608 L10.9724574,7.67250342 C10.9462896,7.68552863 10.9304685,7.71543889 10.9372783,7.74631779 C11.0252577,8.14942637 11.0931992,8.51245891 11.092573,8.95141675 C11.0957039,9.47600581 11.0546886,9.90666667 10.949489,10.452233 C10.8619792,10.9060628 10.6105647,11.5361646 10.3640031,11.9197048 C9.7822744,12.82439 9.08266577,12.8461501 8.76831936,12.8461501 C8.07356368,12.8461501 7.43015543,12.4009303 7.05976518,11.7274651 C6.68953148,11.0541563 6.44030862,9.9836878 6.44985799,9.08682992 C6.44985799,8.14144247 6.64710723,7.23159119 7.08950911,6.4508912 C7.53206754,5.67034776 8.13900034,5.3741608 8.75454322,5.3741608 C9.3700861,5.3741608 9.73092698,5.59207425 10.0094241,5.85397741 C10.117285,5.95557643 10.3660382,6.29136979 10.4690462,6.48689701 C10.4922151,6.53119982 10.5371441,6.56000447 10.5872392,6.56000447 L10.5872392,6.56000447 L11.2707235,6.56000447 L11.2988068,6.55395299 C11.3324406,6.5385137 11.3491222,6.49638376 11.3283328,6.46106676 C11.084276,6.04715644 10.2207626,4.90170189 8.7608051,4.90357212 Z M14.0018683,11.5103523 L13.983245,11.516017 L13.8763234,11.5798882 L13.8615493,11.5952885 L13.8615493,11.5952885 L13.856755,11.6162071 L13.8866555,12.2990652 L14.1911394,13.0415677 L14.204759,13.0588857 L14.204759,13.0588857 L14.2254232,13.0664587 L14.4754288,13.0852443 L14.4902544,13.0824497 C14.4992066,13.0781127 14.5057468,13.0692765 14.5065817,13.0586313 C14.5111215,13.0032137 14.5134698,12.9532752 14.5134698,12.8944135 C14.5134698,12.3768691 14.3348496,11.9014358 14.0361579,11.5255664 C14.0234776,11.5095986 14.0006217,11.5056849 13.983245,11.516017 Z M13.088978,11.0676546 L13.0707794,11.0679481 L12.4120295,11.2309136 L12.3958644,11.2391758 C12.3867031,11.2468292 12.3811357,11.2583093 12.3813406,11.2708331 L12.3813406,11.2708331 L12.3926177,11.8660248 L12.3973337,11.8841256 L12.3973337,11.8841256 L12.4096813,11.898117 L13.1748831,12.4402393 L13.1912423,12.4470882 L13.1912423,12.4470882 L13.2090104,12.4461881 L13.7578643,12.2926155 L13.7736697,12.2839474 C13.7825639,12.2760737 13.7878169,12.2644892 13.7872951,12.2520698 L13.7872951,12.2520698 L13.7608386,11.6138276 L13.7531874,11.5987404 L13.7531874,11.5987404 L13.7456536,11.5837705 L13.1055328,11.0754624 L13.088978,11.0676546 Z M11.9528771,6.92755866 L8.56629543,6.92755866 L8.53284655,6.93658107 C8.51322599,6.94805035 8.50007604,6.96930709 8.50007604,6.99362406 L8.50007604,6.99362406 L8.50007604,7.2228089 L8.50926593,7.25639693 C8.52093158,7.27619143 8.54250028,7.28965448 8.56692161,7.28996757 L8.56692161,7.28996757 L8.97801409,7.28996757 L9.05872598,7.29597178 C9.30032249,7.3364276 9.52893436,7.57183048 9.52498938,7.81205188 L9.52498938,7.81205188 L9.52452553,8.29321365 L9.52363681,8.89260329 L9.52363681,8.89260329 L9.52336593,9.06527456 L9.5227852,9.4294982 L9.5227852,9.4294982 L9.52248091,9.61861985 L9.52185844,10.004806 L9.52154534,12.278808 L9.5283733,12.3085382 C9.5457162,12.3435496 9.59255507,12.3583026 9.62737113,12.3318774 C9.8916225,12.130558 10.5282992,11.5289478 10.5351873,10.5699407 C10.536878,10.3467673 10.5380615,10.1017274 10.5387716,9.83478716 L10.5387716,9.83478716 L10.5395706,9.2716963 L10.5395706,9.01370681 L10.5386118,8.30282679 C10.5380443,8.05419099 10.5372224,7.79389243 10.5361266,7.52197026 C10.5356569,7.39407134 10.6392911,7.28996757 10.76719,7.28996757 L10.76719,7.28996757 L12.0669999,7.28996757 L12.1581885,7.29591636 L12.1581885,7.29591636 L12.2474986,7.3150151 C12.3683529,7.351334 12.5527653,7.43524321 12.6892743,7.62450855 C12.9100056,7.93102762 13.0806418,8.32020351 13.0618562,9.02889187 C13.0618562,9.44436766 12.8523963,10.1685542 12.3636565,10.4241955 C12.3483149,10.4323359 12.3531678,10.4553483 12.370388,10.4566007 C12.4557061,10.4638019 12.6070871,10.477578 12.7005457,10.4911976 C12.8364285,10.5110791 12.9311394,10.5206284 13.1132036,10.582621 C13.137625,10.590918 13.1650207,10.5884133 13.1869373,10.5747937 C13.8605591,10.1575959 14.1736531,9.50166387 14.1612859,8.8828335 C14.1719311,8.29108577 13.8970346,7.72876887 13.4383518,7.35978754 C12.979669,6.99080622 12.5031399,6.92709158 11.9528771,6.92755866 L11.9528771,6.92755866 Z M12.3115733,10.6923762 C12.2008946,10.6923762 12.095695,10.7016124 11.9930001,10.7160148 C11.9812591,10.7177368 11.9718663,10.7261903 11.9690484,10.7376182 C11.9430616,10.8420351 11.9100302,10.9560013 11.8690149,11.0765425 C11.8629095,11.0943889 11.8751202,11.1136442 11.8939058,11.1150531 L11.8939058,11.1150531 L12.3561892,11.1505893 L12.3625489,11.1499631 L12.3690261,11.1493369 L12.9941183,10.9932595 L13.0135243,10.981936 C13.0236709,10.9712212 13.0276715,10.9552186 13.0221402,10.9401901 L13.0221402,10.9401901 L12.9747065,10.8111953 L12.9642374,10.795345 L12.9642374,10.795345 L12.9477804,10.7858347 C12.7464609,10.7250945 12.5327742,10.6923762 12.3115733,10.6923762 Z" id="形状结合" fill="#FFFFFF"></path>
            </g>
        </g>
    </g>
</svg>