<svg width="180" height="180" viewBox="0 0 180 180" fill="none" xmlns="http://www.w3.org/2000/svg">
<path opacity="0.504527" fill-rule="evenodd" clip-rule="evenodd" d="M135.242 149.25L135.243 146.828C160.668 139.433 179.25 115.95 179.25 88.125C179.25 54.3666 151.898 27 118.159 27C101.893 27 87.112 33.3604 76.1645 43.731C69.6184 40.9707 62.4235 39.4446 54.8725 39.4446C24.5672 39.4446 0 64.0254 0 94.3473C0 124.669 24.5672 149.25 54.8725 149.25C55.5706 149.25 56.2658 149.237 56.9576 149.211L56.9573 149.25H135.242Z" fill="url(#paint0_linear_26201_251686)"/>
<g filter="url(#filter0_i_26201_251686)">
<path d="M38.164 58.9761C36.6034 53.6004 39.7591 47.9906 45.1637 46.5331L108.947 29.3319C114.211 27.9123 119.641 30.9706 121.157 36.2076L142.413 109.673C144.854 118.109 140.039 126.935 131.624 129.45L81.8328 144.33C72.2549 147.192 62.1794 141.702 59.3925 132.102L38.164 58.9761Z" fill="url(#paint1_linear_26201_251686)"/>
</g>
<g filter="url(#filter1_bd_26201_251686)">
<path fill-rule="evenodd" clip-rule="evenodd" d="M53.7702 52.3815C55.6065 51.8325 57.4723 52.9108 58.0006 54.7532C58.6545 57.0334 60.9502 58.0303 63.2514 57.3705C63.3359 57.3462 63.4192 57.3197 63.5011 57.2909L63.5943 57.2659C65.8257 56.6261 67.1491 54.3656 66.6311 52.15L66.5771 51.9425C66.1096 50.3141 67.051 48.615 68.6796 48.1481L89.0896 42.2956C91.0551 41.732 93.1055 42.8682 93.6696 44.8337C94.3036 47.0448 96.5753 48.3469 98.8107 47.8222L99.0201 47.7676C101.252 47.1277 102.575 44.8672 102.057 42.6516L102.003 42.4441C101.439 40.4789 102.575 38.4288 104.54 37.8652C105.568 37.5705 106.663 37.2564 107.595 36.9892C108.411 36.7551 109.064 36.568 109.374 36.4792C111.001 36.0127 112.551 37.152 113.009 38.5377C113.352 39.802 113.213 39.2484 113.501 40.252C116.582 50.9997 132.782 107.597 132.794 107.637C132.794 107.638 132.794 107.638 132.794 107.639C134.474 113.502 131.04 119.629 125.124 121.326L78.6948 134.639C73.4349 136.147 67.9594 133.145 66.465 127.933L47.0004 60.2527C46.0004 56.2532 47.7086 54.2103 51.0004 53.2493C52.0613 52.9031 52.9852 52.6162 53.7702 52.3815Z" fill="url(#paint2_linear_26201_251686)" fill-opacity="0.8" shape-rendering="crispEdges"/>
<path d="M109.374 36.4792C111.001 36.0127 112.551 37.152 113.009 38.5377C113.352 39.802 113.213 39.2484 113.501 40.252C116.582 50.9997 132.782 107.597 132.794 107.637C132.794 107.638 132.794 107.638 132.794 107.639C134.474 113.502 131.04 119.629 125.124 121.326L78.6948 134.639C73.4349 136.147 67.9594 133.145 66.465 127.933L47.0004 60.2527C46.0004 56.2532 47.7086 54.2103 51.0004 53.2493C52.0613 52.9031 52.9852 52.6162 53.7702 52.3815C55.6065 51.8325 57.4723 52.9108 58.0006 54.7532V54.7532C58.6545 57.0334 60.9502 58.0303 63.2514 57.3705C63.3359 57.3462 63.4192 57.3197 63.5011 57.2909L63.5943 57.2659C65.8257 56.6261 67.1491 54.3656 66.6311 52.15L66.5771 51.9425V51.9425C66.1096 50.3141 67.051 48.615 68.6796 48.1481L89.0896 42.2956C91.0551 41.732 93.1055 42.8682 93.6696 44.8337V44.8337C94.3036 47.0448 96.5753 48.3469 98.8107 47.8222L99.0201 47.7676C101.252 47.1277 102.575 44.8672 102.057 42.6516L102.003 42.4441V42.4441C101.439 40.4789 102.575 38.4288 104.54 37.8652C105.568 37.5705 106.663 37.2564 107.595 36.9892M109.374 36.4792C109.064 36.568 108.411 36.7551 107.595 36.9892M109.374 36.4792C108.679 36.6784 108.29 36.79 107.595 36.9892" stroke="white" stroke-opacity="0.6" stroke-width="0.5" shape-rendering="crispEdges"/>
</g>
<path opacity="0.8" fill-rule="evenodd" clip-rule="evenodd" d="M53.9536 52.2892C55.4656 51.8397 57.2263 52.7839 57.8 54.2533C58.7097 56.5833 60.5001 58.2519 63.2508 57.3692C63.3354 57.345 63.4186 57.3184 63.5005 57.2896L63.5937 57.2647C65.8252 56.6248 67.1485 54.3643 66.6305 52.1487L66.5765 51.9412C66.109 50.3128 67.0505 48.6138 68.6791 48.1468L89.089 42.2943C91.0546 41.7307 93.105 42.8669 93.669 44.8324C94.303 47.0435 96.5748 48.3456 98.8102 47.8209L99.0196 47.7663C101.251 47.1264 102.574 44.8659 102.056 42.6504L102.002 42.4428C101.438 40.4755 102.571 38.422 104.536 37.8503L109 36.552C110.95 35.852 112.8 37.152 113.21 39.252L132.793 107.636C134.474 113.499 131.04 119.628 125.123 121.325L78.6943 134.638C73.4344 136.146 67.9589 133.144 66.4644 127.932C58.6678 100.915 54.9465 87.7677 47.1499 60.7508C45.9999 57.2505 46.9998 54.4353 50.5 53.3509C52.0872 52.8598 52.9896 52.5757 53.9536 52.2892Z" fill="url(#paint3_linear_26201_251686)"/>
<g opacity="0.1" filter="url(#filter2_i_26201_251686)">
<path fill-rule="evenodd" clip-rule="evenodd" d="M54.0978 52.3295C55.7298 51.8615 57.4322 52.805 57.9005 54.4368C58.5543 56.7171 60.5002 58.2539 63.2511 57.3707C63.3356 57.3465 63.4189 57.3199 63.5008 57.2911L63.594 57.2662C65.8254 56.6264 67.1488 54.3658 66.6307 52.1503L66.5768 51.9428C66.1093 50.3143 67.0507 48.6153 68.6793 48.1483L89.0893 42.2959C91.0548 41.7322 93.1052 42.8685 93.6693 44.8339C94.3033 47.045 96.575 48.3472 98.8104 47.8224L99.0198 47.7678C101.251 47.128 102.575 44.8675 102.057 42.6519L102.003 42.4444C101.439 40.4792 102.575 38.4289 104.54 37.8654L109.779 36.3632C111.094 35.9861 112.463 36.7367 112.836 38.0397L132.793 107.637C134.475 113.501 131.041 119.629 125.123 121.326L78.6945 134.639C73.4346 136.148 67.9591 133.145 66.4646 127.933L46.1696 57.1561C45.796 55.8531 46.5591 54.4912 47.874 54.1141L54.0978 52.3295Z" fill="#6D7696"/>
</g>
<g filter="url(#filter3_di_26201_251686)">
<rect x="92.6024" y="36.4941" width="6.19229" height="11.0444" rx="3.09614" transform="rotate(-16 92.6024 36.4941)" fill="url(#paint4_radial_26201_251686)"/>
</g>
<g filter="url(#filter4_di_26201_251686)">
<rect x="56.8134" y="46.1074" width="6.19228" height="11.0444" rx="3.09614" transform="rotate(-16 56.8134 46.1074)" fill="url(#paint5_radial_26201_251686)"/>
</g>
<g filter="url(#filter5_d_26201_251686)">
<path fill-rule="evenodd" clip-rule="evenodd" d="M62.0707 70.2876L105.93 57.0002C106.912 56.7027 107.935 57.2538 108.216 58.231C108.496 59.2082 107.927 60.2416 106.945 60.5391L63.0855 73.8264C62.1035 74.1239 61.0802 73.5729 60.8 72.5957C60.5198 71.6185 61.0887 70.5851 62.0707 70.2876Z" fill="url(#paint6_linear_26201_251686)"/>
</g>
<g filter="url(#filter6_d_26201_251686)">
<path fill-rule="evenodd" clip-rule="evenodd" d="M65.3111 82.3845L104.429 70.5337C105.411 70.2362 106.434 70.7872 106.714 71.7644C106.995 72.7416 106.426 73.775 105.444 74.0725L66.3258 85.9234C65.3438 86.2209 64.3206 85.6699 64.0404 84.6926C63.7602 83.7154 64.3291 82.682 65.3111 82.3845Z" fill="url(#paint7_linear_26201_251686)"/>
</g>
<g filter="url(#filter7_d_26201_251686)">
<path fill-rule="evenodd" clip-rule="evenodd" d="M68.8041 95.4258L96.0681 87.1661C97.0501 86.8686 98.0733 87.4196 98.3536 88.3968C98.6338 89.374 98.0649 90.4074 97.0828 90.7049L69.8189 98.9646C68.8368 99.2621 67.8136 98.7111 67.5334 97.7339C67.2532 96.7566 67.8221 95.7233 68.8041 95.4258Z" fill="url(#paint8_linear_26201_251686)"/>
</g>
<path fill-rule="evenodd" clip-rule="evenodd" d="M65.3387 123.883C65.3387 123.883 68.9846 136.344 76.586 134.164C84.1875 131.985 82.7502 118.89 82.7502 118.89L134.921 102.096C135.46 101.923 136.036 102.231 136.19 102.776L137.904 108.836C139.504 114.491 136.288 120.387 130.668 122.104L82.9772 136.677C75.9198 138.834 68.4651 134.786 66.431 127.692L65.3387 123.883Z" fill="url(#paint9_linear_26201_251686)"/>
<g filter="url(#filter8_di_26201_251686)">
<path fill-rule="evenodd" clip-rule="evenodd" d="M65.3387 123.883C65.3387 123.883 68.9846 136.344 76.586 134.164C84.1875 131.985 82.7502 118.89 82.7502 118.89L134.921 102.096C135.46 101.923 136.036 102.231 136.19 102.776L137.851 108.647C139.48 114.407 136.205 120.412 130.481 122.161L81.8096 137.034C75.3937 138.995 68.6167 135.314 66.7675 128.866L65.3387 123.883Z" fill="url(#paint10_linear_26201_251686)"/>
</g>
<g opacity="0.5">
<mask id="mask0_26201_251686" style="mask-type:alpha" maskUnits="userSpaceOnUse" x="37" y="28" width="107" height="118">
<path d="M38.1643 58.9741C36.6037 53.5984 39.7594 47.9887 45.164 46.5312L108.947 29.3299C114.211 27.9104 119.642 30.9686 121.157 36.2056L142.413 109.671C144.854 118.107 140.039 126.933 131.625 129.448L81.8331 144.328C72.2552 147.19 62.1796 141.7 59.3927 132.1L38.1643 58.9741Z" fill="url(#paint11_linear_26201_251686)"/>
</mask>
<g mask="url(#mask0_26201_251686)">
<g style="mix-blend-mode:multiply" filter="url(#filter9_f_26201_251686)">
<path d="M130.011 121.583C130.011 108.396 111.426 97.7058 88.5008 97.7058C65.5754 97.7058 46.9906 108.396 46.9906 121.583C46.9906 134.771 65.5754 145.461 88.5008 145.461C111.426 145.461 130.011 134.771 130.011 121.583Z" fill="#E3ECFF" fill-opacity="0.742843"/>
</g>
</g>
</g>
<mask id="mask1_26201_251686" style="mask-type:alpha" maskUnits="userSpaceOnUse" x="37" y="28" width="107" height="118">
<path d="M38.1643 58.9761C36.6037 53.6004 39.7594 47.9906 45.164 46.5331L108.947 29.3319C114.211 27.9123 119.642 30.9706 121.157 36.2076L142.413 109.673C144.854 118.109 140.039 126.935 131.625 129.45L81.833 144.33C72.2551 147.192 62.1796 141.702 59.3927 132.102L38.1643 58.9761Z" fill="url(#paint12_linear_26201_251686)"/>
</mask>
<g mask="url(#mask1_26201_251686)">
<g style="mix-blend-mode:soft-light" opacity="0.8" filter="url(#filter10_f_26201_251686)">
<path d="M106.868 79.3372C125.736 79.3372 141.031 71.6073 141.031 62.0719C141.031 52.5366 125.736 44.8066 106.868 44.8066C87.9999 44.8066 72.7045 52.5366 72.7045 62.0719C72.7045 71.6073 87.9999 79.3372 106.868 79.3372Z" fill="white"/>
</g>
</g>
<g filter="url(#filter11_i_26201_251686)">
<path d="M153.521 94.761C155.55 94.761 157.195 93.1163 157.195 91.0875C157.195 89.0587 155.55 87.4141 153.521 87.4141C151.493 87.4141 149.848 89.0587 149.848 91.0875C149.848 93.1163 151.493 94.761 153.521 94.761Z" fill="url(#paint13_radial_26201_251686)"/>
</g>
<g opacity="0.5">
<g filter="url(#filter12_di_26201_251686)">
<path d="M21.6272 85.019C25.4543 85.019 28.5567 81.9166 28.5567 78.0896C28.5567 74.2626 25.4543 71.1602 21.6272 71.1602C17.8002 71.1602 14.6978 74.2626 14.6978 78.0896C14.6978 81.9166 17.8002 85.019 21.6272 85.019Z" fill="url(#paint14_radial_26201_251686)"/>
</g>
<g filter="url(#filter13_i_26201_251686)">
<path fill-rule="evenodd" clip-rule="evenodd" d="M11.3219 76.1117C10.8451 77.8912 15.0503 80.5641 20.7144 82.0818C26.3786 83.5995 31.3569 83.3873 31.8337 81.6078C32.1022 80.6055 30.8853 79.3196 28.7587 78.1165C28.7509 78.3901 28.7273 78.6622 28.6883 78.9307C30.2649 79.7682 31.1598 80.5815 31.0015 81.1722C30.6836 82.3588 26.2365 82.1982 21.0686 80.8135C15.9008 79.4288 11.9692 77.3443 12.2871 76.1577C12.4337 75.6106 13.4582 75.3499 15.0263 75.3635C15.1242 75.112 15.2356 74.8657 15.3606 74.6265C13.1171 74.6574 11.5767 75.1607 11.3219 76.1117Z" fill="url(#paint15_linear_26201_251686)"/>
<path fill-rule="evenodd" clip-rule="evenodd" d="M11.3219 76.1117C10.8451 77.8912 15.0503 80.5641 20.7144 82.0818C26.3786 83.5995 31.3569 83.3873 31.8337 81.6078C32.1022 80.6055 30.8853 79.3196 28.7587 78.1165C28.7509 78.3901 28.7273 78.6622 28.6883 78.9307C30.2649 79.7682 31.1598 80.5815 31.0015 81.1722C30.6836 82.3588 26.2365 82.1982 21.0686 80.8135C15.9008 79.4288 11.9692 77.3443 12.2871 76.1577C12.4337 75.6106 13.4582 75.3499 15.0263 75.3635C15.1242 75.112 15.2356 74.8657 15.3606 74.6265C13.1171 74.6574 11.5767 75.1607 11.3219 76.1117Z" fill="url(#paint16_linear_26201_251686)"/>
</g>
</g>
<path opacity="0.354075" fill-rule="evenodd" clip-rule="evenodd" d="M46.9025 30.6554L46.9853 30.9587C47.3895 32.441 48.5707 33.5844 50.0653 33.9402C50.4419 34.0299 50.6744 34.4078 50.5848 34.7843C50.5282 35.0219 50.352 35.2129 50.1198 35.2884L50.0253 35.3192C48.5665 35.7937 47.4296 36.948 46.9772 38.4138L46.9665 38.4482C46.8471 38.8353 46.4364 39.0523 46.0493 38.9328C45.8156 38.8607 45.6332 38.6769 45.563 38.4426C45.1287 36.9951 44.0172 35.8493 42.5834 35.3714L42.1932 35.2414C41.8083 35.1131 41.6003 34.697 41.7286 34.312C41.8035 34.0872 41.9824 33.9123 42.2089 33.8424L42.3593 33.7959C43.8251 33.3435 44.9794 32.2066 45.454 30.7478L45.4951 30.6214C45.6206 30.2355 46.0351 30.0245 46.421 30.15C46.6564 30.2266 46.8374 30.4166 46.9025 30.6554Z" fill="url(#paint17_linear_26201_251686)"/>
<g opacity="0.160218" filter="url(#filter14_f_26201_251686)">
<path d="M91.1796 152.936C113.961 152.936 132.43 152.096 132.43 151.061C132.43 150.025 113.961 149.186 91.1796 149.186C68.3978 149.186 49.9296 150.025 49.9296 151.061C49.9296 152.096 68.3978 152.936 91.1796 152.936Z" fill="#616783"/>
</g>
<defs>
<filter id="filter0_i_26201_251686" x="35.2648" y="28.9844" width="107.782" height="117.104" filterUnits="userSpaceOnUse" color-interpolation-filters="sRGB">
<feFlood flood-opacity="0" result="BackgroundImageFix"/>
<feBlend mode="normal" in="SourceGraphic" in2="BackgroundImageFix" result="shape"/>
<feColorMatrix in="SourceAlpha" type="matrix" values="0 0 0 0 0 0 0 0 0 0 0 0 0 0 0 0 0 0 127 0" result="hardAlpha"/>
<feOffset dx="-2.5" dy="1"/>
<feGaussianBlur stdDeviation="3.5"/>
<feComposite in2="hardAlpha" operator="arithmetic" k2="-1" k3="1"/>
<feColorMatrix type="matrix" values="0 0 0 0 1 0 0 0 0 1 0 0 0 0 1 0 0 0 0.5 0"/>
<feBlend mode="normal" in2="shape" result="effect1_innerShadow_26201_251686"/>
</filter>
<filter id="filter1_bd_26201_251686" x="42.466" y="32.123" width="95.0047" height="111.156" filterUnits="userSpaceOnUse" color-interpolation-filters="sRGB">
<feFlood flood-opacity="0" result="BackgroundImageFix"/>
<feGaussianBlur in="BackgroundImageFix" stdDeviation="2"/>
<feComposite in2="SourceAlpha" operator="in" result="effect1_backgroundBlur_26201_251686"/>
<feColorMatrix in="SourceAlpha" type="matrix" values="0 0 0 0 0 0 0 0 0 0 0 0 0 0 0 0 0 0 127 0" result="hardAlpha"/>
<feOffset dy="4"/>
<feGaussianBlur stdDeviation="2"/>
<feComposite in2="hardAlpha" operator="out"/>
<feColorMatrix type="matrix" values="0 0 0 0 0 0 0 0 0 0 0 0 0 0 0 0 0 0 0.25 0"/>
<feBlend mode="normal" in2="effect1_backgroundBlur_26201_251686" result="effect2_dropShadow_26201_251686"/>
<feBlend mode="normal" in="SourceGraphic" in2="effect2_dropShadow_26201_251686" result="shape"/>
</filter>
<filter id="filter2_i_26201_251686" x="46.0747" y="36.2656" width="87.1456" height="99.7637" filterUnits="userSpaceOnUse" color-interpolation-filters="sRGB">
<feFlood flood-opacity="0" result="BackgroundImageFix"/>
<feBlend mode="normal" in="SourceGraphic" in2="BackgroundImageFix" result="shape"/>
<feColorMatrix in="SourceAlpha" type="matrix" values="0 0 0 0 0 0 0 0 0 0 0 0 0 0 0 0 0 0 127 0" result="hardAlpha"/>
<feOffset dy="1"/>
<feGaussianBlur stdDeviation="2.5"/>
<feComposite in2="hardAlpha" operator="arithmetic" k2="-1" k3="1"/>
<feColorMatrix type="matrix" values="0 0 0 0 1 0 0 0 0 1 0 0 0 0 1 0 0 0 0.5 0"/>
<feBlend mode="normal" in2="shape" result="effect1_innerShadow_26201_251686"/>
</filter>
<filter id="filter3_di_26201_251686" x="91.8351" y="34.0195" width="10.5313" height="15.3594" filterUnits="userSpaceOnUse" color-interpolation-filters="sRGB">
<feFlood flood-opacity="0" result="BackgroundImageFix"/>
<feColorMatrix in="SourceAlpha" type="matrix" values="0 0 0 0 0 0 0 0 0 0 0 0 0 0 0 0 0 0 127 0" result="hardAlpha"/>
<feOffset dy="1.5"/>
<feGaussianBlur stdDeviation="0.75"/>
<feComposite in2="hardAlpha" operator="out"/>
<feColorMatrix type="matrix" values="0 0 0 0 0.119792 0 0 0 0 0.40748 0 0 0 0 0.625 0 0 0 0.5 0"/>
<feBlend mode="normal" in2="BackgroundImageFix" result="effect1_dropShadow_26201_251686"/>
<feBlend mode="normal" in="SourceGraphic" in2="effect1_dropShadow_26201_251686" result="shape"/>
<feColorMatrix in="SourceAlpha" type="matrix" values="0 0 0 0 0 0 0 0 0 0 0 0 0 0 0 0 0 0 127 0" result="hardAlpha"/>
<feOffset dy="-1.5"/>
<feGaussianBlur stdDeviation="0.75"/>
<feComposite in2="hardAlpha" operator="arithmetic" k2="-1" k3="1"/>
<feColorMatrix type="matrix" values="0 0 0 0 0.435294 0 0 0 0 0.756863 0 0 0 0 1 0 0 0 0.8 0"/>
<feBlend mode="normal" in2="shape" result="effect2_innerShadow_26201_251686"/>
</filter>
<filter id="filter4_di_26201_251686" x="56.0461" y="43.6328" width="10.5313" height="15.3594" filterUnits="userSpaceOnUse" color-interpolation-filters="sRGB">
<feFlood flood-opacity="0" result="BackgroundImageFix"/>
<feColorMatrix in="SourceAlpha" type="matrix" values="0 0 0 0 0 0 0 0 0 0 0 0 0 0 0 0 0 0 127 0" result="hardAlpha"/>
<feOffset dy="1.5"/>
<feGaussianBlur stdDeviation="0.75"/>
<feComposite in2="hardAlpha" operator="out"/>
<feColorMatrix type="matrix" values="0 0 0 0 0.119792 0 0 0 0 0.40748 0 0 0 0 0.625 0 0 0 0.5 0"/>
<feBlend mode="normal" in2="BackgroundImageFix" result="effect1_dropShadow_26201_251686"/>
<feBlend mode="normal" in="SourceGraphic" in2="effect1_dropShadow_26201_251686" result="shape"/>
<feColorMatrix in="SourceAlpha" type="matrix" values="0 0 0 0 0 0 0 0 0 0 0 0 0 0 0 0 0 0 127 0" result="hardAlpha"/>
<feOffset dy="-1.5"/>
<feGaussianBlur stdDeviation="0.75"/>
<feComposite in2="hardAlpha" operator="arithmetic" k2="-1" k3="1"/>
<feColorMatrix type="matrix" values="0 0 0 0 0.435294 0 0 0 0 0.756863 0 0 0 0 1 0 0 0 0.8 0"/>
<feBlend mode="normal" in2="shape" result="effect2_innerShadow_26201_251686"/>
</filter>
<filter id="filter5_d_26201_251686" x="54.7285" y="53.9199" width="59.5585" height="28.9863" filterUnits="userSpaceOnUse" color-interpolation-filters="sRGB">
<feFlood flood-opacity="0" result="BackgroundImageFix"/>
<feColorMatrix in="SourceAlpha" type="matrix" values="0 0 0 0 0 0 0 0 0 0 0 0 0 0 0 0 0 0 127 0" result="hardAlpha"/>
<feOffset dy="3"/>
<feGaussianBlur stdDeviation="3"/>
<feColorMatrix type="matrix" values="0 0 0 0 0.0855531 0 0 0 0 0.128128 0 0 0 0 0.193727 0 0 0 0.15 0"/>
<feBlend mode="normal" in2="BackgroundImageFix" result="effect1_dropShadow_26201_251686"/>
<feBlend mode="normal" in="SourceGraphic" in2="effect1_dropShadow_26201_251686" result="shape"/>
</filter>
<filter id="filter6_d_26201_251686" x="57.9689" y="67.4531" width="54.817" height="27.5508" filterUnits="userSpaceOnUse" color-interpolation-filters="sRGB">
<feFlood flood-opacity="0" result="BackgroundImageFix"/>
<feColorMatrix in="SourceAlpha" type="matrix" values="0 0 0 0 0 0 0 0 0 0 0 0 0 0 0 0 0 0 127 0" result="hardAlpha"/>
<feOffset dy="3"/>
<feGaussianBlur stdDeviation="3"/>
<feColorMatrix type="matrix" values="0 0 0 0 0.0855531 0 0 0 0 0.128128 0 0 0 0 0.193727 0 0 0 0.15 0"/>
<feBlend mode="normal" in2="BackgroundImageFix" result="effect1_dropShadow_26201_251686"/>
<feBlend mode="normal" in="SourceGraphic" in2="effect1_dropShadow_26201_251686" result="shape"/>
</filter>
<filter id="filter7_d_26201_251686" x="61.4619" y="84.0859" width="42.9631" height="23.959" filterUnits="userSpaceOnUse" color-interpolation-filters="sRGB">
<feFlood flood-opacity="0" result="BackgroundImageFix"/>
<feColorMatrix in="SourceAlpha" type="matrix" values="0 0 0 0 0 0 0 0 0 0 0 0 0 0 0 0 0 0 127 0" result="hardAlpha"/>
<feOffset dy="3"/>
<feGaussianBlur stdDeviation="3"/>
<feColorMatrix type="matrix" values="0 0 0 0 0.0855531 0 0 0 0 0.128128 0 0 0 0 0.193727 0 0 0 0.15 0"/>
<feBlend mode="normal" in2="BackgroundImageFix" result="effect1_dropShadow_26201_251686"/>
<feBlend mode="normal" in="SourceGraphic" in2="effect1_dropShadow_26201_251686" result="shape"/>
</filter>
<filter id="filter8_di_26201_251686" x="51.3387" y="95.0488" width="100.93" height="63.5117" filterUnits="userSpaceOnUse" color-interpolation-filters="sRGB">
<feFlood flood-opacity="0" result="BackgroundImageFix"/>
<feColorMatrix in="SourceAlpha" type="matrix" values="0 0 0 0 0 0 0 0 0 0 0 0 0 0 0 0 0 0 127 0" result="hardAlpha"/>
<feOffset dy="7"/>
<feGaussianBlur stdDeviation="7"/>
<feColorMatrix type="matrix" values="0 0 0 0 0.0822796 0 0 0 0 0.102764 0 0 0 0 0.152797 0 0 0 0.163543 0"/>
<feBlend mode="normal" in2="BackgroundImageFix" result="effect1_dropShadow_26201_251686"/>
<feBlend mode="normal" in="SourceGraphic" in2="effect1_dropShadow_26201_251686" result="shape"/>
<feColorMatrix in="SourceAlpha" type="matrix" values="0 0 0 0 0 0 0 0 0 0 0 0 0 0 0 0 0 0 127 0" result="hardAlpha"/>
<feOffset dy="3"/>
<feGaussianBlur stdDeviation="5.5"/>
<feComposite in2="hardAlpha" operator="arithmetic" k2="-1" k3="1"/>
<feColorMatrix type="matrix" values="0 0 0 0 1 0 0 0 0 1 0 0 0 0 1 0 0 0 0.5 0"/>
<feBlend mode="normal" in2="shape" result="effect2_innerShadow_26201_251686"/>
</filter>
<filter id="filter9_f_26201_251686" x="33.2291" y="83.9436" width="110.543" height="75.2788" filterUnits="userSpaceOnUse" color-interpolation-filters="sRGB">
<feFlood flood-opacity="0" result="BackgroundImageFix"/>
<feBlend mode="normal" in="SourceGraphic" in2="BackgroundImageFix" result="shape"/>
<feGaussianBlur stdDeviation="6.88073" result="effect1_foregroundBlur_26201_251686"/>
</filter>
<filter id="filter10_f_26201_251686" x="42.7045" y="14.8066" width="128.327" height="94.5312" filterUnits="userSpaceOnUse" color-interpolation-filters="sRGB">
<feFlood flood-opacity="0" result="BackgroundImageFix"/>
<feBlend mode="normal" in="SourceGraphic" in2="BackgroundImageFix" result="shape"/>
<feGaussianBlur stdDeviation="15" result="effect1_foregroundBlur_26201_251686"/>
</filter>
<filter id="filter11_i_26201_251686" x="149.848" y="87.4141" width="7.34695" height="8.34766" filterUnits="userSpaceOnUse" color-interpolation-filters="sRGB">
<feFlood flood-opacity="0" result="BackgroundImageFix"/>
<feBlend mode="normal" in="SourceGraphic" in2="BackgroundImageFix" result="shape"/>
<feColorMatrix in="SourceAlpha" type="matrix" values="0 0 0 0 0 0 0 0 0 0 0 0 0 0 0 0 0 0 127 0" result="hardAlpha"/>
<feOffset dy="1"/>
<feGaussianBlur stdDeviation="3.5"/>
<feComposite in2="hardAlpha" operator="arithmetic" k2="-1" k3="1"/>
<feColorMatrix type="matrix" values="0 0 0 0 1 0 0 0 0 1 0 0 0 0 1 0 0 0 0.6 0"/>
<feBlend mode="normal" in2="shape" result="effect1_innerShadow_26201_251686"/>
</filter>
<filter id="filter12_di_26201_251686" x="12.6978" y="69.1602" width="17.8589" height="19.8594" filterUnits="userSpaceOnUse" color-interpolation-filters="sRGB">
<feFlood flood-opacity="0" result="BackgroundImageFix"/>
<feColorMatrix in="SourceAlpha" type="matrix" values="0 0 0 0 0 0 0 0 0 0 0 0 0 0 0 0 0 0 127 0" result="hardAlpha"/>
<feOffset dy="2"/>
<feGaussianBlur stdDeviation="1"/>
<feComposite in2="hardAlpha" operator="out"/>
<feColorMatrix type="matrix" values="0 0 0 0 0.560784 0 0 0 0 0.729412 0 0 0 0 0.933333 0 0 0 0.5 0"/>
<feBlend mode="normal" in2="BackgroundImageFix" result="effect1_dropShadow_26201_251686"/>
<feBlend mode="normal" in="SourceGraphic" in2="effect1_dropShadow_26201_251686" result="shape"/>
<feColorMatrix in="SourceAlpha" type="matrix" values="0 0 0 0 0 0 0 0 0 0 0 0 0 0 0 0 0 0 127 0" result="hardAlpha"/>
<feOffset dy="-2"/>
<feGaussianBlur stdDeviation="1"/>
<feComposite in2="hardAlpha" operator="arithmetic" k2="-1" k3="1"/>
<feColorMatrix type="matrix" values="0 0 0 0 0.571563 0 0 0 0 0.663645 0 0 0 0 0.775 0 0 0 0.8 0"/>
<feBlend mode="normal" in2="shape" result="effect2_innerShadow_26201_251686"/>
</filter>
<filter id="filter13_i_26201_251686" x="11.285" y="74.627" width="20.5855" height="8.4668" filterUnits="userSpaceOnUse" color-interpolation-filters="sRGB">
<feFlood flood-opacity="0" result="BackgroundImageFix"/>
<feBlend mode="normal" in="SourceGraphic" in2="BackgroundImageFix" result="shape"/>
<feColorMatrix in="SourceAlpha" type="matrix" values="0 0 0 0 0 0 0 0 0 0 0 0 0 0 0 0 0 0 127 0" result="hardAlpha"/>
<feOffset/>
<feGaussianBlur stdDeviation="0.5"/>
<feComposite in2="hardAlpha" operator="arithmetic" k2="-1" k3="1"/>
<feColorMatrix type="matrix" values="0 0 0 0 1 0 0 0 0 1 0 0 0 0 1 0 0 0 1 0"/>
<feBlend mode="normal" in2="shape" result="effect1_innerShadow_26201_251686"/>
</filter>
<filter id="filter14_f_26201_251686" x="46.9296" y="146.186" width="88.5" height="9.75" filterUnits="userSpaceOnUse" color-interpolation-filters="sRGB">
<feFlood flood-opacity="0" result="BackgroundImageFix"/>
<feBlend mode="normal" in="SourceGraphic" in2="BackgroundImageFix" result="shape"/>
<feGaussianBlur stdDeviation="1.5" result="effect1_foregroundBlur_26201_251686"/>
</filter>
<linearGradient id="paint0_linear_26201_251686" x1="89.625" y1="27" x2="89.625" y2="149.25" gradientUnits="userSpaceOnUse">
<stop stop-color="#D7E2EC"/>
<stop offset="1" stop-color="#D7E2EC" stop-opacity="0"/>
</linearGradient>
<linearGradient id="paint1_linear_26201_251686" x1="111.133" y1="36.5473" x2="46.812" y2="112.87" gradientUnits="userSpaceOnUse">
<stop stop-color="#070707"/>
<stop offset="0.724784" stop-color="#232528"/>
<stop offset="1" stop-color="#595E67"/>
</linearGradient>
<linearGradient id="paint2_linear_26201_251686" x1="78.2237" y1="43.0815" x2="90.667" y2="86.4766" gradientUnits="userSpaceOnUse">
<stop stop-color="#E6E6E6"/>
<stop offset="1" stop-color="#C5CBDA"/>
</linearGradient>
<linearGradient id="paint3_linear_26201_251686" x1="78.8268" y1="45.225" x2="102.504" y2="127.799" gradientUnits="userSpaceOnUse">
<stop stop-color="white"/>
<stop offset="1" stop-color="white" stop-opacity="0.2"/>
</linearGradient>
<radialGradient id="paint4_radial_26201_251686" cx="0" cy="0" r="1" gradientUnits="userSpaceOnUse" gradientTransform="translate(95.6986 39.007) scale(3.70763 6.61285)">
<stop stop-color="#EAEDF6"/>
<stop offset="1" stop-color="#9FD4FD"/>
</radialGradient>
<radialGradient id="paint5_radial_26201_251686" cx="0" cy="0" r="1" gradientUnits="userSpaceOnUse" gradientTransform="translate(59.9095 48.6203) scale(3.70762 6.61285)">
<stop stop-color="#EAEDF6"/>
<stop offset="1" stop-color="#9FD4FD"/>
</radialGradient>
<linearGradient id="paint6_linear_26201_251686" x1="83.9062" y1="63.3153" x2="85.1094" y2="67.5114" gradientUnits="userSpaceOnUse">
<stop stop-color="#F2F8FF"/>
<stop offset="1" stop-color="white"/>
</linearGradient>
<linearGradient id="paint7_linear_26201_251686" x1="84.786" y1="76.166" x2="85.9688" y2="80.2911" gradientUnits="userSpaceOnUse">
<stop stop-color="#F2F8FF"/>
<stop offset="1" stop-color="white"/>
</linearGradient>
<linearGradient id="paint8_linear_26201_251686" x1="82.3775" y1="91.0916" x2="83.5095" y2="95.0391" gradientUnits="userSpaceOnUse">
<stop stop-color="#F2F8FF"/>
<stop offset="1" stop-color="white"/>
</linearGradient>
<linearGradient id="paint9_linear_26201_251686" x1="74.1868" y1="118.63" x2="79.1027" y2="137.317" gradientUnits="userSpaceOnUse">
<stop stop-color="#DFDFDF"/>
<stop offset="1" stop-color="#BEBEBE"/>
</linearGradient>
<linearGradient id="paint10_linear_26201_251686" x1="97.4678" y1="105.752" x2="103.631" y2="130.92" gradientUnits="userSpaceOnUse">
<stop stop-color="#F8F9FC"/>
<stop offset="1" stop-color="#B8BFCD"/>
</linearGradient>
<linearGradient id="paint11_linear_26201_251686" x1="111.133" y1="36.5454" x2="46.8123" y2="112.868" gradientUnits="userSpaceOnUse">
<stop stop-color="#070707"/>
<stop offset="0.724784" stop-color="#232528"/>
<stop offset="1" stop-color="#595E67"/>
</linearGradient>
<linearGradient id="paint12_linear_26201_251686" x1="111.133" y1="36.5473" x2="46.8122" y2="112.87" gradientUnits="userSpaceOnUse">
<stop stop-color="#070707"/>
<stop offset="0.724784" stop-color="#232528"/>
<stop offset="1" stop-color="#595E67"/>
</linearGradient>
<radialGradient id="paint13_radial_26201_251686" cx="0" cy="0" r="1" gradientUnits="userSpaceOnUse" gradientTransform="translate(152.225 87.9817) scale(7.0382 7.0382)">
<stop stop-color="#FEFEFF"/>
<stop offset="0.476642" stop-color="#C3CAD7"/>
<stop offset="0.740314" stop-color="#8894AD"/>
<stop offset="1" stop-color="#D7DBE6"/>
</radialGradient>
<radialGradient id="paint14_radial_26201_251686" cx="0" cy="0" r="1" gradientUnits="userSpaceOnUse" gradientTransform="translate(21.6272 74.3134) scale(8.29798 8.29798)">
<stop stop-color="#EAEDF6"/>
<stop offset="1" stop-color="#AEB9D1"/>
</radialGradient>
<linearGradient id="paint15_linear_26201_251686" x1="14.3518" y1="79.6348" x2="29.4056" y2="81.7868" gradientUnits="userSpaceOnUse">
<stop stop-color="#DEEEFF"/>
<stop offset="1" stop-color="#7A97BE"/>
</linearGradient>
<linearGradient id="paint16_linear_26201_251686" x1="19.9267" y1="70.1979" x2="30.4514" y2="71.8042" gradientUnits="userSpaceOnUse">
<stop stop-color="#C7E7FF"/>
<stop offset="1" stop-color="#6FC1FF"/>
</linearGradient>
<linearGradient id="paint17_linear_26201_251686" x1="47.3427" y1="31.696" x2="45.267" y2="37.8261" gradientUnits="userSpaceOnUse">
<stop offset="0.000928759" stop-color="#BBD3EB"/>
<stop offset="1" stop-color="#CED9E8"/>
</linearGradient>
</defs>
</svg>
