<?xml version="1.0" encoding="UTF-8"?>
<svg width="14px" height="14px" viewBox="0 0 14 14" version="1.1" xmlns="http://www.w3.org/2000/svg" xmlns:xlink="http://www.w3.org/1999/xlink">
    <title>角球</title>
    <g id="角球" stroke="none" stroke-width="1" fill="none" fill-rule="evenodd">
        <g id="编组-9">
            <rect id="矩形" x="0" y="0" width="14" height="14"></rect>
            <g id="编组-14" transform="translate(4.000000, 2.000000)">
                <path d="M1.06060606,5 C1.19077418,5 1.29903474,5.09379743 1.32148563,5.21749019 L1.32575758,5.26515152 L1.32574284,9.02128788 L4.62934458,6.89817237 C4.75252603,6.8189843 4.91657894,6.85464798 4.99576702,6.97782943 C5.06615642,7.08732405 5.04579876,7.22911218 4.95389156,7.31488518 L4.91610997,7.34425187 L4.30996891,7.73390025 C4.71243965,8.21091746 4.92241189,8.73008649 4.90454669,9.24193511 L6.36363636,9.24190439 C6.5100755,9.24190439 6.62878788,9.36061676 6.62878788,9.5070559 C6.62878788,9.63722402 6.53499045,9.74548458 6.41129768,9.76793547 L6.36363636,9.77220742 L1.05123696,9.77258531 L1.00859163,9.76710756 L1.00859163,9.76710756 L0.989960498,9.76308909 L0.989960498,9.76308909 L0.960388813,9.75261424 L0.960388813,9.75261424 L0.920108825,9.7319662 L0.920108825,9.7319662 L0.893275929,9.71335231 L0.893275929,9.71335231 L0.861132745,9.6823173 L0.861132745,9.6823173 L0.837566313,9.65095845 L0.837566313,9.65095845 L0.823736608,9.62677947 L0.823736608,9.62677947 L0.808630322,9.58983034 L0.808630322,9.58983034 L0.798265978,9.54580695 L0.798265978,9.54580695 L0.796225982,9.52825442 L0.796225982,9.52825442 L0.795454545,5.26515152 C0.795454545,5.11871238 0.914166922,5 1.06060606,5 Z M3.87240842,8.01529641 L1.96369739,9.24189394 L4.33736373,9.24227544 C4.36461425,8.83591484 4.202925,8.41378307 3.87240842,8.01529641 Z" id="形状" fill="#CACACA" fill-rule="nonzero"></path>
                <path d="M5.42811183,0.063576939 L0.84514565,4.70610272 C0.73058601,4.82215116 0.826818959,5 1.00417172,5 L5.5871379,5 C5.70218801,5 5.79545455,4.92005655 5.79545455,4.82144132 L5.79545455,0.178915535 C5.79545455,0.0125770035 5.55346333,-0.063403615 5.42811183,0.063576939 Z" id="三角形备份-2" fill="#E02020" transform="translate(3.295455, 2.500000) rotate(-270.000000) translate(-3.295455, -2.500000) "></path>
            </g>
        </g>
    </g>
</svg>