<?xml version="1.0" encoding="UTF-8"?>
<svg width="23px" height="23px" viewBox="0 0 23 23" version="1.1" xmlns="http://www.w3.org/2000/svg" xmlns:xlink="http://www.w3.org/1999/xlink">
    <title>编组 2@2x</title>
    <g id="页面-1" stroke="none" stroke-width="1" fill="none" fill-rule="evenodd">
        <g id="滚球（角球）" transform="translate(-271.000000, -224.000000)">
            <g id="编组-2" transform="translate(271.000000, 224.000000)">
                <path d="M14.6534165,1.50719802 L21.6790935,8.53287497 C23.2311632,10.0849447 23.2311632,12.6013468 21.6790935,14.1534165 L14.6534165,21.1790935 C13.1013468,22.7311632 10.5849447,22.7311632 9.03287497,21.1790935 L2.00719802,14.1534165 C0.455128327,12.6013468 0.455128327,10.0849447 2.00719802,8.53287497 L9.03287497,1.50719802 C10.5849447,-0.0448716731 13.1013468,-0.0448716731 14.6534165,1.50719802 Z" id="矩形" fill="#FFFFFF"></path>
                <path d="M8.81820577,1.59611692 C10.488834,-0.0745113049 13.1974575,-0.0745113049 14.8680857,1.59611692 L14.8680857,1.59611692 L21.5901746,8.31820577 C23.2608028,9.98883399 23.2608028,12.6974575 21.5901746,14.3680857 L21.5901746,14.3680857 L14.8680857,21.0901746 C13.1974575,22.7608028 10.488834,22.7608028 8.81820577,21.0901746 L8.81820577,21.0901746 L2.09611692,14.3680857 C0.425488695,12.6974575 0.425488695,9.98883399 2.09611692,8.31820577 L2.09611692,8.31820577 Z M14.1958768,2.2683258 C12.8964993,0.968948296 10.7897922,0.968948296 9.49041465,2.2683258 L9.49041465,2.2683258 L2.7683258,8.99041465 C1.4689483,10.2897922 1.4689483,12.3964993 2.7683258,13.6958768 L2.7683258,13.6958768 L9.49041465,20.4179657 C10.7897922,21.7173432 12.8964993,21.7173432 14.1958768,20.4179657 L14.1958768,20.4179657 L20.9179657,13.6958768 C22.2173432,12.3964993 22.2173432,10.2897922 20.9179657,8.99041465 L20.9179657,8.99041465 Z M10.9952428,5.42259081 L10.9948546,15.6705908 L13.5660189,14.6328815 C13.7120581,14.5738779 13.8782782,14.6444341 13.9372819,14.7904733 C13.9476865,14.8162258 13.9540625,14.8426057 13.9567062,14.8689147 L13.8403585,14.8705636 C14.2515287,14.8507719 14.555264,14.95387 14.7515644,15.1798579 C14.9354012,15.3914974 14.9989863,15.7417234 14.9423198,16.2305361 C15.0150296,16.2829493 15.0628316,16.3681576 15.0628316,16.4645306 C15.0628316,16.6220389 14.9351459,16.7497247 14.7776375,16.7497247 L10.9072397,16.7511977 C10.8560211,16.8002305 10.7865528,16.8303539 10.7100487,16.8303539 C10.5525404,16.8303539 10.4248546,16.7026681 10.4248546,16.5451598 L10.4248546,5.92259081 C10.4248546,5.64644844 10.6487123,5.42259081 10.9248546,5.42259081 L10.9952428,5.42259081 Z M11.1511489,5.42259081 L15.9043835,10.1758254 L11.1511489,10.1758254 L11.1511489,5.42259081 Z" id="形状结合" fill="#FF9124" fill-rule="nonzero"></path>
            </g>
        </g>
    </g>
</svg>