<?xml version="1.0" encoding="UTF-8"?>
<svg width="18px" height="12px" viewBox="0 0 18 12" version="1.1" xmlns="http://www.w3.org/2000/svg" xmlns:xlink="http://www.w3.org/1999/xlink">
    <title>视频不可播放</title>
    <g id="页面-1" stroke="none" stroke-width="1" fill="none" fill-rule="evenodd">
        <g id="虚拟足球列表（开赛）" transform="translate(-130.000000, -566.000000)" fill="#2F2F2F" fill-rule="nonzero">
            <path d="M142.120455,566 C145.361503,566.003816 147.987778,568.671012 147.990909,571.961923 C147.987778,575.252834 145.361503,577.92003 142.120455,577.923846 L135.871591,577.923846 C132.630358,577.920031 130.003757,575.253021 130,571.961923 C130.003757,568.670825 132.630358,566.003815 135.871591,566 L142.120455,566 Z M142.120455,567.153846 L135.871591,567.153846 C133.257436,567.15639 131.138869,569.30755 131.136364,571.961923 C131.138869,574.616296 133.257436,576.767456 135.871591,576.77 L142.120455,576.77 C144.734166,576.76682 146.852041,574.615846 146.854545,571.961923 C146.851416,569.308263 144.733907,567.157661 142.120455,567.153846 Z M138.3,569.514615 L140.963636,571.786538 L140.963636,572.579231 L138.229545,574.410385 L137.4125,574.410385 L137.4125,569.514615 L138.3,569.514615 Z" id="视频不可播放"></path>
        </g>
    </g>
</svg>