<?xml version="1.0" encoding="UTF-8"?>
<svg width="18px" height="12px" viewBox="0 0 18 12" version="1.1" xmlns="http://www.w3.org/2000/svg" xmlns:xlink="http://www.w3.org/1999/xlink">
    <title>视频可播放</title>
    <g id="页面-1" stroke="none" stroke-width="1" fill="none" fill-rule="evenodd">
        <g id="虚拟足球简版" transform="translate(-130.000000, -562.000000)" fill="#A0A0A0" fill-rule="nonzero">
            <path d="M142.120455,562 C145.361503,562.003816 147.987778,564.671012 147.990909,567.961923 C147.987778,571.252834 145.361503,573.92003 142.120455,573.923846 L135.871591,573.923846 C132.630358,573.920031 130.003757,571.253021 130,567.961923 C130.003757,564.670825 132.630358,562.003815 135.871591,562 L142.120455,562 Z M142.120455,563.153846 L135.871591,563.153846 C133.257436,563.15639 131.138869,565.30755 131.136364,567.961923 C131.138869,570.616296 133.257436,572.767456 135.871591,572.77 L142.120455,572.77 C144.734166,572.76682 146.852041,570.615846 146.854545,567.961923 C146.851416,565.308263 144.733907,563.157661 142.120455,563.153846 Z M138.3,565.514615 L140.963636,567.786538 L140.963636,568.579231 L138.229545,570.410385 L137.4125,570.410385 L137.4125,565.514615 L138.3,565.514615 Z" id="视频可播放"></path>
        </g>
    </g>
</svg>