<?xml version="1.0" encoding="UTF-8"?>
<svg width="16px" height="16px" viewBox="0 0 16 16" version="1.1" xmlns="http://www.w3.org/2000/svg" xmlns:xlink="http://www.w3.org/1999/xlink">
    <title>视频@2x</title>
    <g id="视频" stroke="none" stroke-width="1" fill="none" fill-rule="evenodd">
        <path d="M14.2980423,2 C15.2361167,2 16,2.7075367 16,3.57641544 L16,12.4235846 C16,13.2924633 15.2361167,14 14.2980423,14 L1.70195765,14 C0.76388334,14 0,13.2924633 0,12.4235846 L0,3.57641544 C0,2.7075367 0.76388334,2 1.70195765,2 L14.2980423,2 Z M14.2980423,3 L1.70195765,3 C1.33633948,3 1.05535133,3.22947524 1.00728421,3.49565361 L1,3.57641544 L1,12.4235846 C1,12.6951758 1.24775013,12.9493412 1.59495939,12.9933085 L1.70195765,13 L14.2980423,13 C14.6636605,13 14.9446487,12.7705248 14.9927158,12.5043464 L15,12.4235846 L15,3.57641544 C15,3.30482417 14.7522499,3.05065881 14.4050406,3.00669149 L14.2980423,3 Z M6.90166982,5.39368501 C6.98758231,5.39332139 7.07132898,5.42062856 7.14051423,5.47156469 L10.2857579,7.78718204 C10.374708,7.8526696 10.3937281,7.97786605 10.3282405,8.06681613 C10.317094,8.0819562 10.3038683,8.09544896 10.2889541,8.10689596 L7.16550073,10.504222 C6.99025464,10.6387276 6.73915128,10.6057009 6.60464566,10.4304548 C6.55137585,10.3610501 6.52233066,10.2760941 6.52196036,10.1886038 L6.50336636,5.79537438 C6.50243137,5.57446246 6.6807579,5.39462 6.90166982,5.39368501 Z" id="形状结合" fill="#4987FB"></path>
    </g>
</svg>