<?xml version="1.0" encoding="UTF-8"?>
<svg width="18px" height="12px" viewBox="0 0 18 12" version="1.1" xmlns="http://www.w3.org/2000/svg" xmlns:xlink="http://www.w3.org/1999/xlink">
    <title>视频播放中</title>
    <g id="页面-1" stroke="none" stroke-width="1" fill="none" fill-rule="evenodd">
        <g id="虚拟足球简版" transform="translate(-130.000000, -464.000000)" fill="#75AC6B" fill-rule="nonzero">
            <g id="编组-3" transform="translate(7.000000, 412.000000)">
                <path d="M135.120455,52 C138.361503,52.0038162 140.987778,54.6710121 140.990909,57.9619231 C140.987778,61.2528341 138.361503,63.9200299 135.120455,63.9238462 L128.871591,63.9238462 C125.630358,63.9200311 123.003757,61.2530207 123,57.9619231 C123.003757,54.6708254 125.630358,52.003815 128.871591,52 L135.120455,52 Z M135.120455,53.1538462 L128.871591,53.1538462 C126.257436,53.1563905 124.138869,55.3075501 124.136364,57.9619231 C124.138869,60.616296 126.257436,62.7674557 128.871591,62.77 L135.120455,62.77 C137.734166,62.7668198 139.852041,60.6158461 139.854545,57.9619231 C139.851416,55.3082632 137.733907,53.1576606 135.120455,53.1538462 Z M131.3,55.5146154 L133.963636,57.7865385 L133.963636,58.5792308 L131.229545,60.4103846 L130.4125,60.4103846 L130.4125,55.5146154 L131.3,55.5146154 Z" id="视频播放中"></path>
            </g>
        </g>
    </g>
</svg>