<?xml version="1.0" encoding="UTF-8"?>
<svg width="20px" height="14px" viewBox="0 0 20 14" version="1.1" xmlns="http://www.w3.org/2000/svg" xmlns:xlink="http://www.w3.org/1999/xlink">
    <title>动画-选中-黑</title>
    <g id="页面-1" stroke="none" stroke-width="1" fill="none" fill-rule="evenodd">
        <g id="组件_1" transform="translate(-1629.000000, -235.000000)" fill="#FFB001" fill-rule="nonzero">
            <path d="M1647,235 C1648.10457,235 1649,235.895431 1649,237 L1649,247 C1649,248.104569 1648.10457,249 1647,249 L1639.75,249 L1639.7506,245.929688 C1641.60095,245.578395 1643,243.95258 1643,242 C1643,240.04742 1641.60095,238.421605 1639.7506,238.070312 L1639.75,235 L1647,235 Z M1638.25,235 L1638.25039,238.070123 C1636.39955,238.421022 1635,240.047069 1635,242 C1635,243.952931 1636.39955,245.578978 1638.25039,245.929877 L1638.25,249 L1631,249 C1629.89543,249 1629,248.104569 1629,247 L1629,237 C1629,235.895431 1629.89543,235 1631,235 L1638.25,235 Z M1639,239.5 C1640.38071,239.5 1641.5,240.619288 1641.5,242 C1641.5,243.380712 1640.38071,244.5 1639,244.5 C1637.61929,244.5 1636.5,243.380712 1636.5,242 C1636.5,240.619288 1637.61929,239.5 1639,239.5 Z M1631.75,240 C1631.33579,240 1631,240.335786 1631,240.75 L1631,240.75 L1631,243.25 C1631,243.664214 1631.33579,244 1631.75,244 C1632.16421,244 1632.5,243.664214 1632.5,243.25 L1632.5,243.25 L1632.5,240.75 C1632.5,240.335786 1632.16421,240 1631.75,240 Z M1646.25,240 C1645.83579,240 1645.5,240.335786 1645.5,240.75 L1645.5,240.75 L1645.5,243.25 C1645.5,243.664214 1645.83579,244 1646.25,244 C1646.66421,244 1647,243.664214 1647,243.25 L1647,243.25 L1647,240.75 C1647,240.335786 1646.66421,240 1646.25,240 Z" id="动画-选中-黑"></path>
        </g>
    </g>
</svg>