<?xml version="1.0" encoding="UTF-8"?>
<svg width="20px" height="20px" viewBox="0 0 20 20" version="1.1" xmlns="http://www.w3.org/2000/svg" xmlns:xlink="http://www.w3.org/1999/xlink">
    <title>更多@1x</title>
    <defs>
        <linearGradient x1="50%" y1="22.0431586%" x2="50%" y2="100%" id="linearGradient-1">
            <stop stop-color="#191C24" offset="0%"></stop>
            <stop stop-color="#212736" offset="100%"></stop>
        </linearGradient>
    </defs>
    <g id="页面-1" stroke="none" stroke-width="1" fill="none" fill-rule="evenodd">
        <g id="画板备份-2" transform="translate(-142.000000, -35.000000)">
            <g id="编组-73" transform="translate(142.000000, 35.000000)">
                <rect id="矩形备份-95" stroke="#313541" stroke-width="0.5" fill="url(#linearGradient-1)" opacity="0.962521508" x="0.25" y="0.25" width="19.5" height="19.5" rx="4"></rect>
                <path d="M5.71428571,7.42857143 C6.18767264,7.42857143 6.57142857,7.81232736 6.57142857,8.28571429 L6.57142857,15.1428571 C6.57142857,15.6162441 6.18767264,16 5.71428571,16 L4.85714286,16 C4.38375593,16 4,15.6162441 4,15.1428571 L4,8.28571429 C4,7.81232736 4.38375593,7.42857143 4.85714286,7.42857143 L5.71428571,7.42857143 Z M10.4285714,4 C10.9019584,4 11.2857143,4.41327562 11.2857143,4.92307692 L11.2857143,15.0769231 C11.2857143,15.5867244 10.9019584,16 10.4285714,16 L9.57142857,16 C9.09804164,16 8.71428571,15.5867244 8.71428571,15.0769231 L8.71428571,4.92307692 C8.71428571,4.41327562 9.09804164,4 9.57142857,4 L10.4285714,4 Z M15.1428571,9.14285714 C15.6162441,9.14285714 16,9.52661307 16,10 L16,15.1428571 C16,15.6162441 15.6162441,16 15.1428571,16 L14.2857143,16 C13.8123274,16 13.4285714,15.6162441 13.4285714,15.1428571 L13.4285714,10 C13.4285714,9.52661307 13.8123274,9.14285714 14.2857143,9.14285714 L15.1428571,9.14285714 Z" id="形状" fill="#717B88"></path>
            </g>
        </g>
    </g>
</svg>