<?xml version="1.0" encoding="UTF-8"?>
<svg width="162px" height="128px" viewBox="0 0 162 128" version="1.1" xmlns="http://www.w3.org/2000/svg" xmlns:xlink="http://www.w3.org/1999/xlink">
    <title>12_权限 (1)@2x</title>
    <defs>
        <linearGradient x1="50%" y1="0%" x2="50%" y2="87.8255208%" id="linearGradient-1">
            <stop stop-color="#D8DADC" stop-opacity="0.994973776" offset="0%"></stop>
            <stop stop-color="#D8DADC" stop-opacity="0" offset="100%"></stop>
        </linearGradient>
        <linearGradient x1="50%" y1="0%" x2="50%" y2="100%" id="linearGradient-2">
            <stop stop-color="#D8DADC" stop-opacity="0.994973776" offset="0%"></stop>
            <stop stop-color="#D8DADC" stop-opacity="0" offset="100%"></stop>
        </linearGradient>
        <linearGradient x1="50%" y1="0%" x2="50%" y2="87.8255208%" id="linearGradient-3">
            <stop stop-color="#D8DADC" stop-opacity="0.994973776" offset="0%"></stop>
            <stop stop-color="#D8DADC" stop-opacity="0" offset="100%"></stop>
        </linearGradient>
        <linearGradient x1="50%" y1="0%" x2="50%" y2="100%" id="linearGradient-4">
            <stop stop-color="#D8DADC" stop-opacity="0.994973776" offset="0%"></stop>
            <stop stop-color="#D8DADC" stop-opacity="0" offset="100%"></stop>
        </linearGradient>
        <linearGradient x1="50%" y1="100%" x2="50%" y2="0%" id="linearGradient-5">
            <stop stop-color="#F8FAFC" stop-opacity="0" offset="0%"></stop>
            <stop stop-color="#CACACA" offset="50%"></stop>
            <stop stop-color="#F8FAFC" stop-opacity="0" offset="100%"></stop>
        </linearGradient>
        <linearGradient x1="50%" y1="100%" x2="50%" y2="0%" id="linearGradient-6">
            <stop stop-color="#F8FAFC" stop-opacity="0" offset="0%"></stop>
            <stop stop-color="#CACACA" offset="50%"></stop>
            <stop stop-color="#F8FAFC" stop-opacity="0" offset="100%"></stop>
        </linearGradient>
        <linearGradient x1="50%" y1="100%" x2="50%" y2="0%" id="linearGradient-7">
            <stop stop-color="#F8FAFC" stop-opacity="0" offset="0%"></stop>
            <stop stop-color="#CACACA" offset="50%"></stop>
            <stop stop-color="#F8FAFC" stop-opacity="0" offset="100%"></stop>
        </linearGradient>
    </defs>
    <g id="页面-1" stroke="none" stroke-width="1" fill="none" fill-rule="evenodd" opacity="0.900000036">
        <g id="异常页面示意" transform="translate(-456.000000, -559.000000)">
            <g id="12_权限-(1)" transform="translate(456.000000, 559.000000)">
                <path d="M4,25 C4,25 9.91096101,13 20.2881276,13 C27.2062387,13 31.8903793,14.9374009 34.3405494,18.8122027 C37.0725682,19.0077912 39.3633637,19.3826354 41.2129358,19.9367354 C43.0625079,20.4908355 44.658196,22.1785903 46,25 C18,25 4,25 4,25 Z" id="路径-5备份" fill="url(#linearGradient-1)" opacity="0.398875"></path>
                <path d="M94,18 C94,18 103.288653,0 119.595629,0 C130.466946,0 137.827739,2.90610135 141.678006,8.71830406 C145.971179,9.01168674 149.571,9.57395311 152.477471,10.4051032 C155.383941,11.2362532 157.891451,13.7678855 160,18 C116,18 94,18 94,18 Z" id="路径-5备份-2" fill="url(#linearGradient-2)" opacity="0.398875" transform="translate(127.000000, 9.000000) scale(-1, 1) translate(-127.000000, -9.000000) "></path>
                <path d="M80.5,108 C110.91243,108 137.883649,114 161.413657,126 L0,126 C23.2542368,114 50.0875701,108 80.5,108 Z" id="路径-2" fill="url(#linearGradient-3)" opacity="0.4"></path>
                <path d="M36.809017,109 C36.5328746,109 36.309017,108.776142 36.309017,108.5 C36.309017,108.422377 36.3270895,108.345821 36.3618034,108.276393 L40.5527864,99.8944272 C40.676281,99.6474379 40.9766175,99.5473258 41.2236068,99.6708204 C41.3203705,99.7192022 41.3988317,99.7976635 41.4472136,99.8944272 L45.6381966,108.276393 C45.7616912,108.523382 45.6615791,108.823719 45.4145898,108.947214 C45.3451621,108.981927 45.2686056,109 45.190983,109 L42,109 L42,114 L40,114 L40,109 L36.809017,109 Z" id="形状结合" fill="#454855"></path>
                <path d="M94.0715032,98.7756064 C94.1682669,98.8239883 94.2467281,98.9024495 94.29511,98.9992132 L104.281587,118.972167 C104.405082,119.219157 104.30497,119.519493 104.05798,119.642988 C103.988553,119.677702 103.911996,119.695774 103.834374,119.695774 L95.508017,119.694924 L95.5087416,128 L91.3566285,128 L91.356017,119.694924 L83.8614193,119.695774 C83.5852769,119.695774 83.3614193,119.471917 83.3614193,119.195774 C83.3614193,119.118152 83.3794918,119.041595 83.4142057,118.972167 L93.4006828,98.9992132 C93.5241774,98.752224 93.8245139,98.6521118 94.0715032,98.7756064 Z" id="形状结合" fill="#454855"></path>
                <path d="M119.809017,111 C119.532875,111 119.309017,110.776142 119.309017,110.5 C119.309017,110.422377 119.32709,110.345821 119.361803,110.276393 L122.552786,103.894427 C122.676281,103.647438 122.976618,103.547326 123.223607,103.67082 C123.32037,103.719202 123.398832,103.797663 123.447214,103.894427 L126.638197,110.276393 C126.761691,110.523382 126.661579,110.823719 126.41459,110.947214 C126.345162,110.981927 126.268606,111 126.190983,111 L124,111 L124,114 L122,114 L122,111 L119.809017,111 Z" id="形状结合" fill="#454855"></path>
                <path d="M107,91 C107,91 111.925801,81 120.57344,81 C126.338532,81 130.241983,82.6145008 132.283791,85.8435023 C134.560474,86.0064926 136.46947,86.3188628 138.01078,86.7806129 C139.55209,87.2423629 140.88183,88.6488253 142,91 C118.666667,91 107,91 107,91 Z" id="路径-5" fill="url(#linearGradient-4)" opacity="0.398875" transform="translate(124.500000, 86.000000) scale(-1, 1) translate(-124.500000, -86.000000) "></path>
                <g id="形状" transform="translate(61.022624, 30.556561)">
                    <path d="M29.5022624,18.9787986 L27.9537456,18.9787986 L27.9537456,12.4337975 C27.9537456,6.06838495 23.1473102,1 17.0940171,1 C11.040724,1 6.21417798,6.08833922 6.21417798,12.4537518 L6.21417798,18.9987529 L4.66566114,18.9987529 C2.03117144,18.9987529 0,21.1139056 0,23.9075036 L0,45.1388485 C0,47.9124922 2.01106083,50.0475993 4.66566114,50.0475993 L29.5022624,50.0475993 C32.1367521,50.0475993 34.1679236,47.9324465 34.1679236,45.1388485 L34.1679236,23.8675951 C34.147813,21.1139056 32.1367521,18.9787986 29.5022624,18.9787986 L29.5022624,18.9787986 Z M18.6224233,34.8224901 L18.6224233,38.5738932 C18.6224233,39.5516525 17.9989945,40.2101434 17.0739065,40.2101434 C16.1488185,40.2101434 15.5253896,39.5516525 15.5253896,38.5738932 L15.5253896,34.8224901 C14.6003017,34.3435876 13.9768728,33.1862399 13.9768728,32.0488464 C13.9768728,30.252962 15.3645048,28.7763459 17.0940171,28.7763459 C18.8235294,28.7763459 20.2111614,30.2330077 20.2111614,32.0488464 C20.1709402,33.1862399 19.5475113,34.3236333 18.6224233,34.8224901 L18.6224233,34.8224901 Z M24.8366013,18.9787986 L9.31121166,18.9787986 L9.31121166,12.4337975 C9.31121166,7.84431511 12.7300151,4.27250052 17.0739065,4.27250052 C21.4177979,4.27250052 24.8366013,7.86426938 24.8366013,12.4337975 C24.8366013,12.4537518 24.8366013,18.9787986 24.8366013,18.9787986 L24.8366013,18.9787986 Z" fill-rule="nonzero"></path>
                    <path d="M31.5771745,17.3801704 L30.0688788,17.3801704 L30.0688788,11.0546664 C30.0688788,4.88879651 25.4233283,0 19.5510307,0 C13.6988436,0 9.0130719,4.90875078 9.0130719,11.0746207 L9.0130719,17.4001247 L7.50477627,17.4001247 C4.95072901,17.4001247 3,19.4354604 3,22.1492413 L3,42.7021409 C3,45.3760133 4.95072901,47.4512575 7.50477627,47.4512575 L31.5369532,47.4512575 C34.0910005,47.4512575 36.0418852,45.4159218 36.0418852,42.7021409 L36.0418852,22.1292871 C36.0618401,19.4554147 34.1312217,17.3801704 31.5771745,17.3801704 L31.5771745,17.3801704 Z M21.0392157,32.7250052 L21.0392157,36.3566826 C21.0392157,37.3144876 20.4358974,37.93307 19.5309201,37.93307 C18.6259427,37.93307 18.0226244,37.2945334 18.0226244,36.3566826 L18.0226244,32.7250052 C17.1176471,32.266057 16.5143288,31.1486178 16.5143288,30.0511328 C16.5143288,28.3151112 17.8617396,26.8784037 19.5309201,26.8784037 C21.2001006,26.8784037 22.5475113,28.2951569 22.5475113,30.0511328 C22.5475113,31.1486178 21.9441931,32.2261484 21.0392157,32.7250052 L21.0392157,32.7250052 Z M27.0522876,17.3801704 L12.0296631,17.3801704 L12.0296631,11.0546664 C12.0296631,6.62481813 15.3479135,3.17272916 19.5309201,3.17272916 C23.7139266,3.17272916 27.032177,6.6447724 27.032177,11.0546664 C27.0522876,11.0746207 27.0522876,17.3801704 27.0522876,17.3801704 L27.0522876,17.3801704 Z" fill="#454855" opacity="0.7"></path>
                </g>
                <rect id="矩形" fill="url(#linearGradient-5)" fill-rule="nonzero" opacity="0.34781901" x="126" y="50" width="4.3438914" height="22.4434389"></rect>
                <rect id="矩形" fill="url(#linearGradient-6)" fill-rule="nonzero" opacity="0.34781901" x="31" y="53" width="5.0678733" height="20.9954751"></rect>
                <rect id="矩形" fill="url(#linearGradient-7)" fill-rule="nonzero" opacity="0.34781901" x="61" y="9" width="5.0678733" height="23.8914027"></rect>
            </g>
        </g>
    </g>
</svg>