<?xml version="1.0" encoding="UTF-8"?>
<svg width="16px" height="16px" viewBox="0 0 16 16" version="1.1" xmlns="http://www.w3.org/2000/svg" xmlns:xlink="http://www.w3.org/1999/xlink">
    <title>发送01@1x</title>
    <defs>
        <polygon id="path-1" points="2.31151903e-16 0 15.9997965 0 15.9997965 13.9996 2.31151903e-16 13.9996"></polygon>
    </defs>
    <g id="页面-1" stroke="none" stroke-width="1" fill="none" fill-rule="evenodd">
        <g id="画板备份-2" transform="translate(-79.000000, -13.000000)">
            <g id="发送01" transform="translate(79.000000, 13.000000)">
                <rect id="矩形" x="0" y="0" width="16" height="16"></rect>
                <g id="编组" transform="translate(0.000000, 1.000000)">
                    <mask id="mask-2" fill="white">
                        <use xlink:href="#path-1"></use>
                    </mask>
                    <g id="Clip-2"></g>
                    <path d="M3.76942752,8.4346 L10.9384275,4.3056 L6.89142752,8.4786 C6.82642752,8.5466 6.77742752,8.6236 6.74542752,8.7146 C6.74242752,8.7196 6.74242752,8.7216 6.74042752,8.7256 C6.73142752,8.7516 5.93242752,11.1276 5.45842752,12.2026 C5.36242752,12.1386 5.24642752,12.0346 5.17842752,11.8916 C4.82842752,11.1506 4.01042752,9.0526 3.76942752,8.4346 M15.5584275,0.3346 C15.1934275,0.0066 14.6804275,-0.0884 14.2204275,0.0856 L0.849427515,5.1726 C0.352427515,5.3626 0.025427515,5.8116 0.00142751501,6.3486 C-0.022572485,6.8846 0.257427515,7.3626 0.737427515,7.5986 L2.82542752,8.6266 C2.86742752,8.6466 2.90442752,8.6746 2.93642752,8.7056 C3.15442752,9.2686 4.01042752,11.4716 4.39242752,12.2686 C4.58442752,12.6746 4.93942752,12.9586 5.26842752,13.0816 C5.24642752,13.0806 5.22242752,13.0766 5.19542752,13.0716 C5.25942752,13.0956 5.32542752,13.1156 5.39342752,13.1286 C5.82742752,13.2166 6.27142752,13.0816 6.58242752,12.7666 L7.36042752,11.9846 C7.49842752,11.8446 7.71542752,11.8146 7.88642752,11.9116 L11.2364275,13.8266 C11.4374275,13.9406 11.6614275,13.9996 11.8844275,13.9996 C12.0604275,13.9996 12.2374275,13.9646 12.4044275,13.8916 C12.7854275,13.7266 13.0614275,13.4006 13.1624275,12.9946 L15.9594275,1.6386 C16.0804275,1.1626 15.9244275,0.6616 15.5584275,0.3346" id="Fill-1" fill="#717B88" mask="url(#mask-2)"></path>
                </g>
            </g>
        </g>
    </g>
</svg>