<?xml version="1.0" encoding="UTF-8"?>
<svg width="24px" height="24px" viewBox="0 0 24 24" version="1.1" xmlns="http://www.w3.org/2000/svg" xmlns:xlink="http://www.w3.org/1999/xlink">
    <title>晒单-深-黄@1x</title>
    <g id="页面-1" stroke="none" stroke-width="1" fill="none" fill-rule="evenodd">
        <g id="画板备份-2" transform="translate(-182.000000, -7.000000)">
            <g id="晒单-深-黄" transform="translate(182.000000, 7.000000)">
                <g id="编组" transform="translate(3.000000, 3.000000)">
                    <g></g>
                    <path d="M10.9285324,6.42854829e-05 C12.1197424,6.42854829e-05 13.1193817,0.824204199 13.4080235,1.92862883 L13.4080235,1.92862883 L14.3009489,1.92862883 C15.6284442,1.92862883 16.714226,3.01376781 16.714226,4.34126307 L16.714226,4.34126307 L16.714226,15.5867229 C16.714226,16.9135753 15.6284442,18 14.3009489,18 L14.3009489,18 L3.69898679,18 C2.37149153,18 1.28570969,16.9135753 1.28570969,15.5867229 L1.28570969,15.5867229 L1.28570969,4.34126307 C1.28570969,3.01376781 2.37149153,1.92862883 3.69898679,1.92862883 L3.69898679,1.92862883 L4.59191217,1.92862883 L4.64038439,1.76577344 C4.98035561,0.744430734 5.93914307,6.42854829e-05 7.07140332,6.42854829e-05 L7.07140332,6.42854829e-05 Z M4.59170969,3.21406429 L3.69898679,3.21433852 C3.07734615,3.21433852 2.57141939,3.71962243 2.57141939,4.34126307 L2.57141939,4.34126307 L2.57141939,15.5867229 C2.57141939,16.2083635 3.07734615,16.7142903 3.69898679,16.7142903 L3.69898679,16.7142903 L14.3009489,16.7142903 C14.9225896,16.7142903 15.4285163,16.2083635 15.4285163,15.5867229 L15.4285163,15.5867229 L15.4285163,4.34126307 C15.4285163,3.71962243 14.9225896,3.21433852 14.3009489,3.21433852 L14.3009489,3.21433852 L13.4080235,3.21433852 C13.1193817,4.31812029 12.1197424,5.14290306 10.9285324,5.14290306 L10.9285324,5.14290306 L7.07140332,5.14290306 C5.87955043,5.14290306 4.87991114,4.31812029 4.59191217,3.21369567 L4.59170969,3.21406429 Z M13.0140178,13.3122382 C13.3682308,13.3122382 13.6568727,13.6015229 13.6568727,13.955093 C13.6568727,14.3086632 13.3682308,14.5979479 13.0140178,14.5979479 L13.0140178,14.5979479 L4.98540362,14.5979479 C4.63183346,14.5979479 4.34254878,14.3086632 4.34254878,13.955093 C4.34254878,13.6015229 4.63183346,13.3122382 4.98540362,13.3122382 L4.98540362,13.3122382 Z M13.0140178,10.1381424 C13.3682308,10.1381424 13.6568727,10.427427 13.6568727,10.7809972 C13.6568727,11.1345674 13.3682308,11.4238521 13.0140178,11.4238521 L13.0140178,11.4238521 L4.98540362,11.4238521 C4.63183346,11.4238521 4.34254878,11.1345674 4.34254878,10.7809972 C4.34254878,10.427427 4.63183346,10.1381424 4.98540362,10.1381424 L4.98540362,10.1381424 Z M13.0140178,6.96404656 C13.3682308,6.96404656 13.6568727,7.25333124 13.6568727,7.6069014 C13.6568727,7.96047157 13.3682308,8.24975625 13.0140178,8.24975625 L13.0140178,8.24975625 L4.98540362,8.24975625 C4.63183346,8.24975625 4.34254878,7.96047157 4.34254878,7.6069014 C4.34254878,7.25333124 4.63183346,6.96404656 4.98540362,6.96404656 L4.98540362,6.96404656 Z M10.9285324,1.28577398 L7.07140332,1.28577398 C6.36233442,1.28577398 5.78569362,1.86177192 5.78569362,2.57148367 C5.78569362,3.27990971 6.36233442,3.85719337 7.07140332,3.85719337 L7.07140332,3.85719337 L10.9285324,3.85719337 C11.6376013,3.85719337 12.2142421,3.27990971 12.2142421,2.57148367 C12.2142421,1.86177192 11.6376013,1.28577398 10.9285324,1.28577398 L10.9285324,1.28577398 Z" id="形状结合" fill="#717B88" opacity="0.604105632"></path>
                </g>
            </g>
        </g>
    </g>
</svg>