<?xml version="1.0" encoding="UTF-8"?>
<svg width="20px" height="14px" viewBox="0 0 20 14" version="1.1" xmlns="http://www.w3.org/2000/svg" xmlns:xlink="http://www.w3.org/1999/xlink">
    <title>比分选中</title>
    <g id="页面-1" stroke="none" stroke-width="1" fill="none" fill-rule="evenodd">
        <g id="滚球" transform="translate(-1551.000000, -112.000000)" fill="#FFB001" fill-rule="nonzero">
            <g id="编组-134" transform="translate(1356.000000, 101.000000)">
                <path d="M213,11 C214.104569,11 215,11.8954305 215,13 L215,17.562 L213.619318,17.5625 C213.404541,17.5625 213.225911,17.7172658 213.188867,17.9213588 L213.181818,18 C213.181818,18.2147774 213.336584,18.3934073 213.540677,18.4304513 L213.619318,18.4375 L215,18.437 L215,23 C215,24.1045695 214.104569,25 213,25 L197,25 C195.895431,25 195,24.1045695 195,23 L195,18.437 L196.380682,18.4375 C196.595459,18.4375 196.774089,18.2827342 196.811133,18.0786412 L196.818182,18 C196.818182,17.7852226 196.663416,17.6065927 196.459323,17.5695487 L196.380682,17.5625 L195,17.562 L195,13 C195,11.8954305 195.895431,11 197,11 L213,11 Z M205.454545,11.875 L204.545455,11.875 L204.545455,24.125 L205.454545,24.125 L205.454545,11.875 Z M199.683517,13.625 L199.407392,13.625 C199.010859,13.625 198.676322,13.675415 198.403781,13.7763672 C198.131239,13.8773193 197.911666,14.0042725 197.745327,14.1572266 C197.578988,14.3101807 197.458581,14.4794922 197.38424,14.6650391 C197.309898,14.8505859 197.272727,15.0279541 197.272727,15.1972656 L197.272727,15.1972656 L197.272727,20.8027344 C197.272727,20.9394531 197.304588,21.098999 197.368309,21.28125 C197.432031,21.463501 197.545269,21.6361084 197.708156,21.7988281 C197.871044,21.9615479 198.088758,22.0982666 198.3613,22.2089844 C198.633841,22.3197021 198.982583,22.375 199.407392,22.375 L199.407392,22.375 L199.683517,22.375 C200.108326,22.375 200.458794,22.3197021 200.734919,22.2089844 C201.011045,22.0982666 201.22876,21.9615479 201.388063,21.7988281 C201.547366,21.6361084 201.658879,21.463501 201.7226,21.28125 C201.786321,21.098999 201.818182,20.9394531 201.818182,20.8027344 L201.818182,20.8027344 L201.818182,15.1972656 C201.818182,15.0279541 201.781011,14.8505859 201.706669,14.6650391 C201.632328,14.4794922 201.511921,14.3101807 201.345582,14.1572266 C201.179243,14.0042725 200.95967,13.8773193 200.687128,13.7763672 C200.414587,13.675415 200.08005,13.625 199.683517,13.625 L199.683517,13.625 Z M210.909091,13.625 L209.619835,13.625 L208.181818,15.1734551 L208.181818,16.8939607 L209.619835,15.3455056 L209.619835,22.375 L210.909091,22.375 L210.909091,13.625 Z M199.605263,14.5 C199.932267,14.5 200.155502,14.586493 200.27512,14.7595908 C200.394737,14.9326886 200.454545,15.1564738 200.454545,15.4309463 L200.454545,15.4309463 L200.454545,20.5690537 C200.454545,20.8375959 200.382775,21.0599265 200.239234,21.2359335 C200.095694,21.4119405 199.88442,21.5 199.605263,21.5 L199.605263,21.5 L199.497608,21.5 C199.242374,21.5 199.035138,21.4179827 198.875598,21.2538363 C198.716059,21.0896899 198.636364,20.861429 198.636364,20.5690537 L198.636364,20.5690537 L198.636364,15.4309463 C198.636364,15.1564738 198.690191,14.9326886 198.797847,14.7595908 C198.905502,14.586493 199.138756,14.5 199.497608,14.5 L199.497608,14.5 Z" id="比分选中"></path>
            </g>
        </g>
    </g>
</svg>