<?xml version="1.0" encoding="UTF-8"?>
<svg width="20px" height="14px" viewBox="0 0 20 14" version="1.1" xmlns="http://www.w3.org/2000/svg" xmlns:xlink="http://www.w3.org/1999/xlink">
    <title>比分未选</title>
    <g id="页面-1" stroke="none" stroke-width="1" fill="none" fill-rule="evenodd">
        <g id="滚球" transform="translate(-1514.000000, -112.000000)" fill="#5A6074" fill-rule="nonzero">
            <g id="编组-134" transform="translate(1356.000000, 101.000000)">
                <path d="M176,11 C177.104569,11 178,11.8954305 178,13 L178,17.562 L176.619318,17.5625 C176.404541,17.5625 176.225911,17.7172658 176.188867,17.9213588 L176.181818,18 C176.181818,18.2147774 176.336584,18.3934073 176.540677,18.4304513 L176.619318,18.4375 L178,18.437 L178,23 C178,24.1045695 177.104569,25 176,25 L160,25 C158.895431,25 158,24.1045695 158,23 L158,18.437 L159.380682,18.4375 C159.595459,18.4375 159.774089,18.2827342 159.811133,18.0786412 L159.818182,18 C159.818182,17.7852226 159.663416,17.6065927 159.459323,17.5695487 L159.380682,17.5625 L158,17.562 L158,13 C158,11.8954305 158.895431,11 160,11 L176,11 Z M168.454545,11.875 L167.545455,11.875 L167.545455,24.125 L168.454545,24.125 L168.454545,11.875 Z M162.683517,13.625 L162.407392,13.625 C162.010859,13.625 161.676322,13.675415 161.403781,13.7763672 C161.131239,13.8773193 160.911666,14.0042725 160.745327,14.1572266 C160.578988,14.3101807 160.458581,14.4794922 160.38424,14.6650391 C160.309898,14.8505859 160.272727,15.0279541 160.272727,15.1972656 L160.272727,15.1972656 L160.272727,20.8027344 C160.272727,20.9394531 160.304588,21.098999 160.368309,21.28125 C160.432031,21.463501 160.545269,21.6361084 160.708156,21.7988281 C160.871044,21.9615479 161.088758,22.0982666 161.3613,22.2089844 C161.633841,22.3197021 161.982583,22.375 162.407392,22.375 L162.407392,22.375 L162.683517,22.375 C163.108326,22.375 163.458794,22.3197021 163.734919,22.2089844 C164.011045,22.0982666 164.22876,21.9615479 164.388063,21.7988281 C164.547366,21.6361084 164.658879,21.463501 164.7226,21.28125 C164.786321,21.098999 164.818182,20.9394531 164.818182,20.8027344 L164.818182,20.8027344 L164.818182,15.1972656 C164.818182,15.0279541 164.781011,14.8505859 164.706669,14.6650391 C164.632328,14.4794922 164.511921,14.3101807 164.345582,14.1572266 C164.179243,14.0042725 163.95967,13.8773193 163.687128,13.7763672 C163.414587,13.675415 163.08005,13.625 162.683517,13.625 L162.683517,13.625 Z M173.909091,13.625 L172.619835,13.625 L171.181818,15.1734551 L171.181818,16.8939607 L172.619835,15.3455056 L172.619835,22.375 L173.909091,22.375 L173.909091,13.625 Z M162.605263,14.5 C162.932267,14.5 163.155502,14.586493 163.27512,14.7595908 C163.394737,14.9326886 163.454545,15.1564738 163.454545,15.4309463 L163.454545,15.4309463 L163.454545,20.5690537 C163.454545,20.8375959 163.382775,21.0599265 163.239234,21.2359335 C163.095694,21.4119405 162.88442,21.5 162.605263,21.5 L162.605263,21.5 L162.497608,21.5 C162.242374,21.5 162.035138,21.4179827 161.875598,21.2538363 C161.716059,21.0896899 161.636364,20.861429 161.636364,20.5690537 L161.636364,20.5690537 L161.636364,15.4309463 C161.636364,15.1564738 161.690191,14.9326886 161.797847,14.7595908 C161.905502,14.586493 162.138756,14.5 162.497608,14.5 L162.497608,14.5 Z" id="比分未选"></path>
            </g>
        </g>
    </g>
</svg>