<?xml version="1.0" encoding="UTF-8"?>
<svg width="20px" height="14px" viewBox="0 0 20 14" version="1.1" xmlns="http://www.w3.org/2000/svg" xmlns:xlink="http://www.w3.org/1999/xlink">
    <title>视频-hover-黑</title>
    <g id="页面-1" stroke="none" stroke-width="1" fill="none" fill-rule="evenodd">
        <g id="组件_1" transform="translate(-1616.000000, -176.000000)" fill="#ABBAC8">
            <path d="M1634,176 C1635.10457,176 1636,176.895431 1636,178 L1636,188 C1636,189.104569 1635.10457,190 1634,190 L1618,190 C1616.89543,190 1616,189.104569 1616,188 L1616,178 C1616,176.895431 1616.89543,176 1618,176 L1634,176 Z M1632.5,187 L1619.5,187 C1619.22386,187 1619,187.223858 1619,187.5 C1619,187.776142 1619.22386,188 1619.5,188 L1619.5,188 L1632.5,188 C1632.77614,188 1633,187.776142 1633,187.5 C1633,187.223858 1632.77614,187 1632.5,187 L1632.5,187 Z M1620.17829,179 L1619,179 L1619,186 L1622.35707,186 L1622.35707,184.75 L1620.17829,184.75 L1620.17829,179 Z M1624.23606,179 L1623.06125,179 L1623.06125,186 L1624.23606,186 L1624.23606,179 Z M1625.94422,179 L1624.71365,179 L1626.35209,186 L1627.6245,186 L1629.26992,179 L1628.03586,179 L1627.02839,184.120192 L1626.99353,184.355769 L1626.97261,184.355769 L1626.93775,184.100962 L1625.94422,179 Z M1633,179 L1629.6743,179 L1629.6743,186 L1632.99651,186 L1632.99651,184.75 L1630.85259,184.75 L1630.85259,183.004808 L1632.64094,183.004808 L1632.64094,181.754808 L1630.85259,181.754808 L1630.85259,180.25 L1633,180.25 L1633,179 Z" id="视频-hover-黑"></path>
        </g>
    </g>
</svg>