<?xml version="1.0" encoding="UTF-8"?>
<svg width="20px" height="20px" viewBox="0 0 20 20" version="1.1" xmlns="http://www.w3.org/2000/svg" xmlns:xlink="http://www.w3.org/1999/xlink">
    <title>3备份</title>
    <g id="页面-1" stroke="none" stroke-width="1" fill="none" fill-rule="evenodd">
        <g id="赛狗-赛马" transform="translate(0.000000, -480.000000)">
            <g id="3备份" transform="translate(0.000000, 480.000000)">
                <rect id="矩形备份-10" stroke-opacity="0.25" stroke="#000000" fill="#185CA9" x="0.5" y="0.5" width="19" height="19" rx="2"></rect>
                <path d="M9.91875,14.2541667 C11.40625,14.2541667 12.64375,13.3791667 12.64375,11.6666667 C12.64375,10.5666667 12.15625,9.90416667 11.39375,9.56666667 C12.08125,9.22916667 12.50625,8.61666667 12.50625,7.66666667 C12.50625,6.19166667 11.43125,5.17916667 9.91875,5.17916667 C8.49375,5.17916667 7.38125,6.09166667 7.30625,7.60416667 L8.58125,7.60416667 C8.64375,6.81666667 9.14375,6.32916667 9.91875,6.32916667 C10.64375,6.32916667 11.23125,6.80416667 11.23125,7.70416667 C11.23125,8.51666667 10.80625,9.05416667 9.88125,9.05416667 L9.66875,9.05416667 L9.66875,10.1666667 L9.88125,10.1666667 C10.88125,10.1666667 11.36875,10.7291667 11.36875,11.6291667 C11.36875,12.5666667 10.74375,13.1041667 9.91875,13.1041667 C9.18125,13.1041667 8.51875,12.7041667 8.46875,11.7541667 L7.19375,11.7541667 C7.24375,13.4916667 8.49375,14.2541667 9.91875,14.2541667 Z" id="3" fill="#FFFFFF" fill-rule="nonzero"></path>
            </g>
        </g>
    </g>
</svg>