<?xml version="1.0" encoding="UTF-8"?>
<svg width="32px" height="32px" viewBox="0 0 32 32" version="1.1" xmlns="http://www.w3.org/2000/svg" xmlns:xlink="http://www.w3.org/1999/xlink">
    <title>电竞播放</title>
    <g id="页面-1" stroke="none" stroke-width="1" fill="none" fill-rule="evenodd">
        <g id="滚球（角球）" transform="translate(-172.000000, -133.000000)" fill="#4987FB" fill-rule="nonzero">
            <g id="电竞播放" transform="translate(172.000000, 133.000000)">
                <path d="M16,0 C24.836556,0 32,7.163444 32,16 C32,24.836556 24.836556,32 16,32 C7.163444,32 0,24.836556 0,16 C0,7.163444 7.163444,0 16,0 Z M16,1 C7.71572875,1 1,7.71572875 1,16 C1,24.2842712 7.71572875,31 16,31 C24.2842712,31 31,24.2842712 31,16 C31,7.71572875 24.2842712,1 16,1 Z M13.3967535,10.8385995 C13.4743223,10.8382295 13.5503266,10.8604169 13.6155113,10.9024647 L20.6962511,15.4699352 C21.1603565,15.7693089 21.2938979,16.388231 20.9945241,16.8523364 C20.9209317,16.9664234 20.8248791,17.0643306 20.7122201,17.140091 L14.6010771,21.249687 C14.1427809,21.5578802 13.5214185,21.4361976 13.2132253,20.9779013 C13.1032115,20.8143061 13.0440081,20.6218424 13.0430557,20.4246989 L12.9986856,11.2405317 C12.9976232,11.0196204 13.1758421,10.8396713 13.3967535,10.8385995 Z" id="播放"></path>
            </g>
        </g>
    </g>
</svg>
