<?xml version="1.0" encoding="UTF-8"?>
<svg width="20px" height="20px" viewBox="0 0 20 20" version="1.1" xmlns="http://www.w3.org/2000/svg" xmlns:xlink="http://www.w3.org/1999/xlink">
    <title>3@2x</title>
    <g id="页面-1" stroke="none" stroke-width="1" fill="none" fill-rule="evenodd">
        <g id="虚拟赛吗样式2" transform="translate(-28.000000, -602.000000)">
            <g id="编组" transform="translate(15.000000, 527.000000)">
                <g transform="translate(13.000000, 75.000000)">
                    <rect id="矩形备份" stroke-opacity="0.25" stroke="#000000" fill="#185CA9" x="0.5" y="0.5" width="19" height="19" rx="2"></rect>
                    <path d="M9.766,15.084 C11.474,15.084 12.93,14.104 12.93,12.116 C12.93,10.912 12.356,10.226 11.642,9.848 C12.3,9.498 12.79,8.882 12.79,7.804 C12.79,6.124 11.516,4.948 9.752,4.948 C8.072,4.948 6.742,6.012 6.7,7.79 L8.52,7.79 C8.562,7.034 9.066,6.586 9.752,6.586 C10.41,6.586 10.97,7.02 10.97,7.86 C10.97,8.56 10.592,9.106 9.71,9.106 L9.444,9.106 L9.444,10.688 L9.71,10.688 C10.606,10.688 11.11,11.234 11.11,12.06 C11.11,12.956 10.55,13.446 9.766,13.446 C9.052,13.446 8.436,13.04 8.408,12.144 L6.588,12.144 C6.616,14.23 8.142,15.084 9.766,15.084 Z" id="3" fill="#FFFFFF" fill-rule="nonzero"></path>
                </g>
            </g>
        </g>
    </g>
</svg>