<?xml version="1.0" encoding="UTF-8"?>
<svg width="16px" height="16px" viewBox="0 0 16 16" version="1.1" xmlns="http://www.w3.org/2000/svg" xmlns:xlink="http://www.w3.org/1999/xlink">
    <title>视频专题备份 2</title>
    <g id="页面-1" stroke="none" stroke-width="1" fill="none" fill-rule="evenodd">
        <g id="画板备份" transform="translate(-115.000000, -353.000000)">
            <g id="视频专题备份-2" transform="translate(115.000000, 353.000000)">
                <rect id="矩形" x="0" y="0" width="16" height="16"></rect>
                <path d="M15.9997997,5.08055134 L15.9997997,13.3599476 C16.005304,13.6382911 15.8971568,13.9068612 15.7002997,14.1037183 C15.5034426,14.3005753 15.2348725,14.4087226 14.956529,14.4032183 L14.956529,14.4032183 L1.04347099,14.4032183 C0.765127476,14.4087226 0.496557369,14.3005753 0.299700304,14.1037183 C0.102843239,13.9068612 -0.00530400592,13.6382911 0.000200290963,13.3599476 L0.000200290963,13.3599476 L0.000200290963,5.08055134 L15.9997997,5.08055134 Z M6.72720975,7.27559289 C6.30990147,7.27559289 5.95101635,7.47590086 5.95101635,7.91824764 L5.95101635,7.91824764 L5.95101635,11.5404835 C5.95101635,11.9744841 6.30990147,12.1831382 6.72720975,12.1831382 C6.87296942,12.1897273 7.01762584,12.1550097 7.14451803,12.0829843 L7.14451803,12.0829843 L10.0907145,10.3803665 C10.3297611,10.2530936 10.4791246,10.0043553 10.4791246,9.73353865 C10.4791246,9.46272196 10.3297611,9.21398372 10.0907145,9.08671082 L10.0907145,9.08671082 L7.14451803,7.37574687 C7.01587836,7.30825858 6.87246732,7.27383993 6.72720975,7.27559289 Z M14.9481828,1.60020029 C15.2265264,1.59469599 15.4950965,1.70284324 15.6919535,1.8997003 C15.8888106,2.09655737 15.9969578,2.36512748 15.9914535,2.64347099 L15.9914535,2.64347099 L15.9914535,4.37947343 L14.7395287,4.37947343 L12.3775638,1.60020029 Z M1.14362498,1.60020029 L3.513936,4.37947343 L0.000200290963,4.37947343 L0.000200290963,2.64347099 C-0.00530400592,2.36512748 0.102843239,2.09655737 0.299700304,1.8997003 C0.496557369,1.70284324 0.765127476,1.59469599 1.04347099,1.60020029 L1.04347099,1.60020029 L1.14362498,1.60020029 Z M4.62397602,1.60020029 L6.978,4.379 L4.30682173,4.37947343 L1.94485687,1.60020029 L4.62397602,1.60020029 Z M11.576332,1.60020029 L13.939,4.379 L11.2591777,4.37947343 L8.8972128,1.60020029 L11.576332,1.60020029 Z M8.10432707,1.60020029 L10.459,4.379 L7.78717278,4.37947343 L5.42520792,1.60020029 L8.10432707,1.60020029 Z" id="形状结合" fill="#B2B2ED" fill-rule="nonzero"></path>
            </g>
        </g>
    </g>
</svg>