<?xml version="1.0" encoding="UTF-8"?>
<svg width="16px" height="16px" viewBox="0 0 16 16" version="1.1" xmlns="http://www.w3.org/2000/svg" xmlns:xlink="http://www.w3.org/1999/xlink">
    <title>注意 copy</title>
    <g id="页面-1" stroke="none" stroke-width="1" fill="none" fill-rule="evenodd">
        <g id="合成奖卷-调色-Final" transform="translate(-944.000000, -1118.000000)" fill="#FFFFFF" fill-rule="nonzero">
            <g id="注意-copy" transform="translate(944.000000, 1118.000000)">
                <path d="M8.0000255,16.000051 C3.58187079,16.000051 0,12.4181802 0,8.0000255 C0,3.58133954 3.58187079,0 8.0000255,0 C12.4181802,0 16.000051,3.58133954 16.000051,8.0000255 C16.000051,12.4181802 12.4181802,16.000051 8.0000255,16.000051 Z M8.0000255,1.06614402 C4.17068517,1.06614402 1.06667528,4.17068517 1.06667528,7.99949425 C1.06667528,11.8288346 4.17068517,14.9328445 8.0000255,14.9328445 C11.8293658,14.9328445 14.9333757,11.8288346 14.9333757,7.99949425 C14.9333757,4.17068517 11.8293658,1.06614402 8.0000255,1.06614402 Z M8.26669354,12.7995095 L7.73335903,12.7995095 C7.58615856,12.7995095 7.46669099,12.6800424 7.46669099,12.5328415 L7.46669099,11.4661709 C7.46669099,11.3189705 7.58615809,11.1995029 7.73335903,11.1995029 L8.26669354,11.1995029 C8.41389401,11.1995029 8.53336158,11.31897 8.53336158,11.4661709 L8.53336158,12.5328415 C8.53336158,12.680042 8.41389448,12.7995095 8.26669354,12.7995095 Z M8.26669354,10.6661746 L7.73335903,10.6661746 C7.58615856,10.6661746 7.46669099,10.5467075 7.46669099,10.3995066 L7.46669099,3.46668761 C7.46669099,3.31895386 7.58615809,3.20001958 7.73335903,3.20001958 L8.26669354,3.20001958 C8.41389401,3.20001958 8.53336158,3.31895324 8.53336158,3.46668761 L8.53336158,10.3995066 C8.53336158,10.5467071 8.41389448,10.6661746 8.26669354,10.6661746 Z" id="Shape"></path>
            </g>
        </g>
    </g>
</svg>