<?xml version="1.0" encoding="UTF-8"?>
<svg width="44px" height="42px" viewBox="0 0 44 42" version="1.1" xmlns="http://www.w3.org/2000/svg" xmlns:xlink="http://www.w3.org/1999/xlink">
    <title>比赛结束@2x</title>
    <g id="页面-1" stroke="none" stroke-width="1" fill="none" fill-rule="evenodd">
        <g id="右侧状态（宽度匹配550）" transform="translate(-1686.000000, -1596.000000)" fill="#6D7278" fill-rule="nonzero">
            <path d="M1720.28664,1596.47981 C1720.92678,1597.11319 1720.9332,1598.13618 1720.30584,1598.77734 L1720.28664,1598.79662 L1716.58239,1602.46153 L1723.48148,1602.46153 C1727.08154,1602.46153 1730,1605.35448 1730,1608.92307 L1730,1631.53846 C1730,1635.10705 1727.08154,1638 1723.48148,1638 L1692.51852,1638 C1688.91846,1638 1686,1635.10705 1686,1631.53846 L1686,1608.92307 C1686,1605.35448 1688.91846,1602.46153 1692.51852,1602.46153 L1699.4284,1602.46153 L1695.7242,1598.79662 C1695.07755,1598.15688 1695.07755,1597.1196 1695.7242,1596.47981 C1696.37081,1595.84006 1697.41922,1595.84006 1698.06588,1596.47981 L1704.11181,1602.46153 L1711.89899,1602.46153 L1717.94492,1596.47981 C1718.59157,1595.84006 1719.63999,1595.84006 1720.28664,1596.47981 Z M1723.48148,1605.6923 L1692.51852,1605.6923 C1690.73647,1605.6923 1689.28849,1607.11 1689.25972,1608.86966 L1689.25926,1608.92307 L1689.25926,1631.53846 C1689.25926,1633.30493 1690.68946,1634.74025 1692.46464,1634.76878 L1692.51852,1634.76923 L1723.48148,1634.76923 C1725.26353,1634.76923 1726.71151,1633.35153 1726.74028,1631.59187 L1726.74074,1631.53846 L1726.74074,1608.92307 C1726.74074,1607.13877 1725.28151,1605.6923 1723.48148,1605.6923 Z M1712.48148,1618.71634 C1713.49399,1618.71634 1714.31481,1619.52999 1714.31481,1620.53365 C1714.31481,1621.53731 1713.49399,1622.35096 1712.48148,1622.35096 L1703.51852,1622.35096 C1702.50601,1622.35096 1701.68519,1621.53731 1701.68519,1620.53365 C1701.68519,1619.52999 1702.50601,1618.71634 1703.51852,1618.71634 L1712.48148,1618.71634 Z" id="比赛结束"></path>
        </g>
    </g>
</svg>