<?xml version="1.0" encoding="UTF-8"?>
<svg width="23px" height="8px" viewBox="0 0 23 8" version="1.1" xmlns="http://www.w3.org/2000/svg" xmlns:xlink="http://www.w3.org/1999/xlink">
    <title>live</title>
    <g id="é¡µé¢-1" stroke="none" stroke-width="1" fill="none" fill-rule="evenodd">
        <g id="live" fill="#569FFD" fill-rule="nonzero">
            <path d="M5.073943,8 L5.337376,6.6966292 L1.786761,6.6966292 L3.149739,0 L1.637864,0 L0,8 L5.073943,8 Z M7.811353,8 L9.449217,0 L7.937342,0 L6.299478,8 L7.811353,8 Z M12.495873,8 L16.653529,0 L15.027118,0 L12.415698,5.3033708 L11.865926,0 L10.376958,0 L11.304699,8 L12.495873,8 Z M21.108978,8 L21.37241,6.6966292 L17.730167,6.6966292 L18.15395,4.6179775 L21.234967,4.6179775 L21.4984,3.3146067 L18.417383,3.3146067 L18.829712,1.3033708 L22.403234,1.3033708 L22.666667,0 L17.58127,0 L15.943406,8 L21.108978,8 Z" id="LIVE"></path>
        </g>
    </g>
</svg>