<svg xmlns="http://www.w3.org/2000/svg" width="19" height="18" viewBox="0 0 19 18" fill="none">
  <path fill-rule="evenodd" clip-rule="evenodd" d="M0.33303 9C0.33303 4.04995 4.38298 0 9.3331 0C14.3731 0 18.333 4.04995 18.333 9C18.333 13.95 14.2831 18 9.3331 18C7.53298 18 5.82296 17.37 4.38296 16.4699L5.73303 15.21C6.81308 15.84 8.07305 16.2 9.42303 16.2C13.3831 16.2 16.6231 12.96 16.6231 9C16.6231 5.03998 13.3831 1.80002 9.42303 1.80002C5.55301 1.80002 2.49301 4.68002 2.22301 8.45995L5.73305 9.49996C3.02702 12.277 1.64408 13.6171 1.58602 13.5199C0.762822 12.1562 0.329438 10.5929 0.33303 9ZM12.751 9.80569L8.64765 12.431C8.4878 12.5332 8.32613 12.5833 8.1663 12.5833C7.71438 12.5833 7.3877 12.1807 7.3877 11.624V6.37332C7.3877 5.81859 7.71609 5.41406 8.1663 5.41406C8.32615 5.41406 8.4878 5.46601 8.64765 5.56622L12.751 8.19352C13.0448 8.38224 13.215 8.67503 13.215 8.99866C13.215 9.32221 13.0465 9.61697 12.751 9.80569Z" fill="white"/>
</svg>