<svg xmlns="http://www.w3.org/2000/svg" width="19" height="18" viewBox="0 0 19 18" fill="none">
  <path opacity="0.200947" fill-rule="evenodd" clip-rule="evenodd" d="M14.7493 4.51367H13.19V7.37501H5.47535V4.51367H3.91602C2.81602 4.51367 1.91602 5.41434 1.91602 6.51367V14.4863C1.91602 15.5857 2.81602 16.4863 3.91602 16.4863H14.7493C15.8493 16.4863 16.7493 15.5857 16.7493 14.4863V6.51367C16.7493 5.41434 15.8493 4.51367 14.7493 4.51367Z" fill="white"/>
  <path fill-rule="evenodd" clip-rule="evenodd" d="M13.5703 7H14.333C14.5443 7 14.7177 7.17333 14.7177 7.38467C14.7177 7.59667 14.5443 7.76933 14.333 7.76933H4.33301C4.12101 7.76933 3.94834 7.59667 3.94834 7.38467C3.94834 7.17333 4.12101 7 4.33301 7H5.10834V2.24733C5.10834 1.56133 5.66967 1 6.35567 1H12.3223C13.0083 1 13.5703 1.56133 13.5703 2.24733L13.57 4H14.9617C16.2113 4 17.2437 4.98024 17.3275 6.20963L17.333 6.37133V14.6287C17.333 15.9327 16.2657 17 14.9617 17H3.70434C2.39967 17 1.33301 15.9327 1.33301 14.6287V6.37133C1.33301 5.06733 2.39967 4 3.70434 4H5.10167V4.92333H3.70434C2.90567 4.92333 2.25567 5.57267 2.25567 6.37133V14.6287C2.25567 15.4273 2.90567 16.0767 3.70434 16.0767H14.9617C15.7603 16.0767 16.4097 15.4273 16.4097 14.6287V6.37133C16.4097 5.57267 15.7603 4.92333 14.9617 4.92333L13.57 4.923L13.5703 7ZM12.3223 1.76933H6.35567C6.09701 1.76933 5.87767 1.988 5.87767 2.24733V7H12.801V2.24733C12.801 1.988 12.5817 1.76933 12.3223 1.76933Z" fill="white" stroke="white" stroke-width="0.2"/>
  <path fill-rule="evenodd" clip-rule="evenodd" d="M15.1729 9.96726V10.6779H13.9362V14.0519H13.0116V10.6779H11.7749V9.96726H15.1729ZM5.63149 9.9668C6.55549 9.9668 7.09416 10.4141 7.09416 11.1141C7.09416 11.5675 6.74816 11.8601 6.50883 11.9575C6.79483 12.0721 7.16083 12.3301 7.16083 12.8755C7.16083 13.6381 6.55549 14.0515 5.71149 14.0515H3.72949V9.9668H5.63149ZM11.2235 9.96693V10.6776H9.02883V11.6363H10.8975V12.3476H9.02883V13.3403H11.2235V14.0516H8.10483V9.96693H11.2235ZM5.61816 12.3361H4.65416V13.3401H5.61816C6.03683 13.3401 6.23616 13.1108 6.23616 12.8355C6.23616 12.5601 6.03683 12.3361 5.61816 12.3361ZM5.55816 10.6781H4.65416V11.6195H5.55816C5.95083 11.6195 6.17016 11.4301 6.17016 11.1488C6.17016 10.8675 5.95083 10.6781 5.55816 10.6781Z" fill="white"/>
</svg>