<?xml version="1.0" encoding="UTF-8"?>
<svg width="76px" height="89px" viewBox="0 0 76 89" version="1.1" xmlns="http://www.w3.org/2000/svg" xmlns:xlink="http://www.w3.org/1999/xlink">
    <!-- Generator: Sketch 61.2 (89653) - https://sketch.com -->
    <title>编组 3</title>
    <desc>Created with Sketch.</desc>
    <g id="页面-1" stroke="none" stroke-width="1" fill="none" fill-rule="evenodd">
        <g id="画板" transform="translate(-925.000000, -75.000000)" fill="#FFFFFF" fill-rule="nonzero">
            <g id="编组-3" transform="translate(925.000000, 75.000000)">
                <path d="M37.870436,25.6969519 C32.3578909,23.5457148 25.9094387,24.7575045 24.8329028,28.5253802 C23.5116672,33.1497048 24.2168561,40.5334472 27.0782482,43.5092951 C30.5015681,47.0695477 36.1634178,45.0186094 44.112,36.3820326 C44.0143672,37.9405775 43.6049434,39.6421514 42.8513257,41.4723658 C38.2260919,52.7050765 23.9381406,67.9898616 0,87.2733638 L0.627329538,88.0521177 C24.6891889,68.6689532 39.0679043,53.2870716 43.7760038,41.8531156 C44.7636115,39.4546398 45.191558,37.243417 45.1263126,35.2581256 C46.2738262,33.9624689 47.4668149,32.5351495 48.7054136,30.9734381 C63.8854353,11.8334107 72.9414379,1.77118565 75.4349326,1.14781197 L75.192397,0.17766947 C72.3525583,0.887629126 63.4085609,10.825404 47.9219159,30.3520434 C46.9129076,31.6242712 45.9384909,32.8026682 44.9984058,33.8896495 C44.4011585,30.0846193 41.8404136,27.2462114 37.870436,25.6969519 Z M27.7990813,42.8161864 C25.2322674,40.1466999 24.5609255,33.1173556 25.7944267,28.8001013 C26.6652059,25.7523741 32.4676266,24.6619864 37.5068935,26.6285295 C41.4325223,28.1604822 43.8365765,31.0086601 44.1090833,34.9022109 C36.1647994,43.8041854 30.7842565,45.9207686 27.7990813,42.8161864 Z" id="路径-6"></path>
                <path d="M74.047582,12.3929862 C74.0347368,12.6688297 74.247939,12.9028581 74.5237824,12.9157033 C74.7996259,12.9285486 75.0336543,12.7153464 75.0464995,12.4395029 L75.6014001,0.523349039 C75.6158845,0.212304951 75.3456049,-0.0361800024 75.0368718,0.00434281955 L63.3718359,1.53543936 C63.0980419,1.57137624 62.9052207,1.82246273 62.9411575,2.09625673 C62.9770944,2.37005072 63.2281809,2.56287201 63.5019749,2.52693512 L74.5746936,1.07358329 L74.047582,12.3929862 Z" id="路径"></path>
            </g>
        </g>
    </g>
</svg>