<?xml version="1.0" encoding="UTF-8"?>
<svg width="51px" height="52px" viewBox="0 0 51 52" version="1.1" xmlns="http://www.w3.org/2000/svg" xmlns:xlink="http://www.w3.org/1999/xlink">
    <!-- Generator: Sketch 61.2 (89653) - https://sketch.com -->
    <title>编组 2</title>
    <desc>Created with Sketch.</desc>
    <g id="页面-1" stroke="none" stroke-width="1" fill="none" fill-rule="evenodd">
        <g id="画板" transform="translate(-139.000000, -552.000000)" fill="#FFFFFF" fill-rule="nonzero">
            <g id="编组-2" transform="translate(138.427577, 552.000000)">
                <path d="M2.55437472,39.0400148 C2.56721995,38.7641714 2.35401776,38.530143 2.0781743,38.5172977 C1.80233085,38.5044525 1.56830243,38.7176547 1.55545721,38.9934982 L1.00055668,50.909652 C0.986072263,51.2206961 1.25635183,51.4691811 1.56508492,51.4286583 L13.2301208,49.8975617 C13.5039148,49.8616248 13.6967361,49.6105384 13.6607992,49.3367444 C13.6248623,49.0629504 13.3737758,48.8701291 13.0999818,48.906066 L2.02726314,50.3594178 L2.55437472,39.0400148 Z" id="路径"></path>
                <path d="M49.836581,0 L50.8141254,0.210729566 C47.6029777,15.1067858 39.3395566,24.2628201 26.0672782,27.6039094 C23.3747117,28.281721 20.9430518,28.3461588 18.827655,27.9057441 L18.7104235,27.8791773 L18.7006334,27.9008944 C15.6700756,34.2024325 10.2578965,41.9378871 2.49127638,51.1107199 L2.24638873,51.2482481 L1.48535972,50.5995302 L2.24638873,49.8503433 C9.39932951,41.3455232 14.4449283,34.1503084 17.4091045,28.2694261 L17.7284235,27.6221773 L17.4934559,27.5480556 C13.4570243,26.2100122 10.7914973,22.8623181 9.96924166,18.4310041 L9.91926512,18.1466915 C9.42838807,15.1912778 9.97037737,12.3357137 11.3889025,10.6743325 C13.0089076,8.77697725 15.5020586,8.65400557 18.3628568,10.5692741 C22.3302563,13.7401014 22.6257222,19.0824843 19.3001493,26.6029053 L19.1444235,26.9491773 L19.2310946,26.9670508 C21.064275,27.3156776 23.1570797,27.2591294 25.4739529,26.7188445 L25.8231599,26.6341639 C38.5576917,23.428444 46.5097512,14.7487828 49.7212038,0.522932569 L49.836581,0 Z M17.7727511,11.3754856 C15.3398287,9.74851422 13.4131678,9.84354445 12.1494054,11.3236671 C10.9454445,12.7337499 10.4593159,15.2950023 10.9057505,17.982842 C11.609634,22.2206996 14.0778655,25.4016533 17.9054443,26.6308379 L18.1594235,26.7081773 L18.2172585,26.5857267 C21.4619211,19.452364 21.3625452,14.4339342 17.9720099,11.5400815 L17.7727511,11.3754856 Z" id="路径-8"></path>
            </g>
        </g>
    </g>
</svg>