<?xml version="1.0" encoding="UTF-8"?>
<svg width="284px" height="22px" viewBox="0 0 284 22" version="1.1" xmlns="http://www.w3.org/2000/svg" xmlns:xlink="http://www.w3.org/1999/xlink">
    <!-- Generator: Sketch 61.2 (89653) - https://sketch.com -->
    <title>点击此处选择本场比赛所有盘口</title>
    <desc>Created with Sketch.</desc>
    <g id="页面-1" stroke="none" stroke-width="1" fill="none" fill-rule="evenodd">
        <g id="画板" transform="translate(-790.000000, -177.000000)" fill="#FFFFFF" fill-rule="nonzero">
            <path d="M795.82,193.069606 C796.14,193.069606 796.36,192.889606 796.48,192.529606 C796.5,192.549606 796.54,192.549606 796.6,192.549606 C797.26,192.529606 797.98,192.449606 798.76,192.329606 C800.88,192.009606 802.38,191.669606 803.28,191.309606 C803.5,191.149606 803.62,190.929606 803.62,190.629606 L803.5,190.289606 L803.5,190.289606 C803.42,190.169606 803.32,190.089606 803.22,190.049606 L803.28,189.989606 L803.28,189.989606 C804,189.029606 804.42,188.029606 804.52,186.989606 C804.52,186.269606 804.14,185.789606 803.38,185.509606 C802.9,185.309606 802.14,185.209606 801.12,185.209606 C800.4,185.209606 799.7,185.249606 799.02,185.309606 C799.16,184.309606 799.24,183.269606 799.26,182.229606 C799.4,182.229606 799.56,182.209606 799.72,182.189606 C799.76,182.189606 799.88,182.189606 800.08,182.149606 C800.62,182.029606 801.2,181.909606 801.82,181.749606 C802.94,181.489606 803.64,181.269606 803.92,181.069606 C804.1,180.869606 804.2,180.689606 804.2,180.489606 C804.2,180.409606 804.18,180.349606 804.16,180.309606 C804.06,180.169606 803.92,180.089606 803.76,180.089606 C803.26,180.189606 802.56,180.289606 801.64,180.389606 C801.02,180.469606 800.38,180.549606 799.72,180.609606 C799.56,180.669606 799.4,180.729606 799.26,180.769606 C799.2,179.889606 799.06,179.169606 798.86,178.569606 C798.66,178.149606 798.48,177.929606 798.32,177.889606 C798.08,177.889606 797.86,177.989606 797.66,178.189606 C797.46,178.389606 797.38,178.649606 797.38,178.929606 C797.72,180.089606 797.9,181.029606 797.9,181.749606 L797.8,185.509606 C797.64,185.549606 797.46,185.589606 797.28,185.629606 C796.86,185.709606 796.48,185.829606 796.12,185.949606 L796.02,185.649606 L796.02,185.649606 C795.86,185.209606 795.64,184.969606 795.32,184.969606 C795.08,184.969606 794.9,185.029606 794.74,185.129606 C794.48,185.329606 794.36,185.549606 794.36,185.789606 C794.36,185.909606 794.42,186.149606 794.54,186.469606 C794.66,186.869606 794.78,187.309606 794.9,187.789606 C795.22,188.989606 795.38,189.989606 795.38,190.749606 C795.38,191.029606 795.36,191.409606 795.34,191.869606 C795.3,192.129606 795.28,192.329606 795.26,192.489606 C795.26,192.889606 795.44,193.069606 795.82,193.069606 Z M796.72,191.069606 C796.74,190.749606 796.76,190.409606 796.76,190.049606 C796.76,189.609606 796.7,188.969606 796.62,188.149606 C796.58,187.929606 796.54,187.689606 796.5,187.449606 C796.78,187.409606 797.22,187.309606 797.86,187.169606 C798.48,187.009606 799.08,186.929606 799.66,186.889606 C800.26,186.789606 800.78,186.729606 801.24,186.729606 C802.42,186.729606 803.06,186.849606 803.14,187.089606 C803.14,187.809606 802.42,188.909606 800.98,190.369606 C800.96,190.389606 800.94,190.409606 800.9,190.429606 C800.12,190.609606 799.28,190.769606 798.4,190.889606 C797.8,190.969606 797.24,191.029606 796.72,191.069606 Z M802.66,197.229606 C802.86,197.229606 802.98,197.169606 803.04,197.049606 C803.12,196.909606 803.16,196.749606 803.16,196.589606 C803.04,195.709606 802.22,194.729606 800.7,193.609606 C800.46,193.449606 800.26,193.369606 800.08,193.369606 C799.84,193.369606 799.7,193.429606 799.64,193.549606 C799.56,193.629606 799.52,193.769606 799.52,193.949606 C799.52,194.229606 799.6,194.449606 799.76,194.649606 C801.06,196.269606 802.02,197.129606 802.66,197.229606 Z M807.74,197.129606 C807.98,197.109606 808.1,197.009606 808.12,196.809606 C808.12,196.689606 808.08,196.529606 808,196.349606 C807.24,194.749606 806.3,193.809606 805.22,193.529606 C805.14,193.509606 805.08,193.489606 805,193.489606 C804.9,193.489606 804.8,193.529606 804.68,193.609606 C804.52,193.729606 804.46,193.909606 804.46,194.109606 C804.46,194.409606 804.62,194.709606 804.94,195.069606 C805.94,196.149606 806.78,196.829606 807.44,197.069606 C807.54,197.109606 807.64,197.129606 807.74,197.129606 Z M793.66,197.789606 C793.84,197.789606 793.96,197.729606 794.02,197.609606 C794.1,197.489606 794.14,197.329606 794.14,197.149606 C794.04,196.189606 793.3,195.089606 791.9,193.869606 C791.66,193.709606 791.44,193.629606 791.26,193.629606 C791.04,193.629606 790.9,193.689606 790.82,193.809606 C790.74,193.889606 790.7,194.009606 790.7,194.209606 C790.7,194.469606 790.78,194.689606 790.96,194.889606 C792.16,196.709606 793.06,197.669606 793.66,197.789606 Z M798.8,197.649606 C798.96,197.649606 799.08,197.609606 799.2,197.549606 C799.3,197.509606 799.4,197.429606 799.48,197.289606 C799.56,197.169606 799.6,197.069606 799.62,196.969606 C799.62,196.749606 799.54,196.609606 799.4,196.549606 C798.6,196.169606 797.8,195.469606 796.96,194.449606 C796.72,194.169606 796.5,193.969606 796.3,193.829606 C796.16,193.729606 796.04,193.669606 795.92,193.669606 C795.8,193.669606 795.7,193.689606 795.64,193.689606 C795.48,193.769606 795.36,193.849606 795.26,193.949606 C795.08,194.129606 795,194.289606 795,194.409606 C795,194.609606 795.08,194.769606 795.24,194.909606 C795.74,195.629606 796.3,196.229606 796.94,196.689606 C797.74,197.329606 798.36,197.649606 798.8,197.649606 Z M815.1,197.669606 C816.78,197.669606 818.5,197.349606 820.28,196.729606 C822.22,195.969606 823.82,195.109606 825.06,194.109606 C825.34,195.049606 825.72,195.869606 826.22,196.589606 C826.36,196.929606 826.62,197.109606 826.98,197.109606 C827.32,197.009606 827.52,196.789606 827.56,196.449606 C827.3,195.889606 827.06,195.229606 826.82,194.469606 C826.26,192.909606 825.98,191.749606 825.98,190.949606 C825.98,190.429606 826.02,189.889606 826.12,189.369606 C826.04,188.989606 825.8,188.769606 825.42,188.729606 C824.92,188.729606 824.62,188.949606 824.54,189.349606 C824.54,190.109606 824.54,190.809606 824.58,191.449606 C824.62,191.889606 824.68,192.329606 824.76,192.749606 C824.56,192.829606 824.34,192.969606 824.06,193.149606 C823.24,193.689606 822.08,194.269606 820.6,194.909606 L820.56,194.909606 C820.68,194.389606 820.76,193.789606 820.76,193.089606 C820.76,192.089606 820.72,190.889606 820.64,189.469606 C820.62,188.809606 820.6,188.189606 820.6,187.629606 C824.22,186.909606 826.46,186.269606 827.34,185.729606 C827.54,185.529606 827.66,185.309606 827.66,185.109606 C827.66,185.029606 827.64,184.949606 827.6,184.889606 C827.52,184.729606 827.38,184.649606 827.18,184.649606 C825.58,185.049606 823.38,185.489606 820.54,186.009606 L820.54,185.629606 C820.54,184.649606 820.54,183.729606 820.56,182.889606 C821.1,182.789606 821.64,182.689606 822.2,182.569606 C823.28,182.369606 824.1,182.149606 824.66,181.949606 C824.9,181.709606 825.02,181.449606 825.02,181.169606 C825,181.009606 824.88,180.869606 824.68,180.729606 C824.54,180.649606 824.38,180.609606 824.2,180.609606 C823.92,180.609606 823.46,180.689606 822.8,180.849606 C822.1,181.009606 821.36,181.169606 820.6,181.309606 C820.62,180.349606 820.64,179.669606 820.64,179.229606 C820.64,178.789606 820.42,178.529606 819.98,178.409606 L819.52,178.409606 C819.12,178.529606 818.94,178.789606 818.94,179.229606 C818.94,180.029606 818.96,180.829606 818.96,181.609606 C817.84,181.809606 816.62,182.009606 815.3,182.189606 C814.94,182.229606 814.64,182.289606 814.42,182.329606 C814.2,182.489606 814.08,182.689606 814.08,182.889606 C814.08,183.309606 814.26,183.629606 814.66,183.829606 L814.84,183.829606 C815.2,183.809606 815.54,183.769606 815.88,183.689606 C816.9,183.529606 817.92,183.349606 818.96,183.189606 C818.96,184.189606 819,185.229606 819.04,186.269606 C817.22,186.609606 815.34,186.909606 813.42,187.149606 C813.02,187.269606 812.72,187.369606 812.5,187.449606 C812.08,187.649606 811.88,187.889606 811.88,188.149606 C811.94,188.709606 812.18,189.009606 812.6,189.009606 C812.82,189.009606 813.1,188.989606 813.42,188.949606 C813.66,188.929606 814.04,188.869606 814.6,188.769606 C816.02,188.529606 817.52,188.249606 819.1,187.929606 C819.1,188.149606 819.12,188.369606 819.14,188.589606 C819.24,190.229606 819.3,191.809606 819.32,193.289606 C819.28,194.089606 819.06,194.849606 818.68,195.609606 C817.44,195.969606 816.34,196.169606 815.34,196.169606 C814.86,196.109606 814.62,195.869606 814.62,195.429606 C814.62,195.309606 814.78,194.889606 815.12,194.189606 C815.32,193.629606 815.46,193.169606 815.54,192.849606 C815.62,192.569606 815.66,192.309606 815.66,192.049606 C815.66,191.769606 815.62,191.529606 815.54,191.349606 C815.42,191.069606 815.18,190.909606 814.82,190.909606 C814.38,190.909606 814.08,191.169606 813.9,191.669606 C813.94,192.009606 813.96,192.349606 813.96,192.669606 C813.96,192.849606 813.92,193.029606 813.86,193.229606 C813.72,193.569606 813.56,193.929606 813.4,194.329606 C813.12,194.849606 812.98,195.229606 812.98,195.469606 C812.98,196.209606 813.22,196.789606 813.74,197.229606 C814.1,197.509606 814.54,197.649606 815.1,197.669606 Z M846.64,196.189606 C848.78,196.149606 849.86,195.809606 849.86,195.149606 C849.86,194.749606 849.84,194.329606 849.84,193.829606 C849.78,192.469606 849.68,191.689606 849.56,191.449606 C849.44,191.289606 849.28,191.189606 849.08,191.189606 C848.8,191.269606 848.68,191.449606 848.68,191.729606 C848.66,192.209606 848.66,192.709606 848.66,193.209606 C848.64,193.889606 848.6,194.329606 848.52,194.529606 C848.24,194.689606 847.74,194.769606 846.98,194.769606 C845.82,194.769606 844.98,194.569606 844.46,194.189606 C843.66,193.589606 843.22,191.829606 843.18,188.869606 L843.180466,188.222609 C843.181633,187.658177 843.185714,187.029606 843.2,186.329606 C843.98,186.229606 844.82,186.029606 845.7,185.749606 C846.26,185.549606 846.7,185.349606 847.02,185.109606 C847.18,184.989606 847.3,184.849606 847.42,184.669606 L847.44,184.329606 L847.44,184.329606 C847.36,184.129606 847.14,184.029606 846.74,184.029606 C845.04,184.449606 843.88,184.689606 843.26,184.769606 C843.3,183.689606 843.34,182.569606 843.34,181.369606 C843.32,180.689606 843.26,180.209606 843.18,179.909606 C843.02,179.589606 842.8,179.409606 842.52,179.369606 C842.02,179.449606 841.76,179.689606 841.76,180.069606 C841.84,181.049606 841.88,182.349606 841.88,183.949606 C841.88,184.269606 841.84,185.069606 841.78,186.349606 C841.76,187.449606 841.76,188.369606 841.76,189.129606 C841.76,191.989606 842.2,193.929606 843.12,194.969606 C843.86,195.769606 845.04,196.189606 846.64,196.189606 Z M833.32,195.969606 C834.08,195.969606 834.76,195.789606 835.36,195.429606 C836.22,194.929606 837.3,194.109606 838.58,192.929606 C839.06,192.429606 839.46,191.969606 839.82,191.569606 C839.96,191.369606 840.04,191.189606 840.06,191.069606 C840.06,190.909606 840,190.749606 839.9,190.629606 C839.78,190.569606 839.66,190.529606 839.58,190.529606 C839.42,190.529606 839.3,190.629606 839.22,190.789606 C838.7,191.289606 838.14,191.769606 837.58,192.209606 C837.38,192.389606 837.16,192.569606 836.96,192.729606 C837,191.449606 837.02,189.969606 837.04,188.289606 L837.04,187.249606 C837.24,187.169606 837.52,187.029606 837.88,186.809606 C838.42,186.489606 839,186.109606 839.64,185.629606 C839.88,185.469606 840.06,185.249606 840.18,185.009606 C840.22,184.969606 840.24,184.909606 840.24,184.869606 C840.24,184.809606 840.2,184.729606 840.14,184.649606 C840.02,184.509606 839.94,184.429606 839.86,184.429606 C839.62,184.429606 838.66,184.869606 836.98,185.729606 L836.92,184.629606 L836.92,184.629606 C836.78,183.209606 836.62,182.129606 836.44,181.369606 C836.2,180.989606 836,180.789606 835.82,180.789606 C835.66,180.789606 835.5,180.889606 835.34,181.049606 C835.18,181.209606 835.1,181.389606 835.1,181.609606 C835.1,181.729606 835.16,181.969606 835.28,182.309606 C835.46,183.189606 835.58,184.229606 835.66,185.409606 C835.74,186.589606 835.78,187.769606 835.78,188.929606 C835.78,190.529606 835.74,192.109606 835.7,193.689606 C835.66,193.729606 835.64,193.749606 835.6,193.769606 C834.62,194.409606 833.98,194.729606 833.7,194.729606 C833.54,194.729606 833.46,194.449606 833.46,193.869606 C833.46,192.429606 833.48,191.029606 833.54,189.669606 C833.56,188.909606 833.58,188.389606 833.58,188.069606 C833.58,187.909606 833.52,187.749606 833.44,187.589606 C833.28,187.429606 833.12,187.349606 832.92,187.329606 C832.78,187.329606 832.66,187.369606 832.58,187.409606 C832.36,187.529606 832.24,187.689606 832.22,187.889606 C832.22,188.249606 832.24,188.749606 832.3,189.369606 C832.3,190.009606 832.32,190.589606 832.32,191.089606 C832.32,191.609606 832.3,192.149606 832.3,192.709606 C832.24,193.209606 832.22,193.709606 832.22,194.229606 C832.22,194.589606 832.26,194.869606 832.34,195.109606 C832.5,195.669606 832.82,195.969606 833.32,195.969606 Z M864.24,192.289606 C864.56,192.289606 864.76,192.149606 864.84,191.869606 C864.86,191.589606 864.88,191.089606 864.92,190.369606 C864.92,190.049606 864.96,188.889606 865.08,186.889606 L865.1,186.469606 L865.1,186.469606 C865.24,186.549606 865.38,186.629606 865.54,186.709606 C866.16,187.109606 866.56,187.329606 866.72,187.409606 C867.18,187.629606 867.56,187.769606 867.84,187.849606 C867.96,187.889606 868.08,187.889606 868.18,187.889606 C868.26,187.889606 868.34,187.889606 868.4,187.849606 C868.62,187.769606 868.74,187.629606 868.78,187.409606 C868.78,187.249606 868.72,187.149606 868.6,187.069606 C868.4,186.989606 868.2,186.889606 868.02,186.769606 C867.5,186.489606 867.04,186.169606 866.68,185.849606 C866,185.409606 865.54,185.129606 865.32,185.029606 C865.3,185.029606 865.26,185.029606 865.22,185.009606 C865.26,183.969606 865.3,182.929606 865.3,181.929606 C865.3,181.649606 865.28,181.409606 865.28,181.209606 C865.24,180.649606 865,180.369606 864.6,180.369606 C864.46,180.369606 864.32,180.429606 864.16,180.529606 C863.88,180.709606 863.76,180.929606 863.76,181.209606 C863.78,181.689606 863.8,182.229606 863.82,182.809606 C863.82,184.629606 863.8,186.049606 863.78,187.049606 C863.74,187.749606 863.72,188.509606 863.68,189.309606 C863.62,190.409606 863.6,191.029606 863.6,191.149606 C863.6,191.909606 863.8,192.289606 864.24,192.289606 Z M869.56,197.589606 C869.76,197.589606 869.9,197.529606 869.98,197.429606 C870.1,197.309606 870.18,197.169606 870.18,196.969606 C870.18,196.729606 870.08,196.609606 869.9,196.569606 C867.98,196.049606 866.26,195.449606 864.74,194.729606 C863.3,194.009606 861.94,193.229606 860.7,192.369606 C860,191.869606 859.3,191.349606 858.62,190.809606 C859.48,189.069606 860.06,187.269606 860.38,185.429606 C860.44,185.149606 860.48,184.909606 860.48,184.709606 C860.46,184.329606 860.3,184.029606 860,183.789606 C859.76,183.589606 859.48,183.489606 859.16,183.489606 C858.96,183.489606 858.68,183.549606 858.32,183.629606 C857.92,183.769606 857.12,184.129606 855.9,184.689606 C856.38,183.749606 856.62,182.729606 856.62,181.609606 C856.6,181.329606 856.58,181.109606 856.58,180.989606 C856.5,180.629606 856.26,180.429606 855.9,180.429606 C855.68,180.469606 855.5,180.549606 855.36,180.629606 C855.22,180.789606 855.16,180.989606 855.16,181.189606 C855.16,181.989606 855.1,182.629606 854.98,183.109606 C854.74,183.849606 854.48,184.369606 854.18,184.649606 C853.58,185.369606 853.28,185.929606 853.28,186.369606 C853.34,186.889606 853.54,187.149606 853.86,187.149606 C854.18,187.009606 854.74,186.749606 855.5,186.349606 C857.22,185.489606 858.38,185.009606 858.98,184.889606 C858.98,185.949606 858.6,187.429606 857.84,189.349606 C857.76,189.569606 857.66,189.769606 857.54,189.949606 C857.08,189.549606 856.62,189.149606 856.14,188.729606 C855.94,188.569606 855.76,188.409606 855.64,188.289606 C855.46,188.169606 855.34,188.089606 855.26,188.069606 C855.2,188.069606 855.12,188.049606 855.02,188.049606 C854.82,188.069606 854.66,188.149606 854.56,188.289606 C854.4,188.469606 854.32,188.649606 854.32,188.829606 C854.32,189.129606 854.42,189.369606 854.66,189.549606 C855.34,190.149606 856.04,190.769606 856.76,191.409606 C856.52,191.849606 856.26,192.269606 855.98,192.709606 C855.1,194.069606 854.16,195.029606 853.16,195.629606 C853,195.749606 852.8,195.849606 852.58,195.949606 C852.48,196.029606 852.42,196.129606 852.42,196.289606 C852.5,196.609606 852.78,196.789606 853.3,196.789606 C853.5,196.769606 853.74,196.689606 854.04,196.569606 C854.4,196.329606 854.72,196.089606 854.98,195.829606 C856.06,194.829606 857,193.649606 857.82,192.269606 C858.88,193.129606 860.08,193.949606 861.42,194.749606 C862.9,195.629606 864.3,196.309606 865.58,196.789606 C866.26,197.029606 867,197.249606 867.8,197.429606 C868.44,197.529606 869.02,197.589606 869.56,197.589606 Z M879.14,194.309606 C879.2,194.229606 879.28,194.149606 879.36,194.069606 C879.48,193.929606 879.64,193.729606 879.84,193.449606 C880.14,193.049606 880.46,192.609606 880.82,192.129606 C881.14,191.609606 881.46,191.069606 881.76,190.489606 C882.2,189.589606 882.54,188.789606 882.8,188.069606 C882.9,188.529606 882.96,189.089606 882.98,189.729606 C882.98,190.449606 883.02,191.069606 883.1,191.609606 C883.18,192.269606 883.52,192.769606 884.12,193.129606 C884.76,193.489606 885.56,193.669606 886.56,193.669606 C887.6,193.669606 888.58,193.409606 889.5,192.869606 C890.1,192.869606 890.4,192.469606 890.4,191.689606 C890.36,190.209606 890,189.209606 889.3,188.669606 C889.08,188.469606 888.88,188.349606 888.7,188.349606 C888.5,188.429606 888.4,188.609606 888.4,188.909606 C888.84,189.789606 889.06,190.629606 889.06,191.409606 C888.32,191.909606 887.64,192.149606 887,192.149606 C886.3,192.149606 885.74,192.089606 885.32,191.929606 C884.8,191.729606 884.5,191.409606 884.4,190.949606 C884.32,190.229606 884.28,189.689606 884.28,189.329606 C884.28,188.769606 884.22,188.269606 884.12,187.849606 C884.04,187.529606 883.82,187.349606 883.5,187.329606 L883.36,187.329606 C883.24,187.349606 883.14,187.389606 883.02,187.449606 C883.1,187.209606 883.16,187.009606 883.2,186.849606 C883.94,186.589606 884.7,186.309606 885.46,186.009606 C886.46,185.609606 887.22,185.229606 887.74,184.869606 C887.94,184.669606 888.04,184.449606 888.04,184.209606 C888.02,184.089606 887.92,183.989606 887.76,183.869606 C887.62,183.809606 887.48,183.769606 887.34,183.769606 C887.1,183.769606 886.66,183.909606 886.02,184.189606 C885.22,184.549606 884.34,184.909606 883.38,185.249606 C883.52,184.889606 883.66,184.469606 883.78,184.009606 C883.9,183.349606 883.98,182.729606 884,182.169606 C884.34,182.009606 884.68,181.809606 885,181.609606 C885.46,181.369606 885.82,181.129606 886.1,180.889606 C886.22,180.769606 886.28,180.629606 886.28,180.489606 C886.28,180.129606 886.16,179.929606 885.96,179.889606 C885.86,179.889606 885.76,179.909606 885.68,179.909606 L885.52,180.009606 C884.96,180.289606 884.44,180.529606 883.98,180.729606 C883.94,180.129606 883.84,179.609606 883.72,179.149606 C883.6,178.909606 883.48,178.729606 883.36,178.609606 C883.24,178.509606 883.08,178.449606 882.88,178.449606 C882.68,178.469606 882.52,178.529606 882.42,178.609606 C882.22,178.769606 882.14,178.989606 882.14,179.289606 C882.14,179.429606 882.18,179.649606 882.3,179.949606 C882.42,180.309606 882.5,180.789606 882.54,181.349606 C881.86,181.589606 881.36,181.709606 881.04,181.709606 C880.84,181.709606 880.68,181.709606 880.58,181.669606 C880.72,181.229606 880.8,180.889606 880.8,180.649606 C880.8,180.009606 880.6,179.669606 880.2,179.629606 L879.92,179.629606 C879.58,179.669606 879.38,179.829606 879.32,180.109606 C879.3,180.649606 879.26,181.229606 879.18,181.869606 C879.18,182.149606 879.24,182.429606 879.36,182.669606 C879.58,183.029606 879.9,183.209606 880.34,183.209606 C880.98,183.209606 881.7,183.069606 882.54,182.789606 C882.5,183.029606 882.48,183.269606 882.44,183.529606 C882.32,184.149606 882.16,184.729606 882,185.289606 C881.92,185.469606 881.88,185.629606 881.84,185.789606 C880.96,186.089606 880.04,186.369606 879.08,186.629606 C878.74,186.709606 878.46,186.789606 878.24,186.869606 C878.02,187.029606 877.9,187.209606 877.9,187.409606 C877.9,187.789606 878.1,188.069606 878.5,188.269606 L878.66,188.269606 C878.98,188.229606 879.3,188.149606 879.58,188.049606 C880.24,187.849606 880.9,187.629606 881.56,187.409606 C881.54,187.449606 881.52,187.509606 881.5,187.589606 C881.3,188.149606 881.08,188.689606 880.8,189.249606 C880.4,190.129606 879.98,190.949606 879.58,191.709606 C879.3,192.229606 879.06,192.649606 878.9,192.949606 C878.76,193.169606 878.66,193.349606 878.62,193.509606 C878.54,193.629606 878.5,193.769606 878.5,193.929606 C878.54,194.189606 878.66,194.329606 878.82,194.349606 C878.94,194.349606 879.06,194.349606 879.14,194.309606 Z M876.1,184.289606 C876.38,184.289606 876.54,184.069606 876.58,183.589606 C876.58,183.369606 876.52,183.169606 876.44,183.009606 C876.08,182.569606 875.7,182.269606 875.34,182.069606 C874.94,181.849606 874.58,181.729606 874.26,181.729606 C873.8,181.749606 873.54,181.909606 873.46,182.229606 C873.42,182.349606 873.42,182.429606 873.42,182.509606 C873.42,182.709606 873.44,182.869606 873.5,182.989606 C873.52,183.029606 873.62,183.049606 873.78,183.089606 C874.5,183.289606 875.06,183.589606 875.46,183.949606 C875.68,184.189606 875.9,184.289606 876.1,184.289606 Z M885.56,197.609606 C887.46,197.609606 889.06,197.329606 890.38,196.809606 C890.58,196.689606 890.7,196.589606 890.76,196.509606 C890.84,196.369606 890.9,196.229606 890.9,196.109606 C890.86,195.909606 890.68,195.809606 890.34,195.809606 C890.18,195.809606 889.92,195.849606 889.56,195.949606 C889.08,196.089606 888.62,196.189606 888.18,196.249606 C887.66,196.289606 887.18,196.329606 886.74,196.329606 C886.18,196.329606 885.56,196.289606 884.86,196.249606 C884.02,196.169606 883.24,196.089606 882.54,195.969606 C880.6,195.629606 878.86,195.209606 877.3,194.689606 C876.62,194.449606 875.92,194.169606 875.24,193.869606 C875.18,193.849606 875.12,193.829606 875.06,193.789606 C875.54,193.269606 875.78,192.529606 875.78,191.609606 C875.78,190.889606 875.56,190.229606 875.16,189.609606 C875.76,188.769606 876.06,188.129606 876.06,187.649606 C876.06,186.869606 875.76,186.209606 875.18,185.689606 C875.02,185.529606 874.82,185.429606 874.62,185.409606 C874.14,185.409606 873.88,185.629606 873.86,186.029606 C874.1,186.389606 874.28,186.709606 874.44,186.969606 C874.6,187.329606 874.7,187.649606 874.74,187.889606 C874.74,187.969606 874.64,188.129606 874.46,188.349606 C873.98,188.849606 873.76,189.289606 873.76,189.669606 C873.76,189.909606 873.86,190.169606 874.08,190.449606 C874.32,190.809606 874.44,191.109606 874.44,191.349606 C874.4,192.229606 874.22,192.849606 873.88,193.249606 C873.84,193.249606 873.8,193.229606 873.76,193.209606 C873.6,193.129606 873.46,193.089606 873.34,193.089606 C873.14,193.089606 873,193.149606 872.88,193.269606 C872.68,193.469606 872.58,193.669606 872.58,193.909606 C872.58,194.109606 872.62,194.249606 872.7,194.369606 C872.94,194.529606 873.22,194.709606 873.58,194.889606 C874.12,195.169606 874.72,195.429606 875.38,195.669606 C879.22,196.949606 882.62,197.609606 885.56,197.609606 Z M900.4,187.089606 C900.6,187.089606 900.82,187.009606 901.06,186.809606 C902.02,186.449606 902.98,185.829606 903.96,184.969606 C904.2,184.769606 904.44,184.549606 904.72,184.289606 C905.74,184.849606 906.7,185.309606 907.6,185.669606 C908.88,186.189606 909.92,186.469606 910.68,186.489606 L910.98,186.489606 C911.3,186.429606 911.46,186.269606 911.5,185.989606 C911.5,185.789606 911.42,185.629606 911.28,185.529606 C910.28,185.249606 909.46,184.989606 908.82,184.709606 C907.84,184.309606 906.82,183.789606 905.76,183.149606 C905.96,182.909606 906.18,182.629606 906.38,182.349606 C907.3,181.089606 907.76,180.149606 907.8,179.509606 C907.8,178.829606 907.48,178.409606 906.86,178.249606 C906.68,178.249606 906.54,178.229606 906.42,178.229606 C905.66,178.229606 904.72,178.349606 903.56,178.569606 C902.72,178.769606 902.02,178.989606 901.5,179.209606 C901.24,179.329606 901.1,179.489606 901.08,179.729606 L901.08,180.049606 C901.18,180.449606 901.42,180.649606 901.78,180.649606 C903.24,180.149606 904.78,179.809606 906.38,179.649606 C906.1,180.429606 905.66,181.189606 905.08,181.949606 L904.66,182.449606 L904.66,182.449606 L903.2,181.469606 C902.88,181.309606 902.66,181.189606 902.52,181.109606 C902.32,181.009606 902.14,180.949606 901.98,180.949606 C901.74,180.949606 901.56,181.049606 901.4,181.209606 C901.26,181.349606 901.2,181.529606 901.2,181.769606 C901.2,181.929606 901.26,182.089606 901.38,182.249606 C901.56,182.429606 901.82,182.629606 902.16,182.829606 L903.54,183.629606 C903.26,183.929606 902.94,184.209606 902.6,184.469606 C901.72,185.149606 900.88,185.689606 900.06,186.089606 C899.88,186.229606 899.8,186.389606 899.8,186.569606 C899.82,186.929606 900.02,187.089606 900.4,187.089606 Z M897.18,196.729606 C897.44,196.729606 897.66,196.589606 897.82,196.349606 C898.1,195.909606 898.26,195.169606 898.26,194.109606 C898.26,193.109606 898.22,191.769606 898.14,190.089606 C898.72,189.569606 899.1,189.169606 899.3,188.889606 C899.36,188.809606 899.4,188.749606 899.42,188.669606 L899.4,188.429606 L899.4,188.429606 C899.32,188.229606 899.2,188.109606 899,188.109606 C898.88,188.109606 898.74,188.169606 898.58,188.249606 C898.42,188.389606 898.24,188.529606 898.06,188.649606 C897.94,186.809606 897.84,185.249606 897.76,183.949606 C898.4,183.749606 898.98,183.509606 899.48,183.269606 C899.68,183.189606 899.86,183.069606 899.98,182.929606 C900.06,182.789606 900.12,182.649606 900.12,182.529606 C900.12,182.409606 900,182.289606 899.8,182.169606 C899.6,182.089606 899.42,182.029606 899.28,182.029606 C899.2,182.069606 899.12,182.109606 899.02,182.149606 C898.54,182.309606 898.1,182.449606 897.66,182.549606 C897.6,182.049606 897.52,181.589606 897.44,181.149606 C897.3,180.649606 897.1,180.389606 896.82,180.389606 L896.54,180.389606 C896.2,180.469606 896,180.689606 895.94,181.049606 C896.08,181.489606 896.2,182.109606 896.28,182.869606 C895.92,182.949606 895.6,182.969606 895.28,182.969606 C895.1,182.969606 894.94,182.969606 894.82,182.949606 C894.46,183.129606 894.24,183.349606 894.18,183.589606 L894.18,183.929606 C894.18,184.309606 894.36,184.529606 894.76,184.589606 L895,184.589606 C895.24,184.589606 895.52,184.549606 895.82,184.489606 C896.02,184.449606 896.2,184.409606 896.4,184.349606 C896.52,186.029606 896.62,187.729606 896.7,189.489606 L896.7,189.629606 C895.22,190.749606 894.16,191.609606 893.52,192.209606 C893.32,192.449606 893.22,192.609606 893.22,192.709606 C893.22,192.989606 893.3,193.209606 893.46,193.329606 C893.64,193.529606 893.84,193.629606 894.08,193.629606 C894.12,193.629606 894.16,193.629606 894.2,193.609606 C894.56,193.969606 894.84,194.269606 895.02,194.529606 C895.42,195.149606 895.76,195.649606 896.04,196.029606 C896.46,196.489606 896.84,196.729606 897.18,196.729606 Z M905.22,198.269606 C905.52,198.269606 905.7,197.869606 905.74,197.089606 C905.74,196.709606 905.76,196.209606 905.76,195.569606 L905.76,193.009606 C905.76,193.009606 905.78,192.989606 905.8,192.989606 C907.88,192.129606 909.18,191.389606 909.68,190.769606 C909.88,190.569606 909.98,190.369606 909.98,190.209606 C909.98,190.129606 909.96,190.049606 909.94,190.009606 C909.84,189.869606 909.7,189.789606 909.54,189.789606 C908.62,190.269606 907.36,190.789606 905.74,191.389606 C905.74,190.909606 905.72,190.469606 905.7,190.029606 L905.7,189.289606 L905.7,189.289606 C905.9,189.249606 906.12,189.169606 906.36,189.089606 C907,188.889606 907.48,188.689606 907.82,188.489606 C908,188.289606 908.1,188.089606 908.1,187.849606 C908.08,187.729606 908,187.609606 907.84,187.509606 C907.7,187.429606 907.56,187.389606 907.4,187.389606 C907.24,187.389606 906.98,187.469606 906.58,187.589606 C906.28,187.689606 905.98,187.789606 905.66,187.869606 L905.66,187.669606 L905.66,187.669606 C905.64,187.109606 905.62,186.669606 905.62,186.309606 C905.58,185.889606 905.38,185.669606 904.98,185.669606 C904.82,185.669606 904.7,185.709606 904.58,185.789606 C904.34,185.949606 904.24,186.129606 904.24,186.349606 C904.24,187.189606 904.26,187.729606 904.28,188.009606 L904.28,188.249606 L904.28,188.249606 C903.64,188.409606 902.96,188.569606 902.2,188.729606 C902,188.769606 901.84,188.829606 901.72,188.869606 C901.48,189.029606 901.36,189.189606 901.36,189.369606 C901.36,189.789606 901.54,190.089606 901.94,190.289606 L902.1,190.289606 C902.3,190.269606 902.5,190.229606 902.7,190.149606 C903.24,190.029606 903.8,189.869606 904.36,189.709606 C904.4,190.489606 904.42,191.209606 904.44,191.869606 C903.6,192.169606 902.74,192.449606 901.86,192.709606 C901.5,192.809606 901.2,192.909606 901,192.989606 C900.6,193.189606 900.4,193.389606 900.4,193.629606 C900.46,194.169606 900.68,194.449606 901.06,194.449606 C901.28,194.449606 901.54,194.429606 901.86,194.389606 C901.98,194.369606 902.2,194.309606 902.52,194.189606 C903.14,193.989606 903.8,193.749606 904.5,193.489606 C904.5,194.329606 904.52,195.049606 904.54,195.709606 C904.54,196.209606 904.56,196.669606 904.62,197.109606 C904.66,197.869606 904.86,198.269606 905.22,198.269606 Z M896.82,195.169606 C896.54,195.029606 896.18,194.729606 895.74,194.269606 C895.56,194.029606 895.32,193.589606 895,192.989606 C895.68,192.369606 896.26,191.829606 896.76,191.369606 C896.8,192.249606 896.84,193.009606 896.86,193.649606 C896.86,194.249606 896.84,194.749606 896.82,195.169606 Z M922.94,197.769606 C923.3,197.729606 923.48,197.469606 923.52,196.989606 C923.52,195.989606 923.48,194.589606 923.4,192.789606 C925.08,192.309606 926.12,191.889606 926.56,191.529606 C926.72,191.329606 926.82,191.149606 926.82,190.969606 C926.82,190.889606 926.8,190.829606 926.78,190.789606 C926.7,190.649606 926.58,190.569606 926.4,190.569606 C925.64,190.809606 924.6,191.049606 923.32,191.329606 C923.26,190.289606 923.24,189.369606 923.24,188.609606 C923.206667,187.942939 923.201111,187.206828 923.200185,186.401273 L923.2,185.449606 L923.2,185.449606 C923.92,186.209606 924.82,186.949606 925.9,187.709606 C926.64,188.229606 927.42,188.769606 928.24,189.289606 L930.1,190.489606 L930.1,190.489606 C930.26,190.689606 930.46,190.789606 930.66,190.789606 C930.9,190.709606 931.04,190.549606 931.04,190.289606 C931.04,190.089606 930.98,189.829606 930.9,189.549606 C930.5,189.189606 930.08,188.829606 929.6,188.489606 C928.88,188.029606 928.42,187.729606 928.18,187.569606 C927.32,187.029606 926.58,186.489606 925.94,185.969606 C925.32,185.489606 924.7,184.889606 924.06,184.169606 C923.76,183.849606 923.48,183.609606 923.2,183.409606 C923.2,183.189606 923.2,182.949606 923.22,182.709606 C925.5,182.149606 926.92,181.629606 927.5,181.189606 C927.68,180.989606 927.78,180.809606 927.78,180.609606 C927.78,180.529606 927.76,180.469606 927.74,180.409606 C927.64,180.289606 927.5,180.229606 927.34,180.229606 C926.34,180.509606 924.96,180.829606 923.22,181.169606 L923.22,179.489606 C923.22,178.889606 923,178.529606 922.6,178.409606 L922.32,178.409606 C922.02,178.529606 921.82,178.729606 921.74,179.009606 C921.82,179.389606 921.86,179.709606 921.86,179.949606 L921.86,181.449606 C920.54,181.729606 919.2,181.989606 917.82,182.189606 C917.46,182.289606 917.18,182.389606 916.96,182.469606 C916.56,182.669606 916.38,182.889606 916.38,183.109606 C916.42,183.669606 916.64,183.949606 917.04,183.949606 C917.24,183.949606 917.5,183.929606 917.82,183.889606 C918,183.869606 918.28,183.829606 918.64,183.749606 C919.48,183.569606 920.36,183.369606 921.3,183.149606 C919.58,186.589606 917.34,189.689606 914.58,192.489606 C914.44,192.609606 914.38,192.729606 914.38,192.849606 C914.42,193.109606 914.54,193.229606 914.78,193.229606 C914.88,193.229606 915,193.209606 915.12,193.129606 C915.56,192.889606 916.1,192.509606 916.74,191.949606 C918.06,190.689606 919.74,188.489606 921.78,185.349606 L921.78,186.109606 L921.78,186.109606 C921.78,187.989606 921.82,189.809606 921.94,191.529606 L921.94,191.629606 L921.94,191.629606 C921.1,191.809606 920.26,191.969606 919.38,192.109606 C919.04,192.189606 918.76,192.289606 918.52,192.369606 C918.12,192.569606 917.94,192.789606 917.94,193.009606 C918,193.569606 918.22,193.849606 918.6,193.849606 C918.84,193.849606 919.1,193.829606 919.38,193.789606 C919.5,193.789606 919.72,193.729606 920,193.649606 C920.64,193.529606 921.32,193.349606 922.02,193.149606 C922.06,194.069606 922.08,194.849606 922.08,195.529606 C922.08,195.829606 922.04,196.049606 922,196.169606 C921.3,195.709606 920.78,195.469606 920.44,195.469606 C920.02,195.469606 919.82,195.529606 919.82,195.669606 C919.9,195.769606 920.02,195.909606 920.16,196.069606 C920.76,196.729606 921.42,197.229606 922.14,197.549606 C922.4,197.689606 922.66,197.769606 922.94,197.769606 Z M948.06,197.049606 C948.92,197.049606 949.58,196.689606 950.02,195.989606 C950.46,195.269606 950.82,194.229606 951.06,192.869606 C951.3,191.549606 951.5,189.929606 951.66,188.009606 C951.74,187.149606 951.78,186.469606 951.78,185.989606 C951.78,184.989606 951.26,184.449606 950.24,184.369606 C949.64,184.369606 949.08,184.429606 948.56,184.509606 C947.56,184.709606 946.58,184.929606 945.66,185.169606 C945.48,185.209606 945.32,185.249606 945.16,185.289606 C945.84,184.329606 946.72,182.949606 947.76,181.189606 C947.98,180.829606 948.22,180.509606 948.48,180.229606 C948.76,179.829606 948.92,179.489606 948.92,179.189606 C948.9,178.549606 948.66,178.209606 948.2,178.189606 C948.1,178.209606 948,178.249606 947.88,178.289606 C945.88,179.129606 944.34,179.569606 943.24,179.589606 C943,179.609606 942.8,179.609606 942.64,179.609606 C942.32,179.729606 942.16,180.009606 942.16,180.489606 C942.18,180.909606 942.34,181.169606 942.66,181.249606 C943.58,181.249606 944.76,181.009606 946.2,180.529606 C945.58,182.049606 944.54,183.709606 943.08,185.509606 C942.96,185.709606 942.8,185.909606 942.62,186.109606 C942.5,186.289606 942.44,186.469606 942.44,186.649606 C942.46,186.789606 942.52,186.909606 942.6,186.989606 C942.62,187.089606 942.66,187.189606 942.72,187.289606 C942.88,187.489606 943.06,187.569606 943.26,187.569606 C943.46,187.569606 943.68,187.489606 943.92,187.329606 C944.68,187.029606 945.78,186.669606 947.26,186.249606 C948.46,185.929606 949.46,185.749606 950.28,185.709606 C950.28,188.369606 950,190.769606 949.46,192.929606 C949.22,193.709606 949,194.329606 948.8,194.769606 C948.48,195.349606 948.2,195.649606 947.94,195.649606 C947.32,195.369606 946.8,195.249606 946.4,195.249606 C946.18,195.249606 946.06,195.349606 946.04,195.549606 C946.04,195.709606 946.06,195.849606 946.12,196.009606 C946.36,196.389606 946.72,196.669606 947.24,196.869606 C947.54,196.989606 947.82,197.049606 948.06,197.049606 Z M935,192.049606 C935.08,192.049606 935.18,192.029606 935.34,191.949606 C936.44,191.629606 937.58,191.169606 938.78,190.569606 C939.82,190.049606 940.68,189.529606 941.34,188.969606 C941.5,188.789606 941.58,188.609606 941.6,188.429606 C941.6,188.309606 941.58,188.229606 941.56,188.149606 C941.44,187.989606 941.28,187.909606 941.12,187.889606 C941.02,187.889606 940.92,187.909606 940.82,187.949606 C940.68,187.989606 940.34,188.169606 939.8,188.489606 C939.4,188.689606 938.96,188.889606 938.52,189.089606 C938.6,188.829606 938.68,188.489606 938.76,188.049606 C938.84,187.349606 938.9,186.589606 938.9,185.789606 C938.9,185.449606 938.86,184.969606 938.82,184.329606 C939.68,183.869606 940.34,183.409606 940.82,182.969606 C941,182.809606 941.1,182.609606 941.1,182.349606 C941.06,182.269606 941.04,182.169606 941,182.069606 C940.88,181.869606 940.7,181.769606 940.48,181.769606 C940.42,181.769606 940.34,181.789606 940.26,181.789606 C939.74,182.149606 939.18,182.489606 938.56,182.789606 C938.5,182.549606 938.42,182.289606 938.34,182.049606 C938.22,181.629606 937.98,181.409606 937.66,181.409606 C937.46,181.409606 937.26,181.469606 937.1,181.569606 C936.86,181.729606 936.76,181.949606 936.76,182.189606 C936.76,182.309606 936.8,182.509606 936.9,182.829606 C936.94,183.009606 937,183.209606 937.04,183.409606 C936.98,183.429606 936.92,183.449606 936.84,183.489606 C936.18,183.689606 935.58,183.829606 935.04,183.889606 C934.7,183.949606 934.54,184.169606 934.54,184.549606 C934.56,184.789606 934.66,184.989606 934.86,185.189606 C935.04,185.389606 935.26,185.489606 935.52,185.489606 C936.04,185.449606 936.6,185.309606 937.2,185.089606 C937.24,185.049606 937.3,185.029606 937.38,185.009606 C937.46,185.569606 937.52,186.069606 937.52,186.509606 C937.52,187.069606 937.46,187.769606 937.38,188.649606 C937.22,189.049606 937.12,189.409606 937.04,189.709606 C936.9,189.749606 936.76,189.809606 936.6,189.849606 C936.1,190.049606 935.48,190.249606 934.76,190.489606 C934.5,190.609606 934.36,190.769606 934.36,190.989606 C934.36,191.309606 934.4,191.569606 934.5,191.749606 C934.66,191.949606 934.82,192.049606 935,192.049606 Z M943.98,197.289606 C944.18,197.289606 944.32,197.229606 944.44,197.129606 C944.64,196.969606 944.9,196.669606 945.2,196.269606 C945.48,195.869606 945.76,195.429606 946.06,194.909606 C946.54,194.029606 946.98,193.269606 947.36,192.609606 C947.88,191.649606 948.3,190.569606 948.64,189.329606 C948.84,188.529606 948.96,187.789606 948.96,187.129606 C948.94,186.529606 948.76,186.209606 948.4,186.169606 C948.22,186.169606 948.08,186.189606 947.98,186.189606 C947.68,186.269606 947.52,186.449606 947.5,186.709606 C947.48,187.369606 947.4,188.109606 947.24,188.949606 C947.04,189.749606 946.78,190.589606 946.42,191.469606 C946.08,192.189606 945.76,192.869606 945.44,193.489606 C945.02,194.249606 944.64,194.909606 944.28,195.489606 C944.04,195.789606 943.86,196.069606 943.72,196.329606 C943.62,196.449606 943.58,196.609606 943.58,196.809606 C943.6,197.089606 943.74,197.249606 943.98,197.289606 Z M941.18,195.249606 C941.36,195.249606 941.54,195.169606 941.74,195.029606 C941.88,194.889606 942.06,194.669606 942.3,194.349606 C942.52,194.029606 942.74,193.689606 942.96,193.329606 C943.26,192.829606 943.6,192.269606 943.96,191.669606 C944.56,190.629606 945,189.789606 945.24,189.149606 C945.5,188.509606 945.64,188.089606 945.64,187.849606 C945.64,187.469606 945.48,187.229606 945.16,187.129606 L944.96,187.129606 C944.7,187.149606 944.52,187.289606 944.42,187.549606 C944.3,187.949606 944.16,188.369606 943.98,188.809606 C943.78,189.329606 943.56,189.849606 943.28,190.349606 C942.84,191.149606 942.42,191.889606 942.02,192.609606 C941.7,193.109606 941.48,193.529606 941.32,193.869606 C941.2,194.069606 941.1,194.269606 941.06,194.449606 C940.98,194.649606 940.94,194.789606 940.94,194.909606 C940.94,195.049606 941.02,195.169606 941.18,195.249606 Z M968.8,195.949606 C969.96,195.909606 970.92,195.669606 971.66,195.249606 C972.5,194.709606 972.92,193.869606 972.92,192.669606 C972.92,191.709606 972.82,190.809606 972.66,189.969606 C972.56,189.529606 972.46,189.189606 972.36,188.929606 C972.24,188.809606 972.12,188.729606 972,188.709606 C971.58,188.709606 971.34,188.909606 971.26,189.269606 C971.26,189.509606 971.28,189.769606 971.32,190.069606 C971.4,191.109606 971.46,191.949606 971.46,192.609606 C971.46,193.009606 971.34,193.349606 971.12,193.589606 C970.64,193.969606 969.88,194.169606 968.8,194.189606 C967.9,194.189606 967.16,193.829606 966.58,193.069606 C965.92,192.069606 965.58,190.449606 965.58,188.209606 C965.58,187.889606 965.58,187.529606 965.6,187.089606 C965.74,187.069606 965.88,187.009606 966.04,186.909606 C967.32,186.349606 968.54,185.729606 969.74,185.029606 C970.38,184.669606 970.86,184.329606 971.2,183.969606 C971.4,183.769606 971.5,183.529606 971.5,183.289606 C971.48,183.169606 971.38,183.049606 971.22,182.929606 C971.08,182.849606 970.92,182.789606 970.74,182.789606 C970.58,182.789606 970.32,182.929606 969.92,183.209606 C968.72,184.009606 967.3,184.769606 965.66,185.489606 C965.78,184.449606 965.96,182.889606 966.24,180.769606 C966.24,180.309606 966,180.069606 965.56,180.069606 C965.2,180.069606 964.96,180.229606 964.84,180.529606 C964.62,181.289606 964.42,182.629606 964.24,184.549606 C964.1,185.709606 964.04,186.869606 964.04,188.049606 C964.04,189.429606 964.16,190.669606 964.4,191.789606 C964.94,194.109606 966,195.429606 967.58,195.789606 C967.94,195.889606 968.34,195.949606 968.8,195.949606 Z M957.62,193.469606 C958.2,193.469606 958.82,193.229606 959.46,192.709606 C960.06,192.269606 960.66,191.729606 961.28,191.089606 C961.84,190.469606 962.22,190.009606 962.38,189.729606 C962.46,189.609606 962.52,189.449606 962.52,189.249606 C962.52,189.049606 962.42,188.909606 962.26,188.809606 C962.18,188.789606 962.06,188.769606 961.94,188.769606 C961.78,188.769606 961.34,189.149606 960.58,189.869606 C959.18,191.209606 958.46,191.869606 958.38,191.869606 C958.3,191.869606 958.26,191.729606 958.26,191.409606 C958.26,190.969606 958.32,190.089606 958.48,188.729606 C958.58,187.889606 958.64,187.069606 958.64,186.269606 C958.64,186.269606 958.66,186.269606 958.7,186.249606 C959.4,185.969606 960.14,185.549606 960.94,184.989606 C961.6,184.529606 962.16,184.049606 962.6,183.549606 C962.76,183.349606 962.84,183.169606 962.86,182.989606 C962.86,182.869606 962.84,182.769606 962.82,182.689606 C962.7,182.529606 962.56,182.449606 962.36,182.429606 C962.26,182.429606 962.16,182.449606 962.06,182.489606 C961.98,182.529606 961.76,182.709606 961.42,183.009606 C960.78,183.429606 960.1,183.829606 959.38,184.209606 C959.14,184.329606 958.88,184.449606 958.58,184.589606 C958.56,184.229606 958.52,183.869606 958.48,183.509606 C958.38,182.869606 958.24,182.329606 958.04,181.889606 C957.92,181.749606 957.8,181.669606 957.68,181.669606 C957.48,181.669606 957.28,181.709606 957.12,181.769606 C956.9,181.909606 956.78,182.089606 956.76,182.309606 C956.86,182.869606 956.96,183.489606 957.04,184.209606 C957.12,184.889606 957.16,185.469606 957.16,185.989606 C957.16,186.389606 957.14,186.789606 957.14,187.149606 C957.14,187.469606 957.06,188.269606 956.94,189.549606 C956.82,190.549606 956.78,191.249606 956.78,191.649606 C956.78,192.829606 957.06,193.429606 957.62,193.469606 Z M984.94,179.229606 C985.14,179.229606 985.34,179.169606 985.58,179.029606 C985.8,178.869606 985.92,178.649606 985.92,178.409606 C985.92,178.209606 985.84,178.109606 985.68,178.069606 C984.68,177.909606 984,177.789606 983.62,177.689606 C983.26,177.689606 983.1,177.609606 983.1,177.449606 C982.72,177.489606 982.42,177.629606 982.2,177.869606 C982.04,178.029606 981.98,178.169606 981.98,178.249606 C981.98,178.709606 982.14,178.989606 982.46,179.069606 C983.32,179.189606 984.14,179.229606 984.94,179.229606 Z M978.82,183.969606 C979.1,183.969606 979.32,183.869606 979.46,183.669606 C979.54,183.609606 979.6,183.509606 979.66,183.349606 C979.78,183.149606 979.88,182.929606 979.96,182.689606 C980.04,182.369606 980.08,182.069606 980.08,181.769606 C980.24,181.769606 980.44,181.749606 980.68,181.669606 C984.8,180.669606 987.36,180.109606 988.38,179.989606 C988.22,180.229606 988.06,180.469606 987.86,180.669606 C987.7,180.809606 987.62,180.949606 987.62,181.069606 C987.62,181.149606 987.64,181.229606 987.7,181.309606 C987.78,181.429606 987.88,181.489606 988.02,181.489606 C988.14,181.489606 988.3,181.429606 988.48,181.309606 C988.6,181.249606 988.72,181.169606 988.86,181.069606 C989.88,180.329606 990.4,179.729606 990.4,179.289606 C990.4,179.049606 990.24,178.849606 989.96,178.709606 C989.84,178.689606 989.7,178.669606 989.54,178.669606 C988.98,178.669606 988.02,178.809606 986.7,179.069606 C983.86,179.589606 981.7,180.029606 980.26,180.389606 C980.16,180.429606 980.06,180.469606 979.96,180.509606 C979.94,180.509606 979.94,180.469606 979.94,180.429606 C979.82,180.229606 979.68,180.069606 979.56,179.949606 C979.44,179.829606 979.28,179.769606 979.1,179.769606 C978.9,179.789606 978.76,179.849606 978.68,179.949606 C978.5,180.089606 978.42,180.289606 978.42,180.569606 C978.42,180.649606 978.46,180.749606 978.54,180.909606 C978.64,181.189606 978.7,181.589606 978.7,182.069606 C978.7,182.229606 978.68,182.389606 978.64,182.549606 C978.6,182.789606 978.52,182.989606 978.44,183.189606 C978.38,183.309606 978.34,183.409606 978.34,183.489606 C978.34,183.789606 978.5,183.949606 978.82,183.969606 Z M981.58,195.649606 C981.74,195.649606 981.92,195.569606 982.12,195.409606 C982.22,195.249606 982.28,195.089606 982.28,194.889606 C982.24,194.589606 982.22,194.309606 982.22,194.009606 C982.24,193.369606 982.26,193.009606 982.26,192.909606 C982.3,192.649606 982.36,192.289606 982.48,191.849606 C982.52,191.609606 982.56,191.389606 982.6,191.189606 C982.74,191.149606 982.92,191.069606 983.12,190.969606 C983.6,190.769606 984.2,190.609606 984.9,190.489606 C985.58,190.369606 986.02,190.289606 986.24,190.289606 C986.62,190.289606 986.86,190.329606 986.96,190.409606 C987.04,190.529606 987.08,190.709606 987.08,190.949606 C987.08,191.069606 987.08,191.429606 987.12,192.049606 C987.12,192.689606 987.14,193.349606 987.14,194.049606 C987.14,194.449606 987.24,194.729606 987.42,194.869606 C987.56,195.049606 987.74,195.149606 987.98,195.149606 C988.36,195.149606 988.56,194.829606 988.56,194.189606 C988.54,193.649606 988.54,193.089606 988.54,192.529606 C988.54,192.329606 988.52,191.929606 988.52,191.369606 C988.48,190.829606 988.48,190.489606 988.48,190.349606 C988.48,189.549606 987.8,189.149606 986.48,189.129606 C985.94,189.149606 985.42,189.209606 984.92,189.289606 C984.4,189.409606 983.86,189.529606 983.34,189.609606 C983,189.689606 982.7,189.789606 982.42,189.889606 C982.3,189.729606 982.16,189.609606 982,189.549606 C982.04,189.509606 982.08,189.429606 982.16,189.349606 C982.44,189.009606 982.62,188.729606 982.7,188.489606 C982.7,188.449606 982.72,188.409606 982.72,188.329606 C983.68,188.129606 984.66,187.909606 985.62,187.689606 L985.64,187.729606 C986.84,188.349606 988.02,188.909606 989.18,189.429606 L992.56,190.909606 C992.76,191.069606 992.92,191.129606 993.04,191.129606 C993.16,191.129606 993.26,191.089606 993.38,190.969606 C993.56,190.769606 993.66,190.589606 993.66,190.429606 C993.66,190.369606 993.64,190.309606 993.64,190.249606 C993.56,190.029606 993.44,189.849606 993.28,189.709606 C992.34,189.269606 991.2,188.769606 989.86,188.249606 C988.86,187.849606 988.04,187.529606 987.4,187.289606 C988.7,186.969606 989.68,186.649606 990.36,186.349606 C990.5,186.189606 990.58,186.049606 990.58,185.889606 C990.56,185.809606 990.5,185.729606 990.38,185.649606 C990.3,185.589606 990.18,185.549606 990.06,185.549606 C989.7,185.549606 989.08,185.689606 988.2,185.929606 C987.42,186.129606 986.58,186.349606 985.7,186.549606 C985.84,186.169606 985.98,185.749606 986.12,185.309606 C986.78,185.169606 987.3,185.009606 987.68,184.849606 C987.8,184.689606 987.88,184.529606 987.88,184.369606 C987.86,184.269606 987.8,184.189606 987.7,184.109606 C987.6,184.069606 987.48,184.029606 987.36,184.029606 C987.16,184.029606 986.82,184.109606 986.34,184.229606 C986.4,183.869606 986.44,183.529606 986.44,183.189606 C987.24,182.989606 987.86,182.789606 988.3,182.589606 C988.44,182.429606 988.52,182.289606 988.52,182.149606 C988.5,182.049606 988.44,181.969606 988.32,181.889606 C988.22,181.829606 988.1,181.789606 987.98,181.789606 C987.78,181.789606 987.4,181.869606 986.84,182.029606 C986.68,182.089606 986.54,182.129606 986.38,182.149606 C986.34,181.969606 986.3,181.789606 986.22,181.609606 C986.12,181.409606 986.02,181.269606 985.9,181.149606 C985.78,181.049606 985.64,180.989606 985.48,180.989606 C985.28,181.029606 985.16,181.069606 985.08,181.149606 C984.92,181.289606 984.86,181.489606 984.86,181.729606 C984.86,181.809606 984.9,181.929606 985,182.069606 C985.04,182.189606 985.08,182.309606 985.12,182.469606 C984.32,182.669606 983.46,182.849606 982.5,183.009606 C982.48,182.929606 982.46,182.849606 982.44,182.749606 C982.34,182.249606 982.12,181.989606 981.76,181.989606 L981.52,181.989606 C981.18,182.109606 981.02,182.369606 981.02,182.789606 C981.04,182.909606 981.06,182.989606 981.08,183.029606 C981.08,183.089606 981.1,183.169606 981.14,183.269606 C981.02,183.289606 980.88,183.309606 980.72,183.329606 C980.4,183.369606 980.16,183.429606 979.98,183.489606 C979.82,183.609606 979.74,183.729606 979.74,183.869606 C979.74,184.149606 979.86,184.349606 980.14,184.469606 L980.26,184.469606 C980.56,184.449606 980.84,184.409606 981.08,184.349606 C981.18,184.349606 981.3,184.329606 981.44,184.289606 C981.54,184.649606 981.62,184.949606 981.66,185.169606 C981.66,185.189606 981.66,185.209606 981.68,185.229606 C981.44,185.269606 981.2,185.329606 980.94,185.369606 C980.66,185.409606 980.46,185.449606 980.3,185.489606 C980.14,185.609606 980.06,185.729606 980.06,185.849606 C980.06,186.129606 980.18,186.349606 980.46,186.489606 L980.6,186.489606 C980.84,186.469606 981.08,186.429606 981.34,186.369606 C981.5,186.349606 981.68,186.309606 981.86,186.269606 C981.88,186.469606 981.92,186.669606 981.96,186.869606 C981.98,187.069606 982,187.209606 982.04,187.329606 C980.86,187.569606 979.62,187.789606 978.34,187.989606 C977.86,188.069606 977.48,188.129606 977.2,188.209606 C977.02,188.329606 976.92,188.469606 976.92,188.609606 C976.92,188.909606 977.06,189.129606 977.38,189.289606 L977.48,189.289606 C977.96,189.249606 978.4,189.189606 978.84,189.089606 C979.6,188.969606 980.34,188.809606 981.1,188.649606 C980.02,190.029606 978.62,191.309606 976.94,192.489606 C976.78,192.649606 976.7,192.829606 976.7,192.989606 C976.74,193.309606 976.92,193.449606 977.24,193.449606 C977.36,193.449606 977.5,193.409606 977.66,193.329606 C977.98,193.209606 978.34,193.009606 978.74,192.729606 C979.34,192.289606 980.08,191.609606 980.96,190.689606 C980.98,190.789606 981,190.889606 981.02,190.969606 C981.02,191.209606 981,191.429606 981,191.629606 C980.94,192.049606 980.9,192.429606 980.9,192.789606 C980.86,193.149606 980.86,193.529606 980.86,193.949606 C980.86,194.349606 980.86,194.609606 980.9,194.809606 C980.92,195.089606 981,195.309606 981.12,195.469606 C981.24,195.589606 981.38,195.649606 981.58,195.649606 Z M982.86,185.009606 C982.82,184.769606 982.78,184.469606 982.74,184.109606 C982.74,184.109606 982.72,184.069606 982.72,184.029606 C983.54,183.869606 984.36,183.689606 985.16,183.489606 C985.16,183.809606 985.12,184.149606 985.08,184.549606 C984.4,184.729606 983.66,184.889606 982.86,185.009606 Z M983.04,187.109606 C983.04,186.949606 983.02,186.689606 983,186.369606 C982.98,186.289606 982.98,186.169606 982.98,186.029606 C983.58,185.909606 984.18,185.769606 984.82,185.629606 C984.74,185.869606 984.66,186.109606 984.56,186.349606 C984.48,186.529606 984.44,186.689606 984.4,186.829606 C983.96,186.929606 983.52,187.029606 983.04,187.109606 Z M981.46,198.469606 C981.62,198.469606 981.8,198.389606 982,198.249606 C982.44,198.029606 982.86,197.769606 983.22,197.469606 C983.82,197.029606 984.34,196.509606 984.76,195.909606 C985.36,194.949606 985.68,193.929606 985.68,192.849606 C985.68,192.609606 985.62,192.369606 985.52,192.109606 C985.4,191.589606 985.14,191.309606 984.72,191.309606 C984.2,191.409606 983.94,191.709606 983.94,192.189606 C984.1,192.589606 984.2,192.949606 984.2,193.269606 C984.2,194.149606 983.94,194.929606 983.44,195.609606 C983.1,196.049606 982.74,196.429606 982.36,196.749606 C982.02,197.029606 981.66,197.289606 981.28,197.529606 C981.1,197.729606 981.02,197.869606 981.02,197.949606 C981.02,198.269606 981.16,198.429606 981.46,198.469606 Z M989.4,198.229606 C989.66,198.149606 989.8,197.989606 989.84,197.709606 C989.84,197.509606 989.78,197.329606 989.68,197.169606 C989,196.729606 988.4,196.309606 987.86,195.929606 C987.5,195.709606 987.24,195.549606 987.08,195.449606 C986.92,195.249606 986.7,195.169606 986.46,195.169606 C986.02,195.249606 985.8,195.449606 985.78,195.789606 C985.78,195.909606 985.8,196.049606 985.88,196.229606 C985.96,196.309606 986.08,196.429606 986.28,196.549606 C987.48,197.389606 988.34,197.909606 988.86,198.069606 C989.02,198.169606 989.2,198.229606 989.4,198.229606 Z M1010.66,197.989606 C1010.98,197.989606 1011.24,197.709606 1011.4,197.149606 C1011.66,196.349606 1011.88,195.349606 1012.08,194.149606 C1012.36,192.509606 1012.5,190.869606 1012.5,189.249606 C1012.5,188.709606 1012.48,188.089606 1012.46,187.409606 C1012.42,186.329606 1012.38,185.349606 1012.34,184.429606 C1012.3,184.109606 1012.28,183.809606 1012.28,183.529606 C1012.98,183.269606 1013.46,183.009606 1013.72,182.749606 C1013.96,182.629606 1014.08,182.389606 1014.08,182.029606 C1014.08,181.829606 1013.98,181.689606 1013.78,181.569606 C1013.66,181.529606 1013.52,181.509606 1013.36,181.509606 C1013.24,181.529606 1013.04,181.589606 1012.74,181.709606 C1012.02,181.949606 1011.4,182.109606 1010.88,182.209606 C1010.02,182.469606 1009.36,182.649606 1008.88,182.749606 C1008.6,182.809606 1008.38,182.869606 1008.18,182.949606 C1008.12,182.489606 1008.04,182.109606 1007.92,181.809606 C1008.74,181.449606 1009.48,181.069606 1010.12,180.649606 C1010.3,180.509606 1010.44,180.409606 1010.52,180.329606 C1010.6,180.189606 1010.66,180.049606 1010.66,179.909606 C1010.66,179.629606 1010.54,179.409606 1010.3,179.249606 C1010.1,179.129606 1009.9,179.069606 1009.7,179.069606 C1009.5,179.129606 1009.36,179.229606 1009.24,179.349606 C1009.08,179.469606 1008.92,179.589606 1008.78,179.709606 C1007.88,180.329606 1006.86,180.869606 1005.74,181.309606 C1005.62,181.409606 1005.56,181.549606 1005.56,181.709606 L1005.56,181.929606 C1005.6,182.209606 1005.8,182.389606 1006.18,182.429606 C1006.3,182.429606 1006.4,182.429606 1006.5,182.389606 C1006.5,182.409606 1006.5,182.429606 1006.54,182.449606 C1006.64,182.909606 1006.7,183.509606 1006.72,184.229606 C1006.72,184.749606 1006.66,185.229606 1006.58,185.689606 C1006.46,186.249606 1006.32,186.789606 1006.16,187.309606 C1005.72,188.429606 1005.12,189.609606 1004.34,190.829606 C1004.14,191.109606 1004.02,191.289606 1003.94,191.409606 C1003.82,191.629606 1003.76,191.809606 1003.76,191.949606 C1003.76,192.349606 1003.92,192.529606 1004.26,192.529606 C1004.46,192.529606 1004.66,192.449606 1004.86,192.289606 C1005.02,192.149606 1005.18,191.969606 1005.36,191.749606 C1006.3,190.469606 1007,189.169606 1007.48,187.889606 C1007.74,187.189606 1007.94,186.489606 1008.1,185.789606 C1008.16,185.449606 1008.2,185.089606 1008.24,184.689606 C1008.24,184.689606 1008.26,184.689606 1008.3,184.669606 C1008.72,184.529606 1009.16,184.389606 1009.6,184.229606 C1010.02,184.129606 1010.44,184.029606 1010.84,183.909606 C1010.84,183.949606 1010.86,184.009606 1010.88,184.069606 C1010.88,184.629606 1010.9,185.169606 1010.94,185.729606 C1011.02,187.609606 1011.08,189.089606 1011.08,190.169606 C1011.08,191.349606 1010.9,192.909606 1010.58,194.849606 C1010.34,195.989606 1010.18,196.849606 1010.06,197.409606 C1010.06,197.789606 1010.26,197.989606 1010.66,197.989606 Z M996.42,194.569606 C996.54,194.569606 996.68,194.489606 996.84,194.369606 C997.12,194.049606 997.48,193.529606 997.94,192.769606 C998.48,191.829606 998.94,190.809606 999.34,189.689606 C999.36,189.709606 999.42,189.709606 999.5,189.709606 C999.68,189.709606 999.86,189.649606 1000.04,189.509606 C1001.14,188.869606 1002.08,188.049606 1002.86,187.049606 C1003.4,186.369606 1003.68,185.789606 1003.68,185.309606 C1003.68,185.149606 1003.62,184.989606 1003.52,184.869606 C1003.36,184.689606 1003.12,184.529606 1002.82,184.409606 C1002.46,184.289606 1002.04,184.209606 1001.54,184.209606 C1001.18,184.209606 1000.8,184.249606 1000.4,184.329606 C1000.36,184.349606 1000.3,184.349606 1000.24,184.349606 C1000.22,183.289606 1000.2,182.469606 1000.16,181.889606 C1000.52,181.769606 1000.94,181.609606 1001.38,181.449606 C1002.62,181.009606 1003.4,180.629606 1003.7,180.309606 C1003.9,180.109606 1004,179.929606 1004,179.729606 C1004,179.649606 1003.98,179.569606 1003.96,179.529606 C1003.86,179.409606 1003.72,179.329606 1003.54,179.329606 C1002.98,179.529606 1002.18,179.749606 1001.18,180.029606 C1000.46,180.229606 999.74,180.389606 998.98,180.529606 C998.64,180.629606 998.36,180.729606 998.12,180.809606 C997.72,181.009606 997.54,181.229606 997.54,181.449606 C997.6,181.989606 997.82,182.269606 998.2,182.269606 C998.36,182.269606 998.52,182.269606 998.7,182.249606 C998.7,182.369606 998.7,182.469606 998.72,182.549606 C998.78,183.429606 998.82,184.549606 998.82,185.909606 C998.82,186.469606 998.76,187.009606 998.66,187.529606 C998.52,188.189606 998.34,188.809606 998.14,189.409606 C997.64,190.929606 997,192.349606 996.2,193.629606 C996.04,193.849606 995.96,194.009606 995.96,194.129606 C995.96,194.249606 996,194.349606 996.08,194.429606 C996.16,194.509606 996.26,194.569606 996.42,194.569606 Z M999.78,188.229606 C999.86,187.989606 999.92,187.709606 999.98,187.409606 C1000.1,186.849606 1000.18,186.229606 1000.22,185.529606 C1000.66,185.449606 1001.06,185.409606 1001.42,185.389606 C1001.94,185.389606 1002.22,185.529606 1002.22,185.809606 C1002.22,185.929606 1001.84,186.329606 1001.1,187.009606 C1000.7,187.369606 1000.26,187.789606 999.78,188.229606 Z M1018.18,192.789606 C1018.38,192.789606 1018.58,192.709606 1018.78,192.549606 C1019.06,192.269606 1019.4,191.829606 1019.82,191.189606 C1020.22,190.549606 1020.6,189.909606 1020.98,189.229606 C1021.54,188.249606 1022.16,187.169606 1022.8,185.989606 C1023.62,184.449606 1024.28,183.129606 1024.76,182.009606 C1025.16,181.909606 1025.58,181.789606 1026.02,181.649606 C1028.98,180.769606 1030.8,180.009606 1031.5,179.349606 C1031.68,179.149606 1031.78,178.969606 1031.78,178.769606 C1031.78,178.689606 1031.76,178.629606 1031.74,178.569606 C1031.66,178.449606 1031.52,178.389606 1031.34,178.389606 C1030,178.909606 1028.1,179.509606 1025.66,180.149606 C1025.58,180.189606 1025.48,180.209606 1025.4,180.229606 C1025.64,179.469606 1025.76,178.909606 1025.76,178.569606 C1025.76,178.149606 1025.6,177.889606 1025.28,177.809606 L1025.04,177.809606 C1024.76,177.829606 1024.56,177.969606 1024.44,178.249606 C1024.24,178.989606 1024,179.789606 1023.68,180.669606 C1022.64,180.949606 1021.56,181.209606 1020.46,181.429606 C1020.1,181.549606 1019.82,181.629606 1019.58,181.709606 C1019.18,181.909606 1019,182.129606 1019,182.349606 C1019.08,182.889606 1019.3,183.169606 1019.66,183.189606 C1019.9,183.189606 1020.16,183.169606 1020.46,183.109606 C1020.64,183.109606 1020.96,183.049606 1021.4,182.949606 C1021.88,182.829606 1022.38,182.689606 1022.92,182.529606 C1022.72,182.969606 1022.52,183.409606 1022.3,183.829606 C1021.5,185.389606 1020.7,186.869606 1019.9,188.269606 C1019.3,189.269606 1018.84,190.089606 1018.56,190.769606 C1018.3,191.169606 1018.12,191.549606 1018.04,191.909606 C1017.96,192.109606 1017.92,192.289606 1017.92,192.409606 C1017.92,192.589606 1018,192.709606 1018.18,192.789606 Z M1030.78,198.469606 C1031.26,198.449606 1031.5,198.129606 1031.5,197.509606 C1031.38,196.449606 1031.26,195.449606 1031.18,194.529606 C1030.98,192.249606 1030.88,190.289606 1030.88,188.629606 C1030.88,186.949606 1030.9,185.489606 1030.94,184.209606 C1030.82,183.209606 1030.2,182.709606 1029.04,182.709606 C1028.82,182.709606 1028.36,182.789606 1027.66,182.949606 C1026.94,183.109606 1026.36,183.309606 1025.9,183.509606 C1025.82,183.429606 1025.7,183.389606 1025.56,183.369606 L1025.1,183.369606 C1024.76,183.489606 1024.6,183.729606 1024.6,184.089606 L1024.6,185.209606 C1024.58,186.549606 1024.42,188.549606 1024.14,191.189606 C1023.78,194.189606 1023.6,195.929606 1023.6,196.449606 C1023.6,196.729606 1023.6,196.929606 1023.62,197.049606 C1023.7,197.349606 1023.88,197.509606 1024.16,197.549606 C1024.38,197.549606 1024.58,197.429606 1024.76,197.229606 C1024.84,197.069606 1024.9,196.769606 1024.94,196.349606 C1024.96,195.769606 1025.02,195.029606 1025.1,194.149606 C1025.1,194.169606 1025.14,194.169606 1025.18,194.169606 C1025.26,194.169606 1025.34,194.149606 1025.46,194.089606 C1026.06,193.889606 1026.68,193.569606 1027.36,193.129606 C1027.92,192.789606 1028.4,192.429606 1028.78,192.069606 C1028.9,191.889606 1028.98,191.709606 1029,191.509606 C1029,191.429606 1028.98,191.329606 1028.96,191.229606 C1028.88,191.109606 1028.74,191.049606 1028.54,191.029606 C1028.46,191.029606 1028.36,191.049606 1028.26,191.089606 C1028.18,191.129606 1028,191.249606 1027.72,191.449606 C1027.2,191.789606 1026.64,192.109606 1026,192.409606 C1025.78,192.509606 1025.54,192.629606 1025.26,192.749606 C1025.34,191.709606 1025.44,190.709606 1025.56,189.769606 C1025.8,189.769606 1026.28,189.629606 1027.02,189.349606 C1027.7,189.069606 1028.44,188.749606 1029.26,188.349606 L1029.5,188.209606 L1029.5,188.209606 L1029.5,188.649606 C1029.52,191.569606 1029.68,194.249606 1029.98,196.649606 C1029.1,196.089606 1028.48,195.809606 1028.16,195.809606 C1027.88,195.889606 1027.76,196.049606 1027.76,196.289606 C1027.78,196.449606 1027.82,196.609606 1027.9,196.729606 C1028.26,197.329606 1028.82,197.809606 1029.56,198.149606 C1030.02,198.349606 1030.42,198.469606 1030.78,198.469606 Z M1025.7,188.489606 C1025.74,188.149606 1025.78,187.809606 1025.82,187.449606 L1026.02,185.589606 C1026.04,185.349606 1026.06,185.089606 1026.1,184.849606 C1027.34,184.309606 1028.32,184.029606 1029.04,184.029606 C1029.36,184.049606 1029.54,184.189606 1029.58,184.469606 C1029.54,185.329606 1029.52,186.169606 1029.52,187.009606 L1029.48,187.009606 C1029.18,187.009606 1028.02,187.469606 1026.02,188.369606 C1025.9,188.409606 1025.78,188.449606 1025.7,188.489606 Z M1042.22,190.769606 C1042.46,190.769606 1042.66,190.649606 1042.82,190.409606 C1042.9,190.289606 1042.96,189.989606 1043,189.549606 C1043.02,188.989606 1043.08,188.269606 1043.2,187.349606 C1043.2,187.149606 1043.22,186.909606 1043.26,186.649606 C1044.34,186.469606 1045.5,186.249606 1046.72,186.009606 C1047.84,185.789606 1048.86,185.569606 1049.74,185.369606 L1049.74,187.149606 C1049.74,187.809606 1049.76,188.369606 1049.76,188.829606 C1049.46,188.789606 1049.2,188.729606 1048.96,188.669606 C1048.64,188.569606 1048.42,188.509606 1048.32,188.489606 C1048.12,188.489606 1048.02,188.569606 1048.02,188.689606 C1048.02,188.949606 1048.08,189.169606 1048.22,189.349606 C1048.7,189.789606 1049.32,189.989606 1050.08,189.989606 C1050.64,189.909606 1050.92,189.609606 1050.96,189.049606 L1050.96,186.749606 C1050.96,186.089606 1050.98,185.529606 1050.98,185.049606 C1052.08,184.769606 1052.84,184.489606 1053.28,184.229606 C1053.48,184.049606 1053.58,183.869606 1053.58,183.669606 C1053.58,183.589606 1053.56,183.529606 1053.54,183.489606 C1053.46,183.349606 1053.32,183.269606 1053.12,183.269606 C1052.5,183.429606 1051.78,183.609606 1050.98,183.769606 L1050.98,182.009606 C1050.98,180.649606 1050.58,179.969606 1049.78,179.969606 L1049.54,179.969606 C1049.3,179.969606 1048.92,180.049606 1048.4,180.189606 C1047.2,180.549606 1046.16,180.769606 1045.32,180.889606 C1044.7,181.009606 1044.22,181.109606 1043.86,181.169606 L1043.88,181.049606 C1043.92,180.629606 1043.94,180.249606 1043.96,179.909606 C1044,179.909606 1044.04,179.909606 1044.1,179.889606 C1046.46,179.489606 1048.12,179.109606 1049.12,178.709606 C1049.32,178.569606 1049.42,178.369606 1049.42,178.129606 L1049.32,177.829606 L1049.32,177.829606 C1049.18,177.649606 1049,177.549606 1048.8,177.549606 L1048.58,177.569606 L1048.58,177.569606 C1047.22,177.969606 1045.62,178.269606 1043.8,178.489606 C1042.88,178.609606 1042.04,178.669606 1041.28,178.709606 C1041,178.769606 1040.86,178.969606 1040.86,179.309606 C1040.86,179.509606 1040.96,179.709606 1041.12,179.869606 C1041.28,180.049606 1041.5,180.129606 1041.74,180.129606 C1041.98,180.129606 1042.24,180.109606 1042.52,180.089606 L1042.52,180.729606 C1042.5,181.769606 1042.38,183.329606 1042.14,185.389606 C1041.46,185.489606 1040.78,185.589606 1040.06,185.689606 C1039.72,185.769606 1039.46,185.829606 1039.26,185.909606 C1038.92,186.089606 1038.76,186.289606 1038.76,186.509606 C1038.8,186.969606 1039,187.209606 1039.34,187.209606 C1039.54,187.209606 1039.78,187.209606 1040.06,187.169606 C1040.28,187.149606 1040.66,187.109606 1041.18,187.029606 C1041.42,186.989606 1041.68,186.949606 1041.96,186.889606 C1041.76,188.429606 1041.66,189.349606 1041.66,189.629606 C1041.66,189.949606 1041.66,190.149606 1041.7,190.269606 C1041.76,190.569606 1041.94,190.729606 1042.22,190.769606 Z M1043.42,185.169606 C1043.5,184.229606 1043.6,183.349606 1043.7,182.509606 L1043.7,182.489606 C1044.54,182.289606 1045.34,182.129606 1046.12,181.989606 C1046.68,181.869606 1047.22,181.709606 1047.78,181.529606 C1048.62,181.289606 1049.12,181.149606 1049.26,181.149606 C1049.5,181.149606 1049.66,181.349606 1049.72,181.709606 L1049.72,184.029606 C1049.04,184.169606 1048.32,184.309606 1047.52,184.449606 C1047.56,184.389606 1047.58,184.269606 1047.58,184.109606 C1047.54,184.009606 1047.46,183.889606 1047.34,183.749606 C1046.78,183.189606 1046.34,182.829606 1046.06,182.709606 C1045.98,182.649606 1045.88,182.609606 1045.76,182.569606 L1045.54,182.549606 L1045.54,182.549606 C1045.4,182.589606 1045.3,182.649606 1045.22,182.729606 C1045.06,182.869606 1044.98,183.009606 1044.96,183.149606 L1044.96,183.329606 C1044.96,183.449606 1044.98,183.569606 1045.06,183.649606 C1045.42,183.809606 1045.78,183.989606 1046.1,184.149606 C1046.28,184.269606 1046.44,184.369606 1046.58,184.409606 C1046.64,184.469606 1046.7,184.529606 1046.78,184.589606 C1046.64,184.629606 1046.48,184.649606 1046.32,184.669606 C1045.36,184.849606 1044.4,185.009606 1043.42,185.169606 Z M1046.92,188.969606 C1047.32,188.969606 1047.52,188.749606 1047.52,188.269606 C1047.5,188.149606 1047.42,187.989606 1047.3,187.829606 C1046.8,187.149606 1046.42,186.749606 1046.18,186.589606 C1046.1,186.549606 1046,186.509606 1045.9,186.469606 C1045.8,186.469606 1045.72,186.449606 1045.64,186.449606 C1045.5,186.489606 1045.38,186.549606 1045.28,186.629606 C1045.14,186.749606 1045.06,186.909606 1045.04,187.089606 L1045.04,187.269606 C1045.04,187.389606 1045.08,187.489606 1045.16,187.589606 C1045.44,187.789606 1045.7,188.029606 1045.98,188.269606 C1046.1,188.429606 1046.22,188.529606 1046.32,188.609606 C1046.56,188.849606 1046.76,188.969606 1046.92,188.969606 Z M1038.72,198.409606 C1038.82,198.409606 1039,198.389606 1039.24,198.389606 C1040.72,198.109606 1042.4,197.889606 1044.28,197.689606 C1046.46,197.489606 1048.48,197.409606 1050.32,197.409606 C1051.56,197.409606 1052.56,197.409606 1053.3,197.429606 C1054.12,197.469606 1054.72,197.509606 1055.08,197.529606 C1055.5,197.449606 1055.72,197.189606 1055.72,196.789606 C1055.72,196.449606 1055.48,196.229606 1055.02,196.149606 C1054.18,196.069606 1053.04,196.009606 1051.62,196.009606 C1052.44,195.029606 1052.88,193.789606 1052.92,192.249606 C1052.92,191.289606 1052.42,190.749606 1051.44,190.629606 L1050.72,190.629606 C1050.08,190.649606 1049.48,190.669606 1048.9,190.709606 C1046.82,190.869606 1044.82,191.189606 1042.9,191.689606 C1042.64,191.769606 1042.38,191.849606 1042.12,191.949606 C1042.08,191.829606 1042.06,191.749606 1042.04,191.669606 C1041.9,191.389606 1041.74,191.229606 1041.54,191.229606 L1041.2,191.229606 C1040.78,191.269606 1040.58,191.489606 1040.58,191.869606 C1040.58,191.989606 1040.62,192.269606 1040.72,192.709606 C1040.8,193.069606 1040.86,193.469606 1040.92,193.869606 C1040.96,194.089606 1041,194.349606 1041.04,194.669606 C1041.08,195.089606 1041.2,195.429606 1041.36,195.709606 C1041.42,195.869606 1041.5,195.989606 1041.6,196.069606 C1041.72,196.249606 1041.88,196.349606 1042.06,196.349606 C1042.2,196.349606 1042.34,196.289606 1042.5,196.189606 C1042.64,196.089606 1042.72,195.849606 1042.72,195.449606 C1042.64,195.089606 1042.56,194.669606 1042.48,194.169606 C1042.44,193.949606 1042.38,193.689606 1042.32,193.389606 C1043.04,193.189606 1043.76,193.009606 1044.48,192.849606 C1044.52,192.969606 1044.58,193.089606 1044.62,193.229606 C1044.74,193.629606 1044.82,193.949606 1044.82,194.189606 L1044.82,195.089606 C1044.8,195.289606 1044.8,195.449606 1044.8,195.569606 C1044.8,195.849606 1044.94,195.989606 1045.22,195.989606 C1045.48,195.989606 1045.64,195.809606 1045.72,195.489606 C1045.74,195.309606 1045.76,195.049606 1045.78,194.709606 C1045.8,194.389606 1045.82,194.049606 1045.82,193.689606 C1045.82,193.569606 1045.78,193.349606 1045.72,193.069606 C1045.68,192.909606 1045.64,192.769606 1045.58,192.609606 C1046.28,192.489606 1046.98,192.369606 1047.7,192.269606 C1047.78,192.709606 1047.82,193.249606 1047.82,193.869606 C1047.82,194.029606 1047.8,194.209606 1047.78,194.369606 C1047.74,194.569606 1047.68,194.769606 1047.62,194.949606 C1047.48,195.349606 1047.3,195.729606 1047.08,196.089606 C1046.76,196.089606 1046.4,196.109606 1046.04,196.149606 C1044.9,196.189606 1043.7,196.269606 1042.44,196.389606 C1041.04,196.509606 1039.82,196.669606 1038.74,196.869606 C1038.24,197.009606 1038,197.269606 1038,197.649606 C1038.02,197.829606 1038.12,198.009606 1038.28,198.169606 C1038.4,198.329606 1038.56,198.409606 1038.72,198.409606 Z M1048.16,196.049606 C1048.32,195.689606 1048.48,195.309606 1048.64,194.909606 C1048.7,194.669606 1048.76,194.409606 1048.84,194.089606 C1048.9,193.809606 1048.94,193.449606 1048.94,193.029606 C1048.94,192.709606 1048.92,192.409606 1048.88,192.149606 C1049.44,192.089606 1050.04,192.049606 1050.64,192.049606 C1051.1,192.049606 1051.4,192.169606 1051.52,192.369606 C1051.52,192.709606 1051.46,193.109606 1051.34,193.589606 C1051.06,194.469606 1050.56,195.269606 1049.82,196.009606 C1049.3,196.009606 1048.74,196.029606 1048.16,196.049606 Z M1062.68,194.589606 C1062.74,194.589606 1062.8,194.569606 1062.86,194.569606 C1063.08,194.469606 1063.2,194.309606 1063.24,194.029606 C1063.28,194.029606 1063.34,194.029606 1063.42,194.009606 C1064.24,193.889606 1065.14,193.769606 1066.1,193.649606 L1069.22,193.309606 L1069.22,193.309606 C1069.74,193.289606 1070.22,193.249606 1070.68,193.209606 C1071.04,193.169606 1071.4,193.129606 1071.72,193.089606 C1072.12,193.029606 1072.34,192.789606 1072.34,192.389606 C1072.3,192.229606 1072.22,192.089606 1072.1,191.969606 C1072.16,191.829606 1072.24,191.669606 1072.32,191.469606 C1072.7,190.549606 1073.04,189.469606 1073.34,188.229606 C1073.62,186.789606 1073.78,185.629606 1073.78,184.769606 C1073.78,184.189606 1073.6,183.629606 1073.24,183.089606 C1072.78,182.509606 1072.08,182.129606 1071.14,181.969606 C1070.54,181.849606 1069.8,181.789606 1068.9,181.789606 C1067.98,181.789606 1066.94,181.889606 1065.82,182.069606 C1064.54,182.329606 1063.5,182.609606 1062.72,182.929606 C1062.5,183.049606 1062.36,183.149606 1062.3,183.269606 C1062.18,183.469606 1062.12,183.669606 1062.12,183.909606 C1062.12,184.349606 1062.26,184.549606 1062.58,184.549606 C1062.66,184.549606 1062.82,184.509606 1063.1,184.409606 C1063.98,184.089606 1064.98,183.829606 1066.08,183.609606 C1067.18,183.369606 1068.3,183.229606 1069.46,183.229606 C1071.42,183.289606 1072.4,183.869606 1072.4,184.989606 C1072.34,186.149606 1072.1,187.589606 1071.66,189.329606 C1071.4,190.249606 1071.12,191.069606 1070.82,191.789606 C1070.66,191.789606 1070.48,191.809606 1070.28,191.829606 C1069.8,191.869606 1069.32,191.889606 1068.82,191.929606 C1068.18,191.989606 1067.5,192.049606 1066.78,192.109606 C1066.28,192.169606 1065.78,192.229606 1065.26,192.269606 C1064.46,192.369606 1063.82,192.469606 1063.32,192.549606 L1062.82,192.689606 L1062.82,192.689606 C1062.26,191.089606 1061.92,189.369606 1061.82,187.529606 C1061.74,185.989606 1061.7,184.549606 1061.7,183.229606 C1061.7,182.789606 1061.5,182.549606 1061.12,182.509606 L1060.96,182.509606 C1060.56,182.589606 1060.32,182.769606 1060.26,183.089606 C1060.26,184.009606 1060.28,184.949606 1060.32,185.909606 C1060.4,188.429606 1060.74,190.629606 1061.34,192.489606 C1061.6,193.189606 1061.86,193.749606 1062.1,194.149606 C1062.22,194.429606 1062.42,194.569606 1062.68,194.589606 Z" id="点击此处选择本场比赛所有盘口"></path>
        </g>
    </g>
</svg>