<?xml version="1.0" encoding="UTF-8"?>
<svg width="244px" height="21px" viewBox="0 0 244 21" version="1.1" xmlns="http://www.w3.org/2000/svg" xmlns:xlink="http://www.w3.org/1999/xlink">
    <!-- Generator: Sketch 61.2 (89653) - https://sketch.com -->
    <title>点击此处选择您喜欢的赛种</title>
    <desc>Created with Sketch.</desc>
    <g id="页面-1" stroke="none" stroke-width="1" fill="none" fill-rule="evenodd">
        <g id="画板" transform="translate(-75.000000, -177.000000)" fill="#FFFFFF" fill-rule="nonzero">
            <path d="M80.1149689,192.605138 C80.4346544,192.605138 80.6544383,192.425309 80.7743203,192.065652 C80.7943007,192.085633 80.8342614,192.085633 80.8942024,192.085633 C81.5535539,192.065652 82.2728464,191.985728 83.0520799,191.865842 C85.1699967,191.546147 86.6685228,191.20647 87.5676384,190.846813 C87.7874222,190.686965 87.9073043,190.467174 87.9073043,190.16746 L87.7874222,189.827783 L87.7874222,189.827783 C87.7075008,189.707897 87.6075991,189.627973 87.5076973,189.588011 L87.5676384,189.528069 L87.5676384,189.528069 C88.2869309,188.568982 88.7065182,187.569933 88.8064199,186.530923 C88.8064199,185.811608 88.4267933,185.332065 87.6675401,185.052331 C87.1880118,184.852521 86.4287586,184.752617 85.4097609,184.752617 C84.6904684,184.752617 83.9911562,184.792578 83.3118244,184.852521 C83.4516869,183.853473 83.5316083,182.814462 83.5515886,181.775452 C83.691451,181.775452 83.8512938,181.755471 84.0111366,181.73549 C84.0510973,181.73549 84.1709794,181.73549 84.3707828,181.695528 C84.9102522,181.575642 85.4896823,181.455756 86.109073,181.295909 C87.2279725,181.036156 87.9272846,180.816365 88.2070095,180.616556 C88.3868326,180.416746 88.4867344,180.236917 88.4867344,180.037108 C88.4867344,179.957184 88.466754,179.897241 88.4467737,179.857279 C88.3468719,179.717412 88.2070095,179.637488 88.0471667,179.637488 C87.547658,179.737393 86.8483459,179.837298 85.9292499,179.937203 C85.3098592,180.017127 84.670488,180.09705 84.0111366,180.156993 C83.8512938,180.216936 83.691451,180.276879 83.5515886,180.316841 C83.4916476,179.437678 83.3517851,178.718363 83.1519817,178.118934 C82.9521782,177.699334 82.7723551,177.479543 82.6125123,177.439581 C82.3727481,177.439581 82.1529643,177.539486 81.9531608,177.739296 C81.7533574,177.939106 81.673436,178.198858 81.673436,178.478592 C82.0131019,179.637488 82.192925,180.576594 82.192925,181.295909 L82.0930233,185.052331 C81.9331805,185.092293 81.7533574,185.132255 81.5735342,185.172217 C81.1539469,185.252141 80.7743203,185.372027 80.4146741,185.491912 L80.3147724,185.192198 L80.3147724,185.192198 C80.1549296,184.752617 79.9351458,184.512845 79.6154602,184.512845 C79.375696,184.512845 79.1958729,184.572788 79.0360301,184.672693 C78.7762856,184.872502 78.6564035,185.092293 78.6564035,185.332065 C78.6564035,185.451951 78.7163446,185.691722 78.8362267,186.011418 C78.9561087,186.411037 79.0759908,186.850618 79.1958729,187.330162 C79.5155585,188.52902 79.6754012,189.528069 79.6754012,190.287345 C79.6754012,190.567079 79.6554209,190.946717 79.6354406,191.40628 C79.5954799,191.666032 79.5754995,191.865842 79.5555192,192.02569 C79.5555192,192.425309 79.7353423,192.605138 80.1149689,192.605138 Z M81.0140845,190.607041 C81.0340649,190.287345 81.0540452,189.947669 81.0540452,189.588011 C81.0540452,189.14843 80.9941042,188.509039 80.9141828,187.689819 C80.8742221,187.470029 80.8342614,187.230257 80.7943007,186.990485 C81.0740255,186.950523 81.5135932,186.850618 82.1529643,186.710752 C82.7723551,186.550904 83.3717655,186.47098 83.9511955,186.431018 C84.550606,186.331113 85.070095,186.27117 85.529643,186.27117 C86.7084835,186.27117 87.3478546,186.391056 87.427776,186.630828 C87.427776,187.350143 86.7084835,188.449096 85.2698985,189.907707 C85.2499181,189.927688 85.2299378,189.947669 85.1899771,189.96765 C84.4107435,190.147479 83.5715689,190.307326 82.6924337,190.427212 C82.0930233,190.507136 81.5335735,190.567079 81.0140845,190.607041 Z M86.9482476,196.76118 C87.1480511,196.76118 87.2679332,196.701237 87.3278742,196.581351 C87.4077956,196.441484 87.4477563,196.281637 87.4477563,196.121789 C87.3278742,195.242626 86.50868,194.263559 84.9901736,193.144624 C84.7504094,192.984776 84.550606,192.904853 84.3707828,192.904853 C84.1310187,192.904853 83.9911562,192.964795 83.9312152,193.084681 C83.8512938,193.164605 83.8113331,193.304472 83.8113331,193.484301 C83.8113331,193.764034 83.8912545,193.983825 84.0510973,194.183635 C85.3498198,195.802093 86.3088765,196.661275 86.9482476,196.76118 Z M92.0232558,196.661275 C92.26302,196.641294 92.3829021,196.541389 92.4028824,196.341579 C92.4028824,196.221694 92.3629217,196.061846 92.2830003,195.882017 C91.5237471,194.283539 90.5846708,193.344434 89.5057321,193.0647 C89.4258107,193.044719 89.3658696,193.024738 89.2859482,193.024738 C89.1860465,193.024738 89.0861448,193.0647 88.9662627,193.144624 C88.8064199,193.26451 88.7464789,193.444339 88.7464789,193.644148 C88.7464789,193.943863 88.9063217,194.243578 89.2260072,194.603235 C90.2250246,195.682207 91.0641991,196.36156 91.7235506,196.601332 C91.8234523,196.641294 91.9233541,196.661275 92.0232558,196.661275 Z M77.9570914,197.320647 C78.1369145,197.320647 78.2567966,197.260704 78.3167376,197.140818 C78.396659,197.020932 78.4366197,196.861085 78.4366197,196.681256 C78.336718,195.722169 77.5974451,194.623216 76.1988208,193.404377 C75.9590567,193.244529 75.7392728,193.164605 75.5594497,193.164605 C75.3396659,193.164605 75.1998035,193.224548 75.1198821,193.344434 C75.0399607,193.424358 75,193.544244 75,193.744053 C75,194.003806 75.0799214,194.223597 75.2597445,194.423406 C76.4585653,196.241675 77.357681,197.200761 77.9570914,197.320647 Z M83.0920406,197.18078 C83.2518834,197.18078 83.3717655,197.140818 83.4916476,197.080875 C83.5915493,197.040913 83.691451,196.96099 83.7713724,196.821123 C83.8512938,196.701237 83.8912545,196.601332 83.9112349,196.501427 C83.9112349,196.281637 83.8313135,196.14177 83.691451,196.081827 C82.8922371,195.702188 82.0930233,195.002854 81.2538487,193.983825 C81.0140845,193.704091 80.7943007,193.504282 80.5944972,193.364415 C80.4546348,193.26451 80.3347527,193.204567 80.2148706,193.204567 C80.0949885,193.204567 79.9950868,193.224548 79.9351458,193.224548 C79.775303,193.304472 79.6554209,193.384396 79.5555192,193.484301 C79.375696,193.664129 79.2957746,193.823977 79.2957746,193.943863 C79.2957746,194.143673 79.375696,194.30352 79.5355388,194.443387 C80.0350475,195.162702 80.5944972,195.762131 81.2338683,196.221694 C82.0330822,196.861085 82.652473,197.18078 83.0920406,197.18078 Z M99.3760236,197.200761 C101.054373,197.200761 102.772683,196.881066 104.550934,196.261656 C106.489027,195.502379 108.087455,194.643197 109.326236,193.644148 C109.605961,194.583254 109.985588,195.402474 110.485097,196.121789 C110.624959,196.461465 110.884704,196.641294 111.24435,196.641294 C111.584016,196.541389 111.783819,196.321598 111.82378,195.981922 C111.564035,195.422455 111.324271,194.763083 111.084507,194.003806 C110.525057,192.44529 110.245332,191.286394 110.245332,190.487155 C110.245332,189.96765 110.285293,189.428164 110.385195,188.908658 C110.305274,188.52902 110.065509,188.309229 109.685883,188.269267 C109.186374,188.269267 108.886669,188.489058 108.806747,188.888677 C108.806747,189.647954 108.806747,190.347288 108.846708,190.986679 C108.886669,191.426261 108.94661,191.865842 109.026531,192.285442 C108.826728,192.365366 108.606944,192.505233 108.327219,192.685062 C107.508025,193.224548 106.349165,193.803996 104.870619,194.443387 L104.830658,194.443387 C104.95054,193.923882 105.030462,193.324453 105.030462,192.625119 C105.030462,191.62607 104.990501,190.427212 104.91058,189.008563 C104.890599,188.349191 104.870619,187.729781 104.870619,187.170314 C108.487062,186.450999 110.724861,185.811608 111.603996,185.272122 C111.8038,185.072312 111.923682,184.852521 111.923682,184.652712 C111.923682,184.572788 111.903701,184.492864 111.863741,184.432921 C111.783819,184.273073 111.643957,184.193149 111.444153,184.193149 C109.845726,184.592769 107.647887,185.03235 104.810678,185.551855 L104.810678,185.172217 C104.810678,184.193149 104.810678,183.274025 104.830658,182.434824 C105.370128,182.334919 105.909597,182.235014 106.469047,182.115128 C107.547986,181.915319 108.36718,181.695528 108.92663,181.495718 C109.166394,181.255947 109.286276,180.996194 109.286276,180.716461 C109.266295,180.556613 109.146413,180.416746 108.94661,180.276879 C108.806747,180.196955 108.646905,180.156993 108.467082,180.156993 C108.187357,180.156993 107.727809,180.236917 107.068457,180.396765 C106.369145,180.556613 105.629872,180.716461 104.870619,180.856327 C104.890599,179.897241 104.91058,179.217888 104.91058,178.778306 C104.91058,178.338725 104.690796,178.078972 104.251228,177.959087 L103.79168,177.959087 C103.392073,178.078972 103.21225,178.338725 103.21225,178.778306 C103.21225,179.577545 103.232231,180.376784 103.232231,181.156042 C102.113331,181.355852 100.89453,181.555661 99.5758271,181.73549 C99.2161808,181.775452 98.9164756,181.835395 98.6966918,181.875357 C98.476908,182.035205 98.3570259,182.235014 98.3570259,182.434824 C98.3570259,182.854424 98.536849,183.17412 98.9364559,183.37393 L99.1162791,183.37393 C99.4759253,183.353949 99.8155912,183.313987 100.155257,183.234063 C101.174255,183.074215 102.193253,182.894386 103.232231,182.734539 C103.232231,183.733587 103.272191,184.772598 103.312152,185.811608 C101.49394,186.151284 99.6157877,186.450999 97.6976744,186.690771 C97.2980675,186.810657 96.9983623,186.910561 96.7785784,186.990485 C96.3589912,187.190295 96.1591877,187.430067 96.1591877,187.689819 C96.2191287,188.249286 96.4588929,188.549001 96.8784802,188.549001 C97.098264,188.549001 97.3779889,188.52902 97.6976744,188.489058 C97.9374386,188.469077 98.3170652,188.409134 98.8765149,188.309229 C100.29512,188.069458 101.793646,187.789724 103.372093,187.470029 C103.372093,187.689819 103.392073,187.90961 103.412054,188.129401 C103.511955,189.76784 103.571896,191.346337 103.591877,192.824929 C103.551916,193.624167 103.332132,194.383444 102.952506,195.142721 C101.713724,195.502379 100.614805,195.702188 99.6157877,195.702188 C99.1362594,195.642245 98.8964953,195.402474 98.8964953,194.962892 C98.8964953,194.843007 99.056338,194.423406 99.3960039,193.724072 C99.5958074,193.164605 99.7356698,192.705043 99.8155912,192.385347 C99.8955126,192.105614 99.9354733,191.845861 99.9354733,191.586108 C99.9354733,191.306375 99.8955126,191.066603 99.8155912,190.886775 C99.6957091,190.607041 99.455945,190.447193 99.0962987,190.447193 C98.6567311,190.447193 98.3570259,190.706946 98.1772028,191.20647 C98.2171634,191.546147 98.2371438,191.885823 98.2371438,192.205519 C98.2371438,192.385347 98.1971831,192.565176 98.1372421,192.764986 C97.9973796,193.104662 97.8375368,193.46432 97.6776941,193.863939 C97.3979692,194.383444 97.2581068,194.763083 97.2581068,195.002854 C97.2581068,195.74215 97.4978709,196.321598 98.01736,196.76118 C98.3770062,197.040913 98.8165739,197.18078 99.3760236,197.200761 Z M130.885031,195.722169 C133.022928,195.682207 134.101867,195.342531 134.101867,194.683159 C134.101867,194.283539 134.081887,193.863939 134.081887,193.364415 C134.021946,192.005709 133.922044,191.226451 133.802162,190.986679 C133.68228,190.826832 133.522437,190.726927 133.322633,190.726927 C133.042909,190.806851 132.923027,190.986679 132.923027,191.266413 C132.903046,191.745956 132.903046,192.24548 132.903046,192.745005 C132.883066,193.424358 132.843105,193.863939 132.763184,194.063749 C132.483459,194.223597 131.98395,194.30352 131.224697,194.30352 C130.065837,194.30352 129.226662,194.103711 128.707173,193.724072 C127.907959,193.124643 127.468392,191.366318 127.428431,188.409134 L127.428897,187.762753 C127.430062,187.198858 127.43414,186.570885 127.448411,185.871551 C128.227645,185.771646 129.06682,185.571836 129.945955,185.292103 C130.505405,185.092293 130.944972,184.892483 131.264658,184.652712 C131.4245,184.532826 131.544383,184.392959 131.664265,184.21313 L131.684245,183.873454 L131.684245,183.873454 C131.604324,183.673644 131.38454,183.573739 130.984933,183.573739 C129.286603,183.99334 128.127743,184.233111 127.508352,184.313035 C127.548313,183.234063 127.588274,182.115128 127.588274,180.91627 C127.568293,180.236917 127.508352,179.757374 127.428431,179.457659 C127.268588,179.137964 127.048804,178.958135 126.76908,178.918173 C126.269571,178.998097 126.009826,179.237869 126.009826,179.617507 C126.089748,180.596575 126.129708,181.895338 126.129708,183.493815 C126.129708,183.813511 126.089748,184.61275 126.029807,185.891532 C126.009826,186.990485 126.009826,187.90961 126.009826,188.668887 C126.009826,191.526166 126.449394,193.46432 127.36849,194.50333 C128.107763,195.302569 129.286603,195.722169 130.885031,195.722169 Z M117.57812,195.502379 C118.337373,195.502379 119.016705,195.32255 119.616115,194.962892 C120.47527,194.463368 121.554209,193.644148 122.832951,192.465271 C123.31248,191.965747 123.712086,191.506185 124.071733,191.106565 C124.211595,190.906755 124.291517,190.726927 124.311497,190.607041 C124.311497,190.447193 124.251556,190.287345 124.151654,190.16746 C124.031772,190.107517 123.91189,190.067555 123.831969,190.067555 C123.672126,190.067555 123.552244,190.16746 123.472322,190.327307 C122.952833,190.826832 122.393384,191.306375 121.833934,191.745956 C121.63413,191.925785 121.414347,192.105614 121.214543,192.265461 C121.254504,190.986679 121.274484,189.508088 121.294464,187.829686 L121.294464,186.790676 C121.494268,186.710752 121.773993,186.570885 122.133639,186.351094 C122.673108,186.031399 123.252538,185.65176 123.89191,185.172217 C124.131674,185.012369 124.311497,184.792578 124.431379,184.552807 C124.47134,184.512845 124.49132,184.452902 124.49132,184.41294 C124.49132,184.352997 124.451359,184.273073 124.391418,184.193149 C124.271536,184.053283 124.191615,183.973359 124.111693,183.973359 C123.871929,183.973359 122.912873,184.41294 121.234523,185.272122 L121.174582,184.173168 L121.174582,184.173168 C121.03472,182.75452 120.874877,181.675547 120.695054,180.91627 C120.45529,180.536632 120.255486,180.336822 120.075663,180.336822 C119.915821,180.336822 119.755978,180.436727 119.596135,180.596575 C119.436292,180.756422 119.356371,180.936251 119.356371,181.156042 C119.356371,181.275928 119.416312,181.515699 119.536194,181.855376 C119.716017,182.734539 119.835899,183.773549 119.915821,184.952426 C119.995742,186.131304 120.035703,187.310181 120.035703,188.469077 C120.035703,190.067555 119.995742,191.646051 119.955781,193.224548 C119.915821,193.26451 119.89584,193.284491 119.855879,193.304472 C118.876842,193.943863 118.237471,194.263559 117.957746,194.263559 C117.797904,194.263559 117.717982,193.983825 117.717982,193.404377 C117.717982,191.965747 117.737963,190.567079 117.797904,189.208373 C117.817884,188.449096 117.837864,187.929591 117.837864,187.609895 C117.837864,187.450048 117.777923,187.2902 117.698002,187.130352 C117.538159,186.970504 117.378316,186.89058 117.178513,186.870599 C117.038651,186.870599 116.918768,186.910561 116.838847,186.950523 C116.619063,187.070409 116.499181,187.230257 116.479201,187.430067 C116.479201,187.789724 116.499181,188.289248 116.559122,188.908658 C116.559122,189.548049 116.579103,190.127498 116.579103,190.627022 C116.579103,191.146527 116.559122,191.686013 116.559122,192.24548 C116.499181,192.745005 116.479201,193.244529 116.479201,193.764034 C116.479201,194.123692 116.519161,194.403425 116.599083,194.643197 C116.758926,195.202664 117.078611,195.502379 117.57812,195.502379 Z M148.467737,191.82588 C148.787422,191.82588 148.987226,191.686013 149.067147,191.40628 C149.087127,191.126546 149.107108,190.627022 149.147068,189.907707 C149.147068,189.588011 149.187029,188.429115 149.306911,186.431018 L149.326892,186.011418 L149.326892,186.011418 C149.466754,186.091342 149.606616,186.171265 149.766459,186.251189 C150.38585,186.650809 150.785457,186.870599 150.9453,186.950523 C151.404848,187.170314 151.784474,187.310181 152.064199,187.390105 C152.184081,187.430067 152.303963,187.430067 152.403865,187.430067 C152.483786,187.430067 152.563708,187.430067 152.623649,187.390105 C152.843433,187.310181 152.963315,187.170314 153.003275,186.950523 C153.003275,186.790676 152.943334,186.690771 152.823452,186.610847 C152.623649,186.530923 152.423845,186.431018 152.244022,186.311132 C151.724533,186.031399 151.264985,185.711703 150.905339,185.392008 C150.226007,184.952426 149.766459,184.672693 149.546675,184.572788 C149.526695,184.572788 149.486734,184.572788 149.446774,184.552807 C149.486734,183.513796 149.526695,182.474786 149.526695,181.475737 C149.526695,181.196004 149.506715,180.956232 149.506715,180.756422 C149.466754,180.196955 149.22699,179.917222 148.827383,179.917222 C148.68752,179.917222 148.547658,179.977165 148.387815,180.077069 C148.10809,180.256898 147.988208,180.476689 147.988208,180.756422 C148.008189,181.235966 148.028169,181.775452 148.048149,182.3549 C148.048149,184.173168 148.028169,185.591817 148.008189,186.590866 C147.968228,187.2902 147.948248,188.049477 147.908287,188.848716 C147.848346,189.947669 147.828366,190.567079 147.828366,190.686965 C147.828366,191.446242 148.028169,191.82588 148.467737,191.82588 Z M153.782509,197.120837 C153.982312,197.120837 154.122175,197.060894 154.202096,196.96099 C154.321978,196.841104 154.4019,196.701237 154.4019,196.501427 C154.4019,196.261656 154.301998,196.14177 154.122175,196.101808 C152.204062,195.582303 150.485752,194.982873 148.967245,194.263559 C147.52866,193.544244 146.169997,192.764986 144.931215,191.905804 C144.231903,191.40628 143.532591,190.886775 142.853259,190.347288 C143.712414,188.608944 144.291844,186.810657 144.61153,184.972407 C144.671471,184.692674 144.711431,184.452902 144.711431,184.253092 C144.691451,183.873454 144.531608,183.573739 144.231903,183.333968 C143.992139,183.134158 143.712414,183.034253 143.392728,183.034253 C143.192925,183.034253 142.9132,183.094196 142.553554,183.17412 C142.153947,183.313987 141.354733,183.673644 140.135932,184.233111 C140.61546,183.294006 140.855224,182.274976 140.855224,181.156042 C140.835244,180.876308 140.815264,180.656518 140.815264,180.536632 C140.735342,180.176974 140.495578,179.977165 140.135932,179.977165 C139.916148,180.017127 139.736325,180.09705 139.596462,180.176974 C139.4566,180.336822 139.396659,180.536632 139.396659,180.736441 C139.396659,181.53568 139.336718,182.175071 139.216836,182.654615 C138.977072,183.393911 138.717327,183.913416 138.417622,184.193149 C137.818212,184.912464 137.518506,185.471931 137.518506,185.911513 C137.578447,186.431018 137.778251,186.690771 138.097936,186.690771 C138.417622,186.550904 138.977072,186.291151 139.736325,185.891532 C141.454635,185.03235 142.613495,184.552807 143.212905,184.432921 C143.212905,185.491912 142.833279,186.970504 142.074026,188.888677 C141.994104,189.108468 141.894202,189.308278 141.77432,189.488107 C141.314772,189.088487 140.855224,188.688868 140.375696,188.269267 C140.175893,188.10942 139.996069,187.949572 139.876187,187.829686 C139.696364,187.7098 139.576482,187.629876 139.496561,187.609895 C139.43662,187.609895 139.356698,187.589914 139.256797,187.589914 C139.056993,187.609895 138.89715,187.689819 138.797249,187.829686 C138.637406,188.009515 138.557484,188.189343 138.557484,188.369172 C138.557484,188.668887 138.657386,188.908658 138.89715,189.088487 C139.576482,189.687916 140.275794,190.307326 140.995087,190.946717 C140.755323,191.386299 140.495578,191.805899 140.215853,192.24548 C139.336718,193.604186 138.397642,194.563273 137.398624,195.162702 C137.238782,195.282588 137.038978,195.382493 136.819194,195.482398 C136.719292,195.562322 136.659351,195.662226 136.659351,195.822074 C136.739273,196.14177 137.018998,196.321598 137.538487,196.321598 C137.73829,196.301618 137.978054,196.221694 138.27776,196.101808 C138.637406,195.862036 138.957091,195.622265 139.216836,195.362512 C140.295775,194.363463 141.234851,193.184586 142.054045,191.805899 C143.113004,192.665081 144.311824,193.484301 145.650508,194.283539 C147.129053,195.162702 148.527678,195.842055 149.80642,196.321598 C150.485752,196.56137 151.225025,196.781161 152.024238,196.96099 C152.66361,197.060894 153.24304,197.120837 153.782509,197.120837 Z M163.353095,193.843958 C163.413036,193.764034 163.492958,193.68411 163.572879,193.604186 C163.692761,193.46432 163.852604,193.26451 164.052407,192.984776 C164.352113,192.585157 164.671798,192.145576 165.031444,191.666032 C165.35113,191.146527 165.670816,190.607041 165.970521,190.027593 C166.410088,189.128449 166.749754,188.32921 167.009499,187.609895 C167.109401,188.069458 167.169342,188.628925 167.189322,189.268316 C167.189322,189.987631 167.229283,190.607041 167.309204,191.146527 C167.389125,191.805899 167.728791,192.305423 168.328202,192.665081 C168.967573,193.024738 169.766787,193.204567 170.765804,193.204567 C171.804782,193.204567 172.783819,192.944814 173.702915,192.405328 C174.302326,192.405328 174.602031,192.005709 174.602031,191.226451 C174.56207,189.747859 174.202424,188.748811 173.503112,188.209324 C173.283328,188.009515 173.083524,187.889629 172.903701,187.889629 C172.703898,187.969553 172.603996,188.149382 172.603996,188.449096 C173.043564,189.328259 173.263348,190.16746 173.263348,190.946717 C172.524075,191.446242 171.844743,191.686013 171.205372,191.686013 C170.50606,191.686013 169.94661,191.62607 169.527023,191.466223 C169.007534,191.266413 168.707828,190.946717 168.607927,190.487155 C168.528005,189.76784 168.488045,189.228354 168.488045,188.868696 C168.488045,188.309229 168.428104,187.809705 168.328202,187.390105 C168.24828,187.070409 168.028497,186.89058 167.708811,186.870599 L167.568949,186.870599 C167.449066,186.89058 167.349165,186.930542 167.229283,186.990485 C167.309204,186.750714 167.369145,186.550904 167.409106,186.391056 C168.148379,186.131304 168.907632,185.85157 169.666885,185.551855 C170.665902,185.152236 171.425156,184.772598 171.944645,184.41294 C172.144448,184.21313 172.24435,183.99334 172.24435,183.753568 C172.224369,183.633682 172.124468,183.533777 171.964625,183.413892 C171.824763,183.353949 171.6849,183.313987 171.545038,183.313987 C171.305274,183.313987 170.865706,183.453853 170.226335,183.733587 C169.427121,184.093245 168.547986,184.452902 167.588929,184.792578 C167.728791,184.432921 167.868654,184.013321 167.988536,183.553758 C168.108418,182.894386 168.188339,182.274976 168.20832,181.715509 C168.547986,181.555661 168.887651,181.355852 169.207337,181.156042 C169.666885,180.91627 170.026531,180.676499 170.306256,180.436727 C170.426138,180.316841 170.486079,180.176974 170.486079,180.037108 C170.486079,179.67745 170.366197,179.47764 170.166394,179.437678 C170.066492,179.437678 169.96659,179.457659 169.886669,179.457659 L169.726826,179.557564 C169.167376,179.837298 168.647887,180.077069 168.188339,180.276879 C168.148379,179.67745 168.048477,179.157945 167.928595,178.698382 C167.808713,178.458611 167.688831,178.278782 167.568949,178.158896 C167.449066,178.058991 167.289224,177.999049 167.08942,177.999049 C166.889617,178.019029 166.729774,178.078972 166.629872,178.158896 C166.430069,178.318744 166.350147,178.538535 166.350147,178.838249 C166.350147,178.978116 166.390108,179.197907 166.50999,179.497621 C166.629872,179.857279 166.709794,180.336822 166.749754,180.896289 C166.070423,181.136061 165.570914,181.255947 165.251228,181.255947 C165.051425,181.255947 164.891582,181.255947 164.79168,181.215985 C164.931543,180.776403 165.011464,180.436727 165.011464,180.196955 C165.011464,179.557564 164.811661,179.217888 164.412054,179.177926 L164.132329,179.177926 C163.792663,179.217888 163.592859,179.377735 163.532918,179.657469 C163.512938,180.196955 163.472977,180.776403 163.393056,181.415794 C163.393056,181.695528 163.452997,181.975262 163.572879,182.215033 C163.792663,182.574691 164.112349,182.75452 164.551916,182.75452 C165.191287,182.75452 165.91058,182.614653 166.749754,182.334919 C166.709794,182.574691 166.689813,182.814462 166.649853,183.074215 C166.529971,183.693625 166.370128,184.273073 166.210285,184.83254 C166.130364,185.012369 166.090403,185.172217 166.050442,185.332065 C165.171307,185.631779 164.252211,185.911513 163.293154,186.171265 C162.953488,186.251189 162.673764,186.331113 162.45398,186.411037 C162.234196,186.570885 162.114314,186.750714 162.114314,186.950523 C162.114314,187.330162 162.314117,187.609895 162.713724,187.809705 L162.873567,187.809705 C163.193253,187.769743 163.512938,187.689819 163.792663,187.589914 C164.452014,187.390105 165.111366,187.170314 165.770717,186.950523 C165.750737,186.990485 165.730757,187.050428 165.710776,187.130352 C165.510973,187.689819 165.291189,188.229305 165.011464,188.788773 C164.611857,189.667935 164.19227,190.487155 163.792663,191.246432 C163.512938,191.765937 163.273174,192.185538 163.113331,192.485252 C162.973469,192.705043 162.873567,192.884872 162.833606,193.044719 C162.753685,193.164605 162.713724,193.304472 162.713724,193.46432 C162.753685,193.724072 162.873567,193.863939 163.03341,193.88392 C163.153292,193.88392 163.273174,193.88392 163.353095,193.843958 Z M160.316083,183.833492 C160.595807,183.833492 160.75565,183.613701 160.795611,183.134158 C160.795611,182.914367 160.73567,182.714558 160.655748,182.55471 C160.296102,182.115128 159.916476,181.815414 159.556829,181.615604 C159.157222,181.395814 158.797576,181.275928 158.477891,181.275928 C158.018343,181.295909 157.758598,181.455756 157.678677,181.775452 C157.638716,181.895338 157.638716,181.975262 157.638716,182.055186 C157.638716,182.254995 157.658696,182.414843 157.718637,182.534729 C157.738618,182.574691 157.838519,182.594672 157.998362,182.634634 C158.717655,182.834443 159.277104,183.134158 159.676711,183.493815 C159.896495,183.733587 160.116279,183.833492 160.316083,183.833492 Z M169.766787,197.140818 C171.66492,197.140818 173.263348,196.861085 174.58205,196.341579 C174.781854,196.221694 174.901736,196.121789 174.961677,196.041865 C175.041598,195.901998 175.101539,195.762131 175.101539,195.642245 C175.061579,195.442436 174.881756,195.342531 174.54209,195.342531 C174.382247,195.342531 174.122502,195.382493 173.762856,195.482398 C173.283328,195.622265 172.82378,195.722169 172.384212,195.782112 C171.864723,195.822074 171.385195,195.862036 170.945627,195.862036 C170.386178,195.862036 169.766787,195.822074 169.067475,195.782112 C168.2283,195.702188 167.449066,195.622265 166.749754,195.502379 C164.811661,195.162702 163.07337,194.743102 161.514903,194.223597 C160.835572,193.983825 160.136259,193.704091 159.456928,193.404377 C159.396987,193.384396 159.337046,193.364415 159.277104,193.324453 C159.756633,192.804948 159.996397,192.065652 159.996397,191.146527 C159.996397,190.427212 159.776613,189.76784 159.377006,189.14843 C159.976417,188.309229 160.276122,187.669838 160.276122,187.190295 C160.276122,186.411037 159.976417,185.751665 159.396987,185.23216 C159.237144,185.072312 159.03734,184.972407 158.837537,184.952426 C158.358009,184.952426 158.098264,185.172217 158.078284,185.571836 C158.318048,185.931494 158.497871,186.251189 158.657714,186.510942 C158.817557,186.870599 158.917458,187.190295 158.957419,187.430067 C158.957419,187.50999 158.857517,187.669838 158.677694,187.889629 C158.198166,188.389153 157.978382,188.828735 157.978382,189.208373 C157.978382,189.448145 158.078284,189.707897 158.298067,189.987631 C158.537832,190.347288 158.657714,190.647003 158.657714,190.886775 C158.617753,191.765937 158.43793,192.385347 158.098264,192.784967 C158.058303,192.784967 158.018343,192.764986 157.978382,192.745005 C157.818539,192.665081 157.678677,192.625119 157.558795,192.625119 C157.358991,192.625119 157.219129,192.685062 157.099247,192.804948 C156.899443,193.004757 156.799541,193.204567 156.799541,193.444339 C156.799541,193.644148 156.839502,193.784015 156.919424,193.903901 C157.159188,194.063749 157.438913,194.243578 157.798559,194.423406 C158.338028,194.70314 158.937439,194.962892 159.59679,195.202664 C163.433017,196.481446 166.829676,197.140818 169.766787,197.140818 Z M184.592204,186.630828 C184.792008,186.630828 185.011792,186.550904 185.251556,186.351094 C186.210613,185.991437 187.169669,185.372027 188.148706,184.512845 C188.38847,184.313035 188.628235,184.093245 188.907959,183.833492 C189.926957,184.392959 190.886014,184.852521 191.785129,185.212179 C193.063872,185.731684 194.10285,186.011418 194.862103,186.031399 L195.161808,186.031399 C195.481494,185.971456 195.641336,185.811608 195.681297,185.531874 C195.681297,185.332065 195.601376,185.172217 195.461513,185.072312 C194.462496,184.792578 193.643302,184.532826 193.003931,184.253092 C192.024894,183.853473 191.005896,183.333968 189.946937,182.694577 C190.146741,182.454805 190.366525,182.175071 190.566328,181.895338 C191.485424,180.636537 191.944972,179.697431 191.984933,179.05804 C191.984933,178.378687 191.665247,177.959087 191.045857,177.799239 C190.866033,177.799239 190.726171,177.779258 190.606289,177.779258 C189.847036,177.779258 188.907959,177.899144 187.749099,178.118934 C186.909925,178.318744 186.210613,178.538535 185.691123,178.758325 C185.431379,178.878211 185.291517,179.038059 185.271536,179.277831 L185.271536,179.597526 C185.371438,179.997146 185.611202,180.196955 185.970848,180.196955 C187.429414,179.697431 188.9679,179.357755 190.566328,179.197907 C190.286603,179.977165 189.847036,180.736441 189.267606,181.495718 L188.848018,181.995243 L188.848018,181.995243 L187.389453,181.016175 C187.069767,180.856327 186.849984,180.736441 186.710121,180.656518 C186.510318,180.556613 186.330495,180.49667 186.170652,180.49667 C185.930888,180.49667 185.751065,180.596575 185.591222,180.756422 C185.451359,180.896289 185.391418,181.076118 185.391418,181.31589 C185.391418,181.475737 185.451359,181.635585 185.571241,181.795433 C185.751065,181.975262 186.010809,182.175071 186.350475,182.374881 L187.729119,183.17412 C187.449394,183.473834 187.129708,183.753568 186.790043,184.013321 C185.910907,184.692674 185.071733,185.23216 184.252538,185.631779 C184.072715,185.771646 183.992794,185.931494 183.992794,186.111323 C184.012774,186.47098 184.212578,186.630828 184.592204,186.630828 Z M181.375368,196.261656 C181.635113,196.261656 181.854897,196.121789 182.01474,195.882017 C182.294464,195.442436 182.454307,194.70314 182.454307,193.644148 C182.454307,192.6451 182.414347,191.306375 182.334425,189.627973 C182.913855,189.108468 183.293482,188.708849 183.493285,188.429115 C183.553226,188.349191 183.593187,188.289248 183.613167,188.209324 L183.593187,187.969553 L183.593187,187.969553 C183.513266,187.769743 183.393384,187.649857 183.19358,187.649857 C183.073698,187.649857 182.933836,187.7098 182.773993,187.789724 C182.61415,187.929591 182.434327,188.069458 182.254504,188.189343 C182.134622,186.351094 182.03472,184.792578 181.954799,183.493815 C182.59417,183.294006 183.1736,183.054234 183.673108,182.814462 C183.872912,182.734539 184.052735,182.614653 184.172617,182.474786 C184.252538,182.334919 184.31248,182.195052 184.31248,182.075167 C184.31248,181.955281 184.192597,181.835395 183.992794,181.715509 C183.792991,181.635585 183.613167,181.575642 183.473305,181.575642 C183.393384,181.615604 183.313462,181.655566 183.21356,181.695528 C182.734032,181.855376 182.294464,181.995243 181.854897,182.095147 C181.794956,181.595623 181.715034,181.136061 181.635113,180.69648 C181.495251,180.196955 181.295447,179.937203 181.015722,179.937203 L180.735997,179.937203 C180.396331,180.017127 180.196528,180.236917 180.136587,180.596575 C180.276449,181.036156 180.396331,181.655566 180.476253,182.414843 C180.116607,182.494767 179.796921,182.514748 179.477236,182.514748 C179.297412,182.514748 179.13757,182.514748 179.017688,182.494767 C178.658041,182.674596 178.438257,182.894386 178.378316,183.134158 L178.378316,183.473834 C178.378316,183.853473 178.55814,184.073264 178.957746,184.133206 L179.197511,184.133206 C179.437275,184.133206 179.717,184.093245 180.016705,184.033302 C180.216508,183.99334 180.396331,183.953378 180.596135,183.893435 C180.716017,185.571836 180.815919,187.270219 180.89584,189.028544 L180.89584,189.168411 C179.417294,190.287345 178.358336,191.146527 177.718965,191.745956 C177.519161,191.985728 177.41926,192.145576 177.41926,192.24548 C177.41926,192.525214 177.499181,192.745005 177.659024,192.864891 C177.838847,193.0647 178.038651,193.164605 178.278415,193.164605 C178.318375,193.164605 178.358336,193.164605 178.398297,193.144624 C178.757943,193.504282 179.037668,193.803996 179.217491,194.063749 C179.617098,194.683159 179.956764,195.182683 180.236489,195.562322 C180.656076,196.021884 181.035703,196.261656 181.375368,196.261656 Z M189.407468,197.80019 C189.707173,197.80019 189.886996,197.400571 189.926957,196.621313 C189.926957,196.241675 189.946937,195.74215 189.946937,195.102759 L189.946937,192.545195 C189.946937,192.545195 189.966918,192.525214 189.986898,192.525214 C192.064854,191.666032 193.363577,190.926736 193.863085,190.307326 C194.062889,190.107517 194.162791,189.907707 194.162791,189.747859 C194.162791,189.667935 194.14281,189.588011 194.12283,189.548049 C194.022928,189.408183 193.883066,189.328259 193.723223,189.328259 C192.804127,189.807802 191.545365,190.327307 189.926957,190.926736 C189.926957,190.447193 189.906977,190.007612 189.886996,189.56803 L189.886996,188.828735 L189.886996,188.828735 C190.0868,188.788773 190.306584,188.708849 190.546348,188.628925 C191.185719,188.429115 191.665247,188.229305 192.004913,188.029496 C192.184736,187.829686 192.284638,187.629876 192.284638,187.390105 C192.264658,187.270219 192.184736,187.150333 192.024894,187.050428 C191.885031,186.970504 191.745169,186.930542 191.585326,186.930542 C191.425483,186.930542 191.165739,187.010466 190.766132,187.130352 C190.466426,187.230257 190.166721,187.330162 189.847036,187.410086 L189.847036,187.210276 L189.847036,187.210276 C189.827055,186.650809 189.807075,186.211227 189.807075,185.85157 C189.767114,185.43197 189.567311,185.212179 189.167704,185.212179 C189.007861,185.212179 188.887979,185.252141 188.768097,185.332065 C188.528333,185.491912 188.428431,185.671741 188.428431,185.891532 C188.428431,186.730733 188.448411,187.270219 188.468392,187.549952 L188.468392,187.789724 L188.468392,187.789724 C187.829021,187.949572 187.149689,188.10942 186.390436,188.269267 C186.190632,188.309229 186.030789,188.369172 185.910907,188.409134 C185.671143,188.568982 185.551261,188.72883 185.551261,188.908658 C185.551261,189.328259 185.731084,189.627973 186.130691,189.827783 L186.290534,189.827783 C186.490337,189.807802 186.690141,189.76784 186.889944,189.687916 C187.429414,189.56803 187.988863,189.408183 188.548313,189.248335 C188.588274,190.027593 188.608254,190.746908 188.628235,191.40628 C187.78906,191.705994 186.929905,191.985728 186.05077,192.24548 C185.691123,192.345385 185.391418,192.44529 185.191615,192.525214 C184.792008,192.725024 184.592204,192.924833 184.592204,193.164605 C184.652145,193.704091 184.871929,193.983825 185.251556,193.983825 C185.47134,193.983825 185.731084,193.963844 186.05077,193.923882 C186.170652,193.903901 186.390436,193.843958 186.710121,193.724072 C187.329512,193.524263 187.988863,193.284491 188.688176,193.024738 C188.688176,193.863939 188.708156,194.583254 188.728136,195.242626 C188.728136,195.74215 188.748117,196.201713 188.808058,196.641294 C188.848018,197.400571 189.047822,197.80019 189.407468,197.80019 Z M181.015722,194.70314 C180.735997,194.563273 180.376351,194.263559 179.936783,193.803996 C179.75696,193.564225 179.517196,193.124643 179.197511,192.525214 C179.876842,191.905804 180.456273,191.366318 180.955781,190.906755 C180.995742,191.785918 181.035703,192.545195 181.055683,193.184586 C181.055683,193.784015 181.035703,194.283539 181.015722,194.70314 Z M201.59548,190.706946 C201.915165,190.706946 202.114969,190.507136 202.214871,190.107517 C202.294792,189.627973 202.374713,189.088487 202.434654,188.489058 C202.594497,187.070409 202.694399,185.571836 202.694399,183.99334 C202.654438,183.014272 202.554537,182.254995 202.374713,181.73549 C202.874222,181.056137 203.273829,180.476689 203.573534,179.957184 C203.793318,179.637488 203.953161,179.317793 204.053063,179.038059 C204.172945,178.758325 204.252866,178.498573 204.252866,178.278782 C204.252866,177.959087 204.093023,177.759277 203.773338,177.679353 C203.453652,177.679353 203.213888,177.719315 203.054045,177.779258 C202.954143,177.999049 202.854242,178.178877 202.75434,178.318744 C202.594497,178.63844 202.454635,178.938154 202.314772,179.197907 C201.775303,180.037108 201.275794,180.816365 200.816246,181.575642 C200.256797,182.474786 199.777268,183.214082 199.417622,183.813511 C199.117917,184.273073 198.878153,184.652712 198.69833,184.972407 C198.558467,185.152236 198.498526,185.332065 198.498526,185.491912 C198.518506,185.831589 198.69833,185.991437 199.057976,185.991437 C199.217819,185.991437 199.397642,185.871551 199.597445,185.631779 C199.977072,185.03235 200.336718,184.532826 200.656404,184.093245 L201.255814,183.274025 L201.255814,183.274025 C201.275794,183.553758 201.295775,183.813511 201.295775,184.093245 L201.295775,184.992388 C201.295775,185.891532 201.255814,186.730733 201.175893,187.529971 C201.05601,188.748811 200.996069,189.588011 200.996069,190.027593 C200.996069,190.487155 201.195873,190.706946 201.59548,190.706946 Z M211.40583,183.733587 C211.565673,183.733587 211.725516,183.693625 211.885359,183.59372 C212.484769,183.17412 212.964297,182.674596 213.323944,182.075167 C213.503767,181.755471 213.66361,181.415794 213.783492,181.056137 C213.943334,180.636537 214.023256,180.316841 214.023256,180.117031 C214.003275,179.857279 213.883393,179.617507 213.66361,179.417697 C213.543727,179.317793 213.363904,179.25785 213.084179,179.25785 C212.924337,179.25785 212.56469,179.297812 212.005241,179.377735 C211.325909,179.497621 210.646577,179.597526 209.967245,179.717412 C209.407796,179.837298 208.788405,179.937203 208.149034,180.037108 C208.169014,179.957184 208.208975,179.87726 208.248935,179.777355 C208.408778,179.337774 208.4887,179.018078 208.4887,178.798287 C208.4887,178.478592 208.388798,178.278782 208.208975,178.158896 C208.049132,178.03901 207.809368,177.979068 207.529643,177.939106 C207.3698,177.939106 207.229938,177.979068 207.110056,178.03901 C206.970193,178.098953 206.910252,178.278782 206.910252,178.558516 C206.910252,178.678402 206.930233,178.818268 206.930233,178.958135 C206.930233,179.018078 206.910252,179.098002 206.910252,179.197907 L206.81035,179.577545 L206.81035,179.577545 C206.650508,180.017127 206.470685,180.416746 206.250901,180.796384 C205.891255,181.415794 205.511628,181.915319 205.07206,182.274976 C204.812316,182.514748 204.692434,182.694577 204.692434,182.814462 C204.692434,183.214082 204.832296,183.413892 205.132001,183.413892 C205.371765,183.413892 205.61153,183.313987 205.891255,183.074215 C206.170979,182.874405 206.470685,182.614653 206.79037,182.254995 C206.930233,182.095147 207.070095,181.9353 207.229938,181.73549 C207.309859,181.73549 207.509663,181.675547 207.849329,181.595623 C208.188994,181.515699 208.50868,181.455756 208.828366,181.395814 C209.307894,181.275928 209.947265,181.156042 210.706518,180.996194 C211.305929,180.876308 211.865378,180.776403 212.344907,180.69648 C212.344907,180.836346 212.284966,181.036156 212.205044,181.31589 C212.145103,181.515699 212.065182,181.695528 211.96528,181.875357 C211.725516,182.334919 211.525712,182.654615 211.36587,182.814462 C211.285948,182.894386 211.206027,182.97431 211.146086,183.054234 C211.066164,183.134158 211.026204,183.234063 211.026204,183.353949 C211.026204,183.59372 211.146086,183.713606 211.40583,183.733587 Z M209.387815,190.627022 C209.787422,190.627022 210.067147,190.227402 210.266951,189.408183 C210.466754,188.688868 210.566656,187.649857 210.566656,186.311132 C210.566656,185.891532 210.546675,185.531874 210.526695,185.23216 C210.426793,184.472883 210.306911,183.79353 210.187029,183.17412 C210.107108,182.734539 209.827383,182.494767 209.387815,182.494767 C208.948248,182.574691 208.728464,182.794481 208.708483,183.17412 C208.708483,183.254044 208.728464,183.353949 208.768425,183.473834 C208.968228,184.313035 209.08811,184.952426 209.148051,185.392008 C209.168031,185.671741 209.188012,185.991437 209.188012,186.331113 C209.188012,188.009515 209.10809,188.908658 208.948248,189.068506 C208.828366,189.068506 208.608582,188.988582 208.328857,188.788773 C208.129053,188.608944 207.989191,188.509039 207.94923,188.509039 C207.629545,188.509039 207.429741,188.668887 207.32984,188.968601 C207.32984,189.188392 207.3698,189.368221 207.469702,189.488107 C207.609564,189.787821 207.889289,190.067555 208.328857,190.327307 C208.688503,190.527117 209.028169,190.627022 209.387815,190.627022 Z M205.371765,188.52902 C205.571569,188.52902 205.731412,188.429115 205.891255,188.209324 C206.091058,187.90961 206.270881,187.549952 206.410744,187.130352 C206.550606,186.690771 206.630527,186.231208 206.650508,185.771646 C206.650508,185.312084 206.590567,184.912464 206.510645,184.592769 C206.390763,184.432921 206.250901,184.352997 206.091058,184.352997 C205.711431,184.352997 205.451687,184.41294 205.311824,184.532826 C205.211923,184.61275 205.151982,184.732636 205.151982,184.852521 C205.211923,185.352046 205.251883,185.751665 205.251883,186.05138 C205.251883,186.450999 205.171962,186.850618 205.012119,187.210276 C204.892237,187.470029 204.832296,187.649857 204.832296,187.769743 C204.832296,187.969553 204.912217,188.169363 205.07206,188.349191 C205.171962,188.469077 205.271864,188.52902 205.371765,188.52902 Z M214.86243,188.808754 C215.222077,188.808754 215.42188,188.588963 215.42188,188.129401 C215.381919,187.889629 215.282018,187.629876 215.082214,187.330162 C214.322961,186.151284 213.743531,185.411989 213.363904,185.132255 C213.283983,185.092293 213.164101,185.052331 213.044219,185.012369 L212.804455,184.992388 L212.804455,184.992388 C212.684573,185.03235 212.56469,185.092293 212.444808,185.192198 C212.304946,185.312084 212.225025,185.451951 212.205044,185.631779 L212.205044,185.811608 C212.205044,185.931494 212.225025,186.05138 212.304946,186.131304 C212.784474,186.610847 213.224042,187.130352 213.643629,187.689819 C213.903374,188.029496 214.123158,188.289248 214.283,188.449096 C214.482804,188.688868 214.662627,188.808754 214.86243,188.808754 Z M210.846381,197.38059 C211.525712,197.360609 212.105142,197.18078 212.584671,196.841104 C213.084179,196.421503 213.343924,195.862036 213.343924,195.162702 C213.343924,194.882969 213.244022,194.583254 213.044219,194.263559 C212.844415,193.923882 212.52473,193.604186 212.085162,193.324453 C212.085162,193.324453 212.105142,193.324453 212.125123,193.304472 C213.983295,192.465271 215.102195,191.785918 215.501802,191.246432 C215.581723,191.126546 215.641664,190.966698 215.641664,190.766889 C215.601703,190.487155 215.44186,190.327307 215.162136,190.287345 C215.042254,190.287345 214.922371,190.327307 214.782509,190.367269 L213.563708,190.986679 C212.764494,191.40628 211.805437,191.785918 210.726499,192.125595 C210.167049,192.285442 209.747462,192.405328 209.427776,192.485252 C209.188012,192.585157 209.08811,192.764986 209.08811,193.044719 L209.128071,193.344434 C209.207992,193.784015 209.407796,193.983825 209.747462,193.983825 C209.947265,193.983825 210.286931,193.923882 210.746479,193.803996 C210.866361,193.764034 210.986243,193.704091 211.146086,193.644148 C211.325909,193.784015 211.485752,193.923882 211.645594,194.063749 C211.865378,194.343482 211.98526,194.623216 211.98526,194.90295 C211.9453,195.502379 211.585653,195.802093 210.886341,195.802093 C209.287914,195.682207 207.889289,194.70314 206.730429,192.884872 C206.570586,192.685062 206.350802,192.585157 206.111038,192.585157 C205.851294,192.625119 205.65149,192.725024 205.511628,192.924833 C205.411726,193.044719 205.371765,193.204567 205.371765,193.364415 C205.371765,193.484301 205.411726,193.624167 205.531608,193.823977 C206.111038,194.942912 206.870292,195.782112 207.789387,196.381541 C208.728464,197.000951 209.747462,197.340628 210.846381,197.38059 Z M201.835244,197.440533 C201.955126,197.440533 202.094989,197.38059 202.234851,197.300666 C202.374713,197.18078 202.454635,196.941009 202.454635,196.56137 C202.374713,196.161751 202.294792,195.682207 202.214871,195.082778 C202.134949,194.523311 202.035047,193.863939 201.955126,193.104662 C201.935146,192.685062 201.895185,192.365366 201.835244,192.145576 C201.695382,191.865842 201.535539,191.725975 201.335735,191.725975 L200.996069,191.725975 C200.556502,191.765937 200.356698,191.965747 200.356698,192.345385 C200.356698,192.485252 200.396659,192.824929 200.496561,193.344434 C200.576482,193.744053 200.636423,194.183635 200.696364,194.683159 C200.736325,194.942912 200.756305,195.242626 200.796266,195.582303 C200.856207,196.101808 200.976089,196.521408 201.135932,196.841104 C201.195873,196.96099 201.275794,197.080875 201.375696,197.18078 C201.495578,197.340628 201.635441,197.440533 201.835244,197.440533 Z M224.333115,183.353949 C224.532918,183.333968 224.752702,183.294006 224.992466,183.234063 C226.411071,182.934348 227.789715,182.614653 229.108418,182.254995 C229.82771,182.055186 230.36718,181.875357 230.726826,181.695528 C230.906649,181.495718 231.006551,181.295909 231.006551,181.076118 C230.986571,180.956232 230.906649,180.856327 230.746806,180.776403 C230.646905,180.716461 230.527023,180.676499 230.36718,180.676499 C230.187357,180.676499 229.887651,180.736441 229.448084,180.856327 C228.868654,181.036156 228.229283,181.196004 227.529971,181.335871 C227.629872,180.956232 227.689813,180.576594 227.709794,180.216936 C229.24828,179.817317 230.407141,179.437678 231.186374,179.038059 C231.346217,178.918173 231.446119,178.738344 231.446119,178.498573 C231.406158,178.398668 231.386178,178.298763 231.346217,178.218839 C231.226335,178.058991 231.066492,177.959087 230.866689,177.959087 C230.786767,177.959087 230.726826,177.979068 230.646905,177.979068 C229.727809,178.298763 228.728791,178.578497 227.609892,178.798287 C227.569931,178.598478 227.50999,178.398668 227.450049,178.198858 C227.330167,177.859182 227.190305,177.579448 227.070423,177.339676 C226.93056,177.259753 226.790698,177.219791 226.650835,177.219791 C226.451032,177.219791 226.251228,177.279734 226.071405,177.359657 C225.871602,177.539486 225.79168,177.739296 225.79168,177.979068 C225.79168,178.178877 225.911562,178.338725 226.151327,178.498573 C226.191287,178.678402 226.251228,178.85823 226.311169,179.038059 C226.071405,179.078021 225.851621,179.117983 225.611857,179.137964 C224.63282,179.297812 223.753685,179.397716 222.954471,179.437678 C222.634785,179.517602 222.494923,179.717412 222.494923,180.057088 C222.494923,180.29686 222.594825,180.516651 222.774648,180.69648 C222.934491,180.876308 223.154274,180.956232 223.414019,180.956232 C224.173272,180.91627 225.012447,180.816365 225.911562,180.656518 C226.071405,180.616556 226.251228,180.576594 226.451032,180.516651 C226.431051,180.656518 226.411071,180.796384 226.411071,180.91627 C226.37111,181.136061 226.311169,181.375833 226.231248,181.655566 C225.691779,181.775452 225.132329,181.875357 224.552899,181.975262 C224.293154,182.015224 224.093351,182.035205 223.953488,182.075167 C223.773665,182.215033 223.673764,182.374881 223.673764,182.55471 C223.673764,182.914367 223.833606,183.17412 224.173272,183.353949 L224.333115,183.353949 Z M225.332132,188.628925 C225.392073,188.628925 225.491975,188.608944 225.631838,188.549001 C226.391091,188.389153 227.210285,188.129401 228.06944,187.769743 C228.808713,187.49001 229.408123,187.190295 229.887651,186.870599 C230.027514,186.690771 230.107435,186.510942 230.127416,186.311132 C230.127416,186.211227 230.107435,186.131304 230.087455,186.05138 C230.087455,186.05138 230.067475,186.05138 230.047494,186.011418 C230.047494,186.011418 230.047494,186.011418 230.067475,185.991437 C230.846708,185.23216 231.246315,184.532826 231.246315,183.893435 C231.246315,183.653663 231.146413,183.433873 230.96659,183.234063 C230.786767,183.114177 230.586964,183.054234 230.347199,183.054234 C229.428104,183.054234 228.548968,183.194101 227.669833,183.453853 C226.990501,183.653663 226.33115,183.893435 225.711759,184.173168 C225.691779,184.153187 225.671798,184.113225 225.651818,184.053283 C225.551916,183.853473 225.412054,183.693625 225.21225,183.613701 C225.112349,183.59372 224.972486,183.573739 224.812643,183.573739 C224.652801,183.573739 224.512938,183.673644 224.393056,183.833492 C224.253194,183.953378 224.173272,184.093245 224.153292,184.253092 C224.393056,184.772598 224.652801,185.451951 224.952506,186.251189 C225.072388,186.590866 225.152309,186.910561 225.21225,187.190295 C225.17229,187.190295 225.152309,187.210276 225.112349,187.210276 C224.872584,187.330162 224.732722,187.50999 224.732722,187.7098 C224.732722,187.989534 224.792663,188.209324 224.912545,188.349191 C225.032427,188.549001 225.17229,188.628925 225.332132,188.628925 Z M226.471012,186.870599 C226.411071,186.550904 226.311169,186.131304 226.151327,185.571836 C226.131346,185.531874 226.111366,185.491912 226.111366,185.43197 C227.470029,184.872502 228.64887,184.552807 229.667868,184.432921 C229.24828,185.03235 228.64887,185.671741 227.849656,186.351094 L227.749754,186.450999 L227.749754,186.450999 C227.350147,186.590866 226.91058,186.730733 226.471012,186.870599 Z M219.737635,193.024738 C219.937439,193.024738 220.197183,193.004757 220.476908,192.944814 C220.756633,192.924833 221.1962,192.864891 221.795611,192.764986 C223.773665,192.425309 225.891582,192.02569 228.169342,191.586108 C232.265313,190.766889 234.802817,190.047574 235.781854,189.448145 C235.981657,189.248335 236.081559,189.068506 236.081559,188.888677 C236.081559,188.808754 236.061579,188.748811 236.041598,188.708849 C235.961677,188.568982 235.821815,188.489058 235.641991,188.489058 C234.603013,188.748811 233.324271,189.028544 231.805765,189.34824 C232.12545,188.788773 232.285293,188.149382 232.325254,187.410086 C232.325254,186.770695 232.08549,186.431018 231.605961,186.431018 C231.206354,186.47098 230.96659,186.67079 230.886669,187.070409 C230.886669,187.310181 230.866689,187.529971 230.846708,187.749762 C230.766787,188.309229 230.566983,188.848716 230.227317,189.328259 C230.107435,189.488107 230.007534,189.627973 229.967573,189.707897 C229.268261,189.847764 228.528988,189.987631 227.769735,190.127498 C227.230265,190.247383 226.670816,190.347288 226.111366,190.427212 L226.051425,190.367269 L226.051425,190.367269 C225.432034,189.488107 224.892565,188.868696 224.452997,188.52902 C224.293154,188.369172 224.113331,188.289248 223.893547,188.289248 C223.49394,188.369172 223.314117,188.648906 223.314117,189.128449 C223.314117,189.228354 223.354078,189.328259 223.433999,189.408183 C223.793646,189.847764 224.193253,190.287345 224.63282,190.686965 C223.274157,190.926736 221.895513,191.166508 220.476908,191.366318 C220.137242,191.466223 219.857517,191.546147 219.657714,191.606089 C219.298067,191.785918 219.118244,192.005709 219.118244,192.24548 C219.158205,192.764986 219.377989,193.024738 219.737635,193.024738 Z M225.971503,197.840152 C226.031444,197.840152 226.131346,197.80019 226.291189,197.720266 C227.450049,197.520457 228.66885,197.220742 229.947593,196.861085 C231.026531,196.521408 231.945627,196.181732 232.66492,195.862036 C232.804782,195.662226 232.884704,195.482398 232.904684,195.302569 C232.904684,195.222645 232.884704,195.12274 232.864723,195.042816 C232.764821,194.882969 232.624959,194.803045 232.425156,194.803045 L232.405175,194.803045 L232.405175,194.803045 C232.604979,194.463368 232.724861,194.123692 232.764821,193.803996 C232.764821,193.144624 232.505077,192.685062 232.005568,192.44529 C231.665902,192.24548 231.146413,192.145576 230.467082,192.145576 C229.308221,192.145576 228.229283,192.325404 227.270226,192.665081 C226.93056,192.804948 226.630855,192.964795 226.35113,193.144624 L226.291189,193.024738 L226.291189,193.024738 C226.191287,192.804948 226.031444,192.6451 225.831641,192.565176 C225.731739,192.545195 225.611857,192.525214 225.452014,192.525214 C225.272191,192.525214 225.132329,192.625119 225.012447,192.784967 C224.872584,192.924833 224.792663,193.0647 224.772683,193.204567 C225.012447,193.784015 225.292172,194.483349 225.631838,195.32255 C225.75172,195.682207 225.831641,196.041865 225.891582,196.36156 C225.851621,196.36156 225.79168,196.36156 225.75172,196.381541 C225.511955,196.481446 225.392073,196.641294 225.392073,196.861085 C225.392073,197.140818 225.432034,197.38059 225.531936,197.540438 C225.651818,197.740247 225.811661,197.840152 225.971503,197.840152 Z M227.170324,196.121789 C227.110383,195.762131 226.990501,195.282588 226.810678,194.643197 C226.770717,194.543292 226.750737,194.463368 226.750737,194.383444 C226.95054,194.30352 227.290206,194.183635 227.769735,194.063749 C228.269243,193.823977 228.768752,193.704091 229.24828,193.664129 C229.747789,193.504282 230.187357,193.424358 230.566983,193.424358 C231.086472,193.424358 231.346217,193.584206 231.386178,193.903901 C231.386178,194.223597 231.026531,194.70314 230.307239,195.362512 C230.287258,195.362512 230.267278,195.402474 230.247298,195.442436 C229.488045,195.622265 228.64887,195.822074 227.729774,196.021884 C227.549951,196.041865 227.370128,196.081827 227.170324,196.121789 Z M247.270554,197.040913 C247.450377,197.040913 247.65018,196.941009 247.849984,196.781161 C248.009826,196.501427 248.22961,196.101808 248.509335,195.602284 C249.188667,194.043768 249.748117,192.525214 250.187684,191.00666 C250.267606,190.686965 250.367507,190.367269 250.447429,190.027593 C251.366525,191.666032 252.385522,193.124643 253.524402,194.403425 C254.783164,195.862036 255.822142,196.661275 256.661317,196.801142 C257.160825,196.801142 257.42057,196.621313 257.42057,196.281637 C257.42057,196.121789 257.280708,195.961941 257.000983,195.822074 C256.041926,195.062797 255.14281,194.183635 254.283655,193.184586 C252.80511,191.426261 251.766132,189.847764 251.166721,188.489058 C251.06682,188.369172 250.946937,188.229305 250.827055,188.089439 C251.06682,186.710752 251.186702,185.332065 251.226662,183.973359 L251.226662,183.413892 C251.226662,183.413892 251.206682,183.393911 251.206682,183.353949 C252.165739,182.954329 253.244677,182.394862 254.463479,181.655566 C254.023911,183.094196 253.38454,184.333016 252.505405,185.332065 C252.285621,185.531874 252.145758,185.691722 252.065837,185.831589 C251.945955,185.951475 251.905994,186.071361 251.905994,186.191246 C251.905994,186.530923 252.105798,186.690771 252.465444,186.690771 C252.625287,186.67079 252.82509,186.550904 253.064854,186.351094 C253.864068,185.691722 254.483459,184.952426 254.943007,184.133206 C255.262692,183.573739 255.522437,182.934348 255.72224,182.254995 C255.842123,181.835395 255.902064,181.435775 255.902064,181.076118 C255.882083,180.676499 255.662299,180.436727 255.222732,180.356803 L254.863085,180.356803 C254.503439,180.396765 254.003931,180.576594 253.38454,180.856327 C252.545365,181.31589 251.806092,181.695528 251.186702,181.975262 C250.027841,182.55471 249.308549,182.834443 248.988863,182.834443 C248.829021,182.834443 248.729119,182.794481 248.709139,182.674596 C248.709139,182.514748 248.78906,182.015224 248.968883,181.176023 C249.068785,180.576594 249.148706,180.077069 249.188667,179.717412 C249.188667,179.497621 249.148706,179.357755 249.108745,179.277831 C248.988863,179.157945 248.849001,179.05804 248.669178,179.018078 C248.609237,179.018078 248.529315,178.998097 248.449394,178.998097 C248.20963,178.998097 248.009826,179.137964 247.849984,179.377735 C247.710121,179.857279 247.590239,180.376784 247.470357,180.936251 C247.310514,181.715509 247.230593,182.274976 247.230593,182.634634 C247.230593,183.633682 247.710121,184.133206 248.709139,184.133206 C248.988863,184.133206 249.36849,184.073264 249.828038,183.913416 L249.828038,184.053283 C249.768097,186.171265 249.548313,188.10942 249.148706,189.907707 C248.749099,191.62607 248.309532,193.084681 247.830003,194.283539 C247.590239,194.90295 247.410416,195.482398 247.250573,196.041865 C247.07075,196.301618 246.990829,196.501427 246.990829,196.661275 C246.990829,196.901047 247.07075,197.040913 247.270554,197.040913 Z M239.877825,194.283539 C240.017688,194.283539 240.15755,194.243578 240.317393,194.183635 C240.517196,194.103711 240.697019,193.983825 240.876842,193.803996 C241.256469,193.404377 241.616115,192.964795 241.975762,192.465271 C242.375368,191.985728 242.754995,191.426261 243.134622,190.78687 C243.554209,191.126546 243.993777,191.446242 244.473305,191.765937 C244.992794,192.145576 245.452342,192.44529 245.871929,192.6451 C246.011792,192.745005 246.131674,192.784967 246.231575,192.784967 L246.331477,192.784967 C246.47134,192.745005 246.551261,192.605138 246.551261,192.365366 C246.551261,192.185538 246.47134,192.005709 246.331477,191.82588 C245.89191,191.346337 245.432362,190.886775 244.912873,190.447193 C244.553226,190.147479 244.19358,189.827783 243.833934,189.488107 C244.073698,189.028544 244.273501,188.549001 244.453325,188.029496 C244.872912,186.930542 245.172617,185.911513 245.372421,184.992388 C245.532263,184.293054 245.632165,183.733587 245.632165,183.294006 C245.632165,182.994291 245.532263,182.75452 245.35244,182.55471 C245.172617,182.394862 244.912873,182.294957 244.573207,182.274976 C244.413364,182.294957 244.233541,182.3549 243.993777,182.434824 C243.554209,182.634634 243.114641,182.834443 242.675074,183.014272 C242.335408,183.134158 241.955781,183.234063 241.536194,183.353949 C241.136587,183.473834 240.876842,183.553758 240.796921,183.613701 C240.557157,183.753568 240.457255,183.933397 240.457255,184.173168 C240.457255,184.372978 240.577137,184.572788 240.796921,184.772598 C240.896823,184.892483 241.056666,184.952426 241.276449,184.952426 C241.476253,184.952426 241.716017,184.892483 242.015722,184.752617 C242.774975,184.472883 243.494268,184.113225 244.1736,183.713606 C243.973796,184.992388 243.694071,186.171265 243.294464,187.250238 C243.134622,187.689819 242.994759,188.10942 242.834916,188.489058 C242.675074,188.349191 242.515231,188.189343 242.375368,188.029496 C242.095644,187.749762 241.855879,187.529971 241.676056,187.370124 C241.556174,187.2902 241.396331,187.230257 241.236489,187.210276 C241.116607,187.210276 241.016705,187.230257 240.936783,187.250238 C240.796921,187.310181 240.677039,187.390105 240.557157,187.50999 C240.437275,187.689819 240.377334,187.829686 240.377334,187.949572 C240.377334,188.049477 240.397314,188.149382 240.477236,188.249286 C240.537177,188.369172 240.697019,188.568982 240.956764,188.848716 C241.31641,189.228354 241.716017,189.588011 242.135604,189.947669 C241.89584,190.38725 241.676056,190.766889 241.456273,191.126546 C241.096626,191.725975 240.457255,192.505233 239.57812,193.484301 C239.498198,193.604186 239.458238,193.744053 239.458238,193.903901 C239.458238,194.123692 239.5981,194.243578 239.877825,194.283539 Z M275.942352,197.900095 C276.102195,197.880114 276.282018,197.820171 276.481821,197.740247 C276.781526,197.520457 276.941369,197.280685 276.941369,197.040913 C276.881428,194.523311 276.861448,192.2255 276.861448,190.067555 C276.861448,188.549001 276.901408,186.710752 277.00131,184.572788 C277.081232,183.353949 277.141173,182.454805 277.141173,181.875357 C277.141173,181.156042 277.041271,180.596575 276.881428,180.176974 C276.661644,179.617507 276.44186,179.317793 276.202096,179.317793 C276.082214,179.317793 275.922371,179.357755 275.702588,179.417697 C274.863413,179.737393 274.064199,180.017127 273.264985,180.236917 C271.706518,180.69648 270.487717,180.91627 269.608582,180.91627 C269.648542,180.756422 269.888307,180.057088 270.327874,178.85823 C270.447756,178.458611 270.527678,178.178877 270.527678,177.999049 C270.527678,177.719315 270.427776,177.539486 270.267933,177.4196 C270.148051,177.339676 270.028169,177.279734 269.928267,177.279734 C269.608582,177.279734 269.388798,177.379638 269.228955,177.579448 C268.869309,178.978116 268.449722,180.176974 267.930233,181.196004 C267.930233,181.555661 267.990174,181.835395 268.150016,182.015224 C268.309859,182.294957 268.629545,182.454805 269.089093,182.494767 L269.348837,182.494767 C269.868326,182.494767 270.527678,182.414843 271.306911,182.215033 C272.126105,182.015224 272.925319,181.775452 273.724533,181.515699 C274.843433,181.11608 275.482804,180.896289 275.602686,180.896289 C275.702588,180.896289 275.762529,181.215985 275.762529,181.835395 C275.642647,184.033302 275.582706,185.871551 275.542745,187.350143 C275.502784,188.289248 275.502784,189.068506 275.502784,189.687916 C275.502784,192.525214 275.582706,194.743102 275.722568,196.421503 C275.462823,196.341579 274.603669,195.722169 273.165084,194.563273 C272.9453,194.363463 272.745496,194.283539 272.565673,194.283539 C272.285948,194.283539 272.166066,194.423406 272.166066,194.70314 C272.166066,194.882969 272.226007,195.062797 272.345889,195.242626 C272.905339,196.041865 273.464789,196.661275 274.004258,197.100856 C274.68359,197.620362 275.322961,197.880114 275.942352,197.900095 Z M261.636423,195.142721 C261.796266,195.102759 261.976089,195.082778 262.135932,195.042816 C263.094989,194.783064 264.054045,194.50333 265.013102,194.183635 C265.412709,194.543292 265.792335,194.723121 266.132001,194.723121 C266.851294,194.683159 267.21094,194.463368 267.21094,194.023787 L267.091058,192.944814 L266.851294,186.47098 C266.771372,185.471931 266.511628,184.792578 266.0321,184.472883 C265.752375,184.273073 265.352768,184.173168 264.833279,184.173168 C264.293809,184.193149 263.634458,184.372978 262.855224,184.692674 C262.935146,183.79353 262.995087,183.134158 262.995087,182.734539 C262.995087,182.534729 262.975106,182.334919 262.935146,182.135109 C264.413691,181.695528 265.47265,181.235966 266.112021,180.796384 C266.271864,180.676499 266.371765,180.476689 266.371765,180.236917 C266.331805,180.156993 266.311824,180.057088 266.271864,179.957184 C266.151982,179.797336 265.992139,179.697431 265.792335,179.697431 C265.732394,179.697431 265.672453,179.717412 265.592532,179.717412 C264.673436,180.137012 263.594497,180.456708 262.375696,180.69648 C261.776286,180.816365 261.216836,180.876308 260.697347,180.91627 C260.377661,180.996194 260.237799,181.215985 260.237799,181.575642 C260.237799,181.815414 260.337701,182.035205 260.537504,182.215033 C260.697347,182.414843 260.917131,182.494767 261.176875,182.494767 C261.236816,182.494767 261.316738,182.494767 261.416639,182.474786 C261.416639,182.55471 261.43662,182.654615 261.4566,182.7745 C261.4566,183.353949 261.43662,183.893435 261.43662,184.41294 C261.376679,185.411989 261.336718,186.351094 261.336718,187.230257 C261.296757,188.10942 261.296757,189.068506 261.296757,190.107517 C261.296757,191.646051 261.316738,192.84491 261.356698,193.724072 L261.236816,193.744053 L261.236816,193.744053 C261.037013,193.903901 260.917131,194.063749 260.917131,194.263559 C260.917131,194.623216 261.096954,194.922931 261.496561,195.142721 L261.636423,195.142721 Z M262.5755,189.827783 C262.61546,188.549001 262.635441,187.769743 262.635441,187.49001 C262.635441,187.150333 262.675401,186.730733 262.715362,186.251189 C262.915165,186.131304 263.114969,186.011418 263.354733,185.891532 C263.914183,185.65176 264.293809,185.531874 264.533574,185.531874 C265.073043,185.531874 265.392728,185.831589 265.47265,186.431018 C265.512611,187.150333 265.532591,187.929591 265.572552,188.788773 C265.45267,188.828735 265.292827,188.868696 265.093023,188.94862 C264.373731,189.248335 263.73436,189.468126 263.214871,189.627973 C263.055028,189.687916 262.855224,189.747859 262.5755,189.827783 Z M273.025221,189.947669 C273.225025,189.887726 273.344907,189.707897 273.344907,189.388202 C273.344907,189.14843 273.225025,188.908658 273.025221,188.688868 C272.785457,188.52902 272.505732,188.349191 272.186047,188.169363 C271.686538,187.90961 271.207009,187.609895 270.727481,187.2902 C270.567638,187.210276 270.447756,187.130352 270.327874,187.09039 C270.188012,186.990485 270.048149,186.930542 269.908287,186.910561 C269.788405,186.910561 269.668523,186.930542 269.588601,186.950523 C269.428759,186.990485 269.308877,187.070409 269.208975,187.190295 C269.089093,187.370124 269.029152,187.529971 269.029152,187.649857 C269.029152,187.769743 269.049132,187.869648 269.129053,187.989534 C269.169014,188.029496 269.248935,188.089439 269.408778,188.209324 C270.06813,188.688868 270.787422,189.088487 271.566656,189.428164 C271.866361,189.588011 272.146086,189.707897 272.40583,189.807802 C272.605634,189.907707 272.765477,189.947669 272.865378,189.947669 L273.025221,189.947669 Z M262.655421,193.444339 C262.635441,192.745005 262.61546,192.02569 262.59548,191.286394 C262.675401,191.286394 262.775303,191.266413 262.875205,191.226451 C263.454635,191.086584 264.113986,190.846813 264.833279,190.487155 C265.093023,190.38725 265.352768,190.247383 265.612512,190.087536 C265.612512,190.866794 265.632493,191.705994 265.632493,192.605138 C265.512611,192.6451 265.372748,192.685062 265.212905,192.745005 C264.493613,192.984776 263.634458,193.224548 262.655421,193.444339 Z M289.62889,178.778306 C289.828693,178.778306 290.028497,178.718363 290.268261,178.578497 C290.488045,178.418649 290.607927,178.198858 290.607927,177.959087 C290.607927,177.759277 290.528005,177.659372 290.368162,177.61941 C289.369145,177.459562 288.689813,177.339676 288.310187,177.239772 C287.95054,177.239772 287.790698,177.159848 287.790698,177 C287.411071,177.039962 287.111366,177.179829 286.891582,177.4196 C286.731739,177.579448 286.671798,177.719315 286.671798,177.799239 C286.671798,178.258801 286.831641,178.538535 287.151327,178.618459 C288.010481,178.738344 288.829676,178.778306 289.62889,178.778306 Z M283.514903,183.513796 C283.794628,183.513796 284.014412,183.413892 284.154274,183.214082 C284.234196,183.154139 284.294137,183.054234 284.354078,182.894386 C284.47396,182.694577 284.573862,182.474786 284.653783,182.235014 C284.733705,181.915319 284.773665,181.615604 284.773665,181.31589 C284.933508,181.31589 285.133311,181.295909 285.373076,181.215985 C289.489027,180.216936 292.046512,179.657469 293.065509,179.537583 C292.905667,179.777355 292.745824,180.017127 292.54602,180.216936 C292.386178,180.356803 292.306256,180.49667 292.306256,180.616556 C292.306256,180.69648 292.326236,180.776403 292.386178,180.856327 C292.466099,180.976213 292.566001,181.036156 292.705863,181.036156 C292.825745,181.036156 292.985588,180.976213 293.165411,180.856327 C293.285293,180.796384 293.405175,180.716461 293.545038,180.616556 C294.564035,179.87726 295.083524,179.277831 295.083524,178.838249 C295.083524,178.598478 294.923682,178.398668 294.643957,178.258801 C294.524075,178.23882 294.384212,178.218839 294.224369,178.218839 C293.66492,178.218839 292.705863,178.358706 291.38716,178.618459 C288.549951,179.137964 286.392073,179.577545 284.953488,179.937203 C284.853587,179.977165 284.753685,180.017127 284.653783,180.057088 C284.633803,180.057088 284.633803,180.017127 284.633803,179.977165 C284.513921,179.777355 284.374058,179.617507 284.254176,179.497621 C284.134294,179.377735 283.974451,179.317793 283.794628,179.317793 C283.594825,179.337774 283.454962,179.397716 283.375041,179.497621 C283.195218,179.637488 283.115296,179.837298 283.115296,180.117031 C283.115296,180.196955 283.155257,180.29686 283.235179,180.456708 C283.33508,180.736441 283.395021,181.136061 283.395021,181.615604 C283.395021,181.775452 283.375041,181.9353 283.33508,182.095147 C283.29512,182.334919 283.215198,182.534729 283.135277,182.734539 C283.075336,182.854424 283.035375,182.954329 283.035375,183.034253 C283.035375,183.333968 283.195218,183.493815 283.514903,183.513796 Z M286.272191,195.182683 C286.432034,195.182683 286.611857,195.102759 286.811661,194.942912 C286.911562,194.783064 286.971503,194.623216 286.971503,194.423406 C286.931543,194.123692 286.911562,193.843958 286.911562,193.544244 C286.931543,192.904853 286.951523,192.545195 286.951523,192.44529 C286.991484,192.185538 287.051425,191.82588 287.171307,191.386299 C287.211268,191.146527 287.251228,190.926736 287.291189,190.726927 C287.431051,190.686965 287.610875,190.607041 287.810678,190.507136 C288.290206,190.307326 288.889617,190.147479 289.588929,190.027593 C290.268261,189.907707 290.707828,189.827783 290.927612,189.827783 C291.307239,189.827783 291.547003,189.867745 291.646905,189.947669 C291.726826,190.067555 291.766787,190.247383 291.766787,190.487155 C291.766787,190.607041 291.766787,190.966698 291.806747,191.586108 C291.806747,192.2255 291.826728,192.884872 291.826728,193.584206 C291.826728,193.983825 291.92663,194.263559 292.106453,194.403425 C292.246315,194.583254 292.426138,194.683159 292.665902,194.683159 C293.045529,194.683159 293.245332,194.363463 293.245332,193.724072 C293.225352,193.184586 293.225352,192.625119 293.225352,192.065652 C293.225352,191.865842 293.205372,191.466223 293.205372,190.906755 C293.165411,190.367269 293.165411,190.027593 293.165411,189.887726 C293.165411,189.088487 292.486079,188.688868 291.167376,188.668887 C290.627907,188.688868 290.108418,188.748811 289.608909,188.828735 C289.08942,188.94862 288.549951,189.068506 288.030462,189.14843 C287.690796,189.228354 287.391091,189.328259 287.111366,189.428164 C286.991484,189.268316 286.851621,189.14843 286.691779,189.088487 C286.731739,189.048525 286.7717,188.968601 286.851621,188.888677 C287.131346,188.549001 287.311169,188.269267 287.391091,188.029496 C287.391091,187.989534 287.411071,187.949572 287.411071,187.869648 C288.370128,187.669838 289.349165,187.450048 290.308221,187.230257 L290.328202,187.270219 C291.527023,187.889629 292.705863,188.449096 293.864723,188.968601 L297.241402,190.447193 C297.441205,190.607041 297.601048,190.666984 297.72093,190.666984 C297.840812,190.666984 297.940714,190.627022 298.060596,190.507136 C298.240419,190.307326 298.340321,190.127498 298.340321,189.96765 L298.320341,189.787821 L298.320341,189.787821 C298.240419,189.56803 298.120537,189.388202 297.960694,189.248335 C297.021618,188.808754 295.882738,188.309229 294.544055,187.789724 C293.545038,187.390105 292.725843,187.070409 292.086472,186.830637 C293.385195,186.510942 294.364232,186.191246 295.043564,185.891532 C295.183426,185.731684 295.263348,185.591817 295.263348,185.43197 C295.243367,185.352046 295.183426,185.272122 295.063544,185.192198 C294.983623,185.132255 294.863741,185.092293 294.743858,185.092293 C294.384212,185.092293 293.764821,185.23216 292.885686,185.471931 C292.106453,185.671741 291.267278,185.891532 290.388143,186.091342 C290.528005,185.711703 290.667868,185.292103 290.80773,184.852521 C291.467082,184.712655 291.986571,184.552807 292.366197,184.392959 C292.486079,184.233111 292.566001,184.073264 292.566001,183.913416 C292.54602,183.813511 292.486079,183.733587 292.386178,183.653663 C292.286276,183.613701 292.166394,183.573739 292.046512,183.573739 C291.846708,183.573739 291.507042,183.653663 291.027514,183.773549 C291.087455,183.413892 291.127416,183.074215 291.127416,182.734539 C291.92663,182.534729 292.54602,182.334919 292.985588,182.135109 C293.12545,181.975262 293.205372,181.835395 293.205372,181.695528 C293.185391,181.595623 293.12545,181.515699 293.005568,181.435775 C292.905667,181.375833 292.785784,181.335871 292.665902,181.335871 C292.466099,181.335871 292.086472,181.415794 291.527023,181.575642 C291.36718,181.635585 291.227317,181.675547 291.067475,181.695528 C291.027514,181.515699 290.987553,181.335871 290.907632,181.156042 C290.80773,180.956232 290.707828,180.816365 290.587946,180.69648 C290.468064,180.596575 290.328202,180.536632 290.168359,180.536632 C289.968556,180.576594 289.848673,180.616556 289.768752,180.69648 C289.608909,180.836346 289.548968,181.036156 289.548968,181.275928 C289.548968,181.355852 289.588929,181.475737 289.688831,181.615604 C289.728791,181.73549 289.768752,181.855376 289.808713,182.015224 C289.009499,182.215033 288.150344,182.394862 287.191287,182.55471 C287.171307,182.474786 287.151327,182.394862 287.131346,182.294957 C287.031444,181.795433 286.811661,181.53568 286.452014,181.53568 L286.21225,181.53568 C285.872584,181.655566 285.712742,181.915319 285.712742,182.334919 C285.732722,182.454805 285.752702,182.534729 285.772683,182.574691 C285.772683,182.634634 285.792663,182.714558 285.832624,182.814462 C285.712742,182.834443 285.572879,182.854424 285.413036,182.874405 C285.093351,182.914367 284.853587,182.97431 284.673764,183.034253 C284.513921,183.154139 284.433999,183.274025 284.433999,183.413892 C284.433999,183.693625 284.553881,183.893435 284.833606,184.013321 L284.953488,184.013321 C285.253194,183.99334 285.532918,183.953378 285.772683,183.893435 C285.872584,183.893435 285.992466,183.873454 286.132329,183.833492 C286.232231,184.193149 286.312152,184.492864 286.352113,184.712655 C286.352113,184.732636 286.352113,184.752617 286.372093,184.772598 C286.132329,184.812559 285.892565,184.872502 285.63282,184.912464 C285.353095,184.952426 285.153292,184.992388 284.993449,185.03235 C284.833606,185.152236 284.753685,185.272122 284.753685,185.392008 C284.753685,185.671741 284.873567,185.891532 285.153292,186.031399 L285.293154,186.031399 C285.532918,186.011418 285.772683,185.971456 286.032427,185.911513 C286.19227,185.891532 286.372093,185.85157 286.551916,185.811608 C286.571896,186.011418 286.611857,186.211227 286.651818,186.411037 C286.671798,186.610847 286.691779,186.750714 286.731739,186.870599 C285.552899,187.110371 284.314117,187.330162 283.035375,187.529971 C282.555847,187.609895 282.17622,187.669838 281.896495,187.749762 C281.716672,187.869648 281.61677,188.009515 281.61677,188.149382 C281.61677,188.449096 281.756633,188.668887 282.076318,188.828735 L282.17622,188.828735 C282.655748,188.788773 283.095316,188.72883 283.534884,188.628925 C284.294137,188.509039 285.03341,188.349191 285.792663,188.189343 C284.713724,189.56803 283.3151,190.846813 281.636751,192.02569 C281.476908,192.185538 281.396987,192.365366 281.396987,192.525214 C281.436947,192.84491 281.61677,192.984776 281.936456,192.984776 C282.056338,192.984776 282.1962,192.944814 282.356043,192.864891 C282.675729,192.745005 283.035375,192.545195 283.434982,192.265461 C284.034392,191.82588 284.773665,191.146527 285.652801,190.227402 C285.672781,190.327307 285.692761,190.427212 285.712742,190.507136 C285.712742,190.746908 285.692761,190.966698 285.692761,191.166508 C285.63282,191.586108 285.592859,191.965747 285.592859,192.325404 C285.552899,192.685062 285.552899,193.0647 285.552899,193.484301 C285.552899,193.88392 285.552899,194.143673 285.592859,194.343482 C285.61284,194.623216 285.692761,194.843007 285.812643,195.002854 C285.932525,195.12274 286.072388,195.182683 286.272191,195.182683 Z M287.550934,184.552807 C287.510973,184.313035 287.471012,184.013321 287.431051,183.653663 C287.431051,183.653663 287.411071,183.613701 287.411071,183.573739 C288.230265,183.413892 289.04946,183.234063 289.848673,183.034253 C289.848673,183.353949 289.808713,183.693625 289.768752,184.093245 C289.08942,184.273073 288.350147,184.432921 287.550934,184.552807 Z M287.730757,186.650809 C287.730757,186.490961 287.710776,186.231208 287.690796,185.911513 C287.670816,185.831589 287.670816,185.711703 287.670816,185.571836 C288.270226,185.451951 288.869636,185.312084 289.509008,185.172217 C289.429086,185.411989 289.349165,185.65176 289.249263,185.891532 C289.169342,186.071361 289.129381,186.231208 289.08942,186.371075 C288.649853,186.47098 288.210285,186.570885 287.730757,186.650809 Z M286.152309,198 C286.312152,198 286.491975,197.920076 286.691779,197.780209 C287.131346,197.560419 287.550934,197.300666 287.91058,197.000951 C288.50999,196.56137 289.029479,196.041865 289.449066,195.442436 C290.048477,194.483349 290.368162,193.46432 290.368162,192.385347 C290.368162,192.145576 290.308221,191.905804 290.20832,191.646051 C290.088438,191.126546 289.828693,190.846813 289.409106,190.846813 C288.889617,190.946717 288.629872,191.246432 288.629872,191.725975 C288.789715,192.125595 288.889617,192.485252 288.889617,192.804948 C288.889617,193.68411 288.629872,194.463368 288.130364,195.142721 C287.790698,195.582303 287.431051,195.961941 287.051425,196.281637 C286.711759,196.56137 286.352113,196.821123 285.972486,197.060894 C285.792663,197.260704 285.712742,197.400571 285.712742,197.480495 C285.712742,197.80019 285.852604,197.960038 286.152309,198 Z M294.084507,197.760228 C294.344252,197.680304 294.484114,197.520457 294.524075,197.240723 C294.524075,197.040913 294.464134,196.861085 294.364232,196.701237 C293.6849,196.261656 293.08549,195.842055 292.54602,195.462417 C292.186374,195.242626 291.92663,195.082778 291.766787,194.982873 C291.606944,194.783064 291.38716,194.70314 291.147396,194.70314 C290.707828,194.783064 290.488045,194.982873 290.468064,195.32255 C290.468064,195.442436 290.488045,195.582303 290.567966,195.762131 C290.647887,195.842055 290.767769,195.961941 290.967573,196.081827 C292.166394,196.921028 293.025549,197.440533 293.545038,197.600381 C293.70488,197.700285 293.884704,197.760228 294.084507,197.760228 Z M314.4245,197.620362 C314.804127,197.620362 315.003931,197.140818 315.043891,196.181732 C315.043891,195.631145 315.059678,194.922684 315.063186,194.056348 L315.063872,189.028544 C315.063872,188.568982 315.043891,188.10942 315.043891,187.669838 C315.863085,187.310181 316.542417,187.010466 317.101867,186.730733 C317.381592,186.590866 317.521454,186.411037 317.521454,186.211227 C317.521454,186.171265 317.481494,186.091342 317.441533,185.991437 C317.561415,185.831589 317.701277,185.611798 317.86112,185.372027 C318.140845,184.952426 318.40059,184.452902 318.640354,183.873454 C318.880118,183.274025 319,182.814462 319,182.494767 C319,182.254995 318.900098,182.035205 318.700295,181.835395 C318.500491,181.655566 318.140845,181.555661 317.661317,181.555661 C317.141828,181.555661 316.542417,181.615604 315.863085,181.695528 C315.56338,181.73549 315.263675,181.795433 314.98395,181.835395 C314.98395,181.455756 314.96397,181.056137 314.96397,180.636537 C314.94399,179.67745 314.924009,178.898192 314.924009,178.318744 C314.884048,177.799239 314.644284,177.539486 314.164756,177.539486 C313.964953,177.539486 313.80511,177.599429 313.685228,177.699334 C313.405503,177.899144 313.26564,178.118934 313.26564,178.358706 C313.26564,179.757374 313.285621,180.676499 313.305601,181.136061 C313.305601,181.495718 313.325581,181.875357 313.345562,182.235014 C313.205699,182.274976 313.065837,182.314938 312.925974,182.3549 C312.006878,182.634634 311.367507,182.894386 310.987881,183.134158 C310.987881,183.134158 310.9679,183.154139 310.94792,183.17412 C310.867999,183.074215 310.748117,182.994291 310.608254,182.934348 C310.488372,182.894386 310.328529,182.874405 310.168687,182.874405 C309.948903,182.874405 309.76908,182.97431 309.609237,183.17412 C309.489355,183.333968 309.409433,183.513796 309.369473,183.673644 C309.649198,184.372978 310.028824,185.252141 310.468392,186.291151 C310.728136,187.030447 310.887979,187.649857 310.94792,188.129401 C310.94792,188.389153 311.067802,188.549001 311.267606,188.628925 C311.267606,188.688868 311.287586,188.72883 311.307566,188.748811 C311.427448,188.908658 311.567311,188.988582 311.687193,189.008563 L311.867016,189.008563 C311.986898,189.008563 312.446446,188.828735 313.26564,188.469077 C313.345562,188.449096 313.445463,188.409134 313.525385,188.349191 C313.605306,190.58706 313.645267,192.425309 313.665247,193.903901 C313.665247,194.723121 313.685228,195.502379 313.765149,196.221694 C313.80511,197.140818 314.024894,197.620362 314.4245,197.620362 Z M306.292499,179.977165 C307.251556,179.977165 307.771045,179.757374 307.830986,179.317793 C307.830986,179.117983 307.671143,178.978116 307.351458,178.878211 L304.01474,177.799239 C303.575172,177.879163 303.355388,178.118934 303.335408,178.518554 C303.335408,178.958135 303.45529,179.237869 303.735015,179.337774 C304.833934,179.777355 305.693089,179.977165 306.292499,179.977165 Z M305.1736,197.080875 C306.012774,197.040913 306.452342,196.541389 306.492303,195.582303 C306.412381,193.104662 306.35244,190.846813 306.31248,188.848716 C306.35244,188.928639 306.412381,188.988582 306.472322,189.028544 C307.111693,189.667935 307.571241,189.987631 307.870947,189.987631 C308.030789,189.987631 308.150671,189.96765 308.250573,189.907707 C308.330495,189.867745 308.390436,189.807802 308.470357,189.687916 C308.530298,189.607992 308.570259,189.528069 308.610219,189.408183 C308.610219,189.228354 308.530298,189.108468 308.410416,189.028544 C307.830986,188.668887 307.231575,187.949572 306.632165,186.910561 C306.472322,186.710752 306.35244,186.530923 306.252538,186.371075 C306.232558,185.771646 306.212578,185.172217 306.212578,184.572788 C307.231575,184.113225 308.09073,183.573739 308.770062,182.934348 C308.969866,182.694577 309.089748,182.494767 309.089748,182.374881 C309.089748,182.294957 309.069767,182.195052 309.049787,182.095147 C308.969866,181.975262 308.849984,181.895338 308.690141,181.895338 C308.570259,181.895338 308.470357,181.915319 308.350475,181.955281 C308.05077,182.035205 307.611202,182.235014 307.031772,182.514748 C306.732067,182.674596 306.432362,182.814462 306.152637,182.934348 C306.152637,182.674596 306.132656,182.414843 306.132656,182.135109 C306.092696,181.515699 305.812971,181.196004 305.293482,181.196004 C304.973796,181.235966 304.773993,181.435775 304.694071,181.835395 L304.694071,182.115128 C304.694071,182.614653 304.714052,183.114177 304.754012,183.613701 C304.254504,183.833492 303.794956,184.033302 303.375368,184.193149 C302.935801,184.352997 302.29643,184.592769 301.457255,184.912464 C301.097609,185.03235 300.897805,185.23216 300.897805,185.491912 C300.897805,185.771646 300.937766,185.991437 301.057648,186.151284 C301.17753,186.331113 301.337373,186.411037 301.537177,186.411037 C301.657059,186.411037 301.856862,186.371075 302.096626,186.291151 C302.855879,186.111323 303.675074,185.811608 304.554209,185.392008 C303.754995,187.549952 302.835899,189.428164 301.75696,191.026641 C301.517196,191.346337 301.397314,191.586108 301.397314,191.725975 C301.417294,192.085633 301.597118,192.265461 301.956764,192.265461 C302.056666,192.265461 302.176548,192.2255 302.29643,192.105614 C302.89584,191.646051 303.754995,190.327307 304.873895,188.129401 C304.933836,190.726927 304.973796,193.224548 304.993777,195.642245 C304.674091,195.642245 304.374386,195.482398 304.114641,195.202664 C303.754995,194.843007 303.395349,194.683159 303.055683,194.683159 C303.055683,196.201713 303.754995,197.000951 305.1736,197.080875 Z M315.043891,186.091342 L315.023911,184.532826 L315.023911,184.532826 L315.023911,183.313987 C316.262692,183.034253 317.081887,182.894386 317.461513,182.894386 C317.241729,183.533777 316.962005,184.113225 316.622339,184.652712 C316.422535,185.012369 316.202751,185.352046 315.962987,185.65176 C315.923027,185.691722 315.903046,185.731684 315.903046,185.771646 C315.863085,185.771646 315.843105,185.791627 315.823125,185.791627 C315.5434,185.891532 315.283655,185.991437 315.043891,186.091342 Z M312.126761,187.390105 C312.06682,186.950523 311.926957,186.311132 311.727154,185.471931 C311.627252,185.092293 311.54733,184.752617 311.467409,184.432921 C311.487389,184.432921 311.50737,184.432921 311.52735,184.41294 C312.10678,184.153187 312.726171,183.913416 313.405503,183.713606 C313.425483,184.792578 313.445463,185.791627 313.485424,186.710752 C312.945955,186.970504 312.486407,187.190295 312.126761,187.390105 Z" id="点击此处选择您喜欢的赛种"></path>
        </g>
    </g>
</svg>