<?xml version="1.0" encoding="UTF-8"?>
<svg width="83px" height="36px" viewBox="0 0 83 36" version="1.1" xmlns="http://www.w3.org/2000/svg" xmlns:xlink="http://www.w3.org/1999/xlink">
    <!-- Generator: Sketch 61.2 (89653) - https://sketch.com -->
    <title>编组</title>
    <desc>Created with Sketch.</desc>
    <g id="页面-1" stroke="none" stroke-width="1" fill="none" fill-rule="evenodd">
        <g id="画板" transform="translate(-157.000000, -217.000000)">
            <path d="M192.26,244.72 C193.1,244.72 193.68,244.36 194.04,243.66 C194.2,243.28 194.3,242.76 194.3,242.08 C194.3,241.2 194.24,239.9 194.14,238.2 C194.12,237.8 194.08,237.42 194.04,237.04 C194.6,237 195.2,236.92 195.84,236.82 C196.34,236.76 196.7,236.7 196.94,236.64 C197.38,236.56 197.68,236.5 197.82,236.42 C198.06,236.3 198.2,236.14 198.2,235.94 C198.16,235.7 198.06,235.46 197.9,235.22 C197.82,235.08 197.7,235 197.5,234.98 C197.34,235 197.1,235.06 196.74,235.16 C196.54,235.2 196.28,235.26 196,235.34 C195.42,235.44 194.66,235.54 193.7,235.64 C193.52,235.22 193.3,234.84 193.06,234.52 C192.76,234.12 192.46,233.76 192.14,233.48 C193.46,231.6 194.14,230.1 194.14,228.96 C194.14,228.5 193.96,228.1 193.64,227.74 C192.94,227.08 191.96,226.7 190.7,226.6 C190.36,226.6 190.14,226.66 190.02,226.74 C189.74,226.94 189.62,227.16 189.62,227.44 C189.62,227.94 189.92,228.2 190.52,228.22 C191.72,228.34 192.44,228.64 192.66,229.12 C192.66,229.36 192.6,229.6 192.5,229.84 C192.28,230.32 192.04,230.78 191.8,231.2 C191.42,231.8 191.14,232.3 190.98,232.7 C190.82,233.06 190.76,233.36 190.76,233.62 C190.76,233.84 190.84,234.02 190.98,234.18 C191.5,234.68 191.88,235.22 192.16,235.78 C190.9,235.86 189.7,236.02 188.56,236.26 C188.12,236.34 187.76,236.44 187.5,236.54 C187.14,236.66 186.9,236.8 186.76,236.92 C186.6,237.08 186.52,237.28 186.52,237.56 C186.58,238.06 186.78,238.32 187.12,238.34 C187.4,238.34 187.72,238.26 188.08,238.1 C188.52,237.94 188.92,237.84 189.28,237.78 C190.12,237.56 191.22,237.38 192.54,237.24 C192.68,238.18 192.78,239.28 192.82,240.52 C192.86,241.36 192.88,242.02 192.88,242.54 C192.88,243.02 192.68,243.28 192.3,243.28 C192.06,243.24 191.68,243.1 191.14,242.86 C190.54,242.54 190.08,242.36 189.72,242.32 C189.42,242.32 189.28,242.36 189.28,242.48 C189.28,242.6 189.32,242.74 189.44,242.92 C189.96,243.68 190.6,244.2 191.32,244.48 C191.68,244.64 192,244.72 192.26,244.72 Z M182.06,243.76 C182.28,243.76 182.5,243.7 182.74,243.6 C183.14,243.32 183.58,242.88 184.02,242.26 C184.1,242.16 184.16,242.04 184.24,241.92 C184.72,242.12 185.12,242.24 185.44,242.26 C185.88,242.26 186.14,242.04 186.22,241.6 C186.22,241.44 186.1,241.32 185.9,241.2 C185.64,241.04 185.32,240.86 184.96,240.64 C185.12,240.28 185.3,239.86 185.46,239.42 C186.18,237.32 186.54,235.36 186.54,233.52 C186.54,233.32 186.52,233.1 186.52,232.86 C187.04,232.66 187.48,232.48 187.8,232.3 C187.98,232.1 188.08,231.9 188.08,231.66 C188.06,231.54 187.98,231.44 187.82,231.32 C187.68,231.24 187.54,231.2 187.4,231.2 C187.2,231.2 186.86,231.28 186.38,231.44 C186.32,231.08 186.26,230.7 186.18,230.32 C185.94,229.88 185.68,229.66 185.38,229.66 C185.18,229.66 185.04,229.7 184.94,229.78 C184.74,229.92 184.64,230.12 184.64,230.38 C184.64,230.58 184.7,230.96 184.86,231.5 C184.88,231.62 184.9,231.74 184.92,231.88 C184.42,232 183.9,232.14 183.34,232.26 C183.4,231.5 183.44,230.8 183.44,230.12 C183.44,229.44 183.38,228.86 183.26,228.42 C183.1,227.82 182.84,227.52 182.5,227.52 C182.12,227.56 181.9,227.82 181.82,228.34 C181.82,228.52 181.82,228.72 181.84,228.94 C181.92,229.42 181.96,229.92 181.98,230.4 C181.98,230.84 181.96,231.28 181.96,231.7 C181.94,231.98 181.9,232.26 181.86,232.58 C181.38,232.7 180.9,232.8 180.4,232.9 C180.12,232.94 179.88,233 179.72,233.04 C179.48,233.22 179.34,233.4 179.34,233.6 C179.34,234.04 179.54,234.38 179.98,234.6 L180.16,234.6 C180.44,234.58 180.72,234.52 180.96,234.44 C181.2,234.4 181.44,234.34 181.68,234.26 C181.66,234.42 181.64,234.58 181.62,234.76 C181.34,236.46 181.22,237.68 181.22,238.4 C181.26,239.52 181.78,240.44 182.82,241.12 C182.88,241.16 182.94,241.2 183.02,241.24 C182.94,241.38 182.86,241.52 182.78,241.64 C182.42,242.08 182.02,242.48 181.6,242.82 C181.44,242.92 181.36,243.04 181.36,243.2 C181.36,243.56 181.58,243.74 182.06,243.76 Z M183.76,239.88 C183.52,239.7 183.28,239.5 183.06,239.3 C182.78,239.04 182.62,238.74 182.62,238.42 C182.62,238.08 182.64,237.62 182.72,237.02 C182.76,236.38 182.88,235.48 183.06,234.32 C183.08,234.18 183.1,234.04 183.12,233.88 C183.76,233.72 184.38,233.54 185.02,233.34 L185.02,233.6 L185.02,233.6 C185.02,234 185,234.4 184.96,234.84 C184.74,236.7 184.4,238.24 183.94,239.48 C183.88,239.62 183.82,239.76 183.76,239.88 Z M216.54,245.92 C216.7,245.9 216.88,245.84 217.08,245.76 C217.38,245.54 217.54,245.3 217.54,245.06 C217.48,242.54 217.46,240.24 217.46,238.08 C217.46,236.56 217.5,234.72 217.6,232.58 C217.68,231.36 217.74,230.46 217.74,229.88 C217.74,229.16 217.64,228.6 217.48,228.18 C217.26,227.62 217.04,227.32 216.8,227.32 C216.68,227.32 216.52,227.36 216.3,227.42 C215.46,227.74 214.66,228.02 213.86,228.24 C212.3,228.7 211.08,228.92 210.2,228.92 C210.24,228.76 210.48,228.06 210.92,226.86 C211.04,226.46 211.12,226.18 211.12,226 C211.12,225.72 211.02,225.54 210.86,225.42 C210.74,225.34 210.62,225.28 210.52,225.28 C210.2,225.28 209.98,225.38 209.82,225.58 C209.46,226.98 209.04,228.18 208.52,229.2 C208.52,229.56 208.58,229.84 208.74,230.02 C208.9,230.3 209.22,230.46 209.68,230.5 L209.94,230.5 C210.46,230.5 211.12,230.42 211.9,230.22 C212.72,230.02 213.52,229.78 214.32,229.52 C215.44,229.12 216.08,228.9 216.2,228.9 C216.3,228.9 216.36,229.22 216.36,229.84 C216.24,232.04 216.18,233.88 216.14,235.36 C216.11,236.065 216.1025,236.68 216.100625,237.205 L216.1,237.7 C216.1,240.54 216.18,242.76 216.32,244.44 C216.06,244.36 215.2,243.74 213.76,242.58 C213.54,242.38 213.34,242.3 213.16,242.3 C212.88,242.3 212.76,242.44 212.76,242.72 C212.76,242.9 212.82,243.08 212.94,243.26 C213.5,244.06 214.06,244.68 214.6,245.12 C215.28,245.64 215.92,245.9 216.54,245.92 Z M202.22,243.16 C202.38,243.12 202.56,243.1 202.72,243.06 C203.68,242.8 204.64,242.52 205.6,242.2 C206,242.56 206.38,242.74 206.72,242.74 C207.44,242.7 207.8,242.48 207.8,242.04 L207.68,240.96 L207.44,234.48 C207.36,233.48 207.1,232.8 206.62,232.48 C206.34,232.28 205.94,232.18 205.42,232.18 C204.88,232.2 204.22,232.38 203.44,232.7 C203.52,231.8 203.58,231.14 203.58,230.74 C203.58,230.54 203.56,230.34 203.52,230.14 C205,229.7 206.06,229.24 206.7,228.8 C206.86,228.68 206.96,228.48 206.96,228.24 C206.92,228.16 206.9,228.06 206.86,227.96 C206.74,227.8 206.58,227.7 206.38,227.7 C206.32,227.7 206.26,227.72 206.18,227.72 C205.26,228.14 204.18,228.46 202.96,228.7 C202.36,228.82 201.8,228.88 201.28,228.92 C200.96,229 200.82,229.22 200.82,229.58 C200.82,229.82 200.92,230.04 201.12,230.22 C201.28,230.42 201.5,230.5 201.76,230.5 C201.82,230.5 201.9,230.5 202,230.48 C202,230.56 202.02,230.66 202.04,230.78 C202.04,231.36 202.02,231.9 202.02,232.42 C201.96,233.42 201.92,234.36 201.92,235.24 C201.888,235.944 201.8816,236.6992 201.88032,237.5056 L201.88,238.12 C201.88,239.66 201.9,240.86 201.94,241.74 L201.82,241.76 L201.82,241.76 C201.62,241.92 201.5,242.08 201.5,242.28 C201.5,242.64 201.68,242.94 202.08,243.16 L202.22,243.16 Z M203.16,237.84 C203.2,236.56 203.22,235.78 203.22,235.5 C203.22,235.16 203.26,234.74 203.3,234.26 C203.5,234.14 203.7,234.02 203.94,233.9 C204.5,233.66 204.88,233.54 205.12,233.54 C205.66,233.54 205.98,233.84 206.06,234.44 C206.1,235.16 206.12,235.94 206.16,236.8 C206.04,236.84 205.88,236.88 205.68,236.96 C204.96,237.26 204.32,237.48 203.8,237.64 C203.64,237.7 203.44,237.76 203.16,237.84 Z M213.62,237.96 C213.82,237.9 213.94,237.72 213.94,237.4 C213.94,237.16 213.82,236.92 213.62,236.7 C213.38,236.54 213.1,236.36 212.78,236.18 C212.28,235.92 211.8,235.62 211.32,235.3 C211.16,235.22 211.04,235.14 210.92,235.1 C210.78,235 210.64,234.94 210.5,234.92 C210.38,234.92 210.26,234.94 210.18,234.96 C210.02,235 209.9,235.08 209.8,235.2 C209.68,235.38 209.62,235.54 209.62,235.66 C209.62,235.78 209.64,235.88 209.72,236 C209.76,236.04 209.84,236.1 210,236.22 C210.66,236.7 211.38,237.1 212.16,237.44 C212.46,237.6 212.74,237.72 213,237.82 C213.2,237.92 213.36,237.96 213.46,237.96 L213.62,237.96 Z M203.24,241.46 C203.22,240.76 203.2,240.04 203.18,239.3 C203.26,239.3 203.36,239.28 203.46,239.24 C204.04,239.1 204.7,238.86 205.42,238.5 C205.68,238.4 205.94,238.26 206.2,238.1 C206.2,238.88 206.22,239.72 206.22,240.62 C206.1,240.66 205.96,240.7 205.8,240.76 C205.08,241 204.22,241.24 203.24,241.46 Z" id="好的" fill="#FFFFFF" fill-rule="nonzero"></path>
            <path d="M157,218 C158.5,218.5 160,219.5 160.237793,222.511719 C160.472493,239.057292 160.658203,248.025065 160.794922,249.415039 C161,251.5 212,252.5 228.413574,251.925781 C231.93012,251.802757 238.437486,251.141633 238.5,249 C239.371582,219.141113 240.5,220.5 216.158691,220.456055 C198.112197,220.787365 180.045736,220.162435 161.989258,220.515625" id="路径-7" stroke="#FFFFFF" stroke-linecap="round" stroke-linejoin="round"></path>
        </g>
    </g>
</svg>