<?xml version="1.0" encoding="UTF-8"?>
<svg width="60px" height="60px" viewBox="0 0 60 60" version="1.1" xmlns="http://www.w3.org/2000/svg" xmlns:xlink="http://www.w3.org/1999/xlink">
    <!-- Generator: Sketch 61.2 (89653) - https://sketch.com -->
    <title>编组 4备份</title>
    <desc>Created with Sketch.</desc>
    <g id="页面-1" stroke="none" stroke-width="1" fill="none" fill-rule="evenodd">
        <g id="画板" transform="translate(-791.000000, -477.000000)" fill="#FFFFFF">
            <g id="编组-4备份" transform="translate(791.000000, 477.000000)">
                <g id="手势" transform="translate(3.000000, 0.000000)" fill-rule="nonzero">
                    <path d="M37.6927669,59.1042432 L37.6927669,59.7058066 L17.9772492,59.7058066 C15.2773763,59.7058066 13.6875307,58.4382268 11.9186484,55.6953851 C11.7969035,55.5091869 11.7252888,55.4017649 11.4889604,55.0150457 C11.4101843,54.8933008 11.3242467,54.7787173 11.2311476,54.6712953 L11.0592724,54.420644 C11.0091421,54.3490293 10.9518504,54.2702532 10.8945587,54.1986385 L1.68491253,40.5130757 L1.68491265,40.5130759 C0.654585278,38.9816965 0.273437699,37.1042965 0.625015582,35.2923667 C0.975927449,33.4805156 2.03582452,31.8835086 3.56837838,30.8522574 C4.71421305,30.078819 6.06056878,29.6706154 7.44273185,29.6777768 C8.65301972,29.6777768 9.82750025,29.9928814 10.8587514,30.5729602 L10.8587514,7.2122559 C10.8587514,3.38087124 13.8379216,0.251310305 17.511754,0.251310305 C21.1855864,0.251310305 24.1647565,3.38087124 24.1647565,7.2122559 L24.1647565,14.9609628 C24.8092885,14.70315 25.4896278,14.5670822 26.1842901,14.5670822 C28.0104641,14.5670822 29.6934088,15.455104 30.8464049,16.9518506 C31.8275258,16.2786727 32.9375532,15.9134379 34.0690649,15.9134379 C36.3249269,15.9134379 38.3802678,17.3170854 39.4401649,19.4726868 C40.0417281,19.2578428 40.6790986,19.1432594 41.3164692,19.1432594 C44.7468117,19.1432594 47.4897699,22.2799818 47.4897699,26.104205 L47.4897699,45.3112586 C47.5182993,52.2292354 42.2546213,59.7058066 37.6784441,59.7058066 L37.6784441,59.1042434 L37.6927669,59.1042432 Z M37.6927669,58.50268 C41.4955057,58.50268 46.3223343,51.6419949 46.3009213,45.3184199 L46.3009213,26.1113663 C46.3009213,22.9173521 44.0593108,20.3535471 41.330792,20.3535471 C40.6719371,20.3535471 40.0202436,20.5039379 39.4043575,20.8047195 L38.8171172,21.0840167 L38.5807888,20.4824535 C37.7930275,18.4629199 36.0026608,17.1237256 34.0762263,17.1237256 C33.0306521,17.1237256 31.9922395,17.5319292 31.1042176,18.2767217 L30.5742691,18.7207327 L30.2090343,18.1334924 C29.2780436,16.6439073 27.8027815,15.7702084 26.1914515,15.7702084 C25.3893672,15.7702084 24.6016059,16.0065368 23.8854592,16.4433863 L22.9687915,17.0019807 L22.9687915,7.21225573 C22.9687915,4.03256453 20.5124084,1.45443653 17.5189153,1.45443653 C14.5182608,1.45443653 12.0618777,4.03256453 12.0618777,7.21225573 L12.0618777,32.9792128 L11.0807568,32.1771285 C10.0495056,31.3392369 8.76760307,30.8880645 7.44273173,30.8880645 C6.27541267,30.8880645 5.1725468,31.217492 4.24155613,31.8548625 C2.97397653,32.7070771 2.09311613,34.0247869 1.799496,35.5286949 C1.50587587,37.0254415 1.8209804,38.5794797 2.67319493,39.8470593 L11.8541952,53.4896533 C11.9114869,53.561268 11.9616172,53.6257212 12.0332319,53.7259817 L12.1907841,53.9479872 C12.3626593,54.1628312 12.434274,54.2559303 12.5058887,54.3848367 C12.7422171,54.7572329 12.8066703,54.8646549 12.9284152,55.0436916 C14.4967764,57.4785903 15.7858404,58.50268 17.9772492,58.50268 L37.6927669,58.50268 L37.6927669,59.1042432 L37.6927669,58.50268 L37.6927669,58.50268 Z M13.2506812,53.13158 C13.2363583,53.1100956 13.0215143,52.8021525 12.971384,52.7233764 L3.76889933,39.0378136 C3.11720587,38.0638541 2.873716,36.8750507 3.10288293,35.7220545 C3.33204987,34.5762199 4.00522773,33.5592916 4.9791872,32.9075981 C5.70249533,32.4277799 6.55470987,32.1699671 7.42124733,32.1699671 L7.42124733,32.7715303 L7.42124733,32.1699671 C8.90367093,32.1699671 10.2643496,32.8932752 11.1022412,34.117886 L13.3294573,37.4766139 L13.3294573,7.21225573 C13.3294573,4.78451853 15.1627928,2.7936308 17.4401392,2.7936308 C19.7174856,2.7936308 21.5508211,4.77735707 21.5508211,7.21225573 L21.5508211,22.8170916 L22.8398851,19.6015931 C23.4629327,18.0905236 24.7376737,17.0879183 26.1198368,17.0879183 C27.7741356,17.0879183 29.2207519,18.5202116 29.6361169,20.4394847 L30.0371591,22.3372733 L30.8965351,20.5970369 C31.5482285,19.29365 32.737032,18.4557584 34.0046116,18.4557584 C35.8952388,18.4557584 37.4564385,20.2389636 37.6283137,22.4733412 L37.7500587,24.0631868 L38.8242787,22.8528989 C39.5189409,22.0937835 40.3926399,21.6640955 41.3021461,21.6640955 C43.3001953,21.6640955 44.9330097,23.7194364 44.9330097,26.0827204 L44.9330097,45.289774 C44.9330097,50.8041033 40.6576141,57.106194 37.6426367,57.106194 L17.9271189,57.106194 C16.1510752,57.106194 15.2773763,56.3184327 13.5514628,53.5541065 C13.4440408,53.4180387 13.3509417,53.2748093 13.2506812,53.13158 L13.2506812,53.13158 Z M7.42124733,33.3730935 C6.7838768,33.3730935 6.1608292,33.5664531 5.6452036,33.9102035 C4.9362184,34.3828603 4.44923867,35.1204913 4.28452493,35.9583829 C4.1198112,36.7962745 4.2916864,37.662812 4.77150467,38.3646357 L13.9954737,52.0788444 C14.0312811,52.1361361 14.2246407,52.4082719 14.260448,52.4584021 C14.4036773,52.6732461 14.4681305,52.7591837 14.5325837,52.8522828 C16.0937835,55.3516347 16.7025081,55.9102291 17.9271189,55.9102291 L37.6426367,55.9102291 C39.8770143,55.9102291 43.7298833,50.2240245 43.7298833,45.289774 L43.7298833,26.0827204 C43.7298833,24.3281611 42.5697257,22.8672219 41.3021461,22.8672219 C40.7507132,22.8672219 40.1921188,23.1393576 39.7123005,23.6549832 L36.7617763,26.9779037 L36.6543543,25.5670948 L36.4251873,22.5664403 C36.2962809,20.9193029 35.2005765,19.6588848 33.9974501,19.6588848 C33.2168503,19.6588848 32.4219275,20.2103177 31.9635936,21.1341469 L29.5716637,25.9609755 L29.2135904,24.2708693 L28.4544749,20.690136 C28.1536933,19.2864885 27.1439265,18.2910447 26.1198368,18.2910447 C25.2604608,18.2910447 24.4010848,18.971384 23.9570739,20.0527655 L20.3548561,29.0547291 L20.3548561,7.21225573 C20.3548561,5.42188907 19.0371463,3.9967572 17.4473007,3.9967572 C15.8502936,3.9967572 14.5325837,5.42188907 14.5325837,7.21225573 L14.5325837,41.4583893 L13.4297179,39.8040905 L10.1067973,34.7910639 C9.49807267,33.903042 8.49546733,33.3730935 7.42124733,33.3730935 L7.42124733,32.7715303 L7.42124733,33.3730935 Z M21.6295972,27.8157953 L22.9687915,27.8157953 L22.9687915,20.1387031 L21.6295972,20.1387031 L21.6295972,27.8157953 Z M24.1719179,18.9355767 L24.1719179,29.0189217 L20.4264708,29.0189217 L20.4264708,18.9355767 L24.1719179,18.9355767 Z M29.8223151,29.3411877 L31.1615093,29.3411877 L31.1615093,21.6640955 L29.8223151,21.6640955 L29.8223151,29.3411877 Z M32.3646357,20.4609691 L32.3646357,30.5443141 L28.6191887,30.5443141 L28.6191887,20.4609691 L32.3646357,20.4609691 Z M37.7572201,31.7832479 L39.0964144,31.7832479 L39.0964144,24.1061556 L37.7500587,24.1061556 L37.7572201,31.7832479 L37.7572201,31.7832479 Z M40.3067023,22.9030292 L40.3067023,32.9863743 L36.5612552,32.9863743 L36.5612552,22.9030292 L40.3067023,22.9030292 L40.3067023,22.9030292 Z M37.6927669,59.1042432 L17.9772492,59.1042432 C14.7474277,59.1042432 13.29365,56.7624436 11.9974245,54.7071027 C11.9186484,54.5781963 11.8183879,54.4492899 11.7181273,54.3275449 C11.5892209,54.1485083 11.4889604,53.9981175 11.3886999,53.8692111 L2.17905373,40.1764868 C1.23374013,38.7800008 0.889989733,37.0612488 1.21225573,35.40695 C1.53452173,33.7526512 2.5084812,32.291712 3.9049672,31.3535599 C4.95054133,30.6445747 6.1823136,30.2721784 7.44273173,30.2865013 C8.91799387,30.2865013 10.3431257,30.7949655 11.4603145,31.7116332 L11.4603145,7.21225573 C11.4603145,3.70313707 14.1816719,0.852873333 17.5117539,0.852873333 C20.8418359,0.852873333 23.5631932,3.70313707 23.5631932,7.21225573 L23.5631932,15.9420836 C24.3509545,15.4479424 25.2532993,15.1829681 26.18429,15.1758067 C28.0391099,15.1758067 29.6934087,16.1927349 30.7103369,17.8183879 C31.6771349,17.0019807 32.844454,16.5221624 34.0690648,16.5221624 C36.281958,16.5221624 38.2656843,18.0475548 39.1322217,20.260448 C39.8125611,19.9310205 40.5645151,19.7519839 41.3164691,19.7519839 C44.3958997,19.7519839 46.8882711,22.6022476 46.8882711,26.1113663 L46.8882711,45.3184199 C46.9238975,52.2865269 41.6387351,59.1042432 37.6927669,59.1042432 L37.6927669,59.1042432 Z M7.42124733,32.7786917 C6.66213187,32.7786917 5.91733933,33.0078587 5.30861467,33.4160623 C4.47072307,33.9818181 3.8834828,34.8555171 3.6901232,35.8437995 C3.4967636,36.8392433 3.70444613,37.8633331 4.26304053,38.7083861 L13.4726867,52.3939489 C13.5514628,52.5228553 13.6517233,52.6517617 13.7519839,52.8021525 C13.8522444,52.9525433 13.9596664,53.1029341 14.0599269,53.2318405 L14.0885728,53.2819708 C15.4850588,55.5235099 16.2728201,56.5117923 17.9271189,56.5117923 L37.6426367,56.5117923 C39.8053996,56.5117923 44.3314465,51.197984 44.3314465,45.2969355 L44.3314465,26.0827204 C44.3314465,24.020218 42.9349605,22.2656587 41.3021461,22.2656587 C40.5645151,22.2656587 39.8555299,22.623732 39.2682896,23.2539411 L37.2559175,25.5169645 L37.0267505,22.51631 C36.8691983,20.582714 35.5514884,19.0573216 33.9974501,19.0573216 C32.9805219,19.0573216 31.9922395,19.7448224 31.4264836,20.8620112 L29.8008307,24.1419629 L29.0345537,20.5540681 C28.6764804,18.8997693 27.4590311,17.68232 26.1055139,17.68232 C24.9883251,17.68232 23.9141051,18.5202116 23.3841565,19.8164371 L20.9420964,25.9251681 L20.9420964,7.21225573 C20.9420964,5.09962307 19.3665737,3.395194 17.4329777,3.395194 C15.4993817,3.395194 13.9238591,5.09962307 13.9238591,7.21225573 L13.9238591,39.4675016 L10.5937771,34.4544749 C9.88479187,33.4017393 8.6959884,32.7715303 7.42124733,32.7786917 L7.42124733,32.7786917 Z M21.028034,19.5371399 L23.5703547,19.5371399 L23.5703547,28.4173585 L21.028034,28.4173585 L21.028034,19.5371399 Z M29.2207519,21.0625323 L31.7630725,21.0625323 L31.7630725,29.9427509 L29.2207519,29.9427509 L29.2207519,21.0625323 Z M37.1556569,23.5045924 L39.6979776,23.5045924 L39.6979776,32.3848111 L37.1556569,32.3848111 L37.1556569,23.5045924 L37.1556569,23.5045924 Z" id="形状"></path>
                </g>
                <path d="M45.3333333,-1.77635684e-15 L45.3326667,4.152 L57,4.16666667 L57.0016276,7.51573351 L45.3326667,7.501 L45.3333333,11.6666667 L38.6666667,5.83333333 L45.3333333,-1.77635684e-15 Z" id="形状结合" transform="translate(47.834147, 5.833333) rotate(-180.000000) translate(-47.834147, -5.833333) "></path>
                <polygon id="三角形" transform="translate(35.333333, 5.833333) rotate(-90.000000) translate(-35.333333, -5.833333) " points="35.3333333 2.5 41.1666667 9.16666667 29.5 9.16666667"></polygon>
            </g>
        </g>
    </g>
</svg>