<?xml version="1.0" encoding="UTF-8"?>
<svg width="18px" height="18px" viewBox="0 0 18 18" version="1.1" xmlns="http://www.w3.org/2000/svg" xmlns:xlink="http://www.w3.org/1999/xlink">
    <!-- Generator: Sketch 61.2 (89653) - https://sketch.com -->
    <title>编组 6</title>
    <desc>Created with Sketch.</desc>
    <g id="页面-1" stroke="none" stroke-width="1" fill="none" fill-rule="evenodd">
        <g id="画板" transform="translate(-17.000000, -111.000000)">
            <g id="编组-6" transform="translate(17.000000, 111.000000)">
                <rect id="矩形" x="0" y="0" width="18" height="18"></rect>
                <path d="M15.1814978,2.45863513 C13.5221602,0.89007864 11.3299462,0 9,0 C4.02943725,0 0,4.02943725 0,9 C0,13.9705627 4.02943725,18 9,18 C13.9705627,18 18,13.9705627 18,9 C18,7.86922644 17.7910237,6.76615993 17.3887584,5.73371553 C17.2383818,5.3477625 16.8036007,5.15679008 16.4176477,5.3071667 C16.0316946,5.45754332 15.8407222,5.89232441 15.9910988,6.27827745 C16.3259978,7.13782124 16.5,8.05627914 16.5,9 C16.5,13.1421356 13.1421356,16.5 9,16.5 C4.85786438,16.5 1.5,13.1421356 1.5,9 C1.5,4.85786438 4.85786438,1.5 9,1.5 C10.9428697,1.5 12.7675361,2.24084765 14.151075,3.54869423 C14.4520865,3.83323763 14.9267726,3.81988759 15.211316,3.51887608 C15.4958594,3.21786457 15.4825093,2.74317852 15.1814978,2.45863513 Z" id="路径" fill="#EDB65E" fill-rule="nonzero"></path>
                <path d="M11.7116865,5.40853069 C10.9366429,4.82258011 9.99177901,4.5 9,4.5 C6.51471863,4.5 4.5,6.51471863 4.5,9 C4.5,11.4852814 6.51471863,13.5 9,13.5 C11.4852814,13.5 13.5,11.4852814 13.5,9 C13.5,8.70120234 13.4707738,8.40572457 13.4131947,8.11670475 C13.3322646,7.71047428 12.937343,7.44676621 12.5311125,7.52769628 C12.124882,7.60862636 11.861174,8.00354802 11.942104,8.40977849 C11.9804831,8.60242308 12,8.79973993 12,9 C12,10.6568542 10.6568542,12 9,12 C7.34314575,12 6,10.6568542 6,9 C6,7.34314575 7.34314575,6 9,6 C9.66240319,6 10.2903044,6.21436785 10.807081,6.60506274 C11.1374942,6.85486264 11.6078499,6.78951265 11.8576498,6.45909945 C12.1074497,6.12868625 12.0420997,5.6583306 11.7116865,5.40853069 Z" id="路径" fill="#EDB65E" fill-rule="nonzero"></path>
            </g>
        </g>
    </g>
</svg>