<?xml version="1.0" encoding="UTF-8"?>
<svg width="18px" height="18px" viewBox="0 0 18 18" version="1.1" xmlns="http://www.w3.org/2000/svg" xmlns:xlink="http://www.w3.org/1999/xlink">
    <!-- Generator: Sketch 61.2 (89653) - https://sketch.com -->
    <title>编组 8</title>
    <desc>Created with Sketch.</desc>
    <g id="页面-1" stroke="none" stroke-width="1" fill="none" fill-rule="evenodd">
        <g id="画板" transform="translate(-17.000000, -191.000000)">
            <g id="编组-8" transform="translate(17.000000, 191.000000)">
                <rect id="矩形" x="0" y="0" width="18" height="18"></rect>
                <path d="M15.1814978,2.45863513 C13.5221602,0.89007864 11.3299462,0 9,0 C4.02943725,0 0,4.02943725 0,9 C0,13.9705627 4.02943725,18 9,18 C13.9705627,18 18,13.9705627 18,9 C18,7.86922644 17.7910237,6.76615993 17.3887584,5.73371553 C17.2383818,5.3477625 16.8036007,5.15679008 16.4176477,5.3071667 C16.0316946,5.45754332 15.8407222,5.89232441 15.9910988,6.27827745 C16.3259978,7.13782124 16.5,8.05627914 16.5,9 C16.5,13.1421356 13.1421356,16.5 9,16.5 C4.85786438,16.5 1.5,13.1421356 1.5,9 C1.5,4.85786438 4.85786438,1.5 9,1.5 C10.9428697,1.5 12.7675361,2.24084765 14.151075,3.54869423 C14.4520865,3.83323763 14.9267726,3.81988759 15.211316,3.51887608 C15.4958594,3.21786457 15.4825093,2.74317852 15.1814978,2.45863513 Z" id="路径" fill="#DB6372" fill-rule="nonzero"></path>
                <path d="M9.01403389,3.76290436 C9.42824745,3.76290436 9.76403389,4.0986908 9.76403389,4.51290436 L9.76403389,13.5129044 C9.76403389,13.9271179 9.42824745,14.2629044 9.01403389,14.2629044 C8.59982033,14.2629044 8.26403389,13.9271179 8.26403389,13.5129044 L8.26403389,4.51290436 C8.26403389,4.0986908 8.59982033,3.76290436 9.01403389,3.76290436 Z" id="矩形" fill="#DB6372" transform="translate(9.014034, 9.012904) rotate(-45.000000) translate(-9.014034, -9.012904) "></path>
                <path d="M9.01403389,3.76290436 C9.42824745,3.76290436 9.76403389,4.0986908 9.76403389,4.51290436 L9.76403389,13.5129044 C9.76403389,13.9271179 9.42824745,14.2629044 9.01403389,14.2629044 C8.59982033,14.2629044 8.26403389,13.9271179 8.26403389,13.5129044 L8.26403389,4.51290436 C8.26403389,4.0986908 8.59982033,3.76290436 9.01403389,3.76290436 Z" id="矩形备份-30" fill="#DB6372" transform="translate(9.014034, 9.012904) rotate(-135.000000) translate(-9.014034, -9.012904) "></path>
            </g>
        </g>
    </g>
</svg>