<?xml version="1.0" encoding="UTF-8"?>
<svg width="18px" height="18px" viewBox="0 0 18 18" version="1.1" xmlns="http://www.w3.org/2000/svg" xmlns:xlink="http://www.w3.org/1999/xlink">
    <!-- Generator: Sketch 61.2 (89653) - https://sketch.com -->
    <title>编组 7</title>
    <desc>Created with Sketch.</desc>
    <g id="页面-1" stroke="none" stroke-width="1" fill="none" fill-rule="evenodd">
        <g id="画板" transform="translate(-17.000000, -271.000000)">
            <g id="编组-7" transform="translate(17.000000, 271.000000)">
                <rect id="矩形" x="0" y="0" width="18" height="18"></rect>
                <path d="M15.1814978,2.45863513 C13.5221602,0.89007864 11.3299462,0 9,0 C4.02943725,0 0,4.02943725 0,9 C0,13.9705627 4.02943725,18 9,18 C13.9705627,18 18,13.9705627 18,9 C18,7.86922644 17.7910237,6.76615993 17.3887584,5.73371553 C17.2383818,5.3477625 16.8036007,5.15679008 16.4176477,5.3071667 C16.0316946,5.45754332 15.8407222,5.89232441 15.9910988,6.27827745 C16.3259978,7.13782124 16.5,8.05627914 16.5,9 C16.5,13.1421356 13.1421356,16.5 9,16.5 C4.85786438,16.5 1.5,13.1421356 1.5,9 C1.5,4.85786438 4.85786438,1.5 9,1.5 C10.9428697,1.5 12.7675361,2.24084765 14.151075,3.54869423 C14.4520865,3.83323763 14.9267726,3.81988759 15.211316,3.51887608 C15.4958594,3.21786457 15.4825093,2.74317852 15.1814978,2.45863513 Z" id="路径" fill="#EDB65E" fill-rule="nonzero"></path>
                <path d="M6.38819264,7.04101674 C5.96544161,6.72140733 5.45006128,6.54545455 4.90909091,6.54545455 C3.55348289,6.54545455 2.45454545,7.64439198 2.45454545,9 C2.45454545,10.355608 3.55348289,11.4545455 4.90909091,11.4545455 C6.26469893,11.4545455 7.36363636,10.355608 7.36363636,9 C7.36363636,8.83701946 7.34769482,8.67584976 7.31628802,8.51820259 C7.27214434,8.29662233 7.05673253,8.15278157 6.83515227,8.19692525 C6.61357201,8.24106893 6.46973125,8.45648074 6.51387493,8.678061 C6.53480896,8.78313986 6.54545455,8.89076723 6.54545455,9 C6.54545455,9.90373868 5.81282959,10.6363636 4.90909091,10.6363636 C4.00535223,10.6363636 3.27272727,9.90373868 3.27272727,9 C3.27272727,8.09626132 4.00535223,7.36363636 4.90909091,7.36363636 C5.27040174,7.36363636 5.61289332,7.48056428 5.89477147,7.69367058 C6.07499685,7.82992508 6.33155448,7.79427963 6.46780898,7.61405425 C6.60406347,7.43382886 6.56841802,7.17727123 6.38819264,7.04101674 Z" id="路径" fill="#EDB65E" fill-rule="nonzero"></path>
                <rect id="矩形" fill="#EDB65E" x="8.18181818" y="0" width="1.63636364" height="18" rx="0.818181818"></rect>
                <path d="M12.8133855,6.5660124 L12.9302686,6.5660124 C13.1239269,6.5660124 13.2809179,6.72300346 13.2809179,6.91666175 L13.2809179,11.124454 C13.2809179,11.3181122 13.1239269,11.4751033 12.9302686,11.4751033 L12.8133855,11.4751033 C12.6197272,11.4751033 12.4627361,11.3181122 12.4627361,11.124454 L12.4627361,6.91666175 C12.4627361,6.72300346 12.6197272,6.5660124 12.8133855,6.5660124 Z" id="矩形" fill="#DB6372" transform="translate(12.871827, 9.020558) rotate(-45.000000) translate(-12.871827, -9.020558) "></path>
                <path d="M12.8133855,6.5660124 L12.9302686,6.5660124 C13.1239269,6.5660124 13.2809179,6.72300346 13.2809179,6.91666175 L13.2809179,11.124454 C13.2809179,11.3181122 13.1239269,11.4751033 12.9302686,11.4751033 L12.8133855,11.4751033 C12.6197272,11.4751033 12.4627361,11.3181122 12.4627361,11.124454 L12.4627361,6.91666175 C12.4627361,6.72300346 12.6197272,6.5660124 12.8133855,6.5660124 Z" id="矩形备份-30" fill="#DB6372" transform="translate(12.871827, 9.020558) rotate(-135.000000) translate(-12.871827, -9.020558) "></path>
            </g>
        </g>
    </g>
</svg>