<?xml version="1.0" encoding="UTF-8"?>
<svg width="14" height="14" viewBox="0 0 14 14" fill="none" xmlns="http://www.w3.org/2000/svg">
    <path fill-rule="evenodd" clip-rule="evenodd" d="M5.32774 0.328125C5.68299 0.328125 5.93236 0.585373 5.93674 0.954619C6.36549 1.28712 7.36385 1.92674 8.60109 1.89874C10.2128 1.89874 11.8876 2.41411 12.3259 3.20685C12.3259 3.20685 10.0203 2.60048 9.37546 3.90859C8.73146 5.21758 7.94572 4.58846 7.31135 4.85271C6.69186 5.11433 6.68573 5.4162 6.29636 5.48533C6.17474 5.50545 6.05049 5.48795 5.93586 5.4547L5.93674 8.7403C5.90086 9.11392 5.61474 8.97392 5.32774 8.97392C4.96987 8.97392 4.71875 9.15155 4.71875 8.77705V0.964244C4.71875 0.589748 4.96987 0.328125 5.32774 0.328125Z" fill="#FF4A4A"/>
    <path fill-rule="evenodd" clip-rule="evenodd" d="M5.45844 11.0899C4.97895 11.0899 4.47233 10.9 4.11533 10.6227L5.39282 9.28742L7.45168 9.90954C7.00718 10.5457 6.21094 11.0899 5.45844 11.0899ZM12.6579 10.151L5.35082 7.98106C5.32544 7.97843 5.30182 7.98543 5.27645 7.98543C5.2432 7.98281 5.20995 7.98631 5.17582 7.99068C5.1382 7.99593 5.1032 8.00381 5.06732 8.01431C5.03932 8.02481 5.01307 8.03443 4.98595 8.04843C4.88357 8.09743 4.79432 8.16831 4.72783 8.26368L1.08873 12.062C0.83761 12.286 0.83761 12.6605 1.08873 12.9221C1.33898 13.1846 1.69773 13.1846 1.9121 12.9221L3.29284 11.4802C3.89396 11.9098 4.65695 12.2116 5.45844 12.2116C6.78406 12.2116 8.01867 11.3612 8.67754 10.2797L12.335 11.3848C12.6579 11.4215 12.9449 11.2352 13.0516 10.935C13.1951 10.5614 13.0158 10.2254 12.6579 10.151Z" fill="#0BC65E"/>
</svg>
