<svg width="38" height="40" viewBox="0 0 38 40" fill="none" xmlns="http://www.w3.org/2000/svg">
<path fill-rule="evenodd" clip-rule="evenodd" d="M19.9746 1.52676C20.0555 0.606509 20.8669 -0.0740585 21.7871 0.00646961C22.7074 0.0873261 23.388 0.898715 23.3074 1.81899L23.0163 5.1518C22.9359 6.07244 22.1244 6.75359 21.2038 6.6732C20.2831 6.59281 19.602 5.78132 19.6824 4.86068L19.9746 1.52676ZM29.613 3.29295C30.05 3.21577 30.4997 3.31533 30.8633 3.56974C31.2268 3.82414 31.4745 4.21256 31.5516 4.64953C31.6288 5.0865 31.5293 5.53624 31.2749 5.89981L28.0759 10.4685C27.733 10.9582 27.1549 11.2278 26.5593 11.1757C25.9637 11.1237 25.4411 10.7578 25.1884 10.2159C24.9358 9.6741 24.9913 9.03862 25.3342 8.54887L28.5332 3.98132C28.7876 3.61775 29.176 3.37014 29.613 3.29295ZM2.49317 8.04107C5.53751 3.82919 11.4052 2.85313 15.6491 5.85263L21.1145 9.68067L21.2417 9.77883C21.9206 10.3588 22.0245 11.3696 21.4777 12.0755C20.9309 12.7814 19.9262 12.9336 19.1949 12.4212L13.7295 8.59428L13.5243 8.45708C10.7136 6.65754 6.97998 7.43501 5.12124 10.2069C3.2625 12.9788 3.96061 16.728 6.69245 18.6451L12.1512 22.4665L12.2784 22.5646C12.9637 23.1429 13.0713 24.1586 12.5223 24.8676C11.9734 25.5767 10.963 25.7268 10.2316 25.2081L4.77285 21.3857L4.54196 21.2195C0.362602 18.1306 -0.551174 12.253 2.49317 8.04107ZM2.18985 26.925L5.22262 25.5107C6.06009 25.1201 7.05561 25.4824 7.44617 26.3199C7.83672 27.1574 7.47442 28.1529 6.63694 28.5435L3.60418 29.9578C3.06243 30.2104 2.42704 30.1549 1.93737 29.812C1.4477 29.4692 1.17813 28.8911 1.23021 28.2956C1.28229 27.7001 1.6481 27.1777 2.18985 26.925ZM10.6199 29.5643C11.15 28.8076 12.1931 28.6238 12.9499 29.1538V29.1527C13.3138 29.4071 13.5617 29.7957 13.6389 30.233C13.7161 30.6702 13.6163 31.1202 13.3615 31.4839L10.1626 36.0514C9.63279 36.8085 8.58958 36.9928 7.8325 36.463C7.07541 35.9332 6.89114 34.89 7.42091 34.1329L10.6199 29.5643ZM17.496 33.3577C17.0539 33.3191 16.6146 33.4576 16.2746 33.743C15.9347 34.0283 15.7221 34.437 15.6835 34.8791L15.3924 38.2119C15.3299 39.1215 16.0072 39.9136 16.9154 39.9933C17.8236 40.0729 18.6284 39.4107 18.7252 38.5042L19.0174 35.1702C19.0561 34.7281 18.9175 34.2888 18.6322 33.9488C18.3469 33.6089 17.9382 33.3963 17.496 33.3577ZM28.4338 14.8043C27.7026 14.2868 26.6935 14.437 26.1448 15.1451C25.5961 15.8531 25.7023 16.8678 26.3859 17.4467L26.5142 17.5449L32.0031 21.3885C34.7349 23.3056 35.433 27.0549 33.5743 29.8268C31.7155 32.5986 27.9819 33.3761 25.1712 31.5766L24.966 31.4394L19.4749 27.5946C18.7437 27.0822 17.7389 27.2344 17.1921 27.9403C16.6454 28.6462 16.7492 29.657 17.4282 30.237L17.5553 30.3351L23.0464 34.181C27.2903 37.1805 33.158 36.2044 36.2023 31.9926C39.2467 27.7807 38.3329 21.903 34.1535 18.8142L33.9227 18.648L28.4338 14.8043ZM35.0958 10.0732L32.0619 11.4875C31.2244 11.8784 30.8624 12.8741 31.2532 13.7116C31.6441 14.5491 32.6398 14.9111 33.4773 14.5203L36.5101 13.106C37.3479 12.7154 37.7104 11.7196 37.3199 10.8819C36.9293 10.0441 35.9335 9.68153 35.0958 10.0721V10.0732Z" fill="white"/>
</svg>
