<?xml version="1.0" encoding="UTF-8"?>
<svg width="7" height="7" viewBox="0 0 7 7" fill="none" xmlns="http://www.w3.org/2000/svg">
    <circle cx="3.5" cy="3.5" r="3.5" fill="#FFCC5C"/>
    <path fill-rule="evenodd" clip-rule="evenodd" d="M1.55022 5.26608L2.03672 4.59641L1.64676 3.39648L0.890756 3.1509C0.87559 3.26523 0.86509 3.38132 0.86509 3.50003C0.86509 4.17961 1.12584 4.79824 1.55022 5.26608ZM2.9234 1.75118V0.930715C2.24206 1.08355 1.66047 1.50005 1.29122 2.06793L2.11752 2.33656L2.9234 1.75118ZM2.86652 4.35082H4.13324L4.52495 3.14594L3.50003 2.4016L2.4751 3.14594L2.86652 4.35082ZM3.50002 6.13496C3.87482 6.13496 4.23095 6.05504 4.55412 5.91329L4.04749 5.21591H3.01206L2.49114 5.93342C2.80206 6.06263 3.14273 6.13496 3.50002 6.13496ZM5.70883 2.06793C5.33929 1.50005 4.75799 1.08355 4.07665 0.930715V1.75118L4.88224 2.33656L5.70883 2.06793ZM5.48279 5.22962C5.88763 4.76616 6.13496 4.16211 6.13496 3.50003C6.13496 3.38132 6.12446 3.26523 6.109 3.1509L5.353 3.39648L4.9817 4.53953L5.48279 5.22962ZM3.50003 0C5.43321 0 7.00005 1.56684 7.00005 3.50003C7.00005 5.43291 5.43321 7.00005 3.50003 7.00005C1.56714 7.00005 0 5.43291 0 3.50003C0 1.56684 1.56714 0 3.50003 0Z" fill="url(#paint0_linear_2863_122933)"/>
    <defs>
        <linearGradient id="paint0_linear_2863_122933" x1="0" y1="0" x2="0" y2="7.00005" gradientUnits="userSpaceOnUse">
            <stop stop-color="#FFB001"/>
            <stop offset="1" stop-color="#FF7000"/>
        </linearGradient>
    </defs>
</svg>
