<?xml version="1.0" encoding="UTF-8"?>
<svg width="13" height="13" viewBox="0 0 13 13" fill="none" xmlns="http://www.w3.org/2000/svg">
    <g clip-path="url(#clip0_2861_114897)">
        <path fill-rule="evenodd" clip-rule="evenodd" d="M6.39464 1.44107C3.49625 1.44107 1.14664 3.79068 1.14664 6.68907C1.14664 9.58746 3.49625 11.9371 6.39464 11.9371C9.29303 11.9371 11.6426 9.58746 11.6426 6.68907C11.6426 3.79068 9.29303 1.44107 6.39464 1.44107ZM0.271973 6.68907C0.271973 3.30762 3.01318 0.566406 6.39464 0.566406C9.7761 0.566406 12.5173 3.30762 12.5173 6.68907C12.5173 10.0705 9.7761 12.8117 6.39464 12.8117C3.01318 12.8117 0.271973 10.0705 0.271973 6.68907Z" fill="white"/>
        <path d="M7.88226 8.58806C7.70208 8.58806 7.04836 9.59893 6.63381 9.59893C6.51422 9.59893 6.51422 9.53835 6.51422 9.41876C6.51422 9.23859 6.63381 8.94362 6.75179 8.76504L7.64309 6.44512C8.05924 5.31626 7.52351 5.0181 6.98937 5.0181C6.27506 5.0181 5.62133 5.37525 5.14459 5.7914C4.96442 5.97157 4.60886 6.56471 4.60886 6.74488C4.60886 6.80547 4.66945 6.92505 4.78903 6.92505C5.02661 6.92505 5.44276 5.79618 5.9179 5.79618C6.03748 5.79618 6.15547 5.91577 6.03748 6.09275L5.14619 8.1751C5.0856 8.35527 4.61046 9.06639 4.61046 9.60212C4.61046 10.0773 4.90702 10.5556 5.38376 10.5556C6.63221 10.5556 8.05924 9.06798 8.05924 8.77301C8.00025 8.64546 7.94125 8.58806 7.88226 8.58806ZM7.64468 2.81776C7.10895 2.81776 6.63381 3.23391 6.63381 3.77124C6.63381 4.24638 6.99096 4.60513 7.4677 4.60513C8.00343 4.60513 8.47858 4.18898 8.47858 3.65166C8.47858 3.11433 8.11983 2.81776 7.64468 2.81776Z" fill="white"/>
    </g>
    <defs>
        <clipPath id="clip0_2861_114897">
            <rect width="12.2453" height="12.2453" fill="white" transform="translate(0.271973 0.566406)"/>
        </clipPath>
    </defs>
</svg>
