<?xml version="1.0" encoding="UTF-8"?>
<svg width="12px" height="12px" viewBox="0 0 12 12" version="1.1" xmlns="http://www.w3.org/2000/svg" xmlns:xlink="http://www.w3.org/1999/xlink">
    <title>编组-47</title>
    <g id="定稿" stroke="none" stroke-width="1" fill="none" fill-rule="evenodd">
        <g id="h5/白/资讯详情" transform="translate(-17.000000, -424.000000)">
            <g id="编组-27备份" transform="translate(0.000000, 336.000000)">
                <g id="编组-8" transform="translate(17.000000, 20.000000)">
                    <g id="编组-9备份" transform="translate(0.000000, 65.000000)">
                        <g id="编组-47" transform="translate(0.000000, 3.000000)">
                            <path d="M6.0000671,0 C9.23844613,0 11.877574,2.5655283 11.9958616,5.77499593 L12,5.9999329 L11.9990079,6.1101541 C11.9415642,9.29883337 9.39665182,11.880262 6.22251598,11.9959526 L6.0000671,12 L5.8898459,11.9990079 C2.70116662,11.9415613 0.119738025,9.39652355 0.00404740682,6.22238198 L0,5.9999329 L0.000992129903,5.88971177 C0.0597747107,2.62688007 2.72319568,0 6.0000671,0 Z M6.81365216,7.12835572 C6.27222614,7.07739576 5.72768763,7.07739576 5.18628036,7.12835572 C4.89463482,7.1499557 4.59983927,7.19435566 4.30905997,7.26083561 C3.74782642,7.3841555 3.29882683,7.6305153 3.10772272,8.03995495 C3.03564384,8.20007482 2.99940377,8.37151468 3.00000742,8.54507453 C2.99979752,8.71739439 3.03574509,8.88907425 3.10524022,9.04611411 C3.28873556,9.45083378 3.68543381,9.67987358 4.22109981,9.80683348 L4.22109981,9.80683348 L4.31705874,9.82819346 C4.59994052,9.8962734 4.89482607,9.94211337 5.19168412,9.96359335 C5.21697042,9.97151334 5.27723678,9.97887333 5.34301191,9.98243333 L5.34301191,9.98243333 L5.39708701,9.98459333 C5.40636202,9.98483333 5.41605371,9.98501111 5.4265954,9.98514148 L5.50351221,9.98547333 C5.930188,10.0105133 6.37253883,10.0032333 6.81282716,9.96323335 C7.0474651,9.94611336 7.28367804,9.91339339 7.51790348,9.86543343 L7.51790348,9.86543343 L7.6931788,9.82663346 C8.27161739,9.70491356 8.7047432,9.47343376 8.89449355,9.04655411 C9.03515631,8.72963438 9.03515631,8.36187469 8.89456855,8.04507495 C8.7052682,7.61931531 8.2776549,7.3897555 7.68879129,7.26035561 C7.45775336,7.20775565 7.22296542,7.16879568 6.98652748,7.1439557 L6.98652748,7.1439557 Z M6.00162564,2 C4.90136233,2 4.00942316,2.9554552 4.00942316,4.13406622 C4.00942316,5.31267723 4.90136233,6.26811643 6.00162564,6.26811643 C7.1018777,6.26811643 7.99381687,5.31267723 7.99381687,4.13406622 C7.99381687,2.9554552 7.1018777,2 6.00162564,2 Z" id="形状结合" fill="#979AA6" fill-rule="nonzero"></path>
                            <g id="Profile" transform="translate(3.000000, 2.000000)"></g>
                        </g>
                    </g>
                </g>
            </g>
        </g>
    </g>
</svg>