<?xml version="1.0" encoding="UTF-8"?>
<svg width="14" height="14" viewBox="0 0 14 14" fill="none" xmlns="http://www.w3.org/2000/svg">
    <path d="M13.5893 4.6195L10.3762 7.47203C10.5235 7.94814 10.5984 8.44368 10.5985 8.94205C10.5865 9.88966 10.3118 10.8154 9.80503 11.6162C9.29827 12.417 8.57929 13.0615 7.72805 13.4781C6.87682 13.8946 5.92672 14.0668 4.98344 13.9756C4.04016 13.8844 3.14068 13.5332 2.38506 12.9613C2.36313 13.1603 2.28494 13.3491 2.15964 13.5053C2.03435 13.6616 1.86713 13.7789 1.67756 13.8435C1.488 13.9082 1.28394 13.9175 1.08928 13.8704C0.894617 13.8232 0.717409 13.7216 0.578406 13.5774C0.439402 13.4332 0.344356 13.2524 0.304396 13.0562C0.264436 12.8599 0.281217 12.6563 0.352773 12.4693C0.424329 12.2822 0.547699 12.1194 0.708437 11.9999C0.869175 11.8804 1.06063 11.8092 1.26038 11.7946C0.67837 10.9573 0.367071 9.96173 0.368452 8.94205C0.372115 7.93396 0.676955 6.94996 1.24384 6.11636C1.81073 5.28276 2.61381 4.63759 3.54999 4.26366C3.55932 4.25783 3.56049 4.24616 3.57099 4.24033L12.1752 0.0344499C12.2201 0.0125119 12.2692 0.000759717 12.3191 3.56256e-05C12.369 -0.000688466 12.4184 0.00963344 12.4639 0.0302616C12.5093 0.0508898 12.5496 0.0813136 12.5819 0.119353C12.6142 0.157392 12.6377 0.202104 12.6507 0.250286L13.6908 4.29283C13.7057 4.35134 13.7041 4.41285 13.6862 4.47051C13.6683 4.52818 13.6347 4.57975 13.5893 4.6195ZM1.36538 12.3021C1.26295 12.3032 1.16316 12.3347 1.07855 12.3924C0.993943 12.4501 0.928308 12.5316 0.889906 12.6266C0.851505 12.7215 0.842052 12.8257 0.862738 12.9261C0.883424 13.0264 0.933325 13.1184 1.00616 13.1904C1.07899 13.2624 1.17151 13.3113 1.27205 13.3308C1.3726 13.3504 1.47669 13.3398 1.57122 13.3003C1.66574 13.2609 1.74648 13.1943 1.80328 13.1091C1.86007 13.0238 1.89038 12.9237 1.89039 12.8213C1.88885 12.683 1.83286 12.551 1.73457 12.4538C1.63628 12.3566 1.50362 12.3021 1.36538 12.3021ZM5.48901 5.47118C4.8036 5.47912 4.13587 5.68966 3.56986 6.07629C3.00386 6.46292 2.56489 7.00835 2.30822 7.64393C2.05154 8.27951 1.98864 8.97682 2.12742 9.64807C2.2662 10.3193 2.60047 10.9345 3.08815 11.4162C3.57582 11.8979 4.1951 12.2245 4.86801 12.355C5.54093 12.4855 6.23741 12.414 6.86977 12.1495C7.50213 11.8849 8.0421 11.4393 8.4217 10.8685C8.80131 10.2978 9.00358 9.6275 9.00305 8.94205C9.00037 8.48336 8.90734 8.0297 8.72927 7.60699C8.55119 7.18428 8.29157 6.8008 7.96523 6.47847C7.63889 6.15613 7.25223 5.90127 6.82734 5.72843C6.40246 5.5556 5.94769 5.46818 5.48901 5.47118ZM10.3039 3.72116L9.49947 2.50198C9.4443 2.42054 9.35943 2.36395 9.26304 2.34432C9.16666 2.3247 9.06642 2.3436 8.9838 2.39698C8.94303 2.42289 8.90784 2.45668 8.88028 2.49636C8.85272 2.53604 8.83335 2.58082 8.8233 2.62807C8.81325 2.67533 8.81273 2.72411 8.82176 2.77157C8.83078 2.81903 8.84918 2.86422 8.87588 2.90448L9.67972 4.12366C9.73489 4.2051 9.81976 4.26169 9.91614 4.28131C10.0125 4.30094 10.1128 4.28204 10.1954 4.22866C10.2361 4.20273 10.2713 4.16896 10.2989 4.12929C10.3265 4.08963 10.3459 4.04488 10.356 3.99764C10.3661 3.95041 10.3667 3.90163 10.3577 3.85416C10.3488 3.8067 10.3305 3.76148 10.3039 3.72116ZM4.30891 10.9779L3.11773 8.93621L4.30891 6.90036H6.69127L7.88245 8.93621L6.69127 10.9779H4.30891Z" fill="#98A3C2"/>
</svg>
