<?xml version="1.0" encoding="UTF-8"?>
<svg width="20px" height="20px" viewBox="0 0 20 20" version="1.1" xmlns="http://www.w3.org/2000/svg" xmlns:xlink="http://www.w3.org/1999/xlink">
    <title>B</title>
    <g id="页面-1" stroke="none" stroke-width="1" fill="none" fill-rule="evenodd">
        <g id="画板" transform="translate(-720.000000, -198.000000)">
            <g id="B" transform="translate(720.000000, 198.000000)">
                <rect id="矩形" fill="#5A6074" x="0" y="0" width="20" height="20" rx="10"></rect>
                <path d="M10.2490234,14 C11.2177734,13.9921875 11.9638672,13.7773438 12.4873047,13.3554688 C13.0107422,12.9335938 13.2724609,12.3125 13.2724609,11.4921875 C13.2724609,11.0117188 13.1464844,10.6054688 12.8945312,10.2734375 C12.6425781,9.94140625 12.2978516,9.72070312 11.8603516,9.61132812 C12.2431641,9.46289062 12.5419922,9.22949219 12.7568359,8.91113281 C12.9716797,8.59277344 13.0791016,8.22460938 13.0791016,7.80664062 C13.0791016,7.04101562 12.8115234,6.45996094 12.2763672,6.06347656 C11.7412109,5.66699219 10.9560547,5.46875 9.92089844,5.46875 L9.92089844,5.46875 L6.93261719,5.46875 L6.93261719,14 L10.2490234,14 Z M9.99121094,9.04296875 L8.69042969,9.04296875 L8.69042969,6.89257812 L9.92089844,6.89257812 C10.4052734,6.89257812 10.7597656,6.97753906 10.984375,7.14746094 C11.2089844,7.31738281 11.3212891,7.59570312 11.3212891,7.98242188 C11.3212891,8.67382812 10.8779297,9.02734375 9.99121094,9.04296875 L9.99121094,9.04296875 Z M10.1962891,12.5878906 L8.69042969,12.5878906 L8.69042969,10.2851562 L10.3017578,10.2851562 C11.1103516,10.296875 11.5146484,10.6933594 11.5146484,11.4746094 C11.5146484,11.8222656 11.3984375,12.0947266 11.1660156,12.2919922 C10.9335938,12.4892578 10.6103516,12.5878906 10.1962891,12.5878906 L10.1962891,12.5878906 Z" fill="#FFFFFF" fill-rule="nonzero"></path>
            </g>
        </g>
    </g>
</svg>