<?xml version="1.0" encoding="UTF-8"?>
<svg width="20px" height="20px" viewBox="0 0 20 20" version="1.1" xmlns="http://www.w3.org/2000/svg" xmlns:xlink="http://www.w3.org/1999/xlink">
    <title>P</title>
    <g id="页面-1" stroke="none" stroke-width="1" fill="none" fill-rule="evenodd">
        <g id="画板" transform="translate(-840.000000, -228.000000)">
            <g id="P" transform="translate(840.000000, 228.000000)">
                <rect id="矩形" fill="#5A6074" x="0" y="0" width="20" height="20" rx="10"></rect>
                <path d="M8.64941406,14 L8.64941406,10.9941406 L10.1904297,10.9941406 C11.2021484,10.9941406 11.9941406,10.7529297 12.5664062,10.2705078 C13.1386719,9.78808594 13.4248047,9.12890625 13.4248047,8.29296875 C13.4248047,7.7421875 13.2939453,7.25097656 13.0322266,6.81933594 C12.7705078,6.38769531 12.3964844,6.0546875 11.9101562,5.8203125 C11.4238281,5.5859375 10.8603516,5.46875 10.2197266,5.46875 L10.2197266,5.46875 L6.89160156,5.46875 L6.89160156,14 L8.64941406,14 Z M10.2197266,9.5703125 L8.64941406,9.5703125 L8.64941406,6.89257812 L10.2607422,6.89257812 C10.6943359,6.90039062 11.0341797,7.03320312 11.2802734,7.29101562 C11.5263672,7.54882812 11.6494141,7.88671875 11.6494141,8.3046875 C11.6494141,8.7109375 11.5273438,9.0234375 11.2832031,9.2421875 C11.0390625,9.4609375 10.6845703,9.5703125 10.2197266,9.5703125 L10.2197266,9.5703125 Z" fill="#FFFFFF" fill-rule="nonzero"></path>
            </g>
        </g>
    </g>
</svg>