<?xml version="1.0" encoding="UTF-8"?>
<svg width="20px" height="20px" viewBox="0 0 20 20" version="1.1" xmlns="http://www.w3.org/2000/svg" xmlns:xlink="http://www.w3.org/1999/xlink">
    <title>U</title>
    <g id="页面-1" stroke="none" stroke-width="1" fill="none" fill-rule="evenodd">
        <g id="画板" transform="translate(-690.000000, -258.000000)">
            <g id="U" transform="translate(690.000000, 258.000000)">
                <rect id="矩形" fill="#5A6074" x="0" y="0" width="20" height="20" rx="10"></rect>
                <path d="M10,14.1171875 C11.0117188,14.1171875 11.8095703,13.8457031 12.3935547,13.3027344 C12.9775391,12.7597656 13.2695312,12.0214844 13.2695312,11.0878906 L13.2695312,11.0878906 L13.2695312,5.46875 L11.5058594,5.46875 L11.5058594,11.1464844 C11.4902344,12.1855469 10.9882812,12.7050781 10,12.7050781 C9.52734375,12.7050781 9.15722656,12.5771484 8.88964844,12.3212891 C8.62207031,12.0654297 8.48828125,11.6582031 8.48828125,11.0996094 L8.48828125,11.0996094 L8.48828125,5.46875 L6.73046875,5.46875 L6.73046875,11.1523438 C6.7421875,12.0742188 7.04101562,12.7988281 7.62695312,13.3261719 C8.21289062,13.8535156 9.00390625,14.1171875 10,14.1171875 Z" fill="#FFFFFF" fill-rule="nonzero"></path>
            </g>
        </g>
    </g>
</svg>