<?xml version="1.0" encoding="UTF-8"?>
<svg width="14px" height="14px" viewBox="0 0 14 14" version="1.1" xmlns="http://www.w3.org/2000/svg" xmlns:xlink="http://www.w3.org/1999/xlink">
    <!-- Generator: Sketch 61.1 (89650) - https://sketch.com -->
    <title>角球 (1)</title>
    <desc>Created with Sketch.</desc>
    <g id="页面-1" stroke="none" stroke-width="1" fill="none" fill-rule="evenodd">
        <g id="角球-(1)" fill-rule="nonzero">
            <path d="M5.07090644,0.00767895132 C5.47698307,0.00767895132 5.76221284,0.30204946 5.76675775,0.72392662 C6.25610661,1.10404013 7.3977626,1.83534583 8.81140351,1.80255075 C10.6535088,1.80255075 12.5680507,2.39181693 13.0687135,3.29827724 C13.0687135,3.29827724 10.4342211,2.60457914 9.69737901,4.10030564 C8.96053692,5.59603215 8.06273758,4.87699945 7.3377193,5.17861913 C6.62996039,5.47822681 6.62241448,5.82372233 6.17757166,5.90126256 C6.03882306,5.92544773 5.89638874,5.9058185 5.76606599,5.86735387 L5.76681286,8.64015759 C5.7258772,9.06750801 5.39839181,9.40938836 5.07090644,9.40938836 C4.66154972,9.40938836 4.375,9.11024306 4.375,8.68289262 L4.375,0.734174684 C4.375,0.306824264 4.66154971,0.00767895132 5.07090644,0.00767895132 Z" id="形状结合" fill="#FF4A4A"></path>
            <path d="M0.225466014,13.7683627 C-0.0610836924,13.4692174 -0.0610836924,13.041867 0.225466014,12.7854567 L4.48277595,8.34101229 C4.76932566,8.04186699 5.17868239,8.04186699 5.42429642,8.34101229 C5.71084612,8.64015759 5.71084612,9.06750802 5.42429642,9.32391827 L1.16698648,13.7683627 C0.921372438,14.067508 0.51201572,14.067508 0.225466014,13.7683627 Z" id="路径" fill="#5AA961"></path>
            <path d="M13.8979806,11.5461405 C13.7751736,11.8880208 13.4476882,12.101696 13.0792672,12.058961 L4.72838999,9.53759348 C4.40090461,9.40938836 4.19622625,9.02477297 4.27809759,8.68289262 C4.40090461,8.34101227 4.72838999,8.12733706 5.09681104,8.17007212 L13.4476882,10.6487046 C13.8570449,10.7341747 14.0617233,11.1187901 13.8979806,11.5461405 L13.8979806,11.5461405 Z" id="路径" fill="#5AA961"></path>
            <path d="M5.21961806,11.6743456 C4.64651865,11.6743456 4.1143549,11.4606704 3.70499817,11.1187901 L2.7634777,12.101696 C3.45938414,12.6145166 4.27809758,12.9563969 5.21961806,12.9563969 C6.77517361,12.9563969 8.08511513,12.058961 8.82195724,10.7769097 L7.43014437,10.3495593 C6.93891631,11.1187901 6.12020286,11.6743456 5.21961806,11.6743456 Z" id="路径" fill="#5AA961"></path>
        </g>
    </g>
</svg>