<?xml version="1.0" encoding="UTF-8"?>
<svg width="20px" height="14px" viewBox="0 0 20 14" version="1.1" xmlns="http://www.w3.org/2000/svg" xmlns:xlink="http://www.w3.org/1999/xlink">
    <title>比分01</title>
    <g id="页面-1" stroke="none" stroke-width="1" fill="none" fill-rule="evenodd" opacity="0.800938198">
        <g id="Y0蓝白版备份-4" transform="translate(-1282.000000, -478.000000)" fill="#727D8A" fill-rule="nonzero">
            <g id="编组-62" transform="translate(234.000000, 273.000000)">
                <g id="编组-93" transform="translate(1038.000000, 0.000000)">
                    <g id="比分01" transform="translate(10.000000, 205.000100)">
                        <path d="M18,0 C19.1045,0 20,0.8955 20,2 L20,2 L20,6.375 L18.875,6.375 C18.5315,6.375 18.25,6.656 18.25,7 C18.25,7.3435 18.5315,7.625 18.875,7.625 L18.875,7.625 L20,7.625 L20,12 C20,13.1045 19.1045,14 18,14 L18,14 L2,14 C0.8955,14 0,13.1045 0,12 L0,12 L0,7.625 L1.125,7.625 C1.4685,7.625 1.75,7.3435 1.75,7 C1.75,6.656 1.4685,6.375 1.125,6.375 L1.125,6.375 L0,6.375 L0,2 C0,0.8955 0.8955,0 2,0 L2,0 Z M10,1 C9.6565,1 9.375,1.2815 9.375,1.625 L9.375,1.625 L9.375,12.375 C9.375,12.719 9.6565,13 10,13 L10,13 L10.0919797,12.9931968 C10.3923554,12.9483884 10.625,12.6877273 10.625,12.375 L10.625,12.375 L10.625,1.625 C10.625,1.2815 10.3435,1 10,1 Z M15.8809,3 L14.4209,3 L12.7914,4.4155 L12.7914,5.989 L14.4209,4.5725 L14.4209,11 L15.8809,11 L15.8809,3 Z M5.40205,2.99975 C4.11955,2.99975 3.00355,3.83925 3.00355,5.34275 L3.00355,5.34275 L3.00355,8.65725 C3.00355,10.15975 4.11955,10.99975 5.40205,10.99975 C6.68305,10.99975 7.78805,10.15975 7.78805,8.65725 L7.78805,8.65725 L7.78805,5.34275 C7.78805,3.83925 6.68305,2.99975 5.40205,2.99975 Z M5.40205,4.29275 C5.96555,4.29275 6.35205,4.70125 6.35205,5.36425 L6.35205,5.36425 L6.35205,8.64625 C6.35205,9.30925 5.96555,9.70725 5.40205,9.70725 C4.83805,9.70725 4.44005,9.30925 4.44005,8.64625 L4.44005,8.64625 L4.44005,5.36425 C4.44005,4.70125 4.83805,4.29275 5.40205,4.29275 Z" id="形状结合"></path>
                    </g>
                </g>
            </g>
        </g>
    </g>
</svg>