<?xml version="1.0" encoding="UTF-8"?>
<svg width="20px" height="20px" viewBox="0 0 20 20" version="1.1" xmlns="http://www.w3.org/2000/svg" xmlns:xlink="http://www.w3.org/1999/xlink">
    <title>矩形备份 26@2x</title>
    <g id="页面-1" stroke="none" stroke-width="1" fill="none" fill-rule="evenodd">
        <g id="虚拟赛狗（与赛马图标不同）" transform="translate(-201.000000, -659.000000)">
            <g id="编组" transform="translate(15.000000, 527.000000)">
                <g transform="translate(186.000000, 132.000000)">
                    <g>
                        <rect id="矩形备份-3" stroke="#99A3B1" fill="#17191D" x="0.5" y="0.5" width="19" height="19" rx="2"></rect>
                        <path d="M0.800009997,2.4 L19.20001,2.4 L19.20001,4.8 L0.800009997,4.8 L0.800009997,2.4 Z M0.800009997,8.8 L19.20001,8.8 L19.20001,11.2 L0.800009997,11.2 L0.800009997,8.8 Z M0.800009997,15.2 L19.20001,15.2 L19.20001,17.6 L0.800009997,17.6 L0.800009997,15.2 Z" id="形状备份-2" fill="#FFFFFF" fill-rule="nonzero"></path>
                    </g>
                    <path d="M12.5737764,4.432 L10.557,8.437 L10.670139,8.44832017 C11.331775,8.53569645 11.9604945,8.83883115 12.457233,9.3309015 L12.602196,9.48416385 C13.1338318,10.084031 13.488,10.9269633 13.488,11.976 C13.488,13.1152169 13.0938701,14.0161238 12.4631491,14.6468448 C11.7989827,15.3110112 10.8592152,15.684 9.78,15.684 C8.69733851,15.684 7.75603427,15.3200562 7.0922478,14.6622498 C6.46508298,14.0407351 6.072,13.14914 6.072,12.004 C6.072,11.0972216 6.41006964,10.2487602 6.84081292,9.35190576 L6.97257072,9.08129094 L9.23683579,4.432 L12.5737764,4.432 Z M9.78,11.134 C9.5853811,11.134 9.41069177,11.195609 9.2907158,11.331234 C9.15393378,11.4858572 9.092,11.7144166 9.092,11.99 C9.092,12.2655834 9.15393378,12.4941428 9.2907158,12.648766 C9.41069177,12.784391 9.5853811,12.846 9.78,12.846 C9.9746189,12.846 10.1493082,12.784391 10.2692842,12.648766 C10.4060662,12.4941428 10.468,12.2655834 10.468,11.99 C10.468,11.720929 10.4055065,11.4894835 10.2655836,11.3313098 C10.1482844,11.1987107 9.97736424,11.134 9.78,11.134 Z" id="6备份" stroke="#FFFFFF" stroke-width="1.2" fill="#FF2A2A" fill-rule="nonzero"></path>
                </g>
            </g>
        </g>
    </g>
</svg>