<?xml version="1.0" encoding="UTF-8"?>
<svg width="20px" height="20px" viewBox="0 0 20 20" version="1.1" xmlns="http://www.w3.org/2000/svg" xmlns:xlink="http://www.w3.org/1999/xlink">
    <title>矩形备份 10@2x</title>
    <g id="矩形备份-10" stroke="none" stroke-width="1" fill="none" fill-rule="evenodd">
        <path d="M2,0 L18,0 C19.1045695,0 20,0.8954305 20,2 L20,18 C20,19.1045695 19.1045695,20 18,20 L2,20 C0.8954305,20 0,19.1045695 0,18 L0,2 C0,0.8954305 0.8954305,0 2,0 Z" id="矩形备份" fill="#E8E8E8"></path>
        <path d="M18,0 C19.1045695,0 20,0.8954305 20,2 L20,18 C20,19.1045695 19.1045695,20 18,20 L2,20 C0.8954305,20 0,19.1045695 0,18 L0,2 C0,0.8954305 0.8954305,0 2,0 L18,0 Z M18,1 L2,1 C1.48716416,1 1.06449284,1.38604019 1.00672773,1.88337887 L1,2 L1,18 C1,18.5128358 1.38604019,18.9355072 1.88337887,18.9932723 L2,19 L18,19 C18.5128358,19 18.9355072,18.6139598 18.9932723,18.1166211 L19,18 L19,2 C19,1.48716416 18.6139598,1.06449284 18.1166211,1.00672773 L18,1 Z" id="矩形备份" fill-opacity="0.25" fill="#000000" fill-rule="nonzero"></path>
        <path d="M12.888,15 L12.888,13.362 L9.038,13.362 L11.824,10.128 C12.51,9.33 12.888,8.812 12.888,7.846 C12.888,6.054 11.628,4.948 9.864,4.948 C8.156,4.948 6.826,6.04 6.826,7.86 L8.646,7.86 C8.646,6.894 9.262,6.586 9.864,6.586 C10.634,6.586 11.068,7.09 11.068,7.832 C11.068,8.294 10.914,8.602 10.55,9.036 L6.826,13.362 L6.826,15 L12.888,15 Z" id="2" fill="#000000" fill-rule="nonzero"></path>
    </g>
</svg>