<?xml version="1.0" encoding="UTF-8"?>
<svg width="20px" height="20px" viewBox="0 0 20 20" version="1.1" xmlns="http://www.w3.org/2000/svg" xmlns:xlink="http://www.w3.org/1999/xlink">
    <title>矩形备份 22@2x</title>
    <g id="矩形备份-22" stroke="none" stroke-width="1" fill="none" fill-rule="evenodd">
        <path d="M2,0 L18,0 C19.1045695,0 20,0.8954305 20,2 L20,18 C20,19.1045695 19.1045695,20 18,20 L2,20 C0.8954305,20 0,19.1045695 0,18 L0,2 C0,0.8954305 0.8954305,0 2,0 Z" id="矩形备份" fill="#185CA9"></path>
        <path d="M18,0 C19.1045695,0 20,0.8954305 20,2 L20,18 C20,19.1045695 19.1045695,20 18,20 L2,20 C0.8954305,20 0,19.1045695 0,18 L0,2 C0,0.8954305 0.8954305,0 2,0 L18,0 Z M18,1 L2,1 C1.48716416,1 1.06449284,1.38604019 1.00672773,1.88337887 L1,2 L1,18 C1,18.5128358 1.38604019,18.9355072 1.88337887,18.9932723 L2,19 L18,19 C18.5128358,19 18.9355072,18.6139598 18.9932723,18.1166211 L19,18 L19,2 C19,1.48716416 18.6139598,1.06449284 18.1166211,1.00672773 L18,1 Z" id="矩形备份" fill-opacity="0.25" fill="#000000" fill-rule="nonzero"></path>
        <path d="M9.766,15.084 C11.474,15.084 12.93,14.104 12.93,12.116 C12.93,10.912 12.356,10.226 11.642,9.848 C12.3,9.498 12.79,8.882 12.79,7.804 C12.79,6.124 11.516,4.948 9.752,4.948 C8.072,4.948 6.742,6.012 6.7,7.79 L8.52,7.79 C8.562,7.034 9.066,6.586 9.752,6.586 C10.41,6.586 10.97,7.02 10.97,7.86 C10.97,8.56 10.592,9.106 9.71,9.106 L9.444,9.106 L9.444,10.688 L9.71,10.688 C10.606,10.688 11.11,11.234 11.11,12.06 C11.11,12.956 10.55,13.446 9.766,13.446 C9.052,13.446 8.436,13.04 8.408,12.144 L6.588,12.144 C6.616,14.23 8.142,15.084 9.766,15.084 Z" id="3" fill="#FFFFFF" fill-rule="nonzero"></path>
    </g>
</svg>