<?xml version="1.0" standalone="no"?>
<!DOCTYPE svg PUBLIC "-//W3C//DTD SVG 1.1//EN" "http://www.w3.org/Graphics/SVG/1.1/DTD/svg11.dtd" >
<svg xmlns="http://www.w3.org/2000/svg">
<metadata>Generated by IcoMoon</metadata>
<defs>
<font id="icomoon" horiz-adv-x="1024">
<font-face units-per-em="1024" ascent="960" descent="-64" />
<missing-glyph horiz-adv-x="1024" />
<glyph unicode="&#x20;" horiz-adv-x="512" d="" />
<glyph unicode="&#xe900;" glyph-name="lock" d="M512 960c141.385 0 256-114.615 256-256v-136.533l102.069-20.414c39.887-7.977 68.598-42.999 68.598-83.676v-382.006c0-40.677-28.711-75.699-68.598-83.676l-257.657-51.531c-66.285-13.257-134.538-13.257-200.823 0l-257.657 51.531c-39.887 7.977-68.598 42.999-68.598 83.676v382.006c0 40.677 28.711 75.699 68.598 83.676l102.069 20.414v136.533c0 141.385 114.615 256 256 256zM427.131 514.811l-256.464-51.434v-372.087l257.657-51.531c47.346-9.469 95.898-10.822 143.588-4.058l23.764 4.058 257.657 51.531v372.087l-256.464 51.434c-56.29 8.080-113.448 8.080-169.738 0zM512 405.333c47.128 0 85.333-38.205 85.333-85.333v-85.333c0-47.128-38.205-85.333-85.333-85.333s-85.333 38.205-85.333 85.333v85.333c0 47.128 38.205 85.333 85.333 85.333zM512 874.667c-89.972 0-163.683-69.622-170.199-157.93l-0.468-12.737v-118.613l33.356 6.866c13.309 2.733 26.679 5.064 40.092 6.994l-3.193-0.662c65.235 13.047 132.377 13.254 197.672 0.62 3.226-0.428 6.492-0.922 9.755-1.44l30.296-5.512 33.356-6.866v118.613c0 89.972-69.622 163.683-157.93 170.199l-12.737 0.468z" />
<glyph unicode="&#xe901;" glyph-name="eye_hide" d="M993.759 651.806c32.764-26.555 40.036-77.726 16.243-114.293-23.11-35.518-47.288-68.041-72.505-97.533l54.369-54.411c14.282-14.282 14.282-37.438 0-51.72s-37.438-14.282-51.72 0v0l-52.79 52.801c-32.269-31.073-66.049-57.636-101.293-79.626l50.18-86.939c10.099-17.492 4.106-39.859-13.386-49.958s-39.859-4.106-49.958 13.386v0l-51.458 89.053c-54.538-24.357-112.197-38.682-172.823-42.772l-0.047-110.938c0-20.198-16.374-36.571-36.571-36.571s-36.571 16.374-36.571 36.571l0.026 110.933c-60.653 4.083-118.337 18.41-172.896 42.777l-51.458-89.053c-10.099-17.492-32.466-23.485-49.958-13.386s-23.485 32.466-13.386 49.958l50.18 86.939c-35.243 21.99-69.024 48.553-101.293 79.626l-52.79-52.801c-14.282-14.282-37.438-14.282-51.72 0s-14.282 37.438 0 51.72l54.369 54.411c-25.218 29.493-49.395 62.016-72.505 97.533-23.793 36.567-16.521 87.738 16.243 114.293s78.612 18.439 102.406-18.128c106.177-163.179 230.946-260.925 379.354-260.925s273.177 97.746 379.354 260.925c23.793 36.567 69.642 44.683 102.406 18.128z" />
<glyph unicode="&#xe902;" glyph-name="eye_show" horiz-adv-x="1097" d="M825.247 704.548l205.164-134.098c67.627-44.202 86.617-134.857 42.415-202.485-11.057-16.916-25.499-31.358-42.415-42.415l-205.164-134.098c-145.872-95.344-334.337-95.344-480.209 0l-205.164 134.098c-67.627 44.202-86.617 134.857-42.415 202.485 11.057 16.916 25.499 31.358 42.415 42.415l205.164 134.098c145.872 95.344 334.337 95.344 480.209 0zM589.376 674.142h-8.466c-116.859 0-212.382-91.35-219.056-206.535l-0.372-12.893v-13.426c0-116.859 91.35-212.382 206.535-219.056l12.893-0.372h8.466c116.859 0 212.382 91.35 219.056 206.535l0.372 12.893v13.426c0 121.187-98.242 219.429-219.429 219.429zM586.677 602.631c83.579 0 151.334-67.754 151.334-151.334v-13.494c0-83.579-67.754-151.334-151.334-151.334s-151.334 67.754-151.334 151.334v13.494c0 83.579 67.754 151.334 151.334 151.334z" />
<glyph unicode="&#xe903;" glyph-name="live_box" horiz-adv-x="1463" d="M1316.571 960c80.791 0 146.286-65.494 146.286-146.286v-731.429c0-80.791-65.494-146.286-146.286-146.286h-1170.286c-80.791 0-146.286 65.494-146.286 146.286v731.429c0 80.791 65.494 146.286 146.286 146.286h1170.286zM1206.857 155.429h-950.857c-20.198 0-36.571-16.374-36.571-36.571s16.374-36.571 36.571-36.571v0h950.857c20.198 0 36.571 16.374 36.571 36.571s-16.374 36.571-36.571 36.571v0zM305.612 740.571h-86.183v-512h245.546v91.429h-159.363v420.571zM602.409 740.571h-85.928v-512h85.928v512zM727.349 740.571h-90.008l119.841-512h93.068l120.351 512h-90.263l-73.689-374.505-2.55-17.231h-1.53l-2.55 18.637-72.669 373.099zM1243.429 740.571h-243.251v-512h242.996v91.429h-156.813v127.648h130.805v91.429h-130.805v110.066h157.068v91.429z" />
<glyph unicode="&#xe904;" glyph-name="back" d="M473.832 944.19c21.080 21.080 55.257 21.080 76.337 0s21.080-55.257 0-76.337l-366.036-365.883 785.919 0.008c29.811 0 53.978-24.167 53.978-53.978s-24.167-53.978-53.978-53.978l-785.767 0.008 365.883-365.883c21.080-21.080 21.080-55.257 0-76.337s-55.257-21.080-76.337 0l-458.022 458.022c-21.080 21.080-21.080 55.257 0 76.337l458.022 458.022z" />
<glyph unicode="&#xe905;" glyph-name="animation2" horiz-adv-x="1463" d="M1316.571 960c80.791 0 146.286-65.494 146.286-146.286v-731.429c0-80.791-65.494-146.286-146.286-146.286h-530.286l0.044 224.571c135.34 25.695 237.67 144.611 237.67 287.429s-102.331 261.734-237.67 287.429l-0.044 224.571h530.286zM676.571 960l0.029-224.558c-135.376-25.666-237.743-144.599-237.743-287.442s102.367-261.777 237.743-287.442l-0.029-224.558h-530.286c-80.791 0-146.286 65.494-146.286 146.286v731.429c0 80.791 65.494 146.286 146.286 146.286h530.286zM731.429 630.857c100.989 0 182.857-81.868 182.857-182.857s-81.868-182.857-182.857-182.857c-100.989 0-182.857 81.868-182.857 182.857s81.868 182.857 182.857 182.857zM201.143 594.286c-30.297 0-54.857-24.56-54.857-54.857v0-182.857c0-30.297 24.56-54.857 54.857-54.857s54.857 24.56 54.857 54.857v0 182.857c0 30.297-24.56 54.857-54.857 54.857zM1261.714 594.286c-30.297 0-54.857-24.56-54.857-54.857v0-182.857c0-30.297 24.56-54.857 54.857-54.857s54.857 24.56 54.857 54.857v0 182.857c0 30.297-24.56 54.857-54.857 54.857z" />
<glyph unicode="&#xe906;" glyph-name="tips" d="M512 960c282.77 0 512-229.23 512-512s-229.23-512-512-512c-282.77 0-512 229.23-512 512s229.23 512 512 512zM512 864.914c-230.255 0-416.914-186.659-416.914-416.914s186.659-416.914 416.914-416.914c230.255 0 416.914 186.659 416.914 416.914s-186.659 416.914-416.914 416.914zM566.857 521.143v-365.714h-109.714v365.714h109.714zM566.857 740.571v-109.714h-109.714v109.714h109.714z" />
<glyph unicode="&#xe907;" glyph-name="set_top" d="M572.34 685.43l311.185-311.185c33.325-33.325 33.325-87.355 0-120.68-16.003-16.003-37.708-24.994-60.34-24.994l-91.793 0.037 0.037-207.275c0-47.128-38.205-85.333-85.333-85.333h-268.191c-47.128 0-85.333 38.205-85.333 85.333l-0.049 207.275-91.708-0.037c-47.128 0-85.333 38.205-85.333 85.333 0 22.632 8.99 44.337 24.994 60.34l311.185 311.185c33.325 33.325 87.355 33.325 120.68 0zM950.857 960c40.396 0 73.143-32.747 73.143-73.143s-32.747-73.143-73.143-73.143h-877.714c-40.396 0-73.143 32.747-73.143 73.143s32.747 73.143 73.143 73.143h877.714z" />
<glyph unicode="&#xe908;" glyph-name="open" d="M950.857 813.714c40.395 0 73.143 32.747 73.143 73.143s-32.748 73.143-73.143 73.143h-877.714c-40.395 0-73.143-32.747-73.143-73.143s32.748-73.143 73.143-73.143h877.714zM817.882-42.577l181.019 181.019c28.564 28.564 28.564 74.876 0 103.44s-74.876 28.564-103.439 0l-54.319-54.344v406.747c0 40.396-32.748 73.143-73.143 73.143s-73.143-32.747-73.143-73.143v-410.478l-57.994 58.074c-28.564 28.564-74.876 28.564-103.44 0s-28.564-74.876 0-103.44l181.020-181.019c28.564-28.564 74.876-28.564 103.439 0zM438.857 374.857c40.395 0 73.143 32.747 73.143 73.143s-32.748 73.143-73.143 73.143h-365.714c-40.395 0-73.143-32.747-73.143-73.143s32.748-73.143 73.143-73.143h365.714zM365.714-64c40.395 0 73.143 32.747 73.143 73.143s-32.748 73.143-73.143 73.143h-292.571c-40.395 0-73.143-32.747-73.143-73.143s32.748-73.143 73.143-73.143h292.571z" />
<glyph unicode="&#xe909;" glyph-name="calendar" d="M256 735.999c26.501 0 48 21.501 48 48v128.001c0 26.5-21.5 48-48 48s-48.001-21.5-48.001-48v-128.001c0.001-26.499 21.502-48 48.002-48h-0.001zM987.428 813.713h-109.713l2.285-29.714c0-61.857-50.142-112-111.999-112-61.859 0-112.001 50.143-112.001 112.001l2.285 29.713h-292.571l2.285-29.714c0-61.857-50.142-112-111.998-112-61.858 0-112.001 50.143-112.001 112.001l2.286 29.713h-109.716c-26.502 0-36.571-10.070-36.571-36.571v-793.141c0-26.5 21.5-48.001 48-48.001h928.001c26.501 0 48 21.501 48 48.002v793.139c0 26.501-10.071 36.572-36.572 36.572v0zM914.285 45.715h-804.57v512h804.57v-512zM768.001 735.999c26.5 0 48 21.502 48 48.001v128c0 26.5-21.5 48-48 48-26.502 0-48.001-21.501-48.001-48v-128.001c0-26.499 21.499-48 48.001-48v0zM292.571 338.284c40.392 0 73.142 32.788 73.142 73.145 0 40.428-32.75 73.142-73.142 73.142s-73.142-32.714-73.142-73.142c0-40.358 32.75-73.145 73.142-73.145v0zM512.001 338.284c40.391 0 73.141 32.788 73.141 73.145 0 40.428-32.75 73.142-73.141 73.142-40.393 0-73.143-32.714-73.143-73.142 0-40.358 32.75-73.145 73.143-73.145v0zM731.429 338.284c40.392 0 73.142 32.788 73.142 73.145 0 40.428-32.75 73.142-73.142 73.142-40.394 0-73.143-32.714-73.143-73.142 0-40.358 32.75-73.145 73.143-73.145v0zM292.571 155.428c40.392 0 73.142 32.786 73.142 73.142 0 40.43-32.75 73.144-73.142 73.144s-73.142-32.714-73.142-73.144c0-40.357 32.75-73.142 73.142-73.142zM512.001 155.428c40.391 0 73.141 32.786 73.141 73.142 0 40.43-32.75 73.144-73.141 73.144-40.393 0-73.143-32.714-73.143-73.144 0-40.357 32.75-73.142 73.143-73.142zM731.429 155.428c40.392 0 73.142 32.786 73.142 73.142 0 40.43-32.75 73.144-73.142 73.144-40.394 0-73.143-32.714-73.143-73.144 0-40.357 32.75-73.142 73.143-73.142z" />
<glyph unicode="&#xe90a;" glyph-name="sort_league" horiz-adv-x="878" d="M839.896 367.88l-164.833-152.63 36.165-213.671c3.652-21.555-6.42-43.028-25.9-55.507-10.57-6.641-22.856-10.072-35.224-10.072h-0.553c-10.38 0.095-20.597 2.585-29.856 7.277l-193.748 100.25-195.353-97.234c-9.215-4.485-19.331-6.812-29.58-6.807h-0.47c-12.629 0.096-24.97 3.782-35.584 10.625-19.286 12.784-28.971 34.394-24.931 55.894l39.707 213.118-162.259 155.148c-16.077 15.302-21.445 37.659-13.918 57.804 7.526 20.061 26.702 34.726 49.696 37.742l223.411 29.552 98.59 188.989c10.321 19.729 32.042 32.236 55.839 32.236h0.498c24.018-0.194 45.795-13.088 55.784-33.094l95.408-190.511 222.913-33.011c22.911-3.348 41.865-18.318 49.060-38.517 7.222-20.255 1.467-42.502-14.859-57.582zM739.369 551.861h-97.704c-15.282 0-27.67 12.388-27.67 27.67v352.798c0 15.282 12.388 27.67 27.67 27.67h97.704c15.282 0 27.67-12.388 27.67-27.67v-352.798c0-15.282-12.388-27.67-27.67-27.67v0zM492.051 732.577h-126.233c-15.282 0-27.67 12.388-27.67 27.67v172.082c0 15.282 12.388 27.67 27.67 27.67h126.233c15.282 0 27.67-12.388 27.67-27.67v-172.082c0-15.282-12.388-27.67-27.67-27.67v0zM216.232 551.861h-97.732c-15.282 0-27.67 12.388-27.67 27.67v352.798c0 15.282 12.388 27.67 27.67 27.67h97.732c15.271-0.015 27.643-12.399 27.643-27.67v-352.798c0-15.271-12.372-27.655-27.643-27.67z" />
<glyph unicode="&#xe90b;" glyph-name="sort_date" d="M512 960c282.77 0 512-229.23 512-512s-229.23-512-512-512c-282.77 0-512 229.23-512 512s229.23 512 512 512zM493.714 740.571c-30.297 0-54.857-24.56-54.857-54.857v0-256c0-0.7 0.013-1.397 0.041-2.090 0.052-1.346 0.154-2.69 0.298-4.047 0.188-1.688 0.452-3.353 0.8-4.971 0.121-0.586 0.251-1.17 0.378-1.758 0.403-1.675 0.882-3.32 1.43-4.879 0.316-0.928 0.658-1.849 1.038-2.82 0.558-1.379 1.17-2.73 1.817-4.011v0l1.362-2.549c0.807-1.416 1.676-2.793 2.603-4.144 0.505-0.728 1.029-1.446 1.556-2.114 1.523-1.983 3.178-3.858 4.876-5.55v0l1.867-1.662 4.551-3.79 212.128-161.152c24.511-17.808 58.817-12.374 76.625 12.136s12.374 58.817-12.136 76.625v0l-189.519 143.984v228.791c0 30.297-24.56 54.857-54.857 54.857z" />
<glyph unicode="&#xe90c;" glyph-name="del" d="M858.239 829.557c40.195-40.195 40.195-105.364 0-145.559l-218.333-218.333 218.333-218.333c40.195-40.195 40.195-105.364 0-145.559s-105.364-40.195-145.559 0l-218.412 218.412-218.266-218.412c-40.195-40.195-105.364-40.195-145.559 0s-40.195 105.364 0 145.559l218.266 218.412-218.266 218.266c-40.195 40.195-40.195 105.364 0 145.559s105.364 40.195 145.559 0l218.333-218.333 218.333 218.333c40.195 40.195 105.364 40.195 145.559 0z" />
<glyph unicode="&#xe90d;" glyph-name="close" d="M987.128 938.309c16.98-16.98 16.98-44.509 0-61.489l-421.838-421.769 431.033-431.033c16.662-16.662 16.662-43.677 0-60.34s-43.677-16.662-60.34 0l-431.033 431.033-421.769-421.838c-16.98-16.98-44.509-16.98-61.489 0s-16.98 44.509 0 61.489l421.792 421.815-430.987 430.987c-16.662 16.662-16.662 43.677 0 60.34s43.677 16.662 60.34 0l430.987-430.987 421.815 421.792c16.98 16.98 44.509 16.98 61.489 0z" />
<glyph unicode="&#xe90e;" glyph-name="search" d="M1014.372-4.804l-205.292 206.11c161.567 187.075 145.838 468.094-35.602 636.072s-463.6 162.747-638.655-11.841c-175.055-174.588-180.301-455.996-11.873-636.953s450.197-196.644 637.773-35.507l202.555-206.11c13.354-14.072 35.617-14.683 49.726-1.365s14.722 35.522 1.369 49.594zM71.396 499.779c0 215.099 174.838 389.47 390.512 389.47s390.512-174.372 390.512-389.47c0-215.099-174.838-389.47-390.512-389.47-215.569 0.251-390.26 174.476-390.512 389.47v0z" />
<glyph unicode="&#xe90f;" glyph-name="play_pause" d="M292.571 960c80.791 0 146.286-65.494 146.286-146.286v-731.429c0-80.791-65.494-146.286-146.286-146.286h-146.286c-80.791 0-146.286 65.494-146.286 146.286v731.429c0 80.791 65.494 146.286 146.286 146.286h146.286zM877.714 960c80.791 0 146.286-65.494 146.286-146.286v-731.429c0-80.791-65.494-146.286-146.286-146.286h-146.286c-80.791 0-146.286 65.494-146.286 146.286v731.429c0 80.791 65.494 146.286 146.286 146.286h146.286z" />
<glyph unicode="&#xe910;" glyph-name="play_stop" d="M146.286 960h731.429c80.791 0 146.286-65.494 146.286-146.286v-731.429c0-80.791-65.494-146.286-146.286-146.286h-731.429c-80.791 0-146.286 65.494-146.286 146.286v731.429c0 80.791 65.494 146.286 146.286 146.286z" />
<glyph unicode="&#xe911;" glyph-name="hide" d="M950.857 82.286c40.395 0 73.143-32.747 73.143-73.143s-32.748-73.143-73.143-73.143h-877.714c-40.395 0-73.143 32.747-73.143 73.143s32.748 73.143 73.143 73.143h877.714zM817.882 938.577l181.019-181.019c28.564-28.564 28.564-74.876 0-103.44s-74.876-28.564-103.439 0l-54.319 54.344v-406.747c0-40.396-32.748-73.143-73.143-73.143s-73.143 32.747-73.143 73.143v410.478l-57.994-58.074c-28.564-28.564-74.876-28.564-103.44 0s-28.564 74.876 0 103.44l181.020 181.019c28.564 28.564 74.876 28.564 103.439 0zM438.857 521.143c40.395 0 73.143-32.747 73.143-73.143s-32.748-73.143-73.143-73.143h-365.714c-40.395 0-73.143 32.747-73.143 73.143s32.748 73.143 73.143 73.143h365.714zM365.714 960c40.395 0 73.143-32.747 73.143-73.143s-32.748-73.143-73.143-73.143h-292.571c-40.395 0-73.143 32.747-73.143 73.143s32.748 73.143 73.143 73.143h292.571z" />
<glyph unicode="&#xe912;" glyph-name="go_top" horiz-adv-x="731" d="M624.289 521.389c4.587 295.56-239.946 429.58-256.43 438.181v0.43c0 0-0.143-0.143-0.43-0.286-0.286 0.143-0.43 0.286-0.43 0.286v-0.43c-16.483-8.601-261.017-142.62-256.43-438.181-49.737-31.965-101.912-88.869-93.599-187.341s104.35-163.692 141.044-160.108c36.693 3.583 26.087 30.817 26.087 30.817l12.614 51.028c0 0 54.181-81.989 71.525-81.989 15.624 1.289 89.872 0.143 98.759 0h0.86c8.887 0.143 83.135 1.289 98.759 0 17.344 0 71.525 81.989 71.525 81.989l12.614-51.028c0 0-10.607-27.234 26.088-30.817s132.73 61.635 141.043 160.107c8.457 98.473-43.718 155.378-93.599 187.341v0.001zM367.429 525.689c-7.024 0.143-97.899 3.44-106.213 109.080 3.010 100.48 99.046 109.366 106.213 109.796 7.166-0.574 103.202-9.46 106.213-109.797-8.17-105.638-99.19-108.935-106.213-109.078v0zM313.821 16.269c0-12.040-9.747-21.787-21.787-21.787s-21.787 9.747-21.787 21.787v107.504c0 12.039 9.747 21.786 21.787 21.786s21.787-9.746 21.787-21.787v-107.503zM393.66-41.926c0-12.184-9.89-22.074-22.074-22.074s-22.074 9.89-22.074 22.074v159.821c0 12.184 9.89 22.074 22.074 22.074s22.074-9.89 22.074-22.074v-159.821zM467.191 41.639c0-12.040-9.746-21.787-21.787-21.787s-21.787 9.747-21.787 21.787v76.686c0 12.040 9.747 21.787 21.787 21.787 12.041 0 21.787-9.747 21.787-21.787v-76.686z" />
<glyph unicode="&#xe913;" glyph-name="flame" d="M99.010 656.42c73.358 79.252 132.098 167.459 124.934 264.478-0.693 9.874-0.552 19.747-1.246 29.492-0.41 4.738 3.313 8.819 8.41 9.217 3.037 0.128 5.933 0.393 8.827 0.393 220.907 0 400.035-163.243 400.035-364.531 0-15.138-1.103-29.884-3.172-44.495-1.103-8.035 8.822-12.773 14.887-7.109 63.709 58.713 105.77 136.777 114.18 224.064 0.553 6.054 7.582 9.61 13.372 6.447 146.721-82.28 244.762-229.458 244.762-397.97 0-192.598-128.097-357.949-310.948-429.172-33.095-12.901-69.911-14.74-104.384-5.264-79.013 21.592-153.75 61.478-216.355 119.537-23.445 21.855-43.854 45.42-61.918 70.033-4.135 5.792-13.372 4.481-15.58-1.973-18.617-51.476-27.444-105.183-26.617-159.031 0.141-6.319-6.753-10.528-12.819-7.764-163.407 78.068-275.378 233.674-275.378 413.634 0 100.317 33.234 196.814 92.393 272.905z" />
<glyph unicode="&#xe914;" glyph-name="refresh" d="M976 592.001h-207.999c-26.535 0-47.999 21.5-47.999 48.001 0 26.499 21.465 47.999 47.999 47.999h83.498c-75.32 106.429-199.176 175.999-339.498 175.999-229.751 0-416-186.25-416-415.998 0-229.75 186.25-415.999 416-415.999s415.999 186.25 415.999 415.999c0 26.499 21.464 47.999 47.998 47.999 26.501 0 48.002-21.5 48.002-47.999 0-282.768-229.252-511.999-512-511.999-282.75 0-512 229.23-512 511.999 0 282.767 229.25 511.998 512 511.998 171.606 0 323.177-84.606 415.999-214.232v86.232c0 26.501 21.464 48 47.998 48 26.501 0 48.003-21.499 48.003-48v-191.999c0-26.501-21.501-48-48-48z" />
<glyph unicode="&#xe915;" horiz-adv-x="2219" d="M85.333 960h2048c47.128 0 85.333-38.205 85.333-85.333v-853.333c0-47.128-38.205-85.333-85.333-85.333h-2048c-47.128 0-85.333 38.205-85.333 85.333v853.333c0 47.128 38.205 85.333 85.333 85.333z" />
<glyph unicode="&#xe916;" horiz-adv-x="2219" d="M679.793 149.333v79.59h-281.004v517.744h-100.123v-597.333h381.127zM873.035 149.333v597.333h-100.123v-597.333h100.123zM1259.518 149.333l214.255 597.333h-106.715l-143.386-436.103-10.301-42.667h-2.472l-10.713 43.487-142.974 435.282h-106.715l213.843-597.333h95.179zM1920 149.333v79.59h-276.883v189.128h234.856v80h-234.856v168.615h273.999v80h-374.122v-597.333h377.006z" />
<glyph unicode="&#xe917;" glyph-name="arrow-left" horiz-adv-x="614" d="M28.827 517.057c-38.435-38.139-38.435-99.974 0-138.113l417.56-414.339c38.435-38.139 100.751-38.139 139.187 0s38.435 99.974 0 138.113l-347.967 345.283 347.967 345.283c38.435 38.139 38.435 99.974 0 138.113s-100.751 38.139-139.187 0l-417.56-414.339z" />
<glyph unicode="&#xe918;" glyph-name="arrow-right" horiz-adv-x="614" d="M585.573 517.057c38.435-38.139 38.435-99.974 0-138.113l-417.56-414.339c-38.435-38.139-100.751-38.139-139.187 0s-38.435 99.974 0 138.113l347.967 345.283-347.967 345.283c-38.435 38.139-38.435 99.974 0 138.113s100.751 38.139 139.187 0l417.56-414.339z" />
<glyph unicode="&#xe919;" glyph-name="sports_badminton" d="M60.182 267.817c2.918 2.913 7.649 2.913 10.568 0v0l260.966-260.93c2.918-2.913 2.918-7.649 0-10.568v0l-4.060-4.060c-36.229-36.224-84.495-56.258-135.762-56.258-51.277 0-99.543 19.973-135.772 56.258-74.829 74.885-74.829 196.613 0 271.498v0zM548.436 959.517c8.704 1.536 17.664-0.64 24.704-5.888s11.715-13.251 12.611-22.016v0l14.392-127.677c0.215-1.894-0.307-3.799-1.454-5.325v0l-341.647-455.111c-2.237-2.975-1.94-7.137 0.691-9.769v0l34.97-35.016c3.21-3.215 8.53-2.842 11.259 0.794v0l336 447.493c1.592 2.12 4.183 3.241 6.82 2.939v0l124.861-14.172c14.781-1.603 26.501-13.312 28.165-28.16v0l13.225-116.577c0.292-2.601-0.794-5.171-2.877-6.769v0l-447.319-343.669c-3.579-2.755-3.927-8.023-0.732-11.213v0l34.98-34.975c2.652-2.652 6.861-2.929 9.836-0.64v0l438.057 336.599c1.761 1.352 4.024 1.853 6.19 1.367v0l147.845-33.091c17.024-3.84 27.843-20.547 24.325-37.571v0l-32.005-158.341c-2.237-11.264-10.368-20.413-21.253-24.064v0l-533.018-178.068c-1.101-0.364-2.099-0.988-2.913-1.807v0l-46.602-46.587c-2.918-2.924-7.649-2.924-10.568 0v0l-260.966 260.925c-2.918 2.918-2.918 7.649 0 10.568v0l46.659 46.653c0.824 0.824 1.439 1.823 1.807 2.918v0l178.094 532.94c3.779 11.131 13.251 19.261 24.842 21.309v0z" />
<glyph unicode="&#xe91a;" glyph-name="sports_basketball" d="M706.669 716.255c14.241-9.453 27.932-19.394 41.059-29.773 4.977-3.938 6.198-10.937 2.832-16.262-2.527-3.991-4.984-8.14-7.378-12.467-61.911-111.999-47.39-221.784-31.181-319.759l8.393-50.667c8.493-53.501 13.894-104.176 1.449-149.72-53.541-195.913-210.577-202.058-216.642-201.587-72.076 5.613-145.069 19.357-213.615 52.881-5.314 2.601-7.926 8.505-6.623 13.95l1.261 3.181 403.249 706.255c3.465 6.069 11.331 7.864 17.195 3.968zM644.889 752.329c5.224-2.656 7.758-8.505 6.453-13.894l-1.253-3.148-403.251-706.259c-3.501-6.131-11.482-7.9-17.348-3.873-56.253 38.644-102.719 89.548-141.289 142.577l-14.097 19.966c-0.864 1.26-79.67 138.656 67.621 288.586 36.585 37.248 89.319 58.669 145.779 79.993l44.63 16.865c88.186 33.904 182.686 77.202 244.4 181.908 2.511 4.253 4.827 8.485 6.989 12.695 2.871 5.608 9.482 8.040 15.341 5.646 15.451-6.299 30.815-13.321 46.027-21.063zM530.018 796.672c6.653-1.794 10.41-8.637 8.793-14.9l-1.268-3.057c-53.938-91.493-136.527-130.036-219.876-162.168l-65.727-24.986c-53.704-20.99-103.392-44.047-142.274-82.709-39.568-39.343-65.523-77.083-82.101-111.798-5.211-10.906-21.447-8.321-22.981 3.748-9.568 75.366-5.715 153.904 26.528 224.427 76.303 166.895 297.022 225.945 498.905 171.443zM799.449 639.878l2.642-2.044c147.618-149.544 207.406-372.35 102.62-522.616-44.278-63.497-109.616-106.14-178.947-135.444-11.103-4.691-21.436 8.235-14.701 18.251 21.443 31.875 40.787 73.474 54.699 127.795 15.19 59.312 7.21 120.672-3.38 185.209l-8.387 50.782c-13.322 83.818-21.442 169.887 20.43 257.121l8.448 16.37c2.642 4.765 7.782 6.855 12.595 6.017l3.98-1.441zM460.422 958.903l13.364-6.521c25.913-13.457 67.141-39.63 80.375-75.078 2.994-8.022 4.692-16.409 5.114-25.138 0.397-8.224-7.235-14.44-15.152-12.268-121.274 33.301-243.878 27.413-346.657-13.99-12.81-5.165-23.025 11.908-12.392 20.722 77.002 63.847 170.956 102.74 269.009 113.299 2.166 0.235 4.346-0.117 6.338-1.026zM858.886 699.256c42.607 7.177 94.364-24.916 116.538-40.571 1.845-1.301 3.298-3.071 4.207-5.142 40.172-91.29 53.933-193.233 37.719-292.799-2.23-13.714-21.957-13.312-23.943 0.491-15.931 110.712-72.189 221.015-161.347 310.564-5.817 5.84-4.314 15.634 2.919 19.392 7.63 3.968 15.605 6.667 23.907 8.065zM746.345 903.879l-61.735-108.123c-3.213-5.627-10.266-7.612-16.056-4.621-18.833 9.72-37.889 18.419-57.076 26.090-5.236 2.089-8.366 7.44-7.692 13.038 2.63 21.732 0.264 42.669-7.189 62.656-6.427 17.21-16.078 32.064-27.152 44.745-7.482 8.564-0.649 21.752 10.54 20.166 49.614-7.041 98.882-21.526 146.207-43.887l20.154-10.064zM796.701 873.628c46.103-31.348 85.749-69.144 118.425-111.458 6.952-9.005-0.919-21.58-11.995-19.311-16.405 3.356-33.952 4.38-51.9 1.401-20.846-3.46-39.956-11.858-57.261-25.030-4.453-3.391-10.599-3.321-15.010 0.222-16.16 12.964-33.137 25.301-50.881 36.929-4.369 2.862-6.411 8.023-5.407 12.856l1.335 3.522 55.373 96.98c3.493 6.118 11.454 7.881 17.321 3.889z" />
<glyph unicode="&#xe91b;" glyph-name="sports_pingpong" d="M907.317 173.163c64.443 0 116.683-53.089 116.683-118.579s-52.24-118.584-116.683-118.584c-64.443 0-116.683 53.094-116.683 118.584s52.24 118.579 116.683 118.579zM125.93 614.936l492.551-500.552c-15.522-3.067-31.262-5.268-47.142-6.538-92.359-7.363-184.536 16.456-261.614 67.297v0l-179.508-182.42c-4.141-4.209-9.572-6.313-15.003-6.313-5.436 0-10.862 2.104-14.998 6.313v0l-93.996 95.524c-8.293 8.422-8.293 22.072 0 30.49v0l179.498 182.426c-50.023 78.326-73.471 172.017-66.216 265.866 1.244 16.143 3.411 32.133 6.429 47.908v0zM241.211 835.181c163.759 166.42 430.225 166.431 593.989 0 163.764-166.42 163.764-437.222-0.005-603.643-40.144-40.796-87.734-72.581-139.591-93.896v0l-546.787 555.679c20.974 52.695 52.245 101.064 92.394 141.86z" />
<glyph unicode="&#xe91c;" glyph-name="failure" d="M982.928 645.742c109.647-257.328-7.601-554.489-264.143-669.458-63.881-26.771-132.547-40.472-201.888-40.283-245.994 0.741-457.594 172.98-506.499 412.285s78.352 479.775 304.611 575.605c261.793 102.644 558.271-20.822 667.918-278.149zM327.619 667.29l-6.658-1.167c-13.218-3.542-23.542-13.866-27.083-27.083s0.237-27.321 9.913-36.997v0l154.376-154.408-154.376-154.438c-10.648-10.86-13.797-27.022-8.007-41.085s19.407-23.321 34.615-23.537c10.356-0.11 20.31 4.009 27.559 11.406v0l154.116 153.749 153.781-153.749c7.018-7.162 16.582-11.261 26.608-11.404 15.208 0.214 28.824 9.472 34.615 23.535s2.641 30.225-8.007 41.085v0l-153.31 154.146 154.261 153.75c14.958 14.958 14.958 39.209 0 54.167s-39.209 14.958-54.167 0v0l-153.927-153.865-153.969 154.815c-9.676 9.676-23.779 13.455-36.997 9.913z" />
<glyph unicode="&#xe91d;" glyph-name="sports_snooker" d="M512 960c136.765 0 265.338-53.258 362.040-149.96 96.702-96.707 149.96-225.28 149.96-362.040 0-136.765-53.258-265.333-149.96-362.040s-225.275-149.96-362.040-149.96c-136.765 0-265.338 53.253-362.040 149.96s-149.96 225.275-149.96 362.040c0 136.76 53.258 265.333 149.96 362.040 96.702 96.702 225.275 149.96 362.040 149.96zM512 715.502c-147.502 0-267.502-120.001-267.502-267.502s120.001-267.502 267.502-267.502c147.502 0 267.502 120.001 267.502 267.502s-120.001 267.502-267.502 267.502zM304.932 434.444c-7.994 125.080 95.551 228.616 220.631 220.621 103.383-6.61 186.89-90.117 193.506-193.506 7.994-125.080-95.556-228.631-220.637-220.631-103.389 6.615-186.9 90.127-193.501 193.516zM513.955 590.305c-62.2 0-105.244-30.127-105.244-78.25 0-19.116 6.828-34.943 19.39-46.922 5.252-5.008 4.38-13.545-1.419-17.92-17.737-13.388-27.744-32.281-27.744-56.046 0-51.651 45.771-84.12 115.023-84.12 69.632 0 115.803 32.469 115.803 84.12 0 23.775-10.027 42.673-27.988 56.067-5.855 4.37-6.722 12.957-1.424 17.996 12.602 11.964 19.628 27.76 19.628 46.825 0 48.123-43.033 78.25-106.025 78.25zM513.96 432.246c31.683 0 51.641-14.873 51.641-39.125 0-24.257-19.953-39.515-51.641-39.515-31.303 0-50.865 15.259-50.865 39.515s19.562 39.125 50.865 39.125zM513.96 543.742c25.823 0 43.033-12.906 43.033-34.426 0-20.739-16.825-33.645-43.033-33.645-25.828 0-42.258 12.911-42.258 33.645 0 21.514 16.825 34.426 42.258 34.426z" />
<glyph unicode="&#xe91e;" glyph-name="sports_soccer" d="M684.218 930.31c202.473-72.186 339.782-265.46 339.782-482.019 0-281.76-230.4-512.291-512-512.291s-512 230.531-512 512.291c0 216.559 137.309 409.833 342.109 482.019 109.382 39.586 232.727 39.586 342.109 0zM619.055 853.467l-81.455-58.215c-16.291-11.643-39.564-11.643-55.855 0l-81.455 58.215c-6.982-2.329-18.618-6.986-27.927-9.314-88.436-32.6-162.909-93.144-211.782-167.659l30.255-95.472c6.982-18.629 0-39.586-16.291-51.229l-81.455-60.543v-20.957c0-100.13 34.909-190.945 93.091-263.131h100.073c20.945 0 37.236-13.972 44.218-32.6l30.255-95.472c46.545-18.629 97.745-27.943 151.273-27.943s102.4 9.314 148.945 27.943l30.255 95.472c6.982 18.629 23.273 32.6 44.218 32.6h100.073c58.182 72.186 93.091 163.002 93.091 263.131v20.957l-81.455 58.215c-16.291 11.643-23.273 32.6-16.291 51.229l32.582 97.801c-48.873 74.515-123.345 135.059-211.782 167.659-9.309 4.657-20.945 6.986-32.582 9.314zM539.927 667.179l172.218-123.416c16.291-11.643 23.273-32.6 16.291-51.229l-65.164-202.588c-6.982-18.629-23.273-32.6-44.218-32.6h-211.782c-20.945 0-37.236 13.972-44.218 32.6l-65.164 202.588c-6.982 18.629 0 39.586 16.291 51.229l169.891 123.416c16.291 11.643 39.564 11.643 55.855 0z" />
<glyph unicode="&#xe91f;" glyph-name="sports_tennis" d="M512 960c67.878 0 132.671-13.209 191.948-37.196 177.133-263.743 226.897-581.728 55.881-922.919-73.451-40.718-157.935-63.885-247.829-63.885-37.334 0-73.734 3.996-108.797 11.583 70.8 64.989 108.374 143.649 108.374 262.505 0 87.468-41.675 157.627-144.131 276.513l-58.204 67.319-15.893 18.889c-34.317 41.306-49.935 64.17-60.749 88.38l-2.249 5.216-3.257 8.243c-27.35 72.797-23.612 140.599 11.406 206.259 79.172 50.11 172.951 79.093 273.499 79.093zM133.266 792.572c-3.853-47.28 3.45-95.731 21.935-144.934 15.5-41.255 32.44-68.35 82.489-128.076l16.942-20 54.003-62.365 19.202-22.593c76.321-91.201 106.94-146.722 106.94-204.515 0-112.325-39.341-176.378-119.172-235.053-185.317 77.032-315.605 259.783-315.605 472.964 0 130.509 48.83 249.613 129.217 340.040l4.049 4.532zM1024 448c0-146.807-61.787-279.183-160.776-372.541 109.181 283.971 77.018 551.544-46.767 784.215 125.912-93.256 207.543-242.932 207.543-411.674z" />
<glyph unicode="&#xe920;" glyph-name="statistics" d="M508.2 394.7l475-1.5c-8.4-118.3-58.9-229.4-142.6-313.1-92.9-92.9-216.4-144.1-347.9-144.1v0c-118.3 0-232.4 42.8-322.4 120.7v0l337.9 338zM457.2 919.1v-477.2l-336.5-335.6c-77.8 89.9-120.7 204-120.7 322.1 0 131.6 51.2 255.2 144.3 348.2 83.5 83.5 194.6 134 312.9 142.5zM557.4 960c121.9-7.3 236.3-58.4 322.3-144.4 85.9-85.9 137-200.3 144.3-322.4h-466.6v466.8z" />
<glyph unicode="&#xe921;" glyph-name="signal" d="M146.286 667.429c40.396 0 73.143-32.747 73.143-73.143v-585.143c0-40.396-32.747-73.143-73.143-73.143h-73.143c-40.396 0-73.143 32.747-73.143 73.143v585.143c0 40.396 32.747 73.143 73.143 73.143h73.143zM548.571 886.857c40.396 0 73.143-32.747 73.143-73.143v-804.571c0-40.396-32.747-73.143-73.143-73.143h-73.143c-40.396 0-73.143 32.747-73.143 73.143v804.571c0 40.396 32.747 73.143 73.143 73.143h73.143zM950.857 521.143c40.396 0 73.143-32.747 73.143-73.143v-438.857c0-40.396-32.747-73.143-73.143-73.143h-73.143c-40.396 0-73.143 32.747-73.143 73.143v438.857c0 40.396 32.747 73.143 73.143 73.143h73.143z" />
<glyph unicode="&#xe922;" glyph-name="star" d="M511.997 152.285l-270.838-138.434c-20.573-10.516-46.019-2.825-56.834 17.176-4.307 7.965-5.793 17.088-4.229 25.957l51.725 293.208-219.113 207.651c-16.644 15.773-16.984 41.678-0.761 57.86 6.46 6.444 14.925 10.637 24.085 11.931l302.806 42.779 135.419 266.77c10.286 20.264 35.522 28.584 56.364 18.583 8.3-3.982 15.018-10.514 19.114-18.583l135.419-266.77 302.806-42.779c23.001-3.249 38.938-24.012 35.596-46.375-1.331-8.905-5.644-17.135-12.272-23.416l-219.113-207.651 51.725-293.208c3.929-22.272-11.457-43.424-34.365-47.244-9.122-1.521-18.506-0.076-26.698 4.111l-270.838 138.434z" />
<glyph unicode="&#xe923;" glyph-name="icon_copy" d="M726.154 740.923c43.503 0 78.769-35.266 78.769-78.769v0-647.385c0-43.503-35.266-78.769-78.769-78.769v0h-647.385c-43.503 0-78.769 35.266-78.769 78.769v0 647.385c0 43.503 35.266 78.769 78.769 78.769v0zM457.76 259.262h-257.883c-29.337 0-53.12-23.783-53.12-53.12s23.783-53.12 53.12-53.12v0h257.883c29.337 0 53.12 23.783 53.12 53.12-0.012 29.343-23.789 53.12-53.12 53.12v0zM945.231 960c43.503 0 78.769-35.266 78.769-78.769v0-647.385c0-43.503-35.266-78.769-78.769-78.769v0h-39.385v609.231c0 43.503-35.266 78.769-78.769 78.769v0h-608v38.154c0 43.503 35.266 78.769 78.769 78.769v0zM605.046 516.923h-405.169c-29.323 0-53.1-23.76-53.12-53.083 0-29.337 23.783-53.12 53.12-53.12v0h405.169c29.337 0 53.12 23.783 53.12 53.12 0 29.3-23.783 53.083-53.12 53.083v0z" />
<glyph unicode="&#xe924;" glyph-name="tips4" d="M512 960c282.77 0 512-229.23 512-512s-229.23-512-512-512c-282.77 0-512 229.23-512 512s229.23 512 512 512zM585.143 521.143h-146.286v-365.714h146.286v365.714zM585.143 740.571h-146.286v-146.286h146.286v146.286z" />
<glyph unicode="&#xe925;" glyph-name="list1" d="M694.857 82.286c20.198 0 36.571-16.374 36.571-36.571v-73.143c0-20.198-16.374-36.571-36.571-36.571h-658.286c-20.198 0-36.571 16.374-36.571 36.571v73.143c0 20.198 16.374 36.571 36.571 36.571h658.286zM987.429 521.143c20.198 0 36.571-16.374 36.571-36.571v-73.143c0-20.198-16.374-36.571-36.571-36.571h-950.857c-20.198 0-36.571 16.374-36.571 36.571v73.143c0 20.198 16.374 36.571 36.571 36.571h950.857zM987.429 960c20.198 0 36.571-16.374 36.571-36.571v-73.143c0-20.198-16.374-36.571-36.571-36.571h-950.857c-20.198 0-36.571 16.374-36.571 36.571v73.143c0 20.198 16.374 36.571 36.571 36.571h950.857z" />
<glyph unicode="&#xe926;" glyph-name="sort" horiz-adv-x="465" d="M465.455 215.273l-232.727-279.273-232.727 279.273h465.455zM232.727 960l232.727-279.273h-465.455l232.727 279.273z" />
<glyph unicode="&#xe927;" glyph-name="triangle4" d="M144 287.461c0 2.679 0.6 5.474 1.8 8.382s3.001 5.474 5.393 7.71v0l346.056 321.749c4.795 4.471 10.55 6.704 17.264 6.704s12.472-2.236 17.264-6.704v0l341.020-317.057c4.795-4.471 7.193-9.946 7.193-16.423s-2.401-11.951-7.193-16.423c-4.795-4.471-10.672-6.704-17.629-6.704s-12.829 2.236-17.629 6.704v0l-323.034 301.638-328.792-306.33c-4.795-4.471-10.55-6.704-17.264-6.704s-12.472 2.236-17.264 6.704c-2.401 2.236-4.197 4.803-5.393 7.71s-1.8 5.922-1.8 9.050z" />
<glyph unicode="&#xe928;" glyph-name="circle" d="M637.333 448c0-69.223-56.11-125.333-125.333-125.333s-125.333 56.11-125.333 125.333c0 69.223 56.11 125.333 125.333 125.333s125.333-56.11 125.333-125.333z" />
<glyph unicode="&#xe929;" glyph-name="del1" d="M858.239 829.557c40.195-40.195 40.195-105.364 0-145.559l-218.333-218.333 218.333-218.333c40.195-40.195 40.195-105.364 0-145.559s-105.364-40.195-145.559 0l-218.412 218.412-218.266-218.412c-40.195-40.195-105.364-40.195-145.559 0s-40.195 105.364 0 145.559l218.266 218.412-218.266 218.266c-40.195 40.195-40.195 105.364 0 145.559s105.364 40.195 145.559 0l218.333-218.333 218.333 218.333c40.195 40.195 105.364 40.195 145.559 0z" />
<glyph unicode="&#xe92a;" glyph-name="radio-checked" d="M512 740.571c161.583 0 292.571-130.989 292.571-292.571s-130.989-292.571-292.571-292.571c-161.583 0-292.571 130.989-292.571 292.571s130.989 292.571 292.571 292.571z" />
<glyph unicode="&#xe92b;" glyph-name="tips3" d="M512 960c282.77 0 512-229.23 512-512s-229.23-512-512-512c-282.77 0-512 229.23-512 512s229.23 512 512 512zM585.143 521.143h-146.286v-365.714h146.286v365.714zM585.143 740.571h-146.286v-146.286h146.286v146.286z" />
<glyph unicode="&#xe92c;" glyph-name="circle1" d="M637.333 448c0-69.223-56.11-125.333-125.333-125.333s-125.333 56.11-125.333 125.333c0 69.223 56.11 125.333 125.333 125.333s125.333-56.11 125.333-125.333z" />
<glyph unicode="&#xe92d;" glyph-name="media_switch" horiz-adv-x="1463" d="M1316.571 960c80.791 0 146.286-65.494 146.286-146.286v-731.429c0-80.791-65.494-146.286-146.286-146.286h-1170.286c-80.791 0-146.286 65.494-146.286 146.286v731.429c0 80.791 65.494 146.286 146.286 146.286h1170.286zM827.674 665.21c-21.423 21.423-56.156 21.423-77.58 0s-21.423-56.157 0-77.58v0l84.758-84.748h-286.281v109.689c0 30.297-24.561 54.857-54.857 54.857s-54.857-24.56-54.857-54.857v0-329.143c0-30.297 24.561-54.857 54.857-54.857s54.857 24.56 54.857 54.857v0l-0.073 109.739h291.474l-89.878-89.996c-21.423-21.423-21.423-56.157 0-77.58s56.157-21.423 77.58 0v0l181.020 181.019c21.423 21.423 21.423 56.157 0 77.58v0l-181.020 181.019z" />
<glyph unicode="&#xe92e;" d="M1024 64c0-70.692-229.23-128-512-128s-512 57.308-512 128c0 70.692 229.23 128 512 128s512-57.308 512-128z" />
<glyph unicode="&#xe92f;" d="M170.667 960h682.667c94.257 0 170.667-76.41 170.667-170.667v-682.667c0-94.257-76.41-170.667-170.667-170.667h-682.667c-94.257 0-170.667 76.41-170.667 170.667v682.667c0 94.257 76.41 170.667 170.667 170.667z" />
<glyph unicode="&#xe930;" d="M662.691 934.022c177.164-63.163 297.309-232.277 297.309-421.767 0-246.54-201.6-448.255-448-448.255s-448 201.715-448 448.255c0 189.489 120.145 358.604 299.345 421.767 95.709 34.638 203.636 34.638 299.345 0zM605.673 866.783l-71.273-50.938c-14.255-10.188-34.618-10.188-48.873 0l-71.273 50.938c-6.109-2.038-16.291-6.113-24.436-8.15-77.382-28.525-142.545-81.501-185.309-146.702l26.473-83.538c6.109-16.3 0-34.638-14.255-44.825l-71.273-52.976v-18.338c0-87.613 30.545-167.077 81.455-230.24h87.564c18.327 0 32.582-12.225 38.691-28.525l26.473-83.538c40.727-16.3 85.527-24.45 132.364-24.45s89.6 8.15 130.327 24.45l26.473 83.538c6.109 16.3 20.364 28.525 38.691 28.525h87.564c50.909 63.163 81.455 142.626 81.455 230.24v18.338l-71.273 50.938c-14.255 10.188-20.364 28.525-14.255 44.825l28.509 85.576c-42.764 65.201-107.927 118.176-185.309 146.702-8.145 4.075-18.327 6.113-28.509 8.15zM536.436 703.782l150.691-107.989c14.255-10.188 20.364-28.525 14.255-44.825l-57.018-177.264c-6.109-16.3-20.364-28.525-38.691-28.525h-185.309c-18.327 0-32.582 12.225-38.691 28.525l-57.018 177.264c-6.109 16.3 0 34.638 14.255 44.825l148.655 107.989c14.255 10.188 34.618 10.188 48.873 0z" />
<glyph unicode="&#xe931;" glyph-name="jin-jia" d="M684.218 930.31c202.473-72.186 339.782-265.46 339.782-482.019 0-36.853-3.942-72.83-11.424-107.529 7.473-26.991 11.424-55.415 11.424-84.762 0-176.731-143.269-320-320-320-29.37 0-57.816 3.957-84.833 11.366-34.598-7.446-70.447-11.366-107.167-11.366-281.6 0-512 230.531-512 512.291 0 216.559 137.309 409.833 342.109 482.019 109.382 39.586 232.727 39.586 342.109 0zM619.055 853.467l-81.455-58.215c-16.291-11.643-39.564-11.643-55.855 0l-81.455 58.215c-6.982-2.329-18.618-6.986-27.927-9.314-88.436-32.6-162.909-93.144-211.782-167.659l30.255-95.472c6.982-18.629 0-39.586-16.291-51.229l-81.455-60.543v-20.957c0-100.13 34.909-190.945 93.091-263.131h100.073c20.945 0 37.236-13.972 44.218-32.6l30.255-95.472c36.25-14.508 75.324-23.367 116.121-26.576-57.366 57.874-92.848 137.538-92.848 225.489l0.117 7.787c-9.614 5.838-16.952 15.192-21.063 26.16l-65.164 202.588c-6.982 18.629 0 39.586 16.291 51.229l169.891 123.416c16.291 11.643 39.564 11.643 55.855 0l129.913-92.981c11.223 1.191 22.62 1.802 34.159 1.802 44.958 0 87.75-9.271 126.57-26.006-3.223 9.113-3.29 19.208 0.266 28.699l32.582 97.801c-48.873 74.515-123.345 135.059-211.782 167.659-9.309 4.657-20.945 6.986-32.582 9.314zM635.2 480h-46.592v-85.568h-66.304v-45.696h66.304c-2.24-116.48-27.776-201.152-76.608-254.464l35.392-31.36c55.552 60.928 85.12 155.904 87.808 285.824h43.456c-0.896-118.272-2.24-187.712-4.48-207.872-3.136-18.816-13.44-28.672-30.464-28.672-11.2 0-24.192 0.896-39.424 2.688l11.648-42.56c16.128-1.792 28.224-2.688 35.392-2.688 39.424 0 61.824 16.576 66.304 49.28 4.48 34.944 6.72 126.784 6.72 275.52h-89.152v85.568zM911.616 419.072h-155.456v-345.856h44.8v27.328h64.96v-27.328h45.696v345.856zM865.92 374.72v-229.376h-64.96v229.376h64.96z" />
<glyph unicode="&#xe932;" glyph-name="jia-dian" d="M444.158 928c57.688 0 113.903-10.936 167.123-32.502 55.135-22.339 104.55-55.184 146.932-97.566s75.227-91.846 97.565-146.932c14.689-36.248 24.445-73.897 29.175-112.45-15.729 8.18-32.096 15.052-49.073 20.499-92.374 31.289-188.182 17.835-265.143-28.627l-102.24-10.569c-9.757-18.963-19.528-37.939-29.469-56.792l-22.058-41.661-22.251-41.569 29.169-50.629c-3.407-14.575-5.606-29.47-6.796-44.488l-43.804 75.872c-2.074 0.221-4.504 0.577-7.414 0.982-49.783 7.242-99.222 16.484-147.803 29.482l-3.073 0.786-2.732 0.675-77.658-121.758c3.866-8.457 8.96-16.324 13.526-24.425 13.45-23.888 28.548-46.623 45.044-68.382l16.952-21.439 198.274-35.337c3.068 3.547 6.014 7.119 8.788 10.838l15.327 20.706c14.183-41.707 37.837-79.488 67.458-112.485l4.538-4.552c24.31-25.275 51.745-45.806 81.1-61.521-41.619-3.928-88.316-6.157-137.615-6.157-176.731 0-320 28.654-320 64 0 20.684 49.061 39.076 125.179 50.776-45.584 21.622-86.898 50.837-123.087 87.036-42.394 42.382-75.215 91.834-97.565 146.932-21.578 53.195-32.526 109.435-32.526 167.11 0 57.688 10.948 113.927 32.526 167.147 22.351 55.086 55.159 104.537 97.565 146.932 42.395 42.382 91.834 75.227 146.932 97.566 53.22 21.565 109.447 32.502 167.135 32.502zM825.892 528.745c51.066-16.384 96.005-47.103 130.73-88.062 98.047-118.783 87.835-290.813-22.47-393.211-110.814-107.136-284.888-104.718-395.943-0.195l-10.546 10.434-4.085 4.096c-36.768 40.959-63.322 90.111-71.493 145.406-2.042 16.384-4.086 32.768-4.086 49.151 0 30.719 4.086 61.439 14.299 90.111 51.066 151.551 212.437 233.47 363.594 182.269zM594.973 178.333c-4.962-2.043-10.070-8.903-15.324-20.578-3.21-7.589-7.516-16.127-12.916-25.613s-11.019-18.024-16.856-25.613c-7.881-10.216-11.968-18.316-12.26-24.3s3.065-11.895 10.070-17.732c4.378-3.678 8.573-5.884 12.583-6.62l3.949-0.245 3.827 0.736c6.276 2.043 12.916 7.735 19.922 17.076 7.589 9.34 14.375 19.265 20.359 29.773s11.894 21.892 17.732 34.151c4.086 8.757 5.181 16.346 3.283 22.767s-7.224 11.384-15.981 14.886c-7.297 2.919-13.427 3.357-18.389 1.313zM672.033 172.641c-8.465-4.378-13.135-9.486-14.011-15.324s1.313-12.843 6.568-21.016c5.837-9.049 10.435-17.951 13.791-26.708s5.911-16.492 7.662-23.205c2.919-11.092 7.37-18.462 13.354-22.111s12.916-4.014 20.797-1.095c7.881 2.919 12.844 7.881 14.886 14.886s1.752 13.865-0.876 20.578c-4.086 10.508-8.392 20.943-12.916 31.305s-9.706 20.797-15.543 31.305c-4.087 7.297-9.195 11.822-15.324 13.573s-12.26 1.022-18.389-2.189zM883.506 180.522c-6.421 0.584-12.551-1.897-18.389-7.443-6.713-6.422-9.997-12.405-9.851-17.951s3.576-12.113 10.289-19.702c6.713-7.589 13.135-16.054 19.265-25.394s11.53-18.243 16.2-26.708c5.546-10.216 11.603-16.565 18.17-19.046s13.354-1.386 20.359 3.284c7.005 4.67 11.384 10.143 13.135 16.419s-0.438 14.084-6.567 23.424c-6.13 9.632-13.062 19.994-20.797 31.086s-15.543 21.308-23.424 30.648c-5.837 7.005-11.967 10.8-18.389 11.384zM770.983 174.392c-7.881-4.962-12.113-10.435-12.698-16.419s2.044-12.916 7.881-20.797c6.13-8.757 11.165-17.513 15.105-26.27s7.078-16.346 9.414-22.767c3.503-11.092 8.392-18.316 14.668-21.673s13.208-3.284 20.797 0.219c7.589 3.211 12.259 8.465 14.011 15.762s1.021 14.303-2.189 21.016c-4.67 10.216-9.632 20.432-14.886 30.648s-11.092 20.432-17.513 30.648c-4.378 7.297-9.779 11.676-16.2 13.135s-12.552 0.292-18.389-3.503zM237.023 123.085c23.756-13.63 48.581-24.726 74.077-33.287 25.939 2.526 53.839 4.31 83.091 5.301l-157.168 27.986zM721.070 480c-9.633 0-16.565-1.897-20.797-5.692-3.386-3.036-5.418-7.846-6.095-14.431l-0.254-5.272v-101.14h-68.74c-18.388 0-31.524-3.503-39.405-10.508-6.568-5.838-10.399-15.324-11.493-28.459l-0.328-8.319v-68.302c0-8.757 0.584-16.127 1.751-22.111s3.503-10.727 7.005-14.23c3.503-3.503 8.611-6.057 15.324-7.662s15.762-2.408 27.146-2.408l231.176 0.438c9.924 0 18.243 0.511 24.957 1.532s12.040 3.211 15.981 6.567c3.94 3.357 6.714 8.027 8.319 14.011 1.204 4.488 1.956 10.084 2.258 16.788l0.15 7.074v68.302c0 16.93-4.013 29.043-12.040 36.34-6.689 6.081-16.977 9.628-30.861 10.642l-8.763 0.304h-109.459v32.838h163.75c17.805 0 26.708 8.465 26.708 25.394 0 9.924-2.189 16.565-6.567 19.921-3.284 2.518-7.881 4.091-13.792 4.72l-6.349 0.315h-163.75v17.951c0 9.34-2.043 15.908-6.129 19.703s-10.654 5.692-19.702 5.692zM844.101 303.991c3.503 0 6.13-0.511 7.881-1.532 1.167-0.681 1.946-1.849 2.335-3.503l0.292-2.846v-47.286c0-5.254-3.503-7.881-10.508-7.881h-207.971c-4.086 0-6.787 0.657-8.1 1.97-0.876 0.876-1.459 2.043-1.751 3.503l-0.219 2.408v47.286c0 3.211 0.73 5.327 2.189 6.349 0.973 0.681 2.465 1.135 4.476 1.362l3.405 0.17h207.971zM77.277 638.531c-3.535-4.517-6.591-9.365-9.892-14.017-10.691-15.072-20.142-30.808-28.451-47.193-17.662-77.093-13.146-158.31 13.514-233.328 17.453-18.215 37.165-33.68 58.559-47.108l2.481-1.476 2.527-1.347 77.731 121.881c-0.049 0.221-0.086 0.356-0.123 0.601-9.083 43.951-14.398 88.439-15.768 133.244l-0.348 26.919v2.516l-100.229 59.308zM520.895 834.963c-29.286-1.694-58.535-5.057-87.747-8.027l-5.626-0.888-5.58-1.321-53.736-161.783 27.752-27.715c-0.209-0.233-0.417-0.43-0.626-0.687 22.903-25.726 45.843-51.379 68.636-77.191l3.686-4.38 3.53-4.518 193.021 19.822c10.003 24.622 20.068 49.194 29.469 74.024l7.468 21.438 6.906 21.668-132.952 149.853c-18.239 1.289-36.269 0.712-54.202-0.295zM311.869 878.18c-59.197-19.749-114.799-53.146-161.844-100.18-5.032-5.032-9.917-10.187-14.631-15.392-7.204-12.63-13.808-25.554-19.601-38.933-7.524-17.368-14.066-35.19-20.719-52.913l-1.206-4.406-0.525-4.627 99.064-58.608c38.27 25.149 78.897 46.126 120.567 65.064l15.368 6.461 15.489 6.194 0.748 0.258 50.201 151.178c-25.652 18.055-52.864 33.275-82.776 43.609-0.294 0.086-0.54 0.405-1.055 0.786 0.294 0.528 0.613 1.031 0.92 1.51zM601.498 868.925l-0.525-9.615-1.059-9.569 130.865-147.496c4.529-1.559 8.984-3.142 13.329-4.934 27.923-11.464 54.484-25.53 79.327-42.627-20.080 44.739-48.482 86.617-85.156 123.317-40.333 40.32-86.998 70.661-136.781 90.926z" />
<glyph unicode="&#xe933;" d="M661.333 21.333l-1.47 0.102c-0.485 0.027-0.971 0.060-1.455 0.098l2.926-0.2c-35.346 0-64 28.654-64 64v725.333c0 35.346 28.654 64 64 64s64-28.654 64-64v-573.013l104.078 104.124c24.994 24.994 65.516 24.994 90.51 0s24.994-65.516 0-90.51l-211.189-211.189c-12.681-12.681-29.359-18.928-45.978-18.741-0.44 0.001-0.93-0.004-1.421-0.004z" />
<glyph unicode="&#xe934;" d="M362.667 874.667l1.47-0.102c0.485-0.027 0.971-0.060 1.455-0.098l-2.926 0.2c35.346 0 64-28.654 64-64v-725.333c0-35.346-28.654-64-64-64s-64 28.654-64 64v573.013l-104.078-104.124c-24.994-24.994-65.516-24.994-90.51 0s-24.994 65.516 0 90.51l211.189 211.189c12.681 12.681 29.359 18.928 45.978 18.741 0.44-0.001 0.93 0.004 1.421 0.004z" />
<glyph unicode="&#xe935;" d="M370.901 959.438c29.702 0 50.564-21.531 50.897-52.388 35.792-27.803 119.296-81.292 222.694-78.894 134.737 0 274.772-43.101 311.392-109.402 0 0-192.694 50.739-246.589-58.663s-119.562-56.81-172.592-78.871c-51.768-21.914-52.319-47.185-84.857-52.856-10.148-1.769-20.567-0.333-30.099 2.48l0.055-202.811c-2.994-31.258-26.947-56.264-50.901-56.264-29.942 0-50.901 21.88-50.901 53.138v581.392c0 31.258 20.959 53.138 50.901 53.138z" />
<glyph unicode="&#xe936;" d="M16.491-47.057c-20.959 21.88-20.959 53.138 0 71.893l311.392 325.079c20.959 21.88 50.901 21.88 68.865 0 20.959-21.88 20.959-53.138 0-71.893l-311.392-325.079c-17.965-21.88-47.906-21.88-68.865 0z" />
<glyph unicode="&#xe937;" glyph-name="plus" d="M724.888 491.2h-171.555v172.8h-85.778v-172.8h-171.555v-86.4h171.555v-172.8h85.778v172.8h171.555z" />
<glyph unicode="&#xe938;" d="M1016.538 115.482c-8.982-25.006-32.936-40.635-59.883-37.509l-610.807 184.42c-23.953 9.377-38.924 37.509-32.936 62.515 8.982 25.006 32.936 40.635 59.883 37.509l610.807-181.294c29.942-6.252 44.912-34.383 32.936-65.641v0z" />
<glyph unicode="&#xe939;" d="M381.778 106.105c-41.918 0-80.842 15.629-110.784 40.635l-68.865-71.893c50.901-37.509 110.784-62.515 179.649-62.515 113.778 0 209.591 65.641 263.485 159.414l-101.801 31.258c-35.93-56.264-95.813-96.899-161.684-96.899z" />
<glyph unicode="&#xe93a;" glyph-name="rs_dian_jia" d="M505.8 958.879c254.659-17.562 451.332-232.705 445.056-489.959l-0.72-17.211-2.244 2.245c107.717-130.159 96.497-318.665-24.686-430.87-116.825-112.655-297.649-114.765-419.878-13.545-20.1-2.165-37.995-2.157-58.117 0.079-262.562 17.953-460.042 242.363-444.335 504.926s244.607 462.287 504.924 444.335zM218.552 115.090c40.395-29.173 85.277-51.614 134.647-65.079-26.93 11.22-51.615 26.929-71.812 47.126-20.197 4.488-42.639 11.221-62.836 17.953zM843.933 176.025c-3.833-3.285-5.749-6.776-5.749-10.472s1.643-8.282 4.928-13.758c7.118-10.677 13.347-21.013 18.686-31.006s10.473-21.013 15.4-33.059c3.012-8.487 6.845-13.963 11.499-16.427s9.309-2.327 13.963 0.411c5.202 3.012 8.213 6.776 9.035 11.294s-0.684 10.472-4.517 17.864c-3.011 5.749-5.886 11.294-8.624 16.632s-5.543 10.678-8.419 16.016c-2.875 5.339-6.091 11.020-9.65 17.043s-7.803 12.731-12.731 20.123c-3.285 5.202-7.050 8.214-11.293 9.035s-8.419-0.411-12.526-3.696zM657.077 175.614c-4.655-1.916-7.529-4.996-8.624-9.24s-0.137-10.198 2.875-17.864c2.191-5.749 4.175-10.951 5.955-15.606s3.354-9.172 4.723-13.552c1.369-4.381 2.738-8.829 4.107-13.347s2.875-9.514 4.517-14.99c2.191-7.118 4.654-12.183 7.393-15.195 1.369-1.506 3.080-2.464 5.133-2.875l3.337-0.205 3.85 0.616c6.297 1.369 10.061 4.244 11.293 8.624s0.889 10.13-1.027 17.248c-3.559 12.32-6.981 23.203-10.266 32.649s-7.119 19.781-11.5 31.006c-3.011 6.297-6.091 10.541-9.24 12.731s-7.323 2.19-12.525 0zM756.049 174.382c-5.475-3.012-8.282-6.502-8.419-10.472s1.3-9.514 4.313-16.632c4.654-9.856 8.556-18.823 11.704-26.899s6.64-17.454 10.473-28.131c2.738-7.666 5.612-13.142 8.624-16.427s7.392-3.97 13.142-2.053c7.392 2.738 11.43 6.16 12.115 10.267s-0.479 9.719-3.491 16.838c-3.103 7.848-5.993 15.088-8.67 21.72l-3.855 9.491c-3.697 9.035-8.008 19.165-12.937 30.39-3.011 6.845-6.434 11.088-10.266 12.731s-8.076 1.369-12.731-0.821zM577.817 179.105c-3.833-2.053-7.255-6.229-10.266-12.525-3.286-7.666-6.297-14.305-9.035-19.918s-5.476-10.677-8.214-15.195c-2.738-4.517-5.475-8.761-8.213-12.731s-5.887-8.145-9.446-12.525c-3.833-4.928-6.639-9.514-8.419-13.758s-0.753-8.556 3.080-12.936c9.035-9.856 18.754-7.94 29.158 5.749 4.381 5.749 8.282 11.020 11.704 15.811s6.57 9.651 9.446 14.579c2.875 4.928 5.681 10.198 8.419 15.811s5.749 12.115 9.035 19.507c3.286 7.118 4.86 12.731 4.723 16.838s-2.67 7.392-7.597 9.856c-5.75 3.012-10.541 3.491-14.374 1.437zM88.393 433.755c-17.953-42.638-24.684-87.521-22.442-134.647 23.938-53.859 58.514-102.398 100.577-142.466l16.118-14.622 13.465-6.733c24.685-11.219 51.614-17.952 78.544-24.685 2.245 33.662 13.465 65.080 33.662 89.765-22.441 22.442-40.394 51.615-56.103 80.788-15.709 31.417-29.173 62.835-38.15 96.497-44.882 8.976-87.521 29.173-125.671 56.103zM321.783 532.496c-31.792-39.272-58.909-80.102-82.649-123.79l-13.849-26.566v-2.244c8.975-33.662 20.197-65.079 35.906-94.252s35.906-56.104 58.347-80.788c24.686-4.489 49.371-6.733 74.056-8.976 0.753-4.069 1.578-8.108 2.472-12.115l-2.471 14.359c-2.244 17.953-4.489 35.906-4.489 53.859 0 33.661 4.489 67.323 15.709 98.741 23.146 68.512 66.918 124.037 122.018 161.69l-5.323 8.863-15.71 4.489c-17.953 4.488-35.906 6.732-53.859 8.976-42.637 6.732-87.521 6.732-130.158-2.245zM697.734 460.621c-6.297 0-10.677-1.848-13.142-5.544-1.643-2.464-2.738-5.445-3.286-8.944l-0.41-5.635v-101.847h-75.564c-15.606 0-26.42-3.012-32.443-9.035-4.819-4.819-7.71-12.178-8.673-22.078l-0.361-7.901v-71.047c0-11.499 3.011-20.465 9.035-26.899 4.819-5.147 12.703-8.235 23.654-9.265l8.789-0.386h223.406c25.133 0 38.957 9.869 41.47 29.605l0.419 6.944v71.047c0 12.868-3.559 22.587-10.677 29.158-5.695 5.257-13.493 8.411-23.393 9.462l-7.819 0.394h-114.989v39.835h167.965c5.476 0 10.062 1.095 13.757 3.285s5.544 6.297 5.544 12.32c0 6.297-1.848 10.472-5.544 12.525-2.463 1.369-5.323 2.282-8.578 2.738l-5.179 0.342h-167.965v30.801c0 6.023-1.232 10.883-3.696 14.579s-6.571 5.544-12.32 5.544zM828.328 307.44c3.011 0 5.27-0.89 6.776-2.669l1.694-2.823 0.565-3.131v-67.761c0-5.202-3.012-7.803-9.035-7.803h-222.996c-3.286 0-5.475 0.753-6.571 2.259l-1.232 2.515-0.411 3.029v67.761c0 2.19 0.753 4.175 2.259 5.955 1.004 1.186 2.221 1.977 3.65 2.373l2.305 0.297h222.996zM54.732 642.459c-38.15-100.986-38.15-213.191 0-314.177-0.001 40.395 8.977 80.788 26.93 116.695-13.466 38.15 2.244 148.111 17.953 186.261-15.709 4.489-29.174 8.976-44.883 11.221zM871.592 658.168c-22.442-26.93-44.883-51.615-71.813-74.057 1.497-7.481 2.993-15.959 3.824-24.104l0.456-9.461c46.928-15.047 88.979-40.891 123.769-75.036-0.275 55.619-9.269 111.248-29.308 162.46-8.976 4.489-17.953 13.465-26.929 20.198zM403.235 840.731l-38.813-0.79-13.466-8.976c-13.465-13.464-24.686-26.929-35.906-40.395-22.442-26.181-41.766-55.479-56.675-86.595l-8.406-18.877 13.466-29.174 22.442-42.638c13.464-22.441 24.684-44.882 35.906-67.324 69.568 15.71 166.064-2.243 199.726-11.219 20.197 28.612 41.656 55.962 63.431 82.050l21.845 25.667 26.93 31.417c-5.386 26.93-13.645 52.423-24.776 77.629l-8.887 18.868-6.158 13.196c-9.192 17.235-22.118 33.033-36.48 47.396-39.048 5.386-77.288 8.348-115.689 9.371l-38.491 0.395zM644.936 900.532c-29.173-17.953-53.859-38.151-78.544-60.591 17.954-17.953 31.419-40.395 42.639-62.836 17.953-31.417 29.173-65.078 35.906-100.984 53.859-20.198 103.229-47.127 148.112-80.788 26.929 22.441 51.614 47.126 71.812 76.299-2.244 15.709-4.489 31.418-6.733 49.371-49.371 80.788-125.67 143.623-213.191 179.529zM333.001 911.752c-22.44-6.733-42.637-15.709-62.834-26.929-90.466-46.285-161.208-122.155-202.982-212.819l-7.965-18.325 47.126-13.465c38.151 35.906 98.742 47.127 134.648 49.371 26.929 69.568 94.253 139.136 114.449 161.576-8.976 17.953-17.953 40.395-22.442 60.591z" />
<glyph unicode="&#xe93b;" glyph-name="rs_hong1" d="M743.619 960c80.791 0 146.286-65.494 146.286-146.286v-731.429c0-80.791-65.494-146.286-146.286-146.286h-512c-80.791 0-146.286 65.494-146.286 146.286v731.429c0 80.791 65.494 146.286 146.286 146.286h512zM527.379 717.5l-236.235 0.014c-10.094-0.042-15.294-0.853-25.717-9.049-8.338-6.557-12.473-15.299-12.403-26.227v0-575.572c10.642-21.205 24.815-31.807 42.518-31.807s30.826 10.602 39.37 31.807v0 271.25l106.921-0.117c14.992-0.311 26.202-1.244 33.631-2.8 12.662-3.056 25.114-8.472 37.354-16.25s26.098-21.389 41.575-40.833c10.317-12.963 22.511-29.753 36.58-50.37v0l22.511-33.796 81.883-127.083c20.923-21.205 40.080-31.807 57.471-31.807s32.563 10.602 45.516 31.807v0l-107.63 166.25c-21.385 32.5-44.037 59.583-67.955 81.25-11.255 10-27.716 20.139-49.383 30.417 59.373 8.056 103.268 26.944 131.688 56.667s42.63 66.25 42.63 109.583c0 33.611-8.582 64.305-25.747 92.083s-40.097 47.153-68.799 58.125c-28.701 10.972-70.627 16.458-125.779 16.458v0zM530.755 650c45.866 0 79.421-9.305 100.666-27.917s31.867-42.361 31.867-71.25c0-19.722-5.487-37.986-16.461-54.792s-27.013-29.028-48.117-36.667c-21.104-7.639-50.368-11.458-87.792-11.458v0h-176.006v202.083z" />
<glyph unicode="&#xe93c;" glyph-name="rs_huang1" d="M747.563 960c76.039 0 137.681-61.642 137.681-137.681v-688.403c0-76.039-61.642-137.681-137.681-137.681h-481.882c-76.039 0-137.681 61.642-137.681 137.681v688.403c0 76.039 61.642 137.681 137.681 137.681h481.882zM747.621 784.741c-16.649 10.049-33.645 6.46-50.985-10.768-96.944-146.24-154.488-234.072-172.632-263.498l-4.112-6.818c-14.337 21.407-74.353 108.972-180.046 262.695-17.667 19.051-34.493 23.49-50.478 13.316s-19.915-25.119-11.79-44.835v0l196.203-297.123v-243.529c10.391-13.548 23.142-20.322 38.252-20.322s28.048 6.774 38.814 20.322v0 243.529l211.035 302.012c7.142 19.963 2.389 34.969-14.261 45.018z" />
<glyph unicode="&#xe93d;" glyph-name="rs_jia_shi" d="M505.8 958.879c254.659-17.562 451.332-232.705 445.056-489.959l-0.72-17.211-2.244 2.245c107.717-130.159 96.497-318.665-24.686-430.87-116.825-112.655-297.649-114.765-419.878-13.545-20.1-2.165-37.995-2.157-58.117 0.079-262.562 17.953-460.042 242.363-444.335 504.926s244.607 462.287 504.924 444.335zM218.552 115.090c40.395-29.173 85.277-51.614 134.647-65.079-26.93 11.22-51.615 26.929-71.812 47.126-20.197 4.488-42.639 11.221-62.836 17.953zM597.53 446.658c-9.354 0-14.811-3.803-16.37-11.408l-0.467-5.019v-35.729h-45.585c-6.571 0-11.841-0.958-15.811-2.875s-5.955-6.023-5.955-12.32c0-6.571 1.848-10.883 5.544-12.936 2.464-1.369 5.688-2.282 9.674-2.738l6.548-0.342h44.352c-1.095-25.736-2.806-50.787-5.133-75.153s-5.681-47.912-10.062-70.636c-4.381-22.724-10.062-44.49-17.043-65.297s-15.537-40.657-25.667-59.548c-3.833-6.845-6.091-12.662-6.776-17.454s1.575-8.966 6.776-12.526c6.023-4.107 10.952-5.133 14.784-3.080s8.487 7.871 13.963 17.454c7.393 13.415 14.305 28.679 20.739 45.79s12.183 37.029 17.249 59.753c5.065 22.724 9.514 48.87 13.347 78.439 3.066 23.655 5.607 50.201 7.621 79.638l1.413 22.62h44.352c5.202 0 9.24-0.342 12.115-1.027s4.996-1.985 6.365-3.901c1.369-1.916 2.327-4.723 2.875-8.419s0.958-8.556 1.232-14.579c0.274-8.213 0.479-17.864 0.616-28.952s0.206-22.724 0.206-34.907c0-12.183-0.069-24.64-0.206-37.371s-0.342-24.777-0.616-36.139c-0.274-11.362-0.616-21.834-1.027-31.416s-0.889-17.385-1.437-23.408c-2.19-16.427-6.434-29.363-12.731-38.809s-14.921-14.168-25.873-14.168c-4.654 0-9.514 0.479-14.579 1.437s-10.335 2.532-15.811 4.723c-7.94 3.012-14.1 3.764-18.48 2.259s-7.256-4.86-8.624-10.061c-1.916-5.476-1.78-9.856 0.41-13.142s7.393-6.571 15.606-9.856c8.761-3.285 16.222-5.27 22.382-5.955s12.799-1.027 19.918-1.027c19.165 0 34.771 6.434 46.817 19.302s19.438 33.675 22.176 62.422c0.547 6.297 1.026 14.168 1.437 23.614s0.821 19.918 1.232 31.417c0.411 11.499 0.685 23.545 0.821 36.139l0.154 18.84 0.051 18.737c0 12.457-0.069 24.367-0.206 35.729s-0.342 21.56-0.616 30.595c-0.548 13.689-1.3 24.504-2.259 32.443s-3.354 13.895-7.187 17.864c-3.833 3.97-9.445 6.434-16.837 7.392-5.544 0.719-12.705 1.168-21.484 1.348l-9.317 0.090h-39.835l0.308 9.086 0.102 9.189v17.454c0 10.951-5.065 16.427-15.195 16.427zM838.595 413.805h-63.244c-7.665 0-13.894-0.548-18.685-1.643s-8.556-3.080-11.294-5.955c-2.738-2.875-4.586-6.844-5.544-11.909-0.639-3.377-1.064-7.392-1.277-12.046l-0.16-7.461v-270.223c0-7.94 0.479-14.442 1.437-19.507s2.738-9.035 5.339-11.909c2.601-2.875 6.298-4.928 11.088-6.16 3.194-0.821 7.088-1.369 11.682-1.643l7.414-0.205h63.244c7.666 0 13.963 0.548 18.891 1.643s8.761 3.080 11.499 5.955c2.738 2.875 4.586 6.913 5.544 12.115 0.639 3.468 1.064 7.544 1.277 12.229l0.16 7.483v270.223c0 7.666-0.479 13.963-1.437 18.891s-2.738 8.898-5.339 11.909c-2.601 3.012-6.366 5.133-11.294 6.365-3.286 0.821-7.24 1.369-11.864 1.643l-7.438 0.205zM838.595 383.004c2.67 0 4.338-1.309 5.005-3.927l0.334-3.054v-272.687c0-4.928-1.78-7.392-5.339-7.392h-63.244c-1.369 0-2.532 0.684-3.49 2.053l-1.078 2.361-0.359 2.977v272.687c0 3.491 0.924 5.672 2.772 6.545l2.156 0.436h63.244zM88.393 433.755c-17.953-42.638-24.684-87.521-22.442-134.647 23.938-53.859 58.514-102.398 100.577-142.466l16.118-14.622 13.465-6.733c24.685-11.219 51.614-17.952 78.544-24.685 2.245 33.662 13.465 65.080 33.662 89.765-22.441 22.442-40.394 51.615-56.103 80.788-15.709 31.417-29.173 62.835-38.15 96.497-44.882 8.976-87.521 29.173-125.671 56.103zM321.783 532.496c-31.792-39.272-58.909-80.102-82.649-123.79l-13.849-26.566v-2.244c8.975-33.662 20.197-65.079 35.906-94.252s35.906-56.104 58.347-80.788c24.686-4.489 49.371-6.733 74.056-8.976 0.753-4.069 1.578-8.108 2.472-12.115l-2.471 14.359c-2.244 17.953-4.489 35.906-4.489 53.859 0 33.661 4.489 67.323 15.709 98.741 23.146 68.512 66.918 124.037 122.018 161.69l-5.323 8.863-15.71 4.489c-17.953 4.488-35.906 6.732-53.859 8.976-42.637 6.732-87.521 6.732-130.158-2.245zM54.732 642.459c-38.15-100.986-38.15-213.191 0-314.177-0.001 40.395 8.977 80.788 26.93 116.695-13.466 38.15 2.244 148.111 17.953 186.261-15.709 4.489-29.174 8.976-44.883 11.221zM871.592 658.168c-22.442-26.93-44.883-51.615-71.813-74.057 1.497-7.481 2.993-15.959 3.824-24.104l0.456-9.461c46.928-15.047 88.979-40.891 123.769-75.036-0.275 55.619-9.269 111.248-29.308 162.46-8.976 4.489-17.953 13.465-26.929 20.198zM403.235 840.731l-38.813-0.79-13.466-8.976c-13.465-13.464-24.686-26.929-35.906-40.395-22.442-26.181-41.766-55.479-56.675-86.595l-8.406-18.877 13.466-29.174 22.442-42.638c13.464-22.441 24.684-44.882 35.906-67.324 69.568 15.71 166.064-2.243 199.726-11.219 20.197 28.612 41.656 55.962 63.431 82.050l21.845 25.667 26.93 31.417c-5.386 26.93-13.645 52.423-24.776 77.629l-8.887 18.868-6.158 13.196c-9.192 17.235-22.118 33.033-36.48 47.396-39.048 5.386-77.288 8.348-115.689 9.371l-38.491 0.395zM644.936 900.532c-29.173-17.953-53.859-38.151-78.544-60.591 17.954-17.953 31.419-40.395 42.639-62.836 17.953-31.417 29.173-65.078 35.906-100.984 53.859-20.198 103.229-47.127 148.112-80.788 26.929 22.441 51.614 47.126 71.812 76.299-2.244 15.709-4.489 31.418-6.733 49.371-49.371 80.788-125.67 143.623-213.191 179.529zM333.001 911.752c-22.44-6.733-42.637-15.709-62.834-26.929-90.466-46.285-161.208-122.155-202.982-212.819l-7.965-18.325 47.126-13.465c38.151 35.906 98.742 47.127 134.648 49.371 26.929 69.568 94.253 139.136 114.449 161.576-8.976 17.953-17.953 40.395-22.442 60.591z" />
<glyph unicode="&#xe93e;" glyph-name="jin-shang" d="M684.218 930.31c202.473-72.186 339.782-265.46 339.782-482.019 0-36.853-3.942-72.83-11.424-107.529 7.473-26.991 11.424-55.415 11.424-84.762 0-176.731-143.269-320-320-320-29.37 0-57.816 3.957-84.833 11.366-34.598-7.446-70.447-11.366-107.167-11.366-281.6 0-512 230.531-512 512.291 0 216.559 137.309 409.833 342.109 482.019 109.382 39.586 232.727 39.586 342.109 0zM619.055 853.467l-81.455-58.215c-16.291-11.643-39.564-11.643-55.855 0l-81.455 58.215c-6.982-2.329-18.618-6.986-27.927-9.314-88.436-32.6-162.909-93.144-211.782-167.659l30.255-95.472c6.982-18.629 0-39.586-16.291-51.229l-81.455-60.543v-20.957c0-100.13 34.909-190.945 93.091-263.131h100.073c20.945 0 37.236-13.972 44.218-32.6l30.255-95.472c36.25-14.508 75.324-23.367 116.121-26.576-57.366 57.874-92.848 137.538-92.848 225.489l0.117 7.787c-9.614 5.838-16.952 15.192-21.063 26.16l-65.164 202.588c-6.982 18.629 0 39.586 16.291 51.229l169.891 123.416c16.291 11.643 39.564 11.643 55.855 0l129.913-92.981c11.223 1.191 22.62 1.802 34.159 1.802 44.958 0 87.75-9.271 126.57-26.006-3.223 9.113-3.29 19.208 0.266 28.699l32.582 97.801c-48.873 74.515-123.345 135.059-211.782 167.659-9.309 4.657-20.945 6.986-32.582 9.314zM715.84 480h-48.384v-353.472h-155.456v-45.696h402.752v45.696h-198.912v175.168h165.76v45.248h-165.76v133.056z" />
<glyph unicode="&#xe93f;" d="M346.174 959.476c27.721 0 47.193-20.096 47.503-48.896 33.406-25.949 111.343-75.873 207.848-73.634 125.754 0 256.454-40.227 290.632-102.108 0 0-179.848 47.356-230.15-54.752s-111.592-53.022-161.086-73.613c-48.316-20.453-48.831-44.039-79.199-49.332-9.472-1.651-19.195-0.311-28.092 2.315l0.030-91.861c-32.971-41.953-56.322-91.823-66.73-146.286-17.232 7.059-28.263 24.032-28.263 45.94v542.632c0 29.174 19.562 49.595 47.507 49.595z" />
<glyph unicode="&#xe940;" d="M79.666 20.080c-16.767-20.422-44.713-20.422-64.274 0s-19.562 49.595 0 67.1l290.632 303.407c14.004 14.62 32.306 18.773 47.726 12.46-19.041-39.903-30.48-84.12-32.555-130.771l-68.268-71.318c22.42-18.724 50.236-31.815 80.561-36.26 8.784-31.615 22.109-61.461 39.177-88.724l-16.34-0.464c-58.431 0-109.934 19.288-154.508 49.098l-13.164 9.25-108.987-113.778z" />
<glyph unicode="&#xe941;" glyph-name="rs_jin_quan1" d="M0.876 514.543c15.707 262.562 244.606 462.287 504.925 444.335s460.044-242.364 444.335-507.17v0l-2.244 2.245c107.717-130.159 96.497-318.665-24.685-430.87-116.826-112.655-297.649-114.765-419.878-13.545-20.101-2.165-37.995-2.157-58.117 0.079-262.562 17.953-460.042 242.363-444.335 504.926zM218.552 115.091c40.395-29.174 85.277-51.615 134.647-65.080-26.929 11.22-51.615 26.929-71.812 47.126-20.197 4.488-42.638 11.221-62.835 17.953zM719.011 460.83c-9.309 0.134-19.165-4.589-29.568-14.171-24.093-22.176-48.528-41.615-73.305-58.316s-49.623-30.527-74.537-41.478c-10.13-4.381-16.701-8.829-19.712-13.347s-3.422-10.883-1.232-19.096c3.012-10.678 7.461-16.701 13.347-18.070s14.853 0.274 26.899 4.928l-0.308-2.053-0.103-2.053v-4.107c0-10.13 1.78-16.838 5.339-20.123 2.669-2.464 6.956-4.004 12.859-4.62l6.442-0.308h107.596v-39.835h-100.615c-9.309 0-15.742-1.78-19.302-5.339s-5.339-9.856-5.339-18.891c0-10.13 1.916-16.701 5.749-19.712 2.875-2.259 7.135-3.67 12.782-4.235l6.109-0.282h100.615v-50.102h-136.343c-9.582 0-16.016-1.643-19.302-4.928s-4.928-9.993-4.928-20.123c0-10.404 1.711-17.18 5.133-20.328 2.567-2.361 6.789-3.837 12.667-4.428l6.43-0.295h325.253c7.94 0 14.031 1.78 18.275 5.339s6.365 10.13 6.365 19.712c0 10.404-2.122 17.18-6.365 20.328-3.183 2.361-7.405 3.837-12.667 4.428l-5.608 0.295h-135.933v50.102h102.668c8.761 0 15.058 1.506 18.891 4.517s5.749 9.582 5.749 19.712c0 9.035-1.916 15.332-5.749 18.891-2.875 2.669-7.135 4.338-12.782 5.005l-6.109 0.334h-102.668v39.835h109.239c8.761 0 15.058 1.643 18.891 4.928s5.749 9.993 5.749 20.123c0 3.285-0.411 6.434-1.232 9.445 19.165-9.309 31.759-4.654 37.782 13.963 1.916 8.487 1.164 14.784-2.259 18.891s-9.651 8.487-18.686 13.142c-19.712 9.856-41.341 22.519-64.886 37.987s-50.239 35.523-80.081 60.164c-11.499 9.309-21.903 14.031-31.211 14.171zM88.393 433.755c-17.953-42.638-24.685-87.521-22.442-134.647 26.93-60.591 67.324-114.45 116.695-157.089v0l13.465-6.733c24.684-11.219 51.614-17.952 78.543-24.685 2.245 33.662 13.465 65.080 33.662 89.765-22.441 22.442-40.394 51.615-56.103 80.788-15.709 31.417-29.173 62.835-38.15 96.497-44.882 8.976-87.522 29.173-125.671 56.103zM451.941 534.741c-42.637 6.732-87.521 6.732-130.158-2.245-38.151-47.126-69.568-96.496-96.497-150.356v0-2.244c8.976-33.662 20.197-65.079 35.906-94.252s35.906-56.104 58.346-80.788c24.687-4.489 49.371-6.733 74.056-8.976 0.731-3.946 1.528-7.863 2.391-11.751l-2.39 13.995c-2.244 17.953-4.489 35.906-4.489 53.859 0 33.661 4.489 67.323 15.709 98.741 23.146 68.512 66.917 124.037 122.018 161.69l-5.324 8.863-15.709 4.489c-17.953 4.488-35.906 6.732-53.859 8.976zM719.217 406.824c2.327 0 5.27-1.369 8.829-4.107 8.487-6.571 17.727-13.621 27.72-21.15s20.26-14.99 30.8-22.382c10.541-7.392 21.15-14.579 31.827-21.56s21.081-13.484 31.211-19.507h-254.617c10.13 5.749 20.328 12.115 30.595 19.096s20.397 14.168 30.39 21.56c9.993 7.392 19.644 14.784 28.952 22.176s17.933 14.374 25.872 20.944c3.285 3.285 6.092 4.928 8.419 4.928zM54.732 642.459c-38.15-100.986-38.15-213.191 0-314.177-0.001 40.395 8.976 80.788 26.929 116.695-13.465 38.15 2.244 148.111 17.953 186.261-15.709 4.489-29.174 8.976-44.882 11.221zM871.592 658.168c-22.442-26.93-44.882-51.615-71.813-74.057 2.245-11.221 4.489-24.686 4.489-35.906l-0.147 2.293c0.049-0.016 0.098-0.033 0.147-0.049 46.719-14.95 88.771-40.794 123.561-74.939-0.275 55.619-9.269 111.248-29.308 162.46-8.976 4.489-17.953 13.465-26.929 20.198zM403.235 840.731l-38.813-0.79-13.465-8.976c-13.465-13.464-24.686-26.929-35.906-40.395-26.93-31.417-49.371-67.323-65.080-105.473v0l13.465-29.174 22.442-42.638c13.464-22.441 24.684-44.882 35.906-67.324 69.568 15.71 166.064-2.243 199.726-11.219 26.929 38.15 56.103 74.056 85.276 107.718v0l26.93 31.417c-6.733 33.663-17.953 65.080-33.662 96.497v0l-6.158 13.196c-9.192 17.235-22.118 33.033-36.481 47.396-65.080 8.976-127.914 11.22-192.994 8.976zM644.936 900.532c-29.173-17.953-53.859-38.151-78.544-60.591 17.954-17.953 31.418-40.395 42.638-62.836 17.953-31.417 29.173-65.078 35.906-100.984 53.859-20.198 103.23-47.127 148.112-80.788 26.929 22.441 51.614 47.126 71.812 76.299-2.244 15.709-4.489 31.418-6.733 49.371-49.371 80.788-125.67 143.623-213.191 179.529zM333.001 911.752c-22.441-6.733-42.637-15.709-62.834-26.929-96.497-49.371-170.553-132.403-210.947-231.144v0l47.126-13.465c38.151 35.906 98.742 47.127 134.648 49.371 26.929 69.568 94.252 139.136 114.449 161.576-8.976 17.953-17.953 40.395-22.442 60.591z" />
<glyph unicode="&#xe942;" glyph-name="rs_jin_shang" d="M947.891 453.953c107.717-130.159 96.497-318.665-24.686-430.87-116.825-112.655-297.649-114.765-419.878-13.545-20.1-2.165-37.995-2.157-58.117 0.079-262.562 17.953-460.042 242.363-444.335 504.926s244.607 462.287 504.924 444.335c260.318-17.952 460.044-242.364 444.336-507.17v0l-2.244 2.245zM218.552 115.091c40.395-29.174 85.277-51.615 134.647-65.080-26.93 11.22-51.615 26.929-71.812 47.126-20.197 4.488-42.639 11.221-62.836 17.953zM682.872 454.051c-8.761 0-15.058-1.643-18.891-4.928-2.875-2.464-4.672-6.699-5.39-12.705l-0.36-6.596v-301.434h-114.989c-9.308 0-15.742-2.053-19.302-6.16s-5.339-10.404-5.339-18.891c0-7.666 1.917-13.621 5.75-17.864 2.875-3.183 7.135-5.172 12.782-5.968l6.108-0.398h349.073c8.761 0 15.058 2.122 18.891 6.365s5.75 10.198 5.75 17.864c0 8.487-1.78 14.784-5.339 18.891-2.67 3.080-6.956 5.005-12.859 5.775l-6.442 0.385h-184.392v148.664h157.288c9.308 0 15.606 2.122 18.891 6.365s4.928 10.335 4.928 18.275c0 7.94-1.916 14.031-5.75 18.275-2.875 3.183-7.212 5.172-13.013 5.968l-6.289 0.398h-156.055v103.49c0 9.582-2.054 16.016-6.16 19.302s-10.404 4.928-18.891 4.928zM88.393 433.755c-17.953-42.638-24.684-87.521-22.442-134.647 26.93-60.591 67.324-114.45 116.695-157.089v0l13.465-6.733c24.685-11.219 51.614-17.952 78.544-24.685 2.245 33.662 13.465 65.080 33.662 89.765-22.441 22.442-40.394 51.615-56.103 80.788-15.709 31.417-29.173 62.835-38.15 96.497-44.882 8.976-87.521 29.173-125.671 56.103zM451.941 534.741c-42.637 6.732-87.521 6.732-130.158-2.245-38.151-47.126-69.568-96.496-96.497-150.356v0-2.244c8.975-33.662 20.197-65.079 35.906-94.252s35.906-56.104 58.347-80.788c24.686-4.489 49.371-6.733 74.056-8.976 0.753-4.069 1.578-8.108 2.472-12.115l-2.471 14.359c-2.244 17.953-4.489 35.906-4.489 53.859 0 33.661 4.489 67.323 15.709 98.741 23.146 68.512 66.918 124.037 122.018 161.69l-5.323 8.863-15.71 4.489c-17.953 4.488-35.906 6.732-53.859 8.976zM54.732 642.459c-38.15-100.986-38.15-213.191 0-314.177-0.001 40.395 8.977 80.788 26.93 116.695-13.466 38.15 2.244 148.111 17.953 186.261-15.709 4.489-29.174 8.976-44.883 11.221zM871.592 658.168c-22.442-26.93-44.883-51.615-71.813-74.057 2.245-11.221 4.489-24.685 4.489-35.906l-0.146 2.293c0.049-0.017 0.097-0.033 0.146-0.050 46.719-14.95 88.771-40.794 123.561-74.939-0.275 55.619-9.269 111.248-29.308 162.46-8.976 4.489-17.953 13.465-26.929 20.198zM403.235 840.731l-38.813-0.79-13.466-8.976c-13.465-13.464-24.686-26.929-35.906-40.395-26.93-31.417-49.371-67.323-65.080-105.473v0l13.466-29.174 22.442-42.638c13.464-22.441 24.684-44.882 35.906-67.324 69.568 15.71 166.064-2.243 199.726-11.219 26.929 38.15 56.102 74.056 85.276 107.717v0l26.93 31.417c-6.733 33.663-17.953 65.080-33.663 96.497v0l-6.158 13.196c-9.192 17.235-22.118 33.033-36.48 47.396-65.080 8.976-127.914 11.22-192.995 8.976zM644.936 900.532c-29.173-17.953-53.859-38.151-78.544-60.591 17.954-17.953 31.419-40.395 42.639-62.836 17.953-31.417 29.173-65.078 35.906-100.984 53.859-20.198 103.229-47.127 148.112-80.788 26.929 22.441 51.614 47.126 71.812 76.299-2.244 15.709-4.489 31.418-6.733 49.371-49.371 80.788-125.67 143.623-213.191 179.529zM333.001 911.752c-22.44-6.733-42.637-15.709-62.834-26.929-96.497-49.371-170.552-132.403-210.947-231.144v0l47.126-13.465c38.151 35.906 98.742 47.127 134.648 49.371 26.929 69.568 94.253 139.136 114.449 161.576-8.976 17.953-17.953 40.395-22.442 60.591z" />
<glyph unicode="&#xe943;" glyph-name="rs_jin_xia" d="M0.876 514.543c15.707 262.562 244.607 462.287 504.924 444.335s460.044-242.364 444.336-507.17v0l-2.244 2.245c107.717-130.159 96.497-318.665-24.686-430.87-116.825-112.655-297.649-114.765-419.878-13.545-20.1-2.165-37.995-2.157-58.117 0.079-262.562 17.953-460.042 242.363-444.335 504.926zM218.552 115.091c40.395-29.174 85.277-51.615 134.647-65.080-26.93 11.22-51.615 26.929-71.812 47.126-20.197 4.488-42.639 11.221-62.836 17.953zM890.262 431.053h-344.555c-9.308 0-15.606-2.122-18.891-6.365s-4.928-10.198-4.928-17.864c0-7.666 1.643-13.621 4.928-17.864 2.464-3.183 6.622-5.172 12.474-5.968l6.417-0.398h137.165v-294.863c0-9.856 2.054-16.29 6.16-19.302s10.404-4.517 18.891-4.517c7.392 0 13.346 1.506 17.864 4.517 3.614 2.409 5.782 7.009 6.505 13.799l0.271 5.503v189.731c17.522-12.32 34.77-24.914 51.745-37.782s32.169-25.051 45.585-36.55c5.202-4.654 9.719-8.214 13.552-10.678s7.324-3.97 10.472-4.517c3.149-0.548 6.16-0.137 9.035 1.232s6.091 3.559 9.65 6.571c7.666 7.666 11.020 14.716 10.062 21.15s-6.913 14.305-17.864 23.614c-9.308 7.666-19.438 15.742-30.389 24.23s-22.176 16.974-33.676 25.462c-11.499 8.487-23.066 16.769-34.702 24.846l-17.094 11.653-16.375 10.729v45.174h157.698c9.309 0 15.606 2.122 18.891 6.365s4.928 10.198 4.928 17.864c0 7.666-1.642 13.621-4.928 17.864-2.464 3.183-6.622 5.172-12.475 5.968l-6.417 0.398zM88.393 433.755c-17.953-42.638-24.684-87.521-22.442-134.647 26.93-60.591 67.324-114.45 116.695-157.089v0l13.465-6.733c24.685-11.219 51.614-17.952 78.544-24.685 2.245 33.662 13.465 65.080 33.662 89.765-22.441 22.442-40.394 51.615-56.103 80.788-15.709 31.417-29.173 62.835-38.15 96.497-44.882 8.976-87.521 29.173-125.671 56.103zM451.941 534.741c-42.637 6.732-87.521 6.732-130.158-2.245-38.151-47.126-69.568-96.496-96.497-150.356v0-2.244c8.975-33.662 20.197-65.079 35.906-94.252s35.906-56.104 58.347-80.788c24.686-4.489 49.371-6.733 74.056-8.976 0.753-4.069 1.578-8.108 2.472-12.115l-2.471 14.359c-2.244 17.953-4.489 35.906-4.489 53.859 0 33.661 4.489 67.323 15.709 98.741 23.146 68.512 66.918 124.037 122.018 161.69l-5.323 8.863-15.71 4.489c-17.953 4.488-35.906 6.732-53.859 8.976zM54.732 642.459c-38.15-100.986-38.15-213.191 0-314.177-0.001 40.395 8.977 80.788 26.93 116.695-13.466 38.15 2.244 148.111 17.953 186.261-15.709 4.489-29.174 8.976-44.883 11.221zM871.592 658.168c-22.442-26.93-44.883-51.615-71.813-74.057 2.245-11.221 4.489-24.685 4.489-35.906l-0.146 2.293c0.049-0.017 0.097-0.033 0.146-0.050 46.719-14.95 88.771-40.794 123.561-74.939-0.275 55.619-9.269 111.248-29.308 162.46-8.976 4.489-17.953 13.465-26.929 20.198zM403.235 840.731l-38.813-0.79-13.466-8.976c-13.465-13.464-24.686-26.929-35.906-40.395-26.93-31.417-49.371-67.323-65.080-105.473v0l13.466-29.174 22.442-42.638c13.464-22.441 24.684-44.882 35.906-67.324 69.568 15.71 166.064-2.243 199.726-11.219 26.929 38.15 56.102 74.056 85.276 107.717v0l26.93 31.417c-6.733 33.663-17.953 65.080-33.663 96.497v0l-6.158 13.196c-9.192 17.235-22.118 33.033-36.48 47.396-65.080 8.976-127.914 11.22-192.995 8.976zM644.936 900.532c-29.173-17.953-53.859-38.151-78.544-60.591 17.954-17.953 31.419-40.395 42.639-62.836 17.953-31.417 29.173-65.078 35.906-100.984 53.859-20.198 103.229-47.127 148.112-80.788 26.929 22.441 51.614 47.126 71.812 76.299-2.244 15.709-4.489 31.418-6.733 49.371-49.371 80.788-125.67 143.623-213.191 179.529zM333.001 911.752c-22.44-6.733-42.637-15.709-62.834-26.929-96.497-49.371-170.552-132.403-210.947-231.144v0l47.126-13.465c38.151 35.906 98.742 47.127 134.648 49.371 26.929 69.568 94.253 139.136 114.449 161.576-8.976 17.953-17.953 40.395-22.442 60.591z" />
<glyph unicode="&#xe944;" d="M370.239 353.36c54.471 161.654 226.6 249.034 387.833 194.421 54.471-17.476 102.406-50.243 139.446-93.933 104.584-126.702 93.69-310.2-23.967-419.425-122.015-117.965-315.931-111.411-433.589 10.921v0l-4.357 4.369c-39.22 43.69-67.544 96.118-76.26 155.1-2.179 17.476-4.358 34.952-4.358 52.428 0 32.767 4.358 65.535 15.252 96.118zM630.012 509.44c-9.571 0-16.45-1.795-20.637-5.384-3.35-2.871-5.36-7.944-6.030-15.218l-0.251-5.868v-329.295h-125.617c-10.169 0-17.198-2.243-21.086-6.729s-5.832-11.365-5.832-20.637c0-8.374 2.094-14.88 6.281-19.515 3.14-3.477 7.795-5.65 13.964-6.519l6.673-0.435h381.336c9.571 0 16.45 2.318 20.637 6.954s6.281 11.141 6.281 19.515c0 9.272-1.944 16.151-5.832 20.637-3.111 3.589-8.231 5.742-15.361 6.46l-5.725 0.269h-201.435v162.404h171.826c10.169 0 17.048 2.318 20.637 6.954s5.384 11.291 5.384 19.964c0 8.674-2.094 15.328-6.281 19.964-3.35 3.709-8.518 5.934-15.505 6.676l-5.581 0.278h-170.48v113.055c0 10.468-2.243 17.497-6.729 21.086s-11.365 5.384-20.637 5.384z" />
<glyph unicode="&#xe945;" d="M362.667 874.667l1.47-0.102c0.485-0.027 0.971-0.060 1.455-0.098l-2.926 0.2c35.346 0 64-28.654 64-64v-725.333c0-35.346-28.654-64-64-64s-64 28.654-64 64v573.013l-104.078-104.124c-24.994-24.994-65.516-24.994-90.51 0s-24.994 65.516 0 90.51l211.189 211.189c12.681 12.681 29.359 18.928 45.978 18.741 0.44-0.001 0.93 0.004 1.421 0.004z" />
<glyph unicode="&#xe946;" glyph-name="set_top1" d="M977.455 871.98v-93.091h-930.909v93.091h930.909zM512 778.889l465.455-478.197h-270.895l1.071-359.621h-390.051v359.621h-271.034l465.455 478.197z" />
<glyph unicode="&#xe947;" d="M661.333 21.333l-1.47 0.102c-0.485 0.027-0.971 0.060-1.455 0.098l2.926-0.2c-35.346 0-64 28.654-64 64v725.333c0 35.346 28.654 64 64 64s64-28.654 64-64v-573.013l104.078 104.124c24.994 24.994 65.516 24.994 90.51 0s24.994-65.516 0-90.51l-211.189-211.189c-12.681-12.681-29.359-18.928-45.978-18.741-0.44 0.001-0.93-0.004-1.421-0.004z" />
<glyph unicode="&#xe948;" glyph-name="jin-xia" d="M684.218 930.31c202.473-72.186 339.782-265.46 339.782-482.019 0-36.853-3.942-72.83-11.424-107.529 7.473-26.991 11.424-55.415 11.424-84.762 0-176.731-143.269-320-320-320-29.37 0-57.816 3.957-84.833 11.366-34.598-7.446-70.447-11.366-107.167-11.366-281.6 0-512 230.531-512 512.291 0 216.559 137.309 409.833 342.109 482.019 109.382 39.586 232.727 39.586 342.109 0zM619.055 853.467l-81.455-58.215c-16.291-11.643-39.564-11.643-55.855 0l-81.455 58.215c-6.982-2.329-18.618-6.986-27.927-9.314-88.436-32.6-162.909-93.144-211.782-167.659l30.255-95.472c6.982-18.629 0-39.586-16.291-51.229l-81.455-60.543v-20.957c0-100.13 34.909-190.945 93.091-263.131h100.073c20.945 0 37.236-13.972 44.218-32.6l30.255-95.472c36.25-14.508 75.324-23.367 116.121-26.576-57.366 57.874-92.848 137.538-92.848 225.489l0.117 7.787c-9.614 5.838-16.952 15.192-21.063 26.16l-65.164 202.588c-6.982 18.629 0 39.586 16.291 51.229l169.891 123.416c16.291 11.643 39.564 11.643 55.855 0l129.913-92.981c11.223 1.191 22.62 1.802 34.159 1.802 44.958 0 87.75-9.271 126.57-26.006-3.223 9.113-3.29 19.208 0.266 28.699l32.582 97.801c-48.873 74.515-123.345 135.059-211.782 167.659-9.309 4.657-20.945 6.986-32.582 9.314zM913.856 435.2h-401.856v-45.696h165.76v-349.44h47.040v244.608c36.736-18.816 82.432-46.144 137.536-81.088l28.224 42.112c-56 33.152-111.104 63.168-165.76 89.152v54.656h189.056v45.696z" />
<glyph unicode="&#xe949;" d="M346.174 959.476c27.721 0 47.193-20.096 47.503-48.896 33.406-25.949 111.343-75.873 207.848-73.634 125.754 0 256.454-40.227 290.632-102.108 0 0-179.848 47.356-230.15-54.752s-111.592-53.022-161.086-73.613c-48.316-20.453-48.831-44.039-79.199-49.332-9.472-1.651-19.195-0.311-28.092 2.315l0.030-91.861c-32.971-41.953-56.322-91.823-66.73-146.286-17.232 7.059-28.263 24.032-28.263 45.94v542.632c0 29.174 19.562 49.595 47.507 49.595z" />
<glyph unicode="&#xe94a;" d="M79.666 20.080c-16.767-20.422-44.713-20.422-64.274 0s-19.562 49.595 0 67.1l290.632 303.407c14.004 14.62 32.306 18.773 47.726 12.46-19.041-39.903-30.48-84.12-32.555-130.771l-68.268-71.318c22.42-18.724 50.236-31.815 80.561-36.26 8.784-31.615 22.109-61.461 39.177-88.724l-16.34-0.464c-58.431 0-109.934 19.288-154.508 49.098l-13.164 9.25-108.987-113.778z" />
<glyph unicode="&#xe94b;" d="M370.239 353.36c54.471 161.654 226.6 249.034 387.833 194.421 54.471-17.476 102.406-50.243 139.446-93.933 104.584-126.702 93.69-310.2-23.967-419.425-122.015-117.965-315.931-111.411-433.589 10.921v0l-4.357 4.369c-39.22 43.69-67.544 96.118-76.26 155.1-2.179 17.476-4.358 34.952-4.358 52.428 0 32.767 4.358 65.535 15.252 96.118zM854.708 427.52h-384.401c-10.385 0-17.41-2.367-21.076-7.102s-5.498-11.378-5.498-19.93c0-8.552 1.833-15.196 5.498-19.93 2.932-3.788 8.015-6.060 15.248-6.818l5.828-0.284h153.027v-328.963c0-10.996 2.291-18.174 6.872-21.534s11.607-5.040 21.076-5.040c8.247 0 14.89 1.68 19.93 5.040 4.032 2.688 6.451 7.819 7.257 15.394l0.302 6.139v211.672c19.548-13.745 38.791-27.795 57.729-42.151s35.89-27.948 50.856-40.777c5.803-5.193 10.843-9.163 15.119-11.912s8.171-4.429 11.683-5.040c3.513-0.611 6.872-0.153 10.080 1.375s6.796 3.971 10.767 7.331c8.552 8.552 12.294 16.418 11.225 23.596s-7.712 15.959-19.93 26.345c-10.385 8.552-21.686 17.563-33.904 27.032s-24.741 18.938-37.57 28.406c-12.829 9.469-25.734 18.708-38.715 27.719-8.654 6.007-17.071 11.709-25.25 17.105l-12.090 7.865v50.398h175.936c10.385 0 17.41 2.367 21.076 7.102s5.498 11.378 5.498 19.93c0 8.552-1.833 15.196-5.498 19.93-2.932 3.788-8.015 6.060-15.248 6.818l-5.828 0.284z" />
<glyph unicode="&#xe94c;" glyph-name="rs_jin_quan" d="M684.218 930.31c202.473-72.186 339.782-265.46 339.782-482.019 0-281.76-230.4-512.291-512-512.291s-512 230.531-512 512.291c0 216.559 137.309 409.833 342.109 482.019 109.382 39.586 232.727 39.586 342.109 0zM619.055 853.467l-81.455-58.215c-16.291-11.643-39.564-11.643-55.855 0l-81.455 58.215c-6.982-2.329-18.618-6.986-27.927-9.314-88.436-32.6-162.909-93.144-211.782-167.659l30.255-95.472c6.982-18.629 0-39.586-16.291-51.229l-81.455-60.543v-20.957c0-100.13 34.909-190.945 93.091-263.131h100.073c20.945 0 37.236-13.972 44.218-32.6l30.255-95.472c46.545-18.629 97.745-27.943 151.273-27.943s102.4 9.314 148.945 27.943l30.255 95.472c6.982 18.629 23.273 32.6 44.218 32.6h100.073c58.182 72.186 93.091 163.002 93.091 263.131v20.957l-81.455 58.215c-16.291 11.643-23.273 32.6-16.291 51.229l32.582 97.801c-48.873 74.515-123.345 135.059-211.782 167.659-9.309 4.657-20.945 6.986-32.582 9.314zM539.927 667.179l172.218-123.416c16.291-11.643 23.273-32.6 16.291-51.229l-65.164-202.588c-6.982-18.629-23.273-32.6-44.218-32.6h-211.782c-20.945 0-37.236 13.972-44.218 32.6l-65.164 202.588c-6.982 18.629 0 39.586 16.291 51.229l169.891 123.416c16.291 11.643 39.564 11.643 55.855 0z" />
<glyph unicode="&#xe94d;" glyph-name="list2" d="M987.429 82.286c20.198 0 36.571-16.374 36.571-36.571v-73.143c0-20.198-16.374-36.571-36.571-36.571h-950.857c-20.198 0-36.571 16.374-36.571 36.571v73.143c0 20.198 16.374 36.571 36.571 36.571h950.857zM694.857 521.143c20.198 0 36.571-16.374 36.571-36.571v-73.143c0-20.198-16.374-36.571-36.571-36.571h-658.286c-20.198 0-36.571 16.374-36.571 36.571v73.143c0 20.198 16.374 36.571 36.571 36.571h658.286zM987.429 960c20.198 0 36.571-16.374 36.571-36.571v-73.143c0-20.198-16.374-36.571-36.571-36.571h-950.857c-20.198 0-36.571 16.374-36.571 36.571v73.143c0 20.198 16.374 36.571 36.571 36.571h950.857z" />
<glyph unicode="&#xe94e;" glyph-name="success" d="M512 960c69.182 0 136.231-13.463 199.281-40.256 60.918-25.727 115.703-62.65 162.758-109.705s83.977-101.84 109.705-162.758c26.66-63.050 40.256-130.099 40.256-199.281s-13.463-136.231-40.256-199.281c-25.727-60.918-62.651-115.703-109.705-162.758s-101.84-83.978-162.758-109.705c-63.050-26.66-130.099-40.256-199.281-40.256s-136.231 13.73-199.281 40.523c-60.918 25.727-115.703 62.65-162.758 109.705s-83.977 101.84-109.705 162.758c-26.66 63.050-40.256 130.099-40.256 199.281s13.596 136.098 40.256 199.148c25.727 60.918 62.651 115.703 109.705 162.758s101.84 83.978 162.758 109.705c63.050 26.66 130.099 40.123 199.281 40.123zM764.634 652.247l-329.148-329.148-176.121 176.237-52.836-52.836 228.957-228.957 381.984 381.984-52.836 52.72z" />
<glyph unicode="&#xe94f;" glyph-name="rs_hong" horiz-adv-x="805" d="M146.286 960h512c80.791 0 146.286-65.494 146.286-146.286v-731.429c0-80.791-65.494-146.286-146.286-146.286h-512c-80.791 0-146.286 65.494-146.286 146.286v731.429c0 80.791 65.494 146.286 146.286 146.286z" />
<glyph unicode="&#xe950;" glyph-name="rs_huang" d="M308.364 896h407.273c64.266 0 116.364-57.308 116.364-128v-640c0-70.692-52.098-128-116.364-128h-407.273c-64.266 0-116.364 57.308-116.364 128v640c0 70.692 52.098 128 116.364 128z" />
<glyph unicode="&#xe951;" glyph-name="small" d="M329.143 301.714c17.954 0 32.886-12.937 35.982-29.998l0.589-6.574v-292.571c0-17.954-12.937-32.886-29.998-35.982l-6.574-0.589h-73.143c-17.954 0-32.886 12.937-35.982 29.998l-0.589 6.574v182.93l-182.857-0.073c-17.954 0-32.886 12.937-35.982 29.998l-0.589 6.574v73.143c0 17.954 12.937 32.886 29.998 35.982l6.574 0.589h292.571zM987.429 301.714c20.198 0 36.571-16.374 36.571-36.571v-73.143c0-20.198-16.374-36.571-36.571-36.571l-182.857 0.073v-182.93c0-20.198-16.374-36.571-36.571-36.571h-73.143c-20.198 0-36.571 16.374-36.571 36.571v292.571c0 20.198 16.374 36.571 36.571 36.571h292.571zM329.143 960c20.198 0 36.571-16.374 36.571-36.571v-292.571c0-20.198-16.374-36.571-36.571-36.571h-292.571c-20.198 0-36.571 16.374-36.571 36.571v73.143c0 20.198 16.374 36.571 36.571 36.571l182.857-0.073v182.93c0 20.198 16.374 36.571 36.571 36.571h73.143zM768 960c17.954 0 32.886-12.937 35.982-29.998l0.589-6.574v-182.93l182.857 0.073c17.954 0 32.886-12.937 35.982-29.998l0.589-6.574v-73.143c0-17.954-12.937-32.886-29.998-35.982l-6.574-0.589h-292.571c-17.954 0-32.886 12.937-35.982 29.998l-0.589 6.574v292.571c0 17.954 12.937 32.886 29.998 35.982l6.574 0.589h73.143z" />
<glyph unicode="&#xe952;" glyph-name="big" d="M109.714 374.857c20.198 0 36.571-16.374 36.571-36.571v0-256.073l256 0.073c20.198 0 36.571-16.374 36.571-36.571v0-73.143c0-20.198-16.374-36.571-36.571-36.571v0h-365.714c-20.198 0-36.571 16.374-36.571 36.571v0 365.714c0 20.198 16.374 36.571 36.571 36.571v0zM987.429 374.857c20.198 0 36.571-16.374 36.571-36.571v-365.714c0-20.198-16.374-36.571-36.571-36.571h-365.714c-20.198 0-36.571 16.374-36.571 36.571v73.143c0 20.198 16.374 36.571 36.571 36.571l256-0.073v256.073c0 20.198 16.374 36.571 36.571 36.571h73.143zM402.286 960c20.198 0 36.571-16.374 36.571-36.571v-73.143c0-20.198-16.374-36.571-36.571-36.571l-256 0.073v-256.073c0-20.198-16.374-36.571-36.571-36.571h-73.143c-20.198 0-36.571 16.374-36.571 36.571v365.714c0 20.198 16.374 36.571 36.571 36.571h365.714zM987.429 960c20.198 0 36.571-16.374 36.571-36.571v0-365.714c0-20.198-16.374-36.571-36.571-36.571v0h-73.143c-20.198 0-36.571 16.374-36.571 36.571v0 256.073l-256-0.073c-20.198 0-36.571 16.374-36.571 36.571v0 73.143c0 20.198 16.374 36.571 36.571 36.571v0z" />
<glyph unicode="&#xe953;" glyph-name="on_base3" d="M508.916 810.667l231.325-233.333-231.325-233.333-231.325 233.333zM786.506 530.667l231.325-233.333-231.325-233.333-231.325 233.333zM231.325 530.667l231.325-233.333-231.325-233.333-231.325 233.333z" />
<glyph unicode="&#xe954;" glyph-name="triangle" d="M240 329.341c0 1.981 0.444 4.046 1.332 6.197s2.219 4.046 3.987 5.7v0l255.78 237.815c3.545 3.307 7.796 4.956 12.759 4.956s9.22-1.654 12.759-4.956v0l252.058-234.347c3.545-3.307 5.315-7.353 5.315-12.139s-1.777-8.832-5.315-12.139c-3.545-3.307-7.888-4.956-13.031-4.956s-9.481 1.654-13.031 4.956v0l-238.764 222.95-243.022-226.418c-3.545-3.307-7.796-4.956-12.759-4.956s-9.22 1.654-12.759 4.956c-1.777 1.654-3.103 3.549-3.987 5.7s-1.332 4.378-1.332 6.69z" />
<glyph unicode="&#xe955;" glyph-name="on_base0" d="M508.916 810.667l231.325-233.333-231.325-233.333-231.325 233.333zM786.506 530.667l231.325-233.333-231.325-233.333-231.325 233.333zM231.325 530.667l231.325-233.333-231.325-233.333-231.325 233.333z" />
<glyph unicode="&#xe956;" d="M508.916 810.667l231.325-233.333-231.325-233.333-231.325 233.333z" />
<glyph unicode="&#xe957;" d="M786.506 530.667l231.325-233.333-231.325-233.333-231.325 233.333z" />
<glyph unicode="&#xe958;" d="M231.325 530.667l231.325-233.333-231.325-233.333-231.325 233.333z" />
<glyph unicode="&#xe959;" glyph-name="triangle2" horiz-adv-x="512" d="M378.149 167.99c-2.048 0-4.165 0.457-6.38 1.371s-4.165 2.286-5.863 4.113v0l-244.822 263.313c-3.404 3.657-5.093 8.033-5.093 13.144s1.698 9.491 5.093 13.144v0l241.252 259.486c3.404 3.657 7.57 5.478 12.496 5.478s9.091-1.829 12.496-5.478c3.404-3.657 5.093-8.12 5.093-13.417s-1.698-9.76-5.093-13.417v0l-229.519-245.801 233.089-250.178c3.404-3.657 5.093-8.033 5.093-13.144s-1.698-9.491-5.093-13.144c-1.698-1.829-3.658-3.2-5.863-4.113s-4.498-1.371-6.878-1.371z" />
<glyph unicode="&#xe95a;" glyph-name="triangle1" d="M784 566.659c0-1.981-0.444-4.046-1.332-6.197s-2.219-4.046-3.987-5.7v0l-255.78-237.815c-3.545-3.307-7.796-4.956-12.759-4.956s-9.22 1.654-12.759 4.956v0l-252.058 234.347c-3.545 3.307-5.315 7.353-5.315 12.139s1.777 8.832 5.315 12.139c3.545 3.307 7.888 4.956 13.031 4.956s9.481-1.654 13.031-4.956v0l238.764-222.95 243.022 226.418c3.545 3.307 7.796 4.956 12.759 4.956s9.22-1.654 12.759-4.956c1.777-1.654 3.103-3.549 3.987-5.7s1.332-4.378 1.332-6.69z" />
<glyph unicode="&#xe95b;" d="M508.916 810.667l231.325-233.333-231.325-233.333-231.325 233.333z" />
<glyph unicode="&#xe95c;" d="M786.506 530.667l231.325-233.333-231.325-233.333-231.325 233.333z" />
<glyph unicode="&#xe95d;" d="M231.325 530.667l231.325-233.333-231.325-233.333-231.325 233.333z" />
<glyph unicode="&#xe95e;" glyph-name="sports_iceball" d="M887.714 60.517l-0.067-24.128-0.776-0.023c0.513-2.983 0.776-5.978 0.776-8.975 0-50.495-74.532-91.429-166.473-91.429s-166.473 40.934-166.473 91.429c0 2.997 0.263 5.992 0.776 8.975l-0.776 0.023-0.070 23.832c28.067-39.159 92.635-65.793 166.435-65.793 73.987 0 138.694 26.768 166.647 66.090zM132.43 219.37v-203.349l-60.673-15.38c-28.961-7.323-58.376 10.218-65.699 39.179-0.552 2.183-0.967 4.398-1.243 6.632l-3.849 31.175c-2.409 19.513-0.291 39.319 6.191 57.882l8.224 23.552c10.999 31.501 39.468 53.608 72.712 56.464l44.337 3.846zM721.174 200.96c91.94 0 166.473-40.934 166.473-91.429s-74.532-91.429-166.473-91.429c-91.94 0-166.473 40.934-166.473 91.429 0 48.753 69.481 88.594 157.026 91.284l9.447 0.145zM312.611 234.090v-167.765l-60.637-19.644c-4.418-1.43-8.882-2.715-13.384-3.853l-61.147-15.414v195.797l47.48 4.043 87.688 6.837zM987.821 956.96l25.812-15.48c10.104-6.060 13.383-19.163 7.323-29.268l-0.853-1.311-457.523-649.693-91.336-114.001c-20.862-26.039-48.9-45.392-80.645-55.665l-32.975-10.625v156.672l3.733 0.296c49.468 3.854 94.809 29.046 124.213 69.013l474.095 644.409c6.522 8.865 18.717 11.314 28.156 5.653z" />
<glyph unicode="&#xe95f;" glyph-name="sports_baseball" d="M18.513 584.489c46.621-8.347 92.199-22.617 135.59-42.779l18.459-9.001-4.651-6.834c-9.958-14.517-6.148-34.62 8.356-44.582 13.185-9.057 30.985-6.726 41.594 4.68l2.955 3.692 7.146 10.537c19.308-12.863 37.998-27.067 55.841-42.597l13.22-11.895-10.915-11.169c-12.285-12.639-11.997-33.018 0.63-45.31 11.479-11.175 29.351-11.949 41.736-2.501l3.539 3.141 9.398 9.709c19.347-22.531 36.513-46.245 51.559-70.804l10.889-18.573-14.453-7.417c-15.691-8.076-21.898-27.553-13.831-43.255 7.394-14.394 24.363-20.809 39.226-15.557l3.993 1.724 13.066 6.768c10.509-25.314 19.073-51.159 25.662-77.421l4.571-19.772-8.037-1.974c-17.132-4.172-27.604-21.785-23.36-38.861 3.818-15.716 18.923-25.829 34.557-24.131l4.269 0.761 2.197 0.518c4.764-51.192 2.495-102.787-6.703-153.301-126.75 11.691-249.397 70.3-339.527 174.065-116.747 134.41-151.080 312.503-106.975 472.139zM510.344 960.941c-1.668-38.040-0.005-75.795 5.042-113.139l3.435-22.356-3.849-0.7c-17.377-3.409-28.697-20.366-25.363-37.677 3.119-15.94 17.615-26.786 33.333-25.91l4.309 0.534 5.739 1.090c2.384-8.519 4.928-16.9 7.688-25.37 6.167-18.888 13.159-37.372 21.008-55.423l8.137-17.906-11.224-6.002c-15.495-8.463-21.405-27.96-13.031-43.535 7.748-14.213 24.764-20.364 39.535-14.833l3.964 1.801 11.224 6.002c18.499-30.6 39.782-59.754 63.642-87.223l8.026-9.099 8.152-8.885-4.188-4.48c-12.009-12.957-11.345-33.287 1.52-45.372 11.768-10.924 29.626-11.364 41.851-1.679l3.487 3.209 3.543 3.779c25.111-21.827 51.864-41.646 80.104-59.187l17.121-10.249-3.899-6.737c-8.823-15.342-3.568-35.024 11.76-43.85 14.051-8.091 31.748-4.343 41.396 8.155l2.423 3.623 5.51 9.533c40.603-18.199 82.784-31.96 126.177-41.182-25.202-96.078-78.578-185.863-159.191-255.996-89.421-77.795-198.191-119.039-307.991-124.938 3.13 19.17 5.37 38.403 6.741 57.994 2.16 30.871 2.111 61.515-0.33 92.059l-2.282 22.891 18.201 4.545c17.132 4.172 27.604 21.785 23.36 38.861-3.818 15.716-18.923 25.829-34.557 24.131l-4.269-0.761-13.124-3.334c-4.53 20.451-9.96 40.816-16.529 60.888-3.89 11.855-8.057 23.531-12.566 35.055l-7.028 17.173 6.181 3.148c15.691 8.076 21.898 27.553 13.831 43.255-7.394 14.393-24.363 20.809-39.226 15.557l-3.993-1.724-5.102-2.626c-17.596 31.618-37.985 61.774-61.093 90.29l-15.363 18.261 5.785 6.009c12.285 12.639 11.997 33.018-0.63 45.31-11.479 11.175-29.351 11.949-41.736 2.501l-3.539-3.141-4.416-4.539c-19.693 18.438-40.435 35.518-62.231 51.164l-16.545 11.464 5.227 7.614c9.958 14.517 6.148 34.62-8.356 44.582-13.185 9.057-30.985 6.726-41.594-4.68l-2.955-3.692-7.394-10.893c-5.928 3.114-11.902 6.142-17.918 9.082-48.773 23.916-100.020 41.218-152.931 51.777 29.427 66.998 73.838 128.773 132.711 179.992 96.641 84.076 215.855 125.486 334.279 125.786zM584.416 955.691c117.606-16.72 229.893-74.307 313.884-171.006 97.99-112.816 137.868-256.396 122.484-394.25-28.073 6.019-55.753 14.253-82.7 24.641l-20.068 8.194 5.183 9.109c8.823 15.342 3.568 35.024-11.76 43.85-14.051 8.091-31.748 4.343-41.396-8.155l-2.423-3.623-7.043-12.26c-23.436 13.51-46.023 28.917-67.581 46.094l-15.972 13.213 11.512 12.246c12.009 12.957 11.345 33.287-1.52 45.372-11.768 10.924-29.626 11.364-41.851 1.679l-3.487-3.209-10.867-11.545-11.054 12.406c-16.329 18.8-31.124 38.4-44.472 58.652l-9.74 15.309 8.054 4.359c15.495 8.463 21.405 27.961 13.031 43.535-7.748 14.213-24.764 20.364-39.535 14.833l-3.964-1.801-7.975-4.29c-8.785 19.015-16.456 38.371-22.984 58.036l-6.146 19.766 15.487 3.019c17.377 3.409 28.697 20.366 25.363 37.677-3.119 15.94-17.615 26.786-33.333 25.91l-4.309-0.534-17.604-3.468c-6.398 38.479-8.889 77.431-7.216 116.242z" />
<glyph unicode="&#xe961;" d="M146.286 960h731.429c80.791 0 146.286-65.494 146.286-146.286v-731.429c0-80.791-65.494-146.286-146.286-146.286h-731.429c-80.791 0-146.286 65.494-146.286 146.286v731.429c0 80.791 65.494 146.286 146.286 146.286z" />
<glyph unicode="&#xe962;" d="M240.852 387.406c-28.564 28.564-28.564 74.876 0 103.44s74.876 28.564 103.44 0l103.44-103.44 258.599 258.599c28.564 28.564 74.876 28.564 103.44 0s28.564-74.876 0-103.44l-310.319-310.319c-26.524-26.524-68.35-28.418-97.060-5.684l-6.38 5.684-155.159 155.159z" />
<glyph unicode="&#xe964;" glyph-name="sports_americaball" d="M219.141 741.441c93.652 93.585 205.141 155.332 313.75 188.77l461.241-460.918c-33.376-108.912-95.28-220.797-189.278-314.728-91.521-91.456-200.072-152.509-306.327-186.448l-466.818 466.519c33.933 106.798 95.133 215.336 187.432 306.805zM8.825 340.277l395.432-395.154c-138.881-24.102-264.070 0.146-329.707 65.736-63.193 63.148-87.311 181.418-68.131 314.021l2.407 15.397zM628.129 952.277c135.52 21.708 257.008-2.868 321.321-67.136 64.301-64.256 88.145-185.583 67.082-321.011l-388.403 388.147zM347.696 656.375l49.376-51.708c-10.558-9.965-21.096-20.3-31.381-30.773l-15.207-15.782-51.745 49.341-6.229-6.733-6.113-6.739-23.757-26.994 53.279-46.929c-9.942-11.107-19.493-22.604-28.667-34.244l-13.479-17.538-55.648 44.562c-7.25-9.588-14.5-19.176-21.49-29.025l-10.257-15.001 57.182-42.15c-10.289-14.968-20.207-29.956-29.741-45.211l-14.011-23.114 43.113-28.091c9.176 15.028 18.373 29.685 27.823 44.206l14.395 21.707 57.182-42.15 27.888 38.413-37.343 29.659c-6.12 4.917-12.21 9.863-18.305 14.902 8.829 11.166 17.659 22.333 26.749 33.239l13.863 16.131 53.279-46.929c6.784 7.95 13.567 15.901 20.611 23.591l10.794 11.307-51.745 49.341c9.446 10.025 19.262 20.029 29.449 30.014l15.559 14.962 49.376-51.708c7.37 7.365 15.13 14.339 23.021 21.183l11.901 10.201-46.962 53.241c15.882 14.113 32.644 27.348 49.405 40.583l29.68-37.316c4.921-6.115 9.87-12.201 14.913-18.292l6.391 4.934 6.402 4.726 25.647 18.208c-14.338 19.062-28.676 38.124-43.759 55.564 16.259 10.975 32.518 21.951 49.167 32.203l16.793 9.985-28.111 43.083c-15.595-9.14-30.799-18.671-45.859-28.579l-22.514-15.143-42.179 57.142c-10.181-6.659-19.972-13.709-29.632-20.889l-14.425-10.835 44.593-55.608-34.855-28.061-16.964-14.055-46.962 53.241c-9.009-7.831-18.018-15.662-27.013-23.74l-13.482-12.333z" />
<glyph unicode="&#xe965;" glyph-name="football" d="M537.361 884.113c12.83-7.049 17.107-22.91 11.12-36.127l-214.758-419.077c92.616-61.711 157.895-161.427 176.871-277.003l391.147-0.019c14.541 0 25.66-11.455 25.66-26.434s-11.12-26.434-25.66-26.434l-386.020-0.061c0.887-23.521 0.234-45.944-2.309-66.905-0.855-13.217-11.975-22.91-24.805-22.91h-3.421c-13.686 1.762-23.95 14.979-22.239 29.959 2.628 18.271 3.237 38.621 2.216 59.853l-316.13 0.064c-9.409 0-17.107 5.287-22.239 13.217s-5.132 17.623-0.855 25.553l138.425 270.226c-22.618 10.817-46.615 19.244-71.707 24.955-13.686 3.525-22.239 17.623-19.673 31.721 3.421 14.098 17.107 22.91 30.793 20.266 29.665-6.826 57.979-16.956 84.59-29.982l213.927 417.682c6.843 13.217 22.239 17.623 35.069 11.455zM309.691 381.931l-117.892-230.044 267.288 0.001c-17.938 95.412-72.669 177.781-149.396 230.043z" />
<glyph unicode="&#xe966;" glyph-name="sports_gaming" d="M849.135 477.91c-31.471 0-56.691 25.557-55.45 56.7 1.109 27.713 24.137 50.695 52.361 52.203 31.979 1.704 58.637-23.25 58.637-54.409 0-30.133-24.96-54.493-55.548-54.493zM710.848 558.391c-31.501 0-56.738 25.607-55.445 56.762 1.152 27.709 24.205 50.649 52.42 52.123 31.949 1.666 58.569-23.254 58.569-54.413 0-30.129-24.956-54.472-55.543-54.472zM710.848 408.469c-31.509 0-56.751 25.632-55.445 56.8 1.161 27.705 24.222 50.637 52.437 52.102 31.94 1.654 58.551-23.263 58.551-54.413 0-30.133-24.956-54.489-55.543-54.489zM389.052 484.094h-70.153v-66.355c0 0-14.857-11.129-37.85-10.844-22.95 0.335-33.34 12.138-33.34 12.138v65.044h-66.257c0 0-8.273 8.315-10.483 30.221-2.18 21.906 9.143 39.613 9.143 39.613h70.178v68.846c0 0 14.43 7.591 35.191 7.009 20.774-0.636 35.994-8.299 35.994-8.299l-0.286-67.535h66.257c0 0 11.575-14.579 12.531-32.193 0.951-17.631-10.927-37.645-10.927-37.645zM932.442 661.582c-135.249 218.060-338.995 66.355-338.995 66.355-13.21-9.802-37.577-17.857-54.131-17.895l-54.575-0.038c-16.555-0.021-40.922 8.039-54.118 17.836 0 0-203.763 151.747-339.034-66.313-135.232-217.985-80.734-455.38-80.734-455.38 9.549-58.127 41.015-96.915 100.403-92.041 59.213 4.853 187.746 156.541 187.746 156.541 10.615 12.494 32.862 22.706 49.378 22.706l327.172 0.059c16.538 0 38.767-10.212 49.365-22.714 0 0 128.55-151.684 187.857-156.537 59.307-4.874 90.854 33.952 100.348 92.041-0.021 0 54.575 237.358-80.683 455.38z" />
<glyph unicode="&#xe967;" glyph-name="triangle_solid" d="M750.331 502.797l-238.576-238.087-238.087 238.576z" />
<glyph unicode="&#xe968;" glyph-name="timer" horiz-adv-x="960" d="M456.482 848.964c252.102 0 456.482-204.382 456.482-456.482s-204.38-456.482-456.482-456.482c-252.1 0-456.482 204.38-456.482 456.482s204.382 456.482 456.482 456.482zM481.156 774.15v-36.222c0-13.628-11.048-24.676-24.676-24.676s-24.676 11.046-24.676 24.676v36.222c-191.526-12.188-344.78-165.42-356.968-356.994h36.198c13.626 0 24.676-11.048 24.676-24.674s-11.046-24.674-24.674-24.674h-36.222c12.24-192.562 167.022-346.408 360.004-357.192-1.986 3.596-3.022 7.638-3.010 11.746v49.35c0 13.626 11.048 24.674 24.676 24.674s24.676-11.048 24.676-24.674v-49.35c0.004-4.092-1.014-8.12-2.962-11.72 193.942 10.832 349.294 166.208 360.152 360.178-3.596-1.986-7.638-3.020-11.746-3.010h-49.35c-13.626 0-24.674 11.048-24.674 24.674s11.048 24.674 24.674 24.674h49.35c4.244 0 8.24-1.062 11.72-2.962-10.732 192.956-164.58 347.69-357.166 359.954zM658.814 604.784c13.578-13.272 14.91-34.668 3.084-49.522l-2.518-2.838-105.066-107.408c25.576-47.644 13.11-106.782-29.516-140.050s-103.022-30.994-143.024 5.39c-40.002 36.384-47.98 96.292-18.892 141.874s86.784 63.584 136.632 42.63l106.94 109.334c6.864 7.024 16.236 11.036 26.058 11.148 9.822 0.108 19.284-3.688 26.302-10.556v0zM456.482 429.494c-13.226 0.002-25.446-7.052-32.058-18.504s-6.612-25.562 0-37.016c6.612-11.452 18.834-18.506 32.058-18.504 20.44 0.004 37.006 16.572 37.006 37.012s-16.568 37.010-37.006 37.012zM592.192 960c20.438-0.004 37.006-16.574 37.006-37.012s-16.568-37.010-37.006-37.012h-271.422c-20.44 0.004-37.006 16.574-37.006 37.012s16.568 37.010 37.006 37.012h271.422z" />
<glyph unicode="&#xe969;" glyph-name="whistle" d="M316.688 127.632c-73.376 0-133.122 61.712-133.122 137.5s59.746 137.5 133.122 137.5c73.376 0 133.12-61.712 133.12-137.5 0-75.922-59.746-137.5-133.12-137.5zM316.688 336.712c-38.216 0-69.428-32.106-69.428-71.712 0-39.474 31.082-71.712 69.428-71.712s69.428 32.106 69.428 71.712c0 39.606-31.21 71.712-69.428 71.712zM316.688-61.974c-84.586 0-164.076 34.078-223.95 95.788-59.362 61.448-92.74 144.474-92.74 231.316 0 87.368 32.994 169.474 92.74 231.316 59.746 61.712 139.362 95.788 223.95 95.788 8.024 0 16.306-0.394 24.586-1.052h614.014c34.904 0 63.184-28.948 63.694-64.868l1.664-122.762c0.504-36.712-28.16-66.712-63.702-66.712h-293.758c-18.98 0-33.63-17.106-31.592-36.578 1.146-10.788 1.656-21.712 1.784-32.632 0.636-86.712-32.23-170.394-91.21-232.106-60-62.894-140.128-97.5-225.478-97.5zM316.688 526.316c-139.746 0-253.248-117.5-252.994-261.974 0.382-143.288 113.632-260.264 252.356-260.658 139.746-0.394 253.632 116.976 253.632 261.318 0 31.974-5.478 63.158-16.432 92.894-7.898 21.578 7.516 44.606 29.808 44.606h341.656c17.706 0 32.102 15 31.85 33.288l-0.768 56.974c-0.254 18.026-14.394 32.5-31.846 32.5l-586.496 0.132c-7.006 0.658-14.012 0.92-20.764 0.92zM486.88 460.526h-25.478c-10.572 0-19.108 8.816-19.108 19.738v46.052h63.694v-46.052c0-10.92-8.536-19.738-19.108-19.738v0zM474.14 762.236c-17.58 0-31.846 14.736-31.846 32.896v131.58c0 18.158 14.268 32.896 31.846 32.896s31.846-14.738 31.846-32.896v-131.58c0-18.158-14.268-32.896-31.846-32.896v0zM360.128 710.788c-12.484-12.894-32.61-12.894-45.096 0l-90.064 93.026c-12.484 12.896-12.484 33.684 0 46.58s32.612 12.894 45.096 0l90.064-93.026c12.356-12.896 12.356-33.684 0-46.58zM589.428 710.788c12.484-12.894 32.61-12.894 45.096 0l90.064 93.026c12.484 12.896 12.484 33.684 0 46.58s-32.61 12.894-45.096 0l-90.064-93.026c-12.484-12.896-12.484-33.684 0-46.58z" />
<glyph unicode="&#xe96a;" glyph-name="match_over" horiz-adv-x="1073" d="M835.941 948.302c15.607-15.442 15.764-40.384 0.468-56.016l-0.468-0.47-90.313-89.354h168.206c87.773 0 158.928-70.533 158.928-157.538v-551.385c0-87.006-71.155-157.538-158.928-157.538h-754.906c-87.773 0-158.928 70.533-158.928 157.538v551.385c0 87.006 71.155 157.538 158.928 157.538h168.469l-90.312 89.354c-15.766 15.597-15.766 40.887 0 56.486s41.326 15.598 57.092 0l147.406-145.84h189.859l147.406 145.84c15.766 15.598 41.327 15.598 57.093 0zM913.834 723.692h-754.906c-43.448 0-78.751-34.565-79.453-77.467l-0.011-1.302v-551.385c0-43.068 34.87-78.063 78.15-78.758l1.314-0.011h754.906c43.448 0 78.751 34.565 79.453 77.467l0.011 1.302v551.385c0 43.503-35.577 78.769-79.464 78.769zM645.644 406.154c24.686 0 44.698-19.838 44.698-44.308s-20.012-44.308-44.698-44.308h-218.526c-24.686 0-44.698 19.838-44.698 44.308s20.012 44.308 44.698 44.308h218.526z" />
<glyph unicode="&#xe96b;" horiz-adv-x="1073" d="M835.941 948.302c15.607-15.442 15.764-40.384 0.468-56.016l-0.468-0.47-90.313-89.354h168.206c87.773 0 158.928-70.533 158.928-157.539v-551.385c0-87.006-71.155-157.539-158.928-157.539h-754.907c-87.773 0-158.928 70.533-158.928 157.539v551.385c0 87.006 71.155 157.539 158.928 157.539h168.47l-90.312 89.354c-15.766 15.598-15.766 40.887 0 56.486 15.765 15.598 41.326 15.598 57.092 0l147.405-145.84h189.859l147.405 145.84c15.766 15.598 41.327 15.598 57.094 0zM913.834 723.693h-754.907c-43.448 0-78.751-34.565-79.453-77.467l-0.011-1.302v-551.385c0-43.068 34.87-78.063 78.15-78.758l1.314-0.011h754.907c43.448 0 78.751 34.565 79.453 77.467l0.011 1.302v551.385c0 43.503-35.577 78.769-79.464 78.769z" />
<glyph unicode="&#xe96c;" horiz-adv-x="1073" d="M390.095 521.143h24.381c13.465 0 24.381-10.916 24.381-24.381v-292.571c0-13.465-10.916-24.381-24.381-24.381h-24.381c-13.465 0-24.381 10.916-24.381 24.381v292.571c0 13.465 10.916 24.381 24.381 24.381z" />
</font>
</defs>
</svg>
