<?xml version="1.0" encoding="UTF-8"?>
<svg width="44px" height="42px" viewBox="0 0 44 42" version="1.1" xmlns="http://www.w3.org/2000/svg" xmlns:xlink="http://www.w3.org/1999/xlink">
    <title>停止@2x</title>
    <g id="页面-1" stroke="none" stroke-width="1" fill="none" fill-rule="evenodd">
        <g id="右侧状态（宽度匹配550）" transform="translate(-1686.000000, -1063.000000)">
            <g id="停止" transform="translate(1686.000000, 1063.000000)">
                <path d="M34.2866435,0.479807236 C34.9267824,1.11318964 34.9331991,2.13618273 34.3058426,2.77733918 L34.2866435,2.79662284 L30.5823935,6.46152778 L37.4814815,6.46152778 C41.081537,6.46152778 44,9.35448058 44,12.9230682 L44,35.5384596 C44,39.1070472 41.081537,42 37.4814815,42 L6.51851852,42 C2.91846296,42 0,39.1070472 0,35.5384596 L0,12.9230682 C0,9.35448058 2.91846296,6.46152778 6.51851852,6.46152778 L13.4284028,6.46152778 L9.7242037,2.79662284 C9.0775463,2.15687985 9.0775463,1.1196007 9.7242037,0.479807236 C10.3708102,-0.159935745 11.4192222,-0.159935745 12.0658796,0.479807236 L18.1118056,6.46152778 L25.8989907,6.46152778 L31.9449167,0.479807236 C32.5915741,-0.159935745 33.6399861,-0.159935745 34.2866435,0.479807236 Z M37.4814815,9.69229798 L6.51851852,9.69229798 C4.73646759,9.69229798 3.28849074,11.1100003 3.25971759,12.8696595 L3.25925926,12.9230682 L3.25925926,35.5384596 C3.25925926,37.3049337 4.68946296,38.7402538 6.46463889,38.7687755 L6.51851852,38.7692298 L37.4814815,38.7692298 C39.2635324,38.7692298 40.7115093,37.3515274 40.7402824,35.5918683 L40.7407407,35.5384596 L40.7407407,12.9230682 C40.7407407,11.1387744 39.2815093,9.69229798 37.4814815,9.69229798 Z" id="形状备份-2" fill="#5A6074" fill-rule="nonzero"></path>
                <rect id="矩形" fill="#FF2A2A" x="15" y="18" width="3" height="14" rx="1"></rect>
                <rect id="矩形备份" fill="#FF2A2A" x="26" y="18" width="3" height="14" rx="1"></rect>
            </g>
        </g>
    </g>
</svg>