<?xml version="1.0" encoding="UTF-8"?>
<svg width="175px" height="108px" viewBox="0 0 175 108" version="1.1" xmlns="http://www.w3.org/2000/svg" xmlns:xlink="http://www.w3.org/1999/xlink">
    <!-- Generator: Sketch 61.2 (89653) - https://sketch.com -->
    <title>手机</title>
    <desc>Created with Sketch.</desc>
    <g id="页面-1" stroke="none" stroke-width="1" fill="none" fill-rule="evenodd">
        <g id="手机" transform="translate(88.000000, 53.500000) rotate(-90.000000) translate(-88.000000, -53.500000) translate(34.000000, -34.000000)" fill="#999999" fill-rule="nonzero">
            <path d="M93.784375,174.032813 L13.459375,174.032813 C6.084375,174.032813 0.084375,168.032813 0.084375,160.657813 L0.084375,13.4078125 C0.084375,6.0328125 6.084375,0.0328125 13.459375,0.0328125 L93.759375,0.0328125 C101.134375,0.0328125 107.134453,6.0328125 107.134453,13.4078125 L107.134453,160.632813 C107.159375,168.032813 101.159375,174.032813 93.784375,174.032813 Z M13.459375,6.7328125 C9.759375,6.7328125 6.759375,9.7328125 6.759375,13.4328125 L6.759375,160.632813 C6.759375,164.332813 9.759375,167.332813 13.459375,167.332813 L93.759375,167.332813 C97.459375,167.332813 100.459375,164.332813 100.459375,160.632813 L100.459375,13.4078125 C100.459375,9.7078125 97.459375,6.7078125 93.759375,6.7078125 L13.459375,6.7078125 L13.459375,6.7328125 Z" id="形状"></path>
            <path d="M83.734375,147.257812 L23.509375,147.257812 C17.959375,147.257812 13.459375,142.757812 13.459375,137.207812 L13.459375,26.8078125 C13.459375,21.2578125 17.959375,16.7578125 23.509375,16.7578125 L83.734375,16.7578125 C89.284375,16.7578125 93.784375,21.2578125 93.784375,26.8078125 L93.784375,137.232813 C93.784375,142.757812 89.284375,147.257812 83.734375,147.257812 Z" id="路径"></path>
            <path d="M46.934375,157.307813 C46.934375,161.00812 49.9340672,164.007812 53.634375,164.007812 C57.3346828,164.007812 60.334375,161.00812 60.334375,157.307813 C60.334375,153.607505 57.3346828,150.607812 53.634375,150.607812 C49.9340672,150.607812 46.934375,153.607505 46.934375,157.307812 L46.934375,157.307813 Z" id="路径"></path>
            <path d="M72.034375,13.4078125 L38.559375,13.4078125 C37.634298,13.4078125 36.884375,12.6578895 36.884375,11.7328125 C36.884375,10.8077355 37.634298,10.0578125 38.559375,10.0578125 L72.009375,10.0578125 C72.934375,10.0578125 73.684375,10.8078125 73.684375,11.7328125 C73.709375,12.6578125 72.934375,13.4078125 72.034375,13.4078125 Z" id="路径"></path>
        </g>
    </g>
</svg>