<?xml version="1.0" encoding="UTF-8"?>
<svg width="20px" height="20px" viewBox="0 0 20 20" version="1.1" xmlns="http://www.w3.org/2000/svg" xmlns:xlink="http://www.w3.org/1999/xlink">
    <title>C</title>
    <g id="页面-1" stroke="none" stroke-width="1" fill="none" fill-rule="evenodd">
        <g id="画板" transform="translate(-750.000000, -198.000000)">
            <g id="C" transform="translate(750.000000, 198.000000)">
                <rect id="矩形" fill="#5A6074" x="0" y="0" width="20" height="20" rx="10"></rect>
                <path d="M10.0996094,14.1171875 C11.0996094,14.1171875 11.9052734,13.8535156 12.5166016,13.3261719 C13.1279297,12.7988281 13.4667969,12.0761719 13.5332031,11.1582031 L13.5332031,11.1582031 L11.7753906,11.1582031 C11.7363281,11.6777344 11.5830078,12.0615234 11.3154297,12.3095703 C11.0478516,12.5576172 10.6425781,12.6816406 10.0996094,12.6816406 C9.49804688,12.6816406 9.05761719,12.46875 8.77832031,12.0429688 C8.49902344,11.6171875 8.359375,10.9433594 8.359375,10.0214844 L8.359375,10.0214844 L8.359375,9.37695312 C8.3671875,8.49414062 8.51660156,7.84277344 8.80761719,7.42285156 C9.09863281,7.00292969 9.53710938,6.79296875 10.1230469,6.79296875 C10.6621094,6.79296875 11.0634766,6.91699219 11.3271484,7.16503906 C11.5908203,7.41308594 11.7441406,7.8125 11.7871094,8.36328125 L11.7871094,8.36328125 L13.5449219,8.36328125 C13.4511719,7.41015625 13.1035156,6.66992188 12.5019531,6.14257812 C11.9003906,5.61523438 11.1074219,5.3515625 10.1230469,5.3515625 C9.41210938,5.3515625 8.78808594,5.51855469 8.25097656,5.85253906 C7.71386719,6.18652344 7.30078125,6.66601562 7.01171875,7.29101562 C6.72265625,7.91601562 6.578125,8.63867188 6.578125,9.45898438 L6.578125,9.45898438 L6.578125,9.98046875 C6.578125,11.265625 6.89160156,12.2763672 7.51855469,13.0126953 C8.14550781,13.7490234 9.00585938,14.1171875 10.0996094,14.1171875 Z" fill="#FFFFFF" fill-rule="nonzero"></path>
            </g>
        </g>
    </g>
</svg>