<?xml version="1.0" encoding="UTF-8"?>
<svg width="20px" height="20px" viewBox="0 0 20 20" version="1.1" xmlns="http://www.w3.org/2000/svg" xmlns:xlink="http://www.w3.org/1999/xlink">
    <title>D</title>
    <g id="页面-1" stroke="none" stroke-width="1" fill="none" fill-rule="evenodd">
        <g id="画板" transform="translate(-780.000000, -198.000000)">
            <g id="D" transform="translate(780.000000, 198.000000)">
                <rect id="矩形" fill="#5A6074" x="0" y="0" width="20" height="20" rx="10"></rect>
                <path d="M9.50488281,14 C10.2509766,13.9960938 10.9208984,13.8242188 11.5146484,13.484375 C12.1083984,13.1445312 12.5683594,12.6660156 12.8945312,12.0488281 C13.2207031,11.4316406 13.3837891,10.7265625 13.3837891,9.93359375 L13.3837891,9.93359375 L13.3837891,9.54101562 C13.3837891,8.74804688 13.2177734,8.04003906 12.8857422,7.41699219 C12.5537109,6.79394531 12.0917969,6.31347656 11.5,5.97558594 C10.9082031,5.63769531 10.2373047,5.46875 9.48730469,5.46875 L9.48730469,5.46875 L6.86230469,5.46875 L6.86230469,14 L9.50488281,14 Z M9.46972656,12.5878906 L8.62011719,12.5878906 L8.62011719,6.89257812 L9.48730469,6.89257812 C10.1787109,6.89257812 10.7041016,7.11621094 11.0634766,7.56347656 C11.4228516,8.01074219 11.6025391,8.66796875 11.6025391,9.53515625 L11.6025391,9.53515625 L11.6025391,9.98632812 C11.5947266,10.8222656 11.4091797,11.4648438 11.0458984,11.9140625 C10.6826172,12.3632812 10.1572266,12.5878906 9.46972656,12.5878906 L9.46972656,12.5878906 Z" fill="#FFFFFF" fill-rule="nonzero"></path>
            </g>
        </g>
    </g>
</svg>