<?xml version="1.0" encoding="UTF-8"?>
<svg width="20px" height="20px" viewBox="0 0 20 20" version="1.1" xmlns="http://www.w3.org/2000/svg" xmlns:xlink="http://www.w3.org/1999/xlink">
    <title>Q</title>
    <g id="页面-1" stroke="none" stroke-width="1" fill="none" fill-rule="evenodd">
        <g id="画板" transform="translate(-870.000000, -228.000000)">
            <g id="Q" transform="translate(870.000000, 228.000000)">
                <rect id="矩形" fill="#5A6074" x="0" y="0" width="20" height="20" rx="10"></rect>
                <path d="M12.4550781,15.5234375 L13.5742188,14.5332031 L12.15625,13.4199219 C12.6132812,13.0644531 12.9707031,12.5927734 13.2285156,12.0048828 C13.4863281,11.4169922 13.6152344,10.7246094 13.6152344,9.92773438 L13.6152344,9.92773438 L13.6152344,9.546875 C13.6152344,8.7109375 13.4638672,7.97363281 13.1611328,7.33496094 C12.8583984,6.69628906 12.4306641,6.20605469 11.8779297,5.86425781 C11.3251953,5.52246094 10.6933594,5.3515625 9.98242188,5.3515625 C9.27148438,5.3515625 8.63964844,5.52246094 8.08691406,5.86425781 C7.53417969,6.20605469 7.10644531,6.69628906 6.80371094,7.33496094 C6.50097656,7.97363281 6.34960938,8.71289062 6.34960938,9.55273438 L6.34960938,9.55273438 L6.34960938,9.97460938 C6.35351562,10.7949219 6.5078125,11.5205078 6.8125,12.1513672 C7.1171875,12.7822266 7.546875,13.2675781 8.1015625,13.6074219 C8.65625,13.9472656 9.28710938,14.1171875 9.99414062,14.1171875 C10.2167969,14.1171875 10.4316406,14.0996094 10.6386719,14.0644531 L10.6386719,14.0644531 L12.4550781,15.5234375 Z M9.99414062,12.6757812 C9.39257812,12.6757812 8.93164062,12.4355469 8.61132812,11.9550781 C8.29101562,11.4746094 8.13085938,10.7988281 8.13085938,9.92773438 L8.13085938,9.92773438 L8.13085938,9.51171875 C8.13476562,8.625 8.296875,7.95214844 8.6171875,7.49316406 C8.9375,7.03417969 9.39257812,6.8046875 9.98242188,6.8046875 C10.5761719,6.8046875 11.0332031,7.03710938 11.3535156,7.50195312 C11.6738281,7.96679688 11.8339844,8.64648438 11.8339844,9.54101562 L11.8339844,9.54101562 L11.8339844,9.95703125 C11.8300781,10.84375 11.6699219,11.5185547 11.3535156,11.9814453 C11.0371094,12.4443359 10.5839844,12.6757812 9.99414062,12.6757812 Z" fill="#FFFFFF" fill-rule="nonzero"></path>
            </g>
        </g>
    </g>
</svg>