<?xml version="1.0" encoding="UTF-8"?>
<svg width="20px" height="20px" viewBox="0 0 20 20" version="1.1" xmlns="http://www.w3.org/2000/svg" xmlns:xlink="http://www.w3.org/1999/xlink">
    <title>R</title>
    <g id="页面-1" stroke="none" stroke-width="1" fill="none" fill-rule="evenodd">
        <g id="画板" transform="translate(-900.000000, -228.000000)">
            <g id="R" transform="translate(900.000000, 228.000000)">
                <rect id="矩形" fill="#5A6074" x="0" y="0" width="20" height="20" rx="10"></rect>
                <path d="M8.69042969,14 L8.69042969,10.8769531 L10.0908203,10.8769531 L11.6904297,14 L13.5771484,14 L13.5771484,13.9179688 L11.7314453,10.4316406 C12.2431641,10.2011719 12.625,9.89160156 12.8769531,9.50292969 C13.1289062,9.11425781 13.2548828,8.62890625 13.2548828,8.046875 C13.2548828,7.2265625 12.9814453,6.59179688 12.4345703,6.14257812 C11.8876953,5.69335938 11.1103516,5.46875 10.1025391,5.46875 L10.1025391,5.46875 L6.93261719,5.46875 L6.93261719,14 L8.69042969,14 Z M10.1083984,9.453125 L8.69042969,9.453125 L8.69042969,6.89257812 L10.1025391,6.89257812 C10.5751953,6.89257812 10.9257812,7.0078125 11.1542969,7.23828125 C11.3828125,7.46875 11.4970703,7.78515625 11.4970703,8.1875 C11.4970703,8.58203125 11.3759766,8.89160156 11.1337891,9.11621094 C10.8916016,9.34082031 10.5498047,9.453125 10.1083984,9.453125 L10.1083984,9.453125 Z" fill="#FFFFFF" fill-rule="nonzero"></path>
            </g>
        </g>
    </g>
</svg>