<svg width="14" height="14" xmlns="http://www.w3.org/2000/svg"><path d="M10.501.939a7 7 0 11-7 12.124 7 7 0 017-12.124zM5.286 3.571H4.143C3.514 3.571 3 4.086 3 4.714v4.572c0 .628.514 1.143 1.143 1.143h5.714c.629 0 1.143-.515 1.143-1.143V4.714c0-.628-.514-1.143-1.143-1.143H8.714v.858c0 .16-.125.285-.285.285a.283.283 0 01-.286-.285V3.57H5.857v.858c0 .16-.126.285-.286.285a.283.283 0 01-.285-.285V3.57zm.285 4.572c.16 0 .286.126.286.286 0 .16-.126.285-.286.285H5a.283.283 0 01-.286-.285c0-.16.126-.286.286-.286h.571zm1.715 0c.16 0 .285.126.285.286 0 .16-.125.285-.285.285h-.572a.283.283 0 01-.285-.285c0-.16.125-.286.285-.286h.572zm1.714 0c.16 0 .286.126.286.286 0 .16-.126.285-.286.285h-.571a.283.283 0 01-.286-.285c0-.16.126-.286.286-.286H9zM5.571 7c.16 0 .286.126.286.286 0 .16-.126.285-.286.285H5a.283.283 0 01-.286-.285C4.714 7.126 4.84 7 5 7h.571zm1.715 0c.16 0 .285.126.285.286 0 .16-.125.285-.285.285h-.572a.283.283 0 01-.285-.285c0-.16.125-.286.285-.286h.572zM9 7c.16 0 .286.126.286.286 0 .16-.126.285-.286.285h-.571a.283.283 0 01-.286-.285c0-.16.126-.286.286-.286H9zm1.143-1.714c.16 0 .286.125.286.285 0 .16-.126.286-.286.286H3.857a.283.283 0 01-.286-.286c0-.16.126-.285.286-.285h6.286zM8.429 3a.283.283 0 00-.286.286v.285h.571v-.285A.283.283 0 008.43 3zM5.57 3a.283.283 0 00-.285.286v.285h.571v-.285A.283.283 0 005.571 3z" fill="#569ffd" fill-rule="nonzero"/></svg>