<?xml version="1.0" encoding="UTF-8"?>
<svg width="18px" height="18px" viewBox="0 0 18 18" version="1.1" xmlns="http://www.w3.org/2000/svg" xmlns:xlink="http://www.w3.org/1999/xlink">
    <title>完成</title>
    <g id="页面-1" stroke="none" stroke-width="1" fill="none" fill-rule="evenodd" fill-opacity="0.9">
        <g id="未结算备份-2" transform="translate(-312.000000, -1524.000000)" fill="#FFFFFF">
            <path d="M321,1524 C325.978125,1524 330,1528.03594 330,1533 C330,1537.97813 325.964063,1542 321,1542 C316.021875,1542 312,1537.96406 312,1533 C312,1528.02187 316.035937,1524 321,1524 Z M324.863833,1530.711 C324.487256,1530.33443 323.876705,1530.33443 323.500128,1530.711 L323.500128,1530.711 L320.089954,1534.11936 L318.499872,1532.52928 C318.123295,1532.1527 317.512744,1532.1527 317.136167,1532.52928 C316.75959,1532.90586 316.75959,1533.51641 317.136167,1533.89298 L317.136167,1533.89298 L319.40901,1536.16583 C319.785587,1536.5424 320.396139,1536.5424 320.772716,1536.16583 L320.772716,1536.16583 L324.863833,1532.07471 C325.24041,1531.69813 325.24041,1531.08758 324.863833,1530.711 Z" id="完成"></path>
        </g>
    </g>
</svg>