<!-- Generated by IcoMoon.io -->
<svg version="1.1" xmlns="http://www.w3.org/2000/svg" width="32" height="32" viewBox="0 0 32 32">
<title>1</title>
<path fill="#c1c4c7" d="M16 0.25c8.698 0 15.75 7.051 15.75 15.75s-7.052 15.75-15.75 15.75c-8.698 0-15.75-7.052-15.75-15.75s7.051-15.75 15.75-15.75zM12.625 10.286c-0.621 0-1.125 0.504-1.125 1.125v0 11.429c0 0.231 0.071 0.456 0.203 0.645 0.356 0.509 1.058 0.633 1.567 0.276v0l8.163-5.714c0.108-0.075 0.201-0.169 0.276-0.276 0.356-0.509 0.233-1.21-0.276-1.567v0l-8.163-5.714c-0.189-0.132-0.414-0.203-0.645-0.203z"></path>
</svg>
