<!-- Generated by IcoMoon.io -->
<svg version="1.1" xmlns="http://www.w3.org/2000/svg" width="32" height="32" viewBox="0 0 32 32">
<title>5</title>
<path fill="#c1c4c7" d="M23.878 2.363c7.533 4.349 10.114 13.982 5.765 21.515s-13.982 10.114-21.515 5.765c-7.533-4.349-10.114-13.982-5.765-21.515s13.982-10.114 21.515-5.765z"></path>
<path fill="#fff" d="M19.857 7.643c0-0.36-0.283-0.643-0.643-0.643s-0.643 0.283-0.643 0.643v0.643h1.286v-0.643zM13.429 7.643c0-0.36-0.283-0.643-0.643-0.643s-0.643 0.283-0.643 0.643v0.643h1.286v-0.643zM22.429 8.286h-2.571v1.929c0 0.36-0.283 0.643-0.643 0.643s-0.643-0.283-0.643-0.643v-1.929h-5.143v1.929c0 0.36-0.283 0.643-0.643 0.643s-0.643-0.283-0.643-0.643v-1.929h-2.571c-1.414 0-2.571 1.157-2.571 2.571v10.286c0 1.414 1.157 2.571 2.571 2.571h12.857c1.414 0 2.571-1.157 2.571-2.571v-10.286c0-1.414-1.157-2.571-2.571-2.571zM12.786 19.857h-1.286c-0.36 0-0.643-0.283-0.643-0.643s0.283-0.643 0.643-0.643h1.286c0.36 0 0.643 0.283 0.643 0.643s-0.283 0.643-0.643 0.643zM12.786 17.286h-1.286c-0.36 0-0.643-0.283-0.643-0.643s0.283-0.643 0.643-0.643h1.286c0.36 0 0.643 0.283 0.643 0.643s-0.283 0.643-0.643 0.643zM16.643 19.857h-1.286c-0.36 0-0.643-0.283-0.643-0.643s0.283-0.643 0.643-0.643h1.286c0.36 0 0.643 0.283 0.643 0.643s-0.283 0.643-0.643 0.643zM16.643 17.286h-1.286c-0.36 0-0.643-0.283-0.643-0.643s0.283-0.643 0.643-0.643h1.286c0.36 0 0.643 0.283 0.643 0.643s-0.283 0.643-0.643 0.643zM20.5 19.857h-1.286c-0.36 0-0.643-0.283-0.643-0.643s0.283-0.643 0.643-0.643h1.286c0.36 0 0.643 0.283 0.643 0.643s-0.283 0.643-0.643 0.643zM20.5 17.286h-1.286c-0.36 0-0.643-0.283-0.643-0.643s0.283-0.643 0.643-0.643h1.286c0.36 0 0.643 0.283 0.643 0.643s-0.283 0.643-0.643 0.643zM23.071 13.429h-14.143c-0.36 0-0.643-0.283-0.643-0.643s0.283-0.643 0.643-0.643h14.143c0.36 0 0.643 0.283 0.643 0.643s-0.283 0.643-0.643 0.643z"></path>
</svg>
