<?xml version="1.0" encoding="UTF-8"?>
<svg width="18px" height="18px" viewBox="0 0 18 18" version="1.1" xmlns="http://www.w3.org/2000/svg" xmlns:xlink="http://www.w3.org/1999/xlink">
    <title>确认中</title>
    <g id="页面-1" stroke="none" stroke-width="1" fill="none" fill-rule="evenodd">
        <g id="未结算备份-2" transform="translate(-312.000000, -1470.000000)" fill="#FFFFFF">
            <g id="确认中" transform="translate(312.000000, 1470.000000)">
                <path d="M9,0 C4.0359375,0 0,4.021875 0,9 C0,13.9640625 4.021875,18 9,18 C13.9640625,18 18,13.978125 18,9 C18,4.0359375 13.978125,0 9,0 Z M14.203125,14.1890625 C12.8109375,15.58125 10.96875,16.340625 9.0140625,16.340625 C7.0453125,16.340625 5.203125,15.58125 3.825,14.1890625 C2.41875,12.8109375 1.659375,10.96875 1.659375,9 C1.659375,7.03125 2.41875,5.1890625 3.8109375,3.8109375 C5.203125,2.41875 7.0453125,1.659375 9,1.659375 C10.96875,1.659375 12.8109375,2.41875 14.1890625,3.8109375 C15.58125,5.203125 16.340625,7.0453125 16.340625,9 C16.340625,10.9546875 15.58125,12.8109375 14.203125,14.1890625 Z" id="形状备份-2" fill-rule="nonzero" opacity="0.4"></path>
                <rect id="矩形" x="5" y="5" width="8" height="8" rx="4"></rect>
                <path d="M9,0 C13.8670094,0 17.8316983,3.86329292 17.9947813,8.69059318 L18,9 L16.328,9 L16.3243057,8.74702764 C16.1944739,4.90397121 13.109525,1.82490442 9.28796359,1.67699221 L9.02818783,1.67119087 L9,1.671 L9,0 Z" id="形状结合" fill-rule="nonzero"></path>
            </g>
        </g>
    </g>
</svg>