<?xml version="1.0" encoding="UTF-8"?>
<svg width="14px" height="12px" viewBox="0 0 14 12" version="1.1" xmlns="http://www.w3.org/2000/svg" xmlns:xlink="http://www.w3.org/1999/xlink">
    <title>设置</title>
    <g id="页面-1" stroke="none" stroke-width="1" fill="none" fill-rule="evenodd">
        <g id="未结算备份-2" transform="translate(-313.000000, -1194.000000)" fill="#FFB001" fill-rule="nonzero">
            <path d="M320,1204.5 L313,1204.5 L313,1203.5 L320,1203.5 L320,1203.999 L320.005513,1203.85131 C320.082231,1202.82004 320.95,1202 322,1202 C323.1,1202 324,1202.9 324,1204 C324,1205.1 323.1,1206 322,1206 C320.9,1206 320,1205.1 320,1204 L320,1204.5 Z M322,1203 C321.45,1203 321,1203.45 321,1204 C321,1204.55 321.45,1205 322,1205 C322.55,1205 323,1204.55 323,1204 C323,1203.45 322.55,1203 322,1203 Z M327,1203.5 L327,1204.5 L325,1204.5 L325,1203.5 L327,1203.5 Z M320,1195.5 L327,1195.5 L327,1196.5 L320,1196.5 L320,1196 L319.994487,1196.14869 C319.921422,1197.13085 319.130851,1197.92142 318.148695,1197.99449 L318,1198 C316.9,1198 316,1197.1 316,1196 C316,1194.9 316.9,1194 318,1194 C319.1,1194 320,1194.9 320,1196 L320,1195.999 L320,1195.5 Z M318,1195 C317.45,1195 317,1195.45 317,1196 C317,1196.55 317.45,1197 318,1197 C318.55,1197 319,1196.55 319,1196 C319,1195.45 318.55,1195 318,1195 Z M315,1195.5 L315,1196.5 L313,1196.5 L313,1195.5 L315,1195.5 Z" id="设置"></path>
        </g>
    </g>
</svg>