<?xml version="1.0" encoding="UTF-8"?>
<svg width="23px" height="8px" viewBox="0 0 23 8" version="1.1" xmlns="http://www.w3.org/2000/svg" xmlns:xlink="http://www.w3.org/1999/xlink">
    <title>LIVE@2x</title>
    <g id="页面-1" stroke="none" stroke-width="1" fill="none" fill-rule="evenodd">
        <g id="滚球备份-9" transform="translate(-1872.000000, -460.000000)" fill="#FF9124" fill-rule="nonzero">
            <g id="编组-9" transform="translate(1356.000000, 448.000000)">
                <path d="M521.073943,20 L521.337376,18.6966292 L517.786761,18.6966292 L519.149739,12 L517.637864,12 L516,20 L521.073943,20 Z M523.811353,20 L525.449217,12 L523.937342,12 L522.299478,20 L523.811353,20 Z M528.495873,20 L532.653529,12 L531.027118,12 L528.415698,17.3033708 L527.865926,12 L526.376958,12 L527.304699,20 L528.495873,20 Z M537.108978,20 L537.37241,18.6966292 L533.730167,18.6966292 L534.15395,16.6179775 L537.234967,16.6179775 L537.4984,15.3146067 L534.417383,15.3146067 L534.829712,13.3033708 L538.403234,13.3033708 L538.666667,12 L533.58127,12 L531.943406,20 L537.108978,20 Z" id="LIVE"></path>
            </g>
        </g>
    </g>
</svg>