<?xml version="1.0" standalone="no"?>
<!DOCTYPE svg PUBLIC "-//W3C//DTD SVG 20010904//EN"
 "http://www.w3.org/TR/2001/REC-SVG-20010904/DTD/svg10.dtd">
<svg version="1.0" xmlns="http://www.w3.org/2000/svg"
 width="1280.000000pt" height="640.000000pt" viewBox="0 0 1280.000000 640.000000"
 preserveAspectRatio="xMidYMid meet">
<metadata>
Created by potrace 1.15, written by Peter Selinger 2001-2017
</metadata>
<g transform="translate(0.000000,640.000000) scale(0.100000,-0.100000)"
fill="#000000" stroke="none">
<path d="M1635 6035 c-246 -40 -477 -144 -664 -299 l-54 -44 -296 -5 c-193 -2
-309 -8 -333 -16 -58 -18 -118 -70 -152 -131 l-31 -55 0 -835 0 -835 27 -50
c14 -28 46 -69 71 -92 75 -69 101 -73 479 -73 l329 0 94 -60 c238 -152 475
-220 760 -220 282 0 494 61 740 213 l100 62 4890 5 4890 5 45 21 c54 25 114
89 144 153 21 46 21 49 21 871 0 820 0 825 -21 871 -24 51 -79 111 -123 133
-16 8 -57 20 -92 25 -44 8 -1606 11 -4877 11 l-4813 0 -67 53 c-174 139 -346
223 -562 274 -135 31 -370 40 -505 18z"/>
<path d="M1729 3039 c-242 -21 -460 -98 -658 -233 l-80 -55 -338 -3 -338 -3
-57 -28 c-61 -30 -95 -64 -131 -131 l-22 -41 -3 -816 -3 -816 22 -58 c26 -71
88 -141 149 -169 42 -20 67 -21 360 -26 l316 -5 44 -36 c158 -129 359 -223
578 -271 142 -31 405 -31 552 1 191 41 391 133 554 256 l73 55 4869 2 4869 3
47 23 c56 28 112 88 142 151 21 46 21 49 21 871 l0 825 -28 57 c-31 64 -70
101 -137 132 l-45 21 -4900 5 -4900 5 -75 51 c-256 175 -579 260 -881 233z"/>
</g>
</svg>
