<svg width="22" height="22" viewBox="0 0 22 22" fill="none" xmlns="http://www.w3.org/2000/svg">
<path fill-rule="evenodd" clip-rule="evenodd" d="M10.5652 1V7.66667C8.91304 7.88453 7.6087 9.27887 7.6087 11.0218C7.6087 12.6625 8.82464 14.0596 10.3956 14.3501L10.5652 14.3769V21C6.96682 20.8727 3.86306 18.9691 2.21719 15.6512L2.08696 15.3791L2.28061 15.3744C4.33376 15.2742 5.97406 13.5898 5.99726 11.5122C5.99909 11.3488 6 11.1853 6 11.0218C6 10.7049 5.99658 10.3815 5.98973 10.0514C5.94566 7.92751 4.2113 6.22876 2.08696 6.22876C3.69565 3.17865 6.86957 1.17429 10.5652 1ZM11.4348 1C15.0278 1.16945 18.1276 3.06871 19.7754 5.97702L19.913 6.22876L19.7232 6.23331C17.7096 6.33011 16.088 7.95806 16.02 9.9939C16.0093 10.3135 16.0029 10.5921 16.0008 10.8296L16.0009 11.1763C16.002 11.2983 16.0043 11.4294 16.0078 11.5695C16.0604 13.6886 17.7933 15.3791 19.913 15.3791C18.3467 18.7732 15.2964 20.7628 11.7254 20.9456L11.4348 20.9564V14.3333C13.087 14.1155 14.3913 12.7211 14.3913 10.9782C14.3913 9.29539 13.1754 7.93753 11.6044 7.64979L11.4348 7.62309V1ZM1.69565 7.10022L1.87218 7.10498C3.50856 7.19346 4.8198 8.5047 4.90828 10.1411L4.91304 10.3176V11.2902C4.91304 13.0672 3.47257 14.5076 1.69565 14.5076C1.26087 13.6362 1 12.1111 1 10.8039C1 9.49673 1.26087 8.40741 1.69565 7.10022ZM20.3043 7.10022C20.7391 8.40741 21 9.49673 21 10.8039C21 12.0177 20.7751 13.4194 20.3948 14.3112L20.3043 14.5076L20.1278 14.5029C18.4914 14.4144 17.1802 13.1031 17.0917 11.4668L17.087 11.2902V10.3176C17.087 8.54069 18.5274 7.10022 20.3043 7.10022ZM11 8.49455C12.3913 8.49455 13.5217 9.62745 13.5217 11.0218C13.5217 12.4161 12.3913 13.549 11 13.549C9.6087 13.549 8.47826 12.4161 8.47826 11.0218C8.47826 9.62745 9.6087 8.49455 11 8.49455Z" fill="url(#paint0_linear_1469_21000)"/>
<defs>
<linearGradient id="paint0_linear_1469_21000" x1="1" y1="1" x2="1" y2="21" gradientUnits="userSpaceOnUse">
<stop stop-color="#62B6FF"/>
<stop offset="1" stop-color="#3D72FA"/>
</linearGradient>
</defs>
</svg>
