<svg width="14" height="14" viewBox="0 0 14 14" fill="none" xmlns="http://www.w3.org/2000/svg">
<g filter="url(#filter0_d_819_64150)">
<rect x="6" y="6" width="7" height="5" fill="#15171C"/>
<path d="M11.9412 13H2.05726C1.4621 12.9745 0.993541 12.4693 1.00007 11.8568V5.27126C1.01703 4.76066 1.35508 4.32108 1.83538 4.18572H2.73391L3.12416 2.64319C3.24684 2.16207 3.66059 1.82033 4.14481 1.79889C4.23356 1.79889 4.32362 1.81229 4.40846 1.83909L5.13153 2.01063L5.18765 1.66755C5.25682 1.40622 5.44216 1.19313 5.68884 1.09664C5.82327 1.03097 5.96945 0.997469 6.11824 1.00015C6.21874 1.00015 6.31924 1.01221 6.41582 1.03767L10.7647 2.23846C11.0492 2.30145 11.2933 2.49041 11.4329 2.75309C11.6078 3.00102 11.6496 3.324 11.5439 3.61079C11.5439 3.61079 11.4329 4.05633 11.4329 4.05633C11.8995 4.04669 12.3315 4.23933 12.3315 4.23933C12.7191 4.42427 12.9606 4.829 12.9436 5.26858L12.9997 6.6972H8.64246C7.73928 6.67575 6.9901 7.41151 6.97053 8.3389V8.41529C6.94964 9.33867 7.66619 10.1079 8.56937 10.128H12.9997V11.8421C13.0115 12.4599 12.5416 12.9745 11.9412 13Z" fill="url(#paint0_linear_819_64150)"/>
<path fill-rule="evenodd" clip-rule="evenodd" d="M5.85997 1.60889C5.99962 1.5593 6.14972 1.5392 6.2972 1.55126V1.54992H6.30373L10.6539 2.75071C10.7988 2.75607 10.928 2.84452 10.988 2.97988C11.0598 3.10049 11.0794 3.24523 11.0441 3.38059L10.8771 4.06675H10.4868V3.95284C10.5547 3.81614 10.5169 3.59234 10.2088 3.38193C10.0196 3.27204 9.81597 3.19431 9.60323 3.15276H9.5954L5.63678 2.12351L5.6929 1.78043C5.74903 1.66652 5.80384 1.60889 5.85997 1.60889ZM3.57195 2.75341C3.6607 2.51218 3.88258 2.35002 4.13318 2.34198C4.16972 2.34198 4.20496 2.346 4.24151 2.3527L9.42699 3.72369C9.60711 3.76658 9.77678 3.84431 9.92818 3.95286V4.1244H3.29395L3.57195 2.75341Z" fill="#15171C"/>
<path fill-rule="evenodd" clip-rule="evenodd" d="M8.6449 9.56537H12.0462V7.27637H8.6449C8.03016 7.27637 7.53027 7.78965 7.53027 8.42087C7.53027 9.05209 8.02885 9.56537 8.6449 9.56537ZM8.08887 8.41957C8.08887 8.10463 8.33685 7.84866 8.64487 7.84866C8.66445 7.84598 8.68534 7.84598 8.70491 7.84732C8.99597 7.86474 9.21785 8.12071 9.20088 8.41957C9.20088 8.73451 8.9529 8.99048 8.64487 8.99048C8.33816 8.99048 8.08887 8.73585 8.08887 8.41957Z" fill="url(#paint1_linear_819_64150)"/>
</g>
<defs>
<filter id="filter0_d_819_64150" x="1" y="1" width="12" height="13" filterUnits="userSpaceOnUse" color-interpolation-filters="sRGB">
<feFlood flood-opacity="0" result="BackgroundImageFix"/>
<feColorMatrix in="SourceAlpha" type="matrix" values="0 0 0 0 0 0 0 0 0 0 0 0 0 0 0 0 0 0 127 0" result="hardAlpha"/>
<feOffset dy="1"/>
<feColorMatrix type="matrix" values="0 0 0 0 0.216806 0 0 0 0 0.388369 0 0 0 0 0.929167 0 0 0 1 0"/>
<feBlend mode="normal" in2="BackgroundImageFix" result="effect1_dropShadow_819_64150"/>
<feBlend mode="normal" in="SourceGraphic" in2="effect1_dropShadow_819_64150" result="shape"/>
</filter>
<linearGradient id="paint0_linear_819_64150" x1="1" y1="1" x2="1" y2="13" gradientUnits="userSpaceOnUse">
<stop stop-color="#62B6FF"/>
<stop offset="1" stop-color="#3D72FA"/>
</linearGradient>
<linearGradient id="paint1_linear_819_64150" x1="7.53027" y1="7.27637" x2="7.53027" y2="9.56537" gradientUnits="userSpaceOnUse">
<stop stop-color="#62B6FF"/>
<stop offset="1" stop-color="#3D72FA"/>
</linearGradient>
</defs>
</svg>
