<svg width="14" height="14" viewBox="0 0 14 14" fill="none" xmlns="http://www.w3.org/2000/svg">
<g filter="url(#filter0_d_905_64123)">
<rect x="6" y="5" width="7" height="5" fill="#F5F5F5"/>
<path d="M11.9412 12H2.05726C1.4621 11.9745 0.993541 11.4693 1.00007 10.8568V4.27126C1.01703 3.76066 1.35508 3.32108 1.83538 3.18572H2.73391L3.12416 1.64319C3.24684 1.16207 3.66059 0.820331 4.14481 0.798888C4.23356 0.798888 4.32362 0.81229 4.40846 0.839093L5.13153 1.01063L5.18765 0.667552C5.25682 0.40622 5.44216 0.193133 5.68884 0.0966411C5.82327 0.0309729 5.96945 -0.00253122 6.11824 0.000149112C6.21874 0.000149112 6.31924 0.0122106 6.41582 0.0376738L10.7647 1.23846C11.0492 1.30145 11.2933 1.49041 11.4329 1.75309C11.6078 2.00102 11.6496 2.324 11.5439 2.61079C11.5439 2.61079 11.4329 3.05633 11.4329 3.05633C11.8995 3.04669 12.3315 3.23933 12.3315 3.23933C12.7191 3.42427 12.9606 3.829 12.9436 4.26858L12.9997 5.6972H8.64246C7.73928 5.67575 6.9901 6.41151 6.97053 7.3389V7.41529C6.94964 8.33867 7.66619 9.10792 8.56937 9.12802H12.9997V10.8421C13.0115 11.4599 12.5416 11.9745 11.9412 12Z" fill="url(#paint0_linear_905_64123)"/>
<path d="M4.13318 1.3418C3.88258 1.34984 3.6607 1.512 3.57195 1.75323L3.29395 3.12422H9.92818V2.95268C9.77678 2.84412 9.60711 2.76639 9.42699 2.72351L4.24151 1.35252C4.20496 1.34582 4.16972 1.3418 4.13318 1.3418Z" fill="#F5F5F5"/>
<path d="M6.29714 0.551262C6.14966 0.5392 5.99956 0.559303 5.8599 0.608889C5.80378 0.608889 5.74896 0.666516 5.69284 0.78043L5.63672 1.12351L9.59533 2.15276H9.60316C9.81591 2.19431 10.0195 2.27204 10.2088 2.38193C10.5168 2.59234 10.5546 2.81614 10.4868 2.95284V3.06675H10.877L11.0441 2.38059C11.0793 2.24523 11.0597 2.10049 10.988 1.97988C10.9279 1.84452 10.7987 1.75607 10.6538 1.75071L6.30367 0.549922H6.29714V0.551262Z" fill="#F5F5F5"/>
<path d="M12.0462 8.56537H8.6449C8.02885 8.56537 7.53027 8.05209 7.53027 7.42087C7.53027 6.78965 8.03016 6.27637 8.6449 6.27637H12.0462V8.56537Z" fill="url(#paint1_linear_905_64123)"/>
<path d="M8.64487 6.84792C8.33685 6.84792 8.08887 7.1039 8.08887 7.41883C8.08887 7.73511 8.33816 7.98975 8.64487 7.98975C8.9529 7.98975 9.20088 7.73377 9.20088 7.41883C9.21785 7.11998 8.99597 6.86401 8.70491 6.84658C8.68534 6.84524 8.66445 6.84524 8.64487 6.84792Z" fill="white"/>
</g>
<defs>
<filter id="filter0_d_905_64123" x="1" y="0" width="12" height="13" filterUnits="userSpaceOnUse" color-interpolation-filters="sRGB">
<feFlood flood-opacity="0" result="BackgroundImageFix"/>
<feColorMatrix in="SourceAlpha" type="matrix" values="0 0 0 0 0 0 0 0 0 0 0 0 0 0 0 0 0 0 127 0" result="hardAlpha"/>
<feOffset dy="1"/>
<feColorMatrix type="matrix" values="0 0 0 0 0.216806 0 0 0 0 0.388369 0 0 0 0 0.929167 0 0 0 1 0"/>
<feBlend mode="normal" in2="BackgroundImageFix" result="effect1_dropShadow_905_64123"/>
<feBlend mode="normal" in="SourceGraphic" in2="effect1_dropShadow_905_64123" result="shape"/>
</filter>
<linearGradient id="paint0_linear_905_64123" x1="1" y1="0" x2="1" y2="12" gradientUnits="userSpaceOnUse">
<stop stop-color="#62B6FF"/>
<stop offset="1" stop-color="#3D72FA"/>
</linearGradient>
<linearGradient id="paint1_linear_905_64123" x1="7.53027" y1="6.27637" x2="7.53027" y2="8.56537" gradientUnits="userSpaceOnUse">
<stop stop-color="#62B6FF"/>
<stop offset="1" stop-color="#3D72FA"/>
</linearGradient>
</defs>
</svg>
