<?xml version="1.0" encoding="UTF-8"?>
<svg width="14px" height="14px" viewBox="0 0 14 14" version="1.1" xmlns="http://www.w3.org/2000/svg" xmlns:xlink="http://www.w3.org/1999/xlink">
    <title>喇叭</title>
    <defs>
        <linearGradient x1="50%" y1="98.8040433%" x2="50%" y2="0%" id="linearGradient-1">
            <stop stop-color="#FFC855" offset="0%"></stop>
            <stop stop-color="#FF7300" offset="100%"></stop>
        </linearGradient>
        <path d="M7.8312109,2.13349998 C7.90921002,2.21369598 7.9527284,2.32029307 7.95272684,2.43114998 L7.95272684,4.72924998 C8.02086438,4.73010865 8.08750682,4.74896999 8.14564406,4.78384998 C8.96366963,5.27291248 9.46887988,6.09038748 9.46887988,6.98857498 C9.46887988,7.85878748 8.99468874,8.65429998 8.21807719,9.14858748 C8.13966494,9.19865807 8.04516741,9.21854312 7.95272684,9.20442498 L7.95272684,11.56885 C7.95272684,11.806975 7.75597522,12 7.51326181,12 C7.40027379,12 7.29162508,11.9573057 7.20987324,11.880775 L4.80659907,9.63089998 C4.6975996,9.52885864 4.55273823,9.47192715 4.40208946,9.47192498 L2.73244595,9.47192498 C2.32792361,9.47192498 2,9.15021248 2,8.75334998 L2,5.24664998 C2,4.84978748 2.32792361,4.52807498 2.73244595,4.52807498 L4.40208946,4.52807498 C4.55273823,4.52807282 4.6975996,4.47114132 4.80659907,4.36909998 L7.20987324,2.11922498 C7.38546562,1.95484998 7.663644,1.96122498 7.83119816,2.13349998 L7.8312109,2.13349998 Z" id="path-2"></path>
        <filter x="-6.7%" y="-5.0%" width="113.4%" height="120.0%" filterUnits="objectBoundingBox" id="filter-3">
            <feOffset dx="0" dy="1" in="SourceAlpha" result="shadowOffsetOuter1"></feOffset>
            <feColorMatrix values="0 0 0 0 1   0 0 0 0 0.588235294   0 0 0 0 0.250980392  0 0 0 1 0" type="matrix" in="shadowOffsetOuter1"></feColorMatrix>
        </filter>
        <linearGradient x1="50%" y1="98.8040433%" x2="50%" y2="0%" id="linearGradient-4">
            <stop stop-color="#FFC855" offset="0%"></stop>
            <stop stop-color="#FF7300" offset="100%"></stop>
        </linearGradient>
        <path d="M10.2804469,10.9020625 C10.3826252,10.7216875 10.6145106,10.656725 10.7983705,10.7569625 L11.6869566,11.2414625 L11.6952368,11.2460875 C11.872791,11.3485875 11.9354916,11.571925 11.8348547,11.7495875 C11.7326636,11.9299625 11.5007782,11.994925 11.3169183,11.894675 L10.428345,11.4102 L10.4200647,11.40555 C10.2425106,11.3030625 10.1798099,11.0797125 10.2804469,10.9020625 Z" id="path-5"></path>
        <linearGradient x1="50%" y1="98.8040433%" x2="50%" y2="0%" id="linearGradient-6">
            <stop stop-color="#FFC855" offset="0%"></stop>
            <stop stop-color="#FF7300" offset="100%"></stop>
        </linearGradient>
        <path d="M11.6189184,6.5451873 C11.8251732,6.54498748 11.9948802,6.70646248 11.9998866,6.90982498 C12.0049694,7.11613748 11.8386127,7.28742498 11.6283196,7.29241248 L10.5444978,7.31808748 L10.5354915,7.31821265 C10.3292494,7.31839998 10.1595424,7.15692498 10.154536,6.95356248 C10.1494405,6.74724998 10.3158099,6.57596248 10.5260902,6.57097498 L11.6099375,6.54529998 L11.6189184,6.5451873 Z" id="path-7"></path>
        <linearGradient x1="50%" y1="98.8040433%" x2="50%" y2="0%" id="linearGradient-8">
            <stop stop-color="#FFC855" offset="0%"></stop>
            <stop stop-color="#FF7300" offset="100%"></stop>
        </linearGradient>
        <path d="M11.5713515,2.22877498 C11.6719884,2.40643748 11.6092878,2.62977498 11.4317336,2.73227498 L11.4234534,2.73689998 L10.5348673,3.22139998 C10.3510074,3.32164998 10.119122,3.25667498 10.0169436,3.07629998 C9.91630669,2.89864998 9.97900734,2.67529998 10.1565615,2.57279998 L10.1648418,2.56817498 L11.0534151,2.08367498 C11.2372877,1.98342498 11.4691731,2.04839998 11.5713515,2.22877498 Z" id="path-9"></path>
    </defs>
    <g id="页面-1" stroke="none" stroke-width="1" fill="none" fill-rule="evenodd">
        <g id="首页黑版1" transform="translate(-85.000000, -277.000000)" fill-rule="nonzero">
            <g id="喇叭" transform="translate(85.000000, 277.000000)">
                <rect id="矩形" fill="#000000" opacity="0" x="0" y="0" width="14" height="14"></rect>
                <g id="路径">
                    <use fill="black" fill-opacity="1" filter="url(#filter-3)" xlink:href="#path-2"></use>
                    <use fill="#888888" xlink:href="#path-2"></use>
                    <use fill="url(#linearGradient-1)" xlink:href="#path-2"></use>
                </g>
                <g id="路径">
                    <use fill="#888888" xlink:href="#path-5"></use>
                    <use fill="url(#linearGradient-4)" xlink:href="#path-5"></use>
                </g>
                <path d="M7.95272684,5.55907498 L7.95272684,8.41801248 C8.42923645,8.05741248 8.70712183,7.54086248 8.70712183,6.98857498 C8.70712183,6.43574998 8.42847212,5.91903748 7.95272684,5.55907498 Z" id="路径" fill="#121315"></path>
                <g id="路径">
                    <use fill="#888888" xlink:href="#path-7"></use>
                    <use fill="url(#linearGradient-6)" xlink:href="#path-7"></use>
                </g>
                <g id="路径">
                    <use fill="#888888" xlink:href="#path-9"></use>
                    <use fill="url(#linearGradient-8)" xlink:href="#path-9"></use>
                </g>
            </g>
        </g>
    </g>
</svg>