<?xml version="1.0" encoding="UTF-8"?>
<svg width="27px" height="27px" viewBox="0 0 27 27" version="1.1" xmlns="http://www.w3.org/2000/svg" xmlns:xlink="http://www.w3.org/1999/xlink">
    <title>高尔夫</title>
    <g id="页面-1" stroke="none" stroke-width="1" fill="none" fill-rule="evenodd">
        <g id="12-PC-分类icon" transform="translate(-97.000000, -202.000000)" fill="#CBCED8" fill-rule="nonzero">
            <g id="高尔夫" transform="translate(97.000000, 202.000000)">
                <path d="M13.5,0 C20.9475,0 27,6.0525 27,13.5 C27,20.9475 20.9475,27 13.5,27 C6.0525,27 0,20.9475 0,13.5 C0,6.0525 6.0525,0 13.5,0 Z M19.4625,6.5025 C19.395,6.57 19.3725,6.615 19.3275,6.6825 L3.9375,15.3 C3.3525,15.6375 3.105,16.425 3.33,17.1675 C3.555,17.955 4.2075,18.54 4.545,18.4275 C5.13,18.2475 4.7925,16.875 4.2525,15.795 L19.215,7.4025 C19.1025,8.7075 18.81,11.9025 18.7425,12.7125 C18.6717857,12.8507143 18.5735204,13.044949 18.4565598,13.2776895 L18.2682043,13.6534903 C18.1014017,13.987075 17.9123062,14.3671417 17.7182139,14.7594824 L17.4840118,15.2339934 C16.8980453,16.4240529 16.329375,17.6014286 16.245,17.8425 C16.0425,18.3825 16.11,19.035 16.5375,19.5075 C17.1225,20.1825 18.18,20.295 18.8325,19.6875 C19.1025,19.44 19.26,19.17 19.35,18.855 C19.5075,18.2925 20.5875,13.8375 20.6325,13.095 C20.7225,12.285 20.7225,10.8675 20.655,9.4725 C21.105,10.3275 21.6,11.25 21.915,11.8575 C21.735,11.9925 21.5325,12.15 21.3075,12.3075 C21.3075,12.555 21.285,12.8475 21.24,13.185 C21.15,13.8825 20.9475,14.9625 20.7,16.065 C20.97,15.778125 21.279375,15.4490625 21.5964844,15.1119141 L22.0739941,14.6043896 C22.8663281,13.7626172 23.608125,12.976875 23.805,12.78 C24.03,12.555 24.1425,12.24 24.0525,11.925 C24.03,11.79 23.9625,11.6775 23.895,11.565 C23.49,10.9125 20.88,7.0425 20.3175,6.48 C20.115,6.255 19.71,6.2775 19.4625,6.5025 Z M14.1975,12.06 C13.0275,12.285 12.24,13.4325 12.4875,14.6025 C12.7125,15.7725 13.86,16.56 15.03,16.3125 C16.2,16.0875 16.9875,14.94 16.74,13.77 C16.515,12.6 15.3675,11.8125 14.1975,12.06 Z" id="形状结合"></path>
            </g>
        </g>
    </g>
</svg>