<?xml version="1.0" encoding="UTF-8"?>
<svg width="22px" height="22px" viewBox="0 0 22 22" version="1.1" xmlns="http://www.w3.org/2000/svg" xmlns:xlink="http://www.w3.org/1999/xlink">
    <title>乒乓球备份@2x</title>
    <g id="控件" stroke="none" stroke-width="1" fill="none" fill-rule="evenodd">
        <g id="乒" fill="#CBCED8">
            <path d="M18.2474431,12.54775 C17.4774431,13.31775 16.2304431,13.31775 15.4624431,12.54775 C14.6924431,11.77875 14.6924431,10.53175 15.4624431,9.76275 C16.2304431,8.99375 17.4774431,8.99375 18.2474431,9.76275 C19.0174431,10.53175 19.0174431,11.77875 18.2474431,12.54775 M7.46444314,17.49275 C7.28144314,17.30975 7.02744314,17.21475 6.77044314,17.23075 C6.51244314,17.24675 6.27344314,17.37375 6.11544314,17.57675 L3.64044314,20.77075 C3.58444314,20.84175 3.51544314,20.85575 3.51944314,20.86475 L1.14944314,18.50275 C1.14544314,18.48475 1.15844314,18.41575 1.22944314,18.35975 L4.42244314,15.88475 C4.62644314,15.72675 4.75344314,15.48775 4.76944314,15.23075 C4.78644314,14.97275 4.69044314,14.71875 4.50844314,14.53575 C3.17344314,13.20075 2.48844314,11.39175 2.58144314,9.53875 L12.4614431,19.41875 C10.6054431,19.50975 8.79844314,18.82675 7.46444314,17.49275 M19.1174431,2.88375 C15.2734431,-0.96125 9.01844314,-0.96125 5.17444314,2.88375 L3.69544314,4.36175 C2.89944314,5.15775 2.29244314,6.11375 1.90644314,7.16475 L1.90544314,7.16375 L1.89644314,7.19575 C1.77944314,7.51975 1.68144314,7.85075 1.60644314,8.19075 L1.53944314,8.49675 L1.55144314,8.50875 C1.08244314,10.91075 1.83644314,13.35975 3.50144314,15.14675 L0.525443145,17.45275 C0.217443145,17.69375 0.0254431446,18.04575 0.00244314463,18.42075 C-0.0185568554,18.75475 0.0964431446,19.06475 0.323443145,19.29175 L2.70844314,21.67675 C2.91844314,21.88675 3.19744314,21.99975 3.50144314,21.99975 C3.52744314,21.99975 3.55344314,21.99975 3.57944314,21.99775 C3.95444314,21.97475 4.30744314,21.78275 4.54744314,21.47475 L6.85444314,18.49875 C8.64044314,20.16375 11.0884431,20.91875 13.4914431,20.44875 L13.5034431,20.46075 L13.8104431,20.39375 C14.1194431,20.32575 14.4214431,20.23575 14.7164431,20.13275 L14.7814431,20.11375 L14.7794431,20.11175 C15.8514431,19.72775 16.8284431,19.11475 17.6384431,18.30475 L19.1174431,16.82575 C22.9614431,12.98275 22.9614431,6.72775 19.1174431,2.88375" id="乒乓球备份"></path>
        </g>
    </g>
</svg>