<?xml version="1.0" encoding="UTF-8"?>
<svg width="22px" height="22px" viewBox="0 0 22 22" version="1.1" xmlns="http://www.w3.org/2000/svg" xmlns:xlink="http://www.w3.org/1999/xlink">
    <title>羽</title>
    <g id="羽" stroke="none" stroke-width="1" fill="none" fill-rule="evenodd">
        <path d="M1.6192732,14.3398693 C1.99094278,13.9677406 2.59288591,13.9677406 2.9645555,14.3398693 L2.9645555,14.3398693 L7.65024705,19.031349 C8.02191664,19.4034777 8.02191664,20.0067423 7.65024705,20.3782932 L7.65024705,20.3782932 L7.28030885,20.7492662 C5.61472124,22.4169113 2.91434548,22.4169113 1.24875786,20.7492662 C-0.416252621,19.0816211 -0.416252621,16.3779096 1.24875786,14.7108423 L1.24875786,14.7108423 Z M17.9845083,11.4653484 C20.1429621,10.9412479 21.3895558,11.8097408 21.9516772,12.3922031 C22.0342063,12.4777234 22.0070813,12.6175606 21.9003129,12.6689883 L21.9003129,12.6689883 L9.21910823,18.7605734 C8.92939064,18.8830754 8.61312521,18.833959 8.41517076,18.6363379 L8.41517076,18.6363379 L7.77340589,17.9926246 C9.11868819,16.9080196 15.1184972,12.1662678 17.9845083,11.4653484 Z M14.6354999,7.78375893 C16.8984136,7.22961075 18.1571269,8.21193807 18.6782723,8.79035552 C18.7475275,8.86778602 18.7365621,8.9856653 18.6528787,9.04807198 L18.6528787,9.04807198 L7.59109157,17.2424154 C7.46066094,17.3435373 7.31233938,17.4573717 7.2932942,17.4712399 C7.2475363,17.4555557 7.14259346,17.358797 7.01674451,17.2350837 L6.85814068,17.0771533 L6.20425614,16.422461 C6.23657524,16.3248061 6.30236768,16.1722565 6.44491797,15.9590336 C6.78253708,15.4840495 7.29156282,14.7848636 7.91716814,13.9787773 C7.94717873,13.9389064 7.98007495,13.8978798 8.01181692,13.8585867 C8.13647628,13.6973694 8.26632979,13.5326851 8.39964605,13.3656895 C8.47467252,13.2715016 8.55258462,13.1755803 8.63049673,13.0802367 C8.72456838,12.9635131 8.81979428,12.8467895 8.91732869,12.7294881 C9.02236575,12.6023634 9.12855706,12.474083 9.23705687,12.3469583 C9.31035196,12.2597045 9.38364705,12.1730286 9.45809639,12.0857748 C9.58621852,11.93727 9.71607202,11.7876095 9.84707978,11.6391048 L9.84707978,11.6391048 L10.0196407,11.4455285 C10.1656537,11.2819999 10.3133981,11.119627 10.4622968,10.9595654 C10.5050042,10.9133382 10.5482887,10.8682667 10.5909961,10.8226174 C10.7543229,10.6498434 10.9176498,10.4793807 11.0821309,10.3135407 C11.1081016,10.2875379 11.1340723,10.2626908 11.160043,10.236688 C12.1307701,9.26765103 13.1165024,8.44769663 13.9908494,8.02818508 C13.9943121,8.02645156 13.998352,8.02356236 14.0023919,8.02182884 C14.1322454,7.96 14.2569048,7.91723987 14.3815641,7.8739019 C14.4658246,7.84500992 14.554125,7.80340547 14.6354999,7.78375893 Z M12.8989834,3.29354071 C12.9613131,3.20975397 13.0802012,3.19819718 13.156959,3.26927145 C13.7219661,3.79163845 14.6765336,5.04439471 14.1715477,7.26329879 C14.0024496,7.32281627 13.8293116,7.4019803 13.6527109,7.49038976 L13.6527109,7.49038976 L13.6163519,7.50830279 C13.4414825,7.5990236 13.2631503,7.69898986 13.0819326,7.81455778 C13.0767384,7.81802481 13.0715443,7.82149185 13.065773,7.82495889 C12.8989834,7.93185922 12.7298853,8.04916066 12.5596329,8.17455185 L12.5596329,8.17455185 L12.4719097,8.23869205 C12.3062743,8.36292756 12.1400618,8.49467499 11.9726951,8.63393433 C11.9271021,8.67207175 11.8809319,8.71136484 11.8353389,8.75065793 C11.6974056,8.86738153 11.5600495,8.98815001 11.4221162,9.11354121 L11.4221162,9.11354121 L11.3043824,9.21928585 C11.1468268,9.36432359 10.9904255,9.51571757 10.833447,9.66942291 C10.7740029,9.72778471 10.7139818,9.78730218 10.6539606,9.84681966 C10.5004449,10.0011028 10.3469292,10.1565417 10.1951449,10.3166033 C10.1518604,10.3622526 10.1079988,10.4090576 10.0647143,10.4552848 C9.93139799,10.5974333 9.79865885,10.7407375 9.66765109,10.8851974 L9.66765109,10.8851974 L9.54126035,11.0250346 C9.37504786,11.2099433 9.21229814,11.3954298 9.05070267,11.5814942 C9.03165749,11.6040299 9.01261231,11.6265656 8.99299,11.6491014 C7.46475854,13.4259582 6.19334845,15.2033928 5.69817375,15.9152912 L5.69817375,15.9152912 L4.88269375,15.0988038 L4.88269375,15.0988038 L4.72498505,14.9408194 C4.60149172,14.8167355 4.505088,14.7180901 4.4902476,14.6937383 C4.49313324,14.6816036 4.50236726,14.6642684 4.51448692,14.6440441 C5.14470926,13.8633828 6.96900671,11.5624254 8.56187636,9.16323541 L8.56187636,9.16323541 Z M9.34065111,0.10022571 C9.39259251,-0.00725245613 9.5328343,-0.0344109175 9.61767192,0.0487979855 C10.1976842,0.617392156 11.0662599,1.87477113 10.5445374,4.01624471 C10.242123,5.2533993 9.18944392,7.07417189 8.00344858,8.85276219 L8.00344858,8.85276219 L4.2146119,13.9787773 C4.14651095,14.0677646 4.08822115,14.1480843 4.03916539,14.2226256 C4.03570263,14.2278262 4.02935423,14.2353381 4.02473722,14.2405387 L4.02473722,14.2405387 L3.38239522,13.5974032 C3.18559502,13.399782 3.13653925,13.0837038 3.25138746,12.8069186 L3.25138746,12.8069186 Z" id="形状结合备份" fill="#CBCED8"></path>
    </g>
</svg>