<?xml version="1.0" encoding="UTF-8"?>
<svg width="22px" height="22px" viewBox="0 0 22 22" version="1.1" xmlns="http://www.w3.org/2000/svg" xmlns:xlink="http://www.w3.org/1999/xlink">
    <title>排球备份@2x</title>
    <g id="控件" stroke="none" stroke-width="1" fill="none" fill-rule="evenodd">
        <g id="排" fill="#CBCED8">
            <path d="M2.74386351,17.8536609 L2.79327777,17.8582 L4.42427777,18.2492 L4.80227777,18.3402 L8.53727777,19.2382 C8.56027777,19.2442 8.58027777,19.2522 8.59827777,19.2672 C9.44527777,19.9422 10.9232778,20.8882 12.2852778,21.6222 C12.4262778,21.6992 12.3872778,21.9142 12.2282778,21.9322 C8.70727777,22.3242 5.07427777,21.0112 2.62627777,18.1252 C2.52327777,18.0052 2.64027777,17.8212 2.79327777,17.8582 Z M10.4463778,16.2106 C10.4953778,16.1206 10.6113778,16.0986 10.6913778,16.1606 C12.7933778,17.8146 15.7273778,18.9886 18.2813778,19.2326 C18.1473778,19.3526 18.0203778,19.4776 17.8783778,19.5916 C16.7283778,20.5136 15.4483778,21.1636 14.1183778,21.5566 C14.0793778,21.5676 14.0383778,21.5656 14.0013778,21.5496 C12.6403778,20.9436 10.5583778,19.7106 9.36037777,18.8126 C9.29937777,18.7666 9.28037777,18.6866 9.31037777,18.6156 L9.31037777,18.6156 L9.57237777,18.0066 C9.83637777,17.3906 10.1283778,16.7916 10.4463778,16.2106 Z M12.4784778,13.1724 C12.5314778,13.1064 12.6234778,13.0904 12.6944778,13.1364 C14.4694778,14.2824 17.8304778,15.2494 20.7644778,15.2494 C20.8974778,15.2494 21.0264778,15.2404 21.1574778,15.2374 C20.6804778,16.3804 19.9964778,17.4484 19.1304778,18.3984 C19.0964778,18.4354 19.0484778,18.4564 18.9974778,18.4554342 C16.4604778,18.3844 13.2274778,17.1454 11.0834778,15.4134 C11.0174778,15.3604 11.0024778,15.2634 11.0474778,15.1914 C11.4844778,14.4904 11.9614778,13.8164 12.4784778,13.1724 Z M12.9551778,5.2995 C13.0251778,5.2525 13.1221778,5.2655 13.1771778,5.3275 C14.2671778,6.5495 15.0551778,7.8385 15.3511778,8.9645 C15.3681778,9.0255 15.3471778,9.0885 15.3011778,9.1315 L15.3011778,9.1315 L14.1121778,10.2195 C12.5291778,11.6685 11.1941778,13.3205 10.1121778,15.1435 C10.0431778,15.2595 9.97117777,15.3735 9.90417777,15.4915 C9.50317777,16.1955 9.13817777,16.9245 8.81417777,17.6795 L8.81417777,17.6795 L8.56817777,18.2525 C8.53617777,18.3265 8.45517777,18.3665 8.37717777,18.3485 L8.37717777,18.3485 L5.48417777,17.6535 C5.40117777,17.6325 5.34517777,17.5515 5.35717777,17.4655 C6.06317777,12.4875 8.80017777,8.1085 12.9551778,5.2995 Z M9.97027777,2.7038 C10.0272778,2.6668 10.1002778,2.6678 10.1572778,2.7058 C10.9472778,3.2348 11.6882778,3.8358 12.3532778,4.4748 C12.4282778,4.5458 12.4162778,4.6668 12.3312778,4.7248 C8.10127777,7.6488 5.30827777,12.1428 4.55627777,17.2458 C4.54227777,17.3418 4.45127777,17.4048 4.35727777,17.3828 L4.35727777,17.3828 L2.05327777,16.8278 C1.62827777,16.7258 1.34827777,16.3088 1.43127777,15.8798 C2.60627777,9.8208 6.38727777,5.0478 9.97027777,2.7038 Z M6.42143333,0.970062963 L6.46187777,0.9761 C7.34087777,1.2121 8.21587777,1.5751 9.05487777,2.0361 C9.16287777,2.0941 9.17087777,2.2451 9.07087777,2.3151 C5.71887777,4.6821 2.29587777,9.0271 0.892877773,14.4951 C0.851877773,14.6531 0.632877773,14.6681 0.579877773,14.5131 C-0.864122227,10.2391 0.413877773,5.3331 4.13287777,2.3511 C4.82687777,1.7951 5.57087777,1.3481 6.34187777,0.9871 C6.37987777,0.9691 6.42187777,0.9651 6.46187777,0.9761 Z M15.9656496,9.71503438 L16.0094778,9.7258 C17.0504778,10.1378 18.2114778,10.4188 19.3684778,10.5548 C19.6454778,10.5878 19.9224778,10.6138 20.1964778,10.6298 C20.4474778,10.6438 20.6954778,10.6528 20.9414778,10.6528 C21.2404778,10.6528 21.5334778,10.6388 21.8194778,10.6168 C21.9144778,10.6088 21.9964778,10.6828 21.9984778,10.7788 C22.0194778,11.9648 21.8544778,13.1478 21.5004778,14.2828 C21.4784778,14.3508 21.4174778,14.3998 21.3454778,14.4038 C18.5384778,14.5418 15.0674778,13.6208 13.2734778,12.5228 C13.1854778,12.4698 13.1714778,12.3458 13.2404778,12.2678 C13.6914778,11.7688 14.1674778,11.2888 14.6694778,10.8298 L14.6694778,10.8298 L15.8414778,9.7568 C15.8874778,9.7148 15.9524778,9.7028 16.0094778,9.7258 Z M12.7787778,0.0898 C15.3757778,0.5128 17.8307778,1.8568 19.6027778,4.0798 C20.9177778,5.7288 21.6747778,7.6408 21.9167778,9.5928 C21.9287778,9.6878 21.8587778,9.7768 21.7627778,9.7838 C21.2847778,9.8188 20.7827778,9.8238 20.2687778,9.7958 C20.1927778,9.7908 20.1297778,9.7358 20.1157778,9.6598 C19.5627778,6.6098 16.2517778,2.5698 12.6637778,0.3938 C12.5087778,0.3008 12.5997778,0.0598 12.7787778,0.0898 Z M9.88847777,9.05941988e-14 L10.0024778,0.038 C14.2474778,1.467 18.4004778,6.251 19.2174778,9.463 C19.2474778,9.578 19.1444778,9.684 19.0274778,9.667 C18.0614778,9.521 17.1054778,9.272 16.2524778,8.929 C16.2034778,8.91 16.1694778,8.869 16.1564778,8.818 C15.8394778,7.556 14.9834778,6.118 13.7784778,4.763 C13.5934778,4.555 13.4024778,4.351 13.2024778,4.148 C12.4984778,3.435 11.7024778,2.763 10.8454778,2.169 C10.5924778,1.993 10.3354778,1.826 10.0724778,1.666 C9.42847777,1.272 8.75647777,0.933 8.06947777,0.653 C7.92347777,0.594 7.93047777,0.383 8.08247777,0.341 C8.67647777,0.176 9.28047777,0.061 9.88847777,9.05941988e-14 L9.88847777,9.05941988e-14 Z" id="排球备份"></path>
        </g>
    </g>
</svg>