<?xml version="1.0" encoding="UTF-8"?>
<svg width="22px" height="22px" viewBox="0 0 22 22" version="1.1" xmlns="http://www.w3.org/2000/svg" xmlns:xlink="http://www.w3.org/1999/xlink">
    <title>斯诺克备份@2x</title>
    <g id="控件" stroke="none" stroke-width="1" fill="none" fill-rule="evenodd">
        <g id="斯诺克" fill="#CBCED8">
            <path d="M2.40824192,4.13174039 C6.20224192,-0.613259612 13.1242419,-1.38525961 17.8692419,2.40874039 C22.6142419,6.20174039 23.3852419,13.1237404 19.5922419,17.8687404 C15.7982419,22.6137404 8.87724192,23.3847404 4.13224192,19.5917404 C-0.613758076,15.7987404 -1.38475808,8.87674039 2.40824192,4.13174039 Z M11.0042419,5.33074039 C9.34024192,5.33074039 7.69224192,6.05974039 6.57224192,7.45974039 C4.61724192,9.90574039 5.01524192,13.4737404 7.46024192,15.4287404 C8.50524192,16.2637404 9.75524192,16.6697404 10.9962419,16.6697404 C12.6602419,16.6697404 14.3082419,15.9397404 15.4282419,14.5397404 C17.3832419,12.0947404 16.9862419,8.52674039 14.5402419,6.57174039 C13.4952419,5.73674039 12.2452419,5.33074039 11.0042419,5.33074039 Z M11.0017419,7.60894039 C11.4767419,7.60894039 11.9537419,7.73894039 12.3537419,8.00694039 C13.2887419,8.63194039 13.4407419,9.77194039 12.6937419,10.5529404 C12.6037419,10.6469404 12.5017419,10.7249404 12.3967419,10.7999404 C12.4257419,10.8169404 12.4567419,10.8309404 12.4857419,10.8489404 C13.5117419,11.5349404 13.6777419,12.7859404 12.8577419,13.6439404 C12.3877419,14.1349404 11.6967419,14.3899404 10.9987419,14.3899404 C10.4777419,14.3899404 9.95374192,14.2489404 9.51574192,13.9549404 C8.48974192,13.2689404 8.32274192,12.0179404 9.14274192,11.1609404 C9.27874192,11.0189404 9.43574192,10.9029404 9.60274192,10.8019404 C8.71074192,10.1699404 8.57274192,9.05794039 9.30674192,8.28994039 C9.73574192,7.84294039 10.3657419,7.60894039 11.0017419,7.60894039 Z M11.0017419,11.2389404 C10.5057419,11.2389404 10.0337419,11.4229404 9.73974192,11.7309404 C9.52174192,11.9589404 9.42274192,12.2219404 9.45174192,12.4939404 C9.48474192,12.7909404 9.66974192,13.0659404 9.97374192,13.2689404 C10.2597419,13.4609404 10.6237419,13.5659404 10.9987419,13.5659404 C11.4947419,13.5659404 11.9667419,13.3819404 12.2617419,13.0739404 C12.4787419,12.8459404 12.5777419,12.5829404 12.5487419,12.3109404 C12.5157419,12.0129404 12.3307419,11.7379404 12.0267419,11.5349404 C11.7407419,11.3449404 11.3767419,11.2389404 11.0017419,11.2389404 Z M11.0017419,8.43394039 C10.5687419,8.43394039 10.1587419,8.59394039 9.90374192,8.85994039 C9.72074192,9.05194039 9.63674192,9.27194039 9.66174192,9.49694039 C9.68874192,9.74694039 9.84674192,9.97794039 10.1057419,10.1509404 C10.3537419,10.3179404 10.6717419,10.4089404 10.9987419,10.4089404 C11.4317419,10.4089404 11.8427419,10.2499404 12.0967419,9.98294039 C12.2807419,9.79194039 12.3637419,9.57194039 12.3387419,9.34594039 C12.3117419,9.09694039 12.1547419,8.86494039 11.8957419,8.69194039 C11.6467419,8.52594039 11.3297419,8.43394039 11.0017419,8.43394039 Z" id="斯诺克备份"></path>
        </g>
    </g>
</svg>