<?xml version="1.0" encoding="UTF-8"?>
<svg width="22px" height="22px" viewBox="0 0 22 22" version="1.1" xmlns="http://www.w3.org/2000/svg" xmlns:xlink="http://www.w3.org/1999/xlink">
    <title>田径未选中</title>
    <g id="田径未选中" stroke="none" stroke-width="1" fill="none" fill-rule="evenodd">
        <path d="M4.54327393,18.428833 C4.81634521,18.5005697 5.33525391,18.586263 6.1,18.6859131 C5.92741699,18.8240967 5.92741699,18.9559937 6.1,19.081604 C6.35887451,19.2700195 6.99810791,19.4447021 7.48504639,19.276062 C7.58288574,19.5982361 7.37307739,20.3072815 7.13543701,20.3510132 C6.90951538,20.4536133 5.18903562,20.0132337 4.2875061,19.5858765 C3.94475445,19.4233999 3.76111818,19.1846583 3.79534912,19.081604 C3.83477783,18.5993042 4.13366699,18.321228 4.54327393,18.428833 Z M20.0871251,16.6985306 C20.2250366,17.0335999 18.5563354,19.8871155 18.2570009,19.7674445 C17.7724915,19.7674445 17.6424518,19.1979616 17.8195496,18.8132629 C17.9376147,18.5567972 18.099602,18.0847513 18.3055115,17.3971252 C18.6332499,17.4638163 18.8805135,17.3030396 19.0473022,16.9147949 C19.1478923,16.6806451 19.0982528,16.2740784 19.0041199,16.2088013 C19.0041199,16.0652771 19.9162292,16.3640747 20.0871251,16.6985306 Z M11.9403945,11.999953 L11.8989397,12.0470463 C11.1346118,12.874314 10.2556747,13.6701395 9.26200627,14.4344303 L8.86925607,14.7292508 L8.86925607,14.7292508 L8.94765625,14.8145142 C9.07165585,14.9457034 9.28051002,15.1540368 9.57421875,15.4395142 C9.2330485,15.6059977 9.02789714,15.8096313 8.95876465,16.050415 C8.7451416,16.7724609 8.37160645,17.5137634 7.59133301,18.6948242 C7.44994507,18.9141541 7.4402771,18.981781 7.35852051,19.1331787 C6.99182492,19.1331787 6.59276779,19.0920568 6.35070801,18.9862671 C6.22920736,18.9331665 6.16845703,18.8630371 6.16845703,18.7758789 C6.96827799,16.6817424 7.44256999,15.5107625 7.59133301,15.2629395 C7.74009603,15.0151164 8.03486735,14.6798706 8.47564697,14.2572021 C8.66632022,14.4975542 8.82365665,14.6833249 8.94765625,14.8145142 L9.08846898,14.5638259 C8.73239624,14.1533225 8.45437142,13.7559486 8.25439453,13.3717041 C8.58120117,13.0966537 9.07580859,12.6987885 9.7382168,12.1781087 L9.96523437,12 L11.9403945,11.999953 Z M15.1134033,14.5852051 C15.2313477,14.7091064 15.0540649,14.7465098 15.9458618,14.9211426 C16.8376587,15.0957754 17.7446735,15.5088294 18.7809753,16.2498169 C18.905843,16.3627625 18.905843,16.635877 18.7809753,16.9002202 C18.7094717,17.0515924 18.5614929,17.2142029 18.3898926,17.2142029 C18.1790771,17.1750488 18.3651855,17.0994202 17.3827637,16.9002202 C16.7278158,16.7674202 15.7350586,16.4650869 14.4044922,15.9932202 L14.4044922,15.9932202 L13.5140381,15.2842407 C13.9524915,15.1638608 14.2493095,15.0701515 14.4044922,15.0031128 C14.7781516,14.8416925 14.9234009,14.7465098 15.1134033,14.5852051 Z M10.799299,5.2 C11.2018868,5.30611979 11.624657,5.44462891 12.0676095,5.61552734 C12.0337154,5.61552734 11.9998128,5.61635167 11.9660001,5.61803172 L11.9411621,5.6 C13.9414063,7.01521727 15.0282796,7.89351317 15.2017822,8.2348877 C15.2300537,9.03548584 14.7818604,10.1385742 13.7607422,11.969751 L13.7482864,11.999 L13.7582031,12 C14.7476237,13.2073568 15.242334,13.950765 15.242334,14.2302246 C14.3353651,14.7921007 13.5401324,15.0964502 12.8566359,15.1432732 L12.672998,15.1496582 L12.1522561,14.5598145 L10.197937,15.6676025 C9.88673558,15.3935684 9.60673689,15.1247833 9.35794093,14.8612472 L9.50658217,14.7509478 C10.500018,13.9867799 11.3819827,13.1905111 12.1523604,12.3620536 C12.0255806,12.209775 11.9290246,12.022712 11.9193933,11.8226161 L9.97967529,11.8222656 C9.19097393,10.4579176 8.80790665,9.45090868 8.65363262,8.66349615 C7.82736334,9.35619709 7.26546865,9.70119629 6.96785318,9.70119629 C6.59542797,9.70119629 6.18425442,9.28309177 5.89381754,8.89217529 C5.8026101,8.76941371 5.60260163,8.32015391 5.53151285,8.23116455 C5.35408365,8.00905762 5.20222818,8.00905762 5.03633463,7.62441406 C4.98788846,7.51208596 4.98788846,7.30021259 5.03633463,6.98879395 C5.1212558,6.85901195 5.18806895,6.77110098 5.23677408,6.72506104 C5.56752256,6.41241146 5.77583658,6.2897583 5.77583658,6.2897583 L5.77583658,6.2897583 L5.82121138,6.3043116 C5.92201292,6.33905856 6.1725841,6.43875626 6.38649332,6.63240967 C6.44598711,6.68626978 6.47479135,6.81194799 6.54902994,6.90004883 C6.57353313,6.92912739 6.62478232,6.9587091 6.7027775,6.98879395 C6.73811437,7.18857154 6.73811437,7.31652158 6.7027775,7.37264404 C6.56152346,7.59698554 6.32096798,7.66251615 6.38649332,7.79158936 C6.47660692,7.96909703 6.69893765,8.0828869 7.05348551,8.13295898 C7.10829508,8.05035807 7.13569986,8.00905762 7.13569986,8.00905762 C7.13569986,8.00905762 7.13625239,8.00733771 7.13749155,8.00393359 L7.154239,7.96358385 C7.19946034,7.86360175 7.34016695,7.60233642 7.71046793,7.21547852 C7.84157079,7.07851377 8.13729221,6.93894299 8.49562418,6.63240967 C8.58587042,6.55520897 8.72045294,6.37773908 8.89937174,6.1 L8.89937174,6.1 L8.89928644,6.16 L8.92234583,6.08659668 C9.2617013,6.34248657 9.83279963,6.09873457 10.6356408,5.35534067 Z M12.4412385,8.16623264 L12.4483484,8.34663964 C12.5250501,9.17565746 12.8857144,9.80942664 13.1819885,10.4169461 C13.521741,9.73851285 13.4486363,8.84934951 13.7607422,8.72282591 C13.3351296,8.57604713 12.895295,8.39051603 12.4412385,8.16623264 Z M8.50843021,1.20002978 L8.72240536,1.20849751 C9.37682431,1.36804341 9.53273861,1.64453267 9.79308407,2.06231832 C10.0534295,2.48010396 9.97173397,3.81427144 9.87886898,4.07031392 C9.78600399,4.3263564 9.77151489,4.46697856 9.87886898,4.64898682 C10.0462341,4.86828613 10.1409912,4.91082906 10.5087891,5.12164307 C10.0531342,5.70615997 9.38061523,6.1 8.94765625,5.9029541 C8.91813187,5.88951713 8.80224645,5.82250053 8.6,5.7019043 C8.42168419,5.6305736 8.176803,5.6305736 7.86535645,5.7019043 C7.55390989,5.773235 7.36635678,5.68331034 7.30269711,5.43213033 C7.19738451,5.37684396 7.12199592,5.30345936 7.07653134,5.21197652 C7.03106675,5.12049368 7.03106675,5.02011119 7.07653134,4.91082906 C6.82061093,4.96454 6.64665056,4.96454 6.55465023,4.91082906 C6.55465023,4.75185282 6.6006504,4.51810852 6.69265072,4.20959615 C6.54848568,3.89578138 6.47640316,3.49069105 6.47640316,2.99432515 C5.89172706,2.59674214 5.84521827,2.19887431 6.3368768,1.80072164 C7.22308154,1.35260936 8.01825773,1.15520132 8.72240536,1.20849751 Z" id="形状结合" fill="#CBCED8"></path>
    </g>
</svg>