<?xml version="1.0" encoding="UTF-8"?>
<svg width="27px" height="27px" viewBox="0 0 27 27" version="1.1" xmlns="http://www.w3.org/2000/svg" xmlns:xlink="http://www.w3.org/1999/xlink">
    <title>举重</title>
    <g id="页面-1" stroke="none" stroke-width="1" fill="none" fill-rule="evenodd">
        <g id="12-PC-分类icon" transform="translate(-1693.000000, -202.000000)" fill="#CBCED8" fill-rule="nonzero">
            <g id="举重" transform="translate(1693.000000, 202.000000)">
                <path d="M13.5,0 C20.9475,0 27,6.0525 27,13.5 C27,20.9475 20.9475,27 13.5,27 C6.0525,27 0,20.9475 0,13.5 C0,6.0525 6.0525,0 13.5,0 Z M14.49,15.255 C14.0625,15.255 13.725,15.4575 13.41,15.8175 C13.1625,16.1325 11.4975,19.035 10.9575,19.98 C10.08,20.7675 7.0875,23.5575 6.975,23.67 C6.795,23.8725 6.795,24.1875 6.975,24.3675 C7.155,24.5475 7.425,24.57 7.6275,24.4125 L12.1275,21.1725 C12.15,21.15 12.1725,21.1275 12.2175,21.105 C12.24,21.0825 12.2625,21.06 12.2625,21.06 C12.915,20.3625 14.2875,18.8325 15.03,17.955 C15.93,18.2925 17.2575,18.7875 18.1125,19.1025 C18.0675,20.4975 17.955,23.4225 17.955,23.94 C17.955,24.21 18.18,24.435 18.4275,24.435 C18.675,24.435 18.8775,24.255 18.9,24.03 L19.755,18.6525 L19.755,18.54 L19.755,18.54 C19.755,18.2475 19.5975,17.9775 19.35,17.8425 C18.3083333,17.2591667 15.7813272,15.7691975 15.1804755,15.4444947 L15.075,15.39 L15.075,15.39 C14.895,15.3 14.6925,15.255 14.49,15.255 Z M14.5125,6.705 C14.4675,7.155 14.445,7.515 14.4225,7.65 C14.355,8.0325 13.8825,10.665 13.86,10.9125 C13.815,11.385 14.0625,11.835 14.5125,12.0375 C15.075,12.285 15.705,12.0375 15.9525,11.475 C16.02,11.3175 16.0425,11.16 16.0425,11.0025 C16.0425,10.665 15.84,8.0325 15.8175,7.7175 L15.8175,6.7725 L15.8175,6.7725 C15.6375,6.7725 15.4575,6.795 15.255,6.795 C15.0075,6.795 14.7375,6.75 14.5125,6.705 Z M17.7975,8.685 C17.0775,8.685 16.5375,9.2475 16.5375,9.945 C16.5375,10.6425 17.1,11.205 17.7975,11.205 C18.495,11.205 19.0575,10.6425 19.0575,9.945 C19.0575,9.2475 18.495,8.685 17.7975,8.685 Z M15.2775,1.0125 C13.7925,0.99 12.5775,2.205 12.5775,3.69 C12.5775,5.1525 13.7925,6.3675 15.255,6.39 C16.74,6.4125 17.955,5.1975 17.955,3.7125 C17.9775,2.2275 16.7625,1.0125 15.2775,1.0125 Z M15.3,3.285 C15.525,3.285 15.7275,3.465 15.705,3.7125 C15.705,3.9375 15.525,4.14 15.2775,4.1175 C15.0525,4.1175 14.85,3.9375 14.8725,3.69 C14.8725,3.465 15.0525,3.285 15.3,3.285 Z" id="形状结合"></path>
            </g>
        </g>
    </g>
</svg>