<?xml version="1.0" encoding="UTF-8"?>
<svg width="22px" height="22px" viewBox="0 0 22 22" version="1.1" xmlns="http://www.w3.org/2000/svg" xmlns:xlink="http://www.w3.org/1999/xlink">
    <title>游泳未选中</title>
    <g id="游泳未选中" stroke="none" stroke-width="1" fill="none" fill-rule="evenodd">
        <path d="M1.65137913,5.80895996 C1.60167881,6.04925638 2.56402527,6.19902686 2.80811741,6.52514648 C3.4326601,7.35956757 4.12183811,8.16650391 4.91358616,8.91555937 C7.10181858,10.6776123 7.94217503,11.3098145 9.52943089,11.7583328 C9.52943089,11.9388128 9.52943089,12.0833537 9.52943089,12.1919556 C11.5717893,12.9802856 12.9138303,13.3446045 13.5555539,13.2849121 C14.1282265,12.8491618 14.7291786,12.5166829 15.3584104,12.2874756 C15.1055621,11.9725348 14.8850217,11.7151402 14.6967893,11.5152918 C14.4144407,11.2155191 13.2946408,10.0915527 12.1069455,9.08337402 C11.6459393,8.67449082 10.9895708,8.89187773 10.9895708,8.38040312 C11.210236,8.12680104 11.3744016,7.71203613 11.4820676,7.1361084 C12.167289,5.65450033 11.8292763,4.6874293 10.4680295,4.23489531 C8.4261594,3.55609433 8.13052952,4.53238066 7.76136448,4.91369629 C7.51525446,5.16790671 7.51525446,5.57232565 7.76136448,6.12695313 C7.50574925,7.16129557 7.66501031,7.97403971 8.23914768,8.56518555 C9.27285537,8.7987681 9.50926487,8.91555937 8.9483762,8.91555937 C7.30929742,8.80104674 6.22828343,8.62266133 5.70533421,8.38040312 C4.92091038,8.01701582 3.31202366,5.80895996 2.80811741,5.80895996 C2.30421116,5.80895996 1.69494053,5.59834466 1.65137913,5.80895996 Z" id="路径-33备份" fill="#CED1DC"></path>
        <path d="M21.8961794,11.5774563 L21.9762388,11.5834563 L21.9614266,11.8311758 C21.8273105,13.63818 21.2562557,15.3236086 20.3535156,16.7822534 L20.1554927,17.0913609 L20.0015547,17.31578 L20.0015547,17.31578 L19.8428959,17.536354 L19.592594,17.8614289 L19.592594,17.8614289 L19.3307493,18.1772846 C19.1723988,18.3608628 19.0080369,18.5393283 18.8379852,18.7122559 L18.578899,18.9674015 L18.316141,19.2095017 L18.316141,19.2095017 C18.2181952,19.2970405 18.1188477,19.3825783 18.0179791,19.4663478 C17.9067263,19.5586509 17.7937604,19.6487944 17.679011,19.736728 C17.4154498,19.9387531 17.1423759,20.1291209 16.8606626,20.3070514 C16.744532,20.3803727 16.6271296,20.4514937 16.508317,20.5204542 C16.2317301,20.6809923 15.9477095,20.82971 15.6567387,20.9660601 C15.5121906,21.0337885 15.3662244,21.0983444 15.2186318,21.1597778 C15.0483507,21.2306592 14.8756691,21.2974686 14.7009446,21.3599834 C14.3955325,21.4692742 14.0833963,21.5655672 13.7656797,21.6480161 C13.5215202,21.7113825 13.2737655,21.7666307 13.0230188,21.8133725 C12.6635591,21.8803764 12.2980594,21.929889 11.9273289,21.9610157 C11.7222935,21.9782283 11.5157128,21.9898171 11.307706,21.9956305 L10.9946408,22 C10.4233915,22 9.86231255,21.9564554 9.31454219,21.8725043 L8.92700704,21.8059807 C8.57475492,21.7389723 8.22890761,21.6552994 7.88985878,21.5557357 L7.63338192,21.4769788 L7.3505537,21.3820365 L7.3505537,21.3820365 C7.13862832,21.3076563 6.92938537,21.2268552 6.72334319,21.1399574 C6.45547613,21.0269854 6.19308836,20.9037454 5.9366273,20.770715 L5.55640065,20.5638553 C5.33243559,20.4362408 5.11335557,20.300953 4.89955166,20.1583778 L4.57728248,19.9350822 L4.57728248,19.9350822 L4.36229079,19.7764231 L4.36229079,19.7764231 L4.11949225,19.5872659 L4.11949225,19.5872659 L3.78885019,19.3114581 L3.78885019,19.3114581 L3.53689865,19.0859938 L3.53689865,19.0859938 C3.34121868,18.9054316 3.15202799,18.7177706 2.96981165,18.5234898 C2.83806972,18.3830085 2.70995833,18.239055 2.58564044,18.0917875 L2.40202844,17.868474 C2.03876466,17.4145391 1.71072593,16.9312311 1.42205557,16.4226654 L1.21299911,16.0365695 L1.10419811,15.8201612 C0.915760279,15.433893 0.749190009,15.0349342 0.606190186,14.6249153 L0.470762453,14.2112479 C0.351219516,13.8177145 0.252807258,13.414801 0.17723876,13.003895 C5.31143595,16.0011367 9.63454419,16.0095847 13.2546721,13.8272625 L13.5055814,13.6715873 C14.875545,13.8095245 16.3624935,13.6226616 18.4510161,12.9301858 L19.0645247,12.7184212 C19.3798824,12.6055036 19.7084589,12.481916 20.0516671,12.3471312 L20.7580109,12.0624756 L20.7580109,12.0624756 L21.5058843,11.7470237 L21.5058843,11.7470237 L21.8961794,11.5774563 Z" id="路径备份" fill="#CED1DC" opacity="0.98999995"></path>
        <path d="M13.5065864,13.6716885 L13.7439788,13.5161689 C16.0010419,12.0058299 18.6103574,11.3503593 21.5731896,11.5512957 L21.8951707,11.5778985 L21.1258322,11.9089814 L21.1258322,11.9089814 L20.3992552,12.2088159 C20.281583,12.2562363 20.165588,12.3023937 20.0512179,12.3473076 L19.3840773,12.6020251 C16.7901621,13.5624561 15.0719363,13.8291103 13.5065864,13.6716885 Z" id="路径备份-2" fill="#DDDFE5"></path>
        <path d="M7.99464085,11.9938965 L9.93931481,12.716276 C11.2451386,13.1971892 12.3324695,13.5534705 13.5055814,13.6715873 L13.2546721,13.8272625 C9.63454419,16.0095847 5.31143595,16.0011367 0.17723876,13.003895 L0.110868398,12.6046494 C0.0505744358,12.1923071 0.0131841802,11.7725399 3.99680289e-14,11.3466755 C2.13447674,10.6142235 4.79912817,10.8302136 7.99464085,11.9938965 Z" id="路径备份-3" fill="#D4D7DF"></path>
    </g>
</svg>