<?xml version="1.0" encoding="UTF-8"?>
<svg width="24px" height="24px" viewBox="0 0 24 24" version="1.1" xmlns="http://www.w3.org/2000/svg" xmlns:xlink="http://www.w3.org/1999/xlink">
    <title>泥地摩托白</title>
    <defs>
        <linearGradient x1="100%" y1="0%" x2="0%" y2="100%" id="linearGradient-1">
            <stop stop-color="#A3ACB3" offset="0%"></stop>
            <stop stop-color="#64676E" offset="100%"></stop>
        </linearGradient>
        <linearGradient x1="97.7298181%" y1="0%" x2="2.27018193%" y2="100%" id="linearGradient-2">
            <stop stop-color="#A3ACB3" offset="0%"></stop>
            <stop stop-color="#64676E" offset="100%"></stop>
        </linearGradient>
    </defs>
    <g id="Page-1" stroke="none" stroke-width="1" fill="none" fill-rule="evenodd">
        <g id="虚拟体育-赛狗" transform="translate(-448.000000, -143.000000)">
            <g id="泥地摩托白" transform="translate(448.000000, 143.000000)">
                <polygon id="Fill-1" points="0 22 22 22 22 0 0 0"></polygon>
                <g id="编组">
                    <path d="M7.33211687,0 C7.90300977,0 8.39879518,0.38613978 8.55760778,0.943380898 L8.58815589,1.07491443 L8.89344884,2.96013627 C9.16254057,2.43158716 9.67754657,2.05983168 10.2782353,2.00658466 L10.4274347,2 L11.7854876,2 C12.8143575,2 13.761182,2.51139336 14.3533839,3.34162279 L15.5485536,0.749701978 C15.7181125,0.380026465 16.0448016,0.118254989 16.4250209,0.0313932981 L16.56991,0.0071499308 L16.7035976,0 L22.0773406,0 C22.7153587,0 23.1488829,0.640333956 22.9530056,1.23757462 L22.9118189,1.34238359 L18.9299904,10.0057485 C18.867232,10.3090556 18.7388586,10.5929751 18.5522326,10.8264504 L18.2855641,11.4035326 C18.8326245,11.4415468 19.3783705,11.5602179 19.9202934,11.7645775 L20.2342285,11.8927803 L20.5124739,12.0230546 C22.3494424,12.9334287 23.6624896,14.7409908 23.9394498,16.7980443 C24.50337,20.9978374 21.0463497,24.5394291 16.9863994,23.9318306 C15.5961423,23.7242505 14.3453556,23.0118948 13.4198156,21.9841691 L13.0737312,22.7395138 C12.8829774,23.1553988 12.4933557,23.4347177 12.0523748,23.4820659 L11.9186872,23.4892158 L5.14865777,23.4892158 C4.57767954,23.4892158 4.08250521,23.103355 3.92464282,22.5538105 L3.89431986,22.424188 L0.0159172254,1.11435078 C-0.0828696807,0.57340855 0.289877573,0.0715018032 0.809253646,0.00698509131 L0.922674431,0 L7.33211687,0 Z M11.5496971,3 L10.1624184,3 C9.75232529,3 9.41802496,3.33756461 9.41802496,3.75608983 C9.41802496,4.17324284 9.75232529,4.51080745 10.1624184,4.51080745 L10.1624184,4.51080745 L11.5496971,4.51080745 C11.8596355,4.51080745 12.1357378,4.70291739 12.2453666,4.99657115 L12.2453666,4.99657115 L12.6852355,6.17667506 L8.75483807,6.17667506 C7.98608265,6.17667506 7.2701115,6.57873372 6.86137182,7.24151301 L6.86137182,7.24151301 L4.93877064,9.18763317 L3.49606389,10.7618649 C7.32444309,10.1875362 10.7284477,10.7351214 13.7080777,12.4046202 L14.3878663,11.303266 L14.5990034,11.303266 L15.267604,13.0953773 C13.4485771,14.1176766 12.295444,16.2089305 12.6392184,18.534833 C12.9721653,20.7880081 14.784425,22.615797 17.0081313,22.9423839 C20.4851254,23.4542196 23.4288631,20.4820044 22.948391,16.9622759 C22.7115385,15.2319143 21.5746467,13.7252234 20.0236014,12.9691336 C18.8271582,12.3845705 17.6916198,12.3324264 16.6616499,12.5629583 L16.6616499,12.5629583 L16.1920053,11.303266 L14.6544945,7.18525224 L13.6380591,4.46277996 C13.3091725,3.58319089 12.4781588,3 11.5496971,3 L11.5496971,3 Z M3.93703868,17.0710295 L4.87745239,22.2375044 C4.89776115,22.349027 4.98015482,22.4347072 5.08405876,22.4601694 L5.14865777,22.4679455 L11.9186872,22.4679455 C12.0042378,22.4679455 12.0836748,22.427512 12.1352555,22.3606967 L12.1683783,22.3058584 L12.7353629,21.0710551 C12.2909828,20.3518425 11.9848345,19.5358451 11.8582944,18.6652477 C11.8323449,18.4867568 11.8137143,18.3088499 11.8021985,18.1318674 L11.7902354,17.8671296 L11.789494,17.7602918 L11.7320821,17.8331872 C11.2196717,18.4455334 10.0481284,18.9988319 8.21745209,19.4930826 L7.92908931,19.3326847 L7.38046357,19.0270414 C5.59358851,18.0304314 4.44578022,17.3784275 3.93703868,17.0710295 Z M17.8663194,15.6315896 C18.9988404,15.6315896 19.9197916,16.575483 19.9197916,17.7374923 C19.9197916,18.8982261 18.9988404,19.8421195 17.8663194,19.8421195 C16.7337983,19.8421195 15.8128471,18.8982261 15.8128471,17.7374923 C15.8128471,17.0958999 16.1015777,16.5257373 16.5446299,16.1405267 L16.5446299,16.1405267 L17.2253871,17.9849454 C17.328683,18.2655624 17.590034,18.4377591 17.8663194,18.4377591 C17.9472137,18.4377591 18.0281081,18.4237283 18.1077579,18.3931155 C18.4624486,18.2566337 18.6404162,17.8510146 18.5060071,17.4887636 L18.5060071,17.4887636 L17.8227609,15.6366917 C17.8376952,15.6366917 17.851385,15.6315896 17.8663194,15.6315896 Z M3.66424916,11.9111301 L3.21696787,11.9431305 C3.41602417,12.7265812 3.73671576,14.2294751 4.17904264,16.4518124 C4.23949641,16.616478 5.4814409,17.2897776 7.90487609,18.4717112 C9.18793971,18.4717112 10.3803227,17.8020708 11.0597509,16.6988109 L11.0597509,16.6988109 L13.041,13.486 C10.5670995,12.1887484 7.44295424,11.6644775 3.66424916,11.9111301 Z M7.33211687,1.02127025 L1.01513278,1.02127025 L2.777,10.701 L6.34638688,6.70903034 C6.78627728,5.98386699 7.47375146,5.47373831 8.25453307,5.26567914 L7.60323985,1.25125782 C7.57910333,1.11804622 7.46506748,1.02127025 7.33211687,1.02127025 Z M16.6418431,6.1936389 C16.5104513,6.14278688 16.3655632,6.1444353 16.2283776,6.20995997 C15.8967971,6.36870274 15.7286718,6.84048034 15.8547658,7.2618163 L15.8547658,7.2618163 L16.6230051,9.8417573 C16.7199107,10.1696279 16.9639259,10.3684273 17.2242867,10.3684273 C17.2272823,10.3684273 17.230278,10.3684041 17.2332736,10.3683575 C17.2424732,10.3711273 17.2516483,10.3728898 17.2608633,10.3743936 L17.3405304,10.3808667 L17.4147792,10.3756716 C17.4642219,10.3685626 17.5134954,10.3537976 17.5622608,10.3291893 C17.6254937,10.298413 17.6826542,10.25587 17.7327961,10.2042019 L17.9591398,9.71329666 C17.9734027,9.61095161 17.9725522,9.50402979 17.9546217,9.39802042 L17.9280018,9.2823534 L17.175947,6.71472625 L17.1404675,6.61435355 C17.0384113,6.3712012 16.8480053,6.21767233 16.6424874,6.19372243 Z M21.9537405,1.02127025 L16.7035976,1.02127025 C16.6394346,1.02127025 16.5787106,1.04401415 16.5305482,1.08368218 L16.4869109,1.12877604 L16.4536754,1.18385937 L14.913,4.523 L15.3668486,5.76022708 C15.5194832,5.56563138 15.7121735,5.40408049 15.9411427,5.29263802 C16.7326633,4.90828724 17.5971106,5.28451019 17.9958845,6.0545701 L18.0613128,6.19447665 L18.0836007,6.25218692 L18.1372543,6.40884412 L18.658,8.188 L21.9537405,1.02127025 Z" id="形状结合" fill="url(#linearGradient-1)" opacity="0.6"></path>
                    <path d="M18.4576942,14.9287396 C19.5607038,14.9287396 21.1515217,16.7453897 21.1515217,17.872778 C21.1515217,18.9989287 20.2545688,19.9146997 19.1515592,19.9146997 C18.0485495,19.9146997 17.1515966,18.9989287 17.1515966,17.872778 C17.1515966,17.2503012 17.4328035,16.697126 17.8643106,16.3233925 L17.8643106,16.3233925 L18.5273284,18.1128585 C18.6279326,18.3851147 18.8824733,18.552181 19.1515592,18.552181 C19.2303456,18.552181 19.309132,18.5385682 19.3867063,18.5088675 C19.7321544,18.376452 19.9054844,17.982918 19.7745778,17.6314599 L19.7745778,17.6314599 L19.1091357,15.8345688 C19.1236809,15.8345688 18.443149,14.9287396 18.4576942,14.9287396 Z M22.4042326,1.02127025 C22.7166016,1.02127025 22.9232227,1.35331066 22.7901002,1.64207475 L22.7901002,1.64207475 L19.9690288,7.77888616 C18.5028066,6.04668459 16.6349671,5.12524373 14.7858772,4.69860819 L14.7858772,4.69860819 L16.2648491,1.4816077 C16.3942217,1.20050314 16.6702164,1.02127025 16.9743356,1.02127025 L16.9743356,1.02127025 Z M15.3716559,7.63493218 L15.3117413,11.6302535 L15.0837737,11.6302535 L11.4903603,16.8650431 C10.756772,17.9354324 9.46933925,18.5851214 8.08399728,18.5851214 C6.40388884,17.6349017 5.16644172,16.6813694 4.37165593,15.7245246 C10.1733274,15.9415695 13.8399941,13.2450387 15.3716559,7.63493218 Z" id="形状结合备份" fill="url(#linearGradient-2)" opacity="0.205073765"></path>
                </g>
            </g>
        </g>
    </g>
</svg>