<?xml version="1.0" encoding="UTF-8"?>
<svg width="22px" height="22px" viewBox="0 0 22 22" version="1.1" xmlns="http://www.w3.org/2000/svg" xmlns:xlink="http://www.w3.org/1999/xlink">
    <title>篮球备份@2x</title>
    <g id="控件" stroke="none" stroke-width="1" fill="none" fill-rule="evenodd">
        <g id="篮" fill="#CBCED8">
            <path d="M9.9618205,7.95767909 L10.0090219,7.96971909 C10.4271762,8.14371909 10.8383279,8.33271909 11.2444777,8.53071909 C11.3235069,8.56871909 11.3545183,8.66571909 11.3195054,8.74671909 C10.3221374,11.0487191 12.0497748,13.1057191 13.4953081,14.8157191 C14.4526613,15.9487191 15.4420263,17.1187191 15.6491027,18.2467191 C15.8371721,19.2747191 15.310978,20.6177191 14.7007528,21.2277191 L14.7007528,21.2277191 L14.4986783,21.4287191 C11.9307309,22.2897191 9.09068312,22.1857191 6.54774496,21.0617191 L6.54774496,21.0617191 L6.53574053,20.7807191 C6.33866782,16.1527191 7.46208228,11.7887191 9.79894441,8.03671909 C9.84296065,7.96671909 9.9319935,7.93771909 10.0090219,7.96971909 Z M12.2798597,9.28751909 C12.315873,9.19251909 12.4339165,9.15251909 12.521949,9.20251909 C14.2165742,10.1645191 15.7781503,11.3345191 17.1436541,12.6985191 C18.3200881,13.8745191 19.2354258,15.0285191 20.203783,16.5555191 L20.203783,16.5555191 L20.3518377,16.7905191 C20.1217528,17.1615191 19.8746616,17.5255191 19.5945583,17.8755191 C18.7822586,18.8915191 17.823905,19.7205191 16.7755183,20.3665191 C16.6464707,20.4455191 16.4864116,20.3175191 16.5344293,20.1745191 C16.7595124,19.4885191 16.8585489,18.7385191 16.731502,18.0495191 C16.4734068,16.6325191 15.387006,15.3475191 14.3366185,14.1055191 C12.7270247,12.2015191 11.7026467,10.7955191 12.2798597,9.28751909 Z M7.64635964,7.14455034 L7.69276739,7.15051909 C8.00988438,7.24451909 8.32400027,7.34451909 8.63611541,7.45051909 C8.73615232,7.48351909 8.77616708,7.60051909 8.72214715,7.69051909 C6.47131676,11.4025191 5.34089972,15.6685191 5.41992887,20.1875191 C5.42292998,20.3175191 5.28287831,20.4005191 5.17183735,20.3335191 C4.81070411,20.1115191 4.4555731,19.8715191 4.11544761,19.5995191 C1.69255374,17.6625191 0.311044065,14.9105191 0.0369429412,12.0495191 L0.0369429412,12.0495191 L0.260025242,11.9215191 C0.933273622,11.5355191 1.606522,11.2005191 2.25676189,10.8775191 C4.09544023,9.96251909 5.83408167,9.09651909 7.52270465,7.20051909 C7.56472015,7.15351909 7.63174487,7.13351909 7.69276739,7.15051909 Z M13.1099659,8.03631909 C15.1547203,5.86531909 18.373908,6.08331909 20.7117705,6.64631909 L20.7117705,6.64631909 L21.1529332,6.75231909 C22.2963551,9.49231909 22.2933539,12.6273191 21.0759048,15.4063191 C21.0228852,15.5253191 20.8538229,15.5353191 20.7817963,15.4273191 C19.8924682,14.0883191 19.0151445,13.0133191 17.9227415,11.9203191 C16.5102204,10.5083191 14.8986258,9.29631909 13.1509811,8.29531909 C13.1329744,8.18231909 13.128973,8.14931909 13.1099659,8.03631909 Z M1.10353644,6.16921909 L1.37263572,6.17421909 C2.96922474,6.19921909 4.54780712,6.39521909 6.08437401,6.73521909 C6.21242125,6.76421909 6.25943859,6.92921909 6.1654039,7.02121909 C4.77389053,8.38621909 3.30734948,9.12421909 1.76578076,9.89121909 C1.27259881,10.1372191 0.764411324,10.3942191 0.249221257,10.6732191 C0.136179552,10.7352191 -0.00487248569,10.6522191 0.000129359628,10.5242191 C0.0631526107,9.03521909 0.425286212,7.55321909 1.10353644,6.16921909 L1.10353644,6.16921909 Z M16.3902761,1.41871909 C16.899464,1.70571909 17.3976478,2.02471909 17.869822,2.40171909 C18.8621881,3.19571909 19.6734874,4.12971909 20.3117229,5.14871909 C20.3877509,5.27071909 20.2797111,5.42371909 20.1376587,5.39771909 C17.6257319,4.92871909 14.4825723,4.98571909 12.3207748,7.26971909 C12.1937279,7.40371909 12.0876888,7.53571909 11.9816497,7.66871909 C11.4964707,7.42471909 11.0042891,7.19371909 10.5021038,6.98271909 C10.6501585,6.77271909 10.8002138,6.56271909 10.9572718,6.35671909 C12.185725,4.74271909 13.9413727,3.13171909 16.1741964,1.56971909 L16.1741964,1.56971909 Z M7.06493576,0.721519095 C9.59286839,-0.240480905 12.4239128,-0.250480905 14.9908599,0.751519095 C15.1119045,0.798519095 15.1289108,0.965519095 15.023872,1.04251909 C12.9431044,2.55451909 11.2794906,4.11551909 10.0800481,5.69051909 C9.88697689,5.94551909 9.69890751,6.20451909 9.51684034,6.46651909 C9.47482484,6.52751909 9.39779642,6.55251909 9.32777058,6.52651909 C9.01065359,6.41251909 8.68953512,6.30351909 8.36641591,6.20151909 C8.27738307,6.17351909 8.23336683,6.08051909 8.26437827,5.99351909 C8.73055025,4.65051909 8.30239229,2.96751909 6.98890771,0.971519095 C6.93088631,0.883519095 6.96589923,0.759519095 7.06493576,0.721519095 Z M5.8612917,1.26301909 L5.90130647,1.32201909 C7.16977444,3.16501909 7.59092982,4.63501909 7.17577665,5.71301909 C7.14676595,5.79001909 7.05973384,5.83001909 6.97970432,5.81001909 C5.3601068,5.40501909 3.68949047,5.16701909 1.99886675,5.09801909 C1.86981914,5.09201909 1.79379109,4.95001909 1.86581766,4.84301909 C2.02987819,4.59901909 2.20394241,4.36001909 2.39101142,4.12601909 C3.36937237,2.90301909 4.55781081,1.94901909 5.8612917,1.26301909 L5.8612917,1.26301909 Z" id="篮球备份"></path>
        </g>
    </g>
</svg>