<?xml version="1.0" encoding="UTF-8"?>
<svg width="22px" height="22px" viewBox="0 0 22 22" version="1.1" xmlns="http://www.w3.org/2000/svg" xmlns:xlink="http://www.w3.org/1999/xlink">
    <title>网@2x</title>
    <g id="页面-1" stroke="none" stroke-width="1" fill="none" fill-rule="evenodd">
        <g id="虚足联赛数据" transform="translate(-167.000000, -100.000000)" fill="#CBCED8">
            <g id="编组备份" transform="translate(0.000000, 88.000000)">
                <g id="编组-21" transform="translate(28.000000, 12.000000)">
                    <g id="赛狗备份" transform="translate(139.000000, 0.000000)">
                        <path d="M17.517088,7.20538709 L15.035088,10.6573871 C14.662088,11.1943871 13.969088,11.4943871 13.262088,11.4943871 C12.895088,11.4943871 12.524088,11.4133871 12.192088,11.2433871 C11.256088,10.7623871 10.946088,9.73938709 11.361088,8.50638709 L12.665088,4.28438709 C12.734088,4.06338709 12.966088,3.94038709 13.183088,4.01138709 C13.400088,4.07938709 13.521088,4.31238709 13.454088,4.53238709 L12.145088,8.76538709 C11.859088,9.61538709 12.005088,10.2123871 12.566088,10.5003871 C13.162088,10.8073871 14.035088,10.6463871 14.365088,10.1733871 L16.850088,6.71638709 C16.984088,6.53038709 17.242088,6.48938709 17.426088,6.62438709 C17.610088,6.75938709 17.652088,7.01938709 17.517088,7.20538709 M8.62308796,4.98138709 L8.53208796,5.03138709 C8.26608796,5.17638709 7.94508796,5.15038709 7.70308796,4.96738709 L7.45608796,4.78038709 C7.24208796,4.61838709 7.16908796,4.31838709 7.28308796,4.06938709 L7.36708796,3.88638709 C7.45408796,3.69338709 7.68708796,3.63238709 7.85108796,3.75838709 L8.66708796,4.38038709 C8.87108796,4.53538709 8.84708796,4.86038709 8.62308796,4.98138709 M21.880088,11.0293871 L17.501088,3.35738709 C15.764088,0.315387087 12.136088,-0.847612913 9.06208796,0.652387087 L7.09208796,1.61338709 C6.42808796,1.93638709 5.91108796,2.53738709 5.67308796,3.26038709 C5.61808796,3.42938709 5.49808796,3.56638709 5.34508796,3.63738709 L0.559087961,5.84438709 C0.262087961,5.99938709 0.0570879612,6.29338709 0.0100879612,6.63138709 C-0.0369120388,6.97338709 0.0820879612,7.31538709 0.330087961,7.54938709 L0.385087961,7.60138709 C0.677087961,7.87738709 0.850087961,8.25638709 0.873087961,8.66938709 C0.936087961,9.79138709 1.82708796,10.6603871 2.90908796,10.6603871 L2.93808796,10.6603871 L7.94408796,10.5833871 C8.73908796,10.6123871 9.42608796,11.1733871 9.65608796,11.9773871 L12.328088,21.3523871 C12.418088,21.6733871 12.673088,21.9133871 12.992088,21.9813871 C13.051088,21.9933871 13.112088,22.0003871 13.171088,22.0003871 C13.427088,22.0003871 13.673088,21.8863871 13.841088,21.6823871 L21.792088,12.0633871 C22.033088,11.7733871 22.068088,11.3563871 21.880088,11.0293871"></path>
                    </g>
                </g>
            </g>
        </g>
    </g>
</svg>