<?xml version="1.0" encoding="UTF-8"?>
<svg width="22px" height="22px" viewBox="0 0 22 22" version="1.1" xmlns="http://www.w3.org/2000/svg" xmlns:xlink="http://www.w3.org/1999/xlink">
    <title>趣味后台未备份 2</title>
    <g id="趣味后台未备份-2" stroke="none" stroke-width="1" fill="none" fill-rule="evenodd">
        <g id="奖牌-3备份-3" transform="translate(3.000000, 1.000000)" fill="#787878" fill-rule="nonzero">
            <path d="M7.96707899,5.71309038 C11.3551324,5.71309038 14.1018283,8.44628906 14.1018283,11.8176935 C14.1018283,15.189098 11.3553331,17.9222967 7.96707899,17.9222967 C4.57882487,17.9222967 1.83232964,15.189098 1.83232964,11.8176935 C1.83232964,8.44608931 4.57902561,5.71309038 7.96707899,5.71309038 Z M7.96707899,6.93397106 C5.25651584,6.93397106 3.05923936,9.12045011 3.05923936,11.8176935 C3.05923936,14.514937 5.25651584,16.701416 7.96707899,16.701416 C10.6776421,16.701416 12.8749186,14.514937 12.8749186,11.8176935 C12.8749186,9.12045011 10.6776421,6.93397106 7.96707899,6.93397106 Z M7.96748047,7.74755859 C10.2261827,7.74775834 12.0571126,9.57009055 12.0569119,11.8176935 C12.0569119,14.0652965 10.2257812,15.887429 7.96707899,15.887429 C5.77682226,15.887429 3.98861633,14.1740556 3.88225147,12.0208101 L3.87724609,11.8176935 C3.87744683,9.56929155 5.70877821,7.74735884 7.96748047,7.74755859 Z M7.96707899,8.56194513 L7.00514323,10.5005327 L4.85564236,10.8115456 L6.41136068,12.3204679 L6.04401041,14.451416 L7.96707899,13.4454679 L9.89014757,14.4516158 L9.52279731,12.3206676 L11.0785156,10.8115456 L8.92901475,10.5007324 L7.96707899,8.56194513 Z M15.3287381,0.0155806106 L12.1874199,3.92158061 L12.4658149,3.92251853 C12.781977,3.92231889 13.03852,4.1772017 13.0387208,4.49200994 C13.0389214,4.80661843 12.7827799,5.06190075 12.4664171,5.0621005 L12.0563296,5.06151841 L12.0569119,6.65734863 C10.9831633,5.73156738 9.61988571,5.26867676 7.96707899,5.26867676 C6.31427228,5.26867676 4.95099465,5.73156738 3.87724609,6.65734863 L3.87632964,5.06151841 L3.4683431,5.0621005 C3.15218099,5.0621005 2.89583876,4.80701793 2.89583876,4.49240945 C2.89583876,4.17760121 3.15218099,3.92251853 3.4683431,3.92251853 L3.74541992,3.92158061 L0.60541992,0.0155806106 L15.3287381,0.0155806106 Z" id="形状结合"></path>
        </g>
    </g>
</svg>