<?xml version="1.0" encoding="UTF-8"?>
<svg width="22px" height="22px" viewBox="0 0 22 22" version="1.1" xmlns="http://www.w3.org/2000/svg" xmlns:xlink="http://www.w3.org/1999/xlink">
    <title>编组备份 9</title>
    <g id="页面-1" stroke="none" stroke-width="1" fill="none" fill-rule="evenodd">
        <g id="未选中白" transform="translate(0.000000, -1824.000000)">
            <g id="编组备份-9" transform="translate(0.000000, 1824.000000)">
                <polygon id="Fill-1" points="3.67980856e-05 21.9998413 21.9998781 21.9998413 21.9998781 0 3.67980856e-05 0"></polygon>
                <g id="编组" transform="translate(0.000000, 0.000069)" fill="#CBCED8">
                    <path d="M14.7563272,9.66013032 L21.0259383,11.5758353 C21.4521852,14.145348 21.231843,16.4790499 20.9633762,18.0128513 C19.2064826,17.395137 16.2289416,16.2236455 13.9468018,14.6812504 L14.7563272,9.66013032 Z M12.3896943,8.83224879 C12.9159718,8.83224879 13.3666248,9.01031001 13.3666248,9.01031001 L13.4254056,9.03505983 L13.4865926,9.0536222 L14.6477718,9.40871338 L13.8021529,14.6522381 C13.6904349,14.5666449 13.577342,14.4817393 13.4700928,14.3947712 C11.8190734,12.9909063 10.867924,11.5591979 10.8607053,10.4653933 C10.8572679,9.93670958 11.0807037,9.47574415 11.5427004,9.05843466 C11.7644176,8.90821699 12.0490405,8.83224879 12.3896943,8.83224879 Z M21.3148581,0.241551383 C21.6011997,0.241551383 21.7906046,0.539580483 21.6685743,0.798766113 L21.6685743,0.798766113 L19.0825617,6.30697638 C17.7385088,4.75220635 16.0263024,3.92514981 14.3312834,3.54221507 L14.3312834,3.54221507 L15.6870236,0.654735902 C15.8056165,0.402425222 16.0586147,0.241551383 16.337394,0.241551383 L16.337394,0.241551383 Z" id="形状结合" opacity="0.202091762"></path>
                    <path d="M20.6857657,17.6675913 C19.0742773,17.1010954 16.3425158,16.0261969 14.2490934,14.6113321 L14.9922755,10.0051153 L20.7431716,11.7626964 C21.1343562,14.1197732 20.9322327,16.2606327 20.6857657,17.6675913 L20.6857657,17.6675913 Z M14.3284991,9.8023043 L13.6255354,14.1613666 C13.5323798,14.0902109 13.438193,14.0197426 13.3495061,13.9472119 C11.9765785,12.7801891 11.1859592,11.5901351 11.1804593,10.680923 C11.1773656,10.2412699 11.3629892,9.85799139 11.7469552,9.5108064 C11.9315476,9.3863698 12.1680459,9.32312025 12.4512939,9.32312025 C12.888197,9.32312025 13.2632255,9.47127543 13.2635693,9.47127543 L13.3123814,9.49155654 L13.3629123,9.50736892 L14.3284991,9.8023043 Z M20.4747047,18.6933339 C20.4083615,18.9679882 20.2598625,19.2154864 20.0484578,19.4028288 L19.398775,19.9806684 C18.8267791,20.4887272 18.0024726,20.5966639 17.3194462,20.2529164 L5.46806298,14.2913032 C5.14528406,14.1287106 4.92941062,13.8097129 4.89400462,13.4498092 C4.48907004,9.35577627 5.49625028,7.55144553 5.59662455,7.38369674 C5.59937453,7.37888428 5.60143702,7.3761343 5.60521824,7.37132183 C5.85959141,7.03479301 5.86440387,6.5717651 5.61724941,6.22973631 L5.58699962,6.18779912 L5.07275333,5.47624175 C5.67018652,5.15311908 6.64505449,4.71724722 8.10563771,4.30750018 C8.33010484,4.24459438 8.66078995,4.16381372 9.07947443,4.09197048 C9.5624397,4.00912733 10.0584674,4.04350208 10.524589,4.19268851 C12.502856,4.82621519 15.858863,6.36139161 17.9089732,9.81846043 L13.6643789,8.52115729 C13.6643789,8.52115729 13.1212578,8.29187769 12.4512939,8.29187769 C12.018172,8.29187769 11.5314255,8.3874395 11.1041473,8.70231223 C9.39400341,10.1928015 10.0141239,12.4690976 12.6898546,14.7402374 C15.0087754,16.63188 18.5830621,18.0309324 20.475736,18.6881777 L20.4747047,18.6933339 Z M15.4738658,20.9685988 C15.3463355,20.9685988 15.2236176,20.9393802 15.1094934,20.8812869 L6.33499423,16.4328502 C6.03696513,16.2816013 5.87231007,15.971541 5.88949744,15.6576996 L16.0217994,20.754444 C15.8733004,20.8871306 15.6825206,20.9685988 15.4738658,20.9685988 L15.4738658,20.9685988 Z M11.2564275,20.9685988 L11.0580852,20.9685988 L6.04487132,20.9685988 L4.86066111,20.9685988 L1.15540659,1.03124256 L6.61961718,1.03124256 L7.08573881,3.53819323 C4.5234448,4.35631233 3.60495142,5.2060562 3.60495142,5.2060562 L4.51106988,6.45970341 C4.64891264,6.65013953 4.6753812,6.90176272 4.57294444,7.11282369 C4.21132205,7.85772457 3.4622962,9.94392827 3.89713681,13.8351502 C3.95832387,14.3782713 4.29382145,14.8547054 4.78194293,15.1004848 L4.93662932,15.1781718 C4.68809986,16.0162282 5.06278466,16.9440028 5.86887259,17.3523748 L11.5919251,20.2542914 L11.2564275,20.9685988 Z M20.1447071,9.38258857 C20.2870186,9.7943981 20.4004553,10.2038014 20.5011733,10.6104547 L18.8542789,10.1068646 C17.0564794,6.61507728 14.0490323,4.81899649 11.8201734,3.92662793 C14.3333115,4.04625206 18.2327834,4.99087025 20.1447071,9.38258857 L20.1447071,9.38258857 Z M16.3658906,1.03124256 L20.6187349,1.03124256 L18.5589998,5.41780467 C17.5349759,4.51271745 16.3820468,3.90084686 15.2047115,3.50450597 L16.3658906,1.03124256 Z M19.3341505,6.19261158 L21.9593503,0.601901908 C22.0910056,0.321747679 21.8864758,0 21.5774468,0 L16.2036418,0 C15.9028627,0 15.6288959,0.173936245 15.5013656,0.446184282 L14.1995938,3.21782054 C13.1814136,2.97719728 12.1659834,2.88026047 11.2199902,2.88026047 C10.0148114,2.88026047 8.9251318,3.0366656 8.08054414,3.24841407 L7.59482889,0.634214175 C7.52676688,0.266404328 7.2057067,0 6.83205314,0 L0.422536876,0 C0.158195032,0 -0.0411785296,0.239592022 0.00728987077,0.499465147 L3.88579314,21.3656271 C3.9541989,21.733437 4.27457159,21.9998413 4.64856889,21.9998413 L6.04487132,21.9998413 L11.0580852,21.9998413 L11.4186763,21.9998413 C11.7194554,21.9998413 11.9934222,21.8259051 12.1209525,21.553657 L12.5121372,20.7207568 L14.6433718,21.8011552 C14.9090886,21.9359043 15.1930241,21.9998413 15.4738658,21.9998413 C16.0568616,21.9998413 16.6230138,21.7224371 16.9760425,21.2343156 C17.9643166,21.7317182 19.1557455,21.5756569 19.982802,20.8410684 L20.7373278,20.170417 C21.1061689,19.8428256 21.3639796,19.4117662 21.4808537,18.9322384 C21.8796009,17.2891253 22.5777521,13.2308421 21.1065127,9.00824752 C20.6232037,7.88763061 20.0188955,6.95985605 19.3341505,6.19261158 L19.3341505,6.19261158 Z" id="Fill-4"></path>
                </g>
            </g>
        </g>
    </g>
</svg>