<svg width="32" height="32" viewBox="0 0 32 32" fill="none" xmlns="http://www.w3.org/2000/svg">
<path d="M23.1135 22.1496H8.74743M7.97586 8.38739C7.3977 8.67315 6.39745 9.60784 4.97512 11.1915C4.49928 11.7213 4.53562 12.5312 5.04613 13.0277L6.78166 14.7155C7.05441 14.9808 7.49275 14.967 7.74828 14.6851L8.46014 13.8998C8.62531 13.7176 8.9282 13.8344 8.9282 14.0804V25.0972C8.9282 25.8396 9.53007 26.4415 10.2725 26.4415H21.7035C22.4459 26.4415 23.0478 25.8396 23.0478 25.0972V14.0304C23.0478 13.7911 23.3367 13.671 23.5063 13.8398L24.3912 14.7205C24.6568 14.9848 25.0871 14.981 25.3479 14.7121L26.9816 13.0276C27.4668 12.5273 27.4905 11.7374 27.0251 11.2185C25.5899 9.61848 24.5816 8.67477 24.0001 8.38739C23.3753 8.07859 22.2569 7.49578 20.6447 6.63895C20.3619 6.48865 20.0112 6.5564 19.7839 6.78206C19.134 7.42754 17.7076 8.62349 16.0618 8.62349C14.2672 8.62349 12.8423 7.44224 12.1955 6.79407C11.9658 6.56392 11.6088 6.49145 11.3217 6.64403C9.7147 7.49808 8.59942 8.0792 7.97586 8.38739Z" stroke="#333333" stroke-width="1.2"/>
</svg>
