<?xml version="1.0" encoding="UTF-8"?>
<svg width="18px" height="18px" viewBox="0 0 18 18" version="1.1" xmlns="http://www.w3.org/2000/svg" xmlns:xlink="http://www.w3.org/1999/xlink">
    <title>ywc</title>
    <g id="页面-1" stroke="none" stroke-width="1" fill="none" fill-rule="evenodd">
        <g id="日日投注" transform="translate(-914.000000, -1417.000000)">
            <g id="ywc" transform="translate(914.000000, 1417.000000)">
                <circle id="椭圆形" fill="#E69C41" cx="9" cy="9" r="9"></circle>
                <path d="M13.6658005,6.03073771 L8.33400622,13.1244203 C8.16742768,13.3454572 7.91371578,13.4844862 7.63757983,13.5049882 C7.61323374,13.5069103 7.58952833,13.5075509 7.56582292,13.5075509 C7.31467376,13.5075509 7.07249419,13.4095259 6.89246125,13.2320557 L3.92544135,10.3182128 C3.54679554,9.94597384 3.54102936,9.33796221 3.9132683,8.9593164 C4.28550725,8.5800299 4.89351888,8.5755451 5.27216469,8.94650266 L7.45690618,11.0921623 L12.1294339,4.87493897 C12.4484959,4.45080441 13.0507413,4.36559308 13.4755166,4.68401435 C13.8990105,5.00435769 13.9848625,5.60660315 13.6658005,6.03073771 Z" id="形状" fill="#FFFFFF" fill-rule="nonzero"></path>
            </g>
        </g>
    </g>
</svg>