<?xml version="1.0" encoding="UTF-8"?>
<svg width="14px" height="14px" viewBox="0 0 14 14" version="1.1" xmlns="http://www.w3.org/2000/svg" xmlns:xlink="http://www.w3.org/1999/xlink">
    <title>形状@2x</title>
    <g id="页面-1" stroke="none" stroke-width="1" fill="none" fill-rule="evenodd">
        <g id="罚牌备份" transform="translate(-71.000000, -531.000000)" fill="#CBCED8" fill-rule="nonzero">
            <g id="说明" transform="translate(71.000000, 531.000000)">
                <path d="M0,7 C0,10.8659932 3.13400675,14 7,14 C10.8659932,14 14,10.8659932 14,7 C14,3.13400675 10.8659932,0 7,0 C3.13400675,0 0,3.13400675 0,7 Z M8.30900015,3.61083789 C8.30920759,4.0172275 8.09259314,4.39285773 7.74075321,4.59623231 C7.38891328,4.7996069 6.95530073,4.79982839 6.60325321,4.59681337 C6.25120569,4.39379834 6.03420759,4.01838961 6.03399985,3.612 C6.03367909,2.9837761 6.54269504,2.47423985 7.17091895,2.47391879 C7.79914285,2.47359804 8.30867909,2.98261399 8.30900015,3.61083789 L8.30900015,3.61083789 Z M5.38416211,11.0635 L5.38416211,10.5641621 L5.86132422,10.388 C6.1284892,10.2893227 6.30588658,10.0346437 6.30583789,9.74983789 L6.30583789,7.0595 C6.30608558,6.77490848 6.12853595,6.52046728 5.86133789,6.4225 L5.38416211,6.24633789 L5.38416211,5.7365 L8.27166211,5.7365 L8.27166211,9.74983789 C8.27166211,10.0345 8.449,10.29 8.71733789,10.388 L9.19333789,10.563 L9.19333789,11.0635 L5.38416211,11.0635 L5.38416211,11.0635 Z" id="形状"></path>
            </g>
        </g>
    </g>
</svg>