<?xml version="1.0" encoding="UTF-8"?>
<svg width="23px" height="23px" viewBox="0 0 23 23" version="1.1" xmlns="http://www.w3.org/2000/svg" xmlns:xlink="http://www.w3.org/1999/xlink">
    <title>灰色</title>
    <g id="页面-1" stroke="none" stroke-width="1" fill="none" fill-rule="evenodd">
        <g id="灰色" transform="translate(0.771968, 0.771967)">
            <path d="M11.095861,0.501243924 L11.1537761,0.503140833 L11.2002503,0.505731561 C12.0280222,0.549039876 12.8438967,0.863404785 13.5038756,1.44873355 L13.5038756,1.44873355 L13.676507,1.61164599 L20.3934766,8.32861558 C21.0801557,9.01529463 21.4472791,9.90054152 21.4944547,10.7939988 L21.4944547,10.7939988 L21.4969982,10.8549154 C21.4983171,10.8830713 21.4990804,10.9115789 21.4995319,10.9402441 C21.5001706,10.9800221 21.5001714,11.0198269 21.4994752,11.0607574 C21.4990337,11.0906489 21.4982226,11.1199646 21.4974114,11.1419802 L21.4974114,11.1419802 L21.4942718,11.2002513 C21.4509635,12.0280232 21.1365986,12.8438977 20.5512698,13.5038766 L20.5512698,13.5038766 L20.3883573,13.676508 L13.6713878,20.3934776 C12.9847087,21.0801567 12.0994618,21.4472801 11.2060038,21.4944558 L11.2060038,21.4944558 L11.1448654,21.4970088 C11.1171758,21.4983087 11.08899,21.4990658 11.0607278,21.4995175 C11.0203317,21.500169 10.9804978,21.5001745 10.9394639,21.4994802 C10.9098922,21.4990503 10.8803075,21.4982341 10.8580231,21.4974124 L10.8580231,21.4974124 L10.799752,21.4942728 C9.97198016,21.4509645 9.15610565,21.1365996 8.49612678,20.5512708 L8.49612678,20.5512708 L8.32349531,20.3883584 L1.60652572,13.6713888 C0.919846674,12.9847097 0.552723216,12.0994628 0.505551413,11.2060972 L0.505551413,11.2060972 L0.503292791,11.1518083 C0.50150432,11.1138193 0.500552165,11.0753305 0.500202914,11.0417223 L0.500202914,11.0417223 L0.50018935,10.9636786 C0.500553143,10.9237906 0.501567246,10.8837209 0.502851568,10.8511337 L0.502851568,10.8511337 L0.50573056,10.799753 C0.549038874,9.97198116 0.863403783,9.15610665 1.44873255,8.49612778 L1.44873255,8.49612778 L1.61164499,8.32349631 L8.32861458,1.60652673 C9.01529363,0.919847675 9.90054052,0.552724218 10.7938774,0.505553609 L10.7938774,0.505553609 L10.8471613,0.503338986 L11.095861,0.501243924 Z" id="形状结合" stroke="#404142" fill="#2B2C2D"></path>
            <path d="M10.1520982,5.07944723 L10.1517101,15.3274472 L12.7228744,14.289738 C12.8689135,14.2307343 13.0351336,14.3012905 13.0941373,14.4473297 C13.1045419,14.4730822 13.1109179,14.4994622 13.1135616,14.5257711 L12.9972139,14.52742 C13.4083841,14.5076283 13.7121194,14.6107264 13.9084198,14.8367143 C14.0922566,15.0483538 14.1558418,15.3985798 14.0991752,15.8873925 C14.171885,15.9398057 14.219687,16.025014 14.219687,16.121387 C14.219687,16.2788954 14.0920013,16.4065811 13.934493,16.4065811 L10.0640952,16.4080541 C10.0128765,16.4570869 9.94340818,16.4872103 9.86690413,16.4872103 C9.70939579,16.4872103 9.58171005,16.3595246 9.58171005,16.2020162 L9.58171005,5.57944723 C9.58171005,5.30330486 9.80556768,5.07944723 10.0817101,5.07944723 L10.1520982,5.07944723 Z M10.3080043,5.07944723 L15.0612389,9.83268184 L10.3080043,9.83268184 L10.3080043,5.07944723 Z" id="形状结合" fill="#FFFFFF" fill-rule="nonzero"></path>
        </g>
    </g>
</svg>