<?xml version="1.0" encoding="UTF-8"?>
<svg width="15px" height="17px" viewBox="0 0 15 17" version="1.1" xmlns="http://www.w3.org/2000/svg" xmlns:xlink="http://www.w3.org/1999/xlink">
    <title>形状结合@2x</title>
    <g id="页面-1" stroke="none" stroke-width="1" fill="none" fill-rule="evenodd">
        <g id="玩法模板" transform="translate(-418.000000, -287.000000)" fill="#666666" fill-rule="nonzero" stroke="#666666" stroke-width="0.1">
            <path d="M425.801428,288 C428.110013,288 429.988038,289.559409 429.988038,291.476092 L429.988,293.557 L430.182594,293.557308 C431.517036,293.557308 432.602789,294.64538 432.602789,295.982779 L432.602789,301.502991 C432.602789,302.840407 431.517137,303.928461 430.182695,303.928461 L421.420195,303.928461 C420.085652,303.928461 419,302.84039 419,301.502991 L419,295.982779 C419,294.645363 420.085652,293.557308 421.420094,293.557308 L421.615,293.557 L421.61502,291.476092 C421.61502,289.559425 423.493028,288 425.801428,288 Z M430.182678,294.059173 L421.420178,294.059173 C420.361862,294.059173 419.500823,294.922177 419.500823,295.982796 L419.500823,301.503007 C419.500823,302.563827 420.361862,303.426731 421.420178,303.426731 L430.182678,303.426731 C431.241163,303.426731 432.102134,302.563726 432.102134,301.503007 L432.102134,295.982796 C432.102134,294.922077 431.241179,294.059173 430.182678,294.059173 Z M425.801428,295.885282 C427.015272,295.885282 428.002755,296.875084 428.002755,298.091616 C428.002755,299.223314 427.148179,300.158801 426.051805,300.283769 L426.051781,301.531183 L426.051781,301.531183 C426.051781,301.669472 425.939768,301.78162 425.801529,301.781821 C425.682923,301.781648 425.583686,301.69923 425.557751,301.588599 L425.551142,301.531038 L425.551142,301.531038 L425.551063,300.283769 C424.454735,300.158801 423.600101,299.223314 423.600101,298.091616 C423.600101,296.875084 424.587668,295.885282 425.801428,295.885282 Z M425.801428,296.387114 C424.863726,296.387114 424.100739,297.151764 424.100739,298.091599 C424.100739,299.031435 424.863626,299.796085 425.801428,299.796085 C426.739231,299.796085 427.502016,299.031435 427.502016,298.091599 C427.502016,297.15168 426.73913,296.387114 425.801428,296.387114 Z M425.801428,288.501865 C423.76917,288.501865 422.115659,289.836206 422.115659,291.476193 L422.115,293.557 L429.487,293.557 L429.487366,291.476193 C429.487366,289.836223 427.833854,288.501865 425.801428,288.501865 Z" id="形状结合"></path>
        </g>
    </g>
</svg>