<?xml version="1.0" encoding="UTF-8"?>
<svg width="22px" height="22px" viewBox="0 0 22 22" version="1.1" xmlns="http://www.w3.org/2000/svg" xmlns:xlink="http://www.w3.org/1999/xlink">
    <title>HOT</title>
    <defs>
        <linearGradient x1="100%" y1="50%" x2="0%" y2="50%" id="linearGradient-1">
            <stop stop-color="#FFB001" offset="0%"></stop>
            <stop stop-color="#FF7000" offset="100%"></stop>
        </linearGradient>
        <polygon id="path-2" points="22 8.23015733 13.7622749 0 -7.09848846e-14 0 22 22"></polygon>
    </defs>
    <g id="页面-1" stroke="none" stroke-width="1" fill="none" fill-rule="evenodd">
        <g id="列表加载样式" transform="translate(-234.000000, -367.000000)" fill-rule="nonzero">
            <g id="HOT" transform="translate(234.000000, 367.000000)">
                <g id="路径" transform="translate(11.000000, 11.000000) scale(-1, 1) translate(-11.000000, -11.000000) ">
                    <use fill="#000000" xlink:href="#path-2"></use>
                    <use fill="url(#linearGradient-1)" xlink:href="#path-2"></use>
                </g>
                <path d="M3.25145901,8.06232953 L2.43861032,7.25063693 L4.01038968,5.67664173 L2.38466017,4.05322439 L0.812880804,5.62721956 L0,4.81552694 L3.81013192,1 L4.62301273,1.81172474 L3.0856908,3.35119825 L4.71142029,4.97461561 L6.24874222,3.43514211 L7.06162305,4.24683471 L3.25145901,8.06232953 Z M6.01104051,7.10876091 C6.60792811,6.51107049 7.26817499,6.19880198 7.9918775,6.17201957 C8.7155158,6.14523718 9.36391291,6.41800648 9.93700466,6.99026329 C10.48219,7.53467795 10.739834,8.15443014 10.7099688,8.84939134 C10.6801035,9.54441681 10.3806803,10.1767894 9.81166694,10.7465735 C9.21802278,11.3410526 8.56349203,11.6508163 7.84807471,11.6759288 C7.13259315,11.7010413 6.49492182,11.4340203 5.93496439,10.8748657 C5.38814124,10.3287811 5.12304698,9.70581763 5.13977794,9.00594309 C5.15654102,8.30603643 5.44694047,7.67369589 6.01104051,7.10876091 Z M6.91008096,7.91794869 C6.5394628,8.28911278 6.32597441,8.68185691 6.26971213,9.09618111 C6.21332139,9.51056953 6.34122818,9.87354473 6.65320768,10.1851389 C6.9718025,10.5032199 7.33246555,10.6379989 7.73529323,10.5892511 C8.13808878,10.5405675 8.52974108,10.3257625 8.91018586,9.94477178 C9.30700836,9.54740335 9.53443389,9.14724106 9.59239816,8.74431705 C9.65036243,8.34145726 9.52251989,7.98336323 9.20887052,7.67016344 C8.89030781,7.35205032 8.52142378,7.21977617 8.10215416,7.27343726 C7.68294877,7.32703415 7.28558034,7.54190341 6.91008096,7.91794869 Z M14.3358995,12.8391002 L13.2471344,11.7519407 L10.1011672,14.9023717 L9.28581367,14.0881742 L12.431813,10.9377433 L11.3455527,9.85302443 L12.0096853,9.18792845 L15,12.1740684 L14.3358995,12.8391002 L14.3358995,12.8391002 Z" id="形状" fill="#FFFFFF" transform="translate(7.500000, 7.951186) rotate(-90.000000) translate(-7.500000, -7.951186) "></path>
            </g>
        </g>
    </g>
</svg>