<?xml version="1.0" encoding="UTF-8"?>
<svg width="12px" height="12px" viewBox="0 0 12 12" version="1.1" xmlns="http://www.w3.org/2000/svg" xmlns:xlink="http://www.w3.org/1999/xlink">
    <title>形状结合备份@2x</title>
    <g id="形状结合备份" stroke="none" stroke-width="1" fill="none" fill-rule="evenodd">
        <g transform="translate(1.000000, 1.000000)" fill-rule="nonzero">
            <path d="M2.22176248,2.60861318 C2.36231727,2.48184384 2.56413849,2.4660508 2.7199566,2.56120312 L2.78360653,2.60877517 L7.35589021,6.73729463 C7.53206494,6.89637067 7.54906951,7.17171332 7.39387099,7.35228964 C7.25591675,7.51280193 7.02833677,7.54440802 6.85573344,7.43772577 L6.79386665,7.39121934 L2.50174452,3.51613991 L-1.79404606,7.39138134 C-1.95072341,7.53269194 -2.18037614,7.53449933 -2.33840704,7.40626903 L-2.39402894,7.35210565 C-2.53189506,7.19151383 -2.5336584,6.9561234 -2.40855375,6.79414421 L-2.35571061,6.73713263 L2.22176248,2.60861318 Z" id="路径-7" fill="#FF9124" transform="translate(2.500000, 5.000000) rotate(-90.000000) translate(-2.500000, -5.000000) "></path>
            <path d="M6.43480206,3.00717765 C6.55193106,2.90153654 6.72011541,2.88837567 6.84996383,2.96766927 L6.90300544,3.00731264 L10.7132418,6.44774552 C10.8600541,6.58030889 10.8742246,6.8097611 10.7448925,6.96024137 C10.6299306,7.09400161 10.4402806,7.12034002 10.2964445,7.03143815 L10.2448889,6.99268278 L6.66812043,3.76344993 L3.08829495,6.99281778 C2.95773049,7.11057661 2.76635322,7.11208277 2.6346608,7.0052242 L2.58830921,6.96008804 C2.47342078,6.82626153 2.47195134,6.63010283 2.57620521,6.49512017 L2.62024116,6.44761053 L6.43480206,3.00717765 Z" id="路径-7备份" fill-opacity="0.403196" fill="#FF9124" transform="translate(6.666667, 5.000000) rotate(-90.000000) translate(-6.666667, -5.000000) "></path>
        </g>
    </g>
</svg>