<?xml version="1.0" encoding="UTF-8"?>
<svg width="18px" height="14px" viewBox="0 0 18 14" version="1.1" xmlns="http://www.w3.org/2000/svg" xmlns:xlink="http://www.w3.org/1999/xlink">
    <title>Sheet/Betting Sheet/_resource/Icon_Video_Normal备份 3@2x</title>
    <g id="页面-1" stroke="none" stroke-width="1" fill="none" fill-rule="evenodd">
        <g id="虚拟体育备份-2" transform="translate(-133.000000, -475.000000)" fill-rule="nonzero">
            <g id="Sheet/Betting-Sheet/_resource/Icon_Video_Normal备份-3" transform="translate(134.000000, 476.000000)">
                <path d="M7.14051423,3.47156469 L10.2857579,5.78718204 C10.374708,5.8526696 10.3937281,5.97786605 10.3282405,6.06681613 C10.317094,6.0819562 10.3038683,6.09544896 10.2889541,6.10689596 L7.16550073,8.504222 C6.99025464,8.63872761 6.73915128,8.60570093 6.60464566,8.43045484 C6.55137585,8.36105011 6.52233066,8.27609414 6.52196036,8.18860384 L6.50336636,3.79537438 C6.50243137,3.57446246 6.6807579,3.39462 6.90166982,3.39368501 C6.98758231,3.39332139 7.07132898,3.42062856 7.14051423,3.47156469 Z" id="形状结合" fill="#499B16"></path>
                <path d="M14.2980423,12 L1.70195765,12 C0.76388334,12 0,11.2924633 0,10.4235846 L0,1.57641544 C0,0.707536697 0.76388334,0 1.70195765,0 L14.2980423,0 C15.2361167,0 16,0.707536697 16,1.57641544 L16,10.4235846 C16,11.2924633 15.2361167,12 14.2980423,12 L14.2980423,12 Z" id="路径备份-12" stroke="#499B16"></path>
            </g>
        </g>
    </g>
</svg>