<?xml version="1.0" encoding="UTF-8"?>
<svg width="22px" height="22px" viewBox="0 0 22 22" version="1.1" xmlns="http://www.w3.org/2000/svg" xmlns:xlink="http://www.w3.org/1999/xlink">
    <title>游泳选中</title>
    <defs>
        <circle id="path-1" cx="11" cy="11" r="11"></circle>
        <linearGradient x1="24.2088909%" y1="32.9464164%" x2="79.175279%" y2="73.4598807%" id="linearGradient-3">
            <stop stop-color="#EF8A6E" offset="0%"></stop>
            <stop stop-color="#EC625F" offset="100%"></stop>
        </linearGradient>
        <path d="M0.331092837,0.813093531 C1.43538349,1.2571186 1.79129859,0.819103424 2.64379615,0.813154539 C2.73576413,0.853672511 2.82537024,0.907082046 2.90860749,0.98090818 C4.0963028,1.98908689 5.2161026,3.1130533 5.49845124,3.41282596 C5.68668366,3.6126744 5.90722402,3.87006899 6.16007233,4.18500974 C5.53084056,4.4142171 4.92988841,4.74669594 4.35721588,5.18244627 C3.71549225,5.24213865 2.37345124,4.8778198 0.331092837,4.08948972 L0.331092837,4.08948972 L0.331092837,3.65586697 L0.331092837,3.65586697 C0.331092837,3.92658689 1.51878815,1.82127224 0.331092837,0.813093531 Z" id="path-4"></path>
        <path d="M0.00185699723,1.80803875 C-0.0478433237,2.04833517 0.914503141,2.19810565 1.15859528,2.52422527 C1.78313796,3.35864636 2.47231598,4.16558269 3.26406403,4.91463816 C5.45229645,6.67669109 6.2926529,7.30889324 7.87990876,7.7574116 C7.87990876,8.02813152 9.06760407,5.92281687 7.87990876,4.91463816 C8.99172363,5.36168865 9.34492991,4.91463816 10.2101074,4.91463816 C9.83254547,4.8065739 9.35,4.8065739 9.34004862,4.37948191 C9.70202955,4.05357113 9.86619517,3.63880622 9.83254547,3.13518719 C10.1471197,1.67148276 9.80910695,0.70441173 8.81850739,0.233974099 C6.77663727,-0.444826878 6.48100739,0.531459451 6.11184235,0.912775077 C5.86573232,1.16698549 5.86573232,1.57140444 6.11184235,2.12603191 C5.85622711,3.16037436 6.01548818,3.9731185 6.58962555,4.56426433 C7.62333323,4.79784689 7.85974274,4.91463816 7.29885407,4.91463816 C5.65977529,4.80012553 4.57876129,4.62174012 4.05581208,4.37948191 C3.27138825,4.01609461 1.66250153,1.80803875 1.15859528,1.80803875 C0.654689028,1.80803875 0.045418395,1.59742345 0.00185699723,1.80803875 Z" id="path-6"></path>
    </defs>
    <g id="游泳选中" stroke="none" stroke-width="1" fill="none" fill-rule="evenodd">
        <g id="编组-2">
            <path d="M10.9900486,8.38040312 C10.7975537,8.6078842 10.826345,8.99907879 10.5046387,8.5 C10.1829323,8.00092121 10.4232413,8.06727091 10.0491539,7.55224609 C10.5046387,6.84821437 9.72619629,6.1081543 9.14355469,6.84821437 C8.92561913,6.72207505 8.7438702,6.47538836 8.59830789,6.1081543 L8.84881592,4.9543457 L11.0837057,4.9543457 L11.5,7.32373047 C11.5,7.77519096 11.3300162,8.12741518 10.9900486,8.38040312 Z" id="路径-2" stroke="#8C1E18"></path>
            <g id="编组">
                <g id="位图">
                    <mask id="mask-2" fill="white">
                        <use xlink:href="#path-1"></use>
                    </mask>
                    <use id="蒙版" fill="#F7FCFF" xlink:href="#path-1"></use>
                </g>
                <path d="M8.41807352,13.5161689 C12.1361741,16.0041776 16.6172438,16.1373749 21.9848135,13.003895 C21.0435723,18.1219225 16.5583787,22 11.1674115,22 C5.28818573,22 0.486234833,17.3876382 0.182648808,11.5840045 C3.31375657,11.2925373 6.05841663,11.9371781 8.41807352,13.5161689 Z" id="形状结合" fill="#75DFDF" opacity="0.603306362" transform="translate(11.083706, 16.757646) scale(-1, 1) translate(-11.083706, -16.757646) "></path>
                <path d="M8,11.9938965 C12.9998505,13.8146498 14.3687324,14.8922522 21.9845007,11.5410166 C21.7054214,17.3643146 16.8940719,22 11,22 C5.04085429,22 0.188470616,17.2613884 0.00535915162,11.3466755 C2.13983589,10.6142235 4.80448732,10.8302136 8,11.9938965 Z" id="形状结合" fill="#7AB8F3" opacity="0.80061849"></path>
            </g>
            <g id="路径-48" transform="translate(9.198816, 8.102466)">
                <mask id="mask-5" fill="white">
                    <use xlink:href="#path-4"></use>
                </mask>
                <use id="蒙版" fill="url(#linearGradient-3)" xlink:href="#path-4"></use>
                <polygon fill-opacity="0.0753933566" fill="#000000" mask="url(#mask-5)" points="0.651281738 3.00092121 1.21897129 4.52778318 0.331092837 4.28291013 -0.35 3.89845537"></polygon>
                <path d="M1.88488981,4.52778318 C2.48192006,4.29389646 2.93548432,4.23542478 3.24558258,4.35236814 C3.55568085,4.4693115 3.94205322,4.74810508 4.40469971,5.18874889 L4.40469971,5.42255857 L2.30118408,5.18874889 L1.80118408,4.85822752 L1.88488981,4.52778318 Z" id="路径-4" fill-opacity="0.0828234266" fill="#000000" mask="url(#mask-5)"></path>
            </g>
            <g id="路径-47" transform="translate(1.650000, 4.000921)">
                <mask id="mask-7" fill="white">
                    <use xlink:href="#path-6"></use>
                </mask>
                <use id="蒙版" fill="#F7B69A" xlink:href="#path-6"></use>
                <path d="M6.58962555,4.56426433 C6.99575246,4.46340029 7.27692057,4.32924501 7.43312988,4.16179851 C7.66744385,3.91062877 7.74295588,3.43405874 7.87990876,3.26922039 C8.01686163,3.10438204 8.13136674,2.99907879 8.39915395,2.99907879 C8.66694115,2.99907879 8.66694115,3.26922039 8.76778721,3.26922039 C8.83501791,3.26922039 9.26298621,3.51281359 10.0516921,4 L11.3443848,4.74116183 L11.7190186,5.39031414 L8.53293231,5.2317448 L7.6456543,4.91463816 L6.83005145,4.74116183 L6.58962555,4.56426433 Z" id="路径" fill-opacity="0.0813483392" fill="#000000" mask="url(#mask-7)"></path>
                <path d="M9.53963623,4.22368816 C9.34714135,4.45116924 9.18083963,4.45059092 9.00081787,4.34270672 C8.82079611,4.23482251 8.7370934,4.14642334 8.60268555,3.64220623 C8.8226356,2.93346599 8.18517466,2.68292008 7.87990876,2.99907879 C7.55971833,2.99907879 7.2491847,2.70781902 6.94830789,2.12529949 L7.40050803,0.699078788 L9.63539784,0.699078788 L10.0516921,3.06846355 C10.0502891,3.58562535 9.87960381,3.97070022 9.53963623,4.22368816 Z" id="路径-2" fill="#8C1F18" mask="url(#mask-7)"></path>
                <path d="M6.85444412,-0.585149728 C6.40360124,0.0789865645 6.09781892,0.587246656 5.93709717,0.939630545 C5.77637542,1.29201444 5.77637542,1.45418485 5.93709717,1.42614178 C5.95239665,1.88305096 6.07869873,2.17343588 6.31600342,2.29729656 C6.67196045,2.48308758 7.18166351,2.46575253 7.53078613,2.55602353 C7.87990876,2.64629452 8.1769043,2.64629452 8.5,2.83580974 C8.71938477,3.0843449 9.08180355,3.26922039 9.43370573,3.26922039 C9.66830718,3.26922039 9.8164917,3.17917319 9.87825928,2.99907879 L11.7190186,0.423883475 L8.33522949,-1.3899593 L6.85444412,-0.585149728 Z" id="路径-32" fill="#F08658" mask="url(#mask-7)"></path>
                <path d="M7.87990876,4.91463816 C7.40004934,6.11314383 6.84143473,6.67117758 6.20406494,6.58873943 C5.56669515,6.50630128 5.11800537,6.35468995 4.85799561,6.13390545 L6.60592041,7.78123147 C7.81954346,8.0729067 8.42635498,8.21874431 8.42635498,8.21874431 C8.42635498,8.21874431 8.79744873,7.61994874 9.53963623,6.4223576 L8.95931396,5.2438908 L7.87990876,4.91463816 Z" fill-opacity="0.0824409965" fill="#010101" mask="url(#mask-7)"></path>
                <path d="M5.5,1.45940594 C6.19765643,1.78451987 6.7639284,2.00823406 7.19881592,2.13054851 C7.63370343,2.25286297 8.15669386,2.25286297 8.76778721,2.13054851 C9.15592907,1.96998536 9.41321208,1.74627117 9.53963623,1.45940594 C9.72927246,1.02910808 9.54567795,0.684270822 9.35,-4.53304061e-13 C9.21954804,-0.456180548 7.9362147,-0.684352202 5.5,-0.684514962 L5.5,1.45940594 Z" id="路径-3" fill="#F3A46A" opacity="0.900000036" mask="url(#mask-7)"></path>
            </g>
        </g>
    </g>
</svg>