<?xml version="1.0" encoding="UTF-8"?>
<svg width="22px" height="22px" viewBox="0 0 22 22" version="1.1" xmlns="http://www.w3.org/2000/svg" xmlns:xlink="http://www.w3.org/1999/xlink">
    <title>跳水未选中</title>
    <g id="跳水未选中" stroke="none" stroke-width="1" fill="none" fill-rule="evenodd">
        <path d="M20.508427,13.3 L20.508427,13.9694336 L18.5378418,15.2077148 L18.5378418,16.5211914 L9.36328125,21.8175781 L2,17.5589111 L2,15.3997314 L2.77786042,15.898877 C2.71422251,16.1144246 2.66606649,16.3218628 2.63339233,16.5211914 C2.5843811,16.8201843 2.97994995,17.2713318 3.30618286,17.4709473 C3.63241577,17.6705627 3.90371049,17.7868412 4.16339111,17.79599 C4.42307174,17.8051388 4.59164429,17.7927246 4.59164429,17.5162354 C4.59164429,17.3319092 4.57770793,17.1181539 4.54983521,16.8749695 L5.77148437,17.5589111 L5.55722046,18.0430298 C5.4610494,18.2374878 5.44523112,18.411499 5.50976562,18.5650635 C5.60656738,18.7954102 6.57891846,19.3285828 6.77130127,19.4051514 C6.96368408,19.48172 7.30215454,19.5290527 7.4147171,19.3331909 C7.48975881,19.2026164 7.58349406,19.0166667 7.69592285,18.7753418 L9.36328125,19.6217773 L20.508427,13.3 Z M11.9400545,7.04610018 L11.9331065,7.06780292 C11.7285945,7.77236058 11.4155746,8.33730155 10.9947314,8.76488179 L10.8318623,8.91879 L10.780846,9.03149414 L10.7782098,9.32946246 C10.7697226,9.78997666 10.7404958,10.1773112 10.6869769,10.5598504 L10.6422274,10.8469242 L10.5908883,11.1252835 L10.5265762,11.4346652 L10.1630343,13.024892 C10.0481176,13.5409585 9.89410333,13.992166 9.70143729,14.3786382 L9.647,14.4784308 L9.65440712,14.465014 C8.9655046,15.5169612 8.99083769,15.6852883 8.1786499,16.9926758 C7.99516905,17.2880269 7.81378868,17.4633789 7.72174767,17.5983792 C7.39630127,18.2891541 7.47106983,18.5419616 7.09399414,19.1051025 C6.94458008,19.2070923 6.80926514,19.132864 6.75373009,19.0440579 C6.60077599,19.0440579 6.48873901,19.0440579 6.40814903,18.9030056 C6.20181274,18.9030056 6.10858154,18.8363037 6.02930382,18.601553 C5.81055382,18.601553 5.75877648,18.386795 5.8301461,18.2112332 C6.04451257,17.6839141 6.32984093,17.4091702 6.60077599,17.1957913 C6.83997241,17.0074086 7.28510748,16.1282629 7.66613268,15.2649334 L7.66726239,15.2652289 L7.68948586,15.2118572 C7.73192378,15.1151101 7.77348515,15.0187443 7.81378868,14.9237576 C7.83260263,14.8794172 7.83721035,14.8770709 7.82374762,14.8930502 L7.8466737,14.8380654 L8.09753692,14.2094302 L8.20931296,13.9056347 L8.31049793,13.5988043 C8.33908151,13.5060341 8.36270858,13.4227261 8.38194384,13.3487467 L8.37376468,13.3870418 C8.72370284,12.2745104 8.36647002,9.4925924 8.35517052,9.49118042 C8.02134304,9.49118042 7.61643679,9.39206149 7.29472226,9.05169103 L7.24886042,8.99870773 L7.3349495,8.8049588 C8.23296001,6.95651528 10.6438937,6.70412707 11.9400545,7.04610018 Z M16.4904244,2.71880154 C16.8879395,3.70227051 16.4195862,4.73760986 16.1641305,5.2619534 C15.3919678,6.97332764 13.3207397,9.07803345 12.5755074,10.1107083 C12.829834,10.6766663 13.0769279,10.8058567 13.2246094,11.6194458 C13.2842753,12.0686143 13.1265177,13.0358205 13.0285577,13.6236998 L12.9858443,13.8818744 C12.9682626,13.991002 12.9573059,14.067074 12.9573059,14.0960693 C12.9573059,14.3416233 13.1812814,14.6419983 13.1812814,14.7857361 C13.1812814,15.1584473 12.994873,15.3585815 12.8836975,15.7107544 C12.7397156,16.1019287 12.6768188,16.3854886 12.5107422,16.7584134 C12.4031913,16.9926758 12.1195679,17.4628601 11.8565743,17.555481 C11.5419922,17.5983792 11.2592863,17.6473389 10.7320016,17.555481 C10.2047168,17.463623 10.1448091,17.3017458 10.2195129,16.9926758 C10.3132019,16.7020874 10.7960205,16.1966553 11.2542135,15.451355 C11.4814148,15.0894165 11.6389465,14.6358643 11.8565743,14.3546143 C11.5072632,13.0479526 11.2592863,12.2604675 11.1353219,11.7590237 C11.0715899,11.5012241 10.983707,11.2749306 10.9046517,11.0757729 L10.9379157,10.8976038 L10.9770217,10.6509333 C11.0247469,10.3225603 11.0549826,9.99297319 11.069837,9.62259703 L11.0781267,9.33654861 L11.08,9.097 L11.1913922,8.99263608 C11.656313,8.52703392 11.9987469,7.9145948 12.2193991,7.15764374 L12.225,7.13443084 L12.3033527,7.01488322 C12.8690614,6.18452518 14.5731414,4.39903346 14.878172,4.04024233 L14.9110177,4.00017361 C15.0042197,3.87897171 15.0830259,3.44649841 15.3908081,3.11236572 C15.7056357,2.77058445 16.2511253,2.53044999 16.4904244,2.71880154 Z M7.24396446,7.13915067 C7.61584473,7.65625 7.52908012,8.0604248 7.03180626,8.67638211 C6.54171753,9.2203064 6.60077599,9.89984131 6.44934082,10.2727661 C6.26998901,10.6322021 5.78494263,10.9035425 5.53775024,10.9454346 C5.45543739,11.1952915 5.36352096,11.4414979 5.26858521,11.7020874 C4.4821167,13.8102112 4.08560181,14.9608765 4.08560181,15.3585815 C4.08560181,15.584624 4.13768106,15.7807087 4.19574669,16.0136414 C4.23984327,16.1905366 4.16714557,16.3631955 4.19574669,16.5944214 C4.22852268,16.859399 4.23496894,16.8582813 4.23562467,16.9481392 L4.23511093,17.081547 L4.23483276,17.1957913 C4.23483276,17.3970852 4.33362511,17.4659424 4.19574669,17.555481 C4.05532837,17.555481 3.96489353,17.4091702 3.96489353,17.1957913 C3.96489353,16.9824124 3.78552329,16.7111171 3.73444298,16.7584134 C3.67029801,16.8178065 4.01997081,17.3431702 3.78952026,17.3431702 C3.55906971,17.3431702 3.01271889,16.9163913 2.94003296,16.5944214 C2.94003296,16.3439331 3.32418823,15.5091458 3.38809204,14.7165222 C3.38809204,13.8785502 3.47904264,12.4391106 3.44794138,10.7529396 L3.44438139,10.6335725 C3.78794819,10.7260793 4.21455983,10.7247693 4.71530436,10.5916179 C5.87354513,10.2836339 6.39091994,9.83276852 6.5826788,9.19140607 C6.73923093,8.77969342 6.71246876,8.22653469 6.58411902,7.73390969 C6.53217752,7.53455061 6.27597624,7.23212667 5.98577531,6.98085027 L5.98822021,6.98239136 C6.07028198,6.77282715 6.97213432,6.73374394 7.24396446,7.13915067 Z M7.99761765,13.5844155 L7.92609354,13.8067066 L7.90216822,13.8741823 L7.90216822,13.8741823 L7.87596746,13.9461686 L7.75001299,14.2757059 L7.56928527,14.7238004 L7.45384188,15.0004858 C7.20752659,14.8522758 7.22627476,13.9161227 7.46139526,13.7454834 C7.64246464,13.6140718 7.78150502,13.6023354 7.99761765,13.5844155 Z M10.7512452,11.7999355 C10.7739842,12.1082781 10.7960205,12.3897436 10.7960205,12.5257874 C10.7960205,12.8360291 11.0050729,13.3499451 11,13.7454834 C11,13.8331299 11.0050729,14.0426541 10.7320016,14.1564236 C10.4979405,14.2539404 10.2976455,14.1842855 10.1713978,14.162394 L10.13,14.1574308 L10.2232774,13.9107278 C10.2832285,13.7410684 10.3376587,13.5629376 10.386589,13.3763412 L10.4558622,13.0900983 L10.7512452,11.7999355 Z M4.90997351,6.76782142 L5.21005463,6.83820129 C5.52465287,6.91522881 6.22713126,7.55362208 6.29381066,7.80954734 C6.40790013,8.24743935 6.43192342,8.74398697 6.29871184,9.09524825 C6.13526077,9.64057669 5.70087202,10.019124 4.63821127,10.3016926 C3.90427509,10.4968512 3.38142783,10.3815951 3.07396232,10.1145508 C3.00282653,10.0365406 2.93490339,9.93496506 2.88349083,9.79820828 C2.41301709,7.83479581 3.6369434,7.00947781 4.14422652,6.74788557 C4.3953313,6.69903614 4.62630613,6.71027789 4.90997351,6.76782142 Z M12.3098755,-1.75961849e-12 C13.2065969,-0.0663877899 13.8352051,0.476013184 14.2109375,0.81439209 C14.6782837,0.97467041 15.066843,0.892364176 15.5863037,1.26031494 C16.0768433,1.71429443 16.2889404,1.93920898 16.3878174,2.34460449 C16.0421753,2.34460449 15.6931865,2.35361851 15.3421631,2.65270773 C14.8338726,3.08579625 14.746165,3.46585017 14.6259766,3.88406306 C14.555275,3.95497829 14.4879446,4.02238941 14.4235776,4.08680166 L14.0696718,4.44133022 C13.3657811,5.1490185 13.0248146,5.52065736 12.1505737,6.66619873 C11.453064,6.50036621 10.4406738,6.58416748 9.89050293,6.66619873 C9.34033203,6.74822998 8.40893555,7.0562285 7.76324463,7.77172852 C7.71209627,7.46270752 7.65002352,6.97407518 7.17529297,6.66619873 C6.79641634,6.42048631 6.36309814,6.50428758 5.98327637,6.66619873 C6.44372559,5.71783447 6.51635742,4.82476807 6.44372559,4.39801025 C6.66418457,4.10089111 6.92596436,3.99148494 7.01074219,3.88406306 C7.09552002,3.77664119 8.15875244,3.42523193 8.796875,3.034729 C9.43499756,2.64422607 9.53955078,1.99694824 10.1491089,1.14910889 C10.758667,0.301269531 11.208611,0.0815309112 12.3098755,-1.75961849e-12 Z M6.18786621,4.6159668 C6.18786621,4.80207248 6.23463903,5.25835988 5.98327637,5.9543457 C5.90223504,6.1787371 5.74474655,6.44397162 5.62177406,6.67056928 L5.594,6.72143084 L5.60633366,6.6974854 C5.4873299,6.62358218 5.37501403,6.56972921 5.28140044,6.54680847 L5.15731501,6.51612633 C4.89794697,6.45253349 4.67690427,6.41680401 4.46103616,6.41663551 C4.76080491,5.91997864 5.28772321,5.41666678 6.18786621,4.6159668 Z" id="形状结合" fill="#CBCED8"></path>
    </g>
</svg>