<?xml version="1.0" encoding="UTF-8"?>
<svg width="22px" height="22px" viewBox="0 0 22 22" version="1.1" xmlns="http://www.w3.org/2000/svg" xmlns:xlink="http://www.w3.org/1999/xlink">
    <title>网</title>
    <g id="网" stroke="none" stroke-width="1" fill="none" fill-rule="evenodd">
        <path d="M21.4873327,12.3163529 C21.6858827,12.1821222 21.9443827,12.3565121 21.9102827,12.5936164 C21.2678827,16.9616169 18.0206827,20.6958722 13.4578827,21.7345101 C12.4893327,21.9551106 11.5235327,22.0277272 10.5753327,21.9908688 L10.5753327,21.9908688 L10.2244327,21.7405615 C7.67628266,19.9251457 6.57078266,17.6553258 7.33858266,15.8173548 C8.14213266,13.8963148 10.8244827,13.0342674 14.1789327,13.6196014 C17.7929827,14.2511461 20.1975827,13.1921535 21.4873327,12.3163529 Z M12.1394227,0.0417765897 C16.7082727,0.511034068 20.6776227,3.82059209 21.7534227,8.54837493 C21.8931227,9.1612153 21.9651727,9.77185516 21.9998227,10.3791943 L21.9998227,10.3791943 L21.7820227,10.6377535 C21.7583727,10.6658099 19.3851227,13.4153397 14.3685727,12.5340378 C9.66442266,11.7115994 7.12617266,13.4709024 6.32317266,15.3924925 C5.58947266,17.1468443 6.11307266,19.1471025 7.68277266,20.9366623 C7.86977266,21.1501112 7.66187266,21.4796367 7.39347266,21.3866654 C3.93177266,20.1780386 1.14877266,17.2772242 0.274822663,13.4378948 C-0.256477337,11.1015097 0.00422266325,8.77392659 0.869922663,6.72305686 C0.950222663,6.53326339 1.21422266,6.50025583 1.33852266,6.66584376 C1.98642266,7.53064183 2.75752266,7.99219755 3.64082266,8.03235674 C3.68262266,8.03400712 3.72442266,8.03510737 3.76732266,8.03510737 C6.50632266,8.03455725 9.43342266,4.04614375 11.9683727,0.294284424 L11.9683727,0.294284424 Z M10.3056677,0.000572152321 C10.5317177,-0.0137311237 10.6730677,0.243177718 10.5454677,0.430770684 C8.82726766,2.94429638 5.92436766,6.93326001 3.76781766,6.93326001 C3.74196766,6.93326001 3.71611766,6.93270988 3.69026766,6.93160963 C2.98846766,6.89970232 2.38346766,6.40678942 1.84281766,5.42481451 L1.84281766,5.42481451 L1.68496766,5.13874899 C3.18536766,2.74680115 5.59931766,0.927534463 8.56986766,0.251429608 C9.15066766,0.119399368 9.72981766,0.0374305943 10.3056677,0.000572152321 Z" id="形状结合备份" fill="#CBCED8"></path>
    </g>
</svg>