<?xml version="1.0" encoding="UTF-8"?>
<svg width="22px" height="22px" viewBox="0 0 22 22" version="1.1" xmlns="http://www.w3.org/2000/svg" xmlns:xlink="http://www.w3.org/1999/xlink">
    <title>篮选备份 2</title>
    <g id="篮选备份-2" stroke="none" stroke-width="1" fill="none" fill-rule="evenodd">
        <path d="M9.96156993,7.95785789 L10.008605,7.96957584 C10.4271055,8.14406798 10.8384474,8.33232134 11.2442828,8.53048276 C11.3235776,8.56901415 11.3544145,8.66479217 11.3191723,8.74625853 C10.3219297,11.0487842 12.0487949,13.1063603 13.495375,14.8160531 C14.4524196,15.9483254 15.4425036,17.1191292 15.6490006,18.2464475 C15.8373258,19.2752356 15.3108963,20.6177792 14.7007666,21.2271256 L14.7007666,21.2271256 L14.4992255,21.4291402 C11.9298527,22.289491 9.0901065,22.1854563 6.54771593,21.0619911 L6.54771593,21.0619911 L6.53560144,20.7801615 C6.33846567,16.1530922 7.4623598,11.7880364 9.79880407,8.03728099 C9.84230609,7.96737405 9.93206344,7.93820028 10.008605,7.96957584 Z M12.2789702,9.28751445 C12.314763,9.19338777 12.4342559,9.15320504 12.5218106,9.20274539 C14.2172884,10.1643788 15.7784054,11.3340816 17.1434879,12.6986432 C18.3207959,13.8749514 19.2359905,15.0281408 20.2040482,16.5561856 L20.2040482,16.5561856 L20.3516247,16.7901262 C20.1214494,17.1605779 19.8742037,17.5255252 19.5944692,17.87506 C18.7822478,18.8917382 17.8230006,19.7212639 16.7750974,20.3663894 C16.6462433,20.445654 16.4865523,20.31795 16.5339089,20.1742829 C16.7596789,19.4884242 16.8576961,18.7387135 16.732146,18.0490017 C16.4727858,16.6321475 15.3868871,15.3474009 14.3362306,14.1055893 C12.7266556,12.2021387 11.7024307,10.7951926 12.2789702,9.28751445 Z M7.64601475,7.14459818 L7.69242494,7.15116916 C8.00905361,7.24474538 8.32458097,7.3438261 8.63570305,7.45006264 C8.73537225,7.48419044 8.77612099,7.60143595 8.72160579,7.69115904 C6.47161491,11.4022822 5.34056223,15.6682573 5.41985706,20.1879891 C5.4220597,20.3173445 5.28219242,20.4010126 5.17151005,20.3333075 C4.81027804,20.1114768 4.45565393,19.8714813 4.11534694,19.5995598 C1.69189861,17.6630823 0.310296285,14.9108403 0.0366189806,12.0485086 L0.0366189806,12.0485086 L0.259635697,11.9208046 C0.933641775,11.5354907 1.60599588,11.2002676 2.25687429,10.8771544 C4.09552323,9.9617587 5.83340164,9.09535291 7.52227145,7.20125996 C7.56467216,7.15337095 7.63130184,7.13300436 7.69242494,7.15116916 Z M13.1105748,8.03706081 C15.1546194,5.86554187 18.3737693,6.08296899 20.7118655,6.64552725 L20.7118655,6.64552725 L21.152943,6.75231424 C22.2966609,9.49244639 22.2928063,12.62725 21.0753002,15.406464 C21.0229876,15.5259113 20.8539354,15.5358194 20.7812485,15.4268306 C19.8930363,14.0881401 19.0147359,13.0125639 17.9222293,11.9204743 C16.5092394,10.5085741 14.8985631,9.29593631 13.1507729,8.29522111 C13.1331518,8.18237919 13.1281959,8.14990274 13.1105748,8.03706081 Z M1.10241862,6.16938939 L1.37224132,6.17379297 C2.96860048,6.19966405 4.54843989,6.39452278 6.08477728,6.73580079 C6.21253006,6.76387366 6.25878538,6.92900818 6.16517343,7.02093306 C4.77365924,8.3860451 3.3072555,9.12419641 1.76596219,9.89097103 C1.27202146,10.136471 0.764314268,10.3940809 0.248897856,10.6737087 C0.136012851,10.7348084 -0.00550639921,10.6516907 1.86391985e-07,10.5239867 C0.0633259208,9.03502377 0.424557936,7.55266622 1.10241862,6.16938939 L1.10241862,6.16938939 Z M16.3899668,1.41802887 C16.8998766,1.70591339 17.3976719,2.02517346 17.8695863,2.40168017 C18.8624237,3.19542676 19.6729931,4.1295377 20.311757,5.14951859 C20.3882986,5.27061724 20.2798188,5.42474279 20.1382996,5.39777082 C17.6250939,4.92823833 14.4824855,4.98603541 12.3206,7.26929538 C12.1933979,7.40305434 12.0882221,7.53571241 11.9813943,7.66782003 C11.4962641,7.42452183 11.004526,7.19388395 10.5017748,6.98306221 C10.6504526,6.77279092 10.8002317,6.56307008 10.9571694,6.35720238 C12.1856887,4.74273722 13.9411881,3.13267564 16.1741086,1.56995263 L16.1741086,1.56995263 Z M7.06478431,0.7216566 C9.59285776,-0.240527206 12.4237934,-0.250435278 14.990413,0.751380814 C15.1121085,0.798168928 15.1286283,0.965505242 15.0229018,1.04201757 C12.9430644,2.55409933 11.2789743,4.11572144 10.0807412,5.69055432 C9.88580812,5.94596238 9.69858421,6.20522358 9.51631622,6.46668657 C9.47446617,6.52723589 9.39792463,6.55200607 9.32854166,6.52668544 C9.00971035,6.41219218 8.68922707,6.30320339 8.36599049,6.20137044 C8.27733446,6.17384802 8.23328178,6.08082224 8.26411866,5.99330094 C8.7299758,4.65075729 8.30156344,2.96748608 6.98879343,0.971560174 C6.93042363,0.882937982 6.96621643,0.759087091 7.06478431,0.7216566 Z M5.86109977,1.26329783 L5.90129784,1.32164536 C7.17001517,3.16509706 7.59126896,4.63479429 7.17552175,5.71257226 C7.14633685,5.79018548 7.05933279,5.83036822 6.9794873,5.81000163 C5.36000048,5.40542205 3.68930241,5.16707789 1.99822997,5.09772139 C1.86992652,5.09221691 1.79338498,4.94910033 1.86552126,4.84286378 C2.02961751,4.59956559 2.20362561,4.35957009 2.39029886,4.12617996 C3.36881913,2.90308362 4.5571403,1.94860609 5.86109977,1.26329783 L5.86109977,1.26329783 Z" id="形状结合" fill="#CBCED8"></path>
    </g>
</svg>