<?xml version="1.0" encoding="UTF-8"?>
<svg width="22px" height="19px" viewBox="0 0 22 19" version="1.1" xmlns="http://www.w3.org/2000/svg" xmlns:xlink="http://www.w3.org/1999/xlink">
    <title>美式足球备份@2x</title>
    <g id="控件" stroke="none" stroke-width="1" fill="none" fill-rule="evenodd">
        <g id="美足" transform="translate(0.000000, -1.000000)" fill="#CBCED8">
            <path d="M11.4759888,1 C16.2989888,1 20.5919888,4.393 21.7059888,9.102 C22.3539888,11.842 21.9229888,14.665 20.4909888,17.051 C20.4099888,17.187 20.2699888,17.279 20.1129888,17.301 L20.1129888,17.301 L15.0609888,17.983 C14.1179888,19.25 12.6369888,20 11.0529888,20 C8.57698876,20 6.44898876,18.147 6.10098876,15.692 C6.04998876,15.333 6.05598876,14.939 6.11498876,14.525 L6.11498876,14.525 L5.51198876,14.52 L5.20598876,16.485 C4.97198876,18.228 3.75898876,19.563 2.11598876,19.875 L2.11598876,19.875 L1.67798876,19.984 C1.63698876,19.994 1.59398876,20 1.55198876,20 C1.45298876,20 1.35498876,19.971 1.26898876,19.916 C1.14798876,19.838 1.06398876,19.713 1.03798876,19.57 L1.03798876,19.57 L0.00898875805,14.054 C-0.020011242,13.9 0.021988758,13.741 0.122988758,13.62 C0.221988758,13.5 0.376988758,13.448 0.527988758,13.432 L0.527988758,13.432 L4.61698876,13.463 L5.10998876,10.287 L1.64898876,9.353 C1.51398876,9.316 1.39898876,9.227 1.32998876,9.104 C1.25998876,8.982 1.24298876,8.837 1.28198876,8.702 C2.57298876,4.139 6.63098876,1.044 11.3799888,1 L11.3799888,1 Z M4.09098876,16.716 L1.57098876,16.716 L1.96598876,18.834 C3.04398876,18.601 3.81898876,17.81 4.09098876,16.716 L4.09098876,16.716 Z M11.0529888,12.857 C9.88398876,12.857 8.93598876,13.809 8.93598876,14.981 C8.93598876,16.154 9.88398876,17.104 11.0529888,17.104 C12.2219888,17.104 13.1689888,16.154 13.1689888,14.981 C13.1689888,13.809 12.2219888,12.857 11.0529888,12.857 Z M11.0532888,13.9091 C11.6422888,13.9091 12.1212888,14.3891 12.1212888,14.9811 C12.1212888,15.5721 11.6422888,16.0541 11.0532888,16.0541 C10.4632888,16.0541 9.98428876,15.5721 9.98428876,14.9811 C9.98428876,14.3891 10.4632888,13.9091 11.0532888,13.9091 Z M1.15598876,14.487 L1.37598876,15.664 L4.27298876,15.664 L4.45298876,14.513 L1.15598876,14.487 Z M6.11498876,10.647 L5.67498876,13.471 L6.26598876,13.475 L6.52998876,11.672 C6.58798876,11.27 6.41898876,10.883 6.11498876,10.647 L6.11498876,10.647 Z M17.6029888,7.476 C17.4689888,7.306 17.2219888,7.275 17.0509888,7.412 C16.8809888,7.547 16.8529888,7.795 16.9869888,7.966 C17.1399888,8.159 17.2849888,8.38 17.4169888,8.62 C17.9189888,9.534 18.2129888,10.701 18.2449888,11.907 C18.2509888,12.121 18.4249888,12.291 18.6379888,12.291 L18.6379888,12.291 L18.6479888,12.291 C18.8649888,12.285 19.0369888,12.104 19.0309888,11.887 C18.9959888,10.557 18.6679888,9.262 18.1049888,8.239 C17.9519888,7.961 17.7829888,7.704 17.6029888,7.476 Z" id="美式足球备份"></path>
        </g>
    </g>
</svg>