<?xml version="1.0" encoding="UTF-8"?>
<svg width="22px" height="21px" viewBox="0 0 22 21" version="1.1" xmlns="http://www.w3.org/2000/svg" xmlns:xlink="http://www.w3.org/1999/xlink">
    <title>摩托车@2x</title>
    <defs>
        <polygon id="path-1" points="0 0.0002 21.9997 0.0002 21.9997 21 0 21"></polygon>
    </defs>
    <g id="页面-1" stroke="none" stroke-width="1" fill="none" fill-rule="evenodd">
        <g id="画板" transform="translate(-960.000000, -96.000000)">
            <g id="摩托车" transform="translate(960.000000, 96.000000)">
                <g id="编组">
                    <mask id="mask-2" fill="white">
                        <use xlink:href="#path-1"></use>
                    </mask>
                    <g id="Clip-2"></g>
                    <path d="M10.9997,0.0002 C4.9247,0.0002 -0.0003,4.9192 -0.0003,10.9862 L-0.0003,13.2332 C-0.0003,15.2662 1.3947,17.0322 3.3727,17.5072 L17.5117,20.8972 C17.8007,20.9672 18.0877,21.0002 18.3687,21.0002 C20.3197,21.0002 21.9997,19.4182 21.9997,17.3632 L21.9997,10.9862 C21.9997,4.9192 17.0747,0.0002 10.9997,0.0002 M10.9997,1.0002 C16.5147,1.0002 20.9997,5.4802 20.9997,10.9862 L20.9997,17.3632 C20.9997,18.8172 19.8197,20.0002 18.3687,20.0002 C18.1607,20.0002 17.9507,19.9752 17.7447,19.9252 L3.6057,16.5342 C2.0717,16.1662 0.9997,14.8092 0.9997,13.2332 L0.9997,10.9862 C0.9997,5.4802 5.4857,1.0002 10.9997,1.0002" id="Fill-1" fill="#000000" mask="url(#mask-2)"></path>
                </g>
                <path d="M21.3923,9.5452 C19.0483,9.7512 16.7053,9.8482 14.3613,9.9282 C13.7753,9.9522 13.1893,9.9752 12.6033,9.9822 L11.7243,9.9992 C11.4613,10.0082 11.2333,10.0432 10.9993,10.1192 C10.0753,10.4182 9.4083,11.3592 9.4753,12.3252 C9.4893,13.2892 10.2183,14.1842 11.1683,14.4022 C12.3023,14.6922 13.4463,14.9562 14.5753,15.2732 L17.9713,16.1912 C19.0953,16.5332 20.2273,16.8422 21.3443,17.2142 C20.1763,17.0642 19.0233,16.8502 17.8623,16.6692 L14.4043,16.0222 C13.2483,15.8162 12.1073,15.5582 10.9553,15.3252 C9.5913,15.0482 8.5153,13.7672 8.4773,12.3642 C8.4033,10.9612 9.3803,9.6052 10.7163,9.2192 C11.0433,9.1222 11.4023,9.0862 11.7243,9.0902 L12.6033,9.1082 C13.1893,9.1152 13.7753,9.1382 14.3613,9.1622 C16.7053,9.2422 19.0483,9.3392 21.3923,9.5452" id="Fill-3" fill="#000000"></path>
                <path d="M12.1482,13.4192 C12.4482,13.4132 12.7372,13.2602 12.8902,13.0202 C13.0482,12.7712 13.0572,12.5112 12.9712,12.2442 C12.9012,12.0122 12.7412,11.8552 12.5802,11.7702 C12.3962,11.6842 12.3012,11.6532 12.0452,11.6702 C11.7462,11.6762 11.3442,11.8132 11.2202,12.3462 C11.1482,12.5742 11.1922,12.8652 11.3712,13.0882 C11.5462,13.3152 11.8492,13.4312 12.1482,13.4192 M12.1482,13.4192 C11.5682,13.4782 10.8772,13.1042 10.7222,12.3462 C10.6272,12.0352 10.6822,11.5632 10.9342,11.2332 C11.1792,10.8912 11.6092,10.6752 12.0452,10.6712 C12.1692,10.6702 12.4562,10.6912 12.6382,10.7692 C12.8422,10.8442 13.0172,10.9802 13.1602,11.1312 C13.4422,11.4442 13.5472,11.8772 13.4742,12.2432 C13.3792,12.9652 12.7342,13.4422 12.1482,13.4192" id="Fill-5" fill="#FB292A"></path>
                <path d="M5.3513,5.3997 C5.1073,6.2337 4.7573,6.8627 4.4263,7.5157 C4.2463,7.8327 4.0833,8.1547 3.8903,8.4727 C3.6943,8.7957 3.5563,9.1287 3.2573,9.4827 C3.1413,9.0817 3.0793,8.6327 3.1513,8.2227 C3.2093,7.8067 3.3563,7.4137 3.5443,7.0457 C3.9453,6.3267 4.5293,5.6957 5.3513,5.3997" id="Fill-7" fill="#FB292A"></path>
            </g>
        </g>
    </g>
</svg>