<?xml version="1.0" encoding="UTF-8"?>
<svg width="22px" height="22px" viewBox="0 0 22 22" version="1.1" xmlns="http://www.w3.org/2000/svg" xmlns:xlink="http://www.w3.org/1999/xlink">
    <title>拳击未选中@2x</title>
    <g id="拳击未选中" stroke="none" stroke-width="1" fill="none" fill-rule="evenodd">
        <path d="M3.05415745,4.78913788 C3.05415745,4.00917637 3.75655196,3.36920795 4.61259527,3.36920795 L14.2156452,3.36920795 C15.0716885,3.36920795 15.774083,4.00917637 15.774083,4.78913788 L15.774083,6.92903228 C15.774083,9.49890547 13.4803259,11.5788028 10.6707479,11.5788028 L8.15749254,11.5788028 C5.3369396,11.5788028 3.05415745,9.48890597 3.05415745,6.92903228 L3.05415745,4.78913788 Z M5.66618703,20.5183617 L5.66618703,17.9484885 L12.0755369,17.9484885 L12.0755369,21.4683148 L6.70880387,21.4683148 C6.13810833,21.4683148 5.66618703,21.0383361 5.66618703,20.5183617 L5.66618703,20.5183617 Z M14.6546417,20.5183617 C14.6546417,21.0483356 14.1827204,21.4683148 13.6120249,21.4683148 L13.1181537,21.4683148 L13.1181537,17.9484885 L14.6546417,17.9484885 L14.6546417,20.5183617 Z M15.2033874,16.8785413 C14.742441,16.4985601 13.8095733,15.5286079 13.60105,13.7186972 C13.5681252,13.4587101 13.3157022,13.2687194 13.0303544,13.2887185 C12.7450067,13.318717 12.5364833,13.5487056 12.5584331,13.8086928 C12.7230568,15.3086188 13.337652,16.338568 13.8973726,16.9785364 L5.28206503,16.9785364 C3.84435127,16.1085793 3.28463065,12.7687441 3.10903203,10.1188749 C4.21749836,11.5688033 6.07225885,12.528756 8.15749254,12.528756 L10.659773,12.528756 C14.0510214,12.528756 16.8166998,10.0088803 16.8166998,6.91903278 L16.8166998,6.40905794 C17.1678971,6.39905844 17.6946929,6.45905548 18.1227146,6.76904018 C18.7043851,7.19901896 18.967783,8.0189785 18.9238833,9.21891929 C18.9238833,9.29891534 19.0007077,14.4986588 15.2033874,16.8785413 Z" id="形状" fill="#CBCED8" fill-rule="nonzero" transform="translate(10.991370, 12.418761) rotate(45.000000) translate(-10.991370, -12.418761) "></path>
    </g>
</svg>