<?xml version="1.0" encoding="UTF-8"?>
<svg width="23px" height="18px" viewBox="0 0 23 18" version="1.1" xmlns="http://www.w3.org/2000/svg" xmlns:xlink="http://www.w3.org/1999/xlink">
    <title>赛车备份@2x</title>
    <g id="页面-1" stroke="none" stroke-width="1" fill="none" fill-rule="evenodd">
        <g id="画板" transform="translate(-909.000000, -189.000000)" fill="#FF9124">
            <path d="M915.937137,205.36378 C916.028137,205.36378 916.102137,205.436632 916.102137,205.52622 L916.102137,205.52622 L916.102137,205.917062 C916.102137,206.512678 915.607137,207 915.002137,207 L915.002137,207 L911.223137,207 C910.619137,207 910.124137,206.512678 910.124137,205.917062 L910.124137,205.917062 L910.124137,205.52622 C910.124137,205.436632 910.198137,205.36378 910.289137,205.36378 L910.289137,205.36378 Z M929.733037,205.36378 C929.824037,205.36378 929.898037,205.436632 929.898037,205.52622 L929.898037,205.52622 L929.898037,205.917062 C929.898037,206.512678 929.403037,207 928.798037,207 L928.798037,207 L925.019037,207 C924.415037,207 923.920037,206.512678 923.920037,205.917062 L923.920037,205.917062 L923.920037,205.52622 C923.920037,205.436632 923.994037,205.36378 924.085037,205.36378 L924.085037,205.36378 Z M920.707637,192.773053 C920.866637,192.773053 920.992637,192.905959 920.981637,193.062493 L920.981637,193.062493 L920.180637,204.822212 L919.840637,204.822212 L919.038637,193.062493 C919.027637,192.905959 919.153637,192.773053 919.312637,192.773053 L919.312637,192.773053 Z M917.941037,192.773053 C918.086037,192.773053 918.206037,192.883316 918.215037,193.026067 L918.215037,193.026067 L919.007037,204.648942 C919.014037,204.742469 918.939037,204.822212 918.843037,204.822212 L918.843037,204.822212 L910.333037,204.822212 C910.185037,204.822212 910.046037,204.793662 909.914037,204.750345 C909.905037,204.746407 909.896037,204.744438 909.887037,204.741484 C909.826037,204.719825 909.767037,204.693244 909.711037,204.662725 L909.667037,204.640082 C909.616037,204.609563 909.569037,204.578059 909.523037,204.543602 C909.503037,204.52785 909.485037,204.514067 909.467037,204.497331 C909.428037,204.463858 909.390037,204.429401 909.356037,204.391991 C909.335037,204.368363 909.315037,204.343751 909.295037,204.319138 C909.267037,204.283697 909.240037,204.248255 909.215037,204.210845 C909.194037,204.177372 909.176037,204.14193 909.158037,204.106489 C909.140037,204.072032 909.121037,204.038559 909.107037,204.002133 C909.087037,203.955862 909.075037,203.907622 909.061037,203.858398 C909.053037,203.828863 909.043037,203.801297 909.037037,203.771763 C909.020037,203.691035 909.010037,203.607353 909.010037,203.521703 L909.010037,203.521703 L909.010037,202.063675 C909.010037,201.823459 909.208037,201.629515 909.451037,201.629515 L909.451037,201.629515 L911.482037,201.629515 C911.590037,201.629515 911.696037,201.668895 911.776037,201.739778 L911.776037,201.739778 L912.406037,202.296014 C912.486037,202.366897 912.590037,202.406277 912.699037,202.406277 L912.699037,202.406277 L916.490037,202.406277 C916.840037,202.406277 917.099037,202.084349 917.017037,201.747654 C916.910037,201.304634 916.663037,200.9069 916.312037,200.609585 L916.312037,200.609585 L915.625037,200.027752 C914.952037,199.458717 914.692037,198.54708 914.966037,197.716172 L914.966037,197.716172 L916.406037,193.347995 C916.531037,193.002439 916.862037,192.773053 917.234037,192.773053 L917.234037,192.773053 Z M922.787937,192.773152 C923.158937,192.773152 923.490937,193.002538 923.615937,193.348093 L923.615937,193.348093 L925.054937,197.717255 C925.329937,198.547179 925.069937,199.458816 924.396937,200.02785 L924.396937,200.02785 L923.709937,200.609683 C923.356937,200.908968 923.108937,201.309655 923.002937,201.755628 C922.923937,202.088385 923.184937,202.406375 923.531937,202.406375 L923.531937,202.406375 L927.322937,202.406375 C927.430937,202.406375 927.535937,202.366996 927.615937,202.296112 L927.615937,202.296112 L928.245937,201.739876 C928.325937,201.668993 928.429937,201.629613 928.538937,201.629613 L928.538937,201.629613 L930.570937,201.629613 C930.813937,201.629613 931.009937,201.823558 931.009937,202.062789 L931.009937,202.062789 L931.009937,203.52377 C931.009937,203.60942 931.001937,203.692118 930.984937,203.772846 C930.978937,203.80238 930.967937,203.829946 930.960937,203.860465 C930.946937,203.907721 930.933937,203.956945 930.914937,204.003216 C930.900937,204.039642 930.881937,204.07213 930.863937,204.107572 C930.844937,204.143013 930.827937,204.178455 930.805937,204.211928 C930.781937,204.249338 930.754937,204.28478 930.725937,204.319237 C930.706937,204.344834 930.686937,204.368461 930.665937,204.393074 C930.631937,204.430484 930.592937,204.464941 930.553937,204.498414 C930.536937,204.514166 930.517937,204.528933 930.498937,204.5437 C930.453937,204.579142 930.405937,204.610646 930.354937,204.64018 C930.340937,204.648056 930.325937,204.655932 930.310937,204.663808 C930.254937,204.693343 930.195937,204.720908 930.133937,204.741583 C930.125937,204.745521 930.116937,204.74749 930.106937,204.750443 C930.039937,204.772102 929.969937,204.790807 929.897937,204.802621 C929.829937,204.812466 929.760937,204.822311 929.690937,204.822311 L929.690937,204.822311 L921.177937,204.822311 C921.082937,204.822311 921.007937,204.743552 921.012937,204.649041 L921.012937,204.649041 L921.805937,193.026166 C921.815937,192.883415 921.935937,192.773152 922.080937,192.773152 L922.080937,192.773152 Z M914.281037,199.27196 C914.393037,199.27196 914.490037,199.341858 914.533037,199.443261 C914.694037,199.818351 914.938037,200.160953 915.266037,200.438579 L915.266037,200.438579 L916.006037,201.065698 C916.067037,201.115907 916.102037,201.190728 916.102037,201.271456 L916.102037,201.271456 L916.102037,201.872979 L912.846037,201.865103 C912.779037,201.865103 912.713037,201.841475 912.664037,201.797173 L912.664037,201.797173 L912.143037,201.337417 C911.961037,201.176945 911.726037,201.088341 911.482037,201.088341 L911.482037,201.088341 L910.399037,201.088341 C910.247037,201.088341 910.124037,200.967249 910.124037,200.817607 L910.124037,200.817607 L910.124037,200.355882 C910.124037,199.759282 910.619037,199.27196 911.223037,199.27196 L911.223037,199.27196 Z M928.798537,199.271861 C929.402537,199.271861 929.898537,199.760168 929.898537,200.355783 L929.898537,200.355783 L929.898537,200.817509 C929.898537,200.967151 929.775537,201.088243 929.622537,201.088243 L929.622537,201.088243 L928.538537,201.088243 C928.295537,201.088243 928.060537,201.176847 927.878537,201.337319 L927.878537,201.337319 L927.359537,201.79609 C927.308537,201.841377 927.242537,201.865005 927.175537,201.865005 L927.175537,201.865005 L923.919537,201.865005 L923.919537,201.270373 C923.919537,201.191614 923.954537,201.115809 924.015537,201.0656 L924.015537,201.0656 L924.755537,200.43848 C925.083537,200.160855 925.327537,199.818252 925.488537,199.443162 C925.531537,199.34176 925.628537,199.271861 925.740537,199.271861 L925.740537,199.271861 Z M920.010337,189 C922.744337,189 924.960337,191.181627 924.960337,193.87322 C924.960337,194.313286 924.896337,194.737601 924.785337,195.142226 L924.785337,195.142226 L924.139337,193.181124 C924.032337,192.884793 923.834337,192.643593 923.586337,192.477215 C923.020337,191.076287 921.632337,190.082938 920.010337,190.082938 C918.390337,190.082938 917.002337,191.075302 916.436337,192.475246 C916.189337,192.639655 915.992337,192.876917 915.887337,193.165372 L915.887337,193.165372 L915.236337,195.142226 C915.125337,194.737601 915.061337,194.313286 915.061337,193.87322 C915.061337,191.181627 917.277337,189 920.010337,189 Z" id="赛车备份"></path>
        </g>
    </g>
</svg>