<?xml version="1.0" encoding="UTF-8"?>
<svg width="22px" height="22px" viewBox="0 0 22 22" version="1.1" xmlns="http://www.w3.org/2000/svg" xmlns:xlink="http://www.w3.org/1999/xlink">
    <title>足球备份@2x</title>
    <g id="控件" stroke="none" stroke-width="1" fill="none" fill-rule="evenodd">
        <g id="足" fill="#CBCED8">
            <path d="M19.708,15.7235028 C19.561,15.9945028 19.4,16.2575028 19.229,16.5125028 C19.22,16.5265028 19.211,16.5395028 19.202,16.5535028 C19.155,16.6215028 19.102,16.6845028 19.054,16.7505028 L15.936,16.7505028 C15.758,16.7505028 15.591,16.6635028 15.49,16.5175028 L14.3,14.8015028 C14.203,14.6615028 14.177,14.4855028 14.229,14.3245028 L15.593,10.1245028 C15.649,9.95250276 15.787,9.82050276 15.961,9.77050276 L17.834,9.23750276 C17.995,9.19150276 18.167,9.22250276 18.302,9.32050276 L20.66,11.0345028 C20.808,11.1415028 20.896,11.3185028 20.887,11.5015028 C20.812,13.0215028 20.398,14.4535028 19.711,15.7185028 C19.71,15.7205028 19.709,15.7225028 19.708,15.7235028 M6.333,9.00550276 L4.425,8.46250276 C4.25,8.41250276 4.113,8.28050276 4.057,8.10850276 L3.161,5.35050276 C3.105,5.17650276 3.136,4.98450276 3.25,4.84150276 C4.345,3.46450276 5.795,2.38650276 7.464,1.74650276 C7.636,1.68050276 7.832,1.71050276 7.98,1.81850276 L10.37,3.55450276 C10.51,3.65750276 10.593,3.82050276 10.593,3.99450276 L10.593,5.88950276 C10.593,6.06350276 10.51,6.22650276 10.37,6.32850276 L6.8,8.92250276 C6.666,9.02050276 6.493,9.05150276 6.333,9.00550276 M15.202,8.92250276 L11.632,6.32750276 C11.492,6.22650276 11.408,6.06250276 11.408,5.88850276 L11.408,3.99450276 C11.408,3.82050276 11.492,3.65750276 11.632,3.55450276 L14.028,1.81350276 C14.22,1.79250276 14.374,1.77750276 14.566,1.75650276 C14.682,1.80550276 14.802,1.84650276 14.917,1.89650276 C16.429,2.55050276 17.74,3.57450276 18.751,4.84850276 C18.864,4.99150276 18.895,5.18350276 18.839,5.35650276 L17.945,8.10850276 C17.889,8.28050276 17.751,8.41250276 17.577,8.46250276 L15.669,9.00550276 C15.509,9.05150276 15.336,9.02050276 15.202,8.92250276 M2.05,15.2345028 C1.884,14.8815028 1.733,14.5215028 1.609,14.1515028 C1.605,14.1405028 1.601,14.1295028 1.597,14.1195028 C1.536,13.9335028 1.484,13.7445028 1.433,13.5555028 C1.411,13.4715028 1.389,13.3885028 1.368,13.3035028 C1.325,13.1245028 1.286,12.9445028 1.253,12.7635028 C1.22,12.5775028 1.2,12.3885028 1.166,12.2025028 C1.164,12.1895028 1.163,12.1765028 1.161,12.1635028 C1.141,11.9455028 1.121,11.7265028 1.109,11.5055028 C1.099,11.3225028 1.187,11.1465028 1.335,11.0385028 L3.699,9.32050276 C3.834,9.22150276 4.007,9.19150276 4.167,9.23750276 L6.041,9.77050276 C6.215,9.82050276 6.353,9.95250276 6.409,10.1245028 L7.772,14.3245028 C7.825,14.4855028 7.79897764,14.6615028 7.702,14.8015028 L6.512,16.5175028 C6.411,16.6635028 6.244,16.7505028 6.066,16.7505028 L3.224,16.7505028 C3.065,16.6675028 2.933,16.5995028 2.774,16.5155028 C2.698,16.3995028 2.624,16.2815028 2.546,16.1645028 C2.541,16.1555028 2.535,16.1465028 2.529,16.1365028 C2.423,15.9455028 2.309,15.7565028 2.208,15.5625028 C2.152,15.4545028 2.102,15.3435028 2.05,15.2345028 M12.807,20.7405028 C12.609,20.7765028 12.411,20.8065028 12.21,20.8305028 C12.097,20.8445028 11.984,20.8595028 11.871,20.8695028 C11.644,20.8885028 11.414,20.8995028 11.182,20.9045028 C11.052,20.9065028 10.923,20.9065028 10.793,20.9035028 C10.575,20.8985028 10.357,20.8885028 10.142,20.8695028 C9.926,20.8515028 9.711,20.8195028 9.495,20.7945028 L9.461,20.7885028 C9.267,20.7485028 9.07,20.7215028 8.875,20.6785028 C8.648,20.6285028 8.425,20.5705028 8.204,20.5055028 C8.16,20.4935028 8.116,20.4835028 8.072,20.4705028 L7.1,17.4765028 C7.047,17.3155028 7.074,17.1385028 7.17,16.9985028 L8.348,15.3005028 C8.449,15.1545028 8.616,15.0675028 8.794,15.0675028 L13.208,15.0675028 C13.386,15.0675028 13.553,15.1545028 13.654,15.3005028 L14.832,16.9985028 C14.9289776,17.1385028 14.955,17.3155028 14.902,17.4765028 L14.02,20.1935028 C13.964,20.3665028 13.827,20.5025028 13.651,20.5505028 C13.464,20.6015028 13.274,20.6475028 13.083,20.6885028 C12.992,20.7075028 12.899,20.7235028 12.807,20.7405028 M20.138,17.1065028 C21.368,15.2715028 22.016,13.1545028 22.002,10.9405028 C21.998,10.2105028 21.916,9.49450276 21.772,8.79150276 C21.771,8.78650276 21.77,8.78350276 21.77,8.77950276 C21.466,7.30150276 20.867,5.89950276 19.983,4.64850276 C19.982,4.64750276 19.982,4.64750276 19.982,4.64650276 C19.376,3.79150276 18.667,3.03550276 17.874,2.40150276 C16.829,1.56650276 15.641,0.932502757 14.339,0.518502757 C14.33,0.515502757 14.321,0.513502757 14.312,0.510502757 C14.222,0.482502757 14.129,0.460502757 14.038,0.434502757 C13.81,0.369502757 13.581,0.308502757 13.35,0.257502757 C13.106,0.203502757 12.858,0.168502757 12.613,0.108502757 C12.579,0.0995027573 12.544,0.0955027573 12.509,0.0955027573 C12.346,0.0935027573 12.193,0.0655027573 12.036,0.0505027573 C11.332,-0.0174972427 10.626,-0.0164972427 9.923,0.0515027573 C9.878,0.0565027573 9.834,0.0625027573 9.79,0.0675027573 C9.489,0.100502757 9.189,0.146502757 8.891,0.204502757 C8.832,0.216502757 8.771,0.227502757 8.712,0.240502757 C8.358,0.315502757 8.005,0.402502757 7.656,0.513502757 L7.654,0.513502757 C7.337,0.615502757 7.028,0.734502757 6.724,0.862502757 C6.721,0.863502757 6.719,0.865502757 6.716,0.866502757 C5.034,1.57550276 3.556,2.68550276 2.405,4.12550276 C2.302,4.25350276 2.209,4.38750276 2.117,4.52050276 L2.023,4.65650276 C2.01,4.67350276 2,4.69350276 1.987,4.71050276 C1.884,4.85750276 1.79,5.00750276 1.695,5.15950276 C1.62,5.27850276 1.546,5.39750276 1.476,5.51850276 C1.39,5.66750276 1.306,5.81950276 1.227,5.97350276 C1.154,6.11350276 1.088,6.25450276 1.022,6.39650276 C0.956,6.53950276 0.887,6.68150276 0.827,6.82750276 C0.714,7.10050276 0.612,7.37650276 0.522,7.65750276 C0.484,7.77750276 0.455,7.90050276 0.42,8.02150276 C0.366,8.21450276 0.314,8.40850276 0.271,8.60450276 C0.216,8.84850276 0.175,9.09750276 0.128,9.34650276 C0.127,9.35650276 0.125,9.37250276 0.124,9.38250276 C0.104,9.59250276 0.069,9.79550276 0.051,10.0045028 C0.023,10.3095028 0.006,10.6165028 0.004,10.9255028 C0.004,10.9505028 -1.33226763e-13,10.9735028 -1.33226763e-13,10.9985028 C-1.33226763e-13,11.1255028 0.015,11.2495028 0.02,11.3765028 C0.026,11.5615028 0.032,11.7465028 0.047,11.9315028 C0.064,12.1245028 0.089,12.3145028 0.116,12.5045028 C0.133,12.6295028 0.151,12.7525028 0.173,12.8765028 C0.21,13.0905028 0.252,13.3025028 0.301,13.5125028 C0.321,13.5985028 0.345,13.6825028 0.367,13.7685028 C0.428,13.9995028 0.49,14.2305028 0.565,14.4565028 C0.571,14.4725028 0.578,14.4895028 0.583,14.5045028 C0.743,14.9785028 0.936,15.4355028 1.156,15.8775028 C1.198,15.9625028 1.235,16.0485028 1.279,16.1325028 C1.354,16.2745028 1.437,16.4105028 1.518,16.5475028 C1.609,16.7045028 1.701,16.8605028 1.8,17.0125028 C1.874,17.1235028 1.951,17.2325028 2.027,17.3405028 C2.093,17.4345028 2.153,17.5315028 2.222,17.6215028 C2.298,17.7225028 2.378,17.8185028 2.457,17.9155028 C2.488,17.9535028 2.519,17.9935028 2.55,18.0315028 C3.036,18.6195028 3.563,19.1475028 4.129,19.5995028 C4.942,20.2495028 5.85,20.7755028 6.832,21.1755028 C6.843,21.1795028 6.854,21.1835028 6.866,21.1885028 C7.071,21.2555028 7.262,21.3465028 7.466,21.4155028 C7.506,21.4295028 7.547,21.4385028 7.587,21.4525028 C7.732,21.4985028 7.88,21.5385028 8.027,21.5805028 C8.197,21.6285028 8.368,21.6735028 8.54,21.7125028 C8.701,21.7495028 8.862,21.7835028 9.026,21.8135028 C9.193,21.8435028 9.361,21.8675028 9.53,21.8905028 C9.695,21.9115028 9.858,21.9355028 10.025,21.9505028 C10.238,21.9695028 10.451,21.9765028 10.664,21.9835028 C10.776,21.9865028 10.885,21.9995028 10.998,21.9995028 C11.094,21.9995028 11.187,21.9885028 11.282,21.9855028 C11.518,21.9795028 11.754,21.9705028 11.99,21.9495028 C12.133,21.9365028 12.273,21.9155028 12.414,21.8985028 C12.616,21.8715028 12.817,21.8425028 13.018,21.8055028 C13.147,21.7815028 13.274,21.7555028 13.402,21.7265028 C13.629,21.6765028 13.854,21.6175028 14.078,21.5525028 C14.169,21.5255028 14.261,21.5015028 14.352,21.4725028 C14.412,21.4525028 14.474,21.4395028 14.534,21.4185028 C16.536,20.7415028 18.286,19.5155028 19.597,17.8745028 L19.598,17.8735028 C19.641,17.8205028 19.68,17.7645028 19.719,17.7085028 L19.781,17.6205028 C19.883,17.4865028 19.973,17.3445028 20.069,17.2055028 C20.091,17.1725028 20.115,17.1395028 20.138,17.1065028" id="足球备份"></path>
        </g>
    </g>
</svg>