<?xml version="1.0" encoding="UTF-8"?>
<svg width="22px" height="22px" viewBox="0 0 22 22" version="1.1" xmlns="http://www.w3.org/2000/svg" xmlns:xlink="http://www.w3.org/1999/xlink">
    <title>冰球备份@2x</title>
    <g id="控件" stroke="none" stroke-width="1" fill="none" fill-rule="evenodd">
        <g id="冰球" fill="#CBCED8">
            <path d="M18.8072305,3.84979004 C18.7712305,3.67779004 18.9782305,3.56779004 19.1022305,3.69179004 L19.1022305,3.69179004 L20.1162305,4.70479004 L20.6102305,5.20879004 C22.0232305,6.62379004 22.4372305,9.01079004 21.4872305,11.86479 C19.8262305,16.85179 14.6402305,21.36279 9.90323054,21.93979 C7.87723054,22.18679 6.26523054,21.66879 5.21023054,20.61079 L5.21023054,20.61079 L4.78023054,20.18179 L3.71723054,19.12179 C3.59423054,18.99879 3.70323054,18.79079 3.87323054,18.82779 C4.63323054,18.98579 5.46723054,19.01579 6.35823054,18.90779 C9.10723054,18.57279 12.0882305,16.97579 14.5372305,14.52779 C16.3652305,12.69979 17.7112305,10.59179 18.4292305,8.43479004 C18.9822305,6.77479004 19.0982305,5.20179004 18.8072305,3.84979004 Z M12.0984305,0.0612900438 C16.8354305,-0.516709956 19.3284305,3.05829004 17.6684305,8.04529004 C16.0074305,13.03229 10.8204305,17.54329 6.08443054,18.12029 C1.34743054,18.69729 -1.14656946,15.12229 0.514430542,10.13629 C2.17543054,5.14829004 7.36143054,0.639290044 12.0984305,0.0612900438 Z M16.0224305,3.93029004 C15.7804305,3.90129004 15.5604305,4.07329004 15.5324305,4.31829004 C15.4724305,4.83029004 15.3624305,5.36429004 15.2054305,5.90829004 C14.6114305,7.96429004 13.3504305,10.08129 11.6534305,11.87029 C11.4864305,12.04829 11.4924305,12.32729 11.6694305,12.49529 C11.8434305,12.66029 12.1174305,12.65629 12.2864305,12.48729 C12.2884305,12.48429 12.2914305,12.48129 12.2944305,12.47829 C14.0864305,10.58929 15.4214305,8.34329004 16.0544305,6.15329004 C16.2254305,5.56429004 16.3444305,4.98029004 16.4094305,4.42029004 C16.4384305,4.17829004 16.2644305,3.95829004 16.0224305,3.93029004 Z" id="冰球备份"></path>
        </g>
    </g>
</svg>