<?xml version="1.0" encoding="UTF-8"?>
<svg width="22px" height="15px" viewBox="0 0 22 15" version="1.1" xmlns="http://www.w3.org/2000/svg" xmlns:xlink="http://www.w3.org/1999/xlink">
    <title>泥地摩托车@2x</title>
    <g id="页面-1" stroke="none" stroke-width="1" fill="none" fill-rule="evenodd">
        <g id="画板" transform="translate(-760.000000, -99.000000)">
            <g id="泥地摩托车" transform="translate(760.000000, 99.000000)">
                <path d="M3.85,6.8254 C1.724,6.8254 2.26485497e-14,8.5494 2.26485497e-14,10.6754 C2.26485497e-14,12.8024 1.724,14.5244 3.85,14.5244 C5.976,14.5244 7.7,12.8024 7.7,10.6754 C7.7,8.5494 5.976,6.8254 3.85,6.8254 M3.85,7.8254 C5.422,7.8254 6.7,9.1034 6.7,10.6754 C6.7,12.2464 5.422,13.5244 3.85,13.5244 C2.279,13.5244 1,12.2464 1,10.6754 C1,9.1034 2.279,7.8254 3.85,7.8254" id="Fill-1" fill="#000000"></path>
                <path d="M18.1503,6.8254 C16.0243,6.8254 14.3003,8.5494 14.3003,10.6754 C14.3003,12.8024 16.0243,14.5244 18.1503,14.5244 C20.2763,14.5244 22.0003,12.8024 22.0003,10.6754 C22.0003,8.5494 20.2763,6.8254 18.1503,6.8254 M18.1503,7.8254 C19.7213,7.8254 21.0003,9.1034 21.0003,10.6754 C21.0003,12.2464 19.7213,13.5244 18.1503,13.5244 C16.5783,13.5244 15.3003,12.2464 15.3003,10.6754 C15.3003,9.1034 16.5783,7.8254 18.1503,7.8254" id="Fill-3" fill="#000000"></path>
                <path d="M13.5403,-7.10542736e-15 C14.1578156,-7.10542736e-15 14.7158909,0.355026578 14.9810565,0.903997665 L15.0369427,1.03405278 L18.6179427,10.4980528 C18.7156679,10.7563247 18.5855191,11.0449174 18.3272472,11.1426427 C18.0976722,11.2295096 17.8441399,11.1363278 17.7219981,10.9331557 L17.6826573,10.8519472 L14.1016764,1.38799771 C14.0243566,1.18372073 13.8434038,1.03986772 13.6323702,1.00709629 L13.5403,1 L12.5153,1 C12.2391576,1 12.0153,0.776142375 12.0153,0.5 C12.0153,0.254540111 12.1921752,0.0503916296 12.4254244,0.00805566941 L12.5153,-7.10542736e-15 L13.5403,-7.10542736e-15 Z" id="Stroke-5" fill="#000000" fill-rule="nonzero"></path>
                <path d="M16.988954,2.20145687 C17.2185292,2.11459056 17.4720612,2.20777293 17.5942025,2.41094535 L17.6335431,2.49215395 L18.2915431,4.23115395 C18.3892677,4.48942612 18.2591182,4.77801852 18.000846,4.87574313 C17.7712708,4.96260944 17.5177388,4.86942707 17.3955975,4.66625465 L17.3562569,4.58504605 L16.6982569,2.84604605 C16.6005323,2.58777388 16.7306818,2.29918148 16.988954,2.20145687 Z" id="Stroke-7" fill="#FB292A" fill-rule="nonzero"></path>
                <polygon id="Stroke-9" fill="#000000" fill-rule="nonzero" points="7.67214479 5.27345833 9.58214479 10.3214583 8.64685521 10.6753417 6.73685521 5.62734167"></polygon>
                <path d="M15.1757,2.3147 C15.4518424,2.3147 15.6757,2.53855763 15.6757,2.8147 C15.6757,3.06015989 15.4988248,3.26430837 15.2655756,3.30664433 L15.1757,3.3147 L11.4757,3.3147 C11.3026865,3.3147 11.1407708,3.38843777 11.0280378,3.51485052 L10.9666046,3.59685066 L9.70560462,5.61285066 C9.55916596,5.84696672 9.2506654,5.91804329 9.01654934,5.77160462 C8.80844618,5.64143692 8.72916434,5.38322031 8.81696388,5.16301867 L8.85779538,5.08254934 L10.1185529,3.06693738 C10.3843368,2.64115422 10.831914,2.36783847 11.326161,2.32166357 L11.4757,2.3147 L15.1757,2.3147 Z" id="Stroke-11" fill="#000000" fill-rule="nonzero"></path>
                <path d="M4.0746,10.675 C5.2366,10.468 6.3986,10.36 7.5596,10.286 C8.7016,10.203 9.9286,10.194 10.9996,10.167 C11.4496,10.136 11.8806,9.915 12.1796,9.571 C12.3166,9.423 12.4896,9.143 12.6516,8.911 C12.8136,8.67 12.9826,8.434 13.1546,8.198 C13.8326,7.252 14.5406,6.324 15.3326,5.45 C14.8936,6.545 14.3696,7.588 13.8156,8.612 C13.6796,8.869 13.5406,9.125 13.3946,9.376 C13.2406,9.632 13.1366,9.865 12.9116,10.173 C12.4746,10.731 11.7996,11.094 11.0906,11.163 C9.8386,11.177 8.7416,11.138 7.5596,11.064 C6.3986,10.99 5.2366,10.882 4.0746,10.675" id="Fill-13" fill="#000000"></path>
                <path d="M3.12,5.4504 C5.295,5.0554 7.471,4.9674 9.646,4.9504 C11.822,4.9654 13.997,5.0544 16.173,5.4504 C13.997,5.8464 11.822,5.9344 9.646,5.9494 C7.471,5.9324 5.295,5.8454 3.12,5.4504" id="Fill-15" fill="#FB292A"></path>
            </g>
        </g>
    </g>
</svg>