<?xml version="1.0" encoding="UTF-8"?>
<svg width="22px" height="16px" viewBox="0 0 22 16" version="1.1" xmlns="http://www.w3.org/2000/svg" xmlns:xlink="http://www.w3.org/1999/xlink">
    <title>马车赛@2x</title>
    <g id="页面-1" stroke="none" stroke-width="1" fill="none" fill-rule="evenodd">
        <g id="画板" transform="translate(-856.000000, -98.000000)">
            <g id="马车赛" transform="translate(856.000000, 98.000000)">
                <path d="M9.93354785,5.29491495 C9.51954785,5.29491495 9.10054785,5.34391495 8.68154785,5.44391495 C5.82154785,6.13391495 4.06154785,9.01091495 4.75054785,11.8709149 C5.33854785,14.3119149 7.52054785,15.9499149 9.92454785,15.9499149 C10.3375478,15.9499149 10.7575478,15.9019149 11.1765478,15.8009149 C14.0375478,15.1109149 15.7965478,12.2339149 15.1075478,9.37491495 C14.5195478,6.93491495 12.3375478,5.29491495 9.93354785,5.29491495 M9.93354785,6.29491495 C11.9375478,6.29491495 13.6645478,7.65691495 14.1345478,9.60891495 C14.6945478,11.9289149 13.2615478,14.2699149 10.9435478,14.8289149 C10.6085478,14.9089149 10.2655478,14.9499149 9.92454785,14.9499149 C7.92054785,14.9499149 6.19354785,13.5879149 5.72354785,11.6369149 C5.16354785,9.31691495 6.59654785,6.97591495 8.91454785,6.41691495 C9.25054785,6.33591495 9.59254785,6.29491495 9.93354785,6.29491495" id="Fill-1" fill="#000000"></path>
                <path d="M9.97844785,8.45311495 C9.81144785,8.45311495 9.64144785,8.47311495 9.47144785,8.51411495 C8.31244785,8.79311495 7.60044785,9.95811495 7.87944785,11.1161149 C8.11744785,12.1051149 9.00144785,12.7681149 9.97544785,12.7681149 C10.1424478,12.7681149 10.3124478,12.7491149 10.4824478,12.7081149 C11.6404478,12.4291149 12.3534478,11.2641149 12.0744478,10.1051149 C11.8354478,9.11711495 10.9524478,8.45311495 9.97844785,8.45311495 M9.97844785,9.45311495 L9.97844785,9.45311495 C10.5144478,9.45311495 10.9764478,9.81811495 11.1014478,10.3401149 C11.1744478,10.6411149 11.1244478,10.9511149 10.9634478,11.2151149 C10.8024478,11.4781149 10.5484478,11.6641149 10.2484478,11.7361149 C10.1584478,11.7581149 10.0654478,11.7681149 9.97544785,11.7681149 C9.43944785,11.7681149 8.97744785,11.4041149 8.85144785,10.8831149 C8.70244785,10.2621149 9.08544785,9.63611495 9.70544785,9.48611495 C9.79544785,9.46411495 9.88744785,9.45311495 9.97844785,9.45311495" id="Fill-3" fill="#FB292A"></path>
                <path d="M5.85054785,4.13861495 C6.62654785,5.15861495 7.38554785,6.18861495 8.12654785,7.22961495 C8.50354785,7.74661495 8.91654785,8.24061495 9.21754785,8.80561495 C9.51654785,9.37161495 9.79054785,9.95361495 9.96054785,10.6026149 C9.96654785,10.6236149 9.95354785,10.6456149 9.93254785,10.6506149 C9.91954785,10.6546149 9.90654785,10.6506149 9.89754785,10.6426149 C9.38154785,10.2136149 8.97154785,9.71861495 8.58454785,9.20761495 C8.20154785,8.69661495 7.92954785,8.11261495 7.62154785,7.55161495 C6.99254785,6.43861495 6.38054785,5.31461495 5.78754785,4.17861495 C5.77754785,4.16061495 5.78454785,4.13761495 5.80354785,4.12761495 C5.81954785,4.11961495 5.83954785,4.12461495 5.85054785,4.13861495" id="Fill-5" fill="#000000"></path>
                <path d="M9.89784785,10.6025149 C10.7778478,9.06651495 11.6758478,7.54151495 12.5908478,6.02851495 C13.0428478,5.26851495 13.4588478,4.48451495 13.9848478,3.77251495 C14.5138478,3.06351495 15.0658478,2.36951495 15.7238478,1.74351495 C15.7388478,1.72951495 15.7638478,1.72951495 15.7778478,1.74551495 C15.7878478,1.75551495 15.7908478,1.77151495 15.7858478,1.78551495 C15.4718478,2.63551495 15.0538478,3.41751495 14.6108478,4.18451495 C14.1668478,4.95051495 13.6118478,5.64251495 13.0928478,6.35851495 C12.0658478,7.79751495 11.0218478,9.22651495 9.95984785,10.6435149 C9.94784785,10.6605149 9.92384785,10.6635149 9.90784785,10.6515149 C9.89284785,10.6395149 9.88784785,10.6185149 9.89784785,10.6025149" id="Fill-7" fill="#000000"></path>
                <path d="M20.8825903,0.0140345841 C21.1510451,-0.050669718 21.4211239,0.114502673 21.4858282,0.382957445 C21.5433431,0.621583908 21.4192271,0.861493549 21.2023913,0.957304696 L21.1169054,0.986195311 L5.93590535,4.64519531 C5.66745058,4.70989961 5.39737179,4.54472722 5.33266749,4.27627245 C5.27515255,4.03764599 5.39926858,3.79773635 5.61610435,3.7019252 L5.70159035,3.67303458 L20.8825903,0.0140345841 Z" id="Stroke-9" fill="#000000" fill-rule="nonzero"></path>
                <path d="M4.90714785,0.945314947 C4.48814785,0.945314947 4.06414785,0.994314947 3.64214785,1.09531495 L0.816147849,1.77731495 C0.136147849,1.94131495 -0.203852151,2.70531495 0.129147849,3.32031495 L0.664147849,4.30931495 C1.04214785,5.00731495 1.76914785,5.42531495 2.53714785,5.42531495 C2.70314785,5.42531495 2.87014785,5.40631495 3.03714785,5.36631495 L9.65114785,3.77231495 C8.69214785,2.00231495 6.85314785,0.945314947 4.90714785,0.945314947 M4.90714785,1.94531495 L4.90714785,1.94531495 C6.05314785,1.94531495 7.13214785,2.38931495 7.93714785,3.15631495 L2.80314785,4.39331495 C2.71614785,4.41531495 2.62614785,4.42531495 2.53714785,4.42531495 C2.12214785,4.42531495 1.74114785,4.19831495 1.54414785,3.83331495 L1.00814785,2.84331495 C1.00314785,2.83531495 0.992147849,2.81531495 1.00614785,2.78631495 C1.01914785,2.75731495 1.04014785,2.75231495 1.05014785,2.74931495 L3.87614785,2.06831495 C4.21514785,1.98631495 4.56114785,1.94531495 4.90714785,1.94531495" id="Fill-11" fill="#000000"></path>
                <path d="M19.5585478,0.842714947 C19.7635478,1.08271495 19.9415478,1.32971495 20.0915478,1.58271495 C20.1655478,1.70971495 20.3245478,1.81671495 20.2855478,1.96971495 C20.2515478,2.12171495 20.1785478,2.28271495 19.9435478,2.48271495 C19.9145478,2.50571495 19.8785478,2.51271495 19.8455478,2.50471495 C19.5455478,2.43171495 19.4085478,2.31971495 19.3115478,2.19771495 C19.2075478,2.07771495 19.3025478,1.91171495 19.3125478,1.76571495 C19.3345478,1.47171495 19.3845478,1.17171495 19.4615478,0.865714947 C19.4685478,0.835714947 19.4995478,0.817714947 19.5305478,0.824714947 C19.5415478,0.827714947 19.5515478,0.833714947 19.5585478,0.842714947" id="Fill-13" fill="#000000"></path>
            </g>
        </g>
    </g>
</svg>