<svg width="20" height="20" viewBox="0 0 20 20" fill="none" xmlns="http://www.w3.org/2000/svg">
<g id="icon_question_nor">
<g id="Vector">
<path fill-rule="evenodd" clip-rule="evenodd" d="M17.5 10C17.5 5.85786 14.1421 2.5 10 2.5C5.85786 2.5 2.5 5.85786 2.5 10C2.5 14.1421 5.85786 17.5 10 17.5C14.1421 17.5 17.5 14.1421 17.5 10ZM3.95 10.0001C3.95 6.65874 6.65868 3.95006 10 3.95006C13.3413 3.95006 16.05 6.65874 16.05 10.0001C16.05 13.3414 13.3413 16.0501 10 16.0501C6.65868 16.0501 3.95 13.3414 3.95 10.0001Z" fill="#7981A4"/>
<path d="M11.3812 10.1251C11.7361 9.84852 12.0195 9.6216 12.1444 9.44361C12.3578 9.15058 12.5079 8.79017 12.5078 8.36277C12.5078 7.66496 12.261 7.13857 11.7689 6.78334C11.2758 6.42761 10.6574 6.25 9.91235 6.25C9.34537 6.25 8.86738 6.3754 8.47886 6.6252C7.9075 6.98788 7.58437 7.55296 7.50833 8.37983C7.50226 8.44544 7.54851 8.58159 7.75855 8.58159H8.74498C8.88655 8.58159 8.92902 8.44203 8.93996 8.37579C8.97066 8.18869 9.04482 8.01664 9.16262 7.82955C9.32206 7.57634 9.59257 7.44967 9.97417 7.44967C10.3618 7.44967 10.6293 7.55258 10.7754 7.75787C10.9219 7.96393 10.995 8.19173 10.995 8.44152C10.995 8.65883 10.886 8.85768 10.7547 9.03871C10.7122 9.10078 10.6616 9.15981 10.6032 9.21607C10.5623 9.25538 10.5175 9.2933 10.469 9.32997C10.469 9.32997 9.69418 9.8269 9.35365 10.2262C9.18545 10.4236 9.14763 10.7901 9.12942 11.2028C9.12667 11.2659 9.15605 11.3946 9.32043 11.3946H10.3318C10.4575 11.3946 10.5112 11.2719 10.5167 11.2119C10.5275 11.0924 10.5435 10.982 10.5649 10.9146C10.6276 10.7171 10.797 10.5447 10.988 10.3965L11.3812 10.1251Z" fill="#7981A4"/>
<path d="M9.20273 12.56C9.20273 12.3184 9.39861 12.1225 9.64023 12.1225H10.129C10.3707 12.1225 10.5665 12.3184 10.5665 12.56V13.1126C10.5665 13.3542 10.3707 13.5501 10.129 13.5501H9.64023C9.39861 13.5501 9.20273 13.3542 9.20273 13.1126V12.56Z" fill="#7981A4"/>
</g>
</g>
</svg>
