<?xml version="1.0" encoding="UTF-8"?>
<svg width="6px" height="7px" viewBox="0 0 6 7" version="1.1" xmlns="http://www.w3.org/2000/svg" xmlns:xlink="http://www.w3.org/1999/xlink">
    <title>更多-收起</title>
    <defs>
        <linearGradient x1="18.6453123%" y1="0%" x2="81.3546877%" y2="100%" id="linearGradient-1">
            <stop stop-color="#FFB001" offset="0%"></stop>
            <stop stop-color="#FFB001" offset="100%"></stop>
        </linearGradient>
    </defs>
    <g id="更多-收起" stroke="none" stroke-width="1" fill="none" fill-rule="evenodd">
        <g id="编组-10备份" transform="translate(3.000000, 3.000000) scale(1, -1) translate(-3.000000, -3.000000) translate(0.000000, -1.000000)">
            <rect id="矩形" x="0" y="0.0175731367" width="6" height="7"></rect>
            <path d="M1.1166412,3.83677049 L3.00605367,5.72096815 L4.87763029,3.85391201 C5.07289244,3.65914959 5.38947493,3.65914959 5.58473707,3.85391201 L5.62517719,3.89424863 C5.82043934,4.08901105 5.82043934,4.40478332 5.62517719,4.59954574 L3.36501039,6.85392819 C3.16974825,7.0486906 2.85316576,7.0486906 2.65790361,6.85392819 L0.374822811,4.57669038 C0.179560665,4.38192796 0.179560665,4.06615568 0.374822811,3.87139326 L0.409534424,3.83677049 C0.60479657,3.64200807 0.921379059,3.64200807 1.1166412,3.83677049 Z M1.1166412,0.146071815 L3.00605367,2.03026948 L4.87763029,0.163213337 C5.07289244,-0.0315490829 5.38947493,-0.0315490829 5.58473707,0.163213337 L5.62517719,0.203549955 C5.82043934,0.398312374 5.82043934,0.714084648 5.62517719,0.908847067 L3.36501039,3.16322951 C3.16974825,3.35799193 2.85316576,3.35799193 2.65790361,3.16322951 L0.374822811,0.885991705 C0.179560665,0.691229285 0.179560665,0.375457012 0.374822811,0.180694592 L0.409534424,0.146071815 C0.60479657,-0.0486906049 0.921379059,-0.0486906049 1.1166412,0.146071815 Z" id="形状" fill="url(#linearGradient-1)"></path>
        </g>
    </g>
</svg>