<svg width="6" height="7" xmlns="http://www.w3.org/2000/svg"><defs><linearGradient x1="18.645%" y1="0%" x2="81.355%" y2="100%" id="prefix__a"><stop stop-color="#569FFD" offset="0%"/><stop stop-color="#569FFD" offset="100%"/></linearGradient></defs><g fill="none" fill-rule="evenodd"><path d="M0 6.982h6v-7H0z"/><path d="M1.117 3.837l1.89 1.884 1.87-1.867a.5.5 0 01.708 0l.04.04a.498.498 0 010 .706l-2.26 2.254a.5.5 0 01-.707 0L.375 4.577a.498.498 0 010-.706l.035-.034a.5.5 0 01.707 0zm0-3.69l1.89 1.883L4.876.163a.5.5 0 01.708 0l.04.04a.498.498 0 010 .706l-2.26 2.254a.5.5 0 01-.707 0L.375.886a.498.498 0 010-.705L.41.146a.5.5 0 01.707 0z" fill="url(#prefix__a)" transform="matrix(1 0 0 -1 0 7)"/></g></svg>