<svg width="24" height="14" viewBox="0 0 24 14" fill="none" xmlns="http://www.w3.org/2000/svg">
<g clip-path="url(#clip0_540_44041)">
<path d="M6.50448 0.600006H22.4995C22.7204 0.600006 22.8995 0.779093 22.8995 1.00001V13C22.8995 13.2209 22.7204 13.4 22.4995 13.4H6.50448C6.38198 13.4 6.26624 13.3439 6.19038 13.2477L1.45896 7.24769C1.34441 7.10244 1.34441 6.89758 1.45896 6.75233L6.19038 0.752323C6.26624 0.656135 6.38198 0.600006 6.50448 0.600006Z" stroke="white" stroke-opacity="0.05" stroke-width="1.2"/>
<path fill-rule="evenodd" clip-rule="evenodd" d="M11.9503 10.1299C12.1474 10.3369 12.4776 10.3369 12.6746 10.1299L14.5 8.21228L16.3254 10.1299C16.5224 10.3369 16.8526 10.3369 17.0497 10.1299L17.369 9.79445C17.5528 9.60138 17.5528 9.29807 17.369 9.10499L15.5096 7.15162L17.369 5.19826C17.5528 5.00518 17.5528 4.70187 17.369 4.50879L17.0497 4.17333C16.8526 3.96631 16.5224 3.96631 16.3254 4.17333L14.5 6.09096L12.6746 4.17333C12.4776 3.96631 12.1474 3.96631 11.9503 4.17333L11.631 4.50879C11.4472 4.70187 11.4472 5.00518 11.631 5.19826L13.4904 7.15162L11.631 9.10499C11.4472 9.29807 11.4472 9.60138 11.631 9.79445L11.9503 10.1299Z" fill="white" fill-opacity="0.05"/>
</g>
<defs>
<clipPath id="clip0_540_44041">
<rect width="24" height="14" fill="white"/>
</clipPath>
</defs>
</svg>
