<svg width="24" height="24" viewBox="0 0 24 24" fill="none" xmlns="http://www.w3.org/2000/svg">
<g clip-path="url(#clip0_1162_51313)">
<path d="M18.3639 18.3639C21.8786 14.8492 21.8786 9.15071 18.3639 5.63599C14.8492 2.12127 9.15071 2.12127 5.63599 5.63599" stroke="#E95B5B" stroke-width="2"/>
<path d="M11.1506 4.53506C11.998 2.84026 14.257 2.47382 15.5965 3.81328L20.1867 8.40353C21.5262 9.74299 21.1597 12.002 19.4649 12.8494L15.0579 15.0529C14.9355 15.1141 14.8263 15.1987 14.7366 15.3021C14.647 15.4055 14.5786 15.5255 14.5353 15.6553L13.3832 19.113C13.3085 19.3375 13.1775 19.5392 13.0029 19.6988C12.8282 19.8585 12.6156 19.9709 12.3853 20.0253C12.155 20.0796 11.9146 20.0742 11.6869 20.0096C11.4593 19.9449 11.252 19.8231 11.0846 19.6557L8.20515 16.7762L3.98134 21H3V20.0187L7.22381 15.7948L4.34432 12.9154C4.17711 12.748 4.05545 12.5408 3.99086 12.3132C3.92627 12.0856 3.92091 11.8454 3.97528 11.6152C4.02965 11.3849 4.14195 11.1724 4.30153 10.9978C4.4611 10.8232 4.66265 10.6923 4.88704 10.6175L8.34465 9.46469C8.47442 9.42153 8.59442 9.35322 8.69778 9.26367C8.80115 9.17412 8.88585 9.06508 8.94706 8.94278L11.1506 4.53506Z" fill="white" fill-opacity="0.9"/>
<path d="M6 6L18 18" stroke="#E95B5B" stroke-width="2" stroke-linecap="square"/>
<path d="M18.3639 18.364C14.8491 21.8787 9.15065 21.8787 5.63593 18.364C2.12121 14.8492 2.12121 9.15076 5.63593 5.63604" stroke="#E95B5B" stroke-width="2"/>
</g>
<defs>
<clipPath id="clip0_1162_51313">
<rect width="24" height="24" fill="white"/>
</clipPath>
</defs>
</svg>
