<svg width="24" height="24" viewBox="0 0 24 24" fill="none" xmlns="http://www.w3.org/2000/svg">
<path d="M3.13333 10.4C2.06667 11.2 2.06667 12.8 3.13333 13.6L11.4 19.8C12.0592 20.2944 13 19.824 13 19L13 5C13 4.17595 12.0592 3.70557 11.4 4.2L3.13333 10.4Z" fill="white"/>
<rect x="2" y="8" width="8" height="8" rx="1" fill="white"/>
<path d="M14.595 9.80263C14.4263 9.94544 14.408 10.1968 14.5273 10.3828C14.8265 10.8495 15.0001 11.4044 15.0001 11.9999C15.0001 12.5955 14.8265 13.1504 14.5273 13.6171C14.408 13.8031 14.4263 14.0545 14.595 14.1973L15.5108 14.9728C15.6793 15.1155 15.9331 15.0955 16.062 14.9162C16.6524 14.0953 17.0001 13.0882 17.0001 11.9999C17.0001 10.9117 16.6524 9.90457 16.062 9.08372C15.9331 8.90443 15.6793 8.88443 15.5108 9.02714L14.595 9.80263Z" fill="white"/>
<path d="M17.5922 16.2111C17.4591 16.3875 17.479 16.6394 17.6476 16.7822L18.5634 17.5577C18.732 17.7004 18.985 17.6801 19.1202 17.5055C20.2987 15.9836 21.0001 14.0737 21.0001 11.9999C21.0001 9.92621 20.2987 8.01628 19.1202 6.49444C18.985 6.31983 18.732 6.29949 18.5634 6.4422L17.6476 7.21769C17.479 7.3605 17.4591 7.61235 17.5922 7.78878C18.476 8.96061 19.0001 10.4191 19.0001 11.9999C19.0001 13.5808 18.476 15.0393 17.5922 16.2111Z" fill="white"/>
</svg>
