<svg width="15" height="14" viewBox="0 0 15 14" fill="none" xmlns="http://www.w3.org/2000/svg">
<path d="M5.61751 12.6004C3.5678 12.6004 1.90027 11.0107 1.90027 9.05657C1.90027 7.10246 3.5678 5.5127 5.61751 5.5127H12.5742C12.8648 5.5127 13.1003 5.73723 13.1003 6.01419V8.46815C13.1003 8.74511 12.8648 8.96965 12.5742 8.96965H9.33366C9.33439 8.9987 9.33474 9.02775 9.33474 9.0568C9.33474 11.0107 7.66718 12.6004 5.61751 12.6004ZM5.61751 6.51568C4.1479 6.51568 2.95232 7.65554 2.95232 9.05657C2.95232 10.4576 4.1479 11.5975 5.61751 11.5975C7.08711 11.5975 8.2827 10.4576 8.2827 9.05657C8.28274 8.89137 8.26605 8.72655 8.23286 8.56441C8.2027 8.41733 8.24312 8.26509 8.34304 8.1494C8.44296 8.03371 8.59191 7.96668 8.7491 7.96666H12.0482V6.51568H5.61751Z" fill="#5A6074"/>
<path d="M5.61749 10.6278C4.70866 10.6278 3.96928 9.92294 3.96928 9.0565C3.96928 8.19005 4.70866 7.48516 5.61749 7.48516C6.52632 7.48516 7.2657 8.19005 7.2657 9.0565C7.2657 9.92294 6.52632 10.6278 5.61749 10.6278ZM5.61749 8.48814C5.28876 8.48814 5.02133 8.7431 5.02133 9.0565C5.02133 9.3699 5.28876 9.62486 5.61749 9.62486C5.94622 9.62486 6.21365 9.3699 6.21365 9.0565C6.21365 8.7431 5.94622 8.48814 5.61749 8.48814ZM6.10845 3.74069C5.81794 3.74069 5.58242 3.51615 5.58242 3.23919V1.90188C5.58242 1.62493 5.81794 1.40039 6.10845 1.40039C6.39895 1.40039 6.63447 1.62493 6.63447 1.90188V3.23919C6.63447 3.51615 6.39895 3.74069 6.10845 3.74069ZM4.70572 5.078C4.56617 5.07819 4.4323 5.02531 4.33378 4.93109L2.93105 3.59378C2.72562 3.39793 2.72562 3.08042 2.93105 2.88457C3.13644 2.68872 3.46952 2.68872 3.67495 2.88457L5.07768 4.22188C5.28311 4.41773 5.28311 4.73524 5.07768 4.93109C4.97913 5.02529 4.84527 5.07816 4.70572 5.078ZM7.51118 5.078C7.37163 5.07819 7.23776 5.02531 7.13924 4.93109C6.93381 4.73524 6.93381 4.41773 7.13924 4.22188L8.54197 2.88457C8.74737 2.68872 9.08045 2.68872 9.28588 2.88457C9.49131 3.08042 9.49131 3.39793 9.28588 3.59378L7.88315 4.93109C7.78459 5.02529 7.65073 5.07816 7.51118 5.078Z" fill="#5A6074"/>
</svg>
