<svg xmlns="http://www.w3.org/2000/svg" width="19" height="19" viewBox="0 0 19 19" fill="none">
  <path fill-rule="evenodd" clip-rule="evenodd" d="M0.0999977 9.40039C0.0999977 4.45034 4.14995 0.400391 9.10007 0.400391C14.14 0.400391 18.1 4.45034 18.1 9.40039C18.1 14.3504 14.05 18.4004 9.10007 18.4004C7.29995 18.4004 5.58993 17.7704 4.14993 16.8703L5.5 15.6103C6.58005 16.2404 7.84002 16.6004 9.19 16.6004C13.15 16.6004 16.39 13.3604 16.39 9.40039C16.39 5.44037 13.15 2.20041 9.19 2.20041C5.31997 2.20041 2.25997 5.08041 1.98997 8.86034L5.50002 9.90035C2.79399 12.6774 1.41105 14.0175 1.35298 13.9203C0.52979 12.5566 0.0964058 10.9933 0.0999977 9.40039ZM12.5193 10.2061L8.41586 12.8314C8.25601 12.9336 8.09434 12.9836 7.93451 12.9836C7.48259 12.9836 7.15591 12.5811 7.15591 12.0244V6.77371C7.15591 6.21899 7.4843 5.81445 7.93451 5.81445C8.09436 5.81445 8.25601 5.8664 8.41586 5.96661L12.5193 8.59391C12.813 8.78263 12.9833 9.07542 12.9833 9.39905C12.9833 9.7226 12.8147 10.0174 12.5193 10.2061Z" fill="white"/>
</svg>