<?xml version="1.0" encoding="UTF-8"?>
<svg width="14px" height="14px" viewBox="0 0 14 14" version="1.1" xmlns="http://www.w3.org/2000/svg" xmlns:xlink="http://www.w3.org/1999/xlink">
    <title>已完成</title>
    <g id="页面-1" stroke="none" stroke-width="1" fill="none" fill-rule="evenodd">
        <g id="PC-每日任务" transform="translate(-1041.000000, -1110.000000)">
            <g id="编组-13备份" transform="translate(460.000000, 1087.000000)">
                <g id="编组-30备份-9" transform="translate(460.000000, 0.000000)">
                    <g id="已完成" transform="translate(121.000000, 23.000000)">
                        <circle id="椭圆形" fill="#FF7000" cx="7" cy="7" r="7"></circle>
                        <path d="M10.628956,4.69057377 L6.48200484,10.2078825 C6.35244375,10.3798001 6.15511227,10.4879337 5.94033986,10.5038797 C5.92140402,10.5053746 5.90296648,10.505873 5.88452894,10.505873 C5.6891907,10.505873 5.50082881,10.4296312 5.36080319,10.2915989 L3.05312105,8.02527661 C2.75861875,7.73575743 2.75413395,7.2628595 3.04365313,6.9683572 C3.33317231,6.67335659 3.80607024,6.66986841 4.10057254,6.95839096 L5.79981592,8.62723732 L9.43400418,3.7916192 C9.68216347,3.46173676 10.1505766,3.39546128 10.4809574,3.64312227 C10.8103415,3.8922782 10.8771153,4.36069134 10.628956,4.69057377 Z" id="形状" fill="#FFFFFF" fill-rule="nonzero"></path>
                    </g>
                </g>
            </g>
        </g>
    </g>
</svg>