<?xml version="1.0" encoding="UTF-8"?>
<svg width="16px" height="16px" viewBox="0 0 16 16" version="1.1" xmlns="http://www.w3.org/2000/svg" xmlns:xlink="http://www.w3.org/1999/xlink">
    <title>详情页数据icon</title>
    <g id="页面-1" stroke="none" stroke-width="1" fill="none" fill-rule="evenodd">
        <g id="详情头部样式" transform="translate(-294.000000, -345.000000)" fill="#F5F5F5" fill-rule="nonzero">
            <g id="编组-2" transform="translate(49.000000, 148.000000)">
                <g id="视频&amp;动画备份" transform="translate(68.000000, 177.000000)">
                    <path d="M181.424408,35.0183776 C181.149415,35.0183776 180.92649,34.795452 180.92649,34.5204594 C180.92649,34.2454669 181.149415,34.0225413 181.424408,34.0225413 L188.505528,34.0225413 C188.78052,34.0225413 189.003446,34.2454669 189.003446,34.5204594 C189.003446,34.795452 188.78052,35.0183776 188.505528,35.0183776 L181.424408,35.0183776 L181.424408,35.0183776 Z M190.939411,20 L178.990524,20 C177.891314,20 177,20.8913137 177,21.990524 L177,31.1862168 C177,32.2865757 177.891314,33.1778894 178.990524,33.1778894 L190.939411,33.1778894 C192.03977,33.1778894 192.931084,32.2865757 192.931084,31.1862168 L192.931084,21.990524 C192.931084,20.8913137 192.038622,20 190.939411,20 Z M190.212347,24.0706389 L186.372577,28.5869347 C186.348457,28.6167983 186.348457,28.6167983 186.32089,28.6420675 C186.041269,28.905782 185.600964,28.8934514 185.33654,28.6145011 L183.166834,26.319598 L180.432017,28.8005743 C180.228062,28.9772559 179.920425,28.9590683 179.738708,28.7595859 C179.556992,28.5601034 179.567498,28.2521076 179.762383,28.0654702 L182.717732,25.3834889 C182.998773,25.127545 183.433039,25.1438939 183.694042,25.4202441 L185.830438,27.6875808 L189.454271,23.4251256 C189.636452,23.2321606 189.937873,23.2157526 190.139923,23.3878018 C190.341974,23.559851 190.373812,23.860034 190.212347,24.0706389 L190.212347,24.0706389 Z" id="详情页数据icon"></path>
                </g>
            </g>
        </g>
    </g>
</svg>