<!-- Generated by IcoMoon.io -->
<svg version="1.1" xmlns="http://www.w3.org/2000/svg" width="12" height="12" viewBox="0 0 512 512">
<title></title>
<g id="icomoon-ignore">
</g>
<path fill="none" stroke="#999" stroke-linejoin="miter" stroke-linecap="butt" stroke-miterlimit="4" stroke-width="21.3333" d="M256 42.666c117.821 0 213.333 95.513 213.333 213.334s-95.512 213.333-213.333 213.333c-117.821 0-213.333-95.512-213.333-213.333s95.512-213.333 213.333-213.333z"></path>
<path fill="#7F817F" d="M274.534 203.925c16.646 0 33.342 9.291 20.373 44.472v0l-27.776 72.298c-3.676 5.565-7.404 14.757-7.404 20.373 0 3.726 0 5.615 3.726 5.615 12.919 0 33.291-31.503 38.907-31.503 1.839 0 3.676 1.789 5.516 5.764 0 9.192-44.472 55.553-83.379 55.553-14.857 0-24.1-14.907-24.1-29.714 0-16.696 14.808-38.856 16.696-44.472v0l27.776-64.894c3.677-5.516 0-9.243-3.726-9.243-14.808 0-27.776 35.18-35.18 35.18-3.726 0-5.615-3.726-5.615-5.615 0-5.615 11.081-24.1 16.696-29.714 14.857-12.97 35.23-24.1 57.49-24.1zM294.957 135.354c14.808 0 25.988 9.243 25.988 25.988s-14.808 29.715-31.503 29.715c-14.856 0-25.988-11.18-25.988-25.988 0-16.745 14.808-29.714 31.503-29.714z"></path>
</svg>
