<?xml version="1.0" encoding="UTF-8"?>
<svg width="14px" height="14px" viewBox="0 0 14 14" version="1.1" xmlns="http://www.w3.org/2000/svg" xmlns:xlink="http://www.w3.org/1999/xlink">
    <title>编组 11</title>
    <g id="页面-1" stroke="none" stroke-width="1" fill="none" fill-rule="evenodd">
        <g id="接受赔率未选中备份" transform="translate(-15.000000, -342.000000)" fill-rule="nonzero">
            <g id="编组-63备份" transform="translate(0.000000, 324.000000)">
                <g id="编组-11" transform="translate(15.000000, 18.000000)">
                    <path d="M7,0.5 C8.79123183,0.5 10.4168752,1.22898122 11.5944172,2.40652321 C12.7707224,3.58282837 13.5,5.20694807 13.5,7 C13.5,8.794 12.7719329,10.4189603 11.5954466,11.5954466 C10.4189603,12.7719329 8.794,13.5 7,13.5 C5.20971429,13.5 3.58491334,12.7698066 2.40755339,11.5924466 C1.23019344,10.4150867 0.5,8.79028571 0.5,7 C0.5,5.20876817 1.22898122,3.58312478 2.40652321,2.4055828 C3.58282837,1.22927763 5.20694807,0.5 7,0.5 Z" id="路径" stroke="#D1D1D1"></path>
                    <path d="M6.264,10.136 C6.264,10.6 6.64,10.968 7.096,10.968 C7.56,10.968 7.928,10.592 7.928,10.136 C7.928,9.672 7.552,9.304 7.096,9.304 C6.632,9.296 6.264,9.672 6.264,10.136 C6.264,10.592 6.264,10.136 6.264,10.136 Z M7.096,3.032 C6.632,3.032 6.264,3.408 6.264,3.864 L6.264,7.424 C6.264,7.888 6.64,8.256 7.096,8.256 C7.552,8.256 7.928,7.88 7.928,7.424 L7.928,3.864 C7.928,3.408 7.56,3.032 7.096,3.032 Z" id="形状" fill="#D1D1D1" transform="translate(7.096000, 7.000000) scale(1, -1) translate(-7.096000, -7.000000) "></path>
                </g>
            </g>
        </g>
    </g>
</svg>