<?xml version="1.0" encoding="UTF-8"?>
<svg width="14px" height="14px" viewBox="0 0 14 14" version="1.1" xmlns="http://www.w3.org/2000/svg" xmlns:xlink="http://www.w3.org/1999/xlink">
    <title>说明</title>
    <g id="页面-1" stroke="none" stroke-width="1" fill="none" fill-rule="evenodd">
        <g id="串关" transform="translate(-206.000000, -702.000000)" fill-rule="nonzero">
            <g id="编组-45" transform="translate(0.000000, 162.000000)">
                <g id="编组-13" transform="translate(0.000000, 527.000000)">
                    <g id="编组-14" transform="translate(206.000000, 11.000000)">
                        <g id="说明" transform="translate(0.000000, 2.000000)">
                            <path d="M7.4081159,0.752575447 C7.95412618,0.805191974 8.39624486,0.876320713 8.8205575,1.02140823 C11.2064315,1.83626737 12.6592832,3.47676186 13.1552492,5.95239106 L13.1552492,5.95239106 L13.2429188,7.39408989 C13.1890205,7.9425179 13.119335,8.37787634 12.9768216,8.79582546 C12.1682738,11.1769362 10.5370828,12.6317014 8.07399607,13.1369387 L8.07399607,13.1369387 L6.59095871,13.2315092 C6.05329763,13.1802683 5.61791794,13.1090204 5.20026116,12.9679957 C2.82040649,12.1566183 1.36545709,10.5240011 0.861582277,8.062074 L0.861582277,8.062074 L0.767063152,6.57984225 C0.820832704,6.03590134 0.890533936,5.60317155 1.03221974,5.18764947 C1.84433096,2.79604483 3.48635227,1.33896885 5.96652359,0.840138659 L5.96652359,0.840138659 Z" id="路径" stroke="#D1D1D1"></path>
                            <path d="M7.66022457,8.99419097 C7.66774411,8.82876109 7.67375974,8.6798742 7.68127928,8.5309873 C7.69481446,8.25877996 7.78053721,8.01514686 7.98055698,7.82264664 C8.11440479,7.69331055 8.24975651,7.56397446 8.39112386,7.44215791 C8.78965948,7.09926689 9.19721855,6.7623915 9.52206268,6.34430507 C9.90405531,5.85252716 10.0168484,5.29908901 9.85141853,4.69902972 C9.65139876,3.9801617 9.16413257,3.50492677 8.5114365,3.18459436 C8.0978618,2.98156678 7.64969722,2.90486748 7.19250918,2.88682058 C6.46912944,2.85824633 5.77582785,2.9665277 5.16824902,3.39213367 C4.57570926,3.80871618 4.20274008,4.37117778 4.09596261,5.09756534 C4.056861,5.36826878 4.11852123,5.51114004 4.3380918,5.59235107 C4.68248673,5.72168716 5.03139339,5.70514417 5.36826878,5.56377682 C5.43293682,5.53670648 5.48707751,5.45098372 5.51865958,5.38030004 C5.59385498,5.21487016 5.6359644,5.0344012 5.71867934,4.87348305 C6.11119933,4.10348215 7.09776298,3.82074745 7.84971698,4.25387295 C8.2858503,4.5065295 8.4933896,4.97875661 8.36706133,5.43293682 C8.3054011,5.6540113 8.17004938,5.8239529 8.00010778,5.97133589 C7.63465814,6.28866048 7.26469677,6.59996943 6.90827057,6.92631747 C6.29918783,7.48426734 6.1999299,8.20764708 6.26309404,8.98667143 C6.29918783,8.98817534 6.33227381,8.99118315 6.36535978,8.99118315 C6.79246966,8.99419097 7.22108344,8.99419097 7.66022457,8.99419097 L7.66022457,8.99419097 Z" id="路径" fill="#D1D1D1"></path>
                            <path d="M5.96981678,10.7251891 C5.96682416,11.266596 6.41047702,11.705741 6.96090735,11.705741 C7.50381814,11.707241 7.95198272,11.2696038 7.95649445,10.7387242 C7.96100617,10.2048369 7.50832986,9.75667232 6.96090735,9.75667232 C6.41799656,9.75817623 5.9728398,10.1913017 5.96981678,10.7251891 L5.96981678,10.7251891 Z" id="路径" fill="#D1D1D1"></path>
                        </g>
                    </g>
                </g>
            </g>
        </g>
    </g>
</svg>