<?xml version="1.0" encoding="UTF-8"?>
<svg width="45px" height="45px" viewBox="0 0 45 45" version="1.1" xmlns="http://www.w3.org/2000/svg" xmlns:xlink="http://www.w3.org/1999/xlink">
    <title>编组 8@2x</title>
    <defs>
        <linearGradient x1="74.0154399%" y1="100%" x2="23.8071351%" y2="22.8528147%" id="linearGradient-1">
            <stop stop-color="#FF9124" offset="0.0218531469%"></stop>
            <stop stop-color="#F7B500" offset="100%"></stop>
        </linearGradient>
    </defs>
    <g id="页面-1" stroke="none" stroke-width="1" fill="none" fill-rule="evenodd">
        <g id="滚球（角球）" transform="translate(-309.000000, -667.000000)">
            <g id="编组-21" transform="translate(309.866025, 667.232051)">
                <circle id="椭圆形" fill="url(#linearGradient-1)" cx="22" cy="22" r="22"></circle>
                <path d="M9.8099746,26.7679492 L9.8099746,20.5799492 L11.9939746,25.0909492 L13.0339746,25.0909492 L15.1659746,20.5799492 L15.1659746,26.7679492 L16.5699746,26.7679492 L16.5699746,17.5119492 L15.1659746,17.5119492 L12.5139746,23.2709492 L9.8099746,17.5119492 L8.4059746,17.5119492 L8.4059746,26.7679492 L9.8099746,26.7679492 Z M21.0419746,26.8459492 C21.7049746,26.8459492 22.3419746,26.5989492 22.7969746,26.1049492 L22.7969746,26.7679492 L24.0969746,26.7679492 L24.0969746,20.1769492 L22.7709746,20.1769492 L22.7709746,24.1939492 C22.7709746,25.2079492 22.1469746,25.6629492 21.4059746,25.6629492 C20.6649746,25.6629492 20.0799746,25.2209492 20.0799746,24.1939492 L20.0799746,20.1769492 L18.7539746,20.1769492 L18.7539746,24.3889492 C18.7539746,25.1299492 18.9099746,25.7539492 19.4169746,26.2479492 C19.8069746,26.6249492 20.3659746,26.8459492 21.0419746,26.8459492 Z M28.7899746,26.7679492 L28.7899746,25.6369492 L28.2049746,25.6369492 C27.6719746,25.6369492 27.4899746,25.3769492 27.4899746,24.8699492 L27.4899746,17.5119492 L26.1639746,17.5119492 L26.1639746,24.9479492 C26.1639746,25.9229492 26.7099746,26.7679492 27.9709746,26.7679492 L28.7899746,26.7679492 Z M33.0019746,26.7679492 L33.0019746,25.6369492 L32.4559746,25.6369492 C31.9619746,25.6369492 31.7279746,25.3509492 31.7279746,24.8699492 L31.7279746,21.3079492 L33.0019746,21.3079492 L33.0019746,20.2939492 L31.7279746,20.2939492 L31.7279746,18.2919492 L30.4019746,18.2919492 L30.4019746,20.2939492 L29.6479746,20.2939492 L29.6479746,21.3079492 L30.4019746,21.3079492 L30.4019746,24.9349492 C30.4019746,25.8839492 30.9739746,26.7679492 32.2089746,26.7679492 L33.0019746,26.7679492 Z M36.0569746,18.8769492 L36.0569746,17.4729492 L34.6529746,17.4729492 L34.6529746,18.8769492 L36.0569746,18.8769492 Z M36.0179746,26.7679492 L36.0179746,20.1769492 L34.6919746,20.1769492 L34.6919746,26.7679492 L36.0179746,26.7679492 Z" id="Multi" fill="#FFFFFF" fill-rule="nonzero"></path>
            </g>
        </g>
    </g>
</svg>