<svg width="6" height="7" viewBox="0 0 6 7" fill="none" xmlns="http://www.w3.org/2000/svg">
<g clip-path="url(#clip0_2448_130901)">
<path fill-rule="evenodd" clip-rule="evenodd" d="M4.88276 3.8369L2.99276 5.72091L1.12276 3.8539C1.07632 3.80734 1.02114 3.7704 0.960394 3.74519C0.899649 3.71999 0.834528 3.70701 0.768761 3.70701C0.702993 3.70701 0.637872 3.71999 0.577127 3.74519C0.516382 3.7704 0.461206 3.80734 0.414761 3.8539L0.374761 3.8939C0.328259 3.94018 0.291358 3.99519 0.266179 4.05577C0.240999 4.11634 0.228037 4.1813 0.228037 4.24691C0.228037 4.31251 0.240999 4.37747 0.266179 4.43804C0.291358 4.49862 0.328259 4.55363 0.374761 4.59991L2.63476 6.85391C2.72852 6.94764 2.85568 7.0003 2.98826 7.0003C3.12084 7.0003 3.248 6.94764 3.34176 6.85391L5.62476 4.57691C5.67126 4.53063 5.70816 4.47562 5.73334 4.41504C5.75852 4.35447 5.77148 4.28951 5.77148 4.22391C5.77148 4.1583 5.75852 4.09334 5.73334 4.03277C5.70816 3.97219 5.67126 3.91718 5.62476 3.8709L5.58976 3.8369C5.496 3.74317 5.36884 3.69051 5.23626 3.69051C5.10368 3.69051 4.97652 3.74317 4.88276 3.8369V3.8369ZM4.88276 0.146905L2.99276 2.0299L1.12376 0.162905C1.07732 0.116342 1.02214 0.0793989 0.961394 0.0541924C0.900649 0.028986 0.835528 0.0160112 0.769761 0.0160112C0.703993 0.0160112 0.638872 0.028986 0.578127 0.0541924C0.517382 0.0793989 0.462206 0.116342 0.415761 0.162905L0.375761 0.202905C0.329259 0.24918 0.292358 0.304187 0.267179 0.364766C0.241999 0.425345 0.229037 0.490302 0.229037 0.555905C0.229037 0.621508 0.241999 0.686465 0.267179 0.747044C0.292358 0.807623 0.329259 0.86263 0.375761 0.908905L2.63576 3.1629C2.72952 3.25664 2.85668 3.3093 2.98926 3.3093C3.12184 3.3093 3.249 3.25664 3.34276 3.1629L5.62476 0.885905C5.67111 0.839648 5.70789 0.784704 5.73298 0.724217C5.75807 0.66373 5.77098 0.598889 5.77098 0.533405C5.77098 0.467921 5.75807 0.403079 5.73298 0.342593C5.70789 0.282106 5.67111 0.227162 5.62476 0.180905L5.58976 0.145905C5.496 0.0521694 5.36884 -0.000488281 5.23626 -0.000488281C5.10368 -0.000488281 4.97652 0.0521694 4.88276 0.145905V0.146905Z" fill="#A21C3A"/>
</g>
<defs>
<clipPath id="clip0_2448_130901">
<rect width="6" height="7" fill="white" transform="translate(6 7) rotate(-180)"/>
</clipPath>
</defs>
</svg>
