<?xml version="1.0" encoding="UTF-8"?>
<svg width="32px" height="32px" viewBox="0 0 32 32" version="1.1" xmlns="http://www.w3.org/2000/svg" xmlns:xlink="http://www.w3.org/1999/xlink">
    <!-- Generator: Sketch 58 (84663) - https://sketch.com -->
    <title>188_投注弹窗_注单确认中</title>
    <desc>Created with Sketch.</desc>
    <g id="页面-1" stroke="none" stroke-width="1" fill="none" fill-rule="evenodd">
        <g id="42投注界面---投注弹窗---投注已受理" transform="translate(-172.000000, -389.000000)" fill="#D29B9B" fill-rule="nonzero">
            <g id="弹框" transform="translate(48.000000, 193.000000)">
                <g id="编组" transform="translate(55.000000, 196.000000)">
                    <g id="编组-3">
                        <g id="188_投注弹窗_注单确认中" transform="translate(69.000000, 0.000000)">
                            <g id="编辑">
                                <path d="M16,0 C24.836556,-1.623249e-15 32,7.163444 32,16 C32,24.836556 24.836556,32 16,32 C7.163444,32 1.082166e-15,24.836556 0,16 C-1.082166e-15,7.163444 7.163444,1.623249e-15 16,0 Z M16.090404,6 L14.490404,6 C14.2694901,6 14.090404,6.1790861 14.090404,6.4 L14.090404,6.4 L14.090404,17.6 C14.090404,17.7445687 14.1670985,17.8712244 14.2820201,17.9414998 L14.2820201,17.9414998 L14.306418,17.9642824 L19.821938,22.5923532 C19.9911679,22.7343539 20.2434701,22.7122803 20.3854708,22.5430505 L20.3854708,22.5430505 L21.413931,21.3173794 C21.5559317,21.1481495 21.5338581,20.8958472 21.3646283,20.7538465 L21.3646283,20.7538465 L16.490404,16.664 L16.490404,6.4 C16.490404,6.1790861 16.3113179,6 16.090404,6 L16.090404,6 Z" id="形状结合"></path>
                            </g>
                        </g>
                    </g>
                </g>
            </g>
        </g>
    </g>
</svg>