<?xml version="1.0" encoding="UTF-8"?>
<svg width="24px" height="24px" viewBox="0 0 24 24" version="1.1" xmlns="http://www.w3.org/2000/svg" xmlns:xlink="http://www.w3.org/1999/xlink">
    <!-- Generator: Sketch 61.1 (89650) - https://sketch.com -->
    <title>caidan</title>
    <desc>Created with Sketch.</desc>
    <g id="caidan" stroke="none" stroke-width="1" fill="none" fill-rule="evenodd">
        <g id="编组">
            <rect id="矩形" fill="#D8D8D8" opacity="0" x="0" y="0" width="24" height="24"></rect>
            <path d="M18,2.25 L6,2.25 C5.03350169,2.25 4.25,3.03350169 4.25,4 L4.25,20 C4.25,20.9664983 5.03350169,21.75 6,21.75 L18,21.75 C18.9664983,21.75 19.75,20.9664983 19.75,20 L19.75,4 C19.75,3.03350169 18.9664983,2.25 18,2.25 Z M6,3.75 L18,3.75 C18.1380712,3.75 18.25,3.86192881 18.25,4 L18.25,20 C18.25,20.1380712 18.1380712,20.25 18,20.25 L6,20.25 C5.86192881,20.25 5.75,20.1380712 5.75,20 L5.75,4 C5.75,3.86192881 5.86192881,3.75 6,3.75 Z" id="矩形" fill="#9AA4C2" fill-rule="nonzero"></path>
            <path d="M15,9.25 C15.4142136,9.25 15.75,9.58578644 15.75,10 C15.75,10.3796958 15.4678461,10.693491 15.1017706,10.7431534 L15,10.75 L9,10.75 C8.58578644,10.75 8.25,10.4142136 8.25,10 C8.25,9.62030423 8.53215388,9.30650904 8.89822944,9.25684662 L9,9.25 L15,9.25 Z" id="路径-20" fill="#9AA4C2" fill-rule="nonzero"></path>
            <path d="M15,13.25 C15.4142136,13.25 15.75,13.5857864 15.75,14 C15.75,14.3796958 15.4678461,14.693491 15.1017706,14.7431534 L15,14.75 L9,14.75 C8.58578644,14.75 8.25,14.4142136 8.25,14 C8.25,13.6203042 8.53215388,13.306509 8.89822944,13.2568466 L9,13.25 L15,13.25 Z" id="路径-22" fill="#9AA4C2" fill-rule="nonzero"></path>
        </g>
    </g>
</svg>