<?xml version="1.0" encoding="UTF-8"?>
<svg width="20px" height="20px" viewBox="0 0 20 20" version="1.1" xmlns="http://www.w3.org/2000/svg" xmlns:xlink="http://www.w3.org/1999/xlink">
    <title>编组 54</title>
    <g id="页面-1" stroke="none" stroke-width="1" fill="none" fill-rule="evenodd">
        <g id="编组-54">
            <circle id="椭圆形备份-9" stroke="#FFB001" cx="10" cy="10" r="9.5"></circle>
            <path d="M7.92706552,10.4425247 L6.04516789,8.54131587 C5.59185276,8.08334903 4.85311276,8.07957808 4.39514591,8.53289321 C4.36911888,8.55865588 4.34431921,8.58562964 4.32082927,8.6137249 C3.85736401,9.1680548 3.90077968,9.98623576 4.42030661,10.4884045 L7.91064059,13.8621211 C8.28952282,14.2283443 8.88757968,14.2377177 9.2777526,13.8835478 L15.6415804,8.10694055 C16.1239989,7.66903714 16.1849282,6.93235107 15.7810083,6.42114107 C15.4016262,5.94098662 14.7048341,5.8592945 14.2246797,6.23867661 C14.2120919,6.24862249 14.1997217,6.25884058 14.1875777,6.26932365 L9.29121635,10.4960115 C8.89316308,10.8396232 8.29699287,10.816248 7.92706552,10.4425247 Z" id="路径-8备份-2" fill="#FFB001" fill-rule="nonzero"></path>
        </g>
    </g>
</svg>