<?xml version="1.0" encoding="UTF-8"?>
<svg width="14px" height="14px" viewBox="0 0 14 14" version="1.1" xmlns="http://www.w3.org/2000/svg" xmlns:xlink="http://www.w3.org/1999/xlink">
    <title>关闭按钮</title>
    <g id="页面-1" stroke="#9AA4C2" stroke-width="1" fill="none" fill-rule="evenodd">
        <g id="移除无效注单" transform="translate(-143.000000, -520.000000)">
            <g id="编组-2" transform="translate(143.000000, 518.000000)">
                <g id="关闭按钮" transform="translate(0.000000, 2.000000)">
                    <path d="M7,0.5 C8.79635978,0.5 10.4203321,1.22763279 11.595713,2.40301363 C12.7727808,3.58008142 13.5,5.20612904 13.5,7 C13.5,8.79635978 12.7723672,10.4203321 11.5969864,11.595713 C10.4199186,12.7727808 8.79387096,13.5 7,13.5 C5.20364022,13.5 3.57966785,12.7723672 2.40428702,11.5969864 C1.22721923,10.4199186 0.5,8.79387096 0.5,7 C0.5,5.20364022 1.22763279,3.57966785 2.40301363,2.40428702 C3.58008142,1.22721923 5.20612904,0.5 7,0.5 Z" id="路径" stroke="#FF9124"></path>
                    <path d="M9.53225057,4.15593328 C9.53820163,4.16159798 9.54401216,4.16740851 9.54967686,4.17335957 L9.86899618,4.50882053 C10.052784,4.70189882 10.052784,5.00520796 9.86899618,5.19828625 L8.009,7.151 L9.86899618,9.10501461 C10.052784,9.2980929 10.052784,9.60140204 9.86899618,9.79448033 L9.54967686,10.1299413 C9.35928616,10.3299563 9.04279982,10.3377583 8.84278484,10.1473676 C8.83683379,10.1417029 8.83102326,10.1358923 8.82535855,10.1299413 L6.999,8.211 L5.17464145,10.1299413 C4.98425075,10.3299563 4.66776441,10.3377583 4.46774943,10.1473676 C4.46179837,10.1417029 4.45598784,10.1358923 4.45032314,10.1299413 L4.13100382,9.79448033 C3.94721603,9.60140204 3.94721603,9.2980929 4.13100382,9.10501461 L5.99,7.151 L4.13100382,5.19828625 C3.94721603,5.00520796 3.94721603,4.70189882 4.13100382,4.50882053 L4.45032314,4.17335957 C4.64071384,3.97334459 4.95720018,3.96554258 5.15721516,4.15593328 C5.16316621,4.16159798 5.16897674,4.16740851 5.17464145,4.17335957 L7,6.091 L8.82535855,4.17335957 C9.01574925,3.97334459 9.33223559,3.96554258 9.53225057,4.15593328 Z" id="形状结合" fill="#FF9124" fill-rule="nonzero"></path>
                </g>
            </g>
        </g>
    </g>
</svg>