<?xml version="1.0" encoding="UTF-8"?>
<svg width="10px" height="10px" viewBox="0 0 10 10" version="1.1" xmlns="http://www.w3.org/2000/svg" xmlns:xlink="http://www.w3.org/1999/xlink">
    <!-- Generator: Sketch 58 (84663) - https://sketch.com -->
    <title>Group Copy</title>
    <desc>Created with Sketch.</desc>
    <g id="页面-1" stroke="none" stroke-width="1" fill="none" fill-rule="evenodd">
        <g id="单关-处理中" transform="translate(-17.000000, -347.000000)" fill-rule="nonzero">
            <g id="编组-3">
                <g id="编组-14复制" transform="translate(0.000000, 307.000000)">
                    <g id="Group-Copy" transform="translate(14.000000, 37.000000)">
                        <rect id="Rectangle" fill="#000000" opacity="0" x="0" y="0" width="16" height="16"></rect>
                        <path d="M12.7740049,3.22599515 C13.0753317,3.52732201 13.0753317,4.01586939 12.7740049,4.31719626 L9.09120111,8 L12.7740049,11.6828037 C13.0753317,11.9841306 13.0753317,12.472678 12.7740049,12.7740049 C12.472678,13.0753317 11.9841306,13.0753317 11.6828037,12.7740049 L7.999318,9.09051911 L4.31719626,12.7740049 C4.01586939,13.0753317 3.52732201,13.0753317 3.22599515,12.7740049 C2.92466828,12.472678 2.92466828,11.9841306 3.22599515,11.6828037 L6.90811689,7.999318 L3.22599515,4.31719626 C2.92466828,4.01586939 2.92466828,3.52732201 3.22599515,3.22599515 C3.52732201,2.92466828 4.01586939,2.92466828 4.31719626,3.22599515 L8,6.90879889 L11.6828037,3.22599515 C11.9841306,2.92466828 12.472678,2.92466828 12.7740049,3.22599515 Z" id="路径" fill="#9AA4C2"></path>
                    </g>
                </g>
            </g>
        </g>
    </g>
</svg>