<?xml version="1.0" encoding="UTF-8"?>
<svg width="22px" height="23px" viewBox="0 0 22 23" version="1.1" xmlns="http://www.w3.org/2000/svg" xmlns:xlink="http://www.w3.org/1999/xlink">
    <title>详情数据</title>
    <g id="页面-1" stroke="none" stroke-width="1" fill="none" fill-rule="evenodd">
        <g id="早盘详情" transform="translate(-291.000000, -53.000000)">
            <g id="详情数据" transform="translate(291.000000, 53.000000)">
                <rect id="矩形" x="0" y="0" width="22" height="22"></rect>
                <path d="M3.12222222,7.61111111 C3.74200844,7.61111111 4.24444444,8.11354711 4.24444444,8.73333333 L4.24444444,21.0777778 C4.24444444,21.697564 3.74200844,22.2 3.12222222,22.2 C2.502436,22.2 2,21.697564 2,21.0777778 L2,8.73333333 C2,8.11354711 2.502436,7.61111111 3.12222222,7.61111111 Z M11.1,2 C11.6522847,2 12.1,2.44771525 12.1,3 L12.1,21.2 C12.1,21.7522847 11.6522847,22.2 11.1,22.2 L10.8555556,22.2 C10.3032708,22.2 9.85555556,21.7522847 9.85555556,21.2 L9.85555556,3 C9.85555556,2.44771525 10.3032708,2 10.8555556,2 L11.1,2 Z M18.8333333,10.9777778 C19.4531196,10.9777778 19.9555556,11.4802138 19.9555556,12.1 L19.9555556,21.0777778 C19.9555556,21.697564 19.4531196,22.2 18.8333333,22.2 C18.2135471,22.2 17.7111111,21.697564 17.7111111,21.0777778 L17.7111111,12.1 C17.7111111,11.4802138 18.2135471,10.9777778 18.8333333,10.9777778 Z" id="形状结合备份-8" fill="#FFFFFF"></path>
            </g>
        </g>
    </g>
</svg>