<?xml version="1.0" encoding="UTF-8"?>
<svg width="18px" height="14px" viewBox="0 0 18 14" version="1.1" xmlns="http://www.w3.org/2000/svg" xmlns:xlink="http://www.w3.org/1999/xlink">
    <!-- Generator: Sketch 58 (84663) - https://sketch.com -->
    <title>形状结合</title>
    <desc>Created with Sketch.</desc>
    <g id="页面-1" stroke="none" stroke-width="1" fill="none" fill-rule="evenodd">
        <g id="画板" transform="translate(-1225.000000, -5473.000000)" fill="#7F7F7F" fill-rule="nonzero">
            <g id="fawgfawf" transform="translate(1225.000000, 5473.000000)">
                <path d="M5.1711731,12.5488892 C4.64946493,12.3380737 3.97587077,11.8686523 3.15039063,11.140625 C2.16015625,10.2148437 1.30859375,9.0039062 0.59765625,7.5058594 C0.44726563,7.1875 0.44726563,6.81640625 0.59765625,6.49804687 C2.44921875,2.59570312 5.24609375,0.6328125 9,0.6328125 C10.4101563,0.6328125 11.6835938,0.91015625 12.8242188,1.46289062 C13.7701925,1.96094767 14.4481049,2.43085225 14.8579559,2.87260437 L14.8568633,2.8728125 L15.1142806,3.12235279 C15.9038302,3.92092265 16.6004311,4.9116897 17.2030135,6.09465393 L17.4003906,6.49609375 C17.5527344,6.81835938 17.5527344,7.1855469 17.4023438,7.5019531 C15.5507813,11.4042969 12.7539063,13.3671875 9,13.3671875 C7.71803977,13.3671875 6.55379921,13.1432868 5.49134314,12.690235 L5.17564392,12.5474396 L5.31286329,12.4078125 L5.1711731,12.5488892 Z M8.921875,3.5625 C7.0234375,3.5625 5.484375,5.1015625 5.484375,7 C5.484375,7.45200897 5.57190689,7.88249362 5.72975128,8.27792459 L5.81445313,8.4726563 C6.16837204,9.2159929 6.78824738,9.8245831 7.57559863,10.154176 L7.565979,10.1620026 L7.55886328,10.1688125 L7.76946513,10.2517559 C8.05683729,10.352365 8.36112298,10.4121258 8.67800903,10.4320057 L8.91796875,10.4394531 C10.8164063,10.4394531 12.3554688,8.9003906 12.3554688,7.0019531 C12.3554688,6.51757813 12.2558594,6.0546875 12.0742188,5.63671875 L12.0748633,5.6398125 C11.7624498,4.8438589 11.1520248,4.23992508 10.3867163,3.8991666 L10.3945313,3.89257813 C9.9472656,3.68164063 9.4492188,3.5625 8.921875,3.5625 Z M13.1398633,4.5688125 L14.8568633,2.8728125 L14.8476563,2.86328125 L13.1398633,4.5688125 Z" id="形状结合"></path>
            </g>
        </g>
    </g>
</svg>