<?xml version="1.0" encoding="UTF-8"?>
<svg width="14px" height="14px" viewBox="0 0 14 14" version="1.1" xmlns="http://www.w3.org/2000/svg" xmlns:xlink="http://www.w3.org/1999/xlink">
    <!-- Generator: Sketch 58 (84663) - https://sketch.com -->
    <title>登录_记住密码_选中</title>
    <desc>Created with Sketch.</desc>
    <g id="页面-1" stroke="none" stroke-width="1" fill="none" fill-rule="evenodd">
        <g id="188体育-首页备份-3" transform="translate(-80.000000, -437.000000)" fill="#FFFFFF">
            <g id="编组-4">
                <g id="编组-2" transform="translate(65.000000, 228.000000)">
                    <g id="编组-8备份-2" transform="translate(15.000000, 209.000000)">
                        <path d="M7,0 C10.8659932,-7.10171439e-16 14,3.13400675 14,7 C14,10.8659932 10.8659932,14 7,14 C3.13400675,14 4.73447626e-16,10.8659932 0,7 C-4.73447626e-16,3.13400675 3.13400675,7.10171439e-16 7,0 Z M9.96166667,4.33319851 C9.83051838,4.33319851 9.70492115,4.38613017 9.61333334,4.48 L9.61333334,4.48 L5.46666667,8.11 L3.84333333,6.47666667 C3.75072265,6.38343663 3.6247433,6.33100815 3.49333333,6.33100815 C3.36192337,6.33100815 3.23594401,6.38343663 3.14333333,6.47666667 C2.95410947,6.67292971 2.95410947,6.98373696 3.14333333,7.18 L3.14333333,7.18 L5.13333334,9.16 C5.22127614,9.25018546 5.3407616,9.30275907 5.46666667,9.30666666 C5.59814774,9.30603279 5.72401267,9.2532894 5.81666667,9.16 L5.81666667,9.16 L10.31,5.18 C10.40323,5.08738932 10.4556585,4.96140997 10.4556585,4.83 C10.4556585,4.69859004 10.40323,4.57261068 10.31,4.48 C10.2184122,4.38613017 10.092815,4.33319851 9.96166667,4.33319851 Z" id="登录_记住密码_选中"></path>
                    </g>
                </g>
            </g>
        </g>
    </g>
</svg>