<?xml version="1.0" encoding="UTF-8"?>
<svg width="16px" height="16px" viewBox="0 0 16 16" version="1.1" xmlns="http://www.w3.org/2000/svg" xmlns:xlink="http://www.w3.org/1999/xlink">
    <!-- Generator: Sketch 61.1 (89650) - https://sketch.com -->
    <title>buzhichi</title>
    <desc>Created with Sketch.</desc>
    <g id="buzhichi" stroke="none" stroke-width="1" fill="none" fill-rule="evenodd">
        <g id="编组">
            <rect id="矩形" fill="#D8D8D8" opacity="0" x="0" y="0" width="16" height="16"></rect>
            <path d="M7.529,2 L7.52939226,4.76641757 C5.93302806,4.9928664 4.70588235,6.35431981 4.70588235,8 C4.70588235,9.64568019 5.93302806,11.0071336 7.52939226,11.2335824 L7.529,14 L1.85714286,14 C0.831471179,14 -9.64360511e-17,13.1685288 0,12.1428571 L0,3.85714286 C-1.25608554e-16,2.83147118 0.831471179,2 1.85714286,2 L7.529,2 Z M14.1428571,2 C15.1685288,2 16,2.83147118 16,3.85714286 L16,12.1428571 C16,13.1685288 15.1685288,14 14.1428571,14 L8.47,14 L8.47060774,11.2335824 C10.0669719,11.0071336 11.2941176,9.64568019 11.2941176,8 C11.2941176,6.35431981 10.0669719,4.9928664 8.47060774,4.76641757 L8.47,2 L14.1428571,2 Z M8,5.66666667 C9.29949353,5.66666667 10.3529412,6.71133558 10.3529412,8 C10.3529412,9.28866442 9.29949353,10.3333333 8,10.3333333 C6.70050647,10.3333333 5.64705882,9.28866442 5.64705882,8 C5.64705882,6.71133558 6.70050647,5.66666667 8,5.66666667 Z M2.3592437,6.6 L2.34663866,6.6 C2.09022074,6.6 1.88235294,6.80786779 1.88235294,7.06428571 L1.88235294,7.06428571 L1.88235294,8.93571429 C1.88235294,9.19213221 2.09022074,9.4 2.34663866,9.4 L2.34663866,9.4 L2.3592437,9.4 C2.61566162,9.4 2.82352941,9.19213221 2.82352941,8.93571429 L2.82352941,8.93571429 L2.82352941,7.06428571 C2.82352941,6.80786779 2.61566162,6.6 2.3592437,6.6 L2.3592437,6.6 Z M13.6533613,6.6 L13.6407563,6.6 C13.3843384,6.6 13.1764706,6.80786779 13.1764706,7.06428571 L13.1764706,7.06428571 L13.1764706,8.93571429 C13.1764706,9.19213221 13.3843384,9.4 13.6407563,9.4 L13.6407563,9.4 L13.6533613,9.4 C13.9097793,9.4 14.1176471,9.19213221 14.1176471,8.93571429 L14.1176471,8.93571429 L14.1176471,7.06428571 C14.1176471,6.80786779 13.9097793,6.6 13.6533613,6.6 L13.6533613,6.6 Z" id="形状结合" fill="#D7D9DF"></path>
        </g>
    </g>
</svg>