<?xml version="1.0" encoding="UTF-8"?>
<svg width="16px" height="14px" viewBox="0 0 16 14" version="1.1" xmlns="http://www.w3.org/2000/svg" xmlns:xlink="http://www.w3.org/1999/xlink">
    <!-- Generator: Sketch 58 (84663) - https://sketch.com -->
    <title>icon/donghua</title>
    <desc>Created with Sketch.</desc>
    <g id="专业版" stroke="none" stroke-width="1" fill="none" fill-rule="evenodd">
        <g id="投注区切图" transform="translate(-55.000000, -81.000000)">
            <g id="icon/donghua" transform="translate(55.000000, 80.000000)">
                <rect id="矩形" fill="#D8D8D8" opacity="0" x="0" y="0" width="16" height="16"></rect>
                <path d="M7.529,1 L7.52939226,4.76641757 C5.93302806,4.9928664 4.70588235,6.35431981 4.70588235,8 C4.70588235,9.64568019 5.93302806,11.0071336 7.52939226,11.2335824 L7.529,15 L2,15 C0.8954305,15 1.3527075e-16,14.1045695 0,13 L0,3 C-1.3527075e-16,1.8954305 0.8954305,1 2,1 L7.529,1 Z M14,1 C15.1045695,1 16,1.8954305 16,3 L16,13 C16,14.1045695 15.1045695,15 14,15 L8.47,15 L8.47060774,11.2335824 C10.0669719,11.0071336 11.2941176,9.64568019 11.2941176,8 C11.2941176,6.35431981 10.0669719,4.9928664 8.47060774,4.76641757 L8.47,1 L14,1 Z M8,5.66666667 C9.29949353,5.66666667 10.3529412,6.71133558 10.3529412,8 C10.3529412,9.28866442 9.29949353,10.3333333 8,10.3333333 C6.70050647,10.3333333 5.64705882,9.28866442 5.64705882,8 C5.64705882,6.71133558 6.70050647,5.66666667 8,5.66666667 Z M2.35294118,6.6 C2.1219201,6.6 1.92978036,6.76647074 1.88993475,6.9859994 L1.88235294,7.07058824 L1.88235294,8.92941176 C1.88235294,9.18931047 2.09304247,9.4 2.35294118,9.4 C2.58396225,9.4 2.776102,9.23352926 2.81594761,9.0140006 L2.82352941,8.92941176 L2.82352941,7.07058824 C2.82352941,6.81068953 2.61283988,6.6 2.35294118,6.6 Z M13.6470588,6.6 C13.3871601,6.6 13.1764706,6.81068953 13.1764706,7.07058824 L13.1764706,7.07058824 L13.1764706,8.92941176 C13.1764706,9.18931047 13.3871601,9.4 13.6470588,9.4 C13.9069575,9.4 14.1176471,9.18931047 14.1176471,8.92941176 L14.1176471,8.92941176 L14.1176471,7.07058824 C14.1176471,6.81068953 13.9069575,6.6 13.6470588,6.6 Z" id="形状结合" fill="#74DBB3"></path>
            </g>
        </g>
    </g>
</svg>