<?xml version="1.0" encoding="UTF-8"?>
<svg width="26px" height="26px" viewBox="0 0 26 26" version="1.1" xmlns="http://www.w3.org/2000/svg" xmlns:xlink="http://www.w3.org/1999/xlink">
    <title>双击</title>
    <g id="页面-1" stroke="none" stroke-width="1" fill="none" fill-rule="evenodd">
        <g id="直播样式备份" transform="translate(-96.000000, -158.000000)" fill="#FFFFFF">
            <g id="编组-9" transform="translate(0.000000, 44.000000)">
                <g id="双击" transform="translate(96.000000, 114.000000)">
                    <g id="编组" transform="translate(4.116667, 1.083333)">
                        <path d="M16.6534983,16.8726025 C16.6534983,20.1142608 16.6382233,22.7424275 11.438765,22.7424275 C9.23624,22.7424275 7.913815,22.2516775 6.91184,21.2564192 L1.51164,15.8917525 C1.03367333,15.4138942 1.15414,14.8034358 1.54489833,14.4118108 C1.935765,14.0210525 2.65369,14.0074025 3.031665,14.3823442 C3.031665,14.3823442 3.97914833,15.3237608 4.79565667,16.1357192 C5.18219,16.5204108 5.56904833,16.9048858 5.956015,17.2891442 L5.956015,7.0537025 C5.956015,6.52351917 6.38924,6.0933275 6.923865,6.0933275 C7.45859833,6.0933275 7.82368167,6.52351917 7.82368167,7.0537025 L7.82368167,13.5643192 L7.83429833,13.5643192 C7.82725667,13.5995275 7.82379,13.6352775 7.82368167,13.6711358 C7.82368167,13.9656942 8.064615,14.2050025 8.36144833,14.2050025 C8.65828167,14.2050025 8.899215,13.9664525 8.899215,13.6711358 C8.899215,13.6347358 8.89542333,13.5990942 8.88859833,13.5643192 L8.899215,13.5643192 L8.899215,10.8960692 C8.899215,10.3657775 9.28542333,9.93558583 9.820265,9.93558583 C9.820265,9.93558583 10.7668817,9.9228025 10.7668817,10.8960692 L10.7668817,14.4178775 L10.7776067,14.4178775 C10.7704567,14.4530858 10.76699,14.4888358 10.7668817,14.5246942 C10.7668817,14.8192525 11.007815,15.0586692 11.3046483,15.0586692 C11.60159,15.0586692 11.842415,14.8200108 11.842415,14.5246942 C11.842415,14.4882942 11.8387317,14.4527608 11.8317983,14.4178775 L11.842415,14.4178775 L11.842415,11.9631525 C11.842415,11.4329692 12.222665,11.0027775 12.7573983,11.0027775 C12.7573983,11.0027775 13.72384,11.0633358 13.72384,11.9631525 L13.72384,15.0586692 L13.7344567,15.0586692 C13.727415,15.0937692 13.72384,15.1296275 13.72384,15.1653775 C13.72384,15.4600442 13.964665,15.6993525 14.2616067,15.6993525 C14.55844,15.6993525 14.7857233,15.4608025 14.7857233,15.1653775 C14.7857233,15.1290858 14.7819317,15.0934442 14.7757567,15.0586692 L14.7857233,15.0586692 L14.7857233,12.9455192 C14.7857233,12.4153358 15.184065,11.9851442 15.7187983,11.9851442 C15.7187983,11.9851442 16.6557733,11.9472275 16.6557733,12.9455192 L16.6557733,16.8726025 L16.6534983,16.8726025 M15.774915,10.7891442 L15.7211817,10.7891442 C15.3248983,10.7891442 15.0000067,10.9027858 14.6873567,11.0967025 C14.4130567,10.2976358 13.716365,9.72206083 12.8188233,9.72206083 C12.4226483,9.72206083 12.043915,9.83559417 11.7310483,10.0295108 C11.456965,9.23044417 10.760165,8.65486917 9.86197333,8.65486917 C9.51194833,8.65486917 9.18629833,8.7427275 8.89845667,8.8964525 L8.89845667,6.8401775 C8.89845667,5.7199025 8.050965,4.81261083 6.923215,4.81261083 C5.79535667,4.81261083 4.88048167,5.72076917 4.88048167,6.8401775 L4.88048167,14.7125442 L3.64060667,13.4772192 C2.843165,12.6849775 1.43125667,12.7978608 0.752006667,13.4772192 C0.07254,14.1565775 -0.372818333,15.5229858 0.599798333,16.4961442 L6.304415,22.1629525 C6.42184833,22.2796275 6.55130667,22.3773442 6.68769833,22.4598942 C7.72748167,23.3081442 8.91969,23.8103775 11.4395233,23.8103775 C17.1965733,23.8103775 17.72979,20.7042442 17.72979,16.8733608 L17.72979,12.8174692 C17.7290317,11.6973025 16.9034233,10.7891442 15.774915,10.7891442" id="Fill-2"></path>
                        <path d="M7.23844333,1.33434167 C9.72122667,1.49651667 11.7640683,3.439475 12.05061,5.91099167 C12.1202683,6.51235 12.0843017,7.0954 11.9611267,7.64595 C11.8935267,7.94830833 12.039885,8.25749167 12.3212267,8.387275 C12.694435,8.55941667 13.13676,8.34784167 13.2272183,7.94679167 C13.3507183,7.39873333 13.4051017,6.82456667 13.3796433,6.23360833 C13.23621,2.88708333 10.5174767,0.169108333 7.17084333,0.0288166667 C3.45706833,-0.12675 0.39741,2.8379 0.39741,6.517225 C0.39741,8.15175833 1.00191,9.64448333 1.99911833,10.7856667 C2.39756833,11.24175 3.146585,10.9688583 3.146585,10.3631667 C3.146585,10.2074917 3.09166,10.05615 2.98885167,9.93925833 C2.18566833,9.0246 1.69741,7.82719167 1.69741,6.517225 C1.69741,3.538275 4.21800167,1.13706667 7.23844333,1.33434167" id="Fill-4"></path>
                        <path d="M6.6206075,2.658825 C4.69617417,2.78990833 3.14364917,4.35933333 3.03076583,6.28495833 C3.0033575,6.751875 3.0592575,7.202 3.18449083,7.62211667 C3.3264075,8.09780833 3.91974917,8.25478333 4.27074917,7.90389167 C4.4418075,7.732725 4.5003075,7.48204167 4.43086583,7.25020833 C4.33249917,6.92098333 4.29826583,6.56435 4.34387417,6.19460833 C4.48784917,5.02688333 5.43414083,4.093375 6.60359917,3.96543333 C8.1477825,3.796325 9.4591575,5.00651667 9.4591575,6.517225 C9.4591575,6.69424167 9.44117417,6.86725 9.40694083,7.0343 C9.3470325,7.32593333 9.48537417,7.621575 9.75566583,7.74626667 L9.79639917,7.76511667 C10.1577992,7.93184167 10.5873408,7.726225 10.6717325,7.33730833 C10.7289325,7.07308333 10.7591575,6.798675 10.7591575,6.517225 C10.7591575,4.29151667 8.87924917,2.50499167 6.6206075,2.658825" id="Fill-6"></path>
                    </g>
                </g>
            </g>
        </g>
    </g>
</svg>