<?xml version="1.0" encoding="UTF-8"?>
<svg width="20px" height="20px" viewBox="0 0 20 20" version="1.1" xmlns="http://www.w3.org/2000/svg" xmlns:xlink="http://www.w3.org/1999/xlink">
    <!-- Generator: Sketch 61.1 (89650) - https://sketch.com -->
    <title>画板</title>
    <desc>Created with Sketch.</desc>
    <g id="画板" stroke="none" stroke-width="1" fill="none" fill-rule="evenodd">
        <g id="更多" fill-rule="nonzero">
            <rect id="矩形" fill="#000000" opacity="0" x="0" y="0" width="20" height="20"></rect>
            <path d="M2,10 C1.999934,10.7145092 2.38111741,11.3747711 2.99994667,11.7320448 C3.61877593,12.0893184 4.38122407,12.0893184 5.00005333,11.7320448 C5.61888259,11.3747711 6.000066,10.7145092 6,10 C6.000066,9.28549082 5.61888259,8.62522887 5.00005333,8.26795523 C4.38122407,7.91068159 3.61877593,7.91068159 2.99994667,8.26795523 C2.38111741,8.62522887 1.999934,9.28549082 2,10 L2,10 Z M8,10 C7.999934,10.7145092 8.38111741,11.3747711 8.99994667,11.7320448 C9.61877593,12.0893184 10.3812241,12.0893184 11.0000533,11.7320448 C11.6188826,11.3747711 12.000066,10.7145092 12,10 C12.000066,9.28549082 11.6188826,8.62522887 11.0000533,8.26795523 C10.3812241,7.91068159 9.61877593,7.91068159 8.99994667,8.26795523 C8.38111741,8.62522887 7.999934,9.28549082 8,10 L8,10 Z M14,10 C13.999934,10.7145092 14.3811174,11.3747711 14.9999467,11.7320448 C15.6187759,12.0893184 16.3812241,12.0893184 17.0000533,11.7320448 C17.6188826,11.3747711 18.000066,10.7145092 18,10 C18.000066,9.28549082 17.6188826,8.62522887 17.0000533,8.26795523 C16.3812241,7.91068159 15.6187759,7.91068159 14.9999467,8.26795523 C14.3811174,8.62522887 13.999934,9.28549082 14,10 L14,10 Z" id="形状" fill="#FFFFFF"></path>
        </g>
    </g>
</svg>