<?xml version="1.0" encoding="UTF-8"?>
<svg width="40px" height="40px" viewBox="0 0 40 40" version="1.1" xmlns="http://www.w3.org/2000/svg" xmlns:xlink="http://www.w3.org/1999/xlink">
    <!-- Generator: Sketch 61.2 (89653) - https://sketch.com -->
    <title>火狐</title>
    <desc>Created with Sketch.</desc>
    <g id="页面-1" stroke="none" stroke-width="1" fill="none" fill-rule="evenodd">
        <g id="版本过低" transform="translate(-168.000000, -399.000000)" fill-rule="nonzero">
            <g id="火狐" transform="translate(168.000000, 399.000000)">
                <path d="M0.907954609,19.7710114 C0.907954609,30.6924654 9.50752465,39.5420229 20.1069946,39.5420229 C30.7064646,39.5420229 39.3060347,30.6904655 39.3060347,19.7710114 C39.3060347,8.85155742 30.7064646,0 20.1069946,0 C9.50752465,0 0.907954609,8.85155742 0.907954609,19.7710114" id="路径" fill="#1370B3"></path>
                <path d="M0.907954609,21.3649318 C0.907954609,31.4064297 9.50752465,39.5460227 20.1069946,39.5460227 C30.7064646,39.5460227 39.3060347,31.4064297 39.3060347,21.3649318 C39.3060347,11.3234338 30.7064646,3.18384082 20.1069946,3.18384082 C9.50752465,3.18384082 0.907954609,11.3234338 0.907954609,21.3649318 Z" id="路径" fill="#1678BC"></path>
                <path d="M29.4825259,4.63976801 L26.3986801,3.51182441 L30.2984851,6.96165191 L28.840558,6.87365633 L28.540573,7.48962551 C27.7904224,6.88430153 26.8458212,6.5722775 25.8827059,6.61166941 C25.4166698,6.73190298 25.0450732,7.08310712 24.8987551,7.54162293 L25.1327434,8.54157293 L28.1145943,8.7855607 C28.3485825,9.12954352 28.8185591,9.11554422 28.8185591,9.82350883 L29.9345033,9.77551121 L30.7084646,9.51552422 C31.6331134,10.7240071 32.2773118,12.123072 32.5943703,13.6113195 L31.7184141,14.2432879 L31.480426,15.0152492 L31.460427,17.7331134 C31.460427,17.7331134 30.9024549,18.3070846 30.8144593,18.1330934 C30.7264636,17.9591021 30.840458,15.9052048 30.5164742,15.7012149 C30.2234468,15.4981806 29.8397551,15.4818368 29.5305235,15.659217 C29.1965402,14.9692515 28.7465627,14.479276 28.1565922,14.2452877 C27.9906525,13.8591603 27.7898301,13.4889778 27.5566222,13.139343 C27.3504391,13.1731743 27.1736189,13.3052298 27.0826459,13.4933254 C27.1807327,13.1552203 27.1508302,12.7928305 26.9986501,12.4753763 L25.6227189,12.2113894 L24.660767,12.1473926 C24.3047848,12.2513874 24.060797,12.5173741 23.9968002,13.0073496 L23.4588271,13.4733263 L23.1348432,14.6412679 C23.0528473,14.9492525 24.1347932,15.4412279 24.5727714,15.3252337 C25.0107495,15.2092396 25.840708,16.4511775 25.840708,16.4511774 L25.6207189,17.3331334 C25.6207189,17.3331334 25.2807359,17.9551023 25.1947403,17.8231088 L24.3767812,16.5471727 C23.8048098,16.2071896 23.2128394,16.2651868 22.6208689,16.5471727 C22.4828759,17.7731114 22.4468777,19.2490376 22.6208689,19.861007 C22.7948602,20.4729763 23.0468477,20.7429629 23.3028348,20.660967 C23.558822,20.5789711 24.5907704,19.7790111 24.5907705,19.7790111 C24.5907705,19.7790111 25.5387231,22.340883 25.538723,22.4788761 C25.538723,22.6168691 26.9506525,23.6668166 27.0366482,23.6668166 C27.1226439,23.6668166 27.420629,23.8028098 27.4646268,23.4908255 C27.5086245,23.1788411 27.2926354,22.6088696 27.420629,22.5188741 C27.5486226,22.4288786 27.720614,22.6068696 27.7646118,23.0488475 C27.8266087,23.6768161 27.8826059,24.9687516 27.8066097,25.2487376 C27.6326184,25.9127044 26.7766612,26.8486576 26.7766612,26.8486576 C26.7766612,26.8486576 26.520674,27.8186091 26.6506675,27.8666067 C26.7806609,27.9146043 27.2086396,29.1925404 27.3826309,29.5425229 C27.5566221,29.8925054 30.4264787,38.8540573 36.1301935,31.3744313 C39.6160192,26.8046598 40.3859807,20.5109745 38.4440778,15.319234 C37.2081396,12.0113994 34.2562872,10.2694865 32.2243888,6.08369582 L29.4825259,4.63976801 Z" id="路径" fill="#10549A"></path>
                <path d="M4.9957502,3.8678066 C5.02174891,5.2457377 5.60771961,6.60166992 7.05164742,7.93360332 C8.69356531,7.48362582 10.2514874,7.43762813 11.7074146,7.82360883 C13.3773312,6.01169941 15.1472427,5.35573223 17.0071496,5.45972703 C15.7078989,6.4836977 14.7617159,7.88863608 14.3012849,9.47752613 C14.4944568,10.1542857 14.9844037,10.7067634 15.6332183,10.979451 C16.9291535,11.179441 18.3730813,11.0414479 19.7930104,11.4234288 L19.7070146,12.5293735 C18.8310584,14.1812909 16.9911504,14.699265 15.5072246,16.0411979 C15.7017692,16.9089393 15.6721743,17.8119261 15.4212289,18.6650668 C14.8732563,18.2110895 14.3072846,17.9911005 13.7093145,18.0490975 L13.6033198,18.1170941 C11.7794111,19.9510025 13.3193341,21.5049248 16.2031898,22.9568521 C16.9635384,23.0999647 17.7482566,23.0385399 18.4770761,22.7788611 C19.9970001,21.9189041 23.7708114,21.0309484 24.4767762,24.0567971 C24.1287936,24.500775 23.5988201,24.5627718 23.0188491,24.500775 C22.8188591,24.6667667 22.440878,24.740763 22.2468877,24.900755 C20.0169991,26.700665 17.7131143,27.3886306 15.0172491,26.9546523 C15.5372285,27.5990306 16.1685159,28.1449723 16.8811559,28.5665717 C18.3810809,28.6765662 19.2310384,28.8845558 19.3290336,29.2085396 L17.9491025,29.2085396 C20.4709764,30.3344833 22.9488525,30.5024749 25.3247337,29.2725364 C25.340733,29.500525 25.1947402,29.8145093 24.980751,30.1584921 C25.780711,29.4765262 26.500675,28.6085696 27.340633,27.9926004 L27.4706265,28.8325584 C28.8445578,28.5245738 29.9745013,26.3066846 30.8164592,21.8969052 L31.3724314,23.4848257 C31.9184041,21.0849457 31.9044048,18.2170891 31.6524174,15.1132443 C32.4363957,15.9140574 33.0166313,16.8914045 33.3443328,17.9631018 C33.4543273,13.5633218 32.2083896,9.50552473 29.1445428,7.13964301 C29.820509,6.99965 30.8484576,7.42162891 32.8343583,8.95155242 C31.7304135,6.72766363 29.8085096,4.66176691 27.1286436,2.71986402 C30.7924604,3.81580922 34.0902955,6.04969754 36.6481676,10.3634818 C36.6741663,9.45552723 34.560272,6.46167691 32.5903705,4.7637618 L32.7023649,4.18379082 L35.0242488,6.30768461 L35.1502425,5.82370883 C38.1900905,9.45552723 38.8240588,12.5953702 38.8740563,15.6232188 C38.7980601,17.7631118 38.5040748,19.7830108 37.7821109,21.5849207 C39.0880456,20.6749663 39.6720164,19.7170141 39.060047,16.661167 L39.5260237,14.7472627 C40.1939903,17.7471127 40.2299885,21.0049498 38.6560672,24.8867557 C37.8961052,27.0106495 36.0321984,29.1125444 34.7182641,31.2264387 L36.3981801,30.0264987 L38.2100895,26.3646818 C38.416281,27.6308672 38.2153105,28.929823 37.6361182,30.0744963 C36.3329128,32.1245019 34.5289394,33.8087152 32.3943803,34.9682516 C32.3743813,35.5182241 32.060397,36.1061947 31.2904355,36.7441628 C28.6905655,38.7540623 25.1567421,39.5940203 20.738963,39.3440328 L21.3809309,39.9620019 C19.6127439,39.9879367 17.8534464,39.7071257 16.1811909,39.1320434 L17.1971402,39.8100095 C7.28963555,37.3361332 1.02394883,30.8224589 0.917954102,21.9589021 L0.00199988281,23.638818 C-0.0339983203,21.7449127 0.643967773,20.1069946 0.959951992,18.3470827 L1.11194441,16.8851557 L0.453977305,18.4850757 C0.761961914,16.2531873 1.22793859,13.959302 2.93985301,11.2114394 C2.70351675,8.59446529 3.43498538,5.98167073 4.9957502,3.8678066 Z" id="路径" fill="#E36724"></path>
                <path d="M14.3012849,9.47752613 C13.6833158,12.0773961 13.8913054,14.3452827 15.5012249,16.0411979 C15.8176629,15.7541048 16.1516221,15.4869374 16.5011749,15.2412379 C17.4231288,14.6772661 18.5370731,14.2412879 19.701015,12.539373 L19.7870107,11.4334283 C19.1330434,11.1934403 17.4271287,11.0894455 15.6272186,10.9894505 C14.8932553,10.6654668 14.4432778,10.1654918 14.2972851,9.48752563 L14.3012849,9.47752613 Z M13.5973201,18.1170941 C9.89350531,17.9491025 8.77756109,20.3889805 9.32553371,24.4987751 C9.41152941,22.2988851 12.8053597,19.6290186 12.8113594,19.5790211 C12.8736424,19.0081629 13.1554949,18.4839029 13.5973201,18.1170941 L13.5973201,18.1170941 Z M23.3848307,24.5167742 C22.5948702,24.1047948 21.4549272,24.0887956 19.8330084,24.6267687 C16.2331884,25.5287236 13.2633368,25.0267487 10.7854607,23.438828 C11.1954402,24.7947602 12.299385,25.9847007 14.8172591,26.8386581 C16.1463257,27.1268932 17.5249082,27.0946737 18.839058,26.7446628 C19.6176363,26.5176834 20.3510808,26.1577273 21.0069496,25.680716 C21.8069096,25.0167492 22.5928704,24.520774 23.3828309,24.5167742 L23.3848307,24.5167742 Z M7.05164742,7.9176041 L3.23783812,10.9174541 C3.79981004,9.44952754 4.57777113,8.03159844 6.0636968,6.84565773 L7.05164742,7.9176041 Z" id="形状" fill="#D5562C"></path>
                <path d="M14.3312834,14.0952952 C14.2752862,13.919304 15.259237,13.5253237 15.359232,13.5213239 C15.459227,13.5173241 16.8071596,13.2773361 16.959152,13.3453327 L17.4311284,13.5653217 C18.3690815,13.2053397 18.8450577,12.8753562 19.2550373,12.3973801 L19.2290386,13.299335 C18.8950552,13.8113095 16.9191541,15.0352482 15.9512024,15.6112195 C15.9092045,15.6312184 15.879206,15.6952152 15.8452077,15.7212139 C15.7173329,15.8104117 15.6016888,15.9159706 15.5012249,16.0351982 C15.4512274,16.0711964 14.559272,14.7712614 14.3312834,14.0872956 L14.3312834,14.0952952 Z" id="路径" fill="#F0B991"></path>
                <path d="M18.299085,11.1094445 L19.0530473,11.4434278 L19.2530373,12.3933803 L19.2270386,13.2953352 L19.7230139,12.4813759 C19.8218835,12.1563 19.8288056,11.8101951 19.7430129,11.4814259 C19.6000137,11.3347627 19.4106118,11.2421819 19.2070396,11.219439 L18.299085,11.1094445 Z" id="路径" fill="#7E3430"></path>
                <path d="M8.84555773,7.59762012 C9.80542707,7.51079912 10.7730686,7.58720967 11.7074146,7.82360883 C13.3073346,6.03769813 15.0952453,5.39173043 17.0071496,5.45972703 C15.7378929,6.46392853 14.8051057,7.83136533 14.3332833,9.37953102 C13.8313084,11.0014499 13.9333033,12.5513724 14.3332833,14.059297 C14.586961,14.7920465 14.984757,15.4665998 15.5032248,16.0431979 C15.6896964,16.911681 15.6601675,17.8126571 15.4172291,18.6670666 C14.8352582,18.1710914 14.2432879,17.9671016 13.6493175,18.0830959 C9.94150293,17.8691066 8.75556223,20.2829859 9.32953352,24.5027748 C7.84360781,20.6289685 9.08954551,17.7411129 12.9773511,15.9292036 C11.5774211,13.7953102 12.1213939,10.7294636 12.719364,8.76956152 C11.8654067,8.14159293 10.4454777,7.81160941 8.84555773,7.59762012 L8.84555773,7.59762012 Z M24.4687766,24.0567971 C23.9368032,22.0568971 22.2348882,21.5409229 19.5190241,22.3188841 C18.2270887,23.0448478 16.4491775,23.2628369 15.5932204,22.6228689 C15.5793009,22.6103027 15.5638452,22.5995509 15.5472227,22.5908705 C14.7212639,22.1588921 14.0172991,21.7149143 13.4773261,21.0789461 C13.4115767,21.0102021 13.3399776,20.9473019 13.2633368,20.8909555 L13.0053497,21.5629218 C12.9633518,23.118844 15.3252337,24.4487775 18.3550822,23.9068046 C21.058947,23.4208289 23.0288486,23.5768211 24.4667767,24.0567971 L24.4687766,24.0567971 Z" id="形状" fill="#FF9D00"></path>
                <path d="M29.6305185,26.260687 C30.1737708,24.8510816 30.5711596,23.3895219 30.8164592,21.898905 L31.3724314,23.4848257 C31.871517,20.7226714 31.9658347,17.9025727 31.6524174,15.1132443 C32.4303389,15.9186961 33.0096588,16.894501 33.3443328,17.9631018 C33.3183341,12.5313734 31.7444128,9.1035448 29.1445428,7.14164293 C30.0144993,7.09964504 31.1864407,7.58562074 32.8323584,8.95155242 C31.4884256,6.3356832 29.4165292,4.41177941 27.1246438,2.71986402 C30.140493,3.51982402 33.2963352,5.04774762 36.6441678,10.3634818 L35.3762312,6.98365082 L32.6903655,4.18379082 L34.9762512,6.25968703 L35.1502425,5.8137093 C39.8960052,11.6414179 39.2840358,16.6711664 37.7841108,21.5729214 L29.6305185,26.260687 Z" id="路径" fill="#F5B044"></path>
                <path d="M34.1762912,22.6108695 C36.120194,19.6110195 36.6581671,15.8932054 35.8522074,11.4894255 C38.8520574,17.1351432 38.8520574,23.5648218 34.6522674,31.1044448 L31.820409,32.8683566 L34.1762912,22.6108695 Z" id="路径" fill="#FF9D00"></path>
                <path d="M27.9246038,28.6105695 C29.3825309,27.5246237 30.2444878,25.2107395 30.7964602,21.9209039 C31.5964202,23.1468427 31.8264087,24.9787511 31.4844258,27.3986301 C32.740363,25.8167092 33.0543473,22.7068646 33.3283336,19.5350232 C35.3982301,25.5727214 34.1282936,30.8584571 30.640468,33.9623019 C30.840458,33.80031 28.8025599,33.320334 29.480526,32.460377 C30.9864507,30.5624719 31.4324284,26.5966702 31.0384481,26.5226739 C29.5845208,28.4665767 28.6665667,28.8065597 27.9246038,28.6085696 L27.9246038,28.6105695 Z" id="路径" fill="#FF9D00"></path>
                <path d="M23.8888055,32.4523774 C27.5786211,31.5044248 29.7465127,29.6085196 30.9264537,27.1046448 C30.8544573,30.5644718 29.5925204,33.1983401 26.5086746,34.5722714 C24.638768,34.0642968 23.9088046,33.3283336 23.8888055,32.4523774 Z" id="路径" fill="#FF9D00"></path>
                <path d="M30.1264937,35.6562172 L29.1765412,36.6101695 L30.2064897,36.6301685 C28.9505525,37.340133 27.6066197,37.5521224 26.2586871,37.6481176 C27.2146393,36.8481576 28.5185741,36.1941903 30.1184941,35.660217 L30.1264937,35.6562172 Z" id="路径" fill="#10549A"></path>
            </g>
        </g>
    </g>
</svg>