<?xml version="1.0" encoding="UTF-8"?>
<svg width="40px" height="41px" viewBox="0 0 40 41" version="1.1" xmlns="http://www.w3.org/2000/svg" xmlns:xlink="http://www.w3.org/1999/xlink">
    <!-- Generator: Sketch 61.2 (89653) - https://sketch.com -->
    <title>uc</title>
    <desc>Created with Sketch.</desc>
    <g id="页面-1" stroke="none" stroke-width="1" fill="none" fill-rule="evenodd">
        <g id="版本过低" transform="translate(-268.000000, -491.000000)" fill="#FF823C" fill-rule="nonzero">
            <g id="uc" transform="translate(268.000000, 491.000000)">
                <path d="M10.0265293,0.126794637 C17.4747191,-0.614778397 22.5159176,3.46012798 22.5159176,8.86587079 C22.5159176,18.6910893 7.55212237,20.4963327 7.55212237,29.9969569 C7.55212237,39.17049 15.0202871,40.0943352 15.0202871,40.0943352 C15.0202871,40.0943352 0.261235955,41.6324126 0.146379521,29.8471442 C0.0390137377,18.7884675 7.52965046,18.0593789 7.52965046,11.3802278 C7.52965046,6.32155118 0.0390137377,7.5949594 0.0390137377,7.59495945 C0.0390137377,7.59495949 2.63826466,0.86836767 10.0265293,0.126794637 Z M22.6008115,17.4101904 C24.5350187,15.2299628 27.005265,13.5928867 29.7668539,12.6611267 C29.2025593,11.684847 29.4822098,10.0294163 30.4834582,7.79470975 C31.9141698,8.82592073 32.5808365,10.1093165 32.6332709,11.5924626 C32.6332709,11.5924626 42.7855805,17.5300406 39.2025593,21.2079432 C35.6195381,24.8908396 30.0764669,19.3028246 27.497191,18.2416511 C24.6033084,17.0506398 22.6008115,17.4101904 22.6008115,17.4101904 L22.6008115,17.4101904 Z M15.0202871,21.3677435 C15.0202871,21.3677435 18.5383895,16.9332865 25.1101748,19.9020755 C29.1001872,21.707319 32.3960674,24.2965824 32.3960674,24.2965824 C32.3960674,24.2965824 36.8155431,23.7023252 38.6083021,25.2453964 C40.0190387,26.4613764 39.9216605,28.0943352 38.4884519,27.500078 C37.0552434,26.9058209 33.7718477,27.0331617 32.0190387,28.2766074 C30.0889513,29.6424001 27.2200375,24.9158084 25.230025,23.3452716 C20.5583646,19.6573814 15.0202871,21.3677435 15.0202871,21.3677435 Z M10.0265293,27.6099407 C10.0265293,27.6099407 11.6769663,23.2079432 16.2687266,22.6161829 C23.1651061,21.727294 28.7531211,26.2516386 28.7531211,31.355259 C28.7531211,35.2179307 26.2562422,36.3490169 26.2562422,36.3490169 C26.2562422,36.3490169 31.25,36.2915887 31.25,37.5974563 L31.25,40.0943352 L18.5408864,40.0868446 C18.5408864,40.0868446 23.7593633,37.8271692 23.7593633,32.6036985 C23.7593633,28.448892 20.9653558,25.4501404 17.517166,25.1130618 C11.3823346,24.5163078 10.0265293,27.6099407 10.0265293,27.6099407 L10.0265293,27.6099407 Z M16.2537453,26.366495 C12.8105493,26.366495 10.0190387,29.1605025 10.0190387,32.6086922 C9.97386149,34.8663285 11.1524481,36.9720752 13.1004364,38.1141365 C15.0484247,39.2561978 17.4615629,39.2561978 19.4095511,38.1141365 C21.3575394,36.9720752 22.536126,34.8663285 22.4909488,32.6086922 C22.4909488,29.1605025 19.6994382,26.366495 16.2537453,26.366495 L16.2537453,26.366495 Z M16.2737203,35.1105649 C15.3789163,35.1106834 14.5520326,34.6333791 14.1045964,33.8584759 C13.6571602,33.0835726 13.6571602,32.1288182 14.1045964,31.3539149 C14.5520326,30.5790116 15.3789163,30.1017074 16.2737203,30.1018258 C17.656716,30.1020089 18.7777583,31.2231997 18.7777583,32.6061954 C18.7777583,33.989191 17.656716,35.1103818 16.2737203,35.1105649 L16.2737203,35.1105649 Z" id="形状"></path>
            </g>
        </g>
    </g>
</svg>