<?xml version="1.0" encoding="UTF-8"?>
<svg width="90px" height="78px" viewBox="0 0 90 78" version="1.1" xmlns="http://www.w3.org/2000/svg" xmlns:xlink="http://www.w3.org/1999/xlink">
    <title>形状结合@2x</title>
    <g id="页面-1" stroke="none" stroke-width="1" fill="none" fill-rule="evenodd">
        <g id="虚拟足球决赛效果" transform="translate(-143.000000, -557.000000)" fill="#E1E3E6" fill-rule="nonzero">
            <g id="编组-173备份-3" transform="translate(10.000000, 494.000000)">
                <path d="M201.58,63 C204.193103,62.9985305 206.327391,65.0666908 206.447183,67.6654262 L206.45247,67.8831827 L206.451712,72.9699388 L214.394699,72.9702047 C219.131771,72.9626652 222.981174,76.8111315 223,81.5734228 L223,98.2146109 C222.962641,108.168923 214.916769,116.214035 205.015181,116.198007 L201.491084,116.198007 C201.348595,116.199909 201.207439,116.191505 201.06852,116.173309 C198.279421,120.052836 194.512873,123.238642 190.025563,125.334505 L189.624096,125.518238 L189.624096,135.448663 L190.226988,135.448663 C194.814776,135.446544 198.899178,137.619833 201.51368,141 L155.098938,141 C157.503937,137.897035 161.15364,135.809668 165.316229,135.505208 L165.707952,135.481911 L165.707952,125.21355 C161.328169,123.112784 157.653611,119.972524 154.92028,116.168169 C154.786366,116.187905 154.647971,116.197756 154.507289,116.197756 L150.983193,116.197756 C141.082239,116.213133 133.037358,108.168283 133,98.2146109 L133,81.5734228 C133.018826,76.8111315 136.868229,72.9626652 141.605301,72.9702047 L149.542243,72.9699388 L149.543193,67.8820926 C149.550464,65.2554828 151.614159,63.1169208 154.199079,63.0046345 L154.415663,63 L201.58,63 Z M171.688614,127.298945 L171.688614,135.448118 L183.645602,135.448118 L183.645602,127.448836 C179.694362,128.250782 175.618736,128.199691 171.688614,127.298945 Z M200.473976,68.9923772 L155.524398,68.9923772 L155.524398,99.5020396 C155.585151,111.937372 165.629641,121.985929 177.999187,121.985929 C190.245037,121.985929 200.2121,112.137338 200.469166,99.8743759 L200.473976,99.5020396 L200.473976,68.9923772 Z M206.451712,78.9237149 L206.45247,99.5020396 C206.445622,103.257069 205.706674,106.893863 204.34501,110.243315 L205.015181,110.242967 C211.637038,110.254139 217.018277,104.874449 217.044277,98.2173362 L217.044277,81.5734228 C217.038599,80.1070518 215.853304,78.9220219 214.394699,78.9244374 L206.451712,78.9237149 Z M149.542243,78.9237149 L141.605301,78.9244374 C140.146696,78.9220219 138.961401,80.1070518 138.955723,81.5734228 L138.955723,98.2146109 C138.981723,104.871724 144.362962,110.251413 150.984819,110.240242 L151.648108,110.240806 C150.341312,107.023989 149.609449,103.543978 149.547449,99.9517767 L149.543193,99.5009495 L149.542243,78.9237149 Z M183.8,89.64 C185.76,89.64 187.18,90.12 188.4,91.3 L188.4,91.3 L186.64,93.04 C185.74,92.18 184.66,92.06 183.72,92.06 C182.24,92.06 181.52,92.88 181.52,93.86 C181.52,94.22 181.64,94.6 181.94,94.88 C182.22,95.14 182.68,95.36 183.26,95.44 L183.26,95.44 L184.94,95.68 C186.24,95.86 187.06,96.22 187.66,96.78 C188.42,97.5 188.76,98.54 188.76,99.8 C188.76,102.56 186.46,104.12 183.48,104.12 C181.32,104.12 179.68,103.66 178.28,102.24 L178.28,102.24 L180.08,100.44 C180.98,101.34 182.2,101.64 183.52,101.64 C185.16,101.64 186.04,101.02 186.04,99.88 C186.04,99.38 185.9,98.96 185.6,98.68 C185.32,98.42 185,98.28 184.34,98.18 L184.34,98.18 L182.62,97.94 C181.4,97.76 180.5,97.38 179.86,96.76 C179.18,96.08 178.84,95.16 178.84,93.96 C178.84,91.42 180.72,89.64 183.8,89.64 Z M169.22,89.76 L172.08,99.04 L174.94,89.76 L177.84,89.76 L173.12,104 L171.04,104 L166.34,89.76 L169.22,89.76 Z" id="形状结合"></path>
            </g>
        </g>
    </g>
</svg>