<?xml version="1.0" encoding="UTF-8"?>
<svg width="17px" height="21px" viewBox="0 0 17 21" version="1.1" xmlns="http://www.w3.org/2000/svg" xmlns:xlink="http://www.w3.org/1999/xlink">
    <!-- Generator: Sketch 61.2 (89653) - https://sketch.com -->
    <title>至顶</title>
    <desc>Created with Sketch.</desc>
    <g id="页面-1" stroke="none" stroke-width="1" fill="none" fill-rule="evenodd">
        <g id="H5-今日" transform="translate(-300.000000, -605.000000)" fill-rule="nonzero">
            <g id="编组-5备份-2" transform="translate(281.000000, 588.000000)">
                <g id="至顶" transform="translate(16.000000, 16.000000)">
                    <g id="向上箭头" transform="translate(3.600000, 1.200000)">
                        <path d="M8.66648802,0.389447605 C8.42361027,0.146267042 8.09401555,0.00962414001 7.75032036,0.00962414001 C7.40662516,0.00962414001 7.07703044,0.146267042 6.83415269,0.389447605 L0.397769461,6.82460928 C0.0704542799,7.15192446 -0.0573768497,7.62899673 0.0624288217,8.07611759 C0.182234493,8.52323844 0.531475634,8.87247958 0.978596486,8.99228525 C1.42571734,9.11209092 1.90278961,8.98425979 2.23010479,8.65694461 L5.05800898,5.82904042 C5.23954844,5.70896506 5.45722958,5.6558405 5.67367365,5.67878892 C6.19405689,5.74963922 6.29544611,6.27368713 6.29544611,6.27368713 L6.29544611,14.2944296 C6.29544611,14.4043698 6.3833982,14.4923219 6.49333832,14.4923219 L9.00363772,14.4923219 C9.11357784,14.4923219 9.2027515,14.4043698 9.2027515,14.2944296 L9.2027515,6.2688009 C9.2027515,6.2688009 9.30780539,5.74475299 9.8233024,5.67512425 C10.0400067,5.65152656 10.2581574,5.70422832 10.4401886,5.82415419 L13.2668713,8.65205838 C13.5941864,8.97937357 14.0712587,9.10720471 14.5183796,8.98739904 C14.9655004,8.86759337 15.3147416,8.51835222 15.4345472,8.07123137 C15.5543529,7.62411051 15.4265218,7.14703823 15.0992066,6.81972305 L8.66770958,0.389447605 L8.66648802,0.389447605 Z" id="路径" fill="#1B3142"></path>
                        <path d="M9.00852395,16.9671923 L6.50066766,16.9671923 C6.44775966,16.9668685 6.39692372,16.9877413 6.35951139,17.0251536 C6.32209906,17.0625659 6.30122628,17.1134019 6.30155009,17.1663099 L6.30155009,20.0809446 C6.30155009,20.1908847 6.39072754,20.2800584 6.50066766,20.2800584 L9.01096707,20.2800584 C9.12090719,20.2800584 9.20886306,20.1921063 9.20886306,20.0809446 L9.20886306,17.1663099 C9.20918457,17.1136143 9.18847896,17.0629652 9.15133166,17.0255886 C9.11418435,16.988212 9.06366368,16.9671923 9.01096707,16.9671923 L9.00852395,16.9671923 Z" id="路径" fill="#008BFF"></path>
                    </g>
                </g>
            </g>
        </g>
    </g>
</svg>