<?xml version="1.0" encoding="UTF-8"?>
<svg width="16px" height="16px" viewBox="0 0 16 16" version="1.1" xmlns="http://www.w3.org/2000/svg" xmlns:xlink="http://www.w3.org/1999/xlink">
    <!-- Generator: Sketch 61.1 (89650) - https://sketch.com -->
    <title>guanbi</title>
    <desc>Created with Sketch.</desc>
    <g id="guanbi" stroke="none" stroke-width="1" fill="none" fill-rule="evenodd" opacity="0.5">
        <g id="编组" fill-rule="nonzero">
            <g id="关闭">
                <rect id="矩形" fill="#000000" opacity="0" x="0" y="0" width="16" height="16"></rect>
                <path d="M10.4089062,11.1953127 C10.288125,11.1953127 10.1673437,11.1492187 10.0751562,11.0570313 L5.25734375,6.23921875 C5.07296875,6.05484375 5.07296875,5.75609375 5.25734375,5.57171875 C5.44171875,5.38734375 5.74046875,5.38734375 5.92484375,5.57171875 L10.7428125,10.3896875 C10.9271875,10.5740625 10.9271875,10.8728125 10.7428125,11.0571875 C10.6542617,11.1457326 10.5341319,11.195426 10.4089062,11.1953127 L10.4089062,11.1953127 Z M5.59109375,11.1953125 C5.4703125,11.1953125 5.34953125,11.1492187 5.25734375,11.0570313 C5.07296875,10.8726563 5.07296875,10.5739063 5.25734375,10.3895313 L10.0753125,5.5715625 C10.2596875,5.3871875 10.5584375,5.3871875 10.7428125,5.5715625 C10.9271875,5.7559375 10.9271875,6.0546875 10.7428125,6.2390625 L5.92484375,11.0570313 C5.83265625,11.1492187 5.711875,11.1953125 5.59109375,11.1953125 Z M8,14.765625 C4.26953125,14.765625 1.234375,11.730625 1.234375,8 C1.234375,4.269375 4.26953125,1.234375 8,1.234375 C11.7304688,1.234375 14.765625,4.269375 14.765625,8 C14.765625,11.730625 11.7304688,14.765625 8,14.765625 Z M8,2.1784375 C4.78984375,2.1784375 2.1784375,4.78984375 2.1784375,8 C2.1784375,11.2101562 4.78984375,13.8215625 8,13.8215625 C11.2101562,13.8215625 13.8215625,11.2101562 13.8215625,8 C13.8215625,4.78984375 11.2101562,2.1784375 8,2.1784375 Z" id="形状" fill="#FFFFFF"></path>
            </g>
        </g>
    </g>
</svg>