<?xml version="1.0" encoding="UTF-8"?>
<svg width="24px" height="22px" viewBox="0 0 24 22" version="1.1" xmlns="http://www.w3.org/2000/svg" xmlns:xlink="http://www.w3.org/1999/xlink">
    <!-- Generator: Sketch 58 (84663) - https://sketch.com -->
    <title>mdpi/Icon_首页_高亮</title>
    <desc>Created with Sketch.</desc>
    <defs>
        <linearGradient x1="43.7165683%" y1="-10.6593865%" x2="43.7165683%" y2="72.4807082%" id="linearGradient-1">
            <stop stop-color="#C5A585" offset="0%"></stop>
            <stop stop-color="#FFE4C4" offset="27.4387669%"></stop>
            <stop stop-color="#B99978" offset="100%"></stop>
        </linearGradient>
        <filter x="-18.2%" y="-20.0%" width="136.4%" height="140.0%" filterUnits="objectBoundingBox" id="filter-2">
            <feOffset dx="0" dy="1" in="SourceAlpha" result="shadowOffsetOuter1"></feOffset>
            <feGaussianBlur stdDeviation="0.5" in="shadowOffsetOuter1" result="shadowBlurOuter1"></feGaussianBlur>
            <feColorMatrix values="0 0 0 0 0.865687274   0 0 0 0 0.729798402   0 0 0 0 0.584850272  0 0 0 0.7 0" type="matrix" in="shadowBlurOuter1" result="shadowMatrixOuter1"></feColorMatrix>
            <feMerge>
                <feMergeNode in="shadowMatrixOuter1"></feMergeNode>
                <feMergeNode in="SourceGraphic"></feMergeNode>
            </feMerge>
        </filter>
        <linearGradient x1="50.0000016%" y1="96.7865045%" x2="50.0000016%" y2="-12.2369731%" id="linearGradient-3">
            <stop stop-color="#C5A585" offset="0%"></stop>
            <stop stop-color="#FFE4C4" offset="77.2835471%"></stop>
            <stop stop-color="#B99978" offset="100%"></stop>
        </linearGradient>
        <linearGradient x1="50%" y1="14.6107486%" x2="50%" y2="84.483216%" id="linearGradient-4">
            <stop stop-color="#C5A585" offset="0%"></stop>
            <stop stop-color="#FFE4C4" offset="27.4387669%"></stop>
            <stop stop-color="#B99978" offset="100%"></stop>
        </linearGradient>
    </defs>
    <g id="页面-1" stroke="none" stroke-width="1" fill="none" fill-rule="evenodd">
        <g id="panda体育-首页备份" transform="translate(-23.000000, -739.000000)">
            <g id="item" transform="translate(11.000000, 737.000000)">
                <g id="iPhone-X/Bars/_resource/ActiveIcon_home" transform="translate(12.000000, 0.000000)">
                    <g id="编组" filter="url(#filter-2)" transform="translate(1.000000, 2.000000)">
                        <g id="编组-2" transform="translate(0.000000, -0.000000)" fill="url(#linearGradient-3)">
                            <path d="M9.88724575,0.378289674 C10.4396467,-0.12437494 11.2831758,-0.126313561 11.8378814,0.373806671 L11.8378814,0.373806671 L21.4758403,9.06335031 C21.6940956,9.26012839 21.8186881,9.5402158 21.8186881,9.83408141 C21.8186881,10.4072071 21.354078,10.8718173 20.7809523,10.8718173 L20.7809523,10.8718173 L19.4436477,10.8718173 L19.4436477,18.2987225 C19.4436477,19.1010984 18.7931934,19.7515527 17.9908175,19.7515527 L17.9908175,19.7515527 L14.1832187,19.7515527 C13.3808427,19.7515527 12.7303885,19.1010984 12.7303885,18.2987225 L12.7303885,18.2987225 L12.7303885,13.7134299 C12.7303885,12.9110539 12.0799343,12.2605997 11.2775583,12.2605997 L11.2775583,12.2605997 L10.6549168,12.2605997 C9.85254086,12.2605997 9.20208663,12.9110539 9.20208663,13.7134299 L9.20208663,13.7134299 L9.20208663,18.2987225 C9.20208663,19.1010984 8.5516324,19.7515527 7.74925644,19.7515527 L7.74925644,19.7515527 L3.97165473,19.7515527 C3.16927877,19.7515527 2.51882454,19.1010984 2.51882454,18.2987225 L2.51882454,18.2987225 L2.51882454,10.8718173 L1.03774302,10.8718173 C0.745538698,10.8718173 0.466875187,10.7486244 0.270214073,10.5325046 C-0.115514423,10.1086101 -0.0845747347,9.45228095 0.339319801,9.06655245 L0.339319801,9.06655245 Z" id="形状结合"></path>
                        </g>
                        <rect id="矩形备份" fill="#FFFFFF" x="7.67924528" y="7.88679245" width="6.22641509" height="1.24528302" rx="0.622641509"></rect>
                        <path d="M20.9647816,8.60287371 L21.4758403,9.06335031 C21.6940956,9.26012839 21.8186881,9.5402158 21.8186881,9.83408141 C21.8186881,10.3689987 21.4139611,10.8093869 20.8940251,10.865728 L20.7809523,10.8718173 L19.4436477,10.8718173 L19.4436477,18.2987225 C19.4436477,19.0538998 18.8674667,19.674503 18.1307347,19.744902 L17.9908175,19.7515527 L14.1832187,19.7515527 C13.4280413,19.7515527 12.8074382,19.1753718 12.7370392,18.4386397 L12.7303885,18.2987225 L12.7296302,18.1585517 C12.8713098,18.2259572 13.0256271,18.2711005 13.1880597,18.2894593 L13.35303,18.2987225 L17.1606288,18.2987225 L17.300546,18.2920718 C17.9912323,18.2260727 18.5408092,17.6764958 18.6068083,16.9858095 L18.613459,16.8458923 L18.613459,9.41898707 L19.9507636,9.41898707 L20.0638364,9.41289777 C20.5098397,9.36456821 20.871069,9.03364591 20.9647816,8.60287371 Z" id="形状结合" fill="url(#linearGradient-4)"></path>
                        <path d="M8.23515138,8.60287371 L8.74621006,9.06335031 C8.96446537,9.26012839 9.08905795,9.5402158 9.08905795,9.83408141 C9.08905795,10.3689987 8.68433087,10.8093869 8.16439486,10.865728 L8.0513221,10.8718173 L6.71401746,10.8718173 L6.71401746,18.2987225 C6.71401746,19.0538998 6.13783655,19.674503 5.40110451,19.744902 L5.26118727,19.7515527 L1.45358851,19.7515527 C0.698411136,19.7515527 0.0778080268,19.1753718 0.00740896683,18.4386397 L0.000758318894,18.2987225 L3.19744231e-14,18.1585517 C0.141679573,18.2259572 0.29599686,18.2711005 0.458429527,18.2894593 L0.623399828,18.2987225 L4.43099859,18.2987225 L4.57091583,18.2920718 C5.26160212,18.2260727 5.81117901,17.6764958 5.87717813,16.9858095 L5.88382878,16.8458923 L5.88382878,9.41898707 L7.22113342,9.41898707 L7.33420618,9.41289777 C7.78020949,9.36456821 8.14143883,9.03364591 8.23515138,8.60287371 Z" id="形状结合备份-3" fill="url(#linearGradient-4)" transform="translate(4.544529, 14.177213) scale(-1, 1) translate(-4.544529, -14.177213) "></path>
                    </g>
                </g>
            </g>
        </g>
    </g>
</svg>