<?xml version="1.0" encoding="UTF-8"?>
<svg width="22px" height="20px" viewBox="0 0 22 20" version="1.1" xmlns="http://www.w3.org/2000/svg" xmlns:xlink="http://www.w3.org/1999/xlink">
    <!-- Generator: Sketch 58 (84663) - https://sketch.com -->
    <title>mdpi/Icon_首页_常态</title>
    <desc>Created with Sketch.</desc>
    <g id="控件" stroke="none" stroke-width="1" fill="none" fill-rule="evenodd">
        <g id="iPhone-X/Bars/_resource/item_normal" transform="translate(-13.000000, -7.000000)">
            <g id="iPhone-X/Bars/_resource/Icon_home" transform="translate(12.000000, 5.000000)">
                <g id="编组@3x" transform="translate(1.000000, 2.000000)">
                    <path d="M16.2838231,15.5868268 L16.2919304,15.3971158 L16.2919304,8.52475063 L9.89178481,2.12460505 L11.3143111,0.702078732 L20.5277273,9.91549493 L18.9833551,9.91549493 L18.9833551,19.1289111 C17.1670471,19.3145686 16.2588931,19.3778056 16.2588931,19.3186222 C16.2588931,19.2594389 16.2672031,18.0155071 16.2838231,15.5868268 Z" id="路径-28" fill="#DCE2F3" fill-rule="nonzero"></path>
                    <path d="M2.51882454,10.8718172 L2.51882454,18.2987225 C2.51882454,19.1010984 3.16927878,19.7515527 3.97165473,19.7515527 L7.74925644,19.7515527 C8.55163239,19.7515527 9.20208663,19.1010984 9.20208663,18.2987225 L9.20208663,13.7134299 C9.20208663,12.9110539 9.85254085,12.2605997 10.6549168,12.2605997 L11.2775583,12.2605997 C12.0799343,12.2605997 12.7303885,12.9110539 12.7303885,13.7134299 L12.7303885,18.2987225 C12.7303885,19.1010984 13.3808427,19.7515527 14.1832187,19.7515527 L17.9908175,19.7515527 C18.7931934,19.7515527 19.4436477,19.1010984 19.4436477,18.2987225 L19.4436477,10.8718172 L20.7809524,10.8718172 C21.3540779,10.8718172 21.8186882,10.4072071 21.8186882,9.8340814 C21.8186882,9.5402158 21.6940956,9.26012838 21.4758402,9.06335031 L11.8378814,0.373806669 C11.2831758,-0.126313562 10.4396467,-0.12437494 9.88724575,0.378289674 L0.339319799,9.06655246 C-0.0845747356,9.45228095 -0.115514424,10.1086101 0.270214071,10.5325046 C0.466875187,10.7486245 0.745538697,10.8718172 1.03774302,10.8718172 L2.51882454,10.8718172 Z M19.2361005,9.62653423 C18.6629748,9.62653423 18.1983646,10.0911444 18.1983646,10.6642701 L18.1983646,18.2987225 C18.1983646,18.4133476 18.1054426,18.5062696 17.9908175,18.5062696 L14.1832187,18.5062696 C14.0685936,18.5062696 13.9756715,18.4133476 13.9756715,18.2987225 L13.9756715,13.7134299 C13.9756715,12.2233031 12.7676851,11.0153167 11.2775583,11.0153167 L10.6549168,11.0153167 C9.16479003,11.0153167 7.95680361,12.2233031 7.95680361,13.7134299 L7.95680361,18.2987225 C7.95680361,18.4133476 7.86388157,18.5062696 7.74925644,18.5062696 L3.97165473,18.5062696 C3.8570296,18.5062696 3.76410756,18.4133476 3.76410756,18.2987225 L3.76410756,10.6642701 C3.76410756,10.0911444 3.2994974,9.62653423 2.72637171,9.62653423 L1.57420514,9.62653423 L10.7253536,1.29932442 C10.804268,1.22751519 10.9247722,1.22723824 11.0040159,1.29868399 L20.2408045,9.62653423 L19.2361005,9.62653423 Z" id="路径-8" fill="#97A1BD" fill-rule="nonzero"></path>
                    <rect id="矩形备份" fill="#97A1BD" fill-rule="nonzero" x="7.74925644" y="7.90210912" width="6.22641509" height="1.24528302" rx="0.622641509"></rect>
                </g>
            </g>
        </g>
    </g>
</svg>