<?xml version="1.0" encoding="UTF-8"?>
<svg width="16px" height="12px" viewBox="0 0 16 12" version="1.1" xmlns="http://www.w3.org/2000/svg" xmlns:xlink="http://www.w3.org/1999/xlink">
    <!-- Generator: Sketch 58 (84663) - https://sketch.com -->
    <title>162火焰、加热</title>
    <desc>Created with Sketch.</desc>
    <g id="组件" stroke="none" stroke-width="1" fill="none" fill-rule="evenodd">
        <g id="Sheet/Betting-Sheet/_resource/Icon_Animate_Selecte/remen" transform="translate(0.000000, -2.000000)">
            <g id="162火焰、加热">
                <rect id="矩形" fill="#000000" fill-rule="nonzero" opacity="0" x="0" y="0" width="16" height="16"></rect>
                <path d="M14,2 C15.1045695,2 16,2.8954305 16,4 L16,12 C16,13.1045695 15.1045695,14 14,14 L2,14 C0.8954305,14 1.3527075e-16,13.1045695 0,12 L0,4 C-1.3527075e-16,2.8954305 0.8954305,2 2,2 L14,2 Z M12.3671151,11.4666667 L3.55814649,11.4666667 C3.41087055,11.4666667 3.29147982,11.5860574 3.29147982,11.7333333 C3.29147982,11.8806093 3.41087055,12 3.55814649,12 L3.55814649,12 L12.3671151,12 C12.514391,12 12.6337818,11.8806093 12.6337818,11.7333333 C12.6337818,11.5860574 12.514391,11.4666667 12.3671151,11.4666667 L12.3671151,11.4666667 Z M8.24365482,4 C7.66497462,4 7.27918782,4.1875 7.00507614,4.45535714 C6.53379642,4.91212406 6.48165699,5.58525425 6.47747411,7.0061663 L6.47715736,7.25 C6.47715736,8.83928571 6.50761421,9.5625 7.00507614,10.0446429 C7.27918782,10.3125 7.66497462,10.5 8.24365482,10.5 C8.82233503,10.5 9.21827411,10.3125 9.49238579,10.0446429 C9.98984772,9.5625 10.0101523,8.83928571 10.0101523,7.25 C10.0101523,5.66071429 9.98984772,4.9375 9.49238579,4.45535714 C9.21827411,4.1875 8.82233503,4 8.24365482,4 Z M2.87309645,4.07142857 L2,4.07142857 L2,10.4285714 L2.87309645,10.4285714 L2.87309645,7.54464286 L4.47715736,7.54464286 L4.47715736,10.4285714 L5.35025381,10.4285714 L5.35025381,4.07142857 L4.47715736,4.07142857 L4.47715736,6.84821429 L2.87309645,6.84821429 L2.87309645,4.07142857 Z M14,4.07142857 L10.7005076,4.07142857 L10.7005076,4.75892857 L11.9187817,4.75892857 L11.9187817,10.4285714 L12.7918782,10.4285714 L12.7918782,4.75892857 L14,4.75892857 L14,4.07142857 Z M8.24365482,4.6875 C8.52791878,4.6875 8.7106599,4.78571429 8.83248731,4.92857143 C9.08629442,5.23214286 9.13705584,5.74107143 9.13705584,7.25 C9.13705584,8.75892857 9.08629442,9.26785714 8.83248731,9.57142857 C8.7106599,9.71428571 8.52791878,9.8125 8.24365482,9.8125 C7.95939086,9.8125 7.77664975,9.71428571 7.65482234,9.57142857 C7.41370558,9.28303571 7.35583756,8.80930804 7.35065355,7.46893862 L7.35025381,7.25 C7.35025381,5.74107143 7.40101523,5.23214286 7.65482234,4.92857143 C7.77664975,4.78571429 7.95939086,4.6875 8.24365482,4.6875 Z" id="形状结合" fill="#D28282"></path>
            </g>
        </g>
    </g>
</svg>