<?xml version="1.0" encoding="UTF-8"?>
<svg width="24px" height="24px" viewBox="0 0 24 24" version="1.1" xmlns="http://www.w3.org/2000/svg" xmlns:xlink="http://www.w3.org/1999/xlink">
    <!-- Generator: Sketch 61.1 (89650) - https://sketch.com -->
    <title>jiaocheng</title>
    <desc>Created with Sketch.</desc>
    <g id="jiaocheng" stroke="none" stroke-width="1" fill="none" fill-rule="evenodd">
        <g id="编组">
            <rect id="矩形" fill="#D8D8D8" opacity="0" x="0" y="0" width="24" height="24"></rect>
            <path d="M18,2.25 L6,2.25 C5.03350169,2.25 4.25,3.03350169 4.25,4 L4.25,20 C4.25,20.9664983 5.03350169,21.75 6,21.75 L18,21.75 C18.9664983,21.75 19.75,20.9664983 19.75,20 L19.75,4 C19.75,3.03350169 18.9664983,2.25 18,2.25 Z M6,3.75 L18,3.75 C18.1380712,3.75 18.25,3.86192881 18.25,4 L18.25,20 C18.25,20.1380712 18.1380712,20.25 18,20.25 L6,20.25 C5.86192881,20.25 5.75,20.1380712 5.75,20 L5.75,4 C5.75,3.86192881 5.86192881,3.75 6,3.75 Z" id="矩形" fill="#9AA4C2" fill-rule="nonzero"></path>
            <path d="M16,2.25 L12,2.25 C11.5857864,2.25 11.25,2.58578644 11.25,3 L11.25,10 L11.2565468,10.1026609 C11.3341085,10.7011666 12.0827235,10.9779367 12.5303301,10.5303301 L14,9.061 L15.4696699,10.5303301 C15.9421436,11.0028037 16.75,10.6681786 16.75,10 L16.75,3 C16.75,2.58578644 16.4142136,2.25 16,2.25 Z M15.25,3.75 L15.25,8.189 L14.5303301,7.46966991 L14.4462117,7.39705176 C14.1526002,7.1791973 13.7359365,7.20340335 13.4696699,7.46966991 L12.75,8.188 L12.75,3.75 L15.25,3.75 Z" id="矩形" fill="#9AA4C2" fill-rule="nonzero"></path>
        </g>
    </g>
</svg>