<?xml version="1.0" encoding="UTF-8"?>
<svg width="221px" height="207px" viewBox="0 0 221 207" version="1.1" xmlns="http://www.w3.org/2000/svg" xmlns:xlink="http://www.w3.org/1999/xlink">
    <title>12_权限 (1)@2x</title>
    <defs>
        <linearGradient x1="50%" y1="57.8983004%" x2="50%" y2="0%" id="linearGradient-1">
            <stop stop-color="#F4F4F4" stop-opacity="0" offset="0%"></stop>
            <stop stop-color="#EFEFEF" offset="100%"></stop>
        </linearGradient>
        <linearGradient x1="50%" y1="100%" x2="50%" y2="0%" id="linearGradient-2">
            <stop stop-color="#DFE2E5" stop-opacity="0" offset="0%"></stop>
            <stop stop-color="#D7DCE2" stop-opacity="0.5" offset="100%"></stop>
        </linearGradient>
        <linearGradient x1="50%" y1="100%" x2="50%" y2="0.0562289562%" id="linearGradient-3">
            <stop stop-color="#B7B7B7" offset="0%"></stop>
            <stop stop-color="#D7DDE2" offset="100%"></stop>
        </linearGradient>
        <linearGradient x1="50%" y1="100.011976%" x2="50%" y2="2.85490917%" id="linearGradient-4">
            <stop stop-color="#CACACA" offset="0%"></stop>
            <stop stop-color="#FFFFFF" offset="100%"></stop>
        </linearGradient>
        <linearGradient x1="49.9950748%" y1="100%" x2="49.9950748%" y2="0.0325221239%" id="linearGradient-5">
            <stop stop-color="#CACACA" stop-opacity="0" offset="0%"></stop>
            <stop stop-color="#CACACA" offset="100%"></stop>
        </linearGradient>
        <linearGradient x1="74.15712%" y1="94.5207893%" x2="25.8048622%" y2="25.6513019%" id="linearGradient-6">
            <stop stop-color="#A7A7A7" offset="0%"></stop>
            <stop stop-color="#CACACA" offset="100%"></stop>
        </linearGradient>
        <linearGradient x1="65.3152548%" y1="103.38074%" x2="29.0900159%" y2="13.97582%" id="linearGradient-7">
            <stop stop-color="#CACACA" offset="0%"></stop>
            <stop stop-color="#EFF2F6" offset="100%"></stop>
        </linearGradient>
        <linearGradient x1="50.0482574%" y1="99.9772414%" x2="50.0482574%" y2="0.304482759%" id="linearGradient-8">
            <stop stop-color="#CACACA" stop-opacity="0" offset="0%"></stop>
            <stop stop-color="#CACACA" offset="100%"></stop>
        </linearGradient>
        <linearGradient x1="45.366694%" y1="98.8680726%" x2="59.4822634%" y2="4.50627145%" id="linearGradient-9">
            <stop stop-color="#B4B4B4" offset="0%"></stop>
            <stop stop-color="#D1D1D1" offset="100%"></stop>
        </linearGradient>
        <linearGradient x1="61.4279363%" y1="92.8695317%" x2="32.9856604%" y2="15.4722891%" id="linearGradient-10">
            <stop stop-color="#CACACA" offset="0%"></stop>
            <stop stop-color="#EFF2F6" offset="100%"></stop>
        </linearGradient>
        <linearGradient x1="50%" y1="100%" x2="50%" y2="0%" id="linearGradient-11">
            <stop stop-color="#F8FAFC" stop-opacity="0" offset="0%"></stop>
            <stop stop-color="#CACACA" offset="50%"></stop>
            <stop stop-color="#F8FAFC" stop-opacity="0" offset="100%"></stop>
        </linearGradient>
        <linearGradient x1="50%" y1="100%" x2="50%" y2="0%" id="linearGradient-12">
            <stop stop-color="#F8FAFC" stop-opacity="0" offset="0%"></stop>
            <stop stop-color="#CACACA" offset="50%"></stop>
            <stop stop-color="#F8FAFC" stop-opacity="0" offset="100%"></stop>
        </linearGradient>
        <linearGradient x1="50%" y1="100%" x2="50%" y2="0%" id="linearGradient-13">
            <stop stop-color="#F8FAFC" stop-opacity="0" offset="0%"></stop>
            <stop stop-color="#CACACA" offset="50%"></stop>
            <stop stop-color="#F8FAFC" stop-opacity="0" offset="100%"></stop>
        </linearGradient>
        <linearGradient x1="50%" y1="100%" x2="50%" y2="0%" id="linearGradient-14">
            <stop stop-color="#F8FAFC" stop-opacity="0" offset="0%"></stop>
            <stop stop-color="#CACACA" offset="50%"></stop>
            <stop stop-color="#F8FAFC" stop-opacity="0" offset="100%"></stop>
        </linearGradient>
        <linearGradient x1="1.01034483%" y1="49.819469%" x2="100.33908%" y2="49.819469%" id="linearGradient-15">
            <stop stop-color="#999999" offset="0%"></stop>
            <stop stop-color="#CACACA" offset="100%"></stop>
        </linearGradient>
        <linearGradient x1="1.01034483%" y1="49.819469%" x2="100.33908%" y2="49.819469%" id="linearGradient-16">
            <stop stop-color="#999999" offset="0%"></stop>
            <stop stop-color="#CACACA" offset="100%"></stop>
        </linearGradient>
        <linearGradient x1="0.539634146%" y1="49.8271186%" x2="98.8715137%" y2="49.8271186%" id="linearGradient-17">
            <stop stop-color="#999999" offset="0%"></stop>
            <stop stop-color="#CACACA" offset="100%"></stop>
        </linearGradient>
        <linearGradient x1="50%" y1="100%" x2="50%" y2="0%" id="linearGradient-18">
            <stop stop-color="#F8FAFC" stop-opacity="0" offset="0%"></stop>
            <stop stop-color="#CACACA" offset="50%"></stop>
            <stop stop-color="#F8FAFC" stop-opacity="0" offset="100%"></stop>
        </linearGradient>
        <linearGradient x1="50%" y1="100%" x2="50%" y2="0%" id="linearGradient-19">
            <stop stop-color="#F8FAFC" stop-opacity="0" offset="0%"></stop>
            <stop stop-color="#CACACA" offset="50%"></stop>
            <stop stop-color="#F8FAFC" stop-opacity="0" offset="100%"></stop>
        </linearGradient>
        <linearGradient x1="1.01034483%" y1="49.819469%" x2="100.33908%" y2="49.819469%" id="linearGradient-20">
            <stop stop-color="#999999" offset="0%"></stop>
            <stop stop-color="#CACACA" offset="100%"></stop>
        </linearGradient>
    </defs>
    <g id="页面-1" stroke="none" stroke-width="1" fill="none" fill-rule="evenodd" opacity="0.900000036">
        <g id="赛果-精选赛事" transform="translate(-74.000000, -238.000000)" fill-rule="nonzero">
            <g id="12_权限-(1)" transform="translate(74.000000, 238.000000)">
                <ellipse id="椭圆形" fill="url(#linearGradient-1)" cx="110.5" cy="103.15625" rx="110.5" ry="103"></ellipse>
                <ellipse id="椭圆形" fill="url(#linearGradient-2)" cx="110.5" cy="103.15625" rx="53.5" ry="19"></ellipse>
                <g id="编组" transform="translate(63.000000, 84.156250)">
                    <path d="M96,18.9889831 C96,26.7355932 74.5103448,33 48,33 C21.4896552,33 0,26.7355932 0,18.9889831 C0,17.3110169 0,16.1923729 0,14.3186441 C6.64827586,8.92118644 27.2,8.08220339 48,8.08220339 C69.1862069,8.08220339 89.6275862,8.13813559 96,13.6754237 C96,16.8076271 96,17.4228814 96,18.9889831 Z" id="路径" fill="url(#linearGradient-3)"></path>
                    <ellipse id="椭圆形" fill="url(#linearGradient-4)" cx="48" cy="14.0110169" rx="48" ry="14.0110169"></ellipse>
                </g>
                <g id="编组" transform="translate(76.000000, 31.156250)">
                    <g>
                        <polygon id="路径" fill="url(#linearGradient-5)" opacity="0.98" points="59.1111111 78 4.44444444 76.6219081 1.58333333 65.5420495 47 65.5420495"></polygon>
                        <g id="形状">
                            <path d="M40.8888889,24.8883392 L38.75,24.8883392 L38.75,15.8480565 C38.75,7.05583039 32.1111111,0.0551236749 23.75,0.0551236749 C15.3888889,0.0551236749 8.72222222,7.08339223 8.72222222,15.8756184 L8.72222222,24.9159011 L6.58333333,24.9159011 C2.94444444,24.9159011 0.138888889,27.8374558 0.138888889,31.6961131 L0.138888889,61.0219081 C0.138888889,64.8530035 2.91666667,67.8021201 6.58333333,67.8021201 L40.8888889,67.8021201 C44.5277778,67.8021201 47.3333333,64.8805654 47.3333333,61.0219081 L47.3333333,31.6409894 C47.3055556,27.8374558 44.5277778,24.8883392 40.8888889,24.8883392 L40.8888889,24.8883392 Z M25.8611111,46.7724382 L25.8611111,51.9540636 C25.8611111,53.3045936 25,54.2141343 23.7222222,54.2141343 C22.4444444,54.2141343 21.5833333,53.3045936 21.5833333,51.9540636 L21.5833333,46.7724382 C20.3055556,46.1109541 19.4444444,44.5123675 19.4444444,42.9413428 C19.4444444,40.4607774 21.3611111,38.4212014 23.75,38.4212014 C26.1388889,38.4212014 28.0555556,40.4332155 28.0555556,42.9413428 C28,44.5123675 27.1388889,46.0833922 25.8611111,46.7724382 L25.8611111,46.7724382 Z M34.4444444,24.8883392 L13,24.8883392 L13,15.8480565 C13,9.50883392 17.7222222,4.57526502 23.7222222,4.57526502 C29.7222222,4.57526502 34.4444444,9.53639576 34.4444444,15.8480565 C34.4444444,15.8756184 34.4444444,24.8883392 34.4444444,24.8883392 L34.4444444,24.8883392 Z" fill="url(#linearGradient-6)"></path>
                            <path d="M42.4166667,26.2664311 L40.3333333,26.2664311 L40.3333333,17.5293286 C40.3333333,9.01272085 33.9166667,2.26007067 25.8055556,2.26007067 C17.7222222,2.26007067 11.25,9.04028269 11.25,17.5568905 L11.25,26.2939929 L9.16666667,26.2939929 C5.63888889,26.2939929 2.94444444,29.1053004 2.94444444,32.8537102 L2.94444444,61.2424028 C2.94444444,64.935689 5.63888889,67.8021201 9.16666667,67.8021201 L42.3611111,67.8021201 C45.8888889,67.8021201 48.5835484,64.9908127 48.5835484,61.2424028 L48.5835484,32.8261484 C48.6111111,29.1328622 45.9444444,26.2664311 42.4166667,26.2664311 L42.4166667,26.2664311 Z M27.8611111,47.4614841 L27.8611111,52.4777385 C27.8611111,53.8007067 27.0277778,54.6551237 25.7777778,54.6551237 C24.5277778,54.6551237 23.6944444,53.7731449 23.6944444,52.4777385 L23.6944444,47.4614841 C22.4444444,46.8275618 21.6111111,45.2840989 21.6111111,43.7681979 C21.6111111,41.370318 23.4722222,39.3858657 25.7777778,39.3858657 C28.0833333,39.3858657 29.9444444,41.3427562 29.9444444,43.7681979 C29.9444444,45.2840989 29.1111111,46.7724382 27.8611111,47.4614841 L27.8611111,47.4614841 Z M36.1666667,26.2664311 L15.4166667,26.2664311 L15.4166667,17.5293286 C15.4166667,11.4106007 20,6.64240283 25.7777778,6.64240283 C31.5555556,6.64240283 36.1388889,11.4381625 36.1388889,17.5293286 C36.1666667,17.5568905 36.1666667,26.2664311 36.1666667,26.2664311 L36.1666667,26.2664311 Z" fill="url(#linearGradient-7)"></path>
                        </g>
                    </g>
                    <g transform="translate(41.666667, 20.120141)">
                        <ellipse id="椭圆形" fill="url(#linearGradient-8)" opacity="0.98" cx="15.3055556" cy="48.5363958" rx="10.3611111" ry="3.99646643"></ellipse>
                        <g id="形状">
                            <path d="M12.0555556,0.0275618375 C10.3055556,0.11024735 9.44444444,0.992226148 9.52777778,2.75618375 L9.58333333,4.29964664 L8.5,4.35477032 C8.47222222,4.35477032 8.44444444,4.35477032 8.41666667,4.35477032 C6.97222222,4.43745583 5.86111111,5.67773852 5.94444444,7.11095406 C6.02777778,8.54416961 7.27777778,9.64664311 8.72222222,9.5639576 L9.80555556,9.50883392 L9.88888889,11.6862191 L6.16666667,11.8240283 C4.75,11.9067138 3.63888889,13.0918728 3.66666667,14.4975265 C3.69444444,15.930742 4.91666667,17.0883392 6.36111111,17.0607774 L10.0833333,16.9229682 L10.1944444,19.9823322 C7.75,20.5611307 5.47222222,21.8565371 3.63888889,23.8134276 C-1.30555556,29.1328622 -0.972222222,37.4289753 4.38888889,42.3349823 C9.75,47.2409894 18.1111111,46.9102473 23.0555556,41.5908127 C28,36.2713781 27.6666667,27.975265 22.3055556,23.069258 C20.3333333,21.2501767 17.9444444,20.175265 15.4722222,19.7618375 L14.7777778,2.50812721 C14.75,0.771731449 13.8333333,-0.0551236749 12.0555556,0.0275618375 Z M17.25,36.2713781 C15.2777778,38.3936396 11.9166667,38.5314488 9.77777778,36.5745583 C7.63888889,34.6176678 7.5,31.2826855 9.47222222,29.160424 C11.4444444,27.0381625 14.8055556,26.9003534 16.9444444,28.8572438 C19.1111111,30.8141343 19.25,34.1215548 17.25,36.2713781 Z" fill="url(#linearGradient-9)"></path>
                            <path d="M13.7222222,0.303180212 C11.9722222,0.385865724 11.1111111,1.26784452 11.1944444,3.03180212 L11.25,4.57526502 L10.1666667,4.63038869 C10.1388889,4.63038869 10.1111111,4.63038869 10.0833333,4.63038869 C8.63888889,4.7130742 7.52777778,5.95335689 7.61111111,7.38657244 C7.69444444,8.81978799 8.94444444,9.92226148 10.3888889,9.83957597 L11.4722222,9.7844523 L11.5555556,11.9618375 L7.83333333,12.0996466 C6.41666667,12.1823322 5.30555556,13.3674912 5.33333333,14.7731449 C5.36111111,16.2063604 6.58333333,17.3639576 8.02777778,17.3363958 L11.75,17.1985866 L11.8611111,20.2579505 C9.41666667,20.8367491 7.13888889,22.1321555 5.30555556,24.0890459 C0.361111111,29.4084806 0.694444444,37.7045936 6.05555556,42.6106007 C11.4166667,47.5166078 19.7777778,47.1858657 24.7222222,41.8664311 C29.6666667,36.5469965 29.3333333,28.2508834 23.9722222,23.3448763 C22,21.5257951 19.6111111,20.4508834 17.1388889,20.0374558 L16.4444444,2.78374558 C16.3888889,1.07491166 15.4722222,0.248056537 13.7222222,0.303180212 Z M18.9166667,36.5469965 C16.9444444,38.669258 13.5833333,38.8070671 11.4444444,36.8501767 C9.30555556,34.8932862 9.16666667,31.5583039 11.1388889,29.4360424 C13.1111111,27.3137809 16.4722222,27.1759717 18.6111111,29.1328622 C20.75,31.1173145 20.8888889,34.424735 18.9166667,36.5469965 Z" fill="url(#linearGradient-10)"></path>
                        </g>
                    </g>
                </g>
                <rect id="矩形" fill="url(#linearGradient-11)" x="124" y="17.15625" width="4" height="23"></rect>
                <rect id="矩形" fill="url(#linearGradient-12)" x="150" y="40.15625" width="6" height="31"></rect>
                <rect id="矩形" fill="url(#linearGradient-13)" x="55" y="76.15625" width="7" height="29"></rect>
                <rect id="矩形" fill="url(#linearGradient-14)" x="95" y="32.15625" width="7" height="33"></rect>
                <path d="M154.515152,53.8743351 C154.848485,54.3264628 155,54.9115691 155,55.65625 C155,56.4009309 154.848485,57.012633 154.515152,57.4381649 C154.151515,57.9168883 153.666667,58.15625 153,58.15625 C152.363636,58.15625 151.848485,57.9168883 151.484848,57.4381649 C151.151515,56.9860372 151,56.4009309 151,55.65625 C151,54.8849734 151.151515,54.299867 151.484848,53.8743351 C151.848485,53.3956117 152.333333,53.15625 153,53.15625 C153.636364,53.15625 154.151515,53.3956117 154.515152,53.8743351 Z M152.030303,54.4328457 C151.909091,54.7253989 151.818182,55.1243351 151.818182,55.65625 C151.818182,56.1881649 151.878788,56.5871011 152.030303,56.8796543 C152.212121,57.3051862 152.545455,57.5445479 153,57.5445479 C153.454545,57.5445479 153.757576,57.3317819 153.969697,56.8796543 C154.090909,56.5605053 154.181818,56.1615691 154.181818,55.65625 C154.181818,55.1243351 154.121212,54.7253989 153.969697,54.4328457 C153.787879,54.0073138 153.454545,53.7679521 153,53.7679521 C152.545455,53.7679521 152.242424,54.0073138 152.030303,54.4328457 Z" id="形状" fill="url(#linearGradient-15)"></path>
                <path d="M99,46.15625 L99,52.15625 L98.1954023,52.15625 L98.1954023,47.2447456 C97.8735632,47.5898783 97.4827586,47.855365 97,47.9881084 L97,47.0854535 C97.2298851,47.0058075 97.4827586,46.8996128 97.7356322,46.7403208 C97.9885057,46.5544801 98.2183908,46.3420907 98.3793103,46.15625 L99,46.15625 L99,46.15625 Z" id="路径" fill="url(#linearGradient-16)"></path>
                <path d="M60.3902439,88.1647246 C60.7865854,88.7876059 61,89.6181144 61,90.65625 C61,91.6943856 60.7865854,92.5248941 60.3902439,93.1477754 C59.9329268,93.8003178 59.3231707,94.15625 58.5,94.15625 C57.7073171,94.15625 57.0670732,93.8299788 56.6097561,93.1477754 C56.2134146,92.5248941 56,91.6943856 56,90.65625 C56,89.6181144 56.2134146,88.7876059 56.6097561,88.1647246 C57.0670732,87.5121822 57.6768293,87.15625 58.5,87.15625 C59.3231707,87.15625 59.9634146,87.4825212 60.3902439,88.1647246 Z M57.3109756,88.935911 C57.1585366,89.3511653 57.0670732,89.9147246 57.0670732,90.65625 C57.0670732,91.3977754 57.1585366,91.9613347 57.3109756,92.376589 C57.554878,92.9698093 57.9512195,93.2960805 58.5,93.2960805 C59.0792683,93.2960805 59.4756098,92.9994703 59.6890244,92.376589 C59.8414634,91.9316737 59.9329268,91.3681144 59.9329268,90.65625 C59.9329268,89.9443856 59.8414634,89.3808263 59.6890244,88.935911 C59.445122,88.3426907 59.0487805,88.0164195 58.5,88.0164195 C57.9512195,88.0164195 57.554878,88.3426907 57.3109756,88.935911 Z" id="形状" fill="url(#linearGradient-17)"></path>
                <rect id="矩形" fill="url(#linearGradient-18)" x="109" y="80.15625" width="7" height="27"></rect>
                <rect id="矩形" fill="url(#linearGradient-19)" x="161" y="87.15625" width="7" height="34"></rect>
                <path d="M114,90.15625 L114,96.15625 L113.195402,96.15625 L113.195402,91.2447456 C112.873563,91.5898783 112.482759,91.855365 112,91.9881084 L112,91.0854535 C112.229885,91.0058075 112.482759,90.8996128 112.735632,90.7403208 C112.988506,90.5544801 113.218391,90.3420907 113.37931,90.15625 L114,90.15625 L114,90.15625 Z" id="路径" fill="#999999"></path>
                <path d="M166.390244,102.164725 C166.786585,102.787606 167,103.618114 167,104.65625 C167,105.694386 166.786585,106.524894 166.390244,107.147775 C165.932927,107.800318 165.323171,108.15625 164.5,108.15625 C163.707317,108.15625 163.067073,107.829979 162.609756,107.147775 C162.213415,106.524894 162,105.694386 162,104.65625 C162,103.618114 162.213415,102.787606 162.609756,102.164725 C163.067073,101.512182 163.676829,101.15625 164.5,101.15625 C165.323171,101.15625 165.963415,101.482521 166.390244,102.164725 Z M163.310976,102.935911 C163.158537,103.351165 163.067073,103.914725 163.067073,104.65625 C163.067073,105.397775 163.158537,105.961335 163.310976,106.376589 C163.554878,106.969809 163.95122,107.296081 164.5,107.296081 C165.079268,107.296081 165.47561,106.99947 165.689024,106.376589 C165.841463,105.931674 165.932927,105.368114 165.932927,104.65625 C165.932927,103.944386 165.841463,103.380826 165.689024,102.935911 C165.445122,102.342691 165.04878,102.016419 164.5,102.016419 C163.95122,102.016419 163.554878,102.342691 163.310976,102.935911 Z" id="形状" fill="url(#linearGradient-20)"></path>
            </g>
        </g>
    </g>
</svg>