<?xml version="1.0" encoding="UTF-8"?>
<svg width="10px" height="10px" viewBox="0 0 10 10" version="1.1" xmlns="http://www.w3.org/2000/svg" xmlns:xlink="http://www.w3.org/1999/xlink">
    <!-- Generator: Sketch 61.2 (89653) - https://sketch.com -->
    <title>刷新 (1)备份</title>
    <desc>Created with Sketch.</desc>
    <g id="页面-1" stroke="none" stroke-width="1" fill="none" fill-rule="evenodd">
        <g id="冠军" transform="translate(-111.000000, -121.000000)" fill="#999999" fill-rule="nonzero">
            <g id="编组-7">
                <g id="编组-4" transform="translate(14.000000, 95.000000)">
                    <g id="刷新-(1)备份" transform="translate(97.000000, 26.000000)">
                        <path d="M5,10 C2.21428571,10 0,7.78571429 0,5 C0,2.21428571 2.21428571,0 5,0 C6.57142857,0 8,0.714285714 9,2 C9.21428571,2.28571429 9.14285714,2.78571429 8.85714286,3 C8.5,3.21428571 8.07142857,3.14285714 7.85714286,2.85714286 C7.14285714,1.92857143 6.14285714,1.42857143 5,1.42857143 C3,1.42857143 1.42857143,3 1.42857143,5 C1.42857143,7 3,8.57142857 5,8.57142857 C7,8.57142857 8.57142857,7 8.57142857,5 C8.57142857,4.57142857 8.85714286,4.28571429 9.28571429,4.28571429 C9.71428571,4.28571429 10,4.57142857 10,5 C10,7.78571429 7.78571429,10 5,10 Z" id="路径"></path>
                        <path d="M8.57142857,0 C9,0 9.28571429,0.285714286 9.28571429,0.714285714 L9.28571429,2.85714286 C9.28571429,3.28571429 9,3.57142857 8.57142857,3.57142857 C8.14285714,3.57142857 7.85714286,3.28571429 7.85714286,2.85714286 L7.85714286,0.714285714 C7.85714286,0.285714286 8.14285714,0 8.57142857,0 Z" id="路径"></path>
                        <path d="M9.28571429,2.85714286 C9.28571429,3.28571429 9,3.57142857 8.57142857,3.57142857 L6.42857143,3.57142857 C6,3.57142857 5.71428571,3.28571429 5.71428571,2.85714286 C5.71428571,2.42857143 6,2.14285714 6.42857143,2.14285714 L8.57142857,2.14285714 C9,2.14285714 9.28571429,2.42857143 9.28571429,2.85714286 Z" id="路径"></path>
                    </g>
                </g>
            </g>
        </g>
    </g>
</svg>