<?xml version="1.0" encoding="UTF-8"?>
<svg width="20px" height="20px" viewBox="0 0 20 20" version="1.1" xmlns="http://www.w3.org/2000/svg" xmlns:xlink="http://www.w3.org/1999/xlink">
    <!-- Generator: Sketch 61.2 (89653) - https://sketch.com -->
    <title>羽</title>
    <desc>Created with Sketch.</desc>
    <g id="页面-1" stroke="none" stroke-width="1" fill="none" fill-rule="evenodd">
        <g id="羽" transform="translate(-2.000000, -2.000000)">
            <rect id="矩形备份-11" fill="#D8D8D8" opacity="0" x="0" y="0" width="24" height="24"></rect>
            <path d="M3.1754252,15.5192078 C3.2324252,15.4623079 3.32482522,15.4623079 3.38182523,15.5192078 L3.38182523,15.5192078 L8.47882608,20.6155017 C8.53582608,20.6724016 8.53582608,20.7649015 8.47882608,20.8219014 L8.47882608,20.8219014 L8.39952606,20.9012013 C7.69192594,21.6087005 6.74922579,22 5.74792562,22 C4.74642546,22 3.8037253,21.6099005 3.09612518,20.9012013 C1.63462494,19.4386031 1.63462494,17.061106 3.09612518,15.5985077 L3.09612518,15.5985077 Z M12.7116468,2.00942411 C12.8816468,1.97942415 13.0566468,2.0219241 13.1941469,2.12442397 C13.3316469,2.22692385 13.4229469,2.38322366 13.4404469,2.55442345 L13.4404469,2.55442345 L13.7215469,5.04812045 C13.7257469,5.0851204 13.7155469,5.12232036 13.6931469,5.15212032 L13.6931469,5.15212032 L7.02034583,14.0410096 C6.97664583,14.0991095 6.98244583,14.1804094 7.03384584,14.2318094 L7.03384584,14.2318094 L7.71684595,14.9157085 C7.77954596,14.9785085 7.88344598,14.9712085 7.93674599,14.9002086 L7.93674599,14.9002086 L14.4992471,6.1601191 C14.5303471,6.11871915 14.5809471,6.09681918 14.6324471,6.10271917 L14.6324471,6.10271917 L17.0711475,6.37951884 C17.3598475,6.4108188 17.5887476,6.63951853 17.6212476,6.92951818 L17.6212476,6.92951818 L17.8795476,9.20641543 C17.8852476,9.25721537 17.8640476,9.30741531 17.8233476,9.33861527 L17.8233476,9.33861527 L9.08664618,16.0509072 C9.01674616,16.1047071 9.00994616,16.207607 9.07234617,16.2699069 L9.07234617,16.2699069 L9.75554629,16.9530061 C9.8073463,17.004806 9.88954631,17.010206 9.94764632,16.9655061 L9.94764632,16.9655061 L18.5034477,10.391314 C18.5378477,10.364914 18.5820478,10.355114 18.6243478,10.364614 L18.6243478,10.364614 L21.5119482,11.0109133 C21.8444483,11.0859132 22.0557483,11.4122128 21.9870483,11.7447124 L21.9870483,11.7447124 L21.3619482,14.8373086 C21.3182482,15.0573084 21.1594482,15.2360082 20.9468481,15.3073081 L20.9468481,15.3073081 L10.5363464,18.7852039 C10.5148464,18.7923039 10.4953464,18.8045039 10.4794464,18.8205038 L10.4794464,18.8205038 L9.56924626,19.7304027 C9.51224625,19.7875027 9.41984623,19.7875027 9.36284622,19.7304027 L9.36284622,19.7304027 L4.26584538,14.6342089 C4.20884537,14.577209 4.20884537,14.4848091 4.26584538,14.4278091 L4.26584538,14.4278091 L5.17714553,13.5166102 C5.19324553,13.5005103 5.20524553,13.4810103 5.21244553,13.4596103 L5.21244553,13.4596103 L8.69084611,3.05062286 C8.76464612,2.83322312 8.94964615,2.67442331 9.17604619,2.63442336 L9.17604619,2.63442336 Z" id="形状结合" fill="#B6C1CB"></path>
        </g>
    </g>
</svg>