<?xml version="1.0" encoding="UTF-8"?>
<svg width="18px" height="18px" viewBox="0 0 18 18" version="1.1" xmlns="http://www.w3.org/2000/svg" xmlns:xlink="http://www.w3.org/1999/xlink">
    <!-- Generator: Sketch 61.2 (89653) - https://sketch.com -->
    <title>形状</title>
    <desc>Created with Sketch.</desc>
    <g id="控件" stroke="none" stroke-width="1" fill="none" fill-rule="evenodd">
        <g id="Tabbar/Sports/BetSheet/_resource/Icon_All备份" transform="translate(-4.000000, -2.000000)" fill="#CBD3DA" fill-rule="nonzero">
            <path d="M10.7540909,10.841315 L4.68727273,10.841315 C4.30886364,10.841315 4,10.5321351 4,10.1533386 L4,4.08030941 C4,3.70151291 4.30886364,3.39233307 4.68727273,3.39233307 L10.7540909,3.39233307 C11.1325,3.39233307 11.4413636,3.70151291 11.4413636,4.08030941 L11.4413636,10.1533386 C11.4393182,10.5321351 11.1325,10.841315 10.7540909,10.841315 L10.7540909,10.841315 Z M10.7745455,19.9938574 L4.70772727,19.9938574 C4.32931818,19.9938574 4.02045455,19.6846775 4.02045455,19.305881 L4.02045455,13.2328518 C4.02045455,12.8540553 4.32931818,12.5448754 4.70772727,12.5448754 L10.7745455,12.5448754 C11.1529545,12.5448754 11.4618182,12.8540553 11.4618182,13.2328518 L11.4618182,19.305881 C11.4597727,19.6846775 11.1529545,19.9938574 10.7745455,19.9938574 L10.7745455,19.9938574 Z M20.0752273,20 L14.0084091,20 C13.63,20 13.3211364,19.6908202 13.3211364,19.3120237 L13.3211364,13.241042 C13.3211364,12.8622455 13.63,12.5530656 14.0084091,12.5530656 L20.0752273,12.5530656 C20.4536364,12.5530656 20.7625,12.8622455 20.7625,13.241042 L20.7625,19.3140712 C20.7625,19.6908202 20.4536364,20 20.0752273,20 Z M17.095,11.852804 C16.9109091,11.852804 16.7390909,11.7811398 16.6081818,11.6521442 L12.3597727,7.39733819 C12.2309091,7.26834262 12.1593182,7.09430099 12.1593182,6.91206916 C12.1593182,6.72983733 12.2309091,6.5557957 12.3597727,6.42680014 L12.7934091,6.86088045 L12.3597727,6.42680014 L16.5795455,2.20065977 C16.7084091,2.0716642 16.8822727,2 17.0643182,2 C17.2484091,2 17.4202273,2.0716642 17.5490909,2.20065977 L21.7995455,6.45546582 C21.9284091,6.58446138 22,6.75850301 22,6.94073484 C22,7.12296667 21.9284091,7.2970083 21.7995455,7.42600387 L17.5797727,11.6521442 C17.4509091,11.7811398 17.2790909,11.852804 17.095,11.852804 L17.095,11.852804 Z" id="形状"></path>
        </g>
    </g>
</svg>