<?xml version="1.0" encoding="UTF-8"?>
<svg width="16px" height="16px" viewBox="0 0 16 16" version="1.1" xmlns="http://www.w3.org/2000/svg" xmlns:xlink="http://www.w3.org/1999/xlink">
    <!-- Generator: Sketch 61.1 (89650) - https://sketch.com -->
    <title>mima</title>
    <desc>Created with Sketch.</desc>
    <g id="mima" stroke="none" stroke-width="1" fill="none" fill-rule="evenodd">
        <g id="密码" fill-rule="nonzero">
            <rect id="矩形" fill="#000000" opacity="0" x="0" y="0" width="16" height="16"></rect>
            <rect id="矩形备份-4" stroke="#FFFFFF" stroke-width="0.7" x="0.35" y="0.35" width="15.3" height="15.3" rx="7.65"></rect>
            <path d="M11.3363661,6.87115085 L5.87869359,6.87115085 L5.87869359,5.93600114 C5.87869359,4.66170002 6.8666972,3.62437917 8.08176594,3.62437917 C9.29683469,3.62437917 10.2848383,4.66311907 10.2848383,5.93883923 C10.2848383,6.11196254 10.4172929,6.25102881 10.5821855,6.25102881 C10.747078,6.25102881 10.8795327,6.11196254 10.8795327,5.93883923 C10.8795327,4.31829147 9.62391659,3 8.08176594,3 C7.33434324,3 6.63152262,3.30509436 6.10305556,3.85994041 C5.57458852,4.41478644 5.28399921,5.15127005 5.28399921,5.93600114 L5.28399922,6.87115085 L4.65686697,6.87115085 C4.29194088,6.87115085 4,7.17766426 4,7.55938697 L4,12.3004115 C4,12.6835533 4.29329246,13 4.65686697,13 L11.3350145,13 C11.6999406,13 12,12.6835533 12,12.3004115 L12,7.55938698 C12.0013425,7.17766426 11.7012922,6.87115085 11.3363661,6.87115085 Z M11.4066481,12.3075068 C11.4066481,12.3458209 11.3769134,12.3770399 11.3404208,12.3770399 L4.66092171,12.3770399 C4.6244291,12.3770399 4.59469437,12.3458209 4.59469437,12.3075068 L4.59469437,7.56506315 C4.59469437,7.52674898 4.62442909,7.49553002 4.66092169,7.49553002 L11.3390692,7.49553002 C11.3755618,7.49553002 11.4052966,7.52674898 11.4052966,7.56506315 L11.4052966,12.3075068 L11.4066481,12.3075068 Z" id="形状" fill="#FFFFFF"></path>
        </g>
    </g>
</svg>