<?xml version="1.0" encoding="UTF-8"?>
<svg width="21px" height="22px" viewBox="0 0 21 22" version="1.1" xmlns="http://www.w3.org/2000/svg" xmlns:xlink="http://www.w3.org/1999/xlink">
    <!-- Generator: Sketch 58 (84663) - https://sketch.com -->
    <title>mdpi/Icon_我的_常态</title>
    <desc>Created with Sketch.</desc>
    <g id="页面-1" stroke="none" stroke-width="1" fill="none" fill-rule="evenodd">
        <g id="panda体育-首页备份" transform="translate(-325.000000, -738.000000)">
            <g id="item" transform="translate(311.000000, 736.500000)">
                <g id="iPhone-X/Bars/_resource/Icon_UC" transform="translate(12.000000, 0.000000)">
                    <g id="编组" transform="translate(2.000000, 2.000000)">
                        <path d="M1.4,17.9160807 L15.8718214,17.9160807 L16.5954651,17.9160807 C16.7556503,15.7363281 16.0477691,14.2754123 14.4718214,13.5333333 L14.4718214,12.8789062 L17.7088115,13.7666667 L19.6755107,17.5264323 L19.6755107,19.6 L18.564443,20.1673828 L1.4,20.1673828 L0.754091404,18.6666667 L1.4,17.9160807 Z" id="路径-25" fill="#DCE2F3"></path>
                        <path d="M6.0117333,12.1333333 L14.5641264,12.1333333 C17.1932509,12.1333333 19.4570351,13.9887253 19.9732852,16.5666667 L20.3579746,18.4876478 C20.5857105,19.6248671 19.8484284,20.7313819 18.7112091,20.9591177 C18.5754423,20.9863059 18.4373193,21 18.298857,21 L2.1,21 C0.940202025,21 2.13162821e-14,20.059798 2.13162821e-14,18.9 C2.13162821e-14,18.7242733 0.0220567008,18.5492415 0.0656529207,18.3790087 L0.586807755,16.3440231 C1.22135053,13.8662847 3.45403269,12.1333333 6.0117333,12.1333333 Z M6.0117333,13.5333333 C4.09345784,13.5333333 2.41894622,14.8330468 1.94303914,16.6913507 L1.42188431,18.7263362 C1.40735223,18.7830805 1.4,18.8414244 1.4,18.9 C1.4,19.2865993 1.71340068,19.6 2.1,19.6 L18.298857,19.6 C18.3450111,19.6 18.3910521,19.5954353 18.4363077,19.5863726 C18.8153808,19.5104606 19.0611415,19.1416224 18.9852295,18.7625493 L18.6005401,16.8415681 C18.2153048,14.9178609 16.5260274,13.5333333 14.5641264,13.5333333 L6.0117333,13.5333333 Z" id="矩形" fill="#9AA4C2" fill-rule="nonzero"></path>
                        <path d="M9.51702544,0 L10.7384881,0 C13.5735498,0 15.8718214,2.29827162 15.8718214,5.13333333 C15.8718214,5.16283251 15.8715672,5.19233114 15.8710586,5.22182593 L15.8242941,7.93416549 C15.7707109,11.0419923 13.2360455,13.5333333 10.1277568,13.5333333 C7.01946805,13.5333333 4.48480261,11.0419923 4.43121939,7.93416549 L4.38445492,5.22182593 C4.33558181,2.3871855 6.59389242,0.0496359213 9.42853284,0.000762810515 C9.45802764,0.000254279618 9.48752626,0 9.51702544,0 Z M9.45266719,1.40055477 C7.39111051,1.43609885 5.7487028,3.13613491 5.78424688,5.19769158 L5.83101135,7.91003115 C5.87142774,10.2541816 7.78325792,12.1333333 10.1277568,12.1333333 C12.4722556,12.1333333 14.3840858,10.2541816 14.4245022,7.91003115 L14.4712667,5.19769158 C14.4716365,5.17624083 14.4718214,5.15478728 14.4718214,5.13333333 C14.4718214,3.07147027 12.8003512,1.4 10.7384881,1.4 L9.51702544,1.4 C9.49557149,1.4 9.47411795,1.40018493 9.45266719,1.40055477 Z" id="矩形" fill="#9AA4C2" fill-rule="nonzero"></path>
                        <rect id="矩形" fill="#9AA4C2" x="8.02775677" y="8.86666667" width="4.2" height="1.16666667" rx="0.583333333"></rect>
                    </g>
                </g>
            </g>
        </g>
    </g>
</svg>