<?xml version="1.0" encoding="UTF-8"?>
<svg width="26px" height="26px" viewBox="0 0 26 26" version="1.1" xmlns="http://www.w3.org/2000/svg" xmlns:xlink="http://www.w3.org/1999/xlink">
    <title>单击</title>
    <g id="页面-1" stroke="none" stroke-width="1" fill="none" fill-rule="evenodd">
        <g id="直播样式备份" transform="translate(-96.000000, -116.000000)" fill="#FFFFFF">
            <g id="编组-9" transform="translate(0.000000, 44.000000)">
                <g id="单击" transform="translate(96.000000, 72.000000)">
                    <g id="编组" transform="translate(4.116667, 1.083333)">
                        <path d="M16.6534983,16.8725917 C16.6534983,20.11425 16.6382233,22.7424167 11.438765,22.7424167 C9.23624,22.7424167 7.913815,22.2516667 6.91184,21.2564083 L1.51164,15.8917417 C1.03367333,15.4138833 1.15414,14.803425 1.54489833,14.4118 C1.935765,14.0210417 2.65369,14.0073917 3.031665,14.3823333 C3.031665,14.3823333 3.97914833,15.32375 4.79565667,16.1357083 C5.18219,16.5204 5.56904833,16.904875 5.956015,17.2891333 L5.956015,7.05369167 C5.956015,6.52350833 6.38924,6.093425 6.923865,6.093425 C7.45859833,6.093425 7.82368167,6.52350833 7.82368167,7.05369167 L7.82368167,13.5643083 L7.83440667,13.5643083 C7.82725667,13.5995167 7.82379,13.6352667 7.82368167,13.671125 C7.82368167,13.9656833 8.064615,14.2049917 8.36144833,14.2049917 C8.65839,14.2049917 8.899215,13.9664417 8.899215,13.671125 C8.899215,13.634725 8.89542333,13.5991917 8.88859833,13.5643083 L8.899215,13.5643083 L8.899215,10.8960583 C8.899215,10.365875 9.28542333,9.935575 9.820265,9.935575 C9.820265,9.935575 10.7668817,9.92279167 10.7668817,10.8960583 L10.7668817,14.4178667 L10.7776067,14.4178667 C10.7704567,14.453075 10.76699,14.488825 10.7668817,14.5246833 C10.7668817,14.81935 11.007815,15.0586583 11.3046483,15.0586583 C11.60159,15.0586583 11.842415,14.8201083 11.842415,14.5246833 C11.842415,14.4882833 11.8387317,14.45275 11.8317983,14.4178667 L11.842415,14.4178667 L11.842415,11.9631417 C11.842415,11.4329583 12.222665,11.0027667 12.7573983,11.0027667 C12.7573983,11.0027667 13.72384,11.063325 13.72384,11.9631417 L13.72384,15.0586583 L13.7344567,15.0586583 C13.727415,15.0938667 13.72384,15.1296167 13.72384,15.165475 C13.72384,15.4600333 13.964665,15.6993417 14.2616067,15.6993417 C14.55844,15.6993417 14.7857233,15.4607917 14.7857233,15.165475 C14.7857233,15.129075 14.7819317,15.093425 14.775865,15.0586583 L14.7857233,15.0586583 L14.7857233,12.9455083 C14.7857233,12.415325 15.184065,11.9851333 15.7187983,11.9851333 C15.7187983,11.9851333 16.6557733,11.947325 16.6557733,12.9455083 L16.6557733,16.8725917 L16.6534983,16.8725917 M15.774915,10.7892417 L15.7211817,10.7892417 C15.3250067,10.7892417 15.0000067,10.902775 14.6873567,11.0966917 C14.4130567,10.297625 13.716365,9.72205 12.8188233,9.72205 C12.4226483,9.72205 12.043915,9.83558333 11.7310483,10.0295 C11.456965,9.23043333 10.760165,8.65485833 9.86197333,8.65485833 C9.51194833,8.65485833 9.18629833,8.74271667 8.89845667,8.89644167 L8.89845667,6.84016667 C8.89845667,5.71989167 8.050965,4.8126 6.923215,4.8126 C5.79535667,4.8126 4.88048167,5.72075833 4.88048167,6.84016667 L4.88048167,14.7125333 L3.640715,13.4772083 C2.843165,12.6849667 1.431365,12.79785 0.751898333,13.4772083 C0.07254,14.1565667 -0.372818333,15.522975 0.59969,16.4961333 L6.304415,22.16305 C6.42184833,22.279725 6.55130667,22.3773333 6.68769833,22.4598833 C7.72748167,23.3082417 8.91969,23.8103667 11.4395233,23.8103667 C17.1965733,23.8103667 17.72979,20.7042333 17.72979,16.87335 L17.72979,12.8174583 C17.7290317,11.6972917 16.9034233,10.7892417 15.774915,10.7892417" id="Fill-2"></path>
                        <path d="M6.78786333,0.0237466667 C3.33278833,0.0766133333 0.494021667,2.878005 0.397821667,6.33199667 C0.350263333,8.039655 0.96278,9.60279667 1.99823,10.7870967 C2.39624667,11.2423133 3.14439667,10.9676883 3.14439667,10.3629717 C3.14439667,10.2065383 3.08849667,10.0550883 2.985255,9.93743833 C2.11793833,8.94878833 1.61808833,7.630155 1.70508,6.19614667 C1.86519667,3.55281333 4.03912167,1.42883 6.68538,1.32688833 C9.64201333,1.21303 12.0837383,3.58531333 12.0837383,6.51713833 C12.0837383,6.87344667 12.0476633,7.221305 11.97898,7.55746333 C11.918205,7.85462167 12.0665133,8.15459667 12.3418967,8.28167167 C12.7192217,8.455655 13.1654467,8.23693 13.2495133,7.83013833 C13.3372633,7.40623 13.3837383,6.967155 13.3837383,6.51713833 C13.3837383,2.89674667 10.4210383,-0.0318283333 6.78786333,0.0237466667" id="Fill-4"></path>
                    </g>
                </g>
            </g>
        </g>
    </g>
</svg>