<?xml version="1.0" encoding="UTF-8"?>
<svg width="14px" height="14px" viewBox="0 0 14 14" version="1.1" xmlns="http://www.w3.org/2000/svg" xmlns:xlink="http://www.w3.org/1999/xlink">
    <!-- Generator: Sketch 58 (84663) - https://sketch.com -->
    <title>投注单_说明_入口</title>
    <desc>Created with Sketch.</desc>
    <g id="页面-1" stroke="none" stroke-width="1" fill="none" fill-rule="evenodd">
        <g id="混合投注-点击问号" transform="translate(-243.000000, -454.000000)" fill-rule="nonzero">
            <g id="投注单_说明_入口" transform="translate(243.000000, 454.000000)">
                <rect id="矩形" fill="#000000" opacity="0" x="0" y="0" width="14" height="13.65"></rect>
                <path d="M7.00526367,0.0303125977 C10.8337305,0.0303125977 13.9372734,3.05625366 13.9372734,6.78900879 C13.9372734,10.5217506 10.8337441,13.5477316 7.00526367,13.5477316 C3.17681055,13.5477316 0.0732539063,10.5217506 0.0732539063,6.78900879 C0.0732539063,3.05626699 3.17679688,0.0303125977 7.00526367,0.0303125977 Z M7.00526367,1.0303126 C3.7234965,1.0303126 1.07325391,3.61429561 1.07325391,6.78900879 C1.07325391,9.96372339 3.72351156,12.5477316 7.00526367,12.5477316 C10.2870331,12.5477316 12.9372734,9.96373323 12.9372734,6.78900879 C12.9372734,3.61428719 10.2870359,1.0303126 7.00526367,1.0303126 Z M6.94946875,8.86192925 C7.14440234,8.86192925 7.3084375,8.92678008 7.44149219,9.05652173 C7.57456055,9.18623672 7.64108789,9.346171 7.64108789,9.53624458 C7.64108789,9.74745967 7.5714707,9.91341914 7.43220898,10.0341363 C7.29275586,10.1547602 7.13185156,10.2151321 6.94945508,10.2151321 C6.76067383,10.2151321 6.59588672,10.15556 6.45506641,10.0363758 C6.31427344,9.91717822 6.24404102,9.75049893 6.24404102,9.53624458 C6.24404102,9.34618433 6.31214062,9.18622339 6.44812109,9.05652173 C6.5842793,8.92678008 6.75139062,8.86192925 6.94946875,8.86192925 Z M7.06092187,3.36287212 C7.50961914,3.36287212 7.90557031,3.44355908 8.24924023,3.60499966 C8.59275977,3.76640024 8.85810352,3.98590664 9.04533984,4.26353218 C9.23261719,4.54109106 9.32621485,4.84283071 9.32621485,5.1686978 C9.32621485,5.42519517 9.27283984,5.6499936 9.16604883,5.84309312 C9.05925781,6.03620596 8.93217773,6.20329849 8.78536914,6.34323765 C8.63839648,6.48355005 8.37455664,6.71962573 7.99391797,7.05151802 C7.88869922,7.14506851 7.80435742,7.22728843 7.74091992,7.29819111 C7.67749609,7.36908047 7.63028711,7.43395796 7.59934766,7.49279692 C7.5684082,7.55163589 7.54442773,7.61046152 7.52739258,7.66930049 C7.51037109,7.72776621 7.48485937,7.83108765 7.45080273,7.97934478 C7.392,8.29313481 7.20807227,8.45004316 6.89841797,8.45004316 C6.73728125,8.45004316 6.60209375,8.39876235 6.49222656,8.29614741 C6.38218164,8.19357246 6.32745312,8.04120967 6.32745312,7.83907236 C6.32745312,7.58561426 6.36768945,7.36610786 6.44794336,7.18051318 C6.52841602,6.99494517 6.63516602,6.83202495 6.76823437,6.69171255 C6.90130273,6.55140015 7.08081445,6.38472085 7.30670117,6.19158135 C7.50476562,6.02262261 7.64808789,5.8951604 7.73627148,5.80915474 C7.82427734,5.72317573 7.89857031,5.62737246 7.9590957,5.52174492 C8.01944336,5.41613071 8.04942578,5.30187861 8.04942578,5.17776226 C8.04942578,4.93640786 7.9573457,4.73272427 7.77321289,4.56675146 C7.58908008,4.40116523 7.35158594,4.3181855 7.06067578,4.3181855 C6.72025977,4.3181855 6.46961328,4.40193838 6.30885937,4.56937749 C6.14776367,4.73684326 6.0117832,4.98312979 5.90019336,5.30938345 C5.79476953,5.64995361 5.59517383,5.82041865 5.3011875,5.82041865 C5.12788281,5.82041865 4.98183984,5.76085986 4.86273047,5.6416623 C4.74362109,5.52246475 4.6842168,5.39345625 4.68440728,5.25469014 C4.68440728,4.96804014 4.77860742,4.67761772 4.96759375,4.38344956 C5.15616992,4.0892814 5.43158984,3.84559424 5.79366211,3.65249473 C6.15573437,3.45939521 6.57794922,3.36287212 7.06092187,3.36287212 Z" id="形状结合" fill="#FFFFFF"></path>
            </g>
        </g>
    </g>
</svg>