<?xml version="1.0" encoding="UTF-8"?>
<svg width="20px" height="20px" viewBox="0 0 20 20" version="1.1" xmlns="http://www.w3.org/2000/svg" xmlns:xlink="http://www.w3.org/1999/xlink">
    <title>放大镜</title>
    <g id="页面-1" stroke="none" stroke-width="1" fill="none" fill-rule="evenodd">
        <g id="有搜索历史" transform="translate(-27.000000, -150.000000)" fill="#569FFD" fill-rule="nonzero">
            <path d="M46.8119579,168.843831 L42.8023428,164.818245 C45.9579568,161.164433 45.6507462,155.675788 42.1069861,152.394956 C38.5632259,149.114124 33.0522935,149.216302 29.6332501,152.62623 C26.2142067,156.036158 26.111756,161.532399 29.4013577,165.066712 C32.6909594,168.601024 38.1942761,168.907416 41.8578557,165.760215 L45.8140093,169.7858 C46.0748222,170.060641 46.5096512,170.072577 46.7852271,169.812459 C47.060803,169.552342 47.0727708,169.118672 46.8119579,168.843831 Z M28.3944592,158.9887 C28.3944592,154.787556 31.8092635,151.381855 36.0216381,151.381855 C40.2340128,151.381855 43.6488171,154.787556 43.6488171,158.9887 C43.6488171,163.189845 40.2340128,166.595546 36.0216381,166.595546 C31.811299,166.590649 28.3993692,163.187815 28.3944592,158.9887 L28.3944592,158.9887 Z" id="放大镜"></path>
        </g>
    </g>
</svg>