<?xml version="1.0" encoding="UTF-8"?>
<svg width="18px" height="18px" viewBox="0 0 18 18" version="1.1" xmlns="http://www.w3.org/2000/svg" xmlns:xlink="http://www.w3.org/1999/xlink">
    <!-- Generator: Sketch 58 (84663) - https://sketch.com -->
    <title>icon/search</title>
    <desc>Created with Sketch.</desc>
    <g id="专业版" stroke="none" stroke-width="1" fill="none" fill-rule="evenodd">
        <g id="投注区切图" transform="translate(-27.000000, -19.000000)">
            <g id="icon/search" transform="translate(26.000000, 18.000000)">
                <g id="Common/Icon/Icon_Search_#999">
                    <g id="搜索">
                        <rect id="矩形" fill="#000000" fill-rule="nonzero" opacity="0" x="0" y="0" width="20" height="20"></rect>
                        <path d="M18.57,17.57 L15.28,14.29 C16.54,12.83 17.23,10.99 17.23,9.04 C17.23,6.89 16.39,4.88 14.88,3.36 C13.37,1.84 11.35,1 9.21,1 C7.06,1 5.05,1.84 3.53,3.35 C2.01,4.87 1.17,6.89 1.17,9.04 C1.17,11.19 2.01,13.2 3.52,14.72 C5.04,16.24 7.06,17.07 9.2,17.07 C10.97,17.07 12.66,16.5 14.05,15.45 L17.37,18.77 C17.53,18.93 17.75,19.02 17.97,19.02 C18.19,19.02 18.4,18.94 18.57,18.77 C18.9,18.44 18.9,17.9 18.57,17.57 L18.57,17.57 Z M2.86,9.04 C2.86,5.54 5.71,2.7 9.2,2.7 C12.7,2.7 15.54,5.55 15.54,9.04 C15.54,12.54 12.7,15.38 9.2,15.38 C5.7,15.38 2.86,12.53 2.86,9.04 Z" id="形状" fill="#ffb001" fill-rule="nonzero"></path>
                    </g>
                </g>
            </g>
        </g>
    </g>
</svg>