<?xml version="1.0" encoding="UTF-8"?>
<svg width="16px" height="14px" viewBox="0 0 16 14" version="1.1" xmlns="http://www.w3.org/2000/svg" xmlns:xlink="http://www.w3.org/1999/xlink">
    <!-- Generator: Sketch 58 (84663) - https://sketch.com -->
    <title>icon/shipin</title>
    <desc>Created with Sketch.</desc>
    <g id="专业版" stroke="none" stroke-width="1" fill="none" fill-rule="evenodd">
        <g id="投注区切图" transform="translate(-27.000000, -81.000000)">
            <g id="icon/shipin" transform="translate(27.000000, 80.000000)">
                <rect id="矩形" fill="#D8D8D8" opacity="0" x="0" y="0" width="16" height="16"></rect>
                <path d="M11.7686275,14.0666667 C12.0263603,14.0666667 12.2352941,14.2756005 12.2352941,14.5333333 C12.2352941,14.7910662 12.0263603,15 11.7686275,15 L4.23137255,15 C3.97363967,15 3.76470588,14.7910662 3.76470588,14.5333333 C3.76470588,14.2756005 3.97363967,14.0666667 4.23137255,14.0666667 L11.7686275,14.0666667 Z M14,1 C15.1045695,1 16,1.8954305 16,3 L16,11.1333333 C16,12.2379028 15.1045695,13.1333333 14,13.1333333 L2,13.1333333 C0.8954305,13.1333333 1.3527075e-16,12.2379028 0,11.1333333 L0,3 C-1.3527075e-16,1.8954305 0.8954305,1 2,1 L14,1 Z M6.23879215,3.4957757 C5.87796611,3.4957757 5.58545882,3.79074105 5.58545882,4.15459923 L5.58545882,4.15459923 L5.58545882,9.8083437 C5.58545882,9.93231011 5.6201429,10.0537613 5.68552532,10.1587407 C5.87743156,10.4668692 6.2807083,10.5597787 6.58626914,10.3662598 L6.58626914,10.3662598 L11.04982,7.5393876 C11.1330168,7.4866971 11.2033584,7.41576436 11.2556098,7.33186843 C11.447516,7.02373986 11.3553808,6.61707423 11.04982,6.42355533 L11.04982,6.42355533 L6.58626914,3.5966831 C6.48216463,3.53075125 6.3617255,3.4957757 6.23879215,3.4957757 Z M6.51879215,4.66535051 L10.1758812,6.98147147 L6.51879215,9.29759243 L6.51879215,4.66535051 Z" id="形状结合" fill="#F48484"></path>
            </g>
        </g>
    </g>
</svg>