<?xml version="1.0" encoding="UTF-8"?>
<svg width="72px" height="72px" viewBox="0 0 72 72" version="1.1" xmlns="http://www.w3.org/2000/svg" xmlns:xlink="http://www.w3.org/1999/xlink">
    <!-- Generator: Sketch 61.1 (89650) - https://sketch.com -->
    <title>iPhone X/Bars/_resource/ActiveIcon_home</title>
    <desc>Created with Sketch.</desc>
    <defs>
        <linearGradient x1="43.7165683%" y1="-10.6593865%" x2="43.7165683%" y2="72.4807082%" id="linearGradient-1">
            <stop stop-color="#C5A585" offset="0%"></stop>
            <stop stop-color="#FFE4C4" offset="27.4387669%"></stop>
            <stop stop-color="#B99978" offset="100%"></stop>
        </linearGradient>
        <filter x="-6.1%" y="-6.7%" width="112.1%" height="113.3%" filterUnits="objectBoundingBox" id="filter-2">
            <feOffset dx="0" dy="1" in="SourceAlpha" result="shadowOffsetOuter1"></feOffset>
            <feGaussianBlur stdDeviation="0.5" in="shadowOffsetOuter1" result="shadowBlurOuter1"></feGaussianBlur>
            <feColorMatrix values="0 0 0 0 0.865687274   0 0 0 0 0.729798402   0 0 0 0 0.584850272  0 0 0 0.7 0" type="matrix" in="shadowBlurOuter1" result="shadowMatrixOuter1"></feColorMatrix>
            <feMerge>
                <feMergeNode in="shadowMatrixOuter1"></feMergeNode>
                <feMergeNode in="SourceGraphic"></feMergeNode>
            </feMerge>
        </filter>
        <linearGradient x1="50.0000016%" y1="96.7865045%" x2="50.0000016%" y2="-12.2369731%" id="linearGradient-3">
            <stop stop-color="#C5A585" offset="0%"></stop>
            <stop stop-color="#FFE4C4" offset="77.2835471%"></stop>
            <stop stop-color="#B99978" offset="100%"></stop>
        </linearGradient>
        <linearGradient x1="50%" y1="14.6107486%" x2="50%" y2="84.483216%" id="linearGradient-4">
            <stop stop-color="#C5A585" offset="0%"></stop>
            <stop stop-color="#FFE4C4" offset="27.4387669%"></stop>
            <stop stop-color="#B99978" offset="100%"></stop>
        </linearGradient>
    </defs>
    <g id="iPhone-X/Bars/_resource/ActiveIcon_home" stroke="none" stroke-width="1" fill="none" fill-rule="evenodd">
        <g id="编组-3">
            <rect id="矩形" fill-opacity="0" fill="#D8D8D8" x="0" y="0" width="72" height="72"></rect>
            <g id="编组" filter="url(#filter-2)" transform="translate(3.000000, 6.000000)">
                <g id="编组-2" transform="translate(0.000000, -0.000000)" fill="url(#linearGradient-3)">
                    <path d="M29.6617372,1.13486902 C31.3189401,-0.373124819 33.8495275,-0.378940684 35.5136442,1.12142001 L35.5136442,1.12142001 L64.4275208,27.1900509 C65.0822867,27.7803852 65.4560644,28.6206474 65.4560644,29.5022442 C65.4560644,31.2216213 64.062234,32.6154518 62.3428569,32.6154518 L62.3428569,32.6154518 L58.330943,32.6154518 L58.330943,54.8961674 C58.330943,57.3032953 56.3795803,59.254658 53.9724524,59.254658 L53.9724524,59.254658 L42.5496561,59.254658 C40.1425282,59.254658 38.1911656,57.3032953 38.1911656,54.8961674 L38.1911656,54.8961674 L38.1911656,41.1402896 C38.1911656,38.7331617 36.2398029,36.7817991 33.832675,36.7817991 L33.832675,36.7817991 L31.9647505,36.7817991 C29.5576226,36.7817991 27.6062599,38.7331617 27.6062599,41.1402896 L27.6062599,41.1402896 L27.6062599,54.8961674 C27.6062599,57.3032953 25.6548972,59.254658 23.2477693,59.254658 L23.2477693,59.254658 L11.9149642,59.254658 C9.50783632,59.254658 7.55647363,57.3032953 7.55647363,54.8961674 L7.55647363,54.8961674 L7.55647363,32.6154518 L3.11322907,32.6154518 C2.23661609,32.6154518 1.40062556,32.2458733 0.810642219,31.5975139 C-0.346543268,30.3258303 -0.253724204,28.3568428 1.0179594,27.1996574 L1.0179594,27.1996574 Z" id="形状结合"></path>
                </g>
                <rect id="矩形备份" fill="#FFFFFF" x="23.0377358" y="23.6603774" width="18.6792453" height="3.73584906" rx="0.622641509"></rect>
                <path d="M62.8947236,25.8068773 L64.4275208,27.1900509 C65.0822867,27.7803852 65.4560644,28.6206474 65.4560644,29.5022442 C65.4560644,31.1623324 64.1567028,32.5189384 62.5195184,32.6105235 L62.3428569,32.6154518 L58.330943,32.6154518 L58.330943,54.8961674 C58.330943,57.2324974 56.4926783,59.1394777 54.1836252,59.2496319 L53.9724524,59.254658 L42.5496561,59.254658 C40.2133261,59.254658 38.3063459,57.4163933 38.1961916,55.1073402 L38.1911656,54.8961674 L38.1907072,54.4765189 C38.6760701,54.7071593 39.2108212,54.8507293 39.7747738,54.8870424 L40.0590901,54.8961674 L51.4818864,54.8961674 L51.6930592,54.8911414 C53.9321409,54.7843251 55.7285346,52.9879314 55.8353509,50.7488497 L55.8403769,50.5376769 L55.8403769,28.2569612 L59.8522909,28.2569612 L60.0289524,28.252033 C61.4417067,28.1730026 62.6029094,27.1520051 62.8947236,25.8068773 Z" id="形状结合" fill="url(#linearGradient-4)"></path>
                <path d="M24.705833,25.8068773 L26.2386302,27.1900509 C26.8933961,27.7803852 27.2671739,28.6206474 27.2671739,29.5022442 C27.2671739,31.1623324 25.9678122,32.5189384 24.3306278,32.6105235 L24.1539663,32.6154518 L20.1420524,32.6154518 L20.1420524,54.8961674 C20.1420524,57.2324974 18.3037877,59.1394777 15.9947346,59.2496319 L15.7835618,59.254658 L4.36076552,59.254658 C2.02443553,59.254658 0.117455258,57.4163933 0.00730099467,55.1073402 L0.00227495668,54.8961674 L0.00181663555,54.4765189 C0.487179481,54.7071593 1.02193059,54.8507293 1.58588319,54.8870424 L1.87019948,54.8961674 L13.2929958,54.8961674 L13.5041686,54.8911414 C15.7432503,54.7843251 17.539644,52.9879314 17.6464603,50.7488497 L17.6514863,50.5376769 L17.6514863,28.2569612 L21.6634003,28.2569612 L21.8400618,28.252033 C23.2528161,28.1730026 24.4140188,27.1520051 24.705833,25.8068773 Z" id="形状结合备份-3" fill="url(#linearGradient-4)" transform="translate(13.633587, 42.531640) scale(-1, 1) translate(-13.633587, -42.531640) "></path>
            </g>
        </g>
    </g>
</svg>