<?xml version="1.0" encoding="UTF-8"?>
<svg width="20px" height="20px" viewBox="0 0 20 20" version="1.1" xmlns="http://www.w3.org/2000/svg" xmlns:xlink="http://www.w3.org/1999/xlink">
    <title>全屏演播厅备份 2</title>
    <g id="页面-1" stroke="none" stroke-width="1" fill="none" fill-rule="evenodd">
        <g id="画板备份" transform="translate(-117.000000, -482.000000)">
            <g id="全屏演播厅备份-2" transform="translate(117.000000, 482.000000)">
                <rect id="矩形复制-67" fill-opacity="0.8" fill="#000000" x="0" y="0" width="20" height="20" rx="10"></rect>
                <g id="摄像头" transform="translate(4.000000, 6.000000)" fill="#FFFFFF" fill-rule="nonzero">
                    <path d="M9.32057278,0 C9.69462305,0 10,0.329915091 10,0.734021626 L10,8.26366279 C9.99853886,8.66776933 9.69462303,8.99768442 9.31911164,8.99768442 L0.679427238,8.99768442 C0.305376968,8.99768442 0,8.66776933 0,8.26366279 L0,0.734021626 C0,0.329915091 0.305376968,0 0.679427238,0 L9.32057278,0 Z M8.5,1 L1.5,1 C1.22385763,1 1,1.22385763 1,1.5 L1,1.5 L1,7.5 C1,7.77614237 1.22385763,8 1.5,8 L1.5,8 L8.5,8 C8.77614237,8 9,7.77614237 9,7.5 L9,7.5 L9,1.5 C9,1.22385763 8.77614237,1 8.5,1 L8.5,1 Z" id="形状"></path>
                    <path d="M11.3835971,7.87297387 C11.256265,7.87297387 11.1303799,7.83098826 11.0233052,7.74857206 L9.67040207,6.73936238 C9.5821378,6.67405143 9.53004741,6.56675487 9.53004741,6.45168319 L9.53004741,2.54546637 C9.53004741,2.4303947 9.5821378,2.32309813 9.67040207,2.25778718 L11.0233052,1.2485775 C11.2070685,1.10707044 11.4487101,1.08530012 11.6527307,1.19104166 C11.8538575,1.29522819 11.9869774,1.50671125 11.998553,1.74462972 C11.998553,1.75706991 12,1.76795505 12,1.78039524 L12,7.21830934 C12,7.23074953 12,7.24163468 11.998553,7.25407487 C11.9869774,7.49199333 11.8553045,7.7034764 11.6527307,7.80766292 C11.5673604,7.85120356 11.4762022,7.87297387 11.3835971,7.87297387 L11.3835971,7.87297387 Z M10,5.72920964 L11,6.60290485 L11,2.33287284 L10,3.18967135 L10,5.72920964 Z" id="形状"></path>
                    <path d="M2,3 C1.9999466,3.35724779 2.19053384,3.68738121 2.49995685,3.86602052 C2.80937986,4.04465983 3.19062014,4.04465983 3.50004315,3.86602052 C3.80946616,3.68738121 4.0000534,3.35724779 4,3 C4.0000534,2.64275221 3.80946616,2.31261879 3.50004315,2.13397948 C3.19062014,1.95534017 2.80937986,1.95534017 2.49995685,2.13397948 C2.19053384,2.31261879 1.9999466,2.64275221 2,3 L2,3 Z" id="路径"></path>
                </g>
            </g>
        </g>
    </g>
</svg>