<?xml version="1.0" encoding="UTF-8"?>
<svg width="20px" height="18px" viewBox="0 0 20 18" version="1.1" xmlns="http://www.w3.org/2000/svg" xmlns:xlink="http://www.w3.org/1999/xlink">
    <!-- Generator: Sketch 58 (84663) - https://sketch.com -->
    <title>Icon/tab_saiche_normal</title>
    <desc>Created with Sketch.</desc>
    <g id="专业版" stroke="none" stroke-width="1" fill="none" fill-rule="evenodd">
        <g id="投注区切图" transform="translate(-294.000000, -239.000000)" fill="#CBCED8">
            <g id="Icon/tab_saiche_normal" transform="translate(293.000000, 237.000000)">
                <g id="Tabbar/Sports/BetSheet/_resource/Icon_saiche">
                    <path d="M19.9696991,9.46830712 C19.8980745,9.23500291 19.6806428,9.0676325 19.4197247,9.0676325 L11.5742756,9.0676325 C9.99086089,9.0676325 8.70673457,10.3305183 8.70673457,11.8901063 C8.70673457,13.1174893 9.54576531,14.1927174 10.750593,14.5071709 L19.4529789,16.7894948 C19.7573834,16.8630363 20.0643458,16.6855222 20.1462025,16.3862842 C20.2280592,16.0895821 20.0515557,15.7827364 19.7497093,15.6990512 L11.0473234,13.4141914 C10.3438677,13.2290696 9.8552858,12.6026985 9.8552858,11.8875704 C9.85784382,10.9543535 10.62525,10.1961148 11.5742756,10.1935789 L19.4197247,10.1935789 C19.7369192,10.1935789 19.9927213,9.93998738 19.9927213,9.62806979 C19.9927213,9.60524655 19.9927213,9.58495923 19.9901632,9.56467191 C20.1052742,10.1377888 20.1666667,10.7337289 20.1666667,11.3398127 L20.1666667,16.8782518 C20.1666667,18.4809503 18.836496,19.7032615 17.3016836,19.7083333 C17.0561137,19.7083333 16.8003116,19.6779023 16.5521836,19.6119685 L4.43739826,16.421787 C3.5958095,16.2011624 2.88212176,15.6153659 2.53678899,14.803873 C2.08657737,13.7387886 1.83333333,12.5697316 1.83333333,11.3423486 C1.83333333,10.6170768 1.92030603,9.89180499 2.09169341,9.18682052 C2.91025999,5.78869394 5.72919864,3.12091099 9.20554858,2.461573 C9.79645133,2.34999272 10.3975862,2.29166667 11.001279,2.29166667 C15.4010744,2.29420258 19.092298,5.37280382 19.9696991,9.46830712 Z M10.998721,11.9687197 C10.998721,12.199488 11.124064,12.4125049 11.3261476,12.526621 C11.5282312,12.6407372 11.7789173,12.6407372 11.9810009,12.526621 C12.1830845,12.4125049 12.3084275,12.199488 12.3084275,11.9687197 C12.3084275,11.7379514 12.1830845,11.5249345 11.9810009,11.4108183 C11.7789173,11.2967021 11.5282312,11.2967021 11.3261476,11.4108183 C11.124064,11.5249345 10.998721,11.7379514 10.998721,11.9687197 Z" id="形状" transform="translate(11.000000, 11.000000) scale(-1, 1) translate(-11.000000, -11.000000) "></path>
                </g>
            </g>
        </g>
    </g>
</svg>