<?xml version="1.0" encoding="UTF-8"?>
<svg width="16px" height="20px" viewBox="0 0 16 20" version="1.1" xmlns="http://www.w3.org/2000/svg" xmlns:xlink="http://www.w3.org/1999/xlink">
    <!-- Generator: Sketch 58 (84663) - https://sketch.com -->
    <title>收藏_状态1</title>
    <desc>Created with Sketch.</desc>
    <g id="页面-1" stroke="none" stroke-width="1" fill="none" fill-rule="evenodd">
        <g id="滚球---全部备份" transform="translate(-210.000000, -738.000000)" fill="#9AA4C2" fill-rule="nonzero">
            <g id="收藏_状态1" transform="translate(205.750000, 736.000000)">
                <path d="M18,2.25 C18.9664983,2.25 19.75,3.03350169 19.75,4 L19.75,19.2768745 C19.75,20.2433728 18.9664983,21.0268745 18,21.0268745 C17.6954691,21.0268745 17.3962094,20.9474061 17.1317983,20.7963237 L12.2072725,17.9824872 L6.82766618,20.8701622 C5.97609599,21.3272696 4.91520317,21.0074943 4.45809576,20.1559241 C4.32149102,19.9014357 4.25,19.6170921 4.25,19.3282579 L4.25,4 C4.25,3.03350169 5.03350169,2.25 6,2.25 L18,2.25 Z M18,3.75 L6,3.75 C5.86192881,3.75 5.75,3.86192881 5.75,4 L5.75,19.3282579 C5.75,19.36952 5.760213,19.4101405 5.77972797,19.446496 C5.84502902,19.5681488 5.99658514,19.613831 6.11823803,19.54853 L12.229976,16.2678601 L17.8759712,19.4939387 C17.9137442,19.5155219 17.9564956,19.5268745 18,19.5268745 C18.1380712,19.5268745 18.25,19.4149457 18.25,19.2768745 L18.25,4 C18.25,3.86192881 18.1380712,3.75 18,3.75 Z M14.25,6.5 C14.6642136,6.5 15,6.83578644 15,7.25 C15,7.66421356 14.6642136,8 14.25,8 L9.75,8 C9.33578644,8 9,7.66421356 9,7.25 C9,6.83578644 9.33578644,6.5 9.75,6.5 L14.25,6.5 Z"></path>
            </g>
        </g>
    </g>
</svg>