<?xml version="1.0" encoding="UTF-8"?>
<svg width="16px" height="20px" viewBox="0 0 16 20" version="1.1" xmlns="http://www.w3.org/2000/svg" xmlns:xlink="http://www.w3.org/1999/xlink">
    <!-- Generator: Sketch 58 (84663) - https://sketch.com -->
    <title>收藏_状态2</title>
    <desc>Created with Sketch.</desc>
    <g id="页面-1" stroke="none" stroke-width="1" fill="none" fill-rule="evenodd">
        <g id="滚球---全部备份" transform="translate(-282.000000, -740.000000)" fill="#414655" fill-rule="nonzero">
            <g id="收藏_状态2" transform="translate(278.000000, 738.000000)">
                <path d="M17.75,2.25 C18.7164983,2.25 19.5,3.03350169 19.5,4 L19.5,19.2768745 C19.5,20.2433728 18.7164983,21.0268745 17.75,21.0268745 C17.4454691,21.0268745 17.1462094,20.9474061 16.8817983,20.7963237 L11.9572725,17.9824872 L6.57766618,20.8701622 C5.72609599,21.3272696 4.66520317,21.0074943 4.20809576,20.1559241 C4.07149102,19.9014357 4,19.6170921 4,19.3282579 L4,4 C4,3.03350169 4.78350169,2.25 5.75,2.25 L17.75,2.25 Z M17.75,3.75 L5.75,3.75 C5.61192881,3.75 5.5,3.86192881 5.5,4 L5.5,19.3282579 C5.5,19.36952 5.510213,19.4101405 5.52972797,19.446496 C5.59502902,19.5681488 5.74658514,19.613831 5.86823803,19.54853 L11.979976,16.2678601 L17.6259712,19.4939387 C17.6637442,19.5155219 17.7064956,19.5268745 17.75,19.5268745 C17.8880712,19.5268745 18,19.4149457 18,19.2768745 L18,4 C18,3.86192881 17.8880712,3.75 17.75,3.75 Z M14,6.5 C14.4142136,6.5 14.75,6.83578644 14.75,7.25 C14.75,7.66421356 14.4142136,8 14,8 L9.5,8 C9.08578644,8 8.75,7.66421356 8.75,7.25 C8.75,6.83578644 9.08578644,6.5 9.5,6.5 L14,6.5 Z"></path>
            </g>
        </g>
    </g>
</svg>