<?xml version="1.0" encoding="UTF-8"?>
<svg width="20px" height="20px" viewBox="0 0 20 20" version="1.1" xmlns="http://www.w3.org/2000/svg" xmlns:xlink="http://www.w3.org/1999/xlink">
    <!-- Generator: Sketch 58 (84663) - https://sketch.com -->
    <title>Icon/tab_shoucang_normal</title>
    <desc>Created with Sketch.</desc>
    <g id="专业版" stroke="none" stroke-width="1" fill="none" fill-rule="evenodd">
        <g id="投注区切图" transform="translate(-90.000000, -196.000000)" fill="#CBCED8" fill-rule="nonzero">
            <g id="Icon/tab_shoucang_normal" transform="translate(89.000000, 195.000000)">
                <g id="Tabbar/Sports/BetSheet/_resource/Icon_MyFav">
                    <path d="M20.1116691,8.74383248 C19.9851181,8.36517499 19.6687407,8.11273667 19.2890878,8.04962708 L14.2270495,7.2607573 L11.9491322,2.43287434 C11.7909435,2.05421686 11.4112906,1.83333333 11,1.83333333 C10.5887094,1.83333333 10.2406942,2.05421687 10.0508678,2.43287434 L7.77295054,7.2607573 L2.71091216,8.01807228 C2.33125928,8.08118185 2.01488187,8.33362019 1.88833093,8.71227768 C1.76177996,9.09093517 1.85669318,9.50114745 2.14143284,9.75358577 L5.8430484,13.5401606 L4.9571917,18.8729203 C4.89391622,19.2515777 5.05210492,19.66179 5.40012005,19.8826736 C5.71649745,20.1035571 6.1594258,20.1351119 6.50744094,19.9457831 L11,17.5160643 L15.5241968,20.0404475 C15.6823855,20.1035571 15.8405742,20.1666667 15.9987629,20.1666667 C16.5682422,20.1666667 17.0428083,19.6933448 17.0428083,19.1253586 C17.0428083,18.9991394 17.0111706,18.904475 16.9795328,18.8098107 L16.1569516,13.634825 L19.8585672,9.84825014 C20.1433068,9.53270223 20.23822,9.12248996 20.1116691,8.74383248 L20.1116691,8.74383248 Z" id="路径"></path>
                </g>
            </g>
        </g>
    </g>
</svg>