<?xml version="1.0" encoding="UTF-8"?>
<svg width="20px" height="20px" viewBox="0 0 20 20" version="1.1" xmlns="http://www.w3.org/2000/svg" xmlns:xlink="http://www.w3.org/1999/xlink">
    <!-- Generator: Sketch 58 (84663) - https://sketch.com -->
    <title>Icon/tab_snooker_normal</title>
    <desc>Created with Sketch.</desc>
    <g id="专业版" stroke="none" stroke-width="1" fill="none" fill-rule="evenodd">
        <g id="投注区切图" transform="translate(-294.000000, -196.000000)" fill="#CBCED8">
            <g id="Icon/tab_snooker_normal" transform="translate(293.000000, 195.000000)">
                <g id="Tabbar/Sports/BetSheet/_resource/Icon_Snooker">
                    <path d="M11,1.83333333 C13.4485891,1.83333333 15.7505116,2.78684818 17.4818317,4.51816832 C19.2131518,6.24957921 20.1666667,8.55150165 20.1666667,11 C20.1666667,13.4485891 19.2131518,15.7504208 17.4818317,17.4818317 C15.7505116,19.2132426 13.4485891,20.1666667 11,20.1666667 C8.55141089,20.1666667 6.24948845,19.2132426 4.51816832,17.4818317 C2.78684818,15.7504208 1.83333333,13.4485891 1.83333333,11 C1.83333333,8.55150165 2.78684818,6.24957921 4.51816832,4.51816832 C6.24948845,2.78684818 8.55141089,1.83333333 11,1.83333333 Z M11,6.21073432 C8.35918317,6.21073432 6.21073432,8.35918317 6.21073432,11 C6.21073432,13.6408168 8.35918317,15.7892657 11,15.7892657 C13.6408168,15.7892657 15.7892657,13.6408168 15.7892657,11 C15.7892657,8.35918317 13.6408168,6.21073432 11,6.21073432 Z M11.2428441,7.2927731 L11.2428441,7.2927731 C13.0937847,7.41112294 14.5888589,8.90619719 14.7072995,10.7572285 C14.8504266,12.996618 12.9964909,14.8505536 10.7571015,14.7073358 C8.90607013,14.5888952 7.41090512,13.0937302 7.2927368,11.2426988 C7.15802897,9.1350382 8.79226516,7.36905877 10.8519879,7.2879154 L11.0462924,7.28528524 Z M11.0350058,8.4522203 C9.92139191,8.4522203 9.1507566,8.99160149 9.1507566,9.85317739 C9.1507566,10.1954299 9.27300908,10.4787797 9.49791007,10.6932434 C9.59193647,10.7829134 9.57632591,10.9357517 9.47249752,11.0140767 C9.15493152,11.2537715 8.9757731,11.5920305 8.9757731,12.0175091 C8.9757731,12.9422533 9.7952368,13.5235652 11.0350965,13.5235652 C12.2817632,13.5235652 13.1083969,12.9422533 13.1083969,12.0175091 C13.1083969,11.591849 12.9288754,11.2534992 12.607316,11.0137137 C12.5024893,10.9354794 12.4869695,10.7817335 12.5818127,10.691519 C12.8074398,10.4773276 12.9332318,10.1945223 12.9332318,9.85317739 C12.9332318,8.99160149 12.1627781,8.4522203 11.0350058,8.4522203 Z M11.0350965,11.2820611 C11.6023408,11.2820611 11.9596592,11.5483482 11.9596592,11.9825396 C11.9596592,12.4168218 11.6024315,12.6900066 11.0350965,12.6900066 C10.4746592,12.6900066 10.12442,12.4168218 10.12442,11.9825396 C10.12442,11.5482574 10.4746592,11.2820611 11.0350965,11.2820611 Z M11.0350965,9.28586964 C11.4974233,9.28586964 11.8055503,9.51694224 11.8055503,9.90221452 C11.8055503,10.2735099 11.504321,10.5045825 11.0350965,10.5045825 C10.572679,10.5045825 10.2785289,10.2734191 10.2785289,9.90221452 C10.2785289,9.517033 10.5797583,9.28586964 11.0350965,9.28586964 Z" id="形状结合"></path>
                </g>
            </g>
        </g>
    </g>
</svg>