<?xml version="1.0" encoding="UTF-8"?>
<svg width="18px" height="20px" viewBox="0 0 18 20" version="1.1" xmlns="http://www.w3.org/2000/svg" xmlns:xlink="http://www.w3.org/1999/xlink">
    <!-- Generator: Sketch 58 (84663) - https://sketch.com -->
    <title>Icon/tab_shatan_normal</title>
    <desc>Created with Sketch.</desc>
    <g id="专业版" stroke="none" stroke-width="1" fill="none" fill-rule="evenodd">
        <g id="投注区切图" transform="translate(-227.000000, -238.000000)" fill="#CBCED8">
            <g id="Icon/tab_shatan_normal" transform="translate(225.000000, 237.000000)">
                <g id="Tabbar/Sports/BetSheet/_resource/Icon_shatan">
                    <path d="M13.8363817,2.91982797 L13.1859524,2.00640883 L14.0478794,2.28118323 C14.371102,2.38422363 14.5513341,2.55935802 14.8745567,2.66239842 L13.8363817,2.91982797 Z M5.89343773,5.68320234 L5.84623595,3.6676281 C7.59537934,2.34239025 9.84996949,1.64899637 12.0380445,1.87582241 L13.2664118,3.56187311 L12.3479298,5.97566449 L7.87399909,7.25601147 L5.89343773,5.68320234 Z M12.4596547,6.71734963 L14.953631,10.3366794 L12.2487639,13.8284803 L8.08211961,12.3825143 L8.23645537,7.95994942 L12.4596547,6.71734963 Z M13.912857,3.76795391 L15.9167158,3.11230721 C17.7522946,4.40354116 19.0531532,6.23037945 19.5313185,8.38334089 L18.3208794,9.88031274 L15.703833,9.86976867 L13.1021159,6.21609209 L13.912857,3.76795391 Z M4.99626116,5.51486873 L3.95808613,5.77229828 C4.24207507,5.27444113 4.63380488,4.81093078 4.99028507,4.45386122 L4.99626116,5.51486873 Z M19.2220401,10.7559847 L18.9693167,10.4400627 L19.3610465,9.97655236 L19.2220401,10.7559847 Z M18.2543643,10.8005327 L19.4989151,12.0780307 L19.1813942,12.6162373 C18.7496865,13.9198346 17.7853787,14.7344859 16.1806994,15.2638113 L14.2748152,14.7554832 L13.7475604,13.2732504 L15.8479034,10.5137823 L18.2543643,10.8005327 Z M5.11456907,13.7900473 L3.13998379,13.2782457 C2.55606969,11.4446066 2.40112703,9.39468555 3.14336095,7.51309812 L3.35485864,6.87445338 L5.21572695,6.29090068 L7.30402918,7.8980566 L7.22218468,12.461409 L5.11456907,13.7900473 Z M3.6826722,14.157318 L4.65234003,14.4664392 L4.65831611,15.5274467 C4.29785186,15.1771779 3.97263722,14.7204684 3.6826722,14.157318 Z M7.58065622,12.8638245 L10.8843559,13.8992094 L9.42121978,15.5108904 C8.92341852,15.505534 7.78759223,15.1984599 6.01374091,14.5896681 L6.3122606,13.907496 L7.58065622,12.8638245 Z M18.4147058,16.0258086 C18.6692235,16.3932456 19.2404634,16.7601086 19.7083333,16.7592606 L19.7062655,17.8631176 C19.7039081,19.1215929 18.664692,20.141216 17.382022,20.1435407 L4.62452107,20.1666667 C4.62166069,20.1666667 4.61880031,20.1666667 4.61593993,20.1666667 C3.32992007,20.1643438 2.28931108,19.1396037 2.29167067,17.8778417 L2.29371096,16.7908233 C2.76159084,16.7899753 3.14509029,16.4213819 3.40098631,16.0530198 C3.7424094,15.4392353 4.21028928,15.4383873 4.59195093,16.0508613 C4.84646861,16.4182983 5.22858971,16.7855041 5.69646959,16.7846561 C6.16434948,16.7838081 6.54784892,16.4152147 6.80374494,16.0468526 C7.14516803,15.433068 7.61304792,15.43222 7.99470957,16.0446941 C8.24922724,16.4121311 8.63134834,16.7793368 9.09922823,16.7784888 C9.56710811,16.7776408 9.95060756,16.4090474 10.2065036,16.0406853 C10.5479267,15.4269008 11.0158066,15.4260528 11.3974682,16.0385268 C11.6519859,16.4059638 12.034107,16.7731696 12.5019869,16.7723216 C12.9698667,16.7714736 13.3533662,16.4028802 13.6092622,16.0345181 C13.9506853,15.4207335 14.4185652,15.4198855 14.8002268,16.0323596 C15.0547445,16.3997966 15.4368656,16.7670023 15.9047455,16.7661543 C16.3726254,16.7653063 16.9678452,16.3963292 17.2237412,16.0279671 C17.5651643,15.4141825 18.0330442,15.4133345 18.4147058,16.0258086 Z" id="Shape"></path>
                </g>
            </g>
        </g>
    </g>
</svg>