<?xml version="1.0" encoding="UTF-8"?>
<svg width="16px" height="20px" viewBox="0 0 16 20" version="1.1" xmlns="http://www.w3.org/2000/svg" xmlns:xlink="http://www.w3.org/1999/xlink">
    <!-- Generator: Sketch 58 (84663) - https://sketch.com -->
    <title>tab_cd2</title>
    <desc>Created with Sketch.</desc>
    <g id="页面-1" stroke="none" stroke-width="1" fill="none" fill-rule="evenodd">
        <g id="画板" transform="translate(-98.000000, -76.000000)">
            <g id="tab_cd2" transform="translate(98.000000, 76.000000)">
                <path d="M2,0.25 L14,0.25 C14.9664983,0.25 15.75,1.03350169 15.75,2 L15.75,18 C15.75,18.9664983 14.9664983,19.75 14,19.75 L2,19.75 C1.03350169,19.75 0.25,18.9664983 0.25,18 L0.25,2 C0.25,1.0818266 0.957110273,0.32880766 1.85647279,0.2558012 L2,0.25 Z M2,1.75 L1.94267729,1.75660268 C1.83223341,1.78251318 1.75,1.88165327 1.75,2 L1.75,18 C1.75,18.1380712 1.86192881,18.25 2,18.25 L14,18.25 C14.1380712,18.25 14.25,18.1380712 14.25,18 L14.25,2 C14.25,1.86192881 14.1380712,1.75 14,1.75 L2,1.75 Z" id="矩形" fill="#414655" fill-rule="nonzero"></path>
                <path d="M5,8 L11,8 M5,12 L11,12" id="形状结合" stroke="#414655" stroke-width="1.5" stroke-linecap="round"></path>
            </g>
        </g>
    </g>
</svg>