<?xml version="1.0" encoding="UTF-8"?>
<svg width="20px" height="20px" viewBox="0 0 20 20" version="1.1" xmlns="http://www.w3.org/2000/svg" xmlns:xlink="http://www.w3.org/1999/xlink">
    <!-- Generator: Sketch 58 (84663) - https://sketch.com -->
    <title>Icon/tab_bangqiu_normal</title>
    <desc>Created with Sketch.</desc>
    <g id="专业版" stroke="none" stroke-width="1" fill="none" fill-rule="evenodd">
        <g id="投注区切图" transform="translate(-90.000000, -238.000000)" fill="#CBCED8" fill-rule="nonzero">
            <g id="Icon/tab_bangqiu_normal" transform="translate(89.000000, 237.000000)">
                <g id="Tabbar/Sports/BetSheet/_resource/Icon_Baseball">
                    <path d="M10.9996712,1.83770935 C8.65448882,1.83770935 6.30930643,2.73260532 4.51979226,4.52239726 C0.940763917,8.10198114 0.940763917,13.9045829 4.51979226,17.4819788 C6.30930643,19.2717707 8.65448882,20.1666667 10.9996712,20.1666667 C13.3448536,20.1666667 15.690036,19.2717707 17.4795502,17.4819788 C21.0585785,13.9023949 21.0585785,8.09979313 17.4795502,4.52239726 C15.690036,2.73041731 13.3448536,1.83770935 10.9996712,1.83770935 Z M5.45173974,9.46073517 L5.615815,9.52418745 C5.85208338,9.61608386 5.97021756,9.88083303 5.88052309,10.1171381 L5.75700921,10.4422404 C6.44532005,10.6707596 7.1119007,10.9830592 7.74080945,11.3790762 L7.99162477,11.0689223 C8.15132469,10.8720014 8.44009715,10.8413693 8.63698746,10.998906 L8.77481068,11.1083065 C8.97388866,11.2680312 9.00451604,11.5568485 8.84481612,11.7537693 L8.63128298,12.0174451 C8.87625319,12.216266 9.11334804,12.4295916 9.34141724,12.6574174 C9.58346145,12.8994991 9.80913055,13.1517783 10.0184245,13.4128741 L10.2886784,13.1956677 C10.4855687,13.038131 10.7743412,13.0687632 10.9340411,13.2656841 L10.9340411,13.2656841 L11.0434246,13.4035287 C11.2009369,13.6004495 11.1703095,13.8892668 10.9734192,14.0489915 L10.9734192,14.0489915 L10.6521808,14.3087265 C11.0433933,14.9389999 11.3509747,15.6065101 11.574925,16.2953203 L11.922868,16.1626089 C12.1591364,16.0707125 12.4260321,16.191053 12.5157266,16.4273581 L12.5157266,16.4273581 L12.579169,16.5914588 C12.6710512,16.8277639 12.5507293,17.094701 12.314461,17.1844094 L12.314461,17.1844094 L11.8518207,17.3612081 C12.0299893,18.2676314 12.0704438,19.1957761 11.9731844,20.1119664 C11.6494092,20.1469746 11.3256341,20.1644787 10.9996712,20.1644787 C8.65448882,20.1644787 6.30930643,19.2695827 4.51979226,17.4797907 C2.48307136,15.4427537 1.60581564,12.6858615 1.88802509,10.0274297 C2.21180027,9.99242153 2.53557545,9.97491745 2.8615383,9.97491745 C3.47541432,9.97491745 4.08929035,10.0362344 4.69320021,10.1588291 L4.85888113,9.72548435 C4.94857561,9.4891793 5.21547137,9.36883876 5.45173974,9.46073517 Z M2.93154374,11.0689223 C2.93373141,11.3489875 2.9490451,11.6268648 2.98186016,11.904742 C3.04749026,12.4933166 3.1765628,13.0731392 3.36907777,13.6310817 C3.56378041,14.1977762 3.82192549,14.7425906 4.13913766,15.2523969 C4.46510051,15.7775192 4.85450579,16.2676334 5.29422749,16.7074233 C6.06428738,17.4776027 6.9634198,18.0749294 7.96318506,18.4797112 C8.90825856,18.8626129 9.90802381,19.0617218 10.9318534,19.0704738 C10.9296658,18.7904086 10.9121644,18.5125313 10.881537,18.2346541 C10.8637097,18.0747777 10.8412013,17.915547 10.8140118,17.7572252 L10.5577618,17.8539404 C10.3214935,17.9458368 10.0545977,17.8254963 9.9670909,17.5891912 L9.9670909,17.5891912 L9.90364847,17.4250905 C9.81176632,17.1887855 9.93208818,16.9218483 10.1683566,16.8321399 L10.1683566,16.8321399 L10.5505086,16.6858357 L10.4943194,16.5083144 C10.3385573,16.0549588 10.142192,15.6156065 9.90746377,15.196979 L9.79050855,15.0008357 L9.50986784,15.2283288 C9.33758882,15.3680879 9.09496253,15.3604298 8.93001135,15.22441 L8.86450515,15.1583124 L8.75512165,15.0204678 C8.5976094,14.823547 8.62823678,14.5347297 8.82512709,14.375005 L8.82512709,14.375005 L9.16741969,14.0999593 C8.98062352,13.8667863 8.78071964,13.6435556 8.56916969,13.4319728 C8.36993197,13.2327041 8.16205397,13.0450065 7.94602825,12.8692209 L7.66566192,13.2175478 C7.505962,13.4144687 7.21718954,13.4451008 7.02029923,13.2875641 L6.88247601,13.1781637 C6.6855857,13.018439 6.65495832,12.7296217 6.81247057,12.5327008 L7.05020508,12.2368265 C6.68420179,12.0144575 6.30026343,11.8216564 5.90021212,11.6596849 C5.72415618,11.5883549 5.54620226,11.5234031 5.36654837,11.4648719 L5.21109602,11.8741099 C5.12140155,12.1104149 4.85450579,12.2307555 4.61823742,12.1388591 L4.45416216,12.0754068 C4.21789378,11.9856984 4.09757193,11.7187612 4.18945407,11.4824561 L4.29750526,11.1959969 C3.84893211,11.1154224 3.3926788,11.0728642 2.93154374,11.0689223 Z M10.9996712,1.83770935 C13.3448536,1.83770935 15.690036,2.73041731 17.4795502,4.52020925 C19.5162711,6.55724629 20.3935268,9.31632653 20.1113173,11.9747583 C19.7875421,12.0097665 19.463767,12.0272706 19.1378041,12.0272706 C18.5418638,12.0272706 17.9459235,11.9694843 17.3591011,11.8539117 L17.182027,12.3160878 C17.0923325,12.5523929 16.8254368,12.6727334 16.5891684,12.580837 L16.4250931,12.5173847 C16.1888248,12.4276763 16.0685029,12.1607391 16.1603851,11.9244341 L16.2926509,11.5763407 C15.6043222,11.3521247 14.9372717,11.0442936 14.3073698,10.6528472 L14.0470957,10.9748379 C13.8873958,11.1717588 13.5986233,11.2023909 13.401733,11.0448542 L13.2639098,10.9354537 C13.0670195,10.775729 13.0363921,10.4869117 13.1939044,10.2899909 L13.412502,10.0191695 C13.1517426,9.80998382 12.8997599,9.58445488 12.6579252,9.34258265 C12.4301948,9.11506128 12.2169562,8.8785323 12.0182094,8.63414508 L11.7522297,8.84809245 C11.5553394,9.00562915 11.266567,8.97499702 11.1046794,8.77807614 L11.1046794,8.77807614 L10.9952959,8.64023153 C10.8377836,8.44331066 10.868411,8.15449338 11.0653013,7.99476867 L11.0653013,7.99476867 L11.3780837,7.74268421 C10.9813338,7.11340121 10.6686619,6.44635605 10.4400682,5.75761076 L10.1158525,5.88115129 C9.8795841,5.97085969 9.61268834,5.85270716 9.52299387,5.61640212 L9.52299387,5.61640212 L9.45955143,5.45230139 C9.36766929,5.21599634 9.48799114,4.94905916 9.72425952,4.85935076 L9.72425952,4.85935076 L10.1570147,4.6944075 C9.96977944,3.77087019 9.92616053,2.824189 10.026158,1.89022159 C10.3499332,1.85521343 10.6737084,1.83770935 10.9996712,1.83770935 Z M11.067489,2.93171421 C11.0696767,3.20959144 11.087178,3.48965668 11.1178054,3.76753391 C11.1376444,3.94545161 11.1632806,4.12256958 11.194714,4.29852519 L11.4809586,4.18981979 C11.717227,4.09792338 11.9841228,4.21826391 12.0738172,4.45456896 L12.0738172,4.45456896 L12.1372597,4.61866969 C12.2291418,4.85497474 12.10882,5.12191192 11.8725516,5.21162032 L11.8725516,5.21162032 L11.4636567,5.36670935 L11.505023,5.49387357 C11.6607851,5.94722918 11.8571504,6.38658153 12.0918786,6.80520905 L12.2366567,7.05070935 L12.5310403,6.81543144 C12.7033193,6.67758682 12.9459456,6.68380898 13.1108968,6.81943994 L13.176403,6.88544775 L13.2857865,7.02329236 C13.4432988,7.22021323 13.4126714,7.50903051 13.2157811,7.66875522 L13.2157811,7.66875522 L12.8691169,7.94831281 C13.0451836,8.16484706 13.2325991,8.37261097 13.4301727,8.57021522 C13.6428559,8.78293144 13.8653849,8.98246225 14.0971606,9.16839277 L14.3730586,8.82621236 C14.5327585,8.62929148 14.8215309,8.59865935 15.0184212,8.75619605 L15.1562445,8.86559653 C15.3531348,9.02532124 15.3837622,9.31413852 15.2262499,9.51105939 L14.9980661,9.79484872 C15.3493158,10.0048152 15.7168671,10.1877336 16.0991303,10.3425031 C16.2916694,10.4205114 16.4864786,10.4908912 16.6832988,10.5535871 L16.8298121,10.1674623 C16.9195066,9.93115726 17.1864024,9.81081672 17.4226707,9.90271313 L17.586746,9.96616541 C17.8230144,10.0558738 17.9411486,10.322811 17.8514541,10.559116 L17.7534019,10.81528 C18.1853597,10.8899683 18.6243217,10.9294747 19.0677987,10.9332657 C19.065611,10.6532005 19.0481096,10.3753232 19.0174823,10.097446 C18.9518522,9.50887138 18.8227796,8.92904881 18.6302646,8.37110634 C18.435562,7.80441182 18.1774169,7.25959741 17.8602048,6.74979114 C17.5342419,6.22466881 17.1448366,5.73455464 16.7051149,5.29476469 C15.935055,4.52458527 15.0359226,3.92725862 14.0361574,3.52247683 C13.0910839,3.13957513 12.0913186,2.94046624 11.067489,2.93171421 Z M9.78214866,18.9691789 L10.9996712,20.1666667 C8.65448882,20.1666667 6.30930643,19.2717707 4.51979226,17.4819788 C2.76882077,15.7318059 1.87447875,13.4490369 1.83676621,11.1545405 L3.0538602,12.3516068 C3.32808659,13.978655 4.09747814,15.4964003 5.30163836,16.7000113 C6.5385052,17.9370701 8.10651312,18.7149943 9.78214866,18.9691789 Z M10.9996712,20.1666667 C8.65448882,20.1666667 6.30930643,19.2717707 4.51979226,17.4819788 C2.76882077,15.7318059 1.87447875,13.4490369 1.83676621,11.1545405 L3.0538602,12.3516068 C3.32808659,13.978655 4.09747814,15.4964003 5.30163836,16.7000113 C6.5385052,17.9370701 8.10651312,18.7149943 9.78214866,18.9691789 L10.9996712,20.1666667 Z M12.2142985,3.03454613 C13.8920776,3.28792232 15.4605896,4.06554596 16.6972266,5.30388689 C17.9060645,6.51217394 18.676678,8.03651704 18.9483664,9.66998093 L20.1628374,10.8666638 C20.1292313,8.56650371 19.2348023,6.27684875 17.4795502,4.52239726 C15.690036,2.73041731 13.3448536,1.83770935 10.9996712,1.83770935 L12.2142985,3.03454613 Z M16.6972266,5.30388689 C17.9060645,6.51217394 18.676678,8.03651704 18.9483664,9.66998093 L20.1628374,10.8666638 C20.1292313,8.56650371 19.2348023,6.27684875 17.4795502,4.52239726 C15.690036,2.73041731 13.3448536,1.83770935 10.9996712,1.83770935 L12.2142985,3.03454613 C13.8920776,3.28792232 15.4605896,4.06554596 16.6972266,5.30388689 Z M9.11889129,18.9312695 C9.36233751,18.9463009 9.55013039,18.9598598 9.68226992,18.9719463 C9.80301873,18.9829908 9.94507414,19.0023405 10.0749509,19.0170536 C10.1958175,19.0307461 10.3062079,19.0400137 10.3772138,19.0454657 C10.6497641,19.0663929 10.834644,19.0747289 10.9318534,19.0704738 L10.9970881,20.1652626 L9.11889129,18.9312695 Z M2.93154374,11.0689223 C2.93511442,11.3183871 2.94434371,11.531225 2.95923162,11.7074363 C2.97411953,11.8836475 3.0098165,12.1452076 3.06632255,12.4921166 L2.37639898,12.4921166 L1.83333333,11.138929 L2.93154374,11.0689223 Z M18.9601471,9.67689646 L20.1666667,10.8613668 L19.0468911,10.9319136 C19.0586768,10.8132086 19.0586768,10.6685986 19.0468911,10.4980836 C19.0351055,10.3275686 19.0061908,10.0538395 18.9601471,9.67689646 Z M10.9959883,1.83333333 L12.6104284,3.06697642 C12.2229307,3.01656917 11.9271852,2.98245408 11.7231919,2.96463114 C11.5871963,2.95274918 11.4446396,2.94397208 11.2955217,2.93829985 L11.066924,2.93212014 L10.9959883,1.83333333 Z" id="Mask"></path>
                </g>
            </g>
        </g>
    </g>
</svg>