<?xml version="1.0" encoding="UTF-8"?>
<svg width="16px" height="20px" viewBox="0 0 16 20" version="1.1" xmlns="http://www.w3.org/2000/svg" xmlns:xlink="http://www.w3.org/1999/xlink">
    <!-- Generator: Sketch 58 (84663) - https://sketch.com -->
    <title>tab_wjs2</title>
    <desc>Created with Sketch.</desc>
    <g id="页面-1" stroke="none" stroke-width="1" fill="none" fill-rule="evenodd">
        <g id="画板" transform="translate(-146.000000, -76.000000)" fill="#414655" fill-rule="nonzero">
            <g id="tab_wjs2" transform="translate(146.000000, 76.000000)">
                <path d="M10.3106602,0.25 L15.75,5.68933983 L15.75,7.75 L15.75,18 C15.75,18.9664983 14.9664983,19.75 14,19.75 L2,19.75 C1.0335017,19.75 0.25,18.9664983 0.25,18 L0.25,2 C0.25,1.03350169 1.03350169,0.25 2,0.25 L10.3106602,0.25 Z M8.25,1.75 L2,1.75 C1.86192881,1.75 1.75,1.86192881 1.75,2 L1.75,18 C1.75,18.1380712 1.86192884,18.25 2,18.25 L14,18.25 C14.1380711,18.25 14.25,18.1380711 14.25,18 L14.25,7.75 L10,7.75 C9.03350169,7.75 8.25,6.96649831 8.25,6 L8.25,1.75 Z M14.249,6.309 L14.25,6.31066017 L14.25,6.311 L14.25,6.31066017 L14.249,6.309 Z M9.75,1.811 L9.75,6 C9.75,6.13807119 9.86192881,6.25 10,6.25 L14.1893398,6.25 L11.97,4.03 L9.75,1.811 Z" id="形状结合"></path>
            </g>
        </g>
    </g>
</svg>