<?xml version="1.0" encoding="UTF-8"?>
<svg width="20px" height="20px" viewBox="0 0 20 20" version="1.1" xmlns="http://www.w3.org/2000/svg" xmlns:xlink="http://www.w3.org/1999/xlink">
    <!-- Generator: Sketch 58 (84663) - https://sketch.com -->
    <title>Icon/tab_soccer_normal</title>
    <desc>Created with Sketch.</desc>
    <g id="专业版" stroke="none" stroke-width="1" fill="none" fill-rule="evenodd">
        <g id="投注区切图" transform="translate(-158.000000, -196.000000)" fill="#CBCED8">
            <g id="Icon/tab_soccer_normal" transform="translate(157.000000, 195.000000)">
                <g id="Tabbar/Sports/BetSheet/_resource/Icon_Soccer">
                    <path d="M17.6150333,15.80425 C17.55435,15.887575 17.4565417,15.9357 17.3534167,15.9355172 L15.3352833,15.932125 C15.2315167,15.9319417 15.134075,15.8822583 15.0731167,15.7982917 L13.6585167,13.8512917 C13.597375,13.7671417 13.5802333,13.6588833 13.6124083,13.559975 L14.6182667,10.4683333 C14.65035,10.369425 14.7279,10.2919667 14.8267167,10.2598833 L17.1301167,9.511425 C17.2291167,9.47925 17.3375583,9.49648333 17.4217083,9.55771667 L19.0466833,10.7408583 C19.1291833,10.8008083 19.17905,10.896325 19.17905,10.9982583 L19.17905,10.9999083 C19.17905,12.793825 18.5981583,14.4544583 17.6150333,15.80425 L17.6150333,15.80425 Z M14.3124667,16.6598667 L13.6840917,18.5874333 C13.6521,18.685975 13.575375,18.7641667 13.47665,18.7956083 C12.6951,19.044575 11.86295,19.1789583 11,19.1789583 C10.1083583,19.1789583 9.24971667,19.0350417 8.44570833,18.7700333 C8.34854167,18.73795 8.27319167,18.6603083 8.24156667,18.56305 L7.613925,16.634475 C7.58175,16.5355667 7.59889167,16.4272167 7.66003333,16.3430667 L9.11276667,14.3436333 C9.17381667,14.2594833 9.27153333,14.2098 9.37548333,14.2098 L12.5327583,14.2098 C12.6366167,14.2098 12.734425,14.259575 12.795475,14.3436333 L14.26645,16.368275 C14.3275917,16.452425 14.3447333,16.5608667 14.3124667,16.6598667 L14.3124667,16.6598667 Z M6.603575,15.8879428 L4.6057,15.8818 C4.5023,15.8814333 4.40430833,15.832575 4.34408333,15.748425 C3.38570833,14.408625 2.82095,12.7691667 2.82095,11 C2.82095,10.9802917 2.82104167,10.9605833 2.821225,10.940875 C2.82205,10.83775 2.871825,10.7413167 2.95524167,10.6806333 L4.55244167,9.51930833 C4.6365,9.45825833 4.74485,9.441025 4.84375833,9.4732 L7.16191667,10.2263333 C7.26073333,10.2584167 7.33828333,10.3359667 7.37045833,10.4346917 L8.35908333,13.4727083 C8.39125833,13.5717083 8.37420833,13.6799667 8.31306667,13.7641167 L6.8673,15.7540167 C6.805975,15.8384417 6.70789167,15.8882167 6.603575,15.8879428 L6.603575,15.8879428 Z M4.376625,6.196575 C5.38789167,4.80755 6.823025,3.747975 8.49264167,3.21135833 C8.59054167,3.17991667 8.69760833,3.19861667 8.78065833,3.25920833 L10.3522833,4.40595833 C10.4360667,4.4671 10.4856583,4.56463333 10.4856583,4.66830833 L10.4856583,7.02276667 C10.4856583,7.126625 10.435975,7.22425 10.3520083,7.2853 L7.69193333,9.22230833 C7.60769167,9.28363333 7.49925,9.30086667 7.40015833,9.2686 L5.138925,8.53233333 C5.0402,8.50025 4.96283333,8.42288333 4.93065833,8.32406667 L4.33225833,6.485875 C4.30035833,6.38788333 4.31594167,6.2799 4.376625,6.196575 L4.376625,6.196575 Z M11.473275,4.66959167 C11.473275,4.565275 11.5234167,4.46719167 11.6081167,4.40614167 L13.200275,3.25810833 C13.28305,3.19834167 13.389475,3.1801 13.4867333,3.21135833 C15.1492917,3.7455 16.5858917,4.79783333 17.5968833,6.17769167 C17.65775,6.26083333 17.6737,6.368725 17.642075,6.46680833 L17.0308417,8.36284167 C16.9987583,8.46220833 16.921025,8.54003333 16.82175,8.57220833 L14.6070833,9.28931667 C14.50845,9.32121667 14.40065,9.30416667 14.316775,9.24348333 L11.60775,7.28520833 C11.523325,7.22415833 11.473275,7.12625833 11.473275,7.02203333 L11.473275,4.66959167 Z M11,1.83333333 C5.9455,1.83333333 1.83333333,5.9455 1.83333333,11 C1.83333333,16.0544083 5.9455,20.1666667 11,20.1666667 C16.0545,20.1666667 20.1666667,16.0544083 20.1666667,11 C20.1666667,5.9455 16.0545,1.83333333 11,1.83333333 L11,1.83333333 Z" id="Fill-1"></path>
                </g>
            </g>
        </g>
    </g>
</svg>