<?xml version="1.0" encoding="UTF-8"?>
<svg width="20px" height="20px" viewBox="0 0 20 20" version="1.1" xmlns="http://www.w3.org/2000/svg" xmlns:xlink="http://www.w3.org/1999/xlink">
    <!-- Generator: Sketch 58 (84663) - https://sketch.com -->
    <title>Icon/tab_刷新_点亮</title>
    <desc>Created with Sketch.</desc>
    <g id="专业版" stroke="none" stroke-width="1" fill="none" fill-rule="evenodd">
        <g id="投注区切图" transform="translate(-366.000000, -479.000000)">
            <g id="Icon/tab_刷新_点亮" transform="translate(364.000000, 477.000000)">
                <g id="Icon/tab_shuaxin" transform="translate(2.000000, 3.000000)">
                    <g id="编组">
                        <path d="M18.0878507,5.04737653 C16.6243031,2.05829042 13.5525213,0 10,0 C5.36581618,0 1.54968816,3.50251327 1.05440487,8.00475089 M2.04015336,13.2039655 C3.54982609,16.0564834 6.54794673,18 10,18 C14.6265417,18 18.4377234,14.5090291 18.9431178,10.0175146" id="形状" stroke="#414655" stroke-width="1.5"></path>
                        <path d="M0,11.4879216 L0,15.16775 C5.82165663e-16,15.388664 0.179086103,15.5677501 0.400000006,15.5677501 C0.490828605,15.5677501 0.578952808,15.5368378 0.649878029,15.4800976 L4.32970651,12.5362348 C4.50221129,12.398231 4.53017984,12.146514 4.39217601,11.9740092 C4.33338367,11.9005188 4.25056098,11.8501122 4.15827494,11.831655 L0.478446461,11.0956893 C0.261822557,11.0523645 0.0510925107,11.1928512 0.00776772984,11.4094751 C0.00260187502,11.4353044 1.63307637e-16,11.4615808 0,11.4879216 Z" id="路径-19" fill="#414655"></path>
                        <path d="M15,2.48792157 L15,6.16775005 C15,6.38866395 15.1790861,6.56775005 15.4,6.56775005 C15.4908286,6.56775005 15.5789528,6.53683775 15.649878,6.48009758 L19.3297065,3.53623479 C19.5022113,3.39823097 19.5301798,3.14651402 19.392176,2.97400924 C19.3333837,2.90051882 19.250561,2.8501122 19.1582749,2.83165499 L15.4784465,2.09568929 C15.2618226,2.05236451 15.0510925,2.19285121 15.0077677,2.40947511 C15.0026019,2.43530439 15,2.46158077 15,2.48792157 Z" id="路径-19" fill="#414655" transform="translate(17.500000, 4.500000) scale(-1, -1) translate(-17.500000, -4.500000) "></path>
                    </g>
                </g>
            </g>
        </g>
    </g>
</svg>