<?xml version="1.0" encoding="UTF-8"?>
<svg width="20px" height="20px" viewBox="0 0 20 20" version="1.1" xmlns="http://www.w3.org/2000/svg" xmlns:xlink="http://www.w3.org/1999/xlink">
    <!-- Generator: Sketch 58 (84663) - https://sketch.com -->
    <title>Icon/tab_yumao_normal</title>
    <desc>Created with Sketch.</desc>
    <g id="专业版" stroke="none" stroke-width="1" fill="none" fill-rule="evenodd">
        <g id="投注区切图" transform="translate(-158.000000, -238.000000)" fill="#CBCED8">
            <g id="Icon/tab_yumao_normal" transform="translate(157.000000, 237.000000)">
                <g id="Tabbar/Sports/BetSheet/_resource/Icon_yumao">
                    <path d="M2.91080643,14.2259405 C2.96305644,14.1737822 3.04775645,14.1737822 3.10000646,14.2259405 L3.10000646,14.2259405 L7.77225724,18.8975432 C7.82450724,18.9497015 7.82450724,19.034493 7.77225724,19.086743 L7.77225724,19.086743 L7.69956556,19.1594345 C7.05093212,19.8079754 6.18679031,20.1666667 5.26893182,20.1666667 C4.35089,20.1666667 3.48674819,19.8090754 2.83811475,19.1594345 C1.49840619,17.8187195 1.49840619,15.6393471 2.83811475,14.2986321 L2.83811475,14.2986321 Z M11.6523429,1.8419721 C11.8081762,1.81447214 11.9685929,1.85343042 12.0946346,1.94738864 C12.2206763,2.04134686 12.304368,2.18462169 12.3204097,2.34155483 L12.3204097,2.34155483 L12.5780847,4.62744374 C12.5819347,4.66136037 12.5725847,4.69546033 12.5520514,4.72277696 L12.5520514,4.72277696 L6.43531701,12.8709255 C6.39525867,12.9241837 6.40057534,12.9987086 6.44769202,13.0458253 L6.44769202,13.0458253 L7.07377545,13.6727328 C7.13125046,13.7302994 7.22649215,13.7236078 7.27535049,13.6585245 L7.27535049,13.6585245 L13.2909765,5.64677585 C13.3194848,5.60882589 13.3658682,5.58875092 13.4130765,5.59415924 L13.4130765,5.59415924 L15.6485519,5.84789227 C15.9131936,5.8765839 16.1230186,6.08622532 16.1528103,6.35205833 L16.1528103,6.35205833 L16.3895853,8.43921414 C16.3948103,8.48578076 16.375377,8.53179737 16.3380687,8.56039733 L16.3380687,8.56039733 L8.32942566,14.7133316 C8.26535065,14.7626482 8.25911732,14.8569731 8.31631733,14.9140813 L8.31631733,14.9140813 L8.9425841,15.5402556 C8.99006744,15.5877389 9.06541745,15.5926889 9.11867579,15.5517139 L9.11867579,15.5517139 L16.9614938,9.52537117 C16.9930271,9.5011712 17.0335438,9.49218787 17.0723188,9.5008962 L17.0723188,9.5008962 L19.7192859,10.0933371 C20.0240776,10.1620871 20.2177693,10.461195 20.1547943,10.7659863 L20.1547943,10.7659863 L19.5817859,13.6008663 C19.5417275,13.8025327 19.3961608,13.9663408 19.2012775,14.0316991 L19.2012775,14.0316991 L9.65831755,17.2197702 C9.63860921,17.2262785 9.62073421,17.2374619 9.60615921,17.2521285 L9.60615921,17.2521285 L8.77180907,18.0862025 C8.71955906,18.1385441 8.63485905,18.1385441 8.58260904,18.0862025 L8.58260904,18.0862025 L3.91035826,13.4146915 C3.85810825,13.3624415 3.85810825,13.2777416 3.91035826,13.2254917 L3.91035826,13.2254917 L4.74571673,12.390226 C4.76047507,12.3754677 4.77147507,12.3575928 4.77807507,12.3379761 L4.77807507,12.3379761 L7.96660893,2.79640428 C8.03425895,2.59712119 8.20384231,2.4515547 8.41137568,2.41488808 L8.41137568,2.41488808 Z" id="形状结合"></path>
                </g>
            </g>
        </g>
    </g>
</svg>