<?xml version="1.0" encoding="UTF-8"?>
<svg width="12px" height="12px" viewBox="0 0 12 12" version="1.1" xmlns="http://www.w3.org/2000/svg" xmlns:xlink="http://www.w3.org/1999/xlink">
    <title>形状结合</title>
    <g id="页面-1" stroke="none" stroke-width="1" fill="none" fill-rule="evenodd">
        <g id="虚拟足球详情页" transform="translate(-14.000000, -288.000000)" fill="#5E5E5E" fill-rule="nonzero">
            <g id="编组" transform="translate(14.000000, 288.000000)">
                <path d="M5.66611497,0.630335812 C5.83478073,0.478212612 6.07696619,0.459260961 6.26394792,0.573443746 L6.34032784,0.630530205 L11.8270683,5.58475355 C12.0384779,5.7756448 12.0588834,6.10605598 11.8726452,6.32274757 C11.7071001,6.51536231 11.4340041,6.55328962 11.2268801,6.42527093 L11.15264,6.36946321 L6.00209342,1.7193679 L0.847144726,6.3696576 C0.659131911,6.53923032 0.383548633,6.54139919 0.193911547,6.38752284 L0.127165266,6.32252678 C-0.0382740747,6.1298166 -0.0403900758,5.84734808 0.109735498,5.65297305 L0.173147268,5.58455916 L5.66611497,0.630335812 Z" id="路径-7"></path>
                <path d="M5.66611497,5.63033581 C5.83478073,5.47821261 6.07696619,5.45926096 6.26394792,5.57344375 L6.34032784,5.6305302 L11.8270683,10.5847536 C12.0384779,10.7756448 12.0588834,11.106056 11.8726452,11.3227476 C11.7071001,11.5153623 11.4340041,11.5532896 11.2268801,11.4252709 L11.15264,11.3694632 L6.00209342,6.7193679 L0.847144726,11.3696576 C0.659131911,11.5392303 0.383548633,11.5413992 0.193911547,11.3875228 L0.127165266,11.3225268 C-0.0382740747,11.1298166 -0.0403900758,10.8473481 0.109735498,10.652973 L0.173147268,10.5845592 L5.66611497,5.63033581 Z" id="路径-7备份"></path>
            </g>
        </g>
    </g>
</svg>