<?xml version="1.0" encoding="UTF-8"?>
<svg width="16px" height="16px" viewBox="0 0 16 16" version="1.1" xmlns="http://www.w3.org/2000/svg" xmlns:xlink="http://www.w3.org/1999/xlink">
    <!-- Generator: Sketch 58 (84663) - https://sketch.com -->
    <title>全屏</title>
    <desc>Created with Sketch.</desc>
    <g id="全屏" stroke="none" stroke-width="1" fill="none" fill-rule="evenodd">
        <g fill-rule="nonzero">
            <rect id="矩形" fill="#000000" opacity="0" x="0" y="0" width="16" height="16"></rect>
            <path d="M13.610967,10.1917519 C13.6366175,10.4140565 13.6665432,10.6641491 13.7007439,10.9420298 C13.7349446,11.2199105 13.7670077,11.5042038 13.7969333,11.7949098 C13.826859,12.0856158 13.8589221,12.3741842 13.8931228,12.660615 C13.9273235,12.9470459 13.9572491,13.2056887 13.9828997,13.4365434 C14.0342007,13.8384017 13.8589221,14.0265055 13.4570639,14.000855 C13.2433095,13.9837547 13.001767,13.9602417 12.7324365,13.9303161 C12.463106,13.9003905 12.1873628,13.8683273 11.9052071,13.8341266 C11.6230513,13.7999259 11.343033,13.7657252 11.0651523,13.7315245 C10.7872716,13.6973238 10.5329039,13.6673982 10.3020492,13.6417477 C10.0540941,13.6160971 9.89591587,13.5455582 9.82751446,13.4301308 C9.75911305,13.3147035 9.79758884,13.1843133 9.94294183,13.0389603 C10.0369938,12.9534586 10.1524211,12.8358936 10.2892239,12.6862656 C10.4260267,12.5366375 10.5414541,12.4147975 10.635506,12.3207456 C10.729558,12.2181435 10.7594836,12.1240915 10.7252829,12.0385898 C10.6910822,11.9530881 10.6226808,11.854761 10.5200787,11.7436087 C10.2806738,11.512754 10.0626443,11.3032747 9.86599025,11.1151709 C9.66933622,10.927067 9.45130675,10.7090375 9.21190184,10.4610825 C9.16060079,10.4097814 9.10929973,10.3542053 9.05799868,10.294354 C9.00669763,10.2345028 8.96822184,10.168239 8.94257131,10.0955625 C8.91692078,10.022886 8.9126457,9.9459344 8.92974605,9.86470773 C8.94684641,9.78348107 9.00242255,9.69584178 9.09647447,9.60178985 C9.14777553,9.5504888 9.1905264,9.50560037 9.2247271,9.46712458 C9.2589278,9.42864879 9.2931285,9.39444809 9.3273292,9.36452249 C9.3615299,9.33459688 9.39786815,9.30039618 9.43634394,9.26192039 C9.47481973,9.2234446 9.52398323,9.170006 9.58383446,9.1016046 C9.75483797,8.93060109 9.91301621,8.8579246 10.0583692,8.88357513 C10.2037222,8.90922566 10.3619004,9.00755268 10.5329039,9.17855618 C10.7039074,9.34955969 10.879186,9.52270074 11.0587397,9.69797933 C11.2382934,9.87325792 11.4392225,10.0720495 11.6615271,10.2943541 C11.8239804,10.4482572 11.9629207,10.5551344 12.0783481,10.6149856 C12.1937755,10.6748368 12.3070653,10.6491863 12.4182176,10.538034 C12.4951692,10.4610825 12.5913586,10.3691681 12.706786,10.2622909 C12.8222133,10.1554137 12.9226779,10.0592242 13.0081797,9.97372247 C13.1535326,9.82836949 13.2839228,9.77279335 13.3993502,9.80699405 C13.5147775,9.84119475 13.5853165,9.96944738 13.610967,10.1917519 L13.610967,10.1917519 Z M2.42733775,5.83116254 C2.40168723,5.60885798 2.37176161,5.35876535 2.33756091,5.08088465 C2.30336021,4.80300396 2.27129706,4.51871063 2.24137144,4.22800467 C2.21144582,3.93729871 2.17938266,3.64873029 2.14518196,3.36229942 C2.11098126,3.07586855 2.08105565,2.81722575 2.05540512,2.58637102 C2.0297546,2.36406646 2.05754266,2.2101633 2.13876933,2.12466155 C2.21999599,2.03915979 2.36321142,2.0049591 2.56841563,2.02205945 C2.78217001,2.0391598 3.02371246,2.06267279 3.29304298,2.09259839 C3.56237351,2.122524 3.83811666,2.15458716 4.12027244,2.18878787 C4.40242822,2.22298858 4.68244646,2.25718928 4.96032716,2.29138997 C5.23820787,2.32559066 5.49257558,2.35551627 5.72343031,2.38116681 C5.97993557,2.40681734 6.14025135,2.47735628 6.20437766,2.59278364 C6.26850397,2.70821101 6.22789064,2.83860118 6.08253767,2.98395416 C5.99703592,3.06945591 5.89229627,3.18060819 5.76831872,3.317411 C5.64434118,3.4542138 5.53532644,3.56964117 5.44127452,3.6636931 C5.33867241,3.76629521 5.30447171,3.86034713 5.33867242,3.94584888 C5.37287313,4.03135062 5.44554962,4.12967764 5.55670189,4.24082993 C5.66785417,4.36053238 5.77259382,4.46527203 5.87092083,4.55504887 C5.96924785,4.64482572 6.06543732,4.73460256 6.15948925,4.82437939 C6.25354118,4.91415623 6.35186819,5.0103457 6.4544703,5.11294781 L6.77510187,5.43357938 C6.82640292,5.48488043 6.87556643,5.54473166 6.92259239,5.61313306 C6.96961836,5.68153446 7.00381906,5.75421095 7.02519449,5.83116253 C7.04656993,5.90811411 7.04443238,5.98934077 7.01878186,6.07484253 C6.99313133,6.16034428 6.93755519,6.24584603 6.85205344,6.33134779 L6.71097555,6.47242568 C6.67677485,6.50662638 6.64471169,6.54082708 6.61478607,6.57502778 C6.58486045,6.60922848 6.54852221,6.64342918 6.50577134,6.67762987 L6.36469345,6.83153304 C6.19368994,7.00253654 6.04619942,7.06666286 5.92222187,7.02391197 C5.79824433,6.98116109 5.6507538,6.8742839 5.4797503,6.70328041 C5.30874679,6.53227691 5.14629346,6.37196112 4.99239031,6.22233305 C4.83848715,6.07270498 4.6503833,5.88673867 4.42807874,5.66443412 C4.27417558,5.51053097 4.13737278,5.40365378 4.01767033,5.34380255 C3.89796787,5.28395132 3.78254051,5.30960185 3.67138823,5.42075413 C3.59443665,5.50625588 3.48755946,5.61099553 3.35075666,5.73497308 C3.21395386,5.85895062 3.10280158,5.96369027 3.01729982,6.04919202 C2.87194684,6.194545 2.74369421,6.25012114 2.63254193,6.21592044 C2.52138965,6.18171974 2.45298824,6.05346711 2.42733772,5.83116255 L2.42733775,5.83116254 Z M13.4314133,2.00923419 C13.6537179,1.98358366 13.8076211,2.01137173 13.8931228,2.09259839 C13.9786246,2.17382506 14.0128253,2.32131558 13.9957249,2.53506997 C13.9786246,2.74882436 13.9551116,2.99036681 13.925186,3.25969732 C13.8952604,3.52902784 13.8631972,3.80477099 13.8289965,4.08692678 C13.7947958,4.36908257 13.7605951,4.64910081 13.7263944,4.9269815 C13.6921937,5.2048622 13.6622681,5.45922992 13.6366176,5.69008465 C13.610967,5.93803973 13.5404281,6.09621797 13.4250007,6.16461938 C13.3095734,6.23302079 13.1791832,6.19026991 13.0338302,6.03636675 C12.9483285,5.950865 12.8371762,5.84612535 12.7003734,5.7221478 C12.5635706,5.59817026 12.4481432,5.48915552 12.3540913,5.3951036 C12.2514892,5.30105167 12.1574372,5.26898851 12.0719355,5.29891412 C11.9864337,5.32883973 11.8881067,5.39937868 11.7769544,5.51053096 C11.5460997,5.74138569 11.343033,5.95086498 11.1677544,6.13896884 C10.9924759,6.32707269 10.7851341,6.54082707 10.5457292,6.78023199 C10.4944281,6.83153304 10.4345769,6.88069655 10.3661755,6.92772251 C10.2977741,6.97474848 10.2250976,7.00894917 10.148146,7.03032461 C10.0711945,7.05170005 9.9899678,7.0495625 9.90446604,7.02391197 C9.81896429,6.99826145 9.73346254,6.93841022 9.64796078,6.8443583 C9.59665973,6.79305724 9.55177131,6.75030636 9.51329552,6.71610567 C9.47481973,6.68190497 9.43848148,6.64770427 9.40428078,6.61350357 C9.37008008,6.57930287 9.33374184,6.54510217 9.29526605,6.51090147 C9.25679026,6.47670077 9.20762675,6.42539971 9.14777552,6.35699831 C8.97677201,6.1859948 8.90837061,6.03636673 8.94257131,5.90811411 C8.97677201,5.77986148 9.0836492,5.63023341 9.26320288,5.45922991 L9.75056287,4.94621939 C9.9130162,4.77521588 10.1053951,4.57856185 10.3276997,4.3562573 C10.490153,4.20235415 10.6013053,4.06555134 10.6611565,3.94584889 C10.7210078,3.82614644 10.6910822,3.71499416 10.5713797,3.61239205 C10.4944281,3.53544047 10.3961011,3.43070082 10.2763986,3.2981731 C10.1566962,3.16564539 10.0540941,3.05663065 9.96859234,2.9711289 C9.82323936,2.82577592 9.76766322,2.69752329 9.80186392,2.58637101 C9.83606462,2.47521873 9.96431725,2.40681732 10.1866218,2.3811668 C10.4089264,2.35551627 10.659019,2.32559066 10.9368997,2.29138996 C11.2147804,2.25718926 11.5012113,2.2251261 11.7961923,2.19520048 C12.0911734,2.16527486 12.3797418,2.1332117 12.6618976,2.099011 C12.9440533,2.0648103 13.2005586,2.03488469 13.4314133,2.00923416 L13.4314133,2.00923419 Z M6.33904294,9.10160458 C6.390344,9.15290563 6.43523242,9.19565651 6.47370821,9.22985721 C6.512184,9.26405791 6.54852224,9.29825861 6.58272294,9.33245931 L6.68532504,9.44788668 L6.8392282,9.58896457 C7.01023171,9.75996807 7.08504575,9.91600877 7.06367031,10.0570867 C7.04229487,10.1981645 6.94183032,10.3584803 6.76227664,10.538034 C6.5998233,10.7004873 6.42881979,10.8736284 6.24926611,11.0574572 C6.06971244,11.2412859 5.86878331,11.4443526 5.64647875,11.6666571 C5.4925756,11.8205603 5.39638613,11.9466754 5.35791034,12.0450024 C5.31943455,12.1433294 5.35577279,12.2480691 5.46692507,12.3592213 C5.55242683,12.4361729 5.6486163,12.5323624 5.75549349,12.6477898 C5.86237068,12.7632171 5.95856015,12.8636817 6.0440619,12.9491834 C6.18941488,13.0945364 6.24285348,13.222789 6.20437769,13.3339413 C6.1659019,13.4450936 6.03551173,13.513495 5.81320717,13.5391455 C5.59090262,13.5647961 5.34294754,13.5947217 5.06934192,13.6289224 C4.79573631,13.6631231 4.51144298,13.6973238 4.21646194,13.7315245 C3.9214809,13.7657252 3.63077494,13.7999259 3.34434406,13.8341266 C3.05791318,13.8683273 2.79927038,13.8982529 2.56841566,13.9239034 C2.35466128,13.9410038 2.20289566,13.9089406 2.11311882,13.8277139 C2.02334198,13.7464873 1.98700373,13.6032718 2.00410409,13.3980676 C2.02120444,13.1843132 2.04471742,12.9427708 2.07464303,12.6734403 C2.10456864,12.4041098 2.1366318,12.1283666 2.17083251,11.8462108 C2.20503321,11.564055 2.23923391,11.2840368 2.27343461,11.0061561 C2.3076353,10.7282754 2.33756091,10.4739077 2.36321144,10.243053 C2.38886197,9.98654769 2.45940092,9.82623191 2.57482828,9.7621056 C2.69025564,9.69797929 2.82064581,9.73859262 2.96599879,9.88394559 C3.05150055,9.96944734 3.16906546,10.0805996 3.31869353,10.2174024 C3.4683216,10.3542052 3.5901616,10.4696326 3.68421352,10.5636845 C3.78681563,10.6662866 3.87231739,10.7111751 3.94071878,10.6983498 C4.00912018,10.6855245 4.09462194,10.6235358 4.19722404,10.5123835 C4.30837633,10.4012312 4.41525351,10.2922165 4.51785561,10.1853393 C4.62045771,10.0784621 4.72305982,9.97372244 4.82566192,9.87112033 C4.92826403,9.76851822 5.03300368,9.66164103 5.13988087,9.55048876 C5.24675806,9.43933649 5.36004788,9.32390912 5.47975033,9.20420666 C5.53105139,9.15290561 5.58662753,9.10160455 5.64647875,9.0503035 C5.70632998,8.99900245 5.77259384,8.96052666 5.84527033,8.93487613 C5.91794682,8.9092256 5.9948984,8.90708806 6.07612506,8.92846349 C6.15735172,8.94983893 6.24499102,9.00755261 6.33904294,9.10160454 L6.33904294,9.10160458 Z" id="形状" fill="#FFFFFF"></path>
        </g>
    </g>
</svg>