<?xml version="1.0" encoding="UTF-8"?>
<svg width="16px" height="16px" viewBox="0 0 16 16" version="1.1" xmlns="http://www.w3.org/2000/svg" xmlns:xlink="http://www.w3.org/1999/xlink">
    <!-- Generator: Sketch 58 (84663) - https://sketch.com -->
    <title>声音_no</title>
    <desc>Created with Sketch.</desc>
    <g id="声音_no" stroke="none" stroke-width="1" fill="none" fill-rule="evenodd">
        <g fill-rule="nonzero">
            <rect id="矩形" fill="#000000" opacity="0" x="0" y="0" width="16" height="16"></rect>
            <path d="M7.28727598,2.60372798 C7.68799382,2.36130889 8,2.5560278 8,3.06024494 L8,3.06024494 L8,12.9371405 C8,13.4842759 7.64508843,13.6646719 7.20013142,13.3349731 L7.20013142,13.3349731 L4,10.9632159 L1.99895086,10.9632159 C1.44724908,10.9632159 1,10.5175571 1,9.98415015 L1,9.98415015 L1,6.01320446 C1,5.47250958 1.44271172,5.03413872 1.99895086,5.03413872 L1.99895086,5.03413872 L4,5.03413872 L7.20013142,2.66238151 Z M10.2601273,5.21620366 L12,6.956 L13.7398727,5.21620366 C14.0281443,4.92793211 14.4955248,4.92793211 14.7837963,5.21620366 C15.0720679,5.50447521 15.0720679,5.97185574 14.7837963,6.26012729 L13.044,8 L14.7837963,9.73987271 C15.0720679,10.0281443 15.0720679,10.4955248 14.7837963,10.7837963 C14.4955248,11.0720679 14.0281443,11.0720679 13.7398727,10.7837963 L12,9.044 L10.2601273,10.7837963 C9.97185574,11.0720679 9.50447521,11.0720679 9.21620366,10.7837963 C8.92793211,10.4955248 8.92793211,10.0281443 9.21620366,9.73987271 L10.956,8 L9.21620366,6.26012729 C8.92793211,5.97185574 8.92793211,5.50447521 9.21620366,5.21620366 C9.50447521,4.92793211 9.97185574,4.92793211 10.2601273,5.21620366 Z" id="形状结合" fill="#DCDCDC"></path>
        </g>
    </g>
</svg>