<?xml version="1.0" encoding="UTF-8"?>
<svg width="16px" height="16px" viewBox="0 0 16 16" version="1.1" xmlns="http://www.w3.org/2000/svg" xmlns:xlink="http://www.w3.org/1999/xlink">
    <!-- Generator: Sketch 58 (84663) - https://sketch.com -->
    <title>声音_ok</title>
    <desc>Created with Sketch.</desc>
    <g id="声音_ok" stroke="none" stroke-width="1" fill="none" fill-rule="evenodd">
        <g fill-rule="nonzero">
            <rect id="矩形" fill="#000000" opacity="0" x="0" y="0" width="16" height="16"></rect>
            <path d="M10.7669531,5.24529687 C10.4734375,4.95178125 9.99759375,4.95178125 9.70409375,5.24529687 C9.41059375,5.5388125 9.41057812,6.01465625 9.70409375,6.30815625 C10.5846406,7.18870312 10.5846406,8.61623437 9.70409375,9.49673437 C9.41057812,9.79025 9.41057812,10.2660937 9.70409375,10.5595937 C9.99760937,10.8531094 10.4734531,10.8531094 10.7669531,10.5595937 C12.2344531,9.09209375 12.2344531,6.71273437 10.7669531,5.24514062 L10.7669531,5.24529687 Z M7.20013142,2.66238151 L7.20013142,2.66238151 L4,5.03413872 L1.99895086,5.03413872 C1.44271172,5.03413872 1,5.47250958 1,6.01320446 L1,9.98415015 C1,10.5175571 1.44724908,10.9632159 1.99895086,10.9632159 L4,10.9632159 L7.20013142,13.3349731 C7.64508843,13.6646719 8,13.4842759 8,12.9371405 L8,3.06024494 C8,2.52001229 7.64182964,2.33507097 7.20013142,2.66241233 L7.20013142,2.66238151 Z M12.8926875,3.119625 C12.5991719,2.82610937 12.1233281,2.82610937 11.8298281,3.119625 C11.5363281,3.41314062 11.5363125,3.88898437 11.8298281,4.18248437 C13.8843906,6.23704687 13.8843906,9.56814062 11.8298281,11.6227031 C11.5363125,11.9162187 11.5363125,12.3920625 11.8298281,12.6855625 C12.1233437,12.9790781 12.5991875,12.9790781 12.8926875,12.6855625 L12.8926875,12.6855469 C15.53425,10.0439844 15.53425,5.76120312 12.8926875,3.11959375 L12.8926875,3.119625 Z" id="形状" fill="#FFFFFF"></path>
        </g>
    </g>
</svg>