<?xml version="1.0" encoding="UTF-8"?>
<svg width="72px" height="72px" viewBox="0 0 72 72" version="1.1" xmlns="http://www.w3.org/2000/svg" xmlns:xlink="http://www.w3.org/1999/xlink">
    <!-- Generator: Sketch 61.1 (89650) - https://sketch.com -->
    <title>wo-weixuanzhong@3x</title>
    <desc>Created with Sketch.</desc>
    <g id="wo-weixuanzhong" stroke="none" stroke-width="1" fill="none" fill-rule="evenodd">
        <g id="编组-2">
            <rect id="矩形" fill-opacity="0" fill="#D8D8D8" x="0" y="0" width="72" height="72"></rect>
            <g id="编组" transform="translate(5.400000, 4.500000)">
                <path d="M4.2,53.7482422 L47.6154643,53.7482422 L49.7863953,53.7482422 C50.2669508,47.2089844 48.1433072,42.826237 43.4154643,40.6 L43.4154643,38.6367188 L53.1264344,41.3 L59.026532,52.5792969 L59.026532,58.8 L55.6933289,60.5021484 L4.2,60.5021484 L2.26227421,56 L4.2,53.7482422 Z" id="路径-25" fill="#DCE2F3"></path>
                <path d="M18.0351999,36.4 L43.6923791,36.4 C51.5797528,36.4 58.3711053,41.9661758 59.9198557,49.7 L61.0739239,55.4629434 C61.7571314,58.8746013 59.5452853,62.1941456 56.1336274,62.8773531 C55.7263269,62.9589177 55.311958,63 54.8965709,63 L6.3,63 C2.82060608,63 6.39488462e-14,60.1793939 6.39488462e-14,56.7 C6.39488462e-14,56.17282 0.0661701025,55.6477246 0.196958762,55.137026 L1.76042326,49.0320694 C3.66405159,41.598854 10.3620981,36.4 18.0351999,36.4 Z M18.0351999,40.6 C12.2803735,40.6 7.25683867,44.4991405 5.82911742,50.074052 L4.26565292,56.1790087 C4.2220567,56.3492415 4.2,56.5242733 4.2,56.7 C4.2,57.859798 5.14020203,58.8 6.3,58.8 L54.8965709,58.8 C55.0350332,58.8 55.1731562,58.7863059 55.308923,58.7591177 C56.4461423,58.5313819 57.1834244,57.4248671 56.9556885,56.2876478 L55.8016203,50.5247044 C54.6459143,44.7535827 49.5780823,40.6 43.6923791,40.6 L18.0351999,40.6 Z" id="矩形" fill="#9AA4C2" fill-rule="nonzero"></path>
                <path d="M28.5510763,0 L32.2154643,0 C40.7206494,0 47.6154643,6.89481485 47.6154643,15.4 C47.6154643,15.4884975 47.6147015,15.5769934 47.6131759,15.6654778 L47.4728824,23.8024965 C47.3121328,33.125977 39.7081365,40.6 30.3832703,40.6 C21.0584041,40.6 13.4544078,33.125977 13.2936582,23.8024965 L13.1533647,15.6654778 C13.0067454,7.1615565 19.7816773,0.148907764 28.2855985,0.00228843155 C28.3740829,0.000762838855 28.4625788,0 28.5510763,0 Z M28.3580016,4.20166431 C22.1733315,4.30829656 17.2461084,9.40840473 17.3527406,15.5930748 L17.4930341,23.7300934 C17.6142832,30.7625448 23.3497738,36.4 30.3832703,36.4 C37.4167668,36.4 43.1522574,30.7625448 43.2735066,23.7300934 L43.4138,15.5930748 C43.4149095,15.5287225 43.4154643,15.4643618 43.4154643,15.4 C43.4154643,9.2144108 38.4010535,4.2 32.2154643,4.2 L28.5510763,4.2 C28.4867145,4.2 28.4223538,4.20055479 28.3580016,4.20166431 Z" id="矩形" fill="#9AA4C2" fill-rule="nonzero"></path>
                <rect id="矩形" fill="#9AA4C2" x="24.0832703" y="26.6" width="12.6" height="3.5" rx="1.75"></rect>
            </g>
        </g>
    </g>
</svg>