<?xml version="1.0" encoding="UTF-8"?>
<svg width="16px" height="16px" viewBox="0 0 16 16" version="1.1" xmlns="http://www.w3.org/2000/svg" xmlns:xlink="http://www.w3.org/1999/xlink">
    <!-- Generator: Sketch 61.1 (89650) - https://sketch.com -->
    <title>yonghuming</title>
    <desc>Created with Sketch.</desc>
    <g id="yonghuming" stroke="none" stroke-width="1" fill="none" fill-rule="evenodd">
        <g id="个人-(9)" fill-rule="nonzero">
            <rect id="矩形" fill="#000000" opacity="0" x="0" y="0" width="16" height="16"></rect>
            <path d="M7.99999196,16 C5.84385291,16 3.8206033,15.1527414 2.30350796,13.6133477 C2.23735283,13.5465973 2.20200682,13.4542343 2.20725161,13.3599568 C2.28780578,11.8736223 3.26668283,11.4369052 5.04241381,10.6446525 C5.3069217,10.5267895 5.59108949,10.3997241 5.89755569,10.25834 C6.09396176,10.1673124 6.26946912,9.67095589 6.41547051,9.22442487 C5.64086671,8.58536507 5.21788899,7.47260111 5.21788899,6.05628294 C5.21788899,3.89261456 6.71665974,3.12491264 8.00000804,3.12491264 C9.28337243,3.12491264 10.7821432,3.89259846 10.7821432,6.05628294 C10.7821432,7.4728907 10.3591815,8.58536507 9.58456166,9.22442487 C9.72991952,9.67095589 9.9054108,10.1672963 10.1031522,10.25834 C10.4089105,10.3997241 10.6943975,10.5267896 10.9582458,10.6446525 C12.7340251,11.437597 13.7122425,11.8742819 13.7921209,13.3599568 C13.7973657,13.4542343 13.7626472,13.5465973 13.6965403,13.6133477 C12.1793967,15.1527414 10.1568228,16 7.99999196,16 Z M2.8888489,13.2506207 C4.26649077,14.5922891 6.07565327,15.3295358 7.99997587,15.3295358 C9.92502244,15.3295358 11.7334931,14.5922891 13.1104754,13.2506207 C13.0076711,12.3372552 12.4040056,12.0242572 10.6852111,11.2568609 C10.4187405,11.1383705 10.1305828,11.010018 9.82218599,10.8672825 C9.33767048,10.6433333 9.1268332,9.98921482 8.90357574,9.2970797 L8.87278272,9.2028183 C8.82630359,9.06009892 8.88063381,8.90357575 9.00568823,8.82044746 C9.71875424,8.34478053 10.1116147,7.36291104 10.1116147,6.05628297 C10.1116147,3.95844796 8.49499705,3.79540904 7.99995979,3.79540904 C7.50431118,3.79540904 5.88833708,3.95844796 5.88833708,6.05628297 C5.88833708,7.3625571 6.28119749,8.34442659 6.99490704,8.82044746 C7.11930185,8.90357575 7.17300462,9.06009892 7.12716903,9.2028183 L7.09706781,9.29514911 C6.87311856,9.98853913 6.66229735,10.6433333 6.17906892,10.8672825 C5.8700286,11.0093101 5.58191917,11.1376627 5.31605986,11.2568609 C3.5960105,12.0242572 2.99163709,12.3372391 2.8888489,13.2506207 Z M13.4575002,13.7135296 C13.4175851,13.7135296 13.3776539,13.7063703 13.3390098,13.6919391 C13.214615,13.6447521 13.1301514,13.5289001 13.1229117,13.3966542 C13.0672622,12.3686757 12.4930544,12.0641723 10.6852111,11.2568609 C10.4187405,11.1383705 10.1305828,11.010018 9.82218597,10.8672825 C9.33767046,10.6433333 9.12683319,9.98921482 8.90357572,9.2970797 L8.8727827,9.2028183 C8.82630357,9.06009892 8.88063379,8.90357575 9.00568821,8.82044746 C9.71875422,8.34478053 10.1116146,7.36291104 10.1116146,6.05628297 C10.1116146,3.95844796 8.49499703,3.79540904 7.99995977,3.79540904 C7.50431116,3.79540904 5.88833707,3.95844796 5.88833707,6.05628297 C5.88833707,7.3625571 6.28119748,8.34442659 6.99490702,8.82044746 C7.11930183,8.90357575 7.17300461,9.06009892 7.12716902,9.2028183 L7.0970678,9.29514911 C6.87311854,9.98853913 6.66229734,10.6433333 6.17906891,10.8672825 C5.87002859,11.0093101 5.58191915,11.1376627 5.31605985,11.2568609 C3.50760524,12.0635287 2.93268952,12.3679839 2.87639654,13.3966543 C2.8698486,13.5289163 2.78474146,13.6447681 2.66097409,13.6919391 C2.53854206,13.7390617 2.39712583,13.7089444 2.30349187,13.6133477 C0.817800909,12.106758 1.4033219e-13,10.1129822 1.4033219e-13,8.00002413 C1.4033219e-13,3.58880294 3.58880294,-7.10542736e-15 8,-7.10542736e-15 C12.4112132,-7.10542736e-15 16,3.58880294 16,8.00002413 C16,10.1129822 15.1815395,12.106758 13.6965242,13.6133477 C13.6323319,13.6788271 13.5459216,13.7135296 13.4575002,13.7135296 Z M9.58454556,9.22444097 C9.72990343,9.67097198 9.9053947,10.1673124 10.1031361,10.2583561 C10.4088944,10.3997402 10.6943814,10.5268057 10.9582297,10.6446686 C12.4144791,11.2948293 13.333765,11.7054191 13.6624331,12.6515242 C14.7415081,11.3426277 15.3295036,9.71421736 15.3295036,8.00004024 C15.3295036,3.95848013 12.0412464,0.670496378 7.99997585,0.670496378 C3.95809397,0.670496378 0.670464156,3.95846403 0.670464156,8.00004024 C0.670464156,9.71421736 1.25780004,11.3420003 2.33751862,12.6515242 C2.66554315,11.705403 3.58618054,11.2942019 5.04238162,10.6446686 C5.30688951,10.5268056 5.5910573,10.3997402 5.8975235,10.2583561 C6.09392957,10.1673285 6.26943693,9.67097198 6.41543833,9.22444097 C5.64083452,8.58538116 5.2178568,7.4726172 5.2178568,6.05629903 C5.2178568,3.89263065 6.71662755,3.12492874 7.99997585,3.12492874 C9.28334024,3.12492874 10.782111,3.89261456 10.782111,6.05629903 C10.782111,7.4729068 10.3591494,8.58538116 9.58454556,9.22444097 Z" id="形状" fill="#FFFFFF"></path>
        </g>
    </g>
</svg>