<?xml version="1.0" encoding="UTF-8"?>
<svg width="12px" height="12px" viewBox="0 0 12 12" version="1.1" xmlns="http://www.w3.org/2000/svg" xmlns:xlink="http://www.w3.org/1999/xlink">
    <title>详情中立场</title>
    <g id="页面-1" stroke="none" stroke-width="1" fill="none" fill-rule="evenodd">
        <g id="早盘详情" transform="translate(-93.000000, -189.000000)" fill="#FFFFFF" fill-rule="nonzero">
            <g id="编组-21" transform="translate(93.000000, 189.000000)">
                <path d="M10.3106144,0 C11.2408133,0 12.001809,0.95531922 12,2.13288436 L12,2.13288436 L12,9.86711564 C12,11.0466234 11.2394352,12 10.3092956,12 L10.3092956,12 L1.69069459,12 C0.760926544,12 0,11.0454706 0,9.86711564 L0,9.86711564 L0,2.13288436 C0,0.953376011 0.760555453,0 1.69069459,0 L1.69069459,0 Z M10.2453027,1 L1.75598738,1 C1.33875996,1 1,1.44690361 1,1.99183998 L1,1.99183998 L1,10.00816 C1,10.5521011 1.33926961,11 1.75598738,11 L1.75598738,11 L10.2440039,11 C10.6612333,11 11,10.5530937 11,10.00816 L11,10.00816 L11,1.99064574 C11.0007923,1.44760359 10.6619959,1 10.2453027,1 L10.2453027,1 Z M3.42663185,2.99984239 C3.5317712,2.99471099 3.63873955,3.03102349 3.72092705,3.10940981 C3.72881624,3.11693412 3.73639309,3.12477926 3.74363845,3.13292538 L7.608,7.478 L7.60872839,3 L8.4382995,3 L8.4382995,8.58990673 C8.4382995,8.81898646 8.25259368,9.00469228 8.02351395,9.00469228 C7.90925968,9.01089979 7.80060918,8.97466773 7.71737479,8.89528314 C7.70948551,8.88775875 7.70190857,8.87991353 7.69466313,8.87176732 L3.829,4.525 L3.82957111,9.00469228 L3,9.00469228 L3,3.41478556 C3,3.18570582 3.18570582,3 3.41478556,3 L3.42663185,2.99984239 Z" id="详情中立场"></path>
            </g>
        </g>
    </g>
</svg>