<?xml version="1.0" encoding="UTF-8"?>
<svg width="24px" height="12px" viewBox="0 0 24 12" version="1.1" xmlns="http://www.w3.org/2000/svg" xmlns:xlink="http://www.w3.org/1999/xlink">
    <title>编组 9</title>
    <g id="页面-1" stroke="none" stroke-width="1" fill="none" fill-rule="evenodd">
        <g id="滚球" transform="translate(-99.000000, -976.000000)">
            <g id="编组-130" transform="translate(0.000000, 516.000000)">
                <g id="编组-9" transform="translate(99.000000, 460.000000)">
                    <path d="M6.62068966,0 L18.2068966,0 C21.4063392,0 24,2.6862915 24,6 C24,9.3137085 21.4063392,12 18.2068966,12 L0,12 L0,6.85714286 C0,3.07004743 2.96418373,0 6.62068966,0 Z" id="矩形" fill="#FF0000"></path>
                    <path d="M4,3 L5.15530657,3 L6.64923747,6.79264215 L6.64923747,3 L7.76470588,3 L7.76470588,9 L6.60939931,9 L5.11546841,5.28762542 L5.11546841,8.97993311 L4,8.97993311 L4,3 Z M8.70588235,8.98 L8.70588235,3 L12.4469108,3 L12.4469108,3.88 L10.0318165,3.88 L10.0318165,5.4 L12.2811691,5.4 L12.2811691,6.28 L10.0318165,6.28 L10.0318165,8.12 L12.4705882,8.12 L12.4705882,9 L8.70588235,9 L8.70588235,8.98 Z M13.4117647,3 L14.6286999,3 L15.3630573,7.59531772 L16.2233046,3 L17.1884601,3 L18.1116523,7.61538461 L18.7830648,3 L20,3 L18.8250281,9 L17.4192582,9 L16.7058824,5.28762542 L16.0134882,9 L14.6077183,9 L13.4117647,3 Z" id="形状" fill="#FFFFFF" fill-rule="nonzero"></path>
                </g>
            </g>
        </g>
    </g>
</svg>