<?xml version="1.0" encoding="UTF-8"?>
<svg width="20px" height="20px" viewBox="0 0 20 20" version="1.1" xmlns="http://www.w3.org/2000/svg" xmlns:xlink="http://www.w3.org/1999/xlink">
    <!-- Generator: Sketch 61.1 (89650) - https://sketch.com -->
    <title>MY</title>
    <desc>Created with Sketch.</desc>
    <defs>
        <circle id="path-1" cx="10" cy="10" r="10"></circle>
    </defs>
    <g id="MY" stroke="none" stroke-width="1" fill="none" fill-rule="evenodd">
        <g id="位图">
            <mask id="mask-2" fill="white">
                <use xlink:href="#path-1"></use>
            </mask>
            <use id="蒙版" stroke-opacity="0.05" stroke="#979797" fill="#D8D8D8" xlink:href="#path-1"></use>
            <g id="马来西亚" mask="url(#mask-2)">
                <g transform="translate(-2.000000, -1.000000)">
                    <rect id="矩形" fill="#000000" fill-rule="nonzero" opacity="0" x="2" y="2" width="21" height="21"></rect>
                    <path d="M2.15440332,21.8713135 L33.2683848,21.8713135 L33.2683848,1.18016113 L2.15440332,1.18016113 L2.15440332,21.8713135 L2.15440332,21.8713135 Z M33.4077225,22.0418308 L33.4077225,21.8455967 L33.4077225,22.0418308 Z M2.0257373,22 L2.0257373,1.0257373 L33.3970508,1.0257373 L33.3970508,21.9742627 L2.0257373,21.9742627 L2.0257373,22 Z" id="形状" fill="#353636" fill-rule="nonzero"></path>
                    <polygon id="路径" fill="#FFFFFF" fill-rule="nonzero" points="2.07721191 15.5147119 33.3198389 15.5147119 33.3198389 17.1103018 2.07723242 17.1103018"></polygon>
                    <path d="M2.07721191,13.9191016 L33.3198389,13.9191016 L33.3198389,15.5147119 L2.07721191,15.5147119 L2.07721191,13.9191016 Z M2.07721191,20.3271982 L33.3198389,20.3271982 L33.3198389,21.9227881 L2.07721191,21.9227881 L2.07721191,20.3271982 Z" id="形状" fill="#D64634" fill-rule="nonzero"></path>
                    <polygon id="路径" fill="#FFFFFF" fill-rule="nonzero" points="2.07721191 12.2977949 33.3198389 12.2977949 33.3198389 13.8933848 2.07723242 13.8933848"></polygon>
                    <polygon id="路径" fill="#D64634" fill-rule="nonzero" points="2.07721191 17.1103018 33.3198389 17.1103018 33.3198389 18.7058916 2.07723242 18.7058916"></polygon>
                    <path d="M2.07721191,18.7316084 L33.3198389,18.7316084 L33.3198389,20.3271982 L2.07721191,20.3271982 L2.07721191,18.7316084 Z M2.07721191,5.88969824 L33.3198389,5.88969824 L33.3198389,7.48528809 L2.07721191,7.48528809 L2.07721191,5.88969824 Z" id="形状" fill="#FFFFFF" fill-rule="nonzero"></path>
                    <polygon id="路径" fill="#D64634" fill-rule="nonzero" points="2.07721191 10.7022051 33.3198389 10.7022051 33.3198389 12.2977949 2.07723242 12.2977949"></polygon>
                    <polygon id="路径" fill="#FFFFFF" fill-rule="nonzero" points="2.07721191 2.69853906 33.3198389 2.69853906 33.3198389 4.2941084 2.07723242 4.2941084"></polygon>
                    <path d="M2.07721191,4.2941084 L33.3198389,4.2941084 L33.3198389,5.88969824 L2.07721191,5.88969824 L2.07721191,4.2941084 Z M2.07721191,1.10294922 L33.3198389,1.10294922 L33.3198389,2.69853906 L2.07721191,2.69853906 L2.07721191,1.10294922 Z" id="形状" fill="#D64634" fill-rule="nonzero"></path>
                    <polygon id="路径" fill="#FFFFFF" fill-rule="nonzero" points="2.07721191 9.10661523 33.3198389 9.10661523 33.3198389 10.7022051 2.07723242 10.7022051"></polygon>
                    <polygon id="路径" fill="#D64634" fill-rule="nonzero" points="2.07721191 7.51102539 33.3198389 7.51102539 33.3198389 9.10661523 2.07723242 9.10661523"></polygon>
                    <g id="编组" stroke-width="1" fill="none" fill-rule="evenodd" transform="translate(0.077212, 0.502949)">
                        <polygon id="路径" fill="#0050A2" fill-rule="nonzero" points="4.4408921e-14 -6.21724894e-15 15.6213135 -6.21724894e-15 15.6213135 12.8161523 4.4408921e-14 12.8161523"></polygon>
                        <path d="M8.02573047,9.98529492 C6.04410156,9.98529492 4.44853223,8.38970508 4.44853223,6.40807617 C4.44853223,4.42644727 6.04410156,2.83087793 8.02570996,2.83087793 C8.61764746,2.83087793 9.15808984,2.95954395 9.64707813,3.21689648 C8.95219141,2.6764541 8.10294238,2.36764746 7.15072363,2.36764746 C4.9117627,2.36764746 3.11027441,4.16911523 3.11027441,6.40809668 C3.11027441,8.64707812 4.9117627,10.4485254 7.15074414,10.4485254 C8.07722559,10.4485254 8.95221191,10.1396982 9.64707813,9.59925586 C9.15811035,9.83087109 8.61766797,9.98529492 8.02573047,9.98529492 Z" id="路径" fill="#FCD300" fill-rule="nonzero"></path>
                        <polygon id="路径" fill="#FCD300" fill-rule="nonzero" points="11.2168896 3.01101855 11.5000205 5.14705078 12.7095713 3.34558301 12.0404629 5.40440332 13.867668 4.29780176 12.4007441 5.84189648 14.5367764 5.66175586 12.5294307 6.40807617 14.5367764 7.15439648 12.4007441 6.97425586 13.867668 8.51837109 12.0404629 7.41176953 12.7095713 9.47058984 11.5000205 7.66910156 11.2169307 9.80513379 10.9338408 7.66910156 9.75000684 9.47058984 10.4191357 7.41172852 8.56619336 8.51835059 10.058834 6.97423535 7.92280176 7.15437598 9.93016797 6.40805566 7.92280176 5.66173535 10.058834 5.84187598 8.56619336 4.29776074 10.4191357 5.40438281 9.75000684 3.3455625 10.9338203 5.14705078"></polygon>
                    </g>
                </g>
            </g>
            <path d="M10,0 C15.5228475,0 20,4.4771525 20,10 C20,15.5228475 15.5228475,20 10,20 C4.4771525,20 0,15.5228475 0,10 C0,4.4771525 4.4771525,0 10,0 Z M10,0.5 C4.75329488,0.5 0.5,4.75329488 0.5,10 C0.5,15.2467051 4.75329488,19.5 10,19.5 C15.2467051,19.5 19.5,15.2467051 19.5,10 C19.5,4.75329488 15.2467051,0.5 10,0.5 Z" id="矩形" fill-opacity="0.1" fill="#000000" fill-rule="nonzero" mask="url(#mask-2)"></path>
        </g>
    </g>
</svg>