<?xml version="1.0" encoding="UTF-8"?>
<svg width="7px" height="12px" viewBox="0 0 7 12" version="1.1" xmlns="http://www.w3.org/2000/svg" xmlns:xlink="http://www.w3.org/1999/xlink">
    <title>角球@2x</title>
    <g id="页面-1" stroke="none" stroke-width="1" fill="none" fill-rule="evenodd">
        <g id="赛果" transform="translate(-186.000000, -926.000000)">
            <g id="编组-4备份" transform="translate(0.000000, 216.000000)">
                <g id="编组-24" transform="translate(0.000000, 323.000000)">
                    <g id="编组-8" transform="translate(182.000000, 386.000000)">
                        <rect id="矩形" x="0" y="0" width="14" height="14"></rect>
                        <path d="M4.736,1 L4.836,1 L4.836,1 L4.836,12.7 C4.836,12.8656854 4.70168542,13 4.536,13 C4.37031458,13 4.236,12.8656854 4.236,12.7 L4.236,1.5 C4.236,1.22385763 4.45985763,1 4.736,1 Z" id="矩形" fill="#CFD3DA"></path>
                        <path d="M7.82882065,10.9384667 C8.26133686,10.9176475 8.58084064,11.026098 8.78733198,11.2638181 C8.99382332,11.5015382 9.05608682,11.9054767 8.97412247,12.4756336 L4.55381658,12.4816242 L7.82882065,10.9384667 Z" id="路径-2" fill="#8EB50F"></path>
                        <g id="编组-7" transform="translate(3.840000, 9.516128)" fill="#CFD3DA">
                            <path d="M2.87475875,0.699056515 C3.04044417,0.699056515 3.17475875,0.83337109 3.17475875,0.999056515 L3.17475875,5.19905651 C3.17475875,5.36474194 3.04044417,5.49905651 2.87475875,5.49905651 C2.70907332,5.49905651 2.57475875,5.36474194 2.57475875,5.19905651 L2.57475875,0.999056515 C2.57475875,0.83337109 2.70907332,0.699056515 2.87475875,0.699056515 Z" id="矩形备份-10" transform="translate(2.874759, 3.099057) rotate(-90.000000) translate(-2.874759, -3.099057) "></path>
                            <path d="M2.42184484,0.212381978 C2.58753027,0.212381978 2.72184484,0.346696553 2.72184484,0.512381978 L2.72184484,3.51238198 C2.72184484,3.6780674 2.58753027,3.81238198 2.42184484,3.81238198 C2.25615942,3.81238198 2.12184484,3.6780674 2.12184484,3.51238198 L2.12184484,0.512381978 C2.12184484,0.346696553 2.25615942,0.212381978 2.42184484,0.212381978 Z" id="矩形备份-11" transform="translate(2.421845, 2.012382) rotate(-112.000000) translate(-2.421845, -2.012382) "></path>
                        </g>
                        <polygon id="路径-3" fill="#E02020" points="4.83485393 1 10.8348539 7 4.83485393 7"></polygon>
                    </g>
                </g>
            </g>
        </g>
    </g>
</svg>