<?xml version="1.0" encoding="UTF-8"?>
<svg width="22px" height="22px" viewBox="0 0 22 22" version="1.1" xmlns="http://www.w3.org/2000/svg" xmlns:xlink="http://www.w3.org/1999/xlink">
    <title>dota1备份 2</title>
    <defs>
        <linearGradient x1="50%" y1="0%" x2="51.5853744%" y2="100%" id="linearGradient-1">
            <stop stop-color="#E91E1E" offset="0%"></stop>
            <stop stop-color="#560801" offset="100%"></stop>
        </linearGradient>
    </defs>
    <g id="页面-1" stroke="none" stroke-width="1" fill="none" fill-rule="evenodd">
        <g id="H5白" transform="translate(-62.000000, -552.000000)">
            <g id="dota1备份-2" transform="translate(62.000000, 552.000000)">
                <g id="path-2-link" transform="translate(3.666667, 3.666667)" fill="#D8D8D8" fill-rule="nonzero">
                    <path d="M11.7050391,4.42329409 C11.7157136,4.43484743 11.7271776,4.4435812 11.7394311,4.4497361 C11.7080595,4.68998358 11.6766536,4.93023106 11.645282,5.17047854 C11.4932981,5.22442848 11.3614276,5.16989399 11.2336074,5.09383453 L11.233573,5.09383453 C10.9367444,4.78963109 10.5494736,4.60935093 10.2193513,4.35077628 C9.99388097,4.18167122 9.76841067,4.01256615 9.54297469,3.84346109 C9.33051291,3.60434831 9.06200108,3.43654988 8.80162389,3.25836719 C8.79901528,3.25716372 8.79705882,3.25602902 8.79451892,3.25485993 C9.61807425,3.02843519 10.4126263,2.66907833 11.2917512,2.70263802 C11.3991147,2.92201385 11.5722419,3.04273932 11.7904013,3.09579526 C11.8006296,3.11484451 11.8112356,3.13444392 11.822631,3.15507487 C11.8527325,3.22917439 11.8814956,3.30416791 11.9423509,3.35749893 C11.7776673,3.69323334 11.6812186,4.04454414 11.7050391,4.42329409 L11.7050391,4.42329409 Z M6.99765535,8.42600895 C6.82191965,8.23200921 6.62579581,8.05850283 6.41721263,7.89737505 C6.16867695,7.57401927 5.88327799,7.28504832 5.58802826,7.0051894 C5.47524161,6.84691561 5.34934343,6.70105473 5.21373173,6.56447785 C5.17408822,6.50908368 5.12709951,6.46342048 5.07108375,6.42721317 C5.01699009,6.37763016 4.96169512,6.32921615 4.90513018,6.28200562 C4.90705229,6.28097411 4.90883711,6.28035518 4.91082786,6.27928921 C4.92242916,6.22946551 4.92061002,6.17685655 4.88676717,6.14040849 C4.4412153,5.66084196 4.00338619,5.17357317 3.51087994,4.74152658 C3.51729841,4.63242322 3.41995729,4.56874233 3.35247752,4.5015198 C2.83203202,3.98296073 2.33053304,3.44507733 1.78516876,2.95216942 C1.75166914,2.92968168 1.72678469,2.89863209 1.70433719,2.86527872 C1.70897085,2.80489878 1.757916,2.76184886 1.88319636,2.74163052 C2.01578759,2.72020871 2.14501514,2.67055688 2.25838528,2.59129963 C2.28646181,2.58339109 2.31477861,2.57678919 2.34364457,2.57249107 C2.37621746,2.56509831 2.40758904,2.55409514 2.43700418,2.53789984 C2.52507798,2.49429976 2.59832409,2.46245931 2.66288638,2.4435476 C2.79317795,2.43660184 2.91461408,2.47026469 3.02994066,2.53167616 C3.0901782,2.5845258 3.15570155,2.65759377 3.23443939,2.7533214 C3.34667686,2.87751975 3.4713394,2.96654232 3.64137745,2.92596811 C3.83880556,3.11821423 4.1632302,3.16133293 4.29434554,3.41065803 C4.41502656,3.64021179 4.57995042,3.75423221 4.81441347,3.80470927 L4.81441347,3.80467489 C4.94175323,3.88640786 5.01661253,4.04660723 5.19135288,4.05736971 L5.99266668,4.53569842 L6.36696317,4.78811815 C6.41542777,4.81896144 6.46385806,4.84977033 6.51228835,4.88057923 C6.61162025,4.9937744 6.73700361,5.06959316 6.87189448,5.13162357 C7.03980449,5.2467443 7.20768019,5.36189941 7.37555581,5.47702015 C7.38272942,5.48530692 7.39007463,5.49362807 7.39817496,5.50215553 C7.49023029,5.59853647 7.61767299,5.65723154 7.6906445,5.77431221 C7.78252823,5.84101897 7.84945883,5.98106879 7.99066525,5.89802921 C8.32054733,6.19721241 8.71591835,6.39781406 9.08942547,6.63135653 C9.15759167,6.69912921 9.24892621,6.75180689 9.280744,6.84278943 C9.44758995,7.02465126 9.66180219,7.14403573 9.86513396,7.27631454 C9.92636685,7.31616666 10.0061688,7.36375545 10.0517159,7.29587958 C10.175486,7.37826584 10.2992561,7.46068649 10.4230262,7.54307283 C10.4244678,7.54757725 10.4254289,7.55166903 10.4271108,7.55634535 C10.6560477,7.94152531 11.0939798,8.0643827 11.4092058,8.34104377 C11.4427741,8.37054607 11.4886301,8.36432234 11.5194868,8.32955919 C11.5469798,8.3588208 11.5812346,8.37401891 11.6231091,8.3731593 C11.6259923,8.37226529 11.6289097,8.37144007 11.6317929,8.37054607 L11.9361727,8.50038354 C12.0128855,8.60536072 12.1177778,8.67162047 12.2256905,8.73375404 C12.2831821,8.7798986 12.3344269,8.83230121 12.3668282,8.90368431 C12.4639634,8.98455763 12.5295554,9.14131856 12.6923512,9.06109849 C12.9030625,9.20486189 13.0704233,9.37021903 12.9844432,9.66159685 C12.9561607,9.76516427 12.9279126,9.86880041 12.8996301,9.97240222 C12.8597807,10.0156928 12.8235695,10.065998 12.7916831,10.1246243 C12.7360105,10.241086 12.6645836,10.3558629 12.7625769,10.4844969 C12.6670549,10.774912 12.5715672,11.0652927 12.4761139,11.3556734 C12.377091,11.544034 12.2781022,11.7323947 12.1791479,11.9207552 C12.1733817,11.921271 12.1676496,11.9214773 12.1619176,11.9220619 C11.9326031,11.9565843 11.7042496,12.0048608 11.4709536,11.9712323 C11.2053249,11.9328931 10.9405199,11.8837571 10.6718365,11.9433805 C10.5514644,11.9480225 10.4314355,11.9439995 10.3114409,11.9371225 C10.3051941,11.9357814 10.2989129,11.9344405 10.2926317,11.9331338 L9.64944581,11.2822959 C9.32594791,10.9351458 9.00238137,10.5879955 8.67881476,10.2408109 C8.66999371,10.2369255 8.66158443,10.2322491 8.65341547,10.2272633 C8.66185907,10.2318021 8.67037123,10.2363409 8.67881476,10.2408109 C8.55507899,10.0946406 8.43124018,9.94843593 8.30747009,9.8021968 C8.26645365,9.64588291 8.15545177,9.55864837 8.01283817,9.50266973 C7.76886748,9.25802101 7.52493119,9.01344099 7.28096057,8.76886105 L7.26077843,8.76886105 C7.26465696,8.75981781 7.26788341,8.7502932 7.27004579,8.7399433 C7.1844432,8.62784846 7.10096875,8.51272774 6.99765535,8.42600895 L6.99765535,8.42600895 Z M2.20055037,10.0887608 C2.29535156,9.94544445 2.35555478,9.78744565 2.39749796,9.62167595 C2.40353888,9.62191663 2.40951115,9.62239806 2.415758,9.62188223 C2.57625416,9.53591995 2.62214452,9.40817995 2.55493933,9.2390749 C2.55524824,9.23594584 2.55552283,9.23305753 2.55576309,9.22996287 C2.58325613,9.24516105 2.61291153,9.24075973 2.63724681,9.19939467 C2.76218393,8.98730844 2.9133098,8.9980022 3.10301515,9.08496167 C3.1237808,9.09452067 3.14042764,9.08647461 3.15494643,9.0715515 C3.26649743,9.18244294 3.37804844,9.29333431 3.48959944,9.40419128 C3.61264878,9.52450415 3.73569811,9.64478262 3.85874745,9.76512988 C3.95584831,9.91453239 4.07738742,10.0398654 4.2259047,10.1385846 C4.30594684,10.2487882 4.3971784,10.346854 4.51964424,10.4110507 C4.67149089,10.6003053 4.85302728,10.7572381 5.04863625,10.8988697 C5.07286856,10.9212542 5.09710087,10.9435701 5.1213675,10.9659202 C5.27088017,11.2185463 5.63759122,11.2934023 5.67143408,11.6405869 C5.33331441,11.7663669 4.97703767,11.8385409 4.6351081,11.9529739 C4.47807862,11.9774216 4.32214748,12.0132163 4.16789818,12.0666849 C3.75279116,12.0988348 3.33648282,12.2050842 2.92484246,12.046329 C2.91183389,12.044094 2.89916857,12.0406555 2.8867435,12.03677 C2.67393851,11.6516588 2.29658721,11.4563868 1.91947617,11.2615962 C1.9115818,11.2567823 1.90361877,11.2519684 1.89572439,11.2471202 C1.89490063,11.2132854 1.89404255,11.1793818 1.89318446,11.1455471 C1.92177584,11.0517794 1.90897322,10.9508596 1.89634221,10.8499743 C1.9004267,10.8479112 1.90451118,10.8455043 1.90859566,10.8427535 C1.93131774,10.8141452 1.94944049,10.7829237 1.96128206,10.7482637 C1.96426819,10.7297302 1.96842132,10.7115062 1.97336389,10.6935228 C2.00174932,10.6426332 2.02203445,10.5880987 2.0326747,10.5291973 C2.04098096,10.5072941 2.04897831,10.4852878 2.05584298,10.4629375 C2.12860856,10.3634964 2.16759993,10.2507826 2.1819471,10.1284066 C2.18908636,10.1158218 2.19533322,10.1025836 2.20055037,10.0887608 L2.20055037,10.0887608 Z M14.6666667,0.68575581 C14.4272267,0.577236982 14.2458963,0.30965349 13.9682544,0.332175616 C13.5046141,0.369689568 13.0044194,0.0792744835 12.5770933,0.47143456 C12.572185,0.475938986 12.5542682,0.466276821 12.5423924,0.463250948 C12.5595197,0.256803858 12.4423053,0.191885114 12.2587095,0.171701162 C11.7653109,0.117338598 11.2721181,0.0714347175 10.7750126,0.103481472 C10.7256212,0.101349606 10.6762642,0.0991489682 10.6269072,0.0969827235 C10.5800214,0.0844666082 10.5338221,0.0670678349 10.4861126,0.0602252335 C10.0907759,0.00379957487 9.95464932,-0.00238971447 9.80554857,0.176652592 C9.75121466,0.217501884 9.70638827,0.27784743 9.67532566,0.36673246 C9.65116196,0.406550209 9.62538515,0.450390988 9.59720564,0.498908116 C9.54548027,0.587999462 9.44378006,0.561488685 9.37829105,0.613306766 C9.21244045,0.588859083 8.97512858,0.711544503 8.89110493,0.559391205 C8.72522002,0.25897011 8.47012863,0.332381924 8.22893815,0.30948156 C8.25862789,0.134221596 8.27524045,-0.0006704658 8.00806717,0.0147339782 C7.56007839,0.0405570575 7.10972123,0.0251869922 6.66035949,0.0271125495 C6.63602419,0.0252213782 6.61168889,0.0232614422 6.58735359,0.0213014989 C6.3853262,0.0235709015 6.14609219,-0.0553768831 5.99053862,0.0770394669 C5.35033881,0.621971767 4.60902233,0.489349108 3.87601211,0.441210212 C3.79610727,0.288816219 3.64460385,0.310478724 3.5190489,0.317252554 C2.56667793,0.368658018 1.61564556,0.223450479 0.661695716,0.316083466 C0.194005262,0.361471571 0.039412736,0.462528864 0.14354989,0.91696005 C0.278028916,1.50373881 0.227642184,2.08463775 0.212265306,2.67014426 L0.212299626,2.67014426 L0.212265306,2.67014426 C0.174475261,2.84028088 0.114855539,3.00704776 0.133630427,3.18588377 C0.0692054366,3.43207984 -0.0704220954,3.6691639 0.042982368,3.93691931 C0.0276398173,3.95868498 0.029561928,3.97876577 0.0486800526,3.99723047 C0.04208996,4.27719254 0.05430909,4.55378489 0.192083159,4.80806141 C0.243224997,5.0528477 0.294401169,5.29756522 0.345543015,5.54231712 C0.392566049,5.88736984 0.154155811,6.22939673 0.334662497,6.57589357 C0.520763892,6.84519638 0.608528793,7.13261993 0.496051057,7.45683539 C0.42682079,7.63254235 0.09669847,7.54324472 0.128550569,7.82805503 C0.156489806,8.07768962 0.168022463,8.3292154 0.186797351,8.57988149 C0.168468667,8.59917139 0.169635664,8.61722349 0.190332663,8.63393461 C0.19263233,8.70714005 0.19489767,8.78031117 0.197197337,8.85351669 C0.184394716,9.07674365 0.162736662,9.30344345 0.417347531,9.42289671 C0.466532946,9.50291041 0.515821328,9.58288973 0.565006735,9.66286911 C0.566311027,9.7364872 0.567512345,9.81010536 0.568747989,9.88375784 C0.545305112,10.1285097 0.521896569,10.3732617 0.498453692,10.6180136 C0.468180467,10.7402863 0.437872915,10.8625248 0.407599691,10.9847632 C0.322065817,11.0266441 0.257125968,11.0833448 0.260832895,11.1894223 C0.191739922,11.2166207 0.185218477,11.274078 0.189783491,11.3368992 C0.105759845,11.6476702 0.136170364,11.9585786 0.188273257,12.269384 C0.188307585,12.2694528 0.188307585,12.2694872 0.188307585,12.2695903 C0.190881834,12.3328242 0.193456091,12.3960237 0.196030347,12.4592232 C0.198913506,12.8022472 0.201762352,13.1452369 0.204645518,13.4882265 C0.116125504,13.9716785 0.146810613,14.0070606 0.709302249,14.0697099 C0.842408336,14.0804381 0.976132249,14.1051952 1.10855187,14.0996249 C2.46611041,14.042374 3.82198711,14.0686784 5.1793397,14.1277517 C5.65204137,14.1483827 6.05633651,14.2057367 6.29313359,14.6666667 L6.44003763,14.6666667 C6.85624302,14.3666582 7.27248273,14.5040259 7.68872243,14.6666667 L7.8356608,14.6666667 C8.11100305,14.5699419 8.39859863,14.5269607 8.68183521,14.4631423 C9.29879808,14.3241928 9.91854116,14.5347317 10.5350578,14.4123214 C10.7349229,14.3726411 10.9453596,14.2698646 11.1429593,14.3221985 C11.6353626,14.4526205 12.1383717,14.3641137 12.6316332,14.4338807 C12.8157094,14.4599445 12.9955297,14.4658931 13.1030305,14.2729937 C13.1691374,14.2603056 13.2441683,14.239262 13.2195584,14.2076623 C13.1959096,14.1773004 13.1774436,14.1508928 13.1629935,14.1275454 C13.2090898,14.0520705 13.2726567,14.0084704 13.3463147,13.9858107 C13.3691397,13.9894212 13.3879489,13.9916906 13.3987608,13.9901089 C13.4888597,13.97663 13.5771052,13.9744293 13.6641493,13.979759 C13.8274256,14.0047225 13.990496,14.0379383 14.1521934,14.0775497 C14.2992692,14.1223877 14.4449719,14.1751686 14.5917044,14.2206942 C14.6166918,14.2221727 14.6417135,14.2236857 14.6666667,14.2251642 L14.6666667,13.710078 L14.6666667,12.974275 L14.6666667,12.7535238 C14.6177215,12.6957227 14.6261307,12.6130269 14.5872767,12.5513748 C14.5928371,12.4711891 14.5983974,12.3909691 14.6038892,12.3107835 C14.5967843,12.2179785 14.589748,12.1252424 14.5827117,12.0324719 C14.5998733,12.0248728 14.6134311,12.0103968 14.623179,11.9884592 C14.6317255,11.9134657 14.6279499,11.8384034 14.6288423,11.7634098 C14.6469994,11.6032448 14.5898166,11.4372345 14.6666667,11.2818146 L14.6666667,11.0610633 L14.6666667,10.9138959 C14.5846338,10.6994027 14.6552713,10.4743189 14.6209136,10.2566624 C14.6143579,10.2416706 14.6096898,10.2261286 14.6060859,10.2102428 C14.6798469,10.0352922 14.5701493,9.83475937 14.6666667,9.66297222 L14.6666667,9.14788607 C14.644837,9.12924943 14.6215657,9.11295095 14.5971275,9.09847495 C14.595274,9.09022253 14.5939697,9.08186701 14.5919103,9.07368337 L14.5888212,8.3501902 C14.4538617,8.342763 14.3188678,8.33533587 14.1839426,8.32794314 C14.1984613,8.2844806 14.2129115,8.24101806 14.2274646,8.19758984 C14.3561773,8.16880966 14.442329,8.11001143 14.4384848,7.95679221 C14.4336452,7.7653026 14.443599,7.57350345 14.4471686,7.38184187 C14.4905534,7.16016224 14.4885969,6.93896405 14.4395145,6.71835039 L14.4395145,6.718316 C14.4497085,6.47803413 14.3505483,6.284894 14.1828099,6.12132488 C14.0763731,5.93929109 13.9652683,5.7574636 14.1602938,5.56322316 C14.3845971,5.44586741 14.2243069,5.26716895 14.2314805,5.11518757 L14.3738882,5.01949432 L14.3739225,5.01949432 C14.4715039,4.97297152 14.5690853,4.92651748 14.6666667,4.88002906 L14.6666667,4.65927784 L14.6666667,4.14419165 L14.6666667,3.92344043 L14.6666667,2.89326805 L14.6666667,2.8196843 L14.6666667,2.59893308 L14.6666667,2.30459812 L14.6666667,1.86309567 C14.6413017,1.84064231 14.6336133,1.79807377 14.5945876,1.79102486 C14.6709914,1.57556892 14.5361005,1.33628422 14.6666667,1.12729264 L14.6666667,0.68575581 Z" id="path-2"></path>
                </g>
                <g id="path-2-link">
                    <circle id="椭圆形备份" cx="11" cy="11" r="11"></circle>
                    <path d="M15.3717057,8.08996076 C15.3823803,8.10151409 15.3938443,8.11024787 15.4060977,8.11640277 C15.3747262,8.35665024 15.3433202,8.59689772 15.3119487,8.8371452 C15.1599647,8.89109515 15.0280943,8.83656065 14.900274,8.7605012 L14.9002397,8.7605012 C14.603411,8.45629776 14.2161403,8.27601759 13.8860179,8.01744295 C13.6605476,7.84833789 13.4350773,7.67923282 13.2096414,7.51012775 C12.9971796,7.27101498 12.7286677,7.10321654 12.4682906,6.92503386 C12.4656819,6.92383038 12.4637255,6.92269568 12.4611856,6.9215266 C13.2847409,6.69510186 14.0792929,6.335745 14.9584178,6.36930468 C15.0657814,6.58868051 15.2389085,6.70940598 15.4570679,6.76246192 C15.4672963,6.78151117 15.4779022,6.80111059 15.4892976,6.82174154 C15.5193992,6.89584105 15.5481622,6.97083458 15.6090176,7.0241656 C15.444334,7.35990001 15.3478853,7.7112108 15.3717057,8.08996076 L15.3717057,8.08996076 Z M10.664322,12.0926756 C10.4885863,11.8986759 10.2924625,11.7251695 10.0838793,11.5640417 C9.83534361,11.2406859 9.54994465,10.951715 9.25469492,10.6718561 C9.14190828,10.5135823 9.01601009,10.3677214 8.8803984,10.2311445 C8.84075489,10.1757503 8.79376618,10.1300871 8.73775041,10.0938798 C8.68365675,10.0442968 8.62836179,9.99588282 8.57179685,9.94867229 C8.57371896,9.94764078 8.57550377,9.94702185 8.57749452,9.94595587 C8.58909583,9.89613218 8.58727669,9.84352321 8.55343383,9.80707515 C8.10788197,9.32750863 7.67005286,8.84023984 7.1775466,8.40819325 C7.18396508,8.29908988 7.08662395,8.235409 7.01914418,8.16818646 C6.49869869,7.6496274 5.99719971,7.111744 5.45183543,6.61883609 C5.41833581,6.59634835 5.39345135,6.56529876 5.37100386,6.53194538 C5.37563752,6.47156545 5.42458267,6.42851553 5.54986302,6.40829719 C5.68245426,6.38687538 5.8116818,6.33722355 5.92505195,6.25796629 C5.95312848,6.25005776 5.98144527,6.24345585 6.01031124,6.23915774 C6.04288413,6.23176498 6.0742557,6.22076181 6.10367085,6.20456651 C6.19174465,6.16096642 6.26499075,6.12912598 6.32955305,6.11021427 C6.45984461,6.10326851 6.58128075,6.13693136 6.69660733,6.19834283 C6.75684487,6.25119246 6.82236821,6.32426043 6.90110606,6.41998806 C7.01334353,6.54418642 7.13800606,6.63320899 7.30804411,6.59263478 C7.50547223,6.7848809 7.82989687,6.82799959 7.9610122,7.07732469 C8.08169322,7.30687846 8.24661709,7.42089888 8.48108014,7.47137594 L8.48108014,7.47134156 C8.60841989,7.55307452 8.6832792,7.7132739 8.85801955,7.72403638 L9.65933335,8.20236509 L10.0336298,8.45478482 C10.0820944,8.4856281 10.1305247,8.516437 10.178955,8.54724589 C10.2782869,8.66044106 10.4036703,8.73625982 10.5385611,8.79829023 C10.7064712,8.91341097 10.8743469,9.02856608 11.0422225,9.14368681 C11.0493961,9.15197358 11.0567413,9.16029473 11.0648416,9.1688222 C11.156897,9.26520314 11.2843397,9.32389821 11.3573112,9.44097888 C11.4491949,9.50768564 11.5161255,9.64773546 11.6573319,9.56469587 C11.987214,9.86387908 12.382585,10.0644807 12.7560921,10.2980232 C12.8242583,10.3657959 12.9155929,10.4184736 12.9474107,10.5094561 C13.1142566,10.6913179 13.3284689,10.8107024 13.5318006,10.9429812 C13.5930335,10.9828333 13.6728354,11.0304221 13.7183826,10.9625462 C13.8421526,11.0449325 13.9659228,11.1273532 14.0896929,11.2097395 C14.0911345,11.2142439 14.0920956,11.2183357 14.0937774,11.223012 C14.3227144,11.608192 14.7606465,11.7310494 15.0758725,12.0077104 C15.1094407,12.0372127 15.1552968,12.030989 15.1861535,11.9962259 C15.2136465,12.0254875 15.2479012,12.0406856 15.2897757,12.039826 C15.2926589,12.038932 15.2955764,12.0381067 15.2984596,12.0372127 L15.6028393,12.1670502 C15.6795522,12.2720274 15.7844444,12.3382871 15.8923571,12.4004207 C15.9498488,12.4465653 16.0010936,12.4989679 16.0334949,12.570351 C16.13063,12.6512243 16.1962221,12.8079852 16.3590179,12.7277652 C16.5697291,12.8715286 16.73709,13.0368857 16.6511099,13.3282635 C16.6228274,13.4318309 16.5945792,13.5354671 16.5662968,13.6390689 C16.5264474,13.6823595 16.4902362,13.7326647 16.4583497,13.7912909 C16.4026772,13.9077527 16.3312502,14.0225295 16.4292435,14.1511635 C16.3337216,14.4415787 16.2382339,14.7319594 16.1427806,15.0223401 C16.0437576,15.2107007 15.9447689,15.3990613 15.8458146,15.5874219 C15.8400483,15.5879377 15.8343163,15.588144 15.8285843,15.5887285 C15.5992698,15.623251 15.3709163,15.6715274 15.1376202,15.637899 C14.8719916,15.5995598 14.6071866,15.5504238 14.3385032,15.6100472 C14.218131,15.6146892 14.0981022,15.6106661 13.9781076,15.6037892 C13.9718608,15.6024481 13.9655795,15.6011071 13.9592984,15.5998005 L13.3161125,14.9489626 C12.9926146,14.6018124 12.669048,14.2546622 12.3454814,13.9074776 C12.3366604,13.9035921 12.3282511,13.8989157 12.3200821,13.8939299 C12.3285257,13.8984688 12.3370379,13.9030076 12.3454814,13.9074776 C12.2217457,13.7613073 12.0979068,13.6151026 11.9741368,13.4688635 C11.9331203,13.3125496 11.8221184,13.225315 11.6795048,13.1693364 C11.4355341,12.9246877 11.1915979,12.6801077 10.9476272,12.4355277 L10.9274451,12.4355277 C10.9313236,12.4264845 10.9345501,12.4169599 10.9367125,12.40661 C10.8511099,12.2945151 10.7676354,12.1793944 10.664322,12.0926756 L10.664322,12.0926756 Z M5.86721704,13.7554275 C5.96201823,13.6121111 6.02222145,13.4541123 6.06416463,13.2883426 C6.07020555,13.2885833 6.07617781,13.2890647 6.08242467,13.2885489 C6.24292082,13.2025866 6.28881119,13.0748466 6.221606,12.9057416 C6.22191491,12.9026125 6.2221895,12.8997242 6.22242976,12.8966295 C6.24992279,12.9118277 6.2795782,12.9074264 6.30391348,12.8660613 C6.4288506,12.6539751 6.57997647,12.6646689 6.76968181,12.7516283 C6.79044747,12.7611873 6.80709431,12.7531413 6.8216131,12.7382182 C6.9331641,12.8491096 7.04471511,12.960001 7.15626611,13.0708579 C7.27931544,13.1911708 7.40236478,13.3114493 7.52541412,13.4317965 C7.62251497,13.5811991 7.74405408,13.7065321 7.89257137,13.8052512 C7.97261351,13.9154549 8.06384506,14.0135207 8.1863109,14.0777174 C8.33815756,14.266972 8.51969394,14.4239048 8.71530292,14.5655363 C8.73953523,14.5879209 8.76376754,14.6102367 8.78803417,14.6325869 C8.93754684,14.885213 9.30425789,14.9600689 9.33810075,15.3072536 C8.99998108,15.4330336 8.64370434,15.5052076 8.30177477,15.6196406 C8.14474528,15.6440883 7.98881414,15.679883 7.83456485,15.7333516 C7.41945783,15.7655015 7.00314949,15.8717508 6.59150912,15.7129957 C6.57850056,15.7107606 6.56583523,15.7073222 6.55341017,15.7034367 C6.34060517,15.3183255 5.96325388,15.1230535 5.58614284,14.9282629 C5.57824846,14.923449 5.57028544,14.9186351 5.56239105,14.9137869 C5.56156729,14.879952 5.56070921,14.8460485 5.55985112,14.8122138 C5.58844251,14.7184461 5.57563989,14.6175263 5.56300888,14.516641 C5.56709336,14.5145779 5.57117785,14.5121709 5.57526233,14.5094201 C5.59798441,14.4808118 5.61610716,14.4495903 5.62794872,14.4149303 C5.63093486,14.3963969 5.63508799,14.3781728 5.64003056,14.3601895 C5.66841599,14.3092998 5.68870111,14.2547654 5.69934136,14.195864 C5.70764762,14.1739608 5.71564498,14.1519544 5.72250965,14.1296042 C5.79527523,14.030163 5.83426659,13.9174493 5.84861377,13.7950733 C5.85575303,13.7824884 5.86199989,13.7692502 5.86721704,13.7554275 L5.86721704,13.7554275 Z M18.3333333,4.35242248 C18.0938934,4.24390365 17.9125629,3.97632016 17.6349211,3.99884228 C17.1712808,4.03635623 16.6710861,3.74594115 16.24376,4.13810123 C16.2388517,4.14260565 16.2209349,4.13294349 16.209059,4.12991761 C16.2261864,3.92347052 16.108972,3.85855178 15.9253762,3.83836783 C15.4319776,3.78400526 14.9387848,3.73810138 14.4416793,3.77014814 C14.3922879,3.76801627 14.3429309,3.76581563 14.2935739,3.76364939 C14.2466881,3.75113327 14.2004888,3.7337345 14.1527793,3.7268919 C13.7574425,3.67046624 13.621316,3.66427695 13.4722152,3.84331926 C13.4178813,3.88416855 13.3730549,3.9445141 13.3419923,4.03339913 C13.3178286,4.07321688 13.2920518,4.11705765 13.2638723,4.16557478 C13.2121469,4.25466613 13.1104467,4.22815535 13.0449577,4.27997343 C12.8791071,4.25552575 12.6417952,4.37821117 12.5577716,4.22605787 C12.3918867,3.92563678 12.1367953,3.99904859 11.8956048,3.97614823 C11.9252946,3.80088826 11.9419071,3.6659962 11.6747338,3.68140064 C11.2267451,3.70722372 10.7763879,3.69185366 10.3270262,3.69377922 C10.3026909,3.69188804 10.2783556,3.68992811 10.2540203,3.68796817 C10.0519929,3.69023757 9.81275885,3.61128978 9.65720529,3.74370613 C9.01700548,4.28863843 8.275689,4.15601577 7.54267878,4.10787688 C7.46277394,3.95548289 7.31127052,3.97714539 7.18571557,3.98391922 C6.2333446,4.03532468 5.28231223,3.89011715 4.32836238,3.98275013 C3.86067193,4.02813824 3.7060794,4.12919553 3.81021656,4.58362672 C3.94469558,5.17040547 3.89430885,5.75130441 3.87893197,6.33681093 L3.87896629,6.33681093 L3.87893197,6.33681093 C3.84114193,6.50694754 3.78152221,6.67371443 3.80029709,6.85255044 C3.7358721,7.0987465 3.59624457,7.33583057 3.70964903,7.60358598 C3.69430648,7.62535164 3.69622859,7.64543244 3.71534672,7.66389714 C3.70875663,7.94385921 3.72097576,8.22045156 3.85874983,8.47472808 C3.90989166,8.71951437 3.96106784,8.96423188 4.01220968,9.20898379 C4.05923272,9.55403651 3.82082248,9.89606339 4.00132916,10.2425602 C4.18743056,10.511863 4.27519546,10.7992866 4.16271772,11.1235021 C4.09348746,11.299209 3.76336514,11.2099114 3.79521724,11.4947217 C3.82315647,11.7443563 3.83468913,11.9958821 3.85346402,12.2465482 C3.83513533,12.2658381 3.83630233,12.2838902 3.85699933,12.3006013 C3.859299,12.3738067 3.86156434,12.4469778 3.863864,12.5201834 C3.85106138,12.7434103 3.82940333,12.9701101 4.0840142,13.0895634 C4.13319961,13.1695771 4.18248799,13.2495564 4.2316734,13.3295358 C4.23297769,13.4031539 4.23417901,13.476772 4.23541466,13.5504245 C4.21197178,13.7951764 4.18856324,14.0399283 4.16512036,14.2846802 C4.13484713,14.406953 4.10453958,14.5291915 4.07426636,14.6514298 C3.98873248,14.6933107 3.92379263,14.7500115 3.92749956,14.8560889 C3.85840659,14.8832874 3.85188514,14.9407446 3.85645016,15.0035659 C3.77242651,15.3143368 3.80283703,15.6252453 3.85493992,15.9360507 C3.85497425,15.9361195 3.85497425,15.9361539 3.85497425,15.936257 C3.8575485,15.9994909 3.86012276,16.0626904 3.86269701,16.1258899 C3.86558017,16.4689139 3.86842902,16.8119035 3.87131218,17.1548931 C3.78279217,17.6383452 3.81347728,17.6737273 4.37596892,17.7363766 C4.509075,17.7471048 4.64279892,17.7718619 4.77521854,17.7662915 C6.13277708,17.7090407 7.48865377,17.7353451 8.84600637,17.7944184 C9.31870804,17.8150493 9.72300318,17.8724034 9.95980025,18.3333333 L10.1067043,18.3333333 C10.5229097,18.0333248 10.9391494,18.1706926 11.3553891,18.3333333 L11.5023275,18.3333333 C11.7776697,18.2366086 12.0652653,18.1936274 12.3485019,18.129809 C12.9654647,17.9908595 13.5852078,18.2013984 14.2017245,18.078988 C14.4015895,18.0393078 14.6120262,17.9365313 14.809626,17.9888652 C15.3020292,18.1192872 15.8050384,18.0307804 16.2982998,18.1005474 C16.4823761,18.1266111 16.6621963,18.1325597 16.7696972,17.9396603 C16.835804,17.9269723 16.910835,17.9059287 16.8862251,17.8743289 C16.8625763,17.8439671 16.8441103,17.8175595 16.8296602,17.7942121 C16.8757565,17.7187372 16.9393234,17.6751371 17.0129813,17.6524774 C17.0358064,17.6560878 17.0546156,17.6583573 17.0654275,17.6567755 C17.1555264,17.6432967 17.2437718,17.641096 17.3308159,17.6464256 C17.4940922,17.6713891 17.6571627,17.7046049 17.8188601,17.7442164 C17.9659358,17.7890544 18.1116386,17.8418352 18.258371,17.8873608 C18.2833585,17.8888394 18.3083802,17.8903523 18.3333333,17.8918309 L18.3333333,17.3767447 L18.3333333,16.6409417 L18.3333333,16.4201905 C18.2843882,16.3623894 18.2927974,16.2796936 18.2539433,16.2180415 C18.2595038,16.1378558 18.2650641,16.0576358 18.2705559,15.9774501 C18.2634509,15.8846452 18.2564147,15.7919091 18.2493783,15.6991385 C18.26654,15.6915395 18.2800977,15.6770635 18.2898456,15.6551259 C18.2983921,15.5801323 18.2946166,15.50507 18.295509,15.4300765 C18.3136661,15.2699115 18.2564833,15.1039011 18.3333333,14.9484812 L18.3333333,14.72773 L18.3333333,14.5805626 C18.2513005,14.3660694 18.321938,14.1409856 18.2875802,13.9233291 C18.2810245,13.9083372 18.2763565,13.8927953 18.2727526,13.8769094 C18.3465135,13.7019589 18.236816,13.501426 18.3333333,13.3296389 L18.3333333,12.8145527 C18.3115037,12.7959161 18.2882324,12.7796176 18.2637941,12.7651416 C18.2619407,12.7568892 18.2606364,12.7485337 18.258577,12.74035 L18.2554879,12.0168569 C18.1205284,12.0094297 17.9855345,12.0020025 17.8506093,11.9946098 C17.865128,11.9511473 17.8795782,11.9076847 17.8941313,11.8642565 C18.022844,11.8354763 18.1089957,11.7766781 18.1051515,11.6234589 C18.1003119,11.4319693 18.1102657,11.2401701 18.1138353,11.0485085 C18.15722,10.8268289 18.1552636,10.6056307 18.1061811,10.3850171 L18.1061811,10.3849827 C18.1163752,10.1447008 18.017215,9.95156067 17.8494766,9.78799155 C17.7430397,9.60595775 17.631935,9.42413027 17.8269604,9.22988983 C18.0512638,9.11253407 17.8909735,8.93383561 17.8981472,8.78185424 L18.0405548,8.68616099 L18.0405892,8.68616099 C18.1381706,8.63963819 18.235752,8.59318415 18.3333333,8.54669573 L18.3333333,8.3259445 L18.3333333,7.81085831 L18.3333333,7.59010709 L18.3333333,6.55993471 L18.3333333,6.48635097 L18.3333333,6.26559975 L18.3333333,5.97126479 L18.3333333,5.52976233 C18.3079684,5.50730898 18.3002799,5.46474044 18.2612542,5.45769153 C18.3376581,5.24223558 18.2027671,5.00295088 18.3333333,4.79395931 L18.3333333,4.35242248 Z" id="path-2" fill="url(#linearGradient-1)" fill-rule="nonzero"></path>
                </g>
            </g>
        </g>
    </g>
</svg>