<?xml version="1.0" encoding="UTF-8"?>
<svg width="16px" height="16px" viewBox="0 0 16 16" version="1.1" xmlns="http://www.w3.org/2000/svg" xmlns:xlink="http://www.w3.org/1999/xlink">
    <title>钱包@3x</title>
    <defs>
        <filter x="-20.8%" y="-20.8%" width="141.7%" height="141.7%" filterUnits="objectBoundingBox" id="filter-1">
            <feOffset dx="0" dy="1" in="SourceAlpha" result="shadowOffsetOuter1"></feOffset>
            <feColorMatrix values="0 0 0 0 1   0 0 0 0 0.588235294   0 0 0 0 0.250980392  0 0 0 1 0" type="matrix" in="shadowOffsetOuter1" result="shadowMatrixOuter1"></feColorMatrix>
            <feMerge>
                <feMergeNode in="shadowMatrixOuter1"></feMergeNode>
                <feMergeNode in="SourceGraphic"></feMergeNode>
            </feMerge>
        </filter>
        <linearGradient x1="50%" y1="98.8040433%" x2="50%" y2="0%" id="linearGradient-2">
            <stop stop-color="#FFC855" offset="0%"></stop>
            <stop stop-color="#FF7300" offset="100%"></stop>
        </linearGradient>
        <path d="M10.9412164,12 L1.05726426,12 C0.462101554,11.9745368 -0.00645856239,11.4692941 -2.55795385e-13,10.856838 L-2.55795385e-13,4.27125976 C0.0170347025,3.76065633 0.35507668,3.32108171 0.835383429,3.1857249 L1.73390758,3.1857249 L2.12415682,1.64319325 C2.24684387,1.16207347 2.66058636,0.820331013 3.14480866,0.798888349 C3.23356099,0.798888349 3.32361851,0.812290014 3.4084553,0.839093345 L4.13152578,1.01063466 L4.18764858,0.667552032 C4.25682319,0.406219563 4.44215895,0.193133089 4.68883823,0.0966411007 C4.82327191,0.0309729419 4.96945223,-0.00253122073 5.1182429,0.000149112285 C5.21874187,0.000149112285 5.31924084,0.0122106108 5.41582426,0.0376737744 L9.76468862,1.23846296 C10.0492182,1.30145079 10.2932871,1.49041427 10.4329415,1.7530869 C10.6078358,2.0010177 10.6496016,2.32399783 10.5438819,2.61079346 C10.4699216,2.90781998 10.4329415,3.05633323 10.4329415,3.05633323 C10.7439845,3.04990348 11.0434925,3.11090292 11.3314656,3.23933156 C11.7191045,3.42427453 11.9605631,3.82900482 11.9435957,4.26857943 L11.9997185,5.69719693 L7.6424637,5.69719693 C6.73927818,5.67575426 5.99010407,6.41150567 5.97052635,7.33890089 L5.97052635,7.41529039 C5.94964344,8.33866511 6.66618802,9.10792068 7.56937354,9.12802318 L11.9997185,9.12802318 L11.9997185,10.8420961 C12.0114651,11.4599129 11.5415998,11.9745368 10.9412164,12 Z" id="path-3"></path>
        <linearGradient x1="50%" y1="98.8040433%" x2="50%" y2="0%" id="linearGradient-4">
            <stop stop-color="#FFC855" offset="0%"></stop>
            <stop stop-color="#FF7300" offset="100%"></stop>
        </linearGradient>
        <path d="M11.0463767,8.56515325 L7.64507406,8.56515325 C7.02902845,8.56515325 6.53044916,8.05186948 6.53044916,7.42065105 C6.53044916,6.78943263 7.03033363,6.27614886 7.64507406,6.27614886 L11.0463767,6.27614886 L11.0463767,8.56515325 Z" id="path-5"></path>
    </defs>
    <g id="页面-1" stroke="none" stroke-width="1" fill="none" fill-rule="evenodd">
        <g id="首页优化2备份" transform="translate(-11.000000, -296.000000)">
            <g id="钱包" transform="translate(12.000000, 297.000000)">
                <rect id="矩形" fill="#685C50" fill-rule="nonzero" opacity="0" x="0" y="0" width="14" height="14"></rect>
                <g id="编组-3" filter="url(#filter-1)" transform="translate(1.000000, 1.000000)">
                    <rect id="矩形" fill="#F5F5F5" x="4.99993403" y="5" width="7" height="5"></rect>
                    <g id="路径" fill-rule="nonzero">
                        <use fill="#FFBC4A" xlink:href="#path-3"></use>
                        <use fill="url(#linearGradient-2)" xlink:href="#path-3"></use>
                    </g>
                    <path d="M3.13306202,1.34165578 C2.8824672,1.34969678 2.66058636,1.51185693 2.57183403,1.7530869 L2.2938304,3.12407724 L8.92806736,3.12407724 L8.92806736,2.95253592 C8.77666632,2.84398244 8.60699274,2.76625278 8.42687771,2.72336745 L3.24139208,1.35237712 C3.204847,1.34567628 3.1696071,1.34165578 3.13306202,1.34165578 Z" id="路径" fill="#F5F5F5" fill-rule="nonzero"></path>
                    <path d="M5.29705275,0.550957546 C5.14956726,0.538896047 4.9994714,0.558998545 4.85981699,0.608584706 C4.80369419,0.608584706 4.74887657,0.666211865 4.69275377,0.780126018 L4.63663098,1.12320864 L8.59524611,2.15245652 L8.60307719,2.15245652 C8.81582176,2.19400168 9.01943005,2.27173134 9.20868135,2.38162499 C9.51670416,2.59203113 9.55455442,2.81583894 9.48668499,2.95253592 L9.48668499,3.06645008 L9.87693422,3.06645008 L10.0439974,2.38028483 C10.0792373,2.24492801 10.0596596,2.10019003 9.98787464,1.97957504 C9.9278363,1.84421822 9.79862334,1.75576723 9.65374821,1.75040657 L5.30357866,0.549617379 L5.29705275,0.549617379 L5.29705275,0.550957546 Z" id="路径" fill="#F5F5F5" fill-rule="nonzero"></path>
                    <g id="路径" fill-rule="nonzero">
                        <use fill="#FFBC4A" xlink:href="#path-5"></use>
                        <use fill="url(#linearGradient-4)" xlink:href="#path-5"></use>
                    </g>
                    <path d="M7.64507406,6.84839995 C7.33705125,6.84839995 7.08906679,7.10437176 7.08906679,7.41931089 C7.08906679,7.73559018 7.33835643,7.99022182 7.64507406,7.99022182 C7.95309687,7.99022182 8.20108133,7.73425001 8.20108133,7.41931089 C8.21804869,7.12045375 7.99616785,6.86448195 7.7051124,6.84705979 C7.68553468,6.84571962 7.66465178,6.84571962 7.64507406,6.84839995 Z" id="路径" fill="#FFFFFF" fill-rule="nonzero"></path>
                </g>
            </g>
        </g>
    </g>
</svg>