<svg width="16" height="16" viewBox="0 0 16 16" fill="none" xmlns="http://www.w3.org/2000/svg">
<path fill-rule="evenodd" clip-rule="evenodd" d="M1.96865e-05 8C1.96865e-05 3.59996 3.59998 0 8.00008 0C12.4801 0 16 3.59996 16 8C16 12.4 12.4001 16 8.00008 16C6.39998 16 4.87996 15.44 3.59996 14.6399L4.80002 13.52C5.76006 14.08 6.88004 14.4 8.08002 14.4C11.6 14.4 14.4801 11.52 14.4801 8C14.4801 4.47998 11.6 1.60002 8.08002 1.60002C4.64 1.60002 1.92 4.16002 1.68 7.51996L4.80004 8.44441C2.39468 10.9129 1.1654 12.1041 1.11379 12.0177C0.382057 10.8056 -0.00317313 9.4159 1.96865e-05 8ZM11.0398 8.71812L7.39232 11.0518C7.25023 11.1426 7.10652 11.1871 6.96445 11.1871C6.56275 11.1871 6.27236 10.8292 6.27236 10.3344V5.66713C6.27236 5.17404 6.56426 4.81445 6.96445 4.81445C7.10654 4.81445 7.25023 4.86062 7.39232 4.94971L11.0398 7.28508C11.3009 7.45283 11.4522 7.71309 11.4522 8.00076C11.4522 8.28837 11.3024 8.55037 11.0398 8.71812Z" fill="white"/>
</svg>
