<?xml version="1.0" encoding="UTF-8"?>
<svg width="21px" height="19px" viewBox="0 0 21 19" version="1.1" xmlns="http://www.w3.org/2000/svg" xmlns:xlink="http://www.w3.org/1999/xlink">
    <title>篮精选</title>
    <defs>
        <linearGradient x1="50%" y1="99.9781469%" x2="50%" y2="2.31370192%" id="linearGradient-1">
            <stop stop-color="#569FFD" offset="0%"></stop>
            <stop stop-color="#9AC6FF" offset="100%"></stop>
        </linearGradient>
    </defs>
    <g id="页面-1" stroke="none" stroke-width="1" fill="none" fill-rule="evenodd">
        <g id="画板" transform="translate(0.000000, -446.000000)" fill="url(#linearGradient-1)" fill-rule="nonzero">
            <g id="形状" transform="translate(0.000000, 446.000000)">
                <path d="M20.5231851,5.08671543 L18.1699911,0.880213933 C17.8489257,0.328484933 17.2623573,-0.00700626686 16.631638,0.000111032328 L4.09471227,0.000111032328 C3.44948167,0.000111032328 2.85881107,0.339033633 2.55517307,0.880213933 L0.204351286,5.08671543 C-0.0999558242,5.62848963 -0.0618431542,6.30154363 0.301610306,6.80426973 L8.21991827,17.9171477 C9.24825457,19.3610987 11.4792818,19.3610987 12.5076181,17.9171477 L13.5822117,16.4081105 L15.496554,13.7251098 L18.2411563,9.87055633 L19.9609805,7.45754313 L20.4235539,6.80668043 C20.7900544,6.29563263 20.826823,5.63392223 20.5231851,5.08792073 L20.5231851,5.08671543 Z M14.7777861,10.4201737 L11.6785442,14.770106 C11.3714398,15.1950023 10.8831456,15.4453439 10.3643613,15.4438825 C9.84248357,15.4438825 9.35025797,15.1907562 9.05136437,14.7689007 L5.94975037,10.4201737 C5.70955847,10.0425036 5.80203077,9.53988423 6.16027277,9.27591093 C6.51851487,9.01193753 7.01736627,9.07883553 7.29595757,9.42821073 L10.3643613,13.7347522 L13.4315788,9.42821073 C13.605951,9.18383803 13.8953703,9.05256183 14.1908153,9.08383273 C14.4862604,9.11510353 14.7428461,9.30417063 14.863919,9.57981423 C14.9849919,9.85545773 14.9521582,10.175801 14.7777861,10.4201737 L14.7777861,10.4201737 Z"></path>
            </g>
        </g>
    </g>
</svg>