<?xml version="1.0" encoding="UTF-8"?>
<svg width="130px" height="36px" viewBox="0 0 130 36" version="1.1" xmlns="http://www.w3.org/2000/svg" xmlns:xlink="http://www.w3.org/1999/xlink">
    <title>编组 43</title>
    <g id="页面logo展示" stroke="none" stroke-width="1" fill="none" fill-rule="evenodd">
        <g id="logo位置" transform="translate(-67.000000, -64.000000)">
            <g id="编组-43" transform="translate(67.000000, 64.000000)">
                <g id="编组-47" fill="#FFB001">
                    <path d="M18.0002013,0 C27.9412718,0 36,8.05872815 36,17.9997987 L36,17.9997987 L35.9970238,18.3304623 C35.8206848,28.1189661 27.8308155,36 18.0002013,36 L18.0002013,36 L17.6695377,35.9970236 C7.88103387,35.8206759 0,27.830413 0,17.9997987 L0,17.9997987 L0.00297638971,17.6691353 C0.179324132,7.88064021 8.16958705,0 18.0002013,0 Z M17.2920532,27.0610021 L17.2608314,27.0657123 C17.0226775,27.1567013 16.7829413,27.2378002 16.5424138,27.2967453 C16.5099742,27.3046574 16.4866336,27.3335365 16.4866336,27.3671628 L16.4866336,27.3671628 L16.4866336,28.6216244 L16.4790398,28.7686705 C16.3987807,29.5381357 15.694238,30.0651848 14.9346775,30.0651848 L14.9346775,30.0651848 L14.0825457,30.0651848 L14.0297467,30.0736982 C13.9633105,30.0957888 13.915205,30.1583892 13.915205,30.2321299 L13.915205,30.2321299 L13.915205,30.9908991 L13.9237596,31.0436569 C13.9459514,31.1099919 14.008805,31.1578442 14.0825457,31.1578442 L14.0825457,31.1578442 L20.0071171,31.1578442 L20.0457894,31.1505837 C20.1150121,31.1227161 20.1333714,31.0218128 20.0625017,30.9746793 C18.7245676,30.0928771 17.7383259,28.7236903 17.3577545,27.1167453 C17.3474687,27.07402 17.3023698,27.0498881 17.2608314,27.0657123 Z M20.7125588,29.7242134 C20.6777457,29.720653 20.6437237,29.7352903 20.6219654,29.762587 L20.6219654,29.762587 L20.4020094,30.0450486 L20.38328,30.0833171 C20.3730067,30.1239469 20.3877676,30.1689716 20.4245588,30.1941914 C21.317438,30.806587 22.3812182,31.1578837 23.5470643,31.1578837 C23.6724709,31.1578837 23.7955039,31.1491804 23.9185369,31.1400815 C23.9418775,31.1290046 23.9628446,31.1191145 23.9857896,31.1080376 L23.9857896,31.1080376 L24.2255259,30.8532683 L24.2423391,30.8242841 C24.2517594,30.7929634 24.239372,30.7571365 24.2085149,30.7393343 L24.2085149,30.7393343 L22.8191523,29.9469387 L22.7988281,29.9404112 L22.7988281,29.9404112 L22.7788006,29.9338837 Z M25.4546219,27.284861 L25.4255523,27.2926705 L23.2857281,28.2124508 L23.2585632,28.2298134 C23.2425632,28.2440552 23.2311347,28.26322 23.2263874,28.2848464 L23.2263874,28.2848464 L22.936805,29.6465167 L22.936849,29.6888903 C22.9427391,29.7163189 22.9598819,29.7409343 22.9854643,29.7557035 L22.9854643,29.7557035 L24.3870907,30.5698574 L24.4167757,30.5813152 C24.4373764,30.5857694 24.4590907,30.5838354 24.4788709,30.5753958 L24.4788709,30.5753958 L26.4679698,29.7090222 L26.4941237,29.6926998 C26.5095962,29.6793079 26.520849,29.6612859 26.5261237,29.6409782 L26.5261237,29.6409782 L26.9193545,28.1115716 L26.9221608,28.0771602 C26.9190825,28.0432063 26.8989808,28.0119782 26.8675303,27.9956596 L26.8675303,27.9956596 L25.5125852,27.2954398 L25.4843068,27.2858427 C25.464761,27.2822969 25.4442775,27.2844947 25.4255523,27.2926705 Z M18.3737266,26.5363028 L18.3356021,26.5364053 L18.3356021,26.5364053 L18.3017852,26.5567277 L18.1348402,26.7319804 L18.1209501,26.7519804 C18.1140929,26.7665738 18.1121588,26.7832771 18.1158512,26.7996288 C18.3975215,28.0766398 19.0811259,29.1518925 20.0740929,29.9312332 C20.118005,29.9660464 20.1824885,29.9581343 20.2180929,29.9150134 L20.2180929,29.9150134 L20.440027,29.6440244 L20.458679,29.6095189 C20.4663567,29.5848156 20.4644226,29.5576508 20.4522907,29.5336508 L20.4522907,29.5336508 L19.5479391,27.7352332 L19.5297413,27.7099145 L18.4078072,26.5563321 L18.3737266,26.5363028 Z M28.3658819,26.2476024 C28.3279039,26.2448332 28.2919039,26.2634266 28.2717281,26.2954705 L28.2717281,26.2954705 L27.1948929,28.0361299 L27.1826292,28.065009 L26.7965193,29.6304156 L26.7957961,29.6625461 C26.8019341,29.693292 26.8273764,29.7181409 26.8606072,29.7214046 L26.8606072,29.7214046 L27.183816,29.7526574 L27.2241182,29.7396024 L27.2241182,29.7396024 L27.2641237,29.7265475 C28.2159479,28.8708552 28.8643435,27.7374486 29.0482995,26.4094046 C29.0562116,26.3504596 29.0119039,26.2966574 28.9529588,26.2919101 L28.9529588,26.2919101 Z M23.6479728,23.2907555 L23.6139215,23.2990046 L21.6097896,24.1895101 L21.5803244,24.209261 C21.563416,24.2255541 21.552427,24.2475321 21.5500534,24.2717958 L21.5500534,24.2717958 L21.3055698,26.5872683 L21.3081486,26.6223453 C21.3138336,26.6450266 21.3271962,26.665598 21.3467127,26.6798398 L21.3467127,26.6798398 L23.0968665,27.9679277 L23.1283684,27.9835614 C23.1507567,27.9901255 23.1751962,27.9888947 23.1973501,27.9794002 L23.1973501,27.9794002 L25.3027567,27.0718837 L25.3325295,27.0521182 C25.3496138,27.0357958 25.3607786,27.0137299 25.3636797,26.9892024 L25.3636797,26.9892024 L25.6129105,24.7212024 L25.6103757,24.6851731 C25.6045149,24.6619936 25.5906248,24.6411585 25.5705808,24.626653 L25.5705808,24.626653 L23.714405,23.3088947 L23.6824636,23.2941987 C23.6599874,23.2881035 23.6358116,23.2895101 23.6139215,23.2990046 Z M21.0042961,23.8558821 C20.9749781,23.8445332 20.9404863,23.8529892 20.9200138,23.8805826 C20.323838,24.6797035 19.4930687,25.4899013 18.4906072,26.1913079 C18.453816,26.2166266 18.4482775,26.2684508 18.4791347,26.3008903 L18.4791347,26.3008903 L18.7742556,26.6114398 L19.6137281,27.4908683 L19.6429843,27.512163 C19.6751209,27.5276843 19.7142116,27.5256815 19.7450687,27.5043189 L19.7450687,27.5043189 L21.0066512,26.6367585 L21.028261,26.6000167 L21.028261,26.6000167 L21.0501676,26.5635716 L21.2926731,24.2235716 L21.2908563,24.1813738 C21.2856402,24.1538574 21.2726292,24.1280991 21.2531127,24.1072639 L21.2531127,24.1072639 L21.0311786,23.8738574 Z M14.5740841,5.40002091 C12.4113149,5.39450351 10.3510072,6.48122878 8.73456764,8.52215186 C7.11773247,10.5630749 6.30436984,13.0486574 6.30436984,16.0489211 C6.23039181,18.4660639 7.10507313,21.2214486 8.21672149,22.8671628 C9.32836984,24.5132727 11.4476226,26.6764376 14.6033588,26.6661884 C17.7594907,26.6562618 19.4882819,24.6529211 20.2434907,23.8371848 C20.9986995,23.0214486 21.9109632,21.4825475 22.5146556,19.2675585 C23.0649413,17.1475145 23.0325017,14.8799101 22.425249,12.5074705 C22.4062599,12.4330969 22.3378204,12.3800859 22.2610731,12.3800859 L22.2610731,12.3800859 L20.2367654,12.3800859 L20.186205,12.3879522 C20.1069193,12.4134376 20.0553808,12.4971189 20.074172,12.5838222 C20.2965017,13.6025035 20.4685896,14.5199101 20.4670072,15.6291848 C20.4745237,16.9548552 20.3712709,18.0431628 20.1054248,19.4218442 C19.8842819,20.5687013 19.2485457,22.161009 18.6254687,23.1302398 C17.1554028,25.4164376 15.3874468,25.4714266 14.5930731,25.4714266 C12.8373808,25.4714266 11.2114468,24.3463277 10.2758424,22.6444376 C9.33984236,20.9429431 8.71043577,18.2378002 8.73456764,15.9713826 C8.73456764,13.5823277 9.23263357,11.2830749 10.3510072,9.31019582 C11.4689852,7.3377123 13.0027435,6.58922878 14.5582599,6.58922878 C16.1137764,6.58922878 17.0256446,7.1399101 17.7294248,7.80175626 C18.0019962,8.05850351 18.6310072,8.90707494 18.8909193,9.40118483 C18.9498643,9.51314087 19.0630072,9.58593208 19.1896006,9.58593208 L19.1896006,9.58593208 L20.9168094,9.58593208 L20.9690522,9.57793695 C21.0665578,9.54692064 21.1186807,9.43153334 21.0623918,9.3359101 C20.4456446,8.28993208 18.2634907,5.39529472 14.5740841,5.40002091 Z M27.9052402,22.1342266 C27.8731962,22.0938749 27.815438,22.0839848 27.7715259,22.1100947 L27.7715259,22.1100947 L27.5013281,22.2715013 L27.4739142,22.2953841 C27.4589105,22.3142266 27.4508226,22.3382266 27.4518775,22.3632815 L27.4518775,22.3632815 L27.527438,24.0889079 L28.2968885,25.9656552 L28.3173281,25.9968933 C28.3344709,26.014798 28.3579435,26.0263145 28.3835259,26.0281607 L28.3835259,26.0281607 L29.0153061,26.0756332 L29.0441852,26.0721346 C29.0712594,26.0631222 29.0916577,26.0386442 29.0940314,26.0083804 C29.1058995,25.8683365 29.111438,25.7421387 29.111438,25.5933914 C29.111438,24.2855233 28.6600534,23.0840727 27.9052402,22.1342266 Z M25.4966116,20.9749826 L25.4656665,20.9777958 L23.8009632,21.38962 L23.7692096,21.4037134 C23.7407069,21.4226282 23.7228278,21.4548947 23.7234105,21.4904991 L23.7234105,21.4904991 L23.7523039,22.994587 L23.7576665,23.0258984 C23.7644358,23.0457958 23.7773588,23.0632903 23.7950292,23.0756859 L23.7950292,23.0756859 L25.7287435,24.4456639 L25.755586,24.4593196 C25.7745457,24.46562 25.795205,24.4662354 25.8149852,24.4606969 L25.8149852,24.4606969 L27.2019742,24.072609 L27.2330663,24.057712 C27.2608451,24.0380925 27.2778314,24.0054552 27.2763479,23.9701475 L27.2763479,23.9701475 L27.2094907,22.3572683 L27.1711171,22.2813123 L25.5534907,20.9967848 L25.5265017,20.9814002 C25.5073369,20.9741035 25.486238,20.9727848 25.4656665,20.9777958 Z M22.6408138,10.5147256 L14.0823083,10.5147256 L14.0295505,10.5232397 C13.9632156,10.5453319 13.9153632,10.6079365 13.9153632,10.6816771 L13.9153632,10.6816771 L13.9153632,11.260842 L13.9240444,11.3139258 C13.9465527,11.380805 14.0102292,11.4296068 14.0842863,11.4305563 L14.0842863,11.4305563 L15.1231435,11.4305563 L15.2431565,11.4348367 C15.8835444,11.4935559 16.5158106,12.1150682 16.5053852,12.7498969 L16.5053852,12.7498969 L16.5050602,13.16212 L16.5050602,13.16212 L16.504988,13.2251058 L16.5040792,13.9349835 L16.5040792,13.9349835 L16.5039516,14.0283967 L16.5030872,14.6416786 C16.5029823,14.7145058 16.5028747,14.7887963 16.5027643,14.8644519 L16.5020721,15.3339789 C16.5017115,15.5761461 16.50133,15.8288291 16.5009318,16.089374 L16.5009318,16.089374 L16.5001147,16.6201601 C16.4992779,17.159856 16.4983861,17.7239223 16.4974731,18.2911277 L16.4974731,18.2911277 L16.4966819,18.6262046 L16.4966819,24.0376771 L16.5036622,24.086617 C16.5353028,24.1933784 16.6678797,24.2448255 16.7641105,24.171787 C17.4318907,23.6630398 19.0408138,22.1427321 19.0582204,19.7192596 C19.0653413,18.7793035 19.0689017,17.685853 19.0692973,16.4385123 L19.0692973,16.4385123 L19.0692973,15.7865563 L19.0689605,15.2913668 C19.0679571,14.2865132 19.0650022,13.1948388 19.060594,12.016842 C19.0594072,11.6936332 19.3212973,11.4305563 19.6441105,11.4305563 L19.6441105,11.4305563 L22.9292094,11.4305563 L23.0829823,11.4371204 C23.1852534,11.4460288 23.2867039,11.4643145 23.3853413,11.493853 C23.6907479,11.5856332 24.1567698,11.7976771 24.5013413,12.2759628 C25.0591435,13.0505563 25.4907479,14.0340288 25.4428797,15.8249299 C25.4428797,16.8748639 24.913561,18.7049299 23.6788797,19.3509519 C23.6401105,19.3715233 23.6519786,19.4296771 23.6954951,19.432842 C23.9114951,19.4510398 24.2940446,19.485853 24.5302204,19.5202705 C24.873605,19.5705123 25.1129457,19.5946442 25.5730336,19.7513035 C25.6347479,19.7722705 25.703583,19.7659409 25.7589676,19.7315233 C27.4612534,18.6772376 28.2528577,17.0196552 28.2212094,15.455831 C28.2485061,13.9604464 27.5538248,12.5394354 26.3947039,11.6069958 C25.235583,10.6745563 24.0309676,10.5135453 22.6408138,10.5147256 L22.6408138,10.5147256 Z M23.5471039,20.0287013 C23.2674116,20.0287013 23.0015654,20.052042 22.742049,20.0884376 C22.7123786,20.0927892 22.6886424,20.1141519 22.6815215,20.143031 C22.6158512,20.4068991 22.5323786,20.6948991 22.4287303,20.9995145 C22.4133017,21.0446134 22.4441588,21.0932727 22.4916314,21.0968332 L22.4916314,21.0968332 L23.6598512,21.1866354 L23.6762193,21.185053 L23.6762193,21.185053 L23.6922907,21.1834705 L25.2719391,20.789053 L25.3037995,20.7749536 C25.3416129,20.7496349 25.3595259,20.7005167 25.3427523,20.6549431 L25.3427523,20.6549431 L25.2228841,20.328965 L25.2071918,20.3007453 C25.1940929,20.2838661 25.1760709,20.2712068 25.1552358,20.2648771 C24.6460929,20.1113826 24.1060929,20.0287013 23.5471039,20.0287013 Z" id="形状结合"></path>
                </g>
                <path d="M57.767233,26.9344737 L57.9513719,26.9429315 C58.3140319,26.9766586 58.6418071,27.1106274 58.9135154,27.3335641 L59.0445992,27.4523942 L59.1325856,27.5465817 C59.4878777,27.9573526 59.5132557,28.4113475 59.5150684,29.2633853 L59.5150684,29.6710936 C59.5132664,30.5181337 59.4881772,30.9720793 59.138858,31.3806742 L59.0445992,31.4820794 L58.9135154,31.6007878 C58.6418071,31.8235505 58.3140319,31.957733 57.9513719,31.9915247 L57.767233,32 L57.5831114,31.9915247 C57.2205163,31.957733 56.8929555,31.8235505 56.6210727,31.6007878 L56.4898667,31.4820794 L56.4019598,31.3879658 C56.046989,30.9774694 56.0216339,30.5231756 56.0198229,29.6710936 L56.0198229,29.2633853 C56.0217733,28.3458061 56.0510291,27.8898625 56.4898667,27.4523942 C56.8268667,27.1160216 57.2689665,26.9344737 57.767233,26.9344737 Z M113.954045,26.9344737 L114.159194,26.9405145 C114.62052,26.9689077 114.965385,27.0988008 115.299295,27.3599311 L115.442037,27.4799658 L115.098229,27.8227011 L114.994257,27.7344454 C114.748759,27.5400477 114.479007,27.4267074 114.101718,27.4014098 L113.933196,27.3959787 L113.794569,27.4015905 C113.257588,27.4462089 112.932739,27.7535625 112.88594,28.2042485 L112.880071,28.319837 L112.886016,28.4380823 C112.901949,28.5901499 112.95022,28.7195005 113.034612,28.8219864 L113.104737,28.893749 L113.209183,28.9690252 C113.32456,29.0397576 113.470205,29.0963802 113.623418,29.1345867 L113.778312,29.1664951 L114.325937,29.250058 L114.491509,29.2777265 C114.802006,29.3361287 114.993698,29.4142453 115.157955,29.5358765 L115.23822,29.6004285 L115.334996,29.6920053 C115.5165,29.8853954 115.625243,30.139181 115.652609,30.4349304 L115.65947,30.5862168 L115.653161,30.7289138 C115.586171,31.4729838 114.990655,31.9423963 114.102997,31.9950467 L113.933196,32 L113.734533,31.9952512 C113.163965,31.9669061 112.749196,31.8098635 112.363593,31.4757768 L112.220112,31.3421009 L112.585621,30.9785809 L112.709187,31.0941586 C113.037538,31.3807837 113.360959,31.4978737 113.783806,31.5203551 L113.947237,31.5244972 L114.089397,31.519953 C114.688786,31.4807058 115.069099,31.1889966 115.120371,30.7135801 L115.126312,30.6006388 L115.119829,30.474391 C115.102501,30.3105329 115.050282,30.1657784 114.961281,30.0547068 L114.887604,29.9779464 L114.828089,29.929828 C114.710231,29.841899 114.592971,29.8011829 114.360705,29.7602581 L114.234453,29.7395587 L113.651937,29.6492089 L113.462617,29.6123762 C113.21963,29.5562905 113.01456,29.4723034 112.849298,29.3604148 L112.732846,29.2712669 L112.643988,29.183347 C112.450477,28.9689875 112.353721,28.6898787 112.353721,28.3406217 C112.353721,27.4939636 112.964321,26.9344737 113.954045,26.9344737 Z M62.4184921,26.9764672 L65.0710909,30.9577962 L65.0710909,26.9764672 L65.6050998,26.9764672 L65.6050998,31.9580064 L65.0995997,31.9580064 L62.4465755,27.9626796 L62.4465755,31.9580064 L61.9129921,31.9580064 L61.9129921,26.9764672 L62.4184921,26.9764672 Z M68.7262426,26.9764672 L68.7262426,31.4820794 L71.2809752,31.4820794 L71.2809752,31.9580064 L68.1926592,31.9580064 L68.1926592,26.9764672 L68.7262426,26.9764672 Z M72.7030762,26.9764672 L73.8825764,29.3620408 L75.0471838,26.9764672 L75.6228922,26.9764672 L74.1489425,29.9011703 L74.1489425,31.9580064 L73.6153592,31.9580064 L73.6153592,29.9011703 L72.1273679,26.9764672 L72.7030762,26.9764672 Z M84.2334762,26.9764672 L84.2334762,27.4523942 L82.7876099,27.4523942 L82.7876099,31.9580064 L82.254452,31.9580064 L82.254452,27.4523942 L80.8081602,27.4523942 L80.8081602,26.9764672 L84.2334762,26.9764672 Z M120.82942,26.9764672 L120.82942,27.4523942 L119.383979,27.4523942 L119.383979,31.9580064 L118.850396,31.9580064 L118.850396,27.4523942 L117.404955,27.4523942 L117.404955,26.9764672 L120.82942,26.9764672 Z M86.8418855,26.9764672 L86.8418855,29.2080644 L89.2140763,29.2080644 L89.2140763,26.9764672 L89.7472342,26.9764672 L89.7472342,31.9580064 L89.2140763,31.9580064 L89.2140763,29.6844157 L86.8418855,29.6844157 L86.8418855,31.9580064 L86.3083021,31.9580064 L86.3083021,26.9764672 L86.8418855,26.9764672 Z M95.4371513,26.9764672 L95.4371513,27.4523942 L92.8683771,27.4523942 L92.8683771,29.2080644 L95.0584518,29.2080644 L95.0584518,29.6844157 L92.8683771,29.6844157 L92.8683771,31.4820794 L95.4371513,31.4820794 L95.4371513,31.9580064 L92.3352192,31.9580064 L92.3352192,26.9764672 L95.4371513,26.9764672 Z M103.346077,26.9764672 L103.496801,26.9815907 C104.235907,27.0326616 104.752181,27.4630834 104.813828,28.1624192 L104.820027,28.3058391 L104.812357,28.446064 C104.766811,28.8577736 104.522704,29.1857943 104.195164,29.3490446 L104.083052,29.3972476 L104.19927,29.4459605 C104.576179,29.6246182 104.844471,29.9650181 104.890137,30.4350032 L104.897044,30.5798541 L104.890846,30.734635 C104.829197,31.4863122 104.312571,31.9038235 103.562532,31.9530761 L103.409478,31.9580064 L101.465345,31.9580064 L101.465345,26.9764672 L103.346077,26.9764672 Z M110.397611,26.9764672 L110.397611,27.4523942 L107.828837,27.4523942 L107.828837,29.2080644 L110.018486,29.2080644 L110.018486,29.6844157 L107.828837,29.6844157 L107.828837,31.4820794 L110.397611,31.4820794 L110.397611,31.9580064 L107.295679,31.9580064 L107.295679,26.9764672 L110.397611,26.9764672 Z M57.767233,27.4099765 L57.6270098,27.4180074 C57.3955561,27.4445711 57.1774072,27.535998 57.0032665,27.6768298 L56.9043086,27.7671339 L56.8447557,27.8318366 C56.6023108,28.1148258 56.558786,28.4433118 56.5538052,29.2679285 L56.5538052,29.6664713 C56.5591692,30.5542244 56.609235,30.8672484 56.9043086,31.1673398 C57.0906799,31.3593104 57.3492654,31.4845898 57.6270098,31.5164662 L57.767233,31.5244972 L57.9074809,31.5164662 C58.1390152,31.4899026 58.3574308,31.3984757 58.5318693,31.2576438 L58.6310083,31.1673398 L58.6904021,31.1026318 C58.9322045,30.8195984 58.9756834,30.4908134 58.980661,29.6664713 L58.981199,29.4672368 L58.980661,29.2679285 C58.9757129,28.4481912 58.9327177,28.1187306 58.6946737,27.8368649 L58.6310083,27.7671339 L58.5318693,27.6768298 C58.3225432,27.5078316 58.0498899,27.4099765 57.767233,27.4099765 Z M103.360545,29.6559958 L101.998503,29.6559958 L101.998503,31.4820794 L103.360545,31.4820794 L103.489247,31.4766753 C103.989435,31.4336671 104.311453,31.1366495 104.358035,30.6825874 L104.363886,30.5658563 L104.358035,30.4490611 C104.307571,29.9573695 103.933852,29.6559958 103.360545,29.6559958 Z M52.923283,29.2326667 L52.923283,29.7018069 L51,29.7018069 L51,29.2326667 L52.923283,29.2326667 Z M125.527421,29.2326667 L125.527421,29.7018069 L123.604138,29.7018069 L123.604138,29.2326667 L125.527421,29.2326667 Z M103.303952,27.4523942 L101.998503,27.4523942 L101.998503,29.1809171 L103.303952,29.1809171 L103.420794,29.1767061 C103.879495,29.1429506 104.228958,28.905449 104.280008,28.4350851 L104.286444,28.312626 L104.280008,28.1902844 C104.224704,27.6817162 103.819178,27.4523942 103.303952,27.4523942 Z M101.250251,6 L101.250251,8.51113012 L105.775497,8.51113012 L105.775497,10.0585292 L104.203681,10.0585292 L104.209806,10.5708027 C104.240352,12.2556682 104.372178,13.7133975 104.604543,14.9437451 L104.677269,15.3060277 L104.781486,15.7676269 C105.042126,16.8452417 105.425033,17.9267055 105.930208,19.0120184 L106.154197,19.4773881 L106.154197,21.5164088 L105.84864,21.1870345 C104.853372,20.0816941 104.090654,18.9020734 103.560486,17.6476817 L103.408412,17.2691206 L103.286963,16.9390418 C102.69608,15.2592359 102.350711,13.1382656 102.251442,10.5767138 L102.234869,10.0585292 L101.250251,10.0585292 L101.250251,18.0050684 L103.69265,18.0050684 L103.69265,19.4587243 L101.250251,19.4587243 L101.250251,23.0264803 L98.9589057,23.0264803 L98.9589057,19.4587243 L96.4024711,19.4587243 L96.4024711,18.1187479 L96.2321329,18.4655647 C95.7576777,19.3888529 95.1214625,20.2997077 94.3234873,21.1985633 L94.016664,21.5350726 L94.016664,19.4773881 L94.2484406,18.9972996 C94.7701051,17.8819033 95.1577765,16.8002073 95.4122554,15.7528104 L95.5131654,15.3060277 L95.5747773,14.9854772 C95.792567,13.7847497 95.921,12.3048744 95.9590452,10.5453372 L95.9671794,10.0585292 L94.5472689,10.0585292 L94.5472689,8.51113012 L98.9589057,8.51113012 L98.9589057,6 L101.250251,6 Z M94.9063952,6 L94.8155739,6.38729807 C94.4456989,7.91065262 93.9967545,9.12396937 93.4690084,10.0277826 L93.3354304,10.2472882 L93.3354304,23.0264803 L91.1385476,23.0264803 L91.1385476,12.3049727 L90.9133835,12.4332622 C90.5232958,12.6451654 90.0591169,12.8474844 89.5205366,13.0399101 L89.1884578,13.1541758 L89.1884578,11.7764476 L89.4956258,11.5397247 C90.1927175,10.9830061 90.7523839,10.3957235 91.1748253,9.77767725 L91.3474706,9.51091622 L91.4891424,9.26664072 C91.9057371,8.51140197 92.2465379,7.55440138 92.5113117,6.39424499 L92.5967536,6 L94.9063952,6 Z M127.658613,13.2487673 L127.658613,20.5535261 L127.654215,20.7807309 C127.627831,21.4436045 127.482771,21.9378097 127.219968,22.2633466 L127.128008,22.3656119 L127.025571,22.4571702 C126.70393,22.7155788 126.221211,22.8595168 125.578087,22.8883128 L125.329398,22.8937127 L123.47377,22.8937127 L123.47377,21.4599932 L124.363501,21.4599932 L124.507928,21.4557353 C124.737087,21.4415446 124.908468,21.3918923 125.021915,21.3069332 L125.08303,21.2517221 L125.133311,21.1852685 C125.210646,21.0622323 125.255665,20.8778264 125.268523,20.6325146 L125.27238,20.4780225 L125.27238,20.0250011 L116.713771,20.0250011 L116.713771,23.0073923 L114.346686,23.0073923 L114.346686,13.2487673 L127.658613,13.2487673 Z M54.7254704,6.33891773 L55.0506952,6.34440895 C57.0916975,6.41396443 58.776356,7.14429689 60.1043556,8.53540634 L60.3110757,8.76054643 L60.5225706,9.01015654 C61.6886597,10.4431701 62.304257,12.1916326 62.3690577,14.2552405 L62.3747754,14.6226779 L62.3700949,14.9978094 C62.3108087,17.347782 61.6883123,19.2064089 60.5029206,20.5733759 L60.3110757,20.785127 L60.1145212,20.9841238 C58.8506542,22.2103091 57.1610258,22.8559986 55.0446983,22.9205693 L54.688026,22.9259502 L54.3540739,22.9189698 C52.2660734,22.8434246 50.5791912,22.1717953 49.2934273,20.9025244 L49.0828474,20.6854453 L48.8797314,20.4574459 C47.6923022,19.0660122 47.0676669,17.2527264 47.0052051,15.0188254 L47,14.6426142 L47.0051572,14.2721866 C47.0704828,11.9495597 47.7564204,10.0718272 49.0636997,8.64008005 C50.4653135,7.10625462 52.352003,6.33891773 54.7254704,6.33891773 Z M76.4188105,6.55906579 L76.7514479,6.56360166 C78.1684418,6.60291254 79.2677942,6.8977441 80.0500593,7.44809635 L80.2249535,7.57963659 L80.383485,7.71445713 C81.0468009,8.31639877 81.4025961,9.14869136 81.4500398,10.2113349 L81.4555142,10.4606494 L81.450029,10.7352015 C81.4171197,11.5419505 81.2361441,12.1965522 80.9075685,12.699471 L80.7925773,12.8614934 L80.6652845,13.0147017 C80.2682089,13.4588348 79.6941413,13.8156923 78.9430816,14.0850503 L78.6531377,14.1819576 L78.925442,14.2401671 C79.8067785,14.4483269 80.5171248,14.8155635 81.0552862,15.3418769 L81.2282945,15.5232065 L81.370315,15.6935144 C81.8186464,16.2674337 82.0656269,16.9592172 82.1105397,17.7695792 L82.1180257,18.0440927 L82.1129198,18.3414823 C82.0652661,19.7048716 81.6840572,20.7262473 80.9698631,21.4050409 L80.811725,21.5452528 L80.6478143,21.6708766 C79.7997709,22.2799929 78.5243819,22.6040522 76.8216475,22.6421802 L76.4754027,22.6459932 L69.2043717,22.6459932 L69.2043717,6.55906579 L76.4188105,6.55906579 Z M75.9452233,15.2627616 L71.7795285,15.2627616 L71.7795285,20.9450418 L76.1345731,20.9450418 L76.4025198,20.9411343 C77.3636615,20.9124802 78.0901511,20.726252 78.5812153,20.3829637 L78.7093044,20.285446 L78.8270386,20.1789292 C79.238025,19.7744507 79.4620612,19.1829159 79.4993984,18.4035728 L79.5049989,18.1641349 L79.4982171,17.9728269 C79.396273,16.2176923 78.2121971,15.3139554 75.9452233,15.2627616 Z M54.688026,8.21972026 L54.4344409,8.22574387 C53.1799847,8.28598 52.1275481,8.79798705 51.2762543,9.76176504 L51.1086772,9.96054425 L50.9343928,10.1874528 C50.1473133,11.266404 49.7276903,12.625989 49.6752387,14.2667763 L49.6696189,14.6226779 L49.6746632,14.9734561 C49.7284697,16.8199637 50.2127386,18.2774901 51.1278249,19.3446206 C51.9798988,20.3324236 53.0701974,20.857194 54.3997726,20.9189317 L54.6688782,20.9251055 L54.9458909,20.9195745 C56.3126015,20.8642622 57.404022,20.3940496 58.2201526,19.5071882 L58.3797081,19.32426 L58.5354519,19.1264281 C59.2905628,18.1126166 59.6915596,16.72907 59.7387345,14.9778283 L59.7434519,14.6226779 L59.7380471,14.2573066 C59.687604,12.5748991 59.2840997,11.2096815 58.5286744,10.1602329 L58.3614114,9.94018374 L58.1955529,9.74379574 C57.2942255,8.72809906 56.1249316,8.21972026 54.688026,8.21972026 Z M125.27238,17.3450484 L116.713771,17.3450484 L116.713771,18.7036885 L125.27238,18.7036885 L125.27238,17.3450484 Z M98.9589057,10.0585292 L97.9176947,10.0585292 C97.8693215,13.1700713 97.4253063,15.7113215 96.5842021,17.6819193 L96.440341,18.0050684 L98.9589057,18.0050684 L98.9589057,10.0585292 Z M125.27238,14.6829111 L116.713771,14.6829111 L116.713771,16.0046478 L125.27238,16.0046478 L125.27238,14.6829111 Z M75.6418382,8.26001711 L71.7795285,8.26001711 L71.7795285,13.3416622 L75.7371513,13.3416622 L75.9601633,13.3380959 C77.7835314,13.2786576 78.7302802,12.4762274 78.8004097,10.9301318 L78.8046175,10.7410306 L78.7993521,10.532299 C78.7646014,9.8591092 78.5578469,9.3405694 78.1793274,8.97572691 L78.046793,8.85980394 L77.9143538,8.76388584 C77.4061153,8.42753772 76.6489378,8.26001711 75.6418382,8.26001711 Z M122.337671,6 L122.337671,7.22714518 L129.438075,7.22714518 L129.438075,8.75630465 L120.292694,8.75630465 L119.973465,9.01828804 C119.321405,9.53748613 118.587728,10.0280821 117.772434,10.4902548 L117.357985,10.7189734 L117.943996,10.7204214 C120.452423,10.7215749 122.558429,10.6561614 124.26146,10.5244569 L124.647313,10.4928869 L124.495973,10.291803 C124.337031,10.0863451 124.155296,9.86769352 123.95086,9.63520698 L123.73886,9.39808504 L125.802985,9.39808504 L126.101846,9.69919047 C126.789958,10.4191196 127.413432,11.2605351 127.972069,12.2242352 L128.207514,12.6447388 L125.859577,12.6447388 L125.786315,12.4763737 C125.692216,12.2623919 125.612426,12.0904194 125.546693,11.9603305 L125.500025,11.870615 L124.91653,11.9236928 C122.752813,12.1105008 120.32255,12.2114081 117.625998,12.2269287 L116.883973,12.2290449 L114.290094,12.2290449 L114.290094,10.7189734 L114.701682,10.5010434 C115.640832,9.99244367 116.431402,9.48321668 117.072993,8.97436034 L117.338838,8.75630465 L112.491484,8.75630465 L112.491484,7.22714518 L119.591887,7.22714518 L119.591887,6 L122.337671,6 Z" id="形状结合" fill="#FFFFFF"></path>
            </g>
        </g>
    </g>
</svg>