<svg width="24" height="14" viewBox="0 0 24 14" fill="none" xmlns="http://www.w3.org/2000/svg">
<path d="M6.50495 0.6H22.5C22.7209 0.6 22.9 0.779087 22.9 1V13C22.9 13.2209 22.7209 13.4 22.5 13.4H6.50495C6.38245 13.4 6.26671 13.3439 6.19085 13.2477L1.45943 7.24768C1.34488 7.10243 1.34488 6.89757 1.45943 6.75232L6.19085 0.752317C6.26671 0.656129 6.38245 0.6 6.50495 0.6Z" stroke="#CBCED8" stroke-width="1.2"/>
<path fill-rule="evenodd" clip-rule="evenodd" d="M11.9503 10.1299C12.1474 10.3369 12.4776 10.3369 12.6746 10.1299L14.5 8.21228L16.3254 10.1299C16.5224 10.3369 16.8526 10.3369 17.0497 10.1299L17.369 9.79445C17.5528 9.60138 17.5528 9.29807 17.369 9.10499L15.5096 7.15162L17.369 5.19826C17.5528 5.00518 17.5528 4.70187 17.369 4.50879L17.0497 4.17333C16.8526 3.96631 16.5224 3.96631 16.3254 4.17333L14.5 6.09096L12.6746 4.17333C12.4776 3.96631 12.1474 3.96631 11.9503 4.17333L11.631 4.50879C11.4472 4.70187 11.4472 5.00518 11.631 5.19826L13.4904 7.15162L11.631 9.10499C11.4472 9.29807 11.4472 9.60138 11.631 9.79445L11.9503 10.1299Z" fill="#CBCED8"/>
</svg>
