<?xml version="1.0" encoding="UTF-8"?>
<svg width="20px" height="14px" viewBox="0 0 20 14" version="1.1" xmlns="http://www.w3.org/2000/svg" xmlns:xlink="http://www.w3.org/1999/xlink">
    <title>动画-hover-黑</title>
    <g id="页面-1" stroke="none" stroke-width="1" fill="none" fill-rule="evenodd">
        <g id="组件_1" transform="translate(-1679.000000, -176.000000)" fill="#ABBAC8" fill-rule="nonzero">
            <path d="M1697,176 C1698.10457,176 1699,176.895431 1699,178 L1699,188 C1699,189.104569 1698.10457,190 1697,190 L1689.75,190 L1689.7506,186.929688 C1691.60095,186.578395 1693,184.95258 1693,183 C1693,181.04742 1691.60095,179.421605 1689.7506,179.070312 L1689.75,176 L1697,176 Z M1688.25,176 L1688.25039,179.070123 C1686.39955,179.421022 1685,181.047069 1685,183 C1685,184.952931 1686.39955,186.578978 1688.25039,186.929877 L1688.25,190 L1681,190 C1679.89543,190 1679,189.104569 1679,188 L1679,178 C1679,176.895431 1679.89543,176 1681,176 L1688.25,176 Z M1689,180.5 C1690.38071,180.5 1691.5,181.619288 1691.5,183 C1691.5,184.380712 1690.38071,185.5 1689,185.5 C1687.61929,185.5 1686.5,184.380712 1686.5,183 C1686.5,181.619288 1687.61929,180.5 1689,180.5 Z M1681.75,181 C1681.33579,181 1681,181.335786 1681,181.75 L1681,181.75 L1681,184.25 C1681,184.664214 1681.33579,185 1681.75,185 C1682.16421,185 1682.5,184.664214 1682.5,184.25 L1682.5,184.25 L1682.5,181.75 C1682.5,181.335786 1682.16421,181 1681.75,181 Z M1696.25,181 C1695.83579,181 1695.5,181.335786 1695.5,181.75 L1695.5,181.75 L1695.5,184.25 C1695.5,184.664214 1695.83579,185 1696.25,185 C1696.66421,185 1697,184.664214 1697,184.25 L1697,184.25 L1697,181.75 C1697,181.335786 1696.66421,181 1696.25,181 Z" id="动画-hover-黑"></path>
        </g>
    </g>
</svg>