<?xml version="1.0" encoding="UTF-8"?>
<svg width="16px" height="16px" viewBox="0 0 16 16" version="1.1" xmlns="http://www.w3.org/2000/svg" xmlns:xlink="http://www.w3.org/1999/xlink">
    <!-- Generator: Sketch 61.1 (89650) - https://sketch.com -->
    <title>点球</title>
    <desc>Created with Sketch.</desc>
    <g id="页面-1" stroke="none" stroke-width="1" fill="none" fill-rule="evenodd">
        <g id="组件_2" transform="translate(-2395.000000, -92.000000)">
            <g id="编组-120" transform="translate(1967.000000, 50.000000)">
                <g id="编组-119">
                    <g id="编组-179" transform="translate(50.000000, 30.000000)">
                        <g id="点球" transform="translate(378.000000, 12.000000)">
                            <ellipse id="椭圆形" fill="#5A6074" cx="8" cy="14" rx="8" ry="2"></ellipse>
                            <path d="M10.3545455,0.405912454 C13.1227273,1.39283684 15,4.0352473 15,6.99602046 C15,10.8482092 11.85,14 8,14 C4.15,14 1,10.8482092 1,6.99602046 C1,4.0352473 2.87727273,1.39283684 5.67727273,0.405912454 C7.17272728,-0.135304151 8.85909091,-0.135304151 10.3545455,0.405912454 Z M9.46363636,1.45650938 L8.35000001,2.25241616 C8.12727274,2.41159751 7.80909091,2.41159751 7.58636364,2.25241616 L6.47272727,1.45650938 C6.37727273,1.48834565 6.21818181,1.55201819 6.09090909,1.58385447 C4.88181817,2.02956227 3.86363637,2.85730529 3.19545455,3.87606596 L3.60909091,5.18135304 C3.70454545,5.43604321 3.60909091,5.72256964 3.38636364,5.881751 L2.27272727,6.70949403 L2.27272727,6.99602046 C2.27272727,8.36498009 2.75,9.60659465 3.54545454,10.593519 L4.91363637,10.593519 C5.2,10.593519 5.42272727,10.7845367 5.51818182,11.0392268 L5.93181818,12.3445139 C6.56818182,12.5992041 7.26818181,12.7265492 8,12.7265492 C8.73181819,12.7265492 9.40000001,12.5992041 10.0363636,12.3445139 L10.45,11.0392268 C10.5454546,10.7845367 10.7681818,10.593519 11.0545455,10.593519 L12.4227273,10.593519 C13.2181818,9.60659466 13.6954546,8.36498011 13.6954546,6.99602046 L13.6954546,6.70949403 L12.5818182,5.91358727 C12.3590909,5.75440591 12.2636364,5.46787948 12.3590909,5.21318932 L12.8045455,3.87606596 C12.1363636,2.85730529 11.1181818,2.02956227 9.90909091,1.58385447 C9.78181819,1.52018193 9.62272727,1.48834566 9.46363636,1.45650938 Z M8.38181818,4.00341103 L10.7363636,5.69073338 C10.9590909,5.84991474 11.0545455,6.13644117 10.9590909,6.39113133 L10.0681818,9.16088687 C9.97272728,9.41557704 9.75000001,9.60659466 9.46363636,9.60659466 L6.56818182,9.60659466 C6.28181818,9.60659466 6.05909091,9.41557704 5.96363637,9.16088687 L5.07272727,6.39113133 C4.97727272,6.13644116 5.07272727,5.84991472 5.29545455,5.69073338 L7.61818182,4.00341103 C7.84090909,3.84422968 8.15909091,3.84422968 8.38181818,4.00341103 Z" id="形状结合复制-2备份-2" fill="#ABBAC8"></path>
                        </g>
                    </g>
                </g>
            </g>
        </g>
    </g>
</svg>