<?xml version="1.0" encoding="UTF-8"?>
<svg width="20px" height="14px" viewBox="0 0 20 14" version="1.1" xmlns="http://www.w3.org/2000/svg" xmlns:xlink="http://www.w3.org/1999/xlink">
    <title>视频-选中-黑</title>
    <g id="页面-1" stroke="none" stroke-width="1" fill="none" fill-rule="evenodd">
        <g id="组件_1" transform="translate(-1604.000000, -235.000000)" fill="#FFB001" fill-rule="nonzero">
            <path d="M1622,235 C1623.10457,235 1624,235.895431 1624,237 L1624,247 C1624,248.104569 1623.10457,249 1622,249 L1606,249 C1604.89543,249 1604,248.104569 1604,247 L1604,237 C1604,235.895431 1604.89543,235 1606,235 L1622,235 Z M1620.5,246 L1607.5,246 C1607.22386,246 1607,246.223858 1607,246.5 C1607,246.776142 1607.22386,247 1607.5,247 L1607.5,247 L1620.5,247 C1620.77614,247 1621,246.776142 1621,246.5 C1621,246.223858 1620.77614,246 1620.5,246 L1620.5,246 Z M1608.17829,238 L1607,238 L1607,245 L1610.35707,245 L1610.35707,243.75 L1608.17829,243.75 L1608.17829,238 Z M1612.23606,238 L1611.06125,238 L1611.06125,245 L1612.23606,245 L1612.23606,238 Z M1613.94422,238 L1612.71365,238 L1614.35209,245 L1615.6245,245 L1617.26992,238 L1616.03586,238 L1615.02839,243.120192 L1614.99353,243.355769 L1614.97261,243.355769 L1614.93775,243.100962 L1613.94422,238 Z M1621,238 L1617.6743,238 L1617.6743,245 L1620.99651,245 L1620.99651,243.75 L1618.85259,243.75 L1618.85259,242.004808 L1620.64094,242.004808 L1620.64094,240.754808 L1618.85259,240.754808 L1618.85259,239.25 L1621,239.25 L1621,238 Z" id="视频-选中-黑"></path>
        </g>
    </g>
</svg>