<?xml version="1.0" encoding="UTF-8"?>
<svg width="22px" height="18px" viewBox="0 0 22 18" version="1.1" xmlns="http://www.w3.org/2000/svg" xmlns:xlink="http://www.w3.org/1999/xlink">
    <title>赛车@2x</title>
    <defs>
        <polygon id="path-1" points="0 18 22 18 22 0 0 0"></polygon>
    </defs>
    <g id="页面-1" stroke="none" stroke-width="1" fill="none" fill-rule="evenodd">
        <g id="画板" transform="translate(-908.000000, -97.000000)">
            <g id="赛车" transform="translate(908.000000, 97.000000)">
                <path d="M11.0003,9.9711 C12.2983,9.9671 13.5803,9.4371 14.4493,8.5341 C15.3213,7.6321 15.7593,6.4071 15.6923,5.2301 C15.5973,2.8201 13.3383,0.9281 11.0003,0.9791 C8.6633,0.9271 6.3983,2.8171 6.3053,5.2301 C6.2383,6.4071 6.6763,7.6331 7.5503,8.5341 C8.4193,9.4381 9.7013,9.9671 11.0003,9.9711 M11.0003,9.9711 C9.7023,9.9831 8.4093,9.4921 7.4493,8.6301 C6.4803,7.7791 5.8533,6.5391 5.7953,5.2301 C5.7293,3.9261 6.2233,2.5711 7.1893,1.5801 C8.1503,0.5861 9.5683,0.0011 11.0003,0.0001 C12.4313,0.0011 13.8503,0.5841 14.8123,1.5791 C15.7803,2.5691 16.2733,3.9261 16.2073,5.2301 C16.1493,6.5391 15.5213,7.7811 14.5513,8.6301 C13.5913,9.4921 12.2983,9.9831 11.0003,9.9711" id="Fill-1" fill="#000000"></path>
                <mask id="mask-2" fill="white">
                    <use xlink:href="#path-1"></use>
                </mask>
                <g id="Clip-4"></g>
                <polygon id="Fill-3" fill="#000000" mask="url(#mask-2)" points="7.091 15.881 14.908 15.881 14.908 14.902 7.091 14.902"></polygon>
                <path d="M15.932,17.02 L19.864,17.02 L19.864,15.881 L15.932,15.881 L15.932,17.02 Z M19.529,12.776 C19.42,12.776 19.316,12.814 19.235,12.883 L18.606,13.424 C18.525,13.494 18.42,13.532 18.312,13.532 L15.932,13.532 L15.932,11.462 L19.864,11.462 L19.864,12.776 L19.529,12.776 Z M14.522,13.532 C14.17,13.532 13.911,13.217 13.993,12.891 C14.101,12.459 14.348,12.073 14.699,11.784 L14.909,11.611 L14.909,13.532 L14.522,13.532 Z M7.301,11.784 C7.652,12.073 7.899,12.459 8.006,12.891 C8.088,13.217 7.829,13.532 7.479,13.532 L7.091,13.532 L7.091,11.611 L7.301,11.784 Z M3.689,13.532 C3.58,13.532 3.476,13.494 3.395,13.424 L2.765,12.883 C2.685,12.814 2.58,12.776 2.472,12.776 L2.136,12.776 L2.136,11.462 L6.068,11.462 L6.068,13.532 L3.689,13.532 Z M2.136,17.02 L6.068,17.02 L6.068,15.881 L2.136,15.881 L2.136,17.02 Z M21.56,12.776 L20.887,12.776 L20.887,11.462 C20.887,10.923 20.427,10.483 19.864,10.483 L15.934,10.483 C16.157,10.013 16.218,9.48 16.045,8.969 L14.606,4.719 C14.48,4.384 14.149,4.161 13.777,4.161 L8.223,4.161 C7.852,4.161 7.52,4.384 7.395,4.719 L5.955,8.969 C5.783,9.48 5.844,10.013 6.066,10.483 L2.136,10.483 C1.574,10.483 1.113,10.923 1.113,11.462 L1.113,12.776 L0.44,12.776 C0.197,12.776 0,12.964 0,13.197 L0,14.617 C0,15.245 0.487,15.743 1.113,15.841 L1.113,17.02 C1.113,17.559 1.574,18 2.136,18 L6.068,18 C6.631,18 7.091,17.559 7.091,17.02 L7.091,15.881 L7.091,14.902 L6.068,14.902 L2.136,14.902 L1.322,14.902 C1.24,14.902 1.166,14.87 1.113,14.819 C1.058,14.767 1.024,14.696 1.024,14.617 L1.024,13.755 L1.113,13.755 L2.136,13.755 L2.248,13.755 L2.711,14.153 C2.98,14.384 3.326,14.511 3.689,14.511 L6.068,14.511 L7.091,14.511 L7.479,14.511 C7.961,14.511 8.409,14.303 8.708,13.941 C9.007,13.578 9.114,13.112 9.001,12.662 C8.843,12.028 8.486,11.466 7.968,11.04 L7.281,10.474 C6.92,10.177 6.782,9.705 6.928,9.272 L8.327,5.14 L13.672,5.14 L15.072,9.272 C15.218,9.705 15.08,10.177 14.719,10.474 L14.032,11.04 C13.514,11.466 13.157,12.028 12.998,12.662 C12.886,13.112 12.993,13.578 13.292,13.941 C13.591,14.303 14.038,14.511 14.522,14.511 L14.909,14.511 L15.932,14.511 L18.312,14.511 C18.673,14.511 19.02,14.384 19.288,14.154 L19.751,13.755 L19.864,13.755 L20.887,13.755 L20.977,13.755 L20.977,14.618 C20.977,14.697 20.942,14.768 20.887,14.82 C20.833,14.87 20.761,14.902 20.68,14.902 L19.864,14.902 L15.932,14.902 L14.909,14.902 L14.909,15.881 L14.909,17.02 C14.909,17.559 15.369,18 15.932,18 L19.864,18 C20.427,18 20.887,17.559 20.887,17.02 L20.887,15.841 C21.514,15.743 22,15.245 22,14.618 L22,13.197 C22,12.964 21.803,12.776 21.56,12.776 L21.56,12.776 Z" id="Fill-5" fill="#000000" mask="url(#mask-2)"></path>
                <path d="M9.7142,4.389 C9.9922,6.239 10.2422,8.09 10.4652,9.944 C10.5742,10.871 10.7732,11.792 10.7642,12.727 C10.7612,13.66 10.7162,14.598 10.5012,15.545 L10.3992,15.552 C10.0522,14.641 9.8762,13.718 9.7422,12.792 C9.6022,11.868 9.6692,10.93 9.6482,9.997 C9.6082,8.132 9.5952,6.265 9.6112,4.396 L9.7142,4.389 Z" id="Fill-6" fill="#FB292A" mask="url(#mask-2)"></path>
                <path d="M12.388,4.3959 C12.405,6.2649 12.393,8.1319 12.352,9.9979 C12.33,10.9299 12.398,11.8679 12.257,12.7919 C12.123,13.7179 11.948,14.6409 11.601,15.5519 L11.499,15.5449 C11.284,14.5979 11.24,13.6609 11.237,12.7269 C11.227,11.7919 11.425,10.8719 11.535,9.9439 C11.757,8.0899 12.007,6.2389 12.286,4.3889 L12.388,4.3959 Z" id="Fill-7" fill="#FB292A" mask="url(#mask-2)"></path>
            </g>
        </g>
    </g>
</svg>