<?xml version="1.0" encoding="UTF-8"?>
<svg width="15px" height="18px" viewBox="0 0 15 18" version="1.1" xmlns="http://www.w3.org/2000/svg" xmlns:xlink="http://www.w3.org/1999/xlink">
    <title>矩形</title>
    <defs>
        <polygon id="path-1" points="0.228911 0.383467888 13.3854545 0.383467888 13.3854545 12.2724013 0.228911 12.2724013"></polygon>
    </defs>
    <g id="页面-1" stroke="none" stroke-width="1" fill="none" fill-rule="evenodd">
        <g id="画板" transform="translate(-532.000000, -154.000000)">
            <g id="编组-14" transform="translate(66.000000, 68.000000)">
                <g id="默认" transform="translate(0.000000, 42.000000)">
                    <g id="编组" transform="translate(465.000000, 44.000000)">
                        <g transform="translate(1.000000, 0.000000)">
                            <path d="M3.40764545,9.61748182 C5.10782727,10.1591182 7.04200909,9.76148182 8.39119091,8.4123 C9.74037273,7.06393636 10.1380091,5.12893636 9.59555455,3.42957273 C9.57346364,3.35839091 9.48100909,3.33711818 9.42864545,3.38948182 L3.36837273,9.44975455 C3.31600909,9.50211818 3.33728182,9.59539091 3.40764545,9.61748182" id="Fill-1" fill="#BABABA"></path>
                            <path d="M3.18910909,2.79 C4.04165455,1.93745455 5.42847273,1.93663636 6.28183636,2.79 C6.42665455,2.93481818 6.42665455,3.168 6.28183636,3.31281818 C6.20983636,3.38481818 6.11574545,3.42081818 6.02083636,3.42081818 C5.92592727,3.42081818 5.83183636,3.38481818 5.75983636,3.31281818 C5.19447273,2.74745455 4.27647273,2.74827273 3.71192727,3.31281818 C3.56710909,3.45681818 3.33392727,3.45681818 3.18910909,3.31281818 C3.04510909,3.168 3.04510909,2.93481818 3.18910909,2.79 M2.66629091,9.10718182 L9.08574545,2.68772727 C9.16510909,2.60754545 9.18392727,2.48236364 9.12501818,2.38581818 C8.92374545,2.05036364 8.68074545,1.73290909 8.39110909,1.44327273 C6.47983636,-0.468 3.38956364,-0.481090909 1.46192727,1.40481818 C-0.267709091,3.09518182 -0.4878,5.89009091 0.936654545,7.84472727 C1.3392,8.39781818 1.82929091,8.82490909 2.3652,9.14727273 C2.46174545,9.20454545 2.58692727,9.18572727 2.66629091,9.10718182" id="Fill-3" fill="#BABABA"></path>
                            <g transform="translate(1.636364, 5.727273)">
                                <mask id="mask-2" fill="white">
                                    <use xlink:href="#path-1"></use>
                                </mask>
                                <g id="Clip-6"></g>
                                <path d="M9.77252727,5.70321818 C9.70052727,5.77521818 9.60561818,5.81121818 9.51152727,5.81121818 C9.41661818,5.81121818 9.32252727,5.77521818 9.24970909,5.70321818 L7.94961818,4.40312727 C7.80561818,4.25830909 7.80561818,4.02430909 7.94961818,3.88030909 C8.09443636,3.73630909 8.32843636,3.73630909 8.47325455,3.88030909 L9.77252727,5.1804 C9.91734545,5.3244 9.91734545,5.5584 9.77252727,5.70321818 M13.2195273,5.9004 L8.71543636,0.4194 C8.66389091,0.3564 8.56489091,0.380127273 8.54607273,0.460309091 C8.32352727,1.40530909 7.84489091,2.30285455 7.10852727,3.0384 C6.38770909,3.75921818 5.5008,4.25176364 4.53370909,4.48003636 C4.45434545,4.49885455 4.4298,4.59703636 4.4928,4.64858182 L9.97052727,9.1494 C10.2830727,9.40630909 10.7649818,9.36130909 11.0808,9.04549091 L11.7525273,8.37376364 C11.9832545,8.8974 12.1796182,9.86285455 11.1978,10.8446727 C9.92307273,12.1185818 8.0118,11.2439455 7.94961818,11.2153091 C7.7688,11.1179455 3.4848,8.8344 0.366709091,11.3413091 C0.207981818,11.4689455 0.182618182,11.7013091 0.310254545,11.8600364 C0.438709091,12.0195818 0.671072727,12.0449455 0.8298,11.9173091 C3.56252727,9.72049091 7.55689091,11.8444909 7.61498182,11.8739455 C7.67225455,11.9009455 8.47407273,12.2732182 9.45916364,12.2724013 C10.1889818,12.2724013 11.0194364,12.0686727 11.7198,11.3674909 C13.0428,10.0453091 12.7539818,8.6094 12.3064364,7.81903636 L13.1148,7.01149091 C13.4306182,6.69485455 13.4764364,6.21294545 13.2195273,5.9004" id="Fill-5" fill="#BABABA" mask="url(#mask-2)"></path>
                            </g>
                        </g>
                    </g>
                </g>
            </g>
        </g>
    </g>
</svg>