<?xml version="1.0" encoding="UTF-8"?>
<svg width="22px" height="22px" viewBox="0 0 22 22" version="1.1" xmlns="http://www.w3.org/2000/svg" xmlns:xlink="http://www.w3.org/1999/xlink">
    <title>足选备份 4@2x</title>
    <defs>
        <polygon id="path-1" points="0 0.362937655 2.8919 0.362937655 2.8919 1.41241543 0 1.41241543"></polygon>
        <polygon id="path-3" points="0.1082 0.363237655 3 0.363237655 3 1.41187517 0.1082 1.41187517"></polygon>
    </defs>
    <g id="足选备份-4" stroke="none" stroke-width="1" fill="none" fill-rule="evenodd">
        <g id="摩托车" transform="translate(4.000000, 0.000000)">
            <g id="编组" transform="translate(0.000000, 3.000100)">
                <mask id="mask-2" fill="white">
                    <use xlink:href="#path-1"></use>
                </mask>
                <g id="Clip-2"></g>
                <path d="M2.8919,0.5227 C2.4449,0.7627 1.9919,0.9767 1.5319,1.1637 C1.3019,1.2547 1.0909,1.4317 0.8359,1.4107 C0.5819,1.3947 0.3199,1.3387 0.0209,1.1197 L-0.0001,1.0217 C0.1799,0.7027 0.3959,0.5467 0.6209,0.4317 C0.8449,0.3107 1.1119,0.3877 1.3599,0.3807 C1.8579,0.3687 2.3609,0.3827 2.8709,0.4247 L2.8919,0.5227 Z" id="Fill-1" fill="#FB292A" mask="url(#mask-2)"></path>
            </g>
            <g id="编组" transform="translate(11.000000, 3.000100)">
                <mask id="mask-4" fill="white">
                    <use xlink:href="#path-3"></use>
                </mask>
                <g id="Clip-4"></g>
                <path d="M0.1292,0.425 C0.6392,0.383 1.1422,0.368 1.6402,0.381 C1.8882,0.388 2.1552,0.311 2.3792,0.432 C2.6042,0.547 2.8202,0.702 3.0002,1.022 L2.9782,1.119 C2.6802,1.339 2.4182,1.395 2.1642,1.41 C1.9092,1.432 1.6982,1.255 1.4682,1.163 C1.0082,0.977 0.5552,0.763 0.1082,0.523 L0.1292,0.425 Z" id="Fill-3" fill="#FB292A" mask="url(#mask-4)"></path>
            </g>
            <path d="M7.3348,11.7162 L6.6658,11.7162 C5.9368,11.7162 5.2908,12.0782 4.9088,12.6272 C5.2908,12.0782 5.9368,11.7162 6.6658,11.7162 L7.3348,11.7162 C8.0638,11.7162 8.7098,12.0782 9.0908,12.6272 C8.7098,12.0782 8.0638,11.7162 7.3348,11.7162" id="Fill-5" fill="#FFFFFF"></path>
            <path d="M9.4544,13.7777 C9.4544,13.4947 9.3944,13.2237 9.2874,12.9767 C9.3944,13.2237 9.4544,13.4947 9.4544,13.7777" id="Fill-7" fill="#FFFFFF"></path>
            <path d="M4.7127,12.9769 C4.6057,13.2239 4.5457,13.4949 4.5457,13.7779 C4.5457,13.4949 4.6057,13.2239 4.7127,12.9769" id="Fill-9" fill="#FFFFFF"></path>
            <path d="M4.5452,13.7777 C4.5452,13.4947 4.6052,13.2237 4.7122,12.9767 C4.7662,12.8537 4.8322,12.7367 4.9092,12.6277 C4.9512,12.5657 5.0082,12.5167 5.0572,12.4607 C5.0742,11.0717 5.2812,9.6867 5.6722,8.3467 C5.3362,8.2887 5.0042,8.2057 4.6762,8.1017 C3.9352,10.6527 3.8182,13.3397 4.3562,15.9427 L4.3882,16.0967 L4.5452,16.2407 L4.5452,13.7777 Z" id="Fill-11" fill="#FB292A"></path>
            <path d="M8.9432,12.4603 C8.9922,12.5173 9.0482,12.5653 9.0912,12.6273 C9.1682,12.7363 9.2342,12.8543 9.2872,12.9773 C9.3952,13.2243 9.4542,13.4943 9.4542,13.7773 L9.4542,16.2433 L9.6102,16.1033 L9.6442,15.9423 C10.1812,13.3393 10.0652,10.6523 9.3232,8.1023 C8.9962,8.2053 8.6642,8.2883 8.3272,8.3473 C8.7192,9.6873 8.9252,11.0713 8.9432,12.4603" id="Fill-13" fill="#FB292A"></path>
            <path d="M11.1023,6.1341 L10.2913,6.6011 C9.9013,6.8251 9.4853,6.9951 9.0603,7.1341 C9.0503,7.1381 9.0393,7.1391 9.0293,7.1421 C8.3753,7.3531 7.6933,7.4771 6.9993,7.4771 C6.3063,7.4771 5.6243,7.3531 4.9713,7.1421 C4.9603,7.1391 4.9503,7.1381 4.9403,7.1341 C4.5143,6.9951 4.0983,6.8251 3.7083,6.6011 L2.8973,6.1341 L2.0613,5.6541 L2.3823,5.3491 C3.1253,4.6401 3.6203,3.7171 3.8133,2.7311 C4.0193,3.0691 4.2693,3.3751 4.5703,3.6181 C5.2573,4.1821 6.1263,4.4971 6.9983,4.4881 C6.1263,4.4831 5.2663,4.1071 4.7193,3.4731 C4.2763,2.9641 4.0363,2.3341 3.9943,1.7091 L4.2003,1.6131 C4.9583,1.2631 5.7923,1.0681 6.6313,1.0201 C6.8663,1.0111 7.1013,1.0101 7.3353,1.0191 C8.1853,1.0621 9.0313,1.2591 9.7993,1.6131 L10.0053,1.7081 C9.9623,2.3351 9.7223,2.9651 9.2783,3.4741 C8.7303,4.1071 7.8703,4.4831 6.9983,4.4881 C7.8693,4.4971 8.7393,4.1811 9.4243,3.6171 C9.7283,3.3721 9.9803,3.0641 10.1853,2.7231 C10.3773,3.7121 10.8723,4.6381 11.6183,5.3491 L11.9383,5.6541 L11.1023,6.1341 Z M11.3913,13.1041 L10.9533,14.8851 L9.6103,16.1031 L9.4543,16.2431 L9.4543,13.7781 C9.4543,13.4941 9.3943,13.2241 9.2873,12.9771 C9.2333,12.8541 9.1673,12.7371 9.0913,12.6271 C9.0483,12.5661 8.9923,12.5171 8.9433,12.4601 C8.5533,12.0121 7.9823,11.7161 7.3343,11.7161 L6.6653,11.7161 C6.0183,11.7161 5.4463,12.0121 5.0573,12.4601 C5.0083,12.5171 4.9513,12.5661 4.9093,12.6271 C4.8323,12.7371 4.7663,12.8541 4.7123,12.9771 C4.6053,13.2241 4.5453,13.4941 4.5453,13.7781 L4.5453,16.2401 L4.3883,16.0971 L3.0373,14.8681 L2.6083,13.1041 C2.2543,11.6481 2.2213,10.3201 2.5153,9.1291 L2.9093,7.3031 L3.1853,7.4621 C3.6613,7.7361 4.1643,7.9391 4.6763,8.1021 C5.0043,8.2051 5.3363,8.2881 5.6723,8.3471 C6.1123,8.4241 6.5553,8.4771 6.9993,8.4771 C7.4453,8.4771 7.8873,8.4241 8.3273,8.3471 C8.6643,8.2881 8.9963,8.2051 9.3233,8.1021 C9.8363,7.9391 10.3393,7.7361 10.8143,7.4621 L11.0913,7.3031 L11.4913,9.1581 C11.7783,10.3201 11.7453,11.6481 11.3913,13.1041 L11.3913,13.1041 Z M8.4263,17.1761 L8.4263,18.4791 L8.4263,19.9381 C8.4263,20.5241 7.9363,21.0001 7.3343,21.0001 L6.6653,21.0001 C6.0633,21.0001 5.5733,20.5241 5.5733,19.9381 L5.5733,18.4791 L5.5733,17.1751 L5.5733,16.8581 L5.5733,15.8581 L5.5733,13.7781 C5.5733,13.1931 6.0633,12.7161 6.6653,12.7161 L7.3343,12.7161 C7.9363,12.7161 8.4263,13.1931 8.4263,13.7781 L8.4263,15.8581 L8.4263,16.8581 L8.4263,17.1761 Z M12.6883,4.9681 L12.3373,4.6341 C11.5583,3.8921 11.1183,2.8751 11.1183,1.8141 L11.1183,1.6321 C11.1183,1.3171 10.9323,1.0301 10.6403,0.8951 L10.2403,0.7101 C9.2153,0.2371 8.1073,0.0001 6.9993,0.0001 C5.8923,0.0001 4.7853,0.2371 3.7593,0.7101 L3.3603,0.8951 C3.0673,1.0301 2.8813,1.3171 2.8813,1.6321 L2.8813,1.8141 C2.8813,2.8751 2.4423,3.8921 1.6633,4.6341 L1.3113,4.9681 C0.8443,5.4131 0.9383,6.1691 1.5013,6.4931 L1.9743,6.7651 L1.5093,8.9241 C1.1503,10.3741 1.2563,11.8841 1.6083,13.3331 L2.0363,15.0991 C2.0843,15.2971 2.1923,15.4771 2.3453,15.6161 L4.5453,17.6111 L4.5453,19.9381 C4.5453,20.3631 4.6793,20.7591 4.9093,21.0891 C5.2903,21.6381 5.9363,22.0001 6.6653,22.0001 L7.3343,22.0001 C8.0633,22.0001 8.7093,21.6381 9.0913,21.0891 C9.3203,20.7591 9.4543,20.3631 9.4543,19.9381 L9.4543,17.6111 L11.6543,15.6161 C11.8083,15.4771 11.9153,15.2971 11.9633,15.0991 L12.3923,13.3331 C12.7443,11.8841 12.8493,10.3741 12.4913,8.9241 L12.0253,6.7651 L12.4983,6.4931 C13.0613,6.1691 13.1553,5.4131 12.6883,4.9681 L12.6883,4.9681 Z" id="Fill-15" fill="#000000"></path>
        </g>
    </g>
</svg>