<?xml version="1.0" encoding="UTF-8"?>
<svg width="22px" height="22px" viewBox="0 0 22 22" version="1.1" xmlns="http://www.w3.org/2000/svg" xmlns:xlink="http://www.w3.org/1999/xlink">
    <title>手球未选中@2x</title>
    <g id="手球未选中" stroke="none" stroke-width="1" fill="none" fill-rule="evenodd">
        <path d="M10.9938401,0 L11.078,0.001 L11.0518688,0.00115627713 C10.6503366,0.00501053422 10.3194469,0.018500434 10.0591998,0.0416259766 C10.0591998,0.0416259766 10.2547157,0.172281901 10.6457476,0.43359375 L11.296964,0.00417416074 C13.9786088,0.0775256829 16.423688,1.11334294 18.2977482,2.77802401 C18.3389655,2.86534762 18.4117703,3.02089908 18.5157427,3.24304199 L16.354732,3.24304199 L19.7143511,5.38232422 L20.14648,9.37109375 L21.2070269,7.48364258 L21.5359136,7.83639088 C21.8375273,8.83856659 21.9997609,9.90062191 22,11 C21.9996301,12.7002476 21.6223168,14.3112255 20.9431893,15.7494938 C20.9640064,15.7011024 20.9834576,15.6526142 21.0020709,15.604126 C21.0020709,15.604126 20.7168739,15.7236125 20.14648,15.9625854 L20.14648,17.1209717 C20.23944,16.9960667 20.3268402,16.8711618 20.4086805,16.7462568 C19.0294403,19.0215219 16.8464783,20.7506367 14.2172749,21.535727 L14.2186148,21.5355642 L14.1462728,21.5040946 C14.0388308,21.4573563 13.8642376,21.3814064 13.6224932,21.2762451 L14.3422808,19.578125 L10.9999957,21.1489868 L7.56762261,19.578125 L8.62261529,21.4789429 L7.72082086,21.4789429 C9.35840507,22.0056688 11.1001325,22.1242401 12.946003,21.8346569 C12.3191684,21.943068 11.671728,21.9998585 11.0083601,22 C10.8814201,22 10.7549201,21.9978 10.6293001,21.99362 L10.6231401,22 L10.6165401,21.99318 C8.82728007,21.93224 7.16100007,21.45792 5.70372007,20.66482 L5.69778007,20.66658 L5.69646007,20.66086 C2.36346007,18.8441 0.123860065,15.35886 0.00506006536,11.33506 L0,11.33066 L0,11 C0.000660065355,4.93218 4.92580007,0.00132 10.9938401,0 Z M7.18798394,8.61889648 L4.34984918,11.9150391 L1.56664605,9.54785156 L2.90160699,13.9980469 L1.91112847,16.2587891 L1.89084283,16.2488257 C1.77347589,16.1911804 1.18664117,15.9029541 1.18664117,15.9029541 C1.27807183,16.1401774 1.5195676,16.5817871 1.91112847,17.2277832 L1.91112847,17.2277832 L1.91112847,16.2587891 L1.91112847,16.2587891 L4.34984918,16.2587891 L7.56762261,19.578125 L6.75731988,15.9248047 L10.8649249,14.6837158 L6.75731988,13.2353516 L7.18798394,8.61889648 Z M14.4226641,8.39404297 L15.1508746,13.1091309 L10.8649249,14.6837158 L15.1508746,15.8754883 L14.3422808,19.578125 L17.5834918,16.2436523 L20.14648,15.9625854 L18.9387164,13.6135254 L20.14648,9.37109375 L17.5834918,11.7163086 L14.4226641,8.39404297 Z M5.16332574,3.43457031 C3.60814996,3.58821615 2.83056207,3.66503906 2.83056207,3.66503906 C1.76855035,4.80997721 0.963171117,6.27213542 0.414424372,8.05151367 L0.414424372,8.05151367 L0.613765192,7.87109375 L1.56664605,9.54785156 L1.92943902,5.71630859 Z M10.6457476,0.43359375 C9.78572157,1.70458984 9.35570855,2.34008789 9.35570855,2.34008789 C9.35570855,2.34008789 7.95824761,2.70491536 5.16332574,3.43457031 L8.32885308,4.52734375 L7.18798394,8.61889648 L10.6457476,5.69604492 L14.4226641,8.39404297 L13.3427691,4.52624512 L16.354732,3.24304199 L12.0749468,2.34008789 L10.6457476,0.43359375 Z" id="形状结合" fill="#CBCED8" fill-rule="nonzero"></path>
    </g>
</svg>