<?xml version="1.0" encoding="UTF-8"?>
<svg width="24px" height="24px" viewBox="0 0 24 24" version="1.1" xmlns="http://www.w3.org/2000/svg" xmlns:xlink="http://www.w3.org/1999/xlink">
    <title>形状结合@2x</title>
    <g id="形状结合" stroke="none" stroke-width="1" fill="none" fill-rule="evenodd">
        <path d="M12,0 C18.627417,-1.21743675e-15 24,5.372583 24,12 C24,18.627417 18.627417,24 12,24 C5.372583,24 8.11624501e-16,18.627417 0,12 C-8.11624501e-16,5.372583 5.372583,1.21743675e-15 12,0 Z M10.308466,12.8297105 L6.79779096,12.8297105 C6.35899183,12.8297105 6,13.1932041 6,13.6375058 L6,13.6375058 L6,17.1922047 C6,17.6365064 6.35899183,18 6.79779096,18 L6.79779096,18 L10.308466,18 C10.7472651,18 11.106257,17.6365064 11.106257,17.1922047 L11.106257,17.1922047 L11.106257,13.6375058 C11.106257,13.1932041 10.7472651,12.8297105 10.308466,12.8297105 L10.308466,12.8297105 Z M16.8633805,12.8297105 L13.3527055,12.8297105 C12.9139064,12.8297105 12.5549145,13.1932041 12.5549145,13.6375058 L12.5549145,13.6375058 L12.5549145,17.1922047 C12.5549145,17.6365064 12.9139064,18 13.3527055,18 L13.3527055,18 L16.8633805,18 C17.3021797,18 17.6611715,17.6365064 17.6611715,17.1922047 L17.6611715,17.1922047 L17.6611715,13.6375058 C17.6611715,13.1932041 17.3021797,12.8297105 16.8633805,12.8297105 L16.8633805,12.8297105 Z M15.6053581,6.20773102 C15.3318136,5.93075633 14.8839904,5.93075633 14.6104459,6.20773102 L14.6104459,6.20773102 L12.4209623,8.42467074 C12.1474179,8.70164543 12.1474179,9.15508441 12.4209623,9.43205911 L12.4209623,9.43205911 L14.6104459,11.6489988 C14.8842724,11.9259735 15.3318136,11.9259735 15.6053581,11.6489988 L15.6053581,11.6489988 L17.7948417,9.43205911 C18.0683861,9.15508441 18.0683861,8.70164543 17.7948417,8.42467074 L17.7948417,8.42467074 Z M10.308466,6.34307742 L6.79779096,6.34307742 C6.35899183,6.34307742 6,6.70657101 6,7.15087268 L6,7.15087268 L6,10.7055716 C6,11.1498733 6.35899183,11.5133669 6.79779096,11.5133669 L6.79779096,11.5133669 L10.308466,11.5133669 C10.7472651,11.5133669 11.106257,11.1498733 11.106257,10.7055716 L11.106257,10.7055716 L11.106257,7.15087268 C11.106257,6.70657101 10.7472651,6.34307742 10.308466,6.34307742 L10.308466,6.34307742 Z" fill="#CBCED8"></path>
    </g>
</svg>