<?xml version="1.0" encoding="UTF-8"?>
<svg width="22px" height="22px" viewBox="0 0 22 22" version="1.1" xmlns="http://www.w3.org/2000/svg" xmlns:xlink="http://www.w3.org/1999/xlink">
    <title>编组 55@2x</title>
    <defs>
        <linearGradient x1="74.0154399%" y1="100%" x2="23.8071351%" y2="22.8528147%" id="linearGradient-1">
            <stop stop-color="#FF9124" offset="0.0218531469%"></stop>
            <stop stop-color="#F7B500" offset="100%"></stop>
        </linearGradient>
        <path d="M0,11 C0,17.0751322 4.92486775,22 11,22 C17.0751322,22 22,17.0751322 22,11 C22,4.92486775 17.0751322,0 11,0 C4.92486775,0 0,4.92486775 0,11 Z" id="path-2"></path>
    </defs>
    <g id="页面-1" stroke="none" stroke-width="1" fill="none" fill-rule="evenodd">
        <g id="赛果（隐藏设置及底部）备份" transform="translate(-27.000000, -100.000000)">
            <g id="编组-21" transform="translate(18.000000, 96.000000)">
                <g id="编组-55" transform="translate(9.000000, 4.000000)">
                    <g id="形状-+-形状-蒙版">
                        <mask id="mask-3" fill="white">
                            <use xlink:href="#path-2"></use>
                        </mask>
                        <use id="蒙版" fill="url(#linearGradient-1)" xlink:href="#path-2"></use>
                        <path d="M16.0865121,4.00119629 L6.17066568,4.00119629 C5.39333223,4.00119629 5.00358887,4.39098248 5.00358887,5.16840133 L5.00358887,16.8339912 C5.00358887,17.6114101 5.39333223,18.0011963 6.17066568,18.0011963 L16.0865121,18.0011963 C16.8638455,18.0011963 17.2535889,17.6114101 17.2535889,16.8339912 L17.2535889,5.16840133 C17.2535889,4.38882896 16.8638455,4.00119629 16.0865121,4.00119629 Z" id="形状" fill="#FFECB6" fill-rule="nonzero" mask="url(#mask-3)"></path>
                        <path d="M16.0865121,4.00119629 L6.17066568,4.00119629 C5.52683548,4.00119629 5.00358887,4.5245004 5.00358887,5.16840133 L5.00358887,16.8339912 C5.00358887,17.4778922 5.52683548,18.0011963 6.17066568,18.0011963 L9.88076412,18.0011963 C12.0426555,16.9481275 13.8837084,15.3372984 15.2122811,13.3345296 C16.1575702,11.9498196 16.844466,10.4079029 17.2428225,8.77769221 L17.2535889,5.16624782 C17.2535889,4.52234688 16.7303423,4.00119629 16.0865121,4.00119629 L16.0865121,4.00119629 Z" id="形状" fill="#FFFFFF" fill-rule="nonzero" mask="url(#mask-3)"></path>
                    </g>
                    <g id="订单-(2)" transform="translate(7.000000, 8.000000)" fill="#FFB001" fill-rule="nonzero">
                        <path d="M4.00449995,2.71520341 C4.36820139,2.71526222 4.66300769,3.0028565 4.66300769,3.3576017 C4.66300769,3.7123469 4.36820139,3.99994118 4.00449995,3.99999999 L0.658726077,3.99999999 C0.42339892,4.00003803 0.20593097,3.87760593 0.08825613,3.67883158 C-0.02941871,3.48005724 -0.02941871,3.23514616 0.08825613,3.03637182 C0.20593097,2.83759747 0.42339892,2.71516537 0.658726077,2.71520341 L4.00449995,2.71520341 Z M7.34149226,-1.11022302e-15 C7.7051937,5.88006161e-05 8,0.287653085 8,0.642398281 C8,0.997143478 7.7051937,1.28473776 7.34149226,1.28479656 L0.658726077,1.28479656 C0.29502464,1.28473776 0.000218337438,0.997143478 0.000218337438,0.642398281 C0.000218337438,0.287653085 0.29502464,5.88006142e-05 0.658726077,-1.11022302e-15 L7.34149226,-1.11022302e-15 Z" id="形状结合"></path>
                    </g>
                </g>
            </g>
        </g>
    </g>
</svg>