<?xml version="1.0" encoding="UTF-8"?>
<svg width="22px" height="18px" viewBox="0 0 22 18" version="1.1" xmlns="http://www.w3.org/2000/svg" xmlns:xlink="http://www.w3.org/1999/xlink">
    <title>电竞@2x</title>
    <g id="页面-1" stroke="none" stroke-width="1" fill="none" fill-rule="evenodd">
        <g id="画板" transform="translate(-557.000000, -97.000000)">
            <g id="电竞" transform="translate(557.000000, 97.000000)">
                <path d="M21.4999,14.1948 L21.4999,16.1758 C21.4999,16.9438 20.7019,17.4518 20.0059,17.1278 L14.2579,14.4448 C13.8409,14.2508 13.3859,14.1498 12.9259,14.1498 L9.0739,14.1498 C8.6139,14.1498 8.1589,14.2508 7.7419,14.4448 L1.9939,17.1278 C1.2979,17.4518 0.4999,16.9438 0.4999,16.1758 L0.4999,7.8498 C0.4999,4.9508 2.8509,2.5998 5.7499,2.5998 L16.2499,2.5998 C19.1499,2.5998 21.4999,4.9508 21.4999,7.8498 L21.4999,11.7768" id="Stroke-1" stroke="#000000" stroke-linecap="round" stroke-linejoin="round"></path>
                <path d="M9.6054,2.6 L9.6054,1.5 C9.6054,0.948 9.1574,0.5 8.6054,0.5 L5.7004,0.5 C5.1474,0.5 4.7004,0.948 4.7004,1.5 L4.7004,2.6" id="Stroke-3" stroke="#000000"></path>
                <path d="M17.2997,2.6 L17.2997,1.5 C17.2997,0.948 16.8517,0.5 16.2997,0.5 L13.3947,0.5 C12.8417,0.5 12.3947,0.948 12.3947,1.5 L12.3947,2.6" id="Stroke-5" stroke="#000000"></path>
                <path d="M15.4472,7.7055 L15.2972,7.7055 C14.9052,7.7055 14.5842,7.3845 14.5842,6.9925 L14.5842,6.8435 C14.5842,6.4505 14.9052,6.1305 15.2972,6.1305 L15.4472,6.1305 C15.8392,6.1305 16.1592,6.4505 16.1592,6.8435 L16.1592,6.9925 C16.1592,7.3845 15.8392,7.7055 15.4472,7.7055" id="Fill-7" fill="#FB292A"></path>
                <path d="M15.4472,10.8549 L15.2972,10.8549 C14.9052,10.8549 14.5842,10.5349 14.5842,10.1429 L14.5842,9.9929 C14.5842,9.6009 14.9052,9.2799 15.2972,9.2799 L15.4472,9.2799 C15.8392,9.2799 16.1592,9.6009 16.1592,9.9929 L16.1592,10.1429 C16.1592,10.5349 15.8392,10.8549 15.4472,10.8549" id="Fill-9" fill="#FB292A"></path>
                <path d="M16.1596,8.5678 L16.1596,8.4178 C16.1596,8.0258 16.4806,7.7058 16.8716,7.7058 L17.0216,7.7058 C17.4136,7.7058 17.7346,8.0258 17.7346,8.4178 L17.7346,8.5678 C17.7346,8.9598 17.4136,9.2798 17.0216,9.2798 L16.8716,9.2798 C16.4806,9.2798 16.1596,8.9598 16.1596,8.5678" id="Fill-11" fill="#FB292A"></path>
                <path d="M13.0097,8.5678 L13.0097,8.4178 C13.0097,8.0258 13.3307,7.7058 13.7217,7.7058 L13.8717,7.7058 C14.2637,7.7058 14.5847,8.0258 14.5847,8.4178 L14.5847,8.5678 C14.5847,8.9598 14.2637,9.2798 13.8717,9.2798 L13.7217,9.2798 C13.3307,9.2798 13.0097,8.9598 13.0097,8.5678" id="Fill-13" fill="#FB292A"></path>
                <path d="M6.5654,5.9926 C6.9604,6.8256 7.0484,7.6596 7.0654,8.4926 C7.0504,9.3256 6.9614,10.1596 6.5654,10.9926 C6.1694,10.1596 6.0804,9.3256 6.0654,8.4926 C6.0824,7.6596 6.1714,6.8256 6.5654,5.9926" id="Fill-15" fill="#FB292A"></path>
                <path d="M9.0654,8.4926 C8.2324,8.8876 7.3984,8.9746 6.5654,8.9926 C5.7324,8.9776 4.8984,8.8886 4.0654,8.4926 C4.8984,8.0966 5.7324,8.0076 6.5654,7.9926 C7.3984,8.0106 8.2324,8.0976 9.0654,8.4926" id="Fill-17" fill="#FB292A"></path>
            </g>
        </g>
    </g>
</svg>