<?xml version="1.0" encoding="UTF-8"?>
<svg width="22px" height="22px" viewBox="0 0 22 22" version="1.1" xmlns="http://www.w3.org/2000/svg" xmlns:xlink="http://www.w3.org/1999/xlink">
    <title>棒球备份@2x</title>
    <g id="控件" stroke="none" stroke-width="1" fill="none" fill-rule="evenodd">
        <g id="棒球" fill="#CBCED8">
            <path d="M3.21539679,3.21426348 C5.44116745,0.988442672 8.3817325,-0.0738648122 11.2975274,0.00398583617 C11.2041088,0.76692219 11.1970316,1.51570388 11.2770037,2.22980665 C11.2982352,2.42561282 11.3273302,2.61921716 11.3615628,2.81082936 L11.4164239,3.09677978 L10.6138726,3.31193066 C10.3088465,3.39331997 10.1276709,3.7075535 10.2090584,4.01258649 C10.282944,4.28647923 10.544856,4.46062405 10.8188636,4.43338128 L10.9104061,4.41670213 L11.711542,4.20155125 C11.8198228,4.52852397 11.9484061,4.8471366 12.0919179,5.15858342 L12.2402068,5.46768589 L11.5183352,5.88383299 C11.2444487,6.04165748 11.15103,6.39269313 11.3081432,6.66587814 C11.4490576,6.90870925 11.7409516,7.00950443 11.9959395,6.9175632 L12.089463,6.87395169 L12.807796,6.45992779 C12.9972873,6.74496732 13.2027022,7.01965625 13.4225479,7.28369602 L13.6471486,7.544175 L13.0569125,8.13442446 C12.8332738,8.35806814 12.8332738,8.72042752 13.0569125,8.9440712 C13.2550733,9.14223649 13.5633933,9.16425485 13.7865311,9.00962923 L13.8658332,8.94336347 L14.4581926,8.35099081 C14.5813354,8.45998172 14.6995241,8.57392676 14.8290364,8.67654806 C14.9823751,8.79969364 15.1394883,8.91591915 15.2993276,9.02753129 L15.5409999,9.19177781 L15.1255699,9.91012698 C14.967749,10.1840197 15.0611676,10.5336399 15.3343465,10.6921721 C15.5650623,10.8238105 15.8467337,10.779931 16.0250785,10.6015823 L16.0741764,10.5457598 L16.0741764,10.5457598 L16.116374,10.4819754 L16.5303886,9.76362621 C16.8382456,9.91861977 17.1548606,10.0529121 17.4760536,10.1712805 L17.7986178,10.2845178 L17.5834718,11.0899182 C17.5013766,11.3942434 17.6825522,11.708477 17.9868706,11.790574 C18.1921086,11.8457772 18.4001775,11.7820812 18.5403055,11.64195 C18.5860712,11.5961833 18.6246025,11.5425528 18.6529636,11.4818975 L18.6875107,11.3857506 L18.9026567,10.5845967 C19.8757679,10.7834697 20.8835572,10.8372574 21.8991314,10.7233124 L21.9960887,10.7070345 L21.9960887,10.7070345 C22.0732299,13.6221874 21.0095309,16.5599878 18.7851756,18.7843932 C16.559405,21.010214 13.6195477,22.0732292 10.7044604,21.9960863 C10.7964637,21.2331499 10.8035408,20.4843682 10.7249842,19.76885 C10.7028091,19.5730438 10.673714,19.379754 10.639796,19.1881418 L10.5855639,18.9018769 L11.3866998,18.686726 C11.4879034,18.6605399 11.5735372,18.6088753 11.6428935,18.5395175 C11.7823137,18.400094 11.846716,18.1913128 11.7908064,17.9867779 C11.7175576,17.7122482 11.4562826,17.5374664 11.182396,17.56562 L11.090874,17.5826622 L10.2897381,17.7978131 C10.1819882,17.4703096 10.0535375,17.1515643 9.90976033,16.8403828 L9.76107336,16.5316785 L10.4836526,16.1148237 C10.5282388,16.090053 10.5671633,16.0596205 10.6025491,16.0242338 C10.7808939,15.845885 10.8247723,15.5642072 10.6924292,15.334194 C10.5521439,15.0907338 10.2603198,14.9898687 10.0048426,15.0813051 L9.91110941,15.1247049 L9.19348415,15.5394366 C9.00399287,15.2543971 8.79857794,14.9797081 8.57873222,14.7156684 L8.35413153,14.4551894 L8.94436769,13.8649399 C9.16800633,13.6412962 9.16800633,13.2789369 8.94507541,13.0560009 C8.7462855,12.8572065 8.43789554,12.8351183 8.21475007,12.9897361 L8.13544691,13.0560009 L7.54237988,13.6490813 C7.41923708,13.5400904 7.30246374,13.4261453 7.17153605,13.3221086 C7.01866913,13.1994348 6.8610841,13.0833666 6.70129728,12.9718069 L6.46028025,12.8075866 L6.87500254,12.0885297 C7.0335312,11.8153447 6.94011252,11.4657245 6.66622596,11.3079 C6.42465848,11.1669824 6.1204624,11.2251389 5.94500289,11.4321659 L5.88561386,11.5166813 L5.47089157,12.2357382 C5.16303458,12.0807446 4.84681768,11.9460541 4.52492798,11.8277853 L4.20124688,11.7148466 L4.41780835,10.9094462 C4.49990355,10.6037055 4.31802022,10.2901797 4.0129941,10.2087904 C3.73783364,10.134903 3.45579418,10.2754164 3.34383826,10.5255951 L3.31306177,10.612906 L3.09862345,11.4147677 C2.12338912,11.2166024 1.11489208,11.1635224 0.0971947154,11.2753443 L0.00377604224,11.2909144 L0.00377604224,11.2909144 C-0.0719497004,8.37717694 0.991041565,5.43866883 3.21539679,3.21426348 Z M12.1545022,0.0543056643 C14.5756028,0.308381871 16.9294703,1.35865789 18.7851049,3.21433426 C20.5537239,4.98299314 21.5911956,7.20421609 21.9048563,9.50506953 L21.9464777,9.85074816 L21.8049343,9.87056469 C21.0181549,9.95852581 20.2443745,9.93677385 19.4965175,9.82090782 L19.1248091,9.75520418 L19.3300471,8.99226783 C19.4114346,8.68723484 19.230259,8.37300131 18.9252329,8.291612 C18.6500724,8.21772465 18.3674597,8.35766473 18.2559051,8.60824474 L18.2253006,8.69572763 L18.0221857,9.44946346 C17.7801464,9.36689459 17.5425107,9.27551837 17.3096979,9.17365722 L16.9641485,9.01279209 L17.3548084,8.33478372 C17.513337,8.06159872 17.4199184,7.71197853 17.1460318,7.55415404 C16.9025771,7.41386559 16.600408,7.47209194 16.4244282,7.6791267 L16.364712,7.76364305 L15.9726366,8.44306689 C15.7607933,8.30104844 15.557128,8.14833535 15.3599632,7.98744401 L15.0688817,7.74028786 L15.6180703,7.19108692 C15.8424167,6.96673551 15.841709,6.60508386 15.618778,6.38214791 C15.4199881,6.18335353 15.1121573,6.16070607 14.8886391,6.31569672 L14.8091495,6.38214791 L14.2557147,6.93559525 C14.0877498,6.74497911 13.9282775,6.54649928 13.7772978,6.34099454 L13.5571978,6.02757359 L14.2366063,5.63548942 C14.2811925,5.60930329 14.3215324,5.57887077 14.3562105,5.54419184 C14.5345552,5.36584308 14.5784337,5.08274982 14.4460906,4.854152 C14.3058053,4.61069179 14.0139812,4.50982671 13.758504,4.60126312 L13.6647708,4.64466299 L12.9867777,5.03533169 C12.8749584,4.80838526 12.770688,4.57703515 12.6766927,4.33981348 L12.5437467,3.97939381 L13.3045427,3.77485892 C13.4043308,3.7486728 13.4913801,3.69700828 13.5607363,3.62765042 C13.7001566,3.48822699 13.7638512,3.28015344 13.7086492,3.07491082 C13.6354005,2.80038113 13.3735522,2.62617261 13.099551,2.65340901 L13.0080092,2.67008745 L12.2500441,2.87462233 C12.2019193,2.63116213 12.1566254,2.38628645 12.1290244,2.13504118 C12.0701423,1.60735533 12.0628953,1.05702202 12.108008,0.495636744 L12.1545022,0.0543056643 Z M0.0549439973,12.1510225 L0.144824084,12.137628 C0.159371605,12.1351378 0.176199548,12.1321496 0.196487441,12.128375 C0.983266786,12.0404139 1.75704724,12.0621659 2.50401285,12.1789233 L2.87519712,12.245151 L2.67137456,13.0066719 C2.58998708,13.3131204 2.77116269,13.6259384 3.07618881,13.7087432 C3.28071909,13.7632387 3.48949567,13.6988349 3.62891596,13.5594115 C3.67468168,13.5136448 3.71289841,13.4596998 3.74146921,13.3992541 L3.77682886,13.3039198 L3.97852827,12.5487685 C4.22103937,12.6318092 4.45851781,12.7236573 4.6911733,12.8257805 L5.03656551,12.9868554 L4.64590561,13.6634483 C4.48879238,13.9366333 4.58150334,14.2869612 4.85538991,14.4447857 C5.08469028,14.5764241 5.36706946,14.5332523 5.5454142,14.3549036 L5.59468901,14.2983734 L5.59468901,14.2983734 L5.636002,14.2360044 L6.02807734,13.5565806 C6.23992069,13.698599 6.44358598,13.8513121 6.64096045,14.0119938 L6.93253995,14.2586519 L6.38264367,14.8085605 C6.15971274,15.0314965 6.15971274,15.3938559 6.38335138,15.6174996 C6.58214129,15.8162939 6.88997207,15.837823 7.11249622,15.6835779 L7.19156445,15.6174996 L7.74570703,15.0633445 C7.91320011,15.2544324 8.07251512,15.4530695 8.22344237,15.6586267 L8.44351621,15.9720739 L7.76410768,16.364158 C7.49305199,16.5205671 7.39751016,16.870895 7.5553311,17.1447877 C7.69561638,17.3882479 7.98855889,17.489113 8.24329049,17.3976766 L8.33665091,17.3542767 L9.01322858,16.963608 C9.12551971,17.1910263 9.2305764,17.4225337 9.32483385,17.6595981 L9.45767499,18.0195459 L8.69687898,18.2240808 C8.39185286,18.3054701 8.20996953,18.6189959 8.29206473,18.9247366 C8.36595041,19.1986294 8.62728914,19.3733475 8.901698,19.3457034 L8.99341249,19.3288523 L9.75279307,19.1257329 C9.80021013,19.3684853 9.84408859,19.613361 9.87168957,19.8631908 C9.93113781,20.3925752 9.93759219,20.9423424 9.89213976,21.5041579 L9.84691946,21.9446341 C7.42511113,21.6912656 5.07195137,20.6402818 3.2156091,18.7838977 C1.35997455,16.9282214 0.308306762,14.5743009 0.0549439973,12.1510225 Z" id="棒球备份"></path>
        </g>
    </g>
</svg>