<?xml version="1.0" encoding="UTF-8"?>
<svg width="12px" height="12px" viewBox="0 0 12 12" version="1.1" xmlns="http://www.w3.org/2000/svg" xmlns:xlink="http://www.w3.org/1999/xlink">
    <title>收起</title>
    <g id="收起" stroke="none" stroke-width="1" fill="none" fill-rule="evenodd">
        <path d="M10,0 C11.1045695,-2.02906125e-16 12,0.8954305 12,2 L12,10 C12,11.1045695 11.1045695,12 10,12 L2,12 C0.8954305,12 1.3527075e-16,11.1045695 0,10 L0,2 C-1.3527075e-16,0.8954305 0.8954305,2.02906125e-16 2,0 L10,0 Z M6.8,2 L5.2,2 L5.2,5.199 L2,5.2 L2,6.8 L5.2,6.799 L5.2,10 L6.8,10 L6.8,6.799 L10,6.8 L10,5.2 L6.8,5.199 L6.8,2 Z" fill="#999999"></path>
    </g>
</svg>