<?xml version="1.0" encoding="UTF-8"?>
<svg width="10px" height="10px" viewBox="0 0 10 10" version="1.1" xmlns="http://www.w3.org/2000/svg" xmlns:xlink="http://www.w3.org/1999/xlink">
    <title>换人</title>
    <g id="页面-1" stroke="none" stroke-width="1" fill="none" fill-rule="evenodd">
        <g id="赛况" transform="translate(-894.000000, -1561.000000)" fill-rule="nonzero">
            <g id="编组-8" transform="translate(720.000000, 1561.000000)">
                <g id="换人" transform="translate(179.000000, 5.000000) scale(-1, 1) translate(-179.000000, -5.000000) translate(174.000000, 0.000000)">
                    <path d="M4.0332756,4.18432911 L3.35768527,4.18432911 C3.37671598,2.94525798 3.37671598,1.37021692 5.59438883,0.112513147 C5.65148097,0.0752478497 5.6229349,-0.00859906839 5.5563274,0.000717255842 C1.31128884,0.643543628 0.968735996,3.43902317 0.95922064,4.17501278 L0.255084235,4.17501278 C0.0457463849,4.17501278 -0.0779532538,4.41723721 0.0552617417,4.57561472 L1.77754133,6.70031892 C1.96784846,6.93322703 2.31991666,6.93322703 2.5102238,6.70031892 L4.2330981,4.57561472 C4.35679773,4.42655354 4.24261345,4.18432911 4.0332756,4.18432911 L4.0332756,4.18432911 Z" id="路径" fill="#FF9124"></path>
                    <path d="M8.4082756,7.30932911 L7.73268527,7.30932911 C7.75171598,6.07025798 7.75171598,4.49521692 9.96938883,3.23751315 C10.026481,3.20024785 9.9979349,3.11640093 9.9313274,3.12571726 C5.68628884,3.76854363 5.343736,6.56402317 5.33422064,7.30001278 L4.63008423,7.30001278 C4.42074638,7.30001278 4.29704675,7.54223721 4.43026174,7.70061472 L6.15254133,9.82531892 C6.34284846,10.058227 6.69491666,10.058227 6.8852238,9.82531892 L8.6080981,7.70061472 C8.73179773,7.55155354 8.61761345,7.30932911 8.4082756,7.30932911 L8.4082756,7.30932911 Z" id="路径复制-2" fill="#006EFF" transform="translate(7.187500, 6.562500) rotate(-180.000000) translate(-7.187500, -6.562500) "></path>
                </g>
            </g>
        </g>
    </g>
</svg>