<?xml version="1.0" encoding="UTF-8"?>
<svg width="10px" height="10px" viewBox="0 0 10 10" version="1.1" xmlns="http://www.w3.org/2000/svg" xmlns:xlink="http://www.w3.org/1999/xlink">
    <title>角球</title>
    <g id="页面-1" stroke="none" stroke-width="1" fill="none" fill-rule="evenodd">
        <g id="赛况" transform="translate(-836.000000, -1561.000000)">
            <g id="编组-8" transform="translate(720.000000, 1561.000000)">
                <g id="角球" transform="translate(116.000000, 0.000000)">
                    <rect id="矩形" fill="#D8D8D8" opacity="0" x="0" y="0" width="10" height="10"></rect>
                    <g id="角球-(1)" transform="translate(0.625000, 0.625000)" fill-rule="nonzero">
                        <path d="M3.16931652,0.00479934458 C3.42285061,0.00479934458 3.60101234,0.188398637 3.60421417,0.451632181 C3.91166786,0.691050039 4.62459284,1.14706815 5.5071272,1.12659422 C6.65844299,1.12659422 7.85503171,1.49488558 8.16794591,2.06142327 C8.16794591,2.06142327 6.52138819,1.62786196 6.06086188,2.56269103 C5.60033558,3.49752009 5.03921099,3.04812466 4.58607456,3.23663695 C4.14372525,3.42389176 4.13900905,3.63982645 3.86098229,3.6882891 C3.77420739,3.70341477 3.68512589,3.69112042 3.60363057,3.66704873 L3.60425804,5.40009849 C3.57867325,5.6671925 3.37399488,5.88086772 3.16931652,5.88086772 C2.91346858,5.88086772 2.734375,5.69390191 2.734375,5.42680789 L2.734375,0.458859178 C2.734375,0.191765165 2.91346857,0.00479934458 3.16931652,0.00479934458 Z" id="形状结合" fill="#FF4A4A"></path>
                        <path d="M0.140916258,8.60522669 C-0.0381773078,8.41826088 -0.0381773078,8.15116686 0.140916258,7.99091046 L2.80173497,5.21313268 C2.98082854,5.02616687 3.23667649,5.02616687 3.39018526,5.21313268 C3.56927883,5.40009849 3.56927883,5.66719251 3.39018526,5.82744892 L0.729366549,8.60522669 C0.575857774,8.7921925 0.320009825,8.7921925 0.140916258,8.60522669 Z" id="路径" fill="#5AA961"></path>
                        <path d="M8.68623789,7.21633781 C8.60948351,7.43001302 8.40480514,7.56356003 8.17454198,7.53685062 L2.95524374,5.96099592 C2.75056538,5.88086772 2.6226414,5.64048311 2.673811,5.42680789 C2.75056538,5.21313267 2.95524374,5.07958567 3.1855069,5.10629507 L8.40480514,6.65544037 C8.66065309,6.70885918 8.78857708,6.94924379 8.68623789,7.21633781 L8.68623789,7.21633781 Z" id="路径" fill="#5AA961"></path>
                        <path d="M3.26226129,7.29646601 C2.90407415,7.29646601 2.57147181,7.162919 2.31562385,6.94924379 L1.72717356,7.56356003 C2.16211509,7.88407285 2.67381099,8.09774807 3.26226129,8.09774807 C4.23448351,8.09774807 5.05319696,7.53685063 5.51372327,6.73556858 L4.64384023,6.46847456 C4.33682269,6.94924379 3.82512678,7.29646602 3.26226129,7.29646601 Z" id="路径" fill="#5AA961"></path>
                    </g>
                </g>
            </g>
        </g>
    </g>
</svg>