<?xml version="1.0" encoding="UTF-8"?>
<svg width="11px" height="11px" viewBox="0 0 11 11" version="1.1" xmlns="http://www.w3.org/2000/svg" xmlns:xlink="http://www.w3.org/1999/xlink">
    <!-- Generator: Sketch 61.1 (89650) - https://sketch.com -->
    <title>形状结合</title>
    <desc>Created with Sketch.</desc>
    <g id="页面-1" stroke="none" stroke-width="1" fill="none" fill-rule="evenodd">
        <g id="详情展开（篮球）" transform="translate(-710.000000, -161.000000)" fill="#E4E4E4" fill-rule="nonzero">
            <path d="M714.882758,161.195258 C715.143102,160.934914 715.565227,160.934914 715.825555,161.195258 L715.825555,161.195258 L720.539617,165.909305 C720.799961,166.169648 720.799961,166.591773 720.539617,166.852102 L720.539617,166.852102 L715.82557,171.566164 C715.565227,171.826508 715.143102,171.826508 714.882758,171.566164 C714.622414,171.305805 714.622414,170.883695 714.882758,170.623352 L714.882758,170.623352 L719.125414,166.380711 L714.882758,162.13807 C714.622414,161.877727 714.622414,161.455617 714.882758,161.195258 Z M710.195258,161.195258 C710.455602,160.934914 710.877727,160.934914 711.138055,161.195258 L711.138055,161.195258 L715.852117,165.909305 C716.112461,166.169648 716.112461,166.591773 715.852117,166.852102 L715.852117,166.852102 L711.13807,171.566164 C710.877727,171.826508 710.455602,171.826508 710.195258,171.566164 C709.934914,171.305805 709.934914,170.883695 710.195258,170.623352 L710.195258,170.623352 L714.437914,166.380711 L710.195258,162.13807 C709.934914,161.877727 709.934914,161.455617 710.195258,161.195258 Z" id="形状结合"></path>
        </g>
    </g>
</svg>