<?xml version="1.0" encoding="UTF-8"?>
<svg width="22px" height="22px" viewBox="0 0 22 22" version="1.1" xmlns="http://www.w3.org/2000/svg" xmlns:xlink="http://www.w3.org/1999/xlink">
    <title>展开一样</title>
    <g id="页面-1" stroke="none" stroke-width="1" fill="none" fill-rule="evenodd">
        <g id="展开一样">
            <circle id="椭圆形" fill="#A5AEC8" cx="11" cy="11" r="11"></circle>
            <g id="编组" transform="translate(4.999900, 4.000000)" fill="#FFFFFF">
                <path d="M8.0123,9.0004 C8.5063,9.0004 8.7223,9.6224 8.3363,9.9284 L6.6373,11.2744 C6.2643,11.5704 5.7363,11.5704 5.3623,11.2744 L3.6643,9.9284 C3.2783,9.6224 3.4943,9.0004 3.9873,9.0004 L8.0123,9.0004 Z M11.25,6 C11.665,6 12,6.336 12,6.75 C12,7.164 11.665,7.5 11.25,7.5 L0.75,7.5 C0.336,7.5 0,7.164 0,6.75 C0,6.336 0.336,6 0.75,6 L11.25,6 Z M11.25,3 C11.665,3 12,3.336 12,3.75 C12,4.164 11.665,4.5 11.25,4.5 L4.64048396,4.5 C4.22648396,4.5 3.89048396,4.164 3.89048396,3.75 C3.89048396,3.336 4.22648396,3 4.64048396,3 L11.25,3 Z M2.32931429,3 C2.74431429,3 3.07931429,3.336 3.07931429,3.75 C3.07931429,4.164 2.74431429,4.5 2.32931429,4.5 L0.75,4.5 C0.336,4.5 0,4.164 0,3.75 C0,3.336 0.336,3 0.75,3 L2.32931429,3 Z M11.25,0 C11.665,0 12,0.336 12,0.75 C12,1.164 11.665,1.5 11.25,1.5 L0.75,1.5 C0.336,1.5 0,1.164 0,0.75 C0,0.336 0.336,0 0.75,0 L11.25,0 Z" id="形状结合" transform="translate(6.000000, 5.748200) scale(1, -1) translate(-6.000000, -5.748200) "></path>
            </g>
        </g>
    </g>
</svg>