<?xml version="1.0" encoding="UTF-8"?>
<svg width="22px" height="22px" viewBox="0 0 22 22" version="1.1" xmlns="http://www.w3.org/2000/svg" xmlns:xlink="http://www.w3.org/1999/xlink">
    <title>收起黄</title>
    <defs>
        <linearGradient x1="100%" y1="-25.820398%" x2="57.7824074%" y2="100%" id="linearGradient-1">
            <stop stop-color="#FFB001" offset="0%"></stop>
            <stop stop-color="#FF7000" offset="100%"></stop>
        </linearGradient>
    </defs>
    <g id="页面-1" stroke="none" stroke-width="1" fill="none" fill-rule="evenodd">
        <g id="收起黄">
            <circle id="椭圆形" fill="url(#linearGradient-1)" cx="11" cy="11" r="11"></circle>
            <g id="编组" transform="translate(4.999900, 5.000000)" fill="#FFFFFF">
                <path d="M8.0123,10.0004 C8.5063,10.0004 8.7223,10.6224 8.3363,10.9284 L6.6373,12.2744 C6.2643,12.5704 5.7363,12.5704 5.3623,12.2744 L3.6643,10.9284 C3.2783,10.6224 3.4943,10.0004 3.9873,10.0004 L8.0123,10.0004 Z M11.25,7 C11.665,7 12,7.336 12,7.75 C12,8.164 11.665,8.5 11.25,8.5 L0.75,8.5 C0.336,8.5 0,8.164 0,7.75 C0,7.336 0.336,7 0.75,7 L11.25,7 Z M11.25,4 C11.665,4 12,4.336 12,4.75 C12,5.164 11.665,5.5 11.25,5.5 L4.64048396,5.5 C4.22648396,5.5 3.89048396,5.164 3.89048396,4.75 C3.89048396,4.336 4.22648396,4 4.64048396,4 L11.25,4 Z M2.32931429,4 C2.74431429,4 3.07931429,4.336 3.07931429,4.75 C3.07931429,5.164 2.74431429,5.5 2.32931429,5.5 L0.75,5.5 C0.336,5.5 0,5.164 0,4.75 C0,4.336 0.336,4 0.75,4 L2.32931429,4 Z M11.25,1 C11.665,1 12,1.336 12,1.75 C12,2.164 11.665,2.5 11.25,2.5 L0.75,2.5 C0.336,2.5 0,2.164 0,1.75 C0,1.336 0.336,1 0.75,1 L11.25,1 Z" id="形状结合"></path>
            </g>
        </g>
    </g>
</svg>