<?xml version="1.0" encoding="UTF-8"?>
<svg width="14px" height="14px" viewBox="0 0 14 14" version="1.1" xmlns="http://www.w3.org/2000/svg" xmlns:xlink="http://www.w3.org/1999/xlink">
    <!-- Generator: Sketch 61.1 (89650) - https://sketch.com -->
    <title>删除</title>
    <desc>Created with Sketch.</desc>
    <g id="页面-1" stroke="none" stroke-width="1" fill="none" fill-rule="evenodd">
        <g id="小白黑色版备份-4" transform="translate(-351.000000, -279.000000)" fill-rule="nonzero">
            <g id="删除" transform="translate(350.000000, 278.000000)">
                <rect id="矩形" fill="#000000" opacity="0" x="0" y="0" width="16" height="16"></rect>
                <path d="M11.6,14.75 L4.4,14.75 C3.628125,14.75 3,14.0765625 3,13.25 L3,5.75 L4,5.75 L4,13.25 C4,13.5203125 4.1828125,13.75 4.4,13.75 L11.6,13.75 C11.8171875,13.75 12,13.5203125 12,13.25 L12,5.75 L13,5.75 L13,13.25 C13,14.0765625 12.371875,14.75 11.6,14.75 L11.6,14.75 Z M6,5.75 L7,5.75 L7,12.25 L6,12.25 L6,5.75 Z M9.25,5.75 L10.25,5.75 L10.25,12.25 L9.25,12.25 L9.25,5.75 Z M1,3.5 L15,3.5 L15,4.5 L1,4.5 L1,3.5 Z M12,4.5 L4,4.5 L4,2.5 C4,1.6734375 4.6734375,1 5.5,1 L10.5,1 C11.3265625,1 12,1.6734375 12,2.5 L12,4.5 Z M5,3.5 L11,3.5 L11,2.5 C11,2.225 10.775,2 10.5,2 L5.5,2 C5.225,2 5,2.225 5,2.5 L5,3.5 Z" id="形状" fill="#6D7278"></path>
            </g>
        </g>
    </g>
</svg>