<?xml version="1.0" encoding="UTF-8"?>
<svg width="28px" height="18px" viewBox="0 0 28 18" version="1.1" xmlns="http://www.w3.org/2000/svg" xmlns:xlink="http://www.w3.org/1999/xlink">
    <!-- Generator: Sketch 61.1 (89650) - https://sketch.com -->
    <title>VS</title>
    <desc>Created with Sketch.</desc>
    <g id="页面-1" stroke="none" stroke-width="1" fill="none" fill-rule="evenodd">
        <g id="画板" transform="translate(-1881.000000, -361.000000)" fill="#FFFFFF" fill-rule="nonzero">
            <g id="编组备份-7" transform="translate(1615.000000, 320.000000)">
                <path d="M274.46744,58.8508287 L280.362177,41.1491713 L276.74041,41.1491713 L273.168599,52.6850829 L269.596789,41.1491713 L266,41.1491713 L271.869759,58.8508287 L274.46744,58.8508287 Z M287.405888,59 C291.127565,59 294,57.0607735 294,53.6298343 C294,52.0635359 293.575379,50.7707182 292.626227,49.8756906 C291.876896,49.179558 290.85281,48.7320442 289.22926,48.5082873 L287.131133,48.2099448 C286.40678,48.1104972 285.832293,47.8370166 285.482605,47.5138122 C285.107939,47.1657459 284.958073,46.6933702 284.958073,46.2458564 C284.958073,45.0276243 285.85727,44.0082873 287.70562,44.0082873 C288.879572,44.0082873 290.228368,44.1574586 291.352364,45.2265193 L293.550401,43.0635359 C292.026762,41.5966851 290.253345,41 287.805531,41 C283.958965,41 281.611062,43.2127072 281.611062,46.3701657 C281.611062,47.8618785 282.035682,49.0055249 282.884924,49.8508287 C283.684211,50.621547 284.808207,51.0939227 286.331847,51.3176796 L288.479929,51.6160221 C289.304193,51.7403315 289.703836,51.9143646 290.053524,52.2375691 C290.428189,52.5856354 290.603033,53.1077348 290.603033,53.7292818 C290.603033,55.1464088 289.504014,55.9171271 287.455843,55.9171271 C285.807315,55.9171271 284.283675,55.5441989 283.159679,54.4254144 L280.911686,56.6629834 C282.660125,58.4281768 284.708296,59 287.405888,59 Z" id="VS"></path>
            </g>
        </g>
    </g>
</svg>