<?xml version="1.0" encoding="UTF-8"?>
<svg width="20px" height="20px" viewBox="0 0 20 20" version="1.1" xmlns="http://www.w3.org/2000/svg" xmlns:xlink="http://www.w3.org/1999/xlink">
    <title>编组 34</title>
    <g id="页面-1" stroke="none" stroke-width="1" fill="none" fill-rule="evenodd">
        <g id="06-篮球样式" transform="translate(-1866.000000, -20.000000)">
            <g id="说明" transform="translate(1866.000000, 20.000000)">
                <rect id="矩形" stroke="#DEDEDE" x="0.5" y="0.5" width="19" height="19" rx="9.5"></rect>
                <path d="M10.9713542,7.27083333 C11.84375,7.27083333 12.71875,7.7578125 12.0390625,9.6015625 L12.0390625,9.6015625 L10.5833333,13.390625 C10.390625,13.6822917 10.1953125,14.1640625 10.1953125,14.4583333 C10.1953125,14.6536458 10.1953125,14.7526042 10.390625,14.7526042 C11.0677083,14.7526042 12.1354167,13.1015625 12.4296875,13.1015625 C12.5260417,13.1015625 12.6223958,13.1953125 12.71875,13.4036458 C12.71875,13.8854167 10.3880208,16.3151042 8.34895833,16.3151042 C7.5703125,16.3151042 7.0859375,15.5338542 7.0859375,14.7578125 C7.0859375,13.8828125 7.86197917,12.7213542 7.9609375,12.4270833 L7.9609375,12.4270833 L9.41666667,9.02604167 C9.609375,8.73697917 9.41666667,8.54166667 9.22135417,8.54166667 C8.4453125,8.54166667 7.765625,10.3854167 7.37760417,10.3854167 C7.18229167,10.3854167 7.08333333,10.1901042 7.08333333,10.0911458 C7.08333333,9.796875 7.6640625,8.828125 7.95833333,8.53385417 C8.73697917,7.85416667 9.8046875,7.27083333 10.9713542,7.27083333 Z M12.0416667,3.67708333 C12.8177083,3.67708333 13.4036458,4.16145833 13.4036458,5.0390625 C13.4036458,5.91666667 12.6276042,6.59635417 11.7526042,6.59635417 C10.9739583,6.59635417 10.390625,6.01041667 10.390625,5.234375 C10.390625,4.35677083 11.1666667,3.67708333 12.0416667,3.67708333 Z" id="形状结合" fill="#FFFFFF" fill-rule="nonzero"></path>
            </g>
        </g>
    </g>
</svg>