<?xml version="1.0" encoding="UTF-8"?>
<svg width="16px" height="16px" viewBox="0 0 16 16" version="1.1" xmlns="http://www.w3.org/2000/svg" xmlns:xlink="http://www.w3.org/1999/xlink">
    <!-- Generator: Sketch 61.1 (89650) - https://sketch.com -->
    <title>形状</title>
    <desc>Created with Sketch.</desc>
    <g id="页面-1" stroke="none" stroke-width="1" fill="none" fill-rule="evenodd">
        <g id="热门赛事" transform="translate(-829.000000, -983.000000)" fill="#6D7278" fill-rule="nonzero">
            <g id="编组-6" transform="translate(692.000000, 983.000000)">
                <g id="返回顶部" transform="translate(137.000000, 0.000000)">
                    <path d="M1.2,7.5 L7.8,0.9 C7.9,0.8 8.1,0.8 8.2,0.9 L14.8,7.5 C14.9,7.6 15,7.6 15.1,7.6 C15.2,7.6 15.3,7.6 15.4,7.5 C15.6,7.3 15.6,7.1 15.4,6.9 L8.7,0.3 C8.3,-0.1 7.5,-0.1 7.1,0.3 L0.5,6.9 C0.4,7 0.4,7.3 0.5,7.5 C0.6,7.7 1,7.7 1.2,7.5 Z M0.5,10.5 L2.2,10.5 L2.2,15.9 L3,15.9 L3,10.5 L4.7,10.5 L4.7,9.9 L0.5,9.9 L0.5,10.5 Z M7.8,9.8 C6.9,9.8 6.2,10.1 5.7,10.7 C5.2,11.3 4.9,12.1 4.9,13 C4.9,13.9 5.2,14.6 5.7,15.2 C6.2,15.7 6.9,16 7.7,16 C8.6,16 9.3,15.7 9.8,15.1 C10.3,14.5 10.6,13.7 10.6,12.8 C10.6,11.9 10.3,11.2 9.8,10.6 C9.4,10 8.7,9.8 7.8,9.8 Z M9.3,14.7 C8.9,15.1 8.4,15.3 7.8,15.3 C7.2,15.3 6.7,15.1 6.3,14.6 C5.9,14.2 5.7,13.6 5.7,12.8 C5.7,12.1 5.9,11.5 6.3,11 C6.7,10.6 7.2,10.3 7.8,10.3 C8.4,10.3 8.9,10.5 9.3,10.9 C9.7,11.3 9.8,11.9 9.8,12.7 C9.8,13.7 9.6,14.2 9.3,14.7 Z M15,10.3 C14.6,10 14.1,9.8 13.5,9.8 L11.8,9.8 L11.8,15.8 L12.6,15.8 L12.6,13.5 L13.4,13.5 C14,13.5 14.6,13.3 15,13 C15.4,12.6 15.6,12.2 15.6,11.6 C15.6,11.1 15.4,10.6 15,10.3 Z M14.4,12.6 C14.2,12.8 13.8,12.9 13.3,12.9 L12.6,12.9 L12.6,10.5 L13.4,10.5 C14.3,10.5 14.8,10.9 14.8,11.7 C14.8,12.1 14.6,12.4 14.4,12.6 Z" id="形状"></path>
                </g>
            </g>
        </g>
    </g>
</svg>