<?xml version="1.0" encoding="UTF-8"?>
<svg width="14px" height="14px" viewBox="0 0 14 14" version="1.1" xmlns="http://www.w3.org/2000/svg" xmlns:xlink="http://www.w3.org/1999/xlink">
    <title>点球灰</title>
    <g id="页面-1" stroke="none" stroke-width="1" fill="none" fill-rule="evenodd">
        <g id="PC虚拟足球已完赛" transform="translate(-1570.000000, -530.000000)">
            <g id="编组-31备份-4" transform="translate(1353.000000, 448.000000)">
                <g id="编组-22" transform="translate(183.000000, 29.000000)">
                    <g id="点球灰" transform="translate(34.000000, 53.000000)">
                        <ellipse id="椭圆形" fill="#5A6074" cx="7" cy="12.25" rx="7" ry="1.75"></ellipse>
                        <path d="M9.06022728,0.355173397 C11.4823864,1.21873223 13.125,3.53084139 13.125,6.12151791 C13.125,9.49218305 10.36875,12.25 7,12.25 C3.63125,12.25 0.875,9.49218306 0.875,6.12151791 C0.875,3.53084139 2.51761364,1.21873223 4.96761364,0.355173397 C6.27613637,-0.118391132 7.75170455,-0.118391132 9.06022728,0.355173397 Z M8.28068181,1.27444571 L7.30625,1.97086414 C7.11136365,2.11014783 6.83295455,2.11014783 6.63806819,1.97086414 L5.66363636,1.27444571 C5.58011364,1.30230244 5.44090909,1.35801592 5.32954545,1.38587267 C4.2715909,1.77586698 3.38068182,2.50014213 2.79602273,3.39155771 L3.15795454,4.53368391 C3.24147727,4.75653781 3.15795454,5.00724844 2.96306818,5.14653213 L1.98863636,5.87080727 L1.98863636,6.12151791 C1.98863636,7.31935758 2.40625,8.40577031 3.10227272,9.26932916 L4.29943182,9.26932916 C4.55,9.26932916 4.74488636,9.43646958 4.82840909,9.65932348 L5.1903409,10.8014497 C5.74715909,11.0243036 6.35965909,11.1357305 7,11.1357305 C7.64034091,11.1357305 8.22500001,11.0243036 8.78181818,10.8014497 L9.14375001,9.65932348 C9.22727273,9.43646958 9.42215909,9.26932916 9.67272727,9.26932916 L10.8698864,9.26932916 C11.5659091,8.40577033 11.9835227,7.31935759 11.9835227,6.12151791 L11.9835227,5.87080727 L11.0090909,5.17438886 C10.8142046,5.03510517 10.7306818,4.78439454 10.8142046,4.56154066 L11.2039773,3.39155771 C10.6193182,2.50014213 9.72840908,1.77586698 8.67045455,1.38587267 C8.55909091,1.33015919 8.41988636,1.30230246 8.28068181,1.27444571 Z M7.33409091,3.50298465 L9.39431819,4.97939171 C9.58920455,5.1186754 9.67272727,5.36938603 9.58920455,5.59223991 L8.8096591,8.01577601 C8.72613637,8.23862991 8.53125001,8.40577033 8.28068181,8.40577033 L5.74715909,8.40577033 C5.49659091,8.40577033 5.30170455,8.23862991 5.21818182,8.01577601 L4.43863636,5.59223991 C4.35511363,5.36938601 4.43863636,5.11867538 4.63352273,4.97939171 L6.66590909,3.50298465 C6.86079545,3.36370097 7.13920455,3.36370097 7.33409091,3.50298465 Z" id="形状结合复制-2备份-2" fill="#ABBAC8"></path>
                    </g>
                </g>
            </g>
        </g>
    </g>
</svg>