<?xml version="1.0" encoding="UTF-8"?>
<svg width="16px" height="16px" viewBox="0 0 16 16" version="1.1" xmlns="http://www.w3.org/2000/svg" xmlns:xlink="http://www.w3.org/1999/xlink">
    <!-- Generator: Sketch 61.1 (89650) - https://sketch.com -->
    <title>形状</title>
    <desc>Created with Sketch.</desc>
    <g id="页面-1" stroke="none" stroke-width="1" fill="none" fill-rule="evenodd">
        <g id="账户失效" transform="translate(-857.000000, -512.000000)" fill="#3A404C" fill-rule="nonzero">
            <g id="编组-2" transform="translate(857.000000, 509.000000)">
                <path d="M10.7488,3 L15.2,7.4536 L15.2,13.7496 L10.7488,18.2 L4.4528,18.2 L0,13.7488 L0,7.4528 L4.4528,3 L10.7488,3 Z M10.0856,4.6 L5.1152,4.6 L1.6008,8.116 L1.6008,13.0864 L5.1152,16.6016 L10.0856,16.6016 L13.6008,13.0864 L13.6008,8.1152 L10.0856,4.6008 L10.0856,4.6 Z M6.8,13 L8.4,13 L8.4,14.6 L6.8,14.6 L6.8,13 Z M6.8,6.6 L8.4,6.6 L8.4,11.4 L6.8,11.4 L6.8,6.6 Z" id="形状"></path>
            </g>
        </g>
    </g>
</svg>