<?xml version="1.0" encoding="UTF-8"?>
<svg width="18px" height="18px" viewBox="0 0 18 18" version="1.1" xmlns="http://www.w3.org/2000/svg" xmlns:xlink="http://www.w3.org/1999/xlink">
    <!-- Generator: Sketch 61.1 (89650) - https://sketch.com -->
    <title>编组 2</title>
    <desc>Created with Sketch.</desc>
    <g id="页面-1" stroke="none" stroke-width="1" fill="none" fill-rule="evenodd">
        <g id="编组-2" fill-rule="nonzero">
            <path d="M9.33433962,9 C9.16226415,9 8.99320755,8.93360996 8.86339623,8.8038476 L6.19471698,6.13617503 C5.93509434,5.87665032 5.93509434,5.45416824 6.19471698,5.19464353 C6.45433962,4.93511882 6.87698113,4.93511882 7.13660377,5.19464353 L9.80528302,7.86231611 C10.0649057,8.12184081 10.0649057,8.5443229 9.80528302,8.8038476 C9.6754717,8.93360996 9.50339623,9 9.33433962,9 L9.33433962,9 Z" id="路径" fill="#B99F86"></path>
            <path d="M8.8634335,0.279350481 L9.12853317,1.03463141 C9.20351086,1.25190401 11.0136864,6.23624084 16.8164237,7.59936773 L16.8164237,9.92987498 L13.2308837,16.8567323 L3.50520678,16.8567323 L6.46414758,11.1429803 L1.68164237,11.1429803 L4.99137162,2.24256359 C5.49747099,2.11323466 5.86968164,1.67092973 5.86968164,1.14326771 C5.86968164,0.512142549 5.3394823,0 4.68610533,0 C4.03272835,0 3.50520678,0.509555971 3.50520678,1.14068113 C3.50520678,1.45365713 3.63641773,1.73559419 3.84528414,1.94252048 L0,12.2836614 L4.68610533,12.2836614 L1.72984231,18 L18,18 L18,7.15188964 L18,0.284523638 L8.8634335,0.279350481 Z M16.8164237,1.64765052 L14.8670039,5.68012645 C14.6474264,5.56890358 14.43856,5.45250754 14.2377269,5.33093835 L16.2594466,1.42520477 L16.8164237,1.42520477 L16.8164237,1.64765052 Z M12.1544183,3.63931599 L13.3005058,1.42520477 L14.117227,1.42520477 L12.692651,4.17473775 C12.502529,3.99626383 12.3231181,3.81778991 12.1544183,3.63931599 L12.1544183,3.63931599 Z M14.7813151,1.42520477 L15.5980363,1.42520477 L13.7423386,5.01020262 C13.53615,4.8679408 13.3406724,4.71791924 13.1532282,4.56789769 L14.7813151,1.42520477 Z M12.6390955,1.42520477 L11.7393633,3.16338554 C11.2011306,2.5063946 10.8235644,1.88302917 10.5879203,1.42261819 L12.6390955,1.42520477 Z M15.399881,5.92843799 L16.8137459,3.0004311 L16.8137459,6.41988791 C16.3076465,6.28538583 15.839036,6.11725823 15.399881,5.92843799 Z M16.8164237,11.2076448 L16.8164237,13.0777411 L14.9901815,16.8567323 L13.892294,16.8567323 L16.8164237,11.2076448 Z M15.6435585,16.8567323 L16.8164237,14.4305216 L16.8164237,16.8567323 L15.6435585,16.8567323 Z" id="形状" fill="#000000"></path>
        </g>
    </g>
</svg>