<?xml version="1.0" encoding="UTF-8"?>
<svg width="18px" height="18px" viewBox="0 0 18 18" version="1.1" xmlns="http://www.w3.org/2000/svg" xmlns:xlink="http://www.w3.org/1999/xlink">
    <title>编组 62</title>
    <defs>
        <linearGradient x1="100%" y1="0%" x2="0%" y2="100%" id="linearGradient-1">
            <stop stop-color="#A3ACB3" offset="0%"></stop>
            <stop stop-color="#64676E" offset="100%"></stop>
        </linearGradient>
    </defs>
    <g id="页面-1" stroke="none" stroke-width="1" fill="none" fill-rule="evenodd">
        <g id="内嵌-欧宝1350-1" transform="translate(-140.000000, -264.000000)">
            <g id="编组-62" transform="translate(140.000000, 264.000000)">
                <rect id="矩形" fill="url(#linearGradient-1)" opacity="0.6" x="0" y="0" width="18" height="18" rx="9"></rect>
                <path d="M9.0002223,4.85546667 C8.75435346,4.85546667 8.55561319,5.05457778 8.55561319,5.29991111 L8.55561319,8.99991111 C8.55561319,9.05768889 8.56717303,9.11502222 8.58984809,9.16968889 C8.61252316,9.22391111 8.64497962,9.27324444 8.68632827,9.31413333 L11.0143016,11.6421333 C11.101445,11.7288 11.2148203,11.7723556 11.3286402,11.7723556 C11.4424602,11.7723556 11.5562801,11.7288 11.6429789,11.6421333 C11.816821,11.4683556 11.816821,11.1870222 11.6429789,11.0132444 L9.44483142,8.81591111 L9.44483142,5.29991111 C9.44483142,5.05457778 9.24609114,4.85546667 9.0002223,4.85546667" id="Fill-1" fill="#FFFFFF"></path>
            </g>
        </g>
    </g>
</svg>