<?xml version="1.0" encoding="UTF-8"?>
<svg width="14px" height="14px" viewBox="0 0 14 14" version="1.1" xmlns="http://www.w3.org/2000/svg" xmlns:xlink="http://www.w3.org/1999/xlink">
    <!-- Generator: Sketch 61.1 (89650) - https://sketch.com -->
    <title>缩小 退出全屏 收回</title>
    <desc>Created with Sketch.</desc>
    <g id="页面-1" stroke="none" stroke-width="1" fill="none" fill-rule="evenodd">
        <g id="列表右侧暂无直播" transform="translate(-1737.000000, -219.000000)" fill-rule="nonzero">
            <g id="缩小-退出全屏-收回" transform="translate(1736.000000, 218.000000)">
                <rect id="矩形" fill="#000000" opacity="0" x="0" y="0" width="16" height="16"></rect>
                <path d="M6.79998054,8.5638817 L1.56419075,8.5638817 C1.26818952,8.5638817 1.02795664,8.80509392 1.02795664,9.10230182 C1.02795664,9.39950973 1.26818952,9.64072194 1.56419075,9.64072194 L5.63206266,9.64072194 L1.15021802,14.1408373 C0.948593994,14.3432833 0.948593994,14.668489 1.15021802,14.870935 C1.35076957,15.0723041 1.67572744,15.0723041 1.87627899,14.870935 L6.39029769,10.3385144 L6.39029769,14.4875799 C6.39029769,14.7847878 6.63053057,15.026 6.92653179,15.026 C7.22253302,15.026 7.4627659,14.7847878 7.4627659,14.4875799 L7.4627659,9.10337866 C7.4627659,8.69740989 7.23111276,8.5638817 6.79998054,8.5638817 Z M9.19801946,7.48704146 L14.4348817,7.48704146 C14.7308829,7.48704146 14.9711158,7.24582924 14.9711158,6.94862134 C14.9711158,6.65141343 14.7308829,6.41020122 14.4348817,6.41020122 L10.3659373,6.41020122 L14.847782,1.91008584 C15.049406,1.70763987 15.049406,1.38243412 14.847782,1.17998815 C14.6472304,0.978619029 14.3222726,0.978619029 14.121721,1.17998815 L9.60770231,5.71348558 L9.60770231,1.56442012 C9.60770231,1.26721221 9.36746943,1.026 9.07146821,1.026 C8.77546698,1.026 8.5352341,1.26721221 8.5352341,1.56442012 L8.5352341,6.94862134 C8.5352341,7.29321021 8.80335116,7.48704146 9.19801946,7.48704146 Z" id="形状" fill="#7C7E80"></path>
            </g>
        </g>
    </g>
</svg>