<?xml version="1.0" encoding="UTF-8"?>
<svg width="14px" height="14px" viewBox="0 0 14 14" version="1.1" xmlns="http://www.w3.org/2000/svg" xmlns:xlink="http://www.w3.org/1999/xlink">
    <!-- Generator: Sketch 61.1 (89650) - https://sketch.com -->
    <title>形状</title>
    <desc>Created with Sketch.</desc>
    <g id="页面-1" stroke="none" stroke-width="1" fill="none" fill-rule="evenodd">
        <g id="全屏盘" transform="translate(-1851.000000, -98.000000)" fill="#E4E4E4" fill-rule="nonzero">
            <path d="M1861.15265,107.329257 L1865,111.176608 L1864.17661,112 L1860.32926,108.15265 L1860.32926,110.240829 C1860.32926,110.562432 1860.06855,110.823143 1859.74694,110.823143 C1859.42534,110.823143 1859.16463,110.562432 1859.16463,110.240829 L1859.16463,106.746943 C1859.16416,106.592361 1859.22536,106.443976 1859.33467,106.33467 C1859.44398,106.225364 1859.59236,106.164163 1859.74694,106.164626 L1863.24083,106.164626 C1863.56243,106.164626 1863.82314,106.42534 1863.82314,106.746943 C1863.82314,107.068546 1863.56243,107.329257 1863.24083,107.329257 L1861.15265,107.329257 Z M1854.84735,107.329257 L1851,111.176608 L1851.82339,112 L1855.67074,108.15265 L1855.67074,110.240829 C1855.67074,110.562432 1855.93145,110.823143 1856.25306,110.823143 C1856.57466,110.823143 1856.83537,110.562432 1856.83537,110.240829 L1856.83537,106.746943 C1856.83584,106.592361 1856.77464,106.443976 1856.66533,106.33467 C1856.55602,106.225364 1856.40764,106.164163 1856.25306,106.164626 L1852.75917,106.164626 C1852.43757,106.164626 1852.17686,106.42534 1852.17686,106.746943 C1852.17686,107.068546 1852.43757,107.329257 1852.75917,107.329257 L1854.84735,107.329257 L1854.84735,107.329257 Z M1854.84735,102.670743 L1851,98.8233924 L1851.82339,98.0005823 L1855.67074,101.84735 L1855.67074,99.7591714 C1855.67074,99.4375682 1855.93145,99.1768572 1856.25306,99.1768572 C1856.57466,99.1768572 1856.83537,99.4375682 1856.83537,99.7591714 L1856.83537,103.253057 C1856.83584,103.407639 1856.77464,103.556024 1856.66533,103.66533 C1856.55602,103.774636 1856.40764,103.835837 1856.25306,103.835374 L1852.75917,103.835374 C1852.43757,103.835374 1852.17686,103.57466 1852.17686,103.253057 C1852.17686,102.931454 1852.43757,102.670743 1852.75917,102.670743 L1854.84735,102.670743 Z M1861.15265,102.670743 L1865,98.8233924 L1864.17661,98 L1860.32926,101.84735 L1860.32926,99.7591714 C1860.32926,99.4375682 1860.06855,99.1768572 1859.74694,99.1768572 C1859.42534,99.1768572 1859.16463,99.4375682 1859.16463,99.7591714 L1859.16463,103.253057 C1859.16416,103.407639 1859.22536,103.556024 1859.33467,103.66533 C1859.44398,103.774636 1859.59236,103.835837 1859.74694,103.835374 L1863.24083,103.835374 C1863.56243,103.835374 1863.82314,103.57466 1863.82314,103.253057 C1863.82314,102.931454 1863.56243,102.670743 1863.24083,102.670743 L1861.15265,102.670743 Z" id="形状"></path>
        </g>
    </g>
</svg>