<?xml version="1.0" encoding="UTF-8"?>
<svg width="16px" height="14px" viewBox="0 0 16 14" version="1.1" xmlns="http://www.w3.org/2000/svg" xmlns:xlink="http://www.w3.org/1999/xlink">
    <!-- Generator: Sketch 61.1 (89650) - https://sketch.com -->
    <title>展开</title>
    <desc>Created with Sketch.</desc>
    <g id="页面-1" stroke="none" stroke-width="1" fill="none" fill-rule="evenodd">
        <g id="详情双列备份" transform="translate(-1220.000000, -150.000000)" fill="#6D7278" fill-rule="nonzero">
            <g id="编组-39备份" transform="translate(234.000000, 137.000000)">
                <path d="M993.400514,17.0975034 L986.528756,17.0975034 C986.238636,17.0975034 986.002316,17.4847657 986.002316,17.958607 C986.002316,18.432413 986.238636,18.8196753 986.528737,18.8196753 L993.402867,18.8196753 C993.692986,18.8196753 993.929288,18.432413 993.929288,17.958607 C993.926953,17.48022 993.690652,17.0975034 993.400514,17.0975034 Z M993.400514,21.1852251 L986.528756,21.1852251 C986.238636,21.1852251 986.002316,21.5724873 986.002316,22.0462934 C986.002316,22.5201347 986.238636,22.9073969 986.528737,22.9073969 L993.402867,22.9073969 C993.692986,22.9073969 993.929288,22.5201347 993.929288,22.0462934 C993.926953,21.5724873 993.690652,21.1852251 993.400514,21.1852251 Z M993.391158,25.2778281 L986.535795,25.2778281 C986.240988,25.2778281 986,25.6650904 986,26.1388965 C986,26.6127377 986.238654,27 986.535795,27 L993.391176,27 C993.688318,27 993.926971,26.6127377 993.926971,26.1388965 C993.926971,25.6650904 993.688318,25.2778281 993.391176,25.2778281 L993.391158,25.2778281 Z M995.385615,19.5462123 L997.36735,19.5462123 L997.36735,13.5504118 C997.36735,13.2470619 997.613621,13 998.39357,13 C999.17352,13 999.426305,13.2470619 999.426305,13.5503928 L999.426305,19.5462313 L1001.39822,19.5462313 C1001.7734,19.5462313 1001.95438,19.6196044 1001.9906,19.6734327 C1002.02023,19.7174604 1001.98729,19.852003 1001.78328,20.0403739 L999.17352,22.4670595 C998.959608,22.667653 998.683181,22.7752909 998.396854,22.7752909 C998.107243,22.7752909 997.8341,22.6652123 997.620188,22.4670784 L995.00712,20.0378764 C994.806393,19.8495244 994.773456,19.7149818 994.803084,19.6709542 C994.826119,19.6195665 995.010429,19.5461934 995.38559,19.5461934 L995.385615,19.5462123 Z M986.538111,26.9975593 L1000.43606,26.9975593 C1000.73087,26.9975593 1000.97186,26.6102891 1000.97186,26.1364733 C1000.97186,25.6626576 1000.7332,25.2753874 1000.43606,25.2753874 L986.538111,25.2753874 C986.243323,25.2753874 986.002316,25.6626576 986.002316,26.1364733 C986.002316,26.6148701 986.24097,26.9975593 986.538111,26.9975593 Z M993.400514,13.0024596 L986.528756,13.0024596 C986.238636,13.0024596 986.002316,13.3897219 986.002316,13.863528 C986.002316,14.3373692 986.238636,14.7246315 986.528737,14.7246315 L993.402867,14.7246315 C993.692986,14.7246315 993.929288,14.3373692 993.929288,13.863528 C993.926953,13.3897219 993.690652,13.0024596 993.400514,13.0024596 Z" id="展开"></path>
            </g>
        </g>
    </g>
</svg>