<?xml version="1.0" encoding="UTF-8"?>
<svg width="24px" height="24px" viewBox="0 0 24 24" version="1.1" xmlns="http://www.w3.org/2000/svg" xmlns:xlink="http://www.w3.org/1999/xlink">
    <title>水球未选中备份 4@2x</title>
    <defs>
        <linearGradient x1="100%" y1="0%" x2="0%" y2="100%" id="linearGradient-1">
            <stop stop-color="#A3ACB3" offset="0%"></stop>
            <stop stop-color="#64676E" offset="100%"></stop>
        </linearGradient>
    </defs>
    <g id="水球未选中备份-4" stroke="none" stroke-width="1" fill="none" fill-rule="evenodd">
        <path d="M2.9932926,19.4762172 L3.04752172,19.4811261 L4.82635797,19.9085101 L5.23819788,20.0078318 L9.31337184,20.9872033 C9.33798618,20.9932228 9.35959877,21.0034559 9.38001066,21.0191066 C10.3033485,21.7552906 11.9164883,22.7876336 13.4017535,23.5894301 C13.5548427,23.6718972 13.5134185,23.9066574 13.3399175,23.9259198 C9.49887991,24.3539057 5.53477065,22.9218683 2.8638147,19.7742754 C2.75275,19.6424485 2.8794238,19.4407955 3.04752172,19.4811261 Z M11.3956248,17.6849094 C11.449056,17.5867917 11.5757298,17.5621117 11.6633808,17.630734 C13.9567168,19.435378 17.1571812,20.7157241 19.9434043,20.9817857 C19.7963186,21.1118068 19.6588385,21.2484493 19.5039483,21.3724508 C18.248617,22.3789101 16.8534042,23.0880063 15.4017586,23.5165942 C15.3591338,23.5292352 15.3147079,23.5268274 15.2738841,23.5087689 C13.7886189,22.8484305 11.5186965,21.5030738 10.2111348,20.5231004 C10.144496,20.4731386 10.1240841,20.384652 10.1571034,20.3076025 L10.1571034,20.3076025 L10.4416691,19.6430505 C10.7310377,18.971877 11.049223,18.319364 11.3956248,17.6849094 Z M13.612056,14.369794 C13.6702899,14.2975601 13.7705483,14.2807055 13.8485938,14.3306673 C15.785322,15.580314 19.4510575,16.6355312 22.6515219,16.6355312 C22.7968065,16.6355312 22.9378887,16.6265019 23.0807719,16.6222883 C22.5602687,17.8707311 21.814034,19.0349011 20.8684832,20.0714578 C20.8318618,20.1117884 20.7790311,20.1352644 20.7243992,20.1341047 C17.9561866,20.0564091 14.4303327,18.703829 12.0907698,16.8149121 C12.0187278,16.756523 12.0025184,16.6505799 12.0517471,16.5723265 C12.5278244,15.806647 13.0483276,15.0722688 13.612056,14.369794 Z M14.1329795,5.78226482 C14.2086235,5.73109913 14.3142851,5.74494396 14.3749204,5.81296424 C15.5642132,7.14568 16.423914,8.55123162 16.7469022,9.7804121 C16.7649127,9.84602457 16.7420994,9.91524874 16.69167,9.96159884 L16.69167,9.96159884 L15.3949146,11.1480409 C13.6677084,12.7293617 12.21126,14.531598 11.0309724,16.5198365 C10.9553284,16.6468478 10.8772829,16.7720533 10.8046406,16.9002685 C10.367586,17.6689577 9.9683534,18.4635308 9.61534776,19.2863955 L9.61534776,19.2863955 L9.34639108,19.9124228 C9.31217114,19.992482 9.22391973,20.0370263 9.13927042,20.0159581 L9.13927042,20.0159581 L5.9832319,19.2581039 C5.89137839,19.2364337 5.83134341,19.1467433 5.84395076,19.0540431 C6.61479981,13.6226545 9.59973866,8.84558483 14.1329795,5.78226482 Z M10.8762623,2.95033412 C10.937498,2.90940157 11.0179448,2.91060547 11.0797808,2.95153802 C11.9418831,3.52880741 12.7511545,4.1843302 13.476377,4.88138749 C13.5580245,4.95903895 13.5442165,5.0914678 13.4517626,5.15527443 C8.83747461,8.34440184 5.79069974,13.2472789 4.97002166,18.8141061 C4.95501292,18.9182433 4.85535486,18.9868655 4.75329541,18.9621856 L4.75329541,18.9621856 L2.23903074,18.3584305 C1.77676145,18.2476718 1.47058309,17.7925981 1.5612359,17.3236796 C2.84298257,10.7142763 6.96798556,5.50681282 10.8762623,2.95033412 Z M7.00444457,1.05902725 L7.04849245,1.06526968 C8.00785132,1.32350594 8.96180704,1.71838468 9.87854108,2.2204104 C9.99500892,2.28542092 10.0046145,2.44915113 9.89535087,2.52620065 C6.23862067,5.10856316 2.50384501,9.84771003 0.973553548,15.8130276 C0.929127668,15.9851851 0.689588126,16.0020397 0.632554902,15.832892 C-0.942762786,11.1701927 0.451849634,5.81765944 4.50841275,2.56532735 C5.26545376,1.9591644 6.07772694,1.47158546 6.91821656,1.07730867 C6.95844,1.05804629 7.00526727,1.05383265 7.04849245,1.06526968 Z M17.4167105,10.5988017 L17.4645603,10.6103798 C18.6004219,11.059434 19.8665595,11.3658262 21.129095,11.5145077 C21.4316713,11.5500227 21.7330468,11.5789162 22.0326213,11.5957708 C22.3057805,11.6120234 22.5771385,11.6210527 22.8442942,11.6210527 C23.1708844,11.6210527 23.4902705,11.6072078 23.8024523,11.581926 C23.9069132,11.5734987 23.9963653,11.6541599 23.9981664,11.7588991 C24.0203793,13.0530901 23.8408747,14.3442713 23.4542495,15.5818791 C23.4314362,15.6565208 23.364197,15.7094924 23.2861516,15.7131041 C20.2237676,15.8641933 16.4361612,14.8595399 14.4802217,13.6622628 C14.3835654,13.6032717 14.3679563,13.4684351 14.4442008,13.3841622 C14.9352868,12.8393981 15.4551897,12.3157022 16.0021083,11.8148804 L16.0021083,11.8148804 L17.2820539,10.644089 C17.331883,10.5983408 17.4021239,10.5856999 17.4645603,10.6103798 Z M13.8846064,0.0966315238 L13.9400871,0.0976963721 C16.7731375,0.558789539 19.4512976,2.02634194 21.3844237,4.45159569 C22.8186592,6.25022021 23.6441401,8.33597455 23.9088943,10.4650692 C23.922102,10.5692065 23.8452573,10.6655184 23.7407964,10.6733437 C23.2190925,10.7118685 22.6721739,10.717286 22.1108469,10.6859846 C22.0279986,10.681169 21.9589584,10.6209741 21.94455,10.5385071 C21.3411986,7.2121352 17.7288942,2.80345849 13.814614,0.430574337 C13.6459157,0.327641006 13.7449734,0.0663950083 13.9400871,0.0976963721 Z M10.7878308,2.93098879e-14 L10.9109025,0.041534502 C15.5426006,1.60118515 20.0728397,6.82008562 20.9649594,10.3234306 C20.9967779,10.448636 20.8845125,10.5654142 20.7578387,10.5461518 C19.7024239,10.3872372 18.6602168,10.1157581 17.7296747,9.74134559 C17.6762436,9.72027736 17.6390219,9.67633507 17.6246135,9.62035378 C17.2782117,8.24369572 16.3452682,6.67441389 15.0311027,5.19662834 C14.8293852,4.97029541 14.6204634,4.74697221 14.4025365,4.52605682 C13.6340888,3.74833832 12.7665835,3.01516406 11.8306383,2.36626271 C11.5550777,2.17484284 11.2741141,1.99185025 10.9883476,1.81728495 C10.2853381,1.38749315 9.55231103,1.01849822 8.80307457,0.713309926 C8.64398189,0.64890135 8.65178644,0.418956716 8.81628227,0.373208569 C9.46586067,0.193225727 10.123844,0.0674183221 10.7878308,2.93098879e-14 L10.7878308,2.93098879e-14 Z" id="形状结合" fill="url(#linearGradient-1)" transform="translate(12.000000, 12.000000) scale(-1, 1) rotate(90.000000) translate(-12.000000, -12.000000) "></path>
    </g>
</svg>