<?xml version="1.0" encoding="UTF-8"?>
<svg width="24px" height="24px" viewBox="0 0 24 24" version="1.1" xmlns="http://www.w3.org/2000/svg" xmlns:xlink="http://www.w3.org/1999/xlink">
    <title>手球未选中备份@2x</title>
    <defs>
        <linearGradient x1="100%" y1="0%" x2="0%" y2="100%" id="linearGradient-1">
            <stop stop-color="#A3ACB3" offset="0%"></stop>
            <stop stop-color="#64676E" offset="100%"></stop>
        </linearGradient>
    </defs>
    <g id="手球未选中备份" stroke="none" stroke-width="1" fill="none" fill-rule="evenodd">
        <path d="M11.9932801,0 L12.084,0.001 L12.0565841,0.00126139323 C11.618549,0.00546603733 11.2575784,0.0201822917 10.9736725,0.0454101562 C10.9736725,0.0454101563 11.1869626,0.187943892 11.6135429,0.473011364 L12.3230008,0.00452741085 C15.2490211,0.0843321105 17.9169158,1.21452203 19.9616269,3.03096876 C20.0061326,3.12580904 20.0855593,3.29550861 20.1989921,3.53786399 L17.8415258,3.53786399 L21.5065649,5.87162642 L21.9779782,10.2230114 L23.1349384,8.16397372 L23.4933425,8.54752293 C23.8226202,9.64117741 23.999739,10.8002151 24,12 C23.9995952,13.8608135 23.5853156,15.6236111 22.839918,17.1964815 C22.8657574,17.1385947 22.8891023,17.0806388 22.91135,17.0226829 C22.91135,17.0226829 22.6002261,17.1530318 21.9779782,17.4137296 L21.9779782,18.6774237 C22.0828371,18.5365309 22.1812113,18.3956381 22.2731007,18.2547453 C20.7683305,20.7436129 18.3835142,22.6353116 15.5100945,23.4934188 C15.4108904,23.4497 15.194509,23.3555718 14.8609017,23.2104492 L15.6461245,21.3579545 L11.9999953,23.071622 L8.25558831,21.3579545 L9.40648941,23.431574 L8.42271366,23.431574 C10.2160384,24.0083936 12.1238493,24.1365228 14.1461462,23.8159617 C13.4552375,23.9364679 12.7410663,23.9998439 12.0091201,24 C11.8706401,24 11.7326401,23.9976 11.5956001,23.99304 L11.5888801,24 L11.5816801,23.99256 C9.62976007,23.92608 7.81200007,23.40864 6.22224007,22.54344 L6.21576007,22.54536 L6.21432007,22.53912 C2.57832007,20.5572 0.135120071,16.75512 0.0055200713,12.36552 L0,12.36072 L0,12 C0.000720071297,5.38056 5.37360007,0.00144 11.9932801,0 Z M7.84143703,9.40243253 L4.74529001,12.9982244 L1.70906842,10.4158381 L3.16538944,15.2705966 L2.08486743,17.7368608 L2.06645958,17.7278197 C1.94769928,17.6694901 1.29451764,17.3486772 1.29451764,17.3486772 C1.39426018,17.6074663 1.65771011,18.0892223 2.08486743,18.7939453 L2.08486743,18.7939453 L2.08486743,17.7368608 L2.08486743,17.7368608 L4.74529001,17.7368608 L8.25558831,21.3579545 L7.37162169,17.3725142 L11.8526453,16.0185991 L7.37162169,14.4385653 L7.84143703,9.40243253 Z M15.7338154,9.15713778 L16.5282268,14.30087 L11.8526453,16.0185991 L16.5282268,17.3187145 L15.6461245,21.3579545 L19.181991,17.720348 L21.9779782,17.4137296 L20.6604179,14.8511186 L21.9779782,10.2230114 L19.181991,12.7814276 L15.7338154,9.15713778 Z M5.63271899,3.74680398 C3.93616359,3.91441761 3.08788589,3.99822443 3.08788589,3.99822443 C1.92932765,5.24724787 1.05073213,6.84232955 0.452099315,8.78346946 L0.452099315,8.78346946 L0.669562028,8.58664773 L1.70906842,10.4158381 L2.10484257,6.23597301 Z M11.6135429,0.473011364 C10.6753326,1.85955256 10.2062275,2.55282315 10.2062275,2.55282315 C10.2062275,2.55282315 8.68172467,2.95081676 5.63271899,3.74680398 L9.08602155,4.93892045 L7.84143703,9.40243253 L11.6135429,6.21386719 L15.7338154,9.15713778 L14.5557481,4.93772195 L17.8415258,3.53786399 L13.1726693,2.55282315 L11.6135429,0.473011364 Z" id="形状结合" fill="url(#linearGradient-1)"></path>
    </g>
</svg>