<?xml version="1.0" encoding="UTF-8"?>
<svg width="24px" height="24px" viewBox="0 0 24 24" version="1.1" xmlns="http://www.w3.org/2000/svg" xmlns:xlink="http://www.w3.org/1999/xlink">
    <title>斯@2x</title>
    <defs>
        <linearGradient x1="100%" y1="0%" x2="0%" y2="100%" id="linearGradient-1">
            <stop stop-color="#A3ACB3" offset="0%"></stop>
            <stop stop-color="#64676E" offset="100%"></stop>
        </linearGradient>
    </defs>
    <g id="页面-1" stroke="none" stroke-width="1" fill="none" fill-rule="evenodd">
        <path d="M12,2.30926389e-14 C15.2054257,2.30926389e-14 18.2188515,1.24823762 20.4853069,3.51469307 C22.7517624,5.78126733 24,8.79469307 24,12 C24,15.2054257 22.7517624,18.2187327 20.4853069,20.4853069 C18.2188515,22.7518812 15.2054257,24 12,24 C8.79457426,24 5.78114851,22.7518812 3.51469307,20.4853069 C1.24823762,18.2187327 -4.4408921e-14,15.2054257 -4.4408921e-14,12 C-4.4408921e-14,8.79469307 1.24823762,5.78126733 3.51469307,3.51469307 C5.78114851,1.24823762 8.79457426,2.30926389e-14 12,2.30926389e-14 Z M9,4.73041584 C5.54293069,4.73041584 2.73041584,7.54293069 2.73041584,11 C2.73041584,14.4570693 5.54293069,17.2695842 9,17.2695842 C12.4570693,17.2695842 15.2695842,14.4570693 15.2695842,11 C15.2695842,7.54293069 12.4570693,4.73041584 9,4.73041584 Z M10.1558204,6.27583312 C12.5151549,6.84916819 14.1027468,9.11648438 13.834662,11.5297634 C13.510121,14.4493265 10.6985829,16.4179867 7.84411202,15.7242891 C5.48468114,15.1508164 3.89699288,12.8833625 4.16542871,10.4701454 C4.4899697,7.55058229 7.30132893,5.58225249 10.1558204,6.27583312 Z M6.87666094,9.10113775 C6.79885968,9.54237063 6.89205648,9.93545664 7.13324733,10.2630686 C7.23408255,10.4000456 7.17921398,10.5935365 7.02755318,10.6709111 C6.56365846,10.9077367 6.25579344,11.3030948 6.15907313,11.8516229 C5.94885911,13.0438058 6.87316952,13.9795163 8.47160026,14.2613628 C10.0788065,14.5447566 11.2766496,13.983239 11.4868636,12.7910561 C11.5836251,12.2422939 11.4290997,11.7652833 11.0690527,11.3830539 C10.9516941,11.2583646 10.9666356,11.056627 11.1094155,10.9618821 C11.4489848,10.7370357 11.675444,10.4010376 11.7530389,9.96097476 C11.9488934,8.85022862 11.078235,7.97971632 9.62430772,7.72334972 C8.18863352,7.47020162 7.07251545,7.99039162 6.87666094,9.10113775 Z M8.98114178,11.3716092 C9.71243467,11.5005559 10.112558,11.9250801 10.013857,12.4848409 C9.91513546,13.0447187 9.39249573,13.3157039 8.66108584,13.1867366 C7.93856847,13.0593373 7.5491397,12.6275299 7.64786127,12.067652 C7.74658284,11.5077742 8.25862441,11.2442099 8.98114178,11.3716092 Z M9.43491851,8.79811347 C10.0309515,8.90321017 10.375662,9.27115346 10.2880815,9.76784759 C10.2036781,10.2465227 9.76280465,10.4759463 9.15787918,10.3692816 C8.56172922,10.2641643 8.23505833,9.89928123 8.31944102,9.42072317 C8.40700097,8.92414605 8.84789509,8.69460541 9.43491851,8.79811347 Z" id="斯" fill="url(#linearGradient-1)"></path>
    </g>
</svg>