<?xml version="1.0" encoding="UTF-8"?>
<svg width="24px" height="24px" viewBox="0 0 24 24" version="1.1" xmlns="http://www.w3.org/2000/svg" xmlns:xlink="http://www.w3.org/1999/xlink">
    <title>网@2x</title>
    <defs>
        <linearGradient x1="100%" y1="0%" x2="0%" y2="100%" id="linearGradient-1">
            <stop stop-color="#A3ACB3" offset="0%"></stop>
            <stop stop-color="#64676E" offset="100%"></stop>
        </linearGradient>
    </defs>
    <g id="页面-1" stroke="none" stroke-width="1" fill="none" fill-rule="evenodd" opacity="0.6">
        <path d="M12,0 C13.5908856,0 15.109465,0.309579667 16.4987816,0.871782433 C20.650345,7.05326 21.81668,14.5060247 17.8084992,22.5026967 C16.0869935,23.4570183 14.1069068,24 12,24 C11.1249891,24 10.271852,23.9063471 9.45006572,23.7285181 C11.1094512,22.2053415 11.9900816,20.3617526 11.9900816,17.5760565 C11.9900816,15.5260322 11.0133176,13.8816828 8.61200444,11.0952775 L7.24784205,9.51749783 L6.87536017,9.07477569 C6.07105785,8.10666294 5.70500359,7.57080241 5.45156062,7.00336801 L5.39885638,6.88112262 L5.32252981,6.68793921 C4.68152261,4.98176347 4.76911636,3.39265634 5.58986375,1.85375263 C7.44545226,0.679309923 9.64339546,0 12,0 Z M3.12341801,3.9241008 C3.03312325,5.03222079 3.20426911,6.16779248 3.63752441,7.32099276 C4.00079662,8.28791828 4.39783528,8.92294296 5.57084902,10.3227813 L5.96793427,10.7915379 L7.23363101,12.2532283 L7.68368617,12.7827462 C9.47246825,14.9202725 10.1900816,16.2215418 10.1900816,17.5760565 C10.1900816,20.2086728 9.26803227,21.7099253 7.39699556,23.0851044 C3.05361984,21.2796582 0,16.9964347 0,12 C0,8.94119215 1.14445555,6.14968623 3.02852651,4.03032235 L3.12341801,3.9241008 Z M24,12 C24,15.4407858 22.5518625,18.543341 20.2318227,20.7314301 C22.7907466,14.0758626 22.0369329,7.8046224 19.1357165,2.35139355 C22.0867865,4.53707431 24,8.04510968 24,12 Z" id="网" fill="url(#linearGradient-1)"></path>
    </g>
</svg>