<?xml version="1.0" encoding="UTF-8"?>
<svg width="11px" height="10px" viewBox="0 0 11 10" version="1.1" xmlns="http://www.w3.org/2000/svg" xmlns:xlink="http://www.w3.org/1999/xlink">
    <title>星形备份 15</title>
    <g id="页面-1" stroke="none" stroke-width="1" fill="none" fill-rule="evenodd">
        <g id="虚拟详情页" transform="translate(-1039.000000, -182.000000)" fill="#569FFD">
            <g id="编组-2" transform="translate(413.000000, 152.000000)">
                <g id="编组-7" transform="translate(300.000000, 4.000000)">
                    <path d="M331.131778,33.8878383 L328.486876,35.239735 C328.285968,35.3424256 328.037476,35.2673272 327.931852,35.0719982 C327.889792,34.9942171 327.875279,34.9051251 327.890558,34.8185146 L328.395689,31.9551515 L326.255918,29.9273065 C326.09338,29.7732707 326.090054,29.5202958 326.24849,29.3622712 C326.311579,29.299345 326.394246,29.2583939 326.483691,29.2457576 L329.440782,28.8279986 L330.763233,26.2228248 C330.863687,26.0249348 331.110125,25.9436861 331.313666,26.0413506 C331.394718,26.0802411 331.460322,26.144024 331.500324,26.2228248 L332.822775,28.8279986 L335.779866,29.2457576 C336.004487,29.2774907 336.16012,29.4802512 336.12748,29.6986357 C336.114483,29.7855976 336.072362,29.8659687 336.007639,29.9273065 L333.867868,31.9551515 L334.372999,34.8185146 C334.411369,35.0360167 334.261118,35.2425783 334.037404,35.2798829 C333.94832,35.2947377 333.856683,35.2806269 333.776681,35.239735 L331.131778,33.8878383 Z" id="星形备份-15"></path>
                </g>
            </g>
        </g>
    </g>
</svg>