<?xml version="1.0" encoding="UTF-8"?>
<svg width="15px" height="14px" viewBox="0 0 15 14" version="1.1" xmlns="http://www.w3.org/2000/svg" xmlns:xlink="http://www.w3.org/1999/xlink">
    <title>编组 13复制 7@2x</title>
    <g id="页面-1" stroke="none" stroke-width="1" fill="none" fill-rule="evenodd">
        <g id="赛果" transform="translate(-180.000000, -971.000000)" fill-rule="nonzero">
            <g id="编组-4备份" transform="translate(0.000000, 216.000000)">
                <g id="编组-24" transform="translate(0.000000, 323.000000)">
                    <g id="编组-13复制-7" transform="translate(188.000000, 439.000000) scale(-1, 1) translate(-188.000000, -439.000000) translate(181.000000, 432.000000)">
                        <path d="M5.64658584,5.85806075 L4.70075938,5.85806075 C4.72740237,4.12336118 4.72740237,1.91830369 7.83214436,0.157518405 C7.91207336,0.10534699 7.87210886,-0.0120386957 7.77885836,0.00100415818 C1.83580438,0.900961079 1.3562304,4.81463244 1.3429089,5.8450179 L0.357117929,5.8450179 C0.0640449389,5.8450179 -0.109134555,6.1841321 0.0773664384,6.40586061 L2.48855786,9.38044649 C2.75498785,9.70651784 3.24788333,9.70651784 3.51431332,9.38044649 L5.92633733,6.40586061 C6.09951683,6.19717495 5.93965883,5.85806075 5.64658584,5.85806075 L5.64658584,5.85806075 Z" id="路径" fill="#FF9124"></path>
                        <path d="M11.7715858,10.2330608 L10.8257594,10.2330608 C10.8524024,8.49836118 10.8524024,6.29330369 13.9571444,4.53251841 C14.0370734,4.48034699 13.9971089,4.3629613 13.9038584,4.37600416 C7.96080438,5.27596108 7.4812304,9.18963244 7.4679089,10.2200179 L6.48211793,10.2200179 C6.18904494,10.2200179 6.01586544,10.5591321 6.20236644,10.7808606 L8.61355786,13.7554465 C8.87998785,14.0815178 9.37288333,14.0815178 9.63931332,13.7554465 L12.0513373,10.7808606 C12.2245168,10.572175 12.0646588,10.2330608 11.7715858,10.2330608 L11.7715858,10.2330608 Z" id="路径复制-2" fill="#006EFF" transform="translate(10.062500, 9.187500) rotate(-180.000000) translate(-10.062500, -9.187500) "></path>
                    </g>
                </g>
            </g>
        </g>
    </g>
</svg>