<?xml version="1.0" encoding="UTF-8"?>
<svg width="12px" height="12px" viewBox="0 0 12 12" version="1.1" xmlns="http://www.w3.org/2000/svg" xmlns:xlink="http://www.w3.org/1999/xlink">
    <title>浅色默认</title>
    <g id="页面-1" stroke="none" stroke-width="1" fill="none" fill-rule="evenodd">
        <g id="浅色默认">
            <rect id="矩形" fill="#CDCDCD" x="0" y="0" width="12" height="12" rx="2"></rect>
            <path d="M6,1.71428571 C6.47338693,1.71428571 6.85714286,2.09804164 6.85714286,2.57142857 L6.85628571,5.14228571 L9.42857143,5.14285714 C9.90195836,5.14285714 10.2857143,5.52661307 10.2857143,6 C10.2857143,6.47338693 9.90195836,6.85714286 9.42857143,6.85714286 L6.85628571,6.85628571 L6.85714286,9.42857143 C6.85714286,9.90195836 6.47338693,10.2857143 6,10.2857143 C5.52661307,10.2857143 5.14285714,9.90195836 5.14285714,9.42857143 L5.14228571,6.85628571 L2.57142857,6.85714286 C2.09804164,6.85714286 1.71428571,6.47338693 1.71428571,6 C1.71428571,5.52661307 2.09804164,5.14285714 2.57142857,5.14285714 L5.14228571,5.14228571 L5.14285714,2.57142857 C5.14285714,2.09804164 5.52661307,1.71428571 6,1.71428571 Z" id="形状结合" fill="#FFFFFF"></path>
        </g>
    </g>
</svg>