<?xml version="1.0" encoding="UTF-8"?>
<svg width="14px" height="14px" viewBox="0 0 14 14" version="1.1" xmlns="http://www.w3.org/2000/svg" xmlns:xlink="http://www.w3.org/1999/xlink">
    <title>Fill 1备份</title>
    <defs>
        <linearGradient x1="100%" y1="0%" x2="0%" y2="100%" id="linearGradient-1">
            <stop stop-color="#3D72FA" offset="0%"></stop>
            <stop stop-color="#62B6FF" offset="100%"></stop>
        </linearGradient>
    </defs>
    <g id="页面-1" stroke="none" stroke-width="1" fill="none" fill-rule="evenodd">
        <g id="Y0蓝白版备份-3" transform="translate(-186.000000, -71.000000)" fill="url(#linearGradient-1)">
            <g id="编组-34" transform="translate(-1.000000, 0.000000)">
                <path d="M193.25,82 C190.631,82 188.5,79.869 188.5,77.25 C188.5,74.631 190.631,72.5 193.25,72.5 C195.869,72.5 198,74.631 198,77.25 C198,79.869 195.869,82 193.25,82 M193.25,71 C189.7985,71 187,73.7985 187,77.25 C187,80.7015 189.7985,83.5 193.25,83.5 C194.6145,83.5 195.8735,83.0575 196.901,82.3155 L199.294,84.7085 C199.4885,84.903 199.745,85 200.001,85 C200.2575,85 200.514,84.903 200.7085,84.7085 C201.097,84.3195 201.097,83.683 200.7085,83.294 L198.3155,80.901 C199.0575,79.8735 199.5,78.6145 199.5,77.25 C199.5,73.7985 196.7015,71 193.25,71" id="Fill-1备份"></path>
            </g>
        </g>
    </g>
</svg>