<?xml version="1.0" encoding="UTF-8"?>
<svg width="16px" height="16px" viewBox="0 0 16 16" version="1.1" xmlns="http://www.w3.org/2000/svg" xmlns:xlink="http://www.w3.org/1999/xlink">
    <title>编组备份</title>
    <defs>
        <linearGradient x1="100%" y1="3.70134122%" x2="0%" y2="96.2986588%" id="linearGradient-1">
            <stop stop-color="#3D72FA" offset="0%"></stop>
            <stop stop-color="#62B3FF" offset="100%"></stop>
        </linearGradient>
        <path d="M12.9999,13.3964 C13.5529,13.3964 13.9999,13.8444 13.9999,14.3964 C13.9999,14.9484 13.5529,15.3964 12.9999,15.3964 L2.9999,15.3964 C2.4479,15.3964 1.9999,14.9484 1.9999,14.3964 C1.9999,13.8444 2.4479,13.3964 2.9999,13.3964 L12.9999,13.3964 Z M12.571,0 C14.457,0 16,1.543 16,3.429 L16,3.429 L16,8.572 C16,10.457 14.457,12 12.571,12 L12.571,12 L3.429,12 C1.543,12 0,10.457 0,8.572 L0,8.572 L0,3.429 C0,1.543 1.543,0 3.429,0 L3.429,0 Z M13.364,4.591 C13.088,4.113 12.477,3.949 11.998,4.225 L11.998,4.225 L8,6.534 L4.002,4.225 C3.523,3.949 2.912,4.113 2.636,4.591 C2.36,5.069 2.523,5.681 3.002,5.957 L3.002,5.957 L7.5,8.554 C7.538,8.576 7.579,8.578 7.618,8.594 C7.683,8.621 7.744,8.645 7.811,8.659 C7.875,8.671 7.936,8.672 8,8.672 C8.064,8.672 8.125,8.671 8.188,8.659 C8.257,8.645 8.318,8.621 8.382,8.594 C8.421,8.578 8.463,8.576 8.5,8.554 L8.5,8.554 L12.998,5.957 C13.477,5.681 13.641,5.069 13.364,4.591 Z" id="path-2"></path>
    </defs>
    <g id="页面-1" stroke="none" stroke-width="1" fill="none" fill-rule="evenodd">
        <g id="编组" transform="translate(-0.000100, -0.000600)">
            <g id="形状结合">
                <use fill="url(#linearGradient-1)" xlink:href="#path-2"></use>
                <use fill="#569FFD" xlink:href="#path-2"></use>
            </g>
            <g></g>
        </g>
    </g>
</svg>