<?xml version="1.0" encoding="UTF-8"?>
<svg width="25px" height="12px" viewBox="0 0 25 12" version="1.1" xmlns="http://www.w3.org/2000/svg" xmlns:xlink="http://www.w3.org/1999/xlink">
    <title>编组 8</title>
    <defs>
        <linearGradient x1="0%" y1="50%" x2="100%" y2="50%" id="linearGradient-1">
            <stop stop-color="#EC5852" offset="0%"></stop>
            <stop stop-color="#B11E33" offset="100%"></stop>
            <stop stop-color="#B11E33" offset="100%"></stop>
        </linearGradient>
        <path d="M6,0 L18.3697479,0 C21.6834564,-6.08718376e-16 24.3697479,2.6862915 24.3697479,6 C24.3697479,9.3137085 21.6834564,12 18.3697479,12 L0,12 L0,12 L0,6 C-4.05812251e-16,2.6862915 2.6862915,6.08718376e-16 6,0 Z" id="path-2"></path>
        <linearGradient x1="58.0152924%" y1="66.0538986%" x2="19.1500943%" y2="15.3897508%" id="linearGradient-4">
            <stop stop-color="#FF5656" stop-opacity="0" offset="0%"></stop>
            <stop stop-color="#FFBC72" offset="100%"></stop>
        </linearGradient>
    </defs>
    <g id="页面-1" stroke="none" stroke-width="1" fill="none" fill-rule="evenodd">
        <g id="H5-今日-早盘-串关-冠军-标签调整" transform="translate(-208.000000, -136.000000)">
            <g id="编组-4" transform="translate(0.000000, 88.000000)">
                <g id="编组-3" transform="translate(0.000000, 44.000000)">
                    <g id="编组-8" transform="translate(208.000000, 4.000000)">
                        <mask id="mask-3" fill="white">
                            <use xlink:href="#path-2"></use>
                        </mask>
                        <use id="矩形" fill="url(#linearGradient-1)" xlink:href="#path-2"></use>
                        <polygon id="矩形" fill="url(#linearGradient-4)" mask="url(#mask-3)" points="13.9259596 -0.840336134 24.7335907 -0.840336134 24.7335907 13.4453782 7.56302521 13.4453782"></polygon>
                        <path d="M5.25505337,9.41539859 L5.25505337,6.57279128 L7.5539405,6.57279128 L7.5539405,9.41539859 L8.87985464,9.41539859 L8.87985464,2.62366568 L7.5539405,2.62366568 L7.5539405,5.39950034 L5.25505337,5.39950034 L5.25505337,2.62366568 L3.92913922,2.62366568 L3.92913922,9.41539859 L5.25505337,9.41539859 Z M12.7431297,9.4726323 C13.5157847,9.4726323 14.0976607,9.20554168 14.5746082,8.72859414 C15.2614127,8.04178969 15.2518807,7.19282308 15.2518807,6.01953214 C15.2518807,4.8462412 15.2614127,3.99727459 14.5746082,3.31047013 C14.0976607,2.8335226 13.5157847,2.56643198 12.7431297,2.56643198 C11.9704747,2.56643198 11.3790597,2.8335226 10.9021122,3.31047013 C10.2153077,3.99727459 10.2343856,4.8462412 10.2343856,6.01953214 C10.2343856,7.19282308 10.2153077,8.04178969 10.9021122,8.72859414 C11.3790597,9.20554168 11.9704747,9.4726323 12.7431297,9.4726323 Z M12.7431297,8.28980241 C12.3806496,8.28980241 12.0754031,8.14671815 11.8846241,7.92732228 C11.6382703,7.65359587 11.5664668,7.35368693 11.5606887,6.18444223 L11.5602998,6.01953214 C11.5602998,4.71269589 11.6270725,4.39791052 11.8846241,4.11174199 C12.0754031,3.89234613 12.3806496,3.74926187 12.7431297,3.74926187 C13.1056098,3.74926187 13.4013173,3.89234613 13.5920963,4.11174199 C13.849648,4.39791052 13.9259596,4.71269589 13.9259596,6.01953214 C13.9259596,7.32636839 13.849648,7.64115376 13.5920963,7.92732228 C13.4013173,8.14671815 13.1056098,8.28980241 12.7431297,8.28980241 Z M19.0102203,9.41539859 L19.0102203,3.80649557 L20.7844651,3.80649557 L20.7844651,2.62366568 L15.9100613,2.62366568 L15.9100613,3.80649557 L17.6843062,3.80649557 L17.6843062,9.41539859 L19.0102203,9.41539859 Z" id="HOT" fill="#FFFFFF" fill-rule="nonzero" mask="url(#mask-3)"></path>
                    </g>
                </g>
            </g>
        </g>
    </g>
</svg>