<?xml version="1.0" encoding="UTF-8"?>
<svg width="20px" height="20px" viewBox="0 0 20 20" version="1.1" xmlns="http://www.w3.org/2000/svg" xmlns:xlink="http://www.w3.org/1999/xlink">
    <title>排行</title>
    <g id="页面-1" stroke="none" stroke-width="1" fill="none" fill-rule="evenodd">
        <g id="虚拟足球列表（开赛）" transform="translate(-345.000000, -376.000000)" fill="#5E5E5E">
            <g id="排行" transform="translate(345.000000, 376.000000)">
                <path d="M3.9,6.5 C4.39705627,6.5 4.8,6.90294373 4.8,7.4 L4.8,17.3 C4.8,17.7970563 4.39705627,18.2 3.9,18.2 C3.40294373,18.2 3,17.7970563 3,17.3 L3,7.4 C3,6.90294373 3.40294373,6.5 3.9,6.5 Z M10.2,2 C10.6970563,2 11.1,2.40294373 11.1,2.9 L11.1,17.3 C11.1,17.7970563 10.6970563,18.2 10.2,18.2 C9.70294373,18.2 9.3,17.7970563 9.3,17.3 L9.3,2.9 C9.3,2.40294373 9.70294373,2 10.2,2 Z M16.5,9.2 C16.9970563,9.2 17.4,9.60294373 17.4,10.1 L17.4,17.3 C17.4,17.7970563 16.9970563,18.2 16.5,18.2 C16.0029437,18.2 15.6,17.7970563 15.6,17.3 L15.6,10.1 C15.6,9.60294373 16.0029437,9.2 16.5,9.2 Z" id="形状结合备份-11"></path>
            </g>
        </g>
    </g>
</svg>