<?xml version="1.0" encoding="UTF-8"?>
<svg width="20px" height="20px" viewBox="0 0 20 20" version="1.1" xmlns="http://www.w3.org/2000/svg" xmlns:xlink="http://www.w3.org/1999/xlink">
    <title>关闭</title>
    <g id="页面-1" stroke="none" stroke-width="1" fill="none" fill-rule="evenodd">
        <g id="虚拟足球列表页排行榜" transform="translate(-346.000000, -372.000000)" fill="#5E5E5E">
            <g id="关闭" transform="translate(346.000000, 372.000000)">
                <path d="M11.3487607,10 L14.7206625,13.3719018 C15.0931125,13.7443518 15.0931125,14.3482125 14.7206625,14.7206625 C14.3482125,15.0931125 13.7443518,15.0931125 13.3719018,14.7206625 L10,11.3487607 L6.62809821,14.7206625 C6.25564822,15.0931125 5.65178748,15.0931125 5.27933749,14.7206625 C4.9068875,14.3482125 4.9068875,13.7443518 5.27933749,13.3719018 L8.65123928,10 L5.27933749,6.62809821 C4.9068875,6.25564822 4.9068875,5.65178748 5.27933749,5.27933749 C5.65178748,4.9068875 6.25564822,4.9068875 6.62809821,5.27933749 L10,8.65123928 L13.3719018,5.27933749 C13.7443518,4.9068875 14.3482125,4.9068875 14.7206625,5.27933749 C15.0931125,5.65178748 15.0931125,6.25564822 14.7206625,6.62809821 L11.3487607,10 Z" id="路径"></path>
            </g>
        </g>
    </g>
</svg>