<?xml version="1.0" encoding="UTF-8"?>
<svg width="22px" height="22px" viewBox="0 0 22 22" version="1.1" xmlns="http://www.w3.org/2000/svg" xmlns:xlink="http://www.w3.org/1999/xlink">
    <title>倒计时</title>
    <g id="页面-1" stroke="none" stroke-width="1" fill="none" fill-rule="evenodd" fill-opacity="0.6">
        <g id="足球小组赛备份" transform="translate(-231.000000, -313.000000)" fill="#FFFFFF">
            <path d="M242,313 C248.075132,313 253,317.924868 253,324 C253,330.075132 248.075132,335 242,335 C235.924868,335 231,330.075132 231,324 C231,317.924868 235.924868,313 242,313 Z M242.009317,314.692308 C236.875645,314.692308 232.692308,318.871462 232.692308,324 C232.692308,329.128538 236.875645,333.307692 242.018634,333.307692 L242.018634,333.307692 L242.018634,332.004615 L241.769034,332.000797 C237.458623,331.868748 233.996689,328.328604 233.996689,324 C233.996689,319.588154 237.593055,315.995385 242.009317,315.995385 C244.599446,315.995385 246.900747,317.224 248.363517,319.132077 L248.363517,319.132077 L249.397705,318.340923 L249.211347,318.106598 C247.501266,316.025136 244.911233,314.692308 242.009317,314.692308 Z M244.357203,331.650923 C243.975206,331.762615 243.593209,331.855692 243.192577,331.911538 L243.192577,331.911538 L243.388234,333.205308 L243.730343,333.149462 C244.07187,333.086635 244.410776,333.002865 244.739201,332.898154 L244.739201,332.898154 Z M246.490798,330.627077 C246.164703,330.850462 245.810657,331.045923 245.45661,331.222769 L245.45661,331.222769 L246.015631,332.395538 L246.326732,332.23818 C246.63463,332.07675 246.933356,331.902231 247.226842,331.706769 L247.226842,331.706769 Z M248.233079,329.026154 C247.98152,329.333308 247.711327,329.631154 247.413182,329.901077 L247.413182,329.901077 L248.298298,330.859769 L248.551604,330.618787 C248.79967,330.374024 249.032013,330.117481 249.248633,329.845231 L249.248633,329.845231 Z M249.434973,326.987769 C249.285901,327.360077 249.108878,327.713769 248.903904,328.058154 L248.903904,328.058154 L250.031262,328.719 L250.200715,328.416791 C250.364927,328.112255 250.513417,327.799865 250.646185,327.471769 L250.646185,327.471769 Z M241.442639,317.794872 L240.071556,323.461958 L240.049442,323.545669 C240.034699,323.605289 240.019956,323.671441 240.005213,323.737594 C239.960985,323.8699 239.93887,324.013231 239.93887,324.167587 C239.93887,324.421173 240.005213,324.652707 240.104727,324.862191 C240.137899,324.939369 240.17107,324.994496 240.215299,325.049624 L240.215299,325.049624 L240.226356,325.060649 L240.320239,325.177182 C240.485584,325.363237 240.694441,325.50718 240.934012,325.589871 L240.934012,325.589871 L240.945069,325.600897 L248.220657,328.136752 L242.82478,323.307601 L241.442639,317.794872 Z M249.993994,324.688769 C249.956726,325.089 249.891507,325.489231 249.798337,325.870846 L249.798337,325.870846 L251.06545,326.178 L251.142315,325.841032 C251.212193,325.502029 251.261107,325.156481 251.289058,324.800462 L251.289058,324.800462 Z M251.121352,322.064 L249.844922,322.333923 L249.902425,322.623334 C249.954397,322.915654 249.989335,323.215827 250.003311,323.516 L250.003311,323.516 L251.307692,323.441538 L251.279887,323.092791 C251.245385,322.744625 251.19123,322.399077 251.121352,322.064 L251.121352,322.064 Z M250.152383,319.485769 L249.015708,320.118692 L249.15721,320.380471 C249.293471,320.64574 249.41401,320.921481 249.518827,321.207692 L249.518827,321.207692 L250.739355,320.751615 L250.610634,320.427019 C250.475827,320.104966 250.322842,319.790708 250.152383,319.485769 L250.152383,319.485769 Z" id="倒计时"></path>
        </g>
    </g>
</svg>