<?xml version="1.0" encoding="UTF-8"?>
<svg width="18px" height="12px" viewBox="0 0 18 12" version="1.1" xmlns="http://www.w3.org/2000/svg" xmlns:xlink="http://www.w3.org/1999/xlink">
    <title>视频可播放</title>
    <g id="页面-1" stroke="none" stroke-width="1" fill="none" fill-rule="evenodd">
        <g id="简版虚拟足球备份" transform="translate(-130.000000, -564.000000)" fill="#5A6074" fill-rule="nonzero">
            <g id="编组-3备份" transform="translate(7.000000, 511.000000)">
                <path d="M135.120455,53.016875 C138.361503,53.0206912 140.987778,55.6878871 140.990909,58.9787981 C140.987778,62.2697091 138.361503,64.9369049 135.120455,64.9407212 L128.871591,64.9407212 C125.630358,64.9369061 123.003757,62.2698957 123,58.9787981 C123.003757,55.6877004 125.630358,53.02069 128.871591,53.016875 L135.120455,53.016875 Z M135.120455,54.1707212 L128.871591,54.1707212 C126.257436,54.1732655 124.138869,56.3244251 124.136364,58.9787981 C124.138869,61.633171 126.257436,63.7843307 128.871591,63.786875 L135.120455,63.786875 C137.734166,63.7836948 139.852041,61.6327211 139.854545,58.9787981 C139.851416,56.3251382 137.733907,54.1745356 135.120455,54.1707212 Z M131.3,56.5314904 L133.963636,58.8034135 L133.963636,59.5961058 L131.229545,61.4272596 L130.4125,61.4272596 L130.4125,56.5314904 L131.3,56.5314904 Z" id="视频可播放"></path>
            </g>
        </g>
    </g>
</svg>