<?xml version="1.0" encoding="UTF-8"?>
<svg width="20px" height="20px" viewBox="0 0 20 20" version="1.1" xmlns="http://www.w3.org/2000/svg" xmlns:xlink="http://www.w3.org/1999/xlink">
    <title>形状</title>
    <g id="页面-1" stroke="none" stroke-width="1" fill="none" fill-rule="evenodd">
        <g id="足球主页备份" transform="translate(-256.000000, -56.000000)" fill="#FFFFFF" fill-rule="nonzero" stroke="#FFFFFF" stroke-width="0.2">
            <g id="虚拟体育足球背景">
                <path d="M269.000197,57.9433852 C269.08845,57.7354908 269.328369,57.638483 269.536071,57.7267121 C273.633606,59.4672911 275.85719,63.9866691 274.693022,68.3314026 C273.531141,72.6676034 269.359371,75.4682295 264.948363,74.9397344 C264.644384,74.9033138 264.494737,74.5634733 264.650102,74.3174081 L264.691438,74.2624692 L267.116872,71.5253869 L267.17054,71.4747504 C267.303875,71.3699351 267.48954,71.3587429 267.634401,71.4467881 L267.693715,71.4906139 L267.744291,71.5443004 C267.848971,71.6776896 267.860075,71.8634876 267.772034,72.0084944 L267.728215,72.0678711 L265.854086,74.1836612 L265.932113,74.185265 C269.601504,74.2231102 272.925701,71.7697569 273.903677,68.1198983 C274.961971,64.1702945 272.940358,60.0614185 269.21648,58.479564 C269.008778,58.3913349 268.911945,58.1512795 269.000197,57.9433852 Z M257.308199,63.6721824 C258.470081,59.3359816 262.641851,56.5353555 267.052858,57.0638506 C267.356838,57.1002712 267.506485,57.4401117 267.35112,57.6861769 L267.309784,57.7411158 L264.88435,60.4781981 L264.830682,60.5288346 C264.697347,60.6336499 264.511682,60.6448421 264.36682,60.5567969 L264.307507,60.5129711 L264.256931,60.4592846 C264.152251,60.3258954 264.141146,60.1400974 264.229188,59.9950906 L264.273007,59.9357139 L266.147259,57.8198116 L266.069109,57.81832 C262.399717,57.7804748 259.075521,60.2338281 258.097544,63.8836867 C257.039251,67.8332905 259.060864,71.9421665 262.784742,73.524021 C262.992444,73.6122501 263.089277,73.8523055 263.001024,74.0601998 C262.912772,74.2680942 262.672853,74.365102 262.465151,74.2768729 C258.367616,72.5362939 256.144032,68.0169159 257.308199,63.6721824 Z" id="形状"></path>
            </g>
        </g>
    </g>
</svg>