<?xml version="1.0" encoding="UTF-8"?>
<svg width="225px" height="60px" viewBox="0 0 225 60" version="1.1" xmlns="http://www.w3.org/2000/svg" xmlns:xlink="http://www.w3.org/1999/xlink">
    <title>编组 6</title>
    <g id="页面logo展示" stroke="none" stroke-width="1" fill="none" fill-rule="evenodd">
        <g id="系统维护/浏览器兼容样式展示" transform="translate(-848.000000, -180.000000)">
            <g id="编组-6" transform="translate(848.000000, 180.000000)">
                <path d="M29.87775,-2.13162821e-14 C46.3785,-2.13162821e-14 59.7555,13.377 59.7555,29.87775 C59.7555,46.37925 46.3785,59.7555 29.87775,59.7555 C13.377,59.7555 6.60804744e-13,46.37925 6.60804744e-13,29.87775 C6.60804744e-13,13.377 13.377,-2.13162821e-14 29.87775,-2.13162821e-14 Z M29.87775,1.5 C14.22975,1.5 1.5,14.2305 1.5,29.87775 C1.5,45.525 14.22975,58.2555 29.87775,58.2555 C45.52575,58.2555 58.2555,45.525 58.2555,29.87775 C58.2555,14.2305 45.52575,1.5 29.87775,1.5 Z M29.12595,44.718525 C29.19645,44.692275 29.27295,44.732775 29.28945,44.805525 C29.93295,47.519025 31.59795,49.831275 33.85845,51.321525 C33.9987,51.413775 33.93345,51.630525 33.7647,51.630525 L33.7647,51.630525 L23.75745,51.630525 C23.6022,51.630525 23.47545,51.504525 23.47545,51.348525 L23.47545,51.348525 L23.47545,50.067525 C23.47545,49.911525 23.6022,49.784775 23.7582,49.784775 L23.7582,49.784775 L25.1967,49.784775 C26.56095,49.784775 27.8187,48.779775 27.8187,47.346525 L27.8187,47.346525 L27.8187,45.227775 C27.8187,45.170775 27.8577,45.122025 27.91245,45.109275 C28.31895,45.009525 28.72395,44.872275 29.12595,44.718525 Z M34.9566,49.209 L38.44635,49.56375 C38.46885,49.57125 38.4921,49.578 38.5146,49.58475 L38.5146,49.58475 L40.86135,50.9235 C40.9311,50.96325 40.9446,51.05775 40.88985,51.11625 L40.88985,51.11625 L40.4856,51.54675 L40.4856,51.54675 L40.3716,51.60075 C40.16385,51.61575 39.9561,51.63075 39.74385,51.63075 C37.77435,51.63075 35.9781,51.0375 34.46985,50.00325 C34.38735,49.947 34.3701,49.83 34.4316,49.75125 L34.4316,49.75125 L34.8036,49.27425 C34.8396,49.22775 34.8981,49.20375 34.9566,49.209 L34.9566,49.209 Z M42.9171,45.101775 C42.9636,45.081525 43.01835,45.083775 43.06335,45.107025 L43.06335,45.107025 L45.35235,46.289775 C45.4236,46.326525 45.46035,46.407525 45.4401,46.485525 L45.4401,46.485525 L44.77485,49.068525 C44.7621,49.119525 44.7261,49.162275 44.6781,49.183275 L44.6781,49.183275 L41.31735,50.646525 C41.26785,50.668275 41.2101,50.664525 41.16285,50.637525 L41.16285,50.637525 L38.7951,49.262025 C38.7306,49.224525 38.6976,49.150275 38.7126,49.077525 L38.7126,49.077525 L39.20235,46.778025 C39.2136,46.723275 39.2511,46.678275 39.30285,46.655775 L39.30285,46.655775 Z M30.884625,43.85895 C30.933375,43.8087 31.014375,43.80795 31.063875,43.8582 L31.063875,43.8582 L32.958375,45.80745 C32.969625,45.82095 32.978625,45.83595 32.989125,45.8502 L32.989125,45.8502 L34.516875,48.88695 C34.547625,48.9477 34.539375,49.0212 34.496625,49.0737 L34.496625,49.0737 L34.120875,49.5312 C34.061625,49.60395 33.952125,49.61745 33.877875,49.55895 C32.200875,48.2427 31.046625,46.42695 30.570375,44.2692 C30.561375,44.2287 30.573375,44.1852 30.601875,44.15445 L30.601875,44.15445 Z M47.883825,43.33635 L48.874575,43.4121 C48.975075,43.4196 49.049325,43.5111 49.035825,43.6101 C48.725325,45.8541 47.630325,47.7681 46.022325,49.2126 C45.975825,49.22835 45.933825,49.2411 45.887325,49.25685 L45.887325,49.25685 L45.340575,49.20435 C45.265575,49.19685 45.214575,49.12485 45.232575,49.05135 L45.232575,49.05135 L45.884325,46.40685 C45.891075,46.39035 45.897825,46.37385 45.905325,46.3581 L45.905325,46.3581 L47.724075,43.4181 C47.757825,43.36335 47.819325,43.3326 47.883825,43.33635 L47.883825,43.33635 Z M39.85665,38.35725 C39.9129,38.33175 39.9774,38.3385 40.02615,38.37375 L40.02615,38.37375 L43.1619,40.59975 C43.21215,40.6365 43.2399,40.69725 43.2324,40.75875 L43.2324,40.75875 L42.8124,44.58975 C42.8049,44.65125 42.7659,44.7045 42.7089,44.72925 L42.7089,44.72925 L39.15315,46.26225 C39.09765,46.28625 39.0324,46.27875 38.9829,46.24275 L38.9829,46.24275 L36.02715,44.067 C35.9784,44.031 35.9514,43.971 35.95815,43.91025 L35.95815,43.91025 L36.37065,39.99975 C36.3774,39.939 36.4164,39.88575 36.4719,39.86025 L36.4719,39.86025 Z M35.307225,39.338625 C35.352975,39.277125 35.441475,39.272625 35.493975,39.328125 L35.493975,39.328125 L35.868975,39.721875 C35.918475,39.775125 35.943975,39.846375 35.936475,39.918375 L35.936475,39.918375 L35.526225,43.870875 L35.526225,43.870875 L35.452725,43.994625 L33.322725,45.460125 C33.252975,45.507375 33.159225,45.498375 33.100725,45.436125 L33.100725,45.436125 L31.682475,43.951875 L31.183725,43.426875 C31.131975,43.372875 31.140975,43.284375 31.203225,43.241625 C32.896725,42.057375 34.299975,40.688625 35.307225,39.338625 Z M24.58785,8.12508635 C30.8196,8.116875 34.5051,13.006125 35.5476,14.772375 C35.6586,14.960625 35.51985,15.194625 35.3016,15.194625 L35.3016,15.194625 L32.3841,15.194625 C32.17035,15.194625 31.9791,15.071625 31.87935,14.882625 C31.4406,14.048625 30.3786,12.615375 29.91735,12.181875 C28.72935,11.062875 27.18885,10.133625 24.5616,10.133625 C21.9336,10.133625 19.3431,11.398125 17.45535,14.729625 C15.5661,18.061875 14.7246,21.944625 14.7246,25.979625 C14.6841,29.808375 15.7476,34.376625 17.3286,37.251375 C18.9081,40.125375 21.6546,42.025875 24.6201,42.025875 C25.9611,42.025875 28.94835,41.933625 31.43085,38.071125 C32.48385,36.434625 33.5571,33.745875 33.9306,31.807875 C34.37985,29.479125 34.5546,27.640875 34.54185,25.402125 C34.5441,23.528625 34.25385,21.979125 33.8781,20.257875 C33.8391,20.082375 33.9726,19.913625 34.1526,19.913625 L34.1526,19.913625 L37.57185,19.913625 C37.7016,19.913625 37.8171,20.003625 37.84935,20.129625 C38.8746,24.136875 38.92935,27.967125 38.0001,31.547625 C36.9801,35.288625 35.4396,37.888125 34.16385,39.265875 C32.88885,40.642875 29.96835,44.027625 24.6381,44.0441858 C19.3071,44.061375 15.7281,40.407375 13.8501,37.627125 C11.9721,34.846875 10.4946,30.193875 10.61985,26.111625 C10.61985,21.043125 11.9946,16.845375 14.7246,13.398375 C17.45535,9.950625 20.93535,8.115375 24.58785,8.12508635 Z M46.878525,36.349125 C46.953525,36.304875 47.051025,36.321375 47.105025,36.389625 C48.380025,37.993875 49.142775,40.024125 49.142775,42.232125 C49.142775,42.483375 49.132275,42.697125 49.113525,42.933375 C49.107525,43.000125 49.048275,43.051875 48.980025,43.046625 L48.980025,43.046625 L47.912775,42.967125 C47.848275,42.961875 47.791275,42.920625 47.767275,42.859875 L47.767275,42.859875 L46.466775,39.690375 L46.339275,36.776625 C46.337025,36.712875 46.369275,36.653625 46.423275,36.621375 L46.423275,36.621375 Z M42.984525,34.4361 C43.036275,34.42335 43.091025,34.43535 43.133025,34.46835 L43.133025,34.46835 L45.865275,36.6381 C45.887775,36.68235 45.907275,36.7206 45.930525,36.7656 L45.930525,36.7656 L46.043025,39.49035 C46.046025,39.56985 45.994275,39.64185 45.917025,39.66285 L45.917025,39.66285 L43.574775,40.3191 C43.525275,40.33335 43.471275,40.3236 43.429275,40.2936 L43.429275,40.2936 L40.162275,37.97985 C40.118775,37.94835 40.091025,37.89735 40.090275,37.8426 L40.090275,37.8426 L40.0414949,35.3031 C40.040025,35.2221 40.094775,35.1516 40.172775,35.1321 L40.172775,35.1321 Z M38.213325,16.7638362 C40.561575,16.7616 42.595575,17.0331 44.553075,18.60885 C46.512075,20.1831 47.685075,22.58385 47.639325,25.1091 L47.6399395,25.3736662 C47.6010158,27.9354658 46.2595,30.61045 43.480575,32.3316 C43.386825,32.38935 43.269825,32.39985 43.165575,32.3646 C42.388575,32.09985 41.984325,32.05935 41.404575,31.9746 C41.005575,31.9161 40.359075,31.8576 39.994575,31.8276 C39.921075,31.82085 39.901575,31.7226 39.966825,31.68885 C42.051825,30.5976 42.946575,27.5061 42.946575,25.7331 C43.026825,22.7076 42.297825,21.04785 41.356575,19.7391 C40.773075,18.92985 39.986325,18.57285 39.471075,18.4176 C39.221325,18.3426 38.960325,18.3096 38.700075,18.3096 L38.700075,18.3096 L33.152325,18.31035 C32.606325,18.31035 32.164575,18.7551 32.166825,19.3011 C32.175075,21.62235 32.180325,23.7441 32.181075,25.66785 L32.181075,25.66785 L32.181075,26.7696 C32.179575,28.8756 32.173575,30.72285 32.162325,32.30985 C32.132325,36.40335 29.415075,38.97135 28.287075,39.83085 C28.101825,39.97185 27.835575,39.8376 27.835575,39.6051 L27.835575,39.6051 L27.835575,30.4641 L27.836325,29.89785 C27.8405162,27.5780338 27.8444731,25.2893679 27.8471488,23.5409897 L27.84795,23.0074238 C27.848076,22.9216873 27.8481981,22.837596 27.8483163,22.755224 L27.8489759,22.2822178 C27.8490774,22.20702 27.8491746,22.1336901 27.8492674,22.0623021 L27.8499774,21.474249 C27.8500419,21.4151812 27.8501016,21.3582781 27.8501561,21.303614 L27.850575,20.5386 C27.868575,19.39935 26.662575,18.2856 25.515075,18.3096 C25.433475,18.31005 25.355355,18.31035 25.280085,18.310536 L24.662595,18.310104 L24.662595,18.310104 L24.473325,18.3096 L24.302325,18.3096 C24.244575,18.3096 24.1864917,18.30985 24.1276028,18.3101278 L23.760825,18.31035 C23.604825,18.30885 23.475825,18.17985 23.475825,18.02385 L23.475825,18.02385 L23.475825,17.04585 C23.475825,16.88985 23.602575,16.7638362 23.758575,16.7638362 L23.758575,16.7638362 Z M39.7443,32.832675 C40.68855,32.832675 41.5998,32.972925 42.46005,33.232425 C42.51255,33.247425 42.5553,33.288675 42.57405,33.339675 L42.57405,33.339675 L42.7773,33.890925 C42.81255,33.986925 42.7563,34.091925 42.6573,34.116675 L42.6573,34.116675 L39.98955,34.783425 C39.97155,34.785675 39.9528,34.787175 39.9348,34.788675 L39.9348,34.788675 L37.96155,34.637925 C37.88055,34.631175 37.8288,34.549425 37.85505,34.472925 C38.03055,33.957675 38.1708,33.471675 38.28255,33.026175 C38.2938,32.977425 38.3343,32.941425 38.38455,32.933925 C38.82255,32.872425 39.2718,32.832675 39.7443,32.832675 Z" id="形状结合" fill="#FFB001"></path>
                <path d="M101.81835,42.759525 C102.7011,42.759525 103.51935,43.096275 104.12835,43.706775 C104.97285,44.551275 104.98635,45.368025 104.98635,47.459025 L104.986206,47.7229441 C104.983605,49.60806 104.936133,50.4034598 104.12835,51.210525 C103.51935,51.820275 102.7011,52.157775 101.81835,52.157775 C100.9356,52.157775 100.1181,51.820275 99.5076,51.210525 C98.66385,50.366775 98.65035,49.535775 98.65035,47.459025 L98.6504937,47.1934052 C98.6530934,45.2969508 98.7005348,44.5145576 99.5076,43.706775 C100.1181,43.096275 100.9356,42.759525 101.81835,42.759525 Z M189.12855,42.75945 C190.2708,42.75945 190.9983,43.0707 191.7888,43.75845 L191.7888,43.75845 L191.3358,44.2137 C190.78905,43.69395 190.18005,43.35645 189.08955,43.35645 C187.73955,43.35645 186.9468,44.08395 186.9468,45.26445 C186.9468,45.79695 187.10355,46.19895 187.4283,46.4712 C187.7523,46.74495 188.2848,46.95195 188.8038,47.04345 L188.8038,47.04345 L189.80355,47.1987 C190.67355,47.3157 191.07555,47.48445 191.45205,47.80845 C191.9583,48.22395 192.2568,48.8607 192.2568,49.60095 C192.2568,51.17145 191.07555,52.1577 189.1413,52.1577 C187.77855,52.1577 186.9093,51.7812 186.0648,50.9367 L186.0648,50.9367 L186.5583,50.44395 C187.38855,51.27495 188.0763,51.53445 189.18105,51.53445 C190.6473,51.53445 191.5563,50.83395 191.5563,49.62645 C191.5563,49.06845 191.39955,48.6267 191.0493,48.3282 C190.69905,48.05595 190.47855,47.93895 189.71205,47.8347 L189.71205,47.8347 L188.63505,47.66595 C187.93455,47.5617 187.38855,47.3412 186.98655,46.9917 C186.50655,46.58895 186.25905,46.0182 186.25905,45.2907 C186.25905,43.73295 187.3503,42.75945 189.12855,42.75945 Z M199.893375,42.837225 L199.893375,43.460475 L197.128875,43.460475 L197.128875,52.079475 L196.427625,52.079475 L196.427625,43.460475 L193.675875,43.460475 L193.675875,42.837225 L199.893375,42.837225 Z M184.413975,42.837375 L184.413975,43.460625 L179.506725,43.460625 L179.506725,47.108625 L183.686475,47.108625 L183.686475,47.731125 L179.506725,47.731125 L179.506725,51.456375 L184.413975,51.456375 L184.413975,52.079625 L178.805475,52.079625 L178.805475,42.837375 L184.413975,42.837375 Z M173.23335,42.8373 C174.7641,42.8373 175.90635,43.7328 175.90635,45.2523 C175.90635,46.22505 175.36185,47.03055 174.4656,47.32905 C175.46535,47.6793 176.0496,48.48405 176.0496,49.5618 C176.0496,51.2103 174.9591,52.07955 173.33685,52.07955 L173.33685,52.07955 L169.83135,52.07955 L169.83135,42.8373 Z M143.2449,42.837225 L143.2449,43.460475 L140.4804,43.460475 L140.4804,52.079475 L139.7799,52.079475 L139.7799,43.460475 L137.0274,43.460475 L137.0274,42.837225 L143.2449,42.837225 Z M146.026575,42.837375 L146.026575,47.108625 L150.842325,47.108625 L150.842325,42.837375 L151.543575,42.837375 L151.543575,52.079625 L150.842325,52.079625 L150.842325,47.731125 L146.026575,47.731125 L146.026575,52.079625 L145.325325,52.079625 L145.325325,42.837375 L146.026575,42.837375 Z M160.271175,42.837375 L160.271175,43.460625 L155.363925,43.460625 L155.363925,47.108625 L159.543675,47.108625 L159.543675,47.731125 L155.363925,47.731125 L155.363925,51.456375 L160.271175,51.456375 L160.271175,52.079625 L154.662675,52.079625 L154.662675,42.837375 L160.271175,42.837375 Z M123.70305,42.837525 L126.0528,47.510775 L128.35005,42.837525 L129.10305,42.837525 L126.3783,48.250275 L126.3783,52.079775 L125.6763,52.079775 L125.6763,48.250275 L122.95005,42.837525 L123.70305,42.837525 Z M108.44265,42.836925 L113.77815,50.846925 L113.77815,42.836925 L114.4794,42.836925 L114.4794,52.079925 L113.77815,52.079925 L108.44265,44.044425 L108.44265,52.079925 L107.7414,52.079925 L107.7414,42.836925 L108.44265,42.836925 Z M118.300125,42.83715 L118.300125,51.45615 L123.206625,51.45615 L123.206625,52.0794 L117.598125,52.0794 L117.598125,42.83715 L118.300125,42.83715 Z M101.81835,43.382025 C101.1561,43.382025 100.53285,43.628775 100.0656,44.096025 C99.40335,44.758275 99.35235,45.485775 99.35235,47.459025 L99.3527187,47.7203916 C99.3582493,49.4974599 99.4334523,50.1883773 100.0656,50.820525 C100.53285,51.288525 101.1561,51.534525 101.81835,51.534525 C102.4806,51.534525 103.10385,51.288525 103.5711,50.820525 C104.2326,50.158275 104.28435,49.431525 104.28435,47.459025 L104.283977,47.1975562 C104.278386,45.4197735 104.202532,44.7281727 103.5711,44.096025 C103.10385,43.628775 102.4806,43.382025 101.81835,43.382025 Z M173.25885,47.6658 L170.5326,47.6658 L170.5326,51.4563 L173.25885,51.4563 C174.5181,51.4563 175.34835,50.7558 175.34835,49.5618 C175.34835,48.36705 174.5181,47.6658 173.25885,47.6658 L173.25885,47.6658 Z M208.58295,48.3549 L208.58295,48.9639 L205.1817,48.9639 L205.1817,48.3549 L208.58295,48.3549 Z M92.68845,48.3549 L92.68845,48.9639 L89.2872,48.9639 L89.2872,48.3549 L92.68845,48.3549 Z M173.15385,43.46055 L170.5326,43.46055 L170.5326,47.0433 L173.15385,47.0433 C174.27135,47.0433 175.20585,46.5243 175.20585,45.2523 C175.20585,43.9788 174.27135,43.46055 173.15385,43.46055 L173.15385,43.46055 Z M84.571875,13.578375 C87.594375,13.578375 90.185625,14.659125 92.345625,16.819875 C94.516875,18.981375 95.601375,21.577125 95.601375,24.607875 C95.601375,27.657375 94.511625,30.244875 92.332875,32.368125 C90.144375,34.501875 87.502125,35.568375 84.407625,35.568375 C81.669375,35.568375 79.210875,34.621125 77.032125,32.725875 C74.632125,30.628875 73.432875,27.881625 73.432875,24.484875 C73.432875,21.499125 74.527125,18.935625 76.715625,16.792875 C78.894375,14.650125 81.514125,13.578375 84.571875,13.578375 Z M131.2035,13.565325 C133.64775,13.565325 135.5565,14.755575 136.9305,17.136825 L136.9305,17.136825 L134.33475,18.674325 C133.8495,17.832075 133.3875,17.282325 132.948,17.025825 C132.489,16.732575 131.89875,16.586325 131.17575,16.586325 C130.28775,16.586325 129.55125,16.838325 128.964,17.342325 C128.37825,17.836575 128.085,18.459075 128.085,19.209825 C128.085,20.244825 128.85525,21.078075 130.3935,21.709575 L130.3935,21.709575 L132.5085,22.575825 C134.22975,23.271075 135.489,24.120825 136.2855,25.123575 C137.082,26.126325 137.48025,27.355575 137.48025,28.811325 C137.48025,30.762075 136.83,32.373075 135.5295,33.645825 C134.22,34.927575 132.59475,35.568825 130.65375,35.568825 C128.81325,35.568825 127.293,35.023575 126.09375,33.934575 C124.9125,32.844825 124.17525,31.311075 123.88275,29.332575 L123.88275,29.332575 L127.12425,28.618575 C127.26975,29.864325 127.52625,30.725325 127.89375,31.201575 C128.5515,32.116575 129.51375,32.574825 130.7775,32.574825 C131.775,32.574825 132.6045,32.239575 133.26375,31.572075 C133.923,30.903075 134.25225,30.056325 134.25225,29.031075 C134.25225,28.618575 134.19525,28.241325 134.08125,27.897825 C133.96575,27.553575 133.78725,27.238575 133.54575,26.950575 C133.302,26.661825 132.9885,26.391825 132.6045,26.139075 C132.21975,25.887825 131.76225,25.647075 131.2305,25.418325 L131.2305,25.418325 L129.18375,24.567075 C126.28125,23.340075 124.83075,21.545325 124.83075,19.182075 C124.83075,17.589075 125.439,16.257075 126.657,15.186075 C127.875,14.106075 129.39075,13.565325 131.2035,13.565325 Z M166.61265,13.578375 C169.6344,13.578375 172.2264,14.659125 174.3864,16.819875 C176.55765,18.981375 177.6414,21.577125 177.6414,24.607875 C177.6414,27.657375 176.5524,30.244875 174.3729,32.368125 C172.1844,34.501875 169.5429,35.568375 166.4484,35.568375 C163.7094,35.568375 161.25165,34.621125 159.07215,32.725875 C156.6729,30.628875 155.47365,27.881625 155.47365,24.484875 C155.47365,21.499125 156.5679,18.935625 158.7564,16.792875 C160.93515,14.650125 163.55415,13.578375 166.61265,13.578375 Z M218.160975,13.565325 C220.605225,13.565325 222.513975,14.755575 223.887975,17.136825 L223.887975,17.136825 L221.292225,18.674325 C220.806975,17.832075 220.344975,17.282325 219.905475,17.025825 C219.446475,16.732575 218.856225,16.586325 218.133225,16.586325 C217.245225,16.586325 216.508725,16.838325 215.921475,17.342325 C215.335725,17.836575 215.042475,18.459075 215.042475,19.209825 C215.042475,20.244825 215.812725,21.078075 217.350975,21.709575 L217.350975,21.709575 L219.465975,22.575825 C221.187225,23.271075 222.446475,24.120825 223.242975,25.123575 C224.039475,26.126325 224.437725,27.355575 224.437725,28.811325 C224.437725,30.762075 223.787475,32.373075 222.486975,33.645825 C221.177475,34.927575 219.552225,35.568825 217.611225,35.568825 C215.770725,35.568825 214.250475,35.023575 213.051225,33.934575 C211.869975,32.844825 211.132725,31.311075 210.840225,29.332575 L210.840225,29.332575 L214.081725,28.618575 C214.227225,29.864325 214.483725,30.725325 214.851225,31.201575 C215.508975,32.116575 216.471225,32.574825 217.734975,32.574825 C218.732475,32.574825 219.561975,32.239575 220.221225,31.572075 C220.880475,30.903075 221.209725,30.056325 221.209725,29.031075 C221.209725,28.618575 221.152725,28.241325 221.038725,27.897825 C220.923225,27.553575 220.744725,27.238575 220.502475,26.950575 C220.259475,26.661825 219.945975,26.391825 219.561975,26.139075 C219.177225,25.887825 218.719725,25.647075 218.187975,25.418325 L218.187975,25.418325 L216.141225,24.567075 C213.237975,23.340075 211.788225,21.545325 211.788225,19.182075 C211.788225,17.589075 212.396475,16.257075 213.614475,15.186075 C214.832475,14.106075 216.348225,13.565325 218.160975,13.565325 Z M102.812025,13.97745 C104.231775,13.97745 105.362775,14.08695 106.205025,14.30745 C107.057025,14.52645 107.775525,14.8977 108.361275,15.4197 C108.956775,15.96045 109.428525,16.63245 109.776525,17.43795 C110.132775,18.25245 110.312025,19.07745 110.312025,19.9107 C110.312025,21.43095 109.730025,22.7172 108.566775,23.7702 C109.694025,24.1542 110.582025,24.8277 111.232275,25.7892 C111.891525,26.7417 112.220775,27.84945 112.220775,29.1132 C112.220775,30.7707 111.635025,32.1717 110.463525,33.3162 C109.757775,34.0212 108.966525,34.51095 108.086775,34.7862 C107.124525,35.0517 105.920775,35.18445 104.474025,35.18445 L104.474025,35.18445 L99.625275,35.18445 L99.625275,13.97745 Z M144.96645,13.97745 C146.74245,13.97745 148.0842,14.10045 148.99095,14.34795 C149.90595,14.59545 150.7122,15.0612 151.40745,15.74895 C152.6262,16.9392 153.23445,18.4407 153.23445,20.2542 C153.23445,22.1952 152.5842,23.7342 151.2837,24.8697 C149.9832,26.00445 148.2297,26.5722 146.02395,26.5722 L146.02395,26.5722 L144.54045,26.5722 L144.54045,35.18445 L141.3402,35.18445 L141.3402,13.97745 Z M209.067675,13.977375 L209.067675,16.985625 L204.206175,16.985625 L204.206175,35.184375 L201.005175,35.184375 L201.005175,16.985625 L196.130175,16.985625 L196.130175,13.977375 L209.067675,13.977375 Z M185.415975,13.977825 C188.218725,13.977825 190.241475,14.503575 191.487225,15.556575 C192.860475,16.729575 193.547475,18.276075 193.547475,20.199825 C193.547475,21.700575 193.116975,22.992075 192.256725,24.072825 C191.395725,25.153575 190.260225,25.844325 188.850225,26.146575 L188.850225,26.146575 L195.414975,35.184075 L191.500725,35.184075 L185.444475,26.503575 L184.866975,26.503575 L184.866975,35.184075 L181.665975,35.184075 L181.665975,13.977825 Z M84.530625,16.586625 C82.324125,16.586625 80.460375,17.355375 78.940125,18.894375 C77.420625,20.414625 76.660125,22.291875 76.660125,24.526125 C76.660125,26.869875 77.447625,28.797375 79.022625,30.307875 C80.588625,31.819125 82.396875,32.574375 84.448875,32.574375 C86.673375,32.574375 88.550625,31.805625 90.079875,30.266625 C91.609125,28.710375 92.374125,26.814375 92.374125,24.580875 C92.374125,22.318875 91.618125,20.423625 90.107625,18.894375 C88.605375,17.355375 86.746875,16.586625 84.530625,16.586625 Z M166.5714,16.586625 C164.3649,16.586625 162.50115,17.355375 160.9809,18.894375 C159.46065,20.414625 158.7009,22.291875 158.7009,24.526125 C158.7009,26.869875 159.4884,28.797375 161.0634,30.307875 C162.6294,31.819125 164.43765,32.574375 166.4889,32.574375 C168.71415,32.574375 170.5914,31.805625 172.12065,30.266625 C173.64915,28.710375 174.4149,26.814375 174.4149,24.580875 C174.4149,22.318875 173.6589,20.423625 172.1484,18.894375 C170.64615,17.355375 168.78765,16.586625 166.5714,16.586625 Z M104.447025,25.7622 L102.826275,25.7622 L102.826275,32.1762 L104.804025,32.1762 C106.250025,32.1762 107.312775,31.8927 107.990775,31.32495 C108.704775,30.71145 109.061775,29.93295 109.061775,28.9902 C109.061775,28.0737 108.718275,27.30495 108.031275,26.68245 C107.363775,26.0682 106.168275,25.7622 104.447025,25.7622 L104.447025,25.7622 Z M186.006975,16.985325 L184.866975,16.985325 L184.866975,23.715075 L185.883225,23.715075 C188.913975,23.715075 190.429725,22.556325 190.429725,20.239575 C190.429725,18.070575 188.954475,16.985325 186.006975,16.985325 L186.006975,16.985325 Z M145.59795,16.9302 L144.54045,16.9302 L144.54045,23.60595 L145.7352,23.60595 C148.67445,23.60595 150.14445,22.47495 150.14445,20.21295 C150.14445,18.02445 148.62795,16.9302 145.59795,16.9302 L145.59795,16.9302 Z M103.952025,16.91595 L102.826275,16.91595 L102.826275,23.08395 L103.829025,23.08395 C105.019275,23.08395 105.891525,22.81995 106.445775,22.2942 C106.998525,21.76695 107.276775,20.99145 107.276775,19.96545 C107.276775,18.9672 106.992525,18.2097 106.424775,17.6922 C105.856275,17.17545 105.032025,16.91595 103.952025,16.91595 L103.952025,16.91595 Z" id="形状结合" fill="#FFFFFF"></path>
            </g>
        </g>
    </g>
</svg>