<?xml version="1.0" encoding="UTF-8"?>
<svg width="18px" height="18px" viewBox="0 0 18 18" version="1.1" xmlns="http://www.w3.org/2000/svg" xmlns:xlink="http://www.w3.org/1999/xlink">
    <title>关闭</title>
    <g id="页面-1" stroke="none" stroke-width="1" fill="none" fill-rule="evenodd">
        <g id="首页优化2备份" transform="translate(-339.000000, -51.000000)" fill="#000000" fill-rule="nonzero">
            <g id="关闭" transform="translate(339.000000, 51.000000)">
                <path d="M8.98497319,17.9999869 C4.01701058,17.991783 -0.00545419137,13.9583888 5.55136018e-06,8.99042759 C0.00547641943,4.0224664 4.03613915,-0.00272987224 9.00410176,1.3891327e-06 C13.9720644,0.0027354316 17.9999944,4.03066436 17.9999944,8.99862555 C17.9999944,11.3869633 17.0490313,13.6796583 15.3602519,15.3684372 C13.6660073,17.0572161 11.3733117,18.0027136 8.98497319,17.9999869 Z M8.98487845,1.80000067 C5.72928515,1.80489072 2.88186308,3.99808143 2.04352336,7.14483331 C1.20518364,10.2915852 2.58123396,13.6094891 5.40421464,15.2378782 C8.22475119,16.8638222 11.7858619,16.3943767 14.0882409,14.0911597 C15.4447381,12.746394 16.2048654,10.9126225 16.2000006,9.00305509 C16.1877564,5.02010341 12.9590487,1.80000067 8.98487845,1.80000067 Z" id="形状备份"></path>
                <circle id="椭圆形" cx="9" cy="9" r="3"></circle>
            </g>
        </g>
    </g>
</svg>