<svg width="16" height="16" viewBox="0 0 16 16" fill="none" xmlns="http://www.w3.org/2000/svg">
<g id="Group 367621">
<g id="Subtract" filter="url(#filter0_ii_1658_12100)">
<path d="M16 8C16 12.4183 12.4183 16 8 16C3.58172 16 0 12.4183 0 8C0 3.58172 3.58172 0 8 0C12.4183 0 16 3.58172 16 8Z" fill="#DF9F15"/>
</g>
<g id="Union" filter="url(#filter1_d_1658_12100)">
<path fill-rule="evenodd" clip-rule="evenodd" d="M13.6506 7.57351C13.2393 7.57718 11.2229 6.49683 11.1592 6.44051C11.0061 6.30504 11.0639 6.1364 11.2202 6.11333C11.3765 6.09027 12.254 5.99348 12.254 5.99348C11.7147 4.65622 10.5113 3.58824 8.93181 3.24208C6.41089 2.6894 3.80391 4.25713 3.22774 6.64979L3.22645 6.65596C3.21785 6.69917 3.17516 6.91365 2.97915 6.90639C2.8378 6.90116 2.37471 6.73034 2.20729 6.65748C2.18304 6.64693 2.16103 6.63806 2.14121 6.63007C2.00481 6.57511 1.97185 6.56183 2.02247 6.32811C2.67815 3.28637 6.03604 1.23639 9.25897 1.9378C11.9337 2.51978 13.7917 4.67291 13.9958 7.12614C14.03 7.4549 13.8496 7.57171 13.6506 7.57349L13.6506 7.57351ZM6.30017 4.88825C6.54872 4.72683 6.88434 4.79254 7.0498 5.035L7.9501 6.35426L8.8533 5.03444C9.01909 4.79218 9.35479 4.7269 9.60312 4.88863C9.85145 5.05036 9.91837 5.37785 9.75259 5.62011L9.18653 6.43262H9.83274C10.0909 6.43262 10.3001 6.64186 10.3001 6.89997V7.0763C10.3001 7.33441 10.0909 7.54366 9.83274 7.54366H8.62191V8.10059H9.83274C10.0909 8.10059 10.3001 8.30983 10.3001 8.56794V8.74427C10.3001 9.00238 10.0909 9.21163 9.83274 9.21163H8.62191V10.2261C8.62191 10.5416 8.36611 10.7974 8.05056 10.7974H7.85041C7.53486 10.7974 7.27905 10.5416 7.27905 10.2261V9.21163H6.06745C5.80934 9.21163 5.6001 9.00238 5.6001 8.74427V8.56794C5.6001 8.30983 5.80934 8.10059 6.06745 8.10059H7.27905V7.54366H6.06745C5.80934 7.54366 5.6001 7.33442 5.6001 7.0763V6.89997C5.6001 6.64186 5.80934 6.43262 6.06745 6.43262H6.71359L6.14975 5.61954C5.98428 5.37708 6.05163 5.04967 6.30017 4.88825ZM4.74546 9.9863C4.97439 9.964 5.02459 9.71344 4.81627 9.5887L4.81625 9.58867C4.60792 9.46393 2.8713 8.52701 2.61594 8.40051C2.29134 8.2397 1.9738 8.32562 2.00171 8.74654C2.20753 11.1961 4.04702 13.3444 6.69342 13.9258C9.95941 14.6435 13.213 12.7027 13.9605 9.59174L13.9609 9.59015C13.9708 9.54817 13.9803 9.50814 13.9866 9.46449C13.9877 9.45679 13.9888 9.44932 13.9899 9.44208C14.009 9.31264 14.0175 9.25522 13.8593 9.21561C13.6922 9.17379 13.156 9.02616 12.9362 8.9548C12.7163 8.88344 12.6832 9.04378 12.6628 9.14917C12.6468 9.23203 12.6436 9.24499 12.6372 9.27059C12.6355 9.27756 12.6336 9.28546 12.631 9.29595C12.0601 11.6886 9.50636 13.1805 7.00917 12.628C5.51981 12.2986 4.36795 11.3151 3.79962 10.0677C3.79962 10.0677 4.51652 10.0086 4.74546 9.9863Z" fill="#FDFFF5"/>
</g>
</g>
<defs>
<filter id="filter0_ii_1658_12100" x="0" y="-0.311111" width="16" height="16.6222" filterUnits="userSpaceOnUse" color-interpolation-filters="sRGB">
<feFlood flood-opacity="0" result="BackgroundImageFix"/>
<feBlend mode="normal" in="SourceGraphic" in2="BackgroundImageFix" result="shape"/>
<feColorMatrix in="SourceAlpha" type="matrix" values="0 0 0 0 0 0 0 0 0 0 0 0 0 0 0 0 0 0 127 0" result="hardAlpha"/>
<feOffset dy="0.311111"/>
<feGaussianBlur stdDeviation="0.155556"/>
<feComposite in2="hardAlpha" operator="arithmetic" k2="-1" k3="1"/>
<feColorMatrix type="matrix" values="0 0 0 0 1 0 0 0 0 1 0 0 0 0 1 0 0 0 0.6 0"/>
<feBlend mode="normal" in2="shape" result="effect1_innerShadow_1658_12100"/>
<feColorMatrix in="SourceAlpha" type="matrix" values="0 0 0 0 0 0 0 0 0 0 0 0 0 0 0 0 0 0 127 0" result="hardAlpha"/>
<feOffset dy="-0.311111"/>
<feGaussianBlur stdDeviation="0.155556"/>
<feComposite in2="hardAlpha" operator="arithmetic" k2="-1" k3="1"/>
<feColorMatrix type="matrix" values="0 0 0 0 0.854167 0 0 0 0 0.626958 0 0 0 0 0.0427083 0 0 0 1 0"/>
<feBlend mode="normal" in2="effect1_innerShadow_1658_12100" result="effect2_innerShadow_1658_12100"/>
</filter>
<filter id="filter1_d_1658_12100" x="1.61111" y="1.7998" width="12.7778" height="13.0532" filterUnits="userSpaceOnUse" color-interpolation-filters="sRGB">
<feFlood flood-opacity="0" result="BackgroundImageFix"/>
<feColorMatrix in="SourceAlpha" type="matrix" values="0 0 0 0 0 0 0 0 0 0 0 0 0 0 0 0 0 0 127 0" result="hardAlpha"/>
<feOffset dy="0.388889"/>
<feGaussianBlur stdDeviation="0.194444"/>
<feComposite in2="hardAlpha" operator="out"/>
<feColorMatrix type="matrix" values="0 0 0 0 0.7125 0 0 0 0 0.4875 0 0 0 0 0 0 0 0 1 0"/>
<feBlend mode="normal" in2="BackgroundImageFix" result="effect1_dropShadow_1658_12100"/>
<feBlend mode="normal" in="SourceGraphic" in2="effect1_dropShadow_1658_12100" result="shape"/>
</filter>
</defs>
</svg>
