<?xml version="1.0" encoding="UTF-8"?>
<svg width="22px" height="6px" viewBox="0 0 22 6" version="1.1" xmlns="http://www.w3.org/2000/svg" xmlns:xlink="http://www.w3.org/1999/xlink">
    <title>更多</title>
    <g id="页面-1" stroke="none" stroke-width="1" fill="none" fill-rule="evenodd">
        <g id="首页优化2备份" transform="translate(-292.000000, -57.000000)" fill="#000000">
            <path d="M303,57 C304.656854,57 306,58.3431458 306,60 C306,61.6568542 304.656854,63 303,63 C301.343146,63 300,61.6568542 300,60 C300,58.3431458 301.343146,57 303,57 Z M294,58 C295.104569,58 296,58.8954305 296,60 C296,61.1045695 295.104569,62 294,62 C292.895431,62 292,61.1045695 292,60 C292,58.8954305 292.895431,58 294,58 Z M312,58 C313.104569,58 314,58.8954305 314,60 C314,61.1045695 313.104569,62 312,62 C310.895431,62 310,61.1045695 310,60 C310,58.8954305 310.895431,58 312,58 Z" id="更多"></path>
        </g>
    </g>
</svg>