<?xml version="1.0" encoding="UTF-8"?>
<svg width="14px" height="13px" viewBox="0 0 14 13" version="1.1" xmlns="http://www.w3.org/2000/svg" xmlns:xlink="http://www.w3.org/1999/xlink">
    <title>路径备份@2x</title>
    <g id="页面-1" stroke="none" stroke-width="1" fill="none" fill-rule="evenodd">
        <g id="视频直播" transform="translate(-194.000000, -298.000000)" fill-rule="nonzero" stroke="#FFFFFF">
            <path d="M200.968,298.521 L202.439501,301.270446 C202.809305,301.999012 203.51179,302.5009 204.320887,302.614595 L204.320887,302.614595 L207.450686,303.054398 C207.453978,303.05465 207.45733,303.055017 207.460696,303.055344 C207.472683,303.056509 207.484609,303.057142 207.492985,303.063745 L207.492985,303.063745 L207.497461,303.07265 C207.501538,303.085858 207.500575,303.100334 207.496766,303.114209 C207.491029,303.135107 207.4782,303.154431 207.466813,303.165599 L207.466813,303.165599 L205.252941,305.245618 C204.63881,305.822618 204.35668,306.670179 204.502471,307.500137 L204.502471,307.500137 L205.01983,310.445342 C205.021282,310.447337 205.021248,310.449364 205.020549,310.45105 C205.015709,310.46273 205.005878,310.471457 204.995576,310.478525 C204.982491,310.487502 204.966917,310.493615 204.950132,310.494391 C204.932116,310.495225 204.913714,310.489382 204.888396,310.475786 L204.888396,310.475786 L202.152434,309.055126 C201.434507,308.682339 200.580574,308.679973 199.860591,309.048775 L199.860591,309.048775 L197.057437,310.484654 C197.046377,310.491554 197.03507,310.500366 197.022989,310.499986 C197.01204,310.499642 197.002124,310.494528 196.993375,310.488526 C196.979381,310.478925 196.967946,310.465315 196.960619,310.449132 C196.953823,310.434122 196.95097,310.417122 196.951462,310.399071 L196.951462,310.399071 L197.460692,307.500137 C197.606484,306.670179 197.324353,305.822618 196.710223,305.245618 L196.710223,305.245618 L194.520316,303.188115 C194.511118,303.17461 194.505195,303.159643 194.502254,303.144389 C194.498384,303.124316 194.499127,303.10349 194.50589,303.084709 C194.508477,303.077524 194.511569,303.069863 194.518085,303.064891 C194.527146,303.057977 194.539576,303.056599 194.552487,303.055344 C194.555374,303.055063 194.558239,303.054794 194.561061,303.0546 L194.561061,303.0546 L197.692296,302.614595 C198.501393,302.5009 199.203878,301.999012 199.573682,301.270446 L199.573682,301.270446 L200.958244,298.54266 L200.958244,298.54266 L200.968,298.521 Z" id="路径备份"></path>
        </g>
    </g>
</svg>