<?xml version="1.0" encoding="UTF-8"?>
<svg width="14px" height="13px" viewBox="0 0 14 13" version="1.1" xmlns="http://www.w3.org/2000/svg" xmlns:xlink="http://www.w3.org/1999/xlink">
    <title>路径@2x</title>
    <g id="页面-1" stroke="none" stroke-width="1" fill="none" fill-rule="evenodd">
        <g id="视频直播" transform="translate(-194.000000, -203.000000)" fill="#FFB001" fill-rule="nonzero">
            <path d="M201.506782,203.328154 L202.885355,206.04414 C203.181198,206.626993 203.743186,207.028504 204.390464,207.11946 L207.509065,207.557689 L207.509065,207.557689 C208.009255,207.606305 208.159312,208.189689 207.809179,208.529996 L205.595307,210.610016 C205.104002,211.071616 204.878298,211.749664 204.994931,212.413631 L205.508304,215.336145 L205.508304,215.336145 C205.608342,215.773683 205.108152,216.162606 204.65798,215.91953 L201.922018,214.49887 C201.347676,214.200641 200.66453,214.198747 200.088544,214.493789 L197.305183,215.91953 L197.305183,215.91953 C196.905031,216.162606 196.404841,215.822299 196.45486,215.336145 L196.968233,212.413631 C197.084866,211.749664 196.859161,211.071616 196.367857,210.610016 L194.153985,208.529996 L194.153985,208.529996 C193.853871,208.189689 194.003928,207.606305 194.504118,207.557689 L197.622719,207.11946 C198.269996,207.028504 198.831985,206.626993 199.127828,206.04414 L200.506401,203.328154 L200.506401,203.328154 C200.706477,202.890615 201.306706,202.890615 201.506782,203.328154 Z" id="路径"></path>
        </g>
    </g>
</svg>