<?xml version="1.0" encoding="UTF-8"?>
<svg width="16px" height="12px" viewBox="0 0 16 12" version="1.1" xmlns="http://www.w3.org/2000/svg" xmlns:xlink="http://www.w3.org/1999/xlink">
    <title>形状结合备份 29@2x</title>
    <g id="页面-1" stroke="none" stroke-width="1" fill="none" fill-rule="evenodd">
        <g id="视频直播备份-5" transform="translate(-102.000000, -301.000000)" fill="#FFFFFF" fill-rule="nonzero">
            <path d="M116.298042,301 C117.236117,301 118,301.707537 118,302.576415 L118,311.423585 C118,312.292463 117.236117,313 116.298042,313 L103.701958,313 C102.763883,313 102,312.292463 102,311.423585 L102,302.576415 C102,301.707537 102.763883,301 103.701958,301 L116.298042,301 Z M116.298042,302 L103.701958,302 C103.336339,302 103.055351,302.229475 103.007284,302.495654 L103,302.576415 L103,311.423585 C103,311.695176 103.24775,311.949341 103.594959,311.993309 L103.701958,312 L116.298042,312 C116.663661,312 116.944649,311.770525 116.992716,311.504346 L117,311.423585 L117,302.576415 C117,302.304824 116.75225,302.050659 116.405041,302.006691 L116.298042,302 Z M108.798307,304.000004 C108.88422,303.99964 108.967966,304.026947 109.037152,304.077883 L112.182395,306.393501 C112.271345,306.458988 112.290365,306.584185 112.224878,306.673135 C112.213731,306.688275 112.200506,306.701768 112.185591,306.713215 L109.062138,309.110541 C108.886892,309.245046 108.635789,309.21202 108.501283,309.036773 C108.448013,308.967369 108.418968,308.882413 108.418598,308.794922 L108.400004,304.401693 C108.399069,304.180781 108.577395,304.000939 108.798307,304.000004 Z" id="形状结合备份-29"></path>
        </g>
    </g>
</svg>