<svg width="16" height="16" viewBox="0 0 16 16" fill="none" xmlns="http://www.w3.org/2000/svg">
<path fill-rule="evenodd" clip-rule="evenodd" d="M6.66716 1C6.66716 0.447716 7.11487 0 7.66716 0H8.33382C8.88611 0 9.33382 0.447715 9.33382 1V1.66667C9.33382 2.21895 8.88611 2.66667 8.33382 2.66667H7.66716C7.11487 2.66667 6.66716 2.21895 6.66716 1.66667V1ZM6.66716 14.333C6.66716 13.7807 7.11487 13.333 7.66716 13.333H8.33382C8.88611 13.333 9.33382 13.7807 9.33382 14.333V14.9997C9.33382 15.552 8.88611 15.9997 8.33382 15.9997H7.66716C7.11487 15.9997 6.66716 15.552 6.66716 14.9997V14.333ZM2.57919 13.8925C2.96971 14.283 3.60288 14.283 3.9934 13.8925L4.46481 13.4211C4.85533 13.0306 4.85533 12.3974 4.46481 12.0069L3.9934 11.5355C3.60288 11.145 2.96971 11.145 2.57919 11.5355L2.10778 12.0069C1.71726 12.3974 1.71726 13.0306 2.10778 13.4211L2.57919 13.8925ZM12.0069 4.46477C12.3974 4.85529 13.0306 4.85529 13.4211 4.46477L13.8925 3.99336C14.2831 3.60284 14.2831 2.96967 13.8925 2.57915L13.4211 2.10775C13.0306 1.71722 12.3974 1.71722 12.0069 2.10775L11.5355 2.57915C11.145 2.96967 11.145 3.60284 11.5355 3.99336L12.0069 4.46477ZM3.33317 7.99967C3.33317 5.42235 5.42251 3.33301 7.99984 3.33301C10.5772 3.33301 12.6665 5.42235 12.6665 7.99967C12.6665 10.577 10.5772 12.6663 7.99984 12.6663C5.42251 12.6663 3.33317 10.577 3.33317 7.99967ZM16.0002 7.66699C16.0002 7.11471 15.5524 6.66699 15.0002 6.66699H14.3335C13.7812 6.66699 13.3335 7.11471 13.3335 7.66699V8.33366C13.3335 8.88594 13.7812 9.33366 14.3335 9.33366H15.0002C15.5524 9.33366 16.0002 8.88594 16.0002 8.33366V7.66699ZM2.66716 7.66699C2.66716 7.11471 2.21944 6.66699 1.66715 6.66699H1.00049C0.448204 6.66699 0.000488281 7.11471 0.000488281 7.66699V8.33366C0.000488281 8.88594 0.448204 9.33366 1.00049 9.33366H1.66716C2.21944 9.33366 2.66716 8.88594 2.66716 8.33366V7.66699ZM13.8927 12.0068C14.2832 12.3973 14.2832 13.0304 13.8927 13.421L13.4213 13.8924C13.0307 14.2829 12.3976 14.2829 12.007 13.8924L11.5356 13.421C11.1451 13.0304 11.1451 12.3973 11.5356 12.0068L12.007 11.5354C12.3976 11.1448 13.0307 11.1448 13.4213 11.5354L13.8927 12.0068ZM4.46493 2.57903C4.85545 2.96955 4.85546 3.60272 4.46493 3.99324L3.99353 4.46464C3.603 4.85517 2.96984 4.85517 2.57931 4.46464L2.10791 3.99324C1.71738 3.60272 1.71738 2.96955 2.10791 2.57903L2.57931 2.10762C2.96984 1.7171 3.603 1.7171 3.99353 2.10762L4.46493 2.57903Z" fill="#4987FB"/>
</svg>
