<?xml version="1.0" encoding="UTF-8"?>
<svg width="22px" height="22px" viewBox="0 0 22 22" version="1.1" xmlns="http://www.w3.org/2000/svg" xmlns:xlink="http://www.w3.org/1999/xlink">
    <title>趣味备份 2</title>
    <g id="趣味备份-2" stroke="none" stroke-width="1" fill="none" fill-rule="evenodd">
        <g id="奖牌-3" transform="translate(3.000000, 1.000000)" fill-rule="nonzero">
            <g transform="translate(0.600000, 0.000000)">
                <polygon id="路径" fill="#FF4C4C" points="14.7287381 0.0155806108 12.2749186 0.0155806108 9.00309245 4.0851163 11.4569119 4.0851163"></polygon>
                <polygon id="路径" fill="#3B8CFF" points="12.2749186 0.0155806108 9.82089844 0.0155806108 6.54907227 4.0851163 9.00309245 4.0851163"></polygon>
                <polygon id="路径" fill="#F1F1F1" points="9.82089844 0.0155806108 7.36707899 0.0155806108 4.09525282 4.0851163 6.54907227 4.0851163"></polygon>
                <polygon id="路径" fill="#FF4C4C" points="0.00541992188 0.0155806108 2.45923937 0.0155806108 5.73106554 4.0851163 3.27724609 4.0851163"></polygon>
                <polygon id="路径" fill="#3B8CFF" points="2.45923937 0.0155806108 4.91305881 0.0155806108 8.18488498 4.08531605 5.73106554 4.08531605"></polygon>
                <polygon id="路径" fill="#FBFBFB" points="4.91325955 0.0155806108 7.36707899 0.0155806108 10.6389052 4.08531605 8.18508572 4.08531605"></polygon>
                <polygon id="路径" fill="#A0510E" points="3.27724609 4.0851163 11.4569119 4.0851163 11.4569119 8.15485174 3.27724609 8.15485174"></polygon>
                <path d="M1.23232964,11.8176935 C1.23232964,15.189098 3.97882487,17.9222967 7.36707899,17.9222967 C10.7553331,17.9222967 13.5018283,15.189098 13.5018283,11.8176935 C13.5018283,8.44628906 10.7551324,5.71309038 7.36707899,5.71309038 C3.97902561,5.71309038 1.23232964,8.44608931 1.23232964,11.8176935 Z" id="路径" fill="#F5BD42"></path>
                <path d="M2.45923937,11.8176935 C2.45923937,14.514937 4.65651584,16.701416 7.36707899,16.701416 C10.0776421,16.701416 12.2749186,14.514937 12.2749186,11.8176935 C12.2749186,9.12045011 10.0776421,6.93397106 7.36707899,6.93397106 C4.65651584,6.93397106 2.45923937,9.12045011 2.45923937,11.8176935 Z" id="路径" fill="#C2681B"></path>
                <path d="M3.27724609,11.8176935 C3.27724609,14.0652965 5.10837674,15.887429 7.36707899,15.887429 C9.62578125,15.887429 11.4569119,14.0652965 11.4569119,11.8176935 C11.4571126,9.57009055 9.62618273,7.74775835 7.36748047,7.74755859 C5.10877821,7.74735884 3.27744683,9.56929155 3.27724609,11.8168945 L3.27724609,11.8176935 Z" id="路径" fill="#F5BD42"></path>
                <path d="M2.8683431,4.0851163 L11.8658149,4.0851163 C12.091645,4.08531605 12.2747179,4.26748935 12.2745173,4.49240945 C12.2743164,4.71693004 12.0914442,4.89910334 11.8658149,4.89910334 L2.8683431,4.89910334 C2.64251302,4.89910334 2.45943994,4.71693004 2.45943994,4.49220969 C2.45923937,4.26748935 2.64251302,4.0851163 2.8683431,4.0851163 Z" id="路径" fill="#A0510E"></path>
                <path d="M2.8683431,4.24791371 C2.73284505,4.24791371 2.62304145,4.35717773 2.62304145,4.49200994 C2.62304145,4.62684215 2.73284505,4.73610618 2.8683431,4.73610618 L11.8658149,4.73610618 C12.0013129,4.73610618 12.1111165,4.62684215 12.1111165,4.49200994 C12.1111165,4.35717773 12.0013129,4.24791371 11.8658149,4.24791371 L2.8683431,4.24791371 Z M2.8683431,3.92251853 L11.8658149,3.92251853 C12.181977,3.92231889 12.43852,4.1772017 12.4387208,4.49200994 C12.4389214,4.80661843 12.1827799,5.06190075 11.8664171,5.0621005 L2.8683431,5.0621005 C2.55218099,5.0621005 2.29583876,4.80701793 2.29583876,4.49240945 C2.29583876,4.17760121 2.55218099,3.92251853 2.8683431,3.92251853 Z" id="形状" fill="#C2681B"></path>
                <polygon id="路径" fill="#FFF3D1" points="7.36707899 13.4454679 5.44401042 14.451416 5.81136068 12.3204679 4.25564236 10.8115456 6.40514323 10.5005327 7.36707899 8.56194513 8.32901476 10.5007324 10.4785156 10.8115456 8.92279731 12.3206676 9.29014757 14.4516158"></polygon>
            </g>
        </g>
    </g>
</svg>