<?xml version="1.0" encoding="UTF-8"?>
<svg width="22px" height="16px" viewBox="0 0 22 16" version="1.1" xmlns="http://www.w3.org/2000/svg" xmlns:xlink="http://www.w3.org/1999/xlink">
    <title>马车赛@2x</title>
    <g id="页面-1" stroke="none" stroke-width="1" fill="none" fill-rule="evenodd">
        <g id="画板" transform="translate(-857.000000, -151.000000)" fill="#006AFF">
            <path d="M863.55233,157.673769 C863.62633,157.609102 863.74433,157.626739 863.79733,157.709041 L863.79733,157.709041 L865.43033,160.224173 C865.46533,160.278061 865.46033,160.346647 865.42233,160.397596 C865.06133,160.889453 864.90733,161.5224 865.06333,162.157306 C865.30733,163.146898 866.21033,163.812178 867.20533,163.812178 C867.52233,163.812178 867.85033,163.744572 868.16733,163.598583 C868.85033,163.284069 869.32233,162.61487 869.39833,161.880024 C869.46133,161.273532 869.27733,160.76012 868.96633,160.357425 C868.92533,160.304516 868.92033,160.233971 868.95733,160.178122 L868.95733,160.178122 L870.58033,157.76097 C870.63533,157.679648 870.75333,157.662011 870.82633,157.728637 C871.60233,158.421352 872.18633,159.336479 872.45133,160.413273 C873.20333,163.47219 871.10033,166.551682 867.82033,166.959277 C865.41333,167.257134 863.02933,165.8962 862.12133,163.691664 C861.20233,161.461652 861.90433,159.105248 863.55233,157.673769 Z M878.47313,151 C878.49113,151 878.50613,151.006859 878.52313,151.008818 C878.54813,151.011758 878.57313,151.015677 878.59713,151.020576 C878.63613,151.030374 878.67313,151.044091 878.71013,151.061727 C878.73113,151.072505 878.75313,151.082303 878.77213,151.09602 C878.80813,151.119535 878.83813,151.148929 878.86813,151.180282 C878.88113,151.195959 878.89813,151.208696 878.91013,151.225353 C878.94813,151.278261 878.97813,151.337049 878.99513,151.402695 C879.06413,151.684876 878.88713,151.969016 878.59813,152.037602 L878.59813,152.037602 L877.59513,152.273732 L877.86613,153.402455 C877.93313,153.684636 877.75413,153.967796 877.46513,154.034422 C877.42413,154.04324 877.38213,154.048139 877.34213,154.048139 C877.09913,154.048139 876.87913,153.884514 876.82113,153.642504 L876.82113,153.642504 L876.55213,152.52064 L873.25413,153.299577 L868.25613,160.744051 C868.40313,160.907677 868.51313,161.105595 868.56813,161.329968 C868.74913,162.065793 868.28513,162.807497 867.53513,162.98484 C867.42613,163.010315 867.31513,163.023052 867.20513,163.023052 C866.55713,163.023052 865.99813,162.590963 865.84613,161.972713 C865.75813,161.617048 865.81713,161.248645 866.01213,160.936091 C866.04413,160.886121 866.08313,160.842031 866.11913,160.79696 L866.11913,160.79696 L865.67413,160.110125 L863.90513,157.385317 L862.84613,155.752981 L860.11413,156.398665 C860.00713,156.42414 859.89913,156.438836 859.79213,156.447655 C859.76213,156.449614 859.73313,156.450594 859.70313,156.452554 C859.67013,156.453533 859.63613,156.458432 859.60413,156.458432 C859.55913,156.458432 859.51613,156.451574 859.47113,156.449614 C859.43413,156.447655 859.39713,156.446675 859.35913,156.442756 C859.27313,156.432958 859.18813,156.416301 859.10413,156.397685 C859.08313,156.392786 859.06113,156.389847 859.03913,156.383968 C858.93513,156.357514 858.83413,156.322241 858.73413,156.28011 C858.70813,156.268352 858.68313,156.252676 858.65613,156.240918 C858.58513,156.206625 858.51613,156.170373 858.44813,156.129222 C858.41613,156.109626 858.38513,156.08709 858.35313,156.065535 C858.29513,156.025363 858.23813,155.982252 858.18413,155.936202 C858.15413,155.911707 858.12413,155.885253 858.09513,155.858798 C858.04113,155.806869 857.99013,155.752981 857.94113,155.695173 C857.91913,155.668718 857.89513,155.644224 857.87313,155.616789 C857.80613,155.529588 857.74313,155.438467 857.68913,155.340487 L857.68913,155.340487 L857.14113,154.349916 C856.80113,153.733625 857.14913,152.969386 857.84413,152.804781 L857.84413,152.804781 L860.73313,152.121864 C860.97113,152.066016 861.21013,152.029763 861.44813,152.004289 C861.52513,151.99743 861.60113,151.99743 861.67813,151.992531 C861.79313,151.984693 861.90813,151.971956 862.02213,151.971956 L862.02213,151.971956 L862.17013,151.979794 C862.24813,151.981754 862.32513,151.987632 862.40313,151.992531 C862.56413,152.003309 862.72213,152.021925 862.88013,152.04544 C862.95413,152.057198 863.02813,152.067975 863.10113,152.081693 C863.29213,152.119905 863.48013,152.166935 863.66613,152.223763 C863.69813,152.23454 863.73213,152.241399 863.76513,152.251197 C863.98113,152.322722 864.19113,152.406984 864.39613,152.503984 C864.45413,152.531418 864.51013,152.563751 864.56713,152.593145 C864.71413,152.667609 864.85813,152.747952 864.99713,152.836134 C865.06313,152.877285 865.12713,152.920396 865.19213,152.964487 C865.32313,153.056588 865.45013,153.152607 865.57413,153.255486 C865.62913,153.301536 865.68413,153.343667 865.73713,153.390697 C865.90713,153.543545 866.07113,153.704231 866.22313,153.877655 L866.22313,153.877655 L876.80213,151.38016 C876.81113,151.377221 876.81813,151.370362 876.82813,151.368403 C876.83113,151.368403 876.83313,151.367423 876.83613,151.367423 L876.839255,151.367913 C876.84713,151.368403 876.85013,151.368403 876.85413,151.367423 L876.85413,151.367423 L878.34713,151.015677 C878.38913,151.004899 878.43213,151 878.47313,151 Z M872.10913,153.56902 L863.67513,155.560941 L864.58813,156.966945 L866.34213,159.671177 L866.78313,160.350174 C866.81613,160.340376 866.84613,160.325679 866.87913,160.317841 C866.98713,160.291386 867.09913,160.279629 867.20913,160.279629 C867.33413,160.279629 867.45513,160.299225 867.57113,160.329598 L867.57113,160.329598 L868.02613,159.651581 L868.62313,158.762908 L872.10913,153.56902 Z M865.88213,156.476559 C867.10613,156.188499 868.33113,156.329589 869.39513,156.799891 C869.48513,156.840062 869.51613,156.953718 869.46213,157.035041 L869.46213,157.035041 L867.76213,159.567809 C867.58313,159.521758 867.39813,159.490405 867.20913,159.490405 C867.03813,159.490405 866.86413,159.510001 866.69013,159.551152 C866.65913,159.55899 866.63213,159.572708 866.60213,159.580546 L866.60213,159.580546 L864.92613,156.999769 C864.87313,156.917466 864.90613,156.805769 864.99713,156.766578 C865.27813,156.648022 865.57413,156.550043 865.88213,156.476559 Z" id="马车赛"></path>
        </g>
    </g>
</svg>