<?xml version="1.0" encoding="UTF-8"?>
<svg width="23px" height="22px" viewBox="0 0 23 22" version="1.1" xmlns="http://www.w3.org/2000/svg" xmlns:xlink="http://www.w3.org/1999/xlink">
    <title>摩托车@2x</title>
    <g id="页面-1" stroke="none" stroke-width="1" fill="none" fill-rule="evenodd">
        <g id="画板" transform="translate(-961.000000, -148.000000)" fill="#006AFF">
            <g id="摩托车" transform="translate(961.009937, 148.000000)">
                <path d="M5.65,5.691 C4.781,6.606 4.135,7.689 3.833,8.738 C3.753,9.013 3.697,9.284 3.667,9.542 C3.642,9.752 3.464,9.907 3.257,9.907 C3.242,9.907 3.226,9.905 3.21,9.904 C2.983,9.878 2.821,9.672 2.847,9.446 C2.882,9.142 2.947,8.828 3.04,8.508 C3.379,7.336 4.093,6.132 5.051,5.123 C5.209,4.957 5.469,4.95 5.635,5.107 C5.799,5.264 5.807,5.525 5.65,5.691 M8.434,11.955 C8.584,10.261 10.089,9.006 11.79,9.006 L21.469,9.006 C21.645,9.006 21.78,8.843 21.743,8.671 C20.674,3.716 16.275,-8.8817842e-15 11,-8.8817842e-15 C4.924,-8.8817842e-15 4.97379915e-14,4.924 4.97379915e-14,11 L4.97379915e-14,13.249 C4.97379915e-14,15.284 1.394,17.052 3.372,17.528 L17.511,20.922 C19.505,21.401 21.428,20.142 21.889,18.254 C21.925,18.107 21.827,17.961 21.68,17.926 L10.942,15.419 C9.363,15.057 8.289,13.604 8.434,11.955" id="Fill-1"></path>
                <path d="M12.0963,11.5962 C11.7033,11.5962 11.3833,11.9162 11.3833,12.3092 C11.3833,12.7022 11.7033,13.0222 12.0963,13.0222 C12.4903,13.0222 12.8093,12.7022 12.8093,12.3092 C12.8093,11.9162 12.4903,11.5962 12.0963,11.5962" id="Fill-3"></path>
                <path d="M12.0963,13.8472 C11.2483,13.8472 10.5583,13.1582 10.5583,12.3092 C10.5583,11.4612 11.2483,10.7712 12.0963,10.7712 C12.9453,10.7712 13.6343,11.4612 13.6343,12.3092 C13.6343,13.1582 12.9453,13.8472 12.0963,13.8472 M21.6983,10.1062 L11.7783,10.1062 C10.5993,10.1062 9.5573,11.0082 9.5223,12.1872 C9.4913,13.2232 10.1853,14.1172 11.1893,14.3462 L21.6613,16.7922 C21.8343,16.8322 21.9993,16.7012 21.9993,16.5252 L21.9993,10.9992 C21.9993,10.7842 21.9883,10.5732 21.9733,10.3612 C21.9633,10.2172 21.8423,10.1062 21.6983,10.1062" id="Fill-5"></path>
            </g>
        </g>
    </g>
</svg>