<?xml version="1.0" encoding="UTF-8"?>
<svg width="22px" height="22px" viewBox="0 0 22 22" version="1.1" xmlns="http://www.w3.org/2000/svg" xmlns:xlink="http://www.w3.org/1999/xlink">
    <title>篮球备份@2x</title>
    <g id="页面-1" stroke="none" stroke-width="1" fill="none" fill-rule="evenodd">
        <g id="画板" transform="translate(-90.000000, -187.000000)" fill="#FF9124">
            <path d="M99.9640427,194.957679 L100.011244,194.969719 C100.429398,195.143719 100.84055,195.332719 101.2467,195.530719 C101.325729,195.568719 101.35674,195.665719 101.321728,195.746719 C100.32436,198.048719 102.051997,200.105719 103.49753,201.815719 C104.454883,202.948719 105.444248,204.118719 105.651325,205.246719 C105.839394,206.274719 105.3132,207.617719 104.702975,208.227719 L104.702975,208.227719 L104.5009,208.428719 C101.932953,209.289719 99.0929053,209.185719 96.5499671,208.061719 L96.5499671,208.061719 L96.5379627,207.780719 C96.34089,203.152719 97.4643044,198.788719 99.8011666,195.036719 C99.8451828,194.966719 99.9342156,194.937719 100.011244,194.969719 Z M102.282082,196.287519 C102.318095,196.192519 102.436139,196.152519 102.524171,196.202519 C104.218796,197.164519 105.780372,198.334519 107.145876,199.698519 C108.32231,200.874519 109.237648,202.028519 110.206005,203.555519 L110.206005,203.555519 L110.35406,203.790519 C110.123975,204.161519 109.876884,204.525519 109.59678,204.875519 C108.784481,205.891519 107.826127,206.720519 106.77774,207.366519 C106.648693,207.445519 106.488634,207.317519 106.536651,207.174519 C106.761735,206.488519 106.860771,205.738519 106.733724,205.049519 C106.475629,203.632519 105.389228,202.347519 104.338841,201.105519 C102.729247,199.201519 101.704869,197.795519 102.282082,196.287519 Z M97.6485818,194.14455 L97.6949895,194.150519 C98.0121065,194.244519 98.3262224,194.344519 98.6383376,194.450519 C98.7383745,194.483519 98.7783892,194.600519 98.7243693,194.690519 C96.4735389,198.402519 95.3431219,202.668519 95.422151,207.187519 C95.4251521,207.317519 95.2851005,207.400519 95.1740595,207.333519 C94.8129263,207.111519 94.4577952,206.871519 94.1176698,206.599519 C91.6947759,204.662519 90.3132662,201.910519 90.0391651,199.049519 L90.0391651,199.049519 L90.2622474,198.921519 C90.9354958,198.535519 91.6087442,198.200519 92.258984,197.877519 C94.0976624,196.962519 95.8363038,196.096519 97.5249268,194.200519 C97.5669423,194.153519 97.633967,194.133519 97.6949895,194.150519 Z M103.112188,195.036319 C105.156942,192.865319 108.37613,193.083319 110.713993,193.646319 L110.713993,193.646319 L111.155155,193.752319 C112.298577,196.492319 112.295576,199.627319 111.078127,202.406319 C111.025107,202.525319 110.856045,202.535319 110.784018,202.427319 C109.89469,201.088319 109.017367,200.013319 107.924964,198.920319 C106.512443,197.508319 104.900848,196.296319 103.153203,195.295319 C103.135197,195.182319 103.131195,195.149319 103.112188,195.036319 Z M91.1057586,193.169219 L91.3748579,193.174219 C92.9714469,193.199219 94.5500293,193.395219 96.0865962,193.735219 C96.2146434,193.764219 96.2616607,193.929219 96.167626,194.021219 C94.7761127,195.386219 93.3095716,196.124219 91.7680029,196.891219 C91.274821,197.137219 90.7666335,197.394219 90.2514434,197.673219 C90.1384017,197.735219 89.9973497,197.652219 90.0023515,197.524219 C90.0653748,196.035219 90.4275084,194.553219 91.1057586,193.169219 L91.1057586,193.169219 Z M106.392498,188.418719 C106.901686,188.705719 107.39987,189.024719 107.872044,189.401719 C108.86441,190.195719 109.67571,191.129719 110.313945,192.148719 C110.389973,192.270719 110.281933,192.423719 110.139881,192.397719 C107.627954,191.928719 104.484794,191.985719 102.322997,194.269719 C102.19595,194.403719 102.089911,194.535719 101.983872,194.668719 C101.498693,194.424719 101.006511,194.193719 100.504326,193.982719 C100.652381,193.772719 100.802436,193.562719 100.959494,193.356719 C102.187947,191.742719 103.943595,190.131719 106.176419,188.569719 L106.176419,188.569719 Z M97.0671579,187.721519 C99.5950905,186.759519 102.426135,186.749519 104.993082,187.751519 C105.114127,187.798519 105.131133,187.965519 105.026094,188.042519 C102.945327,189.554519 101.281713,191.115519 100.08227,192.690519 C99.889199,192.945519 99.7011297,193.204519 99.5190625,193.466519 C99.477047,193.527519 99.4000186,193.552519 99.3299927,193.526519 C99.0128757,193.412519 98.6917573,193.303519 98.3686381,193.201519 C98.2796052,193.173519 98.235589,193.080519 98.2666004,192.993519 C98.7327724,191.650519 98.3046144,189.967519 96.9911299,187.971519 C96.9331085,187.883519 96.9681214,187.759519 97.0671579,187.721519 Z M95.8635139,188.263019 L95.9035286,188.322019 C97.1719966,190.165019 97.593152,191.635019 97.1779988,192.713019 C97.1489881,192.790019 97.061956,192.830019 96.9819265,192.810019 C95.362329,192.405019 93.6917126,192.167019 92.0010889,192.098019 C91.8720413,192.092019 91.7960132,191.950019 91.8680398,191.843019 C92.0321003,191.599019 92.2061646,191.360019 92.3932336,191.126019 C93.3715945,189.903019 94.560033,188.949019 95.8635139,188.263019 L95.8635139,188.263019 Z" id="篮球备份"></path>
        </g>
    </g>
</svg>