<?xml version="1.0" encoding="UTF-8"?>
<svg width="27px" height="27px" viewBox="0 0 27 27" version="1.1" xmlns="http://www.w3.org/2000/svg" xmlns:xlink="http://www.w3.org/1999/xlink">
    <title>公路自行车</title>
    <g id="页面-1" stroke="none" stroke-width="1" fill="none" fill-rule="evenodd">
        <g id="12-PC-分类icon" transform="translate(-1357.000000, -202.000000)" fill="#FF9124" fill-rule="nonzero">
            <g id="公路自行车" transform="translate(1357.000000, 202.000000)">
                <path d="M13.5,0 C20.9475,0 27,6.0525 27,13.5 C27,20.9475 20.9475,27 13.5,27 C6.0525,27 0,20.9475 0,13.5 C0,6.0525 6.0525,0 13.5,0 Z M14.3775,5.715 C13.8825,5.895 13.635,6.435 13.77,6.9075 C13.86,7.2675 14.625,9.585 14.76,9.9225 C14.8275,10.1025 14.94,10.2375 15.0975,10.305 L16.965,11.205 L16.965,12.645 C16.965,12.69 16.965,12.735 16.9875,12.78 L17.4825,13.905 C16.29,14.5575 15.48,15.8175 15.48,17.28 C15.48,19.395 17.2125,21.1275 19.3275,21.1275 C21.4425,21.1275 23.175,19.395 23.175,17.28 C23.175,15.165 21.4425,13.4325 19.3275,13.4325 C18.8775,13.4325 18.45,13.5 18.0675,13.6575 L17.595,12.6 L17.595,11.7 L18.8325,11.7 C19.1925,11.7 19.3275,11.835 19.3275,12.015 C19.3275,12.195 19.215,12.3525 18.8325,12.3525 L18.675,12.3525 C18.5175,12.3525 18.3825,12.465 18.3825,12.6225 C18.3825,12.78 18.5175,12.915 18.675,12.915 L18.9,12.915 C19.665,12.915 19.9125,12.4425 19.9125,12.0825 C19.9125,11.61 19.575,11.1825 18.8325,11.1825 L18.3375,11.1825 C18.1575,11.025 16.5825,9.855 15.9525,9.3825 C15.885,8.6175 15.705,6.75 15.6825,6.525 C15.6825,6.4575 15.66,6.3675 15.6375,6.3 C15.4575,5.7825 14.895,5.535 14.3775,5.715 Z M7.9425,13.41 C5.8275,13.41 4.095,15.1425 4.095,17.2575 C4.095,19.3725 5.8275,21.105 7.9425,21.105 C10.0575,21.105 11.79,19.3725 11.79,17.2575 C11.79,15.12 10.0575,13.41 7.9425,13.41 Z M19.305,14.0175 C21.0825,14.0175 22.5225,15.4575 22.5225,17.235 C22.545,19.035 21.105,20.475 19.3275,20.475 C17.55,20.475 16.11,19.035 16.11,17.2575 C16.11,16.0425 16.7625,15.0075 17.7525,14.445 L19.0575,17.37 C19.1025,17.4825 19.215,17.55 19.35,17.55 C19.395,17.55 19.44,17.55 19.485,17.5275 C19.6425,17.46 19.71,17.28 19.6425,17.1225 L18.2925,14.175 C18.6075,14.0625 18.945,14.0175 19.305,14.0175 Z M7.9425,14.04 C9.72,14.04 11.16,15.48 11.16,17.2575 C11.16,19.035 9.72,20.475 7.9425,20.475 C6.165,20.475 4.725,19.035 4.725,17.2575 C4.725,15.48 6.165,14.04 7.9425,14.04 Z M11.07,8.19 C10.3725,8.19 9.81,8.7525 9.81,9.45 C9.81,9.54 9.8325,9.6525 9.8775,9.7875 C9.91125,9.9 10.74375,12.166875 11.57625,14.428125 L11.7928987,15.0164685 C12.4756268,16.8701572 13.1109564,18.5918312 13.2486018,18.9638163 L13.275,19.035 L13.275,19.035 C13.32,19.17 13.4775,19.2825 13.635,19.2825 C13.86,19.2825 14.0175,19.1025 14.0175,18.9 L14.0175,18.8325 L14.0175,18.8325 C14.0175,18.7875 13.6125,16.8525 13.1625,14.7375 C14.04,13.635 15.2325,12.1275 15.255,12.105 C15.345,11.9925 15.4125,11.835 15.4125,11.6775 C15.4125,11.475 15.3225,11.2725 15.165,11.16 C15.0525,11.07 12.15,8.685 11.8125,8.4375 C11.61,8.28 11.34,8.19 11.07,8.19 Z M12.42,11.205 C12.825,11.43 13.275,11.6775 13.7025,11.9025 C13.4325,12.33 13.14,12.8025 12.8475,13.2525 C12.7125,12.5325 12.555,11.8125 12.42,11.205 Z M17.4825,4.23 C16.8075,4.23 16.245,4.77 16.245,5.4675 C16.245,6.165 16.8075,6.705 17.4825,6.705 C18.1575,6.705 18.72,6.165 18.72,5.4675 C18.72,4.7925 18.18,4.23 17.4825,4.23 Z" id="形状结合"></path>
            </g>
        </g>
    </g>
</svg>