<?xml version="1.0" encoding="UTF-8"?>
<svg width="27px" height="27px" viewBox="0 0 27 27" version="1.1" xmlns="http://www.w3.org/2000/svg" xmlns:xlink="http://www.w3.org/1999/xlink">
    <title>射箭</title>
    <g id="页面-1" stroke="none" stroke-width="1" fill="none" fill-rule="evenodd">
        <g id="12-PC-分类icon" transform="translate(-937.000000, -202.000000)" fill="#FF9124" fill-rule="nonzero">
            <g id="射箭" transform="translate(937.000000, 202.000000)">
                <path d="M13.5,0 C20.9558441,0 27,6.04415588 27,13.5 C27,20.9558441 20.9558441,27 13.5,27 C6.04415588,27 0,20.9558441 0,13.5 C0,6.04415588 6.04415588,0 13.5,0 Z M17.4375,1.665 L17.325,1.9575 C17.28,2.0475 17.325,2.1825 17.415,2.2275 C20.745,3.8475 23.1525,8.4375 23.2425,13.2975 L5.265,13.2975 C3.0825,13.2975 2.745,13.365 2.34,13.545 C2.025,13.68 1.8,13.995 1.8,14.355 C1.8,14.6475 1.935,14.9175 2.1825,15.075 C2.8575,15.5025 6.0075,16.8075 6.5475,16.92 C6.8175,16.965 7.1775,16.38 7.3125,15.6375 C7.38,15.255 7.4025,14.9175 7.3575,14.6475 C8.415,14.49 9.045,14.4 9.2025,14.355 C9.4725,14.31 9.6525,14.085 9.6525,13.815 L9.6525,13.7025 L9.6525,13.7025 L23.2425,13.7025 C23.2425,14.04 23.22,14.3775 23.1975,14.715 L13.3875,14.715 C13.545,15.39 13.635,16.425 13.6125,17.415 C15.39,17.19 17.4825,16.74 18.405,16.5375 C19.26,16.47 21.5775,16.1775 23.04,15.975 C22.3875,19.935 20.2275,23.4 17.4375,24.75 C17.3475,24.795 17.3025,24.9075 17.3475,25.02 L17.4825,25.3125 C17.5275,25.425 17.64,25.47 17.7525,25.4025 C20.8125,23.9175 23.1525,20.1375 23.805,15.8625 C23.985,15.84 24.1425,15.8175 24.21,15.795 C24.48,15.75 24.6825,15.525 24.6825,15.255 C24.6825,14.9625 24.435,14.715 24.1425,14.715 L23.9175,14.715 C23.94,14.3775 23.9625,14.04 23.9625,13.7025 L25.4025,13.7025 C25.515,13.7025 25.605,13.6125 25.605,13.5 C25.605,13.3875 25.515,13.2975 25.4025,13.2975 L23.9625,13.2975 C23.8725,8.1675 21.285,3.285 17.7075,1.575 C17.595,1.53 17.4825,1.575 17.4375,1.665 Z M10.6425,8.5725 C9.54,8.5725 8.6625,9.45 8.6625,10.5525 C8.6625,11.655 9.5625,12.5325 10.6425,12.5325 C11.745,12.5325 12.6225,11.655 12.6225,10.5525 C12.6225,9.45 11.745,8.5725 10.6425,8.5725 Z" id="形状结合"></path>
            </g>
        </g>
    </g>
</svg>