<?xml version="1.0" encoding="UTF-8"?>
<svg width="22px" height="22px" viewBox="0 0 22 22" version="1.1" xmlns="http://www.w3.org/2000/svg" xmlns:xlink="http://www.w3.org/1999/xlink">
    <title>排球备份@2x</title>
    <g id="页面-1" stroke="none" stroke-width="1" fill="none" fill-rule="evenodd">
        <g id="画板" transform="translate(-350.000000, -187.000000)" fill="#FF9124">
            <path d="M352.752328,204.853661 L352.801742,204.8582 L354.432742,205.2492 L354.810742,205.3402 L358.545742,206.2382 C358.568742,206.2442 358.588742,206.2522 358.606742,206.2672 C359.453742,206.9422 360.931742,207.8882 362.293742,208.6222 C362.434742,208.6992 362.395742,208.9142 362.236742,208.9322 C358.715742,209.3242 355.082742,208.0112 352.634742,205.1252 C352.531742,205.0052 352.648742,204.8212 352.801742,204.8582 Z M360.454842,203.2106 C360.503842,203.1206 360.619842,203.0986 360.699842,203.1606 C362.801842,204.8146 365.735842,205.9886 368.289842,206.2326 C368.155842,206.3526 368.028842,206.4776 367.886842,206.5916 C366.736842,207.5136 365.456842,208.1636 364.126842,208.5566 C364.087842,208.5676 364.046842,208.5656 364.009842,208.5496 C362.648842,207.9436 360.566842,206.7106 359.368842,205.8126 C359.307842,205.7666 359.288842,205.6866 359.318842,205.6156 L359.318842,205.6156 L359.580842,205.0066 C359.844842,204.3906 360.136842,203.7916 360.454842,203.2106 Z M362.486942,200.1724 C362.539942,200.1064 362.631942,200.0904 362.702942,200.1364 C364.477942,201.2824 367.838942,202.2494 370.772942,202.2494 C370.905942,202.2494 371.034942,202.2404 371.165942,202.2374 C370.688942,203.3804 370.004942,204.4484 369.138942,205.3984 C369.104942,205.4354 369.056942,205.4564 369.005942,205.455434 C366.468942,205.3844 363.235942,204.1454 361.091942,202.4134 C361.025942,202.3604 361.010942,202.2634 361.055942,202.1914 C361.492942,201.4904 361.969942,200.8164 362.486942,200.1724 Z M362.963642,192.2995 C363.033642,192.2525 363.130642,192.2655 363.185642,192.3275 C364.275642,193.5495 365.063642,194.8385 365.359642,195.9645 C365.376642,196.0255 365.355642,196.0885 365.309642,196.1315 L365.309642,196.1315 L364.120642,197.2195 C362.537642,198.6685 361.202642,200.3205 360.120642,202.1435 C360.051642,202.2595 359.979642,202.3735 359.912642,202.4915 C359.511642,203.1955 359.146642,203.9245 358.822642,204.6795 L358.822642,204.6795 L358.576642,205.2525 C358.544642,205.3265 358.463642,205.3665 358.385642,205.3485 L358.385642,205.3485 L355.492642,204.6535 C355.409642,204.6325 355.353642,204.5515 355.365642,204.4655 C356.071642,199.4875 358.808642,195.1085 362.963642,192.2995 Z M359.978742,189.7038 C360.035742,189.6668 360.108742,189.6678 360.165742,189.7058 C360.955742,190.2348 361.696742,190.8358 362.361742,191.4748 C362.436742,191.5458 362.424742,191.6668 362.339742,191.7248 C358.109742,194.6488 355.316742,199.1428 354.564742,204.2458 C354.550742,204.3418 354.459742,204.4048 354.365742,204.3828 L354.365742,204.3828 L352.061742,203.8278 C351.636742,203.7258 351.356742,203.3088 351.439742,202.8798 C352.614742,196.8208 356.395742,192.0478 359.978742,189.7038 Z M356.429897,187.970063 L356.470342,187.9761 C357.349342,188.2121 358.224342,188.5751 359.063342,189.0361 C359.171342,189.0941 359.179342,189.2451 359.079342,189.3151 C355.727342,191.6821 352.304342,196.0271 350.901342,201.4951 C350.860342,201.6531 350.641342,201.6681 350.588342,201.5131 C349.144342,197.2391 350.422342,192.3331 354.141342,189.3511 C354.835342,188.7951 355.579342,188.3481 356.350342,187.9871 C356.388342,187.9691 356.430342,187.9651 356.470342,187.9761 Z M365.974114,196.715034 L366.017942,196.7258 C367.058942,197.1378 368.219942,197.4188 369.376942,197.5548 C369.653942,197.5878 369.930942,197.6138 370.204942,197.6298 C370.455942,197.6438 370.703942,197.6528 370.949942,197.6528 C371.248942,197.6528 371.541942,197.6388 371.827942,197.6168 C371.922942,197.6088 372.004942,197.6828 372.006942,197.7788 C372.027942,198.9648 371.862942,200.1478 371.508942,201.2828 C371.486942,201.3508 371.425942,201.3998 371.353942,201.4038 C368.546942,201.5418 365.075942,200.6208 363.281942,199.5228 C363.193942,199.4698 363.179942,199.3458 363.248942,199.2678 C363.699942,198.7688 364.175942,198.2888 364.677942,197.8298 L364.677942,197.8298 L365.849942,196.7568 C365.895942,196.7148 365.960942,196.7028 366.017942,196.7258 Z M362.787242,187.0898 C365.384242,187.5128 367.839242,188.8568 369.611242,191.0798 C370.926242,192.7288 371.683242,194.6408 371.925242,196.5928 C371.937242,196.6878 371.867242,196.7768 371.771242,196.7838 C371.293242,196.8188 370.791242,196.8238 370.277242,196.7958 C370.201242,196.7908 370.138242,196.7358 370.124242,196.6598 C369.571242,193.6098 366.260242,189.5698 362.672242,187.3938 C362.517242,187.3008 362.608242,187.0598 362.787242,187.0898 Z M359.896942,187 L360.010942,187.038 C364.255942,188.467 368.408942,193.251 369.225942,196.463 C369.255942,196.578 369.152942,196.684 369.035942,196.667 C368.069942,196.521 367.113942,196.272 366.260942,195.929 C366.211942,195.91 366.177942,195.869 366.164942,195.818 C365.847942,194.556 364.991942,193.118 363.786942,191.763 C363.601942,191.555 363.410942,191.351 363.210942,191.148 C362.506942,190.435 361.710942,189.763 360.853942,189.169 C360.600942,188.993 360.343942,188.826 360.080942,188.666 C359.436942,188.272 358.764942,187.933 358.077942,187.653 C357.931942,187.594 357.938942,187.383 358.090942,187.341 C358.684942,187.176 359.288942,187.061 359.896942,187 L359.896942,187 Z" id="排球备份"></path>
        </g>
    </g>
</svg>