<?xml version="1.0" encoding="UTF-8"?>
<svg width="23px" height="15px" viewBox="0 0 23 15" version="1.1" xmlns="http://www.w3.org/2000/svg" xmlns:xlink="http://www.w3.org/1999/xlink">
    <title>泥地摩托车备份@2x</title>
    <g id="页面-1" stroke="none" stroke-width="1" fill="none" fill-rule="evenodd">
        <g id="画板" transform="translate(-761.000000, -191.000000)" fill="#FF9124">
            <g id="泥地摩托车备份" transform="translate(761.009428, 191.000000)">
                <path d="M13.53958,1.77635684e-14 C14.22558,1.77635684e-14 14.83958,0.425 15.08258,1.066 L15.08258,1.066 L15.83358,3.05 L16.96958,6.051 L16.96858,6.051 L17.31658,6.969 C18.07758,6.801 18.91658,6.839 19.80058,7.265 C20.94658,7.816 21.78658,8.914 21.96158,10.175 C22.31658,12.74 20.14158,14.906 17.57258,14.533 C15.92958,14.295 14.59058,12.963 14.34458,11.321 C14.09058,9.626 14.94258,8.102 16.28658,7.357 L16.28658,7.357 L15.79258,6.051 L15.63658,6.051 L13.17758,9.983 C12.67558,10.787 11.79458,11.275 10.84658,11.275 L10.84658,11.275 L7.65558001,11.275 C7.38858001,13.141 5.78858001,14.575 3.84958001,14.575 C1.70158001,14.575 -0.0364199945,12.816 0.000580005512,10.66 C0.0355800055,8.545 1.87558001,6.803 3.98958001,6.878 C5.86458001,6.945 7.39458001,8.355 7.65558001,10.176 L7.65558001,10.176 L8.57458001,10.176 C8.76758001,10.176 8.89958001,9.983 8.83258001,9.803 L8.83258001,9.803 L7.47958001,6.229 C7.43858001,6.121 7.33658001,6.051 7.22258001,6.051 L7.22258001,6.051 L3.11958001,6.051 C2.81558001,6.051 2.56958001,5.805 2.56958001,5.5 C2.56958001,5.196 2.81558001,4.95 3.11958001,4.95 L3.11958001,4.95 L8.91258001,4.95 L10.07558,3.091 C10.37758,2.608 10.90658,2.315 11.47458,2.315 L11.47458,2.315 L14.37858,2.315 L14.05358,1.455 C13.97258,1.241 13.76858,1.101 13.53958,1.101 L13.53958,1.101 L12.51458,1.101 C12.21158,1.101 11.96458,0.855 11.96458,0.551 C11.96458,0.246 12.21158,1.77635684e-14 12.51458,1.77635684e-14 L12.51458,1.77635684e-14 Z M18.14958,9.075 C18.13758,9.075 18.12658,9.079 18.11458,9.079 L18.11458,9.079 L18.66358,10.531 C18.77158,10.815 18.62858,11.133 18.34358,11.24 C18.27958,11.264 18.21458,11.275 18.14958,11.275 C17.92758,11.275 17.71758,11.14 17.63458,10.92 L17.63458,10.92 L17.08758,9.474 C16.73158,9.776 16.49958,10.223 16.49958,10.726 C16.49958,11.636 17.23958,12.376 18.14958,12.376 C19.05958,12.376 19.79958,11.636 19.79958,10.726 C19.79958,9.815 19.05958,9.075 18.14958,9.075 Z M3.84958001,9.075 C2.93958001,9.075 2.19958001,9.815 2.19958001,10.726 C2.19958001,11.636 2.93958001,12.376 3.84958001,12.376 C4.56558001,12.376 5.17058001,11.914 5.39858001,11.275 L5.39858001,11.275 L4.07358001,11.275 C3.76958001,11.275 3.52358001,11.029 3.52358001,10.726 C3.52358001,10.421 3.76958001,10.176 4.07358001,10.176 L4.07358001,10.176 L5.39858001,10.176 C5.17058001,9.537 4.56558001,9.075 3.84958001,9.075 Z M16.97078,2.2053 C17.25278,2.0993 17.57278,2.2413 17.67978,2.5253 L17.67978,2.5253 L18.33778,4.2643 C18.44578,4.5493 18.30178,4.8663 18.01778,4.9733 C17.95378,4.9983 17.88878,5.0083 17.82378,5.0083 C17.60078,5.0083 17.39178,4.8743 17.30878,4.6533 L17.30878,4.6533 L16.65078,2.9143 C16.54278,2.6303 16.68678,2.3123 16.97078,2.2053 Z" id="形状结合"></path>
            </g>
        </g>
    </g>
</svg>