<?xml version="1.0" encoding="UTF-8"?>
<svg width="22px" height="22px" viewBox="0 0 22 22" version="1.1" xmlns="http://www.w3.org/2000/svg" xmlns:xlink="http://www.w3.org/1999/xlink">
    <title>趣味后台选中备份 3</title>
    <defs>
        <linearGradient x1="66.2356635%" y1="100%" x2="32.2922859%" y2="22.8528147%" id="linearGradient-1">
            <stop stop-color="#FF9124" offset="0.0218531469%"></stop>
            <stop stop-color="#F7B500" offset="100%"></stop>
        </linearGradient>
    </defs>
    <g id="趣味后台选中备份-3" stroke="none" stroke-width="1" fill="none" fill-rule="evenodd">
        <path d="M10.967079,6.71309038 C14.3551324,6.71309038 17.1018283,9.44628906 17.1018283,12.8176935 C17.1018283,16.189098 14.3553331,18.9222967 10.967079,18.9222967 C7.57882487,18.9222967 4.83232964,16.189098 4.83232964,12.8176935 C4.83232964,9.44608931 7.57902561,6.71309038 10.967079,6.71309038 Z M10.967079,7.93397106 C8.25651584,7.93397106 6.05923936,10.1204501 6.05923936,12.8176935 C6.05923936,15.514937 8.25651584,17.701416 10.967079,17.701416 C13.6776421,17.701416 15.8749186,15.514937 15.8749186,12.8176935 C15.8749186,10.1204501 13.6776421,7.93397106 10.967079,7.93397106 Z M10.9674805,8.74755859 C13.2261827,8.74775834 15.0571126,10.5700906 15.0569119,12.8176935 C15.0569119,15.0652965 13.2257812,16.887429 10.967079,16.887429 C8.77682226,16.887429 6.98861633,15.1740556 6.88225147,13.0208101 L6.87724609,12.8176935 C6.87744683,10.5692915 8.70877821,8.74735884 10.9674805,8.74755859 Z M10.967079,9.56194513 L10.0051432,11.5005327 L7.85564236,11.8115456 L9.41136068,13.3204679 L9.04401041,15.451416 L10.967079,14.4454679 L12.8901476,15.4516158 L12.5227973,13.3206676 L14.0785156,11.8115456 L11.9290148,11.5007324 L10.967079,9.56194513 Z M18.3287381,1.01558061 L15.1874199,4.92158061 L15.4658149,4.92251853 C15.781977,4.92231889 16.03852,5.1772017 16.0387208,5.49200994 C16.0389214,5.80661843 15.7827799,6.06190075 15.4664171,6.0621005 L15.0563296,6.06151841 L15.0569119,7.65734863 C13.9831633,6.73156738 12.6198857,6.26867676 10.967079,6.26867676 C9.31427228,6.26867676 7.95099465,6.73156738 6.87724609,7.65734863 L6.87632964,6.06151841 L6.4683431,6.0621005 C6.15218099,6.0621005 5.89583876,5.80701793 5.89583876,5.49240945 C5.89583876,5.17760121 6.15218099,4.92251853 6.4683431,4.92251853 L6.74541992,4.92158061 L3.60541992,1.01558061 L18.3287381,1.01558061 Z" id="形状结合" fill="url(#linearGradient-1)"></path>
    </g>
</svg>