<?xml version="1.0" encoding="UTF-8"?>
<svg width="22px" height="22px" viewBox="0 0 22 22" version="1.1" xmlns="http://www.w3.org/2000/svg" xmlns:xlink="http://www.w3.org/1999/xlink">
    <title>政治娱乐选备份 2</title>
    <defs>
        <linearGradient x1="69.8482236%" y1="100%" x2="28.3521833%" y2="22.8528147%" id="linearGradient-1">
            <stop stop-color="#FF9124" offset="0.0218531469%"></stop>
            <stop stop-color="#F7B500" offset="100%"></stop>
        </linearGradient>
    </defs>
    <g id="政治娱乐选备份-2" stroke="none" stroke-width="1" fill="none" fill-rule="evenodd">
        <path d="M8.00646097,0.109980177 C13.212461,-0.598019823 18.223461,2.16098018 20.474461,6.98198018 L20.474461,6.98198018 L20.760461,7.59298018 C21.176461,8.48298018 21.043461,9.54698018 20.423461,10.3019802 L20.423461,10.3019802 L11.117461,21.6199802 C10.913461,21.8679802 10.625461,21.9999802 10.328461,21.9999802 C10.181461,21.9999802 10.031461,21.9679802 9.88946097,21.8999802 C9.45346097,21.6949802 9.21846097,21.2329802 9.30646097,20.7529802 L9.30646097,20.7529802 L9.80246097,18.0059802 C10.137461,16.1529802 9.97346097,14.2439802 9.33046097,12.4809802 L9.33046097,12.4809802 L9.32646097,12.4709802 C9.13146097,11.9359802 9.33446097,10.4909802 9.33446097,10.4909802 C9.03346097,10.7119802 8.67946097,10.9439802 8.41646097,11.5999802 C8.39446097,11.6539802 8.34746097,11.6969802 8.28946097,11.7069802 L8.28946097,11.7069802 L3.98946097,12.4559802 C3.89546097,12.4729802 3.80646097,12.4089802 3.79246097,12.3149802 L3.79246097,12.3149802 L2.56546097,4.55898018 C2.51446097,4.23098018 2.37346097,3.92398018 2.15846097,3.66998018 L2.15846097,3.66998018 L1.61646097,3.02698018 C1.40146097,2.82198018 0.848460973,2.26998018 1.03946097,1.66298018 C1.23846097,1.03498018 2.04746097,0.923980177 2.39146097,0.876980177 L2.39146097,0.876980177 Z M7.95146097,12.5628802 C8.05646097,12.5448802 8.14446097,12.6258802 8.14646097,12.7318802 C8.15046097,13.0598802 8.22346097,13.3928802 8.37046097,13.7058802 L8.37046097,13.7058802 L8.47446097,13.9278802 C8.64146097,14.2798802 8.58046097,14.6958802 8.32246097,14.9878802 L8.32246097,14.9878802 L7.68046097,15.7128802 C7.52746097,15.8848802 7.31946097,15.9958802 7.09246097,16.0268802 L7.09246097,16.0268802 L6.21846097,16.1478802 C5.23746097,16.2888802 4.30946097,15.5888802 4.15246097,14.5958802 L4.15246097,14.5958802 L3.96846097,13.4268802 C3.95346097,13.3348802 4.01546097,13.2488802 4.10646097,13.2328802 L4.10646097,13.2328802 Z M11.946461,3.23198018 C11.735461,3.18598018 11.529461,3.31898018 11.483461,3.53098018 C11.436461,3.74298018 11.569461,3.95298018 11.779461,3.99898018 C11.807461,4.00598018 14.630461,4.65398018 16.079461,6.84598018 C16.153461,6.95798018 16.277461,7.01898018 16.403461,7.01898018 C16.476461,7.01898018 16.553461,6.99798018 16.619461,6.95398018 C16.797461,6.83298018 16.846461,6.58898018 16.726461,6.40798018 C15.104461,3.95798018 12.074461,3.26098018 11.946461,3.23198018 Z" id="赛马备份" fill="url(#linearGradient-1)"></path>
    </g>
</svg>