<?xml version="1.0" encoding="UTF-8"?>
<svg width="22px" height="22px" viewBox="0 0 22 22" version="1.1" xmlns="http://www.w3.org/2000/svg" xmlns:xlink="http://www.w3.org/1999/xlink">
    <title>羽毛球备份@2x</title>
    <g id="页面-1" stroke="none" stroke-width="1" fill="none" fill-rule="evenodd">
        <g id="画板" transform="translate(-194.000000, -187.000000)" fill="#FF9124">
            <path d="M195.626205,201.339673 C195.998205,200.967673 196.601205,200.967673 196.972205,201.339673 L196.972205,201.339673 L201.658205,206.030673 C202.030205,206.402673 202.030205,207.006673 201.658205,207.378673 L201.658205,207.378673 L201.287205,207.748673 C199.622205,209.416673 196.922205,209.416673 195.256205,207.748673 C193.591205,206.081673 193.591205,203.377673 195.256205,201.710673 L195.256205,201.710673 Z M211.991805,198.465673 C214.149805,197.941673 215.396805,198.809673 215.959805,199.392673 C216.041805,199.477673 216.013805,199.616673 215.907805,199.668673 L215.907805,199.668673 L203.226805,205.760673 C202.936805,205.882673 202.620805,205.833673 202.422805,205.636673 L202.422805,205.636673 L201.780805,204.992673 C203.125805,203.907673 209.126805,199.165673 211.991805,198.465673 Z M208.643605,194.784173 C210.905605,194.229173 212.164605,195.212173 212.685605,195.791173 C212.755605,195.868173 212.743605,195.986173 212.660605,196.048173 L212.660605,196.048173 L201.599605,204.243173 C201.468605,204.343173 201.319605,204.458173 201.300605,204.471173 C201.236605,204.449173 201.057605,204.268173 200.865605,204.077173 L200.865605,204.077173 L200.211605,203.423173 C200.244605,203.325173 200.310605,203.172173 200.452605,202.959173 C200.790605,202.484173 201.299605,201.785173 201.924605,200.978173 C201.954605,200.939173 201.987605,200.898173 202.019605,200.858173 C202.144605,200.697173 202.273605,200.533173 202.407605,200.366173 C202.482605,200.271173 202.560605,200.175173 202.638605,200.080173 C202.731605,199.964173 202.827605,199.846173 202.924605,199.729173 C203.029605,199.602173 203.136605,199.474173 203.244605,199.346173 C203.317605,199.259173 203.391605,199.173173 203.465605,199.086173 C203.593605,198.936173 203.723605,198.788173 203.854605,198.638173 C203.911605,198.574173 203.969605,198.509173 204.026605,198.445173 C204.173605,198.282173 204.320605,198.119173 204.470605,197.960173 C204.513605,197.913173 204.556605,197.868173 204.599605,197.822173 C204.761605,197.650173 204.925605,197.479173 205.089605,197.313173 C205.115605,197.287173 205.142605,197.262173 205.167605,197.236173 C206.138605,196.267173 207.123605,195.447173 207.998605,195.028173 C208.001605,195.026173 208.006605,195.023173 208.009605,195.021173 C208.140605,194.960173 208.264605,194.917173 208.389605,194.874173 C208.473605,194.844173 208.560605,194.803173 208.643605,194.784173 Z M206.907005,190.293373 C206.968005,190.209373 207.087005,190.198373 207.165005,190.269373 C207.729005,190.790373 208.684005,192.043373 208.179005,194.263373 C208.010005,194.323373 207.836005,194.402373 207.660005,194.490373 C207.648005,194.496373 207.636005,194.502373 207.625005,194.508373 C207.449005,194.598373 207.271005,194.699373 207.089005,194.814373 C207.085005,194.817373 207.079005,194.821373 207.074005,194.825373 C206.907005,194.931373 206.738005,195.048373 206.567005,195.174373 C206.538005,195.196373 206.508005,195.216373 206.479005,195.239373 C206.314005,195.363373 206.147005,195.495373 205.980005,195.633373 L205.980005,195.633373 L205.842005,195.749373 C205.705005,195.867373 205.568005,195.988373 205.429005,196.113373 C205.390005,196.149373 205.351005,196.183373 205.312005,196.219373 C205.155005,196.364373 204.998005,196.515373 204.841005,196.668373 C204.781005,196.727373 204.721005,196.787373 204.662005,196.846373 C204.507005,197.000373 204.355005,197.157373 204.203005,197.316373 C204.159005,197.362373 204.116005,197.409373 204.073005,197.455373 C203.939005,197.597373 203.806005,197.740373 203.675005,197.885373 C203.632005,197.931373 203.590005,197.978373 203.548005,198.025373 C203.382005,198.209373 203.219005,198.395373 203.058005,198.581373 C203.039005,198.604373 203.020005,198.626373 203.001005,198.649373 C201.472005,200.425373 200.201005,202.203373 199.706005,202.915373 L199.706005,202.915373 L198.732437,201.941303 C198.609128,201.816944 198.513005,201.717658 198.498005,201.693373 C198.501005,201.682373 198.510005,201.664373 198.522005,201.643373 C199.152005,200.863373 200.976005,198.562373 202.570005,196.163373 L202.570005,196.163373 Z M203.347805,187.099073 C203.399805,186.992073 203.540805,186.966073 203.625805,187.049073 C204.205805,187.617073 205.073805,188.874073 204.552805,191.016073 C204.249805,192.253073 203.196805,194.074073 202.010805,195.852073 L202.010805,195.852073 L198.221805,200.978073 C198.153805,201.067073 198.095805,201.148073 198.047805,201.222073 C198.042805,201.227073 198.036805,201.235073 198.032805,201.241073 L198.032805,201.241073 L197.389805,200.597073 C197.192805,200.399073 197.143805,200.084073 197.259805,199.806073 L197.259805,199.806073 Z" id="羽毛球备份"></path>
        </g>
    </g>
</svg>