<?xml version="1.0" encoding="UTF-8"?>
<svg width="162px" height="128px" viewBox="0 0 162 128" version="1.1" xmlns="http://www.w3.org/2000/svg" xmlns:xlink="http://www.w3.org/1999/xlink">
    <title>12_权限 (1)@2x</title>
    <defs>
        <linearGradient x1="50%" y1="0%" x2="50%" y2="87.8255208%" id="linearGradient-1">
            <stop stop-color="#D8DADC" stop-opacity="0.994973776" offset="0%"></stop>
            <stop stop-color="#D8DADC" stop-opacity="0" offset="100%"></stop>
        </linearGradient>
        <linearGradient x1="50%" y1="0%" x2="50%" y2="100%" id="linearGradient-2">
            <stop stop-color="#D8DADC" stop-opacity="0.994973776" offset="0%"></stop>
            <stop stop-color="#D8DADC" stop-opacity="0" offset="100%"></stop>
        </linearGradient>
        <linearGradient x1="50%" y1="0%" x2="50%" y2="87.8255208%" id="linearGradient-3">
            <stop stop-color="#D8DADC" stop-opacity="0.994973776" offset="0%"></stop>
            <stop stop-color="#D8DADC" stop-opacity="0" offset="100%"></stop>
        </linearGradient>
        <linearGradient x1="50%" y1="0%" x2="50%" y2="100%" id="linearGradient-4">
            <stop stop-color="#D8DADC" stop-opacity="0.994973776" offset="0%"></stop>
            <stop stop-color="#D8DADC" stop-opacity="0" offset="100%"></stop>
        </linearGradient>
        <linearGradient x1="50%" y1="100%" x2="50%" y2="0%" id="linearGradient-5">
            <stop stop-color="#F8FAFC" stop-opacity="0" offset="0%"></stop>
            <stop stop-color="#CACACA" offset="50%"></stop>
            <stop stop-color="#F8FAFC" stop-opacity="0" offset="100%"></stop>
        </linearGradient>
        <linearGradient x1="50%" y1="100%" x2="50%" y2="0%" id="linearGradient-6">
            <stop stop-color="#F8FAFC" stop-opacity="0" offset="0%"></stop>
            <stop stop-color="#CACACA" offset="50%"></stop>
            <stop stop-color="#F8FAFC" stop-opacity="0" offset="100%"></stop>
        </linearGradient>
        <linearGradient x1="50%" y1="100%" x2="50%" y2="0%" id="linearGradient-7">
            <stop stop-color="#F8FAFC" stop-opacity="0" offset="0%"></stop>
            <stop stop-color="#CACACA" offset="50%"></stop>
            <stop stop-color="#F8FAFC" stop-opacity="0" offset="100%"></stop>
        </linearGradient>
        <linearGradient x1="1.01034483%" y1="49.819469%" x2="100.33908%" y2="49.819469%" id="linearGradient-8">
            <stop stop-color="#999999" offset="0%"></stop>
            <stop stop-color="#CACACA" offset="100%"></stop>
        </linearGradient>
        <linearGradient x1="1.01034483%" y1="49.819469%" x2="100.33908%" y2="49.819469%" id="linearGradient-9">
            <stop stop-color="#999999" offset="0%"></stop>
            <stop stop-color="#CACACA" offset="100%"></stop>
        </linearGradient>
        <linearGradient x1="0.539634146%" y1="49.8271186%" x2="98.8715137%" y2="49.8271186%" id="linearGradient-10">
            <stop stop-color="#999999" offset="0%"></stop>
            <stop stop-color="#CACACA" offset="100%"></stop>
        </linearGradient>
    </defs>
    <g id="页面-1" stroke="none" stroke-width="1" fill="none" fill-rule="evenodd" opacity="0.900000036">
        <g id="滚球" transform="translate(-1550.000000, -423.000000)">
            <g id="编组-134" transform="translate(1356.000000, 101.000000)">
                <g id="编组-133" transform="translate(0.000000, 262.000000)">
                    <g id="12_权限-(1)" transform="translate(194.000000, 60.000000)">
                        <path d="M4,25 C4,25 9.91096101,13 20.2881276,13 C27.2062387,13 31.8903793,14.9374009 34.3405494,18.8122027 C37.0725682,19.0077912 39.3633637,19.3826354 41.2129358,19.9367354 C43.0625079,20.4908355 44.658196,22.1785903 46,25 C18,25 4,25 4,25 Z" id="路径-5备份" fill="url(#linearGradient-1)" opacity="0.398875"></path>
                        <path d="M94,18 C94,18 103.288653,0 119.595629,0 C130.466946,0 137.827739,2.90610135 141.678006,8.71830406 C145.971179,9.01168674 149.571,9.57395311 152.477471,10.4051032 C155.383941,11.2362532 157.891451,13.7678855 160,18 C116,18 94,18 94,18 Z" id="路径-5备份-2" fill="url(#linearGradient-2)" opacity="0.398875" transform="translate(127.000000, 9.000000) scale(-1, 1) translate(-127.000000, -9.000000) "></path>
                        <path d="M80.5,108 C110.91243,108 137.883649,114 161.413657,126 L0,126 C23.2542368,114 50.0875701,108 80.5,108 Z" id="路径-2" fill="url(#linearGradient-3)" opacity="0.4"></path>
                        <path d="M36.809017,109 C36.5328746,109 36.309017,108.776142 36.309017,108.5 C36.309017,108.422377 36.3270895,108.345821 36.3618034,108.276393 L40.5527864,99.8944272 C40.676281,99.6474379 40.9766175,99.5473258 41.2236068,99.6708204 C41.3203705,99.7192022 41.3988317,99.7976635 41.4472136,99.8944272 L45.6381966,108.276393 C45.7616912,108.523382 45.6615791,108.823719 45.4145898,108.947214 C45.3451621,108.981927 45.2686056,109 45.190983,109 L42,109 L42,114 L40,114 L40,109 L36.809017,109 Z" id="形状结合" fill="#D8DADC"></path>
                        <path d="M94.0715032,98.7756064 C94.1682669,98.8239883 94.2467281,98.9024495 94.29511,98.9992132 L104.281587,118.972167 C104.405082,119.219157 104.30497,119.519493 104.05798,119.642988 C103.988553,119.677702 103.911996,119.695774 103.834374,119.695774 L95.508017,119.694924 L95.5087416,128 L91.3566285,128 L91.356017,119.694924 L83.8614193,119.695774 C83.5852769,119.695774 83.3614193,119.471917 83.3614193,119.195774 C83.3614193,119.118152 83.3794918,119.041595 83.4142057,118.972167 L93.4006828,98.9992132 C93.5241774,98.752224 93.8245139,98.6521118 94.0715032,98.7756064 Z" id="形状结合" fill="#D8DADC"></path>
                        <path d="M119.809017,111 C119.532875,111 119.309017,110.776142 119.309017,110.5 C119.309017,110.422377 119.32709,110.345821 119.361803,110.276393 L122.552786,103.894427 C122.676281,103.647438 122.976618,103.547326 123.223607,103.67082 C123.32037,103.719202 123.398832,103.797663 123.447214,103.894427 L126.638197,110.276393 C126.761691,110.523382 126.661579,110.823719 126.41459,110.947214 C126.345162,110.981927 126.268606,111 126.190983,111 L124,111 L124,114 L122,114 L122,111 L119.809017,111 Z" id="形状结合" fill="#D8DADC"></path>
                        <path d="M107,91 C107,91 111.925801,81 120.57344,81 C126.338532,81 130.241983,82.6145008 132.283791,85.8435023 C134.560474,86.0064926 136.46947,86.3188628 138.01078,86.7806129 C139.55209,87.2423629 140.88183,88.6488253 142,91 C118.666667,91 107,91 107,91 Z" id="路径-5" fill="url(#linearGradient-4)" opacity="0.398875" transform="translate(124.500000, 86.000000) scale(-1, 1) translate(-124.500000, -86.000000) "></path>
                        <g id="形状" transform="translate(61.022624, 30.556561)">
                            <path d="M29.5022624,18.9787986 L27.9537456,18.9787986 L27.9537456,12.4337975 C27.9537456,6.06838495 23.1473102,1 17.0940171,1 C11.040724,1 6.21417798,6.08833922 6.21417798,12.4537518 L6.21417798,18.9987529 L4.66566114,18.9987529 C2.03117144,18.9987529 0,21.1139056 0,23.9075036 L0,45.1388485 C0,47.9124922 2.01106083,50.0475993 4.66566114,50.0475993 L29.5022624,50.0475993 C32.1367521,50.0475993 34.1679236,47.9324465 34.1679236,45.1388485 L34.1679236,23.8675951 C34.147813,21.1139056 32.1367521,18.9787986 29.5022624,18.9787986 L29.5022624,18.9787986 Z M18.6224233,34.8224901 L18.6224233,38.5738932 C18.6224233,39.5516525 17.9989945,40.2101434 17.0739065,40.2101434 C16.1488185,40.2101434 15.5253896,39.5516525 15.5253896,38.5738932 L15.5253896,34.8224901 C14.6003017,34.3435876 13.9768728,33.1862399 13.9768728,32.0488464 C13.9768728,30.252962 15.3645048,28.7763459 17.0940171,28.7763459 C18.8235294,28.7763459 20.2111614,30.2330077 20.2111614,32.0488464 C20.1709402,33.1862399 19.5475113,34.3236333 18.6224233,34.8224901 L18.6224233,34.8224901 Z M24.8366013,18.9787986 L9.31121166,18.9787986 L9.31121166,12.4337975 C9.31121166,7.84431511 12.7300151,4.27250052 17.0739065,4.27250052 C21.4177979,4.27250052 24.8366013,7.86426938 24.8366013,12.4337975 C24.8366013,12.4537518 24.8366013,18.9787986 24.8366013,18.9787986 L24.8366013,18.9787986 Z" fill-rule="nonzero"></path>
                            <path d="M31.5771745,17.3801704 L30.0688788,17.3801704 L30.0688788,11.0546664 C30.0688788,4.88879651 25.4233283,0 19.5510307,0 C13.6988436,0 9.0130719,4.90875078 9.0130719,11.0746207 L9.0130719,17.4001247 L7.50477627,17.4001247 C4.95072901,17.4001247 3,19.4354604 3,22.1492413 L3,42.7021409 C3,45.3760133 4.95072901,47.4512575 7.50477627,47.4512575 L31.5369532,47.4512575 C34.0910005,47.4512575 36.0418852,45.4159218 36.0418852,42.7021409 L36.0418852,22.1292871 C36.0618401,19.4554147 34.1312217,17.3801704 31.5771745,17.3801704 L31.5771745,17.3801704 Z M21.0392157,32.7250052 L21.0392157,36.3566826 C21.0392157,37.3144876 20.4358974,37.93307 19.5309201,37.93307 C18.6259427,37.93307 18.0226244,37.2945334 18.0226244,36.3566826 L18.0226244,32.7250052 C17.1176471,32.266057 16.5143288,31.1486178 16.5143288,30.0511328 C16.5143288,28.3151112 17.8617396,26.8784037 19.5309201,26.8784037 C21.2001006,26.8784037 22.5475113,28.2951569 22.5475113,30.0511328 C22.5475113,31.1486178 21.9441931,32.2261484 21.0392157,32.7250052 L21.0392157,32.7250052 Z M27.0522876,17.3801704 L12.0296631,17.3801704 L12.0296631,11.0546664 C12.0296631,6.62481813 15.3479135,3.17272916 19.5309201,3.17272916 C23.7139266,3.17272916 27.032177,6.6447724 27.032177,11.0546664 C27.0522876,11.0746207 27.0522876,17.3801704 27.0522876,17.3801704 L27.0522876,17.3801704 Z" fill="#C6C8C9" opacity="0.7"></path>
                        </g>
                        <rect id="矩形" fill="url(#linearGradient-5)" fill-rule="nonzero" x="126" y="50" width="4.3438914" height="22.4434389"></rect>
                        <rect id="矩形" fill="url(#linearGradient-6)" fill-rule="nonzero" x="31" y="53" width="5.0678733" height="20.9954751"></rect>
                        <rect id="矩形" fill="url(#linearGradient-7)" fill-rule="nonzero" x="61" y="9" width="5.0678733" height="23.8914027"></rect>
                        <path d="M129.268888,59.9316453 C129.510215,60.2589776 129.61991,60.682584 129.61991,61.2217195 C129.61991,61.7608549 129.510215,62.2037162 129.268888,62.5117936 C129.005622,62.8583807 128.6546,63.0316742 128.171946,63.0316742 C127.71123,63.0316742 127.33827,62.8583807 127.075003,62.5117936 C126.833676,62.1844613 126.723982,61.7608549 126.723982,61.2217195 C126.723982,60.6633292 126.833676,60.2397227 127.075003,59.9316453 C127.33827,59.5850582 127.689291,59.4117647 128.171946,59.4117647 C128.632661,59.4117647 129.005622,59.5850582 129.268888,59.9316453 Z M127.469903,60.3359969 C127.382147,60.5478001 127.316331,60.8366227 127.316331,61.2217195 C127.316331,61.6068162 127.360208,61.8956388 127.469903,62.107442 C127.601536,62.4155194 127.842863,62.5888129 128.171946,62.5888129 C128.501028,62.5888129 128.720417,62.4347742 128.873989,62.107442 C128.961744,61.8763839 129.027561,61.5875614 129.027561,61.2217195 C129.027561,60.8366227 128.983683,60.5478001 128.873989,60.3359969 C128.742356,60.0279195 128.501028,59.854626 128.171946,59.854626 C127.842863,59.854626 127.623475,60.0279195 127.469903,60.3359969 Z" id="形状" fill="url(#linearGradient-8)" fill-rule="nonzero"></path>
                        <path d="M63.8959276,19.1357466 L63.8959276,23.479638 L63.3134134,23.479638 L63.3134134,19.9237977 C63.0804078,20.1736676 62.7974723,20.3658751 62.4479638,20.4619789 L62.4479638,19.8084732 C62.6143964,19.7508109 62.7974723,19.6739278 62.9805482,19.5586033 C63.1636241,19.424058 63.3300567,19.2702919 63.4465595,19.1357466 L63.8959276,19.1357466 L63.8959276,19.1357466 Z" id="路径" fill="url(#linearGradient-9)" fill-rule="nonzero"></path>
                        <path d="M34.902439,61.6939182 C35.1893831,62.1448731 35.3438914,62.7461462 35.3438914,63.4977376 C35.3438914,64.2493289 35.1893831,64.850602 34.902439,65.3015569 C34.5713497,65.7739857 34.1298974,66.0316742 33.5339367,66.0316742 C32.9600486,66.0316742 32.4965236,65.7954598 32.1654343,65.3015569 C31.8784902,64.850602 31.7239819,64.2493289 31.7239819,63.4977376 C31.7239819,62.7461462 31.8784902,62.1448731 32.1654343,61.6939182 C32.4965236,61.2214894 32.9379759,60.9638009 33.5339367,60.9638009 C34.1298974,60.9638009 34.5934224,61.2000153 34.902439,61.6939182 Z M32.6731045,62.2522433 C32.5627414,62.5528798 32.4965236,62.9608866 32.4965236,63.4977376 C32.4965236,64.0345885 32.5627414,64.4425953 32.6731045,64.7432318 C32.8496855,65.1727126 33.1366295,65.4089271 33.5339367,65.4089271 C33.9533164,65.4089271 34.2402605,65.1941867 34.3947688,64.7432318 C34.5051319,64.4211213 34.5713497,64.0131145 34.5713497,63.4977376 C34.5713497,62.9823606 34.5051319,62.5743539 34.3947688,62.2522433 C34.2181878,61.8227625 33.9312438,61.586548 33.5339367,61.586548 C33.1366295,61.586548 32.8496855,61.8227625 32.6731045,62.2522433 Z" id="形状" fill="url(#linearGradient-10)" fill-rule="nonzero"></path>
                    </g>
                </g>
            </g>
        </g>
    </g>
</svg>