<?xml version="1.0" encoding="UTF-8"?>
<svg width="12" height="12" viewBox="0 0 12 12" fill="none" xmlns="http://www.w3.org/2000/svg">
    <path fill-rule="evenodd" clip-rule="evenodd" d="M1.47648e-05 6C1.47648e-05 2.69997 2.69998 0 6.00006 0C9.36004 0 12 2.69997 12 6C12 9.29998 9.30004 12 6.00006 12C4.79998 12 3.65997 11.58 2.69997 10.98L3.60001 10.14C4.32004 10.56 5.16003 10.8 6.06001 10.8C8.70003 10.8 10.86 8.64002 10.86 6C10.86 3.35998 8.70003 1.20002 6.06001 1.20002C3.48 1.20002 1.44 3.12002 1.26 5.63997L3.60003 6.3333C1.79601 8.18467 0.874051 9.07806 0.835339 9.01329C0.286543 8.10417 -0.00237984 7.06193 1.47648e-05 6ZM8.28003 6.53848L5.54443 8.2887C5.43786 8.35682 5.33008 8.39019 5.22353 8.39019C4.92225 8.39019 4.70446 8.12181 4.70446 7.75068V4.25023C4.70446 3.88042 4.92339 3.61073 5.22353 3.61073C5.3301 3.61073 5.43786 3.64536 5.54443 3.71217L8.28003 5.4637C8.47584 5.58951 8.58936 5.78471 8.58936 6.00046C8.58936 6.21616 8.477 6.41267 8.28003 6.53848Z" fill="white"/>
</svg>
