<?xml version="1.0" encoding="UTF-8"?>
<svg width="10px" height="10px" viewBox="0 0 10 10" version="1.1" xmlns="http://www.w3.org/2000/svg" xmlns:xlink="http://www.w3.org/1999/xlink">
    <title>进球</title>
    <g id="页面-1" stroke="none" stroke-width="1" fill="none" fill-rule="evenodd">
        <g id="赛况" transform="translate(-952.000000, -1561.000000)" fill="#213B5B" fill-rule="nonzero">
            <g id="编组-8" transform="translate(720.000000, 1561.000000)">
                <path d="M238.681818,0.289937467 C240.659091,0.994883455 242,2.8823195 242,4.99715747 C242,7.74872086 239.75,10 237,10 C234.25,10 232,7.74872087 232,4.99715747 C232,2.8823195 233.340909,0.994883455 235.340909,0.289937467 C236.409091,-0.0966458223 237.613636,-0.0966458223 238.681818,0.289937467 Z M238.045455,1.04036384 L237.25,1.60886868 C237.090909,1.72256965 236.863636,1.72256965 236.704545,1.60886868 L235.909091,1.04036384 C235.840909,1.06310403 235.727273,1.10858442 235.636364,1.13132462 C234.772727,1.44968733 234.045455,2.04093235 233.568182,2.76861854 L233.863636,3.70096646 C233.931818,3.88288801 233.863636,4.08754975 233.704545,4.20125072 L232.909091,4.79249573 L232.909091,4.99715747 C232.909091,5.97498578 233.25,6.86185332 233.818182,7.56679932 L234.795455,7.56679932 C235,7.56679932 235.159091,7.70324048 235.227273,7.88516203 L235.522727,8.81750994 C235.977273,8.99943149 236.477273,9.09039226 237,9.09039226 C237.522727,9.09039226 238,8.99943149 238.454545,8.81750994 L238.75,7.88516203 C238.818182,7.70324048 238.977273,7.56679932 239.181818,7.56679932 L240.159091,7.56679932 C240.727273,6.86185333 241.068182,5.97498579 241.068182,4.99715747 L241.068182,4.79249573 L240.272727,4.22399091 C240.113636,4.11028994 240.045455,3.9056282 240.113636,3.72370666 L240.431818,2.76861854 C239.954545,2.04093235 239.227273,1.44968733 238.363636,1.13132462 C238.272727,1.08584423 238.159091,1.06310405 238.045455,1.04036384 Z M237.272727,2.85957931 L238.954545,4.06480956 C239.113636,4.17851053 239.181818,4.38317227 239.113636,4.56509381 L238.477273,6.54349062 C238.409091,6.72541217 238.25,6.86185333 238.045455,6.86185333 L235.977273,6.86185333 C235.772727,6.86185333 235.613636,6.72541217 235.545455,6.54349062 L234.909091,4.56509381 C234.840909,4.38317226 234.909091,4.17851052 235.068182,4.06480956 L236.727273,2.85957931 C236.886364,2.74587834 237.113636,2.74587834 237.272727,2.85957931 Z M237,3.81466743 L235.863636,4.63331438 L236.295455,5.97498579 L237.704545,5.97498579 L238.136364,4.63331438 L237,3.81466743 Z" id="进球"></path>
            </g>
        </g>
    </g>
</svg>