<?xml version="1.0" encoding="UTF-8"?>
<svg width="10px" height="10px" viewBox="0 0 10 10" version="1.1" xmlns="http://www.w3.org/2000/svg" xmlns:xlink="http://www.w3.org/1999/xlink">
    <title>点球</title>
    <g id="页面-1" stroke="none" stroke-width="1" fill="none" fill-rule="evenodd">
        <g id="赛况" transform="translate(-1010.000000, -1561.000000)">
            <g id="编组-8" transform="translate(720.000000, 1561.000000)">
                <g id="点球" transform="translate(290.000000, 0.000000)">
                    <path d="M6.68181819,0.289937467 C8.65909092,0.994883455 10,2.8823195 10,4.99715747 C10,7.74872086 7.75,10 5,10 C2.25,10 9.9475983e-14,7.74872087 9.9475983e-14,4.99715747 C9.9475983e-14,2.8823195 1.3409091,0.994883455 3.34090909,0.289937467 C4.40909092,-0.0966458223 5.61363636,-0.0966458223 6.68181819,0.289937467 Z M6.04545454,1.04036384 L5.25,1.60886868 C5.0909091,1.72256965 4.86363636,1.72256965 4.70454546,1.60886868 L3.90909091,1.04036384 C3.84090909,1.06310403 3.72727272,1.10858442 3.63636364,1.13132462 C2.77272727,1.44968733 2.04545455,2.04093235 1.56818182,2.76861854 L1.86363636,3.70096646 C1.93181818,3.88288801 1.86363636,4.08754975 1.70454546,4.20125072 L0.909090906,4.79249573 L0.909090906,4.99715747 C0.909090906,5.97498578 1.25,6.86185332 1.81818181,7.56679932 L2.79545455,7.56679932 C3,7.56679932 3.15909091,7.70324048 3.22727273,7.88516203 L3.52272727,8.81750994 C3.97727273,8.99943149 4.47727272,9.09039226 5,9.09039226 C5.52272728,9.09039226 6,8.99943149 6.45454545,8.81750994 L6.75,7.88516203 C6.81818182,7.70324048 6.97727273,7.56679932 7.18181818,7.56679932 L8.15909091,7.56679932 C8.72727272,6.86185333 9.06818182,5.97498579 9.06818182,4.99715747 L9.06818182,4.79249573 L8.27272728,4.22399091 C8.11363637,4.11028994 8.04545455,3.9056282 8.11363637,3.72370666 L8.43181818,2.76861854 C7.95454545,2.04093235 7.22727272,1.44968733 6.36363636,1.13132462 C6.27272728,1.08584423 6.15909091,1.06310405 6.04545454,1.04036384 Z M5.27272727,2.85957931 L6.95454546,4.06480956 C7.11363637,4.17851053 7.18181818,4.38317227 7.11363637,4.56509381 L6.47727273,6.54349062 C6.40909091,6.72541217 6.25000001,6.86185333 6.04545454,6.86185333 L3.97727273,6.86185333 C3.77272727,6.86185333 3.61363637,6.72541217 3.54545455,6.54349062 L2.9090909,4.56509381 C2.84090909,4.38317226 2.9090909,4.17851052 3.06818182,4.06480956 L4.72727273,2.85957931 C4.88636363,2.74587834 5.11363637,2.74587834 5.27272727,2.85957931 Z M5,3.81466743 L3.86363636,4.63331438 L4.29545455,5.97498579 L5.70454545,5.97498579 L6.13636364,4.63331438 L5,3.81466743 Z" id="形状结合复制-4" fill="#213B5B" fill-rule="nonzero"></path>
                    <g id="编组-11" transform="translate(5.000000, 5.000000)">
                        <rect id="矩形" fill="#50C042" x="0" y="0" width="5" height="5" rx="2.5"></rect>
                        <path d="M2.38700812,3.68995941 C2.26220073,3.81476679 2.05984798,3.81476679 1.93504059,3.68995941 L1.03110554,2.78602436 C0.906298153,2.66121697 0.906298153,2.45886422 1.03110554,2.33405683 C1.15591293,2.20924944 1.35826568,2.20924944 1.48307307,2.33405683 L2.16102436,3.01200812 L3.51692693,1.65610554 C3.64173432,1.53129815 3.84408707,1.53129815 3.96889446,1.65610554 C4.09370185,1.78091293 4.09370185,1.98326568 3.96889446,2.10807307 L2.38700812,3.68995941 L2.38700812,3.68995941 Z" id="路径" fill="#FFFFFF"></path>
                    </g>
                </g>
            </g>
        </g>
    </g>
</svg>