<?xml version="1.0" encoding="UTF-8"?>
<svg width="10px" height="10px" viewBox="0 0 10 10" version="1.1" xmlns="http://www.w3.org/2000/svg" xmlns:xlink="http://www.w3.org/1999/xlink">
    <title>乌龙球</title>
    <g id="页面-1" stroke="none" stroke-width="1" fill="none" fill-rule="evenodd">
        <g id="赛况" transform="translate(-1150.000000, -1561.000000)" fill="#FA5858" fill-rule="nonzero">
            <g id="编组-8" transform="translate(720.000000, 1561.000000)">
                <path d="M436.681818,0.289937467 C438.659091,0.994883455 440,2.8823195 440,4.99715747 C440,7.74872086 437.75,10 435,10 C432.25,10 430,7.74872087 430,4.99715747 C430,2.8823195 431.340909,0.994883455 433.340909,0.289937467 C434.409091,-0.0966458223 435.613636,-0.0966458223 436.681818,0.289937467 Z M436.045455,1.04036384 L435.25,1.60886868 C435.090909,1.72256965 434.863636,1.72256965 434.704545,1.60886868 L433.909091,1.04036384 C433.840909,1.06310403 433.727273,1.10858442 433.636364,1.13132462 C432.772727,1.44968733 432.045455,2.04093235 431.568182,2.76861854 L431.863636,3.70096646 C431.931818,3.88288801 431.863636,4.08754975 431.704545,4.20125072 L430.909091,4.79249573 L430.909091,4.99715747 C430.909091,5.97498578 431.25,6.86185332 431.818182,7.56679932 L432.795455,7.56679932 C433,7.56679932 433.159091,7.70324048 433.227273,7.88516203 L433.522727,8.81750994 C433.977273,8.99943149 434.477273,9.09039226 435,9.09039226 C435.522727,9.09039226 436,8.99943149 436.454545,8.81750994 L436.75,7.88516203 C436.818182,7.70324048 436.977273,7.56679932 437.181818,7.56679932 L438.159091,7.56679932 C438.727273,6.86185333 439.068182,5.97498579 439.068182,4.99715747 L439.068182,4.79249573 L438.272727,4.22399091 C438.113636,4.11028994 438.045455,3.9056282 438.113636,3.72370666 L438.431818,2.76861854 C437.954545,2.04093235 437.227273,1.44968733 436.363636,1.13132462 C436.272727,1.08584423 436.159091,1.06310405 436.045455,1.04036384 Z M435.272727,2.85957931 L436.954545,4.06480956 C437.113636,4.17851053 437.181818,4.38317227 437.113636,4.56509381 L436.477273,6.54349062 C436.409091,6.72541217 436.25,6.86185333 436.045455,6.86185333 L433.977273,6.86185333 C433.772727,6.86185333 433.613636,6.72541217 433.545455,6.54349062 L432.909091,4.56509381 C432.840909,4.38317226 432.909091,4.17851052 433.068182,4.06480956 L434.727273,2.85957931 C434.886364,2.74587834 435.113636,2.74587834 435.272727,2.85957931 Z M435,3.81466743 L433.863636,4.63331438 L434.295455,5.97498579 L435.704545,5.97498579 L436.136364,4.63331438 L435,3.81466743 Z" id="乌龙球"></path>
            </g>
        </g>
    </g>
</svg>