<?xml version="1.0" encoding="UTF-8"?>
<svg width="4px" height="8px" viewBox="0 0 4 8" version="1.1" xmlns="http://www.w3.org/2000/svg" xmlns:xlink="http://www.w3.org/1999/xlink">
    <!-- Generator: Sketch 61.1 (89650) - https://sketch.com -->
    <title>右箭头</title>
    <desc>Created with Sketch.</desc>
    <g id="页面-1" stroke="none" stroke-width="1" fill="none" fill-rule="evenodd">
        <path d="M0.255009107,8 C0.284153005,8 0.314511233,7.99348322 0.346083789,7.98044966 C0.377656345,7.9674161 0.405585914,7.94786575 0.429872495,7.92179863 L0.429872495,7.92179863 L3.92714026,4.16031281 C3.97571342,4.10817856 4,4.04561746 4,3.97262952 C4,3.89964158 3.97571342,3.83708048 3.92714026,3.78494624 L3.92714026,3.78494624 L0.480874317,0.0782013685 C0.432301154,0.0260671228 0.372799029,0 0.302367942,0 C0.231936855,0 0.17243473,0.0260671228 0.123861566,0.0782013685 C0.0752884032,0.130335614 0.0510018215,0.194200065 0.0510018215,0.269794721 C0.0510018215,0.345389378 0.0752884032,0.409253829 0.123861566,0.461388074 L0.123861566,0.461388074 L3.40255009,3.97262952 L0.072859745,7.54643206 C0.0242865817,7.59856631 0,7.6611274 0,7.73411535 C0,7.80710329 0.0242865817,7.86966439 0.072859745,7.92179863 C0.0971463267,7.94786575 0.125075896,7.9674161 0.156648452,7.98044966 C0.188221008,7.99348322 0.221007893,8 0.255009107,8 Z" id="右箭头" fill="#D1D1D1" fill-rule="nonzero" transform="translate(2.000000, 4.000000) scale(1, -1) translate(-2.000000, -4.000000) "></path>
    </g>
</svg>