<?xml version="1.0" encoding="UTF-8"?>
<svg width="11px" height="11px" viewBox="0 0 11 11" version="1.1" xmlns="http://www.w3.org/2000/svg" xmlns:xlink="http://www.w3.org/1999/xlink">
    <!-- Generator: Sketch 61.1 (89650) - https://sketch.com -->
    <title>形状结合备份</title>
    <desc>Created with Sketch.</desc>
    <g id="页面-1" stroke="none" stroke-width="1" fill="none" fill-rule="evenodd">
        <g id="详情页顶部球类玩法模板" transform="translate(-344.000000, -2511.000000)" fill="#E4E4E4" fill-rule="nonzero">
            <path d="M348.882758,2511.19526 C349.143102,2510.93491 349.565227,2510.93491 349.825555,2511.19526 L349.825555,2511.19526 L354.539617,2515.9093 C354.799961,2516.16965 354.799961,2516.59177 354.539617,2516.8521 L354.539617,2516.8521 L349.82557,2521.56616 C349.565227,2521.82651 349.143102,2521.82651 348.882758,2521.56616 C348.622414,2521.3058 348.622414,2520.8837 348.882758,2520.62335 L348.882758,2520.62335 L353.125414,2516.38071 L348.882758,2512.13807 C348.622414,2511.87773 348.622414,2511.45562 348.882758,2511.19526 Z M344.195258,2511.19526 C344.455602,2510.93491 344.877727,2510.93491 345.138055,2511.19526 L345.138055,2511.19526 L349.852117,2515.9093 C350.112461,2516.16965 350.112461,2516.59177 349.852117,2516.8521 L349.852117,2516.8521 L345.13807,2521.56616 C344.877727,2521.82651 344.455602,2521.82651 344.195258,2521.56616 C343.934914,2521.3058 343.934914,2520.8837 344.195258,2520.62335 L344.195258,2520.62335 L348.437914,2516.38071 L344.195258,2512.13807 C343.934914,2511.87773 343.934914,2511.45562 344.195258,2511.19526 Z" id="形状结合备份" transform="translate(349.367438, 2516.380711) scale(-1, 1) translate(-349.367438, -2516.380711) "></path>
        </g>
    </g>
</svg>