<?xml version="1.0" encoding="UTF-8"?>
<svg width="20px" height="14px" viewBox="0 0 20 14" version="1.1" xmlns="http://www.w3.org/2000/svg" xmlns:xlink="http://www.w3.org/1999/xlink">
    <title>编组 10</title>
    <defs>
        <linearGradient x1="100%" y1="25.5%" x2="0%" y2="74.5%" id="linearGradient-1">
            <stop stop-color="#A3ACB3" offset="0%"></stop>
            <stop stop-color="#64676E" offset="100%"></stop>
        </linearGradient>
    </defs>
    <g id="页面-1" stroke="none" stroke-width="1" fill="none" fill-rule="evenodd">
        <g id="黑-内嵌-欧宝1350-1" transform="translate(-612.000000, -414.000000)">
            <g id="编组-62备份-4" transform="translate(349.000000, 400.000000)">
                <g id="编组-59" transform="translate(15.000000, 14.000000)">
                    <g id="编组-10" transform="translate(248.000000, 0.000000)">
                        <rect id="形状结合" fill="url(#linearGradient-1)" opacity="0.6" x="0" y="0" width="20" height="14" rx="2"></rect>
                        <path d="M10.9318895,4.74038192 L13.561371,9.24806449 C13.7005111,9.48659044 13.619943,9.79274931 13.381417,9.93188945 C13.304949,9.9764958 13.2180088,10 13.1294815,10 L7.8705185,10 C7.59437612,10 7.3705185,9.77614237 7.3705185,9.5 C7.3705185,9.41147268 7.3940227,9.32453252 7.43862905,9.24806449 L10.0681105,4.74038192 C10.2072507,4.50185596 10.5134096,4.42128784 10.7519355,4.56042798 C10.8264373,4.60388737 10.8884301,4.6658801 10.9318895,4.74038192 Z" id="三角形" fill="#FFFFFF" transform="translate(10.500000, 7.000000) rotate(-270.000000) translate(-10.500000, -7.000000) "></path>
                    </g>
                </g>
            </g>
        </g>
    </g>
</svg>