<?xml version="1.0" encoding="UTF-8"?>
<svg width="12px" height="12px" viewBox="0 0 12 12" version="1.1" xmlns="http://www.w3.org/2000/svg" xmlns:xlink="http://www.w3.org/1999/xlink">
    <title>形状结合@2x</title>
    <g id="页面-1" stroke="none" stroke-width="1" fill="none" fill-rule="evenodd">
        <g id="08-玩法样式" transform="translate(-788.000000, -16.000000)" fill="#9E9C9C">
            <g id="编组-8备份" transform="translate(420.000000, 0.000000)">
                <g id="编组-7" transform="translate(20.000000, 0.000000)">
                    <g id="编组-14" transform="translate(328.000000, 0.000000)">
                        <path d="M25.4743396,22.1937324 C25.7646538,21.9354225 26.2353462,21.9354225 26.5256604,22.1937324 L26.5256604,22.1937324 L31.7822643,26.8708451 C32.0725786,27.1291549 32.0725786,27.5479578 31.7822643,27.8062676 C31.4919501,28.0645775 31.0212578,28.0645775 30.7309435,27.8062676 L30.7309435,27.8062676 L26,23.5968662 L21.2690565,27.8062676 C20.9787422,28.0645775 20.5080499,28.0645775 20.2177357,27.8062676 C19.9274214,27.5479578 19.9274214,27.1291549 20.2177357,26.8708451 L20.2177357,26.8708451 Z M25.4743396,16.1937324 C25.7646538,15.9354225 26.2353462,15.9354225 26.5256604,16.1937324 L26.5256604,16.1937324 L31.7822643,20.8708451 C32.0725786,21.1291549 32.0725786,21.5479578 31.7822643,21.8062676 C31.4919501,22.0645775 31.0212578,22.0645775 30.7309435,21.8062676 L30.7309435,21.8062676 L26,17.5968662 L21.2690565,21.8062676 C20.9787422,22.0645775 20.5080499,22.0645775 20.2177357,21.8062676 C19.9274214,21.5479578 19.9274214,21.1291549 20.2177357,20.8708451 L20.2177357,20.8708451 Z" id="形状结合"></path>
                    </g>
                </g>
            </g>
        </g>
    </g>
</svg>