<?xml version="1.0" encoding="UTF-8"?>
<svg width="14px" height="14px" viewBox="0 0 14 14" version="1.1" xmlns="http://www.w3.org/2000/svg" xmlns:xlink="http://www.w3.org/1999/xlink">
    <title>形状结合复制 6@2x</title>
    <g id="页面-1" stroke="none" stroke-width="1" fill="none" fill-rule="evenodd">
        <g id="05-赔率解释" transform="translate(-1794.000000, -23.000000)" fill="#FFFFFF" fill-rule="nonzero">
            <g id="编组-16" transform="translate(1602.000000, 20.000000)">
                <g id="编组-4备份-5" transform="translate(189.000000, 0.000000)">
                    <path d="M12.3545455,3.40591245 C15.1227273,4.39283684 17,7.0352473 17,9.99602046 C17,13.8482092 13.85,17 10,17 C6.15,17 3,13.8482092 3,9.99602046 C3,7.0352473 4.87727273,4.39283684 7.67727273,3.40591245 C9.17272728,2.86469585 10.8590909,2.86469585 12.3545455,3.40591245 Z M11.4636364,4.45650938 L10.35,5.25241616 C10.1272727,5.41159751 9.80909091,5.41159751 9.58636364,5.25241616 L8.47272727,4.45650938 C8.37727273,4.48834565 8.21818181,4.55201819 8.09090909,4.58385447 C6.88181817,5.02956227 5.86363637,5.85730529 5.19545455,6.87606596 L5.60909091,8.18135304 C5.70454545,8.43604321 5.60909091,8.72256964 5.38636364,8.881751 L4.27272727,9.70949403 L4.27272727,9.99602046 C4.27272727,11.3649801 4.75,12.6065946 5.54545454,13.593519 L6.91363637,13.593519 C7.2,13.593519 7.42272727,13.7845367 7.51818182,14.0392268 L7.93181818,15.3445139 C8.56818182,15.5992041 9.26818181,15.7265492 10,15.7265492 C10.7318182,15.7265492 11.4,15.5992041 12.0363636,15.3445139 L12.45,14.0392268 C12.5454546,13.7845367 12.7681818,13.593519 13.0545455,13.593519 L14.4227273,13.593519 C15.2181818,12.6065947 15.6954546,11.3649801 15.6954546,9.99602046 L15.6954546,9.70949403 L14.5818182,8.91358727 C14.3590909,8.75440591 14.2636364,8.46787948 14.3590909,8.21318932 L14.8045455,6.87606596 C14.1363636,5.85730529 13.1181818,5.02956227 11.9090909,4.58385447 C11.7818182,4.52018193 11.6227273,4.48834566 11.4636364,4.45650938 Z M10.3818182,7.00341103 L12.7363636,8.69073338 C12.9590909,8.84991474 13.0545455,9.13644117 12.9590909,9.39113133 L12.0681818,12.1608869 C11.9727273,12.415577 11.75,12.6065947 11.4636364,12.6065947 L8.56818182,12.6065947 C8.28181818,12.6065947 8.05909091,12.415577 7.96363637,12.1608869 L7.07272727,9.39113133 C6.97727272,9.13644116 7.07272727,8.84991472 7.29545455,8.69073338 L9.61818182,7.00341103 C9.84090909,6.84422968 10.1590909,6.84422968 10.3818182,7.00341103 Z M10,8.3405344 L8.4090909,9.48664014 L9.01363637,11.3649801 L10.9863636,11.3649801 L11.5909091,9.48664014 L10,8.3405344 Z" id="形状结合复制-6"></path>
                </g>
            </g>
        </g>
    </g>
</svg>