<?xml version="1.0" encoding="UTF-8"?>
<svg width="14px" height="14px" viewBox="0 0 14 14" version="1.1" xmlns="http://www.w3.org/2000/svg" xmlns:xlink="http://www.w3.org/1999/xlink">
    <title>角球</title>
    <g id="角球" stroke="none" stroke-width="1" fill="none" fill-rule="evenodd">
        <g id="编组-9" transform="translate(-2.000000, -2.000000)">
            <rect id="矩形" x="0" y="0" width="18" height="18"></rect>
            <g id="编组-14" transform="translate(5.142857, 2.571429)">
                <path d="M1.36363636,5.14285714 C1.53099538,5.14285714 1.67018753,5.26345384 1.69905295,5.42248739 L1.70454545,5.48376623 L1.70452651,11.5987987 L5.95201446,8.86907877 C6.11039061,8.76726553 6.32131579,8.81311883 6.42312903,8.97149498 C6.51362968,9.11227378 6.48745554,9.2945728 6.36928914,9.40485237 L6.32071282,9.44260955 L5.5413886,9.94358603 C6.05885098,10.5568939 6.32881528,11.2243969 6.30584574,11.882488 L8.18181818,11.8824485 C8.37009707,11.8824485 8.52272727,12.0350787 8.52272727,12.2233576 C8.52272727,12.3907166 8.40213057,12.5299087 8.24309702,12.5587742 L8.18181818,12.5642667 L1.35159038,12.5647525 L1.29676067,12.5577097 L1.27280635,12.5525431 L1.23478562,12.5390755 L1.18299706,12.512528 L1.14849762,12.4885958 L1.10717067,12.4486937 L1.07687097,12.4083752 L1.05908992,12.3772879 L1.03966756,12.3297819 L1.02634197,12.2731804 L1.02371912,12.2506128 L1.02272727,5.48376623 C1.02272727,5.29548734 1.17535747,5.14285714 1.36363636,5.14285714 Z M4.97881082,10.3053811 L2.52475379,11.8824351 L5.57661051,11.8829256 C5.61164689,11.3604619 5.40376071,10.8177211 4.97881082,10.3053811 Z" id="形状" fill="#CACACA" fill-rule="nonzero"></path>
                <path d="M6.97900093,0.0817417787 L1.08661584,6.0507035 C0.93932487,6.19990864 1.06305295,6.42857143 1.29107792,6.42857143 L7.18346302,6.42857143 C7.33138458,6.42857143 7.4512987,6.325787 7.4512987,6.19899598 L7.4512987,0.23003426 C7.4512987,0.0161704331 7.14016714,-0.0815189336 6.97900093,0.0817417787 Z" id="三角形备份-2" fill="#E02020" transform="translate(4.237013, 3.214286) rotate(-270.000000) translate(-4.237013, -3.214286) "></path>
            </g>
        </g>
    </g>
</svg>