<?xml version="1.0" encoding="UTF-8"?>
<svg width="16px" height="14px" viewBox="0 0 16 14" version="1.1" xmlns="http://www.w3.org/2000/svg" xmlns:xlink="http://www.w3.org/1999/xlink">
    <!-- Generator: Sketch 61.1 (89650) - https://sketch.com -->
    <title>收起</title>
    <desc>Created with Sketch.</desc>
    <g id="页面-1" stroke="none" stroke-width="1" fill="none" fill-rule="evenodd">
        <g id="详情双列备份" transform="translate(-1318.000000, -150.000000)" fill="#5A6074" fill-rule="nonzero">
            <g id="编组-39备份" transform="translate(234.000000, 137.000000)">
                <path d="M1091.40051,17.0975034 L1084.52876,17.0975034 C1084.23864,17.0975034 1084.00232,17.4847657 1084.00232,17.958607 C1084.00232,18.432413 1084.23864,18.8196753 1084.52874,18.8196753 L1091.40287,18.8196753 C1091.69299,18.8196753 1091.92929,18.432413 1091.92929,17.958607 C1091.92695,17.48022 1091.69065,17.0975034 1091.40051,17.0975034 Z M1091.40051,21.1852251 L1084.52876,21.1852251 C1084.23864,21.1852251 1084.00232,21.5724873 1084.00232,22.0462934 C1084.00232,22.5201347 1084.23864,22.9073969 1084.52874,22.9073969 L1091.40287,22.9073969 C1091.69299,22.9073969 1091.92929,22.5201347 1091.92929,22.0462934 C1091.92695,21.5724873 1091.69065,21.1852251 1091.40051,21.1852251 Z M1091.39116,25.2778281 L1084.53579,25.2778281 C1084.24099,25.2778281 1084,25.6650904 1084,26.1388965 C1084,26.6127377 1084.23865,27 1084.53579,27 L1091.39118,27 C1091.68832,27 1091.92697,26.6127377 1091.92697,26.1388965 C1091.92697,25.6650904 1091.68832,25.2778281 1091.39118,25.2778281 L1091.39116,25.2778281 Z M1093.38562,16.2290785 L1095.36735,16.2290785 L1095.36735,22.2248791 C1095.36735,22.528229 1095.61362,22.7752909 1096.39357,22.7752909 C1097.17352,22.7752909 1097.42631,22.528229 1097.42631,22.224898 L1097.42631,16.2290596 L1099.39822,16.2290596 C1099.7734,16.2290596 1099.95438,16.1556865 1099.9906,16.1018581 C1100.02023,16.0578305 1099.98729,15.9232879 1099.78328,15.734917 L1097.17352,13.3082313 C1096.95961,13.1076378 1096.68318,13 1096.39685,13 C1096.10724,13 1095.8341,13.1100786 1095.62019,13.3082124 L1093.00712,15.7374144 C1092.80639,15.9257665 1092.77346,16.0603091 1092.80308,16.1043367 C1092.82612,16.1557244 1093.01043,16.2290974 1093.38559,16.2290974 L1093.38562,16.2290785 Z M1084.53811,26.9975593 L1098.43606,26.9975593 C1098.73087,26.9975593 1098.97186,26.6102891 1098.97186,26.1364733 C1098.97186,25.6626576 1098.7332,25.2753874 1098.43606,25.2753874 L1084.53811,25.2753874 C1084.24332,25.2753874 1084.00232,25.6626576 1084.00232,26.1364733 C1084.00232,26.6148701 1084.24097,26.9975593 1084.53811,26.9975593 Z M1091.40051,13.0024596 L1084.52876,13.0024596 C1084.23864,13.0024596 1084.00232,13.3897219 1084.00232,13.863528 C1084.00232,14.3373692 1084.23864,14.7246315 1084.52874,14.7246315 L1091.40287,14.7246315 C1091.69299,14.7246315 1091.92929,14.3373692 1091.92929,13.863528 C1091.92695,13.3897219 1091.69065,13.0024596 1091.40051,13.0024596 Z" id="收起"></path>
            </g>
        </g>
    </g>
</svg>