<?xml version="1.0" encoding="UTF-8"?>
<svg width="8px" height="8px" viewBox="0 0 8 8" version="1.1" xmlns="http://www.w3.org/2000/svg" xmlns:xlink="http://www.w3.org/1999/xlink">
    <title>编组 5</title>
    <g id="页面-1" stroke="none" stroke-width="1" fill="none" fill-rule="evenodd">
        <g id="设置备份" transform="translate(-234.000000, -613.000000)" fill="#A5AEC8">
            <g id="编组-5" transform="translate(234.000000, 613.000000)">
                <path d="M4,6.66666667 C4.36818983,6.66666667 4.66666667,6.9651435 4.66666667,7.33333333 C4.66666667,7.70152317 4.36818983,8 4,8 C3.63181017,8 3.33333333,7.70152317 3.33333333,7.33333333 C3.33333333,6.9651435 3.63181017,6.66666667 4,6.66666667 Z M6.82842712,5.88561808 C7.08877665,6.14596761 7.08877665,6.5680776 6.82842712,6.82842712 C6.5680776,7.08877665 6.14596761,7.08877665 5.88561808,6.82842712 C5.62526856,6.5680776 5.62526856,6.14596761 5.88561808,5.88561808 C6.14596761,5.62526856 6.5680776,5.62526856 6.82842712,5.88561808 Z M2.11438192,5.88561808 C2.37473144,6.14596761 2.37473144,6.5680776 2.11438192,6.82842712 C1.85403239,7.08877665 1.4319224,7.08877665 1.17157288,6.82842712 C0.911223347,6.5680776 0.911223347,6.14596761 1.17157288,5.88561808 C1.4319224,5.62526856 1.85403239,5.62526856 2.11438192,5.88561808 Z M4,1.66666667 C5.28866442,1.66666667 6.33333333,2.71133558 6.33333333,4 C6.33333333,5.28866442 5.28866442,6.33333333 4,6.33333333 C2.71133558,6.33333333 1.66666667,5.28866442 1.66666667,4 C1.66666667,2.71133558 2.71133558,1.66666667 4,1.66666667 Z M0.666666667,3.33333333 C1.0348565,3.33333333 1.33333333,3.63181017 1.33333333,4 C1.33333333,4.36818983 1.0348565,4.66666667 0.666666667,4.66666667 C0.298476833,4.66666667 0,4.36818983 0,4 C0,3.63181017 0.298476833,3.33333333 0.666666667,3.33333333 Z M7.33333333,3.33333333 C7.70152317,3.33333333 8,3.63181017 8,4 C8,4.36818983 7.70152317,4.66666667 7.33333333,4.66666667 C6.9651435,4.66666667 6.66666667,4.36818983 6.66666667,4 C6.66666667,3.63181017 6.9651435,3.33333333 7.33333333,3.33333333 Z M2.11438192,1.17157288 C2.37473144,1.4319224 2.37473144,1.85403239 2.11438192,2.11438192 C1.85403239,2.37473144 1.4319224,2.37473144 1.17157288,2.11438192 C0.911223347,1.85403239 0.911223347,1.4319224 1.17157288,1.17157288 C1.4319224,0.911223347 1.85403239,0.911223347 2.11438192,1.17157288 Z M6.82842712,1.17157288 C7.08877665,1.4319224 7.08877665,1.85403239 6.82842712,2.11438192 C6.5680776,2.37473144 6.14596761,2.37473144 5.88561808,2.11438192 C5.62526856,1.85403239 5.62526856,1.4319224 5.88561808,1.17157288 C6.14596761,0.911223347 6.5680776,0.911223347 6.82842712,1.17157288 Z M4,0 C4.36818983,-6.76353751e-17 4.66666667,0.298476833 4.66666667,0.666666667 C4.66666667,1.0348565 4.36818983,1.33333333 4,1.33333333 C3.63181017,1.33333333 3.33333333,1.0348565 3.33333333,0.666666667 C3.33333333,0.298476833 3.63181017,6.76353751e-17 4,0 Z" id="形状结合"></path>
            </g>
        </g>
    </g>
</svg>