<?xml version="1.0" encoding="UTF-8"?>
<svg width="14px" height="14px" viewBox="0 0 14 14" version="1.1" xmlns="http://www.w3.org/2000/svg" xmlns:xlink="http://www.w3.org/1999/xlink">
    <title>详情数据</title>
    <g id="页面-1" stroke="none" stroke-width="1" fill="none" fill-rule="evenodd">
        <g id="设置备份" transform="translate(-377.000000, -331.000000)">
            <g id="编组-154备份-8" transform="translate(360.000000, 262.451905)">
                <g id="编组-3备份-7" transform="translate(0.000000, 55.548095)">
                    <g id="编组-160" transform="translate(16.000000, 12.000000)">
                        <g id="编组" transform="translate(0.999946, 1.000162)">
                            <g transform="translate(6.999892, 0.000000)" fill="#F0F4FF" id="Fill-1">
                                <path d="M0,14 C1.33344103,12.666559 2.00016154,10.3331718 2.00016154,6.99983846 C2.00016154,4.33317179 1.33344103,1.99989231 0,0 C3.86615385,0 7,3.13384615 7,7 C7,10.8661538 3.86615385,14 0,14 Z"></path>
                            </g>
                            <g transform="translate(0.000000, 0.000162)" fill="#A5AEC8" id="Fill-3">
                                <path d="M8.78984615,12.2209231 C9.254,11.1445385 9.57330769,9.65623077 9.66376923,7.97569231 C9.67669231,7.73176923 9.87430769,7.53846154 10.1182308,7.53846154 L12.369,7.53846154 C12.6597692,7.53846154 12.8724615,7.80553846 12.8191538,8.09092308 C12.4363077,10.136 10.9991538,11.8106154 9.09407692,12.5332308 C8.897,12.6080769 8.70692308,12.4142308 8.78984615,12.2209231 M1.631,7.53846154 L3.88176923,7.53846154 C4.12623077,7.53846154 4.32330769,7.73176923 4.33623077,7.97569231 C4.42615385,9.65623077 4.746,11.1445385 5.21069231,12.2209231 C5.29361538,12.4142308 5.103,12.6080769 4.90592308,12.5332308 C3.00138462,11.8106154 1.56369231,10.136 1.18084615,8.09092308 C1.12753846,7.80553846 1.34023077,7.53846154 1.631,7.53846154 M5.21069231,1.778 C4.746,2.85492308 4.42615385,4.34269231 4.33623077,6.02323077 C4.32330769,6.26715385 4.12623077,6.46153846 3.88176923,6.46153846 L1.631,6.46153846 C1.34023077,6.46153846 1.12753846,6.19446154 1.18084615,5.908 C1.56369231,3.86346154 3.00138462,2.18830769 4.90592308,1.46569231 C5.103,1.39138462 5.29361538,1.58469231 5.21069231,1.778 M5.41692308,5.98069231 C5.60053846,2.92223077 6.57461538,1.14746154 7,1.07692308 C7.42592308,1.14746154 8.39892308,2.92223077 8.58307692,5.98069231 C8.59923077,6.24184615 8.38653846,6.46153846 8.12592308,6.46153846 L5.87461538,6.46153846 C5.614,6.46153846 5.40130769,6.24184615 5.41692308,5.98069231 M7.00269231,12.9230769 L7.00215385,12.9230769 C6.57730769,12.8573846 5.60107692,11.081 5.41692308,8.01823077 C5.40130769,7.75815385 5.614,7.53846154 5.87461538,7.53846154 L8.12592308,7.53846154 C8.38653846,7.53846154 8.59923077,7.75815385 8.58307692,8.01823077 C8.39892308,11.0820769 7.42269231,12.8579231 7.00269231,12.9230769 M12.369,6.46153846 L10.1182308,6.46153846 C9.87430769,6.46153846 9.67669231,6.26715385 9.66376923,6.02323077 C9.57330769,4.34269231 9.254,2.85492308 8.78984615,1.778 C8.70692308,1.58469231 8.897,1.39138462 9.09407692,1.46569231 C10.9991538,2.18830769 12.4363077,3.86346154 12.8191538,5.908 C12.8724615,6.19446154 12.6597692,6.46153846 12.369,6.46153846 M7,0 C3.13384615,0 0,3.13384615 0,7 C0,10.8656154 3.13384615,14 7,14 C10.8656154,14 14,10.8656154 14,7 C14,3.13384615 10.8656154,0 7,0"></path>
                            </g>
                        </g>
                    </g>
                </g>
            </g>
        </g>
    </g>
</svg>