<?xml version="1.0" encoding="UTF-8"?>
<svg width="16px" height="18px" viewBox="0 0 16 18" version="1.1" xmlns="http://www.w3.org/2000/svg" xmlns:xlink="http://www.w3.org/1999/xlink">
    <title>形状@2x</title>
    <g id="页面-1" stroke="none" stroke-width="1" fill="none" fill-rule="evenodd">
        <g id="滚球（顶部折叠）备份" transform="translate(-296.000000, -819.000000)" fill="#99A3B1" fill-rule="nonzero">
            <g id="编组-13" transform="translate(280.000000, 333.000000)">
                <g id="编组-16" transform="translate(0.000000, 341.000000)">
                    <path d="M29.8150024,149.294801 L29.8147774,145.418725 L24.2422015,147.334375 L29.8150024,149.294801 Z M23.5354763,147.092725 L17.6749003,145 L17.6749003,149.046626 L23.5354763,147.092725 L23.5354763,147.092725 Z M19.9073507,150.163076 L20.8843009,149.883851 L20.8843009,151.069826 L22.9774762,150.302576 L22.9774762,154.070202 L22.1400261,154.349202 L22.1400261,153.791427 L20.7445758,154.349202 L20.7506508,156.445752 L19.9073507,156.721602 L19.9010507,154.646427 L18.5121254,155.186427 L18.5123504,155.605152 L17.6746753,155.884152 L17.6749003,152.116751 L19.9073507,151.419026 L19.9073507,150.163076 L19.9073507,150.163076 Z M22.1400261,151.488776 L20.8843009,151.977026 L20.8843009,153.372476 L22.1400261,152.953751 L22.1400261,151.488776 Z M18.5121254,154.209702 L19.9075757,153.721227 L19.9073507,152.256251 L18.5121254,152.744501 L18.5121254,154.209702 Z M23.9542014,147.43315 L16.4189501,150.023351 L16.4189501,160.349728 L23.9542014,157.837602 L23.9542014,147.43315 Z M28.6774022,160.804453 L27.9769771,162.091453 L27.6685021,161.609728 C27.516627,161.704678 27.363402,161.796028 27.207252,161.884678 C24.5416765,163.380253 21.9514761,163.406353 19.3486756,161.752603 L19.3486756,161.752603 L19.4942506,161.525128 C22.2140511,163.253803 24.8593766,163.047028 27.522702,161.382028 L27.522702,161.382028 L27.215352,160.901653 L28.6774022,160.804453 Z M30.2337275,145 L30.2337275,149.442176 L31.6291778,149.883851 L31.6289528,160.628728 L24.1641264,158.186802 C21.453101,159.094452 18.7094505,160.000303 16.000225,160.907728 L16,149.744351 L30.2337275,145 Z M26.9694269,150.148676 C26.6429519,151.106951 26.3153518,152.068376 25.9873018,153.031826 L25.9873018,153.031826 L24.9973016,155.938377 L26.0890018,156.330777 C26.2296268,155.887527 26.3702518,155.443827 26.5106519,155.000352 L26.5106519,155.000352 L28.5203522,155.735877 L28.7346085,156.54793 L28.7346085,156.54793 L28.9492023,157.358127 C29.3078524,157.487052 29.6662774,157.615302 30.0231275,157.743552 C29.6950774,156.557352 29.3661274,155.366202 29.0365023,154.171902 C28.7057522,152.974451 28.3747772,151.771601 28.0420021,150.564926 C27.6856021,150.426776 27.328302,150.287951 26.9694269,150.148676 Z M27.499752,151.867676 C27.7299271,152.753276 27.9619021,153.638877 28.1936522,154.524252 C27.7360021,154.354602 27.278577,154.184502 26.8207019,154.015077 C27.047052,153.299126 27.273177,152.583176 27.499752,151.867676 Z" id="形状"></path>
                </g>
            </g>
        </g>
    </g>
</svg>