<?xml version="1.0" encoding="UTF-8"?>
<svg width="6px" height="6px" viewBox="0 0 6 6" version="1.1" xmlns="http://www.w3.org/2000/svg" xmlns:xlink="http://www.w3.org/1999/xlink">
    <title>形状结合</title>
    <g id="页面-1" stroke="none" stroke-width="1" fill="none" fill-rule="evenodd">
        <g id="内嵌-欧宝1350-3" transform="translate(-230.000000, -528.000000)" fill="#FFFFFF">
            <path d="M233.318667,528.131996 C233.494662,528.307991 233.494662,528.593335 233.318667,528.76933 L231.087997,531 L233.318667,533.23067 C233.494662,533.406665 233.494662,533.692009 233.318667,533.868004 C233.142672,534.043999 232.857328,534.043999 232.681333,533.868004 L230.131996,531.318667 C229.956001,531.142672 229.956001,530.857328 230.131996,530.681333 L232.681333,528.131996 C232.857328,527.956001 233.142672,527.956001 233.318667,528.131996 Z M235.868004,528.131996 C236.043999,528.307991 236.043999,528.593335 235.868004,528.76933 L233.637334,531 L235.868004,533.23067 C236.043999,533.406665 236.043999,533.692009 235.868004,533.868004 C235.692009,534.043999 235.406665,534.043999 235.23067,533.868004 L232.681333,531.318667 C232.505338,531.142672 232.505338,530.857328 232.681333,530.681333 L235.23067,528.131996 C235.406665,527.956001 235.692009,527.956001 235.868004,528.131996 Z" id="形状结合"></path>
        </g>
    </g>
</svg>