<?xml version="1.0" encoding="UTF-8"?>
<svg width="8px" height="8px" viewBox="0 0 8 8" version="1.1" xmlns="http://www.w3.org/2000/svg" xmlns:xlink="http://www.w3.org/1999/xlink">
    <title>点赞蓝黑</title>
    <g id="页面-1" stroke="none" stroke-width="1" fill="none" fill-rule="evenodd">
        <g id="画板备份-3" transform="translate(-202.000000, -35.000000)" fill="#4276FB">
            <g id="点赞蓝黑" transform="translate(202.000000, 35.000000)">
                <path d="M5.69828276,0.69435 C5.40694943,0.69435 5.10878276,0.796183333 4.77811609,1.02701667 C4.75044943,1.04618333 4.72411609,1.06718333 4.69844943,1.08901667 L3.99994943,1.68418333 L3.30128276,1.08901667 C3.27594943,1.06718333 3.24944943,1.04618333 3.22194943,1.02701667 C2.89111609,0.796183333 2.59294943,0.69435 2.30161609,0.69435 C1.54128276,0.69435 1.05944943,0.845516667 0.691949425,1.23035 C0.483782758,1.44801667 0.339116092,1.64535 0.188616092,1.96335 C-0.0437172416,2.45451667 -0.0628839083,3.02168333 0.139282758,3.52601667 C0.278949425,3.87518333 0.577616092,4.23935 0.861116092,4.54668333 L3.99994943,7.63885 L7.13894943,4.54668333 C7.42228276,4.23935 7.72094943,3.87518333 7.86094943,3.52601667 C8.06294943,3.02168333 8.04344943,2.45451667 7.81128276,1.96335 C7.66061609,1.64535 7.51611609,1.44801667 7.30811609,1.23035 C6.94028276,0.845516667 6.45861609,0.69435 5.69828276,0.69435" id="路径"></path>
            </g>
        </g>
    </g>
</svg>