<svg width="13" height="13" viewBox="0 0 13 13" fill="none" xmlns="http://www.w3.org/2000/svg">
<path fill-rule="evenodd" clip-rule="evenodd" d="M5.97613 1.365C5.66413 1.053 5.66413 0.546 5.97613 0.233C6.13213 0.0769997 6.33713 -2.91238e-07 6.54213 -2.82277e-07C6.74713 -2.73316e-07 6.95213 0.0769997 7.10813 0.233L12.7651 5.891C13.0781 6.203 13.0781 6.709 12.7651 7.022L7.10813 12.679C6.79513 12.991 6.28913 12.991 5.97613 12.679C5.66413 12.366 5.66413 11.86 5.97613 11.547L11.0671 6.456L5.97613 1.365ZM0.851128 1.365C0.539128 1.053 0.539128 0.545999 0.851128 0.232999C1.00713 0.0769995 1.21213 -5.15259e-07 1.41713 -5.06298e-07C1.62213 -4.97337e-07 1.82713 0.0769995 1.98313 0.233L7.64013 5.891C7.95313 6.203 7.95313 6.709 7.64013 7.022L1.98313 12.679C1.67013 12.991 1.16413 12.991 0.851127 12.679C0.539128 12.366 0.539128 11.86 0.851127 11.547L5.94213 6.456L0.851128 1.365Z" fill="#A5AEC8"/>
</svg>
