<?xml version="1.0" encoding="UTF-8"?>
<svg width="98px" height="18px" viewBox="0 0 98 18" version="1.1" xmlns="http://www.w3.org/2000/svg" xmlns:xlink="http://www.w3.org/1999/xlink">
    <!-- Generator: Sketch 61.1 (89650) - https://sketch.com -->
    <title>编组 2</title>
    <desc>Created with Sketch.</desc>
    <g id="页面-1" stroke="none" stroke-width="1" fill="none" fill-rule="evenodd" fill-opacity="0.25">
        <g id="首页滚球列表页" transform="translate(-543.000000, -3109.000000)" fill="#FFFFFF">
            <g id="编组-2" transform="translate(543.000000, 3109.000000)">
                <text id="没有更多了~" font-family="PingFangSC-Regular, PingFang SC" font-size="13" font-weight="normal">
                    <tspan x="26" y="14">没有更多了~</tspan>
                </text>
                <path d="M9,0 C4.03857422,0 0,4.03857422 0,9 C0,13.9614258 4.03857422,18 9,18 C13.9614258,18 18,13.9614258 18,9 C18,4.03857422 13.9614258,0 9,0 Z M16.3366699,9.32958984 C16.171875,13.0627441 13.2363281,16.0708008 9.51196289,16.3278809 L9.42626953,16.3344727 C9.04394531,16.3630371 8.65283203,16.3564453 8.26171875,16.3168945 C8.12988281,16.3037109 7.99804688,16.2817383 7.86401367,16.2575684 L7.67285156,16.2290039 C7.63110352,16.2224121 7.58935547,16.2180176 7.54980469,16.2092285 C4.6340332,15.6269531 2.37524414,13.3659668 1.79296875,10.447998 C1.78637695,10.4216309 1.78198242,10.3930664 1.77758789,10.3513184 C1.77319336,10.3183594 1.76879883,10.2854004 1.75341797,10.2062988 C1.72705078,10.050293 1.70068359,9.89648437 1.68530273,9.73828125 C1.66113281,9.49658203 1.64794922,9.25048828 1.64794922,9 C1.64794922,7.08178711 2.39282227,5.3371582 3.60131836,4.02539062 L3.60131836,3.59912109 L4.02758789,3.59912109 C5.3371582,2.390625 7.08398438,1.64575195 9.00219727,1.64575195 C9.24829102,1.64575195 9.49658203,1.65893555 9.74047852,1.68310547 C9.88989258,1.69848633 10.0371094,1.72265625 10.1865234,1.74902344 L10.3513184,1.77319336 C10.3842773,1.77758789 10.4194336,1.78198242 10.4545898,1.78857422 C11.8081055,2.05883789 13.0100098,2.70483398 13.9812012,3.59692383 L14.4052734,3.59692383 L14.4052734,4.02099609 C15.2929688,4.9921875 15.9367676,6.19628906 16.2070312,7.54980469 C16.2158203,7.58276367 16.2202148,7.62011719 16.2268066,7.67504883 L16.2575684,7.8684082 C16.279541,7.99804687 16.3015137,8.12768555 16.3168945,8.26171875 C16.3410645,8.50341797 16.354248,8.75170898 16.354248,9 C16.354248,9.06591797 16.3498535,9.13183594 16.345459,9.19995117 L16.3366699,9.32958984 Z M9,10.2392578 C11.3422852,10.2392578 13.3242188,11.7487793 14.0690918,13.8405762 L13.0209961,13.8405762 C12.3728027,12.3925781 10.9731445,11.357666 9.30541992,11.2434082 L9.25268555,11.2390137 C9.02416992,11.2214355 8.7890625,11.2258301 8.55395508,11.25 C8.47485352,11.2587891 8.39575195,11.2719727 8.31445312,11.2851562 L8.20019531,11.3027344 C8.17602539,11.3071289 8.1496582,11.3093262 8.12548828,11.3137207 C6.70385742,11.597168 5.5546875,12.5529785 4.97900391,13.8383789 L3.92651367,13.8383789 C4.67797852,11.7487793 6.65771484,10.2392578 9,10.2392578 L9,10.2392578 Z M12.1508789,8.56054688 C11.4060059,8.56054688 10.8017578,7.95629883 10.8017578,7.21142578 C10.8017578,6.46655273 11.4060059,5.86230469 12.1508789,5.86230469 C12.895752,5.86230469 13.5,6.46655273 13.5,7.21142578 C13.5,7.95629883 12.895752,8.56054688 12.1508789,8.56054688 L12.1508789,8.56054688 Z M5.84912109,8.56054688 C5.10424805,8.56054688 4.5,7.95629883 4.5,7.21142578 C4.5,6.46655273 5.10424805,5.86230469 5.84912109,5.86230469 C6.59399414,5.86230469 7.19824816,6.46655273 7.19824816,7.21142578 C7.20043945,7.95629883 6.59619141,8.56054688 5.84912109,8.56054688 L5.84912109,8.56054688 Z" id="形状" fill-rule="nonzero"></path>
            </g>
        </g>
    </g>
</svg>