<?xml version="1.0" encoding="UTF-8"?>
<svg width="18px" height="18px" viewBox="0 0 18 18" version="1.1" xmlns="http://www.w3.org/2000/svg" xmlns:xlink="http://www.w3.org/1999/xlink">
    <title>黑箭头1</title>
    <g id="页面-1" stroke="none" stroke-width="1" fill="none" fill-rule="evenodd">
        <g id="PC-黄色版-黑" transform="translate(-1306.000000, -21.000000)">
            <g id="装饰1" transform="translate(1306.000000, 0.000000)">
                <g id="黑箭头1" transform="translate(0.000000, 21.000000)">
                    <circle id="椭圆形备份" fill="#3B4359" transform="translate(9.000000, 9.000000) scale(-1, 1) translate(-9.000000, -9.000000) " cx="9" cy="9" r="9"></circle>
                    <path d="M9.25599026,10.5846407 C9.10954365,10.7310873 8.87210678,10.7310873 8.72566017,10.5846407 L6.07400974,7.93299026 C5.92756313,7.78654365 5.92756313,7.54910678 6.07400974,7.40266017 C6.22045635,7.25621356 6.45789322,7.25621356 6.60433983,7.40266017 L8.99082521,9.78914556 L11.3773106,7.40266017 C11.5237572,7.25621356 11.7611941,7.25621356 11.9076407,7.40266017 C12.0540873,7.54910678 12.0540873,7.78654365 11.9076407,7.93299026 L9.25599026,10.5846407 Z" id="路径" fill="#FFFFFF" transform="translate(8.990825, 8.993650) scale(-1, 1) rotate(-90.000000) translate(-8.990825, -8.993650) "></path>
                </g>
            </g>
        </g>
    </g>
</svg>