<?xml version="1.0" encoding="UTF-8"?>
<svg width="14px" height="14px" viewBox="0 0 14 14" version="1.1" xmlns="http://www.w3.org/2000/svg" xmlns:xlink="http://www.w3.org/1999/xlink">
    <title>点球@2x</title>
    <g id="页面-1" stroke="none" stroke-width="1" fill="none" fill-rule="evenodd">
        <g id="赛果" transform="translate(-214.000000, -603.000000)">
            <g id="编组-4备份" transform="translate(0.000000, 216.000000)">
                <g id="编组-24" transform="translate(0.000000, 323.000000)">
                    <g id="点球" transform="translate(214.000000, 64.000000)">
                        <path d="M9.35454546,0.405912454 C12.1227273,1.39283684 14,4.0352473 14,6.99602046 C14,10.8482092 10.85,14 7,14 C3.15,14 9.9475983e-14,10.8482092 9.9475983e-14,6.99602046 C9.9475983e-14,4.0352473 1.87727273,1.39283684 4.67727273,0.405912454 C6.17272728,-0.135304151 7.85909091,-0.135304151 9.35454546,0.405912454 Z M8.46363636,1.45650938 L7.35000001,2.25241616 C7.12727274,2.41159751 6.80909091,2.41159751 6.58636364,2.25241616 L5.47272727,1.45650938 C5.37727273,1.48834565 5.21818181,1.55201819 5.09090909,1.58385447 C3.88181817,2.02956227 2.86363637,2.85730529 2.19545455,3.87606596 L2.60909091,5.18135304 C2.70454545,5.43604321 2.60909091,5.72256964 2.38636364,5.881751 L1.27272727,6.70949403 L1.27272727,6.99602046 C1.27272727,8.36498009 1.75,9.60659465 2.54545454,10.593519 L3.91363637,10.593519 C4.2,10.593519 4.42272727,10.7845367 4.51818182,11.0392268 L4.93181818,12.3445139 C5.56818182,12.5992041 6.26818181,12.7265492 7,12.7265492 C7.73181819,12.7265492 8.40000001,12.5992041 9.03636363,12.3445139 L9.45000001,11.0392268 C9.54545455,10.7845367 9.76818182,10.593519 10.0545455,10.593519 L11.4227273,10.593519 C12.2181818,9.60659466 12.6954546,8.36498011 12.6954546,6.99602046 L12.6954546,6.70949403 L11.5818182,5.91358727 C11.3590909,5.75440591 11.2636364,5.46787948 11.3590909,5.21318932 L11.8045455,3.87606596 C11.1363636,2.85730529 10.1181818,2.02956227 8.90909091,1.58385447 C8.78181819,1.52018193 8.62272727,1.48834566 8.46363636,1.45650938 Z M7.38181818,4.00341103 L9.73636364,5.69073338 C9.95909091,5.84991474 10.0545455,6.13644117 9.95909091,6.39113133 L9.06818182,9.16088687 C8.97272728,9.41557704 8.75000001,9.60659466 8.46363636,9.60659466 L5.56818182,9.60659466 C5.28181818,9.60659466 5.05909091,9.41557704 4.96363637,9.16088687 L4.07272727,6.39113133 C3.97727272,6.13644116 4.07272727,5.84991472 4.29545455,5.69073338 L6.61818182,4.00341103 C6.84090909,3.84422968 7.15909091,3.84422968 7.38181818,4.00341103 Z M7,5.3405344 L5.4090909,6.48664014 L6.01363637,8.36498011 L7.98636363,8.36498011 L8.5909091,6.48664014 L7,5.3405344 Z" id="形状结合复制-4" fill="#213B5B" fill-rule="nonzero"></path>
                        <g id="编组-11" transform="translate(7.000000, 7.000000)">
                            <rect id="矩形" fill="#40C430" x="0" y="0" width="7" height="7" rx="3.5"></rect>
                            <path d="M3.34181137,5.16594317 C3.16708103,5.34067351 2.88378717,5.34067351 2.70905683,5.16594317 L1.44354776,3.9004341 C1.26881741,3.72570376 1.26881741,3.4424099 1.44354776,3.26767956 C1.6182781,3.09294922 1.90157195,3.09294922 2.07630229,3.26767956 L3.0254341,4.21681137 L4.92369771,2.31854776 C5.09842805,2.14381741 5.3817219,2.14381741 5.55645224,2.31854776 C5.73118259,2.4932781 5.73118259,2.77657195 5.55645224,2.95130229 L3.34181137,5.16594317 L3.34181137,5.16594317 Z" id="路径" fill="#FFFFFF"></path>
                        </g>
                    </g>
                </g>
            </g>
        </g>
    </g>
</svg>