<svg xmlns="http://www.w3.org/2000/svg" width="16" height="16" viewBox="0 0 16 16" fill="none">
  <path fill-rule="evenodd" clip-rule="evenodd" d="M4.82739 15.2605C1.19763 13.7186 -0.753453 9.72046 0.271998 5.89342C1.29539 2.07408 4.97201 -0.411697 8.87964 0.056487C9.28431 0.104971 9.49565 0.558968 9.27248 0.911169L9.22676 0.97087L7.1259 3.34047L7.06604 3.39583C6.88568 3.53761 6.63516 3.55272 6.42417 3.42353L6.34638 3.36208L6.29107 3.30219C6.1495 3.12179 6.13453 2.87127 6.26359 2.66026L6.31254 2.59528L7.62581 1.11209L7.49369 1.11873C4.69233 1.30133 2.25126 3.20483 1.41007 5.92917L1.33804 6.17907C0.455148 9.47405 2.13516 12.9171 5.25897 14.2441C5.53949 14.3632 5.67023 14.6873 5.5511 14.968C5.43196 15.2486 5.10795 15.3796 4.82739 15.2605ZM10.6406 1.65815C10.3601 1.53899 10.2294 1.21487 10.3485 0.934241C10.4677 0.653575 10.7917 0.522568 11.0722 0.641745C14.702 2.18362 16.6531 6.18175 15.6276 10.0088C14.6042 13.8281 10.9276 16.3139 7.01997 15.8457C6.61531 15.7972 6.40396 15.3432 6.62713 14.991L6.67285 14.9313L8.77371 12.5617L8.83358 12.5064C9.01393 12.3646 9.26446 12.3495 9.47544 12.4787L9.55323 12.5401L9.60854 12.6C9.75011 12.7804 9.76508 13.0309 9.63602 13.242L9.58708 13.3069L8.27281 14.7891L8.40592 14.7835C11.2073 14.6009 13.6484 12.6974 14.4895 9.97304L14.5616 9.72314C15.4445 6.42816 13.7645 2.98511 10.6406 1.65815Z" fill="#99A3B1"/>
</svg>