<svg width="123" height="35" viewBox="0 0 123 35" fill="none" xmlns="http://www.w3.org/2000/svg">
<mask id="path-1-outside-1_414_125285" maskUnits="userSpaceOnUse" x="0" y="0.427734" width="35" height="35" fill="black">
<rect fill="white" y="0.427734" width="35" height="35"/>
<path fill-rule="evenodd" clip-rule="evenodd" d="M3.99997 17.5823C3.99997 10.3472 9.91947 4.42773 17.1547 4.42773C24.5212 4.42773 30.3092 10.3472 30.3092 17.5823C30.3092 24.8173 24.3897 30.7369 17.1547 30.7369C14.5236 30.7369 12.0242 29.8161 9.91944 28.5005L11.8927 26.6589C13.4714 27.5798 15.313 28.1061 17.2861 28.1061C23.0742 28.1061 27.8099 23.3704 27.8099 17.5823C27.8099 11.7943 23.0742 7.05869 17.2861 7.05869C11.6296 7.05869 7.15704 11.2682 6.7624 16.793L11.8928 18.3131C7.93757 22.3721 5.91624 24.3308 5.83137 24.1888C4.62817 22.1956 3.99472 19.9105 3.99997 17.5823ZM22.1536 18.7626L16.156 22.5999C15.9224 22.7492 15.6861 22.8224 15.4525 22.8224C14.7919 22.8224 14.3145 22.234 14.3145 21.4203V13.7458C14.3145 12.935 14.7944 12.3438 15.4525 12.3438C15.6861 12.3438 15.9224 12.4197 16.156 12.5661L22.1536 16.4063C22.583 16.6821 22.8318 17.1101 22.8318 17.5831C22.8318 18.056 22.5855 18.4868 22.1536 18.7626Z"/>
</mask>
<path fill-rule="evenodd" clip-rule="evenodd" d="M3.99997 17.5823C3.99997 10.3472 9.91947 4.42773 17.1547 4.42773C24.5212 4.42773 30.3092 10.3472 30.3092 17.5823C30.3092 24.8173 24.3897 30.7369 17.1547 30.7369C14.5236 30.7369 12.0242 29.8161 9.91944 28.5005L11.8927 26.6589C13.4714 27.5798 15.313 28.1061 17.2861 28.1061C23.0742 28.1061 27.8099 23.3704 27.8099 17.5823C27.8099 11.7943 23.0742 7.05869 17.2861 7.05869C11.6296 7.05869 7.15704 11.2682 6.7624 16.793L11.8928 18.3131C7.93757 22.3721 5.91624 24.3308 5.83137 24.1888C4.62817 22.1956 3.99472 19.9105 3.99997 17.5823ZM22.1536 18.7626L16.156 22.5999C15.9224 22.7492 15.6861 22.8224 15.4525 22.8224C14.7919 22.8224 14.3145 22.234 14.3145 21.4203V13.7458C14.3145 12.935 14.7944 12.3438 15.4525 12.3438C15.6861 12.3438 15.9224 12.4197 16.156 12.5661L22.1536 16.4063C22.583 16.6821 22.8318 17.1101 22.8318 17.5831C22.8318 18.056 22.5855 18.4868 22.1536 18.7626Z" fill="white"/>
<path d="M3.99997 17.5823L7.99997 17.5914V17.5823H3.99997ZM9.91944 28.5005L7.19027 25.5762C6.28141 26.4244 5.81859 27.647 5.9379 28.8844C6.05722 30.1219 6.7451 31.2335 7.79928 31.8924L9.91944 28.5005ZM11.8927 26.6589L13.9083 23.2038C12.3829 22.314 10.4546 22.5298 9.16356 23.7346L11.8927 26.6589ZM6.7624 16.793L2.77257 16.508C2.63879 18.3809 3.82575 20.0948 5.62606 20.6282L6.7624 16.793ZM11.8928 18.3131L14.7576 21.1046C15.7354 20.1012 16.1169 18.6592 15.7633 17.3035C15.4097 15.9478 14.3725 14.8759 13.0291 14.4779L11.8928 18.3131ZM5.83137 24.1888L9.26484 22.1366C9.26184 22.1316 9.25883 22.1266 9.25581 22.1216L5.83137 24.1888ZM16.156 22.5999L18.3104 25.9702L18.3118 25.9693L16.156 22.5999ZM22.1536 18.7626L20.0004 15.3916L19.9979 15.3932L22.1536 18.7626ZM16.156 12.5661L18.3129 9.19748C18.3022 9.19064 18.2915 9.18385 18.2807 9.1771L16.156 12.5661ZM22.1536 16.4063L24.3158 13.041L24.3105 13.0376L22.1536 16.4063ZM17.1547 0.427734C7.71036 0.427734 -2.6494e-05 8.13807 -2.6494e-05 17.5823H7.99997C7.99997 12.5564 12.1286 8.42773 17.1547 8.42773V0.427734ZM34.3092 17.5823C34.3092 8.16426 26.7564 0.427734 17.1547 0.427734V8.42773C22.286 8.42773 26.3092 12.5302 26.3092 17.5823H34.3092ZM17.1547 34.7369C26.5988 34.7369 34.3092 27.0264 34.3092 17.5823H26.3092C26.3092 22.6082 22.1805 26.7369 17.1547 26.7369V34.7369ZM7.79928 31.8924C10.3688 33.4986 13.595 34.7369 17.1547 34.7369V26.7369C15.4522 26.7369 13.6795 26.1337 12.0396 25.1086L7.79928 31.8924ZM9.16356 23.7346L7.19027 25.5762L12.6486 31.4249L14.6219 29.5833L9.16356 23.7346ZM17.2861 24.1061C16.0335 24.1061 14.8858 23.7741 13.9083 23.2038L9.8772 30.114C12.0569 31.3855 14.5924 32.1061 17.2861 32.1061V24.1061ZM23.8099 17.5823C23.8099 21.1612 20.865 24.1061 17.2861 24.1061V32.1061C25.2833 32.1061 31.8099 25.5795 31.8099 17.5823H23.8099ZM17.2861 11.0587C20.8651 11.0587 23.8099 14.0035 23.8099 17.5823H31.8099C31.8099 9.58508 25.2833 3.05869 17.2861 3.05869V11.0587ZM10.7522 17.078C10.997 13.6514 13.7231 11.0587 17.2861 11.0587V3.05869C9.53614 3.05869 3.31709 8.88487 2.77257 16.508L10.7522 17.078ZM13.0291 14.4779L7.89875 12.9578L5.62606 20.6282L10.7564 22.1483L13.0291 14.4779ZM2.3979 26.2409C3.25591 27.6765 4.6708 28.1403 5.63725 28.1905C6.43477 28.232 7.03856 28.0232 7.25421 27.9436C7.73973 27.7645 8.09094 27.5269 8.18836 27.4613C8.46565 27.2746 8.71464 27.0649 8.87084 26.9302C9.22557 26.6242 9.67789 26.1994 10.1947 25.6985C11.2476 24.6779 12.7742 23.1401 14.7576 21.1046L9.02794 15.5215C7.05614 17.5451 5.5945 19.0161 4.62674 19.9541C4.13316 20.4325 3.81703 20.7245 3.64529 20.8726C3.53826 20.965 3.58451 20.9168 3.71956 20.8258C3.74587 20.8081 4.04108 20.6019 4.48573 20.4379C4.68095 20.3659 5.26809 20.1605 6.05275 20.2013C7.00633 20.2509 8.41213 20.7099 9.26484 22.1366L2.3979 26.2409ZM-1.63243e-05 17.5733C-0.00691626 20.6332 0.825598 23.6363 2.40692 26.2559L9.25581 22.1216C8.43074 20.7548 7.99636 19.1879 7.99996 17.5914L-1.63243e-05 17.5733ZM18.3118 25.9693L24.3094 22.132L19.9979 15.3932L14.0003 19.2305L18.3118 25.9693ZM15.4525 26.8224C16.559 26.8224 17.5323 26.4676 18.3104 25.9702L14.0017 19.2296C14.3125 19.0309 14.8132 18.8224 15.4525 18.8224V26.8224ZM10.3145 21.4203C10.3145 23.6226 11.8432 26.8224 15.4525 26.8224V18.8224C16.4067 18.8224 17.2353 19.2821 17.7416 19.9058C18.2101 20.4831 18.3145 21.0667 18.3145 21.4203H10.3145ZM10.3145 13.7458V21.4203H18.3145V13.7458H10.3145ZM15.4525 8.34375C11.846 8.34375 10.3145 11.546 10.3145 13.7458H18.3145C18.3145 14.1085 18.2066 14.6897 17.7424 15.2616C17.2429 15.877 16.4175 16.3438 15.4525 16.3438V8.34375ZM18.2807 9.1771C17.5451 8.71591 16.5823 8.34375 15.4525 8.34375V16.3438C14.7899 16.3438 14.2997 16.1234 14.0313 15.9552L18.2807 9.1771ZM24.3105 13.0376L18.3129 9.19748L13.9992 15.9348L19.9968 19.7749L24.3105 13.0376ZM26.8318 17.5831C26.8318 15.606 25.7651 13.9722 24.3158 13.041L19.9915 19.7715C19.4008 19.392 18.8318 18.6141 18.8318 17.5831H26.8318ZM24.3068 22.1337C25.785 21.1895 26.8318 19.5404 26.8318 17.5831H18.8318C18.8318 16.5715 19.386 15.7841 20.0004 15.3916L24.3068 22.1337Z" fill="#484848" fill-opacity="0.4" mask="url(#path-1-outside-1_414_125285)"/>
<path d="M50.2439 9.31381C51.8375 9.31381 53.0928 9.72724 54.0099 10.5541C54.942 11.3659 55.4081 12.516 55.4081 14.0044C55.4081 15.2371 55.0848 16.2444 54.4384 17.0262C53.807 17.8079 52.9124 18.3116 51.7548 18.5371C52.6268 19.4992 53.401 20.499 54.0776 21.5363C54.7541 22.5736 55.4005 23.7613 56.0169 25.0993H52.5892C51.8826 23.6711 51.2287 22.491 50.6273 21.5589C50.0259 20.6268 49.2442 19.6721 48.282 18.6949H46.6584V25.0993H42.9375V9.31381H50.2439ZM49.9733 16.1016C50.7401 16.1016 51.3339 15.8986 51.7548 15.4927C52.1758 15.0868 52.3863 14.5907 52.3863 14.0044C52.3863 13.403 52.1683 12.9069 51.7323 12.516C51.3113 12.1101 50.725 11.9071 49.9733 11.9071H46.6584V16.1016H49.9733Z" fill="white"/>
<path d="M68.4512 24.4454C67.8799 24.7911 67.2109 25.0467 66.4442 25.2121C65.6925 25.3775 64.9633 25.4601 64.2568 25.4601C61.8513 25.4601 60.0247 24.8889 58.7769 23.7463C57.5442 22.6037 56.9278 21.0026 56.9278 18.943C56.9278 16.8984 57.4765 15.3349 58.574 14.2524C59.6865 13.155 61.1974 12.6062 63.1067 12.6062C65.0009 12.6062 66.4968 13.155 67.5943 14.2524C68.7068 15.3349 69.263 16.8984 69.263 18.943C69.263 19.1685 69.248 19.4917 69.2179 19.9127H60.4457C60.7764 21.852 62.0468 22.8217 64.2568 22.8217C65.8052 22.8217 67.2034 22.3632 68.4512 21.4461V24.4454ZM65.8579 17.387C65.6624 16.6353 65.3242 16.079 64.8431 15.7182C64.362 15.3574 63.7832 15.177 63.1067 15.177C62.4752 15.177 61.934 15.3649 61.483 15.7408C61.047 16.1166 60.7388 16.6654 60.5584 17.387H65.8579Z" fill="white"/>
<path d="M70.6256 30.2409C70.806 29.7297 70.9263 29.0156 70.9864 28.0986C71.0465 27.1815 71.0766 26.3471 71.0766 25.5954V12.9219H74.6847V14.0495C75.1808 13.5985 75.722 13.2527 76.3084 13.0121C76.9097 12.7566 77.5111 12.6288 78.1124 12.6288C79.2249 12.6288 80.1946 12.8994 81.0215 13.4406C81.8634 13.9818 82.5098 14.741 82.9608 15.7182C83.4269 16.6804 83.6599 17.7854 83.6599 19.0332C83.6599 20.281 83.4344 21.386 82.9834 22.3481C82.5324 23.2953 81.8859 24.0394 81.044 24.5807C80.2021 25.1219 79.2249 25.3925 78.1124 25.3925C76.7594 25.3925 75.6168 25.0016 74.6847 24.2198V25.5954C74.6847 26.3922 74.6396 27.2416 74.5494 28.1437C74.4742 29.0607 74.369 29.7598 74.2337 30.2409H70.6256ZM74.6847 21.2883C75.0004 21.9046 75.3988 22.3106 75.8799 22.506C76.376 22.7014 76.827 22.7992 77.2329 22.7992C77.7441 22.7992 78.2252 22.6338 78.6762 22.303C79.1422 21.9573 79.5106 21.4987 79.7812 20.9274C80.0668 20.3562 80.2096 19.7247 80.2096 19.0332C80.2096 18.3266 80.0668 17.6877 79.7812 17.1164C79.5106 16.53 79.1422 16.0715 78.6762 15.7408C78.2252 15.41 77.7441 15.2447 77.2329 15.2447C76.827 15.2447 76.376 15.3424 75.8799 15.5378C75.3988 15.7333 75.0004 16.1392 74.6847 16.7556V21.2883Z" fill="white"/>
<path d="M89.4512 25.2797C88.0982 25.2797 87.0759 24.9039 86.3843 24.1522C85.6928 23.3855 85.347 22.2655 85.347 20.7921V7.75781H88.9551V19.8901C88.9551 20.4915 89.0002 20.95 89.0904 21.2657C89.1806 21.5814 89.3309 21.822 89.5414 21.9873C89.7068 22.1226 89.8872 22.2128 90.0826 22.2579C90.2931 22.288 90.6539 22.303 91.1651 22.303V25.2797H89.4512Z" fill="white"/>
<path d="M97.7129 25.3925C96.5703 25.3925 95.5706 25.1219 94.7136 24.5807C93.8717 24.0394 93.2178 23.2953 92.7517 22.3481C92.3007 21.401 92.0752 20.296 92.0752 19.0332C92.0752 17.7854 92.3007 16.6804 92.7517 15.7182C93.2178 14.741 93.8642 13.9818 94.6911 13.4406C95.533 12.8994 96.5102 12.6288 97.6227 12.6288C98.1338 12.6288 98.645 12.7265 99.1561 12.9219C99.6823 13.1023 100.171 13.3579 100.622 13.6887V12.9219H104.23V22.2579C104.23 23.4757 104.38 24.4228 104.681 25.0993H101.298C101.193 24.8889 101.103 24.6182 101.028 24.2875C100.096 25.0242 98.9908 25.3925 97.7129 25.3925ZM95.5255 19.0332C95.5255 19.7247 95.6608 20.3562 95.9314 20.9274C96.217 21.4987 96.5854 21.9573 97.0364 22.303C97.5024 22.6338 97.991 22.7992 98.5022 22.7992C98.863 22.7992 99.2689 22.724 99.7199 22.5736C100.171 22.4083 100.562 22.0625 100.893 21.5363V16.4849C100.562 15.9588 100.171 15.6205 99.7199 15.4702C99.2839 15.3198 98.878 15.2447 98.5022 15.2447C97.991 15.2447 97.5024 15.41 97.0364 15.7408C96.5854 16.0715 96.217 16.53 95.9314 17.1164C95.6608 17.6877 95.5255 18.3266 95.5255 19.0332Z" fill="white"/>
<path d="M114.607 25.3925C114.11 26.971 113.246 28.1512 112.013 28.933C110.78 29.7448 108.954 30.1808 106.533 30.2409V27.3319C107.556 27.3319 108.443 27.2191 109.194 26.9936C109.886 26.7681 110.39 26.4674 110.705 26.0916C111.036 25.7157 111.284 25.2271 111.449 24.6258L111.743 23.5884H109.758L105.361 12.9219H109.037L112.329 21.4687L114.719 12.9219H118.463L114.607 25.3925Z" fill="white"/>
<path fill-rule="evenodd" clip-rule="evenodd" d="M50.4175 11.9336C50.9602 12 51.3987 12.1944 51.7329 12.5167C51.8301 12.6038 51.9164 12.6961 51.9919 12.7936C52.0027 12.8076 52.0133 12.8217 52.0237 12.8359C52.2658 13.1672 52.3869 13.5569 52.3869 14.005C52.3869 14.4072 52.2879 14.7669 52.0898 15.0842C52.0836 15.0942 52.0773 15.1041 52.0708 15.114C51.9837 15.2482 51.8786 15.3746 51.7555 15.4934C51.6037 15.6398 51.4294 15.7598 51.2326 15.8534C51.1238 15.9051 51.0081 15.9488 50.8856 15.9844C50.7394 16.0269 50.5833 16.0579 50.4175 16.0774C50.2767 16.0939 50.1289 16.1022 49.974 16.1022H46.659V11.9078H49.974C50.0667 11.9078 50.1569 11.9109 50.2446 11.9171C50.3033 11.9212 50.361 11.9267 50.4175 11.9336ZM42.9381 9.31446H50.2446C51.6717 9.31446 52.8275 9.64602 53.7121 10.3092C53.741 10.3308 53.7696 10.3528 53.7979 10.3752C53.8707 10.4327 53.9416 10.4926 54.0106 10.5547C54.5769 11.048 54.9711 11.6661 55.1934 12.409C55.3369 12.8889 55.4087 13.4209 55.4087 14.005C55.4087 14.9233 55.2294 15.7164 54.8707 16.3844C54.7478 16.6132 54.6039 16.8274 54.439 17.0268C54.2558 17.2537 54.0503 17.4572 53.8228 17.6372C53.6304 17.7894 53.4222 17.9248 53.1981 18.0435C53.0869 18.1024 52.9719 18.1572 52.8529 18.2079C52.518 18.3505 52.1522 18.4604 51.7555 18.5377C52.0127 18.8215 52.2614 19.1086 52.5016 19.3989C52.6733 19.6065 52.8407 19.8158 53.0037 20.0267C53.085 20.1319 53.1652 20.2374 53.2443 20.3434C53.4897 20.6721 53.7247 21.0048 53.9493 21.3415C53.9927 21.4065 54.0356 21.4717 54.0782 21.537C54.1175 21.5972 54.1567 21.658 54.1958 21.7193C54.5912 22.339 54.9762 23.0105 55.3509 23.734C55.5769 24.1704 55.7991 24.6258 56.0176 25.1H52.5899C52.2409 24.3946 51.9047 23.7497 51.5814 23.1653C51.2501 22.5665 50.9323 22.0312 50.6279 21.5595C50.5601 21.4543 50.4899 21.3489 50.4175 21.2431C50.215 20.9475 49.9945 20.6497 49.7561 20.3496C49.6272 20.1873 49.493 20.0243 49.3535 19.8607C49.0256 19.4759 48.6686 19.0876 48.2827 18.6956H46.659V25.1H42.9381V9.31446ZM49.6245 27.4094C48.9367 28.2913 47.8641 28.8584 46.659 28.8584H42.9381C40.8624 28.8584 39.1797 27.1757 39.1797 25.1V9.31446C39.1797 7.23872 40.8624 5.556 42.9381 5.556H50.2446C52.4799 5.556 54.718 6.14478 56.5034 7.74191C57.2426 8.39102 57.8098 9.1313 58.2269 9.9303C59.7216 9.1769 61.3889 8.84841 63.1073 8.84841C65.0155 8.84841 66.8612 9.25838 68.4731 10.2125C69.1486 9.56323 70.0663 9.16412 71.0772 9.16412H74.6854C74.997 9.16412 75.2998 9.20205 75.5893 9.27354C76.3949 9.01362 77.2397 8.87096 78.1131 8.87096C79.3079 8.87096 80.4823 9.07397 81.5892 9.51855V7.75846C81.5892 5.68272 83.2719 4 85.3476 4H88.9557C91.0315 4 92.7142 5.68272 92.7142 7.75846V10.2447C94.2148 9.29568 95.8944 8.87096 97.6233 8.87096C98.4263 8.87096 99.2059 8.99528 99.952 9.22376C100.17 9.18458 100.394 9.16412 100.623 9.16412H104.231C104.423 9.16412 104.613 9.17862 104.798 9.2066C104.983 9.17852 105.171 9.16412 105.361 9.16412H109.037C110.148 9.16412 111.178 9.65322 111.879 10.4621C112.576 9.65709 113.603 9.16412 114.72 9.16412H118.463C119.657 9.16412 120.78 9.73112 121.488 10.6918C122.197 11.6524 122.407 12.8925 122.054 14.0329L118.193 26.52C117.471 28.8153 116.12 30.7704 114.053 32.0906C111.973 33.4498 109.334 33.9316 106.627 33.9988C105.615 34.024 104.635 33.6393 103.91 32.932C103.184 32.2246 102.776 31.2545 102.776 30.2415V28.8584H101.299C101.007 28.8584 100.721 28.8247 100.444 28.7601C99.5692 29.0235 98.6532 29.1516 97.7135 29.1516C96.2577 29.1516 94.833 28.8607 93.5171 28.2126C92.8733 28.7296 92.0556 29.0388 91.1657 29.0388H89.4519C87.5588 29.0388 85.5574 28.5365 83.9902 27.0718C83.7032 27.312 83.3988 27.536 83.0771 27.7428C81.5963 28.6948 79.9385 29.132 78.2297 29.1509C78.1481 29.9001 78.031 30.6241 77.8524 31.2591C77.3965 32.8801 75.9182 34 74.2343 34H70.6262C69.4065 34 68.2625 33.4081 67.558 32.4123C66.8535 31.4166 66.6761 30.1409 67.082 28.9907C67.0815 28.9922 67.0894 28.969 67.1022 28.9157C66.158 29.1135 65.208 29.2192 64.2574 29.2192C62.2041 29.2192 60.1838 28.8805 58.4084 28C57.7442 28.5475 56.9019 28.8584 56.0176 28.8584H52.5899C51.4173 28.8584 50.3279 28.3128 49.6245 27.4094ZM85.545 22.5192C85.6739 23.0171 85.866 23.4505 86.1213 23.8194C86.1294 23.8311 86.1376 23.8428 86.1458 23.8544C86.2015 23.9327 86.26 24.008 86.3214 24.0803C86.3423 24.1048 86.3634 24.129 86.385 24.1528C86.4566 24.2307 86.5318 24.3045 86.6105 24.3743C86.7988 24.5413 87.0075 24.6852 87.2364 24.806C87.2579 24.8174 87.2797 24.8285 87.3016 24.8395C87.3364 24.8569 87.3716 24.8738 87.4073 24.8901C87.9586 25.1431 88.6182 25.2731 89.386 25.2801C89.4079 25.2803 89.4298 25.2804 89.4519 25.2804H91.1657V22.3037C90.6546 22.3037 90.2937 22.2886 90.0833 22.2586C89.8878 22.2135 89.7074 22.1233 89.5421 21.988C89.5107 21.9633 89.4806 21.9369 89.4519 21.9089C89.3409 21.8007 89.25 21.6676 89.179 21.5095C89.1712 21.4922 89.1637 21.4747 89.1564 21.4568C89.1319 21.3967 89.1101 21.3332 89.091 21.2663C89.0531 21.1337 89.0232 20.9758 89.0012 20.7928C88.9709 20.5401 88.9557 20.2395 88.9557 19.8908V7.75846H85.3476V20.7928C85.3476 21.3426 85.3958 21.8432 85.4921 22.2946C85.5084 22.3709 85.526 22.4457 85.545 22.5192ZM81.0221 13.4412C80.8726 13.3434 80.7184 13.2543 80.5595 13.1742C80.5446 13.1666 80.5296 13.1592 80.5146 13.1518C79.8918 12.8457 79.198 12.6741 78.4331 12.6371C78.3278 12.632 78.2211 12.6294 78.1131 12.6294C77.8199 12.6294 77.5267 12.6598 77.2336 12.7205C77.0009 12.7687 76.7682 12.8361 76.5355 12.9226C76.46 12.9506 76.3845 12.9807 76.309 13.0128C75.899 13.181 75.5111 13.4006 75.1452 13.6718C75.1393 13.6761 75.1334 13.6805 75.1275 13.6849C75.0286 13.7588 74.9314 13.8364 74.8357 13.9178C74.7851 13.9609 74.735 14.005 74.6854 14.0501V12.9226H71.0772V25.5961C71.0772 25.88 71.0729 26.1756 71.0644 26.4831C71.0581 26.7067 71.0496 26.9365 71.0389 27.1725C71.0297 27.3738 71.0188 27.5796 71.0064 27.79C71.0051 27.8111 71.0038 27.8323 71.0025 27.8535C70.9976 27.9348 70.9924 28.0167 70.987 28.0992C70.9578 28.5445 70.9144 28.942 70.8569 29.2916C70.7959 29.662 70.719 29.9786 70.6262 30.2415H74.2343C74.3533 29.8185 74.4491 29.2268 74.5215 28.4666C74.5258 28.4222 74.5299 28.3773 74.534 28.3318C74.5395 28.2704 74.5448 28.2079 74.55 28.1443C74.6225 27.4193 74.6659 26.7283 74.6801 26.0713C74.6836 25.9108 74.6854 25.7525 74.6854 25.5961V24.2205C74.7349 24.262 74.785 24.3025 74.8357 24.3418C74.9113 24.4004 74.9883 24.4566 75.0665 24.5104C75.073 24.5148 75.0795 24.5192 75.086 24.5236C75.7165 24.9522 76.4324 25.2223 77.2336 25.334C77.5161 25.3734 77.8093 25.3931 78.1131 25.3931C78.2247 25.3931 78.3349 25.3904 78.4438 25.385C79.2146 25.3464 79.9171 25.1714 80.5514 24.8599C80.5567 24.8572 80.5621 24.8546 80.5675 24.8519C80.7311 24.7708 80.8902 24.6806 81.0447 24.5813C81.3974 24.3546 81.7158 24.0922 81.9999 23.7942C82.359 23.4176 82.6633 22.984 82.9128 22.4936C82.924 22.4715 82.9351 22.4493 82.9461 22.427C82.9589 22.4011 82.9715 22.375 82.984 22.3488C83.2103 21.8661 83.3798 21.3474 83.4926 20.7928C83.6045 20.2419 83.6605 19.6556 83.6605 19.0338C83.6605 17.786 83.4275 16.681 82.9615 15.7189C82.9527 15.6998 82.9438 15.6807 82.9348 15.6618C82.9193 15.629 82.9035 15.5965 82.8875 15.5642C82.553 14.8879 82.1202 14.3211 81.5892 13.864C81.4112 13.7108 81.2222 13.5698 81.0221 13.4412ZM79.7818 17.117C79.6275 16.7827 79.4415 16.49 79.2237 16.2388C79.2175 16.2316 79.2112 16.2245 79.205 16.2174C79.0456 16.0369 78.8696 15.8782 78.6768 15.7414C78.4939 15.6072 78.3059 15.5003 78.1131 15.4205C77.8381 15.3068 77.553 15.2485 77.2579 15.2454C77.2498 15.2453 77.2417 15.2453 77.2336 15.2453C77.2307 15.2453 77.2278 15.2453 77.2249 15.2453C76.8535 15.2466 76.4445 15.3294 75.9978 15.4938C75.959 15.5081 75.9199 15.523 75.8805 15.5385C75.4729 15.7041 75.1246 16.0208 74.8357 16.4887C74.7837 16.5729 74.7335 16.6621 74.6854 16.7562V21.2889C74.7335 21.383 74.7837 21.4722 74.8357 21.5564C75.1246 22.0243 75.4729 22.341 75.8805 22.5066C75.9427 22.5311 76.0042 22.5541 76.065 22.5755C76.489 22.725 76.8786 22.7998 77.2336 22.7998C77.5374 22.7998 77.8305 22.7414 78.1131 22.6246C78.3059 22.5448 78.4939 22.4379 78.6768 22.3037C78.8842 22.1499 79.0721 21.9737 79.2408 21.7753C79.4512 21.5276 79.6316 21.2452 79.7818 20.9281C79.7927 20.9064 79.8033 20.8846 79.8138 20.8627C79.8168 20.8563 79.8199 20.8499 79.8229 20.8435C80.0811 20.2946 80.2103 19.6914 80.2103 19.0338C80.2103 18.3744 80.0859 17.7738 79.8371 17.2322C79.8281 17.2126 79.8189 17.1931 79.8095 17.1736C79.8005 17.1547 79.7912 17.1358 79.7818 17.117ZM69.2186 19.9133C69.2471 19.5138 69.2621 19.2023 69.2635 18.9788C69.2636 18.9668 69.2637 18.9551 69.2637 18.9436C69.2637 18.6075 69.2486 18.2844 69.2186 17.9743C69.2116 17.903 69.2039 17.8324 69.1954 17.7625C69.1446 17.3444 69.0654 16.9508 68.9577 16.5818C68.9151 16.4356 68.8679 16.2933 68.8164 16.1548C68.5386 15.409 68.1314 14.7751 67.5949 14.2531C67.5055 14.1637 67.4135 14.0779 67.3188 13.9958C67.0796 13.7883 66.8235 13.6041 66.5505 13.4431C65.6052 12.8856 64.4574 12.6069 63.1073 12.6069C61.7262 12.6069 60.5535 12.894 59.5894 13.4682C59.575 13.4768 59.5606 13.4854 59.5463 13.4941C59.415 13.574 59.2876 13.6594 59.1641 13.7501C59.0542 13.8308 58.9474 13.9158 58.8437 14.005C58.7515 14.0843 58.6618 14.167 58.5746 14.2531C57.9526 14.8666 57.5068 15.6346 57.2374 16.5572C57.0739 17.117 56.9753 17.7336 56.9415 18.4072C56.9388 18.4624 56.9365 18.518 56.9346 18.574C56.9305 18.6954 56.9284 18.8186 56.9284 18.9436C56.9284 18.9751 56.9286 19.0064 56.9288 19.0377C56.9288 19.0376 56.9288 19.0377 56.9288 19.0377C56.929 19.0538 56.9292 19.0701 56.9294 19.0862C56.9321 19.282 56.9406 19.4736 56.9547 19.661C56.9592 19.7205 56.9643 19.7797 56.9699 19.8384C56.9914 20.0621 57.0212 20.2796 57.0594 20.4909C57.3002 21.8232 57.8729 22.9085 58.7776 23.7469C58.7974 23.7651 58.8173 23.7831 58.8375 23.8009C59.1049 24.0384 59.3981 24.2504 59.7171 24.4369C60.8848 25.1195 62.3982 25.4608 64.2574 25.4608C64.964 25.4608 65.6931 25.3781 66.4448 25.2127C66.7518 25.1465 67.0431 25.0658 67.3188 24.9707C67.7316 24.8282 68.1093 24.6533 68.4518 24.446V21.4468C68.087 21.7149 67.7093 21.9438 67.3188 22.1336C67.2498 22.167 67.1805 22.1993 67.1108 22.2304C66.7166 22.4059 66.3096 22.5423 65.8899 22.6398C65.8864 22.6406 65.8828 22.6414 65.8793 22.6422C65.4947 22.7309 65.0994 22.7868 64.6934 22.81C64.5494 22.8182 64.4041 22.8223 64.2574 22.8223C62.696 22.8223 61.6037 22.3383 60.9803 21.3703C60.9767 21.3646 60.973 21.3589 60.9694 21.3532C60.9271 21.2864 60.8869 21.2174 60.8489 21.1461C60.731 20.9245 60.6344 20.681 60.5591 20.4156C60.5138 20.2561 60.4762 20.0886 60.4463 19.9133H69.2186ZM65.285 16.1548C65.344 16.2307 65.3996 16.3111 65.4518 16.3962C65.4593 16.4083 65.4667 16.4206 65.474 16.4329C65.6357 16.7053 65.7638 17.0235 65.8585 17.3876H60.5591C60.6352 17.0829 60.7342 16.8091 60.8559 16.5661C60.8559 16.5662 60.856 16.566 60.8559 16.5661C60.9303 16.4176 61.0133 16.2803 61.1047 16.1548C61.218 15.9994 61.3443 15.8616 61.4837 15.7414C61.9347 15.3656 62.4759 15.1776 63.1073 15.1776C63.7838 15.1776 64.3626 15.3581 64.8437 15.7189C65.0073 15.8416 65.1544 15.9869 65.285 16.1548ZM107.748 27.2731C107.367 27.3127 106.963 27.3325 106.534 27.3325V30.2415C107.886 30.208 109.052 30.0572 110.034 29.7892C110.056 29.783 110.078 29.7769 110.1 29.7706C110.165 29.7524 110.229 29.7337 110.292 29.7144C110.957 29.5118 111.531 29.2515 112.014 28.9336C112.382 28.7004 112.717 28.4317 113.019 28.1276C113.036 28.1108 113.052 28.0939 113.069 28.0769C113.73 27.3946 114.23 26.5383 114.57 25.5082C114.573 25.5009 114.575 25.4937 114.577 25.4864C114.587 25.4555 114.597 25.4244 114.607 25.3931L118.463 12.9226H114.72L112.33 21.4693L109.037 12.9226H105.361L109.759 23.5891H111.743L111.45 24.6264C111.406 24.7871 111.356 24.9397 111.3 25.0842C111.146 25.4808 110.948 25.8168 110.706 26.0922C110.618 26.1966 110.516 26.2951 110.4 26.3879C110.386 26.3986 110.372 26.4093 110.358 26.4198C110.188 26.5498 109.988 26.6681 109.759 26.7747C109.587 26.8544 109.399 26.9276 109.195 26.9942C108.993 27.0548 108.782 27.1072 108.56 27.1515C108.303 27.203 108.032 27.2435 107.748 27.2731ZM104.231 12.9226H100.623V13.6893C100.573 13.6529 100.523 13.6174 100.472 13.5828C100.445 13.5642 100.418 13.546 100.39 13.5279C100.384 13.5239 100.378 13.5199 100.372 13.5159C99.9922 13.2679 99.587 13.0701 99.1568 12.9226C98.9388 12.8392 98.7208 12.7737 98.5028 12.7258C98.2096 12.6616 97.9165 12.6294 97.6233 12.6294C97.3657 12.6294 97.1154 12.6439 96.8723 12.6729C96.2709 12.7447 95.7139 12.9053 95.2013 13.1547C95.1863 13.162 95.1713 13.1694 95.1563 13.1769C94.9971 13.2563 94.8423 13.3445 94.6917 13.4412C93.8996 13.9597 93.273 14.6783 92.812 15.597C92.8063 15.6083 92.8006 15.6197 92.795 15.6311C92.7806 15.6601 92.7664 15.6894 92.7524 15.7189C92.7395 15.7464 92.7267 15.7741 92.7142 15.8018C92.3331 16.6458 92.1227 17.5978 92.0828 18.6579C92.0782 18.7817 92.0758 18.907 92.0758 19.0338C92.0758 19.096 92.0764 19.1579 92.0775 19.2193C92.0816 19.4485 92.0933 19.6723 92.1126 19.8908C92.1274 20.0591 92.1468 20.2244 92.1708 20.3864C92.2737 21.0842 92.4605 21.7233 92.7311 22.3037C92.7381 22.3188 92.7452 22.3338 92.7524 22.3488C92.7638 22.3719 92.7753 22.395 92.7869 22.4179C92.7981 22.4399 92.8094 22.4619 92.8207 22.4837C93.2816 23.3669 93.9128 24.0661 94.7143 24.5813C94.7833 24.6249 94.8533 24.6668 94.9242 24.7068C94.9873 24.7425 95.0511 24.7768 95.1157 24.8097C95.1507 24.8276 95.186 24.845 95.2214 24.862C95.8819 25.1792 96.6175 25.3544 97.428 25.3874C97.5222 25.3912 97.6173 25.3931 97.7135 25.3931C97.9844 25.3931 98.2475 25.3766 98.5028 25.3435C99.2031 25.2527 99.8449 25.0375 100.428 24.6977C100.448 24.6864 100.467 24.6749 100.487 24.6633C100.54 24.631 100.594 24.5976 100.646 24.5632C100.777 24.478 100.904 24.3864 101.028 24.2881C101.104 24.6189 101.194 24.8895 101.299 25.1H104.682C104.57 24.8482 104.479 24.559 104.409 24.2324C104.366 24.0345 104.331 23.823 104.304 23.5976C104.302 23.5802 104.3 23.5627 104.298 23.5452C104.285 23.4329 104.274 23.3173 104.265 23.1983C104.243 22.9236 104.232 22.631 104.231 22.3206C104.231 22.3 104.231 22.2793 104.231 22.2586V12.9226ZM100.893 16.4856C100.807 16.3486 100.717 16.2243 100.623 16.1128C100.574 16.0548 100.523 16.0003 100.472 15.9492C100.244 15.7211 99.9931 15.5616 99.7205 15.4708C99.6085 15.4322 99.4984 15.3985 99.3902 15.3698C99.0778 15.2868 98.782 15.2453 98.5028 15.2453C98.4546 15.2453 98.4067 15.2468 98.3589 15.2497C98.3272 15.2517 98.2956 15.2543 98.264 15.2575C98.0462 15.2799 97.8327 15.3332 97.6233 15.4173C97.4241 15.4974 97.2286 15.6054 97.037 15.7414C96.848 15.88 96.6735 16.0411 96.5135 16.2246C96.5073 16.2317 96.5011 16.2389 96.4949 16.2461C96.2809 16.4957 96.0933 16.786 95.932 17.117C95.9201 17.1422 95.9084 17.1675 95.897 17.1929C95.8939 17.2 95.8907 17.2071 95.8876 17.2141C95.6466 17.7604 95.5261 18.367 95.5261 19.0338C95.5261 19.6783 95.6436 20.2705 95.8786 20.8105C95.8846 20.8242 95.8906 20.8378 95.8967 20.8515C95.9082 20.8771 95.92 20.9027 95.932 20.9281C96.0909 21.2459 96.2754 21.5288 96.4855 21.7768C96.4915 21.7839 96.4975 21.791 96.5036 21.798C96.6662 21.9872 96.8441 22.1558 97.037 22.3037C97.2575 22.4601 97.483 22.5796 97.7135 22.662C97.9704 22.7539 98.2334 22.7998 98.5028 22.7998C98.8537 22.7998 99.2473 22.7287 99.6836 22.5865C99.6959 22.5825 99.7082 22.5784 99.7205 22.5743C99.9931 22.4744 100.244 22.3086 100.472 22.0769C100.622 21.9252 100.762 21.7452 100.893 21.537V16.4856Z" fill="#484848" fill-opacity="0.4"/>
</svg>
