<?xml version="1.0" encoding="UTF-8"?>
<svg width="16px" height="15px" viewBox="0 0 16 15" version="1.1" xmlns="http://www.w3.org/2000/svg" xmlns:xlink="http://www.w3.org/1999/xlink">
    <!-- Generator: Sketch 61.1 (89650) - https://sketch.com -->
    <title>加时点球</title>
    <desc>Created with Sketch.</desc>
    <g id="页面-1" stroke="none" stroke-width="1" fill="none" fill-rule="evenodd">
        <path d="M6.9399726,2.3501201e-12 C7.84134247,2.3501201e-12 8.71969863,0.170876712 9.55126027,0.507835616 C10.4127397,0.856876712 11.1848493,1.37008219 11.8470685,2.03230137 C12.5092877,2.69452055 13.0224932,3.46739726 13.3715342,4.32810959 C13.6010368,4.89448572 13.7534943,5.4827476 13.8273921,6.08513906 C13.5816225,5.95733039 13.3258899,5.84994916 13.0606349,5.76484631 C11.6172821,5.27595035 10.120282,5.48617955 8.91776506,6.21214574 L7.32027397,6.37728767 C7.16780822,6.67358904 7.01515068,6.97008219 6.85980822,7.26465753 L6.51515411,7.91560959 L6.51515411,7.91560959 L6.16747945,8.56512329 L6.62325438,9.3562039 C6.57002346,9.5839382 6.53565194,9.81667247 6.51707403,10.0513302 L5.83263014,8.86583562 C5.80021918,8.86238356 5.76224658,8.85682192 5.71679452,8.85049315 C4.93893151,8.73734247 4.16643836,8.59293151 3.40736986,8.38983562 L3.35935274,8.37756164 L3.35935274,8.37756164 L3.31665753,8.3670137 L2.10326027,10.2694795 C2.16367123,10.4016164 2.24326027,10.5245479 2.31460274,10.6511233 C2.52474658,11.0243767 2.76067295,11.3796147 3.01841738,11.7195882 L3.28328767,12.0545753 L6.38131507,12.6067123 C6.42926027,12.5512877 6.47528767,12.4954795 6.51863014,12.4373699 L6.75811348,12.1138364 L6.75811348,12.1138364 C6.97972359,12.7655108 7.34932293,13.3558401 7.81213648,13.871409 L7.88305421,13.9425271 C8.26289133,14.3374556 8.69155929,14.6582472 9.15024047,14.903792 C8.49993537,14.9651609 7.77031048,15 7,15 C4.23857625,15 2,14.5522847 2,14 C2,13.6768118 2.76657871,13.3894324 3.95592027,13.206625 C3.24366661,12.8687761 2.59813816,12.4123019 2.03268493,11.8466849 C1.37027397,11.1844658 0.857452055,10.4117808 0.508219178,9.55087671 C0.171068493,8.71969863 4.68602934e-12,7.8409589 4.68602934e-12,6.93978082 C4.68602934e-12,6.03841096 0.171068493,5.15967123 0.508219178,4.32810959 C0.857452055,3.46739726 1.37008219,2.69471233 2.03268493,2.03230137 C2.69509589,1.37008219 3.46758904,0.856876712 4.32849315,0.507835616 C5.16005479,0.170876712 6.03860274,2.3501201e-12 6.9399726,2.3501201e-12 Z M12.9045714,6.23836168 C13.7024814,6.49435839 14.4046525,6.97434151 14.9472302,7.6143333 C16.4792243,9.47031664 16.3196452,12.1582821 14.5961447,13.7582545 C12.8646721,15.4322538 10.1447563,15.3944703 8.40953339,13.7612997 L8.24474879,13.5982744 L8.18092283,13.5342681 C7.60641791,12.8942763 7.1915064,12.1262861 7.06384022,11.2622936 C7.03192724,11.0062969 7,10.7503002 7,10.4943035 C7,10.0143204 7.06384022,9.53432296 7.22341937,9.08632156 C8.02132942,6.7183448 10.5427542,5.43836122 12.9045714,6.23836168 Z M9.29646437,11.7135527 C9.21893133,11.7454781 9.13911791,11.8526561 9.0570241,12.0350868 C9.00685566,12.1536668 8.93958435,12.2870692 8.85521016,12.4352941 C8.77083597,12.583519 8.6830412,12.7169215 8.59182586,12.8355014 C8.46868515,12.9951283 8.40483441,13.1216896 8.40027365,13.2151853 C8.39571288,13.308681 8.4481617,13.4010365 8.55762011,13.4922519 C8.62603161,13.5497175 8.69156984,13.5841969 8.75423478,13.5956901 L8.81594195,13.5995211 L8.87573361,13.588028 C8.9737901,13.5561026 9.07754755,13.4671677 9.18700596,13.3212231 C9.3055859,13.1752786 9.41162374,13.0202125 9.50511946,12.8560249 C9.59861519,12.6918373 9.69097072,12.5139673 9.78218606,12.3224151 C9.8460368,12.1855921 9.86313967,12.0670122 9.83349469,11.9666753 C9.8038497,11.8663384 9.7206157,11.7888054 9.58379269,11.7340762 C9.46977352,11.6884685 9.37399741,11.6816274 9.29646437,11.7135527 Z M10.5005069,11.8024877 C10.3682446,11.8708992 10.2952724,11.9507126 10.28159,12.041928 C10.2679077,12.1331433 10.3021135,12.2426017 10.3842073,12.3703032 C10.4754226,12.511687 10.5472547,12.6507904 10.5997036,12.7876134 C10.6521524,12.9244364 10.6920591,13.0452967 10.7194237,13.1501944 C10.7650314,13.3235035 10.8345831,13.4386629 10.9280788,13.4956725 C11.0215745,13.552682 11.1298927,13.558383 11.2530334,13.5127753 C11.3761741,13.4671677 11.4537072,13.3896346 11.4856325,13.2801762 C11.5175579,13.1707178 11.5129971,13.0635398 11.4719502,12.9586421 C11.4080995,12.7944545 11.3408282,12.6314071 11.2701363,12.4694999 C11.1994444,12.3075926 11.1184908,12.1445452 11.0272755,11.9803576 C10.9634247,11.8663384 10.8836113,11.7956465 10.7878352,11.7682819 C10.6920591,11.7409173 10.596283,11.7523193 10.5005069,11.8024877 Z M13.8047826,11.679347 C13.7044457,11.6702254 13.6086696,11.708992 13.5174543,11.7956465 C13.4125566,11.8959834 13.361248,11.9894791 13.3635284,12.0761337 C13.3658088,12.1627883 13.4193978,12.2654055 13.5242954,12.3839855 C13.6291931,12.5025654 13.7295299,12.6348277 13.825306,12.7807722 C13.9210821,12.9267168 14.0054563,13.0658202 14.0784286,13.1980824 C14.1650832,13.3577093 14.2597191,13.4569059 14.3623364,13.4956725 C14.4649536,13.534439 14.5709914,13.5173361 14.6804499,13.4443638 C14.7899083,13.3713916 14.8583198,13.2858772 14.8856844,13.1878207 C14.913049,13.0897642 14.8788432,12.9677637 14.7830671,12.8218191 C14.687291,12.6713138 14.5789728,12.5094066 14.4581125,12.3360974 C14.3372521,12.1627883 14.2152516,12.0031614 14.0921109,11.8572169 C14.0008956,11.7477585 13.9051195,11.6884685 13.8047826,11.679347 Z M12.0466069,11.7751231 C11.9234662,11.8526561 11.8573351,11.9381705 11.8482135,12.0316662 C11.839092,12.125162 11.8801389,12.2334802 11.9713542,12.3566209 C12.0671303,12.4934439 12.1458036,12.6302669 12.2073739,12.7670899 C12.2689443,12.9039129 12.3179725,13.0224929 12.3544587,13.1228297 C12.4091879,13.2961389 12.4855807,13.4090179 12.5836372,13.4614667 C12.6816937,13.5139155 12.7900119,13.5127753 12.9085919,13.4580461 C13.0271718,13.4078777 13.1001441,13.3257839 13.1275087,13.2117647 C13.1548733,13.0977455 13.1434714,12.9882871 13.0933029,12.8833895 C13.0203307,12.7237626 12.9427976,12.5641358 12.8607038,12.4045089 C12.77861,12.2448821 12.6873947,12.0852552 12.5870578,11.9256284 C12.5186463,11.8116092 12.4342721,11.7431977 12.3339352,11.7203939 C12.2335983,11.69759 12.1378222,11.7158331 12.0466069,11.7751231 Z M3.70347945,12.5767945 C4.07467424,12.7897698 4.46256383,12.9631371 4.86093956,13.0969042 C5.26622922,13.0574366 5.70218402,13.0295548 6.15923405,13.014077 L3.70347945,12.5767945 Z M11.2667157,7 C11.1162104,7 11.0078922,7.02964499 10.9417611,7.08893496 C10.8888562,7.13636693 10.8571132,7.21152838 10.8465323,7.31441928 L10.8425644,7.39678673 L10.8425644,8.97709251 L9.76850376,8.97709251 C9.48117543,8.97709251 9.27594092,9.03182172 9.15280021,9.14128012 C9.05018295,9.23249547 8.99032288,9.38072039 8.97322001,9.58595491 L8.96808914,9.71593677 L8.96808914,10.7831563 C8.96808914,10.9199793 8.97721068,11.0351386 8.99545374,11.1286344 C9.01369681,11.2221301 9.05018295,11.2962425 9.10491215,11.3509718 C9.15964136,11.405701 9.23945478,11.4456077 9.34435242,11.4706919 C9.44925006,11.4957761 9.59063384,11.5083182 9.76850376,11.5083182 L13.3806313,11.5014771 C13.5356973,11.5014771 13.6656792,11.4934957 13.7705768,11.477533 C13.8754745,11.4615704 13.9587085,11.4273646 14.0202788,11.3749158 C14.0818492,11.322467 14.1251765,11.2494947 14.1502607,11.155999 C14.1690739,11.0858772 14.1808321,10.9984387 14.1855354,10.8936836 L14.187887,10.7831563 L14.187887,9.71593677 C14.187887,9.45141228 14.1251765,9.26214045 13.9997554,9.14812127 C13.8952378,9.05310529 13.7345024,8.99767931 13.5175493,8.98184331 L13.3806313,8.97709251 L11.6703436,8.97709251 L11.6703436,8.46400622 L14.2289339,8.46400622 C14.5071407,8.46400622 14.6462441,8.33174398 14.6462441,8.06721949 C14.6462441,7.91215341 14.6120384,7.80839596 14.5436268,7.75594714 C14.4923182,7.71661052 14.4204861,7.69202514 14.3281306,7.68219098 L14.2289339,7.67727391 L11.6703436,7.67727391 L11.6703436,7.39678673 C11.6703436,7.25084219 11.6384182,7.14822493 11.5745675,7.08893496 C11.5107168,7.02964499 11.4080995,7 11.2667157,7 Z M13.189079,9.75014252 C13.2438082,9.75014252 13.2848551,9.75812387 13.3122197,9.77408655 C13.3304628,9.78472834 13.3426249,9.80297141 13.3487059,9.82881576 L13.3532666,9.87328323 L13.3532666,10.6121275 C13.3532666,10.6942213 13.2985374,10.7352682 13.189079,10.7352682 L9.93953252,10.7352682 C9.87568178,10.7352682 9.83349469,10.7250065 9.81297124,10.704483 C9.79928893,10.6908007 9.7901674,10.6725577 9.78560663,10.6497538 L9.78218606,10.6121275 L9.78218606,9.87328323 C9.78218606,9.8231148 9.79358798,9.79004924 9.81639181,9.77408655 C9.83159437,9.76344476 9.85490496,9.75635023 9.88632357,9.75280297 L9.93953252,9.75014252 L13.189079,9.75014252 Z M1.20745205,4.5229589 C1.15221918,4.59353425 1.10446575,4.66928767 1.05287671,4.7419726 C0.885835616,4.97747945 0.738164384,5.22334247 0.608328767,5.47936986 C0.332356164,6.68394521 0.402931507,7.9529589 0.819479452,9.12512329 C1.09219178,9.40972603 1.40019178,9.65136986 1.73446575,9.86117808 L1.77322945,9.88423973 L1.77322945,9.88423973 L1.81271233,9.90528767 L3.02726027,8.00090411 C3.02649315,7.99745205 3.02591781,7.99534247 3.02534247,7.99150685 C2.88342466,7.30477169 2.80037291,6.60964612 2.77896182,5.90957065 L2.77353425,5.4889589 L2.77353425,5.44964384 L1.20745205,4.5229589 Z M8.1389863,1.45369863 C7.68139726,1.48016438 7.22438356,1.53271233 6.76794521,1.57912329 L6.68003767,1.59300342 L6.68003767,1.59300342 L6.59284932,1.61364384 L5.75323288,4.14150685 L6.18684932,4.57454795 C6.18358904,4.57819178 6.18032877,4.58126027 6.17706849,4.58528767 C6.53493151,4.98726027 6.89336986,5.38808219 7.24950685,5.79139726 L7.30711301,5.85983904 L7.30711301,5.85983904 L7.36227397,5.93043836 L10.3782192,5.62071233 C10.5345205,5.236 10.6917808,4.85205479 10.8386849,4.46408219 L10.9553596,4.12911301 L10.9553596,4.12911301 L11.0632603,3.79054795 L8.98589041,1.44909589 C8.70090411,1.4289589 8.41917808,1.4379726 8.1389863,1.45369863 Z M4.8729589,0.778438356 C3.948,1.0870137 3.07923288,1.60884932 2.34413699,2.34375342 C2.26550685,2.42238356 2.18917808,2.50293151 2.11553425,2.58424658 C2.0029589,2.78158904 1.89978082,2.98353425 1.80926027,3.19257534 C1.69169863,3.46394521 1.58947945,3.74241096 1.48553425,4.01934247 L1.46669178,4.08819178 L1.46669178,4.08819178 L1.45849315,4.16049315 L3.00635616,5.07624658 C3.60432877,4.68328767 4.23912329,4.35553425 4.89021918,4.05961644 L5.13035274,3.95866781 L5.13035274,3.95866781 L5.37235616,3.86189041 L5.38405479,3.85786301 L6.16843836,1.49569863 C5.76761644,1.21358904 5.34243836,0.975780822 4.87506849,0.81430137 C4.87046575,0.812958904 4.86663014,0.807972603 4.85857534,0.802027397 C4.86317808,0.793780822 4.86816438,0.785917808 4.8729589,0.778438356 Z M9.39841096,0.923041096 L9.39021233,1.0732774 L9.39021233,1.0732774 L9.37367123,1.22279452 L11.4184384,3.52742466 C11.4892055,3.55178082 11.5588219,3.57652055 11.6267123,3.60452055 C12.0630137,3.78364384 12.4780274,4.00342466 12.8661918,4.27057534 C12.5524384,3.57153425 12.1086575,2.91717808 11.5356164,2.34375342 C10.9054247,1.71375342 10.176274,1.23967123 9.39841096,0.923041096 Z" id="加时点球" fill="#9EA5B4" fill-rule="nonzero"></path>
    </g>
</svg>