<?xml version="1.0" encoding="UTF-8"?>
<svg width="15px" height="15px" viewBox="0 0 15 15" version="1.1" xmlns="http://www.w3.org/2000/svg" xmlns:xlink="http://www.w3.org/1999/xlink">
    <!-- Generator: Sketch 61.1 (89650) - https://sketch.com -->
    <title>下半场角球</title>
    <desc>Created with Sketch.</desc>
    <g id="页面-1" stroke="none" stroke-width="1" fill="none" fill-rule="evenodd">
        <g id="赛果备份" transform="translate(-1264.000000, -211.000000)" fill-rule="nonzero">
            <g id="下半场角球" transform="translate(1264.000000, 211.000000)">
                <path d="M5.07090644,0.00767895132 C5.47698307,0.00767895132 5.76221284,0.30204946 5.76675775,0.72392662 C6.25610661,1.10404013 7.3977626,1.83534583 8.81140351,1.80255075 C10.6535088,1.80255075 12.5680507,2.39181693 13.0687135,3.29827724 C13.0687135,3.29827724 10.4342211,2.60457914 9.69737901,4.10030564 C8.96053692,5.59603215 8.06273758,4.87699945 7.3377193,5.17861913 C6.62996039,5.47822681 6.62241448,5.82372233 6.17757166,5.90126256 C6.03882306,5.92544773 5.89638874,5.9058185 5.76606599,5.86735387 L5.76650513,7.2129699 C5.28353852,7.82751027 4.94148175,8.55802666 4.78901578,9.3558381 C4.53659151,9.25243004 4.375,9.00381014 4.375,8.68289262 L4.375,0.734174684 C4.375,0.306824264 4.66154971,0.00767895132 5.07090644,0.00767895132 Z" id="形状结合" fill="#FF4A4A"></path>
                <path d="M1.16698648,13.7683627 C0.921372438,14.067508 0.51201572,14.067508 0.225466014,13.7683627 C-0.0610836924,13.4692174 -0.0610836924,13.041867 0.225466014,12.7854567 L4.48277595,8.34101229 C4.68791949,8.12685145 4.9560048,8.0660103 5.18189052,8.15848885 C4.90296346,8.74300657 4.735401,9.39070854 4.70501294,10.0740814 L3.42055373,11.4146533 L3.70499817,11.1187901 C4.0334128,11.3930704 4.44087059,11.5848332 4.88509556,11.6499441 C5.01376677,12.113054 5.20895179,12.5502521 5.45897837,12.9496065 L5.21961806,12.9563969 L5.21961806,12.9563969 C4.36369035,12.9563969 3.60925606,12.6738512 2.95631517,12.2371896 L2.7634777,12.101696 L1.16698648,13.7683627 Z" id="形状结合" fill="#5AA961"></path>
                <path d="M5.42341937,8.88632156 C6.22132942,6.5183448 8.74275423,5.23836122 11.1045714,6.03836168 C11.9024814,6.29435839 12.6046525,6.77434151 13.1472302,7.4143333 C14.6792243,9.27031664 14.5196452,11.9582821 12.7961447,13.5582545 C11.0088182,15.2862537 8.16824931,15.1902514 6.44474879,13.3982744 L6.44474879,13.3982744 L6.38092283,13.3342681 C5.80641791,12.6942763 5.3915064,11.9262861 5.26384022,11.0622936 C5.23192724,10.8062969 5.2,10.5503002 5.2,10.2943035 C5.2,9.81432038 5.26384022,9.33432296 5.42341937,8.88632156 Z M12.5201342,7.8 L6.88926174,7.8 C6.73713647,7.8 6.63422819,7.83467562 6.58053691,7.90402685 C6.52684564,7.97337808 6.5,8.07069351 6.5,8.19597315 C6.5,8.3212528 6.52684564,8.41856823 6.58053691,8.48791946 C6.62348993,8.54340045 6.69794183,8.57668904 6.80389262,8.58778523 L6.88926174,8.59194631 L9.13087248,8.59194631 L9.13087248,13.4107383 C9.13087248,13.5718121 9.16442953,13.6769575 9.23154362,13.7261745 C9.29865772,13.7753915 9.401566,13.8 9.54026846,13.8 C9.66107383,13.8 9.75838926,13.7753915 9.83221477,13.7261745 C9.89127517,13.6868009 9.92671141,13.6116331 9.93852349,13.5006711 L9.94295302,13.4107383 L9.94295302,10.3100671 C10.2293065,10.5114094 10.5111857,10.717226 10.7885906,10.9275168 C11.0659955,11.1378076 11.3143177,11.3369128 11.533557,11.5248322 C11.6185682,11.6008949 11.6923937,11.6590604 11.7550336,11.6993289 C11.8176734,11.7395973 11.8747204,11.7642058 11.9261745,11.7731544 C11.9776286,11.7821029 12.0268456,11.7753915 12.0738255,11.7530201 C12.1208054,11.7306488 12.1733781,11.6948546 12.2315436,11.6456376 C12.3568233,11.5203579 12.4116331,11.4051454 12.3959732,11.3 C12.3803132,11.1948546 12.2829978,11.0662192 12.1040268,10.914094 C11.9519016,10.7888143 11.7863535,10.6568233 11.6073826,10.5181208 C11.4284116,10.3794183 11.2449664,10.2407159 11.057047,10.1020134 C10.8691275,9.96331096 10.6800895,9.82796421 10.4899329,9.69597315 C10.3631618,9.60797912 10.2398707,9.52445936 10.1200597,9.44541387 L9.94295302,9.33020134 L9.94295302,8.59194631 L12.5201342,8.59194631 C12.6722595,8.59194631 12.7751678,8.55727069 12.8288591,8.48791946 C12.8825503,8.41856823 12.909396,8.3212528 12.909396,8.19597315 C12.909396,8.07069351 12.8825503,7.97337808 12.8288591,7.90402685 C12.785906,7.84854586 12.7114541,7.81525727 12.6055034,7.80416107 L12.5201342,7.8 Z" id="形状结合备份-3" fill="#5AA961"></path>
            </g>
        </g>
    </g>
</svg>