<svg xmlns="http://www.w3.org/2000/svg" width="14" height="14" viewBox="0 0 14 14" fill="none">
  <path fill-rule="evenodd" clip-rule="evenodd" d="M0.193687 6.27108C0.193687 2.91542 2.91447 0.194636 6.27013 0.194636C9.62578 0.194636 12.3466 2.91542 12.3466 6.27108C12.3466 7.59769 11.9164 8.82172 11.195 9.82069L13.5215 12.1472C13.8992 12.5254 13.8992 13.1443 13.5215 13.5225C13.3324 13.7116 13.083 13.8059 12.8337 13.8059C12.5848 13.8059 12.3354 13.7116 12.1463 13.5225L9.81974 11.1959C8.82078 11.9173 7.59674 12.3475 6.27013 12.3475C2.91447 12.3475 0.193687 9.62673 0.193687 6.27108ZM1.65203 6.27108C1.65203 8.81735 3.72386 10.8892 6.27013 10.8892C8.8164 10.8892 10.8882 8.81735 10.8882 6.27108C10.8882 3.72481 8.8164 1.65298 6.27013 1.65298C3.72386 1.65298 1.65203 3.72481 1.65203 6.27108Z" fill="#CBCED8"/>
  <path fill-rule="evenodd" clip-rule="evenodd" d="M13.6599 12.0096C14.1134 12.4638 14.1134 13.2056 13.6599 13.6597C13.4324 13.8871 13.1326 14.0001 12.8344 14.0001C12.5366 14.0001 12.237 13.8872 12.0096 13.6598L9.79855 11.4488C8.79373 12.1353 7.58075 12.5418 6.27089 12.5418C2.80784 12.5418 0 9.73393 0 6.27089C0 2.80784 2.80784 0 6.27089 0C9.73393 0 12.5418 2.80784 12.5418 6.27089C12.5418 7.58075 12.1353 8.79373 11.4488 9.79855L13.6599 12.0096ZM11.195 9.82069C11.9164 8.82172 12.3466 7.59769 12.3466 6.27108C12.3466 2.91542 9.62578 0.194636 6.27013 0.194636C2.91447 0.194636 0.193687 2.91542 0.193687 6.27108C0.193687 9.62673 2.91447 12.3475 6.27013 12.3475C7.59674 12.3475 8.82078 11.9173 9.81974 11.1959L12.1463 13.5225C12.3354 13.7116 12.5848 13.8059 12.8337 13.8059C13.083 13.8059 13.3324 13.7116 13.5215 13.5225C13.8992 13.1443 13.8992 12.5254 13.5215 12.1472L11.195 9.82069ZM1.84724 6.27089C1.84724 8.70977 3.83201 10.6945 6.27089 10.6945C8.70977 10.6945 10.6945 8.70977 10.6945 6.27089C10.6945 3.83201 8.70977 1.84724 6.27089 1.84724C3.83201 1.84724 1.84724 3.83201 1.84724 6.27089ZM6.27013 10.8892C3.72386 10.8892 1.65203 8.81735 1.65203 6.27108C1.65203 3.72481 3.72386 1.65298 6.27013 1.65298C8.8164 1.65298 10.8882 3.72481 10.8882 6.27108C10.8882 8.81735 8.8164 10.8892 6.27013 10.8892Z" fill="#CBCED8"/>
</svg>