<?xml version="1.0" encoding="UTF-8"?>
<svg width="24px" height="25px" viewBox="0 0 24 25" version="1.1" xmlns="http://www.w3.org/2000/svg" xmlns:xlink="http://www.w3.org/1999/xlink">
    <title>排@2x</title>
    <defs>
        <linearGradient x1="99.9980587%" y1="0%" x2="0.00194134378%" y2="100%" id="linearGradient-1">
            <stop stop-color="#A3ACB3" offset="0%"></stop>
            <stop stop-color="#64676E" offset="100%"></stop>
        </linearGradient>
    </defs>
    <g id="页面-1" stroke="none" stroke-width="1" fill="none" fill-rule="evenodd">
        <path d="M0.959682635,16.7247787 C3.52566974,19.2622631 7.099012,20.7206566 10.8009285,20.6941395 L11.184308,20.6860828 L11.9826785,20.6582332 C11.6997164,21.78872 11.5811059,22.9100468 11.2981438,24.0405336 C6.64536079,23.7230626 2.70156565,20.82092 0.959682635,16.7247787 Z M18.4317853,8.27783774 C21.2864267,12.0164553 21.778231,16.9581121 19.6823336,21.1847002 C17.8193823,22.8500766 15.2933031,23.8977431 12.4150576,23.9981452 C12.7957492,22.8663911 13.0530493,21.7363176 13.1894138,20.6124304 L13.2404587,20.1311564 L13.2293307,19.8128372 C13.4509096,16.9264606 13.5080172,14.0458213 13.0888438,11.1817962 C14.8110483,10.0045311 16.5408346,9.14228189 18.4317853,8.27783774 Z M1.55618294,6.30999823 C2.38805697,7.24052895 3.37535187,8.00457096 4.36827058,8.92948394 C4.52588877,8.92398572 4.53151257,9.08485672 4.69255727,9.07923898 C6.9914338,10.757078 9.44585087,12.2718511 12.2021791,13.2963181 C12.4357349,15.3649093 12.3416973,17.2872877 12.0956652,19.3760354 C7.3097172,19.8616915 2.75659566,17.782713 0.218419789,13.871989 C0.0406233291,13.3984165 0.0238715708,12.9192264 0.00711981249,12.4400362 C-0.0710151751,10.2049562 0.497106282,8.1049731 1.55618294,6.30999823 Z M22.6988984,6.68966397 C23.5565745,8.26013634 23.9311164,9.84746193 23.9924997,11.6033517 C24.0873864,14.3176218 23.2173538,16.9079111 21.6841933,18.8804906 C22.6761433,15.1653322 21.890249,11.035843 19.5354934,7.75956245 C20.6413989,7.40227765 21.5895664,7.04706827 22.6988984,6.68966397 Z M15.7652192,0.694463261 C18.3583053,1.56355743 20.6573015,3.24481926 22.0224453,5.59264451 L20.534665,6.06977581 C19.8572589,6.29306877 19.173265,6.53849213 18.5425747,6.83464944 C18.3849565,6.84014765 18.3905803,7.00101865 18.2295356,7.00663639 C15.7090803,8.21517394 13.1941291,9.58115967 10.8569743,11.4207179 C9.0656851,10.5236546 7.26877207,9.46572021 5.62397312,8.24483945 C7.39766147,4.02606402 11.4590984,1.16680844 15.7652192,0.694463261 Z M11.5810158,0.0419393433 C12.0607234,0.0252056535 12.7070995,0.163725223 13.1868071,0.146991533 C9.3826498,1.23924141 6.27157778,3.90427817 4.63667819,7.48079745 C3.81593214,6.86858591 2.98625546,6.09904571 2.16000524,5.32938597 C4.13374596,2.22082136 7.58231032,0.181426601 11.5810158,0.0419393433 Z" id="排" fill="url(#linearGradient-1)"></path>
    </g>
</svg>