<?xml version="1.0" encoding="UTF-8"?>
<svg width="24px" height="24px" viewBox="0 0 24 24" version="1.1" xmlns="http://www.w3.org/2000/svg" xmlns:xlink="http://www.w3.org/1999/xlink">
    <title>篮@2x</title>
    <defs>
        <linearGradient x1="100%" y1="0%" x2="0%" y2="100%" id="linearGradient-1">
            <stop stop-color="#A3ACB3" offset="0%"></stop>
            <stop stop-color="#64676E" offset="100%"></stop>
        </linearGradient>
    </defs>
    <g id="页面-1" stroke="none" stroke-width="1" fill="none" fill-rule="evenodd" opacity="0.6">
        <path d="M16.5625632,5.71277144 C16.8963372,5.93432979 17.2172179,6.16731368 17.524893,6.41057241 C17.6415381,6.5028799 17.6701486,6.66691567 17.591274,6.79171909 C17.5320549,6.88525025 17.4744551,6.98249353 17.4183414,7.08392457 C15.9673081,9.70889336 16.3076466,12.2819812 16.6875294,14.5782721 L16.8842417,15.7657852 C17.0833048,17.0197165 17.2098861,18.2074143 16.9182098,19.2748416 C15.6633324,23.8665573 11.9828053,24.0105709 11.8406695,23.9995286 C10.1513829,23.867985 8.44061375,23.5458553 6.83406184,22.7601185 C6.70950881,22.6991629 6.64830499,22.5607715 6.67884551,22.4331738 L6.70840631,22.3586162 L16.1595476,5.80577172 C16.2407671,5.6635229 16.4251277,5.62146877 16.5625632,5.71277144 Z M15.1145892,4.86729996 C15.2370176,4.92955145 15.2964244,5.06664393 15.2658239,5.19293214 L15.2364468,5.26672338 L5.78524629,21.8196716 C5.70319742,21.963373 5.51613732,22.0048195 5.37865502,21.9104461 C4.06021973,21.0047339 2.97116939,19.8116714 2.0671977,18.5687961 L1.73679735,18.1008468 C1.71654759,18.0713173 -0.130479283,14.8510865 3.32165625,11.3371181 C4.17912873,10.4641167 5.41507203,9.96207062 6.73834382,9.46228138 L7.78435902,9.06700314 C9.85121969,8.27237059 12.0660613,7.2575868 13.5124776,4.80352702 C13.5713361,4.70383674 13.6256126,4.60465331 13.6762711,4.50598612 C13.7435588,4.37455653 13.8985159,4.31754991 14.0358361,4.37364673 C14.3979684,4.52128599 14.7580521,4.68585187 15.1145892,4.86729996 Z M12.4222936,3.82800015 C12.5782146,3.87005482 12.6662702,4.03043502 12.6283808,4.17722539 L12.5986718,4.24887737 C11.3344941,6.39324645 9.39882884,7.29659804 7.44532197,8.0496982 L5.90485245,8.63530858 C4.6461666,9.12726484 3.48161334,9.66765142 2.57031103,10.5737941 C1.6429453,11.4959004 1.03461178,12.3804238 0.646075072,13.1940548 C0.523951165,13.4496575 0.143406206,13.3890757 0.107455108,13.1062084 C-0.116800631,11.3398233 -0.0265005772,9.49907173 0.729198952,7.84618911 C2.51754861,3.9345946 7.69064407,2.55059285 12.4222936,3.82800015 Z M18.7370788,7.5028555 L18.799005,7.55075025 C22.2588082,11.0556848 23.6600845,16.2776933 21.2041675,19.7995593 C20.1664032,21.2877713 18.6350384,22.2872234 17.010087,22.9740338 C16.7498492,23.0839849 16.5076914,22.7810302 16.6655407,22.5462842 C17.1681081,21.7992247 17.6214929,20.8242417 17.9475495,19.5510887 C18.3035676,18.1609727 18.1165266,16.7228378 17.8683207,15.2102571 L17.6717529,14.0200644 C17.359518,12.0555792 17.1692077,10.0383285 18.1505876,7.99379052 L18.3485834,7.6101261 C18.4105076,7.49843763 18.5309736,7.44945498 18.6437904,7.46909163 L18.7370788,7.5028555 Z M10.7911354,0.0257113608 L11.1043443,0.178547287 C11.7116798,0.493950899 12.6779497,1.10736628 12.9881281,1.93818986 C13.0582945,2.12620941 13.0980961,2.32278663 13.1079922,2.5273596 C13.1173011,2.72010749 12.9384308,2.86580226 12.7528736,2.81488457 C9.9105248,2.03438818 7.0369793,2.17238387 4.62810645,3.14276719 C4.32788138,3.26382034 4.08845366,2.86368427 4.33767484,2.65710355 C6.14240871,1.16068053 8.3444665,0.249123957 10.6425835,0.00165445613 C10.6933561,-0.00384278609 10.7444505,0.0044051724 10.7911354,0.0257113608 Z M20.1301411,6.11119848 C21.1287341,5.9429912 22.3418001,6.69517645 22.8614986,7.06207689 C22.904735,7.09257547 22.9388002,7.13404397 22.9601022,7.18258711 C23.9016368,9.32220844 24.2241453,11.7114907 23.8441456,14.0450746 C23.791889,14.3665057 23.3295226,14.3570698 23.2829823,14.0335737 C22.9095878,11.4387529 21.5910463,8.8535381 19.5014144,6.75472407 C19.3650719,6.61785369 19.4003134,6.38830787 19.5698248,6.30023268 C19.7486603,6.20722544 19.9355707,6.14397194 20.1301411,6.11119848 Z M17.4924633,1.31533871 L16.0455596,3.84946354 C15.9702642,3.9813368 15.8049482,4.02786893 15.6692488,3.95777754 C15.2278513,3.72996945 14.7812367,3.52609209 14.3315408,3.34628552 C14.2088332,3.29733618 14.135466,3.1719147 14.1512504,3.04071392 C14.2129019,2.53136729 14.1574278,2.04065856 13.9827546,1.57221915 C13.8321245,1.16886391 13.6059341,0.820724858 13.3463705,0.523517836 C13.1710227,0.322788806 13.3311595,0.0137059229 13.5933907,0.0508680495 C14.756225,0.215886273 15.9109356,0.555373498 17.0201058,1.07945954 L17.4924633,1.31533871 Z M18.6726716,2.02435318 C19.7532215,2.75907647 20.6824142,3.64490456 21.4482483,4.63664896 C21.6111914,4.84770534 21.4267084,5.14243646 21.1671197,5.08924778 C20.7826314,5.01059301 20.3713719,4.9865862 19.9507064,5.05641676 C19.4621295,5.13750972 19.014228,5.33434569 18.6086598,5.64305072 C18.5042888,5.72253427 18.360247,5.72089313 18.2568665,5.63785134 C17.8781268,5.3340138 17.4802084,5.04484941 17.0643438,4.77232268 C16.961957,4.70524449 16.9140842,4.5842869 16.9376121,4.47101476 L16.9689095,4.38846362 L18.2667034,2.11549144 C18.3485746,1.97210131 18.5351454,1.93078412 18.6726716,2.02435318 Z" id="篮" fill="url(#linearGradient-1)"></path>
    </g>
</svg>