<?xml version="1.0" encoding="UTF-8"?>
<svg width="24px" height="24px" viewBox="0 0 24 24" version="1.1" xmlns="http://www.w3.org/2000/svg" xmlns:xlink="http://www.w3.org/1999/xlink">
    <title>沙滩排球未选中备份@2x</title>
    <defs>
        <linearGradient x1="100%" y1="0%" x2="0%" y2="100%" id="linearGradient-1">
            <stop stop-color="#A3ACB3" offset="0%"></stop>
            <stop stop-color="#64676E" offset="100%"></stop>
        </linearGradient>
    </defs>
    <g id="沙滩排球未选中备份" stroke="none" stroke-width="1" fill="none" fill-rule="evenodd">
        <path d="M18.5736509,19.9997367 L18.5744155,22.1252309 C17.0793946,23.1099293 15.3520784,23.7684634 13.4928525,24.0000614 C13.9035887,23.4115966 13.7921921,22.1251079 13.1582246,20.1416046 C14.7160238,20.1511931 16.3508309,20.1136501 18.0605172,20.0284352 L18.0605172,20.0284352 L18.5736509,19.9997367 Z M4.29,19.44 L4.55338686,19.4820952 C5.72118038,20.8463244 8.98333896,23.5633811 9.81784675,23.8934765 C7.40287266,23.4481887 5.24132351,22.2773495 3.56520779,20.6145069 C3.85118174,20.8705596 4.13599868,21.1056926 4.41091087,21.3299874 C4.28093928,20.7546727 4.24576083,20.0340477 4.30537553,19.1681124 L4.29,19.44 Z M13.3958802,0.0806273944 C15.7140016,0.350204166 17.8307578,1.28294931 19.5529977,2.68496819 C19.505094,2.6516755 19.4599317,2.62170954 19.4165705,2.59505215 C19.4476873,3.676814 19.4188121,4.43843423 19.329945,4.87991284 C20.7529075,3.96403688 22.8949419,6.76717542 23.5130726,8.65470536 C23.4785716,8.53721998 23.4320097,8.37634075 23.3686425,8.18038865 C23.7779027,9.39291234 24,10.6935112 24,12.0461834 C24,16.0231531 22.0801705,19.549997 19.1200992,21.7437419 L19.1196509,19.8407367 L19.2512302,19.7327072 C20.7908291,18.4034434 21.7373298,16.4092105 22.0950888,13.7636373 L22.0950888,13.7636373 L21.8254923,13.7264632 C22.0103721,12.9466393 22.3605354,8.85789878 19.7257191,5.3364973 L19.7257191,5.3364973 L19.7254839,5.45774805 C19.7180752,6.78855335 19.4772918,9.90767888 11.6518333,12.1349337 C15.5204291,15.8579477 20.1664563,14.7691446 21.5146432,13.9660532 L21.4963974,14.0815419 C21.1190813,16.4051456 20.2512223,18.1463361 18.8965275,19.316711 L18.8965275,19.316711 L18.7426509,19.4427367 L17.9930439,19.4835614 C12.7206099,19.7441997 8.1729574,19.5479528 4.35107786,18.895814 L4.35107786,18.895814 L4.30437405,19.1682651 C2.99880669,19.3670017 1.83714211,18.4432212 0.819380327,16.3969235 C0.837139422,16.4554145 0.855273406,16.5132457 0.873771228,16.5704292 C0.310552847,15.1724036 0,13.6456998 0,12.0461834 C0,8.16645171 1.82709644,4.71510363 4.66465548,2.51191592 L4.59461985,2.8869692 L4.52425716,3.30136983 L4.4723016,3.66128898 L4.43892722,3.96872336 C4.41955406,4.19599898 4.41847286,4.37403366 4.43609428,4.50753823 L4.43609428,4.50753823 L4.29794004,4.66284195 L3.89197045,5.13439839 L3.58452415,5.51295989 C2.44739602,6.96045811 1.78614992,8.38728827 1.54765091,10.3019096 L1.54765091,10.3019096 L1.82,10.335 C1.39979949,11.2892928 1.38959288,15.4047384 3.68322521,18.5631941 L3.85959695,18.7982195 C3.27445845,13.843232 10.6637962,12.3611205 11.3113903,11.8770648 C7.68393882,8.578202 3.37264044,9.44622058 2.1244456,10.1177842 L2.14292475,9.9913076 C2.42328392,8.2562103 3.09996885,6.94934308 4.23804891,5.57271417 L4.23804891,5.57271417 L4.53013598,5.22757289 L4.87065091,4.83973666 L5.17209603,4.80018294 C7.47218037,4.51454658 10.2821271,4.46518332 13.6008131,4.65263638 L13.6008131,4.65263638 L14.7932364,4.72863036 C15.6022655,4.78584967 16.4394529,4.85618345 17.3047838,4.93963878 L17.3047838,4.93963878 L18.6238859,5.07466383 L19.2992643,5.14955889 L19.3606256,4.60548085 L19.0821178,4.57592881 C17.8755227,3.21198192 14.3501844,0.364484096 13.3201238,0.05442796 Z M12,1.79412041e-13 C12.2302454,1.79412041e-13 12.4589763,0.00650945775 12.68602,0.0193550454 C12.1693915,0.00791239442 11.5392172,0.0193400393 11.1224254,0.05442796 C9.89700143,0.529106661 9.56336604,1.1903688 10.2453589,3.9940326 C8.31403144,3.98280887 6.59482991,4.07080031 5.0873557,4.25898644 L5.0873557,4.25898644 L4.95965091,4.27573666 L4.96577483,4.15692408 C4.96827674,4.12449588 4.97138203,4.08957503 4.97509501,4.05221089 L4.97509501,4.05221089 L5.00469959,3.79910176 L5.0490953,3.48972413 L5.10848877,3.1264482 L5.22615174,2.48565981 L5.31436895,2.04127848 C7.22491874,0.752192983 9.5249541,1.79412041e-13 12,1.79412041e-13 Z" id="形状结合" fill="url(#linearGradient-1)"></path>
    </g>
</svg>