<?xml version="1.0" encoding="UTF-8"?>
<svg width="24px" height="24px" viewBox="0 0 24 24" version="1.1" xmlns="http://www.w3.org/2000/svg" xmlns:xlink="http://www.w3.org/1999/xlink">
    <title>曲棍球未选中备份</title>
    <defs>
        <linearGradient x1="100%" y1="12.866905%" x2="0%" y2="87.133095%" id="linearGradient-1">
            <stop stop-color="#A3ACB3" offset="0%"></stop>
            <stop stop-color="#64676E" offset="100%"></stop>
        </linearGradient>
    </defs>
    <g id="曲棍球未选中备份" stroke="none" stroke-width="1" fill="none" fill-rule="evenodd">
        <path d="M18.0604316,16.6185037 C19.6071297,16.6185037 20.8609763,17.8723502 20.8609763,19.4190483 C20.8609763,20.9657465 19.6071297,22.219593 18.0604316,22.219593 C16.5137335,22.219593 15.2598869,20.9657465 15.2598869,19.4190483 C15.2598869,17.8723502 16.5137335,16.6185037 18.0604316,16.6185037 Z M12.352,11.664913 L13.9918407,13.2313377 C11.9104468,15.3555436 9.38052337,17.8534654 6.40207039,20.7251031 C4.96549216,22.0577549 2.58318312,22.7807275 0.924462082,21.3269194 C-0.178242867,20.360439 -0.25845353,18.9221841 0.49234679,17.7532165 C1.46164609,16.2440543 3.18705057,17.6449142 2.77558383,18.2621827 C2.36411708,18.8794512 2.44014749,19.3614786 2.77558383,19.6017401 C3.11102016,19.8420017 3.79775528,19.7503139 4.68140371,19.0672026 C5.33163557,18.5645357 8.68523221,15.3729459 11.8550921,12.1703315 L12.3409239,11.6778958 L12.352,11.664913 Z M13.7615377,10.2171798 L15.3973811,11.7826989 C15.2403865,11.9462727 15.0802258,12.1124845 14.9168989,12.2813343 L13.2906891,10.7051496 C13.4494786,10.5412796 13.6065646,10.3784964 13.7615377,10.2171798 Z M23.7501319,1.72570482 C24.2698783,2.1211247 23.863963,3.04732504 23.5658923,3.40056181 C20.5404601,6.57809007 18.4795855,8.75628389 17.3832686,9.93514327 C17.2195227,10.1112177 17.0467409,10.0360354 16.8965919,10.1974892 C16.7162084,10.3914539 16.530201,10.5901046 16.3385696,10.793441 L14.699174,9.23119555 C14.8231224,9.09937863 14.9448854,8.96922521 15.0642043,8.84097539 C15.2005501,8.6944242 15.1126463,8.50141542 15.2598869,8.34315396 C16.3901794,7.12825964 18.6378171,5.0186664 22.0027999,2.01437424 C22.4574692,1.61895436 23.2303855,1.33028494 23.7501319,1.72570482 Z" id="形状结合" fill="url(#linearGradient-1)"></path>
    </g>
</svg>