<?xml version="1.0" encoding="UTF-8"?>
<svg width="10px" height="10px" viewBox="0 0 10 10" version="1.1" xmlns="http://www.w3.org/2000/svg" xmlns:xlink="http://www.w3.org/1999/xlink">
    <title>星形备份 42@2x</title>
    <g id="页面-1" stroke="none" stroke-width="1" fill="none" fill-rule="evenodd">
        <g id="白色赛马详情" transform="translate(-1080.000000, -287.000000)" fill="#FF9124">
            <g id="编组-2" transform="translate(413.000000, 152.000000)">
                <g id="编组-7" transform="translate(300.000000, 4.000000)">
                    <path d="M371.999973,138.887838 L369.355071,140.239735 C369.154163,140.342426 368.90567,140.267327 368.800047,140.071998 C368.757987,139.994217 368.743473,139.905125 368.758752,139.818515 L369.263884,136.955152 L367.124113,134.927307 C366.961575,134.773271 366.958249,134.520296 367.116684,134.362271 C367.179774,134.299345 367.262441,134.258394 367.351886,134.245758 L370.308977,133.827999 L371.631428,131.222825 C371.731882,131.024935 371.978319,130.943686 372.181861,131.041351 C372.262913,131.080241 372.328517,131.144024 372.368518,131.222825 L373.69097,133.827999 L376.64806,134.245758 C376.872682,134.277491 377.028315,134.480251 376.995675,134.698636 C376.982678,134.785598 376.940557,134.865969 376.875834,134.927307 L374.736063,136.955152 L375.241194,139.818515 C375.279564,140.036017 375.129313,140.242578 374.905599,140.279883 C374.816515,140.294738 374.724878,140.280627 374.644876,140.239735 L371.999973,138.887838 Z" id="星形备份-42"></path>
                </g>
            </g>
        </g>
    </g>
</svg>