<?xml version="1.0" encoding="UTF-8"?>
<svg width="20px" height="20px" viewBox="0 0 20 20" version="1.1" xmlns="http://www.w3.org/2000/svg" xmlns:xlink="http://www.w3.org/1999/xlink">
    <title>数据-浅黄</title>
    <g id="页面-1" stroke="none" stroke-width="1" fill="none" fill-rule="evenodd">
        <g id="数据-浅黄">
            <rect id="矩形复制-67" fill-opacity="0.8" fill="#000000" x="0" y="0" width="20" height="20" rx="10"></rect>
            <g id="数据" transform="translate(4.000000, 4.000000)">
                <g id="编组" transform="translate(0.000000, 0.375000)">
                    <path d="M9.0001875,11.25 L3.0001875,11.25 C2.5876875,11.25 2.2501875,10.9125 2.2501875,10.5 C2.2501875,10.0875 2.5876875,9.75 3.0001875,9.75 L9.0001875,9.75 C9.4126875,9.75 9.7501875,10.0875 9.7501875,10.5 C9.7501875,10.9125 9.4126875,11.25 9.0001875,11.25" id="Fill-2" fill="#FFB001"></path>
                    <rect id="矩形" stroke="#FFB001" x="0.5" y="0.5" width="11" height="8" rx="2"></rect>
                    <path d="M9.5315625,2.953875 C9.3129375,2.73525 8.9548125,2.73525 8.7361875,2.953875 L7.1480625,4.542 L5.5636875,2.958 C5.5625625,2.956875 5.5621875,2.955 5.5610625,2.953875 C5.4515625,2.844375 5.3068125,2.79 5.1628125,2.79 C5.0180625,2.79 4.8736875,2.844375 4.7641875,2.953875 C4.7630625,2.955 4.7626875,2.956875 4.7615625,2.958 L2.4688125,5.25075 C2.2501875,5.469375 2.2501875,5.8275 2.4688125,6.046125 C2.6878125,6.26475 3.0455625,6.26475 3.2645625,6.046125 L5.1628125,4.147875 L6.7468125,5.73225 C6.7479375,5.733375 6.7483125,5.734875 6.7494375,5.736 C6.8589375,5.8455 7.0033125,5.90025 7.1480625,5.899875 C7.2924375,5.90025 7.4368125,5.8455 7.5463125,5.736 C7.5474375,5.734875 7.5478125,5.733375 7.5489375,5.731875 L9.5315625,3.749625 C9.7501875,3.530625 9.7501875,3.1725 9.5315625,2.953875" id="Fill-6" fill="#FFB001"></path>
                </g>
            </g>
        </g>
    </g>
</svg>