<?xml version="1.0" encoding="UTF-8"?>
<svg width="20px" height="20px" viewBox="0 0 20 20" version="1.1" xmlns="http://www.w3.org/2000/svg" xmlns:xlink="http://www.w3.org/1999/xlink">
    <title>详情数据@2x</title>
    <g id="页面-1" stroke="none" stroke-width="1" fill="none" fill-rule="evenodd">
        <g id="虚拟足球分析" transform="translate(-344.000000, -371.000000)">
            <g id="详情数据" transform="translate(344.000000, 371.000000)">
                <rect id="矩形备份-19" x="0" y="0" width="20" height="20"></rect>
                <path d="M7.70000491,8.18974669 C7.97614729,8.18974669 8.20000491,8.41360432 8.20000491,8.68974669 L8.20000491,18.5 C8.20000491,18.7761424 7.97614729,19 7.70000491,19 L7.35000491,19 C7.07386254,19 6.85000491,18.7761424 6.85000491,18.5 L6.85000491,8.68974669 C6.85000491,8.41360432 7.07386254,8.18974669 7.35000491,8.18974669 L7.70000491,8.18974669 Z M2.57500491,12.6934086 C2.94779712,12.6934086 3.25000491,12.9956164 3.25000491,13.3684086 L3.25000491,18.325 C3.25000491,18.6977922 2.94779712,19 2.57500491,19 C2.20221271,19 1.90000491,18.6977922 1.90000491,18.325 L1.90000491,13.3684086 C1.90000491,12.9956164 2.20221271,12.6934086 2.57500491,12.6934086 Z M12.4750049,10.8919438 C12.8477971,10.8919438 13.1500049,11.1941516 13.1500049,11.5669438 L13.1500049,18.325 C13.1500049,18.6977922 12.8477971,19 12.4750049,19 C12.1022127,19 11.8000049,18.6977922 11.8000049,18.325 L11.8000049,11.5669438 C11.8000049,11.1941516 12.1022127,10.8919438 12.4750049,10.8919438 Z M17.4250049,6.38828194 C17.7977971,6.38828194 18.1000049,6.69048973 18.1000049,7.06328194 L18.1000049,18.325 C18.1000049,18.6977922 17.7977971,19 17.4250049,19 C17.0522127,19 16.7500049,18.6977922 16.7500049,18.325 L16.7500049,7.06328194 C16.7500049,6.69048973 17.0522127,6.38828194 17.4250049,6.38828194 Z M17.9743416,1.13817428 C18.1274785,1.29752716 18.1401078,1.5404988 18.0152177,1.71362064 L17.9619435,1.77496738 L12.8319435,6.71288259 C12.711539,6.82877873 12.538968,6.86689325 12.3838496,6.81756636 L12.3080671,6.78557142 L7.49890491,4.21571544 L2.64877816,8.52652394 C2.48358198,8.67331699 2.24049753,8.67626941 2.07262789,8.54448165 L2.0135015,8.48876307 C1.8668278,8.32343246 1.86387778,8.0801502 1.99555839,7.91214396 L2.05123166,7.85296945 L7.13623166,3.33444678 C7.25693193,3.22719272 7.42388712,3.19413186 7.57373673,3.24277156 L7.64694274,3.27393455 L12.4435049,5.83613299 L17.3380663,1.12576607 C17.5171925,0.953346948 17.8020627,0.958902293 17.9743416,1.13817428 Z" id="形状结合" fill="#5E5E5E"></path>
            </g>
        </g>
    </g>
</svg>