<?xml version="1.0" encoding="UTF-8"?>
<svg width="20px" height="20px" viewBox="0 0 20 20" version="1.1" xmlns="http://www.w3.org/2000/svg" xmlns:xlink="http://www.w3.org/1999/xlink">
    <title>6@2x</title>
    <g id="页面-1" stroke="none" stroke-width="1" fill="none" fill-rule="evenodd">
        <g id="虚拟赛吗样式2" transform="translate(-201.000000, -659.000000)">
            <g id="编组" transform="translate(15.000000, 527.000000)">
                <g transform="translate(186.000000, 132.000000)">
                    <rect id="矩形备份-3" stroke="#5A6074" fill="#414655" x="0.5" y="0.5" width="19" height="19" rx="2"></rect>
                    <path d="M9.78,15.084 C11.544,15.084 12.888,13.936 12.888,11.976 C12.888,10.128 11.614,9.022 10.27,9.022 C10.032,9.022 9.766,9.05 9.528,9.148 L11.6,5.032 L9.612,5.032 L7.512,9.344 C7.064,10.254 6.672,11.094 6.672,12.004 C6.672,13.978 8.016,15.084 9.78,15.084 Z M9.78,13.446 C9.038,13.446 8.492,12.914 8.492,11.99 C8.492,11.066 9.038,10.534 9.78,10.534 C10.55,10.534 11.068,11.108 11.068,11.99 C11.068,12.914 10.522,13.446 9.78,13.446 Z" id="6" fill="#FFFFFF" fill-rule="nonzero"></path>
                </g>
            </g>
        </g>
    </g>
</svg>