<?xml version="1.0" encoding="UTF-8"?>
<svg width="20px" height="20px" viewBox="0 0 20 20" version="1.1" xmlns="http://www.w3.org/2000/svg" xmlns:xlink="http://www.w3.org/1999/xlink">
    <title>联赛-占位</title>
    <g id="页面-1" stroke="none" stroke-width="1" fill="none" fill-rule="evenodd">
        <g id="滚球列表" transform="translate(-1276.000000, -320.000000)">
            <g id="联赛-占位" transform="translate(1276.000000, 320.000000)">
                <rect id="矩形" fill="#EBECF0" x="0" y="0" width="20" height="20" rx="10"></rect>
                <path d="M10.4984911,7.26065601 C10.287559,7.26065601 10.1032559,7.35857747 10.0197676,7.50554512 L10.0197676,7.50554512 L8.61545457,9.98459668 L5.44209422,10.3711581 C5.24549246,10.3949062 5.08522332,10.5072171 5.02528722,10.6543372 C4.96821392,10.7950106 5.0088837,10.9506804 5.13583141,11.0619546 L5.13583141,11.0619546 L7.44566226,13.095873 L6.87925888,15.8954596 C6.8486296,16.0455738 6.92313079,16.1991895 7.07700476,16.2931444 C7.17008263,16.3484139 7.27830595,16.3781736 7.38665694,16.3789439 L7.38665694,16.3789439 L7.46069514,16.375459 C7.52771364,16.3684958 7.59276424,16.3512184 7.65192937,16.324713 L7.65192937,16.324713 L10.4276873,15.0523958 L13.1783301,16.3630889 C13.2600443,16.4012248 13.3502186,16.4214659 13.4389664,16.4222222 L13.4389664,16.4222222 L13.5279041,16.4170266 C13.6084749,16.4067133 13.6855369,16.3812805 13.7520085,16.3428312 C13.9110667,16.2489936 13.9887483,16.0959028 13.9610331,15.9452776 L13.9610331,15.9452776 L13.4452404,13.1388996 L15.7918228,11.1378901 C15.920677,11.0282778 15.9641059,10.8734014 15.9094535,10.7322465 C15.8520961,10.5839415 15.6938941,10.4693694 15.4977255,10.4429691 L15.4977255,10.4429691 L12.331564,10.0111808 L10.9722848,7.5116289 C10.8916978,7.36299661 10.7071121,7.26220536 10.4984911,7.26065601 Z M14.6496521,4 C14.855642,4 15.0226298,4.14348963 15.0226298,4.32049307 L15.0226298,8.40677966 C15.0226298,8.58378309 14.855642,8.72727273 14.6496521,8.72727273 L13.3326677,8.72727273 C13.1266778,8.72727273 12.95969,8.58378309 12.95969,8.40677966 L12.95969,4.32049307 C12.95969,4.14348963 13.1266778,4 13.3326677,4 L14.6496521,4 Z M7.59813531,4 C7.80397954,4.00017688 7.97074005,4.14361472 7.97074005,4.32049307 L7.97074005,8.40677966 C7.97074005,8.583658 7.80397954,8.72709584 7.59813531,8.72727273 L6.280778,8.72727273 C6.07478809,8.72727273 5.90780029,8.58378309 5.90780029,8.40677966 L5.90780029,4.32049307 C5.90780029,4.14348964 6.07478809,4 6.280778,4 L7.59813531,4 Z M11.3159772,4 C11.5219671,4 11.6889549,4.12875484 11.6889549,4.28758199 L11.6889549,6.07605438 C11.6889549,6.23488153 11.5219671,6.36363636 11.3159772,6.36363636 L9.61445287,6.36363636 C9.40846296,6.36363636 9.24147514,6.23488153 9.24147514,6.07605438 L9.24147514,4.28758199 C9.24147514,4.12875484 9.40846296,4 9.61445287,4 L11.3159772,4 Z" id="形状结合" fill="#B6C2D3" fill-rule="nonzero"></path>
            </g>
        </g>
    </g>
</svg>