<?xml version="1.0" encoding="UTF-8"?>
<svg width="12px" height="12px" viewBox="0 0 12 12" version="1.1" xmlns="http://www.w3.org/2000/svg" xmlns:xlink="http://www.w3.org/1999/xlink">
    <title>白刷新</title>
    <g id="页面-1" stroke="none" stroke-width="1" fill="none" fill-rule="evenodd">
        <g id="增加刷新按钮" transform="translate(-305.000000, -333.000000)">
            <g id="白刷新" transform="translate(305.000000, 333.000000)">
                <rect id="矩形" x="0" y="0" width="12" height="12"></rect>
                <g id="形状" opacity="0.7" transform="translate(0.400000, 0.400000)" fill="#999999" fill-rule="nonzero" stroke="#999999" stroke-width="0.5">
                    <path d="M7.33295627,0.576474017 C7.3868848,0.449436105 7.53349182,0.390157558 7.66041222,0.444071676 C10.1642915,1.50768667 11.5230563,4.26934131 10.8116687,6.92427604 C10.1016782,9.57399664 7.55243628,11.2853742 4.85700349,10.9624269 C4.67125089,10.9401714 4.57980628,10.7325052 4.67474484,10.5821422 L4.70000423,10.5485707 L6.18211324,8.87602286 L6.21490827,8.84508041 C6.29638531,8.78103093 6.40983935,8.77419175 6.49835974,8.82799351 L6.53460458,8.85477412 L6.56550997,8.88758026 C6.6294769,8.9690904 6.63626233,9.08262588 6.58246255,9.17123518 L6.55568628,9.20751846 L5.41046306,10.5004135 L5.45814287,10.5013935 C7.70039664,10.5245196 9.73171207,9.02534993 10.3293239,6.79503214 C10.9760147,4.3815492 9.74066855,1.87073988 7.46511974,0.904116651 C7.33819934,0.850202533 7.27902774,0.703511929 7.33295627,0.576474017 Z M0.188331293,4.07716802 C0.898321789,1.42744742 3.44756372,-0.283930151 6.14299651,0.0390171576 C6.32874911,0.0612726937 6.42019372,0.268938866 6.32525516,0.419301882 L6.29999577,0.452873349 L4.81788676,2.12542121 L4.78509173,2.15636365 C4.70361469,2.22041313 4.59016065,2.22725232 4.50164026,2.17345055 L4.46539542,2.14666994 L4.43449003,2.1138638 C4.3705231,2.03235366 4.36373767,1.91881819 4.41753745,1.83020889 L4.44431372,1.7939256 L5.58961214,0.500961982 L5.54185713,0.500050532 C3.29960336,0.476924451 1.26828793,1.97609413 0.670676077,4.20641192 C0.0239852715,6.61989486 1.25933145,9.13070418 3.53488026,10.0973274 C3.66180066,10.1512415 3.72097226,10.2979321 3.66704373,10.42497 C3.6131152,10.552008 3.46650818,10.6112865 3.33958778,10.5573724 C0.83570855,9.49375739 -0.523056325,6.73210275 0.188331293,4.07716802 Z"></path>
                </g>
            </g>
        </g>
    </g>
</svg>