<?xml version="1.0" encoding="UTF-8"?>
<svg width="22px" height="22px" viewBox="0 0 22 22" version="1.1" xmlns="http://www.w3.org/2000/svg" xmlns:xlink="http://www.w3.org/1999/xlink">
    <title>斯诺克备份@2x</title>
    <g id="页面-1" stroke="none" stroke-width="1" fill="none" fill-rule="evenodd">
        <g id="画板" transform="translate(-298.000000, -187.000000)" fill="#FF9124">
            <path d="M300.416144,191.13174 C304.210144,186.38674 311.132144,185.61474 315.877144,189.40874 C320.622144,193.20174 321.393144,200.12374 317.600144,204.86874 C313.806144,209.61374 306.885144,210.38474 302.140144,206.59174 C297.394144,202.79874 296.623144,195.87674 300.416144,191.13174 Z M309.012144,192.33074 C307.348144,192.33074 305.700144,193.05974 304.580144,194.45974 C302.625144,196.90574 303.023144,200.47374 305.468144,202.42874 C306.513144,203.26374 307.763144,203.66974 309.004144,203.66974 C310.668144,203.66974 312.316144,202.93974 313.436144,201.53974 C315.391144,199.09474 314.994144,195.52674 312.548144,193.57174 C311.503144,192.73674 310.253144,192.33074 309.012144,192.33074 Z M309.009644,194.60894 C309.484644,194.60894 309.961644,194.73894 310.361644,195.00694 C311.296644,195.63194 311.448644,196.77194 310.701644,197.55294 C310.611644,197.64694 310.509644,197.72494 310.404644,197.79994 C310.433644,197.81694 310.464644,197.83094 310.493644,197.84894 C311.519644,198.53494 311.685644,199.78594 310.865644,200.64394 C310.395644,201.13494 309.704644,201.38994 309.006644,201.38994 C308.485644,201.38994 307.961644,201.24894 307.523644,200.95494 C306.497644,200.26894 306.330644,199.01794 307.150644,198.16094 C307.286644,198.01894 307.443644,197.90294 307.610644,197.80194 C306.718644,197.16994 306.580644,196.05794 307.314644,195.28994 C307.743644,194.84294 308.373644,194.60894 309.009644,194.60894 Z M309.009644,198.23894 C308.513644,198.23894 308.041644,198.42294 307.747644,198.73094 C307.529644,198.95894 307.430644,199.22194 307.459644,199.49394 C307.492644,199.79094 307.677644,200.06594 307.981644,200.26894 C308.267644,200.46094 308.631644,200.56594 309.006644,200.56594 C309.502644,200.56594 309.974644,200.38194 310.269644,200.07394 C310.486644,199.84594 310.585644,199.58294 310.556644,199.31094 C310.523644,199.01294 310.338644,198.73794 310.034644,198.53494 C309.748644,198.34494 309.384644,198.23894 309.009644,198.23894 Z M309.009644,195.43394 C308.576644,195.43394 308.166644,195.59394 307.911644,195.85994 C307.728644,196.05194 307.644644,196.27194 307.669644,196.49694 C307.696644,196.74694 307.854644,196.97794 308.113644,197.15094 C308.361644,197.31794 308.679644,197.40894 309.006644,197.40894 C309.439644,197.40894 309.850644,197.24994 310.104644,196.98294 C310.288644,196.79194 310.371644,196.57194 310.346644,196.34594 C310.319644,196.09694 310.162644,195.86494 309.903644,195.69194 C309.654644,195.52594 309.337644,195.43394 309.009644,195.43394 Z" id="斯诺克备份"></path>
        </g>
    </g>
</svg>