<?xml version="1.0" encoding="UTF-8"?>
<svg width="14px" height="22px" viewBox="0 0 14 22" version="1.1" xmlns="http://www.w3.org/2000/svg" xmlns:xlink="http://www.w3.org/1999/xlink">
    <title>摩托车备份@2x</title>
    <g id="页面-1" stroke="none" stroke-width="1" fill="none" fill-rule="evenodd">
        <g id="画板" transform="translate(-813.000000, -187.000000)" fill="#FF9124">
            <path d="M824.553588,194.79355 C824.692681,194.70755 824.869956,194.78955 824.903593,194.95555 L824.903593,194.95555 L825.097232,195.92455 C825.429056,197.37455 825.331781,198.88455 825.005413,200.33355 L825.005413,200.33355 L824.608134,202.09955 C824.563588,202.29755 824.464495,202.47655 824.321766,202.61655 L824.321766,202.61655 L822.283553,204.61155 L822.283553,206.61255 C822.283553,208.00655 821.130808,209.13155 819.775333,208.98755 C818.596224,208.86255 817.734393,207.74555 817.734393,206.49955 L817.734393,206.49955 L817.734393,204.61155 L815.69618,202.61655 C815.55436,202.47655 815.454358,202.29755 815.409812,202.09955 L815.409812,202.09955 L815.012533,200.33355 C814.687074,198.88455 814.58889,197.37455 814.921623,195.92455 L814.921623,195.92455 L815.114353,194.95555 C815.14799,194.78955 815.325265,194.70755 815.464358,194.79355 L815.464358,194.79355 L816.075277,195.17255 C816.515283,195.44655 816.981654,195.66955 817.461662,195.84455 C817.573481,195.88555 817.637119,196.00255 817.611664,196.12355 C817.150748,198.36355 817.127111,200.68455 817.559845,202.94255 L817.559845,202.94255 L817.734393,203.85755 L817.734393,201.10355 C817.734393,200.55555 817.918941,200.05455 818.219855,199.65055 C818.271674,199.58055 818.301674,199.49855 818.303493,199.41055 C818.318947,198.40055 818.426222,197.39355 818.626225,196.40355 C818.652589,196.27555 818.769863,196.19355 818.893501,196.21355 C819.261689,196.27055 819.634422,196.30255 820.008973,196.30255 C820.383524,196.30255 820.756257,196.27055 821.124445,196.21355 C821.248083,196.19355 821.366266,196.27555 821.391721,196.40355 C821.591724,197.39355 821.698999,198.40055 821.715363,199.41055 C821.716272,199.49855 821.747181,199.58155 821.798091,199.65055 C822.099005,200.05455 822.283553,200.55555 822.283553,201.10355 L822.283553,201.10355 L822.283553,203.85755 L822.45901,202.94255 C822.890835,200.68455 822.867198,198.36355 822.406282,196.12355 C822.381736,196.00255 822.445374,195.88555 822.556285,195.84455 C823.037201,195.66955 823.501753,195.44655 823.943578,195.17255 L823.943578,195.17255 Z M817.006473,187.71025 C818.906502,186.76325 821.11199,186.76325 823.012019,187.71025 L823.012019,187.71025 L823.382024,187.89525 C823.652938,188.02925 823.825668,188.31725 823.825668,188.63225 L823.825668,188.63225 L823.825668,188.81525 C823.825668,189.87525 824.232037,190.89225 824.954776,191.63425 L824.954776,191.63425 L825.280235,191.96925 C825.712969,192.41425 825.625695,193.16925 825.103869,193.49325 L825.103869,193.49325 L823.543845,194.46225 C821.363812,195.81625 818.65468,195.81625 816.474646,194.46225 L816.474646,194.46225 L814.913714,193.49325 C814.392797,193.16925 814.305523,192.41425 814.738256,191.96925 L814.738256,191.96925 L815.063716,191.63425 C815.785545,190.89225 816.192824,189.87525 816.192824,188.81525 L816.192824,188.81525 L816.192824,188.63225 C816.192824,188.31725 816.365554,188.02925 816.636467,187.89525 L816.636467,187.89525 Z M822.318372,188.88625 C820.849259,188.15425 819.164687,188.15425 817.697392,188.88625 C817.577391,188.94525 817.502844,189.07325 817.507389,189.21225 C817.548299,190.64025 818.646498,191.75825 820.007428,191.75825 C821.367448,191.75825 822.465647,190.64025 822.508375,189.21425 C822.51292,189.07325 822.438374,188.94525 822.318372,188.88625 Z M815.433085,190.08235 C815.495813,190.06835 815.55036,190.13535 815.525814,190.19635 C815.353993,190.62235 815.106717,191.01335 814.78853,191.34035 L814.78853,191.34035 L814.774893,191.35535 L813.642149,191.60935 C813.605785,191.61635 813.568511,191.62035 813.532147,191.62035 C813.290325,191.62035 813.073049,191.44435 813.02123,191.18635 C812.96032,190.88935 813.141232,190.59635 813.423964,190.53235 L813.423964,190.53235 Z M824.584861,190.08265 L826.594892,190.53265 C826.877623,190.59565 827.058535,190.88865 826.997625,191.18565 C826.944897,191.44365 826.727621,191.62065 826.485799,191.62065 C826.449435,191.62065 826.413071,191.61665 826.375797,191.60865 L826.375797,191.60865 L825.243962,191.35465 L825.230325,191.34065 C824.912139,191.01265 824.663953,190.62265 824.492132,190.19665 C824.467586,190.13565 824.522133,190.06765 824.584861,190.08265 L824.584861,190.08265 Z M818.201309,189.25435 C819.364963,188.76435 820.651346,188.76635 821.814091,189.25435 C821.909547,189.29535 821.971367,189.40435 821.952275,189.51135 C821.784091,190.48435 820.980442,191.20835 820.0077,191.20835 C819.034958,191.20835 818.23131,190.48535 818.063125,189.51135 C818.044034,189.40435 818.105853,189.29435 818.201309,189.25435 Z" id="摩托车备份"></path>
        </g>
    </g>
</svg>