<?xml version="1.0" encoding="UTF-8"?>
<svg width="22px" height="22px" viewBox="0 0 22 22" version="1.1" xmlns="http://www.w3.org/2000/svg" xmlns:xlink="http://www.w3.org/1999/xlink">
    <title>冰球备份@2x</title>
    <g id="页面-1" stroke="none" stroke-width="1" fill="none" fill-rule="evenodd">
        <g id="画板" transform="translate(-402.000000, -187.000000)" fill="#FF9124">
            <path d="M420.81595,190.84979 C420.77995,190.67779 420.98695,190.56779 421.11095,190.69179 L421.11095,190.69179 L422.12495,191.70479 L422.61895,192.20879 C424.03195,193.62379 424.44595,196.01079 423.49595,198.86479 C421.83495,203.85179 416.64895,208.36279 411.91195,208.93979 C409.88595,209.18679 408.27395,208.66879 407.21895,207.61079 L407.21895,207.61079 L406.78895,207.18179 L405.72595,206.12179 C405.60295,205.99879 405.71195,205.79079 405.88195,205.82779 C406.64195,205.98579 407.47595,206.01579 408.36695,205.90779 C411.11595,205.57279 414.09695,203.97579 416.54595,201.52779 C418.37395,199.69979 419.71995,197.59179 420.43795,195.43479 C420.99095,193.77479 421.10695,192.20179 420.81595,190.84979 Z M414.10715,187.06129 C418.84415,186.48329 421.33715,190.05829 419.67715,195.04529 C418.01615,200.03229 412.82915,204.54329 408.09315,205.12029 C403.35615,205.69729 400.86215,202.12229 402.52315,197.13629 C404.18415,192.14829 409.37015,187.63929 414.10715,187.06129 Z M418.03115,190.93029 C417.78915,190.90129 417.56915,191.07329 417.54115,191.31829 C417.48115,191.83029 417.37115,192.36429 417.21415,192.90829 C416.62015,194.96429 415.35915,197.08129 413.66215,198.87029 C413.49515,199.04829 413.50115,199.32729 413.67815,199.49529 C413.85215,199.66029 414.12615,199.65629 414.29515,199.48729 C414.29715,199.48429 414.30015,199.48129 414.30315,199.47829 C416.09515,197.58929 417.43015,195.34329 418.06315,193.15329 C418.23415,192.56429 418.35315,191.98029 418.41815,191.42029 C418.44715,191.17829 418.27315,190.95829 418.03115,190.93029 Z" id="冰球备份"></path>
        </g>
    </g>
</svg>