<?xml version="1.0" encoding="UTF-8"?>
<svg width="22px" height="22px" viewBox="0 0 22 22" version="1.1" xmlns="http://www.w3.org/2000/svg" xmlns:xlink="http://www.w3.org/1999/xlink">
    <title>英式橄榄球未选中</title>
    <g id="英式橄榄球未选中" stroke="none" stroke-width="1" fill="none" fill-rule="evenodd">
        <path d="M0.0932210884,12.244717 C3.73970047,14.120582 6.95329858,17.3274283 9.72966376,21.8883325 C6.02181917,22.3261352 2.72082138,21.417308 1.70219009,20.233338 C0.697341887,19.0653883 -0.273950684,15.9752068 0.0710085899,12.4497898 Z M12.889952,0.000251369652 C16.8205802,1.50879627 19.8528364,4.44623592 22.0001318,8.84750164 C21.8636179,11.9621923 20.8095824,15.4435604 18.1146102,18.0466069 C16.2959631,19.8032199 14.1513562,20.874445 12.0152468,21.4510211 L11.9074035,21.4792934 L11.5963417,20.9552649 C8.46623232,15.7670363 4.75132642,12.1408072 0.44644848,10.1040227 L0.490127939,10.1252837 C1.04790044,8.03361537 2.1304278,5.90410623 3.98030922,4.01799519 C6.69417538,1.25097841 9.93448784,0.189523992 12.8278022,0.00443550656 Z M12.0253413,1.62297684 L11.9905748,1.63608069 L10.9730202,2.25609581 C10.9576111,2.26548488 10.9450295,2.27886835 10.9366093,2.29482751 C10.9108372,2.34367404 10.9295427,2.40416439 10.9783892,2.42993649 L10.9783892,2.42993649 L11.3472472,2.62455097 C11.3616557,2.6321531 11.3739887,2.6431603 11.3831736,2.65661521 C11.4143116,2.70222895 11.4025766,2.76444848 11.3569629,2.79558642 L11.3569629,2.79558642 L10.129297,3.63364504 C10.0942473,3.65757146 10.047913,3.65676955 10.0137123,3.63164461 L10.0137123,3.63164461 L9.54684475,3.28866863 C9.51012983,3.26169666 9.45982547,3.26294923 9.4244984,3.29171502 L9.4244984,3.29171502 L8.43044637,4.10114233 C8.42219684,4.10785968 8.41507206,4.11585037 8.40934074,4.12481304 C8.37958725,4.17134168 8.3931862,4.23318056 8.43971484,4.26293405 L8.43971484,4.26293405 L8.88237811,4.54600222 C8.88930756,4.55043337 8.89566385,4.55570251 8.90130294,4.56169025 C8.93916733,4.60189563 8.93726957,4.66518368 8.89706419,4.70304807 L8.89706419,4.70304807 L7.99458052,5.55298368 C7.96260457,5.5830978 7.91472114,5.58882073 7.87654887,5.56709057 L7.87654887,5.56709057 L7.29977166,5.2387512 C7.26036537,5.21631855 7.21079726,5.2232081 7.17900237,5.2555371 L7.17900237,5.2555371 L6.21970428,6.23095001 C6.21638602,6.234324 6.21331145,6.23792929 6.21050375,6.24173868 C6.17773637,6.28619633 6.1872132,6.3487996 6.23167085,6.38156698 L6.23167085,6.38156698 L6.71545568,6.73813921 L6.71545568,6.73813921 C6.76313848,6.77865796 6.76799198,6.84178816 6.73204801,6.88371924 L6.73204801,6.88371924 L5.89023075,7.86575595 C5.85653343,7.90506616 5.7984029,7.91215383 5.75624728,7.88209213 L5.75624728,7.88209213 L5.32617568,7.57540273 C5.28291905,7.54455589 5.22309237,7.55291929 5.18995309,7.5944458 L5.18995309,7.5944458 L4.34756815,8.65003008 L4.34756815,8.65003008 C4.31256652,8.69677966 4.32162681,8.75944456 4.36586557,8.79250688 L4.36586557,8.79250688 L4.89465249,9.18770149 C4.89581537,9.18857059 4.89695919,9.1894649 4.89808313,9.19038379 C4.9408405,9.22534079 4.94716394,9.28834074 4.91220694,9.3310981 L4.91220694,9.3310981 L4.55174781,9.77199071 C4.55073875,9.77322493 4.54975934,9.77448311 4.54881044,9.77576417 C4.51593746,9.8201438 4.52526545,9.88276942 4.56964508,9.91564239 L4.56964508,9.91564239 L5.62774784,10.6994025 C5.6720459,10.7322151 5.73454341,10.7229892 5.76747103,10.6787766 L5.76747103,10.6787766 L6.07922649,10.2601762 C6.11217491,10.2159356 6.17472458,10.2067306 6.21902132,10.2396034 L6.21902132,10.2396034 L6.96048607,10.7898474 C7.00193609,10.8206076 7.05998715,10.8147661 7.09447757,10.7763642 L7.09447757,10.7763642 L7.99850049,9.7698176 L7.99850049,9.7698176 C8.03566086,9.72759219 8.03162345,9.66440455 7.99016029,9.6279218 L7.99016029,9.6279218 L7.19655856,8.92964462 C7.19614118,8.92927738 7.19572688,8.92890667 7.19531568,8.92853252 C7.15446673,8.89136335 7.15148368,8.82811716 7.18865285,8.7872682 L7.18865285,8.7872682 L8.00479593,7.89032617 C8.03949923,7.8521872 8.09751257,7.84668898 8.13876289,7.87762945 L8.13876289,7.87762945 L8.9179673,8.46208425 C8.95909942,8.49293606 9.01692381,8.48756825 9.05167412,8.44967232 L9.05167412,8.44967232 L10.0041834,7.41094099 C10.0411278,7.37065235 10.0388757,7.30816408 9.99912684,7.27063952 L9.99912684,7.27063952 L9.35093427,6.65871883 C9.34958835,6.65744822 9.34827796,6.65614049 9.34700462,6.65479714 C9.30901061,6.61471424 9.31070398,6.55142039 9.35078689,6.51342637 L9.35078689,6.51342637 L10.2423175,5.66835712 C10.2806746,5.6319989 10.3407011,5.63176558 10.3793397,5.66782452 L10.3793397,5.66782452 L11.007142,6.25371151 C11.0436509,6.28778294 11.099699,6.28969805 11.1384485,6.25819813 L11.1384485,6.25819813 L12.1433383,5.44131074 L12.1433383,5.44131074 C12.1895123,5.39709262 12.1905063,5.33378393 12.1520719,5.29412319 L12.1520719,5.29412319 L11.5734214,4.69701114 C11.5703785,4.69387113 11.5675448,4.69053492 11.5649386,4.68702399 C11.5320198,4.6426783 11.5412832,4.5800431 11.5856289,4.54712435 L11.5856289,4.54712435 L12.694111,3.72427457 C12.7334817,3.69504883 12.7882351,3.69867997 12.8234017,3.73284887 L12.8234017,3.73284887 L13.4912397,4.38174117 C13.5233855,4.41297503 13.5723874,4.41900462 13.6111462,4.39649543 L13.6111462,4.39649543 L14.5824479,3.83241126 L14.5824479,3.83241126 L14.5969196,3.82219213 C14.6390345,3.78646374 14.6442118,3.72335926 14.6084834,3.68124435 L14.6084834,3.68124435 L14.0681274,3.0442986 C14.0641739,3.0396385 14.060656,3.03462582 14.0576178,3.02932346 C14.0301599,2.98140425 14.0467471,2.92029907 14.0946663,2.89284121 L14.0946663,2.89284121 L14.4622151,2.68223469 C14.4751251,2.67483718 14.4862217,2.66465194 14.4946958,2.65242152 C14.5261496,2.60702505 14.5148469,2.54472555 14.4694505,2.5132717 L14.4694505,2.5132717 L13.3727094,1.75337277 C13.3399337,1.73066346 13.2967992,1.72959604 13.2629404,1.75065638 L13.2629404,1.75065638 L12.8158902,2.02872338 C12.7832038,2.0490544 12.7417495,2.04881913 12.7092961,2.0281184 L12.7092961,2.0281184 L12.0963856,1.63716791 C12.064212,1.6166457 12.0231633,1.61622392 11.9905748,1.63608069 Z M16.5361709,0.228532405 C18.1151602,0.525536556 19.3648007,1.03843771 20.0315951,1.5265806 C20.7796045,2.07417888 21.4673528,3.58407453 21.8020397,5.55193103 C20.3748843,3.38483859 18.6706871,1.64238091 16.6910084,0.329868035 Z" id="形状结合" fill="#FF9124" fill-rule="nonzero"></path>
    </g>
</svg>