<?xml version="1.0" encoding="UTF-8"?>
<svg width="22px" height="22px" viewBox="0 0 22 22" version="1.1" xmlns="http://www.w3.org/2000/svg" xmlns:xlink="http://www.w3.org/1999/xlink">
    <title>足选备份 2</title>
    <defs>
        <polygon id="path-1" points="0.000214634146 -5.36585366e-05 22.0021704 -5.36585366e-05 22.0021704 21.9999463 0.000214634146 21.9999463"></polygon>
        <linearGradient x1="74.0154399%" y1="99.9905141%" x2="23.8071351%" y2="22.857965%" id="linearGradient-3">
            <stop stop-color="#FF9124" offset="0.0218531469%"></stop>
            <stop stop-color="#F7B500" offset="100%"></stop>
        </linearGradient>
    </defs>
    <g id="足选备份-2" stroke="none" stroke-width="1" fill="none" fill-rule="evenodd">
        <g id="编组">
            <mask id="mask-2" fill="white">
                <use xlink:href="#path-1"></use>
            </mask>
            <g id="Clip-2"></g>
            <path d="M19.7073927,15.7240238 C19.5601701,15.9945656 19.3999094,16.2569585 19.2282403,16.5122891 C19.2195482,16.5258706 19.2103129,16.5399952 19.2010775,16.5535767 C19.1549007,16.6214837 19.1011183,16.6845015 19.0533117,16.7513221 L15.9361051,16.7513221 C15.7573736,16.7513221 15.5905938,16.6638578 15.4890048,16.5177217 L14.2992728,14.801574 C14.2025731,14.661957 14.1764968,14.4853986 14.2291927,14.3240514 L15.5927669,10.1246775 C15.6487223,9.95300842 15.7867095,9.81991054 15.9610949,9.76993093 L17.8337005,9.23753942 C17.9945045,9.19190586 18.1667168,9.22178497 18.3019877,9.32011443 L20.6586351,11.0335459 C20.8069441,11.141654 20.8960382,11.3187556 20.8862596,11.5023764 C20.8107469,13.0213219 20.3978719,14.4538897 19.7106522,15.7185912 C19.7095657,15.720221 19.7084792,15.7218507 19.7073927,15.7240238 M6.33187083,9.00611209 L4.42395349,8.46285544 C4.25011137,8.41341909 4.11212418,8.28032121 4.05616875,8.1075656 L3.16088179,5.34999486 C3.1043831,5.176696 3.13534873,4.98383989 3.24888937,4.84150665 C4.34463802,3.46489431 5.79459001,2.38707312 7.46401768,1.74657354 C7.63568678,1.68083948 7.83125917,1.7107186 7.98011149,1.81828342 L10.3693542,3.55507491 C10.5095144,3.65720716 10.593176,3.82018415 10.593176,3.99402628 L10.593176,5.88890546 C10.593176,6.06329084 10.5095144,6.22681109 10.3693542,6.32840008 L6.80015806,8.92245056 C6.66488716,9.02078002 6.4926748,9.05174564 6.33187083,9.00611209 M15.2010788,8.92245056 L11.6318827,6.32840008 C11.4911792,6.22626783 11.4080609,6.06274758 11.4080609,5.88890546 L11.4080609,3.99402628 C11.4080609,3.82018415 11.4911792,3.65720716 11.6318827,3.55507491 L14.0276445,1.81393736 C14.2194141,1.79329361 14.3731557,1.77699591 14.5654685,1.75689541 C14.6817255,1.80524526 14.8012419,1.84707602 14.9169556,1.89651237 C16.4282956,2.55059337 17.7397171,3.57463215 18.7507177,4.84856898 C18.8637151,4.99090222 18.8946807,5.18375833 18.8381821,5.35651394 L17.9445249,8.10810885 C17.8885694,8.28032121 17.7505823,8.41341909 17.5767401,8.46285544 L15.6688228,9.00556883 C15.5085621,9.05174564 15.3358065,9.02078002 15.2010788,8.92245056 M2.04992196,15.2345495 C1.88314217,14.8814327 1.73320333,14.5212535 1.60934082,14.1512958 C1.60553802,14.1404306 1.60064871,14.1295655 1.59684591,14.1192436 C1.53545791,13.9334499 1.48330528,13.7443965 1.43278241,13.5558865 C1.41050888,13.4716817 1.38823536,13.3880202 1.36759161,13.3032721 C1.32467433,13.1245407 1.28610311,12.9447228 1.2524212,12.763275 C1.21928255,12.5780245 1.19972531,12.3878847 1.16550014,12.2031774 C1.16387037,12.189596 1.16169734,12.1771011 1.16006757,12.1635197 C1.13996708,11.9451305 1.12095309,11.7261981 1.10900145,11.5056359 C1.09867957,11.3225584 1.18668715,11.1465433 1.33499621,11.0389785 L3.69870587,9.32011443 C3.83397678,9.22178497 4.00673239,9.19190586 4.16753636,9.23753942 L6.04014201,9.76993093 C6.21398414,9.81991054 6.35251458,9.95300842 6.40847002,10.1246775 L7.7720442,14.3240514 C7.82474009,14.4853986 7.79866377,14.661957 7.70142083,14.801574 L6.51223204,16.5177217 C6.41009979,16.6638578 6.24386326,16.7513221 6.06567508,16.7513221 L3.22335631,16.7513221 C3.06472537,16.6682038 2.932714,16.598667 2.77353981,16.5160919 C2.69694062,16.3992918 2.62414423,16.2803186 2.54591527,16.1651482 C2.53993945,16.1553695 2.53450688,16.1455909 2.52853106,16.1368988 C2.42259601,15.944586 2.30905538,15.7571624 2.20800964,15.5621333 C2.15205421,15.4545685 2.10207459,15.3442874 2.04992196,15.2345495 M12.8058603,20.7399124 C12.6092014,20.7763106 12.4098262,20.8061897 12.2093645,20.8311795 C12.0963671,20.8447609 11.9833697,20.8588856 11.8703723,20.8692074 C11.6427478,20.8887647 11.4129502,20.8990866 11.1815229,20.9039759 C11.0516846,20.9061489 10.9223895,20.9056056 10.7925511,20.9028894 C10.574162,20.898 10.3568593,20.8882214 10.1422729,20.8697507 C9.92551354,20.85128 9.71092716,20.8192278 9.49471102,20.7947813 C9.48330263,20.7926083 9.47189424,20.7909785 9.46102911,20.7888055 C9.26599997,20.7486045 9.06934107,20.7208984 8.87539844,20.6785244 C8.64831717,20.6285447 8.42395217,20.5704163 8.20338997,20.5057687 C8.15992944,20.4921873 8.1153824,20.4834952 8.07192187,20.4699138 L7.09949247,17.4765697 C7.04679658,17.3152225 7.0728729,17.1386641 7.16957258,16.9995904 L8.34735298,15.3008268 C8.44894198,15.1541475 8.61572177,15.0666832 8.79390995,15.0666832 L13.2067837,15.0666832 C13.3849719,15.0666832 13.5522949,15.1541475 13.6533406,15.3008268 L14.831121,16.9995904 C14.928364,17.1386641 14.9544403,17.3152225 14.9017444,17.477113 L14.0194956,20.1933962 C13.9635402,20.3661518 13.8260962,20.5030525 13.6511676,20.550859 C13.4637441,20.6019252 13.2741475,20.6470155 13.0829212,20.688303 C12.9911108,20.7078602 12.8982139,20.7230714 12.8058603,20.7399124 M20.1371087,17.1060687 C21.367585,15.2709477 22.0151469,13.1544198 22.0023018,10.9401057 C21.9977627,10.2115986 21.9146444,9.4934133 21.7712247,8.79152571 C21.7706814,8.78717966 21.7695949,8.78337686 21.7685084,8.77903081 C21.4648279,7.30137273 20.8667024,5.89922733 19.9822806,4.64810728 C19.9822806,4.64756402 19.9822806,4.64702077 19.9817373,4.64647751 C19.3760061,3.79139155 18.666513,3.03626481 17.872815,2.4011978 C16.8286757,1.56621233 15.6400302,0.932775084 14.3383873,0.518270264 C14.3296952,0.515553981 14.3204598,0.513380955 14.3112244,0.510664671 C14.2215871,0.481872069 14.1281469,0.461228317 14.0374231,0.434608741 C13.8092553,0.368874687 13.580001,0.308029943 13.3491169,0.257507075 C13.1057379,0.204267924 12.8574697,0.168956242 12.6119176,0.108111497 C12.578779,0.0999626477 12.5429241,0.0956165945 12.5086989,0.0956165945 C12.3457219,0.0939868246 12.1930668,0.0651942224 12.0355223,0.0499830363 C11.3314617,-0.0179240443 10.6252281,-0.016837531 9.92279726,0.0521560629 C9.87770695,0.0565021161 9.83370317,0.0630211958 9.78915612,0.0679105056 C9.48819194,0.101049161 9.18885753,0.146682719 8.89060963,0.205354437 C8.8308514,0.216762826 8.77109317,0.227627959 8.71187819,0.240122862 C8.3571316,0.315635536 8.00455804,0.402556599 7.65524402,0.513380955 C7.65470076,0.513380955 7.65415751,0.513924211 7.65415751,0.514467468 C7.33689562,0.614969947 7.02778259,0.734486409 6.72355887,0.862694977 C6.72084259,0.863781491 6.71812631,0.864868004 6.71541002,0.865954517 C5.03348745,1.5754477 3.55528612,2.68586428 2.40412529,4.12549439 C2.30144978,4.25424621 2.2085529,4.38734409 2.11619927,4.52044197 L2.02221587,4.65571287 C2.00972096,4.67364034 1.99885583,4.69265432 1.98636093,4.71112505 C1.88368542,4.85726109 1.78970202,5.00774318 1.69408885,5.15931178 C1.61911944,5.27774173 1.54523653,5.39725819 1.47515643,5.51840442 C1.38877862,5.66834326 1.30566035,5.81936861 1.22580163,5.97365349 C1.15409175,6.11327045 1.08781444,6.25451718 1.02153713,6.39630716 C0.955259816,6.54027017 0.886266222,6.6815169 0.825964735,6.8281962 C0.714053866,7.10091103 0.611921616,7.37742866 0.52228427,7.65720584 C0.483713048,7.77726555 0.454920446,7.90058481 0.420152021,8.02173105 C0.365826356,8.21513041 0.314216975,8.40852978 0.270213187,8.60464543 C0.215887522,8.84911092 0.175143274,9.0973792 0.127879946,9.34727726 C0.126793432,9.35651262 0.124620406,9.37335358 0.122990636,9.3831322 C0.10451991,9.59282926 0.0692082281,9.79600725 0.0501942455,10.0046178 C0.0230314132,10.3093848 0.0056472006,10.616868 0.00347417402,10.9254378 C0.00347417402,10.9504276 0.000214634146,10.9743309 0.000214634146,10.9987775 C0.000214634146,11.1258995 0.0148825636,11.2503053 0.0192286167,11.3763408 C0.0257476965,11.5615913 0.0311802629,11.7468419 0.0474779623,11.9315491 C0.0637756616,12.1244052 0.0893087239,12.3145451 0.1159283,12.5046849 C0.133312512,12.6296339 0.150696725,12.7529532 0.172426991,12.8768157 C0.209368442,13.0908588 0.251742461,13.3027289 0.300635559,13.512426 C0.320736055,13.5982605 0.34409609,13.6830085 0.366369613,13.7677566 C0.427214357,13.9997245 0.489688871,14.2306112 0.565201545,14.456606 C0.570090855,14.4729037 0.577153191,14.4892014 0.582585758,14.5054991 C0.742846468,14.9786756 0.93515932,15.4355545 1.15572152,15.8777654 C1.19755228,15.9619702 1.23449373,16.0494345 1.27795426,16.1325528 C1.35346694,16.2743427 1.4365852,16.4101569 1.5180737,16.5481441 C1.60934082,16.7051453 1.70060793,16.8605167 1.8000239,17.0126285 C1.87336355,17.1239961 1.94996273,17.2321042 2.02710518,17.3412988 C2.09283923,17.4336524 2.15314072,17.5308954 2.2210478,17.6216192 C2.29764699,17.7232082 2.37859223,17.8177349 2.45682118,17.9155211 C2.48833007,17.953549 2.51766593,17.9932068 2.54971807,18.0312347 C3.03593277,18.6190384 3.56343497,19.1476271 4.12842188,19.5996167 C4.94113382,20.2493516 5.84945893,20.7757673 6.83112369,21.1756042 C6.84253208,21.179407 6.85394047,21.183753 6.8648056,21.1880991 C7.07015661,21.2554629 7.26192621,21.3472733 7.46619071,21.4162669 C7.50584844,21.4298483 7.54659269,21.4385404 7.58679368,21.4515786 C7.73184321,21.4988419 7.87960901,21.5390429 8.02683156,21.5803304 C8.19741415,21.628137 8.36691022,21.6732273 8.53912258,21.7123418 C8.69992655,21.7498265 8.86181703,21.7829651 9.02533728,21.8128442 C9.19320358,21.8432666 9.36106988,21.8677132 9.5300227,21.8899867 C9.69408621,21.9122602 9.85814971,21.9361635 10.0249295,21.9502882 C10.2373429,21.9693021 10.4502995,21.9763645 10.6637993,21.9828836 C10.7757102,21.9861431 10.8849048,21.9997245 10.9973589,21.9997245 C11.0935153,21.9997245 11.185869,21.9877729 11.2809389,21.9850566 C11.5177988,21.979624 11.7535721,21.9703887 11.9893455,21.9492017 C12.1327653,21.9367068 12.2723822,21.916063 12.413629,21.8975923 C12.6157204,21.871516 12.8167254,21.8427234 13.0177304,21.8052386 C13.1464822,21.7813353 13.2741475,21.755259 13.4012696,21.7264664 C13.6288941,21.6764868 13.8532591,21.6172718 14.0770808,21.5526243 C14.1688912,21.5260047 14.2607016,21.5015582 14.3514254,21.4722223 C14.4117269,21.4532083 14.4731149,21.4396269 14.5339597,21.4184399 C16.5347739,20.7409989 18.28569,19.5154119 19.5965683,17.8747768 L19.5971116,17.8742336 C19.6400289,17.8199079 19.6791433,17.7644957 19.7182578,17.7085403 L19.7801891,17.621076 C19.8817781,17.4858051 19.9725019,17.3445583 20.0681151,17.2060279 C20.0909319,17.172346 20.1142919,17.1392073 20.1371087,17.1060687" id="Fill-1" fill="url(#linearGradient-3)" mask="url(#mask-2)"></path>
        </g>
    </g>
</svg>