<?xml version="1.0" encoding="UTF-8"?>
<svg width="22px" height="22px" viewBox="0 0 22 22" version="1.1" xmlns="http://www.w3.org/2000/svg" xmlns:xlink="http://www.w3.org/1999/xlink">
    <title>棒球备份@2x</title>
    <g id="页面-1" stroke="none" stroke-width="1" fill="none" fill-rule="evenodd">
        <g id="画板" transform="translate(-454.000000, -187.000000)" fill="#FF9124">
            <path d="M457.224194,190.214263 C459.449965,187.988443 462.39053,186.926135 465.306325,187.003986 C465.212906,187.766922 465.205829,188.515704 465.285801,189.229807 C465.307033,189.425613 465.336128,189.619217 465.37036,189.810829 L465.425221,190.09678 L464.62267,190.311931 C464.317644,190.39332 464.136468,190.707553 464.217856,191.012586 C464.291742,191.286479 464.553654,191.460624 464.827661,191.433381 L464.919204,191.416702 L465.72034,191.201551 C465.82862,191.528524 465.957204,191.847137 466.100715,192.158583 L466.249004,192.467686 L465.527133,192.883833 C465.253246,193.041657 465.159827,193.392693 465.316941,193.665878 C465.457855,193.908709 465.749749,194.009504 466.004737,193.917563 L466.098261,193.873952 L466.816594,193.459928 C467.006085,193.744967 467.2115,194.019656 467.431345,194.283696 L467.655946,194.544175 L467.06571,195.134424 C466.842071,195.358068 466.842071,195.720428 467.06571,195.944071 C467.263871,196.142236 467.572191,196.164255 467.795329,196.009629 L467.874631,195.943363 L468.46699,195.350991 C468.590133,195.459982 468.708322,195.573927 468.837834,195.676548 C468.991173,195.799694 469.148286,195.915919 469.308125,196.027531 L469.549797,196.191778 L469.134367,196.910127 C468.976546,197.18402 469.069965,197.53364 469.343144,197.692172 C469.57386,197.82381 469.855531,197.779931 470.033876,197.601582 L470.082974,197.54576 L470.082974,197.54576 L470.125172,197.481975 L470.539186,196.763626 C470.847043,196.91862 471.163658,197.052912 471.484851,197.171281 L471.807415,197.284518 L471.592269,198.089918 C471.510174,198.394243 471.69135,198.708477 471.995668,198.790574 C472.200906,198.845777 472.408975,198.782081 472.549103,198.64195 C472.594869,198.596183 472.6334,198.542553 472.661761,198.481897 L472.696308,198.385751 L472.911454,197.584597 C473.884565,197.78347 474.892355,197.837257 475.907929,197.723312 L476.004886,197.707035 L476.004886,197.707035 C476.082027,200.622187 475.018328,203.559988 472.793973,205.784393 C470.568202,208.010214 467.628345,209.073229 464.713258,208.996086 C464.805261,208.23315 464.812338,207.484368 464.733782,206.76885 C464.711607,206.573044 464.682512,206.379754 464.648594,206.188142 L464.594361,205.901877 L465.395497,205.686726 C465.496701,205.66054 465.582335,205.608875 465.651691,205.539517 C465.791111,205.400094 465.855514,205.191313 465.799604,204.986778 C465.726355,204.712248 465.46508,204.537466 465.191194,204.56562 L465.099672,204.582662 L464.298536,204.797813 C464.190786,204.47031 464.062335,204.151564 463.918558,203.840383 L463.769871,203.531678 L464.49245,203.114824 C464.537036,203.090053 464.575961,203.05962 464.611347,203.024234 C464.789691,202.845885 464.83357,202.564207 464.701227,202.334194 C464.560941,202.090734 464.269117,201.989869 464.01364,202.081305 L463.919907,202.124705 L463.202282,202.539437 C463.01279,202.254397 462.807375,201.979708 462.58753,201.715668 L462.362929,201.455189 L462.953165,200.86494 C463.176804,200.641296 463.176804,200.278937 462.953873,200.056001 C462.755083,199.857207 462.446693,199.835118 462.223548,199.989736 L462.144244,200.056001 L461.551177,200.649081 C461.428035,200.54009 461.311261,200.426145 461.180334,200.322109 C461.027467,200.199435 460.869882,200.083367 460.710095,199.971807 L460.469078,199.807587 L460.8838,199.08853 C461.042329,198.815345 460.94891,198.465724 460.675023,198.3079 C460.433456,198.166982 460.12926,198.225139 459.9538,198.432166 L459.894411,198.516681 L459.479689,199.235738 C459.171832,199.080745 458.855615,198.946054 458.533725,198.827785 L458.210044,198.714847 L458.426606,197.909446 C458.508701,197.603705 458.326818,197.29018 458.021792,197.20879 C457.746631,197.134903 457.464592,197.275416 457.352636,197.525595 L457.321859,197.612906 L457.107421,198.414768 C456.132187,198.216602 455.12369,198.163522 454.105992,198.275344 L454.012574,198.290914 L454.012574,198.290914 C453.936848,195.377177 454.999839,192.438669 457.224194,190.214263 Z M466.1633,187.054306 C468.5844,187.308382 470.938268,188.358658 472.793902,190.214334 C474.562521,191.982993 475.599993,194.204216 475.913654,196.50507 L475.955275,196.850748 L475.813732,196.870565 C475.026952,196.958526 474.253172,196.936774 473.505315,196.820908 L473.133607,196.755204 L473.338845,195.992268 C473.420232,195.687235 473.239057,195.373001 472.93403,195.291612 C472.65887,195.217725 472.376257,195.357665 472.264703,195.608245 L472.234098,195.695728 L472.030983,196.449463 C471.788944,196.366895 471.551308,196.275518 471.318495,196.173657 L470.972946,196.012792 L471.363606,195.334784 C471.522135,195.061599 471.428716,194.711979 471.154829,194.554154 C470.911375,194.413866 470.609206,194.472092 470.433226,194.679127 L470.373509,194.763643 L469.981434,195.443067 C469.769591,195.301048 469.565925,195.148335 469.368761,194.987444 L469.077679,194.740288 L469.626868,194.191087 C469.851214,193.966736 469.850506,193.605084 469.627576,193.382148 C469.428786,193.183354 469.120955,193.160706 468.897437,193.315697 L468.817947,193.382148 L468.264512,193.935595 C468.096547,193.744979 467.937075,193.546499 467.786095,193.340995 L467.565995,193.027574 L468.245404,192.635489 C468.28999,192.609303 468.33033,192.578871 468.365008,192.544192 C468.543353,192.365843 468.587231,192.08275 468.454888,191.854152 C468.314603,191.610692 468.022779,191.509827 467.767302,191.601263 L467.673568,191.644663 L466.995575,192.035332 C466.883756,191.808385 466.779486,191.577035 466.68549,191.339813 L466.552544,190.979394 L467.31334,190.774859 C467.413128,190.748673 467.500178,190.697008 467.569534,190.62765 C467.708954,190.488227 467.772649,190.280153 467.717447,190.074911 C467.644198,189.800381 467.38235,189.626173 467.108349,189.653409 L467.016807,189.670087 L466.258842,189.874622 C466.210717,189.631162 466.165423,189.386286 466.137822,189.135041 C466.07894,188.607355 466.071693,188.057022 466.116806,187.495637 L466.1633,187.054306 Z M454.063742,199.151023 L454.153622,199.137628 C454.168169,199.135138 454.184997,199.13215 454.205285,199.128375 C454.992064,199.040414 455.765845,199.062166 456.51281,199.178923 L456.883995,199.245151 L456.680172,200.006672 C456.598785,200.31312 456.77996,200.625938 457.084986,200.708743 C457.289517,200.763239 457.498293,200.698835 457.637713,200.559412 C457.683479,200.513645 457.721696,200.4597 457.750267,200.399254 L457.785626,200.30392 L457.987326,199.548769 C458.229837,199.631809 458.467315,199.723657 458.699971,199.825781 L459.045363,199.986855 L458.654703,200.663448 C458.49759,200.936633 458.590301,201.286961 458.864187,201.444786 C459.093488,201.576424 459.375867,201.533252 459.554212,201.354904 L459.603487,201.298373 L459.603487,201.298373 L459.6448,201.236004 L460.036875,200.556581 C460.248718,200.698599 460.452383,200.851312 460.649758,201.011994 L460.941337,201.258652 L460.391441,201.808561 C460.16851,202.031496 460.16851,202.393856 460.392149,202.6175 C460.590939,202.816294 460.89877,202.837823 461.121294,202.683578 L461.200362,202.6175 L461.754505,202.063344 C461.921998,202.254432 462.081313,202.45307 462.23224,202.658627 L462.452314,202.972074 L461.772905,203.364158 C461.501849,203.520567 461.406308,203.870895 461.564129,204.144788 C461.704414,204.388248 461.997356,204.489113 462.252088,204.397677 L462.345448,204.354277 L463.022026,203.963608 C463.134317,204.191026 463.239374,204.422534 463.333631,204.659598 L463.466472,205.019546 L462.705676,205.224081 C462.40065,205.30547 462.218767,205.618996 462.300862,205.924737 C462.374748,206.198629 462.636087,206.373347 462.910496,206.345703 L463.00221,206.328852 L463.761591,206.125733 C463.809008,206.368485 463.852886,206.613361 463.880487,206.863191 C463.939935,207.392575 463.94639,207.942342 463.900937,208.504158 L463.855717,208.944634 C461.433909,208.691266 459.080749,207.640282 457.224407,205.783898 C455.368772,203.928221 454.317104,201.574301 454.063742,199.151023 Z" id="棒球备份"></path>
        </g>
    </g>
</svg>