<?xml version="1.0" encoding="UTF-8"?>
<svg width="22px" height="22px" viewBox="0 0 22 22" version="1.1" xmlns="http://www.w3.org/2000/svg" xmlns:xlink="http://www.w3.org/1999/xlink">
    <title>1114加载中</title>
    <g id="日间模式" stroke="none" stroke-width="1" fill="none" fill-rule="evenodd">
        <g id="羽毛球-以开赛-双打" transform="translate(-177.000000, -733.000000)" fill-rule="nonzero">
            <g id="1114加载中" transform="translate(177.000000, 733.000000)">
                <rect id="矩形" fill="#000000" opacity="0" x="0" y="0" width="22" height="22"></rect>
                <path d="M11.2297754,0.043034616 C10.6641348,0.0463847656 10.2112227,0.504453125 10.2054863,1.0899668 C10.1999648,1.65898047 10.2043047,2.22808008 10.2044121,2.79713672 C10.204498,3.38271484 10.1965488,3.96842187 10.2067754,4.55378516 C10.216959,5.13532422 10.6798613,5.56660156 11.2669863,5.56157549 C11.8302637,5.55667578 12.2892129,5.11014453 12.2922207,4.54214062 C12.2984512,3.38750586 12.2989238,2.23284961 12.2917266,1.0782793 C12.2880098,0.483591797 11.8218633,0.0395957031 11.2297539,0.043034616 M7.02094336,1.93524805 C6.84208594,1.63016992 6.55589258,1.47846875 6.19800586,1.47668555 C5.44298047,1.47692188 4.98241992,2.27083398 5.36039453,2.94146875 C5.9182793,3.93133984 6.48600391,4.91571094 7.05738086,5.89791211 C7.33577539,6.37649805 7.91776563,6.52796289 8.38550195,6.2606543 C8.84339844,5.99893164 9.02311523,5.42358008 8.75909375,4.95333008 C8.19072461,3.94105078 7.60813281,2.9367207 7.02094336,1.93524805 M2.10729492,6.97408594 C3.05956836,7.52818945 4.01489258,8.07698633 4.96901367,8.62795312 C5.11332422,8.71124805 5.26302734,8.77630273 5.43500977,8.76560352 C5.86766211,8.76893359 6.20788867,8.50914453 6.32283008,8.08783594 C6.42999414,7.69516602 6.26510156,7.29828516 5.88787891,7.0780918 C4.92926758,6.51848828 3.96814258,5.96326758 3.00673828,5.40851953 C2.52269531,5.12922266 1.97937695,5.25754883 1.72130664,5.70715234 C1.45911133,6.16391016 1.61448633,6.68735547 2.10729492,6.97408594 M2.84122266,12.0436895 C3.40845312,12.0434316 3.97572656,12.0480937 4.54289258,12.0420566 C5.04566992,12.0366855 5.38407031,11.6894121 5.37631445,11.2012656 C5.36894531,10.7370957 5.01305664,10.3983945 4.52613477,10.3979004 C3.41629492,10.3967617 2.30651953,10.3966543 1.19670117,10.3988457 C0.677445313,10.399877 0.321857422,10.7420156 0.324994756,11.2300117 C0.328130859,11.7059766 0.681226563,12.0408535 1.18883789,12.0432812 C1.73963281,12.0459668 2.29040625,12.0439258 2.84122266,12.0436895 M6.10048828,14.1966602 C5.8990293,13.8467871 5.45728906,13.7116719 5.09373047,13.9187383 C4.09386914,14.4881816 3.10023828,15.0688398 2.10703711,15.6499492 C1.86851758,15.7895117 1.75658398,16.0120469 1.75318945,16.1948145 C1.75426367,16.851291 2.33799414,17.2251836 2.83583008,16.9484863 C3.84868945,16.3856816 4.84913086,15.7999316 5.84654297,15.2097988 C6.21549414,14.9915391 6.30824219,14.5575117 6.10048828,14.1966387 M8.07490234,16.3805898 C7.76819141,16.2934492 7.48094531,16.4118066 7.30404297,16.7172715 C6.74758651,17.6784598 6.19418918,18.6414158 5.64385937,19.606125 C5.42871484,19.9831543 5.51774609,20.372752 5.85354687,20.573459 C6.19798437,20.7792793 6.58936523,20.6606855 6.81432812,20.2726992 C7.36331836,19.3260977 7.9079043,18.3768965 8.45511133,17.4292422 C8.52618164,17.3061367 8.57742187,17.1782187 8.57862556,17.1085664 C8.57901172,16.7257578 8.37959375,16.4671504 8.07490234,16.3805898 M11.2427734,17.3323794 C10.8903438,17.3343242 10.6553906,17.5883125 10.6530273,17.9804238 C10.6497188,18.5250098 10.652168,19.0696387 10.652168,19.6142891 L10.6506641,19.6142891 C10.6506641,20.175375 10.6477852,20.7365469 10.6516523,21.2976328 C10.6543164,21.6901953 10.8891621,21.9437324 11.2413125,21.9467012 C11.6053438,21.9496406 11.8441641,21.692623 11.8451094,21.2861816 C11.847623,20.1887598 11.8480098,19.091252 11.8466133,17.9937656 C11.8461406,17.5901387 11.6054082,17.3304141 11.2427949,17.3323794 M15.0494609,16.7713047 C14.8887793,16.4958105 14.5788672,16.4270391 14.3235898,16.5805879 C14.0774219,16.7287012 13.9893359,17.0237031 14.1406719,17.2900664 C14.7052383,18.2838691 15.2775391,19.2732031 15.851043,20.2618281 C15.948002,20.4289121 16.1015078,20.5188887 16.300582,20.5158164 C16.6992891,20.5128301 16.9563711,20.1005449 16.7566738,19.7447852 C16.1971992,18.7481895 15.6252422,17.7585547 15.0494609,16.7713047 M20.2044219,15.8864062 C19.2314486,15.3222912 18.2579194,14.7591353 17.2838359,14.1969395 C17.1827305,14.1385879 17.0744922,14.1036973 16.9538359,14.1333457 C16.757834,14.1814492 16.6327949,14.3059512 16.5990859,14.5006855 C16.5586094,14.7343066 16.6816719,14.8918516 16.8760195,15.0039355 C17.5160391,15.3730801 18.1556074,15.7428906 18.7954336,16.1123145 C19.1225117,16.3011621 19.4450352,16.4985176 19.7781934,16.6758926 C20.0934121,16.843707 20.4450684,16.6321934 20.4454121,16.2884219 C20.4439082,16.1071367 20.3574336,15.9750937 20.2044219,15.8863848 M21.2542988,10.8454629 C20.7199824,10.8434863 20.1856875,10.8449258 19.6513496,10.8449258 L19.6513496,10.8437871 C19.1088262,10.8437871 18.5662598,10.8422402 18.0237578,10.8444316 C17.734793,10.8455059 17.5733594,10.9804922 17.5690625,11.215832 C17.5647227,11.4550176 17.720957,11.5922598 18.0129297,11.5929043 C19.097998,11.595332 20.1830664,11.5957832 21.2681563,11.5944941 C21.5551875,11.5941934 21.7230234,11.4554043 21.7275781,11.2264023 C21.7321758,10.9933613 21.5532754,10.8466016 21.2542988,10.8454844 M17.2162891,8.1134668 C18.1848564,7.55431572 19.1528355,6.99414614 20.1202246,6.43295898 C20.2247031,6.37230859 20.2972559,6.28568359 20.2947207,6.15484375 C20.2920566,5.91780664 20.0544395,5.78058594 19.8332363,5.90719336 C18.855375,6.46679688 17.8812305,7.03273828 16.9082031,7.60065625 C16.7436328,7.69669141 16.6822305,7.84815625 16.7884922,8.02082617 C16.8923691,8.18958594 17.0481523,8.2105332 17.2162891,8.1134668 M14.5889004,5.64055078 C14.7002539,5.63524414 14.764793,5.56726758 14.8165059,5.47615234 C14.9221016,5.29009766 15.0318867,5.1064707 15.1386426,4.92106055 C15.577998,4.15795703 16.0178047,3.39517578 16.455248,2.63099805 C16.5644746,2.4402168 16.5202383,2.27300391 16.3528535,2.23287109 C16.1879824,2.19333984 16.1185234,2.31214844 16.0509336,2.42966797 C15.5584258,3.2855625 15.0654453,4.14126367 14.5730879,4.99730859 C14.5115566,5.10430078 14.443752,5.20897266 14.394875,5.32172266 C14.3277148,5.4763457 14.4307539,5.63642578 14.5889004,5.64055078" id="形状" fill="#A4A9B4"></path>
            </g>
        </g>
    </g>
</svg>