<?xml version="1.0" encoding="UTF-8"?>
<svg width="14px" height="16px" viewBox="0 0 14 16" version="1.1" xmlns="http://www.w3.org/2000/svg" xmlns:xlink="http://www.w3.org/1999/xlink">
    <title>热门icon</title>
    <defs>
        <linearGradient x1="85.6825673%" y1="46.3661658%" x2="54.6751352%" y2="104.869681%" id="linearGradient-1">
            <stop stop-color="#FF5500" offset="0%"></stop>
            <stop stop-color="#DC0400" offset="100%"></stop>
        </linearGradient>
        <path d="M11.6689059,3.78767523 C11.575498,3.68917523 11.4213496,3.75467523 11.4213496,3.88617523 C11.4213496,4.71667523 11.7296465,5.91067523 10.4673643,6.44267523 C10.4673643,6.44267523 10.6516279,0.867175235 5.0507292,0.00567523459 C4.92720624,-0.0293247654 4.83328795,0.103675235 4.86493433,0.236675235 C5.08084431,1.03317523 5.48101788,3.48867523 3.48066044,5.01617523 C3.35662705,5.11467523 3.26475047,5.18117523 3.14173793,5.28067523 C2.55627991,4.48417523 1.69519213,4.18517523 1.32564409,4.11867523 C1.26388261,4.08567523 1.20314198,4.18517523 1.23223623,4.25167523 C1.7886,5.91067523 0.710581395,7.73617523 0.710581395,7.73617523 L0.741206923,7.73617523 C0.0332467898,8.86467523 -0.243403817,10.1931752 0.24864634,12.0831752 C0.24864634,12.0831752 1.23478836,15.2366752 4.92720624,15.9996752 L4.80572498,15.8671752 C4.80572498,15.8671752 2.55730076,13.4101752 3.54344278,10.5571752 C4.09776484,9.03067523 5.26766003,8.20167523 5.26766003,8.20167523 C5.26766003,8.20167523 4.71231711,10.1916752 6.00624569,10.7896752 C6.00624569,10.7896752 5.78880444,7.80267523 8.15973077,6.74017523 C8.15973077,6.74017523 7.88308016,8.30117523 9.08360088,10.1251752 C10.315768,11.9836752 11.1472511,14.2731752 9.51542083,15.7671752 C9.45365935,15.8001752 9.42201297,15.8671752 9.36127234,15.9001752 C11.1763453,15.4026752 12.3166358,14.2741752 13.0848262,13.1456752 C14.2552318,11.3856752 14.7789283,7.43817523 11.6699268,3.78767523 L11.6689059,3.78767523 Z" id="path-2"></path>
        <linearGradient x1="51.4312262%" y1="89.5146106%" x2="87.3496142%" y2="76.5880577%" id="linearGradient-4">
            <stop stop-color="#FF9900" offset="0%"></stop>
            <stop stop-color="#FFEC00" offset="100%"></stop>
        </linearGradient>
    </defs>
    <g id="页面-1" stroke="none" stroke-width="1" fill="none" fill-rule="evenodd">
        <g id="内嵌-蓝色版-01" transform="translate(-261.000000, -302.000000)">
            <g id="编组-25" transform="translate(240.000000, 170.000000)">
                <g id="编组-65" transform="translate(0.000000, 120.000000)">
                    <g id="编组" transform="translate(20.000000, 12.000000)">
                        <g id="椭圆形-+-椭圆形备份-+-椭圆形备份-蒙版" transform="translate(1.000000, 0.000175)">
                            <mask id="mask-3" fill="white">
                                <use xlink:href="#path-2"></use>
                            </mask>
                            <use id="蒙版" fill="url(#linearGradient-1)" fill-rule="nonzero" xlink:href="#path-2"></use>
                            <circle id="椭圆形备份" fill="url(#linearGradient-4)" opacity="0.341801235" mask="url(#mask-3)" cx="-1" cy="-0.000174765413" r="15"></circle>
                            <circle id="椭圆形备份" fill="url(#linearGradient-4)" opacity="0.341801235" mask="url(#mask-3)" cx="-1" cy="-0.000174765413" r="11.8461538"></circle>
                            <circle id="椭圆形" fill="url(#linearGradient-4)" opacity="0.341801235" mask="url(#mask-3)" cx="-1" cy="-0.000174765413" r="9"></circle>
                            <path d="M4.06666667,5.5341916 C4.21386667,5.5341916 4.33333333,5.65365827 4.33333333,5.80085827 C4.33333333,5.94805827 4.21386667,6.06752494 4.06666667,6.06752494 C3.91946667,6.06752494 3.8,5.94805827 3.8,5.80085827 C3.8,5.65365827 3.91946667,5.5341916 4.06666667,5.5341916 Z M5.2509644,3.12855135 L5.31052934,3.13044619 C5.46178948,3.15218928 5.56373089,3.2969549 5.53483216,3.44700897 C5.41271536,4.07825481 5.19136517,4.62511125 4.81141629,5.23466869 C4.74302669,5.34443723 4.60792321,5.38774945 4.49169771,5.34499027 L4.43539012,5.31609845 C4.31605981,5.23611794 4.28207676,5.07577831 4.35785154,4.95386587 C4.70132675,4.40161602 4.90169796,3.90869623 5.01141852,3.34265465 C5.03470095,3.22347116 5.13461249,3.13789684 5.2509644,3.12855135 Z" id="形状结合" fill="#FFF5C4" mask="url(#mask-3)" transform="translate(4.669868, 4.598038) rotate(10.000000) translate(-4.669868, -4.598038) "></path>
                        </g>
                    </g>
                </g>
            </g>
        </g>
    </g>
</svg>