<svg width="20" height="20" viewBox="0 0 20 20" fill="none" xmlns="http://www.w3.org/2000/svg">
<path fill-rule="evenodd" clip-rule="evenodd" d="M2.46081e-05 10C2.46081e-05 4.49995 4.49997 0 10.0001 0C15.6001 0 20 4.49995 20 10C20 15.5 15.5001 20 10.0001 20C7.99997 20 6.09995 19.3 4.49995 18.2999L6.00002 16.8999C7.20008 17.6 8.60005 18.0001 10.1 18.0001C14.5 18.0001 18.1001 14.4 18.1001 10C18.1001 5.59997 14.5 2.00003 10.1 2.00003C5.8 2.00003 2.4 5.20003 2.1 9.39995L6.00005 10.5555C2.99335 13.6411 1.45675 15.1301 1.39223 15.0222C0.477571 13.5069 -0.00396641 11.7699 2.46081e-05 10ZM13.8001 10.8967L9.24079 13.8138C9.06318 13.9273 8.88354 13.9829 8.70596 13.9829C8.20382 13.9829 7.84084 13.5356 7.84084 12.9171V7.083C7.84084 6.46663 8.20572 6.01715 8.70596 6.01715C8.88357 6.01715 9.06318 6.07487 9.24079 6.18622L13.8001 9.10544C14.1265 9.31513 14.3157 9.64045 14.3157 10C14.3157 10.3595 14.1284 10.687 13.8001 10.8967Z" fill="white"/>
</svg>
