<?xml version="1.0" encoding="UTF-8"?>
<svg width="16px" height="16px" viewBox="0 0 16 16" version="1.1" xmlns="http://www.w3.org/2000/svg" xmlns:xlink="http://www.w3.org/1999/xlink">
    <title>椭圆形备份 6@2x</title>
    <g id="页面-1" stroke="none" stroke-width="1" fill="none" fill-rule="evenodd">
        <g id="视频直播" transform="translate(-10.000000, -496.000000)">
            <g id="椭圆形备份-6" transform="translate(10.000000, 496.000000)">
                <circle id="椭圆形" fill="#D1D1D1" cx="8" cy="8" r="8"></circle>
                <path d="M8.1007357,5.8085248 C7.93198998,5.8085248 7.78454753,5.88686197 7.7177569,6.0044361 L7.7177569,6.0044361 L6.59430644,7.98767735 L4.05561816,8.29692645 C3.89833675,8.31592498 3.77012144,8.40577365 3.72217256,8.52346975 C3.67651392,8.63600848 3.70904975,8.76054432 3.81060791,8.84956368 L3.81060791,8.84956368 L5.65847259,10.4766984 L5.20534989,12.7163676 C5.18084646,12.836459 5.24044741,12.9593516 5.36354659,13.0345155 C5.43800889,13.0787312 5.52458754,13.1025389 5.61126833,13.1031551 L5.61126833,13.1031551 L5.6704989,13.1003672 C5.72411369,13.0947966 5.77615418,13.0809747 5.82348628,13.0597704 L5.82348628,13.0597704 L8.0440926,12.0419167 L10.2446069,13.0904711 C10.3099782,13.1209799 10.3821176,13.1371727 10.4531159,13.1377778 L10.4531159,13.1377778 L10.5242661,13.1336213 C10.5887227,13.1253706 10.6503723,13.1050244 10.7035496,13.0742649 C10.8307961,12.9991949 10.8929414,12.8767223 10.8707693,12.7562221 L10.8707693,12.7562221 L10.4581351,10.5111197 L12.335401,8.91031212 C12.4384844,8.8226222 12.4732275,8.69872109 12.4295056,8.58579718 C12.3836197,8.46715323 12.257058,8.37549552 12.1001232,8.35437525 L12.1001232,8.35437525 L9.56719398,8.00894464 L8.47977066,6.00930312 C8.41530101,5.89039729 8.26763242,5.80976429 8.1007357,5.8085248 Z M11.4216645,3.2 C11.5864564,3.2 11.7200466,3.31479171 11.7200466,3.45639446 L11.7200466,6.72542372 C11.7200466,6.86702648 11.5864564,6.98181818 11.4216645,6.98181818 L10.368077,6.98181818 C10.2032851,6.98181818 10.0696948,6.86702648 10.0696948,6.72542372 L10.0696948,3.45639446 C10.0696948,3.31479171 10.2032851,3.2 10.368077,3.2 L11.4216645,3.2 Z M5.78045103,3.2 C5.94512642,3.20014151 6.07853482,3.31489178 6.07853482,3.45639446 L6.07853482,6.72542372 C6.07853482,6.8669264 5.94512642,6.98167668 5.78045103,6.98181818 L4.72656518,6.98181818 C4.56177326,6.98181818 4.42818301,6.86702647 4.42818301,6.72542372 L4.42818301,3.45639446 C4.42818301,3.31479171 4.56177326,3.2 4.72656518,3.2 L5.78045103,3.2 Z M8.75472458,3.2 C8.9195165,3.2 9.05310674,3.30300387 9.05310674,3.43006559 L9.05310674,4.86084351 C9.05310674,4.98790522 8.9195165,5.09090909 8.75472458,5.09090909 L7.39350508,5.09090909 C7.22871315,5.09090909 7.0951229,4.98790522 7.0951229,4.86084351 L7.0951229,3.43006559 C7.0951229,3.30300387 7.22871315,3.2 7.39350508,3.2 L8.75472458,3.2 Z" id="形状结合" fill="#FDFDFD" fill-rule="nonzero"></path>
            </g>
        </g>
    </g>
</svg>