<?xml version="1.0" encoding="UTF-8"?>
<svg width="20px" height="20px" viewBox="0 0 20 20" version="1.1" xmlns="http://www.w3.org/2000/svg" xmlns:xlink="http://www.w3.org/1999/xlink">
    <title>5</title>
    <g id="页面-1" stroke="none" stroke-width="1" fill="none" fill-rule="evenodd">
        <g id="赛狗-赛马" transform="translate(0.000000, -390.000000)">
            <g id="5" transform="translate(0.000000, 390.000000)">
                <rect id="矩形备份-2" stroke-opacity="0.25" stroke="#000000" fill="#F5DE31" x="0.5" y="0.5" width="19" height="19" rx="2"></rect>
                <path d="M10.038,15.052 C11.074,15.052 11.788,14.688 12.236,14.24 C12.964,13.512 13.118,12.728 13.118,11.608 C13.118,10.67 13.006,9.732 12.222,8.948 C11.816,8.542 11.186,8.276 10.36,8.276 C9.688,8.276 9.128,8.528 8.862,8.78 L8.862,6.638 L12.894,6.638 L12.894,5 L7.21,5 L7.21,10.628 L8.876,10.628 C9.002,10.236 9.338,9.816 10.08,9.816 C10.962,9.816 11.298,10.46 11.298,11.608 C11.298,12.238 11.228,12.77 10.906,13.092 C10.682,13.316 10.388,13.414 10.038,13.414 C9.282,13.414 8.918,12.966 8.82,12.182 L7,12.182 C7.056,12.91 7.196,13.638 7.812,14.254 C8.246,14.688 9.002,15.052 10.038,15.052 Z" fill="#000000" fill-rule="nonzero"></path>
            </g>
        </g>
    </g>
</svg>