<?xml version="1.0" encoding="UTF-8"?>
<svg width="20px" height="20px" viewBox="0 0 20 20" version="1.1" xmlns="http://www.w3.org/2000/svg" xmlns:xlink="http://www.w3.org/1999/xlink">
    <title>矩形备份 24@2x</title>
    <g id="页面-1" stroke="none" stroke-width="1" fill="none" fill-rule="evenodd">
        <g id="虚拟赛狗（与赛马图标不同）" transform="translate(-28.000000, -659.000000)">
            <g id="编组" transform="translate(15.000000, 527.000000)">
                <g transform="translate(13.000000, 132.000000)">
                    <rect id="矩形备份" stroke-opacity="0.25" stroke="#000000" fill="#FF9124" x="0.5" y="0.5" width="19" height="19" rx="2"></rect>
                    <path d="M9.836,15.084 C10.872,15.084 11.586,14.72 12.034,14.272 C12.762,13.544 12.916,12.76 12.916,11.64 C12.916,10.702 12.804,9.764 12.02,8.98 C11.614,8.574 10.984,8.308 10.158,8.308 C9.486,8.308 8.926,8.56 8.66,8.812 L8.66,6.67 L12.692,6.67 L12.692,5.032 L7.008,5.032 L7.008,10.66 L8.674,10.66 C8.8,10.268 9.136,9.848 9.878,9.848 C10.76,9.848 11.096,10.492 11.096,11.64 C11.096,12.27 11.026,12.802 10.704,13.124 C10.48,13.348 10.186,13.446 9.836,13.446 C9.08,13.446 8.716,12.998 8.618,12.214 L6.798,12.214 C6.854,12.942 6.994,13.67 7.61,14.286 C8.044,14.72 8.8,15.084 9.836,15.084 Z" id="5" fill="#000000" fill-rule="nonzero"></path>
                </g>
            </g>
        </g>
    </g>
</svg>