<?xml version="1.0" encoding="UTF-8"?>
<svg width="18px" height="18px" viewBox="0 0 18 18" version="1.1" xmlns="http://www.w3.org/2000/svg" xmlns:xlink="http://www.w3.org/1999/xlink">
    <title>编组 2@2x</title>
    <g id="页面-1" stroke="none" stroke-width="1" fill="none" fill-rule="evenodd">
        <g id="早盘列表" transform="translate(-524.000000, -389.000000)">
            <g id="编组-3" transform="translate(510.000000, 383.000000)">
                <g id="编组-2" transform="translate(14.000000, 6.000000)">
                    <circle id="椭圆形" fill="#F5F8FA" cx="9" cy="9" r="9"></circle>
                    <g id="形状结合@2x" transform="translate(4.000000, 4.000000)" fill="#B6C2D3" fill-rule="nonzero">
                        <path d="M5.10493302,2.71721334 C4.92915622,2.71721334 4.77557035,2.79881455 4.70599677,2.9212876 L4.70599677,2.9212876 L3.53573588,4.9871639 L0.891268912,5.30929839 C0.727434113,5.32908852 0.593876495,5.42268089 0.543929748,5.54528098 C0.49636867,5.66250883 0.530260153,5.79223366 0.636049905,5.88496217 L0.636049905,5.88496217 L2.56090895,7.57989414 L2.08890614,9.91288296 C2.06338173,10.0379782 2.12546606,10.1659913 2.25369437,10.244287 C2.33125926,10.290345 2.42144536,10.3151447 2.51173785,10.3157866 L2.51173785,10.3157866 L2.57343635,10.3128825 C2.6292851,10.3070798 2.68349393,10.292682 2.73279821,10.2705942 L2.73279821,10.2705942 L5.04592979,9.21032987 L7.33813218,10.3025741 C7.40622733,10.334354 7.48137253,10.3512216 7.55532906,10.3518518 L7.55532906,10.3518518 L7.62944385,10.3475222 C7.69658615,10.3389277 7.76080445,10.3177337 7.81619749,10.2856926 C7.94874596,10.2074947 8.01348066,10.079919 7.99038468,9.95439802 L7.99038468,9.95439802 L7.56055744,7.61574967 L9.51604269,5.94824179 C9.62342121,5.85689813 9.65961196,5.72783447 9.61406836,5.6102054 C9.56627051,5.48661794 9.43443544,5.39114117 9.27096167,5.36914088 L9.27096167,5.36914088 L6.63249373,5.00931733 L5.49976111,2.92635742 C5.43260522,2.80249718 5.27878378,2.71850447 5.10493302,2.71721334 Z M8.5642338,0 C8.73589205,0 8.87504856,0.119574695 8.87504856,0.267077558 L8.87504856,3.67231638 C8.87504856,3.81981925 8.73589205,3.93939394 8.5642338,3.93939394 L7.46674685,3.93939394 C7.2950886,3.93939394 7.1559321,3.81981925 7.1559321,3.67231638 L7.1559321,0.267077558 C7.1559321,0.119574695 7.2950886,0 7.46674685,0 L8.5642338,0 Z M2.68796982,0 C2.85950669,0.000147401601 2.99847377,0.119678935 2.99847377,0.267077558 L2.99847377,3.67231638 C2.99847377,3.819715 2.85950669,3.93924654 2.68796982,3.93939394 L1.59017206,3.93939394 C1.41851381,3.93939394 1.27935731,3.81981924 1.27935731,3.67231638 L1.27935731,0.267077558 C1.27935731,0.119574699 1.41851381,0 1.59017206,0 L2.68796982,0 Z M5.78617144,0 C5.95782969,0 6.09698619,0.107295703 6.09698619,0.23965166 L6.09698619,1.73004532 C6.09698619,1.86240127 5.95782969,1.96969697 5.78617144,1.96969697 L4.36823446,1.96969697 C4.1965762,1.96969697 4.05741968,1.86240127 4.05741968,1.73004532 L4.05741968,0.23965166 C4.05741968,0.107295703 4.1965762,0 4.36823446,0 L5.78617144,0 Z" id="形状结合"></path>
                    </g>
                </g>
            </g>
        </g>
    </g>
</svg>