<?xml version="1.0" encoding="UTF-8"?>
<svg width="16px" height="16px" viewBox="0 0 16 16" version="1.1" xmlns="http://www.w3.org/2000/svg" xmlns:xlink="http://www.w3.org/1999/xlink">
    <title>暂停</title>
    <g id="页面-1" stroke="none" stroke-width="1" fill="none" fill-rule="evenodd">
        <g id="赛况备份-" transform="translate(-1349.000000, -368.000000)" fill-rule="nonzero">
            <g id="暂停" transform="translate(1349.000000, 368.000000)">
                <rect id="矩形" fill="#000000" opacity="0" x="0" y="0" width="16" height="16"></rect>
                <path d="M13.76,4.64 L14.3,4.10285714 C14.444,3.94285714 14.444,3.71428571 14.3,3.57714286 L13.34,2.62857143 C13.196,2.51428571 12.956,2.51428571 12.812,2.62857143 L12.26,3.2 C11.336,2.51428571 10.244,2.05714286 9.056,1.89714286 L9.056,1.48571429 C9.212,1.44 9.332,1.29142857 9.332,1.12 L9.332,0.411428571 C9.332,0.182857143 9.14,0 8.912,0 L7.112,0 C6.872,0 6.692,0.182857143 6.692,0.411428571 L6.692,1.12 C6.692,1.29142857 6.812,1.44 6.968,1.49714286 L6.968,1.90857143 C3.476,2.4 0.8,5.34857143 0.8,8.91428571 C0.8,12.8228571 4.04,16 8,16 C11.96,16 15.2,12.8228571 15.2,8.91428571 C15.2,7.31428571 14.66,5.82857143 13.76,4.64 Z M2.144,8.91428571 C2.156,5.73714286 4.76,3.15428571 8,3.15428571 C11.24,3.15428571 13.844,5.73714286 13.844,8.91428571 C13.844,12.08 11.228,14.6628571 8,14.6628571 C4.76,14.6628571 2.156,12.08 2.156,8.91428571 L2.144,8.91428571 Z M9.08,8.57142857 C9.128,8.68571429 9.14,8.8 9.14,8.91428571 C9.14,9.53142857 8.636,10.0342857 8,10.0342857 C7.364,10.0342857 6.86,9.53142857 6.86,8.91428571 C6.86,8.28571429 7.364,7.77142857 8,7.77142857 C8.12,7.77142857 8.24,7.80571429 8.36,7.84 L10.796,5.44 C11,5.21142857 11.324,5.21142857 11.54,5.44 C11.744,5.63428571 11.744,5.95428571 11.54,6.16 L9.08,8.57142857 Z M8.552,12.5714286 L8.552,13.5085714 C8.552,13.7142857 8.3648,13.8742857 8.12,13.8742857 C7.8752,13.8742857 7.688,13.7142857 7.688,13.5085714 L7.688,12.5714286 C7.688,12.3428571 7.8752,12.1942857 8.12,12.1942857 C8.3648,12.1942857 8.552,12.3542857 8.552,12.56 L8.552,12.5714286 Z M4.676,8.91428571 C4.676,9.10857143 4.508,9.28 4.316,9.28 L3.356,9.28 C3.116,9.28 2.972,9.10857143 2.972,8.91428571 C2.972,8.70857143 3.128,8.54857143 3.332,8.54857143 L4.292,8.54857143 C4.532,8.54857143 4.676,8.70857143 4.676,8.91428571 L4.676,8.91428571 Z M7.688,5.25714286 L7.688,4.30857143 C7.688,4.10285714 7.8752,3.94285714 8.12,3.94285714 C8.3648,3.94285714 8.552,4.10285714 8.552,4.30857143 L8.552,5.26857143 C8.552,5.47428571 8.3648,5.64571429 8.12,5.64571429 C7.8752,5.64571429 7.688,5.47428571 7.688,5.28 L7.688,5.25714286 Z M12.68,9.28 L11.696,9.28 C11.492,9.28 11.336,9.10857143 11.336,8.91428571 C11.336,8.70857143 11.492,8.53714286 11.696,8.53714286 L12.656,8.53714286 C12.872,8.53714286 13.04,8.70857143 13.04,8.91428571 C13.04,9.10857143 12.872,9.28 12.68,9.28 Z" id="形状" fill="#FA5858"></path>
            </g>
        </g>
    </g>
</svg>