<?xml version="1.0" encoding="UTF-8"?>
<svg width="16px" height="16px" viewBox="0 0 16 16" version="1.1" xmlns="http://www.w3.org/2000/svg" xmlns:xlink="http://www.w3.org/1999/xlink">
    <title>犯规</title>
    <g id="页面-1" stroke="none" stroke-width="1" fill="none" fill-rule="evenodd">
        <g id="赛况备份-" transform="translate(-1394.000000, -368.000000)" fill-rule="nonzero">
            <g id="编组-22备份" transform="translate(1349.000000, 368.000000)">
                <g id="犯规" transform="translate(45.000000, 0.000000)">
                    <rect id="矩形" fill="#000000" opacity="0" x="0" y="0" width="16" height="16"></rect>
                    <path d="M5.89714286,3.65714286 L6.53714286,1.42857143 L4.48,1.42857143 L5.14285714,3.65714286 M5.44,5.74857143 L0.731428571,8.29714286 L0.731428571,9.02857143 C0.457142857,9.54285714 0.274285714,10.1142857 0.274285714,10.7428571 C0.274285714,12.8457143 2.13714286,14.5714286 4.43428571,14.5714286 C6,14.5714286 7.33714286,13.7714286 8.04571429,12.5714286 L11.2914286,13.9085714 L16,11.3714286 L16,10.08 L5.44,5.73714286 L5.44,5.74857143 Z M5.02857143,9.23428571 L3.25714286,8.38857143 L6.22857143,6.76571429 L8.03428571,7.56571429 L5.02857143,9.25714286 L5.02857143,9.23428571 Z M10.8571429,3.62285714 L9.41714286,2.17142857 L8.11428571,4.26285714 L8.68571429,4.86857143 M2.74285714,4.26285714 L1.41714286,2.17142857 L0,3.63428571 L2.17142857,4.84571429" id="形状" fill="#FFB001"></path>
                </g>
            </g>
        </g>
    </g>
</svg>