<?xml version="1.0" encoding="UTF-8"?>
<svg width="20px" height="20px" viewBox="0 0 20 20" version="1.1" xmlns="http://www.w3.org/2000/svg" xmlns:xlink="http://www.w3.org/1999/xlink">
    <title>编组 9备份</title>
    <g id="页面-1" stroke="none" stroke-width="1" fill="none" fill-rule="evenodd" opacity="0.7">
        <g id="内嵌-欧宝1350-1" transform="translate(-1749.000000, -273.000000)">
            <g id="编组-9备份" transform="translate(1749.000000, 273.000000)">
                <rect id="矩形" fill="#000000" x="0" y="0" width="20" height="20" rx="10"></rect>
                <path d="M10,5 C10.4142136,5 10.75,5.33578644 10.75,5.75 L10.749,9.249 L14.25,9.25 C14.6642136,9.25 15,9.58578644 15,10 C15,10.4142136 14.6642136,10.75 14.25,10.75 L10.749,10.749 L10.75,14.25 C10.75,14.6642136 10.4142136,15 10,15 C9.58578644,15 9.25,14.6642136 9.25,14.25 L9.249,10.749 L5.75,10.75 C5.33578644,10.75 5,10.4142136 5,10 C5,9.58578644 5.33578644,9.25 5.75,9.25 L9.249,9.249 L9.25,5.75 C9.25,5.33578644 9.58578644,5 10,5 Z" id="形状结合" fill="#FFFFFF" transform="translate(10.000000, 10.000000) rotate(-315.000000) translate(-10.000000, -10.000000) "></path>
            </g>
        </g>
    </g>
</svg>