<svg width="14" height="14" viewBox="0 0 14 14" fill="none" xmlns="http://www.w3.org/2000/svg">
<path fill-rule="evenodd" clip-rule="evenodd" d="M3.01607 11.8244C2.89976 11.9416 2.74741 12 2.59502 12C2.44268 12 2.29026 11.9416 2.17438 11.824C1.94187 11.5896 1.94187 11.21 2.17438 10.9755L6.11796 7.00014L2.17438 3.02423C1.94187 2.78984 1.94187 2.40982 2.17438 2.17579C2.40694 1.9414 2.7835 1.9414 3.01607 2.17579L7 6.19232L10.9839 2.17579C11.2165 1.9414 11.5931 1.9414 11.8256 2.17579C12.0581 2.40982 12.0581 2.78984 11.8256 3.02423L7.88204 7.00014L11.8256 10.9755C12.0581 11.21 12.0581 11.5896 11.8256 11.824C11.7097 11.9416 11.5573 12 11.405 12C11.2526 12 11.1002 11.9416 10.9839 11.8244L7 7.80826L3.01607 11.8244Z" fill="white"/>
</svg>
