<?xml version="1.0" encoding="UTF-8"?>
<svg width="18px" height="18px" viewBox="0 0 18 18" version="1.1" xmlns="http://www.w3.org/2000/svg" xmlns:xlink="http://www.w3.org/1999/xlink">
    <title>白箭头2</title>
    <g id="页面-1" stroke="none" stroke-width="1" fill="none" fill-rule="evenodd">
        <g id="PC-Y0版-白" transform="translate(-1688.000000, -21.000000)">
            <g id="编组" transform="translate(1688.000000, 21.000000)">
                <g id="白箭头2" transform="translate(9.000000, 9.000000) scale(-1, 1) translate(-9.000000, -9.000000) ">
                    <circle id="椭圆形备份" fill="#F0F6FF" transform="translate(9.000000, 9.000000) scale(-1, 1) translate(-9.000000, -9.000000) " cx="9" cy="9" r="9"></circle>
                    <path d="M9.29181547,10.7918155 C9.14536886,10.9382621 8.907932,10.9382621 8.76148539,10.7918155 L6.10983496,8.14016504 C5.96338835,7.99371843 5.96338835,7.75628157 6.10983496,7.60983496 C6.25628157,7.46338835 6.49371843,7.46338835 6.64016504,7.60983496 L9.02665043,9.99632034 L11.4131358,7.60983496 C11.5595824,7.46338835 11.7970193,7.46338835 11.9434659,7.60983496 C12.0899125,7.75628157 12.0899125,7.99371843 11.9434659,8.14016504 L9.29181547,10.7918155 Z" id="路径" fill="#414655" transform="translate(9.026650, 9.200825) scale(-1, 1) rotate(-90.000000) translate(-9.026650, -9.200825) "></path>
                </g>
            </g>
        </g>
    </g>
</svg>