<?xml version="1.0" encoding="UTF-8"?>
<svg width="14px" height="14px" viewBox="0 0 14 14" version="1.1" xmlns="http://www.w3.org/2000/svg" xmlns:xlink="http://www.w3.org/1999/xlink">
    <title>说明@2x</title>
    <g id="页面-1" stroke="none" stroke-width="1" fill="none" fill-rule="evenodd">
        <g id="罚牌备份-2" transform="translate(-71.000000, -531.000000)" fill="#FFB001" fill-rule="nonzero">
            <g id="编组-6" transform="translate(7.000000, 172.000000)">
                <path d="M64,366 C64,369.865993 67.1340068,373 71,373 C74.8659932,373 78,369.865993 78,366 C78,362.134007 74.8659932,359 71,359 C67.1340068,359 64,362.134007 64,366 Z M72.3090001,362.610838 C72.3092076,363.017227 72.0925931,363.392858 71.7407532,363.596232 C71.3889133,363.799607 70.9553007,363.799828 70.6032532,363.596813 C70.2512057,363.393798 70.0342076,363.01839 70.0339998,362.612 C70.0336791,361.983776 70.542695,361.47424 71.1709189,361.473919 C71.7991428,361.473598 72.3086791,361.982614 72.3090001,362.610838 L72.3090001,362.610838 Z M69.3841621,370.0635 L69.3841621,369.564162 L69.8613242,369.388 C70.1284892,369.289323 70.3058866,369.034644 70.3058379,368.749838 L70.3058379,366.0595 C70.3060856,365.774908 70.128536,365.520467 69.8613379,365.4225 L69.3841621,365.246338 L69.3841621,364.7365 L72.2716621,364.7365 L72.2716621,368.749838 C72.2716621,369.0345 72.449,369.29 72.7173379,369.388 L73.1933379,369.563 L73.1933379,370.0635 L69.3841621,370.0635 L69.3841621,370.0635 Z" id="说明"></path>
            </g>
        </g>
    </g>
</svg>