<?xml version="1.0" encoding="UTF-8"?>
<svg width="14px" height="14px" viewBox="0 0 14 14" version="1.1" xmlns="http://www.w3.org/2000/svg" xmlns:xlink="http://www.w3.org/1999/xlink">
    <title>详情数据 2</title>
    <g id="页面-1" stroke="none" stroke-width="1" fill="none" fill-rule="evenodd">
        <g id="设置备份" transform="translate(-377.000000, -522.000000)">
            <g id="编组-154备份-8" transform="translate(360.000000, 262.451905)">
                <g id="编组-3备份-9" transform="translate(0.000000, 246.548095)">
                    <g id="编组-161" transform="translate(16.000000, 12.000000)">
                        <g id="编组" transform="translate(0.999950, 0.999900)">
                            <path d="M14,7 C14,10.866 10.866,14 7,14 C5.014,14 6.835,11.7455 5.0555,11.272 C2.1595,10.501 0,9.817 0,7 C0,3.1345 3.134,0 7,0 C10.866,0 14,3.1345 14,7" id="Fill-3" fill="#A5AEC8"></path>
                            <path d="M8.50905,8.08885 C9.33755,8.08885 10.00905,8.76035 10.00905,9.58885 C10.00905,10.41685 9.33755,11.08885 8.50905,11.08885 C7.68055,11.08885 7.00905,10.41685 7.00905,9.58885 C7.00905,8.76035 7.68055,8.08885 8.50905,8.08885 Z M10.92945,5.332 C11.48145,5.332 11.92945,5.78 11.92945,6.332 C11.92945,6.884 11.48145,7.332 10.92945,7.332 C10.37745,7.332 9.92945,6.884 9.92945,6.332 C9.92945,5.78 10.37745,5.332 10.92945,5.332 Z M9.6094,3.13135 C10.1614,3.13135 10.6094,3.57935 10.6094,4.13135 C10.6094,4.68335 10.1614,5.13135 9.6094,5.13135 C9.0574,5.13135 8.6094,4.68335 8.6094,4.13135 C8.6094,3.57935 9.0574,3.13135 9.6094,3.13135 Z M4.5481,2.86715 C5.1006,2.86715 5.5481,3.31515 5.5481,3.86715 C5.5481,4.41965 5.1006,4.86715 4.5481,4.86715 C3.9961,4.86715 3.5481,4.41965 3.5481,3.86715 C3.5481,3.31515 3.9961,2.86715 4.5481,2.86715 Z M7.18875,2.03125 C7.74125,2.03125 8.18875,2.47925 8.18875,3.03125 C8.18875,3.58325 7.74125,4.03125 7.18875,4.03125 C6.63675,4.03125 6.18875,3.58325 6.18875,3.03125 C6.18875,2.47925 6.63675,2.03125 7.18875,2.03125 Z" id="形状结合" fill="#F0F4FF"></path>
                        </g>
                    </g>
                </g>
            </g>
        </g>
    </g>
</svg>