<?xml version="1.0" encoding="UTF-8"?>
<svg width="14px" height="14px" viewBox="0 0 14 14" version="1.1" xmlns="http://www.w3.org/2000/svg" xmlns:xlink="http://www.w3.org/1999/xlink">
    <title>盘口设置</title>
    <g id="页面-1" stroke="none" stroke-width="1" fill="none" fill-rule="evenodd">
        <g id="设置备份" transform="translate(-141.000000, -620.000000)">
            <g id="编组" transform="translate(140.000000, 619.000000)">
                <g id="矩形备份-32" transform="translate(1.000000, 1.000000)">
                    <path d="M13.50665,11.0003 C13.77915,11.0003 14.00015,11.2213 14.00015,11.4938 L14.00015,11.4938 L14.00015,12.5003 C14.00015,13.3253 13.32465,14.0003 12.50015,14.0003 L12.50015,14.0003 L9.50015,14.0003 L9.50015,11.4938 C9.50015,11.2213 9.72065,11.0003 9.99365,11.0003 L9.99365,11.0003 Z M12.5003,0.00015 C13.3248,0.00015 14.0003,0.67515 14.0003,1.50015 L14.0003,1.50015 L14.0003,4.50665 C14.0003,4.77915 13.7788,5.00015 13.5063,5.00015 L13.5063,5.00015 L9.9938,5.00015 C9.7208,5.00015 9.5003,4.77915 9.5003,4.50665 L9.5003,4.50665 L9.5003,0.49365 C9.5003,0.22115 9.7208,0.00015 9.9938,0.00015 L9.9938,0.00015 Z" id="形状结合" fill="#3D4152"></path>
                    <path d="M8.0065,11.00015 C8.279,11.00015 8.5,11.22115 8.5,11.49365 L8.5,11.49365 L8.5,14.00015 L1.5,14.00015 C0.675,14.00015 0,13.32515 0,12.50015 L0,12.50015 L0,11.49365 C0,11.22115 0.221,11.00015 0.494,11.00015 L0.494,11.00015 Z M13.5065,6.00015 C13.779,6.00015 14,6.22115 14,6.49365 L14,6.49365 L14,9.50665 C14,9.77915 13.779,10.00015 13.5065,10.00015 L13.5065,10.00015 L9.994,10.00015 C9.721,10.00015 9.5,9.77915 9.5,9.50665 L9.5,9.50665 L9.5,6.49365 C9.5,6.22115 9.721,6.00015 9.994,6.00015 L9.994,6.00015 Z M8.00665,0 C8.27915,0 8.50015,0.2215 8.50015,0.494 L8.50015,0.494 L8.50015,9.5065 C8.50015,9.779 8.27915,10 8.00665,10 L8.00665,10 L0.49365,10 C0.22065,10 0.00015,9.779 0.00015,9.5065 L0.00015,9.5065 L0.00015,1.5 C0.00015,0.675 0.67515,0 1.50015,0 L1.50015,0 Z" id="形状结合" fill="#717B89"></path>
                </g>
            </g>
        </g>
    </g>
</svg>