<?xml version="1.0" encoding="UTF-8"?>
<svg width="14px" height="14px" viewBox="0 0 14 14" version="1.1" xmlns="http://www.w3.org/2000/svg" xmlns:xlink="http://www.w3.org/1999/xlink">
    <title>矩形备份 32</title>
    <g id="页面-1" stroke="none" stroke-width="1" fill="none" fill-rule="evenodd">
        <g id="设置备份" transform="translate(-377.000000, -291.000000)">
            <g id="编组-154备份-8" transform="translate(360.000000, 262.451905)">
                <g id="编组-3" transform="translate(0.000000, 15.548095)">
                    <g id="形状结合" transform="translate(16.000000, 12.000000)">
                        <path d="M14.5066,12.00015 C14.7791,12.00015 15.0001,12.22115 15.0001,12.49365 L15.0001,12.49365 L15.0001,13.50015 C15.0001,14.32515 14.3246,15.00015 13.5001,15.00015 L13.5001,15.00015 L10.5001,15.00015 L10.5001,12.49365 C10.5001,12.22115 10.7206,12.00015 10.9936,12.00015 L10.9936,12.00015 Z M13.50025,1 C14.32475,1 15.00025,1.675 15.00025,2.5 L15.00025,2.5 L15.00025,5.5065 C15.00025,5.779 14.77875,6 14.50625,6 L14.50625,6 L10.99375,6 C10.72075,6 10.50025,5.779 10.50025,5.5065 L10.50025,5.5065 L10.50025,1.4935 C10.50025,1.221 10.72075,1 10.99375,1 L10.99375,1 Z" fill="#F0F4FF"></path>
                        <path d="M9.00645,12 C9.27895,12 9.49995,12.221 9.49995,12.4935 L9.49995,12.4935 L9.49995,15 L2.49995,15 C1.67495,15 0.99995,14.325 0.99995,13.5 L0.99995,13.5 L0.99995,12.4935 C0.99995,12.221 1.22095,12 1.49395,12 L1.49395,12 Z M14.50645,7 C14.77895,7 14.99995,7.221 14.99995,7.4935 L14.99995,7.4935 L14.99995,10.5065 C14.99995,10.779 14.77895,11 14.50645,11 L14.50645,11 L10.99395,11 C10.72095,11 10.49995,10.779 10.49995,10.5065 L10.49995,10.5065 L10.49995,7.4935 C10.49995,7.221 10.72095,7 10.99395,7 L10.99395,7 Z M9.0066,0.99985 C9.2791,0.99985 9.5001,1.22135 9.5001,1.49385 L9.5001,1.49385 L9.5001,10.50635 C9.5001,10.77885 9.2791,10.99985 9.0066,10.99985 L9.0066,10.99985 L1.4936,10.99985 C1.2206,10.99985 1.0001,10.77885 1.0001,10.50635 L1.0001,10.50635 L1.0001,2.49985 C1.0001,1.67485 1.6751,0.99985 2.5001,0.99985 L2.5001,0.99985 Z" fill="#A5AEC8"></path>
                    </g>
                </g>
            </g>
        </g>
    </g>
</svg>