<?xml version="1.0" encoding="UTF-8"?>
<svg width="8px" height="8px" viewBox="0 0 8 8" version="1.1" xmlns="http://www.w3.org/2000/svg" xmlns:xlink="http://www.w3.org/1999/xlink">
    <title>夜</title>
    <g id="页面-1" stroke="none" stroke-width="1" fill="none" fill-rule="evenodd">
        <g id="设置备份" transform="translate(-171.000000, -595.000000)" fill="#717B89">
            <g id="夜" transform="translate(171.000000, 595.000000)">
                <path d="M4,0 C4.94511355,0 5.81366974,0.327780997 6.49819012,0.875864527 C6.13551461,0.74058951 5.74305678,0.666666667 5.33333333,0.666666667 C3.49238417,0.666666667 2,2.15905083 2,4 C2,5.84094917 3.49238417,7.33333333 5.33333333,7.33333333 C5.74305678,7.33333333 6.13551461,7.25941049 6.49809715,7.12417449 C5.81366974,7.672219 4.94511355,8 4,8 C1.790861,8 0,6.209139 0,4 C0,1.790861 1.790861,0 4,0 Z M7.80473785,4.86192881 L7.56315104,5.33333333 L7.80473785,5.80473785 L7.33333333,5.56315104 L6.86192881,5.80473785 L7.10351563,5.33333333 L6.86192881,4.86192881 L7.33333333,5.10351562 L7.80473785,4.86192881 Z M4.76794382,4.24614025 L4.46340841,4.84037537 L4.76794382,5.43461049 L4.1737087,5.13007508 L3.57947358,5.43461049 L3.88400899,4.84037537 L3.57947358,4.24614025 L4.1737087,4.55067566 L4.76794382,4.24614025 Z M7.23934849,1.42731792 L6.69322624,2.49295763 L7.23934849,3.55859733 L6.17370879,3.01247508 L5.10806908,3.55859733 L5.65419134,2.49295763 L5.10806908,1.42731792 L6.17370879,1.97344018 L7.23934849,1.42731792 Z" id="形状结合"></path>
            </g>
        </g>
    </g>
</svg>