<?xml version="1.0" encoding="UTF-8"?>
<svg width="12px" height="14px" viewBox="0 0 12 14" version="1.1" xmlns="http://www.w3.org/2000/svg" xmlns:xlink="http://www.w3.org/1999/xlink">
    <!-- Generator: Sketch 61.1 (89650) - https://sketch.com -->
    <title>锁定备份 8</title>
    <desc>Created with Sketch.</desc>
    <g id="页面-1" stroke="none" stroke-width="1" fill="none" fill-rule="evenodd">
        <g id="滚球展开(收藏及动画)" transform="translate(-1223.000000, -718.000000)" fill="#6D7278" fill-rule="nonzero">
            <path d="M1232.60465,722.55814 L1232.44186,722.55814 L1232.44186,721.744186 C1232.44186,719.68 1230.76186,718 1228.69767,718 C1226.63349,718 1224.95349,719.68 1224.95349,721.744186 L1224.95349,722.55814 L1224.7907,722.55814 C1223.80247,722.559931 1223.00179,723.360605 1223,724.348837 L1223,730.209302 C1223,731.195814 1223.80419,732 1224.7907,732 L1232.60465,732 C1233.59116,732 1234.39535,731.195814 1234.39535,730.209302 L1234.39535,724.348837 C1234.39535,723.362326 1233.59116,722.55814 1232.60465,722.55814 Z M1225.93023,721.744186 C1225.93023,720.217209 1227.1707,718.976744 1228.69767,718.976744 C1230.22465,718.976744 1231.46512,720.217209 1231.46512,721.744186 L1231.46512,722.55814 L1225.93023,722.55814 L1225.93023,721.744186 Z M1233.4186,730.209302 C1233.4186,730.425176 1233.33285,730.632208 1233.1802,730.784854 C1233.02756,730.9375 1232.82053,731.023256 1232.60465,731.023256 L1224.7907,731.023256 C1224.57482,731.023256 1224.36779,730.9375 1224.21515,730.784854 C1224.0625,730.632208 1223.97674,730.425176 1223.97674,730.209302 L1223.97674,724.348837 C1223.97674,723.899303 1224.34116,723.534884 1224.7907,723.534884 L1232.60465,723.534884 C1233.05419,723.534884 1233.4186,723.899303 1233.4186,724.348837 L1233.4186,730.209302 L1233.4186,730.209302 Z M1228.69767,725.488372 C1228.42795,725.488372 1228.2093,725.707024 1228.2093,725.976744 L1228.2093,728.581395 C1228.2093,728.851116 1228.42795,729.069767 1228.69767,729.069767 C1228.96739,729.069767 1229.18605,728.851116 1229.18605,728.581395 L1229.18605,725.976744 C1229.18605,725.707024 1228.96739,725.488372 1228.69767,725.488372 Z" id="锁定备份-8"></path>
        </g>
    </g>
</svg>