<?xml version="1.0" encoding="UTF-8"?>
<svg width="17px" height="18px" viewBox="0 0 17 18" version="1.1" xmlns="http://www.w3.org/2000/svg" xmlns:xlink="http://www.w3.org/1999/xlink">
    <!-- Generator: Sketch 61.1 (89650) - https://sketch.com -->
    <title>形状</title>
    <desc>Created with Sketch.</desc>
    <g id="页面-1" stroke="none" stroke-width="1" fill="none" fill-rule="evenodd">
        <path d="M16.892806,7.9858653 L16.797945,7.38478459 L15.6791126,7.38478459 L15.6791126,7.36907472 C15.6773991,3.60413775 12.8843432,0.44545825 9.20082249,0.0427471718 C5.51730174,-0.359963907 2.12704311,2.12270766 1.33736397,5.80112345 C1.28417462,6.05046927 1.36592437,6.30971129 1.55181888,6.48119555 C1.73771339,6.65267981 1.99951086,6.71035378 2.23859472,6.63249223 C2.47767858,6.55463067 2.6577263,6.35306262 2.71091565,6.1037168 C3.28904055,3.39376572 5.6925364,1.42735524 8.42611328,1.42735524 C11.6557779,1.42735524 14.282197,4.10160209 14.2737649,7.38532015 L0.202721401,7.38532015 L0.107860434,7.98640087 C0.0361196657,8.44199622 0,8.90265682 0,9.36404859 C0.00249292794,13.4727689 2.85177656,17.0114392 6.81436235,17.8271519 C10.7769481,18.6428646 14.7567271,16.5099817 16.3324236,12.7261374 C16.7752817,11.6623791 17.0023277,10.518733 16.999982,9.36369155 C17.0001523,8.90225911 16.9643207,8.44153857 16.892806,7.9858653 L16.892806,7.9858653 Z M8.50902879,16.5732683 C4.59724356,16.5732683 1.4146581,13.3390006 1.4146581,9.36369155 C1.4146581,9.18017181 1.42150917,8.99629502 1.43521131,8.81313232 L15.5828463,8.81313232 C15.5965484,8.99629502 15.6033995,9.18017181 15.6033995,9.36369155 C15.6033995,13.3390006 12.420814,16.5732683 8.50902879,16.5732683 Z" id="形状" fill="#111111" fill-rule="nonzero"></path>
    </g>
</svg>