<?xml version="1.0" encoding="UTF-8"?>
<svg width="16px" height="12px" viewBox="0 0 16 12" version="1.1" xmlns="http://www.w3.org/2000/svg" xmlns:xlink="http://www.w3.org/1999/xlink">
    <!-- Generator: Sketch 61.1 (89650) - https://sketch.com -->
    <title>短信验证码</title>
    <desc>Created with Sketch.</desc>
    <g id="页面-1" stroke="none" stroke-width="1" fill="none" fill-rule="evenodd">
        <g id="短信验证码" transform="translate(-1.000000, -3.000000)" fill="#000000" fill-rule="nonzero">
            <rect id="矩形" opacity="0" x="0" y="0" width="18" height="18"></rect>
            <path d="M15.8553571,4.2 L15.8571429,4.201875 L15.8571429,12.598125 L15.8553571,12.6 L11.0160714,12.6 L10.775,12.7275 L9,13.6575 L7.225,12.725625 L6.98392857,12.598125 L2.14464286,12.598125 L2.14285714,12.59625 L2.14285714,4.2 L2.14464286,4.198125 L15.8553571,4.198125 M15.8571429,3 L2.14285714,3 C1.51428571,3 1,3.54 1,4.2 L1,12.6 C1,13.26 1.51428571,13.8 2.14285714,13.8 L6.71428571,13.8 L9,15 L11.2857143,13.8 L15.8571429,13.8 C16.4857143,13.8 17,13.26 17,12.6 L17,4.2 C17,3.54 16.4857143,3 15.8571429,3 Z M4.71785714,7.044375 L4.35357143,7.044375 C4.07678571,7.0275 3.93214286,6.87375 3.91607143,6.585 C3.93214286,6.313125 4.07857143,6.16875 4.35357143,6.15 L5.23035714,6.15 C5.48928571,6.166875 5.62678571,6.320625 5.64464286,6.609375 L5.64464286,10.33875 C5.62857143,10.64625 5.475,10.798125 5.18214286,10.798125 C4.88928571,10.798125 4.73571429,10.644375 4.71964286,10.33875 L4.71964286,7.044375 L4.71785714,7.044375 Z M9.82857143,9.91875 C10.1571429,9.91875 10.3232143,10.065 10.3232143,10.359375 C10.3232143,10.636875 10.175,10.783125 9.87857143,10.8 L7.75357143,10.8 C7.44107143,10.8 7.28392857,10.65375 7.28392857,10.359375 C7.28392857,10.25625 7.325,10.14375 7.40714286,10.021875 C7.48928571,9.91875 7.62142857,9.763125 7.80178571,9.555 C8.34464286,8.9325 8.74107143,8.43 8.9875,8.049375 C9.13571429,7.824375 9.21071429,7.618125 9.21071429,7.426875 C9.17678571,7.115625 9.02857143,6.943125 8.76607143,6.9075 C8.50178571,6.9075 8.3125,7.09875 8.19821429,7.4775 C8.1,7.805625 7.95892857,7.970625 7.77857143,7.970625 C7.48214286,7.95375 7.325,7.798125 7.30892857,7.50375 C7.40714286,6.60375 7.90178571,6.103125 8.79107143,5.998125 C9.68035714,6.050625 10.15,6.508125 10.2,7.3725 C10.2,7.839375 9.82857143,8.52375 9.0875,9.421875 C8.90535714,9.646875 8.775,9.811875 8.69285714,9.915 L9.82857143,9.915 L9.82857143,9.91875 Z M14.3267857,7.205625 C14.3267857,7.635 14.1553571,7.96875 13.8125,8.210625 C14.3035714,8.4675 14.5553571,8.85375 14.5732143,9.369375 C14.4910714,10.245 13.9678571,10.7175 13.0035714,10.785 C12.1214286,10.734375 11.6142857,10.33875 11.4839286,9.6 C11.5160714,9.343125 11.6803571,9.196875 11.975,9.163125 C12.0892857,9.163125 12.2125,9.26625 12.3428571,9.4725 C12.5232143,9.781875 12.7428571,9.935625 13.0053571,9.935625 C13.3642857,9.901875 13.5607143,9.695625 13.5946429,9.316875 C13.5464286,8.904375 13.3571429,8.716875 13.0303571,8.750625 C12.7035714,8.683125 12.5392857,8.5275 12.5392857,8.2875 C12.5392857,8.064375 12.6857143,7.910625 12.9803571,7.824375 C13.275,7.756875 13.4214286,7.591875 13.4214286,7.335 C13.4053571,7.06125 13.2571429,6.915 12.9803571,6.898125 C12.7517857,6.898125 12.5642857,7.018125 12.4160714,7.258125 C12.2857143,7.4475 12.1535714,7.54125 12.0232143,7.54125 C11.7785714,7.524375 11.6464286,7.36125 11.6303571,7.051875 C11.7446429,6.433125 12.1946429,6.0825 12.9785714,5.99625 C13.7785714,6.046875 14.2285714,6.45 14.3267857,7.205625 L14.3267857,7.205625 Z" id="形状"></path>
        </g>
    </g>
</svg>