<?xml version="1.0" encoding="UTF-8"?>
<svg width="24px" height="24px" viewBox="0 0 24 24" version="1.1" xmlns="http://www.w3.org/2000/svg" xmlns:xlink="http://www.w3.org/1999/xlink">
    <title>赛事_选中</title>
    <defs>
        <linearGradient x1="100%" y1="50%" x2="0%" y2="50%" id="linearGradient-1">
            <stop stop-color="#FFB001" offset="0%"></stop>
            <stop stop-color="#FF7000" offset="100%"></stop>
        </linearGradient>
    </defs>
    <g id="页面-1" stroke="none" stroke-width="1" fill="none" fill-rule="evenodd">
        <g id="热门赛事" transform="translate(-262.000000, -143.000000)" fill="url(#linearGradient-1)">
            <g id="赛事_选中" transform="translate(262.000000, 143.000000)">
                <path d="M11.4782609,5.68434189e-14 L11.4782609,7.98260869 C9.49565217,8.24347826 7.93043477,9.91304348 7.93043477,12 C7.93043477,14.0347826 9.49565217,15.7565217 11.4782609,16.0173913 L11.4782609,16.0173913 L11.4782609,23.9478261 C7.04347826,23.7913044 3.2347826,21.3913044 1.3043478,17.2173913 L1.3043478,17.2173913 L1.51750891,17.2126338 C3.99065849,17.1020174 5.96938367,15.076199 5.99683952,12.5761367 C5.99894651,12.384168 6,12.1921224 6,12 C6,11.6240749 5.99596654,11.2403772 5.98789961,10.8489067 C5.93537573,8.29985568 3.85393991,6.26086957 1.3043478,6.26086957 C3.2347826,2.60869566 7.04347826,0.208695656 11.4782609,5.68434189e-14 L11.4782609,5.68434189e-14 Z M12.5217391,8.70414851e-14 C16.9565217,0.208695656 20.7652174,2.60869566 22.6956522,6.26086957 L22.6956522,6.26086957 L22.4807039,6.26573118 C20.058038,6.3755367 18.1051965,8.33210105 18.0236653,10.7798339 C18.0078884,11.2535237 18,11.65155 18,11.973913 C18,12.1737954 18.0030328,12.3973088 18.0090985,12.644453 C18.0715283,15.187966 20.1513732,17.2173913 22.6956522,17.2173913 C20.7652174,21.3913043 16.9565217,23.7913043 12.5217391,23.8956522 L12.5217391,23.8956522 L12.5217391,15.9652174 C14.5043478,15.7043478 16.0695652,14.0347826 16.0695652,11.9478261 C16.0695652,9.86086957 14.5043478,8.19130434 12.5217391,7.93043477 L12.5217391,7.93043477 Z M0.834782602,7.30434783 L1.03346244,7.30937157 C3.07342957,7.41277773 4.69565217,9.09955237 4.69565217,11.1652174 L4.69565217,11.1652174 L4.69565217,12.3130435 C4.69565217,14.4453429 2.96708199,16.1739131 0.834782602,16.1739131 C0.313043484,15.1304348 -9.99200722e-14,13.3043478 -9.99200722e-14,11.7391304 C-9.99200722e-14,10.1739131 0.313043461,8.86956523 0.834782602,7.30434783 L0.834782602,7.30434783 Z M23.1652174,7.30434783 C23.6869565,8.86956523 24,10.1739131 24,11.7391305 C24,13.3043478 23.6869565,15.1304348 23.1652174,16.1739131 L23.1652174,16.1739131 L22.9665376,16.1688893 C20.9265704,16.0654832 19.3043478,14.3787085 19.3043478,12.3130435 L19.3043478,12.3130435 L19.3043478,11.1652174 C19.3043478,9.03291801 21.032918,7.30434783 23.1652174,7.30434783 Z M12,8.97391305 C13.6695652,8.97391305 15.0260869,10.3304348 15.0260869,12 C15.0260869,13.6695652 13.6695652,15.0260869 12,15.0260869 C10.3304348,15.0260869 8.97391305,13.6695652 8.97391305,12 C8.97391305,10.3304348 10.3304348,8.97391305 12,8.97391305 Z" id="形状结合"></path>
            </g>
        </g>
    </g>
</svg>