<?xml version="1.0" encoding="UTF-8"?>
<svg width="24px" height="24px" viewBox="0 0 24 24" version="1.1" xmlns="http://www.w3.org/2000/svg" xmlns:xlink="http://www.w3.org/1999/xlink">
    <title>编组 34</title>
    <defs>
        <linearGradient x1="100%" y1="50%" x2="0%" y2="50%" id="linearGradient-1">
            <stop stop-color="#FFB001" offset="0%"></stop>
            <stop stop-color="#FF7000" offset="100%"></stop>
        </linearGradient>
    </defs>
    <g id="页面-1" stroke="none" stroke-width="1" fill="none" fill-rule="evenodd">
        <g id="内嵌-欧宝1350-1" transform="translate(-76.000000, -227.000000)">
            <g id="编组-78备份-3" transform="translate(63.000000, 207.000000)">
                <g id="编组-34" transform="translate(13.000000, 20.000000)">
                    <rect id="矩形" fill="url(#linearGradient-1)" x="0" y="0" width="24" height="24" rx="12"></rect>
                    <path d="M9.90431524,5.44003589 C10.0381771,5.07352303 10.2622551,4.9455576 10.6403901,5.02057371 L10.6403901,5.02057371 L18.4748144,6.57486484 C18.9077687,6.66079041 19.089801,6.94933938 18.95776,7.35769929 C18.1992885,9.70363917 17.429275,12.04567 16.5658154,14.3549721 C16.3713434,14.875078 16.1721483,15.3934804 15.9672766,15.9098957 C15.7132646,16.5502188 15.4212625,17.1729105 15.0189595,17.7378042 C14.4574127,18.526424 13.6974182,18.935087 12.726147,18.9943175 L12.4806435,18.9996061 C11.9949858,18.9910195 11.540659,18.868796 11.0979263,18.6690731 C9.62092092,18.0028539 8.14819184,17.3271853 6.66831722,16.6674126 C6.36010853,16.5300214 6.07335171,16.3706472 5.82648635,16.1548135 L5.68327405,16.0183174 C5.63723981,15.9703581 5.59294874,15.9198645 5.55054837,15.866561 C5.11982871,15.3251391 4.97250337,14.6978467 5.0041204,14.022674 C5.01672859,13.7538502 5.06531283,13.4867619 5.10059916,13.1930888 L5.54723259,13.3729108 C5.83965365,13.4906249 6.12291924,13.6046536 6.40611125,13.7188904 C7.98500285,14.3560178 9.56328748,14.9946053 11.1438068,15.6276279 C11.1654863,15.6363114 11.1841221,15.6453265 11.2000462,15.6551045 L11.2399761,15.6872128 C11.2724764,15.7224166 11.2835672,15.7683651 11.2821933,15.8366978 C11.274027,16.2423855 11.3150242,16.6418746 11.4631496,17.0256607 C11.6778946,17.5821363 12.1099487,17.8887271 12.6628175,17.9025299 L12.8035235,17.8998064 L12.8035235,17.8998064 L12.9489007,17.8847786 C13.5884692,17.7927095 13.9832956,17.3889779 14.3004037,16.8759315 C14.6664271,16.2836815 14.9230325,15.6401903 15.1727682,14.9941094 C16.0671488,12.6802077 16.8539047,10.3287015 17.6288525,7.97309049 C17.6745951,7.8340503 17.7197031,7.6948173 17.7723705,7.53343483 L17.7723705,7.53343483 L10.7943644,6.14639411 L10.7943644,6.14639411 C10.6780767,6.46320845 10.5642996,6.77173052 10.4515709,7.08063827 C9.75859009,8.97959585 9.06522303,10.8783882 8.37381479,12.7779243 C8.29347559,12.9986474 8.16910433,13.1709393 7.92309309,13.2110783 C7.50230569,13.2797242 7.21308189,12.91826 7.33133232,12.4947244 L7.34835879,12.4412195 C7.39512706,12.3101868 7.44232419,12.1793051 7.48979148,12.0485185 L7.34833119,12.4412746 C7.52708041,11.9405151 7.71203715,11.4420146 7.8944281,10.9425775 L8.03905375,10.5466289 C8.66077896,8.84442078 9.28253279,7.14222312 9.90431524,5.44003589 Z M11.2638445,12.9268372 L11.3550763,12.9387884 C11.3851923,12.9446666 11.4147769,12.9523375 11.4431476,12.9614838 C12.1983968,13.2049349 12.9524045,13.4523531 13.7058328,13.7014243 C13.9723427,13.7895538 14.1150055,13.9742979 14.119668,14.2217712 C14.1250161,14.5057597 13.9206223,14.7236957 13.6548797,14.7552886 L13.5734816,14.7590559 C13.5181789,14.7576802 13.4610164,14.7483696 13.4031814,14.7301618 C12.6244263,14.4849475 11.849451,14.2277493 11.0751653,13.9688156 C10.8078002,13.8794188 10.6646408,13.6433784 10.6968372,13.3839488 C10.7271575,13.1395059 10.9175217,12.9498305 11.1734926,12.9275708 C11.2030036,12.9249996 11.2333485,12.9248619 11.2638445,12.9268372 Z M9.71356481,12.3276622 C10.044495,12.335982 10.2965482,12.5800668 10.2889337,12.8847871 C10.2820309,13.158837 10.0894014,13.363198 9.82186438,13.3957264 L9.73006305,13.400065 C9.38649707,13.404583 9.13698205,13.1611594 9.1403479,12.8454746 C9.14368618,12.5356853 9.39311843,12.3196179 9.71356481,12.3276622 L9.71356481,12.3276622 Z M12.1180498,10.7327171 L12.1969898,10.7450782 C12.5345413,10.8276428 12.8632644,10.9468751 13.1947188,11.0536003 C13.6573632,11.2026804 14.1194366,11.3535218 14.5809287,11.5061213 C14.8525702,11.5958762 14.9961986,11.7723556 15.004696,12.0177627 C15.0094587,12.1555387 14.9648968,12.2816379 14.8882173,12.3783947 C14.8052146,12.4829892 14.6849194,12.5532103 14.5488468,12.5669502 L14.4686187,12.5684711 L14.4686187,12.5684711 L14.3857917,12.5564297 C14.1007144,12.4913313 13.8241897,12.3878845 13.5450993,12.2976613 C13.0346474,12.1326148 12.5248024,11.9656674 12.0152333,11.7978385 C11.7300733,11.7039237 11.5885693,11.5260944 11.584155,11.2630008 C11.5786648,10.9372881 11.8791092,10.6673347 12.1969898,10.7450782 Z M10.5492636,10.2429412 C10.9085001,10.2545669 11.1689956,10.4935827 11.1566633,10.8002039 C11.1460691,11.06252 10.9517335,11.2764478 10.7053401,11.3160084 L10.6107595,11.3224241 C10.2530955,11.3140767 9.99919386,11.0796341 10.0062291,10.7642248 C10.0128504,10.4689263 10.2580891,10.2334919 10.5492636,10.2429412 L10.5492636,10.2429412 Z M12.9836077,8.51285946 C13.0750101,8.49723916 13.1776412,8.50969134 13.2684642,8.53409981 C14.0257974,8.73783338 14.7822039,8.94498616 15.5376605,9.15555179 L15.5376605,9.15560689 C15.8129161,9.23222086 15.9626693,9.41883828 15.9701459,9.6737774 C15.9782156,9.94893065 15.7908725,10.1597275 15.5329225,10.2047522 L15.4445049,10.2134593 C15.3840365,10.2149919 15.3207649,10.2077794 15.2560595,10.1907082 C14.48445,9.98728584 13.7152131,9.7746621 12.946666,9.55986198 C12.6838531,9.48638861 12.5172154,9.25522433 12.5292994,9.01111201 C12.5414386,8.76705476 12.7236916,8.55721346 12.9836077,8.51285946 Z M11.4132963,7.99937229 C11.7595936,8.00565349 12.0088327,8.24158374 12.0007491,8.55550544 C11.9936974,8.82972891 11.803243,9.03229972 11.5342318,9.06641649 L11.4417957,9.07141692 C11.1075824,9.06609994 10.8494045,8.82923301 10.8496526,8.5280941 C10.8499287,8.2249992 11.0965468,7.99364209 11.4132963,7.99937229 L11.4132963,7.99937229 Z" id="形状结合" fill="#FFFFFF"></path>
                </g>
            </g>
        </g>
    </g>
</svg>