<?xml version="1.0" encoding="UTF-8"?>
<svg width="22px" height="24px" viewBox="0 0 22 24" version="1.1" xmlns="http://www.w3.org/2000/svg" xmlns:xlink="http://www.w3.org/1999/xlink">
    <!-- Generator: Sketch 61.1 (89650) - https://sketch.com -->
    <title>钱袋</title>
    <desc>Created with Sketch.</desc>
    <g id="页面-1" stroke="none" stroke-width="1" fill="none" fill-rule="evenodd">
        <g id="详情单列" transform="translate(-14.000000, -224.000000)" fill-rule="nonzero">
            <g id="钱袋" transform="translate(13.000000, 224.000000)">
                <rect id="矩形" fill="#000000" opacity="0" x="0" y="0" width="24" height="24"></rect>
                <path d="M7.17984769,0.00234328125 C7.70708848,0.00234328125 8.35618045,0.705330984 9.47861747,0.705330984 C9.90978323,0.705330984 10.4112478,0.602226141 10.9994142,0.316344469 C11.1798477,0.229642664 11.3696544,0.192149977 11.5618043,0.192149977 C12.5741066,0.192149977 13.7106034,1.20913884 14.5963679,1.20913884 C14.7439953,1.20913884 14.8845929,1.18101933 15.0158172,1.11540715 C15.7891037,0.731107195 16.3116579,0.59519625 16.6959578,0.59519625 C17.026362,0.59519625 17.2513181,0.695957813 17.4434681,0.824838891 C18.2800234,1.38722906 17.5840656,2.71821909 16.7920328,3.43057997 C16.1848672,3.97665875 15.0278723,5.54343145 13.3938238,6.17750101 C18.5144962,7.20946286 22.4534271,13.7089804 22.4534271,19.0205038 C22.4534271,23.7628811 19.8178874,23.9887086 13.036737,23.9994623 L10.9556345,23.9994471 C4.26942017,23.9884961 1.52548331,23.7606494 1.52548331,19.0205038 C1.52548331,13.7377382 5.41992503,7.27980767 10.5005893,6.19276327 C8.75131817,5.60421305 7.29230956,4.10685976 6.61511423,2.95489163 C5.96602226,1.85120093 6.18160516,0.677211492 6.82366725,0.13825425 C6.93848857,0.04217925 7.0556532,0.00234328125 7.17984769,0.00234328125 Z" id="形状结合" fill="#EFCC6E"></path>
                <path d="M10.28471,11.3860574 L11.9886292,14.8690574 L13.6942004,11.3860574 L15.3602812,11.3860574 L12.7366292,15.0130574 L15.1095489,15.0134739 L15.1095489,16.2132396 L12.5876292,16.2130574 L12.5876292,17.5670574 L15.1095489,17.5676626 L15.1095489,18.7674282 L12.5876292,18.7670574 L12.5881664,21.0123023 L11.3884007,21.0123023 L11.3876292,18.7670574 L8.86936146,18.7674282 L8.86936146,17.5676626 L11.3876292,17.5670574 L11.3876292,16.2130574 L8.86936146,16.2132396 L8.86936146,15.0134739 L11.2406292,15.0130574 L8.61862917,11.3860574 L10.28471,11.3860574 Z" id="形状结合" fill="#111111"></path>
                <path d="M19.695372,9.50205037 C19.334505,8.7357938 16.0656122,6.58933802 14.4604569,6.06912712 C14.3737551,6.09021675 14.324546,6.10661981 14.3198594,6.10661981 L14.2706503,6.11833627 C14.2214411,6.12536613 13.6379613,6.21441124 12.7709432,6.20738138 C12.5248975,6.27065027 12.2530756,6.34094904 11.9695372,6.41593439 C10.4018746,6.82601055 8.44991213,7.33919156 7.57117751,7.38137084 C7.15407148,7.39777387 6.80023434,7.19625075 6.63151727,6.8353837 C6.4089045,6.36438195 6.53778558,5.72466314 6.94083188,5.27943762 C7.19859403,4.99589925 7.95079088,4.39601641 9.38722905,4.91388401 C10.5916813,5.34973638 11.8008202,5.46924429 12.6983011,5.48330405 C13.0802578,5.38488577 13.4012888,5.30755713 13.6309315,5.26069127 C13.8254247,5.2208553 14.0949034,5.25366141 14.4135911,5.33801993 C15.1728178,5.16227302 17.1505565,4.83655537 18.4018746,5.87463387 C19.7070885,6.95723491 21.0029291,7.01816053 21.3966022,6.87756298 L21.6379613,7.55477447 C21.0076157,7.77973052 19.4446397,7.67428237 17.9425893,6.42765084 C17.3520797,5.93790274 16.5084944,5.83948446 15.7820738,5.87229056 C17.6567077,6.76977152 19.9671939,8.3960164 20.3421207,9.1927358 L19.695372,9.50205037 Z M8.32337435,5.42940832 C7.96953722,5.42940832 7.67896896,5.54188636 7.47510251,5.76449913 C7.23842998,6.02226129 7.20093731,6.35266552 7.28529584,6.52841243 C7.31575863,6.59402461 7.37199764,6.67135327 7.54071471,6.66198007 C8.152314,6.63386055 9.45518454,6.32220267 10.685413,6.00820153 C10.188635,5.91446984 9.66842414,5.78090217 9.14586994,5.5910955 C8.84592853,5.48330405 8.56942003,5.42940832 8.32337435,5.42940832 L8.32337435,5.42940832 Z" id="形状" fill="#E02020"></path>
                <path d="M20.5600469,7.21031048 C20.5600469,7.74091798 20.9901892,8.17106034 21.5207967,8.17106034 C22.0514042,8.17106034 22.4815466,7.74091798 22.4815466,7.21031048 C22.4815466,6.67970299 22.0514042,6.24956062 21.5207967,6.24956062 C20.9901892,6.24956062 20.5600469,6.67970299 20.5600469,7.21031048 Z" id="路径" fill="#F7B500"></path>
                <path d="M18.9947276,9.34739309 C18.994674,9.69067169 19.1777801,10.0078971 19.4750592,10.1795519 C19.7723383,10.3512067 20.1386166,10.3512067 20.4358957,10.1795519 C20.7331748,10.0078971 20.9162809,9.69067169 20.9162273,9.34739309 C20.9162809,9.00411448 20.7331748,8.68688903 20.4358957,8.51523425 C20.1386166,8.34357947 19.7723383,8.34357947 19.4750592,8.51523425 C19.1777801,8.68688903 18.994674,9.00411448 18.9947276,9.34739309 Z" id="路径" fill="#F7B500"></path>
            </g>
        </g>
    </g>
</svg>