<?xml version="1.0" encoding="UTF-8"?>
<svg width="156px" height="139px" viewBox="0 0 156 139" version="1.1" xmlns="http://www.w3.org/2000/svg" xmlns:xlink="http://www.w3.org/1999/xlink">
    <!-- Generator: Sketch 61.1 (89650) - https://sketch.com -->
    <title>Default/Img_Default_NoData 2</title>
    <desc>Created with Sketch.</desc>
    <defs>
        <linearGradient x1="50%" y1="0%" x2="50%" y2="87.8255208%" id="linearGradient-1">
            <stop stop-color="#D8DADC" stop-opacity="0.994973776" offset="0%"></stop>
            <stop stop-color="#D8DADC" stop-opacity="0" offset="100%"></stop>
        </linearGradient>
        <linearGradient x1="50%" y1="0%" x2="50%" y2="87.8255208%" id="linearGradient-2">
            <stop stop-color="#D8DADC" stop-opacity="0.994973776" offset="0%"></stop>
            <stop stop-color="#D8DADC" stop-opacity="0" offset="100%"></stop>
        </linearGradient>
        <linearGradient x1="50%" y1="0%" x2="50%" y2="87.8255208%" id="linearGradient-3">
            <stop stop-color="#D8DADC" stop-opacity="0.994973776" offset="0%"></stop>
            <stop stop-color="#D8DADC" stop-opacity="0" offset="100%"></stop>
        </linearGradient>
        <linearGradient x1="20.8833087%" y1="38.9382603%" x2="91.5415888%" y2="88.9987157%" id="linearGradient-4">
            <stop stop-color="#D7D7D7" offset="0%"></stop>
            <stop stop-color="#EBEBEB" offset="100%"></stop>
        </linearGradient>
        <linearGradient x1="50%" y1="0%" x2="50%" y2="87.8255208%" id="linearGradient-5">
            <stop stop-color="#D8DADC" stop-opacity="0.994973776" offset="0%"></stop>
            <stop stop-color="#D8DADC" stop-opacity="0" offset="100%"></stop>
        </linearGradient>
        <linearGradient x1="64.1207641%" y1="0%" x2="73.5440222%" y2="91.2676486%" id="linearGradient-6">
            <stop stop-color="#DEDEDE" offset="0%"></stop>
            <stop stop-color="#ABABAB" offset="100%"></stop>
        </linearGradient>
        <linearGradient x1="43.2345328%" y1="4.93236803%" x2="50%" y2="100%" id="linearGradient-7">
            <stop stop-color="#E9E9E9" offset="0%"></stop>
            <stop stop-color="#C3C3C3" offset="100%"></stop>
        </linearGradient>
        <path d="M11.2714468,24.3310347 L55.6714468,23.6628483 C56.6655594,23.6478877 57.4714468,24.4416471 57.4714468,25.4357597 C57.4714468,26.4298722 56.6655594,27.2478877 55.6714468,27.2628483 L11.2714468,27.9310347 C10.2773343,27.9459954 9.47144682,27.1522359 9.47144682,26.1581234 C9.47144682,25.1640108 10.2773343,24.3459954 11.2714468,24.3310347 Z" id="path-8"></path>
        <linearGradient x1="63.4633044%" y1="46.5689167%" x2="54.9806181%" y2="53.4310833%" id="linearGradient-10">
            <stop stop-color="#DFDFDF" offset="0%"></stop>
            <stop stop-color="#BEBEBE" offset="100%"></stop>
        </linearGradient>
    </defs>
    <g id="日间模式" stroke="none" stroke-width="1" fill="none" fill-rule="evenodd">
        <g id="投注记录-空" transform="translate(-112.000000, -274.000000)">
            <g id="Default/Img_Default_NoData-2" transform="translate(98.000000, 254.000000)">
                <rect id="矩形" x="8" y="7" width="165" height="165"></rect>
                <path d="M15,90 C15,90 22.4590698,75 35.5540658,75 C44.2840631,75 50.1950024,77.4217511 53.2868838,82.2652534 C56.7344313,82.5097389 59.625197,82.9782943 61.9591809,83.6709193 C64.2931647,84.3635444 66.3067711,86.4732379 68,90 C32.6666667,90 15,90 15,90 Z" id="路径-5备份" fill="url(#linearGradient-1)" fill-rule="evenodd" opacity="0.398875"></path>
                <path d="M83,45 C83,45 95.3848707,20 117.127505,20 C131.622595,20 141.436985,24.0362519 146.570675,32.1087556 C152.294905,32.5162316 157.094667,33.2971571 160.969961,34.4515322 C164.845255,35.6059073 168.188601,39.1220632 171,45 C112.333333,45 83,45 83,45 Z" id="路径-5备份-2" fill="url(#linearGradient-2)" fill-rule="evenodd" opacity="0.398875" transform="translate(127.000000, 32.500000) scale(-1, 1) translate(-127.000000, -32.500000) "></path>
                <path d="M90.5,135 C120.91243,135 147.883649,141 171.413657,153 L10,153 C33.2542368,141 60.0875701,135 90.5,135 Z" id="路径-2" fill="url(#linearGradient-3)" fill-rule="evenodd" opacity="0.398875"></path>
                <g id="编组-5" stroke-width="1" fill-rule="evenodd" transform="translate(41.000000, 126.000000)">
                    <path d="M5.4472136,0.894427191 L9.6381966,9.2763932 C9.76169123,9.52338245 9.66157905,9.82371897 9.4145898,9.9472136 C9.34516209,9.98192745 9.26860555,10 9.19098301,10 L0.809016994,10 C0.532874619,10 0.309016994,9.77614237 0.309016994,9.5 C0.309016994,9.42237745 0.32708954,9.34582092 0.361803399,9.2763932 L4.5527864,0.894427191 C4.67628103,0.647437942 4.97661755,0.547325769 5.2236068,0.670820393 C5.3203705,0.719202244 5.39883174,0.79766349 5.4472136,0.894427191 Z" id="三角形" fill="url(#linearGradient-4)"></path>
                    <rect id="矩形" fill="#CACACA" x="4" y="10" width="2" height="5"></rect>
                </g>
                <g id="编组-6" stroke-width="1" fill-rule="evenodd" transform="translate(94.000000, 123.000000)">
                    <rect id="矩形备份" fill="#CACACA" x="10" y="25" width="5" height="11"></rect>
                    <path d="M13.4472136,0.894427191 L25.6381966,25.2763932 C25.7616912,25.5233825 25.6615791,25.823719 25.4145898,25.9472136 C25.3451621,25.9819275 25.2686056,26 25.190983,26 L0.809016994,26 C0.532874619,26 0.309016994,25.7761424 0.309016994,25.5 C0.309016994,25.4223775 0.32708954,25.3458209 0.361803399,25.2763932 L12.5527864,0.894427191 C12.676281,0.647437942 12.9766175,0.547325769 13.2236068,0.670820393 C13.3203705,0.719202244 13.3988317,0.79766349 13.4472136,0.894427191 Z" id="三角形备份" fill="url(#linearGradient-4)"></path>
                </g>
                <g id="编组-4" stroke-width="1" fill-rule="evenodd" transform="translate(129.000000, 130.000000)">
                    <path d="M4.4472136,0.894427191 L7.6381966,7.2763932 C7.76169123,7.52338245 7.66157905,7.82371897 7.4145898,7.9472136 C7.34516209,7.98192745 7.26860555,8 7.19098301,8 L0.809016994,8 C0.532874619,8 0.309016994,7.77614237 0.309016994,7.5 C0.309016994,7.42237745 0.32708954,7.34582092 0.361803399,7.2763932 L3.5527864,0.894427191 C3.67628103,0.647437942 3.97661755,0.547325769 4.2236068,0.670820393 C4.3203705,0.719202244 4.39883174,0.79766349 4.4472136,0.894427191 Z" id="三角形备份-2" fill="url(#linearGradient-4)"></path>
                    <rect id="矩形备份-2" fill="#CACACA" x="3" y="8" width="2" height="3"></rect>
                </g>
                <path d="M136,125 C136,125 140.362852,115 148.022189,115 C153.128414,115 156.585756,116.614501 158.394215,119.843502 C160.410705,120.006493 162.10153,120.318863 163.466691,120.780613 C164.831851,121.242363 166.009621,122.648825 167,125 C146.333333,125 136,125 136,125 Z" id="路径-5" fill="url(#linearGradient-5)" fill-rule="evenodd" opacity="0.398875"></path>
                <g id="路径-14" stroke-width="1" fill-rule="evenodd" transform="translate(91.000000, 76.000000) rotate(-9.000000) translate(-91.000000, -76.000000) translate(49.000000, 25.000000)">
                    <g id="编组" transform="translate(41.711509, 51.024657) rotate(-7.000000) translate(-41.711509, -51.024657) translate(5.711509, 4.524657)">
                        <path d="M11.6521199,5 L11.6527108,8.00583791 C11.6527108,10.3254339 13.5331149,12.2058379 15.8527108,12.2058379 C15.9379426,12.2058379 16.0225815,12.2032991 16.1065559,12.198293 L16.2,12.2 C18.4493052,12.2 20.2856328,10.4318331 20.3948599,8.20962236 L20.4,8 L20.3991199,5 L47.5321199,5 L47.5329067,8.62022919 C47.5329067,10.8695344 49.3010736,12.705862 51.5232844,12.8150891 L51.7329067,12.8202292 C53.9822119,12.8202292 55.8185396,11.0520623 55.9277667,8.82985155 L55.9329067,8.62022919 L55.9321199,5 L64.8001199,5 C66.1256033,5 67.2001199,6.0745166 67.2001199,7.4 L67.2001199,78.2 C67.2001199,84.1646753 62.3647952,89 56.4001199,89 L9.60011986,89 C4.29818626,89 0.000119860741,84.7019336 0.000119860741,79.4 L0.000119860741,7.4 C0.000119860741,6.0745166 1.07463646,5 2.40011986,5 L11.6521199,5 Z" id="形状结合" fill="url(#linearGradient-6)"></path>
                        <rect id="矩形备份-5" fill="url(#linearGradient-7)" x="48.7331809" y="0.799287901" width="6" height="10.8" rx="3"></rect>
                        <rect id="矩形备份-8" fill="url(#linearGradient-7)" x="12.8323162" y="0.18471864" width="6" height="10.8" rx="3"></rect>
                        <mask id="mask-9" fill="white">
                            <use xlink:href="#path-8"></use>
                        </mask>
                        <use id="矩形" fill="#DFDFDF" xlink:href="#path-8"></use>
                        <path d="M11.0577371,36.5776714 L50.6577371,35.9817213 C51.6518497,35.9667606 52.4577371,36.7605201 52.4577371,37.7546327 C52.4577371,38.7487452 51.6518497,39.5667606 50.6577371,39.5817213 L11.0577371,40.1776714 C10.0636246,40.192632 9.25773713,39.3988725 9.25773713,38.40476 C9.25773713,37.4106474 10.0636246,36.592632 11.0577371,36.5776714 Z" id="矩形备份-3" fill="#DFDFDF"></path>
                        <path d="M10.8273654,49.7791279 L38.4273654,49.3637687 C39.4214779,49.3488081 40.2273654,50.1425675 40.2273654,51.1366801 C40.2273654,52.1307926 39.4214779,52.9488081 38.4273654,52.9637687 L10.8273654,53.3791279 C9.83325281,53.3940885 9.02736536,52.600329 9.02736536,51.6062165 C9.02736536,50.6121039 9.83325281,49.7940885 10.8273654,49.7791279 Z" id="矩形备份-4" fill="#DFDFDF"></path>
                        <path d="M5.68434189e-14,75.5916969 C0.0451828417,84.0558066 2.62184592,88.2878615 7.72998922,88.2878615 C12.8381325,88.2878615 16.1117551,84.0558066 17.550857,75.5916969 L71.6325709,73.8353199 L71.6079744,80.7739738 C71.5871443,86.650154 66.8720708,91.4313658 60.9967507,91.534041 L13.4306436,92.3652905 C6.14159787,92.4926715 0.129396125,86.6869951 0.00201517195,79.3979493 C0.000671749622,79.3210754 5.50764778e-14,79.2441913 5.68434189e-14,79.1673057 L5.68434189e-14,75.5916969 L5.68434189e-14,75.5916969 Z" id="路径-14" fill="url(#linearGradient-10)"></path>
                    </g>
                </g>
            </g>
        </g>
    </g>
</svg>