<?xml version="1.0" encoding="UTF-8"?>
<svg width="125px" height="36px" viewBox="0 0 125 36" version="1.1" xmlns="http://www.w3.org/2000/svg" xmlns:xlink="http://www.w3.org/1999/xlink">
    <title>编组</title>
    <defs>
        <path d="M7.31906703,0.160552536 L7.26268116,0.163496377 C5.36888587,0.260190217 3.4535779,0.554347826 1.56521739,1.03804348 L1.56521739,1.03804348 C1.42980072,1.07291667 1.30615942,1.14085145 1.20516304,1.23709239 L1.20516304,1.23709239 C0.856657609,1.56861413 0.505434783,1.921875 0.153532609,2.29415761 L0.153532609,2.29415761 C0.0219655797,2.43319746 0.137681159,2.6576087 0.327672101,2.63473732 L0.327672101,2.63473732 C1.77536232,2.45878623 3.25271739,2.37001812 4.73618659,2.36979167 L4.73618659,2.36979167 C6.87115036,2.36979167 8.98731884,2.55276268 11.026721,2.91440217 L11.026721,2.91440217 C12.3238225,3.14424819 13.5704257,3.44134964 14.7318841,3.79755435 L14.7318841,3.79755435 C14.7946105,3.8138587 14.8648098,3.85326087 14.9227808,3.90806159 L14.9227808,3.90806159 C16.0104167,4.98641304 17.0072464,6.13428442 17.8992301,7.33514493 L17.8992301,7.33514493 C18.011096,7.48596014 18.2506793,7.421875 18.2685688,7.2348279 L18.2685688,7.2348279 C18.412817,5.72554348 18.3899457,4.2973279 18.2006341,3.0142663 L18.2006341,3.0142663 C18.1177536,2.4526721 17.7447917,1.97735507 17.2225996,1.75475543 L17.2225996,1.75475543 C14.732337,0.692708333 11.743433,0.128849638 8.6084692,0.128849638 L8.6084692,0.128849638 C8.18093297,0.128849638 7.75113225,0.139266304 7.31906703,0.160552536" id="path-1"></path>
        <linearGradient x1="80.6862462%" y1="40.5189871%" x2="-31.3237096%" y2="82.9272019%" id="linearGradient-3">
            <stop stop-color="#00A0EF" offset="0%"></stop>
            <stop stop-color="#006EBC" offset="100%"></stop>
        </linearGradient>
        <path d="M3.59737319,0.393115942 L0.488903986,3.72735507 C0.109601449,4.13383152 0.0502717391,4.74388587 0.34375,5.21580616 L0.34375,5.21580616 L2.41734601,8.55140399 C2.70833333,9.01924819 3.27513587,9.23686594 3.80457428,9.08355978 L3.80457428,9.08355978 L7.91213768,7.89424819 C8.39402174,7.75475543 8.74298007,7.33673007 8.79393116,6.83786232 L8.79393116,6.83786232 L9.16553442,3.21331522 C9.21603261,2.71807065 8.96354167,2.24094203 8.52513587,2.00475543 L8.52513587,2.00475543 L5.08106884,0.149003623 C4.89696558,0.0498188406 4.69655797,0.00158514493 4.49773551,0.00158514493 L4.49773551,0.00158514493 C4.16462862,0.00158514493 3.83627717,0.136775362 3.59737319,0.393115942" id="path-4"></path>
        <linearGradient x1="194.585211%" y1="-81.2225611%" x2="-26.6089625%" y2="131.317662%" id="linearGradient-6">
            <stop stop-color="#00A0EF" offset="0%"></stop>
            <stop stop-color="#006EBC" offset="100%"></stop>
        </linearGradient>
        <path d="M0.221240942,0.578577899 L0.461277174,3.88813406 C0.477355072,4.11005435 0.582653986,4.31567029 0.75317029,4.45833333 L0.75317029,4.45833333 L3.5169837,6.76902174 C3.72237319,6.94089674 4.03442029,6.87296196 4.15013587,6.63134058 L4.15013587,6.63134058 L4.77038043,5.33559783 C4.87522645,5.11684783 4.87862319,4.86209239 4.77740036,4.6419837 L4.77740036,4.6419837 C4.34103261,3.69338768 3.95425725,2.96603261 3.39447464,1.99660326 L3.39447464,1.99660326 C3.06748188,1.43048007 2.86118659,1.08061594 2.55615942,0.611639493 L2.55615942,0.611639493 C2.41757246,0.398097826 2.18591486,0.260190217 1.93229167,0.240262681 L1.93229167,0.240262681 L0.66259058,0.139945652 C0.651494565,0.139266304 0.640625,0.138813406 0.629981884,0.138813406 L0.629981884,0.138813406 C0.394474638,0.138813406 0.204030797,0.339221014 0.221240942,0.578577899" id="path-7"></path>
        <linearGradient x1="112.892678%" y1="-41.3016647%" x2="-96.5435326%" y2="247.228722%" id="linearGradient-9">
            <stop stop-color="#00A0EF" offset="0%"></stop>
            <stop stop-color="#006EBC" offset="100%"></stop>
        </linearGradient>
        <path d="M13.0493659,0.222373188 C12.4780344,1.56408514 11.8163496,2.88790761 11.0749547,4.1727808 L11.0749547,4.1727808 C10.0079257,6.02173913 8.79144022,7.76313406 7.45855978,9.34850543 L7.45855978,9.34850543 C6.61118659,10.3571105 5.73052536,11.2882699 4.84148551,12.1161685 L4.84148551,12.1161685 C4.7959692,12.1621377 4.72690217,12.2033514 4.65013587,12.2262228 L4.65013587,12.2262228 C3.17255435,12.6293025 1.68048007,12.9184783 0.194067029,13.0908062 L0.194067029,13.0908062 C0.00769927536,13.1125453 -0.0566123188,13.3519022 0.0964673913,13.4608243 L0.0964673913,13.4608243 C1.33152174,14.3401268 2.57993659,15.0341938 3.78600543,15.5120018 L3.78600543,15.5120018 C4.31363225,15.720788 4.91168478,15.6356431 5.36548913,15.2943841 L5.36548913,15.2943841 C7.82540761,13.4470109 10.0498188,10.7203351 11.6972373,7.5142663 L11.6972373,7.5142663 L11.7225996,7.46376812 C12.5858243,5.77513587 13.2884964,3.96942935 13.8131793,2.09216486 L13.8131793,2.09216486 C13.8509964,1.95765399 13.8539402,1.81657609 13.8213315,1.68115942 L13.8213315,1.68115942 C13.7081069,1.21331522 13.5778986,0.732563406 13.4313859,0.241621377 L13.4313859,0.241621377 C13.4028533,0.145833333 13.3204257,0.0969202899 13.2377717,0.0969202899 L13.2377717,0.0969202899 C13.1616848,0.0969202899 13.0853714,0.138134058 13.0493659,0.222373188" id="path-10"></path>
        <linearGradient x1="137.891167%" y1="-29.8782742%" x2="20.5227784%" y2="95.0969757%" id="linearGradient-12">
            <stop stop-color="#00A0EF" offset="0%"></stop>
            <stop stop-color="#006EBC" offset="100%"></stop>
        </linearGradient>
        <path d="M4.24615036,0.208559783 C2.86458333,0.834012681 1.63654891,1.56431159 0.617074275,2.36639493 L0.617074275,2.36639493 C0.169610507,2.71875 -0.0552536232,3.28328804 0.011548913,3.84873188 L0.011548913,3.84873188 C0.372961957,6.90217391 1.6107337,10.1929348 3.55163043,13.2266757 L3.55163043,13.2266757 L3.58220109,13.2737772 C4.60778986,14.8688859 5.81544384,16.3845109 7.17413949,17.7821558 L7.17413949,17.7821558 C7.27128623,17.8822464 7.39175725,17.9558424 7.52536232,17.9959239 L7.52536232,17.9959239 C7.98663949,18.1331522 8.4678442,18.2624547 8.96580616,18.3826993 L8.96580616,18.3826993 C9.15194746,18.4277627 9.28894928,18.2155797 9.17436594,18.0620471 L9.17436594,18.0620471 C8.30208333,16.8935688 7.49048913,15.6557971 6.75271739,14.3686594 L6.75271739,14.3686594 C5.69134964,12.5167572 4.7977808,10.5894475 4.09759964,8.64039855 L4.09759964,8.64039855 C3.65194746,7.40058877 3.29008152,6.1714221 3.02173913,4.98641304 L3.02173913,4.98641304 C3.00475543,4.92391304 3.00362319,4.8432971 3.02287138,4.765625 L3.02287138,4.765625 C3.41734601,3.28577899 3.91779891,1.85076993 4.5160779,0.479393116 L4.5160779,0.479393116 C4.57880435,0.335824275 4.46852355,0.189764493 4.33106884,0.189764493 L4.33106884,0.189764493 C4.30344203,0.189764493 4.27468297,0.195652174 4.24615036,0.208559783" id="path-13"></path>
        <linearGradient x1="106.277972%" y1="-48.1698079%" x2="49.3493862%" y2="58.4632304%" id="linearGradient-15">
            <stop stop-color="#00A0EF" offset="0%"></stop>
            <stop stop-color="#006EBC" offset="100%"></stop>
        </linearGradient>
        <polygon id="path-16" points="0.159495663 0.217617754 14.0072451 0.217617754 14.0072451 15.7342519 0.159495663 15.7342519"></polygon>
    </defs>
    <g id="页面-1" stroke="none" stroke-width="1" fill="none" fill-rule="evenodd">
        <g id="滚球" transform="translate(-40.000000, -12.000000)">
            <g id="编组" transform="translate(40.000000, 12.000000)">
                <g transform="translate(3.170290, 7.481658)">
                    <path d="M21.7263813,0.161548913 C21.5400136,0.117391304 21.4039176,0.330027174 21.5191803,0.482880435 C22.3966712,1.64750906 23.2139266,2.88143116 23.9578125,4.1651721 C25.0275589,6.01254529 25.9297328,7.93555254 26.638519,9.88165761 C27.0900589,11.1192029 27.4575861,12.3470109 27.7311368,13.5304348 C27.7485734,13.5929348 27.7497056,13.6735507 27.7311368,13.7512228 C27.3432292,15.2328804 26.8495697,16.6703804 26.2571784,18.0444746 C26.1829031,18.217029 26.3577219,18.3923007 26.5286911,18.3139493 C27.9073143,17.6821558 29.131952,16.9464221 30.147577,16.1398098 C30.5934556,15.7854167 30.8158288,15.2197464 30.7465353,14.6543025 C30.3713089,11.6026721 29.1185915,8.31779891 27.1638813,5.29288949 L27.1328578,5.24578804 C26.1000226,3.65543478 24.8858016,2.14524457 23.5207654,0.753713768 C23.4229393,0.654076087 23.3022418,0.58115942 23.1684103,0.541757246 C22.7066803,0.40634058 22.2247962,0.279528986 21.7263813,0.161548913" id="Fill-1" fill="#00B36E"></path>
                    <path d="M18.3850317,21.9309783 C18.5168252,21.7921649 18.4011096,21.5677536 18.2108922,21.590625 C16.763202,21.7654438 15.2858469,21.8530797 13.8023777,21.8524004 C11.6674139,21.8510417 9.55124547,21.6664855 7.5122962,21.3034873 C6.21519475,21.072962 4.96881793,20.7751812 3.8078125,20.4178442 C3.7448596,20.4015399 3.67466033,20.3621377 3.61668931,20.3071105 C2.52973279,19.2283062 1.53380888,18.0797554 0.642504529,16.878442 C0.530638587,16.7274004 0.291281703,16.7914855 0.273165761,16.9783062 C0.128011775,18.4875906 0.149977355,19.9160326 0.338383152,21.1993207 C0.420810688,21.7606884 0.793546196,22.2364583 1.31551178,22.4592844 C4.14476902,23.6678442 7.61782156,24.2337409 11.2181386,24.0600543 L11.274298,24.0571105 C13.1683197,23.9615489 15.0838542,23.66875 16.9724411,23.1861866 C17.1076313,23.1515399 17.2314991,23.0838315 17.3327219,22.9875906 C17.6814538,22.6560688 18.0329031,22.3032609 18.3850317,21.9309783" id="Fill-3" fill="#EA3970"></path>
                </g>
                <g transform="translate(12.228261, 3.405571)">
                    <mask id="mask-2" fill="white">
                        <use xlink:href="#path-1"></use>
                    </mask>
                    <g id="Clip-6"></g>
                    <path d="M7.31906703,0.160552536 L7.26268116,0.163496377 C5.36888587,0.260190217 3.4535779,0.554347826 1.56521739,1.03804348 L1.56521739,1.03804348 C1.42980072,1.07291667 1.30615942,1.14085145 1.20516304,1.23709239 L1.20516304,1.23709239 C0.856657609,1.56861413 0.505434783,1.921875 0.153532609,2.29415761 L0.153532609,2.29415761 C0.0219655797,2.43319746 0.137681159,2.6576087 0.327672101,2.63473732 L0.327672101,2.63473732 C1.77536232,2.45878623 3.25271739,2.37001812 4.73618659,2.36979167 L4.73618659,2.36979167 C6.87115036,2.36979167 8.98731884,2.55276268 11.026721,2.91440217 L11.026721,2.91440217 C12.3238225,3.14424819 13.5704257,3.44134964 14.7318841,3.79755435 L14.7318841,3.79755435 C14.7946105,3.8138587 14.8648098,3.85326087 14.9227808,3.90806159 L14.9227808,3.90806159 C16.0104167,4.98641304 17.0072464,6.13428442 17.8992301,7.33514493 L17.8992301,7.33514493 C18.011096,7.48596014 18.2506793,7.421875 18.2685688,7.2348279 L18.2685688,7.2348279 C18.412817,5.72554348 18.3899457,4.2973279 18.2006341,3.0142663 L18.2006341,3.0142663 C18.1177536,2.4526721 17.7447917,1.97735507 17.2225996,1.75475543 L17.2225996,1.75475543 C14.732337,0.692708333 11.743433,0.128849638 8.6084692,0.128849638 L8.6084692,0.128849638 C8.18093297,0.128849638 7.75113225,0.139266304 7.31906703,0.160552536" id="Fill-5" fill="url(#linearGradient-3)" mask="url(#mask-2)"></path>
                </g>
                <g transform="translate(11.548913, 12.916440)">
                    <mask id="mask-5" fill="white">
                        <use xlink:href="#path-4"></use>
                    </mask>
                    <g id="Clip-8"></g>
                    <path d="M3.59737319,0.393115942 L0.488903986,3.72735507 C0.109601449,4.13383152 0.0502717391,4.74388587 0.34375,5.21580616 L0.34375,5.21580616 L2.41734601,8.55140399 C2.70833333,9.01924819 3.27513587,9.23686594 3.80457428,9.08355978 L3.80457428,9.08355978 L7.91213768,7.89424819 C8.39402174,7.75475543 8.74298007,7.33673007 8.79393116,6.83786232 L8.79393116,6.83786232 L9.16553442,3.21331522 C9.21603261,2.71807065 8.96354167,2.24094203 8.52513587,2.00475543 L8.52513587,2.00475543 L5.08106884,0.149003623 C4.89696558,0.0498188406 4.69655797,0.00158514493 4.49773551,0.00158514493 L4.49773551,0.00158514493 C4.16462862,0.00158514493 3.83627717,0.136775362 3.59737319,0.393115942" id="Fill-7" fill="url(#linearGradient-6)" mask="url(#mask-5)"></path>
                </g>
                <g transform="translate(22.644928, 9.972600)">
                    <mask id="mask-8" fill="white">
                        <use xlink:href="#path-7"></use>
                    </mask>
                    <g id="Clip-10"></g>
                    <path d="M0.221240942,0.578577899 L0.461277174,3.88813406 C0.477355072,4.11005435 0.582653986,4.31567029 0.75317029,4.45833333 L0.75317029,4.45833333 L3.5169837,6.76902174 C3.72237319,6.94089674 4.03442029,6.87296196 4.15013587,6.63134058 L4.15013587,6.63134058 L4.77038043,5.33559783 C4.87522645,5.11684783 4.87862319,4.86209239 4.77740036,4.6419837 L4.77740036,4.6419837 C4.34103261,3.69338768 3.95425725,2.96603261 3.39447464,1.99660326 L3.39447464,1.99660326 C3.06748188,1.43048007 2.86118659,1.08061594 2.55615942,0.611639493 L2.55615942,0.611639493 C2.41757246,0.398097826 2.18591486,0.260190217 1.93229167,0.240262681 L1.93229167,0.240262681 L0.66259058,0.139945652 C0.651494565,0.139266304 0.640625,0.138813406 0.629981884,0.138813406 L0.629981884,0.138813406 C0.394474638,0.138813406 0.204030797,0.339221014 0.221240942,0.578577899" id="Fill-9" fill="url(#linearGradient-9)" mask="url(#mask-8)"></path>
                </g>
                <g transform="translate(16.077899, 19.257020)">
                    <mask id="mask-11" fill="white">
                        <use xlink:href="#path-10"></use>
                    </mask>
                    <g id="Clip-12"></g>
                    <path d="M13.0493659,0.222373188 C12.4780344,1.56408514 11.8163496,2.88790761 11.0749547,4.1727808 L11.0749547,4.1727808 C10.0079257,6.02173913 8.79144022,7.76313406 7.45855978,9.34850543 L7.45855978,9.34850543 C6.61118659,10.3571105 5.73052536,11.2882699 4.84148551,12.1161685 L4.84148551,12.1161685 C4.7959692,12.1621377 4.72690217,12.2033514 4.65013587,12.2262228 L4.65013587,12.2262228 C3.17255435,12.6293025 1.68048007,12.9184783 0.194067029,13.0908062 L0.194067029,13.0908062 C0.00769927536,13.1125453 -0.0566123188,13.3519022 0.0964673913,13.4608243 L0.0964673913,13.4608243 C1.33152174,14.3401268 2.57993659,15.0341938 3.78600543,15.5120018 L3.78600543,15.5120018 C4.31363225,15.720788 4.91168478,15.6356431 5.36548913,15.2943841 L5.36548913,15.2943841 C7.82540761,13.4470109 10.0498188,10.7203351 11.6972373,7.5142663 L11.6972373,7.5142663 L11.7225996,7.46376812 C12.5858243,5.77513587 13.2884964,3.96942935 13.8131793,2.09216486 L13.8131793,2.09216486 C13.8509964,1.95765399 13.8539402,1.81657609 13.8213315,1.68115942 L13.8213315,1.68115942 C13.7081069,1.21331522 13.5778986,0.732563406 13.4313859,0.241621377 L13.4313859,0.241621377 C13.4028533,0.145833333 13.3204257,0.0969202899 13.2377717,0.0969202899 L13.2377717,0.0969202899 C13.1616848,0.0969202899 13.0853714,0.138134058 13.0493659,0.222373188" id="Fill-11" fill="url(#linearGradient-12)" mask="url(#mask-11)"></path>
                </g>
                <g transform="translate(0.000000, 9.066803)">
                    <mask id="mask-14" fill="white">
                        <use xlink:href="#path-13"></use>
                    </mask>
                    <g id="Clip-14"></g>
                    <path d="M4.24615036,0.208559783 C2.86458333,0.834012681 1.63654891,1.56431159 0.617074275,2.36639493 L0.617074275,2.36639493 C0.169610507,2.71875 -0.0552536232,3.28328804 0.011548913,3.84873188 L0.011548913,3.84873188 C0.372961957,6.90217391 1.6107337,10.1929348 3.55163043,13.2266757 L3.55163043,13.2266757 L3.58220109,13.2737772 C4.60778986,14.8688859 5.81544384,16.3845109 7.17413949,17.7821558 L7.17413949,17.7821558 C7.27128623,17.8822464 7.39175725,17.9558424 7.52536232,17.9959239 L7.52536232,17.9959239 C7.98663949,18.1331522 8.4678442,18.2624547 8.96580616,18.3826993 L8.96580616,18.3826993 C9.15194746,18.4277627 9.28894928,18.2155797 9.17436594,18.0620471 L9.17436594,18.0620471 C8.30208333,16.8935688 7.49048913,15.6557971 6.75271739,14.3686594 L6.75271739,14.3686594 C5.69134964,12.5167572 4.7977808,10.5894475 4.09759964,8.64039855 L4.09759964,8.64039855 C3.65194746,7.40058877 3.29008152,6.1714221 3.02173913,4.98641304 L3.02173913,4.98641304 C3.00475543,4.92391304 3.00362319,4.8432971 3.02287138,4.765625 L3.02287138,4.765625 C3.41734601,3.28577899 3.91779891,1.85076993 4.5160779,0.479393116 L4.5160779,0.479393116 C4.57880435,0.335824275 4.46852355,0.189764493 4.33106884,0.189764493 L4.33106884,0.189764493 C4.30344203,0.189764493 4.27468297,0.195652174 4.24615036,0.208559783" id="Fill-13" fill="url(#linearGradient-15)" mask="url(#mask-14)"></path>
                </g>
                <g transform="translate(3.849638, 0.008832)">
                    <g>
                        <mask id="mask-17" fill="white">
                            <use xlink:href="#path-16"></use>
                        </mask>
                        <g id="Clip-16"></g>
                        <path d="M0.569950181,15.5892889 C0.624524457,15.7729393 0.8765625,15.7849411 0.951970109,15.60899 C1.52511322,14.2679574 2.18838315,12.9450408 2.93136322,11.6608469 C4.00088315,9.81347373 5.2198596,8.0738904 6.55455163,6.49010417 C7.40328351,5.48240489 8.28507699,4.55260417 9.17524909,3.72583786 C9.2207654,3.67964221 9.29005888,3.63865489 9.36659873,3.61600996 C10.8448596,3.21474185 12.3373868,2.92760417 13.8237998,2.75708786 C14.010394,2.73580163 14.0747056,2.49644475 13.9218524,2.3872962 C12.6879303,1.50640851 11.4404212,0.810529891 10.2350317,0.331363225 C9.70763134,0.121671196 9.10935236,0.206363225 8.65509511,0.546716486 C6.19291214,2.39137228 3.96487772,5.11510417 2.31338315,8.31890851 L2.28779438,8.36918025 C1.42275815,10.0564538 0.717595109,11.8617074 0.190194746,13.7382926 C0.152604167,13.872577 0.149207428,14.0136549 0.181816123,14.1495245 C0.294361413,14.6171422 0.424116848,15.0981205 0.569950181,15.5892889" id="Fill-15" fill="#FABA35" mask="url(#mask-17)"></path>
                    </g>
                    <path d="M38.4280118,28.3321558 L37.1825408,28.3321558 L37.4798687,26.4193388 L38.7640625,26.4193388 C39.0942255,26.4193388 39.3453578,26.5092391 39.4905118,26.6790761 C39.6261549,26.8373641 39.672577,27.063587 39.6279665,27.3525362 C39.5312726,27.9752717 39.0933197,28.3321558 38.4280118,28.3321558 M38.8985734,25.6453351 L37.1506114,25.6453351 C36.9332201,25.6453351 36.7355299,25.8151721 36.7008832,26.0327899 L35.8786458,31.3491395 L36.7167346,31.3491395 L37.0638813,29.1061594 L38.4012908,29.1061594 C39.4737545,29.1061594 40.3005208,28.4170743 40.4594882,27.3921649 C40.5355752,26.8930707 40.4348053,26.462817 40.1648777,26.148279 C39.8831748,25.8190217 39.4452219,25.6453351 38.8985734,25.6453351" id="Fill-17" fill="#333333"></path>
                    <path d="M44.0795063,29.3582428 L45.2916893,26.9895833 L45.7550045,29.3582428 L44.0795063,29.3582428 Z M45.8134284,25.6453804 L45.1442708,25.6453804 L42.1628397,31.3491848 L43.0702219,31.3491848 L43.6970335,30.1166214 L45.8956295,30.1166214 L46.1417799,31.3491848 L47.0215353,31.3491848 L45.8342618,25.7450181 L45.8134284,25.6453804 Z" id="Fill-19" fill="#333333"></path>
                    <polygon id="Fill-21" fill="#333333" points="53.8978714 29.7220335 51.8564312 25.7143342 51.8208786 25.6452672 51.0833333 25.6452672 50.2015399 31.349298 51.0398551 31.349298 51.6725543 27.2596241 53.7110507 31.2800045 53.7456975 31.349298 54.4841486 31.349298 55.3657156 25.6452672 54.5285326 25.6452672"></polygon>
                    <path d="M62.0730525,28.3409873 L62.0495018,28.4942935 C61.9505435,29.1358243 61.8377717,29.864538 61.4532609,30.2094203 C61.1756341,30.4555707 60.8325634,30.5751359 60.4045743,30.5751359 L59.3653986,30.5751359 L60.0091938,26.4193388 L61.0866395,26.4193388 C61.5067029,26.4193388 61.805163,26.5339221 61.9978714,26.7701087 C62.2659873,27.1011775 62.1679348,27.7320652 62.0730525,28.3409873 M61.2675725,25.6453351 L59.2902174,25.6453351 L58.4084239,31.3491395 L60.4231431,31.3491395 C61.0234601,31.3491395 61.5549366,31.1643569 61.9625453,30.8133605 C62.6187953,30.2449728 62.7612319,29.3169837 62.8749094,28.5715127 L62.9093297,28.3480072 C63.0252717,27.6134058 63.1566123,26.7800725 62.6634058,26.1949275 C62.3576993,25.8350996 61.8753623,25.6453351 61.2675725,25.6453351" id="Fill-23" fill="#333333"></path>
                    <path d="M67.2452219,29.3582428 L68.4562726,26.9895833 L68.9200408,29.3582428 L67.2452219,29.3582428 Z M68.9782382,25.6453804 L68.3090806,25.6453804 L65.3285553,31.3491848 L66.2350317,31.3491848 L66.8618433,30.1166214 L69.0602129,30.1166214 L69.3063632,31.3491848 L70.1861187,31.3491848 L68.9990716,25.7450181 L68.9782382,25.6453804 Z" id="Fill-25" fill="#333333"></path>
                    <path d="M79.3156929,26.3580163 C79.8138813,26.3580163 80.1343071,26.4816576 80.4218976,26.7860054 L80.5047781,26.8738678 L81.1295516,26.3324275 L81.0387455,26.236413 C80.6066803,25.7835145 80.1370245,25.5996377 79.4164629,25.5996377 C78.2905571,25.5996377 77.4622056,26.2452446 77.3068614,27.2456975 C77.2346241,27.7192029 77.3324502,28.0980525 77.5985281,28.3718297 C77.8229393,28.5971467 78.1619339,28.7484149 78.6078125,28.8204257 L79.2276042,28.9202899 C79.6012455,28.9796196 79.7022418,29.0172101 79.828827,29.1449275 C79.9454484,29.2613225 79.9877944,29.4651268 79.9481658,29.7180707 C79.8612092,30.2837409 79.3689085,30.6216033 78.6315897,30.6216033 C78.0265172,30.6216033 77.6755208,30.4723732 77.3356205,30.069067 L77.2525136,29.9712409 L76.601019,30.5344203 L76.6823143,30.6304348 C77.1417799,31.1734601 77.6786911,31.3947011 78.5358016,31.3947011 C79.7457201,31.3947011 80.6275136,30.7461504 80.7837636,29.7407156 C80.8587183,29.2466033 80.7450408,28.8351449 80.4554121,28.5525362 C80.2280571,28.326087 79.9551857,28.2124094 79.4499774,28.1345109 L78.8677763,28.0434783 C78.6048687,28 78.3675498,27.8992301 78.2479846,27.7794384 C78.1372509,27.669837 78.0996603,27.4947917 78.1354393,27.2615489 C78.2223958,26.7038043 78.6741621,26.3580163 79.3156929,26.3580163" id="Fill-27" fill="#333333"></path>
                    <path d="M86.6486639,28.3321558 L85.4031929,28.3321558 L85.6998415,26.4193388 L86.9838089,26.4193388 C87.3139719,26.4193388 87.5651042,26.5092391 87.7102582,26.6790761 C87.8459013,26.8373641 87.8923234,27.063587 87.8470335,27.3536685 C87.7519248,27.9752717 87.3151042,28.3321558 86.6486639,28.3321558 M87.1183197,25.6453351 L84.9810915,25.6453351 L84.0983922,31.3491395 L84.936481,31.3491395 L85.2836277,29.1061594 L86.6219429,29.1061594 C87.6937274,29.1061594 88.5200408,28.4170743 88.6781024,27.3921649 C88.7564538,26.8930707 88.6543252,26.462817 88.3855299,26.148279 C88.103827,25.8190217 87.6649683,25.6453351 87.1183197,25.6453351" id="Fill-29" fill="#333333"></path>
                    <path d="M94.9911232,28.4774457 C94.8160779,29.6144475 94.7241395,29.942346 94.3625,30.2627717 C94.1063859,30.4912591 93.7712409,30.6216938 93.4440217,30.6216938 C93.1247283,30.6216938 92.8389493,30.4960145 92.6609601,30.2777174 C92.4091486,29.9704257 92.4188859,29.6447917 92.5927989,28.5170743 C92.7698822,27.3791667 92.8627264,27.0501359 93.2236866,26.7317482 C93.4795743,26.5032609 93.8147192,26.3728261 94.1410326,26.3728261 C94.4591938,26.3728261 94.7449728,26.4985054 94.9238678,26.717029 C95.1768116,27.0243207 95.1670743,27.3497283 94.9911232,28.4774457 M94.2221014,25.5997283 C93.6496377,25.5997283 93.1088768,25.80625 92.6582428,26.196875 C92.0305254,26.7403533 91.940625,27.3209692 91.7615036,28.4774457 C91.5805707,29.6418478 91.4906703,30.2254076 91.9612319,30.7838315 C92.2993207,31.1830616 92.7836957,31.3947917 93.3638587,31.3947917 C93.9351902,31.3947917 94.4761775,31.1882699 94.9277174,30.7974185 C95.5556612,30.2539402 95.6455616,29.6724185 95.8244565,28.515942 C96.0044837,27.3524457 96.0943841,26.7682065 95.6238225,26.2106884 C95.2857337,25.8114583 94.8013587,25.5997283 94.2221014,25.5997283" id="Fill-31" fill="#333333"></path>
                    <path d="M101.740036,28.1640851 L100.433197,28.1640851 L100.704031,26.4192935 L102.049366,26.4192935 C102.358016,26.4192935 102.593071,26.5033062 102.729393,26.6634058 C102.854167,26.807654 102.896513,27.0144022 102.855072,27.2752717 C102.767889,27.8407156 102.361866,28.1640851 101.740036,28.1640851 M102.183877,25.6452899 L99.9852808,25.6452899 L99.102808,31.3490942 L99.9408967,31.3490942 L100.315444,28.930163 L101.42663,28.930163 L102.261096,31.2650815 L102.291667,31.3490942 L103.244565,31.3490942 L102.31952,28.8402627 C103.0625,28.6387228 103.569746,28.0750906 103.688406,27.3081069 L103.689312,27.3081069 C103.761549,26.8334692 103.665761,26.426087 103.410779,26.1287591 C103.139719,25.812183 102.715806,25.6452899 102.183877,25.6452899" id="Fill-33" fill="#333333"></path>
                    <polygon id="Fill-35" fill="#333333" points="106.931793 26.4192708 108.508786 26.4192708 107.745426 31.349298 108.583741 31.349298 109.345743 26.4192708 110.923641 26.4192708 111.042301 25.6452672 107.051359 25.6452672"></polygon>
                    <path d="M115.846694,26.3580163 C116.344882,26.3580163 116.665308,26.4816576 116.952899,26.7860054 L117.035779,26.8738678 L117.660553,26.3324275 L117.56952,26.236413 C117.137681,25.7835145 116.668252,25.5996377 115.947464,25.5996377 C114.821558,25.5996377 113.993886,26.2452446 113.8399,27.2447917 C113.765851,27.7192029 113.863678,28.0980525 114.130661,28.3718297 C114.353714,28.5971467 114.692935,28.7484149 115.138813,28.8204257 L115.758605,28.9202899 C116.132246,28.9796196 116.233243,29.0172101 116.359828,29.1458333 C116.477355,29.2622283 116.519928,29.4651268 116.479167,29.7180707 C116.39221,30.2837409 115.899909,30.6216033 115.162591,30.6216033 C114.55865,30.6216033 114.207654,30.4723732 113.867527,30.069067 L113.784647,29.9721467 L113.132246,30.5344203 L113.213089,30.6304348 C113.672781,31.1734601 114.209692,31.3947011 115.066803,31.3947011 C116.276495,31.3947011 117.158514,30.7461504 117.313859,29.7416214 C117.390625,29.2477355 117.277174,28.8360507 116.986413,28.5525362 C116.759058,28.326087 116.486187,28.2124094 115.981205,28.1354167 L115.398551,28.0434783 C115.13587,28 114.898551,27.8992301 114.778986,27.7794384 C114.668252,27.669837 114.630661,27.4947917 114.66644,27.2615489 C114.753397,26.7038043 115.204937,26.3580163 115.846694,26.3580163" id="Fill-37" fill="#333333"></path>
                    <path d="M45.6988225,9.39664855 L45.7348279,9.73813406 L48.7558877,9.73813406 C48.801404,9.73813406 48.8460145,9.71730072 48.879529,9.68152174 C48.9130435,9.6455163 48.9298007,9.5995471 48.9248188,9.55538949 L48.5942029,6.50443841 C48.5876359,6.44012681 48.5364583,6.3955163 48.4705616,6.3955163 L45.5808424,6.3955163 C45.5353261,6.3955163 45.4900362,6.41612319 45.4567482,6.45190217 C45.4232337,6.48768116 45.4069293,6.53342391 45.4110054,6.57735507 L45.5588768,8.0540308 L43.2692482,8.0540308 L44.5040761,5.76462862 C44.5287591,5.71911232 44.5307971,5.66974638 44.509058,5.62966486 C44.4877717,5.58958333 44.4476902,5.56648551 44.3985507,5.56648551 L41.1811594,5.56648551 C41.1202446,5.56648551 41.0595562,5.60498188 41.0298913,5.6620471 L39.1834239,9.20054348 C39.1596467,9.24583333 39.1589674,9.29497283 39.1800272,9.33460145 C39.2019928,9.37377717 39.2416214,9.39664855 39.2900815,9.39664855 L45.6988225,9.39664855 Z" id="Fill-39" fill="#333333"></path>
                    <path d="M51.3256567,22.8487092 C51.3593976,22.8099864 51.3743433,22.7619792 51.366644,22.7169158 L50.8439991,19.7633379 C50.8331295,19.7033288 50.78399,19.6637002 50.7210371,19.6637002 L47.9343524,19.6637002 C47.8870245,19.6637002 47.8403759,19.6856658 47.806635,19.7239357 C47.7733469,19.7619792 47.7586277,19.8099864 47.7665534,19.8548234 L48.2891984,22.8086277 C48.2998415,22.8690897 48.3487545,22.9089447 48.4119339,22.9089447 L51.1983922,22.9089447 C51.2454937,22.9089447 51.2923687,22.8867527 51.3256567,22.8487092" id="Fill-41" fill="#333333"></path>
                    <path d="M41.4648324,19.6636096 L38.6754303,19.6636096 C38.611798,19.6636096 38.5495245,19.704144 38.5209918,19.7648324 L37.1310462,22.7190897 C37.10976,22.7637002 37.1104393,22.8108016 37.131952,22.8490716 C37.1539176,22.8873415 37.1939991,22.9088542 37.2406476,22.9088542 L40.0305027,22.9088542 C40.094135,22.9088542 40.1564085,22.8678668 40.1851676,22.8071784 L41.5748868,19.8531476 C41.596173,19.80899 41.5954937,19.7609828 41.5733016,19.7233922 C41.5513361,19.6853487 41.5119339,19.6636096 41.4648324,19.6636096" id="Fill-43" fill="#333333"></path>
                    <path d="M48.7547781,16.5897418 C48.8233922,16.9119792 48.9456748,17.1959466 49.1186821,17.4339447 C49.2907835,17.6708107 49.5077219,17.8603487 49.7645154,17.9971241 C50.0185915,18.1325408 50.3073143,18.2013813 50.6243433,18.2013813 L56.6709918,18.2013813 C56.7167346,18.2013813 56.761798,18.1810009 56.7953125,18.1449955 C56.828827,18.1085371 56.8453578,18.0625679 56.8408288,18.0181839 L56.7219429,16.894769 C56.7151495,16.8309103 56.6641984,16.7860734 56.5976223,16.7860734 L52.1103034,16.7860734 C51.8752491,16.7860734 51.6884284,16.6909647 51.5550498,16.504144 C51.4266531,16.3229846 51.382269,16.0981205 51.4228034,15.8352129 L51.5244792,15.1787364 L57.4490716,14.0548687 C57.5194973,14.0410553 57.5781476,13.9812726 57.5890172,13.9119792 L57.7724411,12.7269701 C57.7792346,12.6832654 57.7661005,12.6420516 57.7364357,12.6144248 C57.7065444,12.5861187 57.6641984,12.5741168 57.6202672,12.5840806 L51.7502491,13.7199502 L51.902423,12.7367074 C51.9151042,12.6563179 51.8596241,12.5908741 51.7794611,12.5908741 L49.3396966,12.5908741 C49.2595335,12.5908741 49.1838995,12.6563179 49.1712183,12.7367074 L48.7368886,15.5426404 C48.6793705,15.914923 48.6852582,16.2668252 48.7547781,16.5897418" id="Fill-45" fill="#333333"></path>
                    <path d="M50.202038,10.4473053 C50.3716486,10.6911911 50.5876812,10.8838995 50.8442482,11.0211277 C51.0987772,11.1569973 51.3884058,11.2258379 51.7043025,11.2258379 L57.7507246,11.2258379 C57.7964674,11.2258379 57.8417572,11.2054574 57.8752717,11.169452 C57.9085598,11.1332201 57.9248641,11.0874774 57.9203351,11.0430933 L57.8016757,9.91899909 C57.7951087,9.85491395 57.7441576,9.81007699 57.6773551,9.81007699 L53.1900362,9.81007699 C52.954529,9.81007699 52.767029,9.7149683 52.6345562,9.52769475 C52.5063859,9.34698822 52.4620018,9.12189764 52.5027627,8.85944293 L52.5740942,8.39793931 L58.4984601,7.27475091 C58.5688859,7.2618433 58.6277627,7.20138134 58.6386322,7.13186141 L58.818433,5.96972373 C58.8254529,5.92579257 58.8120924,5.88480525 58.7831069,5.85695199 C58.7654438,5.84087409 58.729212,5.81505888 58.6671649,5.82638134 L52.8000906,6.93915308 L52.9898551,5.71225091 C53.0023098,5.63186141 52.9470562,5.56641757 52.8666667,5.56641757 L50.4271286,5.56641757 C50.3467391,5.56641757 50.2711051,5.63186141 50.2586504,5.71225091 L49.820471,8.5426404 C49.7629529,8.91469656 49.7686141,9.26659873 49.838587,9.5890625 C49.9067482,9.91243207 50.0288043,10.2009284 50.202038,10.4473053" id="Fill-47" fill="#333333"></path>
                    <path d="M46.4442935,22.9088542 C46.4916214,22.9088542 46.5382699,22.8866621 46.571558,22.8486187 C46.6050725,22.8103487 46.6200181,22.7625679 46.6127717,22.7175045 L46.1084692,19.7637002 C46.0975996,19.704144 46.0480072,19.6636096 45.9850543,19.6636096 L43.1997283,19.6636096 C43.1524004,19.6636096 43.1057518,19.6858016 43.0720109,19.7240716 C43.0384964,19.762115 43.0237772,19.8098958 43.0317029,19.8549592 L43.5543478,22.8087636 C43.5649909,22.8689991 43.613904,22.9088542 43.6770833,22.9088542 L46.4442935,22.9088542 Z" id="Fill-49" fill="#333333"></path>
                    <path d="M45.3924366,12.7372283 L41.7665308,12.7372283 L41.9476902,11.5676178 L45.573596,11.5676178 L45.3924366,12.7372283 Z M45.0298913,15.0784873 L41.404212,15.0784873 L41.5815217,13.9335598 L45.2072011,13.9335598 L45.0298913,15.0784873 Z M48.3403533,10.3952899 L39.5654438,10.3952899 C39.4850543,10.3952899 39.4096467,10.4607337 39.397192,10.5411232 L38.1847826,18.3728714 C38.1723279,18.4530344 38.2275815,18.5184783 38.3077446,18.5184783 L40.7259964,18.5184783 C40.8061594,18.5184783 40.8817935,18.4530344 40.8942482,18.3728714 L41.2192029,16.2748188 L44.8448822,16.2748188 L44.8220109,16.4204257 C44.7814764,16.6835598 44.6675725,16.9084239 44.482337,17.0895833 C44.2930254,17.2761775 44.0765399,17.3712862 43.8403533,17.3712862 L43.725317,17.3712862 L43.2810236,18.3293931 C43.2597373,18.3744565 43.2604167,18.4217844 43.2826087,18.459375 C43.3045743,18.4969656 43.3439764,18.5184783 43.390625,18.5184783 L44.9295743,18.5184783 C45.2466033,18.5184783 45.5568388,18.4498641 45.852808,18.314221 C46.1514946,18.1774457 46.4270833,17.9845109 46.6725543,17.7410779 C46.9207428,17.4949275 47.1322464,17.2059783 47.3020833,16.8823822 C47.4716938,16.5583333 47.5865036,16.2057518 47.6440217,15.8352808 L48.4635417,10.5411232 C48.4759964,10.4607337 48.4207428,10.3952899 48.3403533,10.3952899 L48.3403533,10.3952899 Z" id="Fill-51" fill="#333333"></path>
                    <path d="M120.80779,6.83451087 L113.169203,6.83451087 L112.971513,5.6673913 C112.960643,5.60692935 112.91173,5.56639493 112.848098,5.56639493 L110.393388,5.56639493 C110.34606,5.56639493 110.299411,5.58836051 110.265444,5.62685688 C110.232382,5.66512681 110.217437,5.71222826 110.224909,5.75683877 L110.407654,6.83451087 L101.851947,6.83451087 C101.771558,6.83451087 101.69615,6.89995471 101.683696,6.9803442 L101.452944,8.47038043 C101.440716,8.55054348 101.495969,8.61598732 101.576132,8.61598732 L103.122328,8.61598732 L101.323641,11.8548913 C101.298279,11.9006341 101.295788,11.9502264 101.317301,11.9909873 C101.338361,12.0315217 101.379121,12.054846 101.428261,12.054846 L117.107835,12.054846 L117.176676,12.470154 L119.6375,12.470154 C119.685281,12.470154 119.732156,12.4475091 119.765897,12.4083333 C119.799411,12.3693841 119.813678,12.3211504 119.80462,12.2763134 L119.262047,9.49302536 C119.250498,9.43460145 119.201359,9.39565217 119.139991,9.39565217 L116.765444,9.39565217 C116.71721,9.39565217 116.670335,9.4182971 116.636368,9.45815217 C116.60308,9.4977808 116.58904,9.54669384 116.599004,9.59221014 L116.790353,10.4687953 L104.845154,10.4687953 L105.923279,8.61598732 L120.531748,8.61598732 C120.612138,8.61598732 120.687772,8.55054348 120.7,8.47038043 L120.930978,6.9803442 C120.943433,6.89995471 120.887953,6.83451087 120.80779,6.83451087" id="Fill-53" fill="#333333"></path>
                    <path d="M75.5014493,16.3225996 L73.6538496,16.3225996 L74.004846,14.0553895 L75.8522192,14.0553895 L75.5014493,16.3225996 Z M74.9538949,19.8592844 C74.9129076,20.1235507 74.7985507,20.3450181 74.6139946,20.5180254 C74.4242301,20.695788 74.2097826,20.7859149 73.9758605,20.7859149 L72.9629529,20.7859149 L73.3252717,18.445788 L75.1728714,18.445788 L74.9538949,19.8592844 Z M71.1225996,16.3225996 L69.2747736,16.3225996 L69.6257699,14.0553895 L71.4733696,14.0553895 L71.1225996,16.3225996 Z M70.4314764,20.7859149 L68.5838768,20.7859149 L68.9461957,18.445788 L70.7937953,18.445788 L70.4314764,20.7859149 Z M77.5392663,20.3717391 L78.8230072,12.077808 C78.835462,11.9974185 78.7802083,11.9319746 78.7000453,11.9319746 L67.3689764,11.9319746 C67.2888134,11.9319746 67.2131793,11.9974185 67.2009511,12.077808 L67.0877264,12.8078804 L65.5467391,22.7632699 C65.5342844,22.843433 65.589538,22.9088768 65.6697011,22.9088768 L74.8474638,22.9088768 C75.1658514,22.9088768 75.4765399,22.8441123 75.7718297,22.7152627 C76.0693841,22.5852808 76.3431612,22.4043478 76.5870471,22.1763134 C76.8313859,21.9466938 77.0397192,21.6745018 77.2057065,21.3681159 C77.3723732,21.0608243 77.4844656,20.7254529 77.5392663,20.3717391 L77.5392663,20.3717391 Z" id="Fill-55" fill="#333333"></path>
                    <path d="M116.312409,16.1516531 L103.729076,16.1516531 L103.940353,14.7870697 L115.689221,14.7870697 C115.923596,14.7870697 116.110643,14.8769701 116.244248,15.0545063 C116.375136,15.22774 116.422464,15.4410553 116.383967,15.6887908 L116.312409,16.1516531 Z M115.893252,18.8590806 L103.309918,18.8590806 L103.517572,17.5187274 L116.100906,17.5187274 L115.893252,18.8590806 Z M118.898007,13.8237545 C118.739719,13.6140625 118.527536,13.4487545 118.269158,13.3323596 C118.07577,13.2451766 117.85,13.2007926 117.596603,13.2007926 L101.53365,13.2007926 C101.453487,13.2007926 101.377853,13.2662364 101.365399,13.3463995 L100.213904,20.7859375 L97.4688859,20.7859375 L98.2524004,9.32375453 L99.2274909,9.32375453 C99.307654,9.32375453 99.3830616,9.25808424 99.3957428,9.1779212 L99.6754076,7.37108243 C99.6878623,7.29069293 99.6326087,7.22502264 99.5522192,7.22502264 L94.3853261,7.22502264 L94.6194746,5.71211504 C94.6319293,5.63195199 94.5766757,5.56650815 94.4962862,5.56650815 L92.0565217,5.56650815 C91.9761322,5.56650815 91.9007246,5.63195199 91.8882699,5.71211504 L91.6541214,7.22502264 L86.4870018,7.22502264 C86.4068388,7.22502264 86.3312047,7.29069293 86.31875,7.37108243 L86.0390851,9.1779212 C86.0266304,9.25808424 86.0818841,9.32375453 86.1622736,9.32375453 L87.2265851,9.32375453 L84.4426178,20.7859375 L82.8169384,20.7859375 L84.0771286,12.6441803 L84.0773551,12.6441803 L84.8135417,7.88806612 L84.8244112,7.88806612 L85.9485054,5.76351902 C85.9725091,5.71800272 85.9738678,5.66886322 85.9525815,5.62900815 C85.9308424,5.58915308 85.8907609,5.56650815 85.8423007,5.56650815 L83.4863225,5.56650815 C83.4258605,5.56650815 83.3653986,5.60455163 83.3355072,5.66071105 L82.5302536,7.17588315 L78.6720109,7.17588315 L79.2687047,5.74902627 C79.2875,5.70532156 79.285462,5.65935236 79.2632699,5.62334692 C79.2408514,5.58734149 79.2021286,5.56650815 79.1563859,5.56650815 L76.689221,5.56650815 C76.6244565,5.56650815 76.5601449,5.61066576 76.5327446,5.67361866 L75.8821558,7.17588315 L72.2379076,7.17588315 L72.0560688,5.67361866 C72.0481431,5.61066576 71.9976449,5.56650815 71.9322011,5.56650815 L69.2748188,5.56650815 L69.4487319,7.17588315 L68.1054348,7.17588315 L67.3753623,7.17588315 L68.5963768,5.56650815 L65.4507699,5.56650815 C65.3993659,5.56650815 65.3468297,5.59368207 65.3137681,5.63783967 L64.5497283,6.6604846 L63.954846,5.62651721 C63.9333333,5.58870018 63.8930254,5.56650815 63.8468297,5.56650815 L61.1980525,5.56650815 C61.1427989,5.56650815 61.0900362,5.59594656 61.0567482,5.64508605 C61.0234601,5.69377264 61.0182518,5.75038496 61.0431612,5.79590127 L62.7743659,8.97592844 L60.0879982,12.5171422 C60.0379529,12.5830389 60.0538043,12.6421422 60.0630888,12.6645607 C60.0721467,12.6865263 60.1015851,12.7386096 60.1785779,12.7386096 L62.5196105,12.7386096 L62.1697464,14.9987998 L59.0945652,18.9790987 C59.044067,19.0445426 59.059692,19.1045516 59.06875,19.1271966 C59.077808,19.1493886 59.1074728,19.2019248 59.1842391,19.2019248 L61.5191576,19.2019248 L61.3719656,20.152106 C61.3336957,20.3998415 61.2202446,20.6131567 61.0352355,20.7870697 C60.8468297,20.9639266 60.6396286,21.053827 60.4192935,21.053827 L60.3393569,21.053827 L59.5966033,21.053827 L55.8069746,21.053827 L55.5787138,19.7632926 C55.5680707,19.70351 55.5189312,19.6636549 55.4557518,19.6636549 L52.6887681,19.6636549 C52.6414402,19.6636549 52.5947917,19.6856205 52.5608243,19.7238904 C52.5277627,19.7619339 52.5130435,19.8092618 52.5202899,19.8543252 L53.0245924,22.8076766 C53.0352355,22.8685915 53.0846014,22.9088995 53.1477808,22.9088995 L55.1317029,22.9088995 L55.9331069,22.9088995 L58.7071105,22.9088995 L60.3393569,22.9088995 L61.2603261,22.9088995 C61.5624094,22.9088995 61.8579257,22.844135 62.1373641,22.7164176 C62.4195199,22.5877944 62.6928442,22.3824049 62.9299366,22.1534647 C63.1674819,21.9238451 63.3730978,21.6512002 63.5397645,21.3432292 C63.7062047,21.0361639 63.8185236,20.701019 63.8733243,20.3473053 L64.5250453,16.1358016 L66.6165308,13.4199955 L64.945788,13.4199955 L65.5370471,9.5988904 L65.7646286,9.29907156 L67.7766304,9.29907156 L69.709375,9.29907156 L69.8771739,10.7521966 C69.8846467,10.8153759 69.9358243,10.8599864 70.001721,10.8599864 L72.4820199,10.8599864 C72.5279891,10.8599864 72.5735054,10.8387002 72.6072464,10.8020154 C72.6405344,10.7651042 72.6563859,10.7182292 72.6507246,10.6740716 L72.4718297,9.29907156 L74.9881341,9.29907156 L74.4027627,10.6758832 C74.3839674,10.7200408 74.3860054,10.7664629 74.4081975,10.8026947 C74.4303895,10.8389266 74.4693388,10.8599864 74.5148551,10.8599864 L76.9813406,10.8599864 C77.0463315,10.8599864 77.111096,10.8162817 77.1384964,10.7540082 L77.7779891,9.29907156 L82.0193841,9.29907156 L81.6192482,11.88399 L81.5014946,12.6441803 L79.9351449,22.7632926 C79.9226902,22.8434556 79.9779438,22.9088995 80.0583333,22.9088995 L81.2831975,22.9088995 L82.3425272,22.9088995 L84.0859601,22.9088995 L85.7345109,22.9088995 L86.278442,22.9088995 C86.3547554,22.9088995 86.4256341,22.8513813 86.4444293,22.7750679 L89.6908062,9.32375453 L91.3291667,9.32375453 L89.9288043,18.3710824 L88.5182518,18.3710824 C88.4380888,18.3710824 88.3624547,18.4365263 88.35,18.5166893 L88.0703351,20.323981 C88.0578804,20.4043705 88.1131341,20.4698143 88.1932971,20.4698143 L89.6038496,20.4698143 L89.2487772,22.7632926 C89.2363225,22.8434556 89.2918025,22.9088995 89.3719656,22.9088995 L91.8117301,22.9088995 C91.8921196,22.9088995 91.9675272,22.8434556 91.9799819,22.7632926 L92.3350543,20.4698143 L93.745154,20.4698143 C93.8255435,20.4698143 93.9011775,20.4043705 93.9136322,20.323981 L94.1932971,18.5166893 C94.2057518,18.4365263 94.1504982,18.3710824 94.0701087,18.3710824 L92.6597826,18.3710824 L94.0603714,9.32375453 L95.7675725,9.32375453 L94.8685688,22.7757473 C94.8638134,22.8513813 94.917029,22.9088995 94.9933424,22.9088995 L96.1235507,22.9088995 L97.1647645,22.9088995 L100.030933,22.9088995 L101.805163,22.9088995 L102.537274,22.9088995 C102.617437,22.9088995 102.693071,22.8434556 102.705525,22.7632926 L103.102038,20.2016984 L115.685598,20.2016984 L115.61019,20.6890172 C115.571694,20.9367527 115.458469,21.1500679 115.273913,21.3233016 C115.085281,21.5008379 114.87038,21.5909647 114.636005,21.5909647 L113.788632,21.5909647 L114.368342,22.8405118 C114.388949,22.8835371 114.431069,22.9088995 114.481341,22.9088995 L115.765987,22.9088995 C116.083469,22.9088995 116.398007,22.819452 116.693524,22.6908288 C116.990625,22.5622056 117.264855,22.3837636 117.509194,22.1618433 C117.751268,21.9408288 117.958469,21.6738451 118.124004,21.3681386 C118.290444,21.0608469 118.402763,20.7254755 118.45779,20.3717618 L119.235417,15.3470788 C119.280027,15.0585824 119.270516,14.7773324 119.208469,14.5103487 C119.145969,14.2449502 119.041123,14.0139719 118.898007,13.8237545 L118.898007,13.8237545 Z" id="Fill-57" fill="#333333"></path>
                </g>
            </g>
        </g>
    </g>
</svg>