<svg width="200" height="200" viewBox="0 0 200 200" fill="none" xmlns="http://www.w3.org/2000/svg">
<path d="M163.022 188.019C163.022 183.399 135.134 171.281 100.734 171.281C66.3337 171.281 38.4459 183.399 38.4459 188.019H163.022Z" fill="url(#paint0_linear_1942_100753)"/>
<path d="M94.6149 46.9307C94.6149 39.8241 88.9174 34.0484 81.8415 33.9201C82.0229 33.0328 82.1205 32.1148 82.1205 31.1745C82.1205 23.6968 76.0575 17.6338 68.5798 17.6338C63.5519 17.6338 59.1685 20.3765 56.8331 24.4446C55.3934 23.814 53.8058 23.4625 52.1345 23.4625C47.154 23.4625 42.9046 26.5652 41.1998 30.9429C40.4436 30.8341 39.6735 30.7755 38.8867 30.7755C29.9665 30.7755 22.7344 38.0077 22.7344 46.9279C22.7344 55.8481 29.9665 63.0802 38.8867 63.0802C42.5112 63.0802 45.8566 61.886 48.5519 59.8715H80.2037C80.6613 59.9189 81.1244 59.9468 81.596 59.9468C82.0675 59.9468 82.5307 59.9217 82.9883 59.8715C89.5257 59.1795 94.6149 53.6494 94.6149 46.9307Z" fill="url(#paint1_linear_1942_100753)"/>
<path d="M178.73 52.3548C178.73 42.5808 170.806 34.6567 161.032 34.6567C159.774 34.6567 158.546 34.7907 157.363 35.039C155.304 23.2505 145.025 14.2856 132.645 14.2856C123.663 14.2856 115.79 19.0066 111.353 26.0993C110.502 25.9793 109.634 25.9123 108.75 25.9123C101.423 25.9123 95.0921 30.1757 92.101 36.356C91.4955 36.2974 90.8845 36.2639 90.265 36.2639C79.9721 36.2639 71.6266 44.6093 71.6266 54.9023C71.6266 65.1952 79.9721 73.5407 90.265 73.5407C94.4001 73.5407 98.2171 72.193 101.309 69.9134H158.85C159.565 70.0027 160.293 70.0501 161.032 70.0501C161.763 70.0501 162.483 69.9999 163.192 69.9134H163.281V69.9023C171.992 68.8001 178.73 61.3671 178.73 52.3548Z" fill="url(#paint2_linear_1942_100753)"/>
<path d="M24.1968 99.5786C23.8982 99.5786 23.6499 99.3414 23.6387 99.0401C23.6276 98.7332 23.8703 98.4737 24.1772 98.4653C31.8642 98.2142 40.4272 88.3956 40.5137 88.2979C41.0495 87.6506 41.5015 87.0005 41.8726 86.356C41.5517 86.3587 41.228 86.3504 40.9072 86.3336L40.8625 86.3308C38.3876 86.0072 35.5333 84.4726 34.8692 82.1623C34.5316 80.9877 34.6348 79.1712 37.0455 77.1763L37.1153 77.126C39.3893 75.7756 41.6912 75.9765 43.1253 77.6562C44.4953 79.2605 44.9027 82.0479 43.7085 85.1255C59.4032 83.231 70.0785 58.7974 70.1901 58.5379C70.3129 58.2561 70.6393 58.1249 70.9239 58.2449C71.2057 58.3677 71.3368 58.6941 71.2169 58.9787C71.1862 59.0485 68.1281 66.1048 62.9272 72.9491C56.6856 81.1634 49.9027 85.7338 43.1812 86.2974C42.7208 87.1986 42.1181 88.111 41.3647 89.0206C40.9964 89.4475 32.3915 99.3163 24.2135 99.5842C24.2079 99.5786 24.2024 99.5786 24.1968 99.5786ZM40.9853 85.2176C41.4763 85.2427 41.9646 85.2427 42.4473 85.2231C43.7169 82.3632 43.4518 79.7544 42.2771 78.3788C41.2113 77.1316 39.5121 77.0144 37.7236 78.0608C36.6577 78.9508 35.5026 80.3208 35.9406 81.8498C36.4038 83.4486 38.569 84.8939 40.9853 85.2176Z" fill="url(#paint3_linear_1942_100753)"/>
<path d="M13.6495 134.535C15.5691 133.634 28.3732 129.474 23.5295 119.926C23.5295 119.926 25.2761 117.373 26.4341 116.89C26.5289 116.851 26.5373 116.723 26.4508 116.67L26.0992 116.449C26.0434 116.413 25.9765 116.405 25.9123 116.427C25.5747 116.544 24.4335 117.077 22.8096 119.27C22.8096 119.27 10.2371 117.585 13.3537 134.379C13.376 134.516 13.5239 134.594 13.6495 134.535Z" fill="url(#paint4_linear_1942_100753)"/>
<path d="M173.276 165.541C173.128 165.507 172.994 165.415 172.913 165.273C172.76 165.005 172.852 164.665 173.12 164.511C180.103 160.507 182.852 155.382 183.929 151.785C185.098 147.882 184.61 144.877 184.604 144.849C184.554 144.545 184.758 144.257 185.059 144.204C185.36 144.154 185.65 144.355 185.703 144.659C185.726 144.79 186.242 147.907 185.014 152.05C183.887 155.859 181.005 161.277 173.675 165.479C173.547 165.552 173.407 165.569 173.276 165.541Z" fill="url(#paint5_linear_1942_100753)"/>
<path d="M165.493 171.695C165.493 171.695 164.971 173.582 163.562 173.774C162.153 173.967 160.666 169.709 157.125 172.661C152.971 176.129 153.08 176.176 151.62 176.271C150.507 176.341 154.405 180.515 159.924 179.505C163.004 178.674 164.187 176.573 163.908 175.272C163.864 175.066 163.936 174.851 164.098 174.714C164.611 174.279 165.655 173.35 166.034 172.675C166.18 172.418 166.09 172.092 165.848 171.921L165.493 171.695Z" fill="url(#paint6_linear_1942_100753)"/>
<path d="M143.323 107.26L144.3 106.069L158.566 130.438L157.587 131.629L143.323 107.26Z" fill="url(#paint7_linear_1942_100753)"/>
<path d="M119.124 99.7545L120.103 98.5603L144.3 106.069L143.323 107.26L119.124 99.7545Z" fill="#B0B0B0"/>
<path d="M143.323 107.26L157.587 131.629L133.39 124.124L119.124 99.7544L143.323 107.26Z" fill="url(#paint8_linear_1942_100753)"/>
<path d="M82.6981 108.192L58.0692 100.296L119.4 98.1558L144.029 106.049L82.6981 108.192Z" fill="url(#paint9_linear_1942_100753)"/>
<path d="M119.459 108.778H58.1724L58.0692 100.296L119.4 98.1558L119.459 108.778Z" fill="url(#paint10_linear_1942_100753)"/>
<path d="M82.9492 168.027L58.3203 160.134L58.0692 100.296L82.6981 108.192L82.9492 168.027Z" fill="url(#paint11_linear_1942_100753)"/>
<path d="M144.029 106.049L144.28 165.884L82.9492 168.027L82.6981 108.192L144.029 106.049Z" fill="url(#paint12_linear_1942_100753)"/>
<path d="M67.5195 134.598L67.5419 133.437L82.6367 108.27L82.6144 109.428L67.5195 134.598Z" fill="url(#paint13_linear_1942_100753)"/>
<path d="M42.9018 126.722L42.9269 125.564L67.5419 133.438L67.5195 134.598L42.9018 126.722Z" fill="url(#paint14_linear_1942_100753)"/>
<path d="M67.5418 133.437L42.9269 125.564L58.0217 100.393L82.6367 108.27L67.5418 133.437Z" fill="url(#paint15_linear_1942_100753)"/>
<defs>
<linearGradient id="paint0_linear_1942_100753" x1="100.734" y1="171.282" x2="100.734" y2="188.02" gradientUnits="userSpaceOnUse">
<stop stop-color="#E8E8E8"/>
<stop offset="0.6" stop-color="#F8F8F8" stop-opacity="0.5"/>
<stop offset="1" stop-color="white" stop-opacity="0"/>
</linearGradient>
<linearGradient id="paint1_linear_1942_100753" x1="58.6767" y1="17.6356" x2="58.6767" y2="63.0833" gradientUnits="userSpaceOnUse">
<stop stop-color="#E8E8E8"/>
<stop offset="0.6" stop-color="#F9F9F9" stop-opacity="0.1"/>
<stop offset="1" stop-color="white" stop-opacity="0"/>
</linearGradient>
<linearGradient id="paint2_linear_1942_100753" x1="125.178" y1="14.2874" x2="125.178" y2="73.545" gradientUnits="userSpaceOnUse">
<stop stop-color="#E8E8E8"/>
<stop offset="0.8" stop-color="#F6F6F6" stop-opacity="0.1"/>
<stop offset="1" stop-color="white" stop-opacity="0"/>
</linearGradient>
<linearGradient id="paint3_linear_1942_100753" x1="23.638" y1="78.8862" x2="71.2616" y2="78.8862" gradientUnits="userSpaceOnUse">
<stop stop-color="#EBEBEB"/>
<stop offset="1" stop-color="#C5C5C7"/>
</linearGradient>
<linearGradient id="paint4_linear_1942_100753" x1="28.4762" y1="120.26" x2="10.9463" y2="130.252" gradientUnits="userSpaceOnUse">
<stop stop-color="#EBEBEB"/>
<stop offset="1" stop-color="#C5C5C7"/>
</linearGradient>
<linearGradient id="paint5_linear_1942_100753" x1="182.496" y1="158.091" x2="176.756" y2="152.352" gradientUnits="userSpaceOnUse">
<stop stop-color="#EBEBEB"/>
<stop offset="1" stop-color="#C5C5C7"/>
</linearGradient>
<linearGradient id="paint6_linear_1942_100753" x1="158.769" y1="171.616" x2="158.769" y2="179.664" gradientUnits="userSpaceOnUse">
<stop stop-color="#EBEBEB"/>
<stop offset="1" stop-color="#C5C5C7"/>
</linearGradient>
<linearGradient id="paint7_linear_1942_100753" x1="150.944" y1="131.63" x2="150.944" y2="106.068" gradientUnits="userSpaceOnUse">
<stop stop-color="#A5A5A5"/>
<stop offset="1" stop-color="#D1D1D1"/>
</linearGradient>
<linearGradient id="paint8_linear_1942_100753" x1="157.587" y1="115.692" x2="119.125" y2="115.692" gradientUnits="userSpaceOnUse">
<stop stop-color="#969696"/>
<stop offset="1" stop-color="#ABABAB"/>
</linearGradient>
<linearGradient id="paint9_linear_1942_100753" x1="89.0582" y1="82.4052" x2="113.04" y2="123.942" gradientUnits="userSpaceOnUse">
<stop stop-color="#FEE38D"/>
<stop offset="1" stop-color="#F25C19"/>
</linearGradient>
<linearGradient id="paint10_linear_1942_100753" x1="79.7339" y1="87.7885" x2="98.7538" y2="120.732" gradientUnits="userSpaceOnUse">
<stop stop-color="#FEE38D"/>
<stop offset="1" stop-color="#F25C19"/>
</linearGradient>
<linearGradient id="paint11_linear_1942_100753" x1="48.6932" y1="108.164" x2="92.3238" y2="160.161" gradientUnits="userSpaceOnUse">
<stop stop-color="#A5A5A5"/>
<stop offset="1" stop-color="#D1D1D1"/>
</linearGradient>
<linearGradient id="paint12_linear_1942_100753" x1="86.5625" y1="104.949" x2="140.415" y2="169.128" gradientUnits="userSpaceOnUse">
<stop stop-color="#EBEBEB"/>
<stop offset="1" stop-color="#C5C5C7"/>
</linearGradient>
<linearGradient id="paint13_linear_1942_100753" x1="82.6375" y1="121.433" x2="67.5189" y2="121.433" gradientUnits="userSpaceOnUse">
<stop stop-color="#969696"/>
<stop offset="1" stop-color="#ABABAB"/>
</linearGradient>
<linearGradient id="paint14_linear_1942_100753" x1="67.5425" y1="130.08" x2="42.902" y2="130.08" gradientUnits="userSpaceOnUse">
<stop stop-color="#A5A5A5"/>
<stop offset="1" stop-color="#D1D1D1"/>
</linearGradient>
<linearGradient id="paint15_linear_1942_100753" x1="52.679" y1="104.876" x2="72.884" y2="128.956" gradientUnits="userSpaceOnUse">
<stop stop-color="#EBEBEB"/>
<stop offset="1" stop-color="#C5C5C7"/>
</linearGradient>
</defs>
</svg>
