<svg width="122" height="122" viewBox="0 0 122 122" fill="none" xmlns="http://www.w3.org/2000/svg">
<g id="&#230;&#154;&#130;&#230;&#151;&#160;&#231;&#155;&#184;&#229;&#133;&#179;&#230;&#144;&#156;&#231;&#180;&#162;">
<path id="Vector" d="M105.115 121.613C105.115 118.379 85.5938 109.896 61.5137 109.896C37.4336 109.896 17.9121 118.379 17.9121 121.613H105.115Z" fill="url(#paint0_linear_6361_32466)"/>
<g id="Group">
<path id="Vector_2" d="M57.2305 22.8516C57.2305 17.877 53.2422 13.834 48.2891 13.7441C48.416 13.123 48.4844 12.4805 48.4844 11.8223C48.4844 6.58789 44.2402 2.34375 39.0059 2.34375C35.4863 2.34375 32.418 4.26367 30.7832 7.11133C29.7754 6.66992 28.6641 6.42383 27.4941 6.42383C24.0078 6.42383 21.0332 8.5957 19.8398 11.6602C19.3105 11.584 18.7715 11.543 18.2207 11.543C11.9766 11.543 6.91406 16.6055 6.91406 22.8496C6.91406 29.0938 11.9766 34.1562 18.2207 34.1562C20.7578 34.1562 23.0996 33.3203 24.9863 31.9102H47.1426C47.4629 31.9434 47.7871 31.9629 48.1172 31.9629C48.4473 31.9629 48.7715 31.9453 49.0918 31.9102C53.668 31.4258 57.2305 27.5547 57.2305 22.8516Z" fill="url(#paint1_linear_6361_32466)"/>
<path id="Vector_3" d="M116.111 26.6484C116.111 19.8066 110.564 14.2598 103.723 14.2598C102.842 14.2598 101.982 14.3535 101.154 14.5273C99.7129 6.27539 92.5176 0 83.8516 0C77.5645 0 72.0527 3.30469 68.9473 8.26953C68.3516 8.18555 67.7441 8.13867 67.125 8.13867C61.9961 8.13867 57.5645 11.123 55.4707 15.4492C55.0469 15.4082 54.6191 15.3848 54.1856 15.3848C46.9805 15.3848 41.1387 21.2266 41.1387 28.4316C41.1387 35.6367 46.9805 41.4785 54.1856 41.4785C57.0801 41.4785 59.752 40.5352 61.916 38.9395H102.195C102.695 39.002 103.205 39.0352 103.723 39.0352C104.234 39.0352 104.738 39 105.234 38.9395H105.297V38.9316C111.395 38.1602 116.111 32.957 116.111 26.6484Z" fill="url(#paint2_linear_6361_32466)"/>
</g>
<g id="Group_2">
<path id="Vector_4" d="M7.93776 59.705C7.72877 59.705 7.55495 59.5389 7.54713 59.328C7.53932 59.1132 7.70924 58.9315 7.92409 58.9257C13.3049 58.7499 19.2991 51.8768 19.3596 51.8085C19.7346 51.3553 20.051 50.9003 20.3108 50.4491C20.0862 50.4511 19.8596 50.4452 19.635 50.4335L19.6038 50.4315C17.8714 50.205 15.8733 49.1307 15.4085 47.5136C15.1721 46.6913 15.2444 45.4198 16.9319 44.0233L16.9807 43.9882C18.5725 43.0428 20.1839 43.1835 21.1878 44.3593C22.1467 45.4823 22.4319 47.4335 21.596 49.5878C32.5823 48.2616 40.0549 31.1581 40.1331 30.9764C40.219 30.7792 40.4475 30.6874 40.6467 30.7714C40.844 30.8573 40.9358 31.0858 40.8518 31.285C40.8303 31.3339 38.6897 36.2733 35.0491 41.0643C30.6799 46.8143 25.9319 50.0136 21.2268 50.4081C20.9046 51.0389 20.4827 51.6776 19.9553 52.3143C19.6975 52.6132 13.6741 59.5214 7.94948 59.7089C7.94557 59.705 7.94167 59.705 7.93776 59.705ZM19.6897 49.6522C20.0335 49.6698 20.3753 49.6698 20.7132 49.6561C21.6018 47.6542 21.4163 45.828 20.594 44.8651C19.8479 43.9921 18.6585 43.91 17.4065 44.6425C16.6604 45.2655 15.8518 46.2245 16.1585 47.2948C16.4827 48.4139 17.9983 49.4257 19.6897 49.6522Z" fill="url(#paint3_linear_6361_32466)"/>
</g>
<path id="Vector_5" d="M0.554644 84.1746C1.89839 83.5438 10.8613 80.6317 7.47066 73.9481C7.47066 73.9481 8.69332 72.161 9.50386 71.8231C9.57027 71.7957 9.57613 71.7059 9.51558 71.6688L9.26949 71.5145C9.23042 71.4891 9.18355 71.4832 9.13863 71.4989C8.9023 71.5809 8.10347 71.9539 6.96675 73.4891C6.96675 73.4891 -1.83403 72.3094 0.347613 84.0653C0.363238 84.161 0.466753 84.2157 0.554644 84.1746Z" fill="url(#paint4_linear_6361_32466)"/>
<g id="Group_3">
<path id="Vector_6" d="M112.293 105.878C112.19 105.855 112.096 105.791 112.039 105.691C111.932 105.503 111.996 105.265 112.184 105.158C117.072 102.355 118.996 98.7671 119.75 96.2495C120.569 93.5171 120.227 91.4136 120.223 91.3941C120.188 91.1812 120.33 90.98 120.541 90.9429C120.752 90.9077 120.955 91.0484 120.992 91.2612C121.008 91.353 121.369 93.5347 120.51 96.4351C119.721 99.1011 117.703 102.894 112.572 105.835C112.483 105.886 112.385 105.898 112.293 105.878Z" fill="url(#paint5_linear_6361_32466)"/>
</g>
<path id="Vector_7" d="M106.845 110.187C106.845 110.187 106.48 111.507 105.494 111.642C104.507 111.777 103.466 108.796 100.988 110.863C98.0796 113.29 98.1558 113.324 97.1343 113.39C96.355 113.439 99.0835 116.361 102.947 115.654C105.103 115.072 105.931 113.601 105.736 112.691C105.705 112.546 105.755 112.396 105.869 112.3C106.228 111.995 106.958 111.345 107.224 110.872C107.326 110.693 107.263 110.464 107.093 110.345L106.845 110.187Z" fill="url(#paint6_linear_6361_32466)"/>
<g id="Group_4">
<g id="Clip path group">
<mask id="mask0_6361_32466" style="mask-type:luminance" maskUnits="userSpaceOnUse" x="50" y="53" width="9" height="2">
<g id="SVGID_8_">
<path id="Vector_8" d="M50.5977 53.4414C52.8477 53.3633 55.0117 53.6777 57.0352 54.3242L58.7988 54.8887C56.7773 54.2402 54.6113 53.9277 52.3613 54.0059C51.834 53.8379 51.127 53.6113 50.5977 53.4414Z" fill="white"/>
</g>
</mask>
<g mask="url(#mask0_6361_32466)">
<g id="Group_5">
<path id="Vector_9" d="M52.3633 54.0078L50.5996 53.4434C52.8516 53.3652 55.0176 53.6797 57.041 54.3281L58.8047 54.8926C56.7793 54.2441 54.6133 53.9277 52.3633 54.0078Z" fill="#4D4D4D"/>
</g>
</g>
</g>
</g>
<g id="Group_6">
<path id="Vector_10" d="M80.6148 107.341L68.4136 95.1185C67.6929 94.3978 67.689 93.1771 68.4019 92.4056L71.5698 88.9818C71.5855 88.9642 71.6011 88.9505 71.6167 88.9349C71.6519 88.8997 71.687 88.8646 71.7241 88.8314C71.7437 88.8138 71.7632 88.8001 71.7847 88.7825C71.8179 88.7552 71.8511 88.7298 71.8843 88.7064C71.9077 88.6907 71.9312 88.6751 71.9565 88.6595C71.9858 88.64 72.0171 88.6224 72.0484 88.6048C72.0737 88.5911 72.0991 88.5775 72.1245 88.5658C72.1558 88.5501 72.187 88.5345 72.2183 88.5228C72.2417 88.513 72.2671 88.5033 72.2905 88.4935C72.3355 88.4759 72.3804 88.4622 72.4273 88.4486C72.4487 88.4427 72.4683 88.4349 72.4898 88.431C72.5523 88.4154 72.6167 88.4017 72.6812 88.3939C72.6851 88.3939 72.687 88.3919 72.6909 88.3919C72.7495 88.3841 72.8101 88.3782 72.8687 88.3763C73.0718 88.3685 73.2749 88.3958 73.4683 88.4583L71.7046 87.8939C71.5112 87.8314 71.3081 87.804 71.105 87.8118C71.0464 87.8138 70.9859 87.8197 70.9273 87.8275C70.9273 87.8275 70.9273 87.8275 70.9253 87.8275C70.9234 87.8275 70.9195 87.8294 70.9175 87.8294C70.853 87.8392 70.7905 87.8509 70.7261 87.8665C70.7046 87.8724 70.6851 87.8783 70.6636 87.8841C70.6167 87.8978 70.5718 87.9115 70.5269 87.929C70.5152 87.9329 70.5034 87.9368 70.4917 87.9408C70.48 87.9466 70.4663 87.9525 70.4546 87.9583C70.4234 87.972 70.3921 87.9876 70.3589 88.0033C70.3335 88.015 70.3081 88.0286 70.2827 88.0423C70.2515 88.0599 70.2222 88.0775 70.1909 88.097C70.1753 88.1068 70.1577 88.1146 70.1421 88.1263C70.1343 88.1322 70.1265 88.138 70.1187 88.1439C70.0835 88.1673 70.0503 88.1947 70.0171 88.22C69.9976 88.2357 69.9761 88.2513 69.9585 88.2669C69.9214 88.3001 69.8843 88.3353 69.8491 88.3704C69.8374 88.3822 69.8237 88.3919 69.812 88.4056C69.8081 88.4095 69.8042 88.4134 69.8003 88.4173L66.6323 91.8411C65.9194 92.6126 65.9234 93.8333 66.6441 94.554L78.8452 106.777C79.0503 106.982 79.2925 107.126 79.5484 107.208L81.312 107.773C81.062 107.691 80.8198 107.546 80.6148 107.341Z" fill="url(#paint7_linear_6361_32466)"/>
<g id="Group_7">
<path id="Vector_11" d="M72.8706 88.376C73.3433 88.3604 73.8159 88.5303 74.1753 88.8916L86.3765 101.114C87.0972 101.835 87.1011 103.056 86.3882 103.827L83.2202 107.251C82.8628 107.636 82.3921 107.839 81.9194 107.856C81.4468 107.872 80.9741 107.702 80.6148 107.343L68.4136 95.1201C67.6929 94.3994 67.689 93.1787 68.4019 92.4072L71.5698 88.9834C71.9273 88.5967 72.398 88.3936 72.8706 88.376Z" fill="url(#paint8_linear_6361_32466)"/>
</g>
<g id="Group_8">
<path id="Vector_12" d="M67.3906 92.6855L66.8008 92.4961L59.0645 84.748L59.6523 84.9355L67.3906 92.6855Z" fill="url(#paint9_linear_6361_32466)"/>
</g>
<g id="Group_9">
<path id="Vector_13" d="M62.7007 81.2256C63.1734 81.21 63.646 81.3799 64.0073 81.7393L71.0308 88.749L67.3902 92.6846L60.3648 85.6768C59.6441 84.9561 59.6402 83.7334 60.353 82.9619L61.3999 81.8311C61.7573 81.4444 62.228 81.2432 62.7007 81.2256Z" fill="url(#paint10_linear_6361_32466)"/>
</g>
<g id="Group_10">
<g id="Clip path group_2">
<mask id="mask1_6361_32466" style="mask-type:luminance" maskUnits="userSpaceOnUse" x="39" y="88" width="10" height="2">
<g id="SVGID_13_">
<path id="Vector_14" d="M41.6504 88.9785L39.8867 88.4141C41.9102 89.0625 44.0762 89.377 46.3281 89.2988L48.0918 89.8633C45.8398 89.9434 43.6719 89.627 41.6504 88.9785Z" fill="white"/>
</g>
</mask>
<g mask="url(#mask1_6361_32466)">
<g id="Group_11">
<path id="Vector_15" d="M41.6504 88.9785L39.8867 88.4141C41.9102 89.0625 44.0762 89.377 46.3281 89.2988L48.0918 89.8633C45.8398 89.9434 43.6719 89.627 41.6504 88.9785Z" fill="#999999"/>
</g>
</g>
</g>
</g>
<g id="Group_12">
<g id="Clip path group_3">
<mask id="mask2_6361_32466" style="mask-type:luminance" maskUnits="userSpaceOnUse" x="46" y="48" width="22" height="42">
<g id="SVGID_14_">
<path id="Vector_16" d="M52.5937 48.6621L54.3574 49.2266C62.2168 51.7461 67.9062 59.3027 67.9434 68.4043C67.9922 79.8516 59.0859 89.4785 48.0898 89.8613L46.3262 89.2969C57.3223 88.9121 66.2266 79.2871 66.1797 67.8398C66.1426 58.7383 60.4531 51.1816 52.5937 48.6621Z" fill="white"/>
</g>
</mask>
<g mask="url(#mask2_6361_32466)">
<g id="Group_13">
<path id="Vector_17" d="M48.0898 89.8633L46.3262 89.2988C46.9766 89.2754 47.6191 89.2207 48.252 89.1348L50.0156 89.6992C49.3828 89.7871 48.7402 89.8418 48.0898 89.8633Z" fill="#999999"/>
<path id="Vector_18" d="M50.0156 89.7012L48.252 89.1367C49.8711 88.918 51.4336 88.498 52.9141 87.9043L54.6777 88.4688C53.1973 89.0625 51.6348 89.4824 50.0156 89.7012Z" fill="#949494"/>
<path id="Vector_19" d="M54.6797 88.4668L52.916 87.9023C54.248 87.3672 55.5137 86.6934 56.6973 85.8945L58.4609 86.459C57.2754 87.2578 56.0098 87.9336 54.6797 88.4668Z" fill="#8F8F8F"/>
<path id="Vector_20" d="M58.4609 86.459L56.6973 85.8945C58.0039 85.0137 59.2109 83.9824 60.2949 82.8281L62.0586 83.3926C60.9727 84.5488 59.7676 85.5781 58.4609 86.459Z" fill="#8A8A8A"/>
<path id="Vector_21" d="M62.0566 83.3926L60.293 82.8281C63.9473 78.9316 66.2031 73.6191 66.1797 67.8418C66.1406 58.7383 60.4512 51.1816 52.5938 48.6641L54.3574 49.2285C62.2168 51.748 67.9062 59.3047 67.9434 68.4062C67.9687 74.1836 65.7109 79.4981 62.0566 83.3926Z" fill="#858585"/>
</g>
</g>
</g>
</g>
<g id="Group_14">
<g id="Clip path group_4">
<mask id="mask3_6361_32466" style="mask-type:luminance" maskUnits="userSpaceOnUse" x="33" y="84" width="9" height="5">
<g id="SVGID_15_">
<path id="Vector_22" d="M39.8906 88.416C37.5898 87.6797 35.4766 86.5117 33.6348 84.998C33.9668 85.1055 34.3008 85.2109 34.6328 85.3184C34.7461 85.3555 34.8613 85.3906 34.9746 85.4277C35.0078 85.4375 35.0527 85.4531 35.0859 85.4629C35.1504 85.4824 35.2344 85.5098 35.2988 85.5312C35.3301 85.541 35.3672 85.5645 35.4004 85.5645C37.2422 87.0762 39.3555 88.2441 41.6562 88.9824C41.125 88.8106 40.418 88.584 39.8906 88.416Z" fill="white"/>
</g>
</mask>
<g mask="url(#mask3_6361_32466)">
<g id="Group_15">
<path id="Vector_23" d="M41.6503 88.9785L39.8867 88.4141C32.0273 85.8945 26.3378 78.3379 26.3007 69.2344C26.2773 63.457 28.5331 58.1445 32.1874 54.25L33.9511 54.8145C30.2968 58.709 28.041 64.0234 28.0644 69.7988C28.1015 78.9043 33.791 86.4609 41.6503 88.9785Z" fill="#434343"/>
</g>
</g>
</g>
</g>
<g id="Group_16">
<g id="Clip path group_5">
<mask id="mask4_6361_32466" style="mask-type:luminance" maskUnits="userSpaceOnUse" x="26" y="47" width="22" height="39">
<g id="SVGID_16_">
<path id="Vector_24" d="M26.299 69.2344C26.2502 57.7891 35.1564 48.1621 46.1525 47.7793L47.9162 48.3438C36.9201 48.7285 28.0158 58.3535 28.0627 69.7988C28.09 76.2402 30.9455 81.9082 35.3967 85.5625C35.3342 85.543 35.2522 85.5156 35.1916 85.4961C35.1252 85.4746 35.0393 85.4473 34.9729 85.4258C34.9045 85.4043 34.8147 85.375 34.7463 85.3535C34.6779 85.332 34.5842 85.3008 34.5158 85.2793C34.4475 85.2578 34.3537 85.2266 34.2854 85.2051C34.217 85.1836 34.1271 85.1543 34.0588 85.1328C33.9924 85.1113 33.9064 85.084 33.84 85.0625C33.7775 85.043 33.6955 85.0156 33.633 84.9961C29.1818 81.3418 26.3264 75.6758 26.299 69.2344Z" fill="white"/>
</g>
</mask>
<g mask="url(#mask4_6361_32466)">
<g id="Group_17">
<path id="Vector_25" d="M41.6506 88.9785L39.8869 88.4141C32.0275 85.8945 26.3381 78.3379 26.301 69.2344C26.2775 63.457 28.5334 58.1445 32.1877 54.25L33.9514 54.8145C30.2971 58.709 28.0412 64.0234 28.0646 69.7988C28.1017 78.9043 33.7912 86.4609 41.6506 88.9785Z" fill="#434343"/>
<path id="Vector_26" d="M33.9495 54.8145L32.1858 54.25C33.2698 53.0957 34.4768 52.0645 35.7834 51.1836L37.5471 51.748C36.2405 52.6289 35.0334 53.6582 33.9495 54.8145Z" fill="#454545"/>
<path id="Vector_27" d="M37.5471 51.748L35.7834 51.1836C36.967 50.3848 38.2346 49.709 39.5647 49.1758L41.3284 49.7402C39.9963 50.2734 38.7307 50.9492 37.5471 51.748Z" fill="#484848"/>
<path id="Vector_28" d="M41.3284 49.7402L39.5647 49.1758C41.0471 48.582 42.6077 48.1621 44.2268 47.9434L45.9905 48.5078C44.3713 48.7246 42.8088 49.1445 41.3284 49.7402Z" fill="#4A4A4A"/>
<path id="Vector_29" d="M45.9905 48.5059L44.2268 47.9414C44.8596 47.8555 45.5022 47.8008 46.1526 47.7773L47.9163 48.3418C47.2678 48.3652 46.6252 48.4199 45.9905 48.5059Z" fill="#4D4D4D"/>
</g>
</g>
</g>
</g>
<g id="Group_18" opacity="0.94">
<path id="Vector_30" d="M47.9162 48.3439C58.9123 47.9592 67.8947 56.9611 67.9435 68.4064C67.9924 79.8537 59.0861 89.4806 48.09 89.8635C37.0939 90.2463 28.1115 81.2463 28.0627 69.799C28.0158 58.3537 36.9201 48.7267 47.9162 48.3439Z" fill="url(#paint11_linear_6361_32466)"/>
</g>
<path id="Vector_31" d="M53.201 46.759C50.9842 46.0481 48.6092 45.7044 46.1424 45.7903C45.9588 45.7962 45.7771 45.8059 45.5935 45.8176C45.533 45.8216 45.4705 45.8274 45.4099 45.8313C45.2888 45.8391 45.1678 45.8469 45.0486 45.8587C44.9764 45.8645 44.9041 45.8723 44.8318 45.8801C44.7224 45.8899 44.615 45.9016 44.5056 45.9133C44.4295 45.9212 44.3533 45.9329 44.2771 45.9407C44.1951 45.9505 44.1131 45.9602 44.031 45.9719C44.0135 45.9739 43.9959 45.9778 43.9783 45.9798C43.783 46.0071 43.5877 46.0364 43.3924 46.0676C43.3826 46.0696 43.3748 46.0696 43.365 46.0715C43.1619 46.1048 42.9607 46.1438 42.7576 46.1829C42.6951 46.1946 42.6326 46.2083 42.5681 46.2219C42.4295 46.2512 42.2908 46.2805 42.1541 46.3118C42.0799 46.3294 42.0076 46.3469 41.9334 46.3645C41.8045 46.3958 41.6736 46.427 41.5467 46.4602C41.4744 46.4797 41.4021 46.4973 41.3318 46.5169C41.1951 46.554 41.0564 46.593 40.9197 46.6321C40.8592 46.6497 40.8006 46.6653 40.74 46.6848C40.5447 46.7434 40.3514 46.804 40.1599 46.8684C40.1404 46.8743 40.1209 46.8821 40.1013 46.8899C39.9295 46.9485 39.7576 47.0071 39.5857 47.0696C39.5232 47.093 39.4607 47.1165 39.3963 47.1399C39.2674 47.1887 39.1404 47.2376 39.0135 47.2864C38.9822 47.2981 38.951 47.3098 38.9178 47.3235C38.8748 47.3411 38.8338 47.3587 38.7908 47.3762C38.6912 47.4172 38.5935 47.4583 38.4959 47.4993C38.4197 47.5325 38.3416 47.5657 38.2654 47.5989C38.1678 47.6419 38.0701 47.6848 37.9744 47.7297C37.8982 47.7649 37.824 47.7981 37.7498 47.8333C37.6521 47.8801 37.5545 47.927 37.4568 47.9739C37.3846 48.009 37.3123 48.0442 37.24 48.0813C37.1404 48.1321 37.0428 48.1829 36.9431 48.2337C36.8748 48.2688 36.8045 48.304 36.7361 48.3411C36.6326 48.3977 36.5291 48.4544 36.4256 48.511C36.3631 48.5462 36.3025 48.5794 36.24 48.6126C36.1189 48.6809 35.9998 48.7512 35.8787 48.8235C35.8357 48.8489 35.7928 48.8723 35.7517 48.8977C35.5896 48.9954 35.4314 49.093 35.2713 49.1946C35.2322 49.22 35.1951 49.2454 35.156 49.2688C35.0369 49.3469 34.9158 49.4231 34.7986 49.5032C34.7889 49.509 34.781 49.5149 34.7713 49.5208C34.7342 49.5462 34.699 49.5715 34.6619 49.5969C34.5408 49.679 34.4197 49.763 34.3006 49.8469C34.242 49.888 34.1834 49.9309 34.1248 49.9739C34.0193 50.0501 33.9139 50.1282 33.8103 50.2063C33.7498 50.2512 33.6912 50.2962 33.6306 50.343C33.5271 50.4231 33.4236 50.5051 33.3201 50.5872C33.2654 50.6321 33.2088 50.6751 33.1541 50.72C33.0349 50.8176 32.9158 50.9153 32.7967 51.0169C32.7615 51.0462 32.7263 51.0755 32.6912 51.1047C32.5388 51.2356 32.3885 51.3665 32.24 51.5012C32.201 51.5364 32.1639 51.5715 32.1248 51.6067C32.0154 51.7063 31.906 51.8079 31.7986 51.9094C31.7459 51.9583 31.6951 52.009 31.6424 52.0598C31.5486 52.1497 31.4549 52.2415 31.3631 52.3333C31.3084 52.386 31.2556 52.4407 31.2029 52.4954C31.1111 52.5891 31.0193 52.6829 30.9295 52.7786C30.8963 52.8137 30.8631 52.8469 30.8299 52.8821C30.8123 52.9016 30.7947 52.9212 30.7752 52.9407C30.7127 53.009 30.6502 53.0755 30.5877 53.1438C30.5271 53.2102 30.4666 53.2766 30.406 53.343C30.3455 53.4114 30.2849 53.4817 30.2244 53.552C30.1658 53.6204 30.1072 53.6868 30.0486 53.7571C29.9881 53.8274 29.9295 53.8997 29.8709 53.97C29.8142 54.0403 29.7556 54.1087 29.699 54.179C29.6404 54.2512 29.5838 54.3235 29.5252 54.3958C29.4685 54.4661 29.4138 54.5364 29.3572 54.6087C29.3006 54.6829 29.2439 54.7571 29.1892 54.8313C29.1346 54.9036 29.0799 54.9758 29.0271 55.0481C28.9724 55.1223 28.9178 55.1985 28.8631 55.2747C28.8103 55.3489 28.7576 55.4212 28.7049 55.4954C28.6521 55.5715 28.5994 55.6477 28.5467 55.7258C28.4959 55.8001 28.4451 55.8743 28.3943 55.9505C28.3435 56.0286 28.2928 56.1067 28.242 56.1848C28.1931 56.261 28.1424 56.3352 28.0955 56.4133C28.0447 56.4915 27.9959 56.5715 27.9471 56.6516C27.9002 56.7278 27.8514 56.8059 27.8045 56.8821C27.7556 56.9622 27.7088 57.0423 27.6619 57.1243C27.617 57.2024 27.5701 57.2805 27.5252 57.3587C27.4783 57.4407 27.4334 57.5227 27.3865 57.6047C27.3435 57.6829 27.2986 57.763 27.2556 57.8411C27.2107 57.9251 27.1678 58.0071 27.1228 58.0911C27.0799 58.1712 27.0389 58.2512 26.9978 58.3313C26.9549 58.4153 26.9139 58.5012 26.8709 58.5852C26.8299 58.6653 26.7908 58.7473 26.7517 58.8274C26.7107 58.9133 26.6697 58.9993 26.6287 59.0872C26.5896 59.1692 26.5525 59.2493 26.5154 59.3313C26.4764 59.4192 26.4373 59.5071 26.3982 59.595C26.3611 59.677 26.326 59.759 26.2908 59.8411C26.2537 59.929 26.2166 60.0188 26.1795 60.1067C26.1443 60.1907 26.1111 60.2727 26.076 60.3567C26.0408 60.4465 26.0056 60.5364 25.9705 60.6262C25.9373 60.7102 25.906 60.7942 25.8728 60.8782C25.8396 60.968 25.8064 61.0598 25.7752 61.1516C25.7439 61.2376 25.7127 61.3216 25.6834 61.4075C25.6521 61.4993 25.6209 61.5911 25.5916 61.6829C25.5623 61.7688 25.533 61.8548 25.5057 61.9407C25.4764 62.0344 25.449 62.1262 25.4197 62.22C25.3924 62.3059 25.367 62.3919 25.3416 62.4798C25.3142 62.5735 25.2889 62.6673 25.2615 62.761C25.2361 62.8489 25.2107 62.9368 25.1873 63.0247C25.1619 63.1184 25.1385 63.2141 25.115 63.3079C25.0916 63.3958 25.0681 63.4856 25.0467 63.5735C25.0232 63.6692 25.0017 63.7669 24.9803 63.8626C24.9607 63.9505 24.9392 64.0383 24.9197 64.1262C24.8982 64.2239 24.8787 64.3216 24.8592 64.4212C24.8416 64.5091 24.8221 64.5969 24.8045 64.6868C24.7849 64.7864 24.7674 64.886 24.7498 64.9876C24.7342 65.0754 24.7166 65.1633 24.7029 65.2512C24.6853 65.3528 24.6717 65.4563 24.6541 65.5598C24.6404 65.6458 24.6267 65.7317 24.6131 65.8196C24.5974 65.9251 24.5857 66.0286 24.5721 66.134C24.5603 66.22 24.5486 66.3059 24.5389 66.3919C24.5271 66.4993 24.5154 66.6047 24.5037 66.7122C24.4939 66.7981 24.4842 66.8821 24.4764 66.968C24.4666 67.0774 24.4588 67.1887 24.449 67.2981C24.4432 67.3821 24.4353 67.4641 24.4295 67.5481C24.4217 67.6614 24.4158 67.7766 24.4099 67.8919C24.406 67.9719 24.4002 68.052 24.3963 68.1321C24.3904 68.261 24.3865 68.388 24.3846 68.5169C24.3826 68.5833 24.3787 68.6497 24.3787 68.718C24.3748 68.9133 24.3728 69.1106 24.3748 69.3079C24.4158 79.2825 30.6521 87.5637 39.2654 90.3255L41.0291 90.8899C32.4178 88.1301 26.1814 79.8489 26.1385 69.8723C26.1385 69.6751 26.1385 69.4798 26.1424 69.2825C26.1443 69.2161 26.1463 69.1477 26.1482 69.0813C26.1521 68.9524 26.156 68.8235 26.1599 68.6966C26.1638 68.6165 26.1697 68.5364 26.1736 68.4563C26.1795 68.3411 26.1853 68.2278 26.1931 68.1126C26.199 68.0305 26.2068 67.9505 26.2127 67.8704C26.2224 67.759 26.2303 67.6458 26.24 67.5344C26.2478 67.4524 26.2576 67.3704 26.2654 67.2864C26.2771 67.177 26.2869 67.0676 26.3006 66.9583C26.3103 66.8723 26.3221 66.7864 26.3338 66.7005C26.3474 66.595 26.3592 66.4895 26.3748 66.386C26.3865 66.3001 26.4021 66.2122 26.4158 66.1262C26.4314 66.0227 26.4471 65.9212 26.4646 65.8176C26.4803 65.7297 26.4959 65.6419 26.5115 65.554C26.5291 65.4544 26.5467 65.3528 26.5662 65.2532C26.5838 65.1653 26.6014 65.0774 26.6209 64.9876C26.6404 64.8899 26.6599 64.7903 26.6814 64.6926C26.701 64.6048 26.7205 64.5169 26.742 64.4309C26.7635 64.3333 26.7849 64.2356 26.8103 64.1399C26.8318 64.052 26.8553 63.9661 26.8767 63.8782C26.9021 63.7825 26.9256 63.6868 26.951 63.5911C26.9744 63.5032 26.9998 63.4172 27.0232 63.3313C27.0506 63.2356 27.076 63.1419 27.1033 63.0462C27.1287 62.9602 27.156 62.8743 27.1814 62.7864C27.2107 62.6926 27.2381 62.5989 27.2674 62.5071C27.2947 62.4212 27.324 62.3352 27.3533 62.2493C27.3846 62.1575 27.4139 62.0657 27.4451 61.9739C27.4744 61.888 27.5057 61.804 27.5369 61.718C27.5701 61.6262 27.6014 61.5364 27.6346 61.4465C27.6658 61.3626 27.699 61.2786 27.7322 61.1926C27.7674 61.1028 27.8006 61.013 27.8357 60.9231C27.8689 60.8391 27.9041 60.7571 27.9392 60.6731C27.9764 60.5852 28.0115 60.4954 28.0486 60.4075C28.0838 60.3235 28.1209 60.2415 28.158 60.1594C28.1971 60.0715 28.2342 59.9837 28.2732 59.8977C28.3103 59.8157 28.3494 59.7337 28.3865 59.6536C28.4275 59.5676 28.4666 59.4817 28.5076 59.3958C28.5467 59.3137 28.5877 59.2337 28.6287 59.1516C28.6717 59.0676 28.7127 58.9817 28.7556 58.8977C28.7967 58.8176 28.8396 58.7376 28.8807 58.6594C28.9256 58.5755 28.9685 58.4915 29.0135 58.4075C29.0564 58.3294 29.0994 58.2512 29.1443 58.1731C29.1912 58.0911 29.2361 58.0071 29.283 57.9251C29.3279 57.8469 29.3728 57.7708 29.4178 57.6926C29.4646 57.6106 29.5135 57.5286 29.5623 57.4485C29.6092 57.3723 29.656 57.2962 29.7029 57.22C29.7517 57.1399 29.8006 57.0598 29.8514 56.9798C29.9002 56.9036 29.949 56.8294 29.9978 56.7532C30.0486 56.6751 30.0994 56.595 30.1521 56.5169C30.2029 56.4426 30.2537 56.3684 30.3045 56.2942C30.3572 56.218 30.4099 56.1399 30.4627 56.0637C30.5135 55.9895 30.5662 55.9173 30.6189 55.845C30.6736 55.7688 30.7283 55.6926 30.783 55.6184C30.8357 55.5462 30.8904 55.4739 30.9451 55.4036C31.0017 55.3294 31.0564 55.2551 31.115 55.1809C31.1697 55.1106 31.2263 55.0403 31.281 54.97C31.3396 54.8977 31.3963 54.8235 31.4549 54.7512C31.5115 54.6809 31.5681 54.6126 31.6248 54.5442C31.6834 54.4719 31.7439 54.4016 31.8045 54.3294C31.8631 54.261 31.9217 54.1946 31.9803 54.1262C32.0408 54.0559 32.1014 53.9856 32.1639 53.9153C32.2224 53.8489 32.283 53.7825 32.3435 53.7161C32.406 53.6477 32.4685 53.5794 32.531 53.511C32.5818 53.4563 32.6326 53.4036 32.6853 53.3489C32.7752 53.2532 32.867 53.1594 32.9588 53.0657C33.0115 53.011 33.0662 52.9583 33.1189 52.9036C33.2107 52.8118 33.3045 52.72 33.3982 52.6282C33.451 52.5774 33.5017 52.5286 33.5545 52.4778C33.6639 52.3743 33.7732 52.2727 33.8826 52.1731C33.9217 52.138 33.9588 52.1028 33.9959 52.0676C34.1443 51.9329 34.2947 51.802 34.4471 51.6712C34.4822 51.6419 34.5174 51.6126 34.5506 51.5833C34.6697 51.4837 34.7889 51.3841 34.9099 51.2864C34.9646 51.2415 35.0193 51.1985 35.074 51.1555C35.1775 51.0735 35.281 50.9915 35.3865 50.9114C35.4471 50.8665 35.5056 50.8196 35.5662 50.7747C35.6697 50.6965 35.7752 50.6184 35.8807 50.5422C35.9392 50.4993 35.9978 50.4563 36.0564 50.4153C36.1756 50.3313 36.2967 50.2473 36.4178 50.1653C36.4627 50.134 36.5076 50.1028 36.5545 50.0716C36.6717 49.9934 36.7908 49.9153 36.9099 49.8391C36.949 49.8137 36.9881 49.7864 37.0291 49.761C37.1873 49.6594 37.3474 49.5618 37.5096 49.4641C37.5506 49.4387 37.5935 49.4153 37.6346 49.3899C37.7556 49.3196 37.8748 49.2473 37.9959 49.179C38.0564 49.1438 38.1189 49.1106 38.1814 49.0755C38.2849 49.0188 38.3885 48.9602 38.492 48.9055C38.5603 48.8684 38.6287 48.8333 38.6971 48.7981C38.7947 48.7473 38.8943 48.6946 38.9939 48.6458C39.0662 48.6087 39.1385 48.5735 39.2127 48.5383C39.3103 48.4915 39.406 48.4446 39.5056 48.3977C39.5799 48.3626 39.656 48.3274 39.7303 48.2942C39.8279 48.2493 39.9256 48.2063 40.0232 48.1633C40.0994 48.1301 40.1756 48.0969 40.2517 48.0637C40.3494 48.0227 40.449 47.9817 40.5467 47.9407C40.6209 47.9114 40.6951 47.8801 40.7674 47.8508C40.8943 47.8001 41.0232 47.7512 41.1502 47.7044C41.2127 47.6809 41.2752 47.6575 41.3377 47.634C41.5076 47.5715 41.6795 47.511 41.8533 47.4544C41.8728 47.4485 41.8924 47.4407 41.9119 47.4329C42.1033 47.3684 42.2986 47.3079 42.492 47.2493C42.5506 47.2317 42.6111 47.2141 42.6717 47.1966C42.8084 47.1575 42.9451 47.1184 43.0838 47.0813C43.156 47.0618 43.2263 47.0442 43.2986 47.0247C43.4275 46.9915 43.5564 46.9583 43.6873 46.929C43.7596 46.9114 43.8338 46.8938 43.908 46.8782C44.0447 46.8469 44.1834 46.8176 44.3221 46.7883C44.3865 46.7747 44.449 46.761 44.5135 46.7493C44.7146 46.7102 44.9158 46.6712 45.1189 46.638C45.1287 46.636 45.1385 46.634 45.1502 46.634C45.3435 46.6028 45.5369 46.5735 45.7322 46.5462C45.8318 46.5325 45.9334 46.5208 46.033 46.5071C46.1092 46.4973 46.1853 46.4876 46.2596 46.4798C46.367 46.468 46.4764 46.4583 46.5857 46.4465C46.658 46.4387 46.7303 46.4309 46.8025 46.4251C46.9236 46.4153 47.0467 46.4055 47.1678 46.3977C47.2283 46.3938 47.2869 46.388 47.3474 46.384C47.5291 46.3723 47.7127 46.3645 47.8963 46.3567C50.3631 46.2708 52.7361 46.6145 54.9549 47.3255L53.201 46.759Z" fill="url(#paint12_linear_6361_32466)"/>
<g id="Group_19">
<path id="Vector_32" d="M47.9084 46.3547C59.9572 45.9348 69.8029 55.7961 69.8557 68.3391C69.9084 80.8821 60.1467 91.4309 48.0998 91.8508C36.0529 92.2707 26.2053 82.4075 26.1526 69.8645C26.0998 57.3215 35.8596 46.7746 47.9084 46.3547ZM48.0901 89.8625C59.0861 89.4778 67.9904 79.8528 67.9436 68.4055C67.8947 56.9602 58.9123 47.9582 47.9162 48.343C36.9201 48.7278 28.0158 58.3528 28.0627 69.7981C28.1115 81.2453 37.094 90.2473 48.0901 89.8625Z" fill="url(#paint13_linear_6361_32466)"/>
</g>
</g>
</g>
<defs>
<linearGradient id="paint0_linear_6361_32466" x1="61.5137" y1="109.897" x2="61.5137" y2="121.614" gradientUnits="userSpaceOnUse">
<stop stop-color="#E8E8E8"/>
<stop offset="0.6" stop-color="#F8F8F8" stop-opacity="0.5"/>
<stop offset="1" stop-color="white" stop-opacity="0"/>
</linearGradient>
<linearGradient id="paint1_linear_6361_32466" x1="32.0737" y1="2.34502" x2="32.0737" y2="34.1584" gradientUnits="userSpaceOnUse">
<stop stop-color="#E8E8E8"/>
<stop offset="0.6" stop-color="#F9F9F9" stop-opacity="0.1"/>
<stop offset="1" stop-color="white" stop-opacity="0"/>
</linearGradient>
<linearGradient id="paint2_linear_6361_32466" x1="78.6244" y1="0.00125" x2="78.6244" y2="41.4815" gradientUnits="userSpaceOnUse">
<stop stop-color="#E8E8E8"/>
<stop offset="0.8" stop-color="#F6F6F6" stop-opacity="0.1"/>
<stop offset="1" stop-color="white" stop-opacity="0"/>
</linearGradient>
<linearGradient id="paint3_linear_6361_32466" x1="7.54661" y1="45.2203" x2="40.8831" y2="45.2203" gradientUnits="userSpaceOnUse">
<stop stop-color="#EBEBEB"/>
<stop offset="1" stop-color="#C5C5C7"/>
</linearGradient>
<linearGradient id="paint4_linear_6361_32466" x1="10.9371" y1="74.1787" x2="-1.3339" y2="81.1734" gradientUnits="userSpaceOnUse">
<stop stop-color="#EBEBEB"/>
<stop offset="1" stop-color="#C5C5C7"/>
</linearGradient>
<linearGradient id="paint5_linear_6361_32466" x1="118.748" y1="100.664" x2="114.73" y2="96.6461" gradientUnits="userSpaceOnUse">
<stop stop-color="#EBEBEB"/>
<stop offset="1" stop-color="#C5C5C7"/>
</linearGradient>
<linearGradient id="paint6_linear_6361_32466" x1="102.138" y1="110.131" x2="102.138" y2="115.765" gradientUnits="userSpaceOnUse">
<stop stop-color="#EBEBEB"/>
<stop offset="1" stop-color="#C5C5C7"/>
</linearGradient>
<linearGradient id="paint7_linear_6361_32466" x1="66.1076" y1="97.7918" x2="81.3193" y2="97.7918" gradientUnits="userSpaceOnUse">
<stop stop-color="#A5A5A5"/>
<stop offset="1" stop-color="#BFBFBF"/>
</linearGradient>
<linearGradient id="paint8_linear_6361_32466" x1="67.8714" y1="98.1161" x2="86.9201" y2="98.1161" gradientUnits="userSpaceOnUse">
<stop stop-color="#EBEBEB"/>
<stop offset="1" stop-color="#C5C5C7"/>
</linearGradient>
<linearGradient id="paint9_linear_6361_32466" x1="59.0649" y1="88.7164" x2="67.3897" y2="88.7164" gradientUnits="userSpaceOnUse">
<stop stop-color="#A5A5A5"/>
<stop offset="1" stop-color="#D1D1D1"/>
</linearGradient>
<linearGradient id="paint10_linear_6361_32466" x1="59.8205" y1="86.9544" x2="71.0306" y2="86.9544" gradientUnits="userSpaceOnUse">
<stop stop-color="#EBEBEB"/>
<stop offset="1" stop-color="#C5C5C7"/>
</linearGradient>
<linearGradient id="paint11_linear_6361_32466" x1="33.8006" y1="54.95" x2="62.2067" y2="83.2571" gradientUnits="userSpaceOnUse">
<stop stop-color="#FEE38D"/>
<stop offset="1" stop-color="#F25C19"/>
</linearGradient>
<linearGradient id="paint12_linear_6361_32466" x1="28.5452" y1="85.0222" x2="49.8021" y2="44.6079" gradientUnits="userSpaceOnUse">
<stop stop-color="#E36905"/>
<stop offset="1" stop-color="#FABB6A"/>
</linearGradient>
<linearGradient id="paint13_linear_6361_32466" x1="32.4404" y1="53.5933" x2="63.5669" y2="84.6113" gradientUnits="userSpaceOnUse">
<stop stop-color="#FEF7E2"/>
<stop offset="1" stop-color="#FFBD8A"/>
</linearGradient>
</defs>
</svg>
