<?xml version="1.0" encoding="UTF-8"?>
<svg width="22px" height="22px" viewBox="0 0 22 22" version="1.1" xmlns="http://www.w3.org/2000/svg" xmlns:xlink="http://www.w3.org/1999/xlink">
    <title>上垒</title>
    <g id="页面-1" stroke="none" stroke-width="1" fill="none" fill-rule="evenodd">
        <g id="玩法_全赛种" transform="translate(-403.000000, -5057.000000)" fill-rule="nonzero">
            <g id="上垒" transform="translate(403.000000, 5057.000000)">
                <rect id="矩形" fill="#000000" opacity="0" x="0" y="0" width="22" height="22"></rect>
                <g id="编组-7" transform="translate(0.000000, 3.000000)" fill="#5A6074">
                    <path d="M11.7071068,0.707106781 L15.2928932,4.29289322 C15.6834175,4.68341751 15.6834175,5.31658249 15.2928932,5.70710678 L11.7071068,9.29289322 C11.3165825,9.68341751 10.6834175,9.68341751 10.2928932,9.29289322 L6.70710678,5.70710678 C6.31658249,5.31658249 6.31658249,4.68341751 6.70710678,4.29289322 L10.2928932,0.707106781 C10.6834175,0.316582489 11.3165825,0.316582489 11.7071068,0.707106781 Z" id="路径"></path>
                    <path d="M17.7071068,6.70710678 L21.2928932,10.2928932 C21.6834175,10.6834175 21.6834175,11.3165825 21.2928932,11.7071068 L17.7071068,15.2928932 C17.3165825,15.6834175 16.6834175,15.6834175 16.2928932,15.2928932 L12.7071068,11.7071068 C12.3165825,11.3165825 12.3165825,10.6834175 12.7071068,10.2928932 L16.2928932,6.70710678 C16.6834175,6.31658249 17.3165825,6.31658249 17.7071068,6.70710678 Z" id="路径"></path>
                    <path d="M5.70710678,6.70710678 L9.29289322,10.2928932 C9.68341751,10.6834175 9.68341751,11.3165825 9.29289322,11.7071068 L5.70710678,15.2928932 C5.31658249,15.6834175 4.68341751,15.6834175 4.29289322,15.2928932 L0.707106781,11.7071068 C0.316582489,11.3165825 0.316582489,10.6834175 0.707106781,10.2928932 L4.29289322,6.70710678 C4.68341751,6.31658249 5.31658249,6.31658249 5.70710678,6.70710678 Z" id="路径"></path>
                </g>
            </g>
        </g>
    </g>
</svg>