<?xml version="1.0" encoding="UTF-8"?>
<svg width="20px" height="4px" viewBox="0 0 20 4" version="1.1" xmlns="http://www.w3.org/2000/svg" xmlns:xlink="http://www.w3.org/1999/xlink">
    <title>形状结合</title>
    <g id="页面-1" stroke="none" stroke-width="1" fill="none" fill-rule="evenodd">
        <g id="修正" transform="translate(-30.000000, -728.000000)" fill="#99A3B1">
            <path d="M32,728 C33.1045695,728 34,728.895431 34,730 C34,731.104569 33.1045695,732 32,732 C30.8954305,732 30,731.104569 30,730 C30,728.895431 30.8954305,728 32,728 Z M40,728 C41.1045695,728 42,728.895431 42,730 C42,731.104569 41.1045695,732 40,732 C38.8954305,732 38,731.104569 38,730 C38,728.895431 38.8954305,728 40,728 Z M48,728 C49.1045695,728 50,728.895431 50,730 C50,731.104569 49.1045695,732 48,732 C46.8954305,732 46,731.104569 46,730 C46,728.895431 46.8954305,728 48,728 Z" id="形状结合"></path>
        </g>
    </g>
</svg>