<?xml version="1.0" encoding="UTF-8"?>
<svg width="16px" height="15px" viewBox="0 0 16 15" version="1.1" xmlns="http://www.w3.org/2000/svg" xmlns:xlink="http://www.w3.org/1999/xlink">
    <!-- Generator: Sketch 61.1 (89650) - https://sketch.com -->
    <title>加时赛进球</title>
    <desc>Created with Sketch.</desc>
    <g id="页面-1" stroke="none" stroke-width="1" fill="none" fill-rule="evenodd">
        <path d="M12.9045714,6.23836168 C13.7024814,6.49435839 14.4046525,6.97434151 14.9472302,7.6143333 C16.4792243,9.47031664 16.3196452,12.1582821 14.5961447,13.7582545 C12.8646721,15.4322538 10.1447563,15.3944703 8.40953339,13.7612997 L8.24474879,13.5982744 L8.18092283,13.5342681 C7.60641791,12.8942763 7.1915064,12.1262861 7.06384022,11.2622936 C7.03192724,11.0062969 7,10.7503002 7,10.4943035 C7,10.0143204 7.06384022,9.53432296 7.22341937,9.08632156 C8.02132942,6.7183448 10.5427542,5.43836122 12.9045714,6.23836168 Z M6.9399726,1.90070182e-13 C7.84134247,1.90070182e-13 8.71969863,0.170876712 9.55126027,0.507835616 C10.4127397,0.856876712 11.1848493,1.37008219 11.8470685,2.03230137 C12.5092877,2.69452055 13.0224932,3.46739726 13.3715342,4.32810959 C13.6010368,4.89448572 13.7534943,5.4827476 13.8273921,6.08513906 C13.5816225,5.95733039 13.3258899,5.84994916 13.0606349,5.76484631 C11.6172821,5.27595035 10.120282,5.48617955 8.91776506,6.21214574 L7.32027397,6.37728767 C7.16780822,6.67358904 7.01515068,6.97008219 6.85980822,7.26465753 L6.51515411,7.91560959 L6.51515411,7.91560959 L6.16747945,8.56512329 L6.62325438,9.3562039 C6.57002346,9.5839382 6.53565194,9.81667247 6.51707403,10.0513302 L5.83263014,8.86583562 C5.80021918,8.86238356 5.76224658,8.85682192 5.71679452,8.85049315 C4.93893151,8.73734247 4.16643836,8.59293151 3.40736986,8.38983562 L3.35935274,8.37756164 L3.35935274,8.37756164 L3.31665753,8.3670137 L2.10326027,10.2694795 C2.16367123,10.4016164 2.24326027,10.5245479 2.31460274,10.6511233 C2.52474658,11.0243767 2.76067295,11.3796147 3.01841738,11.7195882 L3.28328767,12.0545753 L6.38131507,12.6067123 C6.42926027,12.5512877 6.47528767,12.4954795 6.51863014,12.4373699 L6.75811348,12.1138364 L6.75811348,12.1138364 C6.97352868,12.7473564 7.32884041,13.3228949 7.77366756,13.828138 C7.49906133,13.8625927 7.22063257,13.8791781 6.9399726,13.8791781 C6.03860274,13.8791781 5.16005479,13.7086849 4.32849315,13.3711507 C3.46739726,13.0221096 2.69509589,12.5092877 2.03268493,11.8466849 C1.37027397,11.1844658 0.857452055,10.4117808 0.508219178,9.55087671 C0.171068493,8.71969863 2.51354493e-13,7.8409589 2.51354493e-13,6.93978082 C2.51354493e-13,6.03841096 0.171068493,5.15967123 0.508219178,4.32810959 C0.857452055,3.46739726 1.37008219,2.69471233 2.03268493,2.03230137 C2.69509589,1.37008219 3.46758904,0.856876712 4.32849315,0.507835616 C5.16005479,0.170876712 6.03860274,1.90070182e-13 6.9399726,1.90070182e-13 Z M3.70347945,12.5767945 C4.78646575,13.1981644 6.01156164,13.4823836 7.22457534,13.4296438 C6.9390137,13.3349041 6.66112329,13.2184932 6.39090411,13.0806027 L6.35933219,13.0632945 L6.35933219,13.0632945 L6.32876712,13.0445479 L3.70347945,12.5767945 Z M10.1479034,7.4 C10.0136226,7.4 9.91815737,7.4335702 9.86150766,7.5007106 C9.80485795,7.56785099 9.7765331,7.66226718 9.7765331,7.78395915 C9.7765331,7.85109954 9.77548403,7.9161418 9.77338589,7.97908592 L9.77102549,8.07350211 L9.77023868,8.16791829 L9.210036,8.16791829 C9.06316638,8.16791829 8.96350485,8.1909978 8.91105142,8.23715683 C8.85859798,8.28331585 8.83237126,8.38192831 8.83237126,8.5329942 C8.83237126,8.60852715 8.83761661,8.67147127 8.84810729,8.72182657 C8.85859798,8.77218186 8.87748122,8.81204648 8.904757,8.8414204 C8.93203279,8.87079432 8.96979926,8.89072663 9.01805642,8.90121732 C9.05022786,8.90821111 9.0893931,8.91287363 9.13555212,8.9152049 L9.210036,8.91695335 L9.74506104,8.91695335 C9.71988339,9.40372122 9.68526412,9.84013381 9.64120323,10.2261911 C9.59714235,10.6122484 9.54154171,10.9563429 9.47440131,11.2584747 C9.40726091,11.5606065 9.32962983,11.8270699 9.24150806,12.057865 C9.15338629,12.2886602 9.05687197,12.4921795 8.9519651,12.668423 C8.84286195,12.8404703 8.79250665,12.973702 8.8008992,13.0681182 C8.80929175,13.1625344 8.87433401,13.247509 8.99602598,13.3230419 C9.11771795,13.3985749 9.22367389,13.4185072 9.3138938,13.3828388 C9.40411371,13.3471705 9.49957896,13.2349201 9.60028955,13.0460878 C9.7261778,12.8110964 9.83737908,12.5540745 9.9338934,12.2750223 C10.0304077,11.99597 10.1143332,11.6885929 10.1856699,11.3528909 C10.2570066,11.0171889 10.3157544,10.6489658 10.3619134,10.2482215 C10.3965327,9.94766335 10.425251,9.62291102 10.4480682,9.27396454 L10.4689184,8.91695335 L10.8717608,8.91695335 C10.95149,8.91695335 10.9997472,8.93268938 11.0165323,8.96416144 C11.0333174,8.9956335 11.0459062,9.06801924 11.0542988,9.18131866 C11.0584951,9.36175848 11.0616423,9.58416104 11.0637404,9.84852636 C11.0658385,10.1128917 11.0658385,10.3814533 11.0637404,10.6542111 C11.0616423,10.926969 11.0563969,11.1839908 11.0480044,11.4252766 C11.0396118,11.6665624 11.0291211,11.8543457 11.0165323,11.9886265 C10.9997472,12.1522812 10.9756186,12.2813167 10.9441466,12.3757329 C10.9126745,12.470149 10.8717608,12.5383385 10.8214055,12.5803013 C10.7710502,12.622264 10.7112533,12.6421963 10.6420148,12.6400982 C10.5727762,12.638 10.4940961,12.6201659 10.4059743,12.5865957 C10.2213382,12.5194553 10.0912537,12.5037192 10.0157208,12.5393876 C9.94018781,12.5750559 9.87934183,12.6579323 9.83318281,12.7880169 C9.78282751,12.9139051 9.77758217,13.0146157 9.81744678,13.0901487 C9.85731139,13.1656816 9.96536546,13.2370183 10.141609,13.3041587 C10.2213382,13.3377289 10.2916258,13.3608084 10.3524718,13.3733972 C10.4133178,13.385986 10.5003905,13.3922804 10.6136899,13.3922804 C10.7731484,13.400673 10.9179198,13.3838879 11.0480044,13.3419251 C11.1780889,13.2999624 11.2903392,13.2265276 11.3847554,13.1216207 C11.4791716,13.0167138 11.5557536,12.8771877 11.6145015,12.7030423 C11.6732493,12.5288969 11.7131139,12.3138378 11.7340953,12.057865 C11.7466841,11.9109954 11.7571748,11.7158686 11.7655674,11.4724847 C11.7739599,11.2291008 11.7792053,10.9710299 11.7813034,10.698272 C11.7834015,10.4255141 11.7844506,10.1548544 11.7844506,9.88629283 C11.7844506,9.61773124 11.7823525,9.38273985 11.7781562,9.18131866 C11.7697636,8.95052354 11.7571748,8.76693652 11.7403897,8.63055759 C11.7236046,8.49417866 11.68374,8.39241899 11.6207959,8.3252786 C11.5578518,8.2581382 11.4644846,8.21512638 11.3406945,8.19624315 C11.247852,8.18208072 11.1284548,8.1732292 10.9825031,8.16968859 L10.8276999,8.16791829 L10.4940961,8.16791829 C10.4982924,8.10497417 10.5003905,8.04203005 10.5003905,7.97908592 C10.5003905,7.9161418 10.5024886,7.85109954 10.5066849,7.78395915 C10.5150775,7.52798638 10.3954836,7.4 10.1479034,7.4 Z M13.7797793,7.88466974 L12.904856,7.88466974 C12.7663789,7.88466974 12.6541286,7.89411136 12.5681049,7.9129946 C12.4820813,7.93187783 12.4138918,7.96754617 12.3635365,8.0199996 C12.3131812,8.07245304 12.279611,8.14588785 12.2628259,8.24030403 C12.2516359,8.30324815 12.2441758,8.3778486 12.2404458,8.46410536 L12.2376483,8.60223273 L12.2376483,12.5740068 C12.2376483,12.7166802 12.2460408,12.8341759 12.2628259,12.9264939 C12.279611,13.018812 12.3121322,13.0922468 12.3603893,13.1467984 C12.4086465,13.2013499 12.4757869,13.2401655 12.5618105,13.263245 C12.6191596,13.2786313 12.6890975,13.2888889 12.7716242,13.2940177 L12.904856,13.2978643 L13.7797793,13.2978643 C13.9182563,13.2978643 14.0315558,13.2873736 14.1196775,13.2663922 C14.2077993,13.2454108 14.2770378,13.2076443 14.3273931,13.1530928 C14.3777484,13.0985412 14.4113186,13.0251064 14.4281037,12.9327883 C14.4392938,12.871243 14.4467538,12.797575 14.4504839,12.7117845 L14.4532814,12.5740068 L14.4532814,8.60223273 C14.4532814,8.46375567 14.4448888,8.34835811 14.4281037,8.25604006 C14.4113186,8.16372202 14.3787975,8.09028721 14.3305403,8.03573563 C14.2822832,7.98118406 14.2140937,7.94236852 14.1259719,7.91928901 C14.0672241,7.90390267 13.9963537,7.89364511 13.9133607,7.88851633 L13.7797793,7.88466974 Z M13.6350078,8.62111597 C13.6769705,8.62111597 13.7031973,8.62741038 13.7136879,8.63999921 C13.7206817,8.64839176 13.7253443,8.66237934 13.7276755,8.68196196 L13.729424,8.71553215 L13.729424,12.4481186 C13.729424,12.4942776 13.7231296,12.5236516 13.7105407,12.5362404 C13.6979519,12.5488292 13.668578,12.5551236 13.622419,12.5551236 L13.0748051,12.5551236 C13.0286461,12.5551236 12.9992722,12.5488292 12.9866833,12.5362404 C12.9782908,12.5278478 12.9726957,12.5129277 12.9698982,12.4914801 L12.9678001,12.454413 L12.9678001,8.72182657 C12.9678001,8.68406009 12.9740945,8.65783338 12.9866833,8.64314641 C12.9950759,8.63335511 13.0109285,8.62682757 13.0342411,8.6235638 L13.0748051,8.62111597 L13.6350078,8.62111597 Z M1.20745205,4.5229589 C1.15221918,4.59353425 1.10446575,4.66928767 1.05287671,4.7419726 C0.885835616,4.97747945 0.738164384,5.22334247 0.608328767,5.47936986 C0.332356164,6.68394521 0.402931507,7.9529589 0.819479452,9.12512329 C1.09219178,9.40972603 1.40019178,9.65136986 1.73446575,9.86117808 L1.77322945,9.88423973 L1.77322945,9.88423973 L1.81271233,9.90528767 L3.02726027,8.00090411 C3.02649315,7.99745205 3.02591781,7.99534247 3.02534247,7.99150685 C2.88342466,7.30477169 2.80037291,6.60964612 2.77896182,5.90957065 L2.77353425,5.4889589 L2.77353425,5.44964384 L1.20745205,4.5229589 Z M8.1389863,1.45369863 C7.68139726,1.48016438 7.22438356,1.53271233 6.76794521,1.57912329 L6.68003767,1.59300342 L6.68003767,1.59300342 L6.59284932,1.61364384 L5.75323288,4.14150685 L6.18684932,4.57454795 C6.18358904,4.57819178 6.18032877,4.58126027 6.17706849,4.58528767 C6.53493151,4.98726027 6.89336986,5.38808219 7.24950685,5.79139726 L7.30711301,5.85983904 L7.30711301,5.85983904 L7.36227397,5.93043836 L10.3782192,5.62071233 C10.5345205,5.236 10.6917808,4.85205479 10.8386849,4.46408219 L10.9553596,4.12911301 L10.9553596,4.12911301 L11.0632603,3.79054795 L8.98589041,1.44909589 C8.70090411,1.4289589 8.41917808,1.4379726 8.1389863,1.45369863 Z M4.8729589,0.778438356 C3.948,1.0870137 3.07923288,1.60884932 2.34413699,2.34375342 C2.26550685,2.42238356 2.18917808,2.50293151 2.11553425,2.58424658 C2.0029589,2.78158904 1.89978082,2.98353425 1.80926027,3.19257534 C1.69169863,3.46394521 1.58947945,3.74241096 1.48553425,4.01934247 L1.46669178,4.08819178 L1.46669178,4.08819178 L1.45849315,4.16049315 L3.00635616,5.07624658 C3.60432877,4.68328767 4.23912329,4.35553425 4.89021918,4.05961644 L5.13035274,3.95866781 L5.13035274,3.95866781 L5.37235616,3.86189041 L5.38405479,3.85786301 L6.16843836,1.49569863 C5.76761644,1.21358904 5.34243836,0.975780822 4.87506849,0.81430137 C4.87046575,0.812958904 4.86663014,0.807972603 4.85857534,0.802027397 C4.86317808,0.793780822 4.86816438,0.785917808 4.8729589,0.778438356 Z M9.39841096,0.923041096 L9.39021233,1.0732774 L9.39021233,1.0732774 L9.37367123,1.22279452 L11.4184384,3.52742466 C11.4892055,3.55178082 11.5588219,3.57652055 11.6267123,3.60452055 C12.0630137,3.78364384 12.4780274,4.00342466 12.8661918,4.27057534 C12.5524384,3.57153425 12.1086575,2.91717808 11.5356164,2.34375342 C10.9054247,1.71375342 10.176274,1.23967123 9.39841096,0.923041096 Z" id="加时赛进球" fill="#9EA5B4" fill-rule="nonzero"></path>
    </g>
</svg>