<?xml version="1.0" encoding="UTF-8"?>
<svg width="15px" height="15px" viewBox="0 0 15 15" version="1.1" xmlns="http://www.w3.org/2000/svg" xmlns:xlink="http://www.w3.org/1999/xlink">
    <!-- Generator: Sketch 61.1 (89650) - https://sketch.com -->
    <title>上半场角球 </title>
    <desc>Created with Sketch.</desc>
    <g id="页面-1" stroke="none" stroke-width="1" fill="none" fill-rule="evenodd">
        <g id="赛果备份" transform="translate(-1219.000000, -211.000000)" fill-rule="nonzero">
            <g id="上半场角球-" transform="translate(1219.000000, 211.000000)">
                <path d="M5.07090644,0.00767895132 C5.47698307,0.00767895132 5.76221284,0.30204946 5.76675775,0.72392662 C6.25610661,1.10404013 7.3977626,1.83534583 8.81140351,1.80255075 C10.6535088,1.80255075 12.5680507,2.39181693 13.0687135,3.29827724 C13.0687135,3.29827724 10.4342211,2.60457914 9.69737901,4.10030564 C8.96053692,5.59603215 8.06273758,4.87699945 7.3377193,5.17861913 C6.62996039,5.47822681 6.62241448,5.82372233 6.17757166,5.90126256 C6.03882306,5.92544773 5.89638874,5.9058185 5.76606599,5.86735387 L5.76650513,7.2129699 C5.28353852,7.82751027 4.94148175,8.55802666 4.78901578,9.3558381 C4.53659151,9.25243004 4.375,9.00381014 4.375,8.68289262 L4.375,0.734174684 C4.375,0.306824264 4.66154971,0.00767895132 5.07090644,0.00767895132 Z" id="形状结合" fill="#FF4A4A"></path>
                <path d="M1.16698648,13.7683627 C0.921372438,14.067508 0.51201572,14.067508 0.225466014,13.7683627 C-0.0610836924,13.4692174 -0.0610836924,13.041867 0.225466014,12.7854567 L4.48277595,8.34101229 C4.68791949,8.12685145 4.9560048,8.0660103 5.18189052,8.15848885 C4.90296346,8.74300657 4.735401,9.39070854 4.70501294,10.0740814 L3.42055373,11.4146533 L3.70499817,11.1187901 C4.0334128,11.3930704 4.44087059,11.5848332 4.88509556,11.6499441 C5.01376677,12.113054 5.20895179,12.5502521 5.45897837,12.9496065 L5.21961806,12.9563969 L5.21961806,12.9563969 C4.36369035,12.9563969 3.60925606,12.6738512 2.95631517,12.2371896 L2.7634777,12.101696 L1.16698648,13.7683627 Z" id="形状结合" fill="#5AA961"></path>
                <path d="M5.42341937,8.88632156 C6.22132942,6.5183448 8.74275423,5.23836122 11.1045714,6.03836168 C11.9024814,6.29435839 12.6046525,6.77434151 13.1472302,7.4143333 C14.6792243,9.27031664 14.5196452,11.9582821 12.7961447,13.5582545 C11.0088182,15.2862537 8.16824931,15.1902514 6.44474879,13.3982744 L6.44474879,13.3982744 L6.38092283,13.3342681 C5.80641791,12.6942763 5.3915064,11.9262861 5.26384022,11.0622936 C5.23192724,10.8062969 5.2,10.5503002 5.2,10.2943035 C5.2,9.81432038 5.26384022,9.33432296 5.42341937,8.88632156 Z M9.2286966,6.6 C9.08849945,6.6 8.98773275,6.62628697 8.9263965,6.6788609 C8.87732749,6.72092004 8.84788609,6.79522453 8.83807229,6.90177437 L8.83439211,6.98773275 L8.83439211,11.811391 L6.99430449,11.811391 C6.84534502,11.811391 6.74238773,11.8442497 6.68543264,11.9099671 C6.62847755,11.9756846 6.6,12.0764513 6.6,12.2122673 C6.6,12.3349398 6.63066813,12.43023 6.69200438,12.498138 C6.73800657,12.549069 6.80618839,12.5809009 6.89654984,12.5936336 L6.99430449,12.6 L12.5802848,12.6 C12.7204819,12.6 12.8212486,12.566046 12.8825849,12.498138 C12.9439211,12.43023 12.9745893,12.3349398 12.9745893,12.2122673 C12.9745893,12.0764513 12.9461117,11.9756846 12.8891566,11.9099671 C12.8435926,11.8573932 12.7685871,11.8258488 12.6641402,11.8153341 L12.5802848,11.811391 L9.62957284,11.811391 L9.62957284,9.43242059 L12.1465498,9.43242059 C12.2955093,9.43242059 12.396276,9.39846659 12.4488499,9.3305586 C12.5014239,9.2626506 12.5277108,9.16516977 12.5277108,9.0381161 C12.5277108,8.91106243 12.4970427,8.8135816 12.4357065,8.7456736 C12.3866375,8.69134721 12.310931,8.65875137 12.2085871,8.64788609 L12.1268346,8.64381161 L9.62957284,8.64381161 L9.62957284,6.98773275 C9.62957284,6.83439211 9.59671413,6.73143483 9.53099671,6.6788609 C9.4652793,6.62628697 9.3645126,6.6 9.2286966,6.6 Z" id="形状结合备份-2" fill="#5AA961"></path>
            </g>
        </g>
    </g>
</svg>