<svg width="13" height="12" viewBox="0 0 13 12" fill="none" xmlns="http://www.w3.org/2000/svg">
<path id="Vector" d="M9.77541 1.59151C11.8256 3.64167 11.8947 6.92278 9.98278 9.05626L12.2512 11.3244C12.2624 11.3356 12.2713 11.3489 12.2774 11.3636C12.2835 11.3782 12.2866 11.3939 12.2866 11.4098C12.2866 11.4257 12.2835 11.4414 12.2774 11.456C12.2713 11.4707 12.2624 11.484 12.2512 11.4952L11.7818 11.9646C11.7706 11.9758 11.7573 11.9847 11.7426 11.9908C11.728 11.9969 11.7122 12 11.6964 12C11.6805 12 11.6648 11.9969 11.6501 11.9908C11.6355 11.9847 11.6222 11.9758 11.611 11.9646L9.32504 9.67868C7.19187 11.3872 4.06893 11.2528 2.09151 9.27541C-0.0305018 7.1534 -0.0305018 3.71321 2.09151 1.59151C4.21351 -0.530502 7.6534 -0.530502 9.77541 1.59151ZM2.73173 2.23173C0.963491 3.99997 0.963491 6.86694 2.73173 8.63518C4.49997 10.4031 7.36694 10.4031 9.13518 8.63518C10.9031 6.86694 10.9031 3.99997 9.13518 2.23173C7.36694 0.463491 4.49997 0.463491 2.73173 2.23173Z" fill="white"/>
</svg>
