<?xml version="1.0" encoding="UTF-8"?>
<svg width="18px" height="17px" viewBox="0 0 18 17" version="1.1" xmlns="http://www.w3.org/2000/svg" xmlns:xlink="http://www.w3.org/1999/xlink">
    <!-- Generator: Sketch 61.1 (89650) - https://sketch.com -->
    <title>追索通知</title>
    <desc>Created with Sketch.</desc>
    <g id="页面-1" stroke="none" stroke-width="1" fill="none" fill-rule="evenodd">
        <g id="其他球类玩法(+暂无比赛的球类)1680" transform="translate(-448.000000, -94.000000)" fill-rule="nonzero">
            <g id="追索通知" transform="translate(448.000000, 94.000000)">
                <rect id="矩形" fill="#000000" opacity="0" x="0" y="0" width="18" height="18"></rect>
                <path d="M12.735,4.905 C12.33,4.725 11.88,4.905 11.7,5.265 C11.52,5.67 11.655,6.12 12.06,6.3 C12.105,6.345 13.275,6.93 13.275,8.685 C13.275,10.53 12.195,11.16 12.15,11.16 C11.745,11.34 11.61,11.835 11.79,12.195 C11.925,12.465 12.195,12.645 12.51,12.645 C12.645,12.645 12.735,12.6 12.87,12.555 C12.96,12.51 14.85,11.52 14.85,8.685 C14.85,5.895 12.825,4.95 12.735,4.905 L12.735,4.905 Z M15.21,2.61 C15.345,2.7 18,4.455 18,8.73 C18,13.005 15.435,14.805 15.3,14.85 C15.165,14.94 15.03,14.985 14.85,14.985 C14.58,14.985 14.355,14.85 14.22,14.625 C13.995,14.265 14.085,13.77 14.445,13.545 C14.535,13.5 16.425,12.105 16.425,8.73 C16.425,5.31 14.4,3.96 14.355,3.915 C13.995,3.69 13.905,3.195 14.13,2.835 C14.355,2.475 14.85,2.34 15.21,2.61 Z M9.72,0.99 C9.99,1.125 10.17,1.395 10.17,1.71 L10.17,15.75 C10.17,16.065 9.99,16.335 9.72,16.47 C9.63,16.515 9.495,16.56 9.405,16.56 C9.225,16.56 9.045,16.515 8.91,16.38 L4.41,12.645 L0.765,12.645 C0.54,12.645 0.36,12.555 0.225,12.42 C0.09,12.285 0,12.06 0,11.88 L0,5.625 C0,5.4 0.09,5.22 0.225,5.085 C0.36,4.95 0.585,4.86 0.765,4.86 L4.365,4.86 L8.865,1.125 C9.135,0.9 9.45,0.855 9.72,0.99 Z M5.04,6.615 L1.8,6.615 L1.8,10.845 L5.04,10.845 L5.535,11.25 L8.325,13.59 L8.325,3.825 L5.04,6.615 Z" id="形状" fill="#D1D1D1"></path>
            </g>
        </g>
    </g>
</svg>