<?xml version="1.0" encoding="UTF-8"?>
<svg width="24px" height="25px" viewBox="0 0 24 25" version="1.1" xmlns="http://www.w3.org/2000/svg" xmlns:xlink="http://www.w3.org/1999/xlink">
    <title>冰@2x</title>
    <defs>
        <linearGradient x1="99.9959258%" y1="0%" x2="0.00407422667%" y2="100%" id="linearGradient-1">
            <stop stop-color="#A3ACB3" offset="0%"></stop>
            <stop stop-color="#64676E" offset="100%"></stop>
        </linearGradient>
    </defs>
    <g id="页面-1" stroke="none" stroke-width="1" fill="none" fill-rule="evenodd" opacity="0.6">
        <path d="M20.8057661,21.1036909 L20.8041953,21.6692009 L20.7860124,21.6697382 C20.798041,21.7396487 20.8041953,21.8098476 20.8041953,21.880093 C20.8041953,23.0635603 19.0573439,24.0229501 16.9024934,24.0229501 C14.747643,24.0229501 13.0007915,23.0635603 13.0007915,21.880093 C13.0007915,21.8098476 13.0069458,21.7396487 13.0189744,21.6697382 L13.0007915,21.6692009 L12.9991446,21.1106445 C13.6569623,22.0284409 15.1702778,22.6526719 16.8999736,22.6526719 C18.6340341,22.6526719 20.150621,22.0252865 20.8057661,21.1036909 Z M3.10379555,17.3805622 L3.10379555,22.1465622 L1.68178011,22.5070421 C1.00300208,22.6786842 0.313600375,22.2675692 0.141958302,21.5887912 C0.129022691,21.5376359 0.1192935,21.4857228 0.112827504,21.433355 L0.0226104962,20.7026911 C-0.0338589366,20.2453474 0.015788369,19.7811422 0.167701127,19.3460853 L0.360451335,18.7940756 C0.618249303,18.0557782 1.28549384,17.5376359 2.06463654,17.470707 L3.10379555,17.3805622 Z M16.9024934,17.812058 C19.0573439,17.812058 20.8041953,18.7714479 20.8041953,19.9549152 C20.8041953,21.1383825 19.0573439,22.0977723 16.9024934,22.0977723 C14.747643,22.0977723 13.0007915,21.1383825 13.0007915,19.9549152 C13.0007915,18.8122571 14.6292476,17.8784893 16.6810882,17.8154502 L16.9024934,17.812058 Z M7.32679555,17.0355622 L7.32679555,20.9675622 L5.9056097,21.4279743 C5.80205659,21.4614853 5.69743689,21.4916061 5.59191781,21.5182886 L4.15879555,21.8795622 L4.15879555,17.2905622 L5.12936791,17.2074443 L5.27160538,17.1957939 L5.27160538,17.1957939 L7.32679555,17.0355622 Z M23.1520343,0.0932993345 L23.7569981,0.456108069 C23.9938175,0.598133353 24.0706633,0.905247652 23.928638,1.14206706 L23.9086436,1.1727937 L23.9086436,1.1727937 L13.1854477,16.3999801 L11.0447632,19.0718886 C10.5558042,19.6821857 9.8986765,20.1357711 9.15465306,20.3765458 L8.38179555,20.6255622 L8.38179555,16.9535622 L8.46929546,16.9466333 C9.62869699,16.856294 10.6913855,16.2658612 11.380535,15.3291403 L22.4921281,0.22579639 C22.6449887,0.0180218652 22.9308193,-0.0393676774 23.1520343,0.0932993345 Z" id="冰" fill="url(#linearGradient-1)"></path>
    </g>
</svg>