<?xml version="1.0" encoding="UTF-8"?>
<svg width="24px" height="24px" viewBox="0 0 24 24" version="1.1" xmlns="http://www.w3.org/2000/svg" xmlns:xlink="http://www.w3.org/1999/xlink">
    <title>乒@2x</title>
    <defs>
        <linearGradient x1="100%" y1="0%" x2="0%" y2="100%" id="linearGradient-1">
            <stop stop-color="#A3ACB3" offset="0%"></stop>
            <stop stop-color="#64676E" offset="100%"></stop>
        </linearGradient>
    </defs>
    <g id="页面-1" stroke="none" stroke-width="1" fill="none" fill-rule="evenodd">
        <path d="M21.2652479,18.4414814 C22.7756199,18.4414814 24,19.6857611 24,21.2206807 C24,22.7556003 22.7756199,24 21.2652479,24 C19.754876,24 18.5304959,22.7556003 18.5304959,21.2206807 C18.5304959,19.6857611 19.754876,18.4414814 21.2652479,18.4414814 Z M2.95148944,8.08742798 L14.495662,19.819105 C14.131855,19.890985 13.7629704,19.942585 13.3907797,19.972345 C11.2261218,20.144905 9.06571494,19.5866651 7.25919628,18.3950654 L7.25919628,18.3950654 L3.05197623,22.6705443 C2.95491379,22.7691843 2.82762265,22.8185043 2.70033151,22.8185043 C2.57292229,22.8185043 2.44574924,22.7691843 2.34880487,22.6705443 L2.34880487,22.6705443 L0.145770787,20.4317049 C-0.0485902625,20.2343049 -0.0485902625,19.914385 0.145770787,19.7171051 L0.145770787,19.7171051 L4.35275468,15.4415061 C3.18033009,13.6057466 2.6307819,11.4098671 2.8008183,9.2102677 C2.82998427,8.83190779 2.88075902,8.45714789 2.95148944,8.08742798 L2.95148944,8.08742798 Z M5.65337962,2.92544927 C9.49147899,-0.975029756 15.7367742,-0.975269755 19.5749917,2.92544927 C23.4132091,6.82592829 23.4132091,13.1728467 19.5748736,17.0733257 C18.6340055,18.0294855 17.518614,18.7744453 16.303208,19.2740052 L16.303208,19.2740052 L3.48789524,6.25028844 C3.97946574,5.01524875 4.71239347,3.88160903 5.65337962,2.92544927 Z" id="乒" fill="url(#linearGradient-1)"></path>
    </g>
</svg>