<?xml version="1.0" encoding="UTF-8"?>
<svg width="24px" height="24px" viewBox="0 0 24 24" version="1.1" xmlns="http://www.w3.org/2000/svg" xmlns:xlink="http://www.w3.org/1999/xlink">
    <title>羽@2x</title>
    <defs>
        <linearGradient x1="100%" y1="0%" x2="0%" y2="100%" id="linearGradient-1">
            <stop stop-color="#A3ACB3" offset="0%"></stop>
            <stop stop-color="#64676E" offset="100%"></stop>
        </linearGradient>
    </defs>
    <g id="页面-1" stroke="none" stroke-width="1" fill="none" fill-rule="evenodd" opacity="0.6">
        <path d="M1.41051023,16.2230494 C1.47891025,16.1547695 1.58979026,16.1547695 1.65819028,16.2230494 L1.65819028,16.2230494 L7.77459129,22.338602 C7.8429913,22.4068819 7.8429913,22.5178818 7.77459129,22.5862817 L7.77459129,22.5862817 L7.67943127,22.6814416 C6.83031113,23.5304406 5.69907095,24 4.49751075,24 C3.29571055,24 2.16447036,23.5318806 1.31535022,22.6814416 C-0.438450073,20.9263237 -0.438450073,18.0733271 1.31535022,16.3182093 L1.31535022,16.3182093 Z M12.8539761,0.0113089334 C13.0579762,-0.0246910232 13.2679762,0.0263089153 13.4329762,0.149308767 C13.5979763,0.272308619 13.7075363,0.459868392 13.7285363,0.665308145 L13.7285363,0.665308145 L14.0658563,3.65774454 C14.0708963,3.70214448 14.0586563,3.74678443 14.0317763,3.78254438 L14.0317763,3.78254438 L6.024415,14.4492115 C5.97197499,14.5189314 5.97893499,14.6164913 6.040615,14.6781712 L6.040615,14.6781712 L6.86021514,15.4988503 C6.93545515,15.5742102 7.06013517,15.5654502 7.12409518,15.4802503 L7.12409518,15.4802503 L14.9990965,4.99214293 C15.0364165,4.94246299 15.0971365,4.91618302 15.1589365,4.92326301 L15.1589365,4.92326301 L18.085377,5.25542261 C18.4318171,5.29298256 18.7064971,5.56742223 18.7454971,5.91542181 L18.7454971,5.91542181 L19.0554572,8.64769852 C19.0622972,8.70865844 19.0368572,8.76889837 18.9880172,8.80633833 L18.9880172,8.80633833 L8.50397541,16.8610886 C8.4200954,16.9256485 8.4119354,17.0491284 8.48681541,17.1238883 L8.48681541,17.1238883 L9.30665554,17.9436073 C9.36881555,18.0057672 9.46745557,18.0122472 9.53717558,17.9586073 L9.53717558,17.9586073 L19.8041373,10.0695768 C19.8454173,10.0378968 19.8984573,10.0261369 19.9492173,10.0375368 L19.9492173,10.0375368 L23.4143379,10.8130959 C23.813338,10.9030958 24.066898,11.2946553 23.984458,11.6936548 L23.984458,11.6936548 L23.2343379,15.4047704 C23.1818978,15.66877 22.9913378,15.8832098 22.7362178,15.9687697 L22.7362178,15.9687697 L10.2436157,20.1422447 C10.2178157,20.1507646 10.1944157,20.1654046 10.1753357,20.1846046 L10.1753357,20.1846046 L9.08309551,21.2764833 C9.0146955,21.3450032 8.90381548,21.3450032 8.83541547,21.2764833 L8.83541547,21.2764833 L2.71901445,15.1610507 C2.65061444,15.0926507 2.65061444,14.9817709 2.71901445,14.913371 L2.71901445,14.913371 L3.81257463,13.8199323 C3.83189464,13.8006123 3.84629464,13.7772123 3.85493464,13.7515324 L3.85493464,13.7515324 L8.02901533,1.26074743 C8.11757535,0.999867741 8.33957538,0.809307971 8.61125543,0.761308029 L8.61125543,0.761308029 Z" id="羽" fill="url(#linearGradient-1)"></path>
    </g>
</svg>