<?xml version="1.0" encoding="UTF-8"?>
<svg width="24px" height="24px" viewBox="0 0 24 24" version="1.1" xmlns="http://www.w3.org/2000/svg" xmlns:xlink="http://www.w3.org/1999/xlink">
    <title>足@2x</title>
    <defs>
        <linearGradient x1="100%" y1="0%" x2="0%" y2="100%" id="linearGradient-1">
            <stop stop-color="#A3ACB3" offset="0%"></stop>
            <stop stop-color="#64676E" offset="100%"></stop>
        </linearGradient>
    </defs>
    <g id="页面-1" stroke="none" stroke-width="1" fill="none" fill-rule="evenodd" opacity="0.6">
        <path d="M16.0363636,0.69584992 C20.7818182,2.38772029 24,6.9175668 24,11.9931779 C24,18.5969301 18.6,24 12,24 C5.4,24 9.23705556e-14,18.5969301 9.23705556e-14,11.9931779 C9.23705556e-14,6.9175668 3.21818183,2.38772029 8.01818182,0.69584992 C10.5818182,-0.231949973 13.4727273,-0.231949973 16.0363636,0.69584992 Z M14.5090909,2.49687323 L12.6,3.86128484 C12.2181818,4.13416717 11.6727273,4.13416717 11.2909091,3.86128484 L9.38181818,2.49687323 C9.21818182,2.55144968 8.94545453,2.66060262 8.72727272,2.7151791 C6.65454544,3.4792496 4.90909091,4.89823765 3.76363637,6.6446845 L4.47272727,8.8823195 C4.63636363,9.31893122 4.47272727,9.81011939 4.09090909,10.0830017 L2.18181817,11.5019898 L2.18181817,11.9931779 C2.18181817,14.3399659 2.99999999,16.468448 4.36363635,18.1603184 L6.70909091,18.1603184 C7.20000001,18.1603184 7.58181818,18.4877771 7.74545454,18.9243889 L8.45454544,21.1620239 C9.54545454,21.5986356 10.7454545,21.8169414 12,21.8169414 C13.2545455,21.8169414 14.4,21.5986356 15.4909091,21.1620239 L16.2,18.9243889 C16.3636364,18.4877771 16.7454545,18.1603184 17.2363636,18.1603184 L19.5818182,18.1603184 C20.9454545,16.468448 21.7636364,14.3399659 21.7636364,11.9931779 L21.7636364,11.5019898 L19.8545455,10.1375782 C19.4727273,9.86469585 19.3090909,9.37350767 19.4727273,8.93689598 L20.2363636,6.6446845 C19.0909091,4.89823765 17.3454545,3.4792496 15.2727273,2.7151791 C15.0545455,2.60602616 14.7818182,2.55144971 14.5090909,2.49687323 Z M12.6545455,6.86299034 L16.6909091,9.75554294 C17.0727273,10.0284253 17.2363636,10.5196134 17.0727273,10.9562251 L15.5454546,15.7043775 C15.3818182,16.1409892 15,16.468448 14.5090909,16.468448 L9.54545454,16.468448 C9.05454545,16.468448 8.67272728,16.1409892 8.50909092,15.7043775 L6.98181817,10.9562251 C6.81818181,10.5196134 6.98181817,10.0284252 7.36363637,9.75554294 L11.3454545,6.86299034 C11.7272727,6.59010802 12.2727273,6.59010802 12.6545455,6.86299034 Z" id="足" fill="url(#linearGradient-1)"></path>
    </g>
</svg>