<?xml version="1.0" encoding="UTF-8"?>
<svg width="24px" height="24px" viewBox="0 0 24 24" version="1.1" xmlns="http://www.w3.org/2000/svg" xmlns:xlink="http://www.w3.org/1999/xlink">
    <title>棒@2x</title>
    <defs>
        <linearGradient x1="99.9988582%" y1="0%" x2="0.00114184046%" y2="100%" id="linearGradient-1">
            <stop stop-color="#A3ACB3" offset="0%"></stop>
            <stop stop-color="#64676E" offset="100%"></stop>
        </linearGradient>
    </defs>
    <g id="页面-1" stroke="none" stroke-width="1" fill="none" fill-rule="evenodd" opacity="0.6">
        <path d="M0.433890982,8.82310133 C1.52656008,9.01874528 2.59480877,9.35318952 3.6117772,9.82572798 L4.0444029,10.0366972 L3.93539556,10.1968685 C3.70201704,10.5371113 3.79129861,11.0082655 4.13123083,11.2417563 C4.44026013,11.4540207 4.85745061,11.3993954 5.1060902,11.1320798 L5.17534884,11.0455587 L5.34282252,10.7985873 C5.79535669,11.1000712 6.23339704,11.4329815 6.65160469,11.796945 L6.96145837,12.0757343 L6.70562801,12.3375048 C6.41769715,12.633736 6.42444432,13.1113572 6.72038806,13.3994515 C6.98942782,13.6613555 7.40830966,13.6795049 7.69857325,13.4580774 L7.78151531,13.384466 L8.00176932,13.1569132 C8.45521478,13.6849758 8.85753934,14.2407867 9.21019364,14.8163932 L9.46539385,15.2516856 L9.1266494,15.4255154 C8.75888111,15.614795 8.61342112,16.0712931 8.80248004,16.4393083 C8.97578404,16.7766555 9.3734895,16.927012 9.72184547,16.8039353 L9.81542243,16.7635246 L10.1216672,16.6049017 C10.3679637,17.1981883 10.5686788,17.80395 10.7231098,18.4194529 L10.8302437,18.8828639 L10.6418857,18.9291266 C10.2403521,19.0269088 9.99491028,19.4397162 10.0943955,19.8399235 C10.1838856,20.2082633 10.5379058,20.4452875 10.904326,20.4054832 L11.0043767,20.3876546 L11.0558719,20.3755229 C11.1675176,21.5753251 11.1143379,22.7845829 10.8987669,23.9685102 C7.92806436,23.6944988 5.05351738,22.3208489 2.94111387,19.8888588 C0.204853849,16.7386174 -0.599829148,12.5645662 0.433890982,8.82310133 Z M11.9611727,0 C11.9220734,0.891559268 11.9610603,1.77643775 12.0793505,2.65168613 L12.1598507,3.17565594 L12.0696344,3.19207298 C11.6623661,3.27197643 11.3970428,3.66941211 11.4751861,4.07511927 C11.548299,4.44872318 11.8880445,4.70290757 12.256429,4.68237731 L12.3574287,4.66985037 L12.4919451,4.64429445 C12.5478313,4.84395354 12.6074367,5.04037693 12.6721342,5.23890396 C12.816674,5.68158528 12.9805409,6.11480267 13.1645195,6.5378736 L13.355231,6.95753711 L13.0921568,7.09820319 C12.7289938,7.29654363 12.5904855,7.75352747 12.7867395,8.11854986 C12.9683437,8.45167069 13.3671499,8.59582902 13.7133294,8.46620268 L13.8062344,8.42399826 L14.0693086,8.28333217 C14.5028842,9.00051659 15.0017026,9.68380859 15.5609152,10.3276259 L15.7490139,10.5408936 L15.7490139,10.5408936 L15.9400845,10.7491256 L15.8419234,10.8541253 C15.5604574,11.1577995 15.576016,11.6342886 15.8775386,11.9175294 C16.1533406,12.1735503 16.5719038,12.1838773 16.8584107,11.9568822 L16.9401263,11.8816723 L17.023167,11.793094 C17.6117165,12.3046721 18.2387311,12.7691744 18.9006104,13.1802804 L19.3018929,13.420486 L19.2105082,13.5783933 C19.0037195,13.9379721 19.1268735,14.3992587 19.4861323,14.6061353 C19.8154528,14.7957722 20.2302257,14.7079333 20.4563475,14.4150093 L20.5131339,14.3300905 L20.6422856,14.1066582 C21.5939284,14.5332067 22.5825398,14.8557228 23.599552,15.0718598 C23.0088715,17.3236976 21.7578866,19.4280205 19.8685062,21.0717574 C17.7727028,22.8950707 15.2233957,23.8617329 12.649972,24 C12.7233252,23.5506977 12.7758232,23.099938 12.807953,22.6407638 C12.8585817,21.9172165 12.8574228,21.198999 12.8002141,20.4831288 L12.7467316,19.9466197 L13.1733265,19.840102 C13.5748602,19.7423198 13.8203019,19.3295123 13.7208167,18.929305 C13.6313266,18.5609652 13.2773064,18.323941 12.9108863,18.3637454 L12.8108355,18.3815739 L12.5032374,18.4597034 C12.3970634,17.9803776 12.2697909,17.503073 12.115841,17.0326432 C12.024677,16.7547808 11.9270093,16.4811248 11.8213289,16.2110517 L11.6566103,15.8085515 L11.8014861,15.734781 C12.1692544,15.5455014 12.3147143,15.0890034 12.1256554,14.7209882 C11.9523514,14.3836409 11.554646,14.2332844 11.20629,14.3563612 L11.112713,14.3967719 L10.9931419,14.4583282 C10.5807377,13.7172801 10.1028707,13.0104975 9.56127052,12.342147 L9.2012005,11.9141493 L9.3367976,11.773314 C9.62472846,11.4770829 9.61798129,10.9994617 9.32203755,10.7113673 C9.05299779,10.4494634 8.63411595,10.431314 8.34385237,10.6527415 L8.2609103,10.7263528 L8.1574137,10.8327275 C7.69585986,10.4005769 7.20972388,10.0002662 6.69888112,9.63357658 L6.31111459,9.36489111 L6.43362614,9.18643759 C6.66700466,8.84619483 6.5777231,8.37504067 6.23779087,8.14154983 C5.92876157,7.92928543 5.51157109,7.98391074 5.2629315,8.25122629 L5.19367286,8.33774747 L5.02037689,8.59305098 C4.88142767,8.5200616 4.74142474,8.44909859 4.6004125,8.38018445 C3.45730589,7.81965802 2.25620029,7.41412848 1.01609115,7.16667104 C1.70577977,5.59640318 2.7466655,4.14855408 4.12650771,2.94810778 C6.3915373,0.977570249 9.18561428,0.00703906629 11.9611727,0 Z M13.6972336,0.123060339 C16.4536159,0.514932345 19.0853402,1.8646225 21.0539,4.13100636 C23.3505479,6.77512543 24.285181,10.1402867 23.9246269,13.3712444 C23.2666652,13.2301852 22.6179256,13.0371965 21.9863543,12.7937286 L21.516019,12.6016855 L21.6374888,12.3882032 C21.8442775,12.0286243 21.7211235,11.5673377 21.3618647,11.3604611 C21.0325442,11.1708243 20.6177713,11.2586632 20.3916495,11.5515872 L20.3348631,11.6365059 L20.169804,11.9238455 C19.6205302,11.6072119 19.091134,11.2461051 18.5858776,10.8435075 L18.211528,10.5338263 L18.4813494,10.2468165 C18.7628154,9.9431423 18.7472569,9.46665316 18.4457342,9.18341238 C18.1699322,8.92739153 17.751369,8.9170645 17.4648621,9.14405961 L17.3831465,9.21926944 L17.1284456,9.48985793 L16.8693613,9.1990979 L16.8693613,9.1990979 C16.4866418,8.75847233 16.1398813,8.29910758 15.827052,7.82444045 L15.5987604,7.46562461 L15.7875371,7.36346159 C16.1507001,7.16512114 16.2892084,6.70813731 16.0929544,6.34311492 C15.9113502,6.00999408 15.512544,5.86583575 15.1663645,5.9954621 L15.0734594,6.03766652 L14.8865425,6.1382117 C14.6806495,5.69255383 14.5008583,5.23888859 14.3478507,4.77800097 L14.2037962,4.31473498 L14.5667645,4.24397041 C14.9740329,4.16406695 15.2393561,3.76663127 15.1612128,3.36092411 C15.0881,2.9873202 14.7483544,2.73313581 14.3799699,2.75366607 L14.2789702,2.76619302 L13.8663664,2.84747143 C13.7164084,1.9456137 13.6580396,1.03267827 13.6972336,0.123060339 Z" id="棒" fill="url(#linearGradient-1)"></path>
    </g>
</svg>