<?xml version="1.0" encoding="UTF-8"?>
<svg width="24px" height="24px" viewBox="0 0 24 24" version="1.1" xmlns="http://www.w3.org/2000/svg" xmlns:xlink="http://www.w3.org/1999/xlink">
    <title>编组 3@2x</title>
    <defs>
        <linearGradient x1="50%" y1="23.8699777%" x2="50%" y2="96.1021205%" id="linearGradient-1">
            <stop stop-color="#A3ACB3" offset="0%"></stop>
            <stop stop-color="#64676E" offset="100%"></stop>
        </linearGradient>
        <linearGradient x1="50%" y1="0%" x2="50%" y2="100%" id="linearGradient-2">
            <stop stop-color="#FFFFFF" offset="0%"></stop>
            <stop stop-color="#F6F6F6" offset="100%"></stop>
        </linearGradient>
    </defs>
    <g id="页面-1" stroke="none" stroke-width="1" fill="none" fill-rule="evenodd">
        <g id="滚球-注单" transform="translate(-261.000000, -145.000000)">
            <g id="编组-54" transform="translate(234.000000, 137.000000)">
                <g id="编组-3" transform="translate(27.000000, 8.000000)">
                    <rect id="矩形" fill="#5a6074" x="0" y="0" width="24" height="24" rx="12"></rect>
                    <path d="M10.3624942,11.5133669 L6.80779527,11.5133669 C6.36349359,11.5133669 6,11.1498733 6,10.7055716 L6,7.15087268 C6,6.70657101 6.36349359,6.34307742 6.80779527,6.34307742 L10.3624942,6.34307742 C10.8067959,6.34307742 11.1702895,6.70657101 11.1702895,7.15087268 L11.1702895,10.7055716 C11.1702895,11.1498733 10.8067959,11.5133669 10.3624942,11.5133669 L10.3624942,11.5133669 Z M10.3624942,18 L6.80779527,18 C6.36349359,18 6,17.6365064 6,17.1922047 L6,13.6375058 C6,13.1932041 6.36349359,12.8297105 6.80779527,12.8297105 L10.3624942,12.8297105 C10.8067959,12.8297105 11.1702895,13.1932041 11.1702895,13.6375058 L11.1702895,17.1922047 C11.1702895,17.6365064 10.8067959,18 10.3624942,18 Z M14.718421,11.6489988 L12.5014812,9.43205911 C12.2245065,9.15508441 12.2245065,8.70164543 12.5014812,8.42467074 L14.718421,6.20773102 C14.9953957,5.93075633 15.4488346,5.93075633 15.7258093,6.20773102 L17.942749,8.42467074 C18.2197237,8.70164543 18.2197237,9.15508441 17.942749,9.43205911 L15.7258093,11.6489988 C15.4488346,11.9259735 14.9956812,11.9259735 14.718421,11.6489988 L14.718421,11.6489988 Z M16.9996074,18 L13.4449084,18 C13.0006068,18 12.6371132,17.6365064 12.6371132,17.1922047 L12.6371132,13.6375058 C12.6371132,13.1932041 13.0006068,12.8297105 13.4449084,12.8297105 L16.9996074,12.8297105 C17.4439091,12.8297105 17.8074026,13.1932041 17.8074026,13.6375058 L17.8074026,17.1922047 C17.8074026,17.6365064 17.4439091,18 16.9996074,18 Z" id="形状" fill="url(#linearGradient-2)" fill-rule="nonzero"></path>
                </g>
            </g>
        </g>
    </g>
</svg>