<?xml version="1.0" encoding="UTF-8"?>
<svg width="24px" height="24px" viewBox="0 0 24 24" version="1.1" xmlns="http://www.w3.org/2000/svg" xmlns:xlink="http://www.w3.org/1999/xlink">
    <title>英式橄榄球未选中备份</title>
    <defs>
        <linearGradient x1="100%" y1="0%" x2="0%" y2="100%" id="linearGradient-1">
            <stop stop-color="#A3ACB3" offset="0%"></stop>
            <stop stop-color="#64676E" offset="100%"></stop>
        </linearGradient>
    </defs>
    <g id="英式橄榄球未选中备份" stroke="none" stroke-width="1" fill="none" fill-rule="evenodd">
        <path d="M0.101406241,13.3577241 C4.07976905,15.4042383 7.58581181,18.902996 10.614786,23.8791786 C6.56925318,24.3557827 2.96816815,23.3643352 1.85693464,22.0727324 C0.755204241,20.7921751 -0.309549591,17.3934179 0.0832715129,13.5233235 Z M14.0625802,0.00058678696 C18.3501686,1.64637526 21.6578281,4.85078193 24.0001863,9.65190714 C23.8513752,13.0491504 22.7015616,16.8473283 19.761393,19.6872076 C17.7424396,21.6372943 15.355246,22.8130912 12.9843129,23.4338767 L12.9898947,23.4319564 L12.6505546,22.860289 C9.2358898,17.2004033 5.18326519,13.2445169 0.487034706,11.0225702 L0.534839134,11.0451861 C1.1433635,8.76355183 2.32427341,6.44066946 4.34215552,4.38326748 C7.27231985,1.39571637 10.7650491,0.230743341 13.8965627,0.0113658557 Z M13.120234,1.76876211 L13.0854675,1.78186596 L11.9568937,2.46952712 C11.9414846,2.47891619 11.9289031,2.49229967 11.9204828,2.50825883 C11.8947107,2.55710536 11.9134162,2.61759571 11.9622627,2.6433678 L11.9622627,2.6433678 L12.3921607,2.87018784 C12.4065692,2.87778997 12.4189023,2.88879716 12.4280872,2.90225208 C12.4592251,2.94786582 12.4474902,3.01008535 12.4018764,3.04122329 L12.4018764,3.04122329 L11.0448239,3.96760688 C11.0097743,3.9915333 10.96344,3.99073139 10.9292393,3.96560645 L10.9292393,3.96560645 L10.4090714,3.58347436 C10.3723565,3.5565024 10.3220521,3.55775496 10.2867251,3.58652075 L10.2867251,3.58652075 L9.18710361,4.48191013 C9.17885409,4.48862747 9.1717293,4.49661817 9.16599798,4.50558083 C9.13624449,4.55210947 9.14984344,4.61394835 9.19637208,4.64370184 L9.19637208,4.64370184 L9.69969113,4.96555733 C9.70662058,4.96998848 9.71297686,4.97525762 9.71861596,4.98124535 C9.75648034,5.02145074 9.75458259,5.08473879 9.7143772,5.12260317 L9.7143772,5.12260317 L8.7164694,6.06240675 C8.68449344,6.09252088 8.63661002,6.0982438 8.59843775,6.07651364 L8.59843775,6.07651364 L7.95731093,5.71154225 C7.91790463,5.68910961 7.86833653,5.69599915 7.83654163,5.72832816 L7.83654163,5.72832816 L6.77778201,6.8048734 C6.77446376,6.8082474 6.77138919,6.81185268 6.76858149,6.81566208 C6.7358141,6.86011973 6.74529093,6.92272299 6.78974858,6.95549038 L6.78974858,6.95549038 L7.33382834,7.35650282 C7.33580099,7.35795675 7.33771953,7.35948271 7.33958006,7.36107759 C7.38151114,7.39702156 7.38636464,7.46015177 7.35042067,7.50208284 L7.35042067,7.50208284 L6.42029523,8.58713703 C6.3865979,8.62644724 6.32846737,8.63353491 6.28631175,8.60347321 L6.28631175,8.60347321 L5.80336151,8.2590754 C5.76010488,8.22822856 5.70027821,8.23659196 5.66713892,8.27811847 L5.66713892,8.27811847 L4.7369483,9.44373119 C4.73628862,9.44455782 4.7356421,9.44539487 4.73500898,9.44624201 C4.70194667,9.49048077 4.71100696,9.55314567 4.75524572,9.58620798 L4.75524572,9.58620798 L5.34722709,10.0286317 L5.34722709,10.0286317 C5.3934151,10.066271 5.39973854,10.1292709 5.36478154,10.1720283 L5.36478154,10.1720283 L4.95950697,10.6677365 C4.95849791,10.6689707 4.9575185,10.6702289 4.9565696,10.67151 C4.92369662,10.7158896 4.93302461,10.7785152 4.97740424,10.8113882 L4.97740424,10.8113882 L6.14664744,11.6774725 C6.1909455,11.710285 6.25344301,11.7010592 6.28637063,11.6568466 L6.28637063,11.6568466 L6.63730423,11.1856409 C6.67025264,11.1414003 6.73280231,11.1321953 6.77709905,11.1650681 L6.77709905,11.1650681 L7.59990623,11.7756766 C7.64135624,11.8064369 7.69940731,11.8005953 7.73389772,11.7621934 L7.73389772,11.7621934 L8.73177373,10.65115 C8.73200089,10.6508971 8.73222677,10.650643 8.73245134,10.6503878 L8.75226423,10.6159738 C8.76457628,10.5789999 8.75453089,10.5366163 8.72343353,10.5092542 L8.72343353,10.5092542 L7.8438513,9.73532424 C7.84343393,9.734957 7.84301962,9.73458628 7.84260843,9.73421213 C7.80175947,9.69704296 7.79877642,9.63379677 7.83594559,9.59294782 L7.83594559,9.59294782 L8.73806916,8.60151314 C8.77277247,8.56337417 8.83078581,8.55787595 8.87203612,8.58881642 L8.87203612,8.58881642 L9.73528031,9.23630661 C9.77641243,9.26715842 9.83423683,9.26179061 9.86898713,9.22389468 L9.86898713,9.22389468 L10.9197103,8.07805903 C10.9566547,8.03777038 10.9544026,7.97528212 10.9146538,7.93775756 L10.9146538,7.93775756 L10.194031,7.25745979 L10.194031,7.25745979 C10.1521074,7.2134552 10.1538007,7.15016135 10.1938837,7.11216733 L10.1938837,7.11216733 L11.1796428,6.17778019 C11.2179999,6.14142198 11.2780264,6.14118866 11.316665,6.17724759 L11.316665,6.17724759 L12.013582,6.82763491 C12.050091,6.86170633 12.1061391,6.86362144 12.1448886,6.83212153 L12.1448886,6.83212153 L13.2549753,5.92971818 C13.2572294,5.92788582 13.2594026,5.92595612 13.2614886,5.92393456 C13.3011494,5.88550006 13.3021434,5.82219137 13.2637089,5.78253063 L13.2637089,5.78253063 L12.618335,5.11656624 C12.6152921,5.11342624 12.6124583,5.11009003 12.6098521,5.1065791 C12.5769334,5.06223341 12.5861967,4.9995982 12.6305424,4.96667945 L12.6305424,4.96667945 L13.8543294,4.05823641 C13.8937001,4.02901067 13.9484536,4.03264181 13.9836201,4.06681071 L13.9836201,4.06681071 L14.722658,4.78488304 C14.7548038,4.81611691 14.8038057,4.82214649 14.8425645,4.7996373 L14.8425645,4.7996373 L15.9175211,4.17535552 L15.9175211,4.17535552 L15.9319927,4.16513639 C15.9741076,4.12940799 15.9792849,4.06630352 15.9435565,4.0241886 L15.9435565,4.0241886 L15.3399772,3.31271824 C15.3360238,3.30805814 15.3325058,3.30304545 15.3294676,3.29774309 C15.3020097,3.24982388 15.3185969,3.1887187 15.3665161,3.16126085 L15.3665161,3.16126085 L15.789456,2.91891502 C15.8023661,2.9115175 15.8134627,2.90133226 15.8219368,2.88910185 C15.8533906,2.84370538 15.8420879,2.78140588 15.7966914,2.74995203 L15.7966914,2.74995203 L14.5835019,1.90936941 C14.5507262,1.8866601 14.5075917,1.88559268 14.4737328,1.90665302 L14.4737328,1.90665302 L13.9761086,2.21617727 C13.9434223,2.2365083 13.901968,2.23627302 13.8695145,2.2155723 L13.8695145,2.2155723 L13.1912783,1.78295317 C13.1591047,1.76243097 13.118056,1.76200919 13.0854675,1.78186596 Z M18.037709,0.24897898 C19.7610695,0.572933627 21.1249907,1.1326608 21.8526492,1.66536066 C22.6691421,2.26309387 23.4198177,3.91184803 23.7846906,6.06046116 C22.2653476,3.74987042 20.4564761,1.88226767 18.3608218,0.462045872 Z" id="形状结合" fill="url(#linearGradient-1)"></path>
    </g>
</svg>