<?xml version="1.0" encoding="UTF-8"?>
<svg width="24px" height="24px" viewBox="0 0 24 24" version="1.1" xmlns="http://www.w3.org/2000/svg" xmlns:xlink="http://www.w3.org/1999/xlink">
    <title>拳击未选中备份@2x</title>
    <defs>
        <linearGradient x1="88.4637607%" y1="0%" x2="11.5362393%" y2="100%" id="linearGradient-1">
            <stop stop-color="#A3ACB3" offset="0%"></stop>
            <stop stop-color="#64676E" offset="100%"></stop>
        </linearGradient>
    </defs>
    <g id="拳击未选中备份" stroke="none" stroke-width="1" fill="none" fill-rule="evenodd" opacity="0.6">
        <path d="M3.05415745,4.74779589 C3.05415745,3.84282351 3.86913052,3.10028207 4.86237895,3.10028207 L16.0045888,3.10028207 C16.9978373,3.10028207 17.8128103,3.84282351 17.8128103,4.74779589 L17.8128103,7.23066881 C17.8128103,10.2124368 15.1514139,12.6256964 11.8915216,12.6256964 L8.97544614,12.6256964 C5.70281992,12.6256964 3.05415745,10.2008346 3.05415745,7.23066881 L3.05415745,4.74779589 Z M6.08483854,22.9980721 L6.08483854,20.0163042 L13.5214678,20.0163042 L13.5214678,24.1002821 L7.29456419,24.1002821 C6.63239857,24.1002821 6.08483854,23.601387 6.08483854,22.9980721 L6.08483854,22.9980721 Z M16.513947,22.9980721 C16.513947,23.6129893 15.966387,24.1002821 15.3042214,24.1002821 L14.7311934,24.1002821 L14.7311934,20.0163042 L16.513947,20.0163042 L16.513947,22.9980721 Z M17.1506447,18.7748677 C16.6158186,18.3339837 15.5334325,17.2085694 15.2914874,15.1085694 C15.2532855,14.8069119 14.9604046,14.5864699 14.6293218,14.6096743 C14.298239,14.644481 14.0562938,14.9113318 14.0817618,15.2129893 C14.2727711,16.9533207 14.9858725,18.1483484 15.6353042,18.8908898 L5.63915015,18.8908898 C3.97100215,17.8814975 3.32157049,14.0063594 3.11782723,10.9317738 C4.4039566,12.6140942 6.55599485,13.7279064 8.97544614,13.7279064 L11.8787877,13.7279064 C15.8135795,13.7279064 19.022536,10.8041495 19.022536,7.2190666 L19.022536,6.6273539 C19.4300225,6.61575169 20.0412523,6.68536495 20.5378765,7.04503346 C21.2127761,7.54392848 21.518391,8.4953097 21.4674552,9.88757489 C21.4674552,9.98039257 21.5565928,16.0135417 17.1506447,18.7748677 Z" id="形状" fill="url(#linearGradient-1)" transform="translate(12.263533, 13.600282) rotate(45.000000) translate(-12.263533, -13.600282) "></path>
    </g>
</svg>