<?xml version="1.0" encoding="UTF-8"?>
<svg width="24px" height="25px" viewBox="0 0 24 25" version="1.1" xmlns="http://www.w3.org/2000/svg" xmlns:xlink="http://www.w3.org/1999/xlink">
    <title>美足@2x</title>
    <defs>
        <linearGradient x1="100%" y1="0%" x2="0%" y2="100%" id="linearGradient-1">
            <stop stop-color="#A3ACB3" offset="0%"></stop>
            <stop stop-color="#64676E" offset="100%"></stop>
        </linearGradient>
    </defs>
    <g id="页面-1" stroke="none" stroke-width="1" fill="none" fill-rule="evenodd" opacity="0.6">
        <path d="M5.13612382,5.14454089 C7.33108454,2.95113199 9.94410867,1.50395746 12.4896344,0.720249183 L23.2999759,11.5230191 C22.5177247,14.0756347 21.0668518,16.6979392 18.8637672,18.8994663 C16.7187535,21.0429635 14.1745702,22.4738855 11.684233,23.2693302 L0.743196687,12.3352846 C1.53849013,9.8322012 2.97288227,7.28835176 5.13612382,5.14454089 Z M0.206845362,14.5468242 L9.47477566,23.8082427 C6.21975968,24.3731452 3.28563392,23.8048304 1.74726269,22.2675468 C0.266179995,20.7875112 -0.299086032,18.0155701 0.150438533,14.9076812 L0.206845362,14.5468242 Z M14.7217802,0.203073639 C17.8980323,-0.305709713 20.7453943,0.270291939 22.2527373,1.77656929 C23.7597973,3.28256381 24.3186332,6.12617977 23.8249712,9.30027124 L14.7217802,0.203073639 Z M8.14913234,7.13826783 L9.30637576,8.35017409 C9.05891847,8.58372695 8.8119283,8.82596601 8.57088872,9.07141166 L8.21447774,9.44130013 L7.00171409,8.28487487 L6.85572489,8.44267878 L6.85572489,8.44267878 L6.71245204,8.60062857 L6.15565878,9.23330293 L7.40438493,10.333197 C7.1713675,10.5935086 6.94750951,10.8629732 6.73249955,11.1357999 L6.41658172,11.5468379 L5.11233532,10.5024248 C4.94240838,10.7271495 4.77248143,10.9518741 4.60866078,11.1827008 L4.36827283,11.5342799 L5.7084817,12.5221617 C5.46733044,12.8729781 5.23487152,13.2242613 5.01141635,13.5818021 L4.68302533,14.1235303 L5.69349408,14.7819051 C5.90856834,14.4296884 6.1241097,14.0861578 6.34560166,13.7458338 L6.68298797,13.2370678 L8.02319684,14.2249495 L8.67682764,13.3246506 L7.80161301,12.6295118 C7.65818439,12.5142675 7.51544121,12.3983383 7.37258124,12.2802376 C7.57952168,12.0185256 7.78646212,11.7568136 7.99950886,11.5012036 L8.32442198,11.1231279 L9.57314812,12.2230219 C9.73213859,12.036685 9.89112905,11.850348 10.0562258,11.670113 L10.309214,11.4050998 L9.09645028,10.2486745 C9.31783056,10.0137213 9.54790317,9.77923481 9.78666812,9.54521515 L10.1513348,9.19453575 L11.3085782,10.406442 C11.4813079,10.2338345 11.6631969,10.07038 11.8481392,9.9099764 L12.1270791,9.67089657 L11.0264069,8.42305326 C11.3986438,8.09226788 11.7914895,7.78207666 12.1843352,7.47188547 L12.8799659,8.34648132 C12.9952916,8.48980853 13.1113029,8.63245079 13.2294872,8.77520976 L13.3792782,8.65956223 L13.3792782,8.65956223 L13.529332,8.54880068 L14.130423,8.12204109 C13.7943769,7.67527053 13.4583307,7.2285 13.1048289,6.81976704 C13.4858965,6.56253395 13.8669641,6.30530084 14.2571695,6.06500099 L14.6507592,5.83097274 L13.9919186,4.82121836 C13.6264141,5.03544037 13.2700691,5.25881536 12.9170887,5.49103213 L12.389417,5.84594973 L11.4008363,4.50668838 C11.1622135,4.66276573 10.9327502,4.82799605 10.7063399,4.99627736 L10.3682512,5.25022483 L11.4134031,6.55354914 L10.5964932,7.21123007 L10.5964932,7.21123007 L10.1989036,7.54065401 L9.09823141,6.2928107 C8.88708695,6.47634695 8.67594249,6.65988322 8.46510943,6.84921028 L8.14913234,7.13826783 Z" id="美足" fill="url(#linearGradient-1)" transform="translate(12.000000, 12.022058) rotate(-360.000000) translate(-12.000000, -12.022058) "></path>
    </g>
</svg>