<?xml version="1.0" encoding="UTF-8"?>
<svg width="10px" height="10px" viewBox="0 0 10 10" version="1.1" xmlns="http://www.w3.org/2000/svg" xmlns:xlink="http://www.w3.org/1999/xlink">
    <title>星形备份 41@2x</title>
    <g id="页面-1" stroke="none" stroke-width="1" fill="none" fill-rule="evenodd">
        <g id="白色赛马详情" transform="translate(-1101.000000, -287.000000)" fill="#999999">
            <g id="编组-2" transform="translate(413.000000, 152.000000)">
                <g id="编组-7" transform="translate(300.000000, 4.000000)">
                    <path d="M392.999973,138.887838 L390.355071,140.239735 C390.154163,140.342426 389.90567,140.267327 389.800047,140.071998 C389.757987,139.994217 389.743473,139.905125 389.758752,139.818515 L390.263884,136.955152 L388.124113,134.927307 C387.961575,134.773271 387.958249,134.520296 388.116684,134.362271 C388.179774,134.299345 388.262441,134.258394 388.351886,134.245758 L391.308977,133.827999 L392.631428,131.222825 C392.731882,131.024935 392.978319,130.943686 393.181861,131.041351 C393.262913,131.080241 393.328517,131.144024 393.368518,131.222825 L394.69097,133.827999 L397.64806,134.245758 C397.872682,134.277491 398.028315,134.480251 397.995675,134.698636 C397.982678,134.785598 397.940557,134.865969 397.875834,134.927307 L395.736063,136.955152 L396.241194,139.818515 C396.279564,140.036017 396.129313,140.242578 395.905599,140.279883 C395.816515,140.294738 395.724878,140.280627 395.644876,140.239735 L392.999973,138.887838 Z" id="星形备份-41"></path>
                </g>
            </g>
        </g>
    </g>
</svg>