<?xml version="1.0" encoding="UTF-8"?>
<svg width="128px" height="36px" viewBox="0 0 128 36" version="1.1" xmlns="http://www.w3.org/2000/svg" xmlns:xlink="http://www.w3.org/1999/xlink">
    <!-- Generator: Sketch 61.1 (89650) - https://sketch.com -->
    <title>编组</title>
    <desc>Created with Sketch.</desc>
    <g id="页面-1" stroke="none" stroke-width="1" fill="none" fill-rule="evenodd">
        <g id="滚球（有投注项时）备份-3" transform="translate(-45.000000, -13.000000)">
            <g id="编组" transform="translate(45.000000, 13.000000)">
                <path d="M25.47675,7.91090357 C25.2858214,7.86558214 25.1469643,8.08351071 25.2646071,8.239725 C26.1626786,9.43158214 26.9987143,10.6941536 27.7601786,12.0078321 C28.8546429,13.8981536 29.7777857,15.8662607 30.50325,17.8575107 C30.9651429,19.1239393 31.3412143,20.3800821 31.6211786,21.591225 C31.6391786,21.6555107 31.6404643,21.7377964 31.6211786,21.8171893 C31.2245357,23.3333679 30.71925,24.8045464 30.1130357,26.210475 C30.0371786,26.3869393 30.2158929,26.5662964 30.39075,26.4862607 C31.8015,25.8398679 33.0544286,25.0870821 34.09425,24.2613321 C34.5503571,23.8987607 34.7779286,23.3198679 34.7068929,22.7416179 C34.3227857,19.6189393 33.0409286,16.2571179 31.041,13.1617607 L31.0091786,13.1138679 C29.9523214,11.4861536 28.7096786,9.940725 27.31275,8.51679643 C27.2127857,8.41490357 27.0893571,8.34001071 26.9521071,8.29983214 C26.4796071,8.16161786 25.9868571,8.03143929 25.47675,7.91090357" id="Fill-1" fill="#EFCC6F"></path>
                <path d="M22.0575214,30.187575 C22.1922,30.0455036 22.0739143,29.8156821 21.8791286,29.8391464 C20.3979857,30.0181821 18.8863071,30.1078607 17.3678786,30.1072179 C15.18345,30.1059321 13.0179857,29.9169321 10.9315929,29.5453607 C9.60409286,29.3097536 8.32866429,29.0047179 7.14066429,28.6392536 C7.07637857,28.6225393 7.00437857,28.5823607 6.94523571,28.5261107 C5.83277143,27.4220036 4.81384286,26.2465393 3.90195,25.017075 C3.7872,24.8627893 3.54195,24.9283607 3.52362857,25.1192893 C3.37512857,26.664075 3.39762857,28.1252893 3.59048571,29.4386464 C3.67502143,30.0133607 4.05623571,30.5000036 4.59012857,30.7282179 C7.48555714,31.9647536 11.0395929,32.5439679 14.7238071,32.3662179 L14.7810214,32.3630036 C16.7192357,32.2652893 18.6793071,31.9657179 20.6120571,31.4720036 C20.7505929,31.4366464 20.8769143,31.3672179 20.9804143,31.2688607 C21.3375214,30.9294321 21.6972,30.5684679 22.0575214,30.187575" id="Fill-3" fill="#EFCC6F"></path>
                <path d="M20.0025,3.73853571 L19.9449643,3.74175 C18.00675,3.84075 16.047,4.14160714 14.1148929,4.63692857 L14.1148929,4.63692857 C13.9763571,4.67260714 13.8497143,4.74203571 13.7462143,4.84039286 L13.7462143,4.84039286 C13.3894286,5.17982143 13.0303929,5.54110714 12.6700714,5.92232143 L12.6700714,5.92232143 C12.5357143,6.06439286 12.6543214,6.29421429 12.8484643,6.27042857 L12.8484643,6.27042857 C14.3296071,6.09042857 15.8416071,5.99978571 17.3597143,5.99946429 L17.3597143,5.99946429 C19.5441429,5.99946429 21.7096071,6.18685714 23.7963214,6.55682143 L23.7963214,6.55682143 C25.1238214,6.79178571 26.3995714,7.09617857 27.5878929,7.46067857 L27.5878929,7.46067857 C27.6521786,7.47739286 27.7241786,7.51757143 27.7836429,7.57382143 L27.7836429,7.57382143 C28.89675,8.67696429 29.9166429,9.85146429 30.8291786,11.0806071 L30.8291786,11.0806071 C30.9436071,11.2348929 31.1891786,11.1693214 31.2071786,10.9780714 L31.2071786,10.9780714 C31.3547143,9.43360714 31.33125,7.97207143 31.13775,6.65903571 L31.13775,6.65903571 C31.0532143,6.08432143 30.6716786,5.598 30.1368214,5.37010714 L30.1368214,5.37010714 C27.5882143,4.28335714 24.5291786,3.70639286 21.321,3.70639286 L21.321,3.70639286 C20.8838571,3.70639286 20.4441429,3.717 20.0025,3.73853571" id="Fill-5" fill="#B2997F"></path>
                <path d="M15.4992857,13.70925 L12.3181071,17.1208929 C11.9304643,17.5371429 11.8693929,18.1613571 12.1696071,18.6444643 L12.1696071,18.6444643 L14.292,22.0573929 C14.5896429,22.5366429 15.1691786,22.7590714 15.7111071,22.6022143 L15.7111071,22.6022143 L19.9144286,21.3849643 C20.4075,21.2425714 20.7646071,20.8150714 20.817,20.304 L20.817,20.304 L21.1969286,16.5953571 C21.249,16.0884643 20.99025,15.6002143 20.5415357,15.3585 L20.5415357,15.3585 L17.0173929,13.4595 C16.8290357,13.3579286 16.6239643,13.30875 16.4205,13.30875 L16.4205,13.30875 C16.0797857,13.30875 15.7438929,13.4469643 15.4992857,13.70925" id="Fill-7" fill="#EFCC6F"></path>
                <path d="M23.3990357,10.8867857 L23.6446071,14.2736786 C23.661,14.5002857 23.7686786,14.7108214 23.9428929,14.85675 L23.9428929,14.85675 L26.7717857,17.2215 C26.9816786,17.397 27.3011786,17.3278929 27.4191429,17.0807143 L27.4191429,17.0807143 L28.0539643,15.7545 C28.161,15.5307857 28.1645357,15.2697857 28.0610357,15.0444643 L28.0610357,15.0444643 C27.61425,14.0740714 27.2185714,13.3299643 26.6461071,12.3377143 L26.6461071,12.3377143 C26.3115,11.7581786 26.1003214,11.4004286 25.7882143,10.9205357 L25.7882143,10.9205357 C25.6464643,10.7019643 25.40925,10.5611786 25.1495357,10.5406071 L25.1495357,10.5406071 L23.8503214,10.4380714 C23.8390714,10.4371071 23.8278214,10.4367857 23.8168929,10.4367857 L23.8168929,10.4367857 C23.5758214,10.4367857 23.3810357,10.6418571 23.3990357,10.8867857" id="Fill-9" fill="#EFCC6F"></path>
                <path d="M29.8060714,20.02275 C29.2213929,21.3958929 28.5441429,22.7507143 27.7855714,24.0656786 L27.7855714,24.0656786 C26.6936786,25.9572857 25.4484643,27.7392857 24.0846429,29.3615357 L24.0846429,29.3615357 C23.21775,30.3936429 22.3164643,31.3463571 21.4068214,32.1933214 L21.4068214,32.1933214 C21.3598929,32.2408929 21.2895,32.283 21.2110714,32.3061429 L21.2110714,32.3061429 C19.6990714,32.7188571 18.1716429,33.0145714 16.6509643,33.1910357 L16.6509643,33.1910357 C16.4600357,33.2132143 16.3944643,33.4581429 16.5513214,33.57 L16.5513214,33.57 C17.8148571,34.4696786 19.0925357,35.1800357 20.3265,35.6686071 L20.3265,35.6686071 C20.5190357,35.7447857 20.7205714,35.7827143 20.9211429,35.7843214 L20.9211429,35.7843214 L20.9478214,35.7843214 C21.3017143,35.7814286 21.6514286,35.6650714 21.9432857,35.4461786 L21.9432857,35.4461786 C24.4603929,33.5555357 26.7364286,30.7652143 28.4223214,27.4847143 L28.4223214,27.4847143 L28.4480357,27.4332857 C29.3313214,25.7049643 30.0503571,23.8570714 30.5874643,21.9362143 L30.5874643,21.9362143 C30.6260357,21.7986429 30.62925,21.6543214 30.5958214,21.5151429 L30.5958214,21.5151429 C30.4801071,21.0368571 30.3467143,20.54475 30.1969286,20.0426786 L30.1969286,20.0426786 C30.1676786,19.9446429 30.0834643,19.8945 29.9986071,19.8945 L29.9986071,19.8945 C29.9208214,19.8945 29.8427143,19.9366071 29.8060714,20.02275" id="Fill-11" fill="#B2997F"></path>
                <path d="M4.34475,9.58114286 C2.93142857,10.2214286 1.67464286,10.9681071 0.631607143,11.7893571 L0.631607143,11.7893571 C0.173571429,12.1496786 -0.0565714286,12.7272857 0.0122142857,13.3061786 L0.0122142857,13.3061786 C0.381535714,16.4304643 1.64796429,19.7980714 3.63439286,22.9024286 L3.63439286,22.9024286 L3.66589286,22.9506429 C4.71503571,24.5828571 5.95092857,26.1340714 7.34110714,27.5641071 L7.34110714,27.5641071 C7.44075,27.6666429 7.56385714,27.7418571 7.70078571,27.7826786 L7.70078571,27.7826786 C8.17264286,27.9231429 8.66539286,28.0555714 9.17485714,28.1786786 L9.17485714,28.1786786 C9.36514286,28.2246429 9.50496429,28.0073571 9.38828571,27.8508214 L9.38828571,27.8508214 C8.49567857,26.6547857 7.66510714,25.3886786 6.90975,24.0714643 L6.90975,24.0714643 C5.82396429,22.176 4.90982143,20.2037143 4.19335714,18.20925 L4.19335714,18.20925 C3.73692857,16.9408929 3.36664286,15.6828214 3.09214286,14.4703929 L3.09214286,14.4703929 C3.07478571,14.4064286 3.07382143,14.3238214 3.09342857,14.2444286 L3.09342857,14.2444286 C3.49682143,12.7301786 4.00885714,11.26125 4.6215,9.85821429 L4.6215,9.85821429 C4.68546429,9.71132143 4.57264286,9.56185714 4.43153571,9.56185714 L4.43153571,9.56185714 C4.40357143,9.56185714 4.374,9.56796429 4.34475,9.58114286" id="Fill-13" fill="#B2997F"></path>
                <path d="M4.52237143,16.0511464 C4.5783,16.2388607 4.83640714,16.2513964 4.91355,16.071075 C5.49983571,14.6992179 6.17837143,13.3453607 6.93919286,12.0313607 C8.03365714,10.1407179 9.2808,8.36064643 10.64655,6.74000357 C11.51505,5.70886071 12.4173,4.75743214 13.3282286,3.91143214 C13.3748357,3.86418214 13.4458714,3.822075 13.5243,3.79893214 C15.0366214,3.38846786 16.56405,3.09436071 18.08505,2.92014643 C18.2759786,2.89828929 18.3418714,2.65336071 18.1856571,2.54150357 C16.9227643,1.64021786 15.64605,0.928253571 14.41305,0.437753571 C13.87305,0.223360714 13.26105,0.309825 12.7959429,0.658253571 C10.2762643,2.54568214 7.99669286,5.33311071 6.30662143,8.61136071 L6.28058571,8.66278929 C5.39537143,10.3895036 4.67376429,12.2367536 4.13408571,14.1569679 C4.09551429,14.2945393 4.09197857,14.4388607 4.12540714,14.5777179 C4.24047857,15.056325 4.37322857,15.5487536 4.52237143,16.0511464" id="Fill-15" fill="#EFCC6F"></path>
                <path d="M55.8419786,20.2203321 C55.9062643,20.2203321 55.9567286,20.2611536 55.9676571,20.3225464 L55.9676571,20.3225464 L56.5025143,23.3449393 C56.5102286,23.391225 56.4951214,23.4400821 56.4607286,23.4796179 C56.4266571,23.5185107 56.3787643,23.5413321 56.33055,23.5413321 L56.33055,23.5413321 L53.4791571,23.5413321 C53.4142286,23.5413321 53.3640857,23.5005107 53.3534786,23.4387964 L53.3534786,23.4387964 L52.8186214,20.4160821 C52.8105857,20.3701179 52.8256929,20.3212607 52.8597643,20.2823679 C52.8941571,20.2431536 52.94205,20.2203321 52.9902643,20.2203321 L52.9902643,20.2203321 Z M46.3699286,20.2204607 C46.4184643,20.2204607 46.4586429,20.2423179 46.4811429,20.2815321 C46.5036429,20.3201036 46.5042857,20.3689607 46.4830714,20.4146036 L46.4830714,20.4146036 L45.06075,23.4369964 C45.0311786,23.4993536 44.9675357,23.5414607 44.9022857,23.5414607 L44.9022857,23.5414607 L42.0476786,23.5414607 C41.9994643,23.5414607 41.9586429,23.5192821 41.9361429,23.4803893 C41.9146071,23.441175 41.9136429,23.3929607 41.9351786,23.3473179 L41.9351786,23.3473179 L43.3575,20.3239607 C43.3870714,20.261925 43.4503929,20.2204607 43.5156429,20.2204607 L43.5156429,20.2204607 Z M50.9954464,20.2203 C51.0600536,20.2203 51.1108393,20.2617643 51.1217679,20.3228357 L51.1217679,20.3228357 L51.6379821,23.34555 C51.645375,23.3918357 51.6302679,23.4406929 51.5955536,23.4795857 C51.5618036,23.5184786 51.5139107,23.5413 51.4656964,23.5413 L51.4656964,23.5413 L48.6339107,23.5413 C48.5693036,23.5413 48.5191607,23.5008 48.5082321,23.4387643 L48.5082321,23.4387643 L47.9736964,20.41605 C47.9653393,20.3700857 47.9804464,20.3212286 48.0148393,20.2823357 C48.0492321,20.2431214 48.097125,20.2203 48.1453393,20.2203 L48.1453393,20.2203 Z M84.4728429,12.3085929 C84.5548071,12.3085929 84.6113786,12.37545 84.5985214,12.4577357 L84.5985214,12.4577357 L83.2848429,20.9450571 C83.2285929,21.3069857 83.1141643,21.64995 82.9438071,21.9646286 C82.77345,22.2780214 82.5603429,22.5567 82.3105929,22.7916643 C82.0611643,23.0250214 81.7808786,23.2101643 81.4761643,23.3432357 C81.1740214,23.4750214 80.8561286,23.5412357 80.5302,23.5412357 L80.5302,23.5412357 L71.1387,23.5412357 C71.0567357,23.5412357 71.0004857,23.4743786 71.0130214,23.3920929 L71.0130214,23.3920929 L72.58995,13.2050571 L72.7056643,12.4577357 C72.7182,12.37545 72.7956643,12.3085929 72.8776286,12.3085929 L72.8776286,12.3085929 Z M69.2737071,5.79500357 C69.3206357,5.79500357 69.3621,5.81750357 69.3839571,5.856075 L69.3839571,5.856075 L69.9927429,6.91421786 L70.7747786,5.86796786 C70.8085286,5.82296786 70.8622071,5.79500357 70.9146,5.79500357 L70.9146,5.79500357 L74.1337071,5.79500357 L72.8843143,7.44200357 L75.0060643,7.44200357 L74.8279929,5.79500357 L77.5472786,5.79500357 C77.6141357,5.79500357 77.6658857,5.84000357 77.6739214,5.90461071 L77.6739214,5.90461071 L77.86035,7.44200357 L81.5892429,7.44200357 L82.2549214,5.90461071 C82.2828857,5.84000357 82.3487786,5.79500357 82.4149929,5.79500357 L82.4149929,5.79500357 L84.9398143,5.79500357 C84.9864214,5.79500357 85.0259571,5.81621786 85.0491,5.85318214 C85.0719214,5.889825 85.07385,5.937075 85.0545643,5.98175357 L85.0545643,5.98175357 L84.4441714,7.44200357 L88.3919571,7.44200357 L89.2164214,5.89143214 C89.2466357,5.833575 89.3086714,5.79500357 89.3703857,5.79500357 L89.3703857,5.79500357 L91.7814214,5.79500357 C91.8306,5.79500357 91.8717429,5.81814643 91.8942429,5.85896786 C91.9161,5.89978929 91.9144929,5.94993214 91.8900643,5.99653929 L91.8900643,5.99653929 L90.7396714,8.17036071 L90.7287429,8.17036071 L89.9753143,13.0374321 L88.6854214,21.3688607 L90.3488143,21.3688607 L93.1976357,9.63961071 L92.1089571,9.63961071 C92.0266714,9.63961071 91.9697786,9.57243214 91.9826357,9.49046786 L91.9826357,9.49046786 L92.2690286,7.64128929 C92.2815643,7.559325 92.3590286,7.49214643 92.4413143,7.49214643 L92.4413143,7.49214643 L97.7284929,7.49214643 L97.9682786,5.94414643 C97.9808143,5.86186071 98.0579571,5.79500357 98.1402429,5.79500357 L98.1402429,5.79500357 L100.6371,5.79500357 C100.719064,5.79500357 100.775957,5.86186071 100.762779,5.94414643 L100.762779,5.94414643 L100.523314,7.49214643 L105.810814,7.49214643 C105.892779,7.49214643 105.94935,7.559325 105.936493,7.64128929 L105.936493,7.64128929 L105.650743,9.49046786 C105.637564,9.57243214 105.560421,9.63961071 105.478136,9.63961071 L105.478136,9.63961071 L104.480421,9.63961071 L103.678779,21.3688607 L106.487743,21.3688607 L107.6661,13.7561464 C107.678957,13.6738607 107.7561,13.6070036 107.838386,13.6070036 L107.838386,13.6070036 L124.275279,13.6070036 C124.534993,13.6070036 124.765779,13.6526464 124.963457,13.7416821 C125.228314,13.8609321 125.445279,14.0300036 125.606957,14.2443964 C125.75385,14.4388607 125.860886,14.6754321 125.92485,14.9470393 C125.988493,15.2202536 125.998136,15.5082536 125.952493,15.803325 L125.952493,15.803325 L125.156314,20.9452179 C125.100386,21.3071464 124.985636,21.6501107 124.815279,21.9644679 C124.645564,22.2775393 124.433743,22.5507536 124.186243,22.7770393 C123.93585,23.0042893 123.655243,23.1865393 123.351171,23.3180036 C123.048707,23.4497893 122.726957,23.5413964 122.401993,23.5413964 L122.401993,23.5413964 L121.087671,23.5413964 C121.036243,23.5413964 120.993171,23.5153607 120.971957,23.471325 L120.971957,23.471325 L120.378921,22.1923607 L121.245493,22.1923607 C121.4856,22.1923607 121.705779,22.1004321 121.898636,21.918825 C122.087314,21.7417179 122.203671,21.5231464 122.242886,21.2698607 L122.242886,21.2698607 L122.320029,20.7710036 L109.443279,20.7710036 L109.037636,23.3922536 C109.024779,23.4742179 108.947314,23.5413964 108.86535,23.5413964 L108.86535,23.5413964 L101.1456,23.5413964 C101.067493,23.5413964 101.013171,23.482575 101.017671,23.4051107 L101.017671,23.4051107 L101.937921,9.63961071 L100.190957,9.63961071 L98.7577071,18.8977179 L100.200921,18.8977179 C100.282886,18.8977179 100.339779,18.964575 100.326921,19.0468607 L100.326921,19.0468607 L100.040529,20.8960393 C100.027993,20.978325 99.9505286,21.0455036 99.8682429,21.0455036 L99.8682429,21.0455036 L98.42535,21.0455036 L98.0621357,23.3922536 C98.0492786,23.4742179 97.9721357,23.5413964 97.88985,23.5413964 L97.88985,23.5413964 L95.3929929,23.5413964 C95.31135,23.5413964 95.2544571,23.4742179 95.2673143,23.3922536 L95.2673143,23.3922536 L95.6305286,21.0455036 L94.1869929,21.0455036 C94.10535,21.0455036 94.0484571,20.978325 94.0613143,20.8960393 L94.0613143,20.8960393 L94.3473857,19.0468607 C94.3602429,18.964575 94.4377071,18.8977179 94.5196714,18.8977179 L94.5196714,18.8977179 L95.9628857,18.8977179 L97.3961357,9.63961071 L95.7195643,9.63961071 L92.3976,23.4044679 C92.3786357,23.482575 92.3059929,23.5413964 92.2278857,23.5413964 L92.2278857,23.5413964 L85.8626357,23.5413964 C85.78035,23.5413964 85.7237786,23.4742179 85.7366357,23.3922536 L85.7366357,23.3922536 L87.3396,13.0374321 L87.4601357,12.2598964 L87.8693143,9.61453929 L83.5290643,9.61453929 L82.8746357,11.103075 C82.8466714,11.1670393 82.7804571,11.2113964 82.7139214,11.2113964 L82.7139214,11.2113964 L80.1903857,11.2113964 C80.1434571,11.2113964 80.1036,11.1901821 80.0807786,11.1528964 C80.0579571,11.1159321 80.0560286,11.0686821 80.0753143,11.0233607 L80.0753143,11.0233607 L80.6741357,9.61453929 L78.0994929,9.61453929 L78.2823857,11.0214321 C78.2884929,11.0667536 78.2724214,11.1146464 78.2377071,11.1522536 C78.2036357,11.1898607 78.1570286,11.2113964 78.1097786,11.2113964 L78.1097786,11.2113964 L75.5717786,11.2113964 C75.5042786,11.2113964 75.4518857,11.166075 75.4444929,11.1014679 L75.4444929,11.1014679 L75.2725286,9.61453929 L71.2357071,9.61453929 L71.0033143,9.92150357 L70.3980643,13.8313607 L72.1077429,13.8313607 L69.9676714,16.6104321 L69.3007071,20.9201464 C69.2444571,21.282075 69.1297071,21.6250393 68.9590286,21.939075 C68.7886714,22.2543964 68.5784571,22.5333964 68.3351357,22.7680393 C68.0927786,23.0023607 67.8131357,23.212575 67.52385,23.3443607 C67.2384214,23.4748607 66.9359571,23.5413964 66.6264214,23.5413964 L66.6264214,23.5413964 L58.3252071,23.5413964 C58.2606,23.5413964 58.2101357,23.4999321 58.1992071,23.437575 L58.1992071,23.437575 L57.6829929,20.4155036 C57.6756,20.3695393 57.6907071,20.321325 57.7247786,20.2824321 C57.7591714,20.2428964 57.8070643,20.2203964 57.8552786,20.2203964 L57.8552786,20.2203964 L60.6870643,20.2203964 C60.7516714,20.2203964 60.8018143,20.2612179 60.8127429,20.3226107 L60.8127429,20.3226107 L61.0464214,21.6430393 L65.7662786,21.6430393 C65.9919214,21.6430393 66.2037429,21.5511107 66.3966,21.369825 C66.5856,21.192075 66.7019571,20.9735036 66.7411714,20.7202179 L66.7411714,20.7202179 L66.8916,19.7478964 L64.5024214,19.7478964 C64.4236714,19.7478964 64.3934571,19.6942179 64.3841357,19.6713964 C64.3748143,19.6482536 64.3590643,19.5868607 64.4104929,19.5200036 L64.4104929,19.5200036 L67.5576,15.4468607 L67.91535,13.1338607 L65.5197429,13.1338607 C65.4409929,13.1338607 65.4107786,13.080825 65.4014571,13.0580036 C65.3921357,13.0355036 65.3760643,12.9747536 65.4271714,12.907575 L65.4271714,12.907575 L68.1760286,9.28346786 L66.4046357,6.02964643 C66.3789214,5.98303929 66.3843857,5.92550357 66.4184571,5.87536071 C66.4525286,5.82489643 66.5065286,5.79500357 66.5631,5.79500357 L66.5631,5.79500357 Z M80.8632,18.9740571 L78.9725571,18.9740571 L78.60195,21.3687 L79.6385571,21.3687 C79.8780214,21.3687 80.0972357,21.2767714 80.2913786,21.0948429 C80.4803786,20.9177357 80.5973786,20.6911286 80.6391643,20.4208071 L80.6391643,20.4208071 L80.8632,18.9740571 Z M76.3824857,18.9740571 L74.4918429,18.9740571 L74.1209143,21.3687 L76.0115571,21.3687 L76.3824857,18.9740571 Z M122.744957,18.0256821 L109.868529,18.0256821 L109.655743,19.3972179 L122.532493,19.3972179 L122.744957,18.0256821 Z M53.4059679,10.7361321 C53.4882536,10.7361321 53.5445036,10.8029893 53.5316464,10.885275 L53.5316464,10.885275 L52.6933607,16.3029536 C52.6345393,16.6819179 52.5168964,17.0428821 52.343325,17.374275 C52.1694321,17.7056679 51.9531107,18.0010607 51.6991821,18.2530607 C51.447825,18.5021679 51.1659321,18.699525 50.8602536,18.8396679 C50.5571464,18.9782036 50.2398964,19.0485964 49.9152536,19.0485964 L49.9152536,19.0485964 L48.340575,19.0485964 C48.2930036,19.0485964 48.252825,19.0264179 48.2300036,18.9881679 C48.2075036,18.9495964 48.2068607,18.9010607 48.2283964,18.8550964 L48.2283964,18.8550964 L48.6828964,17.8747393 L48.8008607,17.8747393 C49.0428964,17.8747393 49.2640393,17.7773464 49.4581821,17.5864179 C49.6471821,17.4009536 49.7641821,17.1708107 49.8056464,16.901775 L49.8056464,16.901775 L49.8287893,16.7526321 L46.1185393,16.7526321 L45.7865036,18.8994536 C45.7736464,18.9817393 45.6958607,19.0485964 45.6142179,19.0485964 L45.6142179,19.0485964 L43.1395393,19.0485964 C43.057575,19.0485964 43.0010036,18.9817393 43.0135393,18.8994536 L43.0135393,18.8994536 L44.2542536,10.885275 C44.2667893,10.8029893 44.3442536,10.7361321 44.4262179,10.7361321 L44.4262179,10.7361321 Z M62.9019643,12.97575 C62.9466429,12.9654643 62.9903571,12.978 63.0208929,13.0069286 C63.0511071,13.0355357 63.0642857,13.0773214 63.0575357,13.1223214 L63.0575357,13.1223214 L62.8698214,14.33475 C62.8588929,14.4057857 62.7987857,14.4668571 62.7267857,14.481 L62.7267857,14.481 L56.664,15.6310714 L56.5601786,16.3028571 C56.5183929,16.5722143 56.5640357,16.8020357 56.6955,16.9875 C56.8317857,17.1784286 57.0230357,17.2758214 57.2637857,17.2758214 L57.2637857,17.2758214 L61.8553929,17.2758214 C61.9235357,17.2758214 61.9759286,17.3221071 61.9823571,17.3870357 L61.9823571,17.3870357 L62.1041786,18.5364643 C62.109,18.5817857 62.0919643,18.6290357 62.0578929,18.6666429 C62.0235,18.7032857 61.9772143,18.7241786 61.9306071,18.7241786 L61.9306071,18.7241786 L55.7431071,18.7241786 C55.4184643,18.7241786 55.12275,18.6537857 54.8630357,18.5149286 C54.6001071,18.3751071 54.3783214,18.1812857 54.2021786,17.9389286 C54.0250714,17.6952857 53.9000357,17.4047143 53.8299643,17.0749286 C53.7586071,16.7445 53.7525,16.3845 53.8116429,16.0036071 L53.8116429,16.0036071 L54.2558571,13.1322857 C54.2687143,13.05 54.3461786,12.9828214 54.4281429,12.9828214 L54.4281429,12.9828214 L56.925,12.9828214 C57.0069643,12.9828214 57.0638571,13.05 57.051,13.1322857 L57.051,13.1322857 L56.8951071,14.1383571 Z M81.55845,14.48145 L79.6681286,14.48145 L79.3090929,16.8015214 L81.1997357,16.8015214 L81.55845,14.48145 Z M77.0777357,14.48145 L75.1870929,14.48145 L74.8280571,16.8015214 L76.7190214,16.8015214 L77.0777357,14.48145 Z M122.323564,15.2302179 L110.30085,15.2302179 L110.084529,16.626825 L122.961279,16.626825 L123.034886,16.1530393 C123.0741,15.8997536 123.025564,15.6811821 122.891529,15.504075 C122.7546,15.3221464 122.563671,15.2302179 122.323564,15.2302179 L122.323564,15.2302179 Z M50.1997179,14.357025 L46.4894679,14.357025 L46.3081821,15.5286321 L50.0184321,15.5286321 L50.1997179,14.357025 Z M50.5745036,11.9357036 L46.8639321,11.9357036 L46.6787893,13.1327036 L50.3893607,13.1327036 L50.5745036,11.9357036 Z M119.416082,5.79481071 C119.481332,5.79481071 119.531475,5.836275 119.542404,5.89798929 L119.542404,5.89798929 L119.744904,7.09241786 L127.561404,7.09241786 C127.643368,7.09241786 127.700261,7.159275 127.687725,7.24156071 L127.687725,7.24156071 L127.451154,8.76641786 C127.438618,8.84838214 127.361154,8.91523929 127.279189,8.91523929 L127.279189,8.91523929 L112.330189,8.91523929 L111.227046,10.8113464 L123.450332,10.8113464 L123.254582,9.91423929 C123.244296,9.86763214 123.258439,9.81781071 123.292832,9.77731071 C123.327546,9.73648929 123.375761,9.713025 123.424939,9.713025 L123.424939,9.713025 L125.854618,9.713025 C125.917618,9.713025 125.967761,9.75320357 125.979654,9.81298929 L125.979654,9.81298929 L126.535082,12.6611679 C126.544082,12.7071321 126.529618,12.7563107 126.495546,12.7961679 C126.460511,12.8363464 126.412939,12.8591679 126.363761,12.8591679 L126.363761,12.8591679 L123.845689,12.8591679 L123.775296,12.4345607 L107.730546,12.4345607 C107.680082,12.4345607 107.638618,12.4104536 107.616761,12.3689893 C107.594904,12.3272036 107.597475,12.2767393 107.623511,12.2298107 L107.623511,12.2298107 L109.464011,8.91523929 L107.881618,8.91523929 C107.799654,8.91523929 107.743082,8.84838214 107.755939,8.76641786 L107.755939,8.76641786 L107.991868,7.24156071 C108.004404,7.159275 108.081868,7.09241786 108.163832,7.09241786 L108.163832,7.09241786 L116.919225,7.09241786 L116.732154,5.98959643 C116.724439,5.94395357 116.739546,5.89573929 116.773296,5.85684643 C116.808332,5.81731071 116.855904,5.79481071 116.904439,5.79481071 L116.904439,5.79481071 Z M58.0375929,5.79481071 C58.1195571,5.79481071 58.17645,5.86198929 58.1635929,5.94395357 L58.1635929,5.94395357 L57.96945,7.199775 L63.9730929,6.06095357 C64.0364143,6.04906071 64.0740214,6.07573929 64.0917,6.09213214 C64.1215929,6.12073929 64.1350929,6.162525 64.1280214,6.207525 L64.1280214,6.207525 L63.9438429,7.39681071 C63.9329143,7.46784643 63.8728071,7.52956071 63.8004857,7.54306071 L63.8004857,7.54306071 L57.7383429,8.69248929 L57.6650571,9.16466786 C57.6235929,9.43338214 57.6689143,9.66320357 57.7997357,9.84866786 C57.9357,10.0399179 58.1275929,10.1373107 58.3686643,10.1373107 L58.3686643,10.1373107 L62.9605929,10.1373107 C63.0287357,10.1373107 63.0808071,10.183275 63.0875571,10.2488464 L63.0875571,10.2488464 L63.2087357,11.3989179 C63.2135571,11.4445607 63.1968429,11.4914893 63.1627714,11.5284536 C63.1283786,11.5650964 63.0820929,11.5863107 63.0354857,11.5863107 L63.0354857,11.5863107 L56.8479857,11.5863107 C56.5246286,11.5863107 56.2282714,11.5155964 55.9682357,11.3767393 C55.7056286,11.236275 55.4844857,11.0389179 55.3109143,10.7894893 C55.1334857,10.5374893 55.0087714,10.2420964 54.9390214,9.91134643 C54.8673429,9.58123929 54.8615571,9.22123929 54.9203786,8.84034643 L54.9203786,8.84034643 L55.3687714,5.94395357 C55.3816286,5.86198929 55.4587714,5.79481071 55.5410571,5.79481071 L55.5410571,5.79481071 Z M49.3722321,5.79506786 C49.422375,5.79506786 49.4638393,5.81853214 49.485375,5.859675 C49.5072321,5.90049643 49.5053036,5.95096071 49.4799107,5.99756786 L49.4799107,5.99756786 L48.2166964,8.34046071 L50.5595893,8.34046071 L50.4081964,6.829425 C50.4040179,6.784425 50.4207321,6.73749643 50.4548036,6.70085357 C50.4891964,6.66421071 50.5354821,6.64331786 50.5820893,6.64331786 L50.5820893,6.64331786 L53.5389107,6.64331786 C53.6064107,6.64331786 53.6588036,6.68896071 53.6655536,6.75453214 L53.6655536,6.75453214 L54.0040179,9.87688929 C54.0088393,9.92188929 53.9918036,9.96881786 53.9574107,10.0057821 C53.9233393,10.042425 53.8776964,10.0636393 53.8307679,10.0636393 L53.8307679,10.0636393 L50.7392679,10.0636393 L50.702625,9.71424643 L44.1448393,9.71424643 C44.0950179,9.71424643 44.0545179,9.69078214 44.0323393,9.65060357 C44.0104821,9.61010357 44.0114464,9.56028214 44.0355536,9.51335357 L44.0355536,9.51335357 L45.9249107,5.89278214 C45.955125,5.83428214 46.0174821,5.79506786 46.0798393,5.79506786 L46.0798393,5.79506786 Z" id="形状结合" fill="#B2997F"></path>
                <path d="M85.2058929,26.2948179 C85.94325,26.2948179 86.4237857,26.4828536 86.86575,26.9463536 L86.86575,26.9463536 L86.9589643,27.0443893 L86.3196429,27.5988536 L86.2344643,27.5088536 C85.9400357,27.1973893 85.6125,27.0707464 85.1027143,27.0707464 C84.4463571,27.0707464 83.9841429,27.4249607 83.8947857,27.995175 C83.8584643,28.2339964 83.8967143,28.4130321 84.0105,28.5252107 C84.1323214,28.647675 84.3753214,28.751175 84.6443571,28.7955321 L84.6443571,28.7955321 L85.2402857,28.888425 C85.7571429,28.9684607 86.0364643,29.0848179 86.2688571,29.3165679 C86.5655357,29.6058536 86.6818929,30.0266036 86.6050714,30.5325321 C86.4453214,31.5611036 85.54275,32.2248536 84.3049286,32.2248536 C83.4274286,32.2248536 82.8781071,31.9982464 82.4078571,31.4428179 L82.4078571,31.4428179 L82.3249286,31.3444607 L82.9915714,30.7681393 L83.0764286,30.8681036 C83.4242143,31.2808179 83.7835714,31.4338179 84.4026429,31.4338179 C85.1573571,31.4338179 85.6610357,31.0879607 85.7500714,30.5090679 C85.7905714,30.2503179 85.7471786,30.0417107 85.6279286,29.9224607 C85.4980714,29.7919607 85.3948929,29.7537107 85.0127143,29.6926393 L85.0127143,29.6926393 L84.3785357,29.590425 C83.9221071,29.5168179 83.5752857,29.3618893 83.3457857,29.131425 C83.0735357,28.8511393 82.97325,28.4634964 83.0468571,27.9791036 C83.2062857,26.9553536 84.0535714,26.2948179 85.2058929,26.2948179 Z M100.356525,26.2946893 C100.949239,26.2946893 101.444561,26.5113321 101.791061,26.9201893 C102.272561,27.490725 102.180311,28.0882607 101.996132,29.2791536 C101.812918,30.4626536 101.720989,31.0572964 101.078454,31.6136893 C100.616239,32.013225 100.063061,32.224725 99.4780607,32.224725 C98.8847036,32.224725 98.3890607,32.0084036 98.0428821,31.5995464 C97.5613821,31.0280464 97.6536321,30.4311536 97.8384536,29.2396179 C98.0216679,28.0561179 98.1135964,27.4621179 98.7558107,26.905725 C99.2173821,26.5061893 99.7705607,26.2946893 100.356525,26.2946893 Z M122.587971,26.2948179 C123.325329,26.2948179 123.805543,26.4828536 124.247829,26.9463536 L124.247829,26.9463536 L124.340721,27.0443893 L123.7014,27.5988536 L123.616543,27.5088536 C123.322114,27.1973893 122.994579,27.0707464 122.484793,27.0707464 C121.828114,27.0707464 121.366221,27.4249607 121.276864,27.995175 C121.240543,28.2339964 121.278793,28.4130321 121.392257,28.5252107 C121.5144,28.647675 121.7574,28.751175 122.026436,28.7955321 L122.026436,28.7955321 L122.622364,28.8897107 C123.139221,28.9684607 123.418221,29.0848179 123.650936,29.3165679 C123.948579,29.6068179 124.064614,30.0278893 123.985864,30.533175 C123.827079,31.5611036 122.924507,32.2248536 121.686686,32.2248536 C120.809507,32.2248536 120.260186,31.9982464 119.789614,31.4428179 L119.789614,31.4428179 L119.706686,31.3444607 L120.374614,30.7691036 L120.459471,30.8681036 C120.807257,31.2808179 121.166293,31.4338179 121.784721,31.4338179 C122.539436,31.4338179 123.042793,31.0879607 123.13215,30.5090679 C123.173614,30.2503179 123.130221,30.042675 123.009686,29.923425 C122.88015,29.7919607 122.776971,29.7537107 122.394793,29.6926393 L122.394793,29.6926393 L121.760293,29.590425 C121.304186,29.5168179 120.957043,29.3618893 120.728507,29.131425 C120.455614,28.8511393 120.355329,28.4634964 120.431186,27.9781393 C120.589007,26.9553536 121.43565,26.2948179 122.587971,26.2948179 Z M43.7438893,26.3413286 C44.3034964,26.3413286 44.7515679,26.5194 45.0398893,26.8562571 C45.3159964,27.1780071 45.419175,27.6180429 45.3413893,28.1287929 C45.178425,29.1779357 44.3327464,29.8828286 43.2350679,29.8828286 L43.2350679,29.8828286 L41.866425,29.8828286 L41.5115679,32.17815 L40.653675,32.17815 L41.495175,26.7379714 C41.5305321,26.5152214 41.7330321,26.3413286 41.9557821,26.3413286 L41.9557821,26.3413286 Z M50.8201714,26.3413607 L50.8413857,26.443575 L52.0560643,32.1781821 L51.1557429,32.1781821 L50.9040643,30.9168964 L48.6540643,30.9168964 L48.0128143,32.1781821 L47.0842071,32.1781821 L50.1355286,26.3413607 L50.8201714,26.3413607 Z M56.9674607,26.3412643 L57.0037821,26.4119786 L59.0927464,30.5130857 L59.738175,26.3412643 L60.5951036,26.3412643 L59.6925321,32.1784071 L58.937175,32.1784071 L58.9014964,32.1073714 L56.8157464,27.9934071 L56.1680679,32.1784071 L55.3104964,32.1784071 L56.2127464,26.3412643 L56.9674607,26.3412643 Z M66.6342,26.3412643 C67.2561643,26.3412643 67.7498786,26.5354071 68.0626286,26.9037643 C68.5672714,27.5025857 68.4325929,28.3553357 68.3143071,29.1071571 L68.3143071,29.1071571 L68.27895,29.3356929 C68.1622714,30.0984429 68.0166643,31.0485857 67.3452,31.63005 C66.9283071,31.9890857 66.3841286,32.1784071 65.7702,32.1784071 L65.7702,32.1784071 L63.7085571,32.1784071 L64.6108071,26.3412643 Z M74.5245643,26.3413607 L74.5457786,26.443575 L75.7604571,32.1781821 L74.8601357,32.1781821 L74.6081357,30.9168964 L72.3584571,30.9168964 L71.7172071,32.1781821 L70.7895643,32.1781821 L73.8396,26.3413607 L74.5245643,26.3413607 Z M93.087225,26.3413286 C93.6461893,26.3413286 94.0955464,26.5194 94.3838679,26.8562571 C94.6590107,27.1780071 94.763475,27.6180429 94.6834393,28.1287929 C94.5214393,29.1779357 93.6757607,29.8828286 92.5790464,29.8828286 L92.5790464,29.8828286 L91.2094393,29.8828286 L90.8545821,32.17815 L89.9966893,32.17815 L90.8999036,26.3413286 Z M108.50355,26.341425 C109.047729,26.341425 109.481657,26.512425 109.75905,26.8361036 C110.02005,27.1404964 110.118086,27.5573893 110.044157,28.0427464 L110.044157,28.0427464 C109.921693,28.827675 109.402907,29.4043179 108.642407,29.610675 L108.642407,29.610675 L109.589014,32.1782464 L108.6138,32.1782464 L108.582621,32.092425 L107.728907,29.7026036 L106.591693,29.7026036 L106.208229,32.1782464 L105.350657,32.1782464 L106.253871,26.341425 Z M117.568254,26.3415214 L117.447075,27.1335214 L115.832539,27.1335214 L115.052754,32.1783429 L114.194861,32.1783429 L114.975932,27.1335214 L113.362039,27.1335214 L113.484504,26.3415214 L117.568254,26.3415214 Z M100.273275,27.085725 C99.9393107,27.085725 99.5966679,27.2194393 99.3347036,27.4531179 C98.9653821,27.7790464 98.8705607,28.1155821 98.6889536,29.2801179 C98.511525,30.4340464 98.5012393,30.7670464 98.759025,31.081725 C98.9409536,31.3051179 99.233775,31.4336893 99.560025,31.4336893 C99.8949536,31.4336893 100.238239,31.3002964 100.499882,31.0666179 C100.870168,30.7387607 100.964025,30.4028679 101.143382,29.2396179 C101.323704,28.0853679 101.333668,27.7526893 101.074275,27.4380107 C100.891382,27.2142964 100.599204,27.085725 100.273275,27.085725 Z M66.4487357,27.1335857 L65.3465571,27.1335857 L64.68795,31.3860857 L65.7509143,31.3860857 C66.1890214,31.3860857 66.5400214,31.2636214 66.8241643,31.0119429 C67.2179143,30.6590143 67.3329857,29.9133 67.4342357,29.2566214 L67.4342357,29.2566214 L67.4583429,29.1000857 C67.5557357,28.4768357 67.6557,27.8314071 67.3818429,27.4926214 C67.1841643,27.2509071 66.8788071,27.1335857 66.4487357,27.1335857 L66.4487357,27.1335857 Z M50.2859571,27.717075 L49.0455643,30.1409679 L50.7603857,30.1409679 L50.2859571,27.717075 Z M73.9900286,27.717075 L72.7509214,30.1409679 L74.4647786,30.1409679 L73.9900286,27.717075 Z M43.6063179,27.13365 L42.2923179,27.13365 L41.987925,29.0908286 L43.2623893,29.0908286 C43.943175,29.0908286 44.3915679,28.7256857 44.4905679,28.0882929 C44.5362107,27.7929 44.4883179,27.5614714 44.3501036,27.3994714 C44.2012821,27.2255786 43.9444607,27.13365 43.6063179,27.13365 L43.6063179,27.13365 Z M92.9493321,27.13365 L91.6353321,27.13365 L91.3319036,29.0908286 L92.6063679,29.0908286 C93.2884393,29.0908286 93.7355464,28.7256857 93.8326179,28.0895786 C93.879225,27.7929 93.8316536,27.5614714 93.6927964,27.3994714 C93.5442964,27.2255786 93.287475,27.13365 92.9493321,27.13365 L92.9493321,27.13365 Z M108.365979,27.133425 L106.9893,27.133425 L106.712229,28.9189607 L108.049371,28.9189607 C108.685479,28.9189607 109.101086,28.5882107 109.190443,28.0093179 C109.233193,27.7425321 109.189479,27.5310321 109.061871,27.383175 C108.922371,27.2192464 108.681621,27.133425 108.365979,27.133425 L108.365979,27.133425 Z" id="形状结合" fill="#B2997F"></path>
            </g>
        </g>
    </g>
</svg>