<?xml version="1.0" encoding="UTF-8"?>
<svg width="14px" height="14px" viewBox="0 0 14 14" version="1.1" xmlns="http://www.w3.org/2000/svg" xmlns:xlink="http://www.w3.org/1999/xlink">
    <title>口哨备份</title>
    <g id="页面-1" stroke="none" stroke-width="1" fill="none" fill-rule="evenodd">
        <g id="赛况备份" transform="translate(-247.000000, -339.000000)" fill-rule="nonzero">
            <g id="口哨备份" transform="translate(247.000000, 339.000000)">
                <rect id="矩形" fill="#000000" opacity="0" x="0" y="0" width="14" height="14"></rect>
                <path d="M11.8,4.06 L12.25,3.59 C12.37,3.45 12.37,3.25 12.25,3.13 L11.45,2.3 C11.33,2.2 11.13,2.2 11.01,2.3 L10.55,2.8 C9.78,2.2 8.87,1.8 7.88,1.66 L7.88,1.3 C8.01,1.26 8.11,1.13 8.11,0.98 L8.11,0.36 C8.11,0.16 7.95,0 7.76,0 L6.26,0 C6.06,0 5.91,0.16 5.91,0.36 L5.91,0.98 C5.91,1.13 6.01,1.26 6.14,1.31 L6.14,1.67 C3.23,2.1 1,4.68 1,7.8 C1,11.22 3.7,14 7,14 C10.3,14 13,11.22 13,7.8 C13,6.4 12.55,5.1 11.8,4.06 Z M2.12,7.8 C2.13,5.02 4.3,2.76 7,2.76 C9.7,2.76 11.87,5.02 11.87,7.8 C11.87,10.57 9.69,12.83 7,12.83 C4.3,12.83 2.13,10.57 2.13,7.8 L2.12,7.8 Z M7.9,7.5 C7.94,7.6 7.95,7.7 7.95,7.8 C7.95,8.34 7.53,8.78 7,8.78 C6.47,8.78 6.05,8.34 6.05,7.8 C6.05,7.25 6.47,6.8 7,6.8 C7.1,6.8 7.2,6.83 7.3,6.86 L9.33,4.76 C9.5,4.56 9.77,4.56 9.95,4.76 C10.12,4.93 10.12,5.21 9.95,5.39 L7.9,7.5 Z M7.3,11 L7.3,11.82 C7.3,12 7.17,12.14 7,12.14 C6.83,12.14 6.7,12 6.7,11.82 L6.7,11 C6.7,10.8 6.83,10.67 7,10.67 C7.17,10.67 7.3,10.81 7.3,10.99 L7.3,11 Z M4.23,7.8 C4.23,7.97 4.09,8.12 3.93,8.12 L3.13,8.12 C2.93,8.12 2.81,7.97 2.81,7.8 C2.81,7.62 2.94,7.48 3.11,7.48 L3.91,7.48 C4.11,7.48 4.23,7.62 4.23,7.8 L4.23,7.8 Z M6.7,4.6 L6.7,3.77 C6.7,3.59 6.83,3.45 7,3.45 C7.17,3.45 7.3,3.59 7.3,3.77 L7.3,4.61 C7.3,4.79 7.17,4.94 7,4.94 C6.83,4.94 6.7,4.79 6.7,4.62 L6.7,4.6 Z M10.9,8.12 L10.08,8.12 C9.91,8.12 9.78,7.97 9.78,7.8 C9.78,7.62 9.91,7.47 10.08,7.47 L10.88,7.47 C11.06,7.47 11.2,7.62 11.2,7.8 C11.2,7.97 11.06,8.12 10.9,8.12 Z" id="形状" fill="#FA5858"></path>
            </g>
        </g>
    </g>
</svg>