<?xml version="1.0" encoding="UTF-8"?>
<svg width="35px" height="22px" viewBox="0 0 35 22" version="1.1" xmlns="http://www.w3.org/2000/svg" xmlns:xlink="http://www.w3.org/1999/xlink">
    <!-- Generator: Sketch 61.1 (89650) - https://sketch.com -->
    <title>VS</title>
    <desc>Created with Sketch.</desc>
    <g id="页面-1" stroke="none" stroke-width="1" fill="none" fill-rule="evenodd">
        <g id="足球早盘" transform="translate(-1644.000000, -184.000000)" fill="#D1D1D1" fill-rule="nonzero">
            <g id="编组-12备份" transform="translate(1455.000000, 167.000000)">
                <path d="M217.058,17.616 C219.382,17.616 221.067411,18.092 222.098398,19.1 C223.205469,20.136 223.538199,21.732 223.116673,23.916 L223.116673,23.916 L220.092673,23.916 C220.176855,22.628 219.942033,21.676 219.316374,21.116 C218.698631,20.528 217.657801,20.248 216.145801,20.248 C214.829801,20.248 213.766382,20.444 212.955544,20.836 C211.960872,21.284 211.335029,22.012 211.050017,23.02 C210.796673,23.916 211.074747,24.616 211.932324,25.148 C212.309071,25.4 213.338316,25.82 215.055976,26.38 C217.506465,27.22 219.088374,27.864 219.737785,28.34 C221.152856,29.376 221.617088,30.804 221.094565,32.652 C220.587877,34.444 219.492026,35.844 217.799097,36.88 C216.114084,37.888 214.011578,38.392 211.491578,38.392 C209.055578,38.392 207.294084,37.888 206.191263,36.936 C204.871777,35.76 204.4983,33.912 205.042831,31.392 L205.042831,31.392 L208.066831,31.392 C207.847478,32.96 208.082881,34.108 208.788872,34.78 C209.426698,35.396 210.571611,35.704 212.251611,35.704 C213.763611,35.704 215.046781,35.424 216.085287,34.92 C217.123794,34.416 217.769719,33.716 218.023063,32.82 C218.339744,31.7 217.941171,30.832 216.863262,30.188 C216.478598,29.964 215.28927,29.516 213.267279,28.844 C211.024955,28.06 209.663378,27.528 209.142382,27.192 C207.863644,26.268 207.48766,24.924 207.978515,23.188 C208.477287,21.424 209.59322,20.052 211.362232,19.044 C213.031411,18.092 214.93,17.616 217.058,17.616 Z M209,18 L209,21 L205.838,21 L193.79,38 L190.094,38 L189.926,18.008 L193.23,18.008 L192.914,34.584 L192.998,34.584 L204.654,18.008 L205,18.008 L205,18 L209,18 Z" id="VS"></path>
            </g>
        </g>
    </g>
</svg>