<?xml version="1.0" encoding="UTF-8"?>
<svg width="16px" height="16px" viewBox="0 0 16 16" version="1.1" xmlns="http://www.w3.org/2000/svg" xmlns:xlink="http://www.w3.org/1999/xlink">
    <title>哨子@2x</title>
    <g id="页面-1" stroke="none" stroke-width="1" fill="none" fill-rule="evenodd">
        <g id="黑色详情" transform="translate(-1874.000000, -520.000000)" fill="#99A3B1" fill-rule="nonzero">
            <g id="编组-9" transform="translate(1356.000000, 447.000000)">
                <g id="哨子" transform="translate(518.000000, 73.000000)">
                    <path d="M4.94824841,13.0057566 C3.80175159,13.0057566 2.86823248,12.0415296 2.86823248,10.8573191 C2.86823248,9.67310855 3.80175159,8.70888158 4.94824841,8.70888158 C6.09474522,8.70888158 7.02826433,9.67310855 7.02826433,10.8573191 C7.02826433,12.0435855 6.09474522,13.0057566 4.94824841,13.0057566 Z M4.94824841,9.73889803 C4.35111465,9.73889803 3.86345541,10.2405428 3.86345541,10.859375 C3.86345541,11.4761513 4.3491242,11.979852 4.94824841,11.979852 C5.54737261,11.979852 6.0330414,11.4782072 6.0330414,10.859375 C6.0330414,10.2405428 5.54538217,9.73889803 4.94824841,9.73889803 Z" id="形状"></path>
                    <path d="M4.94824841,15.9683388 C3.62659236,15.9683388 2.38455414,15.4358553 1.44904459,14.4716283 C0.521496815,13.5115132 0,12.214227 0,10.8573191 C0,9.4921875 0.515525478,8.20929276 1.44904459,7.24300987 C2.38256369,6.27878289 3.62659236,5.74629934 4.94824841,5.74629934 C5.0736465,5.74629934 5.20302548,5.75246711 5.33240446,5.76274671 L14.9263535,5.76274671 C15.4717357,5.76274671 15.9136146,6.21504934 15.9215764,6.77631579 L15.9475568,8.69449013 C15.955414,9.26809211 15.5075637,9.73684211 14.9522293,9.73684211 L10.3622611,9.73684211 C10.0656847,9.73684211 9.83678344,10.0041118 9.86863057,10.3083882 C9.88654459,10.4769737 9.89450637,10.6476151 9.89649682,10.8182566 C9.90644904,12.1731086 9.39291401,13.4806743 8.47133758,14.4449013 C7.53383758,15.4276316 6.28184713,15.9683388 4.94824841,15.9683388 Z M4.94824841,6.77631579 C2.7647293,6.77631579 0.991242038,8.61225329 0.995216241,10.8696546 C1.00119427,13.1085526 2.77070064,14.9362664 4.93829618,14.9424497 C7.12181529,14.948602 8.90127389,13.1147204 8.90127389,10.859375 C8.90127389,10.3597862 8.81568471,9.87253289 8.64450637,9.40789474 C8.52109873,9.07072368 8.76194268,8.7109375 9.1102707,8.7109375 L14.4486465,8.7109375 C14.7253185,8.7109375 14.9502389,8.4765625 14.94631,8.19078947 L14.9343153,7.30057566 C14.9303344,7.01891447 14.7093949,6.79276316 14.4367038,6.79276316 L5.29259554,6.79276316 L5.27269108,6.79070724 C5.16321656,6.78042763 5.05374204,6.77631579 4.94824841,6.77631579 Z" id="形状"></path>
                    <path d="M7.60748408,7.80427632 L7.2093949,7.80427632 C7.0441879,7.80427632 6.91082803,7.66652961 6.91082803,7.49588816 L6.91082803,6.77631579 L7.90605096,6.77631579 L7.90605096,7.49588816 C7.90605096,7.66652961 7.77269108,7.80427632 7.60748408,7.80427632 L7.60748408,7.80427632 Z M7.40843949,3.09004934 C7.13375796,3.09004934 6.91082803,2.85978618 6.91082803,2.57606908 L6.91082803,0.520148026 C6.91082803,0.236430921 7.13375796,0.00616776316 7.40843949,0.00616776316 C7.68312102,0.00616776316 7.90605096,0.236430921 7.90605096,0.520148026 L7.90605096,2.57606908 C7.90605096,2.85978618 7.68312102,3.09004934 7.40843949,3.09004934 L7.40843949,3.09004934 Z M5.62699045,3.89391447 C5.43192675,4.09539474 5.11743631,4.09539474 4.92237261,3.89391447 L3.51512739,2.44037829 C3.32006369,2.23889803 3.32006369,1.9140625 3.51512739,1.71258224 C3.71019108,1.51110197 4.02468153,1.51110197 4.21974522,1.71258224 L5.62699045,3.16611842 C5.82006369,3.36759868 5.82006369,3.69243421 5.62699045,3.89391447 Z M9.20979299,3.89391447 C9.40485669,4.09539474 9.71934713,4.09539474 9.91441083,3.89391447 L11.3216561,2.44037829 C11.5167197,2.23889803 11.5167197,1.9140625 11.3216561,1.71258224 C11.1265924,1.51110197 10.8121019,1.51110197 10.6170382,1.71258224 L9.20979299,3.16611842 C9.0147293,3.36759868 9.0147293,3.69243421 9.20979299,3.89391447 Z" id="形状"></path>
                </g>
            </g>
        </g>
    </g>
</svg>