<?xml version="1.0" encoding="UTF-8"?>
<svg width="22px" height="22px" viewBox="0 0 22 22" version="1.1" xmlns="http://www.w3.org/2000/svg" xmlns:xlink="http://www.w3.org/1999/xlink">
    <title>精选未选中备份 2</title>
    <g id="页面-1" stroke="none" stroke-width="1" fill="none" fill-rule="evenodd">
        <g id="赛程" transform="translate(-27.000000, -100.000000)">
            <g id="编组-2备份-2" transform="translate(0.000000, 38.000000)">
                <g id="精选未选中备份-2" transform="translate(27.000000, 62.000000)">
                    <circle id="椭圆形备份" stroke="#E1E1E1" stroke-width="0.5" fill="#FFFFFF" cx="11" cy="11" r="10.75"></circle>
                    <g id="精选-(2)备份" transform="translate(5.000000, 6.000000)" fill="#FFB001" fill-rule="nonzero">
                        <path d="M11.881844,2.94487625 L10.5194685,0.509533252 C10.3335886,0.19011125 9.9939963,-0.00412050119 9.62884302,6.63465254e-05 L2.37062292,6.63465254e-05 C1.99706835,6.63465254e-05 1.65510112,0.196218351 1.47931074,0.509533252 L0.118308636,2.94487625 C-0.0578691611,3.25853497 -0.0358039304,3.64819786 0.174616493,3.93924982 L4.75890007,10.3730213 C5.35425266,11.2089929 6.64589996,11.2089929 7.24125255,10.3730213 L7.8633857,9.49936816 L8.97168913,7.94605197 L10.5606694,5.71446833 L11.5563571,4.31746068 L11.8241628,3.94064543 C12.0363473,3.64477568 12.0576344,3.26168018 11.881844,2.94557406 L11.881844,2.94487625 Z M8.55556033,6.03266787 L6.7612624,8.55104979 C6.58346513,8.79704233 6.3007685,8.94197699 6.00041965,8.9411271 C5.69827993,8.9411271 5.41330724,8.79458409 5.24026358,8.55035198 L3.44459229,6.03266787 C3.30553382,5.81401677 3.35907046,5.52302661 3.56647373,5.37019994 C3.77387701,5.21737327 4.06268574,5.25610366 4.22397543,5.45837352 L6.00041965,7.95163442 L7.77617719,5.45837352 C7.87712948,5.31689459 8.04468804,5.2408926 8.21573518,5.25899678 C8.38678232,5.27710096 8.53533191,5.38656085 8.60542675,5.54614396 C8.6755216,5.70572708 8.65651263,5.89118894 8.55556033,6.03266787 L8.55556033,6.03266787 Z" id="形状"></path>
                    </g>
                </g>
            </g>
        </g>
    </g>
</svg>