<?xml version="1.0" encoding="UTF-8"?>
<svg width="22px" height="22px" viewBox="0 0 22 22" version="1.1" xmlns="http://www.w3.org/2000/svg" xmlns:xlink="http://www.w3.org/1999/xlink">
    <title>时间排序</title>
    <g id="页面-1" stroke="none" stroke-width="1" fill="none" fill-rule="evenodd">
        <g id="篮球" transform="translate(-102.000000, -737.000000)" fill-rule="nonzero">
            <g id="编组-5" transform="translate(0.000000, 730.000000)">
                <g id="时间排序" transform="translate(102.000000, 7.000000)">
                    <path d="M11,0 C12.9006407,0 14.7318561,0.483087785 16.3544025,1.38895011 L17.2210512,0.35649836 L18.9223232,4.28133598 L14.7616899,3.28745101 L15.727,2.136 C14.2848802,1.36565254 12.6727829,0.956521739 11,0.956521739 C5.45314012,0.956521739 0.956521739,5.45314012 0.956521739,11 C0.956521739,16.5468599 5.45314012,21.0434783 11,21.0434783 C16.5468599,21.0434783 21.0434783,16.5468599 21.0434783,11 C21.0434783,9.80081604 20.8334604,8.63118317 20.4280803,7.53009863 C20.336823,7.28222763 20.4637835,7.00730984 20.7116545,6.91605255 C20.9595255,6.82479527 21.2344433,6.95175577 21.3257006,7.19962676 C21.7698988,8.40614815 22,9.68762938 22,11 C22,17.0751322 17.0751322,22 11,22 C4.92486775,22 0,17.0751322 0,11 C0,4.92486775 4.92486775,0 11,0 Z" id="形状结合" fill="#414655"></path>
                    <path d="M11,5 C11.5128358,5 11.9355072,5.38604019 11.9932723,5.88337887 L12,6 L12,11.088 L15.4727725,14.6012438 C15.8312181,14.9637547 15.8557489,15.5311331 15.5485168,15.9216981 L15.4647984,16.0154349 C15.1022875,16.3738805 14.5349091,16.3984113 14.1443441,16.0911792 L14.0506073,16.0074608 L10.2889174,12.2031085 C10.1346653,12.0471069 10.0368629,11.8456598 10.0085469,11.6304928 L10,11.5 L10,6 C10,5.44771525 10.4477153,5 11,5 Z" id="路径-10" fill="#006EFF"></path>
                </g>
            </g>
        </g>
    </g>
</svg>