<?xml version="1.0" encoding="UTF-8"?>
<svg width="20px" height="20px" viewBox="0 0 20 20" version="1.1" xmlns="http://www.w3.org/2000/svg" xmlns:xlink="http://www.w3.org/1999/xlink">
    <title>刷新</title>
    <g id="刷新" stroke="none" stroke-width="1" fill="none" fill-rule="evenodd">
        <path d="M13.0001975,1.94338515 C13.0884502,1.73549082 13.3283689,1.63848298 13.5360709,1.72671207 C17.6336059,3.46729111 19.8571903,7.98666909 18.6930224,12.3314026 C17.5311409,16.6676034 13.359371,19.4682295 8.94836339,18.9397344 C8.64438396,18.9033138 8.49473716,18.5634733 8.65010172,18.3174081 L8.69143807,18.2624692 L11.116872,15.5253869 L11.1705402,15.4747504 C11.3038753,15.3699351 11.48954,15.3587429 11.6344014,15.4467881 L11.6937152,15.4906139 L11.744291,15.5443004 C11.8489713,15.6776896 11.8600755,15.8634876 11.7720335,16.0084944 L11.7282148,16.0678711 L9.85408597,18.1836612 L9.93211278,18.185265 C13.6015044,18.2231102 16.9257007,15.7697569 17.9036774,12.1198983 C18.9619705,8.17029447 16.9403578,4.06141851 13.2164797,2.47956404 C13.0087777,2.39133495 12.9119448,2.15127948 13.0001975,1.94338515 Z M1.3081994,7.67218236 C2.47008089,3.3359816 6.64185084,0.535355489 11.0528584,1.06385059 C11.3568379,1.10027121 11.5064847,1.44011165 11.3511201,1.68617693 L11.3097838,1.74111578 L8.88434985,4.47819806 L8.83068161,4.52883458 C8.6973465,4.63364993 8.51168182,4.64484209 8.36682044,4.55679687 L8.30750668,4.51297107 L8.2569308,4.45928465 C8.15225052,4.32589537 8.14114635,4.14009744 8.22918833,3.99509056 L8.27300702,3.93571388 L10.1472589,1.81981162 L10.0691091,1.81832005 C6.39971746,1.7804748 3.07552112,4.23382807 2.09754444,7.88368673 C1.03925129,11.8332905 3.06086407,15.9421665 6.78474215,17.524021 C6.99244418,17.6122501 7.08927701,17.8523055 7.00102434,18.0601998 C6.91277166,18.2680942 6.67285297,18.365102 6.46515095,18.2768729 C2.36761591,16.5362939 0.144031552,12.0169159 1.3081994,7.67218236 Z" id="形状" stroke="#ACACAC" stroke-width="0.2" fill="#ACACAC" fill-rule="nonzero"></path>
    </g>
</svg>