<?xml version="1.0" encoding="UTF-8"?>
<svg width="22px" height="22px" viewBox="0 0 22 22" version="1.1" xmlns="http://www.w3.org/2000/svg" xmlns:xlink="http://www.w3.org/1999/xlink">
    <title>编组 12@2x</title>
    <g id="页面-1" stroke="none" stroke-width="1" fill="none" fill-rule="evenodd">
        <g id="新手版滚球列表" transform="translate(-1463.000000, -629.000000)">
            <g id="编组-18" transform="translate(1278.000000, 615.000000)">
                <g id="编组-8备份-16" transform="translate(174.000000, 14.000000)">
                    <g id="编组-12" transform="translate(11.000000, 0.000000)">
                        <rect id="矩形" x="0" y="0" width="22" height="22"></rect>
                        <g id="编组-10备份" transform="translate(1.000000, 1.000000)">
                            <path d="M15.5,0 C17.9142733,0 19.8844891,1.90123652 19.995102,4.2881643 L20,4.5 L20,6.5 C20,6.77614237 19.7761424,7 19.5,7 C19.2545401,7 19.0503916,6.82312484 19.0080557,6.58987563 L19,6.5 L19,4.5 C19,2.6314366 17.5357224,1.10487355 15.6920352,1.00517886 L15.5,1 L4.5,1 C2.6314366,1 1.10487355,2.4642776 1.00517886,4.3079648 L1,4.5 L1,15.5 C1,17.3685634 2.4642776,18.8951264 4.3079648,18.9948211 L4.5,19 L6.5,19 C6.77614237,19 7,19.2238576 7,19.5 C7,19.7454599 6.82312484,19.9496084 6.58987563,19.9919443 L6.5,20 L4.5,20 C2.08572667,20 0.115510911,18.0987635 0.0048979895,15.7118357 L0,15.5 L0,4.5 C0,2.08572667 1.90123652,0.115510911 4.2881643,0.0048979895 L4.5,0 L15.5,0 Z" id="路径" fill="#17191D" fill-rule="nonzero"></path>
                            <path d="M16.5,8 L11.5,8 C9.56700338,8 8,9.56700338 8,11.5 L8,16.5 C8,18.4329966 9.56700338,20 11.5,20 L16.5,20 C18.4329966,20 20,18.4329966 20,16.5 L20,11.5 C20,9.56700338 18.4329966,8 16.5,8 Z M11.5,9 L16.5,9 C17.8807119,9 19,10.1192881 19,11.5 L19,16.5 C19,17.8807119 17.8807119,19 16.5,19 L11.5,19 C10.1192881,19 9,17.8807119 9,16.5 L9,11.5 C9,10.1192881 10.1192881,9 11.5,9 Z" id="矩形备份" fill="#FFB001"></path>
                        </g>
                    </g>
                </g>
            </g>
        </g>
    </g>
</svg>