<?xml version="1.0" encoding="UTF-8"?>
<svg width="22px" height="22px" viewBox="0 0 22 22" version="1.1" xmlns="http://www.w3.org/2000/svg" xmlns:xlink="http://www.w3.org/1999/xlink">
    <title>大小-置灰</title>
    <g id="页面-1" stroke="none" stroke-width="1" fill="none" fill-rule="evenodd" opacity="0.300000012">
        <g id="111" transform="translate(-235.000000, -320.000000)">
            <g id="编组备份" transform="translate(50.000000, 306.000000)">
                <g id="大小-置灰" transform="translate(185.000000, 14.000000)">
                    <path d="M18.15,0 C20.2054197,0 21.8846391,1.61070536 21.9943033,3.63876128 L22,3.85 L22,7.15 C22,7.45375661 21.7537566,7.7 21.45,7.7 C21.1799941,7.7 20.9554308,7.50543732 20.9088612,7.2488632 L20.9,7.15 L20.9,3.85 C20.9,2.39196826 19.7653105,1.19895746 18.3308133,1.10584945 L18.15,1.1 L3.85,1.1 C2.39196826,1.1 1.19895746,2.23468953 1.10584945,3.66918674 L1.1,3.85 L1.1,18.15 C1.1,19.6080317 2.23468953,20.8010425 3.66918674,20.8941506 L3.85,20.9 L7.15,20.9 C7.45375661,20.9 7.7,21.1462434 7.7,21.45 C7.7,21.7200059 7.50543732,21.9445692 7.2488632,21.9911388 L7.15,22 L3.85,22 C1.79458026,22 0.115360906,20.3892946 0.005696749,18.3612387 L0,18.15 L0,3.85 C0,1.79458026 1.61070536,0.115360906 3.63876128,0.005696749 L3.85,0 L18.15,0 Z" id="路径" fill="#414655" fill-rule="nonzero"></path>
                    <path d="M19.25,9.9 L12.65,9.9 C11.1312169,9.9 9.9,11.1312169 9.9,12.65 L9.9,19.25 C9.9,20.7687831 11.1312169,22 12.65,22 L19.25,22 C20.7687831,22 22,20.7687831 22,19.25 L22,12.65 C22,11.1312169 20.7687831,9.9 19.25,9.9 Z M12.65,11 L19.25,11 C20.1612698,11 20.9,11.7387302 20.9,12.65 L20.9,19.25 C20.9,20.1612698 20.1612698,20.9 19.25,20.9 L12.65,20.9 C11.7387302,20.9 11,20.1612698 11,19.25 L11,12.65 C11,11.7387302 11.7387302,11 12.65,11 Z" id="矩形备份-5" fill="#006EFF"></path>
                </g>
            </g>
        </g>
    </g>
</svg>