<?xml version="1.0" encoding="UTF-8"?>
<svg width="22px" height="21px" viewBox="0 0 22 21" version="1.1" xmlns="http://www.w3.org/2000/svg" xmlns:xlink="http://www.w3.org/1999/xlink">
    <title>星形@2x</title>
    <g id="星形" stroke="none" stroke-width="1" fill="none" fill-rule="evenodd">
        <path d="M10.2884729,0.442402065 L7.31786599,6.45894668 L0.679244414,7.42391523 C0.506588074,7.44900366 0.347017286,7.53030904 0.225235466,7.65524434 L0.149566121,7.74519618 C-0.0768841724,8.05868744 -0.0456491245,8.49905573 0.239574509,8.77708006 L5.04400555,13.4590255 L3.90997319,20.0734056 C3.88047996,20.2453643 3.90849589,20.4222499 3.98968377,20.5766784 L4.04618756,20.668592 C4.27287446,20.9868889 4.70555018,21.0966016 5.06104394,20.9097075 L10.9998738,17.7865994 L16.9387036,20.9097075 C17.0931321,20.9908954 17.2700177,21.0189113 17.4419764,20.9894181 L17.539012,20.9665038 C17.9162761,20.8521299 18.1581424,20.4720219 18.0897743,20.0734056 L16.9547503,13.4590255 L21.760173,8.77708006 C21.8851083,8.65529824 21.9664137,8.49572745 21.9915021,8.32307111 L21.9998505,8.22370383 C22.0075,7.82956085 21.7207366,7.48207256 21.3205031,7.42391523 L14.6808899,6.45894668 L11.7112746,0.442402065 C11.6340603,0.285948881 11.5074243,0.159312786 11.3509711,0.0820985236 C10.9580752,-0.111807166 10.4823786,0.0495062243 10.2884729,0.442402065 Z M7.97758059,7.36547243 L10.9998738,1.24185999 L14.0221669,7.36547243 L20.7795561,8.34705408 L15.8900468,13.1142156 L17.0430074,19.8442795 L10.9998738,16.6671344 L4.95574843,19.8442795 L6.10970069,13.1142156 L1.21919975,8.34705408 L7.97758059,7.36547243 Z" id="星形备份" fill="#17191D" fill-rule="nonzero"></path>
        <path d="M13.5925848,12.0101967 C13.8680442,12.0654549 14.0458092,12.3299096 13.9896341,12.6008727 C13.7019751,13.9884079 12.4566785,15 10.9998494,15 C9.54368478,15 8.29878779,13.9893174 8.01042695,12.6026168 C7.95408772,12.3316867 8.13169254,12.067128 8.40711841,12.0117083 C8.68254428,11.9562887 8.95149304,12.1309945 9.00783226,12.4019247 C9.19973918,13.3247873 10.0296505,13.9985594 10.9998494,13.9985594 C11.9704905,13.9985594 12.800668,13.3241811 12.9921074,12.4007651 C13.0420408,12.159909 13.260008,11.9949835 13.5012927,12.0001165 L13.5925848,12.0101967 Z" id="路径备份" fill="#FF9124"></path>
    </g>
</svg>