<?xml version="1.0" encoding="UTF-8"?>
<svg width="22px" height="22px" viewBox="0 0 22 22" version="1.1" xmlns="http://www.w3.org/2000/svg" xmlns:xlink="http://www.w3.org/1999/xlink">
    <title>独赢@2x</title>
    <g id="独赢" stroke="none" stroke-width="1" fill="none" fill-rule="evenodd">
        <g transform="translate(3.000000, 0.000000)">
            <path d="M15,2.84217094e-14 C15.5128358,2.84217094e-14 15.9355072,0.38604019 15.9932723,0.883378875 L16,1 L16,4.08578644 C16,4.43388308 15.8790043,4.76950473 15.6603032,5.03642322 L15.5606602,5.14644661 L12.594432,8.11267482 L11.8873252,7.40556804 L14.8535534,4.43933983 C14.9285679,4.36432528 14.977285,4.26792911 14.9937713,4.16447581 L15,4.08578644 L15,1 L1,1 L1,4.08578644 C1,4.19187303 1.03371419,4.2944836 1.09520918,4.37929368 L1.14644661,4.43933983 L4.04318458,7.3360778 L3.3360778,8.04318458 L0.439339828,5.14644661 C0.193198332,4.90030511 0.0414348981,4.57742785 0.00734000059,4.23404301 L0,4.08578644 L0,1 C0,0.487164161 0.38604019,0.0644928393 0.883378875,0.00672773133 L1,2.84217094e-14 L15,2.84217094e-14 Z" id="路径" fill="#17191D" fill-rule="nonzero"></path>
            <path d="M8,2 C8.24545989,2 8.44960837,2.17687516 8.49194433,2.41012437 L8.5,2.5 L8.5,4.5 C8.5,4.77614237 8.27614237,5 8,5 C7.75454011,5 7.55039163,4.82312484 7.50805567,4.58987563 L7.5,4.5 L7.5,2.5 C7.5,2.22385763 7.72385763,2 8,2 Z" id="直线-7" fill="#FF9124"></path>
            <path d="M8,6 C3.581722,6 0,9.581722 0,14 C0,18.418278 3.581722,22 8,22 C12.418278,22 16,18.418278 16,14 C16,9.581722 12.418278,6 8,6 Z M8,7 C11.8659932,7 15,10.1340068 15,14 C15,17.8659932 11.8659932,21 8,21 C4.13400675,21 1,17.8659932 1,14 C1,10.1340068 4.13400675,7 8,7 Z" id="矩形" fill="#17191D" fill-rule="nonzero"></path>
            <path d="M8,10 C5.790861,10 4,11.790861 4,14 C4,16.209139 5.790861,18 8,18 C10.209139,18 12,16.209139 12,14 C12,11.790861 10.209139,10 8,10 Z M8,11 C9.65685425,11 11,12.3431458 11,14 C11,15.6568542 9.65685425,17 8,17 C6.34314575,17 5,15.6568542 5,14 C5,12.3431458 6.34314575,11 8,11 Z" id="矩形备份-6" fill="#FF9124"></path>
        </g>
    </g>
</svg>