<?xml version="1.0" encoding="UTF-8"?>
<svg width="20px" height="14px" viewBox="0 0 20 14" version="1.1" xmlns="http://www.w3.org/2000/svg" xmlns:xlink="http://www.w3.org/1999/xlink">
    <title>比分选中</title>
    <defs>
        <linearGradient x1="100%" y1="50%" x2="0%" y2="50%" id="linearGradient-1">
            <stop stop-color="#FFB001" offset="0%"></stop>
            <stop stop-color="#FF7000" offset="100%"></stop>
        </linearGradient>
    </defs>
    <g id="页面-1" stroke="none" stroke-width="1" fill="none" fill-rule="evenodd">
        <g id="滚球" transform="translate(-1583.000000, -112.000000)" fill="url(#linearGradient-1)">
            <g id="编组-134" transform="translate(1356.000000, 101.000000)">
                <g id="编组-131" transform="translate(190.000000, 11.000000)">
                    <path d="M55,0 C56.1045695,-2.02906125e-16 57,0.8954305 57,2 L57,6.562 L55.6193182,6.5625 C55.4045408,6.5625 55.2259109,6.71726577 55.1888669,6.92135882 L55.1818182,7 C55.1818182,7.2147774 55.3365839,7.39340732 55.540677,7.43045129 L55.6193182,7.4375 L57,7.437 L57,12 C57,13.1045695 56.1045695,14 55,14 L39,14 C37.8954305,14 37,13.1045695 37,12 L37,7.437 L38.3806818,7.4375 C38.5954592,7.4375 38.7740891,7.28273423 38.8111331,7.07864118 L38.8181818,7 C38.8181818,6.7852226 38.6634161,6.60659268 38.459323,6.56954871 L38.3806818,6.5625 L37,6.562 L37,2 C37,0.8954305 37.8954305,2.02906125e-16 39,0 L55,0 Z M47.4545455,0.875 L46.5454545,0.875 L46.5454545,13.125 L47.4545455,13.125 L47.4545455,0.875 Z M41.6835174,2.625 L41.4073917,2.625 C41.0108592,2.625 40.6763222,2.67541504 40.4037808,2.77636719 C40.1312394,2.87731934 39.9116663,3.00427246 39.7453271,3.15722656 C39.5789879,3.31018066 39.4585811,3.47949219 39.3842396,3.66503906 C39.309898,3.85058594 39.2727273,4.0279541 39.2727273,4.19726562 L39.2727273,4.19726562 L39.2727273,9.80273438 C39.2727273,9.93945312 39.3045879,10.098999 39.3683093,10.28125 C39.4320306,10.463501 39.5452687,10.6361084 39.7081563,10.7988281 C39.871044,10.9615479 40.0887585,11.0982666 40.3612999,11.2089844 C40.6338413,11.3197021 40.9825828,11.375 41.4073917,11.375 L41.4073917,11.375 L41.6835174,11.375 C42.1083263,11.375 42.4587935,11.3197021 42.7349193,11.2089844 C43.011045,11.0982666 43.2287596,10.9615479 43.3880629,10.7988281 C43.5473662,10.6361084 43.6588785,10.463501 43.7225998,10.28125 C43.7863212,10.098999 43.8181818,9.93945312 43.8181818,9.80273438 L43.8181818,9.80273438 L43.8181818,4.19726562 C43.8181818,4.0279541 43.781011,3.85058594 43.7066695,3.66503906 C43.632328,3.47949219 43.5119212,3.31018066 43.345582,3.15722656 C43.1792428,3.00427246 42.9596697,2.87731934 42.6871283,2.77636719 C42.4145869,2.67541504 42.0800499,2.625 41.6835174,2.625 L41.6835174,2.625 Z M52.9090909,2.625 L51.6198347,2.625 L50.1818182,4.17345506 L50.1818182,5.89396067 L51.6198347,4.34550562 L51.6198347,11.375 L52.9090909,11.375 L52.9090909,2.625 Z M41.6052632,3.5 C41.9322667,3.5 42.1555024,3.58649297 42.2751196,3.75959079 C42.3947368,3.93268862 42.4545455,4.15647379 42.4545455,4.43094629 L42.4545455,4.43094629 L42.4545455,9.56905371 C42.4545455,9.83759591 42.3827751,10.0599265 42.2392344,10.2359335 C42.0956938,10.4119405 41.8844199,10.5 41.6052632,10.5 L41.6052632,10.5 L41.4976077,10.5 C41.2423744,10.5 41.0351376,10.4179827 40.8755981,10.2538363 C40.7160586,10.0896899 40.6363636,9.86142903 40.6363636,9.56905371 L40.6363636,9.56905371 L40.6363636,4.43094629 C40.6363636,4.15647379 40.6901914,3.93268862 40.7978469,3.75959079 C40.9055024,3.58649297 41.138756,3.5 41.4976077,3.5 L41.4976077,3.5 Z" id="比分选中"></path>
                </g>
            </g>
        </g>
    </g>
</svg>