<?xml version="1.0" encoding="UTF-8"?>
<svg width="22px" height="20px" viewBox="0 0 22 20" version="1.1" xmlns="http://www.w3.org/2000/svg" xmlns:xlink="http://www.w3.org/1999/xlink">
    <title>形状</title>
    <defs>
        <linearGradient x1="50%" y1="99.9781469%" x2="50%" y2="2.31370192%" id="linearGradient-1">
            <stop stop-color="#569FFD" offset="0%"></stop>
            <stop stop-color="#9AC6FF" offset="100%"></stop>
        </linearGradient>
    </defs>
    <g id="页面-1" stroke="none" stroke-width="1" fill="none" fill-rule="evenodd">
        <g id="热门精选备份" transform="translate(-28.000000, -94.000000)" fill="url(#linearGradient-1)">
            <g id="精选-(2)备份-2" transform="translate(20.000000, 84.000000)">
                <path d="M29.1595487,15.4502408 L26.8063547,11.2437393 C26.4852893,10.6920103 25.8987209,10.3565191 25.2680016,10.363751 L12.7310759,10.363751 C12.0858453,10.363751 11.4951747,10.702559 11.1915367,11.2437393 L8.84071492,15.4502408 C8.53640781,15.992015 8.57452048,16.665069 8.93797394,17.1677951 L16.8562819,28.2806731 C17.8846182,29.7246241 20.1156454,29.7246241 21.1439817,28.2806731 L22.2185753,26.7716359 L24.1329176,24.0886352 L26.8775199,20.2340817 L28.5973441,17.8210685 L29.0599175,17.1702058 C29.426418,16.659158 29.4631866,15.9974476 29.1595487,15.4514461 L29.1595487,15.4502408 Z M23.4141497,20.7836991 L20.3149078,25.1336314 C20.0078034,25.5585277 19.5195092,25.8088693 19.0007249,25.8074014 C18.4788472,25.8074014 17.9866216,25.5542816 17.687728,25.1324261 L14.586114,20.7836991 C14.3459221,20.406029 14.4383944,19.9034096 14.7966364,19.6394363 C15.1548785,19.3754629 15.6537299,19.4423609 15.9323212,19.7917361 L19.0007249,24.0982776 L22.0679424,19.7917361 C22.2423146,19.5473634 22.5317339,19.4160872 22.8271789,19.4473581 C23.122624,19.4786289 23.3792097,19.667696 23.5002826,19.9433396 C23.6213555,20.2189831 23.5885218,20.5393264 23.4141497,20.7836991 L23.4141497,20.7836991 Z" id="形状"></path>
            </g>
        </g>
    </g>
</svg>