<?xml version="1.0" encoding="UTF-8"?>
<svg width="22px" height="22px" viewBox="0 0 22 22" version="1.1" xmlns="http://www.w3.org/2000/svg" xmlns:xlink="http://www.w3.org/1999/xlink">
    <title>赛事_选中备份</title>
    <defs>
        <linearGradient x1="100%" y1="50%" x2="0%" y2="50%" id="linearGradient-1">
            <stop stop-color="#FFB001" offset="0%"></stop>
            <stop stop-color="#FF7000" offset="100%"></stop>
        </linearGradient>
    </defs>
    <g id="页面-1" stroke="none" stroke-width="1" fill="none" fill-rule="evenodd">
        <g id="黑版热门" transform="translate(-1.000000, -1.000000)" fill="url(#linearGradient-1)">
            <g id="赛事_选中备份" transform="translate(1.000000, 1.000000)">
                <path d="M10.5217391,2.66453526e-14 L10.5217391,7.33333333 C8.70434782,7.57298475 7.26956521,9.10675382 7.26956521,11.0239651 C7.26956521,12.8932462 8.70434782,14.4749455 10.5217391,14.714597 L10.5217391,14.714597 L10.5217391,22 C6.45652174,21.8562092 2.96521738,19.6514161 1.19565215,15.8169935 L1.19565215,15.8169935 L1.40867291,15.8118082 C3.66713396,15.7016164 5.47146506,13.8488241 5.49699039,11.5634161 C5.4989968,11.3836724 5.5,11.2038555 5.5,11.0239651 C5.5,10.6754296 5.49623411,10.3196212 5.48870232,9.95653993 C5.44022588,7.62025991 3.53243505,5.75163399 1.19565215,5.75163399 C2.96521738,2.39651417 6.45652174,0.191721137 10.5217391,2.66453526e-14 L10.5217391,2.66453526e-14 Z M11.4782609,5.32907052e-14 C15.5434783,0.191721137 19.0347826,2.39651417 20.8043478,5.75163399 L20.8043478,5.75163399 L20.5954705,5.75664381 C18.3805082,5.86311767 16.5968432,7.6538671 16.5220182,9.89328824 C16.5073394,10.3327427 16.5,10.7016467 16.5,11 L16.5009553,11.1938957 C16.502229,11.3281326 16.5047765,11.4723156 16.5085977,11.6264447 C16.5664085,13.9574336 18.4726421,15.8169935 20.8043478,15.8169935 C19.0347826,19.6514161 15.5434783,21.8562091 11.4782609,21.9520697 L11.4782609,21.9520697 L11.4782609,14.6666667 C13.2956522,14.4270153 14.7304348,12.8932462 14.7304348,10.9760349 C14.7304348,9.05882353 13.2956522,7.52505446 11.4782609,7.28540304 L11.4782609,7.28540304 Z M0.765217385,6.71023965 L0.959399566,6.71547642 C2.82369942,6.8162857 4.30434782,8.35991592 4.30434782,10.2493701 L4.30434782,10.2493701 L4.30434782,11.3192574 C4.30434782,13.2738651 2.71982515,14.8583878 0.765217385,14.8583878 C0.286956527,13.8997821 -4.61852778e-14,12.2222222 -4.61852778e-14,10.7843137 C-4.61852778e-14,9.34640524 0.286956506,8.14814816 0.765217385,6.71023965 L0.765217385,6.71023965 Z M21.2347826,6.71023965 C21.7130435,8.14814816 22,9.34640526 22,10.7843137 C22,12.2222222 21.7130435,13.8997821 21.2347826,14.8583878 L21.2347826,14.8583878 L21.0406004,14.853151 C19.1763006,14.7523418 17.6956522,13.2087115 17.6956522,11.3192574 L17.6956522,11.3192574 L17.6956522,10.2493701 C17.6956522,8.29476232 19.2801748,6.71023965 21.2347826,6.71023965 Z M11,8.24400873 C12.5304348,8.24400873 13.773913,9.49019607 13.773913,11.0239651 C13.773913,12.5577342 12.5304348,13.8039216 11,13.8039216 C9.46956523,13.8039216 8.22608697,12.5577342 8.22608697,11.0239651 C8.22608697,9.49019609 9.46956523,8.24400873 11,8.24400873 Z" id="形状结合"></path>
            </g>
        </g>
    </g>
</svg>