<?xml version="1.0" encoding="UTF-8"?>
<svg width="22px" height="22px" viewBox="0 0 22 22" version="1.1" xmlns="http://www.w3.org/2000/svg" xmlns:xlink="http://www.w3.org/1999/xlink">
    <title>王者1备份 2</title>
    <defs>
        <radialGradient cx="76.0771636%" cy="10.2522609%" fx="76.0771636%" fy="10.2522609%" r="127.957263%" id="radialGradient-1">
            <stop stop-color="#F3EFEA" offset="0%"></stop>
            <stop stop-color="#E8D7BF" offset="14.3946079%"></stop>
            <stop stop-color="#C7B490" offset="41.9128016%"></stop>
            <stop stop-color="#A8905A" offset="70.7582149%"></stop>
            <stop stop-color="#65522E" offset="100%"></stop>
        </radialGradient>
    </defs>
    <g id="页面-1" stroke="none" stroke-width="1" fill="none" fill-rule="evenodd">
        <g id="H5白" transform="translate(-123.000000, -552.000000)">
            <g id="王者1备份-2" transform="translate(123.000000, 552.000000)">
                <circle id="椭圆形备份-3" cx="11" cy="11" r="11"></circle>
                <path d="M18.7916667,3.93648285 C18.7916667,3.93648285 17.5033832,5.73784126 18.4797528,8.83694453 C18.6775126,9.5238477 18.7839368,10.2494618 18.7839368,10.9999969 C18.7839368,12.6995071 18.239448,14.2716299 17.3159504,15.5523073 C17.2288197,15.4989406 17.12759,15.4369165 17.0086744,15.3640706 C16.3181227,16.3431612 15.3492974,17.0027935 15.3492974,17.0027935 L15.3492974,17.0027935 L15.5661653,17.3079051 C14.2815921,18.2409878 12.7013685,18.7916605 10.9922733,18.7916605 C9.02660971,18.7916605 7.23118779,18.0634491 5.86034971,16.8624817 L5.86034971,16.8624817 L7.73294619,14.9898852 C8.62094849,15.7161796 9.75556313,16.1522654 10.9922733,16.1522654 C13.8378383,16.1522654 16.1445418,13.8455619 16.1445418,10.9999969 C16.1445418,9.76328679 15.7085178,8.62867213 14.9821615,7.74066984 L14.9821615,7.74066984 L16.8547581,5.86807335 L16.8572935,5.87091793 L18.7916667,3.93648285 Z M11.0077267,3.20833333 C12.9734522,3.20833333 14.7688122,3.93654468 16.1396503,5.13751213 L16.1396503,5.13751213 L14.2670539,7.01010862 C13.3790516,6.28381426 12.2444369,5.84772845 11.0077267,5.84772845 C8.16216173,5.84772845 5.85545828,8.15449374 5.85545828,10.9999969 C5.85545828,12.236707 6.29154408,13.3713217 7.01790028,14.2593859 L7.01790028,14.2593859 L5.14524196,16.1319205 L5.14524196,16.1319205 L5.14276841,16.1291378 L3.20833333,18.063511 C3.20833333,18.063511 4.49667872,16.2621526 3.52024723,13.1630493 C3.32248739,12.4761461 3.21606316,11.750532 3.21606316,10.9999969 C3.21606316,9.30048668 3.76055203,7.72836395 4.68404968,6.44774839 C4.77118027,6.5011151 4.87241005,6.56307738 4.99138752,6.63592325 C5.68187733,5.6568327 6.65070267,4.99720035 6.65070267,4.99720035 L6.65070267,4.99720035 L6.4338347,4.6920887 C7.71846978,3.75906791 9.29863152,3.20833333 11.0077267,3.20833333 Z M10.7449189,7.64288446 L10.7449189,9.86301385 C10.2131687,9.9685105 9.81220725,10.437309 9.81220725,10.9999784 C9.81220725,11.5627097 10.2131687,12.0315081 10.7449189,12.1369429 L10.7449189,12.1369429 L10.7449189,15.324228 C10.7449189,15.324228 10.6376907,14.6482084 9.91955909,14.3704294 C9.91652898,14.3692545 9.91430283,14.3682032 9.9113964,14.3670901 C8.60499413,13.956049 7.62615093,12.8069023 7.46512322,11.4078039 L7.46512322,11.4078039 L7.63153089,11.4078039 L7.61775233,11.2734012 C7.61020344,11.1832405 7.60605338,11.0921179 7.60605338,10.9999784 C7.60605338,9.21754257 8.99198009,7.75957389 10.7449189,7.64288446 L10.7449189,7.64288446 Z M11.1983875,6.67576586 C11.1983875,6.67576586 11.3056775,7.35178543 12.0237473,7.62956442 C12.0267156,7.63073936 12.0290036,7.63172877 12.03191,7.63296554 C13.3383123,8.04394488 14.3171555,9.19309158 14.4781831,10.5921899 L14.4781831,10.5921899 L14.3118374,10.5921899 L14.3255998,10.7265927 C14.3331304,10.8167534 14.337253,10.9078759 14.337253,11.0000155 C14.337253,12.7824512 12.9513263,14.24042 11.1983875,14.3571712 L11.1983875,14.3571712 L11.1983875,12.13698 C11.7301995,12.0314833 12.131161,11.5627467 12.131161,11.0000155 C12.131161,10.4372842 11.7301995,9.96854761 11.1983875,9.86298913 L11.1983875,9.86298913 L11.1983875,6.67576586 Z" id="形状结合" fill="url(#radialGradient-1)" fill-rule="nonzero"></path>
            </g>
        </g>
    </g>
</svg>