<?xml version="1.0" encoding="UTF-8"?>
<svg width="22px" height="22px" viewBox="0 0 22 22" version="1.1" xmlns="http://www.w3.org/2000/svg" xmlns:xlink="http://www.w3.org/1999/xlink">
    <title>csgo1备份 2</title>
    <g id="页面-1" stroke="none" stroke-width="1" fill="none" fill-rule="evenodd">
        <g id="H5白" transform="translate(-92.000000, -552.000000)">
            <g id="csgo1备份-2" transform="translate(92.000000, 552.000000)">
                <circle id="椭圆形备份-2" cx="11" cy="11" r="11"></circle>
                <circle id="形状结合" fill="#0080CF" fill-rule="nonzero" cx="11" cy="11" r="8.70833333"></circle>
                <path d="M10.0609986,11.3341173 C10.0338276,11.5271484 9.87027394,11.6364863 9.79507182,11.7971829 C9.68250957,12.0377746 9.5655642,12.2789859 9.54065363,12.5506384 C9.52916793,12.6759829 9.48717224,12.7858602 9.36430616,12.847603 C9.33150132,12.8640915 9.31128373,12.8951178 9.29819163,12.9301142 C9.25876617,13.0354133 9.196725,13.1204258 9.10863731,13.1951919 C9.00575934,13.2825108 8.93883015,13.4163462 8.95739545,13.5428497 C8.9855647,13.7348595 8.93207182,13.8980116 8.85685823,14.0615653 C8.76574135,14.2596909 8.66899063,14.4547299 8.60911808,14.6660623 C8.58044397,14.767288 8.52518407,14.8541938 8.41231204,14.8846579 C8.39715459,14.8887427 8.38804405,14.9001022 8.38025304,14.9150531 C8.21886797,15.224123 8.13001151,15.5470424 8.21744516,15.89501 C8.24631432,16.0098555 8.29162607,16.1188951 8.26735807,16.2406827 C8.26195371,16.2678078 8.25996866,16.2868665 8.22444444,16.2897809 C7.97826479,16.309987 7.73247526,16.3369515 7.48644477,16.2851568 C7.43763338,16.2748874 7.40980837,16.2533732 7.3973244,16.205147 C7.36373932,16.0754307 7.36371637,15.9449687 7.3927806,15.8156656 C7.46650255,15.4876976 7.57019519,15.1670617 7.63416403,14.8366267 C7.63843245,14.8145733 7.65054924,14.7935984 7.63588517,14.7700303 C7.53945571,14.614979 7.57068858,14.4544086 7.62376838,14.2968444 C7.64554647,14.2321871 7.68329669,14.1713622 7.72194191,14.1143353 C7.77802796,14.0315831 7.81570934,13.9459853 7.81832546,13.8437844 C7.82516411,13.5766528 7.96208612,13.3571163 8.10186522,13.146392 C8.18992995,13.0136351 8.26341093,12.8746248 8.3424225,12.7377487 C8.39613338,12.6446812 8.41756725,12.5494566 8.38821616,12.4424823 C8.34872185,12.2985036 8.39000614,12.1558101 8.4091681,12.0142295 C8.44089436,11.7799257 8.48231634,11.5469299 8.5195158,11.313349 C8.52226962,11.2960229 8.53166701,11.2767462 8.51708327,11.261715 C8.43102652,11.1729961 8.45258661,11.0548804 8.43003974,10.9488011 C8.42483043,10.9242807 8.43166908,10.9033287 8.44271877,10.8824916 C8.46955699,10.8318787 8.49505274,10.7818855 8.42574837,10.7420584 C8.41107283,10.7336249 8.41210551,10.7160234 8.41387254,10.7000169 C8.42094067,10.6360594 8.42874315,10.57193 8.45132443,10.5114608 C8.46811124,10.4665047 8.49749675,10.4233501 8.54927996,10.4252549 C8.62025956,10.427871 8.61765491,10.3891684 8.61542891,10.3393473 C8.60457429,10.0973213 8.55824133,9.85944897 8.53322751,9.61910971 C8.52026163,9.49449955 8.52053701,9.37026804 8.5288673,9.24416622 C8.56509145,9.24962795 8.56908448,9.28253606 8.60522832,9.29808364 C8.54862593,9.12279179 8.70831282,9.15114462 8.79362373,9.09478319 C8.68082056,9.06905796 8.57830976,9.04226563 8.47437617,9.02347084 C8.42626471,9.01477337 8.41059092,8.98966774 8.40493411,8.94752289 C8.39516955,8.87477626 8.4070339,8.80308525 8.41952934,8.7325761 C8.46952257,8.45066569 8.49088759,8.16612767 8.50017025,7.88063729 C8.50204054,7.82286453 8.52020425,7.799503 8.57719677,7.79155135 C8.6891738,7.7759464 8.80288344,7.78090326 8.91432118,7.75675 C8.9753182,7.74353169 8.98768743,7.7193899 8.98050456,7.65733726 C8.93138337,7.23331847 8.93989725,6.81463521 9.1275239,6.41861356 C9.23795191,6.18551453 9.39012318,5.98904125 9.62972808,5.8748841 C9.74569818,5.81964715 9.86871341,5.7980297 9.99686909,5.8068878 C10.0523929,5.8107202 10.1015256,5.83131644 10.1437507,5.86756355 C10.1635553,5.88456836 10.1783915,5.91770594 10.2105423,5.88297344 C10.2366576,5.85476978 10.2751193,5.83923367 10.2524232,5.7833312 C10.1198614,5.45677455 10.1738706,5.14827834 10.3586058,4.85848513 C10.5881478,4.49836634 11.1108335,4.3293968 11.5226896,4.6073486 C11.6121427,4.66772602 11.7063921,4.71994525 11.8054376,4.76368502 C11.8595501,4.78758585 11.8923549,4.82765387 11.8699343,4.89115227 C11.8596534,4.92029682 11.8778171,4.94037673 11.8864916,4.96317602 C11.9531913,5.13838755 11.990953,5.3155497 11.9618314,5.50596459 C11.942635,5.63152711 11.8699687,5.69461244 11.7570278,5.71146809 C11.6666683,5.72493884 11.6512698,5.76990636 11.6644767,5.84710499 C11.6744478,5.90533672 11.6800931,5.96449786 11.6841091,6.02347542 C11.6868285,6.06345164 11.7050495,6.07288346 11.7429145,6.07321621 C11.8324939,6.07399646 11.9147182,6.04378481 11.9980441,6.0188513 C12.0597181,6.00038926 12.1213003,5.97901277 12.1855789,5.97986186 C12.227414,5.9804241 12.2371327,5.95972458 12.243891,5.92772295 C12.2618252,5.84280215 12.2780613,5.75738797 12.3137347,5.66157813 C12.3450019,5.72159984 12.3561893,5.77379612 12.3543993,5.82757584 C12.3528388,5.87420713 12.3685815,5.89492959 12.4162684,5.90465974 C12.4577821,5.91312772 12.5205806,5.90616286 12.5115045,5.98525475 C12.5080851,6.01514512 12.5421177,6.00445114 12.5602241,6.00470357 C12.6400504,6.0058051 12.7198995,6.0050478 12.7997372,6.0051396 C13.5130673,6.00600016 14.2264088,6.00752623 14.9397504,6.00649355 C14.9952283,6.00641323 15.0224567,6.01509923 15.0045913,6.07566022 C14.9938973,6.11190733 15.0149984,6.11934263 15.045015,6.1222915 C15.0849568,6.12621569 15.0844863,6.10147725 15.0844176,6.07374403 C15.0840962,5.95785428 15.0856223,5.84194158 15.0839471,5.72608626 C15.0833848,5.68756727 15.0871025,5.66401067 15.1356271,5.66441227 C15.1858268,5.66483681 15.1711054,5.69780228 15.1714725,5.72247188 C15.1726773,5.80228664 15.1746279,5.88225056 15.1709791,5.96191616 C15.16904,6.00417576 15.1834516,6.03561516 15.2091195,6.06612513 C15.2302206,6.09120781 15.2470533,6.11844764 15.2765536,6.07353749 C15.3011084,6.03616591 15.3163576,6.05899964 15.3287613,6.08534448 C15.3474872,6.12507975 15.342714,6.16700659 15.3327429,6.20644353 C15.3216817,6.25026362 15.3365409,6.25727437 15.376999,6.25827263 C15.5725887,6.26305739 15.7680982,6.26690125 15.9636536,6.2576645 C15.9739345,6.25718258 15.9857758,6.25979871 15.9942782,6.25564504 C16.150431,6.17935286 16.3119424,6.27049269 16.469495,6.23998271 C16.5019786,6.23368335 16.5176869,6.24683282 16.5098729,6.28227672 C16.5065797,6.29718175 16.5039752,6.31357844 16.5066715,6.32826545 C16.5207619,6.40506249 16.4791908,6.41358784 16.4179873,6.40648529 C16.3826695,6.40237751 16.3463307,6.40813758 16.3105311,6.40697868 C16.2055992,6.40354789 16.1026753,6.40188412 15.9962059,6.38556777 C15.7800658,6.35241871 15.5560314,6.34622262 15.3375276,6.39426524 C15.2477303,6.41401239 15.1595393,6.42552104 15.0731269,6.38750691 C15.0321295,6.36946942 15.0289396,6.38954933 15.0304427,6.42008226 C15.0344472,6.5016411 14.9940235,6.52285696 14.9163659,6.5218128 C14.6305542,6.51792303 14.3446393,6.51850823 14.0588162,6.52184723 C13.9691107,6.52289138 13.8914646,6.55584537 13.8460724,6.64373799 C13.8000149,6.73291573 13.7252832,6.7979861 13.6437015,6.85212153 C13.5894168,6.88813915 13.572435,6.92989388 13.5767837,6.99255466 C13.5868237,7.13735947 13.6301963,7.27498141 13.6606145,7.41536865 C13.6832302,7.51973826 13.6864774,7.52677197 13.5858598,7.5468863 C13.4999293,7.56405175 13.4676408,7.61284019 13.4545602,7.69087644 C13.4371538,7.79468382 13.4174984,7.89823876 13.3946188,8.00096757 C13.3712687,8.10579616 13.3115683,8.18517489 13.2218742,8.24676857 C13.1522371,8.2945817 13.0903795,8.35370842 13.0252518,8.40802744 C12.9750061,8.44994281 12.9176579,8.47620732 12.8544808,8.49307444 C12.8351123,8.4982608 12.778005,8.46605263 12.8025714,8.53577006 C12.8063808,8.54656732 12.7732203,8.53760594 12.7616428,8.5248007 C12.7459804,8.50746313 12.7463017,8.48086586 12.7107889,8.47632207 C12.3972785,8.4361852 12.1292749,8.28136338 11.8588731,8.13308188 C11.8073538,8.10483232 11.7555936,8.07703025 11.6999435,8.0468645 C11.6797259,8.13068377 11.6615048,8.20960353 11.6412184,8.28797254 C11.6362157,8.30723778 11.6298359,8.31968732 11.6566398,8.32781107 C11.8820281,8.39616308 11.9031177,8.57519553 11.8987231,8.77110657 C11.8931352,9.02084324 11.8446107,9.26695405 11.8440025,9.51751686 C11.8436468,9.65656157 11.7733098,9.77850973 11.6963177,9.89242591 C11.6664273,9.93664762 11.6195092,9.94027348 11.5716387,9.93250543 C11.5464412,9.9284091 11.5219208,9.92019359 11.4970103,9.91421546 C11.4611647,9.90558688 11.4156809,9.8640157 11.3916768,9.8973025 C11.3598358,9.94144381 11.3180811,9.99349098 11.343485,10.0597776 C11.3489124,10.0739368 11.3508744,10.0896565 11.352825,10.1048599 C11.3707937,10.2447767 11.4185609,10.3650151 11.5190293,10.4739515 C11.8832558,10.8688601 12.0896658,11.354312 12.2800348,11.8472565 C12.3031324,11.9070946 12.3274693,11.9666229 12.3467919,12.0277002 C12.3683864,12.095949 12.393974,12.1590229 12.46944,12.1833482 C12.4946948,12.1914949 12.4943505,12.2104504 12.4969896,12.2316662 C12.5072935,12.3144413 12.5001565,12.4021159 12.5658924,12.4699745 C12.5760471,12.4804619 12.5750488,12.5038006 12.5755652,12.5213103 C12.5855592,12.8569659 12.5564605,13.1903268 12.5029218,13.520911 C12.4742477,13.6979928 12.461385,13.8711733 12.4995713,14.0483355 C12.5279012,14.1797613 12.5118258,14.3089268 12.4408232,14.4273179 C12.4206745,14.460903 12.4077201,14.4975058 12.4072381,14.5365526 C12.405104,14.7166178 12.3944673,14.8967632 12.4170601,15.0765414 C12.4261477,15.1488291 12.4593312,15.2084493 12.5042987,15.2621945 C12.5818989,15.3549064 12.6612432,15.4461839 12.74084,15.5372089 C12.7995307,15.6043217 12.8696842,15.6527086 12.9578292,15.6764143 C13.0573223,15.7031837 13.150057,15.7477726 13.2385004,15.8006344 C13.3064393,15.8412302 13.3439371,16.0225116 13.2986827,16.0858035 C13.2856251,16.1040704 13.2662451,16.0980809 13.2494927,16.1010298 C13.0938677,16.1283499 12.936533,16.1172429 12.7798523,16.1224293 C12.5699542,16.1293711 12.3639,16.1166807 12.1656252,16.0389772 C12.0380891,15.9889954 11.9067551,16.0148813 11.7764767,16.0256211 C11.6931852,16.0324942 11.6128312,16.0266079 11.5393387,15.9796095 C11.4998444,15.9543547 11.4852492,15.9269198 11.4972856,15.8775921 C11.5476116,15.6712165 11.5669801,15.4585531 11.6519812,15.2588096 C11.6900986,15.1692074 11.6659683,15.0600645 11.6585674,14.9600091 C11.6494798,14.8371086 11.6313161,14.7148163 11.6373401,14.5910782 C11.6381319,14.5747044 11.6354469,14.5583307 11.6206336,14.5505856 C11.5545765,14.5160596 11.5511457,14.4561527 11.5535897,14.3928838 C11.5540831,14.3801933 11.5532225,14.3664816 11.548977,14.3546975 C11.4381933,14.047211 11.453477,13.7210674 11.4081767,13.4039426 C11.3965877,13.3227624 11.4228981,13.2499355 11.4763337,13.1902121 C11.5095286,13.153093 11.5219094,13.1143904 11.5237338,13.066015 C11.5263499,12.9967336 11.5288168,12.9259605 11.5446398,12.8589854 C11.5711109,12.7468707 11.4904355,12.6834412 11.4426338,12.6045558 C11.4289566,12.581963 11.4105748,12.6001956 11.3944765,12.6032936 C11.2088349,12.639185 11.1176148,12.6016069 11.0135664,12.4474621 C10.8466967,12.2002383 10.6783352,11.9540127 10.5133358,11.7055611 C10.4857977,11.6641162 10.4560449,11.6423726 10.4071877,11.6482359 C10.2843101,11.6629688 10.2085343,11.6029012 10.1601818,11.4957548 C10.1370039,11.4444306 10.1093739,11.3951373 10.0837634,11.3449261 C10.076179,11.3413231 10.0685945,11.3377202 10.0609986,11.3341173" id="形状结合" fill="#FFFFFF" fill-rule="nonzero"></path>
            </g>
        </g>
    </g>
</svg>