<?xml version="1.0" encoding="UTF-8"?>
<svg width="18px" height="18px" viewBox="0 0 18 18" version="1.1" xmlns="http://www.w3.org/2000/svg" xmlns:xlink="http://www.w3.org/1999/xlink">
    <title>余额</title>
    <defs>
        <filter x="-17.9%" y="-17.9%" width="135.7%" height="135.7%" filterUnits="objectBoundingBox" id="filter-1">
            <feOffset dx="0" dy="1" in="SourceAlpha" result="shadowOffsetOuter1"></feOffset>
            <feColorMatrix values="0 0 0 0 1   0 0 0 0 0.588235294   0 0 0 0 0.250980392  0 0 0 1 0" type="matrix" in="shadowOffsetOuter1" result="shadowMatrixOuter1"></feColorMatrix>
            <feMerge>
                <feMergeNode in="shadowMatrixOuter1"></feMergeNode>
                <feMergeNode in="SourceGraphic"></feMergeNode>
            </feMerge>
        </filter>
        <linearGradient x1="50%" y1="98.8040433%" x2="50%" y2="0%" id="linearGradient-2">
            <stop stop-color="#FFC855" offset="0%"></stop>
            <stop stop-color="#FF7300" offset="100%"></stop>
        </linearGradient>
        <path d="M11.9412164,13 L2.05726426,13 C1.46210155,12.9745368 0.993541438,12.4692941 1,11.856838 L1,5.27125976 C1.0170347,4.76065633 1.35507668,4.32108171 1.83538343,4.1857249 L2.73390758,4.1857249 L3.12415682,2.64319325 C3.24684387,2.16207347 3.66058636,1.82033101 4.14480866,1.79888835 C4.23356099,1.79888835 4.32361851,1.81229001 4.4084553,1.83909334 L5.13152578,2.01063466 L5.18764858,1.66755203 C5.25682319,1.40621956 5.44215895,1.19313309 5.68883823,1.0966411 C5.82327191,1.03097294 5.96945223,0.997468779 6.1182429,1.00014911 C6.21874187,1.00014911 6.31924084,1.01221061 6.41582426,1.03767377 L10.7646886,2.23846296 C11.0492182,2.30145079 11.2932871,2.49041427 11.4329415,2.7530869 C11.6078358,3.0010177 11.6496016,3.32399783 11.5438819,3.61079346 C11.4699216,3.90781998 11.4329415,4.05633323 11.4329415,4.05633323 C11.7439845,4.04990348 12.0434925,4.11090292 12.3314656,4.23933156 C12.7191045,4.42427453 12.9605631,4.82900482 12.9435957,5.26857943 L12.9997185,6.69719693 L8.6424637,6.69719693 C7.73927818,6.67575426 6.99010407,7.41150567 6.97052635,8.33890089 L6.97052635,8.41529039 C6.94964344,9.33866511 7.66618802,10.1079207 8.56937354,10.1280232 L12.9997185,10.1280232 L12.9997185,11.8420961 C13.0114651,12.4599129 12.5415998,12.9745368 11.9412164,13 Z" id="path-3"></path>
        <linearGradient x1="50%" y1="98.8040433%" x2="50%" y2="0%" id="linearGradient-4">
            <stop stop-color="#FFC855" offset="0%"></stop>
            <stop stop-color="#FF7300" offset="100%"></stop>
        </linearGradient>
        <path d="M12.0463767,9.56515325 L8.64507406,9.56515325 C8.02902845,9.56515325 7.53044916,9.05186948 7.53044916,8.42065105 C7.53044916,7.78943263 8.03033363,7.27614886 8.64507406,7.27614886 L12.0463767,7.27614886 L12.0463767,9.56515325 Z" id="path-5"></path>
    </defs>
    <g id="页面-1" stroke="none" stroke-width="1" fill="none" fill-rule="evenodd">
        <g id="首页黑版1" transform="translate(-10.000000, -265.000000)">
            <g id="余额" filter="url(#filter-1)" transform="translate(12.000000, 267.000000)">
                <rect id="矩形" fill="#121315" x="5.99993403" y="6" width="7" height="5"></rect>
                <g id="路径" fill-rule="nonzero">
                    <use fill="#FFBC4A" xlink:href="#path-3"></use>
                    <use fill="url(#linearGradient-2)" xlink:href="#path-3"></use>
                </g>
                <path d="M4.13306202,2.34165578 C3.8824672,2.34969678 3.66058636,2.51185693 3.57183403,2.7530869 L3.2938304,4.12407724 L9.92806736,4.12407724 L9.92806736,3.95253592 C9.77666632,3.84398244 9.60699274,3.76625278 9.42687771,3.72336745 L4.24139208,2.35237712 C4.204847,2.34567628 4.1696071,2.34165578 4.13306202,2.34165578 Z" id="路径" fill="#121315" fill-rule="nonzero"></path>
                <path d="M6.29705275,1.55095755 C6.14956726,1.53889605 5.9994714,1.55899854 5.85981699,1.60858471 C5.80369419,1.60858471 5.74887657,1.66621187 5.69275377,1.78012602 L5.63663098,2.12320864 L9.59524611,3.15245652 L9.60307719,3.15245652 C9.81582176,3.19400168 10.0194301,3.27173134 10.2086814,3.38162499 C10.5167042,3.59203113 10.5545544,3.81583894 10.486685,3.95253592 L10.486685,4.06645008 L10.8769342,4.06645008 L11.0439974,3.38028483 C11.0792373,3.24492801 11.0596596,3.10019003 10.9878746,2.97957504 C10.9278363,2.84421822 10.7986233,2.75576723 10.6537482,2.75040657 L6.30357866,1.54961738 L6.29705275,1.54961738 L6.29705275,1.55095755 Z" id="路径" fill="#121315" fill-rule="nonzero"></path>
                <g id="路径" fill-rule="nonzero">
                    <use fill="#FFBC4A" xlink:href="#path-5"></use>
                    <use fill="url(#linearGradient-4)" xlink:href="#path-5"></use>
                </g>
                <path d="M8.64507406,7.84839995 C8.33705125,7.84839995 8.08906679,8.10437176 8.08906679,8.41931089 C8.08906679,8.73559018 8.33835643,8.99022182 8.64507406,8.99022182 C8.95309687,8.99022182 9.20108133,8.73425001 9.20108133,8.41931089 C9.21804869,8.12045375 8.99616785,7.86448195 8.7051124,7.84705979 C8.68553468,7.84571962 8.66465178,7.84571962 8.64507406,7.84839995 Z" id="路径" fill="#121315" fill-rule="nonzero"></path>
                <rect id="矩形" fill="#685C50" fill-rule="nonzero" opacity="0" x="0" y="0" width="14" height="14"></rect>
            </g>
        </g>
    </g>
</svg>