<?xml version="1.0" encoding="UTF-8"?>
<svg width="140px" height="98px" viewBox="0 0 140 98" version="1.1" xmlns="http://www.w3.org/2000/svg" xmlns:xlink="http://www.w3.org/1999/xlink">
    <!-- Generator: Sketch 61.2 (89653) - https://sketch.com -->
    <title>编组</title>
    <desc>Created with Sketch.</desc>
    <g id="页面-1" stroke="none" stroke-width="1" fill="none" fill-rule="evenodd">
        <g id="画板" transform="translate(-390.000000, -65.000000)" fill="#FFFFFF" fill-rule="nonzero">
            <g id="编组" transform="translate(390.000000, 65.000000)">
                <path d="M53.4204749,58.2383847 C57.3073137,46.21059 64.4956673,42.4835324 71.8525436,46.1585204 C78.3916491,49.4250064 78.6018748,55.2102253 76.2147892,61.0113563 C71.6774595,64.9077952 64.8847505,65.9159463 52.8745679,60.4684247 C52.9954465,59.733861 53.1774233,58.9905064 53.4204749,58.2383847 Z M47.8599622,57.9876812 C32.7309341,49.8849756 19.8283882,37.5343122 14.0904776,24.4704795 C9.1565412,11.9655768 6.0998028,3.99420695 4.93136901,0.58465225 L3.98537572,0.908838435 C5.16069193,4.33847644 8.22016447,12.3169764 13.167588,24.8550747 C19.0127237,38.1639316 32.0763537,50.6687889 47.3878372,58.8692128 C48.8624044,59.6589518 50.3270606,60.3913334 51.7743156,61.0645696 C49.7692016,78.2626992 79.1649339,90.3738399 139.699331,97.6689349 L139.818977,96.6761183 C80.2813735,89.5011484 51.3421199,77.68973 52.7437896,61.5078913 C65.0459065,67.0358989 72.1284682,65.9775142 76.9630138,61.6855514 L77.0909407,61.5078913 C79.7989504,55.1622567 79.31357,48.7677101 72.2994215,45.2639254 C64.3580344,41.2969562 56.5332003,45.3540197 52.468926,57.9308872 C52.2398658,58.6397125 52.0605895,59.340451 51.9310804,60.03312 C50.5875966,59.4028107 49.2284071,58.7205839 47.8599622,57.9876812 Z" id="路径-5"></path>
                <path d="M14.5497132,6.83891073 C14.7896599,6.97558622 15.0949725,6.89186836 15.231648,6.65192165 C15.3683234,6.41197494 15.2846056,6.10666233 15.0446589,5.96998684 L4.67920759,0.065746191 C4.40864106,-0.0883705787 4.064535,0.0396404665 3.9604792,0.333120644 L0.0288807362,11.421847 C-0.0633991385,11.6821143 0.0727815275,11.9679102 0.333048767,12.06019 C0.593316007,12.1524699 0.879111911,12.0162892 0.971391785,11.756022 L4.70335492,1.23034947 L14.5497132,6.83891073 Z" id="路径"></path>
            </g>
        </g>
    </g>
</svg>