<?xml version="1.0" encoding="UTF-8"?>
<svg width="249px" height="29px" viewBox="0 0 249 29" version="1.1" xmlns="http://www.w3.org/2000/svg" xmlns:xlink="http://www.w3.org/1999/xlink">
    <!-- Generator: Sketch 61.2 (89653) - https://sketch.com -->
    <title>点击此处选择您喜欢的盘口</title>
    <desc>Created with Sketch.</desc>
    <g id="页面-1" stroke="none" stroke-width="1" fill="none" fill-rule="evenodd">
        <g id="画板" transform="translate(-419.000000, -173.000000)" fill="#FFFFFF" fill-rule="nonzero">
            <path d="M426.036185,193.29155 C426.356185,193.29155 426.576185,193.11155 426.696185,192.75155 C426.716185,192.77155 426.756185,192.77155 426.816185,192.77155 C427.476185,192.75155 428.196185,192.67155 428.976185,192.55155 C431.096185,192.23155 432.596185,191.89155 433.496185,191.53155 C433.716185,191.37155 433.836185,191.15155 433.836185,190.85155 L433.716185,190.51155 L433.716185,190.51155 C433.636185,190.39155 433.536185,190.31155 433.436185,190.27155 L433.496185,190.21155 L433.496185,190.21155 C434.216185,189.25155 434.636185,188.25155 434.736185,187.21155 C434.736185,186.49155 434.356185,186.01155 433.596185,185.73155 C433.116185,185.53155 432.356185,185.43155 431.336185,185.43155 C430.616185,185.43155 429.916185,185.47155 429.236185,185.53155 C429.376185,184.53155 429.456185,183.49155 429.476185,182.45155 C429.616185,182.45155 429.776185,182.43155 429.936185,182.41155 C429.976185,182.41155 430.096185,182.41155 430.296185,182.37155 C430.836185,182.25155 431.416185,182.13155 432.036185,181.97155 C433.156185,181.71155 433.856185,181.49155 434.136185,181.29155 C434.316185,181.09155 434.416185,180.91155 434.416185,180.71155 C434.416185,180.63155 434.396185,180.57155 434.376185,180.53155 C434.276185,180.39155 434.136185,180.31155 433.976185,180.31155 C433.476185,180.41155 432.776185,180.51155 431.856185,180.61155 C431.236185,180.69155 430.596185,180.77155 429.936185,180.83155 C429.776185,180.89155 429.616185,180.95155 429.476185,180.99155 C429.416185,180.11155 429.276185,179.39155 429.076185,178.79155 C428.876185,178.37155 428.696185,178.15155 428.536185,178.11155 C428.296185,178.11155 428.076185,178.21155 427.876185,178.41155 C427.676185,178.61155 427.596185,178.87155 427.596185,179.15155 C427.936185,180.31155 428.116185,181.25155 428.116185,181.97155 L428.016185,185.73155 C427.856185,185.77155 427.676185,185.81155 427.496185,185.85155 C427.076185,185.93155 426.696185,186.05155 426.336185,186.17155 L426.236185,185.87155 L426.236185,185.87155 C426.076185,185.43155 425.856185,185.19155 425.536185,185.19155 C425.296185,185.19155 425.116185,185.25155 424.956185,185.35155 C424.696185,185.55155 424.576185,185.77155 424.576185,186.01155 C424.576185,186.13155 424.636185,186.37155 424.756185,186.69155 C424.876185,187.09155 424.996185,187.53155 425.116185,188.01155 C425.436185,189.21155 425.596185,190.21155 425.596185,190.97155 C425.596185,191.25155 425.576185,191.63155 425.556185,192.09155 C425.516185,192.35155 425.496185,192.55155 425.476185,192.71155 C425.476185,193.11155 425.656185,193.29155 426.036185,193.29155 Z M426.936185,191.29155 C426.956185,190.97155 426.976185,190.63155 426.976185,190.27155 C426.976185,189.83155 426.916185,189.19155 426.836185,188.37155 C426.796185,188.15155 426.756185,187.91155 426.716185,187.67155 C426.996185,187.63155 427.436185,187.53155 428.076185,187.39155 C428.696185,187.23155 429.296185,187.15155 429.876185,187.11155 C430.476185,187.01155 430.996185,186.95155 431.456185,186.95155 C432.636185,186.95155 433.276185,187.07155 433.356185,187.31155 C433.356185,188.03155 432.636185,189.13155 431.196185,190.59155 C431.176185,190.61155 431.156185,190.63155 431.116185,190.65155 C430.336185,190.83155 429.496185,190.99155 428.616185,191.11155 C428.016185,191.19155 427.456185,191.25155 426.936185,191.29155 Z M432.876185,197.45155 C433.076185,197.45155 433.196185,197.39155 433.256185,197.27155 C433.336185,197.13155 433.376185,196.97155 433.376185,196.81155 C433.256185,195.93155 432.436185,194.95155 430.916185,193.83155 C430.676185,193.67155 430.476185,193.59155 430.296185,193.59155 C430.056185,193.59155 429.916185,193.65155 429.856185,193.77155 C429.776185,193.85155 429.736185,193.99155 429.736185,194.17155 C429.736185,194.45155 429.816185,194.67155 429.976185,194.87155 C431.276185,196.49155 432.236185,197.35155 432.876185,197.45155 Z M437.956185,197.35155 C438.196185,197.33155 438.316185,197.23155 438.336185,197.03155 C438.336185,196.91155 438.296185,196.75155 438.216185,196.57155 C437.456185,194.97155 436.516185,194.03155 435.436185,193.75155 C435.356185,193.73155 435.296185,193.71155 435.216185,193.71155 C435.116185,193.71155 435.016185,193.75155 434.896185,193.83155 C434.736185,193.95155 434.676185,194.13155 434.676185,194.33155 C434.676185,194.63155 434.836185,194.93155 435.156185,195.29155 C436.156185,196.37155 436.996185,197.05155 437.656185,197.29155 C437.756185,197.33155 437.856185,197.35155 437.956185,197.35155 Z M423.876185,198.01155 C424.056185,198.01155 424.176185,197.95155 424.236185,197.83155 C424.316185,197.71155 424.356185,197.55155 424.356185,197.37155 C424.256185,196.41155 423.516185,195.31155 422.116185,194.09155 C421.876185,193.93155 421.656185,193.85155 421.476185,193.85155 C421.256185,193.85155 421.116185,193.91155 421.036185,194.03155 C420.956185,194.11155 420.916185,194.23155 420.916185,194.43155 C420.916185,194.69155 420.996185,194.91155 421.176185,195.11155 C422.376185,196.93155 423.276185,197.89155 423.876185,198.01155 Z M429.016185,197.87155 C429.176185,197.87155 429.296185,197.83155 429.416185,197.77155 C429.516185,197.73155 429.616185,197.65155 429.696185,197.51155 C429.776185,197.39155 429.816185,197.29155 429.836185,197.19155 C429.836185,196.97155 429.756185,196.83155 429.616185,196.77155 C428.816185,196.39155 428.016185,195.69155 427.176185,194.67155 C426.936185,194.39155 426.716185,194.19155 426.516185,194.05155 C426.376185,193.95155 426.256185,193.89155 426.136185,193.89155 C426.016185,193.89155 425.916185,193.91155 425.856185,193.91155 C425.696185,193.99155 425.576185,194.07155 425.476185,194.17155 C425.296185,194.35155 425.216185,194.51155 425.216185,194.63155 C425.216185,194.83155 425.296185,194.99155 425.456185,195.13155 C425.956185,195.85155 426.516185,196.45155 427.156185,196.91155 C427.956185,197.55155 428.576185,197.87155 429.016185,197.87155 Z M445.316185,197.89155 C446.996185,197.89155 448.716185,197.57155 450.496185,196.95155 C452.436185,196.19155 454.036185,195.33155 455.276185,194.33155 C455.556185,195.27155 455.936185,196.09155 456.436185,196.81155 C456.576185,197.15155 456.836185,197.33155 457.196185,197.33155 C457.536185,197.23155 457.736185,197.01155 457.776185,196.67155 C457.516185,196.11155 457.276185,195.45155 457.036185,194.69155 C456.476185,193.13155 456.196185,191.97155 456.196185,191.17155 C456.196185,190.65155 456.236185,190.11155 456.336185,189.59155 C456.256185,189.21155 456.016185,188.99155 455.636185,188.95155 C455.136185,188.95155 454.836185,189.17155 454.756185,189.57155 C454.756185,190.33155 454.756185,191.03155 454.796185,191.67155 C454.836185,192.11155 454.896185,192.55155 454.976185,192.97155 C454.776185,193.05155 454.556185,193.19155 454.276185,193.37155 C453.456185,193.91155 452.296185,194.49155 450.816185,195.13155 L450.776185,195.13155 C450.896185,194.61155 450.976185,194.01155 450.976185,193.31155 C450.976185,192.31155 450.936185,191.11155 450.856185,189.69155 C450.836185,189.03155 450.816185,188.41155 450.816185,187.85155 C454.436185,187.13155 456.676185,186.49155 457.556185,185.95155 C457.756185,185.75155 457.876185,185.53155 457.876185,185.33155 C457.876185,185.25155 457.856185,185.17155 457.816185,185.11155 C457.736185,184.95155 457.596185,184.87155 457.396185,184.87155 C455.796185,185.27155 453.596185,185.71155 450.756185,186.23155 L450.756185,185.85155 C450.756185,184.87155 450.756185,183.95155 450.776185,183.11155 C451.316185,183.01155 451.856185,182.91155 452.416185,182.79155 C453.496185,182.59155 454.316185,182.37155 454.876185,182.17155 C455.116185,181.93155 455.236185,181.67155 455.236185,181.39155 C455.216185,181.23155 455.096185,181.09155 454.896185,180.95155 C454.756185,180.87155 454.596185,180.83155 454.416185,180.83155 C454.136185,180.83155 453.676185,180.91155 453.016185,181.07155 C452.316185,181.23155 451.576185,181.39155 450.816185,181.53155 C450.836185,180.57155 450.856185,179.89155 450.856185,179.45155 C450.856185,179.01155 450.636185,178.75155 450.196185,178.63155 L449.736185,178.63155 C449.336185,178.75155 449.156185,179.01155 449.156185,179.45155 C449.156185,180.25155 449.176185,181.05155 449.176185,181.83155 C448.056185,182.03155 446.836185,182.23155 445.516185,182.41155 C445.156185,182.45155 444.856185,182.51155 444.636185,182.55155 C444.416185,182.71155 444.296185,182.91155 444.296185,183.11155 C444.296185,183.53155 444.476185,183.85155 444.876185,184.05155 L445.056185,184.05155 C445.416185,184.03155 445.756185,183.99155 446.096185,183.91155 C447.116185,183.75155 448.136185,183.57155 449.176185,183.41155 C449.176185,184.41155 449.216185,185.45155 449.256185,186.49155 C447.436185,186.83155 445.556185,187.13155 443.636185,187.37155 C443.236185,187.49155 442.936185,187.59155 442.716185,187.67155 C442.296185,187.87155 442.096185,188.11155 442.096185,188.37155 C442.156185,188.93155 442.396185,189.23155 442.816185,189.23155 C443.036185,189.23155 443.316185,189.21155 443.636185,189.17155 C443.876185,189.15155 444.256185,189.09155 444.816185,188.99155 C446.236185,188.75155 447.736185,188.47155 449.316185,188.15155 C449.316185,188.37155 449.336185,188.59155 449.356185,188.81155 C449.456185,190.45155 449.516185,192.03155 449.536185,193.51155 C449.496185,194.31155 449.276185,195.07155 448.896185,195.83155 C447.656185,196.19155 446.556185,196.39155 445.556185,196.39155 C445.076185,196.33155 444.836185,196.09155 444.836185,195.65155 C444.836185,195.53155 444.996185,195.11155 445.336185,194.41155 C445.536185,193.85155 445.676185,193.39155 445.756185,193.07155 C445.836185,192.79155 445.876185,192.53155 445.876185,192.27155 C445.876185,191.99155 445.836185,191.75155 445.756185,191.57155 C445.636185,191.29155 445.396185,191.13155 445.036185,191.13155 C444.596185,191.13155 444.296185,191.39155 444.116185,191.89155 C444.156185,192.23155 444.176185,192.57155 444.176185,192.89155 C444.176185,193.07155 444.136185,193.25155 444.076185,193.45155 C443.936185,193.79155 443.776185,194.15155 443.616185,194.55155 C443.336185,195.07155 443.196185,195.45155 443.196185,195.69155 C443.196185,196.43155 443.436185,197.01155 443.956185,197.45155 C444.316185,197.73155 444.756185,197.87155 445.316185,197.89155 Z M476.856185,196.41155 C478.996185,196.37155 480.076185,196.03155 480.076185,195.37155 C480.076185,194.97155 480.056185,194.55155 480.056185,194.05155 C479.996185,192.69155 479.896185,191.91155 479.776185,191.67155 C479.656185,191.51155 479.496185,191.41155 479.296185,191.41155 C479.016185,191.49155 478.896185,191.67155 478.896185,191.95155 C478.876185,192.43155 478.876185,192.93155 478.876185,193.43155 C478.856185,194.11155 478.816185,194.55155 478.736185,194.75155 C478.456185,194.91155 477.956185,194.99155 477.196185,194.99155 C476.036185,194.99155 475.196185,194.79155 474.676185,194.41155 C473.876185,193.81155 473.436185,192.05155 473.396185,189.09155 L473.396651,188.444553 C473.397818,187.880121 473.401899,187.25155 473.416185,186.55155 C474.196185,186.45155 475.036185,186.25155 475.916185,185.97155 C476.476185,185.77155 476.916185,185.57155 477.236185,185.33155 C477.396185,185.21155 477.516185,185.07155 477.636185,184.89155 L477.656185,184.55155 L477.656185,184.55155 C477.576185,184.35155 477.356185,184.25155 476.956185,184.25155 C475.256185,184.67155 474.096185,184.91155 473.476185,184.99155 C473.516185,183.91155 473.556185,182.79155 473.556185,181.59155 C473.536185,180.91155 473.476185,180.43155 473.396185,180.13155 C473.236185,179.81155 473.016185,179.63155 472.736185,179.59155 C472.236185,179.67155 471.976185,179.91155 471.976185,180.29155 C472.056185,181.27155 472.096185,182.57155 472.096185,184.17155 C472.096185,184.49155 472.056185,185.29155 471.996185,186.57155 C471.976185,187.67155 471.976185,188.59155 471.976185,189.35155 C471.976185,192.21155 472.416185,194.15155 473.336185,195.19155 C474.076185,195.99155 475.256185,196.41155 476.856185,196.41155 Z M463.536185,196.19155 C464.296185,196.19155 464.976185,196.01155 465.576185,195.65155 C466.436185,195.15155 467.516185,194.33155 468.796185,193.15155 C469.276185,192.65155 469.676185,192.19155 470.036185,191.79155 C470.176185,191.59155 470.256185,191.41155 470.276185,191.29155 C470.276185,191.13155 470.216185,190.97155 470.116185,190.85155 C469.996185,190.79155 469.876185,190.75155 469.796185,190.75155 C469.636185,190.75155 469.516185,190.85155 469.436185,191.01155 C468.916185,191.51155 468.356185,191.99155 467.796185,192.43155 C467.596185,192.61155 467.376185,192.79155 467.176185,192.95155 C467.216185,191.67155 467.236185,190.19155 467.256185,188.51155 L467.256185,187.47155 C467.456185,187.39155 467.736185,187.25155 468.096185,187.03155 C468.636185,186.71155 469.216185,186.33155 469.856185,185.85155 C470.096185,185.69155 470.276185,185.47155 470.396185,185.23155 C470.436185,185.19155 470.456185,185.13155 470.456185,185.09155 C470.456185,185.03155 470.416185,184.95155 470.356185,184.87155 C470.236185,184.73155 470.156185,184.65155 470.076185,184.65155 C469.836185,184.65155 468.876185,185.09155 467.196185,185.95155 L467.136185,184.85155 L467.136185,184.85155 C466.996185,183.43155 466.836185,182.35155 466.656185,181.59155 C466.416185,181.21155 466.216185,181.01155 466.036185,181.01155 C465.876185,181.01155 465.716185,181.11155 465.556185,181.27155 C465.396185,181.43155 465.316185,181.61155 465.316185,181.83155 C465.316185,181.95155 465.376185,182.19155 465.496185,182.53155 C465.676185,183.41155 465.796185,184.45155 465.876185,185.63155 C465.956185,186.81155 465.996185,187.99155 465.996185,189.15155 C465.996185,190.75155 465.956185,192.33155 465.916185,193.91155 C465.876185,193.95155 465.856185,193.97155 465.816185,193.99155 C464.836185,194.63155 464.196185,194.95155 463.916185,194.95155 C463.756185,194.95155 463.676185,194.67155 463.676185,194.09155 C463.676185,192.65155 463.696185,191.25155 463.756185,189.89155 C463.776185,189.13155 463.796185,188.61155 463.796185,188.29155 C463.796185,188.13155 463.736185,187.97155 463.656185,187.81155 C463.496185,187.65155 463.336185,187.57155 463.136185,187.55155 C462.996185,187.55155 462.876185,187.59155 462.796185,187.63155 C462.576185,187.75155 462.456185,187.91155 462.436185,188.11155 C462.436185,188.47155 462.456185,188.97155 462.516185,189.59155 C462.516185,190.23155 462.536185,190.81155 462.536185,191.31155 C462.536185,191.83155 462.516185,192.37155 462.516185,192.93155 C462.456185,193.43155 462.436185,193.93155 462.436185,194.45155 C462.436185,194.81155 462.476185,195.09155 462.556185,195.33155 C462.716185,195.89155 463.036185,196.19155 463.536185,196.19155 Z M494.456185,192.51155 C494.776185,192.51155 494.976185,192.37155 495.056185,192.09155 C495.076185,191.81155 495.096185,191.31155 495.136185,190.59155 C495.136185,190.27155 495.176185,189.11155 495.296185,187.11155 L495.316185,186.69155 L495.316185,186.69155 C495.456185,186.77155 495.596185,186.85155 495.756185,186.93155 C496.376185,187.33155 496.776185,187.55155 496.936185,187.63155 C497.396185,187.85155 497.776185,187.99155 498.056185,188.07155 C498.176185,188.11155 498.296185,188.11155 498.396185,188.11155 C498.476185,188.11155 498.556185,188.11155 498.616185,188.07155 C498.836185,187.99155 498.956185,187.85155 498.996185,187.63155 C498.996185,187.47155 498.936185,187.37155 498.816185,187.29155 C498.616185,187.21155 498.416185,187.11155 498.236185,186.99155 C497.716185,186.71155 497.256185,186.39155 496.896185,186.07155 C496.216185,185.63155 495.756185,185.35155 495.536185,185.25155 C495.516185,185.25155 495.476185,185.25155 495.436185,185.23155 C495.476185,184.19155 495.516185,183.15155 495.516185,182.15155 C495.516185,181.87155 495.496185,181.63155 495.496185,181.43155 C495.456185,180.87155 495.216185,180.59155 494.816185,180.59155 C494.676185,180.59155 494.536185,180.65155 494.376185,180.75155 C494.096185,180.93155 493.976185,181.15155 493.976185,181.43155 C493.996185,181.91155 494.016185,182.45155 494.036185,183.03155 C494.036185,184.85155 494.016185,186.27155 493.996185,187.27155 C493.956185,187.97155 493.936185,188.73155 493.896185,189.53155 C493.836185,190.63155 493.816185,191.25155 493.816185,191.37155 C493.816185,192.13155 494.016185,192.51155 494.456185,192.51155 Z M499.776185,197.81155 C499.976185,197.81155 500.116185,197.75155 500.196185,197.65155 C500.316185,197.53155 500.396185,197.39155 500.396185,197.19155 C500.396185,196.95155 500.296185,196.83155 500.116185,196.79155 C498.196185,196.27155 496.476185,195.67155 494.956185,194.95155 C493.516185,194.23155 492.156185,193.45155 490.916185,192.59155 C490.216185,192.09155 489.516185,191.57155 488.836185,191.03155 C489.696185,189.29155 490.276185,187.49155 490.596185,185.65155 C490.656185,185.37155 490.696185,185.13155 490.696185,184.93155 C490.676185,184.55155 490.516185,184.25155 490.216185,184.01155 C489.976185,183.81155 489.696185,183.71155 489.376185,183.71155 C489.176185,183.71155 488.896185,183.77155 488.536185,183.85155 C488.136185,183.99155 487.336185,184.35155 486.116185,184.91155 C486.596185,183.97155 486.836185,182.95155 486.836185,181.83155 C486.816185,181.55155 486.796185,181.33155 486.796185,181.21155 C486.716185,180.85155 486.476185,180.65155 486.116185,180.65155 C485.896185,180.69155 485.716185,180.77155 485.576185,180.85155 C485.436185,181.01155 485.376185,181.21155 485.376185,181.41155 C485.376185,182.21155 485.316185,182.85155 485.196185,183.33155 C484.956185,184.07155 484.696185,184.59155 484.396185,184.87155 C483.796185,185.59155 483.496185,186.15155 483.496185,186.59155 C483.556185,187.11155 483.756185,187.37155 484.076185,187.37155 C484.396185,187.23155 484.956185,186.97155 485.716185,186.57155 C487.436185,185.71155 488.596185,185.23155 489.196185,185.11155 C489.196185,186.17155 488.816185,187.65155 488.056185,189.57155 C487.976185,189.79155 487.876185,189.99155 487.756185,190.17155 C487.296185,189.77155 486.836185,189.37155 486.356185,188.95155 C486.156185,188.79155 485.976185,188.63155 485.856185,188.51155 C485.676185,188.39155 485.556185,188.31155 485.476185,188.29155 C485.416185,188.29155 485.336185,188.27155 485.236185,188.27155 C485.036185,188.29155 484.876185,188.37155 484.776185,188.51155 C484.616185,188.69155 484.536185,188.87155 484.536185,189.05155 C484.536185,189.35155 484.636185,189.59155 484.876185,189.77155 C485.556185,190.37155 486.256185,190.99155 486.976185,191.63155 C486.736185,192.07155 486.476185,192.49155 486.196185,192.93155 C485.316185,194.29155 484.376185,195.25155 483.376185,195.85155 C483.216185,195.97155 483.016185,196.07155 482.796185,196.17155 C482.696185,196.25155 482.636185,196.35155 482.636185,196.51155 C482.716185,196.83155 482.996185,197.01155 483.516185,197.01155 C483.716185,196.99155 483.956185,196.91155 484.256185,196.79155 C484.616185,196.55155 484.936185,196.31155 485.196185,196.05155 C486.276185,195.05155 487.216185,193.87155 488.036185,192.49155 C489.096185,193.35155 490.296185,194.17155 491.636185,194.97155 C493.116185,195.85155 494.516185,196.53155 495.796185,197.01155 C496.476185,197.25155 497.216185,197.47155 498.016185,197.65155 C498.656185,197.75155 499.236185,197.81155 499.776185,197.81155 Z M509.356185,194.53155 C509.416185,194.45155 509.496185,194.37155 509.576185,194.29155 C509.696185,194.15155 509.856185,193.95155 510.056185,193.67155 C510.356185,193.27155 510.676185,192.83155 511.036185,192.35155 C511.356185,191.83155 511.676185,191.29155 511.976185,190.71155 C512.416185,189.81155 512.756185,189.01155 513.016185,188.29155 C513.116185,188.75155 513.176185,189.31155 513.196185,189.95155 C513.196185,190.67155 513.236185,191.29155 513.316185,191.83155 C513.396185,192.49155 513.736185,192.99155 514.336185,193.35155 C514.976185,193.71155 515.776185,193.89155 516.776185,193.89155 C517.816185,193.89155 518.796185,193.63155 519.716185,193.09155 C520.316185,193.09155 520.616185,192.69155 520.616185,191.91155 C520.576185,190.43155 520.216185,189.43155 519.516185,188.89155 C519.296185,188.69155 519.096185,188.57155 518.916185,188.57155 C518.716185,188.65155 518.616185,188.83155 518.616185,189.13155 C519.056185,190.01155 519.276185,190.85155 519.276185,191.63155 C518.536185,192.13155 517.856185,192.37155 517.216185,192.37155 C516.516185,192.37155 515.956185,192.31155 515.536185,192.15155 C515.016185,191.95155 514.716185,191.63155 514.616185,191.17155 C514.536185,190.45155 514.496185,189.91155 514.496185,189.55155 C514.496185,188.99155 514.436185,188.49155 514.336185,188.07155 C514.256185,187.75155 514.036185,187.57155 513.716185,187.55155 L513.576185,187.55155 C513.456185,187.57155 513.356185,187.61155 513.236185,187.67155 C513.316185,187.43155 513.376185,187.23155 513.416185,187.07155 C514.156185,186.81155 514.916185,186.53155 515.676185,186.23155 C516.676185,185.83155 517.436185,185.45155 517.956185,185.09155 C518.156185,184.89155 518.256185,184.67155 518.256185,184.43155 C518.236185,184.31155 518.136185,184.21155 517.976185,184.09155 C517.836185,184.03155 517.696185,183.99155 517.556185,183.99155 C517.316185,183.99155 516.876185,184.13155 516.236185,184.41155 C515.436185,184.77155 514.556185,185.13155 513.596185,185.47155 C513.736185,185.11155 513.876185,184.69155 513.996185,184.23155 C514.116185,183.57155 514.196185,182.95155 514.216185,182.39155 C514.556185,182.23155 514.896185,182.03155 515.216185,181.83155 C515.676185,181.59155 516.036185,181.35155 516.316185,181.11155 C516.436185,180.99155 516.496185,180.85155 516.496185,180.71155 C516.496185,180.35155 516.376185,180.15155 516.176185,180.11155 C516.076185,180.11155 515.976185,180.13155 515.896185,180.13155 L515.736185,180.23155 C515.176185,180.51155 514.656185,180.75155 514.196185,180.95155 C514.156185,180.35155 514.056185,179.83155 513.936185,179.37155 C513.816185,179.13155 513.696185,178.95155 513.576185,178.83155 C513.456185,178.73155 513.296185,178.67155 513.096185,178.67155 C512.896185,178.69155 512.736185,178.75155 512.636185,178.83155 C512.436185,178.99155 512.356185,179.21155 512.356185,179.51155 C512.356185,179.65155 512.396185,179.87155 512.516185,180.17155 C512.636185,180.53155 512.716185,181.01155 512.756185,181.57155 C512.076185,181.81155 511.576185,181.93155 511.256185,181.93155 C511.056185,181.93155 510.896185,181.93155 510.796185,181.89155 C510.936185,181.45155 511.016185,181.11155 511.016185,180.87155 C511.016185,180.23155 510.816185,179.89155 510.416185,179.85155 L510.136185,179.85155 C509.796185,179.89155 509.596185,180.05155 509.536185,180.33155 C509.516185,180.87155 509.476185,181.45155 509.396185,182.09155 C509.396185,182.37155 509.456185,182.65155 509.576185,182.89155 C509.796185,183.25155 510.116185,183.43155 510.556185,183.43155 C511.196185,183.43155 511.916185,183.29155 512.756185,183.01155 C512.716185,183.25155 512.696185,183.49155 512.656185,183.75155 C512.536185,184.37155 512.376185,184.95155 512.216185,185.51155 C512.136185,185.69155 512.096185,185.85155 512.056185,186.01155 C511.176185,186.31155 510.256185,186.59155 509.296185,186.85155 C508.956185,186.93155 508.676185,187.01155 508.456185,187.09155 C508.236185,187.25155 508.116185,187.43155 508.116185,187.63155 C508.116185,188.01155 508.316185,188.29155 508.716185,188.49155 L508.876185,188.49155 C509.196185,188.45155 509.516185,188.37155 509.796185,188.27155 C510.456185,188.07155 511.116185,187.85155 511.776185,187.63155 C511.756185,187.67155 511.736185,187.73155 511.716185,187.81155 C511.516185,188.37155 511.296185,188.91155 511.016185,189.47155 C510.616185,190.35155 510.196185,191.17155 509.796185,191.93155 C509.516185,192.45155 509.276185,192.87155 509.116185,193.17155 C508.976185,193.39155 508.876185,193.57155 508.836185,193.73155 C508.756185,193.85155 508.716185,193.99155 508.716185,194.15155 C508.756185,194.41155 508.876185,194.55155 509.036185,194.57155 C509.156185,194.57155 509.276185,194.57155 509.356185,194.53155 Z M506.316185,184.51155 C506.596185,184.51155 506.756185,184.29155 506.796185,183.81155 C506.796185,183.59155 506.736185,183.39155 506.656185,183.23155 C506.296185,182.79155 505.916185,182.49155 505.556185,182.29155 C505.156185,182.07155 504.796185,181.95155 504.476185,181.95155 C504.016185,181.97155 503.756185,182.13155 503.676185,182.45155 C503.636185,182.57155 503.636185,182.65155 503.636185,182.73155 C503.636185,182.93155 503.656185,183.09155 503.716185,183.21155 C503.736185,183.25155 503.836185,183.27155 503.996185,183.31155 C504.716185,183.51155 505.276185,183.81155 505.676185,184.17155 C505.896185,184.41155 506.116185,184.51155 506.316185,184.51155 Z M515.776185,197.83155 C517.676185,197.83155 519.276185,197.55155 520.596185,197.03155 C520.796185,196.91155 520.916185,196.81155 520.976185,196.73155 C521.056185,196.59155 521.116185,196.45155 521.116185,196.33155 C521.076185,196.13155 520.896185,196.03155 520.556185,196.03155 C520.396185,196.03155 520.136185,196.07155 519.776185,196.17155 C519.296185,196.31155 518.836185,196.41155 518.396185,196.47155 C517.876185,196.51155 517.396185,196.55155 516.956185,196.55155 C516.396185,196.55155 515.776185,196.51155 515.076185,196.47155 C514.236185,196.39155 513.456185,196.31155 512.756185,196.19155 C510.816185,195.85155 509.076185,195.43155 507.516185,194.91155 C506.836185,194.67155 506.136185,194.39155 505.456185,194.09155 C505.396185,194.07155 505.336185,194.05155 505.276185,194.01155 C505.756185,193.49155 505.996185,192.75155 505.996185,191.83155 C505.996185,191.11155 505.776185,190.45155 505.376185,189.83155 C505.976185,188.99155 506.276185,188.35155 506.276185,187.87155 C506.276185,187.09155 505.976185,186.43155 505.396185,185.91155 C505.236185,185.75155 505.036185,185.65155 504.836185,185.63155 C504.356185,185.63155 504.096185,185.85155 504.076185,186.25155 C504.316185,186.61155 504.496185,186.93155 504.656185,187.19155 C504.816185,187.55155 504.916185,187.87155 504.956185,188.11155 C504.956185,188.19155 504.856185,188.35155 504.676185,188.57155 C504.196185,189.07155 503.976185,189.51155 503.976185,189.89155 C503.976185,190.13155 504.076185,190.39155 504.296185,190.67155 C504.536185,191.03155 504.656185,191.33155 504.656185,191.57155 C504.616185,192.45155 504.436185,193.07155 504.096185,193.47155 C504.056185,193.47155 504.016185,193.45155 503.976185,193.43155 C503.816185,193.35155 503.676185,193.31155 503.556185,193.31155 C503.356185,193.31155 503.216185,193.37155 503.096185,193.49155 C502.896185,193.69155 502.796185,193.89155 502.796185,194.13155 C502.796185,194.33155 502.836185,194.47155 502.916185,194.59155 C503.156185,194.75155 503.436185,194.93155 503.796185,195.11155 C504.336185,195.39155 504.936185,195.65155 505.596185,195.89155 C509.436185,197.17155 512.836185,197.83155 515.776185,197.83155 Z M530.616185,187.31155 C530.816185,187.31155 531.036185,187.23155 531.276185,187.03155 C532.236185,186.67155 533.196185,186.05155 534.176185,185.19155 C534.416185,184.99155 534.656185,184.77155 534.936185,184.51155 C535.956185,185.07155 536.916185,185.53155 537.816185,185.89155 C539.096185,186.41155 540.136185,186.69155 540.896185,186.71155 L541.196185,186.71155 C541.516185,186.65155 541.676185,186.49155 541.716185,186.21155 C541.716185,186.01155 541.636185,185.85155 541.496185,185.75155 C540.496185,185.47155 539.676185,185.21155 539.036185,184.93155 C538.056185,184.53155 537.036185,184.01155 535.976185,183.37155 C536.176185,183.13155 536.396185,182.85155 536.596185,182.57155 C537.516185,181.31155 537.976185,180.37155 538.016185,179.73155 C538.016185,179.05155 537.696185,178.63155 537.076185,178.47155 C536.896185,178.47155 536.756185,178.45155 536.636185,178.45155 C535.876185,178.45155 534.936185,178.57155 533.776185,178.79155 C532.936185,178.99155 532.236185,179.21155 531.716185,179.43155 C531.456185,179.55155 531.316185,179.71155 531.296185,179.95155 L531.296185,180.27155 C531.396185,180.67155 531.636185,180.87155 531.996185,180.87155 C533.456185,180.37155 534.996185,180.03155 536.596185,179.87155 C536.316185,180.65155 535.876185,181.41155 535.296185,182.17155 L534.876185,182.67155 L534.876185,182.67155 L533.416185,181.69155 C533.096185,181.53155 532.876185,181.41155 532.736185,181.33155 C532.536185,181.23155 532.356185,181.17155 532.196185,181.17155 C531.956185,181.17155 531.776185,181.27155 531.616185,181.43155 C531.476185,181.57155 531.416185,181.75155 531.416185,181.99155 C531.416185,182.15155 531.476185,182.31155 531.596185,182.47155 C531.776185,182.65155 532.036185,182.85155 532.376185,183.05155 L533.756185,183.85155 C533.476185,184.15155 533.156185,184.43155 532.816185,184.69155 C531.936185,185.37155 531.096185,185.91155 530.276185,186.31155 C530.096185,186.45155 530.016185,186.61155 530.016185,186.79155 C530.036185,187.15155 530.236185,187.31155 530.616185,187.31155 Z M527.396185,196.95155 C527.656185,196.95155 527.876185,196.81155 528.036185,196.57155 C528.316185,196.13155 528.476185,195.39155 528.476185,194.33155 C528.476185,193.33155 528.436185,191.99155 528.356185,190.31155 C528.936185,189.79155 529.316185,189.39155 529.516185,189.11155 C529.576185,189.03155 529.616185,188.97155 529.636185,188.89155 L529.616185,188.65155 L529.616185,188.65155 C529.536185,188.45155 529.416185,188.33155 529.216185,188.33155 C529.096185,188.33155 528.956185,188.39155 528.796185,188.47155 C528.636185,188.61155 528.456185,188.75155 528.276185,188.87155 C528.156185,187.03155 528.056185,185.47155 527.976185,184.17155 C528.616185,183.97155 529.196185,183.73155 529.696185,183.49155 C529.896185,183.41155 530.076185,183.29155 530.196185,183.15155 C530.276185,183.01155 530.336185,182.87155 530.336185,182.75155 C530.336185,182.63155 530.216185,182.51155 530.016185,182.39155 C529.816185,182.31155 529.636185,182.25155 529.496185,182.25155 C529.416185,182.29155 529.336185,182.33155 529.236185,182.37155 C528.756185,182.53155 528.316185,182.67155 527.876185,182.77155 C527.816185,182.27155 527.736185,181.81155 527.656185,181.37155 C527.516185,180.87155 527.316185,180.61155 527.036185,180.61155 L526.756185,180.61155 C526.416185,180.69155 526.216185,180.91155 526.156185,181.27155 C526.296185,181.71155 526.416185,182.33155 526.496185,183.09155 C526.136185,183.17155 525.816185,183.19155 525.496185,183.19155 C525.316185,183.19155 525.156185,183.19155 525.036185,183.17155 C524.676185,183.35155 524.456185,183.57155 524.396185,183.81155 L524.396185,184.15155 C524.396185,184.53155 524.576185,184.75155 524.976185,184.81155 L525.216185,184.81155 C525.456185,184.81155 525.736185,184.77155 526.036185,184.71155 C526.236185,184.67155 526.416185,184.63155 526.616185,184.57155 C526.736185,186.25155 526.836185,187.95155 526.916185,189.71155 L526.916185,189.85155 C525.436185,190.97155 524.376185,191.83155 523.736185,192.43155 C523.536185,192.67155 523.436185,192.83155 523.436185,192.93155 C523.436185,193.21155 523.516185,193.43155 523.676185,193.55155 C523.856185,193.75155 524.056185,193.85155 524.296185,193.85155 C524.336185,193.85155 524.376185,193.85155 524.416185,193.83155 C524.776185,194.19155 525.056185,194.49155 525.236185,194.75155 C525.636185,195.37155 525.976185,195.87155 526.256185,196.25155 C526.676185,196.71155 527.056185,196.95155 527.396185,196.95155 Z M535.436185,198.49155 C535.736185,198.49155 535.916185,198.09155 535.956185,197.31155 C535.956185,196.93155 535.976185,196.43155 535.976185,195.79155 L535.976185,193.23155 C535.976185,193.23155 535.996185,193.21155 536.016185,193.21155 C538.096185,192.35155 539.396185,191.61155 539.896185,190.99155 C540.096185,190.79155 540.196185,190.59155 540.196185,190.43155 C540.196185,190.35155 540.176185,190.27155 540.156185,190.23155 C540.056185,190.09155 539.916185,190.01155 539.756185,190.01155 C538.836185,190.49155 537.576185,191.01155 535.956185,191.61155 C535.956185,191.13155 535.936185,190.69155 535.916185,190.25155 L535.916185,189.51155 L535.916185,189.51155 C536.116185,189.47155 536.336185,189.39155 536.576185,189.31155 C537.216185,189.11155 537.696185,188.91155 538.036185,188.71155 C538.216185,188.51155 538.316185,188.31155 538.316185,188.07155 C538.296185,187.95155 538.216185,187.83155 538.056185,187.73155 C537.916185,187.65155 537.776185,187.61155 537.616185,187.61155 C537.456185,187.61155 537.196185,187.69155 536.796185,187.81155 C536.496185,187.91155 536.196185,188.01155 535.876185,188.09155 L535.876185,187.89155 L535.876185,187.89155 C535.856185,187.33155 535.836185,186.89155 535.836185,186.53155 C535.796185,186.11155 535.596185,185.89155 535.196185,185.89155 C535.036185,185.89155 534.916185,185.93155 534.796185,186.01155 C534.556185,186.17155 534.456185,186.35155 534.456185,186.57155 C534.456185,187.41155 534.476185,187.95155 534.496185,188.23155 L534.496185,188.47155 L534.496185,188.47155 C533.856185,188.63155 533.176185,188.79155 532.416185,188.95155 C532.216185,188.99155 532.056185,189.05155 531.936185,189.09155 C531.696185,189.25155 531.576185,189.41155 531.576185,189.59155 C531.576185,190.01155 531.756185,190.31155 532.156185,190.51155 L532.316185,190.51155 C532.516185,190.49155 532.716185,190.45155 532.916185,190.37155 C533.456185,190.25155 534.016185,190.09155 534.576185,189.93155 C534.616185,190.71155 534.636185,191.43155 534.656185,192.09155 C533.816185,192.39155 532.956185,192.67155 532.076185,192.93155 C531.716185,193.03155 531.416185,193.13155 531.216185,193.21155 C530.816185,193.41155 530.616185,193.61155 530.616185,193.85155 C530.676185,194.39155 530.896185,194.67155 531.276185,194.67155 C531.496185,194.67155 531.756185,194.65155 532.076185,194.61155 C532.196185,194.59155 532.416185,194.53155 532.736185,194.41155 C533.356185,194.21155 534.016185,193.97155 534.716185,193.71155 C534.716185,194.55155 534.736185,195.27155 534.756185,195.93155 C534.756185,196.43155 534.776185,196.89155 534.836185,197.33155 C534.876185,198.09155 535.076185,198.49155 535.436185,198.49155 Z M527.036185,195.39155 C526.756185,195.25155 526.396185,194.95155 525.956185,194.49155 C525.776185,194.25155 525.536185,193.81155 525.216185,193.21155 C525.896185,192.59155 526.476185,192.05155 526.976185,191.59155 C527.016185,192.47155 527.056185,193.23155 527.076185,193.87155 C527.076185,194.47155 527.056185,194.97155 527.036185,195.39155 Z M547.636185,191.39155 C547.956185,191.39155 548.156185,191.19155 548.256185,190.79155 C548.336185,190.31155 548.416185,189.77155 548.476185,189.17155 C548.636185,187.75155 548.736185,186.25155 548.736185,184.67155 C548.696185,183.69155 548.596185,182.93155 548.416185,182.41155 C548.916185,181.73155 549.316185,181.15155 549.616185,180.63155 C549.836185,180.31155 549.996185,179.99155 550.096185,179.71155 C550.216185,179.43155 550.296185,179.17155 550.296185,178.95155 C550.296185,178.63155 550.136185,178.43155 549.816185,178.35155 C549.496185,178.35155 549.256185,178.39155 549.096185,178.45155 C548.996185,178.67155 548.896185,178.85155 548.796185,178.99155 C548.636185,179.31155 548.496185,179.61155 548.356185,179.87155 C547.816185,180.71155 547.316185,181.49155 546.856185,182.25155 C546.296185,183.15155 545.816185,183.89155 545.456185,184.49155 C545.156185,184.95155 544.916185,185.33155 544.736185,185.65155 C544.596185,185.83155 544.536185,186.01155 544.536185,186.17155 C544.556185,186.51155 544.736185,186.67155 545.096185,186.67155 C545.256185,186.67155 545.436185,186.55155 545.636185,186.31155 C546.016185,185.71155 546.376185,185.21155 546.696185,184.77155 L547.296185,183.95155 L547.296185,183.95155 C547.316185,184.23155 547.336185,184.49155 547.336185,184.77155 L547.336185,185.67155 C547.336185,186.57155 547.296185,187.41155 547.216185,188.21155 C547.096185,189.43155 547.036185,190.27155 547.036185,190.71155 C547.036185,191.17155 547.236185,191.39155 547.636185,191.39155 Z M557.456185,184.41155 C557.616185,184.41155 557.776185,184.37155 557.936185,184.27155 C558.536185,183.85155 559.016185,183.35155 559.376185,182.75155 C559.556185,182.43155 559.716185,182.09155 559.836185,181.73155 C559.996185,181.31155 560.076185,180.99155 560.076185,180.79155 C560.056185,180.53155 559.936185,180.29155 559.716185,180.09155 C559.596185,179.99155 559.416185,179.93155 559.136185,179.93155 C558.976185,179.93155 558.616185,179.97155 558.056185,180.05155 C557.376185,180.17155 556.696185,180.27155 556.016185,180.39155 C555.456185,180.51155 554.836185,180.61155 554.196185,180.71155 C554.216185,180.63155 554.256185,180.55155 554.296185,180.45155 C554.456185,180.01155 554.536185,179.69155 554.536185,179.47155 C554.536185,179.15155 554.436185,178.95155 554.256185,178.83155 C554.096185,178.71155 553.856185,178.65155 553.576185,178.61155 C553.416185,178.61155 553.276185,178.65155 553.156185,178.71155 C553.016185,178.77155 552.956185,178.95155 552.956185,179.23155 C552.956185,179.35155 552.976185,179.49155 552.976185,179.63155 C552.976185,179.69155 552.956185,179.77155 552.956185,179.87155 L552.856185,180.25155 L552.856185,180.25155 C552.696185,180.69155 552.516185,181.09155 552.296185,181.47155 C551.936185,182.09155 551.556185,182.59155 551.116185,182.95155 C550.856185,183.19155 550.736185,183.37155 550.736185,183.49155 C550.736185,183.89155 550.876185,184.09155 551.176185,184.09155 C551.416185,184.09155 551.656185,183.99155 551.936185,183.75155 C552.216185,183.55155 552.516185,183.29155 552.836185,182.93155 C552.976185,182.77155 553.116185,182.61155 553.276185,182.41155 C553.356185,182.41155 553.556185,182.35155 553.896185,182.27155 C554.236185,182.19155 554.556185,182.13155 554.876185,182.07155 C555.356185,181.95155 555.996185,181.83155 556.756185,181.67155 C557.356185,181.55155 557.916185,181.45155 558.396185,181.37155 C558.396185,181.51155 558.336185,181.71155 558.256185,181.99155 C558.196185,182.19155 558.116185,182.37155 558.016185,182.55155 C557.776185,183.01155 557.576185,183.33155 557.416185,183.49155 C557.336185,183.57155 557.256185,183.65155 557.196185,183.73155 C557.116185,183.81155 557.076185,183.91155 557.076185,184.03155 C557.076185,184.27155 557.196185,184.39155 557.456185,184.41155 Z M555.436185,191.31155 C555.836185,191.31155 556.116185,190.91155 556.316185,190.09155 C556.516185,189.37155 556.616185,188.33155 556.616185,186.99155 C556.616185,186.57155 556.596185,186.21155 556.576185,185.91155 C556.476185,185.15155 556.356185,184.47155 556.236185,183.85155 C556.156185,183.41155 555.876185,183.17155 555.436185,183.17155 C554.996185,183.25155 554.776185,183.47155 554.756185,183.85155 C554.756185,183.93155 554.776185,184.03155 554.816185,184.15155 C555.016185,184.99155 555.136185,185.63155 555.196185,186.07155 C555.216185,186.35155 555.236185,186.67155 555.236185,187.01155 C555.236185,188.69155 555.156185,189.59155 554.996185,189.75155 C554.876185,189.75155 554.656185,189.67155 554.376185,189.47155 C554.176185,189.29155 554.036185,189.19155 553.996185,189.19155 C553.676185,189.19155 553.476185,189.35155 553.376185,189.65155 C553.376185,189.87155 553.416185,190.05155 553.516185,190.17155 C553.656185,190.47155 553.936185,190.75155 554.376185,191.01155 C554.736185,191.21155 555.076185,191.31155 555.436185,191.31155 Z M551.416185,189.21155 C551.616185,189.21155 551.776185,189.11155 551.936185,188.89155 C552.136185,188.59155 552.316185,188.23155 552.456185,187.81155 C552.596185,187.37155 552.676185,186.91155 552.696185,186.45155 C552.696185,185.99155 552.636185,185.59155 552.556185,185.27155 C552.436185,185.11155 552.296185,185.03155 552.136185,185.03155 C551.756185,185.03155 551.496185,185.09155 551.356185,185.21155 C551.256185,185.29155 551.196185,185.41155 551.196185,185.53155 C551.256185,186.03155 551.296185,186.43155 551.296185,186.73155 C551.296185,187.13155 551.216185,187.53155 551.056185,187.89155 C550.936185,188.15155 550.876185,188.33155 550.876185,188.45155 C550.876185,188.65155 550.956185,188.85155 551.116185,189.03155 C551.216185,189.15155 551.316185,189.21155 551.416185,189.21155 Z M560.916185,189.49155 C561.276185,189.49155 561.476185,189.27155 561.476185,188.81155 C561.436185,188.57155 561.336185,188.31155 561.136185,188.01155 C560.376185,186.83155 559.796185,186.09155 559.416185,185.81155 C559.336185,185.77155 559.216185,185.73155 559.096185,185.69155 L558.856185,185.67155 L558.856185,185.67155 C558.736185,185.71155 558.616185,185.77155 558.496185,185.87155 C558.356185,185.99155 558.276185,186.13155 558.256185,186.31155 L558.256185,186.49155 C558.256185,186.61155 558.276185,186.73155 558.356185,186.81155 C558.836185,187.29155 559.276185,187.81155 559.696185,188.37155 C559.956185,188.71155 560.176185,188.97155 560.336185,189.13155 C560.536185,189.37155 560.716185,189.49155 560.916185,189.49155 Z M556.896185,198.07155 C557.576185,198.05155 558.156185,197.87155 558.636185,197.53155 C559.136185,197.11155 559.396185,196.55155 559.396185,195.85155 C559.396185,195.57155 559.296185,195.27155 559.096185,194.95155 C558.896185,194.61155 558.576185,194.29155 558.136185,194.01155 C558.136185,194.01155 558.156185,194.01155 558.176185,193.99155 C560.036185,193.15155 561.156185,192.47155 561.556185,191.93155 C561.636185,191.81155 561.696185,191.65155 561.696185,191.45155 C561.656185,191.17155 561.496185,191.01155 561.216185,190.97155 C561.096185,190.97155 560.976185,191.01155 560.836185,191.05155 L559.616185,191.67155 C558.816185,192.09155 557.856185,192.47155 556.776185,192.81155 C556.216185,192.97155 555.796185,193.09155 555.476185,193.17155 C555.236185,193.27155 555.136185,193.45155 555.136185,193.73155 L555.176185,194.03155 C555.256185,194.47155 555.456185,194.67155 555.796185,194.67155 C555.996185,194.67155 556.336185,194.61155 556.796185,194.49155 C556.916185,194.45155 557.036185,194.39155 557.196185,194.33155 C557.376185,194.47155 557.536185,194.61155 557.696185,194.75155 C557.916185,195.03155 558.036185,195.31155 558.036185,195.59155 C557.996185,196.19155 557.636185,196.49155 556.936185,196.49155 C555.336185,196.37155 553.936185,195.39155 552.776185,193.57155 C552.616185,193.37155 552.396185,193.27155 552.156185,193.27155 C551.896185,193.31155 551.696185,193.41155 551.556185,193.61155 C551.456185,193.73155 551.416185,193.89155 551.416185,194.05155 C551.416185,194.17155 551.456185,194.31155 551.576185,194.51155 C552.156185,195.63155 552.916185,196.47155 553.836185,197.07155 C554.776185,197.69155 555.796185,198.03155 556.896185,198.07155 Z M547.876185,198.13155 C547.996185,198.13155 548.136185,198.07155 548.276185,197.99155 C548.416185,197.87155 548.496185,197.63155 548.496185,197.25155 C548.416185,196.85155 548.336185,196.37155 548.256185,195.77155 C548.176185,195.21155 548.076185,194.55155 547.996185,193.79155 C547.976185,193.37155 547.936185,193.05155 547.876185,192.83155 C547.736185,192.55155 547.576185,192.41155 547.376185,192.41155 L547.036185,192.41155 C546.596185,192.45155 546.396185,192.65155 546.396185,193.03155 C546.396185,193.17155 546.436185,193.51155 546.536185,194.03155 C546.616185,194.43155 546.676185,194.87155 546.736185,195.37155 C546.776185,195.63155 546.796185,195.93155 546.836185,196.27155 C546.896185,196.79155 547.016185,197.21155 547.176185,197.53155 C547.236185,197.65155 547.316185,197.77155 547.416185,197.87155 C547.536185,198.03155 547.676185,198.13155 547.876185,198.13155 Z M570.396185,184.03155 C570.596185,184.01155 570.816185,183.97155 571.056185,183.91155 C572.476185,183.61155 573.856185,183.29155 575.176185,182.93155 C575.896185,182.73155 576.436185,182.55155 576.796185,182.37155 C576.976185,182.17155 577.076185,181.97155 577.076185,181.75155 C577.056185,181.63155 576.976185,181.53155 576.816185,181.45155 C576.716185,181.39155 576.596185,181.35155 576.436185,181.35155 C576.256185,181.35155 575.956185,181.41155 575.516185,181.53155 C574.936185,181.71155 574.296185,181.87155 573.596185,182.01155 C573.696185,181.63155 573.756185,181.25155 573.776185,180.89155 C575.316185,180.49155 576.476185,180.11155 577.256185,179.71155 C577.416185,179.59155 577.516185,179.41155 577.516185,179.17155 C577.476185,179.07155 577.456185,178.97155 577.416185,178.89155 C577.296185,178.73155 577.136185,178.63155 576.936185,178.63155 C576.856185,178.63155 576.796185,178.65155 576.716185,178.65155 C575.796185,178.97155 574.796185,179.25155 573.676185,179.47155 C573.636185,179.27155 573.576185,179.07155 573.516185,178.87155 C573.396185,178.53155 573.256185,178.25155 573.136185,178.01155 C572.996185,177.93155 572.856185,177.89155 572.716185,177.89155 C572.516185,177.89155 572.316185,177.95155 572.136185,178.03155 C571.936185,178.21155 571.856185,178.41155 571.856185,178.65155 C571.856185,178.85155 571.976185,179.01155 572.216185,179.17155 C572.256185,179.35155 572.316185,179.53155 572.376185,179.71155 C572.136185,179.75155 571.916185,179.79155 571.676185,179.81155 C570.696185,179.97155 569.816185,180.07155 569.016185,180.11155 C568.696185,180.19155 568.556185,180.39155 568.556185,180.73155 C568.556185,180.97155 568.656185,181.19155 568.836185,181.37155 C568.996185,181.55155 569.216185,181.63155 569.476185,181.63155 C570.236185,181.59155 571.076185,181.49155 571.976185,181.33155 C572.136185,181.29155 572.316185,181.25155 572.516185,181.19155 C572.496185,181.33155 572.476185,181.47155 572.476185,181.59155 C572.436185,181.81155 572.376185,182.05155 572.296185,182.33155 C571.756185,182.45155 571.196185,182.55155 570.616185,182.65155 C570.356185,182.69155 570.156185,182.71155 570.016185,182.75155 C569.836185,182.89155 569.736185,183.05155 569.736185,183.23155 C569.736185,183.59155 569.896185,183.85155 570.236185,184.03155 L570.396185,184.03155 Z M571.396185,189.31155 C571.456185,189.31155 571.556185,189.29155 571.696185,189.23155 C572.456185,189.07155 573.276185,188.81155 574.136185,188.45155 C574.876185,188.17155 575.476185,187.87155 575.956185,187.55155 C576.096185,187.37155 576.176185,187.19155 576.196185,186.99155 C576.196185,186.89155 576.176185,186.81155 576.156185,186.73155 C576.156185,186.73155 576.136185,186.73155 576.116185,186.69155 C576.116185,186.69155 576.116185,186.69155 576.136185,186.67155 C576.916185,185.91155 577.316185,185.21155 577.316185,184.57155 C577.316185,184.33155 577.216185,184.11155 577.036185,183.91155 C576.856185,183.79155 576.656185,183.73155 576.416185,183.73155 C575.496185,183.73155 574.616185,183.87155 573.736185,184.13155 C573.056185,184.33155 572.396185,184.57155 571.776185,184.85155 C571.756185,184.83155 571.736185,184.79155 571.716185,184.73155 C571.616185,184.53155 571.476185,184.37155 571.276185,184.29155 C571.176185,184.27155 571.036185,184.25155 570.876185,184.25155 C570.716185,184.25155 570.576185,184.35155 570.456185,184.51155 C570.316185,184.63155 570.236185,184.77155 570.216185,184.93155 C570.456185,185.45155 570.716185,186.13155 571.016185,186.93155 C571.136185,187.27155 571.216185,187.59155 571.276185,187.87155 C571.236185,187.87155 571.216185,187.89155 571.176185,187.89155 C570.936185,188.01155 570.796185,188.19155 570.796185,188.39155 C570.796185,188.67155 570.856185,188.89155 570.976185,189.03155 C571.096185,189.23155 571.236185,189.31155 571.396185,189.31155 Z M572.536185,187.55155 C572.476185,187.23155 572.376185,186.81155 572.216185,186.25155 C572.196185,186.21155 572.176185,186.17155 572.176185,186.11155 C573.536185,185.55155 574.716185,185.23155 575.736185,185.11155 C575.316185,185.71155 574.716185,186.35155 573.916185,187.03155 L573.816185,187.13155 L573.816185,187.13155 C573.416185,187.27155 572.976185,187.41155 572.536185,187.55155 Z M565.796185,193.71155 C565.996185,193.71155 566.256185,193.69155 566.536185,193.63155 C566.816185,193.61155 567.256185,193.55155 567.856185,193.45155 C569.836185,193.11155 571.956185,192.71155 574.236185,192.27155 C578.336185,191.45155 580.876185,190.73155 581.856185,190.13155 C582.056185,189.93155 582.156185,189.75155 582.156185,189.57155 C582.156185,189.49155 582.136185,189.43155 582.116185,189.39155 C582.036185,189.25155 581.896185,189.17155 581.716185,189.17155 C580.676185,189.43155 579.396185,189.71155 577.876185,190.03155 C578.196185,189.47155 578.356185,188.83155 578.396185,188.09155 C578.396185,187.45155 578.156185,187.11155 577.676185,187.11155 C577.276185,187.15155 577.036185,187.35155 576.956185,187.75155 C576.956185,187.99155 576.936185,188.21155 576.916185,188.43155 C576.836185,188.99155 576.636185,189.53155 576.296185,190.01155 C576.176185,190.17155 576.076185,190.31155 576.036185,190.39155 C575.336185,190.53155 574.596185,190.67155 573.836185,190.81155 C573.296185,190.93155 572.736185,191.03155 572.176185,191.11155 L572.116185,191.05155 L572.116185,191.05155 C571.496185,190.17155 570.956185,189.55155 570.516185,189.21155 C570.356185,189.05155 570.176185,188.97155 569.956185,188.97155 C569.556185,189.05155 569.376185,189.33155 569.376185,189.81155 C569.376185,189.91155 569.416185,190.01155 569.496185,190.09155 C569.856185,190.53155 570.256185,190.97155 570.696185,191.37155 C569.336185,191.61155 567.956185,191.85155 566.536185,192.05155 C566.196185,192.15155 565.916185,192.23155 565.716185,192.29155 C565.356185,192.47155 565.176185,192.69155 565.176185,192.93155 C565.216185,193.45155 565.436185,193.71155 565.796185,193.71155 Z M572.036185,198.53155 C572.096185,198.53155 572.196185,198.49155 572.356185,198.41155 C573.516185,198.21155 574.736185,197.91155 576.016185,197.55155 C577.096185,197.21155 578.016185,196.87155 578.736185,196.55155 C578.876185,196.35155 578.956185,196.17155 578.976185,195.99155 C578.976185,195.91155 578.956185,195.81155 578.936185,195.73155 C578.836185,195.57155 578.696185,195.49155 578.496185,195.49155 L578.476185,195.49155 L578.476185,195.49155 C578.676185,195.15155 578.796185,194.81155 578.836185,194.49155 C578.836185,193.83155 578.576185,193.37155 578.076185,193.13155 C577.736185,192.93155 577.216185,192.83155 576.536185,192.83155 C575.376185,192.83155 574.296185,193.01155 573.336185,193.35155 C572.996185,193.49155 572.696185,193.65155 572.416185,193.83155 L572.356185,193.71155 L572.356185,193.71155 C572.256185,193.49155 572.096185,193.33155 571.896185,193.25155 C571.796185,193.23155 571.676185,193.21155 571.516185,193.21155 C571.336185,193.21155 571.196185,193.31155 571.076185,193.47155 C570.936185,193.61155 570.856185,193.75155 570.836185,193.89155 C571.076185,194.47155 571.356185,195.17155 571.696185,196.01155 C571.816185,196.37155 571.896185,196.73155 571.956185,197.05155 C571.916185,197.05155 571.856185,197.05155 571.816185,197.07155 C571.576185,197.17155 571.456185,197.33155 571.456185,197.55155 C571.456185,197.83155 571.496185,198.07155 571.596185,198.23155 C571.716185,198.43155 571.876185,198.53155 572.036185,198.53155 Z M573.236185,196.81155 C573.176185,196.45155 573.056185,195.97155 572.876185,195.33155 C572.836185,195.23155 572.816185,195.15155 572.816185,195.07155 C573.016185,194.99155 573.356185,194.87155 573.836185,194.75155 C574.336185,194.51155 574.836185,194.39155 575.316185,194.35155 C575.816185,194.19155 576.256185,194.11155 576.636185,194.11155 C577.156185,194.11155 577.416185,194.27155 577.456185,194.59155 C577.456185,194.91155 577.096185,195.39155 576.376185,196.05155 C576.356185,196.05155 576.336185,196.09155 576.316185,196.13155 C575.556185,196.31155 574.716185,196.51155 573.796185,196.71155 C573.616185,196.73155 573.436185,196.77155 573.236185,196.81155 Z M593.356185,197.73155 C593.536185,197.73155 593.736185,197.63155 593.936185,197.47155 C594.096185,197.19155 594.316185,196.79155 594.596185,196.29155 C595.276185,194.73155 595.836185,193.21155 596.276185,191.69155 C596.356185,191.37155 596.456185,191.05155 596.536185,190.71155 C597.456185,192.35155 598.476185,193.81155 599.616185,195.09155 C600.876185,196.55155 601.916185,197.35155 602.756185,197.49155 C603.256185,197.49155 603.516185,197.31155 603.516185,196.97155 C603.516185,196.81155 603.376185,196.65155 603.096185,196.51155 C602.136185,195.75155 601.236185,194.87155 600.376185,193.87155 C598.896185,192.11155 597.856185,190.53155 597.256185,189.17155 C597.156185,189.05155 597.036185,188.91155 596.916185,188.77155 C597.156185,187.39155 597.276185,186.01155 597.316185,184.65155 L597.316185,184.09155 C597.316185,184.09155 597.296185,184.07155 597.296185,184.03155 C598.256185,183.63155 599.336185,183.07155 600.556185,182.33155 C600.116185,183.77155 599.476185,185.01155 598.596185,186.01155 C598.376185,186.21155 598.236185,186.37155 598.156185,186.51155 C598.036185,186.63155 597.996185,186.75155 597.996185,186.87155 C597.996185,187.21155 598.196185,187.37155 598.556185,187.37155 C598.716185,187.35155 598.916185,187.23155 599.156185,187.03155 C599.956185,186.37155 600.576185,185.63155 601.036185,184.81155 C601.356185,184.25155 601.616185,183.61155 601.816185,182.93155 C601.936185,182.51155 601.996185,182.11155 601.996185,181.75155 C601.976185,181.35155 601.756185,181.11155 601.316185,181.03155 L600.956185,181.03155 C600.596185,181.07155 600.096185,181.25155 599.476185,181.53155 C598.636185,181.99155 597.896185,182.37155 597.276185,182.65155 C596.116185,183.23155 595.396185,183.51155 595.076185,183.51155 C594.916185,183.51155 594.816185,183.47155 594.796185,183.35155 C594.796185,183.19155 594.876185,182.69155 595.056185,181.85155 C595.156185,181.25155 595.236185,180.75155 595.276185,180.39155 C595.276185,180.17155 595.236185,180.03155 595.196185,179.95155 C595.076185,179.83155 594.936185,179.73155 594.756185,179.69155 C594.696185,179.69155 594.616185,179.67155 594.536185,179.67155 C594.296185,179.67155 594.096185,179.81155 593.936185,180.05155 C593.796185,180.53155 593.676185,181.05155 593.556185,181.61155 C593.396185,182.39155 593.316185,182.95155 593.316185,183.31155 C593.316185,184.31155 593.796185,184.81155 594.796185,184.81155 C595.076185,184.81155 595.456185,184.75155 595.916185,184.59155 L595.916185,184.73155 C595.856185,186.85155 595.636185,188.79155 595.236185,190.59155 C594.836185,192.31155 594.396185,193.77155 593.916185,194.97155 C593.676185,195.59155 593.496185,196.17155 593.336185,196.73155 C593.156185,196.99155 593.076185,197.19155 593.076185,197.35155 C593.076185,197.59155 593.156185,197.73155 593.356185,197.73155 Z M585.956185,194.97155 C586.096185,194.97155 586.236185,194.93155 586.396185,194.87155 C586.596185,194.79155 586.776185,194.67155 586.956185,194.49155 C587.336185,194.09155 587.696185,193.65155 588.056185,193.15155 C588.456185,192.67155 588.836185,192.11155 589.216185,191.47155 C589.636185,191.81155 590.076185,192.13155 590.556185,192.45155 C591.076185,192.83155 591.536185,193.13155 591.956185,193.33155 C592.096185,193.43155 592.216185,193.47155 592.316185,193.47155 L592.416185,193.47155 C592.556185,193.43155 592.636185,193.29155 592.636185,193.05155 C592.636185,192.87155 592.556185,192.69155 592.416185,192.51155 C591.976185,192.03155 591.516185,191.57155 590.996185,191.13155 C590.636185,190.83155 590.276185,190.51155 589.916185,190.17155 C590.156185,189.71155 590.356185,189.23155 590.536185,188.71155 C590.956185,187.61155 591.256185,186.59155 591.456185,185.67155 C591.616185,184.97155 591.716185,184.41155 591.716185,183.97155 C591.716185,183.67155 591.616185,183.43155 591.436185,183.23155 C591.256185,183.07155 590.996185,182.97155 590.656185,182.95155 C590.496185,182.97155 590.316185,183.03155 590.076185,183.11155 C589.636185,183.31155 589.196185,183.51155 588.756185,183.69155 C588.416185,183.81155 588.036185,183.91155 587.616185,184.03155 C587.216185,184.15155 586.956185,184.23155 586.876185,184.29155 C586.636185,184.43155 586.536185,184.61155 586.536185,184.85155 C586.536185,185.05155 586.656185,185.25155 586.876185,185.45155 C586.976185,185.57155 587.136185,185.63155 587.356185,185.63155 C587.556185,185.63155 587.796185,185.57155 588.096185,185.43155 C588.856185,185.15155 589.576185,184.79155 590.256185,184.39155 C590.056185,185.67155 589.776185,186.85155 589.376185,187.93155 C589.216185,188.37155 589.076185,188.79155 588.916185,189.17155 C588.756185,189.03155 588.596185,188.87155 588.456185,188.71155 C588.176185,188.43155 587.936185,188.21155 587.756185,188.05155 C587.636185,187.97155 587.476185,187.91155 587.316185,187.89155 C587.196185,187.89155 587.096185,187.91155 587.016185,187.93155 C586.876185,187.99155 586.756185,188.07155 586.636185,188.19155 C586.516185,188.37155 586.456185,188.51155 586.456185,188.63155 C586.456185,188.73155 586.476185,188.83155 586.556185,188.93155 C586.616185,189.05155 586.776185,189.25155 587.036185,189.53155 C587.396185,189.91155 587.796185,190.27155 588.216185,190.63155 C587.976185,191.07155 587.756185,191.45155 587.536185,191.81155 C587.176185,192.41155 586.536185,193.19155 585.656185,194.17155 C585.576185,194.29155 585.536185,194.43155 585.536185,194.59155 C585.536185,194.81155 585.676185,194.93155 585.956185,194.97155 Z M622.056185,198.59155 C622.216185,198.57155 622.396185,198.51155 622.596185,198.43155 C622.896185,198.21155 623.056185,197.97155 623.056185,197.73155 C622.996185,195.21155 622.976185,192.91155 622.976185,190.75155 C622.976185,189.23155 623.016185,187.39155 623.116185,185.25155 C623.196185,184.03155 623.256185,183.13155 623.256185,182.55155 C623.256185,181.83155 623.156185,181.27155 622.996185,180.85155 C622.776185,180.29155 622.556185,179.99155 622.316185,179.99155 C622.196185,179.99155 622.036185,180.03155 621.816185,180.09155 C620.976185,180.41155 620.176185,180.69155 619.376185,180.91155 C617.816185,181.37155 616.596185,181.59155 615.716185,181.59155 C615.756185,181.43155 615.996185,180.73155 616.436185,179.53155 C616.556185,179.13155 616.636185,178.85155 616.636185,178.67155 C616.636185,178.39155 616.536185,178.21155 616.376185,178.09155 C616.256185,178.01155 616.136185,177.95155 616.036185,177.95155 C615.716185,177.95155 615.496185,178.05155 615.336185,178.25155 C614.976185,179.65155 614.556185,180.85155 614.036185,181.87155 C614.036185,182.23155 614.096185,182.51155 614.256185,182.69155 C614.416185,182.97155 614.736185,183.13155 615.196185,183.17155 L615.456185,183.17155 C615.976185,183.17155 616.636185,183.09155 617.416185,182.89155 C618.236185,182.69155 619.036185,182.45155 619.836185,182.19155 C620.956185,181.79155 621.596185,181.57155 621.716185,181.57155 C621.816185,181.57155 621.876185,181.89155 621.876185,182.51155 C621.756185,184.71155 621.696185,186.55155 621.656185,188.03155 C621.616185,188.97155 621.616185,189.75155 621.616185,190.37155 C621.616185,193.21155 621.696185,195.43155 621.836185,197.11155 C621.576185,197.03155 620.716185,196.41155 619.276185,195.25155 C619.056185,195.05155 618.856185,194.97155 618.676185,194.97155 C618.396185,194.97155 618.276185,195.11155 618.276185,195.39155 C618.276185,195.57155 618.336185,195.75155 618.456185,195.93155 C619.016185,196.73155 619.576185,197.35155 620.116185,197.79155 C620.796185,198.31155 621.436185,198.57155 622.056185,198.59155 Z M607.736185,195.83155 C607.896185,195.79155 608.076185,195.77155 608.236185,195.73155 C609.196185,195.47155 610.156185,195.19155 611.116185,194.87155 C611.516185,195.23155 611.896185,195.41155 612.236185,195.41155 C612.956185,195.37155 613.316185,195.15155 613.316185,194.71155 L613.196185,193.63155 L612.956185,187.15155 C612.876185,186.15155 612.616185,185.47155 612.136185,185.15155 C611.856185,184.95155 611.456185,184.85155 610.936185,184.85155 C610.396185,184.87155 609.736185,185.05155 608.956185,185.37155 C609.036185,184.47155 609.096185,183.81155 609.096185,183.41155 C609.096185,183.21155 609.076185,183.01155 609.036185,182.81155 C610.516185,182.37155 611.576185,181.91155 612.216185,181.47155 C612.376185,181.35155 612.476185,181.15155 612.476185,180.91155 C612.436185,180.83155 612.416185,180.73155 612.376185,180.63155 C612.256185,180.47155 612.096185,180.37155 611.896185,180.37155 C611.836185,180.37155 611.776185,180.39155 611.696185,180.39155 C610.776185,180.81155 609.696185,181.13155 608.476185,181.37155 C607.876185,181.49155 607.316185,181.55155 606.796185,181.59155 C606.476185,181.67155 606.336185,181.89155 606.336185,182.25155 C606.336185,182.49155 606.436185,182.71155 606.636185,182.89155 C606.796185,183.09155 607.016185,183.17155 607.276185,183.17155 C607.336185,183.17155 607.416185,183.17155 607.516185,183.15155 C607.516185,183.23155 607.536185,183.33155 607.556185,183.45155 C607.556185,184.03155 607.536185,184.57155 607.536185,185.09155 C607.476185,186.09155 607.436185,187.03155 607.436185,187.91155 C607.396185,188.79155 607.396185,189.75155 607.396185,190.79155 C607.396185,192.33155 607.416185,193.53155 607.456185,194.41155 L607.336185,194.43155 L607.336185,194.43155 C607.136185,194.59155 607.016185,194.75155 607.016185,194.95155 C607.016185,195.31155 607.196185,195.61155 607.596185,195.83155 L607.736185,195.83155 Z M608.676185,190.51155 C608.716185,189.23155 608.736185,188.45155 608.736185,188.17155 C608.736185,187.83155 608.776185,187.41155 608.816185,186.93155 C609.016185,186.81155 609.216185,186.69155 609.456185,186.57155 C610.016185,186.33155 610.396185,186.21155 610.636185,186.21155 C611.176185,186.21155 611.496185,186.51155 611.576185,187.11155 C611.616185,187.83155 611.636185,188.61155 611.676185,189.47155 C611.556185,189.51155 611.396185,189.55155 611.196185,189.63155 C610.476185,189.93155 609.836185,190.15155 609.316185,190.31155 C609.156185,190.37155 608.956185,190.43155 608.676185,190.51155 Z M619.136185,190.63155 C619.336185,190.57155 619.456185,190.39155 619.456185,190.07155 C619.456185,189.83155 619.336185,189.59155 619.136185,189.37155 C618.896185,189.21155 618.616185,189.03155 618.296185,188.85155 C617.796185,188.59155 617.316185,188.29155 616.836185,187.97155 C616.676185,187.89155 616.556185,187.81155 616.436185,187.77155 C616.296185,187.67155 616.156185,187.61155 616.016185,187.59155 C615.896185,187.59155 615.776185,187.61155 615.696185,187.63155 C615.536185,187.67155 615.416185,187.75155 615.316185,187.87155 C615.196185,188.05155 615.136185,188.21155 615.136185,188.33155 C615.136185,188.45155 615.156185,188.55155 615.236185,188.67155 C615.276185,188.71155 615.356185,188.77155 615.516185,188.89155 C616.176185,189.37155 616.896185,189.77155 617.676185,190.11155 C617.976185,190.27155 618.256185,190.39155 618.516185,190.49155 C618.716185,190.59155 618.876185,190.63155 618.976185,190.63155 L619.136185,190.63155 Z M608.756185,194.13155 C608.736185,193.43155 608.716185,192.71155 608.696185,191.97155 C608.776185,191.97155 608.876185,191.95155 608.976185,191.91155 C609.556185,191.77155 610.216185,191.53155 610.936185,191.17155 C611.196185,191.07155 611.456185,190.93155 611.716185,190.77155 C611.716185,191.55155 611.736185,192.39155 611.736185,193.29155 C611.616185,193.33155 611.476185,193.37155 611.316185,193.43155 C610.596185,193.67155 609.736185,193.91155 608.756185,194.13155 Z M631.236185,190.99155 C631.476185,190.99155 631.676185,190.87155 631.836185,190.63155 C631.916185,190.51155 631.976185,190.21155 632.016185,189.77155 C632.036185,189.21155 632.096185,188.49155 632.216185,187.57155 C632.216185,187.37155 632.236185,187.13155 632.276185,186.87155 C633.356185,186.69155 634.516185,186.47155 635.736185,186.23155 C636.856185,186.01155 637.876185,185.79155 638.756185,185.59155 L638.756185,187.37155 C638.756185,188.03155 638.776185,188.59155 638.776185,189.05155 C638.476185,189.01155 638.216185,188.95155 637.976185,188.89155 C637.656185,188.79155 637.436185,188.73155 637.336185,188.71155 C637.136185,188.71155 637.036185,188.79155 637.036185,188.91155 C637.036185,189.17155 637.096185,189.39155 637.236185,189.57155 C637.716185,190.01155 638.336185,190.21155 639.096185,190.21155 C639.656185,190.13155 639.936185,189.83155 639.976185,189.27155 L639.976185,186.97155 C639.976185,186.31155 639.996185,185.75155 639.996185,185.27155 C641.096185,184.99155 641.856185,184.71155 642.296185,184.45155 C642.496185,184.27155 642.596185,184.09155 642.596185,183.89155 C642.596185,183.81155 642.576185,183.75155 642.556185,183.71155 C642.476185,183.57155 642.336185,183.49155 642.136185,183.49155 C641.516185,183.65155 640.796185,183.83155 639.996185,183.99155 L639.996185,182.23155 C639.996185,180.87155 639.596185,180.19155 638.796185,180.19155 L638.556185,180.19155 C638.316185,180.19155 637.936185,180.27155 637.416185,180.41155 C636.216185,180.77155 635.176185,180.99155 634.336185,181.11155 C633.716185,181.23155 633.236185,181.33155 632.876185,181.39155 L632.896185,181.27155 C632.936185,180.85155 632.956185,180.47155 632.976185,180.13155 C633.016185,180.13155 633.056185,180.13155 633.116185,180.11155 C635.476185,179.71155 637.136185,179.33155 638.136185,178.93155 C638.336185,178.79155 638.436185,178.59155 638.436185,178.35155 L638.336185,178.05155 L638.336185,178.05155 C638.196185,177.87155 638.016185,177.77155 637.816185,177.77155 L637.596185,177.79155 L637.596185,177.79155 C636.236185,178.19155 634.636185,178.49155 632.816185,178.71155 C631.896185,178.83155 631.056185,178.89155 630.296185,178.93155 C630.016185,178.99155 629.876185,179.19155 629.876185,179.53155 C629.876185,179.73155 629.976185,179.93155 630.136185,180.09155 C630.296185,180.27155 630.516185,180.35155 630.756185,180.35155 C630.996185,180.35155 631.256185,180.33155 631.536185,180.31155 L631.536185,180.95155 C631.516185,181.99155 631.396185,183.55155 631.156185,185.61155 C630.476185,185.71155 629.796185,185.81155 629.076185,185.91155 C628.736185,185.99155 628.476185,186.05155 628.276185,186.13155 C627.936185,186.31155 627.776185,186.51155 627.776185,186.73155 C627.816185,187.19155 628.016185,187.43155 628.356185,187.43155 C628.556185,187.43155 628.796185,187.43155 629.076185,187.39155 C629.296185,187.37155 629.676185,187.33155 630.196185,187.25155 C630.436185,187.21155 630.696185,187.17155 630.976185,187.11155 C630.776185,188.65155 630.676185,189.57155 630.676185,189.85155 C630.676185,190.17155 630.676185,190.37155 630.716185,190.49155 C630.776185,190.79155 630.956185,190.95155 631.236185,190.99155 Z M632.436185,185.39155 C632.516185,184.45155 632.616185,183.57155 632.716185,182.73155 L632.716185,182.71155 C633.556185,182.51155 634.356185,182.35155 635.136185,182.21155 C635.696185,182.09155 636.236185,181.93155 636.796185,181.75155 C637.636185,181.51155 638.136185,181.37155 638.276185,181.37155 C638.516185,181.37155 638.676185,181.57155 638.736185,181.93155 L638.736185,184.25155 C638.056185,184.39155 637.336185,184.53155 636.536185,184.67155 C636.576185,184.61155 636.596185,184.49155 636.596185,184.33155 C636.556185,184.23155 636.476185,184.11155 636.356185,183.97155 C635.796185,183.41155 635.356185,183.05155 635.076185,182.93155 C634.996185,182.87155 634.896185,182.83155 634.776185,182.79155 L634.556185,182.77155 L634.556185,182.77155 C634.416185,182.81155 634.316185,182.87155 634.236185,182.95155 C634.076185,183.09155 633.996185,183.23155 633.976185,183.37155 L633.976185,183.55155 C633.976185,183.67155 633.996185,183.79155 634.076185,183.87155 C634.436185,184.03155 634.796185,184.21155 635.116185,184.37155 C635.296185,184.49155 635.456185,184.59155 635.596185,184.63155 C635.656185,184.69155 635.716185,184.75155 635.796185,184.81155 C635.656185,184.85155 635.496185,184.87155 635.336185,184.89155 C634.376185,185.07155 633.416185,185.23155 632.436185,185.39155 Z M635.936185,189.19155 C636.336185,189.19155 636.536185,188.97155 636.536185,188.49155 C636.516185,188.37155 636.436185,188.21155 636.316185,188.05155 C635.816185,187.37155 635.436185,186.97155 635.196185,186.81155 C635.116185,186.77155 635.016185,186.73155 634.916185,186.69155 C634.816185,186.69155 634.736185,186.67155 634.656185,186.67155 C634.516185,186.71155 634.396185,186.77155 634.296185,186.85155 C634.156185,186.97155 634.076185,187.13155 634.056185,187.31155 L634.056185,187.49155 C634.056185,187.61155 634.096185,187.71155 634.176185,187.81155 C634.456185,188.01155 634.716185,188.25155 634.996185,188.49155 C635.116185,188.65155 635.236185,188.75155 635.336185,188.83155 C635.576185,189.07155 635.776185,189.19155 635.936185,189.19155 Z M627.736185,198.63155 C627.836185,198.63155 628.016185,198.61155 628.256185,198.61155 C629.736185,198.33155 631.416185,198.11155 633.296185,197.91155 C635.476185,197.71155 637.496185,197.63155 639.336185,197.63155 C640.576185,197.63155 641.576185,197.63155 642.316185,197.65155 C643.136185,197.69155 643.736185,197.73155 644.096185,197.75155 C644.516185,197.67155 644.736185,197.41155 644.736185,197.01155 C644.736185,196.67155 644.496185,196.45155 644.036185,196.37155 C643.196185,196.29155 642.056185,196.23155 640.636185,196.23155 C641.456185,195.25155 641.896185,194.01155 641.936185,192.47155 C641.936185,191.51155 641.436185,190.97155 640.456185,190.85155 L639.736185,190.85155 C639.096185,190.87155 638.496185,190.89155 637.916185,190.93155 C635.836185,191.09155 633.836185,191.41155 631.916185,191.91155 C631.656185,191.99155 631.396185,192.07155 631.136185,192.17155 C631.096185,192.05155 631.076185,191.97155 631.056185,191.89155 C630.916185,191.61155 630.756185,191.45155 630.556185,191.45155 L630.216185,191.45155 C629.796185,191.49155 629.596185,191.71155 629.596185,192.09155 C629.596185,192.21155 629.636185,192.49155 629.736185,192.93155 C629.816185,193.29155 629.876185,193.69155 629.936185,194.09155 C629.976185,194.31155 630.016185,194.57155 630.056185,194.89155 C630.096185,195.31155 630.216185,195.65155 630.376185,195.93155 C630.436185,196.09155 630.516185,196.21155 630.616185,196.29155 C630.736185,196.47155 630.896185,196.57155 631.076185,196.57155 C631.216185,196.57155 631.356185,196.51155 631.516185,196.41155 C631.656185,196.31155 631.736185,196.07155 631.736185,195.67155 C631.656185,195.31155 631.576185,194.89155 631.496185,194.39155 C631.456185,194.17155 631.396185,193.91155 631.336185,193.61155 C632.056185,193.41155 632.776185,193.23155 633.496185,193.07155 C633.536185,193.19155 633.596185,193.31155 633.636185,193.45155 C633.756185,193.85155 633.836185,194.17155 633.836185,194.41155 L633.836185,195.31155 C633.816185,195.51155 633.816185,195.67155 633.816185,195.79155 C633.816185,196.07155 633.956185,196.21155 634.236185,196.21155 C634.496185,196.21155 634.656185,196.03155 634.736185,195.71155 C634.756185,195.53155 634.776185,195.27155 634.796185,194.93155 C634.816185,194.61155 634.836185,194.27155 634.836185,193.91155 C634.836185,193.79155 634.796185,193.57155 634.736185,193.29155 C634.696185,193.13155 634.656185,192.99155 634.596185,192.83155 C635.296185,192.71155 635.996185,192.59155 636.716185,192.49155 C636.796185,192.93155 636.836185,193.47155 636.836185,194.09155 C636.836185,194.25155 636.816185,194.43155 636.796185,194.59155 C636.756185,194.79155 636.696185,194.99155 636.636185,195.17155 C636.496185,195.57155 636.316185,195.95155 636.096185,196.31155 C635.776185,196.31155 635.416185,196.33155 635.056185,196.37155 C633.916185,196.41155 632.716185,196.49155 631.456185,196.61155 C630.056185,196.73155 628.836185,196.89155 627.756185,197.09155 C627.256185,197.23155 627.016185,197.49155 627.016185,197.87155 C627.036185,198.05155 627.136185,198.23155 627.296185,198.39155 C627.416185,198.55155 627.576185,198.63155 627.736185,198.63155 Z M637.176185,196.27155 C637.336185,195.91155 637.496185,195.53155 637.656185,195.13155 C637.716185,194.89155 637.776185,194.63155 637.856185,194.31155 C637.916185,194.03155 637.956185,193.67155 637.956185,193.25155 C637.956185,192.93155 637.936185,192.63155 637.896185,192.37155 C638.456185,192.31155 639.056185,192.27155 639.656185,192.27155 C640.116185,192.27155 640.416185,192.39155 640.536185,192.59155 C640.536185,192.93155 640.476185,193.33155 640.356185,193.81155 C640.076185,194.69155 639.576185,195.49155 638.836185,196.23155 C638.316185,196.23155 637.756185,196.25155 637.176185,196.27155 Z M651.696185,194.81155 L651.876185,194.79155 L651.876185,194.79155 C652.096185,194.69155 652.216185,194.53155 652.256185,194.25155 C652.296185,194.25155 652.356185,194.25155 652.436185,194.23155 C653.256185,194.11155 654.156185,193.99155 655.116185,193.87155 L658.236185,193.53155 L658.236185,193.53155 C658.756185,193.51155 659.236185,193.47155 659.696185,193.43155 C660.056185,193.39155 660.416185,193.35155 660.736185,193.31155 C661.136185,193.25155 661.356185,193.01155 661.356185,192.61155 C661.316185,192.45155 661.236185,192.31155 661.116185,192.19155 C661.176185,192.05155 661.256185,191.89155 661.336185,191.69155 C661.716185,190.77155 662.056185,189.69155 662.356185,188.45155 C662.636185,187.01155 662.796185,185.85155 662.796185,184.99155 C662.796185,184.41155 662.616185,183.85155 662.256185,183.31155 C661.796185,182.73155 661.096185,182.35155 660.156185,182.19155 C659.556185,182.07155 658.816185,182.01155 657.916185,182.01155 C656.996185,182.01155 655.956185,182.11155 654.836185,182.29155 C653.556185,182.55155 652.516185,182.83155 651.736185,183.15155 C651.516185,183.27155 651.376185,183.37155 651.316185,183.49155 C651.196185,183.69155 651.136185,183.89155 651.136185,184.13155 C651.136185,184.57155 651.276185,184.77155 651.596185,184.77155 C651.676185,184.77155 651.836185,184.73155 652.116185,184.63155 C652.996185,184.31155 653.996185,184.05155 655.096185,183.83155 C656.196185,183.59155 657.316185,183.45155 658.476185,183.45155 C660.436185,183.51155 661.416185,184.09155 661.416185,185.21155 C661.356185,186.37155 661.116185,187.81155 660.676185,189.55155 C660.416185,190.47155 660.136185,191.29155 659.836185,192.01155 C659.676185,192.01155 659.496185,192.03155 659.296185,192.05155 C658.816185,192.09155 658.336185,192.11155 657.836185,192.15155 C657.196185,192.21155 656.516185,192.27155 655.796185,192.33155 C655.296185,192.39155 654.796185,192.45155 654.276185,192.49155 C653.476185,192.59155 652.836185,192.69155 652.336185,192.77155 L651.836185,192.91155 L651.836185,192.91155 C651.276185,191.31155 650.936185,189.59155 650.836185,187.75155 C650.756185,186.21155 650.716185,184.77155 650.716185,183.45155 C650.716185,183.01155 650.516185,182.77155 650.136185,182.73155 L649.976185,182.73155 C649.576185,182.81155 649.336185,182.99155 649.276185,183.31155 C649.276185,184.23155 649.296185,185.17155 649.336185,186.13155 C649.416185,188.65155 649.756185,190.85155 650.356185,192.71155 C650.616185,193.41155 650.876185,193.97155 651.116185,194.37155 C651.236185,194.65155 651.436185,194.79155 651.696185,194.81155 Z" id="点击此处选择您喜欢的盘口"></path>
        </g>
    </g>
</svg>