<?xml version="1.0" encoding="UTF-8"?>
<svg width="60px" height="60px" viewBox="0 0 60 60" version="1.1" xmlns="http://www.w3.org/2000/svg" xmlns:xlink="http://www.w3.org/1999/xlink">
    <!-- Generator: Sketch 61.2 (89653) - https://sketch.com -->
    <title>编组 4</title>
    <desc>Created with Sketch.</desc>
    <g id="页面-1" stroke="none" stroke-width="1" fill="none" fill-rule="evenodd">
        <g id="画板" transform="translate(-486.000000, -478.000000)" fill="#FFFFFF">
            <g id="编组-4" transform="translate(486.000000, 478.000000)">
                <g id="手势" transform="translate(8.252033, 0.463415)" fill-rule="nonzero">
                    <path d="M36.7490409,57.6626763 L36.7490409,58.2495674 L17.5143895,58.2495674 C14.8803671,58.2495674 13.3292982,57.0129042 11.6035594,54.336961 C11.4847839,54.1553043 11.4149159,54.0505024 11.1843516,53.6732153 C11.1074968,53.5544398 11.0236553,53.4426511 10.9328269,53.3378491 L10.7651438,53.0933112 C10.7162362,53.0234433 10.6603419,52.9465885 10.6044475,52.8767205 L1.61942686,39.5249519 L1.61942697,39.5249521 C0.614229539,38.0309234 0.242378243,36.1993137 0.585381056,34.4315773 C0.927734096,32.6639177 1.96178001,31.105862 3.45695452,30.0997633 C4.574842,29.3451892 5.88835979,28.9469418 7.23681156,28.9539286 C8.41758021,28.9539286 9.56341488,29.2613477 10.5695136,29.8272782 L10.5695136,7.03634722 C10.5695136,3.29841096 13.4760211,0.245180785 17.0602478,0.245180785 C20.6444745,0.245180785 23.550982,3.29841096 23.550982,7.03634722 L23.550982,14.5960613 C24.1797937,14.3445366 24.8435394,14.2117875 25.5212586,14.2117875 C27.3028918,14.2117875 28.9447891,15.0781503 30.0696633,16.5383908 C31.0268545,15.8816319 32.109808,15.5253053 33.2137219,15.5253053 C35.4145628,15.5253053 37.4197735,16.8947174 38.4538194,18.9977433 C39.0407104,18.7881394 39.6625353,18.6763506 40.2843602,18.6763506 C43.6310358,18.6763506 46.3070925,21.7365676 46.3070925,25.467517 L46.3070925,44.2061059 C46.3349262,50.9553516 41.1996306,58.2495674 36.7350674,58.2495674 L36.7350674,57.6626765 L36.7490409,57.6626763 Z M36.7490409,57.0757854 C40.45903,57.0757854 45.168131,50.3824341 45.1472403,44.2130926 L45.1472403,25.4745037 C45.1472403,22.3583923 42.9603032,19.8571191 40.2983337,19.8571191 C39.6555484,19.8571191 39.0197499,20.0038418 38.4188853,20.2972873 L37.845968,20.5697724 L37.6154037,19.9828814 C36.8468561,18.0126047 35.1001569,16.7060738 33.2207086,16.7060738 C32.2006362,16.7060738 31.1875507,17.1043212 30.3211879,17.830948 L29.8041649,18.2641294 L29.4478383,17.6912121 C28.5395547,16.2379584 27.1002746,15.3855692 25.5282453,15.3855692 C24.7457241,15.3855692 23.9771765,15.6161335 23.2784968,16.0423281 L22.3841868,16.5872982 L22.3841868,7.03634706 C22.3841868,3.9342093 19.9877155,1.41896247 17.0672345,1.41896247 C14.1397666,1.41896247 11.7432953,3.9342093 11.7432953,7.03634706 L11.7432953,32.1748418 L10.7861042,31.3923205 C9.78000546,30.5748653 8.52936885,30.1346971 7.23681145,30.1346971 C6.09796358,30.1346971 5.02199688,30.4560898 4.1137133,31.0779147 C2.87705028,31.9093435 2.01767428,33.1949141 1.73121561,34.6621414 C1.44475694,36.1223819 1.752176,37.6385168 2.58360481,38.8751798 L11.5406782,52.1850276 C11.5965726,52.2548956 11.6454802,52.3177768 11.7153482,52.4155919 L11.8690577,52.6321826 C12.0367408,52.8417865 12.1066088,52.9326149 12.1764767,53.0583772 C12.407041,53.4216907 12.4699222,53.5264926 12.5886978,53.7011625 C14.1188062,56.0766734 15.3764297,57.0757854 17.5143895,57.0757854 L36.7490409,57.0757854 L36.7490409,57.6626763 L36.7490409,57.0757854 L36.7490409,57.0757854 Z M12.9031036,51.8356878 C12.88913,51.8147274 12.6795261,51.5142952 12.6306185,51.4374404 L3.65258472,38.0856718 C3.01678621,37.1354674 2.77923512,35.9756592 3.00281262,34.8507849 C3.22639011,33.7328974 3.88314901,32.7407723 4.83335337,32.1049738 C5.53901984,31.6368584 6.37044865,31.3853337 7.21585106,31.3853337 L7.21585106,31.9722247 L7.21585106,31.3853337 C8.66211798,31.3853337 9.98960937,32.0910002 10.8070646,33.2857424 L12.9799584,36.5625501 L12.9799584,7.03634706 C12.9799584,4.66782296 14.7685783,2.72549346 16.9903797,2.72549346 C19.2121811,2.72549346 21.000801,4.66083616 21.000801,7.03634706 L21.000801,22.2605772 L22.2584245,19.1235054 C22.8662758,17.6492913 24.1099256,16.6711398 25.4583774,16.6711398 C27.0723274,16.6711398 28.4836604,18.0684991 28.8888946,19.9409607 L29.2801552,21.7924618 L30.1185708,20.0946702 C30.7543693,18.8230732 31.9141776,18.005618 33.1508406,18.005618 C34.9953549,18.005618 36.5184766,19.7453303 36.6861597,21.9252109 L36.8049353,23.4762798 L37.8529548,22.2955112 C38.5306741,21.5549107 39.3830633,21.1357029 40.2703865,21.1357029 C42.2197028,21.1357029 43.8126924,23.1409136 43.8126924,25.4465565 L43.8126924,44.1851454 C43.8126924,49.5649789 39.6415748,55.71336 36.7001333,55.71336 L17.4654819,55.71336 C15.7327563,55.71336 14.8803671,54.9448124 13.1965491,52.2479088 C13.0917471,52.1151597 13.0009188,51.9754237 12.9031036,51.8356878 L12.9031036,51.8356878 Z M7.21585106,32.5591156 C6.59402615,32.5591156 5.98617483,32.7477591 5.48312546,33.0831253 C4.79143259,33.5442539 4.31633041,34.263894 4.15563408,35.0813492 C3.99493776,35.8988044 4.16262088,36.7442068 4.63073626,37.4289129 L13.6297305,50.8086287 C13.6646645,50.8645231 13.853308,51.1300213 13.888242,51.1789289 C14.0279779,51.3885328 14.0908591,51.4723744 14.1537402,51.5632027 C15.6768619,54.0015948 16.2707396,54.5465649 17.4654819,54.5465649 L36.7001333,54.5465649 C38.8800139,54.5465649 42.6389106,48.9990483 42.6389106,44.1851454 L42.6389106,25.4465565 C42.6389106,23.7347913 41.5070495,22.3094847 40.2703865,22.3094847 C39.7324031,22.3094847 39.187433,22.574983 38.7193176,23.0780324 L35.8407573,26.3199061 L35.7359554,24.9435071 L35.5123779,22.0160393 C35.3866155,20.409076 34.3176356,19.1793998 33.1438538,19.1793998 C32.3822929,19.1793998 31.6067585,19.7173832 31.1596035,20.6186799 L28.8260134,25.3277809 L28.4766736,23.6788969 L27.7360731,20.1854985 C27.4426276,18.8160864 26.4574893,17.8449216 25.4583774,17.8449216 C24.6199618,17.8449216 23.7815461,18.5086673 23.3483647,19.5636736 L19.834006,28.3460771 L19.834006,7.03634706 C19.834006,5.28964787 18.5484354,3.89927532 16.9973665,3.89927532 C15.4393108,3.89927532 14.1537402,5.28964787 14.1537402,7.03634706 L14.1537402,40.4472091 L13.0777735,38.8332591 L9.83589984,33.9425013 C9.24202211,33.0761385 8.26387057,32.5591156 7.21585106,32.5591156 L7.21585106,31.9722247 L7.21585106,32.5591156 Z M21.0776558,27.1373613 L22.3841868,27.1373613 L22.3841868,19.6475152 L21.0776558,19.6475152 L21.0776558,27.1373613 Z M23.5579687,18.4737333 L23.5579687,28.3111432 L19.903874,28.3111432 L19.903874,18.4737333 L23.5579687,18.4737333 Z M29.0705513,28.625549 L30.3770823,28.625549 L30.3770823,21.1357029 L29.0705513,21.1357029 L29.0705513,28.625549 Z M31.5508641,19.961921 L31.5508641,29.7993309 L27.8967694,29.7993309 L27.8967694,19.961921 L31.5508641,19.961921 Z M36.8119221,31.0080467 L38.1184531,31.0080467 L38.1184531,23.5182006 L36.8049353,23.5182006 L36.8119221,31.0080467 L36.8119221,31.0080467 Z M39.2992217,22.3444187 L39.2992217,32.1818286 L35.645127,32.1818286 L35.645127,22.3444187 L39.2992217,22.3444187 L39.2992217,22.3444187 Z M36.7490409,57.6626763 L17.5143895,57.6626763 C14.3633441,57.6626763 12.9450244,55.3779938 11.6804142,53.3727831 C11.6035594,53.2470207 11.5057443,53.1212584 11.4079291,53.0024829 C11.2821668,52.8278129 11.1843516,52.6810902 11.0865365,52.5553279 L2.10151584,39.1965725 C1.17925867,37.8341471 0.843892423,36.1573159 1.15829828,34.5433659 C1.47270413,32.9294158 2.42290849,31.5041093 3.78533385,30.5888389 C4.80540618,29.897146 6.00713522,29.5338326 7.23681145,29.5478062 C8.67609158,29.5478062 10.0664641,30.0438687 11.1564044,30.9381787 L11.1564044,7.03634706 C11.1564044,3.61281665 13.8113872,0.832071545 17.0602477,0.832071545 C20.3091082,0.832071545 22.9640909,3.61281665 22.9640909,7.03634706 L22.9640909,15.5532523 C23.7326386,15.0711633 24.612975,14.8126518 25.5212585,14.805665 C27.3308389,14.805665 28.9447889,15.7977902 29.9369141,17.383793 C30.8801316,16.5872982 32.0189795,16.1191828 33.2137218,16.1191828 C35.372642,16.1191828 37.3079847,17.6073705 38.1533871,19.7662907 C38.8171327,19.4448981 39.5507464,19.2702282 40.2843601,19.2702282 C43.2886827,19.2702282 45.7202645,22.0509733 45.7202645,25.4745037 L45.7202645,44.2130926 C45.7550219,51.0112458 40.5987659,57.6626763 36.7490409,57.6626763 L36.7490409,57.6626763 Z M7.21585106,31.9792114 C6.4752506,31.9792114 5.74862374,32.2027889 5.15474602,32.6010364 C4.3372908,33.1529933 3.76437346,34.0053825 3.57572995,34.9695605 C3.38708644,35.9407252 3.58970354,36.9398371 4.13467369,37.7642792 L13.1196943,51.1160477 C13.1965491,51.2418101 13.2943642,51.3675724 13.3921794,51.5142952 C13.4899945,51.6610179 13.5947965,51.8077406 13.6926116,51.933503 L13.7205588,51.9824105 C15.0829842,54.1692779 15.8515318,55.1334559 17.4654819,55.1334559 L36.7001333,55.1334559 C38.810146,55.1334559 43.2258015,49.9492527 43.2258015,44.1921322 L43.2258015,25.4465565 C43.2258015,23.434359 41.8633761,21.7225938 40.2703865,21.7225938 C39.5507464,21.7225938 38.8590535,22.0719337 38.2861362,22.6867718 L36.3228463,24.8945995 L36.0992688,21.9671317 C35.9455593,20.0806966 34.6599887,18.5925089 33.1438538,18.5925089 C32.1517287,18.5925089 31.1875507,19.2632414 30.6355938,20.3531817 L29.0495909,23.5531346 L28.3020036,20.0527494 C27.9526638,18.4387993 26.7649084,17.2510439 25.4444038,17.2510439 C24.3544635,17.2510439 23.306444,18.0684991 22.789421,19.3331093 L20.4069233,25.292847 L20.4069233,7.03634706 C20.4069233,4.97524202 18.869828,3.31238439 16.9833929,3.31238439 C15.0969578,3.31238439 13.5598625,4.97524202 13.5598625,7.03634706 L13.5598625,38.5048796 L10.311002,33.6141219 C9.61930914,32.5870628 8.45950088,31.9722247 7.21585106,31.9792114 L7.21585106,31.9792114 Z M20.4907649,19.0606243 L22.9710777,19.0606243 L22.9710777,27.7242522 L20.4907649,27.7242522 L20.4907649,19.0606243 Z M28.4836604,20.548812 L30.9639732,20.548812 L30.9639732,29.2124399 L28.4836604,29.2124399 L28.4836604,20.548812 Z M36.2250312,22.9313097 L38.705344,22.9313097 L38.705344,31.5949376 L36.2250312,31.5949376 L36.2250312,22.9313097 L36.2250312,22.9313097 Z" id="形状"></path>
                </g>
                <path d="M7.25203252,3.71544715 L7.25196748,7.76644715 L18.6341463,7.7804878 L18.6357342,11.0478701 L7.25196748,11.0344472 L7.25203252,15.097561 L0.74796748,9.40650407 L7.25203252,3.71544715 Z" id="形状结合" transform="translate(9.691851, 9.406504) rotate(-90.000000) translate(-9.691851, -9.406504) "></path>
            </g>
        </g>
    </g>
</svg>