<?xml version="1.0" encoding="UTF-8"?>
<svg width="224px" height="22px" viewBox="0 0 224 22" version="1.1" xmlns="http://www.w3.org/2000/svg" xmlns:xlink="http://www.w3.org/1999/xlink">
    <!-- Generator: Sketch 61.2 (89653) - https://sketch.com -->
    <title>下滑可以刷新最新赔率哦</title>
    <desc>Created with Sketch.</desc>
    <g id="页面-1" stroke="none" stroke-width="1" fill="none" fill-rule="evenodd">
        <g id="画板" transform="translate(-404.000000, -552.000000)" fill="#FFFFFF" fill-rule="nonzero">
            <path d="M411.84,572.42 C412.22,572.42 412.44,572.16 412.52,571.68 C412.92,569.8 413.12,567.52 413.12,564.8 C413.12,563.86 413.1,562.92 413.08,562 C414.92,563.1 416.28,563.8 417.18,564.1 C417.38,564.22 417.56,564.26 417.7,564.26 C417.78,564.26 417.86,564.22 417.94,564.14 L418.04,564.04 C418.08,563.96 418.12,563.88 418.12,563.8 C418.12,563.68 418.08,563.54 418,563.38 C417.92,563.26 417.82,563.14 417.7,563.04 C415.62,561.68 414.28,560.88 413.7,560.66 C413.52,560.62 413.36,560.58 413.24,560.58 C413.18,560.58 413.12,560.6 413.04,560.64 C413.02,560.22 413,559.78 412.96,559.32 C412.88,557.86 412.78,556.66 412.64,555.74 C412.78,555.72 412.94,555.7 413.1,555.68 C416.74,555.2 418.98,554.76 419.82,554.4 C420.02,554.2 420.12,554.02 420.12,553.84 C420.12,553.76 420.1,553.7 420.08,553.64 C420,553.52 419.86,553.44 419.66,553.44 C418.02,553.66 415.7,553.9 412.7,554.16 C410.62,554.4 408.48,554.58 406.28,554.72 C405.92,554.84 405.6,554.92 405.36,554.98 C404.96,555.18 404.78,555.42 404.78,555.68 C404.84,556.24 405.06,556.52 405.46,556.52 C405.7,556.52 405.96,556.52 406.28,556.48 C406.52,556.48 406.9,556.44 407.44,556.36 C408.64,556.24 409.9,556.08 411.22,555.92 C411.36,557.06 411.48,558.32 411.58,559.68 C411.7,561.54 411.78,563.32 411.78,565 C411.78,566.3 411.72,567.44 411.62,568.44 C411.5,569.44 411.36,570.52 411.2,571.68 C411.2,572.16 411.4,572.42 411.84,572.42 Z M439.04,572.6 C439.46,572.6 439.68,572.38 439.68,571.96 C439.48,570.08 439.32,568.04 439.16,565.78 C439.04,564.64 438.92,563.66 438.78,562.82 C438.74,562.62 438.7,562.44 438.64,562.24 C438.7,562.24 438.78,562.24 438.88,562.22 C439.14,562.14 439.36,562 439.54,561.82 C440.28,561.26 440.92,560.48 441.48,559.46 C441.64,559.14 441.72,558.86 441.72,558.6 C441.68,558.22 441.46,558.02 441.06,558.02 C441,558.02 440.84,558.06 440.56,558.1 C439.64,558.3 438.8,558.46 438.04,558.6 C437.64,558.7 437.26,558.8 436.86,558.88 C436.88,558.54 436.9,558 436.9,557.28 L436.88,556.82 L436.88,556.82 C437.48,556.68 437.96,556.56 438.3,556.48 C438.4,556.44 438.48,556.36 438.56,556.28 C438.46,556.7 438.34,557.1 438.2,557.5 C438.08,557.6 438.04,557.7 438.04,557.82 C438.04,558.14 438.2,558.3 438.48,558.3 C438.64,558.3 438.82,558.24 438.98,558.12 C439.36,557.6 439.72,556.9 440.04,556.02 C440.2,555.46 440.3,555.02 440.3,554.66 C440.3,554.34 440.24,554.06 440.16,553.82 C440,553.52 439.76,553.26 439.42,553.06 C439.06,552.86 438.58,552.76 437.98,552.76 C437.08,552.76 436.22,552.88 435.38,553.1 C434.66,553.34 434.1,553.56 433.7,553.8 C433.6,553.64 433.46,553.52 433.3,553.44 C433.18,553.4 433.04,553.38 432.86,553.38 C432.66,553.38 432.52,553.48 432.4,553.64 C432.28,553.8 432.2,553.96 432.16,554.1 C432.4,554.94 432.68,556 433.04,557.28 C433.22,558.16 433.34,558.88 433.38,559.46 C433.38,559.56 433.4,559.64 433.44,559.72 C433.4,559.72 433.38,559.74 433.34,559.74 C432.74,559.92 432.28,560.08 431.96,560.2 C431.9,559.96 431.82,559.74 431.74,559.54 C431.66,559.38 431.52,559.28 431.34,559.28 C430.94,559.28 430.68,559.36 430.56,559.48 C430.46,559.56 430.4,559.66 430.4,559.8 C430.58,560.6 430.68,561.2 430.68,561.64 C430.68,562.26 430.54,562.86 430.26,563.44 C430.12,563.68 430.06,563.86 430.06,563.98 C430.06,564.2 430.14,564.4 430.32,564.58 C430.42,564.7 430.52,564.76 430.62,564.76 C430.82,564.76 430.98,564.66 431.14,564.42 C431.4,564.04 431.6,563.58 431.76,563.04 C431.94,562.5 432.04,561.94 432.08,561.36 L432.14,561.36 C432.22,561.34 432.36,561.3 432.52,561.26 C433.64,560.94 434.68,560.66 435.66,560.38 C437.14,560.02 437.96,559.82 438.12,559.78 C438.92,559.6 439.56,559.48 440.08,559.4 C439.94,559.72 439.5,560.2 438.76,560.88 C438.56,561.08 438.36,561.26 438.16,561.44 C438,561.32 437.82,561.26 437.62,561.26 C437.54,561.26 437.34,561.28 437.06,561.32 C436.5,561.44 435.96,561.58 435.46,561.76 C435.38,561.56 435.24,561.46 435.02,561.44 L434.54,561.44 C434.18,561.56 434.02,561.8 434.02,562.16 L434.02,563 C433.98,563.98 433.8,565.46 433.48,567.42 C433.04,569.62 432.84,570.92 432.84,571.28 C432.84,571.56 432.84,571.78 432.86,571.9 C432.94,572.2 433.12,572.36 433.4,572.4 C433.64,572.4 433.84,572.28 434.02,572.06 C434.1,571.9 434.16,571.62 434.18,571.18 C434.2,570.86 434.24,570.48 434.32,570.04 L434.34,570.04 C434.4,570.04 434.48,570 434.6,569.96 C435.22,569.68 435.88,569.3 436.6,568.78 C437.12,568.42 437.58,568.02 437.94,567.62 C437.94,567.8 437.96,567.98 437.96,568.16 C438,569.12 438.04,569.9 438.08,570.5 C437.7,570.36 437.34,570.28 436.98,570.28 C436.78,570.28 436.64,570.3 436.52,570.36 C436.52,570.6 436.54,570.82 436.58,571.04 C436.94,571.76 437.48,572.22 438.22,572.44 C438.5,572.54 438.78,572.6 439.04,572.6 Z M434.6,559.42 C434.6,559.34 434.62,559.26 434.62,559.16 C434.62,558.66 434.48,557.72 434.24,556.32 C434.16,555.9 434.1,555.52 434.04,555.16 C435.52,554.44 436.86,554.08 438.06,554.08 C438.54,554.08 438.8,554.38 438.8,554.98 C438.8,555.14 438.74,555.42 438.66,555.82 C438.64,555.78 438.6,555.72 438.56,555.6 C438.42,555.48 438.28,555.4 438.14,555.38 C438,555.38 437.82,555.4 437.62,555.44 C436.66,555.62 436.02,555.76 435.7,555.88 C435.46,556.04 435.36,556.24 435.36,556.44 C435.36,556.56 435.38,556.66 435.46,556.78 C435.54,556.9 435.62,556.96 435.74,557 C435.76,557.04 435.78,557.1 435.8,557.16 C435.84,557.38 435.86,557.58 435.88,557.74 C435.88,558.26 435.92,558.7 435.96,559.1 C435.8,559.14 435.66,559.18 435.5,559.2 C435.2,559.28 434.9,559.34 434.6,559.42 Z M428.12,558.32 C428.96,558.32 429.42,558.12 429.5,557.68 C429.5,557.5 429.34,557.38 429.02,557.3 L425.06,556.24 C424.7,556.3 424.5,556.5 424.48,556.84 C424.48,557.24 424.6,557.48 424.84,557.56 C426.24,558.08 427.32,558.32 428.12,558.32 Z M424.16,563.1 C424.28,563.1 424.46,563.08 424.74,563 C425.38,562.84 426.12,562.58 426.94,562.18 C427.54,561.94 428.06,561.66 428.46,561.32 C428.68,561.06 428.8,560.88 428.8,560.76 C428.8,560.66 428.78,560.56 428.74,560.48 C428.66,560.36 428.54,560.3 428.36,560.3 C428.26,560.3 428.16,560.32 428.04,560.34 C427.88,560.38 427.62,560.44 427.3,560.56 C426.46,560.88 425.76,561.12 425.16,561.28 C424.92,561.36 424.56,561.48 424.08,561.6 C423.72,561.74 423.52,561.94 423.52,562.18 C423.52,562.48 423.56,562.7 423.68,562.84 C423.8,563.02 423.96,563.1 424.16,563.1 Z M435.02,565.7 C435.06,565.36 435.12,565 435.2,564.64 L435.42,563.42 C436.38,563.02 436.92,562.8 437.06,562.8 C437.3,562.8 437.5,563.38 437.66,564.5 C437.5,564.54 437.02,564.7 436.26,565 C435.76,565.26 435.34,565.5 435.02,565.7 Z M423.94,569.58 C424.1,569.58 424.28,569.56 424.48,569.52 C424.94,569.36 425.5,569.02 426.18,568.54 C427.22,567.74 428.12,566.76 428.9,565.64 C429.1,565.28 429.2,565 429.2,564.78 C429.16,564.52 429.04,564.38 428.8,564.36 C428.64,564.4 428.42,564.54 428.16,564.82 C427.08,565.84 426.16,566.62 425.4,567.14 C425.08,567.36 424.66,567.6 424.18,567.84 C423.74,568.08 423.48,568.28 423.38,568.46 C423.3,568.58 423.26,568.72 423.26,568.92 C423.34,569.36 423.58,569.58 423.94,569.58 Z M434.52,568.68 C434.6,568.1 434.7,567.52 434.8,566.94 C434.8,566.96 434.84,566.96 434.88,566.96 C436.04,566.34 437,565.82 437.76,565.38 C437.8,565.9 437.84,566.36 437.88,566.8 C437.84,566.8 437.8,566.82 437.76,566.84 C437.66,566.9 437.46,567.06 437.16,567.3 C436.58,567.66 435.94,568.02 435.26,568.38 C435.06,568.46 434.8,568.56 434.52,568.68 Z M448.42,556.56 C449.02,556.54 449.64,556.48 450.28,556.4 C451.8,556.12 453.26,555.78 454.66,555.38 C456.14,554.98 457.44,554.54 458.56,554.06 C458.8,553.96 459.02,553.8 459.18,553.6 C459.3,553.4 459.36,553.24 459.36,553.1 C459.36,552.96 459.22,552.8 458.94,552.62 C458.7,552.5 458.46,552.44 458.26,552.44 C458.08,552.52 457.86,552.62 457.58,552.74 C455.78,553.46 454.08,553.98 452.5,554.34 C451.04,554.72 449.68,554.9 448.42,554.9 C448.24,554.9 448.08,554.9 447.92,554.88 C447.56,555.06 447.34,555.28 447.26,555.54 L447.26,555.88 C447.26,556.28 447.46,556.52 447.86,556.56 L448.42,556.56 Z M458.18,572.9 C458.58,572.88 458.78,572.6 458.82,572.06 C458.82,570.82 458.74,569 458.62,566.6 C458.54,565.32 458.5,564.24 458.5,563.34 C458.471429,562.754286 458.463265,562.107347 458.460933,561.406472 L458.46,560.54 C458.46,559.7 458.46,558.8 458.48,557.84 L458.48,556.5 C458.48,555.86 458.26,555.48 457.86,555.36 L457.52,555.36 C457.24,555.48 457.04,555.68 456.94,555.98 C457.02,556.4 457.08,556.74 457.08,556.98 L457.08,558.12 C457,559.08 456.98,559.96 456.98,560.76 C456.98,562.72 457.02,564.6 457.14,566.4 C457.22,568.1 457.28,569.46 457.28,570.54 C457.28,570.86 457.26,571.08 457.22,571.18 C456.24,570.52 455.52,570.18 455.04,570.18 C454.6,570.18 454.4,570.24 454.4,570.36 C454.5,570.48 454.62,570.64 454.76,570.8 C455.5,571.6 456.32,572.22 457.22,572.62 C457.54,572.8 457.86,572.9 458.18,572.9 Z M449.2,565.96 C449.38,565.96 449.52,565.9 449.64,565.78 C449.68,565.74 449.74,565.66 449.78,565.58 C449.78,565.58 449.8,565.58 449.82,565.54 C450.66,565.18 451.56,564.64 452.48,563.92 C453.28,563.32 453.92,562.7 454.44,562.06 C454.54,561.92 454.6,561.78 454.62,561.62 C454.62,561.54 454.6,561.46 454.58,561.4 C454.5,561.32 454.4,561.26 454.26,561.22 C454.18,561.22 454.1,561.24 454.04,561.28 C454.04,561.28 454.02,561.3 454,561.3 C454.08,561.02 454.16,560.74 454.2,560.46 C454.2,559.52 453.8,558.88 453.04,558.52 C452.48,558.32 451.86,558.22 451.18,558.22 C450.44,558.22 449.78,558.32 449.22,558.48 C448.96,558.6 448.8,558.76 448.72,558.96 C448.72,558.96 448.7,558.94 448.7,558.92 C448.56,558.88 448.42,558.84 448.3,558.84 C448.06,558.84 447.86,558.9 447.7,559 C447.48,559.2 447.38,559.4 447.38,559.64 C447.38,559.82 447.42,559.96 447.54,560.04 C448.04,560.64 448.32,561.26 448.38,561.9 C448.44,563.86 448.56,565.1 448.76,565.62 C448.84,565.86 448.98,565.96 449.2,565.96 Z M449.84,563.76 L449.84,563.48 C449.84,562 449.72,560.92 449.48,560.24 C449.44,560.16 449.4,560.08 449.34,559.98 L449.42,559.98 L449.42,559.98 C450.1,559.78 450.76,559.66 451.4,559.64 C452.16,559.64 452.64,559.86 452.86,560.26 C452.86,560.36 452.82,560.54 452.76,560.78 C452.62,561.22 452.32,561.86 451.84,562.66 C451.8,562.72 451.76,562.78 451.72,562.82 C451.4,563.02 451.06,563.2 450.7,563.36 C450.46,563.48 450.16,563.62 449.84,563.76 Z M471.42,571.7 C471.62,571.7 471.84,571.64 472.04,571.56 C472.4,571.28 472.76,570.98 473.12,570.66 C474,569.76 474.82,568.72 475.54,567.5 C475.96,566.8 476.34,566.08 476.7,565.36 C476.74,565.48 476.82,565.6 476.92,565.72 C477.88,567.28 479.06,568.7 480.46,569.98 C481.02,570.54 481.58,571.02 482.1,571.4 C482.4,571.54 482.64,571.62 482.8,571.62 L482.94,571.62 C483.18,571.52 483.32,571.34 483.32,571.08 C483.32,570.74 483.14,570.46 482.82,570.22 C482.26,569.62 481.68,569 481.06,568.36 C479.96,567.16 479.04,565.96 478.28,564.8 C478.06,564.52 477.86,564.24 477.7,563.98 C477.62,563.92 477.5,563.88 477.38,563.84 C477.48,563.62 477.58,563.38 477.68,563.14 C478.62,560.78 479.32,558.44 479.8,556.14 C479.94,555.34 480.02,554.8 480.02,554.52 C479.98,554.18 479.78,553.96 479.4,553.88 C479,553.88 478.78,554.04 478.7,554.32 C478.56,554.96 478.42,555.6 478.28,556.28 C477.28,560.76 475.76,564.6 473.76,567.82 C473.1,568.82 472.3,569.78 471.36,570.72 C471.12,570.9 471,571.06 471,571.2 C471.02,571.52 471.16,571.68 471.42,571.7 Z M467.36,569.2 C467.92,569.16 468.5,568.9 469.1,568.38 C470.72,566.98 471.84,565.48 472.46,563.88 L472.52,563.98 L472.52,563.98 C472.9,564.62 473.22,565.12 473.48,565.46 C473.68,565.7 473.86,565.8 474.04,565.8 C474.42,565.8 474.62,565.58 474.62,565.14 C474.58,564.74 474.42,564.26 474.16,563.74 C473.04,561.62 472.2,560.32 471.64,559.82 C471.54,559.76 471.42,559.72 471.28,559.68 C471.2,559.68 471.12,559.66 471.04,559.66 C470.88,559.7 470.72,559.76 470.6,559.86 C470.44,560.02 470.34,560.2 470.32,560.38 L470.32,560.58 C470.32,560.72 470.36,560.84 470.44,560.94 C470.8,561.42 471.18,561.92 471.54,562.44 C471.46,562.52 471.38,562.64 471.3,562.84 C471.1,563.48 470.86,564 470.6,564.42 C469.74,565.86 468.84,566.92 467.92,567.6 C468,565.82 468.06,564.28 468.06,563 C468.06,559.98 467.78,557.98 467.24,557 C467.04,556.82 466.84,556.72 466.6,556.72 C466.2,556.74 465.94,556.94 465.86,557.3 L465.86,557.58 C465.88,558.02 465.96,558.48 466.12,558.92 C466.42,559.86 466.58,560.98 466.58,562.3 C466.5,563.86 466.46,565.42 466.46,566.94 L466.460466,567.373469 C466.461633,567.710204 466.465714,567.985714 466.48,568.2 C466.58,568.8 466.88,569.12 467.36,569.2 Z M485.6,568.98 C485.9,568.98 486.14,568.82 486.3,568.5 C486.66,568.02 487.02,567.44 487.36,566.76 C487.76,565.88 488.16,564.9 488.52,563.8 C488.9,562.6 489.14,561.22 489.22,559.66 L489.26,559.66 C489.44,559.62 489.62,559.54 489.8,559.46 C490.96,558.92 492.1,558.32 493.2,557.66 C493.8,557.32 494.24,557 494.52,556.68 C494.74,556.44 494.86,556.2 494.86,555.96 C494.84,555.86 494.76,555.76 494.6,555.64 C494.84,555.28 494.96,554.9 495,554.46 C495,553.8 494.72,553.34 494.16,553.08 C493.78,552.9 493.22,552.8 492.46,552.8 C491.82,552.8 491.26,552.9 490.76,553.1 C490.5,553.2 490.28,553.32 490.12,553.44 C489.8,553.56 489.64,553.78 489.64,554.08 C489.66,554.34 489.76,554.54 489.92,554.68 C490.04,554.82 490.2,554.88 490.44,554.88 C490.5,554.88 490.72,554.78 491.12,554.62 C491.4,554.5 491.64,554.42 491.88,554.4 C492.14,554.32 492.36,554.28 492.54,554.28 C493.08,554.28 493.36,554.4 493.4,554.6 C493.4,554.84 493.28,555.24 493.04,555.78 C492.84,555.94 492.76,556.08 492.76,556.16 C492.76,556.2 492.76,556.22 492.78,556.24 C491.8,556.86 490.66,557.46 489.34,558.06 C489.3,558.08 489.28,558.1 489.26,558.1 C489.24,557.06 489.2,555.98 489.12,554.86 C489,554.34 488.72,554.06 488.26,554.06 C487.78,554.16 487.54,554.46 487.54,554.94 C487.68,556.42 487.76,557.76 487.76,558.92 C487.76,560.76 487.56,562.4 487.2,563.84 C486.88,564.8 486.58,565.6 486.26,566.24 C485.98,566.84 485.68,567.38 485.34,567.88 C485.22,568.18 485.18,568.38 485.18,568.46 C485.18,568.78 485.32,568.96 485.6,568.98 Z M502.74,572.24 C503.14,572.22 503.34,571.94 503.38,571.42 C503.38,570.24 503.3,568.52 503.18,566.24 C503.1,565 503.06,563.98 503.06,563.14 C503.026667,562.473333 503.021111,561.737222 503.020185,560.943241 L503.020741,559.101481 C503.022222,558.171111 503.026667,557.193333 503.04,556.18 L503.04,554.04 C503.04,553.4 502.82,553.04 502.42,552.92 L502.08,552.92 C501.8,553.04 501.6,553.24 501.48,553.54 C501.58,553.94 501.64,554.28 501.64,554.54 L501.64,556.4 C501.56,557.94 501.52,559.36 501.52,560.66 C501.52,562.5 501.58,564.28 501.7,565.98 C501.78,567.6 501.84,568.92 501.84,569.92 C501.84,570.22 501.82,570.44 501.78,570.56 C501,570.12 500.42,569.88 500.06,569.86 C499.62,569.86 499.4,569.92 499.4,570.08 C499.52,570.2 499.64,570.34 499.78,570.5 C500.42,571.18 501.12,571.7 501.92,572.06 C502.2,572.18 502.46,572.24 502.74,572.24 Z M498.32,562.78 C498.68,562.78 498.92,562.56 499.02,562.08 C499.08,561.92 499.14,561.64 499.18,561.28 C499.2,560.96 499.22,560.62 499.22,560.26 C499.22,559.98 499.2,559.56 499.16,559.04 C499.1,558.42 499,557.9 498.88,557.48 C498.74,557.08 498.52,556.86 498.24,556.86 C498.02,556.86 497.84,556.92 497.7,557.02 C497.46,557.18 497.36,557.38 497.36,557.62 C497.36,557.74 497.4,557.94 497.5,558.24 C497.54,558.5 497.6,558.78 497.66,559.1 C497.76,559.86 497.82,560.48 497.82,560.94 C497.82,561.16 497.8,561.42 497.8,561.74 C497.76,561.94 497.72,562.08 497.72,562.18 C497.72,562.58 497.92,562.78 498.32,562.78 Z M492.48,571.98 C492.68,571.96 492.84,571.82 492.94,571.56 C493.04,571.28 493.12,570.94 493.2,570.56 C493.36,569.58 493.46,568.38 493.48,566.94 L493.48,566.54 C493.52,566.58 493.58,566.62 493.66,566.66 C493.82,566.74 494,566.76 494.2,566.76 C494.38,566.76 494.62,566.62 494.92,566.34 C495.4,565.88 495.86,565.24 496.3,564.42 C496.54,563.96 496.74,563.46 496.9,562.9 C497.04,562.42 497.12,561.94 497.16,561.46 L497.16,561.1 C497.14,560.9 497.04,560.7 496.88,560.52 C496.68,560.4 496.46,560.34 496.18,560.32 C495.9,560.32 495.66,560.34 495.5,560.34 C495.2,560.36 494.9,560.4 494.6,560.46 C494.3,560.5 493.96,560.58 493.6,560.68 C493.62,560.12 493.64,559.68 493.64,559.4 C493.64,559.08 493.44,558.86 493.06,558.74 L492.66,558.74 C492.32,558.86 492.16,559.1 492.16,559.44 C492.12,560.06 492.1,560.66 492.1,561.26 C491.9,561.34 491.7,561.4 491.54,561.48 C491.2,561.68 490.9,561.86 490.64,562.06 L490.64,561.7 C490.64,561.3 490.44,561.08 490.08,561.04 L489.94,561.04 C489.54,561.12 489.3,561.3 489.24,561.58 C489.24,562.02 489.24,562.46 489.26,562.94 C489.26,564.14 489.34,565.18 489.46,566.06 C489.5,566.4 489.56,566.66 489.62,566.86 C489.74,567.14 489.92,567.3 490.2,567.3 C490.26,567.3 490.32,567.3 490.38,567.28 C490.64,567.18 490.78,566.98 490.78,566.66 C490.78,566.58 490.76,566.52 490.74,566.44 C490.68,565.62 490.64,564.72 490.64,563.76 C490.64,563.76 490.68,563.72 490.72,563.68 C490.88,563.52 491.04,563.36 491.22,563.22 C491.48,563.04 491.76,562.86 492.08,562.7 L492.08,566.22 C492.04,569.06 491.9,570.84 491.64,571.56 C491.64,571.84 491.92,571.98 492.48,571.98 Z M494.14,565.58 C494.06,565.58 493.92,565.52 493.76,565.4 C493.68,565.34 493.58,565.26 493.48,565.18 L493.48,564.14 C493.48,563.42 493.5,562.74 493.54,562.08 C494.04,561.92 494.56,561.82 495.12,561.76 C495.3,561.76 495.44,561.78 495.56,561.8 C495.32,562.76 495.12,563.5 494.96,564.02 C494.76,564.58 494.58,564.98 494.42,565.22 C494.3,565.46 494.22,565.58 494.14,565.58 Z M511.94,554.38 C512.16,554.36 512.28,554.2 512.3,553.92 C512.3,553.68 512.2,553.5 512.02,553.38 C511.3,553.22 510.54,553.04 509.76,552.84 C509.12,552.68 508.68,552.58 508.44,552.58 C508.18,552.58 508.04,552.74 508.02,553.06 C508.02,553.34 508.06,553.54 508.16,553.7 C508.44,553.94 508.94,554.1 509.66,554.18 C510.38,554.32 511.14,554.38 511.94,554.38 Z M520.52,572.52 C520.84,572.52 521.08,572.24 521.24,571.7 C521.36,570.98 521.46,570.08 521.56,569.02 C521.66,567.54 521.72,566.06 521.72,564.62 C521.72,564.14 521.7,563.58 521.7,562.98 C521.64,561.98 521.6,561.08 521.56,560.28 C521.52,559.96 521.5,559.66 521.5,559.4 C521.66,559.36 521.84,559.3 522.04,559.26 C523.08,558.98 523.78,558.7 524.12,558.4 C524.36,558.28 524.48,558.02 524.48,557.66 C524.48,557.48 524.38,557.34 524.18,557.22 C524.06,557.18 523.92,557.16 523.76,557.16 C523.64,557.2 523.4,557.28 523.08,557.38 C522.24,557.62 521.52,557.82 520.96,557.94 C520,558.22 519.24,558.42 518.7,558.52 C518.44,558.6 518.2,558.66 517.96,558.74 L517.96,558.6 C517.96,558.24 517.92,557.82 517.88,557.36 C517.82,556.96 517.74,556.62 517.66,556.32 C518.82,555.88 519.82,555.38 520.66,554.78 C520.86,554.64 521,554.52 521.08,554.4 C521.16,554.26 521.22,554.14 521.22,554.02 C521.22,553.72 521.1,553.48 520.88,553.32 C520.68,553.22 520.48,553.16 520.26,553.16 C520.06,553.2 519.92,553.3 519.82,553.44 C519.64,553.56 519.46,553.7 519.3,553.82 C518.38,554.48 517.34,555.04 516.22,555.5 C516.1,555.62 516.02,555.74 516.02,555.9 L516.02,556.12 C516.02,556.24 516.08,556.36 516.18,556.44 C516.18,556.52 516.22,556.6 516.3,556.66 C516.38,557.22 516.44,557.92 516.46,558.76 C516.46,559.28 516.44,559.78 516.4,560.26 C516.34,560.84 516.28,561.38 516.2,561.9 C516,563.06 515.72,564.28 515.4,565.54 C515.3,565.82 515.24,566.02 515.2,566.14 C515.08,566.36 515.04,566.54 515.04,566.66 C515.04,567.06 515.2,567.26 515.56,567.26 C515.76,567.26 515.94,567.18 516.14,567.02 C516.22,566.86 516.32,566.68 516.42,566.46 C516.92,565.14 517.3,563.82 517.56,562.5 C517.68,561.78 517.78,561.08 517.86,560.36 L517.86,560.28 C517.9,560.28 517.94,560.26 518,560.24 C518.46,560.12 518.94,559.98 519.46,559.82 C519.66,559.78 519.84,559.74 520.04,559.7 C520.04,559.78 520.08,559.88 520.12,560 C520.14,560.5 520.16,561 520.2,561.48 C520.28,563.2 520.32,564.56 520.32,565.54 C520.32,566.58 520.24,567.96 520.12,569.68 C520.04,570.66 519.98,571.42 519.94,571.94 C519.94,572.32 520.12,572.52 520.52,572.52 Z M510.56,572.4 C510.88,572.4 511.2,572.18 511.5,571.74 C511.72,571.34 511.84,570.8 511.84,570.12 C511.84,569.08 511.82,567.96 511.78,566.68 L511.76,566.34 C512.58,567.12 513.18,567.58 513.58,567.74 C513.74,567.86 513.94,567.92 514.18,567.92 C514.42,567.86 514.58,567.68 514.62,567.4 C514.62,567.2 514.56,567.02 514.44,566.82 C513.8,566.3 513.2,565.84 512.66,565.42 C512.32,565.14 512.06,564.96 511.9,564.84 C511.82,564.8 511.76,564.74 511.7,564.7 L511.68,563.84 C513.04,563.24 513.9,562.68 514.26,562.18 C514.44,562 514.54,561.82 514.54,561.62 C514.54,561.54 514.52,561.46 514.5,561.42 C514.42,561.28 514.28,561.2 514.1,561.2 C513.48,561.52 512.66,561.9 511.64,562.34 C511.62,561.82 511.62,561.32 511.62,560.88 C512.46,560.5 513.16,560.1 513.76,559.68 C513.88,559.52 513.96,559.36 513.98,559.2 C513.98,559.1 513.96,559.02 513.94,558.96 C513.82,558.82 513.7,558.74 513.54,558.72 C513.46,558.72 513.36,558.74 513.28,558.78 C513.16,558.84 512.82,558.98 512.28,559.22 L512.24,559.24 C512.72,558.32 512.96,557.5 512.96,556.74 C512.96,556.54 512.92,556.32 512.86,556.08 C513.58,555.84 514.06,555.62 514.3,555.42 C514.5,555.22 514.62,555.02 514.62,554.82 C514.62,554.74 514.58,554.66 514.54,554.6 C514.46,554.44 514.32,554.36 514.12,554.36 C513.32,554.6 512.22,554.86 510.78,555.16 C509.78,555.38 508.76,555.58 507.7,555.74 C507.34,555.84 507.06,555.92 506.84,556 C506.44,556.2 506.26,556.44 506.26,556.68 C506.3,557.22 506.52,557.5 506.92,557.5 C507.14,557.5 507.4,557.48 507.7,557.42 C507.82,557.42 508.02,557.38 508.26,557.32 C508.28,557.32 508.32,557.32 508.38,557.3 L508.5,557.42 L508.5,557.42 C508.62,557.58 508.7,557.74 508.74,557.94 L508.86,559.02 L508.86,559.02 C508.86,559.3 508.88,559.52 508.96,559.68 C509.06,559.88 509.2,559.96 509.4,559.96 C509.74,559.96 509.92,559.84 509.96,559.56 C510,559.4 510.02,559.04 510.02,558.5 C510.02,558.2 510,557.9 509.98,557.58 C509.94,557.36 509.86,557.16 509.74,556.98 C510.14,556.88 510.58,556.78 511.02,556.66 C511.18,556.62 511.36,556.56 511.54,556.5 C511.56,556.64 511.58,556.76 511.58,556.86 C511.58,557.38 511.48,557.9 511.3,558.46 C511.02,559.14 510.9,559.54 510.9,559.66 L510.9,559.72 C510.34,559.92 509.76,560.1 509.14,560.3 C508.62,560.42 508,560.58 507.28,560.78 C507.02,560.9 506.88,561.06 506.88,561.28 C506.88,561.6 506.94,561.86 507.06,562.06 C507.18,562.26 507.34,562.34 507.52,562.34 C507.6,562.34 507.7,562.3 507.86,562.22 C508.62,562.04 509.44,561.78 510.3,561.44 C510.3,561.86 510.3,562.32 510.32,562.82 C509.54,563.14 508.74,563.42 507.9,563.68 C507.54,563.78 507.24,563.86 507.02,563.92 C506.64,564.12 506.46,564.34 506.46,564.58 C506.52,565.1 506.74,565.38 507.14,565.38 C507.34,565.38 507.6,565.38 507.9,565.34 C507.98,565.32 508.16,565.26 508.44,565.16 C508.78,565.04 509.14,564.88 509.54,564.72 C509.44,565.08 509.28,565.48 509.06,565.92 C508.54,566.84 507.82,567.74 506.86,568.66 C506.7,568.78 506.62,568.92 506.62,569.04 C506.62,569.16 506.64,569.24 506.7,569.32 C506.8,569.54 506.98,569.66 507.22,569.68 C507.28,569.68 507.4,569.64 507.58,569.56 C508.3,569.06 508.94,568.38 509.54,567.48 C509.9,566.88 510.2,566.28 510.44,565.64 C510.44,566.04 510.46,566.44 510.5,566.88 C510.54,568 510.56,569.02 510.56,569.98 C510.56,570.6 510.46,570.92 510.26,570.92 C509.62,570.5 509.18,570.22 508.96,570.1 C508.64,570.1 508.48,570.26 508.48,570.58 C508.48,570.82 508.62,571.1 508.92,571.46 C509.46,572.08 510,572.4 510.56,572.4 Z M533.02,559.72 C533.22,559.72 533.38,559.66 533.5,559.5 C533.62,559.5 533.76,559.48 533.92,559.44 C535.18,559.16 536.42,558.84 537.64,558.48 C538.28,558.3 538.78,558.12 539.1,557.94 C539.28,557.74 539.38,557.56 539.38,557.36 C539.36,557.28 539.3,557.18 539.22,557.1 C539.46,556.78 539.68,556.4 539.86,555.98 C540.14,555.32 540.3,554.8 540.3,554.42 C540.3,554.02 540.16,553.66 539.92,553.3 C539.62,552.9 539.16,552.64 538.52,552.5 C538.14,552.44 537.64,552.4 537.02,552.4 C536.3,552.4 535.52,552.48 534.66,552.64 C533.76,552.86 533,553.1 532.4,553.34 C532.32,553.18 532.18,553.08 532.02,553 C531.92,552.98 531.78,552.96 531.62,552.96 C531.44,552.96 531.3,553.04 531.18,553.2 C531.04,553.36 530.96,553.5 530.94,553.64 C531.22,554.52 531.58,555.6 532.02,556.9 C532.26,557.82 532.4,558.6 532.44,559.2 C532.48,559.56 532.66,559.72 533.02,559.72 Z M533.62,558.24 C533.58,557.92 533.5,557.52 533.42,557.04 C533.54,557.02 533.88,556.92 534.48,556.72 C535.84,556.28 536.88,555.92 537.6,555.68 C537.8,555.56 537.9,555.44 537.9,555.28 C537.9,555.2 537.86,555.1 537.78,554.98 C537.68,554.9 537.58,554.86 537.46,554.84 C537.22,554.84 536.92,554.88 536.56,554.94 C534.94,555.34 533.82,555.68 533.18,555.94 C533.04,555.36 532.92,554.86 532.8,554.42 C533.4,554.18 534.08,553.98 534.84,553.8 C535.7,553.6 536.56,553.48 537.44,553.48 C538.42,553.52 538.92,553.9 538.92,554.58 C538.88,555.02 538.68,555.58 538.3,556.26 C538.1,556.62 537.84,556.96 537.56,557.26 C536.46,557.6 535.14,557.92 533.62,558.24 Z M534.26,573.1 C534.54,573.1 534.76,572.96 534.92,572.72 C535.28,572.04 535.46,571.2 535.46,570.16 C535.46,569.9 535.44,569.62 535.44,569.32 C535.8,569.08 536.14,568.82 536.46,568.5 C536.66,568.22 536.78,567.96 536.78,567.74 C536.74,567.5 536.62,567.38 536.38,567.36 C536.24,567.4 536.04,567.52 535.78,567.76 C535.66,567.84 535.52,567.92 535.38,568 L535.38,567.88 C535.345,567.0575 535.325313,566.342187 535.320938,565.747461 L535.32,565.5 C535.32,564.74 535.32,564.02 535.34,563.38 C535.36,562.62 535.38,562.06 535.38,561.74 C535.38,561.74 535.36,561.7 535.36,561.64 C535.48,561.62 535.6,561.6 535.74,561.56 C539.14,560.8 541.24,560.12 542.04,559.56 C542.22,559.38 542.32,559.2 542.32,559 C542.32,558.92 542.3,558.86 542.3,558.82 C542.22,558.68 542.08,558.6 541.88,558.6 C540.36,559.06 538.2,559.58 535.4,560.18 C533.44,560.6 531.44,560.98 529.4,561.3 C529.06,561.38 528.8,561.46 528.6,561.54 C528.24,561.72 528.06,561.92 528.06,562.14 C528.1,562.64 528.3,562.9 528.66,562.9 C528.86,562.9 529.12,562.88 529.4,562.84 C529.6,562.82 529.96,562.76 530.48,562.68 L530.5,562.68 C530.2,564.08 530.06,565.7 530.06,567.54 C530.06,568.04 530.08,568.5 530.12,568.9 C530.2,569.48 530.42,569.78 530.78,569.78 C531.28,569.78 531.54,569.46 531.54,568.86 C531.5,568.66 531.48,568.44 531.48,568.22 C532,568.02 532.58,567.7 533.18,567.3 C533.5,567.08 533.8,566.84 534.08,566.58 C534.08,566.86 534.1,567.16 534.14,567.46 L534.2,568.66 L534.2,568.66 C533.32,569.14 532.54,569.54 531.84,569.84 C531.4,570.02 530.82,570.24 530.1,570.48 C529.5,570.68 529.1,570.88 528.94,571.06 C528.88,571.12 528.86,571.24 528.86,571.44 C528.92,571.84 529.12,572.06 529.46,572.06 C529.58,572.06 529.74,572.02 529.94,571.98 C530.62,571.82 531.46,571.52 532.42,571.1 C533.06,570.78 533.68,570.46 534.26,570.12 L534.26,570.3 C534.22,571.02 534.02,571.74 533.64,572.42 C533.64,572.86 533.84,573.1 534.26,573.1 Z M531.6,564.14 C531.64,563.6 531.72,563.12 531.8,562.72 C531.82,562.6 531.84,562.5 531.86,562.4 C532.52,562.26 533.22,562.1 533.96,561.94 C533.96,562.44 533.98,562.9 533.98,563.34 C533.74,563.42 533.36,563.54 532.84,563.7 C532.34,563.86 531.92,564 531.6,564.14 Z M543.54,571.84 C544.36,571.84 544.94,571.72 545.28,571.48 C545.4,571.36 545.48,571.22 545.48,571.06 C545.44,570.92 545.32,570.86 545.12,570.86 C544.6,570.82 544.04,570.7 543.4,570.46 C542.42,570.12 541.36,569.3 540.24,568.02 C540.4,567.76 540.56,567.46 540.74,567.12 C541.44,565.6 541.8,564.52 541.8,563.88 C541.8,563.7 541.78,563.52 541.76,563.34 C541.62,562.98 541.42,562.7 541.14,562.5 C540.94,562.34 540.66,562.24 540.3,562.22 C540,562.22 539.72,562.24 539.48,562.24 C538.84,562.32 538.36,562.42 538.04,562.54 C537.8,562.7 537.68,562.88 537.68,563.08 C537.68,563.36 537.74,563.58 537.86,563.74 C537.96,563.86 538.08,563.92 538.24,563.92 C538.32,563.92 538.52,563.9 538.84,563.86 C539.36,563.78 539.88,563.74 540.42,563.72 C540.34,564.48 540.08,565.36 539.6,566.4 C539.52,566.56 539.42,566.74 539.3,566.94 C539.22,566.86 539.16,566.74 539.08,566.62 C538.76,566.22 538.48,565.86 538.22,565.5 C538.1,565.34 537.98,565.2 537.86,565.1 C537.7,564.98 537.5,564.9 537.28,564.9 C537,564.94 536.82,565.06 536.7,565.26 C536.6,565.38 536.56,565.52 536.56,565.68 C536.56,565.88 536.64,566.06 536.82,566.22 C537.32,566.92 537.86,567.62 538.44,568.3 C538.12,568.82 537.68,569.36 537.16,569.92 C537.12,570.04 537.1,570.14 537.1,570.26 C537.12,570.58 537.3,570.74 537.66,570.78 C537.82,570.78 537.96,570.74 538.06,570.66 C538.34,570.52 538.76,570.08 539.34,569.32 C539.74,569.76 540.14,570.16 540.56,570.52 C541.16,571 541.7,571.34 542.18,571.54 C542.68,571.74 543.14,571.84 543.54,571.84 Z M531.42,567.02 C531.42,566.5 531.46,565.94 531.5,565.32 C532.46,564.96 533.28,564.64 533.98,564.34 C533.98,564.74 533.98,565.16 534.02,565.6 C533.94,565.66 533.82,565.76 533.64,565.88 C533.12,566.2 532.56,566.5 531.94,566.8 C531.78,566.86 531.6,566.94 531.42,567.02 Z M553.14,554.38 C553.36,554.36 553.48,554.2 553.5,553.92 C553.5,553.68 553.4,553.5 553.22,553.38 C552.5,553.22 551.74,553.04 550.96,552.84 C550.32,552.68 549.88,552.58 549.64,552.58 C549.38,552.58 549.24,552.74 549.22,553.06 C549.22,553.34 549.26,553.54 549.36,553.7 C549.64,553.94 550.14,554.1 550.86,554.18 C551.58,554.32 552.34,554.38 553.14,554.38 Z M561.72,572.52 C562.04,572.52 562.28,572.24 562.44,571.7 C562.56,570.98 562.66,570.08 562.76,569.02 C562.86,567.54 562.92,566.06 562.92,564.62 C562.92,564.14 562.9,563.58 562.9,562.98 C562.84,561.98 562.8,561.08 562.76,560.28 C562.72,559.96 562.7,559.66 562.7,559.4 C562.86,559.36 563.04,559.3 563.24,559.26 C564.28,558.98 564.98,558.7 565.32,558.4 C565.56,558.28 565.68,558.02 565.68,557.66 C565.68,557.48 565.58,557.34 565.38,557.22 C565.26,557.18 565.12,557.16 564.96,557.16 C564.84,557.2 564.6,557.28 564.28,557.38 C563.44,557.62 562.72,557.82 562.16,557.94 C561.2,558.22 560.44,558.42 559.9,558.52 C559.64,558.6 559.4,558.66 559.16,558.74 L559.16,558.6 C559.16,558.24 559.12,557.82 559.08,557.36 C559.02,556.96 558.94,556.62 558.86,556.32 C560.02,555.88 561.02,555.38 561.86,554.78 C562.06,554.64 562.2,554.52 562.28,554.4 C562.36,554.26 562.42,554.14 562.42,554.02 C562.42,553.72 562.3,553.48 562.08,553.32 C561.88,553.22 561.68,553.16 561.46,553.16 C561.26,553.2 561.12,553.3 561.02,553.44 C560.84,553.56 560.66,553.7 560.5,553.82 C559.58,554.48 558.54,555.04 557.42,555.5 C557.3,555.62 557.22,555.74 557.22,555.9 L557.22,556.12 C557.22,556.24 557.28,556.36 557.38,556.44 C557.38,556.52 557.42,556.6 557.5,556.66 C557.58,557.22 557.64,557.92 557.66,558.76 C557.66,559.28 557.64,559.78 557.6,560.26 C557.54,560.84 557.48,561.38 557.4,561.9 C557.2,563.06 556.92,564.28 556.6,565.54 C556.5,565.82 556.44,566.02 556.4,566.14 C556.28,566.36 556.24,566.54 556.24,566.66 C556.24,567.06 556.4,567.26 556.76,567.26 C556.96,567.26 557.14,567.18 557.34,567.02 C557.42,566.86 557.52,566.68 557.62,566.46 C558.12,565.14 558.5,563.82 558.76,562.5 C558.88,561.78 558.98,561.08 559.06,560.36 L559.06,560.28 C559.1,560.28 559.14,560.26 559.2,560.24 C559.66,560.12 560.14,559.98 560.66,559.82 C560.86,559.78 561.04,559.74 561.24,559.7 C561.24,559.78 561.28,559.88 561.32,560 C561.34,560.5 561.36,561 561.4,561.48 C561.48,563.2 561.52,564.56 561.52,565.54 C561.52,566.58 561.44,567.96 561.32,569.68 C561.24,570.66 561.18,571.42 561.14,571.94 C561.14,572.32 561.32,572.52 561.72,572.52 Z M551.76,572.4 C552.08,572.4 552.4,572.18 552.7,571.74 C552.92,571.34 553.04,570.8 553.04,570.12 C553.04,569.08 553.02,567.96 552.98,566.68 L552.96,566.34 C553.78,567.12 554.38,567.58 554.78,567.74 C554.94,567.86 555.14,567.92 555.38,567.92 C555.62,567.86 555.78,567.68 555.82,567.4 C555.82,567.2 555.76,567.02 555.64,566.82 C555,566.3 554.4,565.84 553.86,565.42 C553.52,565.14 553.26,564.96 553.1,564.84 C553.02,564.8 552.96,564.74 552.9,564.7 L552.88,563.84 C554.24,563.24 555.1,562.68 555.46,562.18 C555.64,562 555.74,561.82 555.74,561.62 C555.74,561.54 555.72,561.46 555.7,561.42 C555.62,561.28 555.48,561.2 555.3,561.2 C554.68,561.52 553.86,561.9 552.84,562.34 C552.82,561.82 552.82,561.32 552.82,560.88 C553.66,560.5 554.36,560.1 554.96,559.68 C555.08,559.52 555.16,559.36 555.18,559.2 C555.18,559.1 555.16,559.02 555.14,558.96 C555.02,558.82 554.9,558.74 554.74,558.72 C554.66,558.72 554.56,558.74 554.48,558.78 C554.36,558.84 554.02,558.98 553.48,559.22 L553.44,559.24 C553.92,558.32 554.16,557.5 554.16,556.74 C554.16,556.54 554.12,556.32 554.06,556.08 C554.78,555.84 555.26,555.62 555.5,555.42 C555.7,555.22 555.82,555.02 555.82,554.82 C555.82,554.74 555.78,554.66 555.74,554.6 C555.66,554.44 555.52,554.36 555.32,554.36 C554.52,554.6 553.42,554.86 551.98,555.16 C550.98,555.38 549.96,555.58 548.9,555.74 C548.54,555.84 548.26,555.92 548.04,556 C547.64,556.2 547.46,556.44 547.46,556.68 C547.5,557.22 547.72,557.5 548.12,557.5 C548.34,557.5 548.6,557.48 548.9,557.42 C549.02,557.42 549.22,557.38 549.46,557.32 C549.48,557.32 549.52,557.32 549.58,557.3 C549.62,557.34 549.66,557.38 549.7,557.42 C549.82,557.58 549.9,557.74 549.94,557.94 L550.06,559.02 L550.06,559.02 C550.06,559.3 550.08,559.52 550.16,559.68 C550.26,559.88 550.4,559.96 550.6,559.96 C550.94,559.96 551.12,559.84 551.16,559.56 C551.2,559.4 551.22,559.04 551.22,558.5 C551.22,558.2 551.2,557.9 551.18,557.58 C551.14,557.36 551.06,557.16 550.94,556.98 C551.34,556.88 551.78,556.78 552.22,556.66 C552.38,556.62 552.56,556.56 552.74,556.5 C552.76,556.64 552.78,556.76 552.78,556.86 C552.78,557.38 552.68,557.9 552.5,558.46 C552.22,559.14 552.1,559.54 552.1,559.66 L552.1,559.72 C551.54,559.92 550.96,560.1 550.34,560.3 C549.82,560.42 549.2,560.58 548.48,560.78 C548.22,560.9 548.08,561.06 548.08,561.28 C548.08,561.6 548.14,561.86 548.26,562.06 C548.38,562.26 548.54,562.34 548.72,562.34 C548.8,562.34 548.9,562.3 549.06,562.22 C549.82,562.04 550.64,561.78 551.5,561.44 C551.5,561.86 551.5,562.32 551.52,562.82 C550.74,563.14 549.94,563.42 549.1,563.68 C548.74,563.78 548.44,563.86 548.22,563.92 C547.84,564.12 547.66,564.34 547.66,564.58 C547.72,565.1 547.94,565.38 548.34,565.38 C548.54,565.38 548.8,565.38 549.1,565.34 C549.18,565.32 549.36,565.26 549.64,565.16 C549.98,565.04 550.34,564.88 550.74,564.72 C550.64,565.08 550.48,565.48 550.26,565.92 C549.74,566.84 549.02,567.74 548.06,568.66 C547.9,568.78 547.82,568.92 547.82,569.04 C547.82,569.16 547.84,569.24 547.9,569.32 C548,569.54 548.18,569.66 548.42,569.68 C548.48,569.68 548.6,569.64 548.78,569.56 C549.5,569.06 550.14,568.38 550.74,567.48 C551.1,566.88 551.4,566.28 551.64,565.64 C551.64,566.04 551.66,566.44 551.7,566.88 C551.74,568 551.76,569.02 551.76,569.98 C551.76,570.6 551.66,570.92 551.46,570.92 C550.82,570.5 550.38,570.22 550.16,570.1 C549.84,570.1 549.68,570.26 549.68,570.58 C549.68,570.82 549.82,571.1 550.12,571.46 C550.66,572.08 551.2,572.4 551.76,572.4 Z M575.94,565.94 C576.16,565.94 576.42,565.92 576.72,565.88 C576.88,565.86 577.14,565.8 577.54,565.68 C578.78,565.28 580.1,564.84 581.54,564.34 C584.1,563.42 585.68,562.62 586.28,561.94 C586.46,561.74 586.56,561.56 586.56,561.36 C586.56,561.3 586.54,561.24 586.52,561.18 C586.44,561.06 586.3,560.98 586.12,560.98 C585,561.5 583.44,562.1 581.46,562.74 C581.98,562.06 582.36,561.4 582.62,560.72 C582.78,560.2 582.86,559.62 582.86,559 C582.86,558.28 582.64,557.92 582.2,557.92 C581.96,557.94 581.78,557.98 581.64,558.06 C581.44,558.16 581.36,558.32 581.36,558.52 C581.36,558.62 581.36,558.7 581.38,558.78 C581.42,559.14 581.44,559.4 581.44,559.6 C581.44,560.1 581.3,560.62 581.02,561.14 C580.52,562.02 580.2,562.72 580.04,563.22 C579.94,563.26 579.84,563.28 579.72,563.3 C579.72,563.12 579.7,562.8 579.7,562.34 C579.66,561.74 579.62,561.24 579.6,560.86 C579.58,560.26 579.54,559.62 579.5,558.98 C579.5,558.9 579.48,558.82 579.46,558.72 C579.86,558.56 580.28,558.36 580.7,558.14 C581.18,557.9 581.56,557.64 581.8,557.4 C582,557.18 582.12,556.96 582.12,556.72 C582.1,556.62 582.02,556.52 581.88,556.4 C582.56,555.62 582.92,554.92 582.96,554.32 C582.96,553.74 582.32,553.3 581.04,552.98 C580.64,552.88 580.34,552.82 580.1,552.82 C579.64,552.9 579.42,553.18 579.42,553.62 C579.42,553.98 579.58,554.2 579.88,554.3 C580.8,554.34 581.34,554.44 581.52,554.64 C581.36,555.16 580.74,555.98 579.62,557.08 C578.98,557.4 578.24,557.72 577.4,558.04 C577.24,558.1 577.12,558.16 577,558.2 C576.8,558.36 576.68,558.52 576.68,558.7 C576.68,559.1 576.86,559.38 577.26,559.56 L577.42,559.56 C577.56,559.54 577.72,559.5 577.88,559.44 C577.96,559.4 578.08,559.36 578.22,559.28 C578.3,560.2 578.36,561.08 578.36,561.92 L578.36,563.28 C578.36,563.44 578.38,563.58 578.42,563.72 C577.86,563.88 577.28,564.04 576.72,564.18 C576.36,564.3 576.08,564.38 575.86,564.46 C575.46,564.68 575.28,564.9 575.28,565.12 C575.34,565.66 575.56,565.94 575.94,565.94 Z M569.04,566.76 C569.22,566.76 569.4,566.7 569.58,566.54 C569.68,566.4 569.74,566.24 569.74,566.04 C569.7,564.24 569.68,562.44 569.68,560.68 C569.7,559.6 569.72,558.96 569.72,558.76 C569.74,558.36 569.8,557.74 569.9,556.94 C569.96,556.52 570,556.16 570.04,555.86 L570.1,555.86 L570.1,555.86 C570.16,555.84 570.36,555.78 570.68,555.68 C571,555.58 571.4,555.5 571.86,555.42 C572.3,555.36 572.58,555.32 572.74,555.32 C573.1,555.32 573.34,555.38 573.46,555.48 C573.54,555.62 573.58,555.84 573.58,556.14 C573.56,556.42 573.52,557.46 573.48,559.28 C573.42,561.1 573.4,563.04 573.4,565.08 C573.4,565.5 573.5,565.78 573.7,565.9 C573.82,566.1 574,566.18 574.24,566.18 C574.62,566.18 574.82,565.86 574.82,565.22 C574.82,563.84 574.84,562.44 574.84,561 C574.84,560.48 574.86,559.48 574.92,557.98 C574.94,556.62 574.96,555.76 574.96,555.44 C574.96,554.44 574.3,553.92 573,553.9 C572.6,553.92 572.22,553.96 571.86,554 C571.5,554.04 571.12,554.1 570.72,554.14 C570.34,554.22 570.04,554.28 569.84,554.36 C569.7,554.16 569.5,554.04 569.24,554.04 C569.04,554.04 568.84,554.12 568.66,554.28 C568.52,554.4 568.44,554.52 568.44,554.66 C568.44,554.78 568.44,554.88 568.46,554.96 C568.48,555.12 568.5,555.26 568.52,555.4 C568.52,555.82 568.5,556.2 568.5,556.56 C568.44,557.28 568.4,557.96 568.4,558.58 C568.36,559.2 568.36,559.88 568.36,560.64 C568.36,562.94 568.38,564.72 568.42,565.98 C568.44,566.28 568.52,566.48 568.64,566.6 C568.72,566.72 568.86,566.76 569.04,566.76 Z M568.86,571.92 C569.22,571.92 569.58,571.74 569.94,571.42 C570.32,571.04 570.66,570.58 570.94,570.06 C571.66,568.74 572.1,567.1 572.26,565.14 C572.34,564.48 572.38,563.8 572.38,563.08 L572.38,560.56 C572.38,559.64 572.32,558.94 572.2,558.46 C572.08,558.18 571.86,558.02 571.5,558.02 C571.06,558.06 570.86,558.26 570.86,558.64 C570.9,559.36 570.94,560.04 570.96,560.72 L570.96,563.64 C570.88,565.96 570.5,567.8 569.82,569.16 C569.56,569.68 569.22,570.18 568.8,570.64 C568.44,571 568.28,571.24 568.28,571.36 C568.28,571.7 568.46,571.88 568.86,571.92 Z M579.16,572.28 C579.34,572.28 579.48,572.2 579.6,572.08 C579.64,572.08 579.66,572.1 579.7,572.1 C579.78,572.1 579.88,572.06 580.04,572.02 C580.68,571.86 581.36,571.62 582.08,571.3 C582.7,571.02 583.2,570.74 583.6,570.46 C583.72,570.3 583.78,570.16 583.8,570 L583.8,569.9 C583.84,569.82 583.92,569.72 584.02,569.62 C584.38,568.98 584.6,568.32 584.68,567.62 C584.68,566.98 584.44,566.54 583.98,566.26 C583.66,566.08 583.18,565.98 582.54,565.98 C581.58,565.98 580.74,566.06 579.98,566.2 C579.62,566.28 579.3,566.38 579.04,566.46 C579,566.44 578.94,566.42 578.88,566.38 C578.8,566.34 578.68,566.32 578.56,566.32 C578.4,566.32 578.28,566.4 578.18,566.54 C578.08,566.66 578.02,566.76 578,566.88 C578.1,567.64 578.22,568.6 578.38,569.76 C578.48,570.54 578.54,571.2 578.56,571.74 C578.58,572.1 578.78,572.28 579.16,572.28 Z M579.72,570.5 C579.68,570.1 579.64,569.56 579.56,568.9 C579.5,568.5 579.46,568.12 579.42,567.76 C579.54,567.76 579.88,567.7 580.42,567.6 C580.82,567.52 581.2,567.48 581.6,567.46 C582,567.4 582.34,567.36 582.66,567.36 C583.04,567.36 583.26,567.5 583.3,567.74 C583.3,568.16 583,568.78 582.4,569.58 C582.28,569.7 582.18,569.82 582.12,569.94 C581.68,570.06 581.18,570.18 580.62,570.32 C580.36,570.36 580.06,570.42 579.72,570.5 Z M575.46,571.34 C575.74,571.24 575.88,571.06 575.92,570.8 C575.92,570.58 575.86,570.38 575.74,570.2 C575.26,569.54 574.84,568.96 574.46,568.42 C574.2,568.1 574.02,567.86 573.9,567.7 C573.7,567.54 573.5,567.46 573.26,567.46 C572.82,567.54 572.6,567.74 572.58,568.08 C572.58,568.2 572.6,568.32 572.68,568.48 C572.74,568.64 572.84,568.8 572.98,568.96 C573.82,570.2 574.44,570.92 574.84,571.14 C575.02,571.26 575.22,571.34 575.46,571.34 Z M598.24,554.04 C598.52,553.94 598.66,553.76 598.68,553.5 C598.68,553.22 598.58,553 598.4,552.84 C598.16,552.66 597.72,552.48 597.06,552.3 C596.58,552.22 596.06,552.18 595.52,552.14 C595.18,552.18 594.98,552.4 594.9,552.8 C594.9,553.32 595.08,553.6 595.46,553.62 C596.5,553.7 597.44,553.84 598.24,554.04 Z M595.52,562.9 C595.76,562.9 596,562.86 596.2,562.78 C596.44,562.7 596.68,562.54 596.96,562.28 C597.68,561.72 598.24,561.3 598.64,560.98 C598.8,560.86 598.98,560.72 599.14,560.58 L599.9,562.12 C599.98,562.48 600.2,562.66 600.52,562.66 L600.66,562.64 C600.86,562.56 600.98,562.34 600.98,561.98 C600.98,561.84 600.92,561.56 600.8,561.16 C600.64,560.64 600.44,560.14 600.2,559.64 C600.08,559.36 599.84,559.2 599.44,559.2 C599.26,559.24 599.1,559.32 598.96,559.44 L598.94,559.46 C598.42,559.82 597.82,560.22 597.14,560.62 C598.38,559.16 599,558.18 599,557.68 C598.96,557.24 598.74,557 598.36,557 C598.16,557 597.92,557.1 597.6,557.26 C597.12,557.58 596.7,557.82 596.38,557.98 C596.72,557.3 596.9,556.7 596.9,556.18 C596.9,556.12 596.88,556.06 596.88,556 C597.36,555.92 597.86,555.8 598.34,555.66 C599.58,555.38 600.68,555.06 601.6,554.7 C601.84,554.6 602.04,554.46 602.2,554.26 C602.32,554.1 602.38,553.94 602.38,553.78 C602.38,553.62 602.24,553.48 601.98,553.32 C601.74,553.22 601.52,553.16 601.36,553.16 C601.18,553.22 600.98,553.28 600.78,553.36 C599.28,553.88 597.88,554.26 596.58,554.52 C595.34,554.8 594.22,554.92 593.2,554.92 C593.04,554.92 592.88,554.92 592.72,554.9 C592.36,555.08 592.14,555.3 592.1,555.54 L592.1,555.88 C592.1,556.28 592.28,556.5 592.66,556.54 L593.14,556.54 C593.62,556.54 594.14,556.5 594.68,556.42 C595,556.38 595.34,556.32 595.7,556.24 C595.7,556.32 595.7,556.44 595.74,556.56 C595.74,556.84 595.64,557.16 595.44,557.5 C595.26,557.74 595.12,557.96 595.02,558.16 C594.86,558.4 594.8,558.6 594.8,558.76 C594.8,558.92 594.92,559.08 595.14,559.24 C595.3,559.4 595.46,559.46 595.66,559.46 C596.06,559.38 596.62,559.08 597.34,558.58 C597,559.16 596.56,559.82 596.04,560.56 C595.72,560.96 595.46,561.28 595.3,561.52 C595.14,561.78 595.04,561.98 595.04,562.12 C595.04,562.28 595.06,562.42 595.12,562.52 C595.22,562.76 595.36,562.9 595.52,562.9 Z M604.22,559.86 C604.6,559.86 604.88,559.76 605.08,559.52 C605.2,559.38 605.28,559.2 605.28,558.98 C605.28,558.78 605.06,558.62 604.62,558.52 C603.78,558.38 603.16,558.24 602.72,558.1 C603.16,557.58 603.46,557.22 603.58,557.02 C603.7,556.86 603.76,556.74 603.76,556.66 C603.72,556.18 603.48,555.92 603.02,555.9 C602.68,555.92 602.42,556.04 602.26,556.24 C601.98,556.82 601.58,557.36 601.02,557.86 C600.92,557.98 600.88,558.08 600.88,558.2 C600.88,558.52 600.98,558.76 601.2,558.92 C601.56,559.32 602.26,559.62 603.34,559.78 C603.66,559.84 603.96,559.86 604.22,559.86 Z M593.82,560.04 C594.08,559.96 594.22,559.76 594.24,559.46 C594.24,559.16 594.14,558.92 593.94,558.76 C593.78,558.6 593.44,558.42 592.94,558.24 C592.56,558.16 592.16,558.1 591.76,558.06 C591.4,558.1 591.2,558.32 591.14,558.76 C591.14,559.32 591.32,559.6 591.72,559.64 C592.52,559.72 593.22,559.84 593.82,560.04 Z M591.42,563.36 C591.56,563.36 591.76,563.32 592.02,563.24 C592.46,563.1 592.94,562.84 593.48,562.46 C593.88,562.22 594.22,561.94 594.5,561.62 C594.7,561.34 594.82,561.14 594.82,561.02 C594.82,560.92 594.8,560.82 594.78,560.74 C594.7,560.6 594.58,560.52 594.4,560.52 C594.28,560.52 594.16,560.54 594.04,560.56 C593.92,560.6 593.74,560.68 593.54,560.8 C592.96,561.12 592.48,561.36 592.08,561.52 C591.92,561.6 591.66,561.7 591.32,561.82 C590.94,561.96 590.74,562.16 590.74,562.42 C590.74,562.7 590.8,562.92 590.92,563.08 C591.06,563.28 591.22,563.36 591.42,563.36 Z M598.54,573.04 C598.96,573.04 599.2,572.78 599.28,572.26 C599.48,570.94 599.58,569.32 599.58,567.4 C599.58,566.8 599.56,566.22 599.52,565.64 C602.28,564.92 604.02,564.26 604.78,563.7 C604.94,563.5 605.02,563.3 605.02,563.14 C605.02,563.06 605,563 604.98,562.96 C604.9,562.82 604.78,562.74 604.62,562.74 C603.32,563.16 601.58,563.62 599.4,564.14 C599.32,563.64 599.24,563.22 599.14,562.88 C598.94,562.4 598.68,562.14 598.34,562.14 L598.18,562.14 C597.9,562.16 597.7,562.36 597.54,562.76 C597.6,562.96 597.66,563.12 597.72,563.26 C597.8,563.64 597.86,564.06 597.94,564.5 L597.82,564.52 L597.82,564.52 C595.78,565 593.68,565.44 591.56,565.8 C591.2,565.92 590.92,566 590.68,566.06 C590.3,566.28 590.12,566.5 590.12,566.72 C590.2,567.26 590.42,567.54 590.78,567.54 C591.02,567.54 591.28,567.54 591.56,567.5 C591.78,567.48 592.16,567.42 592.68,567.3 C594.36,566.94 596.16,566.5 598.08,566 C598.12,566.56 598.14,567.1 598.14,567.62 C598.14,568.54 598.12,569.32 598.08,570.02 C598.04,570.72 597.98,571.46 597.9,572.26 C597.9,572.78 598.1,573.04 598.54,573.04 Z M626.46,556.06 C626.66,555.98 626.78,555.82 626.82,555.54 C626.82,555.26 626.76,555.02 626.66,554.84 C626.52,554.64 626.28,554.4 625.96,554.1 C625.66,553.86 625.36,553.66 625.08,553.48 C624.68,553.24 624.38,553.1 624.18,553.1 C623.74,553.12 623.5,553.32 623.44,553.7 C623.44,554.12 623.56,554.38 623.82,554.46 C624.1,554.66 624.42,554.86 624.78,555.06 C625.12,555.28 625.54,555.56 626.06,555.9 C626.2,556.02 626.3,556.06 626.36,556.06 L626.46,556.06 Z M620.44,555.64 C620.74,555.56 620.9,555.32 620.9,554.92 C620.86,554.74 620.76,554.58 620.56,554.44 C619.88,554 618.98,553.76 617.86,553.7 L617.44,553.7 C617.22,553.82 617.08,553.98 617,554.18 C617,554.56 617.1,554.88 617.34,555.12 C618.46,555.3 619.5,555.48 620.44,555.64 Z M626.66,572.16 C626.86,572.16 627.06,571.92 627.24,571.48 C627.34,571.16 627.4,570.78 627.4,570.36 C627.4,569.38 627.36,568.22 627.32,566.82 C627.2,566.32 627,566.06 626.76,566.06 C626.54,566.08 626.44,566.3 626.44,566.7 C626.34,567.62 626.28,568.52 626.24,569.4 C626.04,569 625.82,568.42 625.58,567.62 C625.38,566.86 625.18,566.08 625.02,565.26 C625.54,564.22 625.98,563.3 626.3,562.5 C626.58,561.76 626.74,561.26 626.74,561 C626.74,560.74 626.6,560.56 626.36,560.46 C626.32,560.42 626.24,560.4 626.14,560.4 C625.86,560.4 625.671875,560.491875 625.575625,560.675625 L625.54,560.76 C625.38,561.12 625.2,561.58 624.98,562.12 C624.84,562.46 624.7,562.8 624.56,563.14 C624.36,562.38 624.16,561.58 623.96,560.76 C623.86,560.42 623.76,560.06 623.64,559.66 C624.62,559.2 625.28,558.76 625.64,558.36 C625.84,558.16 625.96,557.94 625.96,557.74 C625.96,557.66 625.94,557.6 625.9,557.54 C625.8,557.38 625.66,557.3 625.48,557.3 C624.88,557.62 624.14,557.94 623.26,558.3 C623.26,558.3 623.24,558.26 623.24,558.22 C623.08,557.7 622.98,557.18 622.9,556.66 C622.74,556.28 622.52,556.08 622.24,556.08 C621.78,556.08 621.52,556.32 621.48,556.76 C621.48,557.04 621.6,557.64 621.88,558.6 C621.88,558.66 621.9,558.74 621.94,558.82 C621.62,558.94 621.3,559.06 620.94,559.18 C620.46,559.36 620,559.52 619.52,559.68 L619.54,558.72 C619.54,558.16 619.28,557.88 618.78,557.88 C618.3,557.88 618.04,558.08 618,558.46 C618.08,558.84 618.12,559.24 618.12,559.66 L618.12,560.14 C617.68,560.28 617.22,560.42 616.78,560.54 C616.46,560.64 616.18,560.72 615.98,560.8 C615.6,561 615.42,561.2 615.42,561.4 C615.46,561.9 615.68,562.16 616.06,562.16 C616.26,562.16 616.5,562.16 616.78,562.14 C616.94,562.12 617.18,562.06 617.54,561.94 C617.72,561.9 617.9,561.82 618.1,561.74 C618.08,562.3 618.08,562.84 618.08,563.36 L618.08,564.58 L617.74,564.84 L617.74,564.84 C616.42,565.76 615.52,566.54 615.02,567.16 C614.66,567.6 614.5,567.88 614.5,568.02 C614.5,568.26 614.7,568.52 615.12,568.84 L616.56,569.9 C617.62,570.72 618.4,571.14 618.9,571.14 C619.24,571.14 619.42,570.82 619.42,570.18 L619.46,565.12 L619.84,564.84 C620.88,564 621.48,563.46 621.64,563.22 C621.72,563.1 621.76,563.02 621.78,562.94 C621.78,562.78 621.72,562.64 621.64,562.52 C621.54,562.44 621.44,562.4 621.32,562.4 C621.28,562.4 621.16,562.46 621,562.54 C620.48,562.88 619.98,563.22 619.46,563.58 C619.46,562.86 619.46,562.1 619.48,561.28 C620.04,561.08 620.62,560.88 621.26,560.64 C621.64,560.52 622,560.38 622.36,560.22 C622.52,560.7 622.66,561.08 622.78,561.4 C623.14,562.64 623.44,563.76 623.68,564.8 C623.68,564.82 623.68,564.84 623.7,564.86 C623.36,565.54 623.02,566.18 622.66,566.78 C622.3,567.38 622.04,567.84 621.84,568.2 C621.66,568.44 621.54,568.66 621.46,568.84 C621.38,568.96 621.36,569.08 621.36,569.24 C621.4,569.44 621.48,569.54 621.64,569.58 C621.76,569.58 621.86,569.56 621.94,569.54 C622,569.48 622.06,569.42 622.14,569.36 C622.28,569.18 622.46,568.96 622.7,568.64 C623.06,568.22 623.46,567.72 623.88,567.16 C623.98,567.04 624.08,566.88 624.18,566.72 C624.48,567.86 624.8,568.88 625.14,569.78 C625.46,570.6 625.78,571.26 626.14,571.74 C626.34,572.02 626.5,572.16 626.66,572.16 Z M610.42,564.82 C610.48,564.82 610.58,564.8 610.72,564.72 C611.4,564.5 612.12,564.16 612.88,563.7 C613.52,563.3 614.04,562.9 614.46,562.5 C614.58,562.34 614.64,562.2 614.66,562.06 C614.66,561.96 614.64,561.88 614.62,561.82 C614.54,561.72 614.46,561.64 614.34,561.6 C614.34,561.6 614.34,561.58 614.36,561.56 C614.58,561.04 614.76,560.52 614.9,559.96 C614.96,559.62 615,559.34 615,559.1 C615,558.7 614.72,558.38 614.2,558.1 C613.76,557.88 613.22,557.76 612.56,557.74 C611.72,557.76 611.1,557.82 610.66,557.9 C610.58,557.72 610.44,557.58 610.24,557.5 C610.16,557.46 610.02,557.44 609.86,557.44 C609.68,557.44 609.54,557.52 609.42,557.68 C609.3,557.82 609.22,557.96 609.2,558.12 C609.38,559 609.62,560.08 609.9,561.4 C610.02,562.18 610.12,562.86 610.16,563.42 C609.96,563.54 609.84,563.68 609.84,563.88 C609.84,564.16 609.88,564.38 610,564.54 C610.12,564.74 610.26,564.82 610.42,564.82 Z M611.32,563 C611.28,562.44 611.2,561.6 611.06,560.46 C611,559.98 610.96,559.56 610.92,559.16 C611.54,559.14 612.1,559.12 612.62,559.12 C613.06,559.12 613.38,559.28 613.58,559.6 C613.58,559.74 613.48,560.12 613.32,560.74 C613.12,561.38 612.92,561.86 612.72,562.2 C612.64,562.26 612.58,562.34 612.54,562.44 C612.16,562.64 611.76,562.82 611.36,562.98 L611.32,563 Z M618.2,569.42 C617.08,568.82 616.32,568.34 615.92,568.02 C616.36,567.56 616.88,567.08 617.52,566.6 L618.1,566.16 C618.12,567.26 618.16,568.34 618.2,569.42 Z" id="下滑可以刷新最新赔率哦"></path>
        </g>
    </g>
</svg>