<?xml version="1.0" encoding="UTF-8"?>
<svg width="224px" height="21px" viewBox="0 0 224 21" version="1.1" xmlns="http://www.w3.org/2000/svg" xmlns:xlink="http://www.w3.org/1999/xlink">
    <!-- Generator: Sketch 61.2 (89653) - https://sketch.com -->
    <title>左右滑动可以切换盘口哦</title>
    <desc>Created with Sketch.</desc>
    <g id="页面-1" stroke="none" stroke-width="1" fill="none" fill-rule="evenodd">
        <g id="画板" transform="translate(-710.000000, -552.000000)" fill="#FFFFFF" fill-rule="nonzero">
            <path d="M711.44,567.02 C711.62,567.02 711.76,566.98 711.86,566.86 C712.16,566.68 712.5,566.3 712.9,565.74 C713.22,565.22 713.6,564.64 714.04,563.98 C714.7,562.82 715.26,561.82 715.74,560.98 C716.22,560.12 716.64,559.16 717,558.12 C717.48,558.02 717.94,557.9 718.42,557.78 C719.76,557.46 720.94,557.1 721.94,556.72 C722.14,556.62 722.32,556.48 722.46,556.3 C722.56,556.14 722.62,556 722.62,555.88 C722.62,555.76 722.48,555.62 722.24,555.46 C722.04,555.38 721.86,555.32 721.68,555.32 C721.5,555.38 721.3,555.44 721.1,555.52 C719.84,555.9 718.64,556.22 717.5,556.46 C717.74,555.5 717.86,554.62 717.86,553.84 C717.86,553.18 717.66,552.84 717.28,552.8 C717.1,552.8 716.96,552.82 716.84,552.82 C716.52,552.92 716.36,553.1 716.34,553.36 C716.32,554.28 716.2,555.26 715.96,556.34 C715.92,556.48 715.9,556.62 715.86,556.78 C714.78,556.96 713.76,557.04 712.82,557.04 C712.62,557.04 712.46,557.04 712.3,557.02 C711.94,557.22 711.72,557.46 711.64,557.7 L711.64,558.06 C711.64,558.46 711.84,558.68 712.24,558.74 L712.74,558.74 C713.3,558.74 713.86,558.68 714.42,558.6 C714.72,558.56 715.02,558.5 715.32,558.44 C715.18,558.84 715.02,559.24 714.82,559.68 C714.4,560.64 713.98,561.54 713.56,562.34 C712.98,563.34 712.42,564.22 711.9,564.96 C711.64,565.4 711.4,565.76 711.16,566.08 C711.06,566.22 711.02,566.38 711.02,566.58 C711.04,566.86 711.18,567 711.44,567.02 Z M711.66,570.92 C711.76,570.92 711.94,570.9 712.18,570.88 C713.3,570.6 714.56,570.34 716,570.12 C717.66,569.88 719.18,569.78 720.58,569.78 C722.16,569.78 723.4,569.82 724.32,569.9 C725.34,570.06 726.08,570.18 726.54,570.24 C726.96,570.16 727.18,569.9 727.18,569.5 C727.18,569.16 726.94,568.96 726.46,568.86 C725.14,568.56 723.24,568.4 720.76,568.4 C720.26,568.4 719.72,568.42 719.14,568.44 C719.14,568.44 719.16,568.4 719.18,568.36 C719.42,567.84 719.6,567.3 719.74,566.74 C719.94,565.9 720.04,565.16 720.04,564.52 C720.04,563.88 720,563.3 719.94,562.78 C720.54,562.64 721.04,562.52 721.48,562.4 C721.8,562.24 721.98,562.04 721.98,561.84 C721.98,561.72 721.92,561.54 721.8,561.34 C721.64,561.2 721.46,561.12 721.3,561.1 C721.02,561.1 720.66,561.14 720.26,561.2 C719.8,561.3 719.38,561.38 719,561.44 L718.96,561.44 L718.96,561.44 C718.86,561.46 718.76,561.48 718.68,561.52 C717.54,561.76 716.72,561.96 716.2,562.12 C715.94,562.32 715.82,562.54 715.82,562.8 C715.82,562.96 715.86,563.12 715.96,563.26 C716.08,563.44 716.2,563.54 716.34,563.56 L716.54,563.56 C716.64,563.56 717.08,563.48 717.86,563.28 C718.02,563.24 718.22,563.2 718.42,563.16 C718.5,563.6 718.56,564.16 718.56,564.84 C718.56,565.28 718.5,565.76 718.42,566.24 C718.28,566.9 718.1,567.5 717.88,568.06 C717.82,568.22 717.76,568.38 717.72,568.5 C717.6,568.5 717.46,568.52 717.3,568.54 C716.44,568.58 715.52,568.68 714.52,568.84 C713.44,568.98 712.5,569.14 711.68,569.38 C711.18,569.5 710.94,569.78 710.94,570.18 C710.96,570.34 711.04,570.5 711.18,570.66 C711.32,570.82 711.48,570.92 711.66,570.92 Z M730.28,570.78 C730.44,570.76 730.64,570.66 730.86,570.48 C731.34,570.12 731.84,569.64 732.38,569.04 C734.36,566.84 735.88,564.84 736.94,563.04 C737.6,561.96 738.14,560.92 738.54,559.9 C739.52,559.66 740.48,559.4 741.44,559.12 C743.42,558.6 745.14,558.04 746.6,557.4 C746.82,557.32 746.98,557.18 747.1,557 C747.22,556.84 747.28,556.7 747.28,556.58 C747.28,556.44 747.16,556.3 746.92,556.16 C746.72,556.06 746.52,556 746.34,556 C746.1,556.1 745.78,556.22 745.42,556.36 C743.2,557.14 741.1,557.74 739.1,558.18 C739.46,557 739.64,555.82 739.64,554.66 C739.64,554.42 739.6,554.14 739.54,553.84 C739.42,553.44 739.2,553.22 738.84,553.22 C738.3,553.22 738.04,553.48 738.04,553.96 C738.06,554.24 738.08,554.52 738.1,554.82 C738.1,555.98 737.86,557.2 737.42,558.52 C735.86,558.84 734.4,558.98 733.02,558.98 C732.82,558.98 732.64,558.98 732.48,558.96 C732.12,559.16 731.9,559.4 731.82,559.66 L731.82,560 C731.82,560.4 732.02,560.62 732.44,560.68 L733.18,560.68 C733.98,560.66 734.8,560.58 735.64,560.46 C736,560.4 736.36,560.34 736.72,560.26 C736.44,560.9 736.08,561.58 735.68,562.28 C734.66,563.94 733.4,565.7 731.9,567.56 C731.24,568.32 730.66,569.02 730.14,569.66 C729.94,569.92 729.86,570.12 729.86,570.26 C729.86,570.6 730,570.78 730.28,570.78 Z M739.06,571.54 C739.42,571.52 739.62,571.3 739.68,570.88 C739.72,570.88 739.78,570.9 739.86,570.9 C740.32,570.86 740.82,570.74 741.36,570.58 C742.84,570.02 743.92,569.5 744.56,569 C744.8,568.8 744.92,568.56 744.92,568.28 C744.88,568.16 744.84,568.02 744.78,567.86 C744.76,567.84 744.74,567.82 744.72,567.78 C744.88,567.5 745.02,567.2 745.16,566.88 C745.36,566.28 745.48,565.68 745.52,565.06 C745.52,564.74 745.46,564.46 745.36,564.18 C745.2,563.86 744.96,563.6 744.62,563.44 C744.22,563.2 743.74,563.08 743.2,563.08 C742.32,563.08 741.48,563.18 740.66,563.38 C740,563.56 739.42,563.76 738.92,563.98 C738.9,563.94 738.88,563.88 738.86,563.8 C738.76,563.58 738.62,563.42 738.42,563.32 C738.3,563.3 738.16,563.28 737.98,563.28 C737.78,563.28 737.62,563.38 737.5,563.54 C737.38,563.7 737.3,563.86 737.28,564 C737.5,565.1 737.78,566.48 738.12,568.12 C738.32,569.24 738.42,570.2 738.46,571 C738.48,571.36 738.68,571.54 739.06,571.54 Z M739.62,569.26 C739.54,568.66 739.46,567.9 739.34,566.98 C739.28,566.46 739.22,565.96 739.18,565.52 C740.74,564.88 742.14,564.54 743.4,564.54 C743.9,564.54 744.16,564.66 744.16,564.9 C744.16,565.14 744.1,565.48 744,565.96 C743.82,566.64 743.5,567.32 743.06,568.04 C742.42,568.42 741.7,568.72 740.92,568.96 C740.46,569.1 740.02,569.2 739.62,569.26 Z M765.64,572.6 C766.06,572.6 766.28,572.38 766.28,571.96 C766.08,570.08 765.92,568.04 765.76,565.78 C765.64,564.64 765.52,563.66 765.38,562.82 C765.34,562.62 765.3,562.44 765.24,562.24 C765.3,562.24 765.38,562.24 765.48,562.22 C765.74,562.14 765.96,562 766.14,561.82 C766.88,561.26 767.52,560.48 768.08,559.46 C768.24,559.14 768.32,558.86 768.32,558.6 C768.28,558.22 768.06,558.02 767.66,558.02 C767.6,558.02 767.44,558.06 767.16,558.1 C766.24,558.3 765.4,558.46 764.64,558.6 C764.24,558.7 763.86,558.8 763.46,558.88 C763.48,558.54 763.5,558 763.5,557.28 L763.48,556.82 L763.48,556.82 C764.08,556.68 764.56,556.56 764.9,556.48 C765,556.44 765.08,556.36 765.16,556.28 C765.06,556.7 764.94,557.1 764.8,557.5 C764.68,557.6 764.64,557.7 764.64,557.82 C764.64,558.14 764.8,558.3 765.08,558.3 C765.24,558.3 765.42,558.24 765.58,558.12 C765.96,557.6 766.32,556.9 766.64,556.02 C766.8,555.46 766.9,555.02 766.9,554.66 C766.9,554.34 766.84,554.06 766.76,553.82 C766.6,553.52 766.36,553.26 766.02,553.06 C765.66,552.86 765.18,552.76 764.58,552.76 C763.68,552.76 762.82,552.88 761.98,553.1 C761.26,553.34 760.7,553.56 760.3,553.8 C760.2,553.64 760.06,553.52 759.9,553.44 C759.78,553.4 759.64,553.38 759.46,553.38 C759.26,553.38 759.12,553.48 759,553.64 C758.88,553.8 758.8,553.96 758.76,554.1 C759,554.94 759.28,556 759.64,557.28 C759.82,558.16 759.94,558.88 759.98,559.46 C759.98,559.56 760,559.64 760.04,559.72 C760,559.72 759.98,559.74 759.94,559.74 C759.34,559.92 758.88,560.08 758.56,560.2 C758.5,559.96 758.42,559.74 758.34,559.54 C758.26,559.38 758.12,559.28 757.94,559.28 C757.54,559.28 757.28,559.36 757.16,559.48 C757.06,559.56 757,559.66 757,559.8 C757.18,560.6 757.28,561.2 757.28,561.64 C757.28,562.26 757.14,562.86 756.86,563.44 C756.72,563.68 756.66,563.86 756.66,563.98 C756.66,564.2 756.74,564.4 756.92,564.58 C757.02,564.7 757.12,564.76 757.22,564.76 C757.42,564.76 757.58,564.66 757.74,564.42 C758,564.04 758.2,563.58 758.36,563.04 C758.54,562.5 758.64,561.94 758.68,561.36 L758.74,561.36 C758.82,561.34 758.96,561.3 759.12,561.26 C760.24,560.94 761.28,560.66 762.26,560.38 C763.74,560.02 764.56,559.82 764.72,559.78 C765.52,559.6 766.16,559.48 766.68,559.4 C766.54,559.72 766.1,560.2 765.36,560.88 C765.16,561.08 764.96,561.26 764.76,561.44 C764.6,561.32 764.42,561.26 764.22,561.26 C764.14,561.26 763.94,561.28 763.66,561.32 C763.1,561.44 762.56,561.58 762.06,561.76 C761.98,561.56 761.84,561.46 761.62,561.44 L761.14,561.44 C760.78,561.56 760.62,561.8 760.62,562.16 L760.62,563 C760.58,563.98 760.4,565.46 760.08,567.42 C759.64,569.62 759.44,570.92 759.44,571.28 C759.44,571.56 759.44,571.78 759.46,571.9 C759.54,572.2 759.72,572.36 760,572.4 C760.24,572.4 760.44,572.28 760.62,572.06 C760.7,571.9 760.76,571.62 760.78,571.18 C760.8,570.86 760.84,570.48 760.92,570.04 L760.94,570.04 C761,570.04 761.08,570 761.2,569.96 C761.82,569.68 762.48,569.3 763.2,568.78 C763.72,568.42 764.18,568.02 764.54,567.62 C764.54,567.8 764.56,567.98 764.56,568.16 C764.6,569.12 764.64,569.9 764.68,570.5 C764.3,570.36 763.94,570.28 763.58,570.28 C763.38,570.28 763.24,570.3 763.12,570.36 C763.12,570.6 763.14,570.82 763.18,571.04 C763.54,571.76 764.08,572.22 764.82,572.44 C765.1,572.54 765.38,572.6 765.64,572.6 Z M761.2,559.42 C761.2,559.34 761.22,559.26 761.22,559.16 C761.22,558.66 761.08,557.72 760.84,556.32 C760.76,555.9 760.7,555.52 760.64,555.16 C762.12,554.44 763.46,554.08 764.66,554.08 C765.14,554.08 765.4,554.38 765.4,554.98 C765.4,555.14 765.34,555.42 765.26,555.82 C765.24,555.78 765.2,555.72 765.16,555.6 C765.02,555.48 764.88,555.4 764.74,555.38 C764.6,555.38 764.42,555.4 764.22,555.44 C763.26,555.62 762.62,555.76 762.3,555.88 C762.06,556.04 761.96,556.24 761.96,556.44 C761.96,556.56 761.98,556.66 762.06,556.78 C762.14,556.9 762.22,556.96 762.34,557 C762.36,557.04 762.38,557.1 762.4,557.16 C762.44,557.38 762.46,557.58 762.48,557.74 C762.48,558.26 762.52,558.7 762.56,559.1 C762.4,559.14 762.26,559.18 762.1,559.2 C761.8,559.28 761.5,559.34 761.2,559.42 Z M754.72,558.32 C755.56,558.32 756.02,558.12 756.1,557.68 C756.1,557.5 755.94,557.38 755.62,557.3 L751.66,556.24 C751.3,556.3 751.1,556.5 751.08,556.84 C751.08,557.24 751.2,557.48 751.44,557.56 C752.84,558.08 753.92,558.32 754.72,558.32 Z M750.76,563.1 C750.88,563.1 751.06,563.08 751.34,563 C751.98,562.84 752.72,562.58 753.54,562.18 C754.14,561.94 754.66,561.66 755.06,561.32 C755.28,561.06 755.4,560.88 755.4,560.76 C755.4,560.66 755.38,560.56 755.34,560.48 C755.26,560.36 755.14,560.3 754.96,560.3 C754.86,560.3 754.76,560.32 754.64,560.34 C754.48,560.38 754.22,560.44 753.9,560.56 C753.06,560.88 752.36,561.12 751.76,561.28 C751.52,561.36 751.16,561.48 750.68,561.6 C750.32,561.74 750.12,561.94 750.12,562.18 C750.12,562.48 750.16,562.7 750.28,562.84 C750.4,563.02 750.56,563.1 750.76,563.1 Z M761.62,565.7 C761.66,565.36 761.72,565 761.8,564.64 L762.02,563.42 C762.98,563.02 763.52,562.8 763.66,562.8 C763.9,562.8 764.1,563.38 764.26,564.5 C764.1,564.54 763.62,564.7 762.86,565 C762.36,565.26 761.94,565.5 761.62,565.7 Z M750.54,569.58 C750.7,569.58 750.88,569.56 751.08,569.52 C751.54,569.36 752.1,569.02 752.78,568.54 C753.82,567.74 754.72,566.76 755.5,565.64 C755.7,565.28 755.8,565 755.8,564.78 C755.76,564.52 755.64,564.38 755.4,564.36 C755.24,564.4 755.02,564.54 754.76,564.82 C753.68,565.84 752.76,566.62 752,567.14 C751.68,567.36 751.26,567.6 750.78,567.84 C750.34,568.08 750.08,568.28 749.98,568.46 C749.9,568.58 749.86,568.72 749.86,568.92 C749.94,569.36 750.18,569.58 750.54,569.58 Z M761.12,568.68 C761.2,568.1 761.3,567.52 761.4,566.94 C761.4,566.96 761.44,566.96 761.48,566.96 C762.64,566.34 763.6,565.82 764.36,565.38 C764.4,565.9 764.44,566.36 764.48,566.8 C764.44,566.8 764.4,566.82 764.36,566.84 C764.26,566.9 764.06,567.06 763.76,567.3 C763.18,567.66 762.54,568.02 761.86,568.38 C761.66,568.46 761.4,568.56 761.12,568.68 Z M779.16,572.34 C779.36,572.32 779.56,572.22 779.78,572.06 C780.06,571.7 780.42,571.16 780.82,570.44 C781.92,568.32 782.82,566.24 783.5,564.16 C784.06,562.32 784.48,560.48 784.76,558.66 C785.18,558.62 785.64,558.56 786.16,558.5 C786.64,558.5 787,558.56 787.24,558.66 C787.52,558.88 787.68,559.28 787.68,559.84 C787.62,560.64 787.46,561.74 787.22,563.16 C787.06,563.88 786.88,564.62 786.7,565.38 C786.56,566 786.36,566.72 786.12,567.54 C785.96,568.06 785.82,568.52 785.66,568.9 C785.46,569.4 785.3,569.66 785.2,569.66 C785.1,569.66 784.98,569.6 784.82,569.48 C784.66,569.34 784.54,569.18 784.42,569.02 C784.3,568.84 784.2,568.68 784.14,568.54 C784.02,568.28 783.88,568.14 783.7,568.12 L783.4,568.24 L783.4,568.24 C783.22,568.36 783.14,568.58 783.14,568.86 C783.14,569 783.16,569.14 783.2,569.3 C783.4,569.94 783.78,570.46 784.34,570.84 C784.62,571.02 784.9,571.12 785.18,571.12 C785.5,571.12 785.78,570.98 786,570.74 C786.3,570.4 786.64,569.72 787,568.72 C787.26,568 787.54,567.06 787.86,565.94 C788.12,564.86 788.34,564 788.5,563.36 C788.86,561.68 789.06,560.46 789.06,559.7 C789.06,558.86 788.88,558.2 788.52,557.68 C788.06,557.24 787.5,557.02 786.84,557.02 C786.5,557.02 786.14,557.04 785.78,557.06 C785.48,557.1 785.2,557.14 784.96,557.16 C785.04,556.3 785.1,555.42 785.14,554.54 L785.14,553.9 C785.1,553.48 784.86,553.26 784.38,553.26 C783.82,553.26 783.54,553.52 783.54,554.04 L783.54,554.64 C783.5,555.58 783.42,556.5 783.34,557.38 C783.3,557.4 783.28,557.4 783.24,557.4 C782,557.6 781.28,557.8 781.08,557.96 C780.72,558.08 780.56,558.34 780.56,558.7 C780.62,559.16 780.86,559.38 781.28,559.38 C781.66,559.38 782.06,559.32 782.5,559.18 C782.7,559.14 782.9,559.08 783.14,559 C782.94,560.3 782.68,561.56 782.36,562.76 C781.66,565.1 780.92,567.12 780.16,568.82 C779.76,569.66 779.42,570.46 779.14,571.24 C778.94,571.54 778.86,571.78 778.86,571.94 C778.86,572.2 778.96,572.34 779.16,572.34 Z M774.8,556.14 C775.2,556.06 775.54,556.02 775.82,556 C776.02,556 776.24,555.98 776.48,555.96 C777.08,555.92 777.52,555.86 777.76,555.78 C777.96,555.7 778.06,555.56 778.06,555.34 C778.06,554.94 777.88,554.68 777.52,554.58 C777.22,554.58 776.84,554.56 776.4,554.56 C776,554.56 775.48,554.6 774.86,554.68 C774.58,554.72 774.34,554.78 774.12,554.84 C773.86,554.96 773.74,555.12 773.74,555.36 C773.74,555.7 773.82,555.92 773.98,556.02 C774.06,556.14 774.16,556.18 774.26,556.18 C774.4,556.18 774.58,556.18 774.8,556.14 Z M772.94,568.22 C773.34,568.22 773.86,568.02 774.5,567.66 C775.1,567.3 775.66,566.92 776.16,566.5 C776.7,566.04 777.18,565.56 777.62,565.04 C777.66,564.98 777.72,564.92 777.78,564.84 C778.18,565.74 778.6,566.62 779.08,567.46 C779.24,567.72 779.42,567.84 779.66,567.84 C780.02,567.82 780.2,567.62 780.2,567.24 C780.2,567.12 780.12,566.88 779.96,566.54 C779.32,564.66 778.74,563.38 778.26,562.66 C778.12,562.5 777.96,562.42 777.76,562.42 C777.36,562.48 777.18,562.74 777.18,563.22 C777.18,563.3 777.2,563.4 777.24,563.52 C776.72,564.22 776.16,564.84 775.54,565.4 C775.04,565.8 774.6,566.14 774.2,566.4 C773.88,566.58 773.66,566.66 773.54,566.66 C773.68,566.34 773.86,565.92 774.1,565.42 C774.48,564.58 774.86,563.7 775.26,562.78 C775.7,561.78 775.92,561.2 775.94,561 L775.94,560.78 C775.92,560.62 775.86,560.46 775.78,560.32 C775.98,560.24 776.2,560.16 776.42,560.04 C777.46,559.64 778.36,559.18 779.16,558.66 C779.4,558.58 779.58,558.44 779.72,558.28 C779.82,558.08 779.88,557.92 779.88,557.8 C779.88,557.68 779.76,557.54 779.54,557.38 C779.3,557.3 779.08,557.24 778.92,557.24 C778.8,557.32 778.66,557.4 778.46,557.52 C777.22,558.18 776.06,558.68 775.02,559 C774.02,559.34 773.08,559.5 772.24,559.5 C772.04,559.5 771.88,559.5 771.72,559.48 C771.32,559.68 771.08,559.94 771.02,560.24 L771.02,560.56 C771.02,561 771.22,561.24 771.64,561.3 L772.04,561.3 C772.46,561.28 772.9,561.22 773.36,561.12 C773.68,561.04 774.04,560.94 774.4,560.82 C774.26,561.18 774.12,561.58 773.96,562.02 C773.68,562.7 773.38,563.42 773.04,564.16 C772.72,564.94 772.4,565.6 772.08,566.14 C771.84,566.58 771.74,566.94 771.74,567.24 C771.74,567.82 772.04,568.14 772.68,568.22 L772.94,568.22 Z M795.62,556.56 C796.22,556.54 796.84,556.48 797.48,556.4 C799,556.12 800.46,555.78 801.86,555.38 C803.34,554.98 804.64,554.54 805.76,554.06 C806,553.96 806.22,553.8 806.38,553.6 C806.5,553.4 806.56,553.24 806.56,553.1 C806.56,552.96 806.42,552.8 806.14,552.62 C805.9,552.5 805.66,552.44 805.46,552.44 C805.28,552.52 805.06,552.62 804.78,552.74 C802.98,553.46 801.28,553.98 799.7,554.34 C798.24,554.72 796.88,554.9 795.62,554.9 C795.44,554.9 795.28,554.9 795.12,554.88 C794.76,555.06 794.54,555.28 794.46,555.54 L794.46,555.88 C794.46,556.28 794.66,556.52 795.06,556.56 L795.62,556.56 Z M805.38,572.9 C805.78,572.88 805.98,572.6 806.02,572.06 C806.02,570.82 805.94,569 805.82,566.6 C805.74,565.32 805.7,564.24 805.7,563.34 C805.671429,562.754286 805.663265,562.107347 805.660933,561.406472 L805.66,560.54 C805.66,559.7 805.66,558.8 805.68,557.84 L805.68,556.5 C805.68,555.86 805.46,555.48 805.06,555.36 L804.72,555.36 C804.44,555.48 804.24,555.68 804.14,555.98 C804.22,556.4 804.28,556.74 804.28,556.98 L804.28,558.12 C804.2,559.08 804.18,559.96 804.18,560.76 C804.18,562.72 804.22,564.6 804.34,566.4 C804.42,568.1 804.48,569.46 804.48,570.54 C804.48,570.86 804.46,571.08 804.42,571.18 C803.44,570.52 802.72,570.18 802.24,570.18 C801.8,570.18 801.6,570.24 801.6,570.36 C801.7,570.48 801.82,570.64 801.96,570.8 C802.7,571.6 803.52,572.22 804.42,572.62 C804.74,572.8 805.06,572.9 805.38,572.9 Z M796.4,565.96 C796.58,565.96 796.72,565.9 796.84,565.78 C796.88,565.74 796.94,565.66 796.98,565.58 C796.98,565.58 797,565.58 797.02,565.54 C797.86,565.18 798.76,564.64 799.68,563.92 C800.48,563.32 801.12,562.7 801.64,562.06 C801.74,561.92 801.8,561.78 801.82,561.62 C801.82,561.54 801.8,561.46 801.78,561.4 C801.7,561.32 801.6,561.26 801.46,561.22 C801.38,561.22 801.3,561.24 801.24,561.28 C801.24,561.28 801.22,561.3 801.2,561.3 C801.28,561.02 801.36,560.74 801.4,560.46 C801.4,559.52 801,558.88 800.24,558.52 C799.68,558.32 799.06,558.22 798.38,558.22 C797.64,558.22 796.98,558.32 796.42,558.48 C796.16,558.6 796,558.76 795.92,558.96 C795.92,558.96 795.9,558.94 795.9,558.92 C795.76,558.88 795.62,558.84 795.5,558.84 C795.26,558.84 795.06,558.9 794.9,559 C794.68,559.2 794.58,559.4 794.58,559.64 C794.58,559.82 794.62,559.96 794.74,560.04 C795.24,560.64 795.52,561.26 795.58,561.9 C795.64,563.86 795.76,565.1 795.96,565.62 C796.04,565.86 796.18,565.96 796.4,565.96 Z M797.04,563.76 L797.04,563.48 C797.04,562 796.92,560.92 796.68,560.24 C796.64,560.16 796.6,560.08 796.54,559.98 L796.62,559.98 L796.62,559.98 C797.3,559.78 797.96,559.66 798.6,559.64 C799.36,559.64 799.84,559.86 800.06,560.26 C800.06,560.36 800.02,560.54 799.96,560.78 C799.82,561.22 799.52,561.86 799.04,562.66 C799,562.72 798.96,562.78 798.92,562.82 C798.6,563.02 798.26,563.2 797.9,563.36 C797.66,563.48 797.36,563.62 797.04,563.76 Z M818.62,571.7 C818.82,571.7 819.04,571.64 819.24,571.56 C819.6,571.28 819.96,570.98 820.32,570.66 C821.2,569.76 822.02,568.72 822.74,567.5 C823.16,566.8 823.54,566.08 823.9,565.36 C823.94,565.48 824.02,565.6 824.12,565.72 C825.08,567.28 826.26,568.7 827.66,569.98 C828.22,570.54 828.78,571.02 829.3,571.4 C829.6,571.54 829.84,571.62 830,571.62 L830.14,571.62 C830.38,571.52 830.52,571.34 830.52,571.08 C830.52,570.74 830.34,570.46 830.02,570.22 C829.46,569.62 828.88,569 828.26,568.36 C827.16,567.16 826.24,565.96 825.48,564.8 C825.26,564.52 825.06,564.24 824.9,563.98 C824.82,563.92 824.7,563.88 824.58,563.84 C824.68,563.62 824.78,563.38 824.88,563.14 C825.82,560.78 826.52,558.44 827,556.14 C827.14,555.34 827.22,554.8 827.22,554.52 C827.18,554.18 826.98,553.96 826.6,553.88 C826.2,553.88 825.98,554.04 825.9,554.32 C825.76,554.96 825.62,555.6 825.48,556.28 C824.48,560.76 822.96,564.6 820.96,567.82 C820.3,568.82 819.5,569.78 818.56,570.72 C818.32,570.9 818.2,571.06 818.2,571.2 C818.22,571.52 818.36,571.68 818.62,571.7 Z M814.56,569.2 C815.12,569.16 815.7,568.9 816.3,568.38 C817.92,566.98 819.04,565.48 819.66,563.88 L819.72,563.98 L819.72,563.98 C820.1,564.62 820.42,565.12 820.68,565.46 C820.88,565.7 821.06,565.8 821.24,565.8 C821.62,565.8 821.82,565.58 821.82,565.14 C821.78,564.74 821.62,564.26 821.36,563.74 C820.24,561.62 819.4,560.32 818.84,559.82 C818.74,559.76 818.62,559.72 818.48,559.68 C818.4,559.68 818.32,559.66 818.24,559.66 C818.08,559.7 817.92,559.76 817.8,559.86 C817.64,560.02 817.54,560.2 817.52,560.38 L817.52,560.58 C817.52,560.72 817.56,560.84 817.64,560.94 C818,561.42 818.38,561.92 818.74,562.44 C818.66,562.52 818.58,562.64 818.5,562.84 C818.3,563.48 818.06,564 817.8,564.42 C816.94,565.86 816.04,566.92 815.12,567.6 C815.2,565.82 815.26,564.28 815.26,563 C815.26,559.98 814.98,557.98 814.44,557 C814.24,556.82 814.04,556.72 813.8,556.72 C813.4,556.74 813.14,556.94 813.06,557.3 L813.06,557.58 C813.08,558.02 813.16,558.48 813.32,558.92 C813.62,559.86 813.78,560.98 813.78,562.3 C813.7,563.86 813.66,565.42 813.66,566.94 L813.660466,567.373469 C813.661633,567.710204 813.665714,567.985714 813.68,568.2 C813.78,568.8 814.08,569.12 814.56,569.2 Z M835.58,568.74 C836.56,568.58 837.52,568.04 838.44,567.12 C839.24,566.36 839.94,565.42 840.54,564.34 C840.68,564.14 840.76,563.92 840.76,563.72 C840.72,563.38 840.58,563.2 840.34,563.2 C840.24,563.2 840.08,563.3 839.86,563.5 C839.3,564.22 838.72,564.9 838.08,565.52 C837.06,566.6 836.38,567.16 836.04,567.22 C836.6,564.44 836.96,561.8 837.12,559.3 C837.36,559.2 837.6,559.08 837.86,558.92 C839.7,557.9 840.84,557.02 841.28,556.26 C841.44,556.06 841.54,555.88 841.54,555.7 C841.54,555.62 841.52,555.56 841.5,555.5 C841.42,555.36 841.3,555.28 841.1,555.28 C840.28,555.92 839.12,556.62 837.62,557.4 C837.46,557.5 837.32,557.58 837.18,557.64 L837.18,557.26 C837.18,556.56 837.18,555.88 837.2,555.2 C837.08,554.7 836.78,554.44 836.28,554.44 C835.84,554.54 835.58,554.72 835.5,555 C835.66,555.72 835.74,556.42 835.74,557.1 C835.74,557.54 835.72,557.96 835.72,558.38 C835.28,558.58 834.86,558.76 834.42,558.94 C834.06,559.06 833.76,559.14 833.54,559.22 C833.14,559.42 832.94,559.62 832.94,559.86 C833.02,560.4 833.24,560.68 833.62,560.68 C833.84,560.68 834.1,560.66 834.42,560.62 C834.54,560.58 834.72,560.5 834.98,560.38 C835.18,560.3 835.4,560.18 835.62,560.06 C835.48,562.32 835.18,564.32 834.72,566.04 C834.62,566.48 834.56,566.9 834.52,567.3 L834.52,567.82 C834.68,568.44 835.02,568.74 835.58,568.74 Z M846.32,570.92 C846.96,570.92 847.46,570.58 847.84,569.9 C848.18,569.26 848.52,568.24 848.88,566.78 C849.16,565.54 849.46,563.84 849.82,561.68 C850.18,559.34 850.36,557.52 850.36,556.2 C850.36,555.34 849.94,554.9 849.14,554.9 C848.8,554.9 847.76,555.14 846.04,555.6 C844.68,555.98 843.82,556.18 843.46,556.2 C843.26,556.2 843.16,556.16 843.16,556.04 C842.52,556.24 842.2,556.52 842.18,556.88 C842.18,557.08 842.22,557.24 842.32,557.36 C842.44,557.58 842.64,557.7 842.92,557.7 C843.2,557.7 843.6,557.66 844.14,557.54 C844.06,557.9 844,558.28 843.92,558.66 C843.28,562.14 842.3,565.12 840.98,567.62 C840.54,568.42 840,569.16 839.4,569.86 C839.14,570.06 839.02,570.22 839.02,570.36 C839.04,570.68 839.18,570.84 839.46,570.86 C839.66,570.86 839.86,570.8 840.08,570.72 C840.32,570.5 840.58,570.26 840.82,570.02 C841.42,569.3 841.96,568.48 842.46,567.52 C843.04,566.42 843.52,565.28 843.92,564.1 C844.56,562.26 845.06,560.42 845.38,558.62 C845.48,557.98 845.54,557.54 845.54,557.34 C845.54,557.3 845.52,557.26 845.5,557.22 C847.22,556.62 848.22,556.3 848.52,556.3 C848.8,556.3 848.96,556.48 848.96,556.8 C848.9,557.8 848.8,558.8 848.68,559.76 C848.3,562.76 847.88,565.2 847.4,567.08 C846.9,568.7 846.52,569.5 846.28,569.5 C846.18,569.5 846,569.26 845.76,568.82 C845.66,568.66 845.58,568.5 845.5,568.36 C845.4,568.24 845.24,568.16 845.02,568.16 C844.7,568.24 844.52,568.46 844.5,568.78 C844.5,569.18 844.74,569.68 845.2,570.28 C845.52,570.7 845.88,570.92 846.32,570.92 Z M860.26,572.86 C860.44,572.86 860.62,572.78 860.78,572.64 C861.4,572.2 861.98,571.7 862.5,571.12 C863.34,570.26 864.04,569.22 864.62,568.02 C864.94,567.3 865.2,566.54 865.42,565.72 C865.42,565.74 865.42,565.76 865.44,565.76 C866.52,567.6 867.84,569.24 869.44,570.76 C870.08,571.4 870.68,571.96 871.28,572.42 C871.52,572.54 871.7,572.6 871.84,572.6 L871.94,572.6 C872.14,572.52 872.24,572.38 872.24,572.16 C872.24,571.92 872.1,571.7 871.84,571.52 C871.2,570.8 870.54,570.06 869.82,569.28 C868.62,567.84 867.58,566.42 866.7,565 C866.58,564.88 866.48,564.74 866.4,564.58 C868.62,563.78 870.28,563 871.38,562.24 C871.54,562.14 871.62,561.98 871.62,561.74 C871.58,561.66 871.56,561.58 871.52,561.48 C871.42,561.34 871.28,561.26 871.1,561.26 L870.88,561.26 C870.2,561.66 869.48,562 868.72,562.3 C869,561.94 869.26,561.52 869.52,561.04 C869.8,560.4 869.96,559.78 869.96,559.18 C869.96,558.9 869.84,558.64 869.62,558.42 C869.42,558.26 869.2,558.16 868.92,558.12 L868.54,558.12 C868.04,558.12 867.44,558.18 866.76,558.28 C866.36,558.36 865.92,558.42 865.48,558.5 C866.26,557.68 866.86,556.9 867.28,556.18 C867.52,555.74 867.66,555.4 867.66,555.2 C867.66,554.68 867.48,554.42 867.12,554.38 C866.68,554.38 866,554.5 865.1,554.72 L864.64,554.84 L864.64,554.84 C865.1,554.26 865.34,553.74 865.34,553.28 C865.34,552.9 865.14,552.7 864.74,552.68 C864.46,552.68 864.26,552.78 864.12,552.98 C863.96,553.6 863.66,554.16 863.22,554.64 C863.04,554.78 862.88,554.92 862.76,555.04 C862.56,555.28 862.46,555.46 862.46,555.62 C862.5,556.16 862.72,556.42 863.14,556.42 C863.7,556.42 864.7,556.18 866.1,555.74 C865.18,557.18 864.38,558.26 863.7,558.96 C862.86,559.2 862.16,559.48 861.64,559.76 L861.6,559.78 C861.56,559.74 861.54,559.68 861.52,559.64 C861.44,559.46 861.3,559.32 861.1,559.24 C861,559.22 860.88,559.2 860.74,559.2 C860.58,559.2 860.44,559.28 860.32,559.44 C860.2,559.56 860.14,559.68 860.12,559.82 C860.4,560.42 860.78,561.2 861.22,562.12 C861.46,562.74 861.6,563.26 861.64,563.7 C861.66,564.02 861.84,564.16 862.16,564.16 C862.54,564.16 862.74,563.9 862.74,563.42 C862.74,563.06 862.56,562.38 862.22,561.38 C862.18,561.24 862.14,561.1 862.1,560.98 C862.14,560.96 862.18,560.94 862.26,560.9 C862.92,560.66 863.58,560.42 864.26,560.18 C864.4,561 864.48,561.74 864.48,562.4 C864.48,562.86 864.46,563.32 864.42,563.76 C864.18,563.84 863.92,563.9 863.66,563.96 C862.26,564.28 861,564.5 859.86,564.62 C859.58,564.68 859.44,564.88 859.44,565.2 C859.44,565.42 859.52,565.6 859.68,565.76 C859.86,565.94 860.06,566.02 860.3,566.02 C861.4,565.94 862.58,565.74 863.82,565.42 C863.92,565.4 864.04,565.36 864.16,565.32 C863.98,566.12 863.72,566.88 863.36,567.6 C862.86,568.64 862.32,569.5 861.74,570.2 C861.26,570.82 860.7,571.4 860.1,571.94 C859.94,572.1 859.86,572.24 859.86,572.34 C859.86,572.64 859.98,572.82 860.26,572.86 Z M857.4,570.54 C857.96,570.54 858.24,570.26 858.24,569.74 C858.16,569.06 858.1,568.34 858.04,567.54 C857.96,566.68 857.92,565.72 857.88,564.64 C858.56,564.14 858.94,563.8 859.04,563.6 C859.12,563.52 859.16,563.44 859.18,563.34 C859.18,563.18 859.12,563.06 859.04,563 C858.96,562.92 858.88,562.88 858.76,562.88 C858.68,562.88 858.58,562.92 858.46,562.96 C858.26,563.04 858.06,563.16 857.84,563.28 C857.84,562.84 857.82,562.36 857.82,561.84 C857.78,560.68 857.78,559.42 857.78,558.06 C858.26,557.92 858.7,557.76 859.1,557.58 C859.3,557.5 859.44,557.38 859.56,557.22 C859.64,557.08 859.7,556.94 859.7,556.82 C859.7,556.72 859.6,556.6 859.4,556.46 C859.2,556.38 859.04,556.32 858.88,556.32 L858.64,556.42 L858.64,556.42 C858.36,556.5 858.08,556.58 857.8,556.66 C857.82,556.22 857.86,555.74 857.92,555.26 C857.92,554.86 857.66,554.66 857.18,554.66 C856.74,554.66 856.5,554.9 856.44,555.36 C856.4,555.88 856.38,556.4 856.38,556.94 C856,557.02 855.64,557.04 855.28,557.04 C855.12,557.04 854.96,557.04 854.8,557.02 C854.46,557.22 854.26,557.42 854.18,557.66 L854.18,558.02 C854.18,558.4 854.36,558.62 854.74,558.66 L854.98,558.66 C855.22,558.66 855.46,558.62 855.74,558.58 C855.94,558.54 856.14,558.5 856.38,558.44 C856.38,559.52 856.4,560.64 856.42,561.82 C856.42,562.62 856.44,563.4 856.48,564.14 C856.32,564.26 856.18,564.36 856.04,564.46 C855,565.14 854.32,565.72 853.96,566.18 C853.68,566.44 853.54,566.62 853.54,566.72 C853.54,567.02 853.72,567.32 854.1,567.62 C854.5,567.98 854.94,568.38 855.38,568.82 C856.38,569.94 857.04,570.5 857.4,570.54 Z M865.82,563.36 C865.86,562.94 865.88,562.48 865.88,562 C865.88,561.38 865.84,560.72 865.76,560 C865.74,559.92 865.72,559.82 865.68,559.74 C866.88,559.46 867.76,559.3 868.32,559.3 C868.52,559.3 868.62,559.36 868.62,559.46 C868.62,559.64 868.38,560.18 867.92,561.1 C867.52,561.8 867.12,562.4 866.76,562.92 C866.72,562.96 866.68,563.02 866.64,563.1 C866.38,563.2 866.1,563.28 865.82,563.36 Z M856.74,568.6 C856.1,568.18 855.56,567.62 855.1,566.92 C855.38,566.6 855.72,566.28 856.16,565.94 L856.56,565.64 C856.56,565.98 856.58,566.3 856.62,566.6 C856.64,567.28 856.68,567.96 856.74,568.6 Z M878.82,565.32 C879.06,565.32 879.26,565.2 879.42,564.96 C879.5,564.84 879.56,564.54 879.6,564.1 C879.62,563.54 879.68,562.82 879.8,561.9 C879.8,561.7 879.82,561.46 879.86,561.2 C880.94,561.02 882.1,560.8 883.32,560.56 C884.44,560.34 885.46,560.12 886.34,559.92 L886.34,561.7 C886.34,562.36 886.36,562.92 886.36,563.38 C886.06,563.34 885.8,563.28 885.56,563.22 C885.24,563.12 885.02,563.06 884.92,563.04 C884.72,563.04 884.62,563.12 884.62,563.24 C884.62,563.5 884.68,563.72 884.82,563.9 C885.3,564.34 885.92,564.54 886.68,564.54 C887.24,564.46 887.52,564.16 887.56,563.6 L887.56,561.3 C887.56,560.64 887.58,560.08 887.58,559.6 C888.68,559.32 889.44,559.04 889.88,558.78 C890.08,558.6 890.18,558.42 890.18,558.22 C890.18,558.14 890.16,558.08 890.14,558.04 C890.06,557.9 889.92,557.82 889.72,557.82 C889.1,557.98 888.38,558.16 887.58,558.32 L887.58,556.56 C887.58,555.2 887.18,554.52 886.38,554.52 L886.14,554.52 C885.9,554.52 885.52,554.6 885,554.74 C883.8,555.1 882.76,555.32 881.92,555.44 C881.3,555.56 880.82,555.66 880.46,555.72 L880.48,555.6 C880.52,555.18 880.54,554.8 880.56,554.46 C880.6,554.46 880.64,554.46 880.7,554.44 C883.06,554.04 884.72,553.66 885.72,553.26 C885.92,553.12 886.02,552.92 886.02,552.68 C885.98,552.58 885.96,552.48 885.92,552.38 C885.78,552.2 885.6,552.1 885.4,552.1 C885.32,552.1 885.26,552.12 885.18,552.12 C883.82,552.52 882.22,552.82 880.4,553.04 C879.48,553.16 878.64,553.22 877.88,553.26 C877.6,553.32 877.46,553.52 877.46,553.86 C877.46,554.06 877.56,554.26 877.72,554.42 C877.88,554.6 878.1,554.68 878.34,554.68 C878.58,554.68 878.84,554.66 879.12,554.64 L879.12,555.28 C879.1,556.32 878.98,557.88 878.74,559.94 C878.06,560.04 877.38,560.14 876.66,560.24 C876.32,560.32 876.06,560.38 875.86,560.46 C875.52,560.64 875.36,560.84 875.36,561.06 C875.4,561.52 875.6,561.76 875.94,561.76 C876.14,561.76 876.38,561.76 876.66,561.72 C876.88,561.7 877.26,561.66 877.78,561.58 C878.02,561.54 878.28,561.5 878.56,561.44 C878.36,562.98 878.26,563.9 878.26,564.18 C878.26,564.5 878.26,564.7 878.3,564.82 C878.36,565.12 878.54,565.28 878.82,565.32 Z M880.02,559.72 C880.1,558.78 880.2,557.9 880.3,557.06 L880.3,557.04 C881.14,556.84 881.94,556.68 882.72,556.54 C883.28,556.42 883.82,556.26 884.38,556.08 C885.22,555.84 885.72,555.7 885.86,555.7 C886.1,555.7 886.26,555.9 886.32,556.26 L886.32,558.58 C885.64,558.72 884.92,558.86 884.12,559 C884.16,558.94 884.18,558.82 884.18,558.66 C884.14,558.56 884.06,558.44 883.94,558.3 C883.38,557.74 882.94,557.38 882.66,557.26 C882.58,557.2 882.48,557.16 882.36,557.12 C882.28,557.12 882.22,557.1 882.14,557.1 C882,557.14 881.9,557.2 881.82,557.28 C881.66,557.42 881.58,557.56 881.56,557.7 L881.56,557.88 C881.56,558 881.58,558.12 881.66,558.2 C882.02,558.36 882.38,558.54 882.7,558.7 C882.88,558.82 883.04,558.92 883.18,558.96 C883.24,559.02 883.3,559.08 883.38,559.14 C883.24,559.18 883.08,559.2 882.92,559.22 C881.96,559.4 881,559.56 880.02,559.72 Z M883.52,563.52 C883.92,563.52 884.12,563.3 884.12,562.82 C884.1,562.7 884.02,562.54 883.9,562.38 C883.4,561.7 883.02,561.3 882.78,561.14 C882.7,561.1 882.6,561.06 882.5,561.02 C882.4,561.02 882.32,561 882.24,561 C882.1,561.04 881.98,561.1 881.88,561.18 C881.74,561.3 881.66,561.46 881.64,561.64 L881.64,561.82 C881.64,561.94 881.68,562.04 881.76,562.14 C882.04,562.34 882.3,562.58 882.58,562.82 C882.7,562.98 882.82,563.08 882.92,563.16 C883.16,563.4 883.36,563.52 883.52,563.52 Z M875.32,572.96 C875.42,572.96 875.6,572.94 875.84,572.94 C877.32,572.66 879,572.44 880.88,572.24 C883.06,572.04 885.08,571.96 886.92,571.96 C888.16,571.96 889.16,571.96 889.9,571.98 C890.72,572.02 891.32,572.06 891.68,572.08 C892.1,572 892.32,571.74 892.32,571.34 C892.32,571 892.08,570.78 891.62,570.7 C890.78,570.62 889.64,570.56 888.22,570.56 C889.04,569.58 889.48,568.34 889.52,566.8 C889.52,565.84 889.02,565.3 888.04,565.18 L887.32,565.18 C886.68,565.2 886.08,565.22 885.5,565.26 C883.42,565.42 881.42,565.74 879.5,566.24 C879.24,566.32 878.98,566.4 878.72,566.5 C878.68,566.38 878.66,566.3 878.64,566.22 C878.5,565.94 878.34,565.78 878.14,565.78 L877.8,565.78 C877.38,565.82 877.18,566.04 877.18,566.42 C877.18,566.54 877.22,566.82 877.32,567.26 C877.4,567.62 877.46,568.02 877.52,568.42 C877.56,568.64 877.6,568.9 877.64,569.22 C877.68,569.64 877.8,569.98 877.96,570.26 C878.02,570.42 878.1,570.54 878.2,570.62 C878.32,570.8 878.48,570.9 878.66,570.9 C878.8,570.9 878.94,570.84 879.1,570.74 C879.24,570.64 879.32,570.4 879.32,570 C879.24,569.64 879.16,569.22 879.08,568.72 C879.04,568.5 878.98,568.24 878.92,567.94 C879.64,567.74 880.36,567.56 881.08,567.4 C881.12,567.52 881.18,567.64 881.22,567.78 C881.34,568.18 881.42,568.5 881.42,568.74 L881.42,569.64 C881.4,569.84 881.4,570 881.4,570.12 C881.4,570.4 881.54,570.54 881.82,570.54 C882.08,570.54 882.24,570.36 882.32,570.04 C882.34,569.86 882.36,569.6 882.38,569.26 C882.4,568.94 882.42,568.6 882.42,568.24 C882.42,568.12 882.38,567.9 882.32,567.62 C882.28,567.46 882.24,567.32 882.18,567.16 C882.88,567.04 883.58,566.92 884.3,566.82 C884.38,567.26 884.42,567.8 884.42,568.42 C884.42,568.58 884.4,568.76 884.38,568.92 C884.34,569.12 884.28,569.32 884.22,569.5 C884.08,569.9 883.9,570.28 883.68,570.64 C883.36,570.64 883,570.66 882.64,570.7 C881.5,570.74 880.3,570.82 879.04,570.94 C877.64,571.06 876.42,571.22 875.34,571.42 C874.84,571.56 874.6,571.82 874.6,572.2 C874.62,572.38 874.72,572.56 874.88,572.72 C875,572.88 875.16,572.96 875.32,572.96 Z M884.76,570.6 C884.92,570.24 885.08,569.86 885.24,569.46 C885.3,569.22 885.36,568.96 885.44,568.64 C885.5,568.36 885.54,568 885.54,567.58 C885.54,567.26 885.52,566.96 885.48,566.7 C886.04,566.64 886.64,566.6 887.24,566.6 C887.7,566.6 888,566.72 888.12,566.92 C888.12,567.26 888.06,567.66 887.94,568.14 C887.66,569.02 887.16,569.82 886.42,570.56 C885.9,570.56 885.34,570.58 884.76,570.6 Z M899.28,569.14 L899.46,569.12 L899.46,569.12 C899.68,569.02 899.8,568.86 899.84,568.58 C899.88,568.58 899.94,568.58 900.02,568.56 C900.84,568.44 901.74,568.32 902.7,568.2 C903.74,568.08 904.78,567.98 905.82,567.86 C906.34,567.84 906.82,567.8 907.28,567.76 C907.64,567.72 908,567.68 908.32,567.64 C908.72,567.58 908.94,567.34 908.94,566.94 C908.9,566.78 908.82,566.64 908.7,566.52 C908.76,566.38 908.84,566.22 908.92,566.02 C909.3,565.1 909.64,564.02 909.94,562.78 C910.22,561.34 910.38,560.18 910.38,559.32 C910.38,558.74 910.2,558.18 909.84,557.64 C909.38,557.06 908.68,556.68 907.74,556.52 C907.14,556.4 906.4,556.34 905.5,556.34 C904.58,556.34 903.54,556.44 902.42,556.62 C901.14,556.88 900.1,557.16 899.32,557.48 C899.1,557.6 898.96,557.7 898.9,557.82 C898.78,558.02 898.72,558.22 898.72,558.46 C898.72,558.9 898.86,559.1 899.18,559.1 C899.26,559.1 899.42,559.06 899.7,558.96 C900.58,558.64 901.58,558.38 902.68,558.16 C903.78,557.92 904.9,557.78 906.06,557.78 C908.02,557.84 909,558.42 909,559.54 C908.94,560.7 908.7,562.14 908.26,563.88 C908,564.8 907.72,565.62 907.42,566.34 C907.26,566.34 907.08,566.36 906.88,566.38 C906.4,566.42 905.92,566.44 905.42,566.48 C904.78,566.54 904.1,566.6 903.38,566.66 C902.88,566.72 902.38,566.78 901.86,566.82 C901.06,566.92 900.42,567.02 899.92,567.1 L899.42,567.24 L899.42,567.24 C898.86,565.64 898.52,563.92 898.42,562.08 C898.34,560.54 898.3,559.1 898.3,557.78 C898.3,557.34 898.1,557.1 897.72,557.06 L897.56,557.06 C897.16,557.14 896.92,557.32 896.86,557.64 C896.86,558.56 896.88,559.5 896.92,560.46 C897,562.98 897.34,565.18 897.94,567.04 C898.2,567.74 898.46,568.3 898.7,568.7 C898.82,568.98 899.02,569.12 899.28,569.14 Z M932.46,556.06 C932.66,555.98 932.78,555.82 932.82,555.54 C932.82,555.26 932.76,555.02 932.66,554.84 C932.52,554.64 932.28,554.4 931.96,554.1 C931.66,553.86 931.36,553.66 931.08,553.48 C930.68,553.24 930.38,553.1 930.18,553.1 C929.74,553.12 929.5,553.32 929.44,553.7 C929.44,554.12 929.56,554.38 929.82,554.46 C930.1,554.66 930.42,554.86 930.78,555.06 C931.12,555.28 931.54,555.56 932.06,555.9 C932.2,556.02 932.3,556.06 932.36,556.06 L932.46,556.06 Z M926.44,555.64 C926.74,555.56 926.9,555.32 926.9,554.92 C926.86,554.74 926.76,554.58 926.56,554.44 C925.88,554 924.98,553.76 923.86,553.7 L923.44,553.7 C923.22,553.82 923.08,553.98 923,554.18 C923,554.56 923.1,554.88 923.34,555.12 C924.46,555.3 925.5,555.48 926.44,555.64 Z M932.66,572.16 C932.86,572.16 933.06,571.92 933.24,571.48 C933.34,571.16 933.4,570.78 933.4,570.36 C933.4,569.38 933.36,568.22 933.32,566.82 C933.2,566.32 933,566.06 932.76,566.06 C932.54,566.08 932.44,566.3 932.44,566.7 C932.34,567.62 932.28,568.52 932.24,569.4 C932.04,569 931.82,568.42 931.58,567.62 C931.38,566.86 931.18,566.08 931.02,565.26 C931.54,564.22 931.98,563.3 932.3,562.5 C932.58,561.76 932.74,561.26 932.74,561 C932.74,560.74 932.6,560.56 932.36,560.46 C932.32,560.42 932.24,560.4 932.14,560.4 C931.86,560.4 931.671875,560.491875 931.575625,560.675625 L931.54,560.76 C931.38,561.12 931.2,561.58 930.98,562.12 C930.84,562.46 930.7,562.8 930.56,563.14 C930.36,562.38 930.16,561.58 929.96,560.76 C929.86,560.42 929.76,560.06 929.64,559.66 C930.62,559.2 931.28,558.76 931.64,558.36 C931.84,558.16 931.96,557.94 931.96,557.74 C931.96,557.66 931.94,557.6 931.9,557.54 C931.8,557.38 931.66,557.3 931.48,557.3 C930.88,557.62 930.14,557.94 929.26,558.3 C929.26,558.3 929.24,558.26 929.24,558.22 C929.08,557.7 928.98,557.18 928.9,556.66 C928.74,556.28 928.52,556.08 928.24,556.08 C927.78,556.08 927.52,556.32 927.48,556.76 C927.48,557.04 927.6,557.64 927.88,558.6 C927.88,558.66 927.9,558.74 927.94,558.82 C927.62,558.94 927.3,559.06 926.94,559.18 C926.46,559.36 926,559.52 925.52,559.68 L925.54,558.72 C925.54,558.16 925.28,557.88 924.78,557.88 C924.3,557.88 924.04,558.08 924,558.46 C924.08,558.84 924.12,559.24 924.12,559.66 L924.12,560.14 C923.68,560.28 923.22,560.42 922.78,560.54 C922.46,560.64 922.18,560.72 921.98,560.8 C921.6,561 921.42,561.2 921.42,561.4 C921.46,561.9 921.68,562.16 922.06,562.16 C922.26,562.16 922.5,562.16 922.78,562.14 C922.94,562.12 923.18,562.06 923.54,561.94 C923.72,561.9 923.9,561.82 924.1,561.74 C924.08,562.3 924.08,562.84 924.08,563.36 L924.08,564.58 L923.74,564.84 L923.74,564.84 C922.42,565.76 921.52,566.54 921.02,567.16 C920.66,567.6 920.5,567.88 920.5,568.02 C920.5,568.26 920.7,568.52 921.12,568.84 L922.56,569.9 C923.62,570.72 924.4,571.14 924.9,571.14 C925.24,571.14 925.42,570.82 925.42,570.18 L925.46,565.12 L925.84,564.84 C926.88,564 927.48,563.46 927.64,563.22 C927.72,563.1 927.76,563.02 927.78,562.94 C927.78,562.78 927.72,562.64 927.64,562.52 C927.54,562.44 927.44,562.4 927.32,562.4 C927.28,562.4 927.16,562.46 927,562.54 C926.48,562.88 925.98,563.22 925.46,563.58 C925.46,562.86 925.46,562.1 925.48,561.28 C926.04,561.08 926.62,560.88 927.26,560.64 C927.64,560.52 928,560.38 928.36,560.22 C928.52,560.7 928.66,561.08 928.78,561.4 C929.14,562.64 929.44,563.76 929.68,564.8 C929.68,564.82 929.68,564.84 929.7,564.86 C929.36,565.54 929.02,566.18 928.66,566.78 C928.3,567.38 928.04,567.84 927.84,568.2 C927.66,568.44 927.54,568.66 927.46,568.84 C927.38,568.96 927.36,569.08 927.36,569.24 C927.4,569.44 927.48,569.54 927.64,569.58 C927.76,569.58 927.86,569.56 927.94,569.54 C928,569.48 928.06,569.42 928.14,569.36 C928.28,569.18 928.46,568.96 928.7,568.64 C929.06,568.22 929.46,567.72 929.88,567.16 C929.98,567.04 930.08,566.88 930.18,566.72 C930.48,567.86 930.8,568.88 931.14,569.78 C931.46,570.6 931.78,571.26 932.14,571.74 C932.34,572.02 932.5,572.16 932.66,572.16 Z M916.42,564.82 C916.48,564.82 916.58,564.8 916.72,564.72 C917.4,564.5 918.12,564.16 918.88,563.7 C919.52,563.3 920.04,562.9 920.46,562.5 C920.58,562.34 920.64,562.2 920.66,562.06 C920.66,561.96 920.64,561.88 920.62,561.82 C920.54,561.72 920.46,561.64 920.34,561.6 C920.34,561.6 920.34,561.58 920.36,561.56 C920.58,561.04 920.76,560.52 920.9,559.96 C920.96,559.62 921,559.34 921,559.1 C921,558.7 920.72,558.38 920.2,558.1 C919.76,557.88 919.22,557.76 918.56,557.74 C917.72,557.76 917.1,557.82 916.66,557.9 C916.58,557.72 916.44,557.58 916.24,557.5 C916.16,557.46 916.02,557.44 915.86,557.44 C915.68,557.44 915.54,557.52 915.42,557.68 C915.3,557.82 915.22,557.96 915.2,558.12 C915.38,559 915.62,560.08 915.9,561.4 C916.02,562.18 916.12,562.86 916.16,563.42 C915.96,563.54 915.84,563.68 915.84,563.88 C915.84,564.16 915.88,564.38 916,564.54 C916.12,564.74 916.26,564.82 916.42,564.82 Z M917.32,563 C917.28,562.44 917.2,561.6 917.06,560.46 C917,559.98 916.96,559.56 916.92,559.16 C917.54,559.14 918.1,559.12 918.62,559.12 C919.06,559.12 919.38,559.28 919.58,559.6 C919.58,559.74 919.48,560.12 919.32,560.74 C919.12,561.38 918.92,561.86 918.72,562.2 C918.64,562.26 918.58,562.34 918.54,562.44 C918.16,562.64 917.76,562.82 917.36,562.98 C917.36,562.98 917.34,563 917.32,563 Z M924.2,569.42 C923.08,568.82 922.32,568.34 921.92,568.02 C922.36,567.56 922.88,567.08 923.52,566.6 L924.1,566.16 C924.12,567.26 924.16,568.34 924.2,569.42 Z" id="左右滑动可以切换盘口哦"></path>
        </g>
    </g>
</svg>