<?xml version="1.0" encoding="UTF-8"?>
<svg width="246px" height="21px" viewBox="0 0 246 21" version="1.1" xmlns="http://www.w3.org/2000/svg" xmlns:xlink="http://www.w3.org/1999/xlink">
    <!-- Generator: Sketch 61.2 (89653) - https://sketch.com -->
    <title>新手玩家可以查看投注教程</title>
    <desc>Created with Sketch.</desc>
    <g id="页面-1" stroke="none" stroke-width="1" fill="none" fill-rule="evenodd">
        <g id="画板" transform="translate(-1119.000000, -141.000000)" fill="#FFFFFF" fill-rule="nonzero">
            <path d="M1124.94,143.38 C1125.16,143.36 1125.28,143.2 1125.3,142.92 C1125.3,142.68 1125.2,142.5 1125.02,142.38 C1124.3,142.22 1123.54,142.04 1122.76,141.84 C1122.12,141.68 1121.68,141.58 1121.44,141.58 C1121.18,141.58 1121.04,141.74 1121.02,142.06 C1121.02,142.34 1121.06,142.54 1121.16,142.7 C1121.44,142.94 1121.94,143.1 1122.66,143.18 C1123.38,143.32 1124.14,143.38 1124.94,143.38 Z M1133.52,161.52 C1133.84,161.52 1134.08,161.24 1134.24,160.7 C1134.36,159.98 1134.46,159.08 1134.56,158.02 C1134.66,156.54 1134.72,155.06 1134.72,153.62 C1134.72,153.14 1134.7,152.58 1134.7,151.98 C1134.64,150.98 1134.6,150.08 1134.56,149.28 C1134.52,148.96 1134.5,148.66 1134.5,148.4 C1134.66,148.36 1134.84,148.3 1135.04,148.26 C1136.08,147.98 1136.78,147.7 1137.12,147.4 C1137.36,147.28 1137.48,147.02 1137.48,146.66 C1137.48,146.48 1137.38,146.34 1137.18,146.22 C1137.06,146.18 1136.92,146.16 1136.76,146.16 C1136.64,146.2 1136.4,146.28 1136.08,146.38 C1135.24,146.62 1134.52,146.82 1133.96,146.94 C1133,147.22 1132.24,147.42 1131.7,147.52 C1131.44,147.6 1131.2,147.66 1130.96,147.74 L1130.96,147.6 C1130.96,147.24 1130.92,146.82 1130.88,146.36 C1130.82,145.96 1130.74,145.62 1130.66,145.32 C1131.82,144.88 1132.82,144.38 1133.66,143.78 C1133.86,143.64 1134,143.52 1134.08,143.4 C1134.16,143.26 1134.22,143.14 1134.22,143.02 C1134.22,142.72 1134.1,142.48 1133.88,142.32 C1133.68,142.22 1133.48,142.16 1133.26,142.16 C1133.06,142.2 1132.92,142.3 1132.82,142.44 C1132.64,142.56 1132.46,142.7 1132.3,142.82 C1131.38,143.48 1130.34,144.04 1129.22,144.5 C1129.1,144.62 1129.02,144.74 1129.02,144.9 L1129.02,145.12 C1129.02,145.24 1129.08,145.36 1129.18,145.44 C1129.18,145.52 1129.22,145.6 1129.3,145.66 C1129.38,146.22 1129.44,146.92 1129.46,147.76 C1129.46,148.28 1129.44,148.78 1129.4,149.26 C1129.34,149.84 1129.28,150.38 1129.2,150.9 C1129,152.06 1128.72,153.28 1128.4,154.54 C1128.3,154.82 1128.24,155.02 1128.2,155.14 C1128.08,155.36 1128.04,155.54 1128.04,155.66 C1128.04,156.06 1128.2,156.26 1128.56,156.26 C1128.76,156.26 1128.94,156.18 1129.14,156.02 C1129.22,155.86 1129.32,155.68 1129.42,155.46 C1129.92,154.14 1130.3,152.82 1130.56,151.5 C1130.68,150.78 1130.78,150.08 1130.86,149.36 L1130.86,149.28 C1130.9,149.28 1130.94,149.26 1131,149.24 C1131.46,149.12 1131.94,148.98 1132.46,148.82 C1132.66,148.78 1132.84,148.74 1133.04,148.7 C1133.04,148.78 1133.08,148.88 1133.12,149 C1133.14,149.5 1133.16,150 1133.2,150.48 C1133.28,152.2 1133.32,153.56 1133.32,154.54 C1133.32,155.58 1133.24,156.96 1133.12,158.68 C1133.04,159.66 1132.98,160.42 1132.94,160.94 C1132.94,161.32 1133.12,161.52 1133.52,161.52 Z M1123.56,161.4 C1123.88,161.4 1124.2,161.18 1124.5,160.74 C1124.72,160.34 1124.84,159.8 1124.84,159.12 C1124.84,158.08 1124.82,156.96 1124.78,155.68 L1124.76,155.34 C1125.58,156.12 1126.18,156.58 1126.58,156.74 C1126.74,156.86 1126.94,156.92 1127.18,156.92 C1127.42,156.86 1127.58,156.68 1127.62,156.4 C1127.62,156.2 1127.56,156.02 1127.44,155.82 C1126.8,155.3 1126.2,154.84 1125.66,154.42 C1125.32,154.14 1125.06,153.96 1124.9,153.84 C1124.82,153.8 1124.76,153.74 1124.7,153.7 L1124.68,152.84 C1126.04,152.24 1126.9,151.68 1127.26,151.18 C1127.44,151 1127.54,150.82 1127.54,150.62 C1127.54,150.54 1127.52,150.46 1127.5,150.42 C1127.42,150.28 1127.28,150.2 1127.1,150.2 C1126.48,150.52 1125.66,150.9 1124.64,151.34 C1124.62,150.82 1124.62,150.32 1124.62,149.88 C1125.46,149.5 1126.16,149.1 1126.76,148.68 C1126.88,148.52 1126.96,148.36 1126.98,148.2 C1126.98,148.1 1126.96,148.02 1126.94,147.96 C1126.82,147.82 1126.7,147.74 1126.54,147.72 C1126.46,147.72 1126.36,147.74 1126.28,147.78 C1126.16,147.84 1125.82,147.98 1125.28,148.22 C1125.28,148.22 1125.26,148.24 1125.24,148.24 C1125.72,147.32 1125.96,146.5 1125.96,145.74 C1125.96,145.54 1125.92,145.32 1125.86,145.08 C1126.58,144.84 1127.06,144.62 1127.3,144.42 C1127.5,144.22 1127.62,144.02 1127.62,143.82 C1127.62,143.74 1127.58,143.66 1127.54,143.6 C1127.46,143.44 1127.32,143.36 1127.12,143.36 C1126.32,143.6 1125.22,143.86 1123.78,144.16 C1122.78,144.38 1121.76,144.58 1120.7,144.74 C1120.34,144.84 1120.06,144.92 1119.84,145 C1119.44,145.2 1119.26,145.44 1119.26,145.68 C1119.3,146.22 1119.52,146.5 1119.92,146.5 C1120.14,146.5 1120.4,146.48 1120.7,146.42 C1120.82,146.42 1121.02,146.38 1121.26,146.32 C1121.28,146.32 1121.32,146.32 1121.38,146.3 L1121.5,146.42 L1121.5,146.42 C1121.62,146.58 1121.7,146.74 1121.74,146.94 L1121.86,148.02 L1121.86,148.02 C1121.86,148.3 1121.88,148.52 1121.96,148.68 C1122.06,148.88 1122.2,148.96 1122.4,148.96 C1122.74,148.96 1122.92,148.84 1122.96,148.56 C1123,148.4 1123.02,148.04 1123.02,147.5 C1123.02,147.2 1123,146.9 1122.98,146.58 C1122.94,146.36 1122.86,146.16 1122.74,145.98 C1123.14,145.88 1123.58,145.78 1124.02,145.66 C1124.18,145.62 1124.36,145.56 1124.54,145.5 C1124.56,145.64 1124.58,145.76 1124.58,145.86 C1124.58,146.38 1124.48,146.9 1124.3,147.46 C1124.02,148.14 1123.9,148.54 1123.9,148.66 L1123.9,148.72 C1123.34,148.92 1122.76,149.1 1122.14,149.3 C1121.62,149.42 1121,149.58 1120.28,149.78 C1120.02,149.9 1119.88,150.06 1119.88,150.28 C1119.88,150.6 1119.94,150.86 1120.06,151.06 C1120.18,151.26 1120.34,151.34 1120.52,151.34 C1120.6,151.34 1120.7,151.3 1120.86,151.22 C1121.62,151.04 1122.44,150.78 1123.3,150.44 C1123.3,150.86 1123.3,151.32 1123.32,151.82 C1122.54,152.14 1121.74,152.42 1120.9,152.68 C1120.54,152.78 1120.24,152.86 1120.02,152.92 C1119.64,153.12 1119.46,153.34 1119.46,153.58 C1119.52,154.1 1119.74,154.38 1120.14,154.38 C1120.34,154.38 1120.6,154.38 1120.9,154.34 C1120.98,154.32 1121.16,154.26 1121.44,154.16 C1121.78,154.04 1122.14,153.88 1122.54,153.72 C1122.44,154.08 1122.28,154.48 1122.06,154.92 C1121.54,155.84 1120.82,156.74 1119.86,157.66 C1119.7,157.78 1119.62,157.92 1119.62,158.04 C1119.62,158.16 1119.64,158.24 1119.7,158.32 C1119.8,158.54 1119.98,158.66 1120.22,158.68 C1120.28,158.68 1120.4,158.64 1120.58,158.56 C1121.3,158.06 1121.94,157.38 1122.54,156.48 C1122.9,155.88 1123.2,155.28 1123.44,154.64 C1123.44,155.04 1123.46,155.44 1123.5,155.88 C1123.54,157 1123.56,158.02 1123.56,158.98 C1123.56,159.6 1123.46,159.92 1123.26,159.92 C1122.62,159.5 1122.18,159.22 1121.96,159.1 C1121.64,159.1 1121.48,159.26 1121.48,159.58 C1121.48,159.82 1121.62,160.1 1121.92,160.46 C1122.46,161.08 1123,161.4 1123.56,161.4 Z M1147.28,143.46 C1147.46,143.46 1147.68,143.44 1147.92,143.4 C1148.4,143.34 1148.82,143.3 1149.18,143.26 C1149.38,143.26 1149.64,143.24 1149.96,143.2 C1150.7,143.16 1151.22,143.12 1151.52,143.04 C1151.72,142.96 1151.84,142.8 1151.84,142.58 C1151.84,142.18 1151.64,141.94 1151.28,141.82 C1150.92,141.82 1150.44,141.8 1149.88,141.8 C1149.4,141.8 1148.78,141.86 1148.02,141.96 C1147.7,142 1147.42,142.06 1147.14,142.12 C1146.88,142.24 1146.76,142.42 1146.76,142.64 C1146.76,142.98 1146.84,143.2 1147,143.32 C1147.08,143.42 1147.18,143.46 1147.28,143.46 Z M1149.74,161.4 C1150.1,161.4 1150.38,161.28 1150.58,161.08 C1150.82,160.82 1150.96,160.38 1150.96,159.78 C1150.86,158.42 1150.78,156.98 1150.74,155.38 C1150.66,153.98 1150.62,152.6 1150.58,151.22 C1153.54,150.18 1155.42,149.26 1156.18,148.46 C1156.34,148.28 1156.42,148.1 1156.42,147.92 C1156.42,147.84 1156.4,147.76 1156.38,147.72 C1156.3,147.6 1156.18,147.52 1156.02,147.52 C1154.66,148.14 1152.84,148.84 1150.56,149.6 C1150.54,148.98 1150.52,148.34 1150.52,147.66 L1150.52,147.3 L1150.52,147.3 C1151.28,147.04 1151.94,146.8 1152.5,146.6 C1152.78,146.44 1152.94,146.24 1152.94,146.02 C1152.94,145.9 1152.88,145.74 1152.76,145.56 C1152.62,145.4 1152.46,145.32 1152.28,145.3 C1151.92,145.3 1151.44,145.38 1150.84,145.54 L1150.48,145.66 L1150.48,145.66 C1150.46,145.3 1150.44,144.9 1150.42,144.46 C1150.42,144.02 1150.16,143.78 1149.66,143.78 C1149.12,143.8 1148.86,144.02 1148.86,144.46 C1148.86,145 1148.86,145.54 1148.9,146.1 C1147.14,146.62 1145.86,147.08 1145.1,147.48 C1144.84,147.68 1144.72,147.9 1144.72,148.16 C1144.72,148.32 1144.76,148.48 1144.86,148.6 C1144.98,148.78 1145.1,148.88 1145.22,148.92 L1145.42,148.92 C1145.58,148.92 1146.2,148.74 1147.32,148.38 C1147.88,148.2 1148.42,148.02 1148.98,147.82 C1149.02,148.5 1149.04,149.26 1149.08,150.1 C1147.26,150.7 1145.38,151.26 1143.42,151.76 C1143.06,151.88 1142.78,151.96 1142.54,152.04 C1142.14,152.24 1141.96,152.46 1141.96,152.7 C1142.04,153.24 1142.26,153.52 1142.62,153.52 C1142.86,153.52 1143.12,153.5 1143.42,153.44 C1143.64,153.4 1144,153.32 1144.5,153.18 C1145.94,152.74 1147.5,152.26 1149.14,151.72 C1149.18,152.88 1149.22,154 1149.28,155.04 C1149.36,156.94 1149.44,158.56 1149.56,159.94 C1149.24,159.94 1148.8,159.48 1148.24,158.56 C1148.08,158.36 1147.9,158.24 1147.7,158.22 C1147.34,158.22 1147.14,158.38 1147.12,158.74 C1147.12,159.06 1147.2,159.38 1147.4,159.66 C1148.08,160.82 1148.86,161.4 1149.74,161.4 Z M1173.1,145 C1173.42,144.92 1173.58,144.66 1173.58,144.24 C1173.54,144.06 1173.44,143.92 1173.26,143.8 C1172.48,143.54 1171.44,143.4 1170.14,143.36 L1169.76,143.36 C1169.52,143.48 1169.36,143.66 1169.28,143.88 C1169.28,144.24 1169.4,144.56 1169.66,144.8 C1170.92,144.88 1172.06,144.94 1173.1,145 Z M1166.02,145.78 C1166.3,145.7 1166.44,145.54 1166.46,145.26 C1166.46,144.98 1166.36,144.76 1166.18,144.62 C1165.8,144.4 1165.08,144.2 1164.02,144 C1163.24,143.9 1162.42,143.84 1161.56,143.8 C1161.22,143.84 1161.02,144.06 1160.96,144.46 C1160.96,144.98 1161.14,145.26 1161.5,145.28 C1163.2,145.38 1164.7,145.54 1166.02,145.78 Z M1167.68,159.78 C1167.92,159.78 1168.1,159.68 1168.22,159.48 C1168.34,159.32 1168.52,159.02 1168.72,158.58 C1169.18,157.54 1169.62,156.36 1170.02,155.08 C1170.5,153.72 1170.82,152.62 1171.02,151.78 C1171.22,150.9 1171.32,150.3 1171.32,150.02 C1171.32,149.88 1171.3,149.74 1171.26,149.62 C1171.66,149.46 1172.1,149.28 1172.58,149.08 L1172.56,153.56 C1172.56,154.36 1172.62,155.08 1172.74,155.7 C1173.08,157.26 1173.72,158.28 1174.66,158.84 C1175.2,159.12 1175.82,159.28 1176.54,159.28 C1177.54,159.24 1178.28,158.9 1178.72,158.24 C1178.92,157.86 1179.04,157.46 1179.04,157.02 C1179.04,156.04 1178.78,154.98 1178.26,153.84 C1178.14,153.68 1177.98,153.58 1177.78,153.58 C1177.54,153.64 1177.36,153.74 1177.26,153.9 C1177.22,154.06 1177.22,154.2 1177.22,154.34 C1177.6,155.62 1177.8,156.48 1177.8,156.92 C1177.78,157.54 1177.46,157.88 1176.82,157.92 C1176.18,157.92 1175.56,157.64 1174.94,157.06 C1174.3,156.26 1174,155.18 1174,153.8 C1174,152.22 1174,150.64 1174.02,149.08 C1174.02,148.88 1173.98,148.68 1173.9,148.48 C1175.38,147.76 1176.34,147.14 1176.78,146.58 C1176.94,146.4 1177.02,146.22 1177.02,146.04 C1177.02,145.98 1177,145.92 1176.98,145.86 C1176.9,145.74 1176.8,145.68 1176.64,145.68 C1175.64,146.24 1174.24,146.88 1172.46,147.58 C1171.2,148.12 1169.9,148.6 1168.58,149 C1168.24,149.1 1167.96,149.18 1167.76,149.26 C1167.38,149.44 1167.2,149.64 1167.2,149.86 C1167.24,150.38 1167.46,150.66 1167.84,150.66 C1168.06,150.66 1168.3,150.66 1168.58,150.62 C1168.74,150.58 1168.96,150.52 1169.28,150.4 C1169.46,150.34 1169.64,150.26 1169.84,150.18 C1169.78,150.54 1169.7,150.94 1169.62,151.38 C1169.46,152.1 1169.26,152.9 1169.04,153.78 C1168.8,154.54 1168.52,155.38 1168.22,156.3 C1167.94,157.1 1167.68,157.86 1167.44,158.62 C1167.36,158.84 1167.32,159.06 1167.32,159.26 C1167.32,159.58 1167.44,159.74 1167.68,159.78 Z M1160.9,158.24 C1161.02,158.24 1161.2,158.2 1161.46,158.12 C1162.44,157.8 1163.52,157.28 1164.7,156.52 C1165.58,156 1166.32,155.4 1166.92,154.76 C1167.12,154.52 1167.24,154.32 1167.24,154.2 C1167.24,154.12 1167.22,154.02 1167.2,153.92 C1167.12,153.82 1167,153.76 1166.82,153.76 C1166.7,153.76 1166.6,153.78 1166.48,153.8 C1166.24,153.88 1165.9,154.06 1165.44,154.34 C1164.96,154.62 1164.5,154.9 1164.06,155.14 C1164.1,154.96 1164.16,154.76 1164.2,154.52 C1164.34,153.72 1164.42,152.98 1164.42,152.34 C1164.42,151.64 1164.4,150.98 1164.36,150.36 C1165.24,150.06 1166.02,149.78 1166.7,149.52 C1166.9,149.4 1167.02,149.26 1167.02,149.08 C1167.02,148.92 1166.96,148.76 1166.86,148.6 C1166.74,148.48 1166.58,148.4 1166.38,148.4 C1166.1,148.4 1165.38,148.56 1164.22,148.86 C1164.16,148.38 1164.08,147.94 1163.98,147.5 C1163.88,147.3 1163.76,147.12 1163.64,146.98 C1163.52,146.88 1163.36,146.82 1163.16,146.82 C1162.96,146.84 1162.82,146.9 1162.72,146.98 C1162.54,147.14 1162.46,147.36 1162.46,147.64 C1162.46,147.9 1162.52,148.28 1162.68,148.8 C1162.72,148.96 1162.74,149.12 1162.78,149.3 C1161.7,149.66 1160.9,149.96 1160.42,150.22 C1160.22,150.34 1160.12,150.5 1160.12,150.68 L1160.12,150.92 C1160.2,151.32 1160.44,151.54 1160.86,151.56 C1161.58,151.32 1162.28,151.1 1162.94,150.86 C1162.98,151.4 1163,152.02 1163,152.7 C1163,153.12 1162.96,153.56 1162.9,154.04 C1162.8,154.66 1162.66,155.24 1162.5,155.76 C1162.48,155.84 1162.46,155.9 1162.44,155.98 L1162.38,156 L1162.38,156 C1162.02,156.18 1161.5,156.42 1160.82,156.7 C1160.46,156.84 1160.26,157.04 1160.26,157.32 C1160.26,157.6 1160.3,157.8 1160.42,157.96 C1160.54,158.14 1160.7,158.24 1160.9,158.24 Z M1190.36,143.08 C1190.56,143.08 1190.76,143.02 1191,142.9 C1191.22,142.74 1191.34,142.52 1191.34,142.26 C1191.34,142.08 1191.26,141.98 1191.1,141.94 C1189.98,141.76 1189.22,141.62 1188.82,141.5 C1188.46,141.48 1188.28,141.4 1188.28,141.24 C1187.92,141.28 1187.62,141.42 1187.38,141.68 C1187.22,141.84 1187.14,141.98 1187.14,142.06 C1187.14,142.52 1187.3,142.8 1187.64,142.88 C1188.6,143.02 1189.5,143.08 1190.36,143.08 Z M1184.24,148.86 C1184.52,148.86 1184.74,148.76 1184.88,148.56 C1184.96,148.48 1185.06,148.38 1185.14,148.22 C1185.28,147.98 1185.38,147.7 1185.46,147.42 C1185.58,146.98 1185.64,146.6 1185.64,146.28 L1185.64,146.1 C1185.8,146.1 1186.02,146.06 1186.3,145.98 C1190.26,144.98 1192.74,144.42 1193.72,144.28 C1193.34,144.92 1192.92,145.54 1192.44,146.14 C1192.26,146.3 1192.18,146.44 1192.18,146.58 C1192.18,146.66 1192.2,146.76 1192.28,146.84 C1192.36,147 1192.46,147.06 1192.62,147.06 C1192.74,147.06 1192.9,147 1193.1,146.84 C1193.26,146.72 1193.44,146.58 1193.62,146.44 C1195.02,145.22 1195.74,144.24 1195.74,143.5 C1195.74,143.2 1195.58,142.98 1195.3,142.82 C1195.18,142.8 1195.02,142.78 1194.86,142.78 C1194.32,142.78 1193.4,142.92 1192.12,143.18 C1189.34,143.7 1187.24,144.16 1185.84,144.54 C1185.7,144.6 1185.58,144.64 1185.46,144.68 C1185.44,144.64 1185.42,144.6 1185.42,144.54 C1185.3,144.32 1185.18,144.14 1185.06,144 C1184.94,143.92 1184.76,143.86 1184.56,143.86 C1184.36,143.88 1184.22,143.92 1184.12,144 C1183.92,144.16 1183.84,144.4 1183.84,144.7 C1183.84,144.82 1183.88,144.96 1183.98,145.14 C1184.1,145.5 1184.18,146 1184.18,146.62 C1184.18,146.82 1184.16,147.02 1184.12,147.22 C1184.06,147.5 1183.98,147.78 1183.86,148.02 C1183.8,148.18 1183.76,148.32 1183.76,148.4 C1183.76,148.68 1183.92,148.84 1184.24,148.86 Z M1184.96,161.38 C1185.12,161.38 1185.32,161.28 1185.54,161.1 C1185.82,160.88 1186.14,160.6 1186.5,160.26 L1187.84,158.92 L1187.84,158.92 C1187.84,159.04 1187.84,159.18 1187.86,159.34 C1187.94,159.9 1188.12,160.36 1188.4,160.7 C1188.76,161.14 1189.18,161.36 1189.68,161.36 C1190.28,161.36 1190.76,160.84 1191.12,159.82 C1191.4,158.96 1191.56,157.88 1191.6,156.54 C1191.72,156.7 1191.84,156.84 1191.98,157 C1192.64,157.72 1193.38,158.4 1194.22,159.04 C1194.94,159.6 1195.6,160.02 1196.22,160.32 C1196.56,160.48 1196.94,160.62 1197.34,160.72 C1197.64,160.8 1197.92,160.84 1198.18,160.84 C1198.38,160.84 1198.52,160.78 1198.58,160.66 C1198.7,160.54 1198.78,160.38 1198.78,160.2 C1198.78,160 1198.68,159.86 1198.52,159.82 C1197.62,159.5 1196.8,159.1 1196.08,158.66 C1195.4,158.2 1194.78,157.72 1194.18,157.16 C1193.76,156.76 1193.34,156.3 1192.9,155.82 C1192.6,155.54 1192.32,155.24 1192.06,154.88 C1192.02,154.84 1191.96,154.78 1191.9,154.7 C1192.06,154.56 1192.22,154.4 1192.38,154.2 C1192.94,153.56 1193.38,152.96 1193.68,152.44 C1193.76,152.26 1193.8,152.1 1193.8,151.96 C1193.78,151.74 1193.64,151.54 1193.38,151.34 C1193.24,151.26 1193.1,151.2 1192.94,151.2 C1192.74,151.2 1192.6,151.28 1192.52,151.44 C1192.24,151.94 1191.96,152.4 1191.68,152.84 C1191.52,153.06 1191.36,153.28 1191.2,153.52 C1191.18,153.48 1191.16,153.42 1191.16,153.36 C1190.92,152.8 1190.6,152.26 1190.2,151.76 C1189.76,151.26 1189.32,150.88 1188.88,150.64 C1188.88,150.64 1188.9,150.62 1188.92,150.58 C1189.02,150.38 1189.08,150.18 1189.12,149.98 C1189.68,149.84 1190.26,149.68 1190.84,149.48 C1192.04,149.14 1193.08,148.76 1194,148.36 C1194.2,148.28 1194.36,148.14 1194.48,147.98 C1194.56,147.84 1194.62,147.72 1194.62,147.6 C1194.62,147.48 1194.5,147.36 1194.3,147.22 C1194.1,147.14 1193.92,147.1 1193.8,147.1 C1193.64,147.16 1193.46,147.24 1193.24,147.32 C1191.76,147.84 1190.4,148.24 1189.12,148.5 C1187.92,148.78 1186.8,148.92 1185.8,148.92 C1185.62,148.92 1185.46,148.92 1185.34,148.9 C1184.98,149.1 1184.76,149.3 1184.7,149.54 L1184.7,149.88 C1184.7,150.26 1184.88,150.48 1185.26,150.54 L1185.72,150.54 C1186.2,150.54 1186.7,150.48 1187.22,150.38 C1187.3,150.38 1187.4,150.36 1187.52,150.34 C1187.44,150.42 1187.38,150.5 1187.3,150.6 C1185.92,152.44 1184.62,153.88 1183.42,154.88 C1183.22,155.08 1183.14,155.28 1183.14,155.48 C1183.16,155.74 1183.32,155.88 1183.6,155.88 C1183.74,155.88 1183.92,155.82 1184.12,155.66 C1184.36,155.46 1184.66,155.22 1185,154.94 C1186.22,153.86 1187.24,152.82 1188.04,151.8 C1188.06,151.78 1188.08,151.76 1188.1,151.72 C1188.66,152.14 1189.12,152.58 1189.48,153.04 C1189.7,153.38 1189.88,153.76 1190.02,154.16 C1189.98,154.2 1189.96,154.26 1189.94,154.32 C1189.74,154.6 1189.52,154.92 1189.28,155.28 C1187.68,157.44 1186.18,159.08 1184.76,160.26 C1184.56,160.46 1184.46,160.68 1184.46,160.92 C1184.48,161.2 1184.64,161.36 1184.96,161.38 Z M1184.02,159.02 C1184.18,159.02 1184.34,158.92 1184.52,158.76 C1184.76,158.56 1185.02,158.34 1185.32,158.1 C1186.4,157.06 1187.3,156.06 1187.98,155.06 C1188.3,154.66 1188.58,154.26 1188.8,153.88 C1188.88,153.68 1188.94,153.48 1188.94,153.3 C1188.94,153.1 1188.88,152.96 1188.78,152.88 C1188.62,152.78 1188.5,152.72 1188.38,152.72 C1188.2,152.72 1188.04,152.88 1187.92,153.18 C1187.76,153.44 1187.6,153.7 1187.4,153.96 C1186.12,155.7 1184.94,157.04 1183.82,157.98 C1183.66,158.16 1183.58,158.36 1183.58,158.56 C1183.6,158.84 1183.74,159 1184.02,159.02 Z M1189.66,159.94 C1189.28,159.94 1188.86,159.44 1188.38,158.48 C1188.38,158.44 1188.36,158.42 1188.34,158.38 C1188.9,157.76 1189.4,157.14 1189.84,156.5 C1189.96,156.34 1190.1,156.14 1190.26,155.94 C1190.24,157.04 1190.16,158.02 1190,158.9 C1189.88,159.58 1189.76,159.94 1189.66,159.94 Z M1205.62,145.56 C1206.22,145.54 1206.84,145.48 1207.48,145.4 C1209,145.12 1210.46,144.78 1211.86,144.38 C1213.34,143.98 1214.64,143.54 1215.76,143.06 C1216,142.96 1216.22,142.8 1216.38,142.6 C1216.5,142.4 1216.56,142.24 1216.56,142.1 C1216.56,141.96 1216.42,141.8 1216.14,141.62 C1215.9,141.5 1215.66,141.44 1215.46,141.44 C1215.28,141.52 1215.06,141.62 1214.78,141.74 C1212.98,142.46 1211.28,142.98 1209.7,143.34 C1208.24,143.72 1206.88,143.9 1205.62,143.9 C1205.44,143.9 1205.28,143.9 1205.12,143.88 C1204.76,144.06 1204.54,144.28 1204.46,144.54 L1204.46,144.88 C1204.46,145.28 1204.66,145.52 1205.06,145.56 L1205.62,145.56 Z M1215.38,161.9 C1215.78,161.88 1215.98,161.6 1216.02,161.06 C1216.02,159.82 1215.94,158 1215.82,155.6 C1215.74,154.32 1215.7,153.24 1215.7,152.34 C1215.67143,151.754286 1215.66327,151.107347 1215.66093,150.406472 L1215.66,149.54 C1215.66,148.7 1215.66,147.8 1215.68,146.84 L1215.68,145.5 C1215.68,144.86 1215.46,144.48 1215.06,144.36 L1214.72,144.36 C1214.44,144.48 1214.24,144.68 1214.14,144.98 C1214.22,145.4 1214.28,145.74 1214.28,145.98 L1214.28,147.12 C1214.2,148.08 1214.18,148.96 1214.18,149.76 C1214.18,151.72 1214.22,153.6 1214.34,155.4 C1214.42,157.1 1214.48,158.46 1214.48,159.54 C1214.48,159.86 1214.46,160.08 1214.42,160.18 C1213.44,159.52 1212.72,159.18 1212.24,159.18 C1211.8,159.18 1211.6,159.24 1211.6,159.36 C1211.7,159.48 1211.82,159.64 1211.96,159.8 C1212.7,160.6 1213.52,161.22 1214.42,161.62 C1214.74,161.8 1215.06,161.9 1215.38,161.9 Z M1206.4,154.96 C1206.58,154.96 1206.72,154.9 1206.84,154.78 C1206.88,154.74 1206.94,154.66 1206.98,154.58 C1206.98,154.58 1207,154.58 1207.02,154.54 C1207.86,154.18 1208.76,153.64 1209.68,152.92 C1210.48,152.32 1211.12,151.7 1211.64,151.06 C1211.74,150.92 1211.8,150.78 1211.82,150.62 C1211.82,150.54 1211.8,150.46 1211.78,150.4 C1211.7,150.32 1211.6,150.26 1211.46,150.22 C1211.38,150.22 1211.3,150.24 1211.24,150.28 C1211.24,150.28 1211.22,150.3 1211.2,150.3 C1211.28,150.02 1211.36,149.74 1211.4,149.46 C1211.4,148.52 1211,147.88 1210.24,147.52 C1209.68,147.32 1209.06,147.22 1208.38,147.22 C1207.64,147.22 1206.98,147.32 1206.42,147.48 C1206.16,147.6 1206,147.76 1205.92,147.96 C1205.92,147.96 1205.9,147.94 1205.9,147.92 C1205.76,147.88 1205.62,147.84 1205.5,147.84 C1205.26,147.84 1205.06,147.9 1204.9,148 C1204.68,148.2 1204.58,148.4 1204.58,148.64 C1204.58,148.82 1204.62,148.96 1204.74,149.04 C1205.24,149.64 1205.52,150.26 1205.58,150.9 C1205.64,152.86 1205.76,154.1 1205.96,154.62 C1206.04,154.86 1206.18,154.96 1206.4,154.96 Z M1207.04,152.76 L1207.04,152.48 C1207.04,151 1206.92,149.92 1206.68,149.24 C1206.64,149.16 1206.6,149.08 1206.54,148.98 L1206.62,148.98 L1206.62,148.98 C1207.3,148.78 1207.96,148.66 1208.6,148.64 C1209.36,148.64 1209.84,148.86 1210.06,149.26 C1210.06,149.36 1210.02,149.54 1209.96,149.78 C1209.82,150.22 1209.52,150.86 1209.04,151.66 C1209,151.72 1208.96,151.78 1208.92,151.82 C1208.6,152.02 1208.26,152.2 1207.9,152.36 C1207.66,152.48 1207.36,152.62 1207.04,152.76 Z M1228.62,160.7 C1228.82,160.7 1229.04,160.64 1229.24,160.56 C1229.6,160.28 1229.96,159.98 1230.32,159.66 C1231.2,158.76 1232.02,157.72 1232.74,156.5 C1233.16,155.8 1233.54,155.08 1233.9,154.36 C1233.94,154.48 1234.02,154.6 1234.12,154.72 C1235.08,156.28 1236.26,157.7 1237.66,158.98 C1238.22,159.54 1238.78,160.02 1239.3,160.4 C1239.6,160.54 1239.84,160.62 1240,160.62 L1240.14,160.62 C1240.38,160.52 1240.52,160.34 1240.52,160.08 C1240.52,159.74 1240.34,159.46 1240.02,159.22 C1239.46,158.62 1238.88,158 1238.26,157.36 C1237.16,156.16 1236.24,154.96 1235.48,153.8 C1235.26,153.52 1235.06,153.24 1234.9,152.98 C1234.82,152.92 1234.7,152.88 1234.58,152.84 C1234.68,152.62 1234.78,152.38 1234.88,152.14 C1235.82,149.78 1236.52,147.44 1237,145.14 C1237.14,144.34 1237.22,143.8 1237.22,143.52 C1237.18,143.18 1236.98,142.96 1236.6,142.88 C1236.2,142.88 1235.98,143.04 1235.9,143.32 C1235.76,143.96 1235.62,144.6 1235.48,145.28 C1234.48,149.76 1232.96,153.6 1230.96,156.82 C1230.3,157.82 1229.5,158.78 1228.56,159.72 C1228.32,159.9 1228.2,160.06 1228.2,160.2 C1228.22,160.52 1228.36,160.68 1228.62,160.7 Z M1224.56,158.2 C1225.12,158.16 1225.7,157.9 1226.3,157.38 C1227.92,155.98 1229.04,154.48 1229.66,152.88 L1229.72,152.98 L1229.72,152.98 C1230.1,153.62 1230.42,154.12 1230.68,154.46 C1230.88,154.7 1231.06,154.8 1231.24,154.8 C1231.62,154.8 1231.82,154.58 1231.82,154.14 C1231.78,153.74 1231.62,153.26 1231.36,152.74 C1230.24,150.62 1229.4,149.32 1228.84,148.82 C1228.74,148.76 1228.62,148.72 1228.48,148.68 C1228.4,148.68 1228.32,148.66 1228.24,148.66 C1228.08,148.7 1227.92,148.76 1227.8,148.86 C1227.64,149.02 1227.54,149.2 1227.52,149.38 L1227.52,149.58 C1227.52,149.72 1227.56,149.84 1227.64,149.94 C1228,150.42 1228.38,150.92 1228.74,151.44 C1228.66,151.52 1228.58,151.64 1228.5,151.84 C1228.3,152.48 1228.06,153 1227.8,153.42 C1226.94,154.86 1226.04,155.92 1225.12,156.6 C1225.2,154.82 1225.26,153.28 1225.26,152 C1225.26,148.98 1224.98,146.98 1224.44,146 C1224.24,145.82 1224.04,145.72 1223.8,145.72 C1223.4,145.74 1223.14,145.94 1223.06,146.3 L1223.06,146.58 C1223.08,147.02 1223.16,147.48 1223.32,147.92 C1223.62,148.86 1223.78,149.98 1223.78,151.3 C1223.7,152.86 1223.66,154.42 1223.66,155.94 L1223.66047,156.373469 C1223.66163,156.710204 1223.66571,156.985714 1223.68,157.2 C1223.78,157.8 1224.08,158.12 1224.56,158.2 Z M1244.38,154.1 C1244.52,154.1 1244.66,154.02 1244.82,153.86 C1245.18,153.56 1245.58,153.18 1246.04,152.72 C1247.72,150.96 1249.1,149.22 1250.18,147.5 C1250.66,146.82 1251.06,146.18 1251.38,145.56 C1251.38,146.08 1251.4,146.7 1251.4,147.42 C1251.4,147.66 1251.38,148.18 1251.34,148.98 C1251.32,149.56 1251.32,150.02 1251.32,150.34 C1251.32,150.82 1251.5,151.06 1251.86,151.06 C1252.18,151.06 1252.4,150.84 1252.5,150.36 C1252.52,150.16 1252.56,149.9 1252.6,149.62 C1252.62,148.7 1252.64,148 1252.64,147.5 L1252.64,146.02 C1253.54,146.6 1254.38,147.12 1255.14,147.6 L1257.66,149 C1258.32,149.4 1258.82,149.64 1259.14,149.76 C1259.18,149.78 1259.24,149.8 1259.32,149.8 C1259.64,149.8 1259.8,149.64 1259.8,149.32 C1259.78,149.18 1259.72,149.04 1259.6,148.92 C1259.46,148.8 1259.32,148.7 1259.18,148.58 C1258.64,148.24 1257.94,147.82 1257.1,147.3 C1255.5,146.26 1254.3,145.5 1253.52,145 C1253.4,144.92 1253.26,144.84 1253.12,144.76 C1254.24,144.48 1255.26,144.14 1256.14,143.78 C1256.3,143.7 1256.44,143.6 1256.56,143.44 C1256.62,143.32 1256.66,143.22 1256.66,143.1 C1256.66,143.02 1256.56,142.92 1256.4,142.8 C1256.24,142.74 1256.08,142.7 1255.94,142.7 C1255.78,142.74 1255.6,142.8 1255.36,142.88 C1254.38,143.18 1253.44,143.42 1252.56,143.62 C1252.54,143.24 1252.52,142.88 1252.5,142.54 C1252.46,142.26 1252.4,142.08 1252.3,141.96 C1252.18,141.8 1252.04,141.72 1251.84,141.72 C1251.68,141.72 1251.56,141.76 1251.44,141.82 C1251.18,141.98 1251.06,142.18 1251.06,142.44 C1251.16,142.92 1251.24,143.4 1251.3,143.88 C1251.14,143.92 1251,143.94 1250.86,143.96 C1249.54,144.22 1248.34,144.34 1247.24,144.34 C1247.06,144.34 1246.9,144.34 1246.78,144.32 C1246.42,144.52 1246.22,144.72 1246.16,144.96 L1246.16,145.26 C1246.16,145.64 1246.34,145.86 1246.72,145.9 L1247.22,145.9 C1247.74,145.9 1248.3,145.84 1248.86,145.76 C1249.22,145.72 1249.58,145.64 1249.96,145.56 C1249.84,145.72 1249.74,145.9 1249.64,146.08 C1247.72,149.16 1245.9,151.52 1244.2,153.18 C1244.04,153.36 1243.96,153.54 1243.96,153.72 C1243.98,153.96 1244.12,154.1 1244.38,154.1 Z M1249.62,158.96 C1249.68,158.96 1249.78,158.92 1249.9,158.86 C1250.9,158.7 1251.92,158.48 1252.98,158.18 C1253.9,157.9 1254.66,157.64 1255.26,157.36 C1255.42,157.18 1255.5,157 1255.52,156.8 L1255.52,156.68 C1255.82,156.28 1256.08,155.82 1256.32,155.34 C1256.6,154.74 1256.74,154.14 1256.78,153.52 C1256.78,153.16 1256.72,152.86 1256.6,152.58 C1256.4,152.2 1256.12,151.92 1255.76,151.74 C1255.28,151.5 1254.72,151.38 1254.1,151.38 C1253.06,151.38 1252.08,151.52 1251.12,151.78 C1250.46,151.98 1249.86,152.2 1249.34,152.46 C1249.3,152.36 1249.28,152.26 1249.26,152.18 C1249.14,151.98 1249,151.84 1248.82,151.74 C1248.7,151.72 1248.56,151.7 1248.4,151.7 C1248.22,151.7 1248.08,151.8 1247.96,151.96 C1247.84,152.1 1247.76,152.24 1247.72,152.38 C1247.98,153.28 1248.3,154.42 1248.68,155.78 C1248.88,156.74 1249.02,157.54 1249.06,158.18 C1249.06,158.22 1249.06,158.3 1249.1,158.4 C1249.14,158.5 1249.18,158.6 1249.24,158.72 C1249.34,158.88 1249.46,158.96 1249.62,158.96 Z M1250.14,157.5 C1250.1,157.22 1250.06,156.8 1250,156.26 C1250.12,156.26 1250.24,156.24 1250.38,156.2 C1251.3,155.94 1252.2,155.66 1253.08,155.34 C1253.54,155.2 1253.9,155.04 1254.14,154.88 C1254.3,154.72 1254.38,154.56 1254.38,154.36 C1254.36,154.24 1254.28,154.14 1254.16,154.06 C1254.06,154 1253.94,153.96 1253.82,153.96 C1253.7,153.96 1253.5,154.02 1253.2,154.14 C1252.32,154.5 1251.26,154.8 1250.02,155.08 C1249.96,155.12 1249.9,155.14 1249.84,155.14 C1249.8,155.04 1249.76,154.92 1249.76,154.8 C1249.7,154.48 1249.66,154.14 1249.62,153.82 C1251.34,153.06 1252.9,152.68 1254.28,152.68 C1254.94,152.68 1255.28,152.92 1255.28,153.36 C1255.28,153.6 1255.22,153.96 1255.1,154.44 C1254.92,155.12 1254.58,155.82 1254.1,156.56 C1254.04,156.58 1253.96,156.6 1253.86,156.62 C1253.02,156.88 1252.08,157.12 1251.04,157.34 C1250.78,157.4 1250.48,157.46 1250.14,157.5 Z M1247.18,161.88 C1247.3,161.88 1247.6,161.84 1248.06,161.76 C1248.86,161.62 1249.68,161.5 1250.56,161.4 C1252.14,161.18 1253.62,161 1254.98,160.86 C1256.78,160.58 1257.96,160.3 1258.56,160.04 C1258.78,159.92 1258.9,159.7 1258.9,159.38 C1258.9,159.2 1258.8,159.06 1258.62,158.98 C1258.5,158.94 1258.36,158.94 1258.24,158.94 C1258,158.94 1257.6,159 1257.04,159.1 C1255.6,159.26 1254.36,159.42 1253.36,159.54 C1251.68,159.74 1250.38,159.9 1249.44,160 C1248.22,160.1 1247.38,160.24 1246.9,160.4 C1246.68,160.5 1246.56,160.64 1246.56,160.84 C1246.54,160.94 1246.54,161.04 1246.54,161.14 C1246.56,161.3 1246.62,161.46 1246.7,161.62 C1246.84,161.78 1247,161.86 1247.18,161.88 Z M1265.86,156.6 C1266.02,156.6 1266.22,156.54 1266.42,156.4 C1266.66,156.16 1267,155.74 1267.42,155.14 C1267.82,154.54 1268.2,153.94 1268.58,153.34 C1269.12,152.46 1269.7,151.46 1270.34,150.36 C1270.38,150.3 1270.42,150.22 1270.5,150.12 C1271.02,149.98 1271.58,149.84 1272.14,149.68 C1275.12,148.9 1276.96,148.22 1277.68,147.64 C1277.88,147.44 1278,147.24 1278,147.04 C1278,146.96 1277.96,146.88 1277.92,146.82 C1277.84,146.68 1277.7,146.6 1277.5,146.6 C1276.16,147.08 1274.26,147.6 1271.82,148.18 C1271.72,148.2 1271.62,148.22 1271.5,148.24 C1271.86,147.54 1272.18,146.9 1272.42,146.32 C1272.96,146.2 1273.5,146.08 1274.06,145.94 C1274.7,145.78 1275.2,145.62 1275.54,145.46 C1275.74,145.26 1275.84,145.04 1275.84,144.8 C1275.82,144.68 1275.72,144.54 1275.56,144.42 C1275.44,144.36 1275.3,144.32 1275.14,144.32 C1274.98,144.32 1274.7,144.38 1274.3,144.48 C1273.9,144.6 1273.46,144.7 1273,144.78 C1273.18,144.24 1273.28,143.84 1273.28,143.58 C1273.28,143.5 1273.26,143.42 1273.26,143.34 C1273.3,143.34 1273.38,143.32 1273.46,143.28 C1274.06,143.12 1274.54,142.92 1274.9,142.7 C1275.06,142.58 1275.2,142.42 1275.32,142.22 C1275.32,142.12 1275.34,142.02 1275.34,141.9 C1275.26,141.68 1275,141.56 1274.6,141.56 C1272.24,142.12 1270.84,142.38 1270.36,142.38 C1269.98,142.46 1269.8,142.68 1269.8,143.08 C1269.8,143.64 1269.98,143.9 1270.38,143.9 C1270.88,143.86 1271.4,143.78 1271.94,143.66 C1271.8,144.1 1271.64,144.6 1271.46,145.12 C1270.94,145.2 1270.38,145.3 1269.8,145.4 C1269.58,145.44 1269.4,145.46 1269.28,145.5 C1269.04,145.66 1268.92,145.84 1268.92,146.02 C1268.92,146.42 1269.1,146.7 1269.5,146.88 L1269.66,146.88 C1269.88,146.88 1270.08,146.84 1270.28,146.8 C1270.44,146.78 1270.62,146.74 1270.78,146.68 C1270.52,147.24 1270.24,147.82 1269.96,148.4 C1269.92,148.48 1269.86,148.56 1269.82,148.66 C1268.74,148.9 1267.66,149.14 1266.56,149.34 C1266.2,149.44 1265.92,149.52 1265.7,149.6 C1265.3,149.8 1265.12,150.02 1265.12,150.26 C1265.16,150.82 1265.38,151.1 1265.78,151.1 C1265.98,151.1 1266.24,151.08 1266.56,151.02 C1266.74,151 1267.06,150.94 1267.5,150.86 C1267.88,150.78 1268.28,150.68 1268.7,150.56 L1267.56,152.48 L1267.56,152.48 C1266.98,153.4 1266.54,154.14 1266.22,154.74 C1265.98,155.14 1265.82,155.48 1265.74,155.8 C1265.64,156 1265.6,156.16 1265.6,156.28 C1265.6,156.44 1265.68,156.54 1265.86,156.6 Z M1271.96,161.62 C1272.42,161.6 1272.92,161.56 1273.46,161.48 C1274.68,161.28 1275.62,161.08 1276.28,160.9 C1276.36,160.96 1276.48,161 1276.64,161 C1276.92,160.98 1277.16,160.86 1277.36,160.62 C1277.52,160.4 1277.62,160.16 1277.62,159.92 C1277.54,157.98 1277.48,156.24 1277.42,154.72 C1277.38,153.96 1277.32,153.3 1277.26,152.76 C1277.18,152.08 1277.08,151.56 1276.94,151.24 C1276.72,150.86 1276.44,150.66 1276.12,150.62 L1275.58,150.62 C1274.54,150.64 1273.58,150.74 1272.74,150.94 L1272.74,150.9 C1272.7,150.46 1272.52,150.22 1272.16,150.18 L1271.7,150.18 C1271.36,150.28 1271.2,150.52 1271.2,150.9 L1271.2,151.72 C1271.18,152.68 1271.1,154.14 1270.98,156.06 C1270.82,158.22 1270.74,159.48 1270.74,159.86 C1270.74,160.14 1270.74,160.34 1270.76,160.46 C1270.8,160.62 1270.88,160.76 1271.02,160.88 C1271.04,161.02 1271.12,161.16 1271.28,161.32 C1271.46,161.52 1271.68,161.62 1271.96,161.62 Z M1272.4,155.04 C1272.46,154.44 1272.52,153.88 1272.58,153.32 L1272.64,152.5 C1273.68,152.18 1274.62,152.02 1275.44,152.02 C1275.6,152.02 1275.74,152.18 1275.82,152.46 C1275.92,152.74 1276,153.32 1276.04,154.24 C1275.92,154.16 1275.82,154.12 1275.72,154.1 C1275.52,154.1 1275.26,154.14 1274.94,154.22 C1273.84,154.54 1273,154.82 1272.4,155.04 Z M1272.22,157.6 C1272.26,157.12 1272.28,156.66 1272.32,156.2 L1272.6325,156.0825 C1272.76,156.035 1272.91,155.98 1273.08,155.92 C1274.28,155.48 1275.2,155.14 1275.84,154.88 C1275.92,154.86 1275.98,154.82 1276.06,154.74 C1276.06,155.26 1276.08,155.88 1276.08,156.6 L1276.04,156.6 C1275.86,156.64 1275.62,156.7 1275.3,156.8 C1274.46,157.06 1273.74,157.26 1273.16,157.38 C1272.96,157.42 1272.64,157.5 1272.22,157.6 Z M1272.06,160.02 C1272.06,159.94 1272.08,159.86 1272.08,159.78 C1272.08,159.48 1272.1,159.14 1272.14,158.76 C1272.22,158.76 1272.38,158.72 1272.6,158.66 C1273.24,158.52 1273.98,158.28 1274.78,157.96 C1275.26,157.8 1275.7,157.6 1276.08,157.36 C1276.08,158.06 1276.1,158.74 1276.1,159.38 L1276.1,159.6 L1276.08,159.6 C1275.2,159.74 1274.2,159.86 1273.04,159.94 C1272.7,159.98 1272.38,160 1272.06,160.02 Z M1292.96,149 C1293.48,148.98 1293.88,148.76 1294.12,148.36 C1295.2,146.34 1295.94,144.96 1296.32,144.24 C1296.56,146.7 1297.18,147.92 1298.22,147.92 C1298.66,147.92 1299.16,147.78 1299.72,147.5 C1300.28,147.16 1300.8,146.7 1301.24,146.1 C1301.34,145.92 1301.4,145.72 1301.4,145.5 C1301.3,145.18 1301.14,145 1300.92,145 C1300.8,145 1300.68,145.06 1300.54,145.18 C1299.38,146.06 1298.7,146.48 1298.54,146.48 C1298.4,146.46 1298.26,146.32 1298.1,146.06 C1297.84,145.6 1297.7,145.02 1297.68,144.34 C1297.64,143.9 1297.64,143.48 1297.64,143.1 C1297.62,142.92 1297.58,142.76 1297.52,142.64 C1297.4,142.44 1297.2,142.34 1296.96,142.34 C1296.76,142.34 1296.52,142.44 1296.28,142.64 C1295.86,143.06 1295.34,143.72 1294.74,144.64 C1294.34,145.28 1293.98,145.86 1293.66,146.38 C1293.62,145.48 1293.58,144.74 1293.5,144.14 C1293.3,143.84 1293.04,143.68 1292.74,143.68 C1292.48,143.7 1292.28,143.8 1292.16,143.98 C1292.06,144.14 1292.02,144.3 1292.02,144.48 C1292.04,144.72 1292.14,144.92 1292.3,145.08 C1292.3,147.7 1292.52,149 1292.96,149 Z M1287.94,159.76 C1288.5,159.76 1288.78,159.46 1288.78,158.9 C1288.7,158.22 1288.64,157.5 1288.58,156.66 C1288.52,155.86 1288.48,154.98 1288.44,154 L1289.52,153.3 C1290.56,152.66 1291.16,152.22 1291.32,151.98 C1291.38,151.9 1291.42,151.8 1291.44,151.72 C1291.44,151.56 1291.4,151.44 1291.32,151.36 C1291.24,151.28 1291.16,151.22 1291.04,151.22 C1290.96,151.22 1290.86,151.26 1290.72,151.3 C1289.94,151.64 1289.16,152.04 1288.4,152.5 C1288.4,152.02 1288.38,151.5 1288.38,150.94 C1288.34,149.86 1288.34,148.68 1288.34,147.4 C1288.40667,147.386667 1288.47333,147.364444 1288.54593,147.339259 L1288.66,147.3 C1289.48,147.02 1290.2,146.74 1290.8,146.42 C1291,146.34 1291.16,146.22 1291.28,146.06 C1291.36,145.92 1291.42,145.8 1291.42,145.7 C1291.42,145.58 1291.3,145.44 1291.1,145.3 C1290.9,145.22 1290.74,145.18 1290.6,145.18 C1290.5,145.22 1290.38,145.28 1290.22,145.32 C1289.58,145.6 1288.96,145.82 1288.36,145.98 C1288.36,145.46 1288.4,144.92 1288.46,144.36 C1288.46,143.96 1288.2,143.74 1287.72,143.74 C1287.28,143.74 1287.04,143.98 1286.98,144.44 C1286.94,145.04 1286.92,145.68 1286.92,146.32 C1286.4,146.44 1285.92,146.48 1285.46,146.48 C1285.28,146.48 1285.12,146.48 1284.98,146.44 C1284.62,146.62 1284.42,146.84 1284.36,147.1 L1284.36,147.44 C1284.36,147.82 1284.54,148.04 1284.94,148.1 L1285.22,148.1 C1285.56,148.08 1285.9,148.04 1286.26,147.96 C1286.46,147.92 1286.7,147.88 1286.94,147.82 C1286.94,148.82 1286.94,149.84 1286.96,150.88 C1286.96,151.74 1287,152.56 1287.04,153.34 C1285.8,154.08 1284.94,154.7 1284.5,155.22 C1284.12,155.54 1283.94,155.76 1283.94,155.88 C1283.94,156.2 1284.12,156.5 1284.5,156.8 C1284.92,157.16 1285.36,157.56 1285.84,158 C1286.88,159.14 1287.58,159.72 1287.94,159.76 Z M1301.9,160.92 C1302.18,160.92 1302.34,160.78 1302.38,160.52 C1302.38,160.32 1302.32,160.18 1302.22,160.06 C1300.32,159.14 1298.72,158.18 1297.44,157.16 C1297.2,156.98 1296.98,156.78 1296.76,156.56 C1296.96,156.28 1297.16,156 1297.38,155.68 C1297.98,154.8 1298.48,153.94 1298.88,153.08 C1299.32,152.12 1299.56,151.34 1299.56,150.76 C1299.56,150.36 1299.46,150.06 1299.3,149.86 C1299.06,149.6 1298.82,149.46 1298.56,149.46 L1298.28,149.46 C1297.92,149.46 1296.96,149.74 1295.36,150.28 C1294,150.72 1293.14,151.06 1292.76,151.26 C1292.6,151.46 1292.54,151.66 1292.54,151.88 C1292.54,152.08 1292.58,152.26 1292.7,152.38 C1292.82,152.54 1292.98,152.62 1293.16,152.62 C1293.24,152.62 1293.38,152.58 1293.56,152.46 C1295.22,151.86 1296.74,151.36 1298.14,150.92 C1297.86,152.06 1297.22,153.42 1296.24,155.02 C1296.1,155.22 1295.96,155.42 1295.8,155.6 C1295.52,155.32 1295.24,155 1295,154.66 C1294.66,154.18 1294.4,153.84 1294.22,153.68 C1294.02,153.4 1293.76,153.24 1293.44,153.24 C1293.04,153.28 1292.78,153.48 1292.7,153.84 C1292.7,153.92 1292.74,154.04 1292.86,154.24 C1293.42,155.22 1294.08,156.1 1294.88,156.88 C1294.56,157.28 1294.26,157.62 1294.02,157.92 C1293.5,158.46 1292.98,158.92 1292.48,159.32 C1292.28,159.52 1292.18,159.68 1292.18,159.82 C1292.18,159.98 1292.22,160.08 1292.32,160.16 C1292.4,160.26 1292.52,160.32 1292.68,160.32 C1292.88,160.32 1293.1,160.22 1293.38,160.06 C1293.86,159.72 1294.34,159.28 1294.84,158.76 C1295.16,158.44 1295.48,158.08 1295.8,157.72 C1296.42,158.24 1297.1,158.74 1297.86,159.18 C1298.42,159.52 1299.04,159.84 1299.7,160.12 C1300.4,160.42 1300.96,160.62 1301.36,160.74 C1301.56,160.86 1301.74,160.92 1301.9,160.92 Z M1287.28,157.64 C1286.62,157.26 1286.06,156.74 1285.58,156.08 C1285.98,155.72 1286.48,155.32 1287.12,154.9 C1287.12,155.16 1287.14,155.42 1287.16,155.66 C1287.18,156.34 1287.22,157 1287.28,157.64 Z M1316.98,144.42 C1317.22,144.42 1317.46,144.36 1317.7,144.2 C1317.96,144.04 1318.1,143.8 1318.1,143.52 C1318.1,143.3 1318,143.18 1317.82,143.14 C1316.86,142.98 1316.2,142.84 1315.84,142.76 C1315.52,142.74 1315.36,142.66 1315.36,142.52 C1315.02,142.56 1314.74,142.68 1314.54,142.9 C1314.38,143.06 1314.3,143.18 1314.3,143.26 C1314.3,143.68 1314.44,143.92 1314.76,143.98 C1315.54,144.28 1316.28,144.42 1316.98,144.42 Z M1313.34,148.6 C1313.74,148.58 1314.16,148.52 1314.58,148.44 C1315.58,148.18 1316.54,147.84 1317.46,147.42 C1318.42,147.02 1319.28,146.56 1320.02,146.08 C1320.22,146 1320.4,145.86 1320.52,145.7 C1320.64,145.54 1320.7,145.4 1320.7,145.26 C1320.7,145.12 1320.56,144.98 1320.32,144.86 C1320.12,144.76 1319.94,144.7 1319.76,144.7 C1319.64,144.78 1319.5,144.86 1319.34,144.96 C1318.18,145.64 1317.1,146.14 1316.12,146.5 C1315.18,146.82 1314.32,146.98 1313.52,146.98 C1313.34,146.98 1313.18,146.98 1313.06,146.96 C1312.7,147.16 1312.48,147.38 1312.42,147.62 L1312.42,147.96 C1312.42,148.34 1312.6,148.56 1312.98,148.6 L1313.34,148.6 Z M1309.24,147.66 C1310.12,147.66 1310.58,147.46 1310.64,147.06 C1310.64,146.86 1310.48,146.72 1310.16,146.64 L1306.24,145.68 C1305.86,145.72 1305.66,145.92 1305.64,146.28 C1305.64,146.66 1305.76,146.88 1306,146.96 C1307.4,147.44 1308.48,147.66 1309.24,147.66 Z M1317.2,156.34 C1317.56,156.34 1317.82,156.1 1317.94,155.58 C1318.06,155.22 1318.16,154.7 1318.22,153.98 C1318.28,153.34 1318.32,152.66 1318.32,151.94 C1318.44,151.9 1318.58,151.84 1318.74,151.74 C1319.38,151.4 1319.88,151.08 1320.2,150.76 C1320.38,150.56 1320.48,150.36 1320.48,150.14 C1320.46,150.02 1320.38,149.9 1320.22,149.78 C1320.1,149.7 1319.96,149.66 1319.8,149.66 C1319.64,149.66 1319.36,149.8 1318.96,150.04 C1318.72,150.16 1318.48,150.3 1318.22,150.44 C1318.16,149.8 1318.06,149.26 1317.92,148.8 C1317.78,148.42 1317.56,148.22 1317.26,148.22 C1317.06,148.22 1316.88,148.28 1316.74,148.38 C1316.5,148.52 1316.4,148.72 1316.4,148.96 C1316.4,149.08 1316.44,149.28 1316.56,149.56 C1316.6,149.88 1316.66,150.2 1316.7,150.52 C1316.72,150.74 1316.74,150.94 1316.78,151.14 C1316.1,151.46 1315.34,151.76 1314.52,152.04 C1314.28,152.08 1314.12,152.16 1314,152.24 C1313.76,152.4 1313.64,152.58 1313.64,152.78 C1313.64,153.16 1313.82,153.44 1314.22,153.64 L1314.4,153.64 C1314.6,153.6 1314.8,153.54 1314.98,153.44 C1315.62,153.2 1316.24,152.94 1316.88,152.62 L1316.88,152.68 C1316.88,153.18 1316.84,153.84 1316.8,154.64 C1316.72,155.1 1316.66,155.46 1316.62,155.72 C1316.62,156.14 1316.8,156.34 1317.2,156.34 Z M1305.32,152.24 C1305.44,152.24 1305.64,152.2 1305.88,152.1 C1306.54,151.98 1307.28,151.74 1308.08,151.38 C1308.68,151.14 1309.18,150.88 1309.6,150.58 C1309.8,150.32 1309.9,150.14 1309.9,150.02 C1309.9,149.92 1309.88,149.82 1309.86,149.74 C1309.8,149.62 1309.68,149.54 1309.48,149.54 C1309.38,149.54 1309.28,149.56 1309.16,149.58 C1309,149.62 1308.76,149.68 1308.42,149.8 C1307.6,150.08 1306.9,150.3 1306.34,150.44 C1306.08,150.52 1305.72,150.62 1305.24,150.72 C1304.86,150.86 1304.66,151.06 1304.66,151.3 C1304.66,151.6 1304.72,151.82 1304.84,151.98 C1304.96,152.16 1305.12,152.24 1305.32,152.24 Z M1305.12,158.4 C1305.26,158.4 1305.44,158.36 1305.64,158.32 C1306.12,158.18 1306.66,157.9 1307.3,157.42 C1308.36,156.66 1309.26,155.76 1310.02,154.7 C1310.24,154.34 1310.36,154.06 1310.36,153.84 C1310.32,153.58 1310.18,153.44 1309.92,153.42 C1309.78,153.46 1309.56,153.6 1309.28,153.86 C1308.22,154.82 1307.3,155.56 1306.54,156.04 C1306.22,156.24 1305.82,156.46 1305.34,156.68 C1304.9,156.92 1304.62,157.12 1304.54,157.3 C1304.46,157.4 1304.44,157.54 1304.44,157.72 C1304.52,158.16 1304.74,158.4 1305.12,158.4 Z M1311.32,159.02 C1311.42,159.02 1311.6,159 1311.86,158.96 C1312.86,158.64 1314,158.36 1315.28,158.16 C1316.76,157.9 1318.14,157.76 1319.38,157.76 C1320.24,157.76 1320.92,157.78 1321.4,157.82 C1321.96,157.86 1322.36,157.9 1322.6,157.92 C1323.04,157.84 1323.26,157.58 1323.26,157.16 C1323.26,156.8 1323.02,156.58 1322.54,156.5 C1321.84,156.4 1320.84,156.34 1319.56,156.34 C1318.62,156.34 1317.58,156.4 1316.46,156.52 C1315.66,156.56 1314.82,156.66 1313.94,156.82 C1312.94,157 1312.08,157.2 1311.34,157.44 C1310.82,157.6 1310.58,157.86 1310.58,158.24 C1310.6,158.4 1310.68,158.58 1310.82,158.76 C1310.98,158.92 1311.16,159.02 1311.32,159.02 Z M1326.14,158.3 C1326.24,158.3 1326.32,158.28 1326.4,158.26 L1326.62,158.04 L1326.62,158.04 C1326.82,157.8 1327.06,157.48 1327.3,157.08 C1327.74,156.46 1328.22,155.76 1328.7,155 C1329.18,154.24 1329.64,153.4 1330.04,152.48 C1330.64,151.14 1331.14,149.92 1331.5,148.84 C1331.82,148.68 1332.14,148.52 1332.48,148.36 C1333.44,147.84 1334.18,147.32 1334.68,146.84 C1334.84,146.66 1334.94,146.46 1334.94,146.22 C1334.92,146.1 1334.84,145.98 1334.7,145.86 C1334.56,145.8 1334.42,145.76 1334.26,145.76 C1334.02,145.76 1333.62,145.96 1333.02,146.34 C1332.72,146.54 1332.42,146.72 1332.1,146.88 C1332.12,146.74 1332.14,146.62 1332.14,146.5 C1332.14,146.22 1332,146.02 1331.72,145.9 C1331.68,145.88 1331.6,145.86 1331.48,145.86 C1331.18,145.86 1330.98,146 1330.88,146.24 C1330.72,146.68 1330.52,147.22 1330.32,147.84 C1330.16,147.9 1330.02,147.96 1329.9,148.02 C1329.96,147.42 1330,146.76 1330.02,146 C1330.02,145.62 1330,145.26 1329.98,144.9 C1330.12,144.82 1330.28,144.74 1330.46,144.66 C1331.32,144.22 1332.02,143.78 1332.58,143.34 C1332.74,143.14 1332.82,142.96 1332.84,142.78 C1332.84,142.66 1332.82,142.56 1332.8,142.48 C1332.68,142.32 1332.54,142.24 1332.34,142.22 C1332.22,142.22 1332.12,142.24 1332.04,142.28 C1331.92,142.32 1331.66,142.48 1331.22,142.76 C1330.74,142.98 1330.26,143.2 1329.74,143.42 C1329.6,142.92 1329.44,142.52 1329.24,142.2 C1329,141.8 1328.8,141.58 1328.6,141.58 C1328.42,141.58 1328.24,141.68 1328.08,141.88 C1327.92,142.04 1327.84,142.24 1327.84,142.46 C1327.84,142.58 1327.88,142.84 1328,143.2 C1328.12,143.44 1328.22,143.68 1328.34,143.96 C1327.98,144.08 1327.54,144.24 1327.06,144.4 C1326.82,144.52 1326.68,144.7 1326.68,144.9 C1326.68,145.2 1326.74,145.44 1326.86,145.6 C1326.98,145.78 1327.12,145.86 1327.28,145.86 C1327.34,145.86 1327.44,145.84 1327.6,145.78 C1327.9,145.7 1328.24,145.6 1328.6,145.46 C1328.64,145.84 1328.66,146.24 1328.66,146.66 C1328.66,147.34 1328.6,148.02 1328.52,148.66 C1327.84,148.96 1327.12,149.26 1326.36,149.56 C1326.04,149.68 1325.78,149.78 1325.58,149.9 C1325.36,150.06 1325.26,150.24 1325.26,150.42 C1325.26,150.82 1325.44,151.1 1325.82,151.28 L1325.98,151.28 C1326.3,151.22 1326.6,151.12 1326.9,151 C1327.78,150.64 1328.68,150.24 1329.58,149.8 C1329.46,150.12 1329.32,150.46 1329.18,150.8 C1328.58,152.18 1327.96,153.46 1327.36,154.66 C1326.92,155.48 1326.6,156.12 1326.36,156.58 C1326.16,156.94 1326.02,157.24 1325.92,157.48 C1325.84,157.6 1325.82,157.74 1325.82,157.9 C1325.86,158.14 1325.96,158.26 1326.14,158.3 Z M1343,159.88 C1343.26,159.8 1343.4,159.64 1343.42,159.36 C1343.42,159.16 1343.36,158.92 1343.28,158.64 C1342.9,158.18 1342.48,157.78 1342.04,157.38 C1341.32,156.82 1340.86,156.44 1340.66,156.24 C1339.86,155.62 1339.16,155 1338.54,154.38 C1339.28,152.74 1339.66,151.12 1339.66,149.48 C1339.66,148.54 1339.6,147.82 1339.52,147.3 C1339.56,147.3 1339.62,147.26 1339.68,147.22 C1340.18,146.96 1340.64,146.68 1341.04,146.36 C1341.24,146.2 1341.4,146.04 1341.52,145.88 C1341.58,145.78 1341.62,145.64 1341.62,145.46 C1341.58,145.1 1341.4,144.86 1341.04,144.78 C1340.96,144.78 1340.88,144.8 1340.84,144.8 C1340.68,144.86 1340.56,144.96 1340.44,145.08 C1339.52,145.88 1338.34,146.42 1336.9,146.66 C1336.94,146.56 1337,146.42 1337.08,146.22 C1337.2,145.9 1337.32,145.54 1337.4,145.18 C1337.52,144.76 1337.6,144.52 1337.6,144.44 L1337.6,144.22 C1337.56,143.86 1337.32,143.66 1336.84,143.62 C1336.54,143.62 1336.32,143.78 1336.2,144.06 C1336.16,144.26 1336.1,144.5 1336.02,144.74 C1335.94,145.02 1335.86,145.34 1335.78,145.66 C1335.66,145.94 1335.54,146.22 1335.46,146.5 C1335.38,146.66 1335.36,146.8 1335.36,146.92 C1335.36,147.6 1335.64,148 1336.24,148.12 C1336.38,148.14 1336.5,148.14 1336.62,148.14 C1337.08,148.14 1337.56,148.04 1338.06,147.88 L1338.12,148.36 C1338.16,148.8 1338.2,149.22 1338.2,149.62 L1338.2,150.22 C1338.1,151.3 1337.88,152.32 1337.54,153.32 C1337.26,153 1336.96,152.62 1336.68,152.22 C1336.32,151.7 1335.96,151.34 1335.64,151.14 C1335.52,151 1335.34,150.92 1335.1,150.92 C1334.78,151 1334.62,151.18 1334.62,151.5 C1334.62,151.76 1334.82,152.2 1335.26,152.82 C1335.7,153.5 1336.24,154.2 1336.88,154.88 L1336.7,155.24 L1336.7,155.24 C1336.12,156.22 1335.54,157.12 1334.94,157.94 C1334.86,158.1 1334.82,158.22 1334.82,158.32 C1334.82,158.58 1334.96,158.74 1335.24,158.82 L1335.52,158.82 C1335.78,158.78 1335.98,158.64 1336.12,158.36 C1336.68,157.72 1337.24,156.88 1337.84,155.8 C1338,155.96 1338.2,156.14 1338.42,156.32 C1339.14,156.96 1339.88,157.58 1340.68,158.18 C1341.26,158.66 1341.84,159.12 1342.44,159.58 C1342.62,159.78 1342.8,159.88 1343,159.88 Z M1332.24,161.16 C1332.72,161.16 1333.02,160.86 1333.18,160.28 C1333.3,159.76 1333.38,159 1333.38,157.96 C1333.36,157.58 1333.32,157.22 1333.28,156.86 C1334.16,156.6 1334.76,156.32 1335.08,156.02 C1335.24,155.94 1335.34,155.76 1335.34,155.52 C1335.34,155.36 1335.26,155.26 1335.12,155.18 C1335.04,155.16 1334.92,155.14 1334.8,155.14 C1334.68,155.16 1334.46,155.22 1334.1,155.3 C1333.66,155.42 1333.24,155.5 1332.86,155.58 C1332.68,155.24 1332.48,154.96 1332.28,154.74 C1332.68,154.06 1332.9,153.52 1332.9,153.12 C1332.9,152.64 1332.7,152.2 1332.3,151.8 C1331.98,151.52 1331.66,151.36 1331.38,151.36 C1330.86,151.4 1330.6,151.64 1330.58,152.1 C1330.58,152.4 1330.7,152.62 1330.96,152.74 C1331.28,152.94 1331.46,153.08 1331.46,153.18 C1331.46,153.32 1331.34,153.58 1331.14,153.94 C1331,154.14 1330.88,154.32 1330.8,154.48 C1330.72,154.64 1330.7,154.76 1330.7,154.88 C1330.7,155.12 1330.76,155.3 1330.9,155.44 C1331.06,155.6 1331.2,155.76 1331.34,155.92 C1330.66,156.08 1330.1,156.18 1329.68,156.26 C1328.96,156.4 1328.48,156.54 1328.2,156.68 C1327.98,156.8 1327.86,156.94 1327.86,157.1 L1327.86,157.4 C1327.86,157.56 1327.92,157.72 1328,157.84 C1328.14,158 1328.3,158.08 1328.46,158.1 C1328.54,158.1 1328.7,158.04 1328.98,157.96 C1329.44,157.84 1329.92,157.7 1330.42,157.56 C1330.98,157.42 1331.52,157.28 1332.04,157.16 C1332.12,157.48 1332.16,157.82 1332.16,158.16 C1332.16,158.78 1332.1,159.24 1332,159.52 L1331.28,159.52 C1331.12,159.4 1331,159.34 1330.88,159.34 C1330.68,159.34 1330.56,159.44 1330.56,159.64 C1330.56,159.76 1330.62,159.9 1330.74,160.08 C1331.36,160.8 1331.86,161.16 1332.24,161.16 Z M1351.48,144.26 C1352.44,144.26 1352.94,144.04 1353.02,143.6 C1353.02,143.4 1352.84,143.24 1352.52,143.14 L1348.86,142.08 C1348.42,142.16 1348.2,142.4 1348.18,142.8 C1348.18,143.24 1348.3,143.52 1348.58,143.62 C1349.82,144.06 1350.78,144.26 1351.48,144.26 Z M1356.38,149.1 C1356.66,149.1 1357.22,148.96 1358.06,148.64 C1358.82,148.36 1359.66,147.98 1360.58,147.52 C1360.94,147.4 1361.18,147.22 1361.34,147.02 C1361.38,146.94 1361.4,146.88 1361.4,146.8 C1361.4,146.8 1361.38,146.76 1361.38,146.7 C1361.46,146.64 1361.56,146.54 1361.66,146.42 C1361.92,146.08 1362.16,145.7 1362.36,145.28 C1362.6,144.8 1362.74,144.34 1362.74,143.9 C1362.74,143.58 1362.6,143.28 1362.36,143.04 C1362.2,142.86 1361.96,142.76 1361.68,142.72 L1361.32,142.72 C1360.98,142.72 1360.58,142.74 1360.12,142.76 C1359.52,142.8 1358.9,142.84 1358.26,142.92 C1357.7,142.98 1357.24,143.04 1356.86,143.1 C1356.84,143.06 1356.82,143 1356.82,142.92 C1356.74,142.72 1356.58,142.56 1356.38,142.48 C1356.26,142.46 1356.14,142.44 1356,142.44 C1355.82,142.44 1355.66,142.54 1355.54,142.7 C1355.42,142.84 1355.34,142.98 1355.32,143.12 C1355.54,143.88 1355.8,144.86 1356.08,146.02 C1356.22,146.62 1356.32,147.16 1356.36,147.64 C1356.2,147.7 1356.04,147.76 1355.92,147.82 C1355.76,147.94 1355.68,148.08 1355.68,148.24 C1355.68,148.38 1355.7,148.52 1355.78,148.64 C1355.84,148.78 1355.92,148.88 1356,148.94 C1356.1,149.06 1356.22,149.1 1356.38,149.1 Z M1357.54,147.22 C1357.5,146.74 1357.4,146.06 1357.26,145.14 C1357.22,144.96 1357.2,144.78 1357.18,144.58 C1357.88,144.44 1358.6,144.32 1359.34,144.2 C1360.12,144.12 1360.7,144.06 1361.1,144.06 C1361.28,144.06 1361.38,144.12 1361.38,144.22 C1361.38,144.34 1361.2,144.7 1360.86,145.28 C1360.58,145.7 1360.32,146.08 1360.04,146.42 C1359.5,146.58 1358.66,146.84 1357.54,147.22 Z M1350.1,161.08 C1350.88,161.06 1351.28,160.6 1351.32,159.72 C1351.26,157.12 1351.2,154.8 1351.16,152.76 C1351.28,152.92 1351.42,153.04 1351.6,153.16 C1352.28,153.82 1352.78,154.14 1353.14,154.14 C1353.28,154.14 1353.4,154.12 1353.5,154.06 C1353.58,154.02 1353.64,153.94 1353.72,153.84 C1353.78,153.76 1353.82,153.66 1353.84,153.56 C1353.84,153.38 1353.78,153.24 1353.66,153.16 C1353.02,152.8 1352.34,152.1 1351.66,151.06 C1351.44,150.78 1351.26,150.56 1351.1,150.4 C1351.08,149.92 1351.06,149.44 1351.06,149 C1352.1,148.6 1352.98,148.14 1353.66,147.62 C1353.86,147.36 1353.98,147.18 1353.98,147.06 C1353.98,146.96 1353.96,146.86 1353.94,146.78 C1353.86,146.66 1353.74,146.6 1353.58,146.6 C1353.46,146.6 1353.36,146.62 1353.24,146.64 C1352.92,146.72 1352.48,146.86 1351.92,147.06 C1351.62,147.18 1351.32,147.3 1351.02,147.4 L1351,146.34 L1351,146.34 C1350.96,145.78 1350.7,145.48 1350.22,145.48 C1349.9,145.52 1349.72,145.7 1349.66,146.06 L1349.66,146.32 C1349.66,146.84 1349.68,147.38 1349.72,147.9 C1349.2,148.1 1348.7,148.26 1348.26,148.4 C1347.82,148.52 1347.18,148.72 1346.34,148.96 C1345.98,149.08 1345.78,149.28 1345.78,149.54 C1345.78,149.84 1345.82,150.06 1345.92,150.2 C1346.06,150.38 1346.22,150.46 1346.42,150.46 C1346.54,150.46 1346.72,150.42 1346.98,150.34 C1347.78,150.18 1348.64,149.94 1349.58,149.58 C1348.74,151.72 1347.72,153.58 1346.54,155.18 C1346.3,155.5 1346.18,155.74 1346.18,155.86 C1346.2,156.22 1346.38,156.4 1346.74,156.4 C1346.84,156.4 1346.96,156.36 1347.08,156.26 C1347.72,155.78 1348.62,154.48 1349.82,152.34 C1349.88,154.9 1349.92,157.38 1349.94,159.78 C1349.62,159.78 1349.32,159.64 1349.08,159.4 C1348.72,159.12 1348.36,159 1348.04,159 C1348.04,160.32 1348.72,161.02 1350.1,161.08 Z M1360.8,151.72 C1361.04,151.62 1361.18,151.44 1361.2,151.2 C1361.2,150.96 1361.1,150.76 1360.92,150.62 C1360.58,150.46 1359.9,150.32 1358.88,150.18 C1358.16,150.1 1357.4,150.06 1356.6,150.02 C1356.28,150.06 1356.08,150.26 1356.04,150.66 C1356.04,151.14 1356.2,151.4 1356.56,151.42 C1358.14,151.48 1359.56,151.58 1360.8,151.72 Z M1353.44,161.18 C1353.56,161.18 1353.72,161.16 1353.94,161.14 C1354.9,160.9 1355.98,160.7 1357.2,160.52 C1358.6,160.3 1359.92,160.2 1361.12,160.2 C1361.72,160.2 1362.22,160.22 1362.58,160.28 C1362.98,160.36 1363.26,160.42 1363.44,160.46 C1363.84,160.38 1364.04,160.14 1364.04,159.78 C1364.04,159.44 1363.82,159.24 1363.4,159.18 C1362.9,159 1362.2,158.92 1361.3,158.92 C1360.54,158.92 1359.72,158.94 1358.86,159 C1358.98,158.6 1359.1,158.1 1359.2,157.54 C1359.32,156.82 1359.4,156.06 1359.44,155.24 C1360.84,154.74 1361.74,154.3 1362.12,153.92 C1362.28,153.76 1362.36,153.58 1362.36,153.42 C1362.36,153.36 1362.34,153.3 1362.32,153.26 C1362.24,153.12 1362.14,153.04 1361.98,153.04 C1361.34,153.28 1360.48,153.56 1359.42,153.84 C1359.4,153.34 1359.38,152.88 1359.36,152.48 C1359.28,152.06 1359.08,151.84 1358.74,151.84 L1358.6,151.84 C1358.18,151.88 1357.96,152.08 1357.94,152.48 C1357.98,153.06 1358,153.64 1358,154.2 C1357.2,154.42 1356.4,154.6 1355.56,154.76 C1355.24,154.88 1354.96,154.96 1354.74,155.02 C1354.38,155.22 1354.22,155.42 1354.22,155.66 C1354.26,156.18 1354.46,156.44 1354.82,156.46 C1355.04,156.46 1355.28,156.44 1355.56,156.38 C1355.68,156.36 1355.86,156.32 1356.14,156.26 C1356.74,156.08 1357.36,155.9 1358.02,155.7 C1358.02,156 1358,156.32 1358,156.64 C1357.92,157.66 1357.8,158.46 1357.6,159.1 C1357.08,159.14 1356.52,159.2 1355.92,159.28 C1355,159.4 1354.18,159.56 1353.46,159.76 C1352.98,159.9 1352.76,160.14 1352.76,160.48 C1352.78,160.64 1352.86,160.8 1353.02,160.96 C1353.14,161.1 1353.28,161.18 1353.44,161.18 Z" id="新手玩家可以查看投注教程"></path>
        </g>
    </g>
</svg>