<?xml version="1.0" encoding="UTF-8"?>
<svg width="60px" height="24px" viewBox="0 0 60 24" version="1.1" xmlns="http://www.w3.org/2000/svg" xmlns:xlink="http://www.w3.org/1999/xlink">
    <!-- Generator: Sketch 61.2 (89653) - https://sketch.com -->
    <title>矩形</title>
    <desc>Created with Sketch.</desc>
    <g id="页面-1" stroke="none" stroke-width="1" fill="none" fill-rule="evenodd">
        <g id="画板" transform="translate(-468.000000, -860.000000)">
            <rect id="矩形" stroke="#979797" fill-opacity="0.2" fill="#000000" x="468.5" y="860.5" width="59" height="23" rx="4"></rect>
            <path d="M524,860 C526.209139,860 528,861.790861 528,864 L528,880 C528,882.209139 526.209139,884 524,884 L472,884 C469.790861,884 468,882.209139 468,880 L468,864 C468,861.790861 469.790861,860 472,860 L524,860 Z M524,861 L472,861 C470.402319,861 469.096339,862.24892 469.005093,863.823727 L469,864 L469,880 C469,881.597681 470.24892,882.903661 471.823727,882.994907 L472,883 L524,883 C525.597681,883 526.903661,881.75108 526.994907,880.176273 L527,880 L527,864 C527,862.402319 525.75108,861.096339 524.176273,861.005093 L524,861 Z" id="矩形" fill="#FFFFFF" fill-rule="nonzero"></path>
            <path d="M482.47,877.03 C483.583333,876.05 484.15,874.5 484.17,872.38 L484.17,872.38 L484.17,867.84 L483.49,867.84 L483.49,872.17 C482.97,872.77 482.376667,873.256667 481.71,873.63 L481.71,873.63 L482.09,874.27 C482.61,873.923333 483.066667,873.513333 483.46,873.04 C483.34,874.606667 482.83,875.78 481.93,876.56 L481.93,876.56 L482.47,877.03 Z M486.5,876.82 C486.826667,876.82 487.07,876.73 487.23,876.55 C487.41,876.336667 487.53,875.736667 487.59,874.75 L487.59,874.75 L486.96,874.55 C486.92,875.343333 486.853333,875.82 486.76,875.98 C486.686667,876.106667 486.556667,876.17 486.37,876.17 L486.37,876.17 L485.93,876.17 C485.736667,876.17 485.64,876.07 485.64,875.87 L485.64,875.87 L485.64,872.62 C486.126667,873.02 486.606667,873.503333 487.08,874.07 L487.08,874.07 L487.49,873.45 C486.936667,872.856667 486.32,872.336667 485.64,871.89 L485.64,871.89 L485.64,867.84 L484.95,867.84 L484.95,876.02 C484.95,876.553333 485.206667,876.82 485.72,876.82 L485.72,876.82 L486.5,876.82 Z M478.62,876.77 C479.78,876.43 480.796667,876.066667 481.67,875.68 L481.67,875.68 L481.67,875.03 C481.356667,875.163333 481.033333,875.29 480.7,875.41 L480.7,875.41 L480.7,873.62 L481.67,873.62 L481.67,872.98 L480.7,872.98 L480.7,871.33 L481.56,871.33 L481.56,868.29 L478.87,868.29 L478.87,871.33 L480.07,871.33 L480.07,875.63 L479.41,875.84 L479.41,872.38 L478.82,872.38 L478.82,876.01 L478.62,876.06 C478.52,876.086667 478.453333,876.106667 478.42,876.12 L478.42,876.12 L478.62,876.77 Z M480.92,870.73 L479.51,870.73 L479.51,868.89 L480.92,868.89 L480.92,870.73 Z M486.27,871.46 C486.716667,870.866667 487.103333,870.17 487.43,869.37 L487.43,869.37 L486.82,869.08 C486.533333,869.826667 486.17,870.493333 485.73,871.08 L485.73,871.08 L486.27,871.46 Z M482.85,871.57 L483.38,871.31 C483.08,870.596667 482.76,869.946667 482.42,869.36 L482.42,869.36 L481.84,869.64 C482.18,870.18 482.516667,870.823333 482.85,871.57 L482.85,871.57 Z M494.98,875.49 C495.586667,875.49 495.89,875.206667 495.89,874.64 L495.89,874.64 L495.89,870.19 L497.31,870.19 L497.31,869.49 L495.89,869.49 L495.89,867.87 L495.15,867.87 L495.15,869.49 L491.5,869.49 L491.5,870.19 L495.15,870.19 L495.15,874.47 C495.15,874.716667 495.01,874.84 494.73,874.84 C494.376667,874.84 493.95,874.823333 493.45,874.79 L493.45,874.79 L493.61,875.49 L494.98,875.49 Z M490.42,870.08 L490.94,869.55 C490.473333,869.016667 489.903333,868.49 489.23,867.97 L489.23,867.97 L488.73,868.44 C489.43,869.006667 489.993333,869.553333 490.42,870.08 L490.42,870.08 Z M493.39,873.44 L493.99,873.02 C493.663333,872.473333 493.196667,871.826667 492.59,871.08 L492.59,871.08 L492.01,871.45 C492.576667,872.156667 493.036667,872.82 493.39,873.44 L493.39,873.44 Z M489.08,877.04 C489.633333,876.106667 490.036667,875.64 490.29,875.64 C490.423333,875.64 490.56,875.723333 490.7,875.89 C491.026667,876.256667 491.396667,876.5 491.81,876.62 C492.216667,876.726667 492.763333,876.786667 493.45,876.8 C494.343333,876.813333 494.963333,876.82 495.31,876.82 L495.31,876.82 L497.42,876.82 L497.6,876.09 C497.413333,876.103333 497.066667,876.116667 496.56,876.13 L496.56,876.13 L495.22,876.14 C494.58,876.14 493.893333,876.133333 493.16,876.12 C492.526667,876.1 492.053333,876.026667 491.74,875.9 C491.453333,875.76 491.18,875.55 490.92,875.27 C490.853333,875.196667 490.766667,875.12 490.66,875.04 L490.66,875.04 L490.66,871.29 L488.53,871.29 L488.53,871.97 L489.97,871.97 L489.97,875 C489.556667,875.173333 489.08,875.693333 488.54,876.56 L488.54,876.56 L489.08,877.04 Z M506.45,877.01 L506.45,867.83 L505.73,867.83 L505.73,877.01 L506.45,877.01 Z M501.33,876.94 C502.423333,876.9 503.04,876.6 503.18,876.04 C503.32,875.52 503.39,874.433333 503.39,872.78 L503.39,872.78 L499.5,872.78 L499.85,871.12 L503.29,871.12 L503.29,868.23 L498.94,868.23 L498.94,868.89 L502.58,868.89 L502.58,870.45 L499.25,870.45 L498.73,873.43 L502.67,873.43 C502.67,874.59 502.613333,875.36 502.5,875.74 C502.38,876.093333 501.936667,876.27 501.17,876.27 C500.956667,876.27 500.636667,876.256667 500.21,876.23 L500.21,876.23 L500.39,876.9 C500.816667,876.926667 501.13,876.94 501.33,876.94 Z M516.25,872.4 C516.67,872.38 516.95,872.223333 517.09,871.93 C517.176667,871.716667 517.243333,871.393333 517.29,870.96 L517.29,870.96 L516.61,870.74 C516.57,871.14 516.516667,871.403333 516.45,871.53 C516.37,871.656667 516.233333,871.723333 516.04,871.73 L516.04,871.73 L510.69,871.73 C510.403333,871.73 510.26,871.586667 510.26,871.3 L510.26,871.3 L510.26,870.6 L515.99,870.6 L515.99,868.22 L509.54,868.22 L509.54,871.56 C509.54,872.12 509.836667,872.4 510.43,872.4 L510.43,872.4 L516.25,872.4 Z M515.27,869.94 L510.26,869.94 L510.26,868.87 L515.27,868.87 L515.27,869.94 Z M514.39,877.03 C514.996667,877.03 515.3,876.75 515.3,876.19 L515.3,876.19 L515.3,874.07 L517.5,874.07 L517.5,873.37 L515.3,873.37 L515.3,872.74 L514.58,872.74 L514.58,873.37 L508.49,873.37 L508.49,874.07 L514.58,874.07 L514.58,876.01 C514.58,876.25 514.433333,876.37 514.14,876.37 C513.813333,876.37 513.416667,876.353333 512.95,876.32 L512.95,876.32 L513.11,877.03 L514.39,877.03 Z M511.94,876.48 L512.48,875.94 C511.993333,875.393333 511.43,874.87 510.79,874.37 L510.79,874.37 L510.28,874.86 C511,875.446667 511.553333,875.986667 511.94,876.48 L511.94,876.48 Z" id="跳过引导" fill="#FFFFFF" fill-rule="nonzero"></path>
        </g>
    </g>
</svg>