<?xml version="1.0" encoding="UTF-8"?>
<svg width="18px" height="18px" viewBox="0 0 18 18" version="1.1" xmlns="http://www.w3.org/2000/svg" xmlns:xlink="http://www.w3.org/1999/xlink">
    <!-- Generator: Sketch 61.2 (89653) - https://sketch.com -->
    <title>编组 5</title>
    <desc>Created with Sketch.</desc>
    <g id="页面-1" stroke="none" stroke-width="1" fill="none" fill-rule="evenodd">
        <g id="画板" transform="translate(-17.000000, -31.000000)">
            <g id="编组-5" transform="translate(17.000000, 31.000000)">
                <rect id="矩形" x="0" y="0" width="18" height="18"></rect>
                <path d="M15.1814978,2.45863513 C13.5221602,0.89007864 11.3299462,0 9,0 C4.02943725,0 0,4.02943725 0,9 C0,13.9705627 4.02943725,18 9,18 C13.9705627,18 18,13.9705627 18,9 C18,7.86922644 17.7910237,6.76615993 17.3887584,5.73371553 C17.2383818,5.3477625 16.8036007,5.15679008 16.4176477,5.3071667 C16.0316946,5.45754332 15.8407222,5.89232441 15.9910988,6.27827745 C16.3259978,7.13782124 16.5,8.05627914 16.5,9 C16.5,13.1421356 13.1421356,16.5 9,16.5 C4.85786438,16.5 1.5,13.1421356 1.5,9 C1.5,4.85786438 4.85786438,1.5 9,1.5 C10.9428697,1.5 12.7675361,2.24084765 14.151075,3.54869423 C14.4520865,3.83323763 14.9267726,3.81988759 15.211316,3.51887608 C15.4958594,3.21786457 15.4825093,2.74317852 15.1814978,2.45863513 Z" id="路径" fill="#5FB672" fill-rule="nonzero"></path>
                <path d="M6.92273415,11.9641577 L4.7430521,9.73564944 C4.42700795,9.4125257 3.90894743,9.406514 3.58549018,9.72221681 C3.26466704,10.0353487 3.25843202,10.5492707 3.57156387,10.8700939 C3.57305083,10.8716173 3.57454377,10.873135 3.57604266,10.8746467 L6.22456176,13.5458483 C6.61122608,13.9358241 7.23987198,13.9415079 7.63352432,13.5585872 L14.4135365,6.96340997 C14.7291353,6.65641494 14.7361101,6.15170291 14.4291151,5.83610411 C14.4243078,5.83116218 14.4194367,5.82628282 14.414503,5.82146726 C14.0886873,5.50345881 13.5688237,5.50294463 13.2423796,5.82030796 L6.92273415,11.9641577 L6.92273415,11.9641577 Z" id="路径" fill="#5FB672" fill-rule="nonzero"></path>
            </g>
        </g>
    </g>
</svg>