<svg width="12" height="12" viewBox="0 0 12 12" fill="none" xmlns="http://www.w3.org/2000/svg">
<path d="M0 0H12V12H6C2.68629 12 0 9.31371 0 6V0Z" fill="url(#paint0_linear_508_144517)"/>
<path d="M7.57924 2.56229C7.61023 2.50084 7.57924 2.40869 7.54825 2.34724C7.39345 2.28578 7.23857 2.25509 7.08376 2.19364C7.02186 2.22433 6.95987 2.28578 6.92896 2.37793L6.65057 3.39175C6.86735 3.4532 7.05315 3.51466 7.23894 3.63749L7.57924 2.56229ZM8.60118 5.60353L9.83991 5.26564C9.80892 5.05058 9.74701 4.83553 9.68511 4.65124L8.44638 4.98913C8.53928 5.17349 8.57027 5.38855 8.60118 5.60353ZM9.09666 3.60673C9.09666 3.60673 9.09666 3.57604 9.12765 3.54527C9.00376 3.39167 8.87987 3.23807 8.75606 3.11516C8.72507 3.11516 8.69416 3.11516 8.66316 3.14585L7.79602 4.00615C7.95083 4.15975 8.10571 4.31335 8.22959 4.49764L9.09666 3.60673ZM8.53928 6.52528C8.26028 7.63109 7.23864 8.46055 6.0309 8.46055C4.60638 8.46055 3.46055 7.32389 3.46055 5.91058C3.46055 4.49726 4.60638 3.36061 6.0309 3.36061V2.04004C3.89412 2.04004 2.15991 3.76033 2.15991 5.88004C2.15991 7.99975 3.89412 9.72004 6.0309 9.72004C7.9509 9.72004 9.53023 8.33764 9.83991 6.52513L8.53928 6.52528ZM5.41154 7.17007L7.36253 5.88004L5.41154 4.59001V7.17007Z" fill="white" stroke="white" stroke-width="0.4" stroke-linejoin="round"/>
<defs>
<linearGradient id="paint0_linear_508_144517" x1="12" y1="6" x2="-0.44365" y2="10.0009" gradientUnits="userSpaceOnUse">
<stop stop-color="#FFB001"/>
<stop offset="1" stop-color="#FF7000"/>
</linearGradient>
</defs>
</svg>
