<?xml version="1.0" encoding="UTF-8"?>
<svg width="60px" height="87px" viewBox="0 0 60 87" version="1.1" xmlns="http://www.w3.org/2000/svg" xmlns:xlink="http://www.w3.org/1999/xlink">
    <!-- Generator: Sketch 61.2 (89653) - https://sketch.com -->
    <title>形状</title>
    <desc>Created with Sketch.</desc>
    <g id="页面-1" stroke="none" stroke-width="1" fill="none" fill-rule="evenodd">
        <g id="画板" transform="translate(-1121.000000, -175.000000)" fill="#FFFFFF" fill-rule="nonzero">
            <path d="M1134.19999,259.401393 C1134.47298,259.359785 1134.66055,259.104753 1134.61895,258.831763 C1134.58196,258.589106 1134.37634,258.413939 1134.13938,258.407232 L1134.04932,258.41281 L1123.98623,259.945826 C1137.41047,245.277015 1146.93301,232.875753 1152.56722,222.705361 C1163.15947,223.750994 1172.12515,208.820109 1179.66653,178.077137 L1180.12647,176.175158 L1179.15374,175.943247 C1171.72466,207.103984 1162.9476,222.312504 1153.08761,221.751778 C1153.6147,220.770844 1154.10461,219.811236 1154.55734,218.872921 C1156.84344,212.822819 1156.6799,208.691138 1154.59238,206.323438 C1153.084,204.612618 1150.54702,204.030959 1148.91225,204.53076 C1146.57082,205.246606 1145.60372,206.03376 1144.94312,207.729735 C1142.45214,214.124861 1145.08609,220.373281 1151.52602,222.526401 C1146.10893,232.215496 1137.10216,244.006003 1124.50737,257.88917 L1122.85721,259.698009 L1123.135,248.956256 C1123.14132,248.710878 1122.96977,248.502236 1122.73769,248.4539 L1122.64805,248.443529 C1122.40268,248.4372 1122.19403,248.608752 1122.1457,248.840832 L1122.13533,248.93047 L1121.83178,260.691646 C1121.82465,260.974626 1122.05157,261.201034 1122.32416,261.20461 L1122.40712,261.198831 L1134.19999,259.401393 Z M1152.0201,221.630185 L1151.95004,221.617982 L1151.95004,221.617982 C1146.00809,219.720326 1143.56339,214.027129 1145.87493,208.092685 C1146.41471,206.706894 1147.1366,206.119321 1149.20462,205.487065 C1150.48134,205.096732 1152.60743,205.584186 1153.84228,206.98477 C1155.64172,209.025717 1155.79035,212.780692 1153.63933,218.478838 C1153.14517,219.50259 1152.60543,220.553043 1152.0201,221.630185 Z" id="形状"></path>
        </g>
    </g>
</svg>