<?xml version="1.0" encoding="UTF-8"?>
<svg width="80px" height="67px" viewBox="0 0 80 67" version="1.1" xmlns="http://www.w3.org/2000/svg" xmlns:xlink="http://www.w3.org/1999/xlink">
    <!-- Generator: Sketch 61.2 (89653) - https://sketch.com -->
    <title>形状结合</title>
    <desc>Created with Sketch.</desc>
    <g id="页面-1" stroke="none" stroke-width="1" fill="none" fill-rule="evenodd">
        <g id="画板" transform="translate(-159.000000, -96.000000)" fill="#FFFFFF" fill-rule="nonzero">
            <path d="M171.15739,96.0053719 C171.428975,95.9651517 171.681389,96.1551251 171.721172,96.4296892 C171.760956,96.7042534 171.573044,96.9594364 171.301459,96.9996566 L171.301459,96.9996566 L161.290226,98.4829195 C178.313815,108.635407 190.969591,117.755138 199.28094,125.873425 C209.244896,121.672532 222.433416,133.955514 239,162.491343 L239,162.491343 L238.142753,163 C222.025202,135.237628 209.262271,123.201167 200.052724,126.636914 C200.83883,127.424718 201.58339,128.202953 202.286425,128.971647 C206.217746,134.114054 207.263022,138.132593 205.966799,141.021242 C205.030192,143.108481 202.787683,144.412821 201.088482,144.412821 C198.654783,144.412821 197.506736,143.940514 196.385919,142.504791 C192.159583,137.091015 192.847416,130.312506 198.343221,126.351313 C189.951468,118.21823 177.09423,109.014244 159.776344,98.7486138 L160.289,99.053 L163.674973,109.293942 C163.7523,109.527888 163.649864,109.778792 163.443306,109.893429 L163.361114,109.929731 C163.100781,110.017678 162.819217,109.875617 162.732224,109.612428 L162.732224,109.612428 L159.025869,98.3992263 C158.927775,98.1024517 159.118967,97.7881937 159.425209,97.742841 L159.425209,97.742841 Z M199.073332,127.067401 C199.052295,127.078086 199.031278,127.088856 199.01028,127.099712 C193.913597,130.669098 193.244293,136.858446 197.166179,141.882232 C198.082005,143.05537 198.938967,143.407925 201.088482,143.407925 C202.415519,143.407925 204.294833,142.314835 205.061598,140.60609 C206.178937,138.116087 205.228964,134.463937 201.528328,129.620071 C200.761087,128.781443 199.942753,127.930549 199.073332,127.067401 Z" id="形状结合"></path>
        </g>
    </g>
</svg>