<?xml version="1.0" encoding="UTF-8"?>
<svg width="143px" height="50px" viewBox="0 0 143 50" version="1.1" xmlns="http://www.w3.org/2000/svg" xmlns:xlink="http://www.w3.org/1999/xlink">
    <!-- Generator: Sketch 61.2 (89653) - https://sketch.com -->
    <title>设置菜单开启个性化功能</title>
    <desc>Created with Sketch.</desc>
    <g id="页面-1" stroke="none" stroke-width="1" fill="none" fill-rule="evenodd">
        <g id="画板" transform="translate(-205.000000, -531.000000)" fill="#FFFFFF" fill-rule="nonzero">
            <path d="M214.568224,538.3 C214.988224,538.3 215.288224,538.14 215.468224,537.84 C216.348224,536.42 216.928224,535.44 217.248224,534.92 C217.448224,536.78 218.048224,537.7 219.048224,537.7 C219.448224,537.7 219.928224,537.6 220.448224,537.36 C220.988224,537.08 221.468224,536.7 221.888224,536.22 C221.988224,536.04 222.048224,535.84 222.048224,535.6 C221.948224,535.28 221.788224,535.12 221.568224,535.12 C221.448224,535.12 221.328224,535.18 221.188224,535.28 C220.128224,535.94 219.528224,536.26 219.368224,536.26 C219.248224,536.26 219.128224,536.12 219.028224,535.88 C218.828224,535.5 218.708224,535 218.708224,534.38 C218.668224,534 218.668224,533.64 218.668224,533.3 C218.648224,533.02 218.588224,532.8 218.508224,532.64 C218.388224,532.36 218.188224,532.22 217.928224,532.22 C217.728224,532.22 217.528224,532.3 217.348224,532.46 C216.988224,532.82 216.548224,533.34 216.048224,534.04 C215.768224,534.46 215.508224,534.86 215.268224,535.24 C215.228224,534.72 215.168224,534.3 215.088224,533.94 C214.888224,533.62 214.648224,533.44 214.328224,533.44 C214.068224,533.46 213.868224,533.58 213.708224,533.78 C213.608224,533.9 213.568224,534.06 213.568224,534.26 C213.588224,534.52 213.688224,534.74 213.888224,534.92 C213.888224,537.18 214.128224,538.3 214.568224,538.3 Z M210.408224,536.3 C210.568224,536.22 210.668224,536.04 210.708224,535.78 C210.708224,535.54 210.648224,535.32 210.568224,535.12 C210.448224,534.96 210.188224,534.78 209.808224,534.58 C209.488224,534.38 209.188224,534.2 208.868224,534.08 C208.448224,533.92 208.148224,533.82 207.948224,533.82 C207.468224,533.86 207.208224,534.06 207.148224,534.44 C207.148224,534.9 207.268224,535.18 207.528224,535.28 C207.848224,535.4 208.208224,535.54 208.608224,535.68 C208.948224,535.8 209.388224,535.96 209.948224,536.2 C210.108224,536.28 210.208224,536.3 210.268224,536.3 L210.408224,536.3 Z M210.728224,549.54 C211.048224,549.5 211.328224,549.38 211.568224,549.2 C212.048224,548.72 212.468224,548.22 212.808224,547.72 C213.028224,547.36 213.148224,547.04 213.148224,546.74 C213.128224,546.32 212.948224,546.1 212.608224,546.06 C212.428224,546.06 212.288224,546.14 212.188224,546.26 C211.508224,547.32 211.048224,547.9 210.768224,547.98 C210.668224,547.98 210.628224,547.44 210.628224,546.36 C210.628224,545.48 210.668224,544.3 210.748224,542.86 C210.788224,541.82 210.808224,540.9 210.808224,540.1 C210.808224,539.04 210.448224,538.5 209.768224,538.5 C209.708224,538.5 209.508224,538.6 209.148224,538.78 C208.228224,539.18 207.348224,539.58 206.508224,539.94 C206.228224,540.06 206.008224,540.16 205.848224,540.26 C205.568224,540.4 205.428224,540.68 205.428224,541.1 C205.428224,541.5 205.608224,541.7 205.968224,541.7 C206.188224,541.7 206.528224,541.6 206.968224,541.4 C207.648224,541.1 208.408224,540.68 209.288224,540.12 C209.388224,540.12 209.448224,540.22 209.448224,540.42 C209.448224,540.98 209.408224,541.92 209.368224,543.24 C209.288224,544.9 209.248224,545.96 209.248224,546.4 C209.248224,548.28 209.648224,549.32 210.468224,549.54 L210.728224,549.54 Z M222.848224,551.96 C223.088224,551.92 223.208224,551.76 223.228224,551.5 C223.228224,551.3 223.168224,551.06 223.088224,550.82 C222.728224,550.36 222.328224,549.94 221.868224,549.58 C221.208224,549.02 220.768224,548.66 220.528224,548.46 C219.748224,547.86 219.048224,547.26 218.448224,546.66 C218.368224,546.6 218.288224,546.52 218.208224,546.42 C218.488224,546.02 218.768224,545.54 219.028224,545.02 C219.428224,544.26 219.788224,543.5 220.068224,542.76 C220.388224,541.9 220.548224,541.22 220.548224,540.72 C220.548224,540.32 220.448224,540.02 220.268224,539.82 C220.068224,539.54 219.828224,539.4 219.548224,539.4 L219.248224,539.4 C219.008224,539.4 218.288224,539.62 217.088224,540.04 C216.088224,540.38 215.468224,540.64 215.188224,540.8 C215.008224,541 214.928224,541.18 214.928224,541.38 C214.928224,541.6 214.988224,541.78 215.108224,541.92 C215.248224,542.08 215.408224,542.14 215.568224,542.14 C215.648224,542.14 215.788224,542.1 215.988224,541.98 C217.108224,541.56 218.148224,541.2 219.128224,540.88 C218.928224,541.86 218.508224,543.04 217.848224,544.44 C217.648224,544.8 217.488224,545.12 217.328224,545.44 C217.088224,545.18 216.868224,544.9 216.668224,544.6 C216.308224,544.1 215.988224,543.74 215.668224,543.54 C215.508224,543.38 215.288224,543.28 215.008224,543.28 C214.648224,543.36 214.488224,543.56 214.488224,543.92 C214.488224,544.16 214.688224,544.58 215.108224,545.18 C215.468224,545.74 215.928224,546.28 216.448224,546.84 C216.428224,546.88 216.408224,546.9 216.388224,546.92 C216.028224,547.4 215.668224,547.8 215.348224,548.16 C215.148224,548.34 215.048224,548.5 215.048224,548.64 C215.048224,548.78 215.088224,548.9 215.208224,549 C215.268224,549.1 215.388224,549.16 215.568224,549.16 C215.768224,549.16 215.988224,549.06 216.248224,548.86 C216.568224,548.58 216.928224,548.2 217.288224,547.72 C217.288224,547.72 217.288224,547.72 217.308224,547.68 C217.588224,547.96 217.908224,548.24 218.288224,548.54 C219.008224,549.14 219.748224,549.74 220.548224,550.34 C221.148224,550.78 221.728224,551.24 222.328224,551.7 C222.488224,551.86 222.668224,551.96 222.848224,551.96 Z M230.548224,537.84 L230.708224,537.82 C230.748224,537.8 230.788224,537.76 230.828224,537.72 C230.848224,537.74 230.888224,537.74 230.948224,537.74 C231.048224,537.74 231.228224,537.7 231.488224,537.6 C232.148224,537.44 232.788224,537.3 233.408224,537.14 C234.408224,536.94 235.268224,536.78 235.988224,536.66 C236.448224,536.62 236.888224,536.56 237.328224,536.52 C237.308224,536.56 237.308224,536.6 237.308224,536.64 C237.308224,536.84 237.448224,536.94 237.728224,536.94 L238.008224,536.94 C238.228224,536.94 238.448224,536.82 238.668224,536.58 C239.248224,536.06 239.748224,535.48 240.148224,534.86 C240.728224,534 241.028224,533.32 241.028224,532.82 C241.028224,532.38 240.888224,532.04 240.608224,531.8 C240.388224,531.6 240.108224,531.5 239.768224,531.5 L239.468224,531.5 C237.788224,531.62 234.708224,532.16 230.188224,533.08 C230.048224,532.84 229.788224,532.72 229.408224,532.72 C229.208224,532.76 229.028224,532.84 228.888224,533 C228.708224,533.14 228.628224,533.28 228.628224,533.4 C228.628224,533.56 228.728224,533.88 228.928224,534.38 L229.848224,537.2 C229.948224,537.64 230.188224,537.84 230.548224,537.84 Z M236.808224,535.26 L236.928224,534.9 L236.928224,534.9 C237.088224,534.46 237.168224,533.92 237.168224,533.26 L237.168224,533.24 C238.288224,533.08 239.088224,532.98 239.608224,532.98 C239.248224,533.7 238.808224,534.44 238.268224,535.2 C238.228224,535.2 238.148224,535.18 238.048224,535.16 C237.848224,535.16 237.528224,535.18 237.128224,535.22 C237.028224,535.24 236.928224,535.26 236.808224,535.26 Z M234.328224,535.58 C234.308224,535.58 234.288224,535.54 234.288224,535.5 C234.168224,534.82 234.028224,534.26 233.888224,533.8 C234.568224,533.68 235.228224,533.56 235.828224,533.44 C235.868224,533.64 235.908224,533.86 235.908224,534.1 C235.908224,534.26 235.828224,534.6 235.688224,535.12 C235.648224,535.2 235.628224,535.3 235.628224,535.4 C235.228224,535.44 234.788224,535.5 234.328224,535.58 Z M231.028224,536.28 C230.988224,536.12 230.948224,535.94 230.908224,535.7 C230.808224,535.3 230.708224,534.88 230.608224,534.44 L232.528224,534.06 L232.528224,534.06 C232.608224,534.26 232.668224,534.46 232.728224,534.62 C232.848224,535.1 232.968224,535.5 233.128224,535.8 C232.928224,535.84 232.728224,535.86 232.508224,535.9 C231.868224,536.02 231.388224,536.16 231.028224,536.28 Z M227.888224,552.06 C228.108224,552.06 228.388224,552.02 228.728224,551.98 C230.088224,551.84 231.588224,551.72 233.208224,551.62 C234.968224,551.5 236.688224,551.38 238.388224,551.28 C239.268224,551.24 240.068224,551.2 240.828224,551.16 C241.448224,551.12 242.028224,551.1 242.568224,551.06 C242.988224,550.98 243.208224,550.72 243.208224,550.32 C243.148224,549.92 242.848224,549.72 242.288224,549.7 C241.688224,549.7 241.068224,549.7 240.388224,549.74 C239.828224,549.74 239.268224,549.76 238.688224,549.8 C238.788224,545.06 238.848224,542.54 238.848224,542.26 C238.828224,541.4 238.308224,540.96 237.308224,540.92 C236.188224,540.92 235.188224,540.98 234.308224,541.06 C234.468224,540.78 234.608224,540.48 234.748224,540.16 C234.788224,540.08 234.828224,540 234.868224,539.9 C235.628224,539.76 236.408224,539.6 237.208224,539.44 C238.368224,539.2 239.228224,538.98 239.828224,538.74 C240.048224,538.54 240.168224,538.3 240.168224,538.04 C240.148224,537.92 240.048224,537.78 239.848224,537.66 C239.728224,537.58 239.568224,537.52 239.408224,537.52 C239.108224,537.52 238.608224,537.62 237.908224,537.82 C237.148224,537.98 236.308224,538.16 235.428224,538.36 C235.448224,538.28 235.468224,538.2 235.468224,538.14 C235.468224,537.66 235.288224,537.38 234.928224,537.3 L234.648224,537.3 C234.328224,537.32 234.128224,537.46 234.008224,537.74 C233.968224,537.94 233.908224,538.18 233.848224,538.44 L233.788224,538.68 L233.788224,538.68 C232.588224,538.9 231.328224,539.12 229.968224,539.32 C229.588224,539.36 229.288224,539.4 229.048224,539.46 C228.828224,539.6 228.708224,539.78 228.708224,539.98 C228.708224,540.36 228.888224,540.64 229.288224,540.84 L229.448224,540.84 C229.808224,540.82 230.168224,540.78 230.528224,540.7 C231.408224,540.56 232.308224,540.4 233.208224,540.22 C233.168224,540.3 233.148224,540.36 233.128224,540.44 C232.988224,540.74 232.868224,541.02 232.748224,541.26 C232.548224,541.32 232.368224,541.36 232.168224,541.4 C232.048224,541.32 231.928224,541.26 231.788224,541.26 C231.568224,541.26 231.368224,541.36 231.188224,541.52 C231.068224,541.64 230.988224,541.78 230.988224,541.92 C230.988224,542.02 230.988224,542.12 231.008224,542.22 C231.028224,542.38 231.048224,542.52 231.068224,542.64 C231.068224,543 231.048224,543.36 231.048224,543.68 C230.988224,544.34 230.948224,544.96 230.948224,545.52 C230.908224,546.08 230.888224,546.68 230.888224,547.36 C230.888224,548.56 230.908224,549.54 230.968224,550.26 C230.048224,550.34 229.268224,550.4 228.628224,550.48 C227.908224,550.64 227.528224,550.84 227.448224,551.08 C227.448224,551.36 227.448224,551.56 227.488224,551.68 C227.588224,551.92 227.728224,552.06 227.888224,552.06 Z M232.468224,543.92 C232.548224,543.44 232.588224,543.04 232.608224,542.76 C232.928224,542.74 233.368224,542.68 233.928224,542.56 C235.268224,542.34 236.348224,542.22 237.168224,542.22 C237.328224,542.22 237.428224,542.32 237.468224,542.52 C237.468224,542.68 237.488224,542.88 237.508224,543.1 C235.048224,543.56 233.368224,543.84 232.468224,543.92 Z M232.228224,546.12 L232.228224,545.68 C232.228224,545.52 232.248224,545.3 232.288224,545.06 C233.448224,544.96 234.688224,544.76 236.008224,544.46 C236.568224,544.32 237.088224,544.16 237.528224,544 L237.528224,545.18 C236.448224,545.5 235.168224,545.78 233.728224,545.98 C233.188224,546.04 232.688224,546.08 232.228224,546.12 Z M232.208224,548.3 C232.194891,548.1 232.190447,547.908889 232.188965,547.708889 L232.188224,547.18 C232.728224,547.16 233.308224,547.1 233.908224,547.02 C235.428224,546.76 236.628224,546.5 237.508224,546.22 C237.488224,546.6 237.468224,547 237.448224,547.4 C236.368224,547.72 235.108224,547.98 233.668224,548.18 C233.148224,548.22 232.668224,548.26 232.208224,548.3 Z M232.248224,550.16 C232.248224,549.9 232.228224,549.62 232.228224,549.34 C232.708224,549.3 233.248224,549.26 233.848224,549.22 C235.328224,548.94 236.508224,548.7 237.388224,548.48 C237.348224,548.84 237.328224,549.14 237.308224,549.38 C237.288224,549.54 237.268224,549.72 237.268224,549.88 C236.388224,549.92 235.448224,549.96 234.468224,550.04 C233.748224,550.08 233.008224,550.12 232.248224,550.16 Z M252.508224,536.44 C252.868224,536.44 253.068224,536.3 253.108224,536.02 C253.128224,535.9 253.148224,535.66 253.168224,535.3 C254.168224,535.18 255.168224,535.02 256.148224,534.8 C256.108224,535.02 256.048224,535.22 255.968224,535.4 C255.908224,535.52 255.868224,535.6 255.868224,535.68 C255.868224,535.92 255.988224,536.06 256.248224,536.08 C256.528224,536.08 256.728224,535.98 256.848224,535.82 C256.928224,535.78 257.028224,535.68 257.128224,535.54 C257.288224,535.34 257.408224,535.1 257.508224,534.86 C257.548224,534.76 257.568224,534.64 257.608224,534.52 C258.608224,534.32 259.528224,534.1 260.348224,533.86 C260.548224,533.78 260.728224,533.64 260.848224,533.46 C260.928224,533.32 260.988224,533.18 260.988224,533.06 C260.988224,532.94 260.868224,532.82 260.648224,532.66 C260.448224,532.58 260.268224,532.54 260.108224,532.54 C259.908224,532.58 259.688224,532.64 259.428224,532.72 C258.808224,532.84 258.188224,532.96 257.588224,533.08 C257.528224,532.92 257.448224,532.74 257.348224,532.58 C257.228224,532.36 257.108224,532.18 256.968224,532.06 C256.848224,531.96 256.708224,531.9 256.508224,531.9 C256.288224,531.92 256.128224,531.98 256.048224,532.06 C255.868224,532.22 255.788224,532.44 255.788224,532.74 C255.788224,532.82 255.848224,532.94 255.968224,533.08 C256.008224,533.16 256.048224,533.26 256.088224,533.36 C255.508224,533.48 254.948224,533.56 254.388224,533.62 C253.948224,533.68 253.528224,533.74 253.128224,533.78 C253.108224,533.74 253.108224,533.7 253.108224,533.66 C253.068224,533.36 252.968224,533.1 252.808224,532.9 C252.708224,532.7 252.568224,532.54 252.408224,532.42 C252.268224,532.26 252.108224,532.18 251.948224,532.16 C251.708224,532.16 251.508224,532.22 251.348224,532.32 C251.188224,532.44 251.108224,532.6 251.108224,532.78 C251.108224,532.92 251.128224,533.04 251.208224,533.12 C251.288224,533.24 251.368224,533.34 251.468224,533.46 C251.588224,533.58 251.668224,533.74 251.728224,533.9 C251.248224,533.94 250.788224,533.94 250.328224,533.94 C250.148224,533.94 249.988224,533.94 249.848224,533.92 C249.488224,534.1 249.268224,534.32 249.228224,534.58 L249.228224,534.9 C249.228224,535.3 249.408224,535.52 249.788224,535.56 L250.348224,535.56 C250.828224,535.56 251.368224,535.52 251.928224,535.46 C251.928224,535.74 251.968224,535.96 252.048224,536.14 C252.128224,536.34 252.288224,536.44 252.508224,536.44 Z M250.928224,539.18 C251.368224,539.16 251.848224,539.1 252.328224,539.02 C253.488224,538.8 254.588224,538.52 255.628224,538.16 C256.748224,537.8 257.748224,537.44 258.608224,537.04 C258.808224,536.96 258.968224,536.82 259.108224,536.64 C259.188224,536.5 259.248224,536.38 259.248224,536.26 C259.248224,536.14 259.128224,536 258.888224,535.84 C258.688224,535.78 258.508224,535.74 258.348224,535.74 C258.208224,535.78 258.048224,535.86 257.848224,535.94 C256.508224,536.42 255.248224,536.8 254.088224,537.08 C253.008224,537.34 251.988224,537.46 251.068224,537.46 C250.868224,537.46 250.708224,537.46 250.548224,537.44 C250.188224,537.64 249.968224,537.86 249.888224,538.14 L249.888224,538.46 C249.888224,538.86 250.088224,539.1 250.488224,539.18 L250.928224,539.18 Z M254.628224,551.6 C254.948224,551.6 255.228224,551.54 255.468224,551.42 C255.788224,551.24 256.008224,551 256.128224,550.68 C256.168224,550.48 256.208224,550.16 256.208224,549.72 C256.208224,549.2 256.188224,548.62 256.188224,548 C256.148224,547.1 256.128224,546.2 256.088224,545.28 C256.068224,544.86 256.048224,544.46 256.028224,544.08 C258.768224,543.26 260.488224,542.54 261.188224,541.94 C261.388224,541.72 261.488224,541.5 261.488224,541.28 C261.488224,541.2 261.468224,541.14 261.428224,541.1 C261.348224,540.94 261.188224,540.84 260.988224,540.84 C260.188224,541.14 259.208224,541.48 258.028224,541.84 C258.708224,540.96 259.048224,539.96 259.048224,538.82 L259.048224,538.48 C259.028224,538.12 258.888224,537.88 258.648224,537.72 C258.528224,537.66 258.408224,537.62 258.248224,537.6 L258.088224,537.6 C257.668224,537.68 257.468224,537.98 257.468224,538.48 C257.468224,538.56 257.468224,538.68 257.508224,538.84 C257.568224,538.96 257.608224,539.12 257.608224,539.3 C257.608224,539.6 257.508224,539.98 257.348224,540.42 C257.048224,541.14 256.628224,541.76 256.088224,542.28 C256.008224,542.34 255.948224,542.4 255.888224,542.48 L255.848224,542.48 C255.808224,542.22 255.768224,542 255.728224,541.82 C255.608224,541.42 255.328224,541.22 254.928224,541.22 C254.788224,541.22 254.628224,541.3 254.468224,541.46 C254.368224,541.62 254.328224,541.78 254.328224,541.92 C254.328224,542.14 254.348224,542.4 254.388224,542.7 C254.388224,542.74 254.408224,542.8 254.408224,542.86 C252.888224,543.3 251.348224,543.68 249.748224,544 C249.388224,544.12 249.108224,544.22 248.888224,544.3 C248.488224,544.5 248.308224,544.72 248.308224,544.94 C248.348224,545.48 248.568224,545.76 248.968224,545.76 C249.168224,545.76 249.428224,545.74 249.748224,545.7 C249.948224,545.68 250.268224,545.62 250.728224,545.52 C251.928224,545.2 253.208224,544.86 254.568224,544.48 C254.588224,544.72 254.608224,544.98 254.628224,545.24 C254.708224,546.08 254.748224,547.32 254.768224,548.96 L254.768224,550.16 C254.768224,550.12 254.668224,550.12 254.488224,550.12 C254.128224,550.12 253.728224,549.86 253.268224,549.36 C252.828224,548.84 252.388224,548.14 251.968224,547.3 L251.968224,547.04 C251.868224,546.86 251.748224,546.76 251.588224,546.76 C251.188224,546.76 250.928224,546.84 250.788224,546.96 C250.688224,547.04 250.628224,547.16 250.628224,547.3 C250.588224,547.74 250.588224,548.06 250.588224,548.32 C250.588224,548.7 250.508224,549.06 250.348224,549.4 C250.208224,549.64 250.148224,549.84 250.148224,549.98 C250.148224,550.18 250.228224,550.36 250.408224,550.56 C250.508224,550.66 250.608224,550.72 250.708224,550.72 C250.908224,550.72 251.068224,550.6 251.228224,550.4 C251.448224,550.12 251.628224,549.76 251.748224,549.34 C251.748224,549.3 251.768224,549.26 251.788224,549.22 C251.848224,549.32 251.928224,549.44 252.028224,549.6 C252.908224,550.92 253.788224,551.6 254.628224,551.6 Z M255.468224,541.06 L255.628224,541.02 C255.868224,540.94 256.008224,540.7 256.008224,540.3 C256.008224,540.24 255.988224,540.1 255.948224,539.9 C255.868224,539.66 255.788224,539.4 255.708224,539.14 C255.568224,538.82 255.288224,538.66 254.888224,538.66 C254.688224,538.7 254.528224,538.78 254.388224,538.92 C254.228224,539.06 254.168224,539.2 254.168224,539.32 C254.168224,539.36 254.228224,539.44 254.348224,539.6 L254.808224,540.44 C254.888224,540.86 255.108224,541.06 255.468224,541.06 Z M252.648224,542.54 C252.768224,542.5 252.848224,542.38 252.888224,542.18 C252.948224,541.78 252.988224,541.4 252.988224,541.08 C252.988224,540.4 252.768224,539.9 252.368224,539.54 C252.168224,539.4 251.988224,539.32 251.788224,539.32 C251.648224,539.32 251.528224,539.36 251.408224,539.44 C251.248224,539.56 251.188224,539.7 251.188224,539.86 C251.188224,539.98 251.228224,540.1 251.308224,540.26 C251.548224,540.54 251.708224,540.8 251.748224,541.08 C251.788224,541.72 251.828224,542.12 251.908224,542.26 C251.948224,542.38 252.008224,542.46 252.088224,542.5 C252.128224,542.56 252.208224,542.58 252.368224,542.58 C252.488224,542.58 252.568224,542.58 252.648224,542.54 Z M263.048224,550.4 C263.388224,550.4 263.568224,550.2 263.568224,549.8 C263.508224,549.44 263.308224,549.04 262.968224,548.64 C261.668224,546.88 260.708224,545.8 260.068224,545.4 C259.968224,545.32 259.848224,545.28 259.728224,545.24 C259.648224,545.24 259.588224,545.22 259.508224,545.22 C259.348224,545.26 259.208224,545.32 259.108224,545.42 C258.928224,545.56 258.828224,545.72 258.808224,545.92 L258.808224,546.1 C258.808224,546.24 258.848224,546.36 258.928224,546.48 C259.808224,547.22 260.628224,548.02 261.388224,548.92 C261.848224,549.44 262.228224,549.82 262.508224,550.1 C262.708224,550.3 262.888224,550.4 263.048224,550.4 Z M276.448224,551.98 C276.748224,551.98 276.928224,551.58 276.968224,550.8 C276.968224,550.32 276.988224,549.68 276.988224,548.9 L276.988224,545.74 C277.708224,545.62 278.428224,545.48 279.148224,545.34 C281.488224,544.8 283.028224,544.24 283.788224,543.66 C283.988224,543.58 284.088224,543.4 284.088224,543.12 C284.088224,542.98 284.008224,542.86 283.868224,542.78 C283.748224,542.76 283.648224,542.74 283.548224,542.74 C283.268224,542.78 282.748224,542.9 281.968224,543.1 C280.088224,543.6 278.488224,543.96 277.168224,544.2 C277.088224,544.22 277.028224,544.24 276.968224,544.24 C276.968224,543.64 276.948224,543.06 276.928224,542.52 C277.828224,542.24 278.588224,541.98 279.188224,541.7 C279.308224,541.52 279.388224,541.34 279.408224,541.14 C279.408224,541.04 279.388224,540.96 279.368224,540.88 C279.368224,540.88 279.348224,540.88 279.348224,540.86 C279.988224,540.22 280.488224,539.54 280.888224,538.82 C281.308224,538.02 281.528224,537.28 281.528224,536.6 C281.528224,536.2 281.388224,535.82 281.108224,535.5 C280.868224,535.3 280.528224,535.18 280.128224,535.18 L279.388224,535.2 L279.388224,535.2 C278.708224,535.28 278.008224,535.36 277.308224,535.48 C277.808224,534.9 278.408224,534.06 279.128224,532.96 C279.408224,532.5 279.548224,532.16 279.568224,531.92 C279.548224,531.44 279.348224,531.18 278.988224,531.1 L278.808224,531.1 C278.648224,531.1 278.528224,531.14 278.408224,531.22 C278.288224,531.28 278.188224,531.42 278.088224,531.62 C277.368224,533.18 276.508224,534.5 275.508224,535.62 C275.428224,535.7 275.348224,535.78 275.308224,535.84 C274.508224,536.02 273.748224,536.2 273.068224,536.4 C272.948224,536.04 272.728224,535.84 272.408224,535.84 C272.208224,535.84 272.028224,535.9 271.868224,536 C271.648224,536.18 271.548224,536.38 271.548224,536.62 C271.548224,536.74 271.588224,536.94 271.668224,537.24 C271.768224,537.64 271.868224,538.04 271.968224,538.48 C272.228224,539.62 272.368224,540.54 272.368224,541.24 C272.368224,541.54 272.348224,541.9 272.308224,542.34 C272.208224,542.62 272.128224,542.84 272.088224,542.98 C272.088224,543.36 272.268224,543.54 272.628224,543.54 C272.708224,543.54 272.808224,543.52 272.908224,543.46 C272.928224,543.5 272.968224,543.5 273.028224,543.5 C273.088224,543.5 273.168224,543.48 273.268224,543.4 C274.028224,543.28 274.808224,543.12 275.648224,542.88 C275.648224,543.32 275.648224,543.72 275.668224,544.12 C275.668224,544.26 275.668224,544.4 275.688224,544.54 C274.188224,544.88 272.968224,545.12 272.028224,545.28 C270.428224,545.6 269.328224,545.94 268.688224,546.32 C268.528224,546.42 268.428224,546.52 268.428224,546.64 C268.408224,546.72 268.408224,546.8 268.408224,546.88 C268.428224,547.04 268.468224,547.16 268.548224,547.24 C268.668224,547.38 268.788224,547.44 268.928224,547.44 C269.088224,547.44 269.488224,547.38 270.108224,547.24 C271.128224,547 272.208224,546.74 273.328224,546.5 L275.728224,546 L275.728224,546 C275.748224,547.16 275.768224,548.16 275.788224,549.04 C275.788224,549.66 275.808224,550.26 275.848224,550.82 C275.888224,551.58 276.088224,551.98 276.448224,551.98 Z M274.668224,535.34 C274.828224,535.34 274.948224,535.32 275.028224,535.26 C275.108224,535.22 275.168224,535.14 275.248224,535.02 C275.308224,534.94 275.348224,534.86 275.368224,534.76 C275.368224,534.58 275.308224,534.46 275.188224,534.38 C274.468224,534.1 273.708224,533.62 272.948224,532.9 C272.708224,532.7 272.508224,532.56 272.348224,532.46 C272.228224,532.38 272.108224,532.32 271.988224,532.32 C271.888224,532.32 271.808224,532.34 271.768224,532.34 C271.608224,532.4 271.488224,532.48 271.388224,532.58 C271.248224,532.76 271.188224,532.9 271.188224,533.02 C271.188224,533.18 271.248224,533.32 271.368224,533.44 C271.828224,533.96 272.368224,534.36 272.968224,534.68 C273.728224,535.12 274.288224,535.34 274.668224,535.34 Z M276.928224,541.22 C276.928224,540.7 276.908224,540.14 276.908224,539.56 C277.488224,539.4 277.988224,539.24 278.408224,539.1 C278.668224,538.94 278.808224,538.78 278.808224,538.6 C278.808224,538.52 278.748224,538.38 278.668224,538.22 C278.528224,538.1 278.388224,538.02 278.248224,538 C277.968224,538 277.628224,538.06 277.208224,538.18 C277.108224,538.22 277.008224,538.24 276.888224,538.26 C276.888224,537.82 276.868224,537.42 276.868224,537.08 C276.868224,537 276.848224,536.94 276.828224,536.86 C278.068224,536.62 279.048224,536.48 279.768224,536.48 C279.948224,536.52 280.048224,536.68 280.048224,536.96 C280.028224,537.2 279.888224,537.56 279.628224,538.04 C279.348224,538.64 278.948224,539.32 278.428224,540.08 C278.308224,540.2 278.208224,540.38 278.088224,540.58 C277.988224,540.68 277.928224,540.78 277.928224,540.9 C277.848224,540.94 277.768224,540.96 277.668224,541 C277.428224,541.08 277.188224,541.16 276.928224,541.22 Z M273.588224,539.24 C273.568224,539.12 273.548224,538.98 273.548224,538.82 C273.488224,538.42 273.428224,538.04 273.368224,537.68 C274.108224,537.5 274.808224,537.32 275.468224,537.16 C275.468224,537.74 275.488224,538.24 275.488224,538.64 C274.708224,538.86 274.068224,539.06 273.588224,539.24 Z M273.548224,542.04 C273.548224,542 273.548224,541.96 273.568224,541.9 C273.608224,541.48 273.648224,541.04 273.648224,540.6 L273.648224,540.52 C273.848224,540.46 274.188224,540.36 274.668224,540.22 C274.948224,540.14 275.248224,540.06 275.528224,539.98 C275.568224,540.54 275.588224,541.08 275.608224,541.6 C275.288224,541.68 274.968224,541.74 274.608224,541.82 C274.288224,541.9 273.948224,541.96 273.548224,542.04 Z M209.168224,563.78 C209.788224,563.76 210.428224,563.7 211.088224,563.62 C212.668224,563.38 214.188224,563.06 215.628224,562.66 C217.148224,562.3 218.488224,561.88 219.648224,561.42 C219.888224,561.32 220.088224,561.18 220.228224,561 C220.348224,560.82 220.408224,560.66 220.408224,560.5 C220.408224,560.34 220.268224,560.2 220.028224,560.06 C219.788224,559.96 219.568224,559.9 219.388224,559.9 C219.188224,559.98 218.948224,560.06 218.688224,560.16 C216.788224,560.82 215.008224,561.32 213.368224,561.66 C211.848224,562 210.428224,562.16 209.128224,562.16 C208.948224,562.16 208.788224,562.16 208.648224,562.14 C208.288224,562.34 208.068224,562.56 208.028224,562.8 L208.028224,563.14 C208.028224,563.54 208.208224,563.74 208.588224,563.78 L209.168224,563.78 Z M217.048224,579.56 C217.348224,579.56 217.588224,579.4 217.768224,579.12 C218.168224,578.4 218.368224,577.46 218.368224,576.3 C218.368224,575.38 218.328224,574.26 218.268224,572.94 C218.228224,571.64 218.208224,570.54 218.208224,569.62 C220.888224,568.94 222.648224,568.3 223.468224,567.74 C223.628224,567.54 223.728224,567.36 223.728224,567.18 C223.728224,567.1 223.708224,567.02 223.688224,566.98 C223.608224,566.84 223.468224,566.76 223.288224,566.76 C221.948224,567.16 220.248224,567.58 218.208224,568.06 C218.208224,567.36 218.208224,566.7 218.228224,566.06 C218.248224,564.86 218.268224,564 218.268224,563.5 C218.268224,563.1 218.048224,562.86 217.648224,562.74 L217.268224,562.74 C216.908224,562.86 216.728224,563.1 216.728224,563.5 C216.728224,564.66 216.748224,565.76 216.748224,566.8 C216.748224,567.32 216.748224,567.86 216.768224,568.38 C216.068224,568.54 215.328224,568.7 214.548224,568.86 C213.608224,569.06 212.648224,569.26 211.668224,569.44 L211.788224,568.22 L211.788224,568.22 L211.908224,566.46 C211.928224,565.92 211.948224,565.44 211.968224,565.04 C211.928224,564.6 211.748224,564.36 211.428224,564.32 L210.948224,564.32 C210.608224,564.44 210.448224,564.68 210.448224,565.04 L210.448224,566.12 C210.428224,567 210.388224,568.2 210.308224,569.72 C209.048224,569.96 207.768224,570.18 206.488224,570.38 C206.128224,570.5 205.848224,570.6 205.628224,570.68 C205.228224,570.88 205.048224,571.08 205.048224,571.32 C205.108224,571.86 205.328224,572.14 205.708224,572.14 C205.928224,572.14 206.188224,572.12 206.488224,572.08 C206.788224,572.04 207.268224,571.96 207.948224,571.84 C208.668224,571.7 209.428224,571.54 210.208224,571.38 C210.208224,571.52 210.188224,571.66 210.188224,571.82 C209.996224,574.5464 209.896384,576.16688 209.888704,576.716829 L209.888965,577.046667 C209.890447,577.202222 209.894891,577.313333 209.908224,577.38 C209.988224,577.7 210.168224,577.86 210.468224,577.9 C210.668224,577.9 210.868224,577.78 211.068224,577.56 C211.148224,577.4 211.208224,577.1 211.248224,576.7 C211.268224,576.02 211.308224,575.14 211.388224,574.04 C211.428224,573.02 211.488224,572.04 211.568224,571.1 C212.668224,570.88 213.808224,570.64 215.008224,570.36 C215.628224,570.24 216.228224,570.1 216.808224,569.96 C216.828224,570.68 216.868224,571.42 216.908224,572.14 C216.988224,573.66 217.028224,575.1 217.048224,576.46 C217.008224,577.28 216.788224,578.06 216.368224,578.82 C216.368224,579.3 216.588224,579.56 217.048224,579.56 Z M237.208224,561.4 C237.448224,561.32 237.588224,561.14 237.608224,560.88 C237.608224,560.6 237.508224,560.38 237.328224,560.22 C237.048224,560 236.488224,559.78 235.688224,559.56 C235.108224,559.46 234.488224,559.38 233.848224,559.34 C233.508224,559.38 233.308224,559.6 233.248224,560.02 C233.248224,560.54 233.428224,560.82 233.788224,560.84 C235.048224,560.96 236.188224,561.14 237.208224,561.4 Z M227.288224,579.72 C227.488224,579.72 227.648224,579.64 227.808224,579.5 C228.348224,578.96 228.828224,578.32 229.268224,577.58 C229.988224,576.52 230.588224,575.24 231.088224,573.7 C231.788224,571.36 232.148224,568.84 232.148224,566.16 C232.148224,565.68 232.108224,565.18 232.068224,564.66 C233.588224,564.38 236.048224,563.96 239.468224,563.42 C239.048224,564.3 238.488224,565.3 237.768224,566.38 C237.688224,566.5 237.648224,566.62 237.648224,566.74 C235.328224,567.4 233.888224,567.72 233.368224,567.72 C232.928224,567.8 232.708224,568.04 232.708224,568.48 C232.708224,569.1 232.928224,569.4 233.388224,569.4 C234.588224,569.24 235.868224,568.92 237.228224,568.44 C237.988224,568.16 238.588224,567.86 239.028224,567.54 C239.208224,567.42 239.348224,567.28 239.448224,567.08 C239.448224,566.98 239.468224,566.86 239.468224,566.74 C239.428224,566.7 239.388224,566.64 239.348224,566.58 C239.388224,566.54 239.428224,566.46 239.508224,566.36 C239.988224,565.6 240.388224,564.82 240.728224,564.04 C240.888224,563.58 240.988224,563.24 240.988224,563.02 C240.988224,562.74 240.828224,562.44 240.508224,562.16 C240.268224,562.02 240.028224,561.94 239.768224,561.94 C239.448224,561.94 239.048224,561.98 238.568224,562.04 C235.208224,562.48 232.908224,562.9 231.668224,563.26 C231.528224,563.14 231.348224,563.06 231.148224,563.06 C230.628224,563.18 230.368224,563.48 230.368224,563.96 C230.568224,564.94 230.668224,565.8 230.668224,566.56 C230.668224,569.06 230.368224,571.3 229.768224,573.26 C229.368224,574.58 228.928224,575.68 228.468224,576.56 C228.068224,577.38 227.608224,578.14 227.128224,578.82 C226.968224,578.98 226.908224,579.12 226.908224,579.2 C226.908224,579.52 227.028224,579.68 227.288224,579.72 Z M234.068224,579.68 C234.128224,579.68 234.188224,579.66 234.268224,579.66 C234.428224,579.58 234.528224,579.44 234.608224,579.28 C235.208224,579.24 235.888224,579.18 236.648224,579.06 C238.708224,578.58 240.168224,578.12 241.028224,577.72 C241.248224,577.54 241.368224,577.32 241.368224,577.06 C241.328224,576.94 241.288224,576.84 241.248224,576.72 C241.208224,576.66 241.168224,576.6 241.128224,576.56 C241.508224,575.8 241.728224,574.96 241.788224,574.08 C241.788224,573.2 241.508224,572.6 240.948224,572.26 C240.588224,572.02 240.028224,571.9 239.268224,571.9 C237.688224,571.9 236.248224,572.08 234.968224,572.42 C234.528224,572.56 234.108224,572.7 233.748224,572.84 C233.668224,572.58 233.488224,572.44 233.208224,572.4 L233.028224,572.4 C232.608224,572.48 232.368224,572.66 232.288224,572.98 C232.288224,573.5 232.308224,574.04 232.348224,574.56 C232.388224,576 232.588224,577.22 232.928224,578.28 C233.088224,578.68 233.248224,578.98 233.408224,579.22 C233.528224,579.5 233.748224,579.66 234.068224,579.68 Z M234.248224,577.64 C234.028224,576.96 233.888224,576.22 233.848224,575.42 C233.828224,575.06 233.808224,574.72 233.808224,574.38 C234.008224,574.34 234.588224,574.2 235.568224,573.96 C236.268224,573.76 236.948224,573.64 237.588224,573.58 C238.268224,573.46 238.868224,573.38 239.368224,573.38 C239.948224,573.38 240.268224,573.66 240.308224,574.2 C240.308224,574.76 240.008224,575.6 239.448224,576.72 C239.448224,576.72 239.428224,576.72 239.428224,576.74 C238.468224,577.02 237.428224,577.26 236.268224,577.44 C235.548224,577.52 234.868224,577.6 234.248224,577.64 Z M247.888224,569.62 C248.068224,569.62 248.248224,569.54 248.448224,569.36 C248.848224,569.04 249.288224,568.66 249.808224,568.18 C251.688224,566.36 253.248224,564.58 254.468224,562.82 C254.828224,562.34 255.148224,561.88 255.428224,561.42 C255.828224,561.94 256.248224,562.48 256.688224,563.04 C257.488224,564.1 258.428224,565.08 259.468224,566 C260.368224,566.82 261.208224,567.44 262.008224,567.86 C262.428224,568.1 262.888224,568.28 263.368224,568.4 C263.748224,568.52 264.108224,568.58 264.428224,568.58 C264.588224,568.58 264.708224,568.54 264.768224,568.42 C264.888224,568.34 264.948224,568.22 264.948224,568.06 C264.948224,567.9 264.868224,567.78 264.728224,567.72 C263.588224,567.28 262.568224,566.7 261.668224,566.02 C260.808224,565.36 260.028224,564.62 259.308224,563.82 C258.748224,563.22 258.208224,562.58 257.648224,561.9 C257.288224,561.46 256.948224,561 256.608224,560.5 C256.488224,560.34 256.368224,560.22 256.288224,560.1 C256.208224,560.06 256.148224,560 256.088224,559.96 C256.088224,559.7 255.988224,559.5 255.828224,559.36 C255.648224,559.24 255.468224,559.16 255.308224,559.16 C255.048224,559.16 254.828224,559.38 254.648224,559.8 C254.388224,560.24 254.088224,560.72 253.768224,561.2 C251.608224,564.36 249.588224,566.82 247.688224,568.54 C247.508224,568.74 247.428224,568.94 247.428224,569.14 C247.448224,569.46 247.608224,569.62 247.888224,569.62 Z M255.228224,580.08 C255.608224,580.04 255.808224,579.78 255.828224,579.28 L255.828807,578.678707 C255.830118,578.150178 255.834378,577.446154 255.848224,576.56 C255.848224,574.92 255.888224,572.68 255.968224,569.88 C255.988224,568.68 256.028224,567.32 256.088224,565.76 C256.008224,565.22 255.768224,564.94 255.368224,564.94 L255.108224,564.94 C254.748224,565.06 254.568224,565.36 254.568224,565.84 L254.568224,566.5 C254.588224,569.44 254.608224,571.52 254.628224,572.74 C254.628224,574.52 254.648224,576.18 254.648224,577.76 C254.648224,578.8 254.668224,579.42 254.668224,579.62 C254.748224,579.9 254.928224,580.04 255.228224,580.08 Z M273.868224,578.04 C274.068224,578.04 274.348224,578 274.708224,577.94 C275.688224,577.7 276.768224,577.48 277.948224,577.3 C279.208224,577.1 280.448224,576.9 281.688224,576.74 C282.308224,576.66 282.888224,576.6 283.448224,576.52 C283.888224,576.48 284.308224,576.42 284.708224,576.36 C285.128224,576.28 285.348224,576.02 285.348224,575.62 C285.288224,575.24 284.968224,575.04 284.408224,575 C283.968224,575 283.508224,575.04 283.028224,575.08 C282.468224,575.12 281.868224,575.2 281.248224,575.3 C280.528224,575.38 279.728224,575.48 278.888224,575.56 C278.988224,575.04 279.068224,574.4 279.128224,573.6 C279.208224,572.38 279.268224,571.16 279.268224,569.94 L279.268224,569.78 C280.648224,569.16 281.508224,568.6 281.868224,568.12 C282.048224,567.92 282.148224,567.74 282.148224,567.54 C282.148224,567.46 282.128224,567.38 282.108224,567.34 C282.028224,567.22 281.888224,567.14 281.708224,567.14 C281.108224,567.46 280.288224,567.84 279.248224,568.26 C279.228224,568.02 279.208224,567.74 279.208224,567.46 C279.168224,566.68 279.108224,565.92 279.068224,565.16 C279.988224,564.82 280.728224,564.46 281.308224,564.06 C281.508224,563.9 281.608224,563.72 281.608224,563.48 C281.568224,563.12 281.348224,562.9 280.908224,562.8 C280.288224,563.12 279.628224,563.38 278.948224,563.6 L278.948224,563.46 L278.948224,563.46 C278.908224,562.98 278.868224,562.52 278.848224,562.12 C278.748224,561.54 278.568224,561.24 278.328224,561.24 C278.048224,561.24 277.808224,561.3 277.608224,561.38 C277.308224,561.56 277.168224,561.76 277.168224,561.96 C277.168224,562.16 277.208224,562.44 277.308224,562.82 C277.368224,563.24 277.428224,563.66 277.468224,564.06 C276.948224,564.22 276.588224,564.28 276.388224,564.28 C276.188224,564.28 276.088224,564.24 276.088224,564.14 C276.088224,564.04 276.108224,563.62 276.188224,562.86 C276.188224,562.4 275.948224,562.14 275.508224,562.06 L275.368224,562.06 C275.068224,562.08 274.868224,562.22 274.748224,562.48 C274.688224,562.76 274.628224,563.08 274.568224,563.42 C274.528224,563.86 274.508224,564.22 274.508224,564.52 C274.508224,564.96 274.648224,565.28 274.928224,565.52 C275.108224,565.68 275.348224,565.76 275.628224,565.76 L276.268224,565.76 C276.708224,565.74 277.168224,565.68 277.648224,565.58 C277.768224,566.78 277.868224,567.82 277.928224,568.74 C277.328224,568.98 276.708224,569.2 276.068224,569.38 C275.708224,569.48 275.428224,569.58 275.208224,569.66 C274.808224,569.86 274.628224,570.08 274.628224,570.3 C274.688224,570.84 274.908224,571.12 275.288224,571.12 C275.528224,571.12 275.788224,571.1 276.068224,571.06 C276.168224,571.04 276.348224,571 276.588224,570.92 C277.028224,570.76 277.488224,570.58 278.008224,570.34 L278.008224,570.76 C278.008224,571.62 277.948224,572.76 277.848224,574.2 C277.768224,574.84 277.728224,575.38 277.688224,575.78 C277.448224,575.84 277.188224,575.88 276.928224,575.92 C275.968224,576.08 275.188224,576.24 274.588224,576.44 C273.868224,576.6 273.488224,576.8 273.408224,577.04 C273.408224,577.32 273.408224,577.5 273.448224,577.62 C273.548224,577.9 273.688224,578.04 273.868224,578.04 Z M270.888224,578.14 C271.288224,578.14 271.548224,577.86 271.648224,577.34 C271.668224,576.88 271.708224,576.38 271.748224,575.86 C271.768224,574 271.788224,572.58 271.788224,571.58 C271.788224,570.5 271.768224,569.48 271.768224,568.52 C271.848224,568.52 271.988224,568.48 272.208224,568.4 C272.488224,568.32 272.828224,568.2 273.228224,568 C273.508224,567.86 273.728224,567.7 273.928224,567.52 C274.148224,567.26 274.268224,567.06 274.268224,566.94 C274.268224,566.84 274.248224,566.74 274.228224,566.66 C274.148224,566.52 274.008224,566.44 273.828224,566.44 C273.728224,566.44 273.608224,566.46 273.468224,566.48 C273.388224,566.5 273.268224,566.54 273.128224,566.58 C272.708224,566.74 272.368224,566.88 272.088224,566.96 C272.008224,566.98 271.888224,567.02 271.728224,567.06 L271.728224,566.86 C271.628224,565.1 271.528224,563.64 271.428224,562.44 C271.388224,562.12 271.328224,561.92 271.208224,561.8 C271.088224,561.64 270.908224,561.56 270.708224,561.56 C270.548224,561.56 270.408224,561.6 270.268224,561.68 C269.988224,561.84 269.848224,562.06 269.848224,562.34 C270.088224,563.98 270.228224,565.56 270.268224,567.06 C270.288224,568.14 270.308224,569.62 270.308224,571.46 C270.308224,571.96 270.288224,573 270.248224,574.6 C270.228224,575.76 270.228224,576.64 270.228224,577.32 C270.228224,577.86 270.448224,578.14 270.888224,578.14 Z M267.808224,571.84 C268.068224,571.84 268.268224,571.74 268.408224,571.56 C268.488224,571.44 268.548224,571.28 268.608224,571.08 C268.728224,570.78 268.828224,570.44 268.908224,570.08 C268.988224,569.56 269.028224,569.1 269.028224,568.7 C269.028224,567.86 268.988224,567.18 268.928224,566.64 C268.808224,566.44 268.688224,566.26 268.548224,566.14 C268.428224,566.02 268.268224,565.96 268.108224,565.96 C267.908224,565.98 267.748224,566.04 267.668224,566.14 C267.508224,566.3 267.428224,566.5 267.428224,566.76 C267.428224,566.88 267.448224,567.06 267.508224,567.3 C267.588224,567.72 267.648224,568.3 267.648224,569.06 C267.648224,569.3 267.628224,569.58 267.608224,569.88 C267.568224,570.24 267.508224,570.58 267.468224,570.9 C267.408224,571.12 267.388224,571.28 267.388224,571.38 C267.388224,571.66 267.528224,571.82 267.808224,571.84 Z M291.128224,578.06 C291.468224,578.06 291.688224,577.84 291.788224,577.44 C291.948224,576.76 292.068224,576 292.188224,575.2 C292.488224,573.28 292.648224,571.26 292.648224,569.1 C292.608224,568.02 292.488224,567.24 292.288224,566.74 C292.148224,566.54 291.968224,566.42 291.728224,566.42 L291.628224,566.44 L291.628224,566.44 C291.668224,566.36 291.728224,566.26 291.808224,566.14 C292.448224,565.18 292.948224,564.36 293.308224,563.72 C293.568224,563.28 293.748224,562.88 293.868224,562.52 C294.028224,562.22 294.128224,561.96 294.128224,561.74 C294.128224,561.42 293.948224,561.22 293.608224,561.1 C293.268224,561.1 293.008224,561.14 292.848224,561.2 C292.748224,561.44 292.648224,561.64 292.548224,561.8 C292.368224,562.2 292.188224,562.56 292.008224,562.92 C291.408224,564 290.828224,565 290.288224,565.94 C289.608224,567.1 289.048224,568.08 288.648224,568.84 C288.268224,569.44 287.968224,569.92 287.768224,570.3 C287.648224,570.46 287.588224,570.64 287.588224,570.82 C287.608224,571.14 287.788224,571.28 288.108224,571.28 C288.268224,571.28 288.448224,571.18 288.648224,570.96 C289.108224,570.2 289.528224,569.52 289.908224,568.96 C290.288224,568.42 290.648224,567.88 291.008224,567.36 C291.108224,567.94 291.168224,568.54 291.168224,569.16 L291.168224,570.42 C291.168224,571.66 291.088224,572.82 290.928224,573.92 C290.628224,575.58 290.488224,576.7 290.488224,577.34 C290.488224,577.82 290.688224,578.06 291.128224,578.06 Z M300.988224,577.9 C302.128224,577.9 303.108224,577.76 303.908224,577.48 C305.308224,576.96 306.028224,576.02 306.048224,574.7 C306.048224,573.14 305.808224,571.92 305.328224,571.04 C305.208224,570.84 304.988224,570.74 304.688224,570.74 C304.388224,570.78 304.228224,570.96 304.188224,571.28 C304.528224,572.28 304.708224,573.34 304.708224,574.5 C304.668224,575.76 303.408224,576.38 300.888224,576.38 C298.648224,576.38 297.488224,575.16 297.448224,572.72 C297.448224,571.1 297.468224,569.7 297.508224,568.52 C297.548224,568.22 297.568224,567.9 297.608224,567.56 C297.668224,567.56 297.748224,567.56 297.868224,567.54 C297.948224,567.52 298.068224,567.46 298.268224,567.36 C298.888224,567.08 299.548224,566.74 300.268224,566.36 C301.548224,565.62 302.348224,565 302.668224,564.48 C302.848224,564.28 302.948224,564.08 302.948224,563.88 C302.948224,563.8 302.928224,563.76 302.908224,563.72 C302.828224,563.58 302.688224,563.5 302.508224,563.5 C301.908224,563.9 301.108224,564.34 300.088224,564.86 C299.368224,565.24 298.628224,565.58 297.868224,565.86 C297.828224,565.88 297.768224,565.9 297.728224,565.9 C297.808224,564.96 297.888224,564.04 297.988224,563.12 L298.048224,562.08 C298.048224,561.92 297.988224,561.74 297.908224,561.58 C297.788224,561.38 297.608224,561.26 297.328224,561.24 C296.948224,561.24 296.688224,561.46 296.548224,561.88 C296.168224,564.72 295.988224,568.14 295.988224,572.18 C295.988224,574.22 296.408224,575.7 297.248224,576.64 C297.988224,577.48 299.228224,577.9 300.988224,577.9 Z M315.148224,579.76 C315.348224,579.76 315.488224,579.7 315.608224,579.6 C315.928224,579.3 316.288224,578.76 316.688224,577.98 C317.048224,577.22 317.468224,576.36 317.908224,575.42 C318.628224,573.76 319.228224,572.3 319.748224,571.06 C320.368224,569.52 320.908224,567.8 321.348224,565.92 L321.388224,565.92 L321.388224,565.92 C322.468224,565.66 323.488224,565.42 324.488224,565.18 C324.648224,565.18 324.748224,565.26 324.748224,565.4 C324.748224,565.78 324.728224,566.2 324.708224,566.64 C324.588224,568.26 324.388224,569.7 324.108224,570.96 C323.628224,573.36 323.148224,575.28 322.648224,576.72 C322.448224,577.16 322.308224,577.46 322.228224,577.62 C321.868224,576.9 321.508224,576.38 321.128224,576.08 C320.928224,575.88 320.768224,575.78 320.648224,575.78 C320.468224,575.82 320.348224,575.96 320.288224,576.2 C320.248224,576.36 320.248224,576.5 320.248224,576.64 C320.248224,577.44 320.648224,578.2 321.468224,578.88 C321.708224,579.08 321.968224,579.18 322.248224,579.2 C322.488224,579.2 322.708224,579.12 322.908224,578.96 C323.268224,578.64 323.708224,577.64 324.248224,576 C324.648224,574.62 324.988224,573.26 325.308224,571.94 C325.528224,570.76 325.728224,569.54 325.888224,568.28 C325.988224,567.26 326.048224,566.36 326.068224,565.56 L326.068224,564.88 C325.988224,564.14 325.628224,563.76 324.948224,563.76 C324.548224,563.76 323.468224,563.98 321.688224,564.42 C321.928224,563.08 322.048224,561.86 322.048224,560.76 C322.028224,560.1 321.828224,559.76 321.448224,559.72 C321.288224,559.72 321.148224,559.74 321.028224,559.74 C320.708224,559.84 320.548224,560.02 320.528224,560.28 C320.508224,561.58 320.368224,563.02 320.108224,564.6 C320.088224,564.66 320.068224,564.72 320.068224,564.8 C319.628224,564.9 319.208224,565 318.768224,565.12 C317.688224,565.42 316.988224,565.64 316.668224,565.76 C316.348224,565.9 316.208224,566.14 316.208224,566.5 C316.208224,566.66 316.268224,566.82 316.388224,566.96 C316.548224,567.12 316.748224,567.2 316.968224,567.2 C317.088224,567.2 317.348224,567.14 317.748224,567 L319.728224,566.42 L319.728224,566.42 C319.488224,567.38 319.208224,568.4 318.888224,569.44 C318.408224,570.84 317.908224,572.12 317.428224,573.28 C316.828224,574.72 316.228224,576 315.668224,577.1 C315.368224,577.7 315.088224,578.24 314.848224,578.72 C314.728224,578.86 314.668224,579.04 314.668224,579.24 C314.708224,579.54 314.868224,579.72 315.148224,579.76 Z M308.848224,575.28 C309.068224,575.28 309.328224,575.26 309.628224,575.2 C309.748224,575.18 309.928224,575.12 310.188224,575.02 C311.048224,574.7 311.968224,574.3 312.948224,573.84 C314.728224,573.06 315.828224,572.38 316.248224,571.78 C316.428224,571.58 316.528224,571.38 316.528224,571.18 C316.528224,571.1 316.508224,571.04 316.488224,571 C316.408224,570.88 316.268224,570.8 316.108224,570.8 C315.308224,571.28 314.188224,571.8 312.768224,572.36 C312.888224,571.88 313.008224,571.34 313.088224,570.78 C313.228224,569.82 313.308224,568.98 313.308224,568.22 C313.308224,567.04 313.228224,566.02 313.068224,565.18 C313.828224,564.98 314.488224,564.78 315.048224,564.54 C315.248224,564.44 315.408224,564.3 315.548224,564.14 C315.648224,563.98 315.708224,563.86 315.708224,563.74 C315.708224,563.62 315.588224,563.48 315.348224,563.32 C315.148224,563.24 314.988224,563.2 314.828224,563.2 L314.468224,563.32 L314.468224,563.32 C313.528224,563.6 312.668224,563.82 311.868224,563.96 C311.108224,564.12 310.408224,564.2 309.768224,564.2 C309.588224,564.2 309.428224,564.2 309.308224,564.16 C308.928224,564.36 308.708224,564.58 308.628224,564.84 L308.628224,565.18 C308.628224,565.58 308.828224,565.8 309.228224,565.86 L309.508224,565.86 C309.848224,565.86 310.188224,565.82 310.528224,565.76 C310.888224,565.72 311.228224,565.64 311.588224,565.56 C311.608224,565.68 311.648224,565.8 311.688224,565.96 C311.828224,566.6 311.908224,567.48 311.908224,568.56 C311.908224,569.06 311.888224,569.6 311.848224,570.18 C311.748224,570.94 311.628224,571.64 311.508224,572.3 C311.448224,572.52 311.408224,572.72 311.388224,572.9 C310.788224,573.14 310.208224,573.34 309.628224,573.52 C309.268224,573.62 308.988224,573.7 308.768224,573.78 C308.368224,573.98 308.188224,574.22 308.188224,574.46 C308.248224,574.98 308.468224,575.26 308.848224,575.28 Z M329.628224,565.96 C331.348224,565.78 333.048224,565.04 334.708224,563.72 C334.868224,563.58 335.048224,563.42 335.208224,563.24 C335.748224,564.28 336.208224,564.98 336.608224,565.38 C336.768224,565.56 336.928224,565.64 337.108224,565.64 C337.448224,565.64 337.628224,565.42 337.648224,564.98 C337.648224,564.78 337.608224,564.62 337.528224,564.48 C336.808224,563.22 336.368224,562.2 336.168224,561.4 C336.028224,561 335.848224,560.78 335.608224,560.78 C335.488224,560.8 335.368224,560.84 335.248224,560.9 C334.968224,561.1 334.828224,561.38 334.828224,561.72 L334.828224,561.74 C333.708224,562.96 332.388224,563.76 330.868224,564.16 C331.708224,562.72 332.208224,561.54 332.388224,560.66 C332.388224,560.22 332.168224,559.94 331.748224,559.84 C331.348224,559.84 331.068224,559.96 330.948224,560.2 C330.788224,560.72 330.608224,561.28 330.388224,561.86 C329.868224,563.1 329.348224,564.08 328.848224,564.78 C328.768224,564.9 328.728224,565.06 328.728224,565.24 C328.828224,565.72 329.128224,565.96 329.628224,565.96 Z M340.268224,568.3 C340.948224,568.3 341.668224,568.22 342.428224,568.06 C343.348224,567.76 344.048224,567.44 344.568224,567.08 C344.768224,566.88 344.888224,566.66 344.888224,566.44 C344.888224,566.32 344.868224,566.22 344.848224,566.12 C344.768224,565.9 344.608224,565.78 344.408224,565.74 C344.268224,565.74 344.128224,565.8 343.988224,565.88 C342.628224,566.52 341.508224,566.84 340.628224,566.84 C340.388224,566.84 340.268224,566.64 340.268224,566.24 C340.268224,565.84 340.288224,565.36 340.328224,564.78 C340.348224,564.78 340.388224,564.78 340.448224,564.74 C341.028224,564.58 341.648224,564.34 342.288224,563.98 C342.848224,563.7 343.288224,563.4 343.648224,563.08 C343.808224,562.88 343.888224,562.66 343.908224,562.44 C343.908224,562.32 343.888224,562.2 343.868224,562.12 C343.748224,561.96 343.568224,561.86 343.368224,561.84 C343.248224,561.84 343.148224,561.88 343.028224,561.92 C342.948224,561.94 342.788224,562.04 342.508224,562.2 C342.028224,562.48 341.488224,562.72 340.888224,562.94 C340.768224,562.98 340.648224,563.02 340.508224,563.06 C340.668224,562 340.768224,561.34 340.768224,561.06 C340.768224,560.92 340.728224,560.78 340.648224,560.64 C340.528224,560.46 340.348224,560.36 340.068224,560.34 C339.708224,560.34 339.448224,560.48 339.328224,560.76 C339.208224,561.3 339.108224,562.04 339.028224,562.96 C338.828224,564.52 338.728224,565.6 338.728224,566.22 C338.728224,566.68 338.788224,567.08 338.948224,567.4 C339.188224,568 339.628224,568.3 340.268224,568.3 Z M335.568224,579.4 C336.028224,579.38 336.268224,579 336.268224,578.24 C336.188224,577.44 336.128224,576.7 336.128224,576.02 C336.048224,574.28 335.968224,572.78 335.928224,571.54 C335.888224,569.06 335.888224,567.74 335.888224,567.54 C335.808224,566.46 335.328224,565.92 334.448224,565.9 C334.248224,565.9 334.008224,565.96 333.728224,566.04 C332.988224,566.34 332.388224,566.6 331.928224,566.82 C331.848224,566.58 331.668224,566.46 331.428224,566.44 L330.948224,566.44 C330.588224,566.52 330.428224,566.76 330.428224,567.14 L330.428224,568.1 C330.408224,569.24 330.328224,570.94 330.168224,573.18 C329.968224,575.72 329.868224,577.18 329.868224,577.6 C329.868224,577.9 329.868224,578.1 329.888224,578.2 C329.948224,578.52 330.128224,578.68 330.408224,578.72 C330.648224,578.72 330.848224,578.6 331.008224,578.38 C331.088224,578.22 331.168224,577.92 331.208224,577.52 C331.228224,576.92 331.268224,576.12 331.348224,575.16 C331.348224,575.12 331.348224,575.08 331.368224,575.02 L331.448224,575.02 L331.448224,575.02 C331.828224,574.98 332.228224,574.86 332.668224,574.68 C333.408224,574.32 334.048224,573.96 334.568224,573.6 C334.608224,575.06 334.688224,576.38 334.768224,577.62 C334.088224,577.22 333.628224,577.02 333.388224,577.02 C333.108224,577.08 332.968224,577.26 332.968224,577.56 C332.968224,577.7 333.028224,577.86 333.128224,578.04 C333.448224,578.5 333.868224,578.86 334.428224,579.12 C334.848224,579.3 335.228224,579.4 335.568224,579.4 Z M331.708224,570.6 C331.728224,570.4 331.748224,570.2 331.768224,569.98 L331.908224,568.52 L331.928224,568.52 C333.068224,567.84 333.808224,567.46 334.148224,567.4 C334.308224,567.44 334.408224,567.58 334.448224,567.84 C334.448224,568.4 334.448224,568.94 334.468224,569.48 C334.368224,569.5 334.268224,569.52 334.168224,569.56 C333.108224,569.96 332.288224,570.32 331.708224,570.6 Z M342.848224,578.64 C344.208224,578.6 345.328224,578.4 346.168224,578.04 C347.128224,577.54 347.628224,576.76 347.628224,575.72 C347.628224,575.16 347.508224,574.62 347.308224,574.1 C347.188224,573.84 347.088224,573.64 346.968224,573.48 C346.848224,573.36 346.728224,573.28 346.608224,573.26 C346.208224,573.26 345.988224,573.44 345.908224,573.78 C345.908224,573.92 345.928224,574.08 345.988224,574.24 C346.148224,574.84 346.228224,575.32 346.228224,575.68 C346.228224,576.06 346.088224,576.36 345.808224,576.58 C345.188224,576.96 344.208224,577.16 342.848224,577.2 C341.968224,577.2 341.208224,577.04 340.608224,576.74 C339.928224,576.34 339.588224,575.7 339.588224,574.78 L339.588965,574.452593 C339.590447,574.215556 339.594891,573.94 339.608224,573.62 L339.628224,573.62 C340.248224,573.42 340.908224,573.1 341.628224,572.68 C342.228224,572.32 342.708224,571.96 343.088224,571.6 C343.248224,571.4 343.328224,571.22 343.348224,571.02 C343.348224,570.92 343.328224,570.82 343.308224,570.74 C343.188224,570.58 343.028224,570.5 342.828224,570.48 C342.748224,570.48 342.648224,570.5 342.548224,570.54 C342.468224,570.58 342.288224,570.7 341.968224,570.9 C341.408224,571.2 340.808224,571.5 340.168224,571.78 C340.008224,571.82 339.848224,571.88 339.688224,571.94 C339.728224,571.38 339.788224,570.72 339.868224,569.92 C339.868224,569.46 339.648224,569.22 339.208224,569.22 C338.848224,569.22 338.608224,569.38 338.488224,569.68 C338.388224,570.2 338.288224,571.08 338.188224,572.34 C338.128224,573.1 338.108224,573.86 338.108224,574.62 C338.108224,575.34 338.208224,575.96 338.448224,576.52 C339.008224,577.7 340.068224,578.38 341.648224,578.58 C342.008224,578.62 342.408224,578.64 342.848224,578.64 Z M331.468224,573.74 C331.508224,573.08 331.548224,572.44 331.608224,571.82 C331.728224,571.8 331.988224,571.7 332.428224,571.52 C333.248224,571.16 333.928224,570.86 334.488224,570.58 C334.488224,571.2 334.508224,571.8 334.528224,572.4 C333.908224,572.84 333.208224,573.22 332.408224,573.5 C332.068224,573.62 331.748224,573.7 331.468224,573.74 Z" id="设置菜单开启个性化功能"></path>
        </g>
    </g>
</svg>