<?xml version="1.0" encoding="UTF-8"?>
<svg width="22px" height="22px" viewBox="0 0 22 22" version="1.1" xmlns="http://www.w3.org/2000/svg" xmlns:xlink="http://www.w3.org/1999/xlink">
    <title>竞足选中备份</title>
    <defs>
        <linearGradient x1="100%" y1="50%" x2="0%" y2="50%" id="linearGradient-1">
            <stop stop-color="#FFB001" offset="0%"></stop>
            <stop stop-color="#FF7000" offset="100%"></stop>
        </linearGradient>
        <linearGradient x1="50%" y1="99.9781469%" x2="50%" y2="2.31370192%" id="linearGradient-2">
            <stop stop-color="#569FFD" offset="0%"></stop>
            <stop stop-color="#9AC6FF" offset="100%"></stop>
        </linearGradient>
        <path d="M10.4827883,0.489347466 L10.5913877,0.600638175 L14.0955937,4.50866592 C14.2203576,4.64775251 14.397131,4.72972217 14.5835838,4.73862073 L14.6962785,4.73506371 L18.5709895,4.30381913 L19.967313,4.14364578 C20.1013546,4.12827132 20.2367428,4.12748071 20.3709649,4.14128863 C20.4021299,4.14431699 20.4332083,4.14813461 20.4641686,4.15273761 C20.4668249,4.15318658 20.4694813,4.15329883 20.4722532,4.15374781 C20.9747679,4.22715592 21.4260033,4.5046251 21.7113892,4.93485948 C22.0536655,5.45116692 22.0921844,6.08829422 21.8232985,6.63364338 L21.7423416,6.77993976 L19.0008585,11.2262936 C18.9032012,11.3845655 18.8775663,11.5733192 18.9264974,11.7484247 L18.9648244,11.8514973 L19.1211201,12.1858747 C18.5844855,12.0111294 18.0116076,11.9166667 17.4166667,11.9166667 C17.1642863,11.9166667 16.9158762,11.9336657 16.672519,11.9665813 L16.6720119,11.8570522 L14.5144575,12.1365388 L14.0233276,11.2985152 L14.6952891,11.234941 L14.9407986,10.7398692 L13.7158029,10.7398692 L13.7070386,9.85059368 L12.7961131,9.85059368 L13.0929876,9.36795317 L15.2380059,9.1777758 L15.3281999,8.55555556 L12.2211111,8.93155556 L12.2222222,8.93147832 L10.5555762,8.98370219 L10.5555762,8.55555556 L9.58977329,8.87958851 L9.53707661,8.99650761 L8.17479934,8.99650761 L7.91006668,9.42432019 L8.20114768,9.508836 L8.25384436,9.96871781 L7.40763111,10.0466639 L7.11643653,10.4614483 L11.8324485,10.3709195 L11.9461111,10.1165556 L11.8785312,10.2825275 L13.1963834,10.3330161 L13.1318165,10.8789037 L11.3360362,10.9998364 L11,11.412578 L12.5374018,11.412578 L11,13.4444444 L11.865884,13.4444444 L12.7185663,12.3018535 L12.7185663,13.4444444 L13.4291348,13.4444444 L13.4808327,11.618131 L14.1538126,12.9886055 C12.7968154,13.9901892 11.9166667,15.6006431 11.9166667,17.4166667 C11.9166667,17.9925743 12.0051821,18.5478081 12.1693504,19.0695056 L9.42374251,21.5344085 C9.08384342,21.8396022 8.65039412,22 8.2074743,22 C7.98567477,22 7.76580816,21.9599181 7.55885952,21.8823674 C7.2360655,21.7625994 6.95570428,21.5548241 6.75144037,21.2839903 C6.57546755,21.0632814 6.45714311,20.8053956 6.40534556,20.5323909 L6.38232127,20.3669502 L6.00569506,16.2398206 L6.01100779,16.2365795 L6.01632052,16.2334226 L5.9230013,15.2494846 C5.90500373,15.0604745 5.80601394,14.8891984 5.65293633,14.7759141 L5.57201477,14.7242911 L0.919220065,12.1901399 C0.31772687,11.8624972 -0.0336061368,11.2432426 0.00254351186,10.574039 C0.0358058083,9.95631262 0.392834245,9.41442919 0.945818032,9.12645671 L1.08807242,9.05985645 L5.98767799,7.01239877 C6.16713971,6.93748997 6.30420347,6.79308212 6.36770274,6.61657364 L6.39317772,6.52581749 L7.43539634,1.4422498 C7.50851291,1.07994092 7.6982428,0.749599597 7.97717909,0.498944372 C8.19978783,0.287505484 8.47511631,0.135921821 8.77616717,0.0590569405 C9.39162627,-0.0990528334 10.0320813,0.0656242585 10.4827883,0.489347466 Z M17.554057,12.8355452 L17.8475991,12.8542725 C17.9132368,12.86061 17.9768374,12.8726058 18.0447385,12.8732848 C18.0589977,12.8732848 18.0739359,12.8750955 18.0877425,12.8784906 C18.1900467,12.9038403 18.2934826,12.9185522 18.3948815,12.9407332 L18.5386903,12.9752495 L18.5386903,12.9752495 L18.6816503,13.014519 L18.795724,13.0462061 C18.7995718,13.0473378 18.8034195,13.0482432 18.8070409,13.0493749 C19.3493439,13.2220698 19.8445688,13.4859786 20.2795882,13.8338583 C20.5441307,14.0455284 20.7862205,14.2892117 21.0016859,14.5606203 L21.1582277,14.7693083 L21.3090598,14.9971424 C21.5956259,15.4587903 21.7942018,15.9633643 21.9026495,16.4910525 C21.9031022,16.4928631 21.9035548,16.4944475 21.9037812,16.4962582 C21.9635341,16.7886854 21.9981636,17.0879026 22.0002087,17.3914203 C22.0054064,18.3139691 21.7356129,19.1957774 21.22296,19.9603432 C21.2134539,19.9741497 21.2037214,19.9879562 21.1942153,20.0019891 L21.1351696,20.088959 L21.1351696,20.088959 L21.0742568,20.1749105 L21.0484543,20.2113507 L21.0238119,20.2461217 L21.0238119,20.2461217 L20.9979812,20.2803834 L20.8284889,20.4804278 C20.3628688,20.9991465 19.7849857,21.4036466 19.135399,21.6655364 L18.8885221,21.7570048 L18.8124729,21.7794121 C18.7746747,21.7916343 18.7364238,21.8018195 18.6981729,21.81291 C18.6049221,21.839844 18.511445,21.8645148 18.4166099,21.8853377 C18.3636471,21.8973336 18.3104579,21.9081977 18.2568161,21.9181566 C18.1730715,21.9337739 18.0893268,21.9457697 18.0051296,21.9566339 C17.946282,21.9643293 17.8881134,21.9729301 17.8283605,21.9781359 L17.6809586,21.9880664 L17.6809586,21.9880664 L17.5332173,21.9930741 L17.4150695,21.9991852 C17.3682178,21.9991852 17.3227241,21.9935267 17.2760987,21.9921687 C17.1871483,21.9894527 17.0984243,21.9865103 17.0099266,21.9785885 C16.9404412,21.9727038 16.8720875,21.9627449 16.8037337,21.9534651 C16.733343,21.9441853 16.6634049,21.9340002 16.5934668,21.9213253 C16.5253395,21.9088768 16.4578911,21.8950703 16.3908954,21.879453 C16.3191466,21.8631568 16.2485295,21.8443708 16.1774598,21.8244532 C16.1161225,21.8072516 16.0545589,21.7905026 15.9941269,21.7708113 C15.977378,21.7653792 15.9604028,21.7617579 15.9438802,21.7560994 L15.8187725,21.7083141 L15.8187725,21.7083141 L15.6933253,21.661038 L15.6792924,21.6558322 C15.2703018,21.4892483 14.8918667,21.2699279 14.5532668,20.9992291 C14.3178765,20.8109169 14.0981035,20.5906912 13.895532,20.3457947 L13.8760953,20.3216899 L13.8760953,20.3216899 L13.8568284,20.297585 L13.7585982,20.1751368 C13.7303061,20.1373386 13.7051827,20.0968242 13.677796,20.058347 C13.6456562,20.0128533 13.6137427,19.9678122 13.5831872,19.9214132 C13.5417676,19.8580389 13.503743,19.7933066 13.4657184,19.7278952 C13.4317679,19.6704057 13.3971383,19.6138215 13.3656775,19.5547476 C13.3475706,19.520118 13.3321797,19.4836778 13.3147517,19.4485956 C13.222859,19.2643574 13.1427358,19.0740082 13.0759664,18.8768688 C13.073703,18.8700787 13.0707607,18.8632886 13.0687236,18.8564985 C13.0372628,18.7623424 13.0112341,18.6661481 12.9858843,18.5695034 C12.9766045,18.5341949 12.9668721,18.4988863 12.9584976,18.4631251 C12.9381273,18.3757591 12.920473,18.2874878 12.9050821,18.1983111 C12.8960286,18.1467063 12.8887859,18.0953278 12.8815431,18.0432703 C12.8704526,17.9640525 12.8598147,17.8848345 12.8530246,17.804485 C12.8462345,17.7275305 12.8439712,17.6503496 12.8412551,17.5731688 C12.8394444,17.5206586 12.8333333,17.4688275 12.8333333,17.4158647 C12.8333333,17.4056795 12.8346914,17.3957207 12.8346914,17.3853092 C12.8355967,17.2567499 12.8428395,17.1286433 12.8541563,17.0016683 C12.8620781,16.914755 12.87679,16.830105 12.8844855,16.742739 C12.8851645,16.7386649 12.8860698,16.7316485 12.8865225,16.7278008 C12.9062138,16.6236858 12.923189,16.5202499 12.9458227,16.4183983 C12.964156,16.3366907 12.985658,16.2561148 13.0082917,16.1755389 C13.0227772,16.1250658 13.0347731,16.0736874 13.050843,16.0236669 C13.0881886,15.9071035 13.1307399,15.791898 13.1773653,15.678277 C13.2024887,15.617166 13.2312335,15.5583184 13.2588465,15.4983392 C13.2864596,15.4392653 13.3140727,15.3804177 13.3439492,15.3222491 C13.3772207,15.2579695 13.4118502,15.1950479 13.4478378,15.1325789 C13.4770352,15.0821058 13.507817,15.0323117 13.5390515,14.9829703 C13.5788868,14.9198223 13.6180431,14.857127 13.6608207,14.7962424 L13.6682898,14.7846143 L13.6682898,14.7846143 L13.675759,14.773156 L13.7149152,14.7167982 C13.7533925,14.6613456 13.7920961,14.6058931 13.8348737,14.5522513 C14.3144814,13.9524587 14.9303439,13.4898263 15.6310827,13.1942304 C15.6322144,13.1937777 15.6333461,13.1933251 15.6344777,13.1928724 L15.8262982,13.1160028 L15.8262982,13.1160028 L16.0221927,13.0477905 L16.2419092,12.9848972 L16.4628705,12.9334904 C16.4875412,12.9282847 16.5124383,12.9237579 16.5373353,12.9190048 L16.7240915,12.8863841 L16.7240915,12.8863841 L16.9116964,12.8617416 L16.9673753,12.8551779 L17.2604647,12.8358806 L17.2604647,12.8358806 L17.554057,12.8355452 Z M18.3355813,19.1106747 L16.4970473,19.1106747 C16.4413685,19.1106747 16.3883632,19.1311724 16.3474847,19.1672024 L16.3109985,19.2082259 L15.8203003,19.9159811 C15.7900843,19.9594378 15.7764192,20.0116792 15.7807373,20.0634431 L15.7911028,20.1147049 L16.1962457,21.3618207 C16.2143527,21.3674791 16.2329123,21.3711005 16.2510192,21.3767589 C16.342912,21.403693 16.4363891,21.427911 16.5309979,21.4487341 C16.6118001,21.4663883 16.693734,21.4779315 16.774989,21.4946804 C16.7795157,21.4955858 16.7842688,21.4962648 16.7890218,21.4971701 C16.8791039,21.5073553 16.9685069,21.5207092 17.0588153,21.5284046 C17.1482184,21.5361 17.2387531,21.5401741 17.3297405,21.5422112 C17.383835,21.5433428 17.4377032,21.5435692 17.4917976,21.5426638 L17.6358893,21.5377127 L17.6358893,21.5377127 L17.7787927,21.5281782 L17.9200269,21.5123347 C18.0035452,21.5019232 18.0866108,21.4894747 18.1685447,21.4743101 C18.207022,21.4672937 18.2457256,21.4609562 18.2839765,21.4528081 C18.3636471,21.4356065 18.4426386,21.4168206 18.5207248,21.3955449 C18.5753851,21.3806067 18.6212608,21.3447889 18.6506174,21.2974491 L18.6741812,21.2466153 L19.0417522,20.1149312 C19.0582182,20.0643449 19.0562236,20.0103212 19.0371052,19.9620265 L19.0123283,19.9159811 L18.5216301,19.2082259 C18.4795315,19.147115 18.4098198,19.1106747 18.3355813,19.1106747 Z M20.3141152,16.6736744 L20.2632919,16.6820807 L19.483109,16.9038908 C19.4286184,16.919508 19.3826578,16.9546044 19.3532482,17.00135 L19.3296526,17.0516887 L18.7615472,18.8012723 C18.7450812,18.8516888 18.7470758,18.9056702 18.7660987,18.9540497 L18.7907446,19.0002224 L19.2864222,19.7152204 C19.318166,19.7608838 19.3651874,19.7927973 19.4181291,19.8059001 L19.4726975,19.8125452 L20.7714181,19.8125452 L20.8024545,19.7715217 L20.8024545,19.7715217 L20.8329817,19.7301586 L20.8442985,19.712957 L20.9479325,19.5511262 L20.9479325,19.5511262 L21.0439276,19.3845423 C21.3316017,18.8553668 21.5036177,18.2585166 21.5350785,17.6256789 C21.538134,17.5683025 21.5180184,17.5124539 21.4817019,17.469114 L21.4402434,17.4303502 L20.4583943,16.7164839 C20.4302153,16.6960004 20.3981887,16.6826466 20.3648323,16.6767901 L20.3141152,16.6736744 Z M14.4191092,16.6911519 L14.3742344,16.7164839 L13.3894429,17.4326136 C13.3276529,17.4774283 13.2909864,17.5507614 13.2952868,17.6270369 L13.3046515,17.7644234 L13.3046515,17.7644234 L13.3165624,17.9011308 L13.3188258,17.9176534 C13.333085,17.9946079 13.3412331,18.0738258 13.3550397,18.1510066 C13.3690726,18.2266032 13.3851425,18.3015206 13.4030231,18.3759854 C13.4116239,18.411294 13.4209037,18.4461499 13.4301835,18.4812321 C13.4512328,18.5597709 13.4729612,18.6385362 13.4985372,18.7159433 C13.5001216,18.7202437 13.5021586,18.7247705 13.503743,18.7292972 C13.5553478,18.8834326 13.6178167,19.0334939 13.6873021,19.1806128 C13.7090305,19.2263329 13.7298535,19.2722792 13.7531661,19.3170939 C13.7952648,19.3983488 13.8425692,19.4764351 13.8867049,19.5565583 C13.8891946,19.5601797 13.8914579,19.5642537 13.8939476,19.5683278 L13.9416198,19.64118 L13.9416198,19.64118 L13.9887828,19.7145413 L14.1761897,19.8125452 L15.3603839,19.8125452 C15.4160627,19.8125452 15.4689407,19.7920476 15.509851,19.7561131 L15.5464327,19.7152204 L16.041884,19.0002224 C16.0722697,18.956596 16.0859773,18.9043121 16.0816698,18.8525376 L16.0713078,18.8012723 L15.5032024,17.0516887 C15.4857179,16.9980469 15.4488816,16.9534444 15.4010007,16.9257111 L15.349746,16.9038908 L14.569563,16.6820807 C14.5193163,16.6678215 14.4662686,16.671259 14.4191092,16.6911519 Z M15.9980242,13.5479347 L15.9429748,13.5611224 C15.2474418,13.8279735 14.6433488,14.2770257 14.1868275,14.8505632 C14.1513492,14.8950384 14.1352227,14.9513538 14.1393074,15.0071918 L14.1501609,15.0624145 L14.523164,16.2113002 C14.5406485,16.2652815 14.5773575,16.3099689 14.6251747,16.3376279 L14.676394,16.3593244 L15.4712889,16.5856612 C15.5215357,16.5999205 15.5744561,16.5962283 15.6215518,16.5762081 L15.6663912,16.5508054 L17.1534241,15.4700471 C17.1972203,15.4383033 17.2277758,15.3920458 17.2403162,15.34025 L17.2466749,15.2869406 L17.2466749,14.4974778 C17.2466749,14.443157 17.2270685,14.3913824 17.1926299,14.3509389 L17.1534241,14.3145976 L16.1579948,13.5909989 C16.1269867,13.5685915 16.0911123,13.5542757 16.0540496,13.5489851 L15.9980242,13.5479347 Z M18.9016496,13.5654228 L18.6775762,13.5891882 L17.6794309,14.3145976 C17.6354649,14.3465111 17.6049943,14.3926838 17.5925069,14.4443311 L17.5861801,14.4974778 L17.5861801,15.2869406 C17.5861801,15.3412614 17.6056592,15.3931633 17.6401296,15.4336705 L17.6794309,15.4700471 L19.1664637,16.5508054 C19.2085624,16.5815306 19.2595731,16.5964688 19.3106155,16.5939013 L19.3613397,16.5854349 L20.1562346,16.3593244 C20.2105555,16.3438769 20.2564735,16.308823 20.2858726,16.2619925 L20.3094647,16.2115265 L20.6817887,15.0651305 C20.7053277,14.9931554 20.6924265,14.9128058 20.6453485,14.8535056 C20.2241357,14.3227458 19.6777586,13.8961009 19.0480896,13.6235914 C18.9998798,13.6029947 18.9500858,13.5855668 18.9016496,13.5654228 Z M11.3096838,10.8377051 L7.50041815,10.8377051 L6.6272887,12.0048919 L7.38105563,12.0048919 L6.11111111,13.4444444 L7.16936035,13.4444444 L8.30688175,12.0048919 L9.11368606,11.9786129 L8.06872456,13.4444444 L10.8860661,13.4444444 L11.481743,12.6401523 L9.41816838,12.6791254 L9.94717943,11.9272799 L10.4499557,11.9272799 L11.3096838,10.8377051 Z M10.0662012,11.1101823 L9.76194606,11.6676081 L7.89677894,11.6676081 L8.33334366,11.1101823 L10.0662012,11.1101823 Z M16.9564612,10.5995261 L15.3671397,10.7012667 L15.3671397,11.4630666 L16.8788035,11.386734 L16.9564612,10.5995261 Z M17.1111111,9.36762603 L14.2945751,9.67284763 L14.2300082,10.1169947 L17.0208062,9.96498363 L17.1111111,9.36762603 Z M10.515713,9.42420883 L10.2778965,9.99466272 L8.98149009,9.99466272 L8.69063622,9.49547381 L10.515713,9.42420883 Z M11.9541111,9.27755556 L11.904491,9.40633759 L12.2275473,9.43174547 L12.0281111,9.91655556 L11.0581253,9.96871781 L11.1111627,9.43723696 L11.8324485,9.43723696 L11.9541111,9.27755556 Z" id="path-3"></path>
    </defs>
    <g id="页面-1" stroke="none" stroke-width="1" fill="none" fill-rule="evenodd">
        <g id="画板" transform="translate(0.000000, -414.000000)">
            <g id="形状结合" transform="translate(0.000000, 414.000000)">
                <use fill="url(#linearGradient-1)" xlink:href="#path-3"></use>
                <use fill="url(#linearGradient-2)" xlink:href="#path-3"></use>
            </g>
        </g>
    </g>
</svg>