<?xml version="1.0" encoding="UTF-8"?>
<svg width="12px" height="12px" viewBox="0 0 12 12" version="1.1" xmlns="http://www.w3.org/2000/svg" xmlns:xlink="http://www.w3.org/1999/xlink">
    <title>money</title>
    <defs>
        <linearGradient x1="50%" y1="98.8040433%" x2="50%" y2="0%" id="linearGradient-1">
            <stop stop-color="#FFC855" offset="0%"></stop>
            <stop stop-color="#FF7300" offset="100%"></stop>
        </linearGradient>
        <linearGradient x1="50%" y1="98.8040433%" x2="50%" y2="0%" id="linearGradient-2">
            <stop stop-color="#FFC855" offset="0%"></stop>
            <stop stop-color="#FF7300" offset="100%"></stop>
        </linearGradient>
    </defs>
    <g id="页面-1" stroke="none" stroke-width="1" fill="none" fill-rule="evenodd">
        <g id="画板" transform="translate(-1.000000, -505.000000)" fill-rule="nonzero">
            <g id="编组" transform="translate(0.000000, 504.000000)">
                <rect id="矩形" fill="#685C50" opacity="0" x="0" y="0" width="14" height="14"></rect>
                <g id="编组-3" transform="translate(0.999869, 1.000000)">
                    <g id="path-3-link" fill="url(#linearGradient-1)">
                        <path d="M5.11837351,0.000149112286 C5.21887248,0.000149112286 5.31937145,0.0122106108 5.41595487,0.0376737744 L9.76481923,1.23846296 C10.0493488,1.30145079 10.2934177,1.49041427 10.4330721,1.7530869 C10.6079664,2.0010177 10.6497322,2.32399783 10.5440125,2.61079346 C10.4700522,2.90781998 10.4330721,3.05633323 10.4330721,3.05633323 C10.7441151,3.04990348 11.0436231,3.11090292 11.3315962,3.23933156 C11.7192351,3.42427453 11.9606937,3.82900482 11.9437263,4.26857943 L11.9998491,5.69719693 L7.64259431,5.69719693 C6.73940879,5.67575426 5.99023468,6.41150567 5.97065696,7.33890089 L5.97065696,7.41529039 C5.94977405,8.33866511 6.66631863,9.10792068 7.56950415,9.12802318 L11.9998491,9.12802318 L11.9998491,10.8420961 C12.0115957,11.4599129 11.5417304,11.9745368 10.941347,12 L1.05739487,12 C0.462232161,11.9745368 -0.00632795537,11.4692941 6.46370504e-05,10.856838 L6.46370504e-05,4.27125976 C0.0171653095,3.76065633 0.355207287,3.32108171 0.835514036,3.1857249 L1.73403819,3.1857249 L2.12428743,1.64319325 C2.24697448,1.16207347 2.66071697,0.820331013 3.14493927,0.798888349 C3.2336916,0.798888349 3.32374912,0.812290014 3.40858591,0.839093345 L4.13165639,1.01063466 L4.18777919,0.667552032 C4.2569538,0.406219563 4.44228956,0.193133089 4.68896884,0.0966411007 C4.82340252,0.0309729419 4.96958284,-0.00253122073 5.11837351,0.000149112286 Z M3.13319263,1.34165578 C2.88259781,1.34969678 2.66071697,1.51185693 2.57196464,1.7530869 L2.57196464,1.7530869 L2.29396101,3.12407724 L8.92819797,3.12407724 L8.92819797,2.95253592 L8.81134345,2.8769631 C8.69130755,2.80729538 8.56209459,2.75553145 8.42700832,2.72336745 L8.42700832,2.72336745 L3.24152269,1.35237712 L3.18735766,1.34450364 L3.18735766,1.34450364 Z M5.18628373,0.547900291 L5.07562882,0.556653254 C5.00221237,0.566369461 4.9297748,0.583791626 4.8599476,0.608584706 C4.8038248,0.608584706 4.74900718,0.666211865 4.69288438,0.780126018 L4.69288438,0.780126018 L4.63676159,1.12320864 L8.59537672,2.15245652 L8.6032078,2.15245652 L8.7609716,2.19033716 C8.9168592,2.23487676 9.06687348,2.29920475 9.20881196,2.38162499 C9.51683477,2.59203113 9.55468503,2.81583894 9.4868156,2.95253592 L9.4868156,2.95253592 L9.4868156,3.06645008 L9.87706483,3.06645008 L10.044128,2.38028483 L10.0587147,2.29821303 C10.0694485,2.18799774 10.0454332,2.07606703 9.98800525,1.97957504 C9.92796691,1.84421822 9.79875395,1.75576723 9.65387882,1.75040657 L9.65387882,1.75040657 L5.30370927,0.549617379 L5.29718336,0.549617379 L5.29718336,0.550957546 L5.18628373,0.547900291 Z" id="形状结合"></path>
                    </g>
                    <path d="M11.0465073,6.27614886 L11.0465073,8.56515325 L7.64520467,8.56515325 C7.02915906,8.56515325 6.53057977,8.05186948 6.53057977,7.42065105 C6.53057977,6.78943263 7.03046424,6.27614886 7.64520467,6.27614886 L11.0465073,6.27614886 Z M7.70524301,6.84705979 C7.68566529,6.84571962 7.66478239,6.84571962 7.64520467,6.84839995 C7.33718186,6.84839995 7.0891974,7.10437176 7.0891974,7.41931089 C7.0891974,7.73559018 7.33848704,7.99022182 7.64520467,7.99022182 C7.95322748,7.99022182 8.20121194,7.73425001 8.20121194,7.41931089 C8.2181793,7.12045375 7.99629846,6.86448195 7.70524301,6.84705979 Z" id="形状结合" fill="url(#linearGradient-2)"></path>
                </g>
            </g>
        </g>
    </g>
</svg>