<?xml version="1.0" encoding="UTF-8"?>
<svg width="20px" height="20px" viewBox="0 0 20 20" version="1.1" xmlns="http://www.w3.org/2000/svg" xmlns:xlink="http://www.w3.org/1999/xlink">
    <title>数据@2x</title>
    <g id="页面-1" stroke="none" stroke-width="1" fill="none" fill-rule="evenodd">
        <g id="画板" transform="translate(-1156.000000, -309.000000)">
            <g id="编组-13备份-3" transform="translate(876.000000, 253.000000)">
                <g id="数据" transform="translate(280.000000, 56.000000)">
                    <rect id="矩形备份-19" x="0" y="0" width="20" height="20"></rect>
                    <path d="M7.15000546,7.98860744 C7.42614783,7.98860744 7.65000546,8.21246506 7.65000546,8.48860744 L7.65000546,19.5 C7.65000546,19.7761424 7.42614783,20 7.15000546,20 C6.87386308,20 6.65000546,19.7761424 6.65000546,19.5 L6.65000546,8.48860744 C6.65000546,8.21246506 6.87386308,7.98860744 7.15000546,7.98860744 Z M1.50000546,12.9926762 C1.77614783,12.9926762 2.00000546,13.2165338 2.00000546,13.4926762 L2.00000546,19.5 C2.00000546,19.7761424 1.77614783,20 1.50000546,20 C1.22386308,20 1.00000546,19.7761424 1.00000546,19.5 L1.00000546,13.4926762 C1.00000546,13.2165338 1.22386308,12.9926762 1.50000546,12.9926762 Z M12.8000055,10.9910487 C13.0761478,10.9910487 13.3000055,11.2149063 13.3000055,11.4910487 L13.3000055,19.5 C13.3000055,19.7761424 13.0761478,20 12.8000055,20 C12.5238631,20 12.3000055,19.7761424 12.3000055,19.5 L12.3000055,11.4910487 C12.3000055,11.2149063 12.5238631,10.9910487 12.8000055,10.9910487 Z M18.5000055,5.98697993 C18.7761478,5.98697993 19.0000055,6.21083755 19.0000055,6.48697993 L19.0000055,19.5 C19.0000055,19.7761424 18.7761478,20 18.5000055,20 C18.2238631,20 18.0000055,19.7761424 18.0000055,19.5 L18.0000055,6.48697993 C18.0000055,6.21083755 18.2238631,5.98697993 18.5000055,5.98697993 Z M18.8603796,0.153526981 C19.0305316,0.330585737 19.0445643,0.600554222 18.9057974,0.792911823 L18.8466039,0.861074864 L13.1466039,6.34764732 C13.0128211,6.47642082 12.8210756,6.51877027 12.6487218,6.46396262 L12.564519,6.42841268 L7.22100546,3.57301715 L1.83197574,8.36280437 C1.64842443,8.52590777 1.37833059,8.52918824 1.19180877,8.38275739 L1.12611278,8.32084786 C0.963142005,8.13714718 0.959864204,7.86683356 1.10617598,7.68015995 L1.16803518,7.6144105 L6.81803518,2.59382976 C6.95214659,2.47465858 7.13765236,2.43792429 7.30415193,2.4919684 L7.38549193,2.52659394 L12.7150055,5.3734811 L18.153407,0.139740082 C18.3524362,-0.0518367239 18.6689586,-0.0456641189 18.8603796,0.153526981 Z" id="形状结合" fill="#FFFFFF"></path>
                </g>
            </g>
        </g>
    </g>
</svg>