<svg width="20" height="20" viewBox="0 0 20 20" fill="none" xmlns="http://www.w3.org/2000/svg">
<rect x="1.33325" y="3.83325" width="17.3333" height="12.3333" rx="3.66667" stroke="white" stroke-opacity="0.8"/>
<circle cx="10" cy="10" r="3.25" stroke="white" stroke-opacity="0.8"/>
<path d="M10 16.6666V3.33325" stroke="white" stroke-opacity="0.8"/>
<path d="M1.33325 7.5C1.33325 7.08579 1.66904 6.75 2.08325 6.75C3.18782 6.75 4.08325 7.64543 4.08325 8.75V11.25C4.08325 12.3546 3.18782 13.25 2.08325 13.25C1.66904 13.25 1.33325 12.9142 1.33325 12.5V7.5Z" stroke="white" stroke-opacity="0.8"/>
<path d="M18.6667 7.5C18.6667 7.08579 18.331 6.75 17.9167 6.75C16.8122 6.75 15.9167 7.64543 15.9167 8.75V11.25C15.9167 12.3546 16.8122 13.25 17.9167 13.25C18.331 13.25 18.6667 12.9142 18.6667 12.5V7.5Z" stroke="white" stroke-opacity="0.8"/>
</svg>
