<?xml version="1.0" encoding="UTF-8"?>
<svg width="12px" height="8px" viewBox="0 0 12 8" version="1.1" xmlns="http://www.w3.org/2000/svg" xmlns:xlink="http://www.w3.org/1999/xlink">
    <title>形状</title>
    <g id="页面-1" stroke="none" stroke-width="1" fill="none" fill-rule="evenodd">
        <g id="H5-方案一发布跟单备份" transform="translate(-182.000000, -270.000000)" fill="#999999" fill-rule="nonzero">
            <path d="M189.124833,274.167946 L192.219592,277.254324 C192.621298,277.654942 193.27171,277.65406 193.672328,277.252354 C193.684391,277.240258 193.696151,277.227863 193.707597,277.21518 C194.112843,276.766116 194.094752,276.078156 193.666462,275.651012 L188.000299,270 L188.000299,270 L182.333563,275.650794 C181.90519,276.077962 181.88715,276.766041 182.292553,277.215068 C182.672833,277.63627 183.322563,277.669443 183.743765,277.289162 C183.756438,277.277721 183.768823,277.265966 183.78091,277.253907 L186.874079,274.167946 L186.874079,274.167946 L186.912705,274.142813 C187.587503,273.703717 188.460186,273.713633 189.124833,274.167946 L189.124833,274.167946 L189.124833,274.167946 Z" id="形状" transform="translate(188.000000, 273.777106) scale(1, -1) translate(-188.000000, -273.777106) "></path>
        </g>
    </g>
</svg>