<?xml version="1.0" encoding="UTF-8"?>
<svg width="14px" height="14px" viewBox="0 0 14 14" version="1.1" xmlns="http://www.w3.org/2000/svg" xmlns:xlink="http://www.w3.org/1999/xlink">
    <!-- Generator: Sketch 61.2 (89653) - https://sketch.com -->
    <title>注意 (1)</title>
    <desc>Created with Sketch.</desc>
    <g id="页面-1" stroke="none" stroke-width="1" fill="none" fill-rule="evenodd">
        <g id="账户信息失效" transform="translate(-87.000000, -313.000000)" fill="#414655" fill-rule="nonzero">
            <g id="编组-2" transform="translate(48.000000, 275.000000)">
                <g id="编组-4">
                    <g id="编组" transform="translate(39.000000, 35.000000)">
                        <g id="注意-(1)" transform="translate(0.000000, 3.000000)">
                            <path d="M6.99300699,13.986014 C3.13986013,13.986014 0,10.8461538 0,6.99300699 C0,3.13986013 3.13986014,0 6.99300699,0 C10.8461538,0 13.986014,3.13986014 13.986014,6.99300699 C13.986014,10.8461538 10.8461538,13.986014 6.99300699,13.986014 Z M6.99300699,0.860139861 C3.61538461,0.860139861 0.867132861,3.60839161 0.867132861,6.98601399 C0.867132861,10.3636364 3.61538461,13.1118881 6.99300699,13.1118881 C10.3706294,13.1118881 13.1188811,10.3636364 13.1188811,6.98601399 C13.1188811,3.61538461 10.3706294,0.860139861 6.99300699,0.860139861 Z" id="形状"></path>
                            <path d="M7.61538462,7.6083916 C7.61538462,8.56643356 6.37762237,8.56643356 6.37762237,7.6083916 L6.13286714,3.86713287 C6.13286714,3.3986014 6.52447554,3.02097902 7,3.02097902 C7.47552446,3.02097902 7.86713286,3.3986014 7.86713286,3.86713287 L7.61538462,7.6083916 Z M6.99300699,9.20979021 C7.4055944,9.20979021 7.74125874,9.54545456 7.74125874,9.95804195 C7.74125874,10.3706294 7.4055944,10.7062937 6.99300699,10.7062937 C6.58041958,10.7062937 6.24475525,10.3706294 6.24475525,9.95804195 C6.24475525,9.54545454 6.58041959,9.20979021 6.99300699,9.20979021 L6.99300699,9.20979021 Z" id="形状"></path>
                        </g>
                    </g>
                </g>
            </g>
        </g>
    </g>
</svg>