<svg width="29" height="24" viewBox="0 0 29 24" fill="none" xmlns="http://www.w3.org/2000/svg">
<g id="&#230;&#164;&#173;&#229;&#156;&#134;&#229;&#189;&#162;">
<path id="&#232;&#146;&#153;&#231;&#137;&#136;" fill-rule="evenodd" clip-rule="evenodd" d="M6.48672 23.4316V8.27615L4.57463 10.3855L0.925781 6.83693C3.10025 4.32413 4.58547 2.87103 5.38142 2.47763C6.17737 2.08423 7.66365 1.30767 9.84025 0.147949C9.84025 0.147949 13.1242 0.659245 14.7662 0.659245C16.351 0.659245 19.5207 0.147949 19.5207 0.147949C21.6973 1.30767 23.1835 2.08423 23.9795 2.47763C24.7754 2.87103 26.2607 4.32413 28.4351 6.83693L24.9936 10.3855L22.8742 8.27615V23.4316H6.48672Z" fill="url(#paint0_linear_2867_55499)"/>
<mask id="mask0_2867_55499" style="mask-type:luminance" maskUnits="userSpaceOnUse" x="0" y="0" width="29" height="24">
<path id="&#232;&#146;&#153;&#231;&#137;&#136;_2" fill-rule="evenodd" clip-rule="evenodd" d="M6.48672 23.4316V8.27615L4.57463 10.3855L0.925781 6.83693C3.10025 4.32413 4.58547 2.87103 5.38142 2.47763C6.17737 2.08423 7.66365 1.30767 9.84025 0.147949C9.84025 0.147949 13.1242 0.659245 14.7662 0.659245C16.351 0.659245 19.5207 0.147949 19.5207 0.147949C21.6973 1.30767 23.1835 2.08423 23.9795 2.47763C24.7754 2.87103 26.2607 4.32413 28.4351 6.83693L24.9936 10.3855L22.8742 8.27615V23.4316H6.48672Z" fill="white"/>
</mask>
<g mask="url(#mask0_2867_55499)">
<ellipse id="&#230;&#164;&#173;&#229;&#156;&#134;&#229;&#189;&#162;_2" cx="14.6651" cy="-0.839794" rx="5.02645" ry="4.27984" fill="#7FB9DF"/>
<path id="&#231;&#159;&#169;&#229;&#189;&#162;&#229;&#164;&#135;&#228;&#187;&#189;" fill-rule="evenodd" clip-rule="evenodd" d="M2.51314 5.05573L6.30433 8.78041L5.35654 9.71158L1.56535 5.9869L2.51314 5.05573Z" fill="white"/>
<path id="&#231;&#159;&#169;&#229;&#189;&#162;&#229;&#164;&#135;&#228;&#187;&#189; 2" fill-rule="evenodd" clip-rule="evenodd" d="M27.1451 5.06305L23.3539 8.78773L24.3017 9.7189L28.0929 5.99422L27.1451 5.06305Z" fill="white"/>
<rect id="&#231;&#159;&#169;&#229;&#189;&#162;" x="6.28711" y="20.5596" width="16.7549" height="1.31687" fill="white"/>
</g>
</g>
<defs>
<linearGradient id="paint0_linear_2867_55499" x1="-12.8289" y1="11.7898" x2="10.1347" y2="38.9209" gradientUnits="userSpaceOnUse">
<stop stop-color="#D4F4FF"/>
<stop offset="1" stop-color="#6BA9DD"/>
</linearGradient>
</defs>
</svg>
