<?xml version="1.0" encoding="UTF-8"?>
<svg width="18px" height="16px" viewBox="0 0 18 16" version="1.1" xmlns="http://www.w3.org/2000/svg" xmlns:xlink="http://www.w3.org/1999/xlink">
    <title>删除</title>
    <g id="页面-1" stroke="none" stroke-width="1" fill="none" fill-rule="evenodd">
        <g id="全屏模式-快速投注弹出-投注备份-3" transform="translate(-737.000000, -216.000000)" fill="#D8D8D8">
            <g id="编组-31备份" transform="translate(488.000000, 16.000000)">
                <g id="编组-23" transform="translate(0.000000, 159.000000)">
                    <g id="编组-20备份-5" transform="translate(235.000000, 33.000000)">
                        <g id="编组" transform="translate(14.000000, 7.000000)">
                            <g id="编组" transform="translate(0.000000, 1.500000)">
                                <path d="M5.70745,1.5001 C5.52195,1.5001 5.34695,1.5926 5.25045,1.7406 L5.24995,1.7411 L1.49695,7.5096 L5.24995,13.2591 C5.34695,13.4076 5.52195,13.5001 5.70745,13.5001 L16.24345,13.5001 C16.38445,13.5001 16.49945,13.3971 16.49945,13.2706 L16.49945,1.7296 C16.49945,1.6031 16.38445,1.5001 16.24345,1.5001 L5.70745,1.5001 Z M16.24345,15.0001 L5.70745,15.0001 C5.00945,15.0001 4.36795,14.6551 3.99245,14.0766 L0.23995,8.3091 C-0.07955,7.8176 -0.07955,7.1826 0.23945,6.6916 L3.99245,0.9236 C4.36795,0.3451 5.00945,0.0001 5.70745,0.0001 L16.24345,0.0001 C17.21195,0.0001 17.99945,0.7761 17.99945,1.7296 L17.99945,13.2706 C17.99945,14.2241 17.21195,15.0001 16.24345,15.0001 L16.24345,15.0001 Z" id="Fill-2"></path>
                                <path d="M7.0336,10.4664 L7.0336,10.4664 C7.3251,10.7579 7.8026,10.7579 8.0941,10.4664 L12.9661,5.5944 C13.2581,5.3029 13.2581,4.8254 12.9661,4.5339 C12.6746,4.2419 12.1971,4.2419 11.9056,4.5339 L7.0336,9.4059 C6.7421,9.6974 6.7421,10.1749 7.0336,10.4664" id="Fill-4"></path>
                                <path d="M12.9662,10.4664 L12.9662,10.4664 C12.6747,10.7579 12.1972,10.7579 11.9057,10.4664 L7.0337,5.5944 C6.7422,5.3029 6.7422,4.8254 7.0337,4.5339 C7.3252,4.2419 7.8027,4.2419 8.0942,4.5339 L12.9662,9.4059 C13.2582,9.6974 13.2582,10.1749 12.9662,10.4664" id="Fill-6"></path>
                            </g>
                        </g>
                    </g>
                </g>
            </g>
        </g>
    </g>
</svg>