<?xml version="1.0" encoding="UTF-8"?>
<svg width="20px" height="20px" viewBox="0 0 20 20" version="1.1" xmlns="http://www.w3.org/2000/svg" xmlns:xlink="http://www.w3.org/1999/xlink">
    <title>注单</title>
    <defs>
        <polygon id="path-1" points="0 0 11.99985 0 11.99985 9.75 0 9.75"></polygon>
    </defs>
    <g id="页面-1" stroke="none" stroke-width="1" fill="none" fill-rule="evenodd">
        <g id="H5-点击屏幕出现按钮备份-2" transform="translate(-760.000000, -203.000000)">
            <g id="编组-13" transform="translate(760.000000, 101.000000)">
                <g id="注单" transform="translate(0.000000, 102.000000)">
                    <rect id="矩形复制-67" fill-opacity="0.8" fill="#000000" x="0" y="0" width="20" height="20" rx="10"></rect>
                    <g id="投注" transform="translate(4.000000, 4.000000)">
                        <g id="编组" transform="translate(0.000000, 2.250000)">
                            <mask id="mask-2" fill="white">
                                <use xlink:href="#path-1"></use>
                            </mask>
                            <g id="Clip-2"></g>
                        </g>
                        <path d="M10.0623,2.63525 L8.8928,2.63525 L8.8928,4.78125 L3.1068,4.78125 L3.1068,2.63525 L1.9373,2.63525 C1.1123,2.63525 0.4373,3.31075 0.4373,4.13525 L0.4373,10.11475 C0.4373,10.93925 1.1123,11.61475 1.9373,11.61475 L10.0623,11.61475 C10.8873,11.61475 11.5623,10.93925 11.5623,10.11475 L11.5623,4.13525 C11.5623,3.31075 10.8873,2.63525 10.0623,2.63525" id="Fill-11" fill="#FFFFFF" opacity="0.200947"></path>
                        <path d="M9.178,4.5 L9.75,4.5 C9.9085,4.5 10.0385,4.63 10.0385,4.7885 C10.0385,4.9475 9.9085,5.077 9.75,5.077 L9.75,5.077 L2.25,5.077 C2.091,5.077 1.9615,4.9475 1.9615,4.7885 C1.9615,4.63 2.091,4.5 2.25,4.5 L2.25,4.5 L2.8315,4.5 L2.8315,0.9355 C2.8315,0.421 3.2525,0 3.767,0 L3.767,0 L8.242,0 C8.7565,0 9.178,0.421 9.178,0.9355 L9.178,0.9355 L9.178,2.25 L10.2215,2.25 C11.1506,2.25 11.9195062,2.97245125 11.9940741,3.88320913 L12,4.0285 L12,10.2215 C12,11.1995 11.1995,12 10.2215,12 L10.2215,12 L1.7785,12 C0.8,12 0,11.1995 0,10.2215 L0,10.2215 L0,4.0285 C0,3.0505 0.8,2.25 1.7785,2.25 L1.7785,2.25 L2.8265,2.25 L2.8265,2.9425 L1.7785,2.9425 C1.1795,2.9425 0.692,3.4295 0.692,4.0285 L0.692,4.0285 L0.692,10.2215 C0.692,10.8205 1.1795,11.3075 1.7785,11.3075 L1.7785,11.3075 L10.2215,11.3075 C10.8205,11.3075 11.3075,10.8205 11.3075,10.2215 L11.3075,10.2215 L11.3075,4.0285 C11.3075,3.4295 10.8205,2.9425 10.2215,2.9425 L10.2215,2.9425 L9.178,2.942 L9.178,4.5 Z M8.242,0.577 L3.767,0.577 C3.573,0.577 3.4085,0.741 3.4085,0.9355 L3.4085,0.9355 L3.4085,4.5 L8.601,4.5 L8.601,0.9355 C8.601,0.741 8.4365,0.577 8.242,0.577 L8.242,0.577 Z" id="形状结合" fill="#FFFFFF"></path>
                        <path d="M3.22365,7.72495 C3.91665,7.72495 4.32065,8.06045 4.32065,8.58545 C4.32065,8.92545 4.06115,9.14495 3.88165,9.21795 C4.09615,9.30395 4.37065,9.49745 4.37065,9.90645 C4.37065,10.47845 3.91665,10.78845 3.28365,10.78845 L1.79715,10.78845 L1.79715,7.72495 L3.22365,7.72495 Z M7.41765,7.72505 L7.41765,8.25805 L5.77165,8.25805 L5.77165,8.97705 L7.17315,8.97705 L7.17315,9.51055 L5.77165,9.51055 L5.77165,10.25505 L7.41765,10.25505 L7.41765,10.78855 L5.07865,10.78855 L5.07865,7.72505 L7.41765,7.72505 Z M10.3797,7.7253 L10.3797,8.2583 L9.4522,8.2583 L9.4522,10.7888 L8.7587,10.7888 L8.7587,8.2583 L7.8312,8.2583 L7.8312,7.7253 L10.3797,7.7253 Z M3.21365,9.50195 L2.49065,9.50195 L2.49065,10.25495 L3.21365,10.25495 C3.52765,10.25495 3.67715,10.08295 3.67715,9.87645 C3.67715,9.66995 3.52765,9.50195 3.21365,9.50195 Z M3.16865,8.25845 L2.49065,8.25845 L2.49065,8.96445 L3.16865,8.96445 C3.46315,8.96445 3.62765,8.82245 3.62765,8.61145 C3.62765,8.40045 3.46315,8.25845 3.16865,8.25845 Z" id="形状结合" fill="#FFFFFF"></path>
                    </g>
                </g>
            </g>
        </g>
    </g>
</svg>