<?xml version="1.0" encoding="UTF-8"?>
<svg width="32px" height="32px" viewBox="0 0 32 32" version="1.1" xmlns="http://www.w3.org/2000/svg" xmlns:xlink="http://www.w3.org/1999/xlink">
    <!-- Generator: Sketch 58 (84663) - https://sketch.com -->
    <title>188_投注弹窗_投注成功@1x</title>
    <desc>Created with Sketch.</desc>
    <g id="页面-1" stroke="none" stroke-width="1" fill="none" fill-rule="evenodd">
        <g id="40投注界面---投注弹窗---注单已确认" transform="translate(-172.000000, -386.000000)" fill="#D2B79C" fill-rule="nonzero">
            <g id="弹框" transform="translate(48.000000, 190.000000)">
                <g id="编组" transform="translate(112.000000, 196.000000)">
                    <g id="编组-3">
                        <g id="188_投注弹窗_投注成功" transform="translate(12.000000, 0.000000)">
                            <g id="编辑">
                                <path d="M16,0 C24.836556,-1.623249e-15 32,7.163444 32,16 C32,24.836556 24.836556,32 16,32 C7.163444,32 1.082166e-15,24.836556 0,16 C-1.082166e-15,7.163444 7.163444,1.623249e-15 16,0 Z M23.8594584,10.7843695 C23.6145037,10.5332044 23.2062457,10.5332044 22.961291,10.7843695 L22.961291,10.7843695 L14.4548365,19.626063 C14.2915333,19.7935064 14.0057527,19.7935064 13.8424495,19.626063 L13.8424495,19.626063 L8.78005104,14.3934574 C8.53509626,14.1422923 8.12683833,14.1422923 7.88188356,14.3934574 L7.88188356,14.3934574 L6.98371608,15.314396 C6.73876131,15.565561 6.73876131,15.9841695 6.98371608,16.2353346 L6.98371608,16.2353346 L13.7199722,23.1842349 C13.9649269,23.4772608 14.3731849,23.4772608 14.6181396,23.1842349 L14.6181396,23.1842349 L24.7576259,12.6262467 C25.0025807,12.3750816 25.0025807,11.9564732 24.7576259,11.7053081 L24.7576259,11.7053081 Z" id="形状结合"></path>
                            </g>
                        </g>
                    </g>
                </g>
            </g>
        </g>
    </g>
</svg>