<?xml version="1.0" encoding="UTF-8"?>
<svg width="44px" height="44px" viewBox="0 0 44 44" version="1.1" xmlns="http://www.w3.org/2000/svg" xmlns:xlink="http://www.w3.org/1999/xlink">
    <title>编组 21备份@2x</title>
    <defs>
        <linearGradient x1="74.0154399%" y1="100%" x2="23.8071351%" y2="22.8528147%" id="linearGradient-1">
            <stop stop-color="#FF9124" offset="0.0218531469%"></stop>
            <stop stop-color="#F7B500" offset="100%"></stop>
        </linearGradient>
    </defs>
    <g id="页面-1" stroke="none" stroke-width="1" fill="none" fill-rule="evenodd">
        <g id="编组-21备份">
            <circle id="椭圆形" fill="url(#linearGradient-1)" cx="22" cy="22" r="22"></circle>
            <path d="M11.876,27 L14.032,23.178 L16.202,27 L17.952,27 L14.858,21.89 L17.742,17.032 L16.006,17.032 L14.032,20.602 L12.072,17.032 L10.336,17.032 L13.22,21.89 L10.14,27 L11.876,27 Z M20.472,18.614 L21.69,17.256 L22.908,18.614 L24.098,18.614 L22.292,16.36 L21.088,16.36 L19.282,18.614 L20.472,18.614 Z M21.158,27.084 C22.04,27.084 22.53,26.874 23.048,26.356 L23.048,27 L24.448,27 L24.448,22.254 C24.448,20.644 23.468,19.818 21.522,19.818 C20.346,19.818 19.646,20.056 18.974,20.84 L19.912,21.722 C20.304,21.218 20.682,21.036 21.466,21.036 C22.572,21.036 23.02,21.47 23.02,22.366 L23.02,22.87 L21.144,22.87 C19.52,22.87 18.694,23.724 18.694,24.914 C18.694,25.516 18.89,26.062 19.254,26.44 C19.688,26.874 20.276,27.084 21.158,27.084 Z M21.382,25.894 C20.486,25.894 20.08,25.53 20.08,24.886 C20.08,24.242 20.514,23.864 21.354,23.864 L23.02,23.864 L23.02,24.438 C23.02,24.942 22.922,25.278 22.712,25.488 C22.334,25.852 21.928,25.894 21.382,25.894 Z M29.04,27.084 C29.754,27.084 30.44,26.818 30.93,26.286 L30.93,27 L32.33,27 L32.33,19.902 L30.902,19.902 L30.902,24.228 C30.902,25.32 30.23,25.81 29.432,25.81 C28.634,25.81 28.004,25.334 28.004,24.228 L28.004,19.902 L26.576,19.902 L26.576,24.438 C26.576,25.236 26.744,25.908 27.29,26.44 C27.71,26.846 28.312,27.084 29.04,27.084 Z" id="Xâu" fill="#FFFFFF" fill-rule="nonzero"></path>
        </g>
    </g>
</svg>