<?xml version="1.0" encoding="UTF-8"?>
<svg width="12px" height="12px" viewBox="0 0 12 12" version="1.1" xmlns="http://www.w3.org/2000/svg" xmlns:xlink="http://www.w3.org/1999/xlink">
    <title>bet_chengg</title>
    <g id="页面-1" stroke="none" stroke-width="1" fill="none" fill-rule="evenodd">
        <g id="bet_chengg">
            <rect id="矩形" x="0" y="0" width="12" height="12"></rect>
            <path d="M6,0.5 C9.0421875,0.5 11.5,2.96640625 11.5,6 C11.5,9.0421875 9.03359375,11.5 6,11.5 C2.9578125,11.5 0.5,9.03359375 0.5,6 C0.5,2.9578125 2.96640625,0.5 6,0.5 Z M8.36123158,4.60116923 C8.1311015,4.37103887 7.75798608,4.37103887 7.527856,4.60116923 L7.527856,4.60116923 L5.44386017,6.68405324 L4.472144,5.71233698 C4.24201392,5.48220662 3.8688985,5.48220662 3.63876842,5.71233698 C3.40863833,5.94246743 3.40863833,6.31558248 3.63876842,6.54571284 L3.63876842,6.54571284 L5.02772833,7.93467258 C5.25785842,8.16480302 5.63097383,8.16480302 5.86110392,7.93467258 L5.86110392,7.93467258 L8.36123158,5.43454509 C8.59136167,5.20441464 8.59136167,4.83129959 8.36123158,4.60116923 Z" id="投注成功" fill="#66A754" fill-rule="nonzero"></path>
        </g>
    </g>
</svg>