<?xml version="1.0" encoding="UTF-8"?>
<svg width="32px" height="32px" viewBox="0 0 32 32" version="1.1" xmlns="http://www.w3.org/2000/svg" xmlns:xlink="http://www.w3.org/1999/xlink">
    <!-- Generator: Sketch 58 (84663) - https://sketch.com -->
    <title>188_投注弹窗_投注失败</title>
    <desc>Created with Sketch.</desc>
    <g id="页面-1" stroke="none" stroke-width="1" fill="none" fill-rule="evenodd">
        <g id="42投注界面---投注弹窗---投注失败" transform="translate(-172.000000, -389.000000)" fill="#C0C5D6" fill-rule="nonzero">
            <g id="弹框" transform="translate(48.000000, 193.000000)">
                <g id="编组" transform="translate(112.000000, 196.000000)">
                    <g id="编组-3">
                        <g id="188_投注弹窗_投注失败" transform="translate(12.000000, 0.000000)">
                            <g id="编辑">
                                <path d="M16,0 C24.836556,-1.623249e-15 32,7.163444 32,16 C32,24.836556 24.836556,32 16,32 C7.163444,32 1.082166e-15,24.836556 0,16 C-1.082166e-15,7.163444 7.163444,1.623249e-15 16,0 Z M21.7982756,9.07035354 C21.6420659,8.91414383 21.3887999,8.91414383 21.2325902,9.07035354 L21.2325902,9.07035354 L16.0007071,14.3022366 L10.7674098,9.07035354 C10.6112001,8.91414383 10.3579341,8.91414383 10.2017244,9.07035354 L10.2017244,9.07035354 L9.07035354,10.2017244 C8.91414383,10.3579341 8.91414383,10.6112001 9.07035354,10.7674098 L9.07035354,10.7674098 L14.3029437,16 L9.07035354,21.2325902 C8.91414383,21.3887999 8.91414383,21.6420659 9.07035354,21.7982756 L9.07035354,21.7982756 L10.2017244,22.9296465 C10.3579341,23.0858562 10.6112001,23.0858562 10.7674098,22.9296465 L10.7674098,22.9296465 L16,17.6970563 L21.2325902,22.9296465 C21.3887999,23.0858562 21.6420659,23.0858562 21.7982756,22.9296465 L21.7982756,22.9296465 L22.9296465,21.7982756 C23.0858562,21.6420659 23.0858562,21.3887999 22.9296465,21.2325902 L22.9296465,21.2325902 L17.6970563,16 L22.9296465,10.7674098 C23.0858562,10.6112001 23.0858562,10.3579341 22.9296465,10.2017244 L22.9296465,10.2017244 Z" id="形状结合"></path>
                            </g>
                        </g>
                    </g>
                </g>
            </g>
        </g>
    </g>
</svg>