<?xml version="1.0" encoding="UTF-8"?>
<svg width="40px" height="40px" viewBox="0 0 40 40" version="1.1" xmlns="http://www.w3.org/2000/svg" xmlns:xlink="http://www.w3.org/1999/xlink">
    <title>编组 8</title>
    <defs>
        <linearGradient x1="74.0154399%" y1="100%" x2="23.8071351%" y2="22.8528147%" id="linearGradient-1">
            <stop stop-color="#FF9124" offset="0.0218531469%"></stop>
            <stop stop-color="#F7B500" offset="100%"></stop>
        </linearGradient>
    </defs>
    <g id="页面-1" stroke="none" stroke-width="1" fill="none" fill-rule="evenodd">
        <g id="滚球（角球）" transform="translate(-312.000000, -667.000000)">
            <g id="编组-8" transform="translate(312.000000, 667.000000)">
                <circle id="椭圆形" fill="url(#linearGradient-1)" cx="20" cy="20" r="20"></circle>
                <path d="M19.7038582,31 C19.9638512,31 20.1741397,30.9388252 20.3347237,30.8164755 C20.4953076,30.6941258 20.5755996,30.4647202 20.5755996,30.1282586 L20.5755996,30.1282586 L20.5755996,27.168926 L27.2971846,27.168926 C28.0312826,27.168926 28.5321515,27.0121655 28.7997914,26.6986444 C29.0674314,26.3851234 29.2012513,25.8689607 29.2012513,25.1501564 L29.2012513,25.1501564 L29.2012513,21.8467153 C29.2012513,21.127911 29.0674314,20.6155718 28.7997914,20.3096976 C28.5321515,20.0038234 28.0312826,19.8508863 27.2971846,19.8508863 L27.2971846,19.8508863 L20.5755996,19.8508863 L20.5755996,18.0385819 L26.7924922,18.0385819 C27.5265902,18.0385819 28.0236357,17.8818213 28.2836288,17.5683003 C28.5436218,17.2547793 28.6736184,16.7386166 28.6736184,16.0198123 L28.6736184,16.0198123 L28.6736184,13.4275287 C28.6736184,12.7087244 28.5436218,12.1963851 28.2836288,11.8905109 C28.0236357,11.5846368 27.5265902,11.4316997 26.7924922,11.4316997 L26.7924922,11.4316997 L20.5755996,11.4316997 L20.5755996,9.84880083 C20.5755996,9.51233924 20.4953076,9.28675704 20.3347237,9.17205422 C20.1741397,9.05735141 19.9638512,9 19.7038582,9 C19.4285714,9 19.2106361,9.05735141 19.0500521,9.17205422 C18.8894682,9.28675704 18.8091762,9.51233924 18.8091762,9.84880083 L18.8091762,9.84880083 L18.8091762,11.4316997 L12.4316997,11.4316997 C11.7128954,11.4316997 11.2234967,11.5884602 10.9635036,11.9019812 C10.7035106,12.2155023 10.5735141,12.7240181 10.5735141,13.4275287 L10.5735141,13.4275287 L10.5735141,16.0198123 C10.5735141,16.7386166 10.7035106,17.2547793 10.9635036,17.5683003 C11.2234967,17.8818213 11.7128954,18.0385819 12.4316997,18.0385819 L12.4316997,18.0385819 L18.8091762,18.0385819 L18.8091762,19.8508863 L11.8811262,19.8508863 C11.1470282,19.8508863 10.6499826,20.0038234 10.3899896,20.3096976 C10.1299965,20.6155718 10,21.127911 10,21.8467153 L10,21.8467153 L10,25.1501564 C10,25.8689607 10.1299965,26.3851234 10.3899896,26.6986444 C10.6499826,27.0121655 11.1470282,27.168926 11.8811262,27.168926 L11.8811262,27.168926 L18.8091762,27.168926 L18.8091762,30.1282586 C18.8091762,30.4647202 18.8894682,30.6941258 19.0500521,30.8164755 C19.2106361,30.9388252 19.4285714,31 19.7038582,31 Z M18.8091762,16.3409802 L12.5464025,16.3409802 C12.3781717,16.3409802 12.2940563,16.2033368 12.2940563,15.9280501 L12.2940563,15.9280501 L12.2940563,13.5192909 C12.2940563,13.2592979 12.3781717,13.1293014 12.5464025,13.1293014 L12.5464025,13.1293014 L18.8091762,13.1293014 L18.8091762,16.3409802 Z M26.6089677,16.3409802 L20.5755996,16.3409802 L20.5755996,13.1293014 L26.6089677,13.1293014 C26.7924922,13.1293014 26.8842544,13.2592979 26.8842544,13.5192909 L26.8842544,13.5192909 L26.8842544,15.9280501 C26.8842544,16.2033368 26.7924922,16.3409802 26.6089677,16.3409802 L26.6089677,16.3409802 Z M18.8091762,25.379562 L11.995829,25.379562 C11.8123045,25.379562 11.7205422,25.2495655 11.7205422,24.9895725 L11.7205422,24.9895725 L11.7205422,21.915537 C11.7205422,21.6708377 11.8123045,21.548488 11.995829,21.548488 L11.995829,21.548488 L18.8091762,21.548488 L18.8091762,25.379562 Z M27.1595412,25.379562 L20.5755996,25.379562 L20.5755996,21.548488 L27.1595412,21.548488 C27.3583594,21.548488 27.4577685,21.6708377 27.4577685,21.915537 L27.4577685,21.915537 L27.4577685,24.9895725 C27.4577685,25.2495655 27.3583594,25.379562 27.1595412,25.379562 L27.1595412,25.379562 Z" id="串" fill="#FFFFFF" fill-rule="nonzero"></path>
            </g>
        </g>
    </g>
</svg>