<svg width="14" height="14" xmlns="http://www.w3.org/2000/svg"><g fill="none" fill-rule="evenodd"><path d="M7 .5c1.796 0 3.42.728 4.596 1.903A6.482 6.482 0 0113.5 7c0 1.796-.728 3.42-1.903 4.596A6.482 6.482 0 017 13.5a6.477 6.477 0 01-4.596-1.903A6.482 6.482 0 01.5 7c0-1.796.728-3.42 1.903-4.596A6.482 6.482 0 017 .5z" stroke="#569FFD"/><path d="M9.532 4.156a.5.5 0 01.018.017l.319.336a.5.5 0 010 .69L8.009 7.15l1.86 1.954a.5.5 0 010 .69l-.32.335a.5.5 0 01-.724 0L7 8.21 5.175 10.13a.5.5 0 01-.725 0l-.319-.336a.5.5 0 010-.689L5.99 7.151 4.131 5.198a.5.5 0 010-.69l.32-.335a.5.5 0 01.724 0L7 6.091l1.825-1.918a.5.5 0 01.707-.017z" fill="#569FFD" fill-rule="nonzero"/></g></svg>