<svg width="14" height="14" viewBox="0 0 14 14" fill="none" xmlns="http://www.w3.org/2000/svg">
<path fill-rule="evenodd" clip-rule="evenodd" d="M5.3278 0.604126C5.68308 0.604126 5.93247 0.861397 5.93685 1.23068C6.36564 1.5632 7.36409 2.20288 8.60144 2.17488C10.2133 2.17488 11.8882 2.6903 12.3266 3.48311C12.3266 3.48311 10.0208 2.87669 9.37588 4.18492C8.73183 5.49403 7.94602 4.86485 7.31159 5.12912C6.69204 5.39077 6.68591 5.69267 6.2965 5.7618C6.17487 5.78193 6.05061 5.76442 5.93598 5.73117L5.93685 9.01707C5.90097 9.39072 5.61482 9.25071 5.3278 9.25071C4.9699 9.25071 4.71875 9.42835 4.71875 9.05382V1.2403C4.71875 0.865772 4.9699 0.604126 5.3278 0.604126Z" fill="#FF4A4A"/>
<path fill-rule="evenodd" clip-rule="evenodd" d="M5.45876 11.3666C4.97922 11.3666 4.47256 11.1767 4.11553 10.8993L5.39313 9.56396L7.45218 10.1861C7.00764 10.8223 6.21132 11.3666 5.45876 11.3666ZM12.659 10.428L5.35122 8.25779C5.32585 8.25517 5.30222 8.26217 5.27684 8.26217C5.24359 8.25954 5.21034 8.26304 5.17621 8.26742C5.13858 8.27267 5.10358 8.28054 5.0677 8.29104C5.0397 8.30154 5.01345 8.31117 4.98632 8.32517C4.88394 8.37418 4.79468 8.44506 4.72817 8.54044L1.08875 12.3391C0.837604 12.5631 0.837604 12.9377 1.08875 13.1993C1.33902 13.4618 1.6978 13.4618 1.91219 13.1993L3.29306 11.7572C3.89423 12.1869 4.65729 12.4888 5.45886 12.4888C6.78459 12.4888 8.01932 11.6382 8.67825 10.5566L12.336 11.6618C12.659 11.6986 12.946 11.5122 13.0527 11.212C13.1962 10.8384 13.0169 10.5024 12.659 10.428Z" fill="#0BC65E"/>
</svg>
