<?xml version="1.0" encoding="UTF-8"?>
<svg width="14px" height="14px" viewBox="0 0 14 14" version="1.1" xmlns="http://www.w3.org/2000/svg" xmlns:xlink="http://www.w3.org/1999/xlink">
    <!-- Generator: Sketch 58 (84663) - https://sketch.com -->
    <title>投注单_输入金额_灰</title>
    <desc>Created with Sketch.</desc>
    <g id="页面-1" stroke="none" stroke-width="1" fill="none" fill-rule="evenodd" opacity="0.300000012">
        <g id="单注-网络异常" transform="translate(-328.000000, -419.000000)" fill-rule="nonzero">
            <g id="编组-6" transform="translate(0.000000, 397.000000)">
                <g id="输入框" transform="translate(16.000000, 0.000000)" opacity="0.5">
                    <g id="投注单_输入金额_灰" transform="translate(311.000000, 21.000000)">
                        <rect id="矩形" fill="#000000" opacity="0" x="0" y="0" width="16" height="16"></rect>
                        <path d="M8,1.015625 C11.865625,1.015625 15,4.15 15,8.015625 C15,11.88125 11.865625,15.015625 8,15.015625 C4.134375,15.015625 1,11.88125 1,8.015625 C1,4.15 4.134375,1.015625 8,1.015625 Z M10.584375,5.41875 L9.553125,5.4234375 L8,7.275 L6.4484375,5.425 L5.415625,5.4203125 C5.346875,5.4203125 5.290625,5.475 5.290625,5.5453125 C5.290625,5.575 5.3015625,5.603125 5.3203125,5.6265625 L7.353125,8.0484375 L5.3203125,10.46875 C5.3015625,10.4921875 5.290625,10.5203125 5.290625,10.55 C5.290625,10.61875 5.346875,10.675 5.415625,10.675 L6.4484375,10.6703125 L8,8.81875 L9.5515625,10.66875 L10.5828125,10.6734375 C10.6515625,10.6734375 10.7078125,10.61875 10.7078125,10.5484375 C10.7078125,10.51875 10.696875,10.490625 10.678125,10.4671875 L8.6484375,8.046875 L10.68125,5.625 C10.7,5.603125 10.709375,5.5734375 10.709375,5.54375 C10.709375,5.475 10.653125,5.41875 10.584375,5.41875 Z" id="形状结合" fill="#9AA4C2"></path>
                    </g>
                </g>
            </g>
        </g>
    </g>
</svg>