<?xml version="1.0" encoding="UTF-8"?>
<svg width="20px" height="20px" viewBox="0 0 20 20" version="1.1" xmlns="http://www.w3.org/2000/svg" xmlns:xlink="http://www.w3.org/1999/xlink">
    <!-- Generator: Sketch 61.1 (89650) - https://sketch.com -->
    <title>zhiding</title>
    <desc>Created with Sketch.</desc>
    <g id="zhiding" stroke="none" stroke-width="1" fill="none" fill-rule="evenodd">
        <g id="live备份">
            <rect id="矩形" fill="#FFFFFF" opacity="0.3" x="0" y="0" width="20" height="20" rx="10"></rect>
            <path d="M6.04890206,13.9155325 L8.74461098,11.7768483 L10.8845131,14.0544406 C10.9504409,14.0630013 11.0156856,14.0649269 11.0706069,14.0579687 C11.1529452,14.047537 11.1543956,14.0463291 11.1577419,14.032329 L11.1032562,11.7480514 L14.2434032,8.12318694 L14.4119707,8.11339016 L15.6317414,8.04646216 C15.6604176,8.04068485 15.7235223,8.02008919 15.7806735,7.9871595 C15.9002524,7.91825998 15.9054733,7.89074617 15.7024369,7.64304753 L12.2366321,4.15135828 C12.1815098,4.15467703 12.1251186,4.16351394 12.0744086,4.17934107 C11.9369847,4.22223251 11.8880715,4.28765735 11.9067912,4.5316287 L11.9067912,5.69300806 L8.33709836,8.73064694 L6.21586561,8.8590041 C6.18342901,8.87425324 6.14088386,8.89805718 6.09986091,8.9288665 C6.00834093,8.99760041 5.97531388,9.05281708 5.99804764,9.1449539 L8.11173304,11.2318291 L6.04890206,13.9155325 Z" id="Path" stroke="#FFFFFF" stroke-width="0.8"></path>
        </g>
    </g>
</svg>