<?xml version="1.0" encoding="UTF-8"?>
<svg width="16px" height="16px" viewBox="0 0 16 16" version="1.1" xmlns="http://www.w3.org/2000/svg" xmlns:xlink="http://www.w3.org/1999/xlink">
    <!-- Generator: Sketch 61.1 (89650) - https://sketch.com -->
    <title>shanghudama</title>
    <desc>Created with Sketch.</desc>
    <g id="shanghudama" stroke="none" stroke-width="1" fill="none" fill-rule="evenodd">
        <g id="编组-6">
            <path d="M8,0 C12.418278,0 16,3.581722 16,8 C16,12.418278 12.418278,16 8,16 C3.581722,16 0,12.418278 0,8 C0,3.581722 3.581722,0 8,0 Z M8,0.7 C3.96832133,0.7 0.7,3.96832133 0.7,8 C0.7,12.0316787 3.96832133,15.3 8,15.3 C12.0316787,15.3 15.3,12.0316787 15.3,8 C15.3,3.96832133 12.0316787,0.7 8,0.7 Z M10.625,3.2 C11.2351769,3.2 11.733987,3.67383609 11.7939547,4.2776138 L11.8,4.4 L11.8,6.5542785 C11.8,6.71996392 11.6656854,6.8542785 11.5,6.8542785 C11.3579839,6.8542785 11.2390158,6.7555984 11.2079232,6.62306575 L11.2,6.5542785 L11.2,4.4 C11.2,4.10009055 10.9899208,3.85401811 10.7178012,3.80780272 L10.625,3.8 L5.375,3.8 C5.09092137,3.8 4.85243427,4.01608149 4.80757764,4.30222445 L4.8,4.4 L4.8,11.6 C4.8,11.8999095 5.01007923,12.1459819 5.28219877,12.1921973 L5.375,12.2 L10.625,12.2 C10.9090786,12.2 11.1475657,11.9839185 11.1924224,11.6977756 L11.2,11.6 L11.2,9.81193529 C11.2,9.64624986 11.3343146,9.51193529 11.5,9.51193529 C11.6420161,9.51193529 11.7609842,9.61061539 11.7920768,9.74314804 L11.8,9.81193529 L11.8,11.6 C11.8,12.2195748 11.339326,12.7321344 10.7454535,12.7937841 L10.625,12.8 L5.375,12.8 C4.76482307,12.8 4.26601304,12.3261639 4.20604529,11.7223862 L4.2,11.6 L4.2,4.4 C4.2,3.78042516 4.66067398,3.26786565 5.25454654,3.20621592 L5.375,3.2 L10.625,3.2 Z M12.0131037,7.04550982 C12.0131037,7.04550982 12.6365536,6.78884385 12.4724954,7.49458535 L12.4724954,7.49458535 L10.4053043,9.5154452 C10.4053043,9.5154452 9.91306831,9.99664894 9.48655165,9.5154452 L9.48655165,9.5154452 L8.56780917,8.39273641 C8.56780917,8.39273641 8.23964159,7.6869949 9.02718041,7.94366088 L9.02718041,7.94366088 L9.94592289,9.0663497 Z M9.15,6 C9.34329966,6 9.5,6.15670034 9.5,6.35 C9.5,6.54329966 9.34329966,6.7 9.15,6.7 L9.15,6.7 L5.85,6.7 C5.65670034,6.7 5.5,6.54329966 5.5,6.35 C5.5,6.15670034 5.65670034,6 5.85,6 L5.85,6 Z" id="形状结合" fill="#FFFFFF" fill-rule="nonzero"></path>
            <g id="编组-4" transform="translate(4.000000, 3.000000)"></g>
        </g>
    </g>
</svg>