<svg width="17" height="12" viewBox="0 0 17 12" fill="none" xmlns="http://www.w3.org/2000/svg">
<path id="Subtract" fill-rule="evenodd" clip-rule="evenodd" d="M8.02674 0H3.92857C2.39342 0 1.09392 1.00894 0.656997 2.39989H1.51038C2.7957 2.39989 3.83765 3.47441 3.83765 4.79991V7.19993C3.83765 8.52542 2.7957 9.59995 1.51038 9.59995H0.656954C0.561493 9.29601 0.507218 8.97382 0.500671 8.63994H1.51038C2.28157 8.63994 2.90674 7.99523 2.90674 7.19993V4.79991C2.90674 4.00461 2.28157 3.35989 1.51038 3.35989H0.500674C0.500225 3.38273 0.5 3.40563 0.5 3.42858V8.57153C0.5 10.4651 2.03502 12.0001 3.92857 12.0001H13.0714C14.8988 12.0001 16.3923 10.5705 16.4944 8.76861C16.4781 9.05668 16.4262 9.33523 16.343 9.59995H15.474C14.1887 9.59995 13.1467 8.52542 13.1467 7.19993V4.79991C13.1467 3.47441 14.1887 2.39989 15.474 2.39989H16.343C15.9061 1.00894 14.6066 0 13.0714 0H8.95765V2.43161C10.6656 2.66628 11.9831 4.17442 11.9831 5.99992C11.9831 7.82541 10.6656 9.33356 8.95765 9.56823V12H8.02674V9.56823C6.31882 9.33356 5.00129 7.82541 5.00129 5.99992C5.00129 4.17443 6.31882 2.66628 8.02674 2.43161V0ZM16.4993 3.35989H15.474C14.7028 3.35989 14.0777 4.00461 14.0777 4.79991V7.19993C14.0777 7.99523 14.7028 8.63994 15.474 8.63994H16.4993C16.4998 8.61719 16.5 8.59439 16.5 8.57153V3.42857C16.5 3.40563 16.4998 3.38273 16.4993 3.35989ZM8.02674 3.40343C6.83512 3.62915 5.9322 4.70579 5.9322 5.99992C5.9322 7.29404 6.83512 8.37068 8.02674 8.59641V3.40343ZM8.95765 3.40343C10.1493 3.62915 11.0522 4.70579 11.0522 5.99992C11.0522 7.29404 10.1493 8.37068 8.95765 8.59641V3.40343Z" fill="white"/>
</svg>
