<?xml version="1.0" encoding="UTF-8"?>
<svg width="40px" height="40px" viewBox="0 0 40 40" version="1.1" xmlns="http://www.w3.org/2000/svg" xmlns:xlink="http://www.w3.org/1999/xlink">
    <!-- Generator: Sketch 61.2 (89653) - https://sketch.com -->
    <title>360浏览器</title>
    <desc>Created with Sketch.</desc>
    <g id="页面-1" stroke="none" stroke-width="1" fill="none" fill-rule="evenodd">
        <g id="版本过低" transform="translate(-168.000000, -491.000000)" fill="#03D16C" fill-rule="nonzero">
            <g id="360浏览器" transform="translate(168.000000, 491.000000)">
                <path d="M32.2211055,4.1875 C32.6291457,4.1875 32.9447236,4.16136935 33.2522613,4.19353015 C34.6532663,4.34428392 36.0201005,4.63976131 37.3145729,5.26689698 C36.8040201,4.38448492 36.1165829,3.69905779 35.1798995,3.29704774 C33.3283749,2.49979386 31.3344626,2.08610492 29.318593,2.08096734 C29.0162949,2.08348444 28.7169038,2.02182493 28.440201,1.90006281 C25.3717374,0.470329304 21.9898949,-0.154989904 18.6130653,0.0829773869 C15.4371859,0.294032663 12.4663317,1.18448492 9.76884422,2.84478643 C4.53668342,6.06287688 1.34271357,10.6920226 0.309547739,16.7784548 C-0.032160804,18.788505 -0.0582914573,20.8407663 0.235175879,22.8588568 C0.657374604,25.7845426 1.72652433,28.5793014 3.36482412,31.0397613 C3.54371859,31.3131281 3.65628141,31.6226759 3.69648241,31.9503141 C3.86934673,33.508103 4.24321608,35.0076005 4.84824121,36.4508166 C5.23015075,37.3553392 5.74271357,38.1854899 6.45427136,39.0196608 C6.20207784,37.5653241 6.1824024,36.080168 6.3959799,34.6196608 C15.1396985,42.4749372 27.6020101,41.0377513 34.5065327,33.5583543 C38.1326633,29.6327261 39.9678392,24.9774497 39.8773869,19.6588568 C39.7668342,13.3774497 37.1296482,8.25182161 32.2190955,4.18951005 L32.2211055,4.1875 Z M4.46633166,24.6297111 C4.0321608,25.7030779 3.95376884,26.9211683 3.71457286,28.0729271 C3.69045226,28.1854899 3.68040201,28.3020729 3.64824121,28.5191583 C0.655276382,23.3593593 0.219095477,14.9010678 5.5718593,8.32820352 C10.8140704,1.89001256 19.1758794,0.247801508 25.5437186,2.46689698 C25.1015075,2.54930905 24.7457286,2.6035804 24.4020101,2.68599246 C23.2221106,2.96538945 22.0542714,3.29503769 20.8643216,3.52217337 C20.2472362,3.64076633 19.5979899,3.59453518 18.9648241,3.61061558 C11.8773869,3.8035804 5.67236181,8.82267588 4.00201005,15.6869975 C3.46917647,17.8709963 3.37082985,20.1384325 3.71256281,22.3603643 C3.73869347,22.5312186 3.77286432,22.7000628 3.79698492,22.8327261 C4.54874372,21.6508166 5.25025126,20.4327261 6.06231156,19.2970477 C6.87437186,18.1653894 7.77688442,17.0980528 8.67135678,16.0307161 C9.57788945,14.949309 10.7015075,14.1131281 11.8934673,13.3513191 L10.4743719,15.0859925 C8.07437186,18.0166457 5.90150754,21.1040829 4.46834171,24.6297111 L4.46633166,24.6297111 Z M34.0603015,31.4699121 C31.5930685,34.5286638 28.2007097,36.7051334 24.3919598,37.6729271 C21.457581,38.4441184 18.3766297,38.4669249 15.4311558,37.7392588 C12.1837927,36.9611026 9.21818958,35.2917326 6.86834171,32.9191583 C6.73969849,32.7925251 6.68140704,32.5171482 6.70753769,32.3261935 C6.78994975,31.7191583 6.92864322,31.1201633 7.06532663,30.4387563 C7.40703518,30.8045854 7.67437186,31.1101131 7.96180905,31.3975503 C10.2170854,33.6528266 12.9567839,34.9794598 16.0623116,35.6186558 C19.3146997,36.2911088 22.6825254,36.1537451 25.8693467,35.2186558 C29.0934673,34.2940327 31.6201005,32.3543342 33.5758794,29.6508166 C33.6623116,29.5342337 33.7226131,29.3975503 33.8190955,29.228706 C33.1075377,28.8930276 32.4321608,28.5694095 31.7507538,28.2498116 C30.3979899,27.6166457 29.0371859,26.9875 27.6864322,26.3442839 C27.4653266,26.2377513 27.3326633,26.2397613 27.1316583,26.4146357 C25.0311558,28.2478015 22.5889447,29.2488065 19.7909548,29.2186558 C17.0974874,29.1905151 14.6733668,28.4045854 12.8683417,26.2719221 C11.8874372,25.1141332 11.3326633,23.7593593 11.1798995,22.1211683 L35.8834171,22.1211683 C35.8834171,21.0900126 35.9376884,20.1714196 35.8733668,19.2548367 C35.7364254,16.9732487 35.1932292,14.7344363 34.2693467,12.6437814 C33.0329652,9.83598888 30.9434463,7.4890604 28.2974874,5.93624372 C27.9959799,5.7553392 27.7346734,5.82167085 27.4854271,5.97041457 C26.4020101,6.60559045 25.3025126,7.22267588 24.2572864,7.91614322 C23.2241206,8.6035804 22.2472362,9.37744975 21.2422111,10.1111181 C21.1417085,10.1935302 21.041206,10.2719221 20.9366834,10.3503141 C24.4502513,10.8166457 26.7396985,12.6699121 28.0844221,15.8940327 L11.4472362,15.8940327 C11.8190955,15.2407663 12.118593,14.5673995 12.5427136,13.9844849 C14.0964824,11.8457915 16.201005,10.6317211 18.8442211,10.3623744 C19.0648301,10.3171131 19.2690517,10.2129184 19.4351759,10.0608668 C20.958794,8.83272613 22.480402,7.60257538 24.2030151,6.65182161 C25.8231156,5.7593593 27.4271357,4.82669598 29.2884422,4.52719849 C29.5316583,4.48699749 29.8552764,4.51111809 30.0482412,4.63976131 C33.6060302,7.05584171 36.0623116,10.2920226 37.3648241,14.3985553 C37.9155779,16.1111181 38.201005,17.8960427 38.2090452,19.6930276 C38.2227982,21.4643624 37.9818068,23.2284736 37.4934673,24.9312186 C36.8118552,27.3236591 35.6437683,29.5496618 34.0623116,31.4699121 L34.0603015,31.4699121 Z" id="形状"></path>
            </g>
        </g>
    </g>
</svg>