<?xml version="1.0" encoding="UTF-8"?>
<svg width="40px" height="40px" viewBox="0 0 40 40" version="1.1" xmlns="http://www.w3.org/2000/svg" xmlns:xlink="http://www.w3.org/1999/xlink">
    <!-- Generator: Sketch 61.2 (89653) - https://sketch.com -->
    <title>谷歌</title>
    <desc>Created with Sketch.</desc>
    <g id="页面-1" stroke="none" stroke-width="1" fill="none" fill-rule="evenodd">
        <g id="版本过低" transform="translate(-68.000000, -399.000000)" fill-rule="nonzero">
            <g id="谷歌" transform="translate(68.000000, 399.000000)">
                <path d="M3.13435629,9.20602545 C6.66429641,3.67093937 12.8583458,0 19.909899,0 C27.6021707,0 34.2741392,4.36840382 37.5803705,10.7597305 L19.909899,10.7597305 C15.8183945,10.7597305 12.3561003,13.4532653 11.1993825,17.1638286 L3.13435629,9.20602545 Z" id="路径" fill="#DD5044"></path>
                <path d="M19.0788735,39.7471463 L19.1011415,39.7008795 L19.0745228,39.747006 L19.0492609,39.74593 L21.907747,28.7850393 C25.9849832,27.8740644 29.0322792,24.233954 29.0322792,19.8821108 C29.0322792,14.8502994 24.9583177,10.7700225 19.9288922,10.7597305 L37.5803705,10.7597305 C38.9937313,13.4919068 39.7920097,16.5937968 39.7920097,19.8821108 C39.7920097,30.8626965 30.8904379,39.7642216 19.909899,39.7642216 C19.6315494,39.7642216 19.3544629,39.7585142 19.0788735,39.7471463 Z" id="路径" fill="#FFCD41"></path>
                <path d="M18.9454061,39.7412519 C8.41270584,39.2381643 0.0277881737,30.5393432 0.0277881737,19.8821108 C0.0277881737,16.6024981 0.821856287,13.5083271 2.22824663,10.7813903 L3.02540232,9.37883608 C3.06142403,9.32101422 3.09772642,9.26342627 3.13435629,9.20602545 L11.1993825,17.1638286 C10.9316991,18.0224083 10.7875187,18.9354416 10.7875187,19.8821108 C10.7875187,24.9202844 14.8717253,29.004491 19.909899,29.004491 C20.5961826,29.004491 21.2647829,28.9287051 21.9077938,28.7850861 L19.1571856,39.3321482 L19.0400449,39.6706587 L18.9454061,39.7412519 Z" id="路径" fill="#17A05D"></path>
                <path d="M19.0749906,39.7462107 L19.0494948,39.7451347 L21.9066243,28.7895303 C24.4220621,28.2335329 26.5473428,26.6391748 27.8100674,24.4790887 L27.8696201,24.5134731 L19.0749906,39.7462107 Z M3.15180576,9.20845808 L3.15334955,9.20602545 L11.2183757,17.1638286 C10.9507391,18.0224083 10.806512,18.9354416 10.806512,19.8821108 C10.806512,21.5584768 11.2587013,23.1292103 12.0477171,24.4790887 L11.9881643,24.5134731 L3.15180576,9.20845808 Z M37.599317,10.7597305 L37.6009543,10.7628649 L26.6950318,13.7634263 C25.0257766,11.9186939 22.6127433,10.7597305 19.9288922,10.7597305 L37.5993638,10.7597305 L37.599317,10.7597305 Z" id="形状" fill="#000000" opacity="0.047"></path>
                <path d="M10.7875187,19.8821108 C10.7875187,23.1412234 12.5262345,26.1527676 15.3487088,27.7823239 C18.1711831,29.4118802 21.6486148,29.4118802 24.4710891,27.7823239 C27.2935634,26.1527676 29.0322792,23.1412234 29.0322792,19.8821108 C29.0322792,16.6229982 27.2935634,13.6114539 24.4710891,11.9818976 C21.6486148,10.3523413 18.1711831,10.3523413 15.3487088,11.9818976 C12.5262345,13.6114539 10.7875187,16.6229982 10.7875187,19.8821108 L10.7875187,19.8821108 Z" id="路径" fill="#FFFFFF"></path>
                <path d="M12.6587762,19.8821108 C12.6587762,23.8867953 15.9052144,27.1332335 19.909899,27.1332335 C23.9145835,27.1332335 27.1610217,23.8867953 27.1610217,19.8821108 C27.1610217,15.8774263 23.9145835,12.630988 19.909899,12.630988 C15.9052144,12.630988 12.6587762,15.8774263 12.6587762,19.8821108 Z" id="路径" fill="#4A8AF4"></path>
            </g>
        </g>
    </g>
</svg>