<?xml version="1.0" encoding="UTF-8"?>
<svg width="40px" height="43px" viewBox="0 0 40 43" version="1.1" xmlns="http://www.w3.org/2000/svg" xmlns:xlink="http://www.w3.org/1999/xlink">
    <!-- Generator: Sketch 61.2 (89653) - https://sketch.com -->
    <title>QQ浏览器</title>
    <desc>Created with Sketch.</desc>
    <g id="页面-1" stroke="none" stroke-width="1" fill="none" fill-rule="evenodd">
        <g id="版本过低" transform="translate(-268.000000, -398.000000)" fill-rule="nonzero">
            <g id="QQ浏览器" transform="translate(268.000000, 398.000000)">
                <path d="M13.0931713,29.9479167 C13.3246528,29.0027006 13.6766975,28.0912423 14.1396605,27.2472994 C11.7428627,25.544946 10.1803627,22.7430556 10.1803627,19.5794753 C10.1803627,14.3904321 14.3904321,10.1803627 19.5794753,10.1803627 C24.7685185,10.1803627 28.978588,14.3904321 28.978588,19.5794753 C28.978588,20.5970293 28.8146219,21.5760031 28.5204475,22.492284 C30.4880401,23.3892747 32.1614583,24.8408565 33.3140432,26.6541281 C34.7318673,26.7361111 36.1062886,27.1701389 37.3070988,27.9128086 C38.4982639,25.3858025 39.1637731,22.5597994 39.1637731,19.5842978 C39.1637731,8.77218364 30.396412,0.00482253086 19.5842978,0.00482253086 C8.77218364,0.00482253086 -1.59872116e-13,8.76736111 -1.59872116e-13,19.5794753 C-1.59872116e-13,26.3213735 3.40952932,32.267554 8.59375,35.7880015 C8.89274691,33.1741898 10.6143904,30.9172454 13.0931713,29.9479167 Z" id="路径" fill="#4795F4"></path>
                <path d="M39.7280093,33.9940201 C39.2216435,30.4205247 36.173804,27.652392 32.4749228,27.5993441 C31.322338,25.6413966 29.5428241,24.1801698 27.4787809,23.3940972 C26.9000772,23.1722608 26.3020833,23.0131173 25.6847994,22.9021991 C25.1205633,22.8009259 24.5515046,22.7334105 23.9679784,22.7334105 C19.2563657,22.7334105 15.2584877,26.0030864 14.3084491,30.5652006 C11.8778935,31.3753858 10.1176698,33.666088 10.1176698,36.3667052 C10.1176698,39.7376543 12.8616898,42.4864969 16.2326389,42.4864969 C17.4479167,42.4864969 18.6053241,42.1344522 19.6084105,41.4689429 C20.9587191,42.1344522 22.4537037,42.4864969 23.9679784,42.4864969 C25.5401235,42.4864969 27.0978009,42.105517 28.4866898,41.3869599 C29.6537423,42.105517 30.9799383,42.4864969 32.3688272,42.4864969 C36.255787,42.4864969 39.453125,39.4917052 39.7762346,35.6867284 C39.7955247,35.474537 39.8099923,35.2575231 39.8099923,35.0405093 C39.8148148,34.683642 39.7810571,34.3364198 39.7280093,33.9940201 L39.7280093,33.9940201 Z" id="路径" fill="#FFFFFF"></path>
            </g>
        </g>
    </g>
</svg>