<?xml version="1.0" encoding="UTF-8"?>
<svg width="16px" height="12px" viewBox="0 0 16 12" version="1.1" xmlns="http://www.w3.org/2000/svg" xmlns:xlink="http://www.w3.org/1999/xlink">
    <!-- Generator: Sketch 61.2 (89653) - https://sketch.com -->
    <title>编组 30</title>
    <desc>Created with Sketch.</desc>
    <g id="页面-1" stroke="none" stroke-width="1" fill="none" fill-rule="evenodd">
        <g id="点开" transform="translate(-307.000000, -515.000000)" fill-rule="nonzero">
            <g id="编组-33" transform="translate(295.000000, 507.000000)">
                <g id="编组-30" transform="translate(12.000000, 6.000000)">
                    <path d="M13.6966922,8.18464917 C13.6970371,8.16095519 13.6971698,8.1373806 13.6971698,8.11393868 C13.6971698,4.96327535 11.1339741,2.4 7.98321787,2.4 C6.92372789,2.4 5.88909935,2.6926194 4.99087706,3.2462043 C4.72130989,3.39337727 4.55368101,3.67605955 4.55385158,3.98318544 C4.55385158,4.44616008 4.93055425,4.82286262 5.39359522,4.82286262 C5.56490566,4.82286262 5.72955631,4.77152123 5.87028744,4.67425118 C6.50565089,4.28332381 7.23715523,4.07665913 7.98315153,4.07732459 C10.2089004,4.07732459 12.0196993,5.88812353 12.0196993,8.11387235 C12.0196993,8.13731427 12.0195003,8.16087559 12.019036,8.18464917 L10.5908299,8.18464917 L12.878666,11.4609331 L15.1665021,8.18458284 L13.6966922,8.18458284 L13.6966922,8.18464917 Z" id="路径" fill="#1B3142"></path>
                    <path d="M10.0961483,11.5643057 C9.46079593,11.955266 8.72928833,12.1619546 7.9832842,12.1612986 C5.75753538,12.1612986 3.94673644,10.3504997 3.94673644,8.12467129 C3.94673644,8.10124263 3.94693544,8.07774764 3.94741303,8.05396079 L5.37559257,8.05396079 L3.08783608,4.77763709 L0.8,8.05397406 L2.26988945,8.05397406 C2.26962412,8.07760171 2.26947818,8.1011763 2.26947818,8.12468455 C2.26947818,11.2753479 4.83274027,13.8386232 7.98343013,13.8386232 C9.04290684,13.8386232 10.077469,13.5460038 10.9757709,12.9923526 C11.2453796,12.8452227 11.4130247,12.5625132 11.4127968,12.2553715 C11.4126636,11.7923968 11.0359478,11.4156943 10.5729068,11.4156943 C10.4025463,11.4154237 10.236181,11.4672818 10.0961483,11.5643057 Z" id="路径" fill="#008BFF"></path>
                </g>
            </g>
        </g>
    </g>
</svg>