<?xml version="1.0" encoding="UTF-8"?>
<svg width="14px" height="15px" viewBox="0 0 14 15" version="1.1" xmlns="http://www.w3.org/2000/svg" xmlns:xlink="http://www.w3.org/1999/xlink">
    <!-- Generator: Sketch 61.2 (89653) - https://sketch.com -->
    <title>分析</title>
    <desc>Created with Sketch.</desc>
    <g id="页面-1" stroke="none" stroke-width="1" fill="none" fill-rule="evenodd">
        <g id="新增数据icon" transform="translate(-321.000000, -475.000000)" fill-rule="nonzero">
            <g id="分析" transform="translate(321.000000, 475.000000)">
                <path d="M5.42270846,7.05265484 C5.85380263,7.05265484 6.21776607,7.32674233 6.27256465,7.69265028 L6.27256465,13.6275328 C6.27691495,13.8243792 6.18856867,14.0144519 6.02741233,14.1549658 C5.86625599,14.2954798 5.64583228,14.374592 5.41575802,14.374592 L5.41459792,14.374592 C5.18850984,14.3740909 4.9721076,14.2959941 4.8138787,14.1578002 C4.65564979,14.0196062 4.56882278,13.8328687 4.57285227,13.6394282 L4.57285227,7.69265028 C4.62765084,7.32674233 4.99161428,7.05265484 5.42270846,7.05265484 Z M9.0411803,10.3876693 C9.47231259,10.3876693 9.83630822,10.6617568 9.89111472,11.0276647 L9.89111472,13.6394282 C9.89172271,13.8342246 9.80171414,14.0212218 9.64095124,14.1591486 C9.48018834,14.2970754 9.26188766,14.374592 9.03422925,14.374592 L9.0330894,14.374592 C8.8069778,14.3740955 8.59055117,14.2960008 8.43230386,14.1578063 C8.27405655,14.0196119 8.18721908,13.8328717 8.19124898,13.6394282 L8.19124898,11.0276647 C8.24605239,10.6617568 8.61004802,10.3876693 9.0411803,10.3876693 Z M13.1092847,8.10809494 C13.3880726,8.26169826 13.5384215,8.54102091 13.4947058,8.82414162 L13.4947058,13.6998632 C13.4587779,14.0814164 13.0890617,14.3748766 12.645877,14.3736166 L12.6447277,14.374592 C12.4205452,14.3743566 12.2058606,14.2963767 12.0488556,14.1581534 C11.8918505,14.01993 11.8056753,13.8330404 11.8096703,13.6394282 L11.8096703,8.82414162 C11.7659546,8.54102091 11.9163035,8.26169826 12.1950914,8.10809494 C12.4738792,7.95449162 12.8304969,7.95449162 13.1092847,8.10809494 Z M2.30829437,9.11586398 C2.58765054,9.27034928 2.73744334,9.55109279 2.69194189,9.83490088 L2.69194189,13.5900337 C2.69254723,13.7848301 2.60338474,13.9718273 2.44413303,14.1097541 C2.28488132,14.2476809 2.06863269,14.3251975 1.84311429,14.3251975 C1.61893217,14.3249621 1.40424789,14.2469822 1.24724308,14.1087589 C1.09023827,13.9705355 1.00406318,13.7836459 1.00805811,13.5900337 L1.00805811,9.83490088 C0.962556661,9.55109279 1.11234946,9.27034928 1.39170563,9.11586398 C1.6710618,8.96137867 2.0289382,8.96137867 2.30829437,9.11586398 Z" id="形状结合" fill="#1B3142"></path>
                <path d="M13.2037221,0.0119650677 C13.6040478,0.0119218868 13.9304055,0.332992331 13.9369004,0.733265326 L13.9369004,3.49066481 C13.9314792,3.89172224 13.6047988,4.21395054 13.2037047,4.21395054 L13.2036873,4.2129578 C12.8029743,4.21300211 12.4764503,3.89133346 12.4704916,3.49066481 L12.4701245,2.58896507 L9.35642168,5.21267665 C9.08874519,5.4370406 8.69867768,5.4370406 8.43100119,5.21267665 L6.02732882,3.23800508 L1.21798119,6.93369576 C1.07781058,7.04301783 0.903134183,7.09854754 0.725567277,7.09023437 C0.494533848,7.09394453 0.275707338,6.98674597 0.137032245,6.80192327 C-0.095632206,6.46945759 -0.014927998,6.01135422 0.317344248,5.77841361 L5.54580016,1.74587231 C5.81212692,1.54305687 6.18110307,1.54305687 6.44742984,1.74587231 L8.85211236,3.70765575 L11.5351245,1.46796507 L10.4265028,1.46844646 C10.0600714,1.42151871 9.78557795,1.10962986 9.78557795,0.740205762 C9.78557795,0.370781662 10.0600714,0.0588928124 10.4265028,0.0119650677 L13.2037221,0.0119650677 Z" id="形状结合" fill="#008BFF"></path>
            </g>
        </g>
    </g>
</svg>