<?xml version="1.0" encoding="UTF-8"?>
<svg width="12px" height="12px" viewBox="0 0 12 12" version="1.1" xmlns="http://www.w3.org/2000/svg" xmlns:xlink="http://www.w3.org/1999/xlink">
    <title>编组 13</title>
    <defs>
        <polygon id="path-1" points="2.57063126e-05 0 7.99757429 0 7.99757429 7.42842857 2.57063126e-05 7.42842857"></polygon>
    </defs>
    <g id="页面-1" stroke="none" stroke-width="1" fill="none" fill-rule="evenodd">
        <g id="全屏模式-快速投注弹出" transform="translate(-744.000000, -235.000000)">
            <g id="编组-5" transform="translate(488.000000, 0.000000)">
                <g id="编组-4" transform="translate(0.000000, 32.000000)">
                    <g id="编组-113备份-2" transform="translate(0.000000, 196.000000)">
                        <g id="编组-13" transform="translate(256.000000, 7.000000)">
                            <rect id="矩形" x="0" y="0" width="12" height="12"></rect>
                            <g id="编组" transform="translate(2.000000, 2.000000)">
                                <g id="编组" transform="translate(0.000000, 0.285714)">
                                    <mask id="mask-2" fill="white">
                                        <use xlink:href="#path-1"></use>
                                    </mask>
                                    <g id="Clip-2"></g>
                                    <path d="M2.20637143,0.571428571 C1.61637143,0.571428571 1.14265714,0.918857143 0.787228571,1.604 C0.514085714,2.13057143 0.498085714,2.846 0.744371429,3.518 C1.33208571,5.12142857 3.08751429,6.39257143 3.93351429,6.84057143 C3.97494286,6.86285714 4.02265714,6.86285714 4.06408571,6.84057143 C4.91008571,6.39257143 6.66522857,5.12142857 7.25322857,3.518 C7.49951429,2.846 7.4838,2.13057143 7.21065714,1.604 C6.85522857,0.918857143 6.38122857,0.571428571 5.80237143,0.571428571 C4.98437143,0.571428571 4.29037143,1.30342857 4.2138,1.38685714 L4.1278,1.48114286 L3.99865714,1.64228571 L3.8718,1.48285714 L3.7838,1.38685714 C3.70722857,1.30342857 3.01351429,0.571428571 2.20637143,0.571428571 M3.99865714,7.42857143 C3.88465714,7.42857143 3.77008571,7.40085714 3.66608571,7.34542857 C2.75322857,6.862 0.855228571,5.48085714 0.2078,3.71457143 C-0.0927714286,2.89485714 -0.0659142857,2.00742857 0.2798,1.34085714 C0.854942857,0.232571429 1.63894286,0 2.19522857,0 C2.99608571,0 3.6638,0.493714286 3.99865714,0.797428571 C4.33465714,0.492571429 4.9998,0 5.79122857,0 C6.35894286,0 7.14265714,0.232571429 7.7178,1.34085714 C8.06351429,2.00714286 8.09037143,2.89457143 7.7898,3.71457143 C7.14208571,5.48114286 5.24437143,6.86228571 4.33151429,7.34571429 C4.22751429,7.40085714 4.11294286,7.42857143 3.99865714,7.42857143" id="Fill-1" fill="#9D9E9F" mask="url(#mask-2)"></path>
                                </g>
                            </g>
                        </g>
                    </g>
                </g>
            </g>
        </g>
    </g>
</svg>