<?xml version="1.0" encoding="UTF-8"?>
<svg width="16px" height="16px" viewBox="0 0 16 16" version="1.1" xmlns="http://www.w3.org/2000/svg" xmlns:xlink="http://www.w3.org/1999/xlink">
    <!-- Generator: Sketch 58 (84663) - https://sketch.com -->
    <title>help</title>
    <desc>Created with Sketch.</desc>
    <g id="页面-1" stroke="none" stroke-width="1" fill="none" fill-rule="evenodd">
        <g id="画板" transform="translate(-96.000000, -137.000000)" fill-rule="nonzero">
            <g id="help" transform="translate(96.000000, 137.000000)">
                <rect id="矩形" fill="#000000" opacity="0" x="0" y="0" width="16" height="15.6"></rect>
                <path d="M8.00601563,0.034642969 C12.3792966,0.034642969 15.9283125,3.49079587 15.9283125,7.75886719 C15.9283125,12.0269444 12.3792907,15.4831219 8.00601563,15.4831219 C3.63275771,15.4831219 0.08371875,12.0269306 0.08371875,7.75886719 C0.08371875,3.49080421 3.63274168,0.034642969 8.00601563,0.034642969 Z M8.00601563,1.03464297 C4.17917962,1.03464297 1.08371875,4.04910979 1.08371875,7.75886719 C1.08371875,11.468626 4.17919655,14.4831219 8.00601563,14.4831219 C11.8328516,14.4831219 14.9283125,11.4686399 14.9283125,7.75886719 C14.9283125,4.04910155 11.8328588,1.03464297 8.00601563,1.03464297 Z M7.94225,10.1279191 C8.16503125,10.1279191 8.3525,10.2020344 8.5045625,10.3503105 C8.65664062,10.4985562 8.73267187,10.6813383 8.73267187,10.8985652 C8.73267187,11.1399539 8.65310937,11.3296219 8.49395312,11.4675844 C8.33457812,11.6054402 8.1506875,11.6744367 7.94223437,11.6744367 C7.72648437,11.6744367 7.53815625,11.6063543 7.37721875,11.4701437 C7.2163125,11.333918 7.13604687,11.1434273 7.13604687,10.8985652 C7.13604687,10.6813535 7.213875,10.498541 7.36928125,10.3503105 C7.52489062,10.2020344 7.715875,10.1279191 7.94225,10.1279191 Z M8.069625,3.84328242 C8.58242187,3.84328242 9.0349375,3.93549609 9.42770312,4.11999961 C9.82029687,4.30445742 10.1235469,4.55532187 10.3375312,4.8726082 C10.5515625,5.18981836 10.6585313,5.53466367 10.6585313,5.9070832 C10.6585313,6.20022305 10.5975312,6.45713555 10.4754844,6.6778207 C10.3534375,6.89852109 10.2082031,7.08948398 10.0404219,7.24941445 C9.87245312,7.40977148 9.57092187,7.67957227 9.13590625,8.05887773 C9.01565625,8.16579258 8.91926562,8.2597582 8.84676562,8.34078984 C8.77428125,8.42180625 8.72032812,8.49595195 8.68496875,8.56319648 C8.64960937,8.63044102 8.62220312,8.69767031 8.60273437,8.76491484 C8.58328125,8.83173281 8.554125,8.94981445 8.51520312,9.11925117 C8.448,9.47786836 8.23779687,9.65719219 7.88390625,9.65719219 C7.69975,9.65719219 7.54525,9.59858555 7.4196875,9.48131133 C7.29392187,9.36408281 7.231375,9.18995391 7.231375,8.95893984 C7.231375,8.66927344 7.27735937,8.41840898 7.36907812,8.20630078 C7.46104687,7.99422305 7.58304687,7.80802852 7.735125,7.64767148 C7.88720312,7.48731445 8.09235937,7.29682383 8.35051562,7.07609297 C8.576875,6.88299727 8.74067187,6.73732617 8.84145312,6.63903398 C8.94203125,6.54077227 9.0269375,6.43128281 9.09610937,6.31056562 C9.16507812,6.18986367 9.19934375,6.05928984 9.19934375,5.91744258 C9.19934375,5.64160898 9.09410937,5.40882773 8.88367187,5.21914453 C8.67323437,5.02990312 8.4018125,4.93506914 8.06934375,4.93506914 C7.68029687,4.93506914 7.39384375,5.03078672 7.210125,5.2221457 C7.02601562,5.41353516 6.87060937,5.69500547 6.74307812,6.0678668 C6.62259375,6.45708984 6.39448437,6.65190703 6.0585,6.65190703 C5.8604375,6.65190703 5.69353125,6.58383984 5.55740625,6.44761406 C5.42128125,6.31138828 5.35339062,6.16395 5.35360833,6.00536016 C5.35360833,5.67776016 5.46126562,5.34584883 5.67725,5.00965664 C5.89276562,4.67346445 6.20753125,4.39496484 6.62132812,4.17427969 C7.035125,3.95359453 7.51765625,3.84328242 8.069625,3.84328242 Z" id="形状结合" fill="#ffffff"></path>
            </g>
        </g>
    </g>
</svg>