<svg width="28" height="24" viewBox="0 0 28 24" fill="none" xmlns="http://www.w3.org/2000/svg">
<g id="B">
<path id="&#232;&#146;&#153;&#231;&#137;&#136;" fill-rule="evenodd" clip-rule="evenodd" d="M5.53167 23.5747V8.2298L3.62965 10.3655L0 6.7726C2.16303 4.22838 3.64042 2.75712 4.43219 2.3588C5.22395 1.96049 6.70241 1.17422 8.86755 0C8.86755 0 12.1342 0.517686 13.7675 0.517686C15.344 0.517686 18.497 0 18.497 0C20.6622 1.17422 22.1406 1.96049 22.9324 2.3588C23.7241 2.75712 25.2015 4.22838 27.3646 6.7726L23.9411 10.3655L21.8329 8.2298V23.5747H5.53167Z" fill="url(#paint0_linear_2867_55515)"/>
<mask id="mask0_2867_55515" style="mask-type:luminance" maskUnits="userSpaceOnUse" x="0" y="0" width="28" height="24">
<path id="&#232;&#146;&#153;&#231;&#137;&#136;_2" fill-rule="evenodd" clip-rule="evenodd" d="M5.53167 23.5747V8.2298L3.62965 10.3655L0 6.7726C2.16303 4.22838 3.64042 2.75712 4.43219 2.3588C5.22395 1.96049 6.70241 1.17422 8.86755 0C8.86755 0 12.1342 0.517686 13.7675 0.517686C15.344 0.517686 18.497 0 18.497 0C20.6622 1.17422 22.1406 1.96049 22.9324 2.3588C23.7241 2.75712 25.2015 4.22838 27.3646 6.7726L23.9411 10.3655L21.8329 8.2298V23.5747H5.53167Z" fill="white"/>
</mask>
<g mask="url(#mask0_2867_55515)">
<ellipse id="&#230;&#164;&#173;&#229;&#156;&#134;&#229;&#189;&#162;" cx="13.667" cy="-1.00016" rx="5" ry="4.33333" fill="#E5A68D"/>
<path id="&#231;&#159;&#169;&#229;&#189;&#162;&#229;&#164;&#135;&#228;&#187;&#189;" fill-rule="evenodd" clip-rule="evenodd" d="M1.5791 4.96924L5.35034 8.74047L4.40753 9.68328L0.636293 5.91205L1.5791 4.96924Z" fill="white"/>
<path id="&#231;&#159;&#169;&#229;&#189;&#162;&#229;&#164;&#135;&#228;&#187;&#189; 2" fill-rule="evenodd" clip-rule="evenodd" d="M26.0811 4.97607L22.3098 8.74731L23.2526 9.69012L27.0239 5.91888L26.0811 4.97607Z" fill="white"/>
<rect id="&#231;&#159;&#169;&#229;&#189;&#162;" x="5.33301" y="20.6665" width="16.6667" height="1.33333" fill="white"/>
</g>
</g>
<defs>
<linearGradient id="paint0_linear_2867_55515" x1="-13.6823" y1="11.7874" x2="9.63287" y2="38.8506" gradientUnits="userSpaceOnUse">
<stop stop-color="#FFF0E7"/>
<stop offset="1" stop-color="#C5785B"/>
</linearGradient>
</defs>
</svg>
