<?xml version="1.0" encoding="UTF-8"?>
<svg width="19px" height="19px" viewBox="0 0 19 19" version="1.1" xmlns="http://www.w3.org/2000/svg" xmlns:xlink="http://www.w3.org/1999/xlink">
    <!-- Generator: Sketch 60.1 (88133) - https://sketch.com -->
    <title>画板</title>
    <desc>Created with Sketch.</desc>
    <g id="画板" stroke="none" stroke-width="1" fill="none" fill-rule="evenodd">
        <g id="jianpan-del" fill="#000000" fill-rule="nonzero">
            <g id="编组">
                <rect id="矩形" opacity="0" x="0" y="0" width="19" height="19"></rect>
                <path d="M5.46891505,2 L17.9599915,2 C18.4369103,2 18.8235294,2.38397802 18.8235294,2.8576389 L18.8235294,16.5798611 C18.8235294,17.053522 18.4369103,17.4375 17.9599915,17.4375 L5.46891505,17.4375 C5.18025285,17.4375 4.91065899,17.2943341 4.75045147,17.0558507 L0.145203605,10.1947396 C-0.0484012016,9.90654129 -0.0484012016,9.53095871 0.145203605,9.24276042 L4.75045147,2.38164932 C4.91065899,2.14316591 5.18025285,2 5.46891505,2 Z M5.93090784,3.71527778 L1.90163979,9.71875 L5.93090784,15.7222222 L17.0964535,15.7222222 L17.0964535,3.71527778 L5.93090784,3.71527778 Z M11.0516879,8.50604861 L13.4937732,6.07978819 L14.7156794,7.29334723 L12.2727305,9.71875 L14.7156794,12.1441528 L13.4937732,13.3577118 L11.0516879,10.9314514 L8.60960255,13.3577118 L7.38769636,12.1441528 L9.83064522,9.71875 L7.38769636,7.29334723 L8.60960255,6.07978819 L11.0516879,8.50604861 Z" id="形状"></path>
            </g>
        </g>
    </g>
</svg>