<?xml version="1.0" encoding="UTF-8"?>
<svg width="20px" height="20px" viewBox="0 0 20 20" version="1.1" xmlns="http://www.w3.org/2000/svg" xmlns:xlink="http://www.w3.org/1999/xlink">
    <title>全屏视频备份 2</title>
    <g id="页面-1" stroke="none" stroke-width="1" fill="none" fill-rule="evenodd">
        <g id="画板备份" transform="translate(-157.000000, -482.000000)">
            <g id="全屏视频备份-2" transform="translate(157.000000, 482.000000)">
                <rect id="矩形复制-67" fill-opacity="0.8" fill="#000000" x="0" y="0" width="20" height="20" rx="10"></rect>
                <g id="视频" transform="translate(4.000000, 4.000000)" fill="#FFFFFF">
                    <path d="M10.2980423,0 C11.2361167,0 12,0.707536697 12,1.57641544 L12,10.4235846 C12,11.2924633 11.2361167,12 10.2980423,12 L1.70195765,12 C0.76388334,12 0,11.2924633 0,10.4235846 L0,1.57641544 C0,0.707536697 0.76388334,0 1.70195765,0 L10.2980423,0 Z M10.2980423,1 L1.70195765,1 C1.33633948,1 1.05535133,1.22947524 1.00728421,1.49565361 L1,1.57641544 L1,10.4235846 C1,10.6951758 1.24775013,10.9493412 1.59495939,10.9933085 L1.70195765,11 L10.2980423,11 C10.6636605,11 10.9446487,10.7705248 10.9927158,10.5043464 L11,10.4235846 L11,1.57641544 C11,1.30482417 10.7522499,1.05065881 10.4050406,1.00669149 L10.2980423,1 Z M4.69830712,3.39368501 C4.78421961,3.39332139 4.86796628,3.42062856 4.93715153,3.47156469 L8.08239518,5.78718204 C8.17134526,5.8526696 8.19036538,5.97786605 8.12487782,6.06681613 C8.11373127,6.0819562 8.10050562,6.09544896 8.08559143,6.10689596 L4.96213803,8.504222 C4.78689194,8.63872761 4.53578858,8.60570093 4.40128296,8.43045484 C4.34801315,8.36105011 4.31896796,8.27609414 4.31859766,8.18860384 L4.30000366,3.79537438 C4.29906867,3.57446246 4.4773952,3.39462 4.69830712,3.39368501 Z" id="形状结合"></path>
                </g>
            </g>
        </g>
    </g>
</svg>