<svg width="12" height="12" viewBox="0 0 12 12" fill="none" xmlns="http://www.w3.org/2000/svg">
<g clip-path="url(#clip0_1411_72235)">
<path d="M0.5 2.57143H2.92857C3.20471 2.57143 3.42857 2.79529 3.42857 3.07143V11.5C3.42857 11.7761 3.20471 12 2.92857 12H0.5C0.223858 12 0 11.7761 0 11.5V3.07143C0 2.79529 0.223858 2.57143 0.5 2.57143ZM4.78571 0H7.21429C7.49043 0 7.71429 0.223858 7.71429 0.5V11.5C7.71429 11.7761 7.49043 12 7.21429 12H4.78571C4.50957 12 4.28571 11.7761 4.28571 11.5V0.5C4.28571 0.223858 4.50957 0 4.78571 0ZM9.07143 6H11.5C11.7761 6 12 6.22386 12 6.5V11.5C12 11.7761 11.7761 12 11.5 12H9.07143C8.79529 12 8.57143 11.7761 8.57143 11.5V6.5C8.57143 6.22386 8.79529 6 9.07143 6Z" fill="#727D89"/>
</g>
<defs>
<clipPath id="clip0_1411_72235">
<rect width="12" height="12" fill="white"/>
</clipPath>
</defs>
</svg>
