<?xml version="1.0" encoding="UTF-8"?>
<svg width="20px" height="20px" viewBox="0 0 20 20" version="1.1" xmlns="http://www.w3.org/2000/svg" xmlns:xlink="http://www.w3.org/1999/xlink">
    <!-- Generator: Sketch 61.2 (89653) - https://sketch.com -->
    <title>足球</title>
    <desc>Created with Sketch.</desc>
    <g id="页面-1" stroke="none" stroke-width="1" fill="none" fill-rule="evenodd">
        <g id="足球" transform="translate(-2.000000, -2.000000)">
            <rect id="矩形备份-15" fill="#D8D8D8" opacity="0" x="0" y="0" width="24" height="24"></rect>
            <path d="M19.2164,17.241 C19.1502,17.3319 19.0435,17.3844 18.931,17.3842006 L16.7294,17.3805 C16.6162,17.3803 16.5099,17.3261 16.4434,17.2345 L14.9002,15.1105 C14.8335,15.0187 14.8148,14.9006 14.8499,14.7927 L15.9472,11.42 C15.9822,11.3121 16.0668,11.2276 16.1746,11.1926 L18.6874,10.3761 C18.7954,10.341 18.9137,10.3598 19.0055,10.4266 L20.7782,11.7173 C20.8682,11.7827 20.9226,11.8869 20.9226,11.9981 L20.9226,11.9999 C20.9226,13.9569 20.2889,15.7685 19.2164,17.241 L19.2164,17.241 Z M15.6136,18.1744 L14.9281,20.2772 C14.8932,20.3847 14.8095,20.47 14.7018,20.5043 C13.8492,20.7759 12.9414,20.9225 12,20.9225 C11.0273,20.9225 10.0906,20.7655 9.2135,20.4764 C9.1075,20.4414 9.0253,20.3567 8.9908,20.2506 L8.3061,18.1467 C8.271,18.0388 8.2897,17.9206 8.3564,17.8288 L9.9412,15.6476 C10.0078,15.5558 10.1144,15.5016 10.2278,15.5016 L13.6721,15.5016 C13.7854,15.5016 13.8921,15.5559 13.9587,15.6476 L15.5634,17.8563 C15.6301,17.9481 15.6488,18.0664 15.6136,18.1744 L15.6136,18.1744 Z M7.2039,17.3323012 L5.0244,17.3256 C4.9116,17.3252 4.8047,17.2719 4.739,17.1801 C3.6935,15.7185 3.0774,13.93 3.0774,12 C3.0774,11.9785 3.0775,11.957 3.0777,11.9355 C3.0786,11.823 3.1329,11.7178 3.2239,11.6516 L4.9663,10.3847 C5.058,10.3181 5.1762,10.2993 5.2841,10.3344 L7.813,11.156 C7.9208,11.191 8.0054,11.2756 8.0405,11.3833 L9.119,14.6975 C9.1541,14.8055 9.1355,14.9236 9.0688,15.0154 L7.4916,17.1862 C7.4247,17.2783 7.3177,17.3326 7.2039,17.3323012 L7.2039,17.3323012 Z M4.7745,6.7599 C5.8777,5.2446 7.4433,4.0887 9.2647,3.5033 C9.3715,3.469 9.4883,3.4894 9.5789,3.5555 L11.2934,4.8065 C11.3848,4.8732 11.4389,4.9796 11.4389,5.0927 L11.4389,7.6612 C11.4389,7.7745 11.3847,7.881 11.2931,7.9476 L8.3912,10.0607 C8.2993,10.1276 8.181,10.1464 8.0729,10.1112 L5.6061,9.308 C5.4984,9.273 5.414,9.1886 5.3789,9.0808 L4.7261,7.0755 C4.6913,6.9686 4.7083,6.8508 4.7745,6.7599 L4.7745,6.7599 Z M12.5163,5.0941 C12.5163,4.9803 12.571,4.8733 12.6634,4.8067 L14.4003,3.5543 C14.4906,3.4891 14.6067,3.4692 14.7128,3.5033 C16.5265,4.086 18.0937,5.234 19.1966,6.7393 C19.263,6.83 19.2804,6.9477 19.2459,7.0547 L18.5791,9.1231 C18.5441,9.2315 18.4593,9.3164 18.351,9.3515 L15.935,10.1338 C15.8274,10.1686 15.7098,10.15 15.6183,10.0838 L12.663,7.9475 C12.5709,7.8809 12.5163,7.7741 12.5163,7.6604 L12.5163,5.0941 Z M12,2 C6.486,2 2,6.486 2,12 C2,17.5139 6.486,22 12,22 C17.514,22 22,17.5139 22,12 C22,6.486 17.514,2 12,2 L12,2 Z" id="Fill-1" fill="#B6C1CB"></path>
        </g>
    </g>
</svg>