<?xml version="1.0" encoding="UTF-8"?>
<svg width="20px" height="20px" viewBox="0 0 20 20" version="1.1" xmlns="http://www.w3.org/2000/svg" xmlns:xlink="http://www.w3.org/1999/xlink">
    <title>bangqiu-weixuanzhong</title>
    <g id="bangqiu-weixuanzhong" stroke="none" stroke-width="1" fill="none" fill-rule="evenodd">
        <path d="M9.99964132,0.00477383936 C7.44126053,0.00477383936 4.88287975,0.981023989 2.93068247,2.93352429 C-0.97371209,6.83852488 -0.97371209,13.1686359 2.93068247,17.0712496 C4.88287975,19.0237499 7.44126053,20 9.99964132,20 C12.5580221,20 15.1164029,19.0237499 17.0686002,17.0712496 C20.9729947,13.166249 20.9729947,6.83613796 17.0686002,2.93352429 C15.1164029,0.978637069 12.5580221,0.00477383936 9.99964132,0.00477383936 Z M3.94735244,8.32080201 L4.12634364,8.39002268 C4.38409095,8.4902733 4.51296461,8.77909058 4.41511609,9.03687791 L4.27913696,9.39112448 C5.03041851,9.64044095 5.75798052,9.98124446 6.44440626,10.4134664 L6.71813611,10.075188 C6.89235421,9.8603652 7.20737871,9.82694832 7.42216814,9.99880654 L7.57252074,10.1181525 C7.78969672,10.2923977 7.82310841,10.6074711 7.64889032,10.8222938 L7.41733835,11.1110711 C7.68408431,11.3276446 7.94226664,11.5599864 8.19063699,11.8080917 C8.45494036,12.072436 8.70134543,12.3479264 8.92985222,12.633052 L9.22401281,12.3952739 C9.43880225,12.2234157 9.75382675,12.2568326 9.92804484,12.4716553 L9.92804484,12.4716553 L10.0473723,12.6220313 C10.2192038,12.836854 10.1857922,13.1519274 9.97100273,13.3261726 L9.97100273,13.3261726 L9.61988167,13.6084258 C10.0469495,14.2962657 10.3827006,15.0247738 10.6271348,15.7765407 L11.0067651,15.631937 C11.2645124,15.5316864 11.5556714,15.6629669 11.6535199,15.9207543 L11.6535199,15.9207543 L11.7227299,16.0997732 C11.8229649,16.3575606 11.6917047,16.6487648 11.4339574,16.7466285 L11.4339574,16.7466285 L10.929286,16.9396371 C11.1236288,17.928419 11.167752,18.940893 11.0616557,19.940327 C10.7084464,19.9785177 10.3552372,19.9976131 9.99964132,19.9976131 C7.44126053,19.9976131 4.88287975,19.0213629 2.93068247,17.0688626 C0.708805124,14.8466404 -0.248201121,11.8391216 0.059663731,8.9390142 C0.412873019,8.90082349 0.766082306,8.88172813 1.12167814,8.88172813 C1.79179485,8.88172813 2.46191156,8.94870605 3.12113495,9.08261899 L3.3005976,8.60961929 C3.39844612,8.35183196 3.68960513,8.22055138 3.94735244,8.32080201 Z M1.19804772,10.075188 C1.20043427,10.3807137 1.21714011,10.6838525 1.25293835,10.9869913 C1.32453483,11.6290727 1.46534123,12.2616064 1.67535757,12.8702709 C1.88776045,13.4884831 2.16937326,14.0828261 2.5154229,14.6389784 C2.87101874,15.2118391 3.2958245,15.7465091 3.7755209,16.22628 C4.61558623,17.0664757 5.59645797,17.7181048 6.68711097,18.1596849 C7.71810024,18.5773959 8.80875325,18.7946056 9.92565829,18.8041532 C9.92327174,18.4986275 9.90417935,18.1954887 9.87076766,17.8923499 C9.85126185,17.7174207 9.82661899,17.5432001 9.7968391,17.3699777 L9.51755837,17.4770259 C9.25981105,17.5772765 8.96865205,17.4459959 8.87319008,17.1882086 L8.87319008,17.1882086 L8.80398015,17.0091896 C8.70374508,16.7514023 8.83500529,16.4601981 9.09275261,16.3623344 L9.09275261,16.3623344 L9.50946387,16.2030935 L9.44834844,16.0090703 C9.27842614,15.5145005 9.06420948,15.0352071 8.80814229,14.5785225 L8.68146387,14.3640935 L8.37440128,14.6127223 C8.18347735,14.7676068 7.91335533,14.7565268 7.73332636,14.6012755 L7.67036926,14.5363409 L7.5510418,14.3859649 C7.37921025,14.1711421 7.41262194,13.8560687 7.62741137,13.6818236 L7.62741137,13.6818236 L8.00053948,13.3814218 C7.79684266,13.1271785 7.57886043,12.8837724 7.34818511,12.6530612 C7.13100046,12.4358429 6.90440441,12.2312282 6.66893307,12.0395884 L6.36254027,12.4191431 C6.18832218,12.6339659 5.87329768,12.6673827 5.65850825,12.4955245 L5.50815565,12.3761785 C5.29336622,12.2019334 5.25995453,11.88686 5.43178607,11.6720372 L5.6908978,11.3491224 C5.29169214,11.1065984 4.87292902,10.8963178 4.43659504,10.7196563 C4.24447101,10.6418162 4.05027509,10.5709387 3.8542235,10.5070701 L3.68483203,10.9535744 C3.58698351,11.2113617 3.2958245,11.3426423 3.03807718,11.2423917 L2.85908599,11.173171 C2.60133867,11.0753073 2.47007846,10.7841031 2.57031353,10.5263158 L2.68883305,10.2139308 C2.19927273,10.1259561 1.70132534,10.0794902 1.19804772,10.075188 Z M9.99964132,0.00477383936 C12.5580221,0.00477383936 15.1164029,0.978637069 17.0686002,2.93113737 C19.2904775,5.15335959 20.2474838,8.16326531 19.9396189,11.0633727 C19.5864096,11.1015634 19.2332003,11.1206588 18.8776045,11.1206588 C18.2271457,11.1206588 17.5766869,11.0575528 16.9361906,10.9313409 L16.7440295,11.4357322 C16.646181,11.6935195 16.3550219,11.8248001 16.0972746,11.7245495 L15.9182834,11.6553288 C15.6605361,11.5574651 15.5292759,11.2662609 15.629511,11.0084736 L15.7742897,10.6288945 C15.0228564,10.3841658 14.2946641,10.0480943 13.6070618,9.62068007 L13.3241044,9.97255042 C13.1498863,10.1873732 12.8348618,10.2207901 12.6200724,10.0489319 L12.4697198,9.92958587 C12.2549303,9.75534073 12.2215187,9.44026734 12.3933502,9.22544456 L12.631575,8.92980625 C12.3471975,8.70165907 12.0723895,8.4556931 11.8086456,8.19190834 C11.5601314,7.94362226 11.3274368,7.68550327 11.1105618,7.41880648 L10.8206143,7.65246449 C10.6058248,7.82432271 10.2908003,7.79090584 10.1141957,7.57608306 L10.1141957,7.57608306 L9.99486822,7.42570712 C9.82303667,7.21088435 9.85644836,6.89581096 10.0712378,6.72156582 L10.0712378,6.72156582 L10.4127178,6.44698142 C9.97990151,5.76056941 9.63879029,5.03296619 9.38938411,4.28168924 L9.03547542,4.41580141 C8.77772811,4.51366512 8.4865691,4.38477145 8.38872058,4.12698413 L8.38872058,4.12698413 L8.31951065,3.94796515 C8.21927558,3.69017783 8.35053579,3.39897362 8.60828311,3.30110992 L8.60828311,3.30110992 L9.0804897,3.12171435 C8.87614011,2.11404732 8.82851918,1.08111634 8.93762691,0.0620599117 C9.29083619,0.0238691968 9.64404548,0.00477383936 9.99964132,0.00477383936 Z M10.0736243,1.19823368 C10.0760109,1.50137248 10.0951033,1.8068982 10.128515,2.110037 C10.1501255,2.30384109 10.1780414,2.49677534 10.2122627,2.68844591 L10.5246822,2.5707125 C10.7824295,2.47046187 11.0735885,2.60174245 11.171437,2.85952978 L11.171437,2.85952978 L11.2406469,3.03854875 C11.340882,3.29633608 11.2096218,3.58754028 10.9518745,3.68540399 L10.9518745,3.68540399 L10.5068074,3.85477384 L10.5509342,3.99331662 C10.7208565,4.48788638 10.9350732,4.96717985 11.1911403,5.42386442 L11.3498074,5.69177384 L11.6702258,5.43501611 C11.8611497,5.28225325 12.1312717,5.29168306 12.3113007,5.44654143 L12.3742578,5.51139754 L12.4935853,5.66177348 C12.6654168,5.87659625 12.6320051,6.19166965 12.4172157,6.36591479 L12.4172157,6.36591479 L12.0393681,6.67129434 C12.2313447,6.90736664 12.4356867,7.13388142 12.6510975,7.3493257 C12.8832289,7.58149307 13.1261116,7.79926231 13.3790911,8.00218015 L13.6797002,7.6285953 C13.8539183,7.41377253 14.1689428,7.38035565 14.3837323,7.55221387 L14.5340849,7.67155985 C14.7488743,7.84580499 14.782286,8.16087839 14.6104544,8.37570116 L14.3614382,8.6852366 C14.7446464,8.91431313 15.1456411,9.11387817 15.5626876,9.28273064 C15.7724857,9.3677315 15.9847545,9.4444298 16.1992123,9.5127652 L16.359795,9.09177706 C16.4576436,8.83398974 16.7488026,8.70270915 17.0065499,8.80295978 L17.1855411,8.87218045 C17.4432884,8.97004416 17.5721621,9.26124836 17.4743135,9.51903568 L17.3683597,9.79866228 C17.83926,9.88002716 18.3177882,9.92306629 18.8012349,9.92719895 C18.7988484,9.62167323 18.779756,9.31853443 18.7463443,9.01539563 C18.6747478,8.37331424 18.5339414,7.74078052 18.3239251,7.132116 C18.1115222,6.51390381 17.8299094,5.91956081 17.4838597,5.36340852 C17.1282639,4.7905478 16.7034581,4.25587779 16.2237617,3.77610693 C15.3836964,2.93591121 14.4028247,2.28428213 13.3121717,1.84270199 C12.2811824,1.42499105 11.1905294,1.20778136 10.0736243,1.19823368 Z M8.67143491,18.6936497 L9.99964132,20 C7.44126053,20 4.88287975,19.0237499 2.93068247,17.0712496 C1.02053175,15.1619701 0.0448859081,12.6716766 0.00374495169,10.1685897 L1.33148386,11.4744802 C1.63063991,13.2494418 2.46997616,14.9051639 3.78360548,16.2181941 C5.13291476,17.5677129 6.84346886,18.4163574 8.67143491,18.6936497 Z M9.99964132,20 C7.44126053,20 4.88287975,19.0237499 2.93068247,17.0712496 C1.02053175,15.1619701 0.0448859081,12.6716766 0.00374495169,10.1685897 L1.33148386,11.4744802 C1.63063991,13.2494418 2.46997616,14.9051639 3.78360548,16.2181941 C5.13291476,17.5677129 6.84346886,18.4163574 8.67143491,18.6936497 L9.99964132,20 Z M11.3246893,1.31041396 C13.1549937,1.58682435 14.8660978,2.43514105 16.2151563,3.78605842 C17.5338885,5.10418975 18.3745578,6.7671095 18.6709451,8.5490701 L19.9958227,9.85454231 C19.9591615,7.34527678 18.9834206,4.84747137 17.0686002,2.93352429 C15.1164029,0.978637069 12.5580221,0.00477383936 9.99964132,0.00477383936 L11.3246893,1.31041396 Z M16.2151563,3.78605842 C17.5338885,5.10418975 18.3745578,6.7671095 18.6709451,8.5490701 L19.9958227,9.85454231 C19.9591615,7.34527678 18.9834206,4.84747137 17.0686002,2.93352429 C15.1164029,0.978637069 12.5580221,0.00477383936 9.99964132,0.00477383936 L11.3246893,1.31041396 C13.1549937,1.58682435 14.8660978,2.43514105 16.2151563,3.78605842 Z M7.9478814,18.652294 C8.2134591,18.6686919 8.41832406,18.6834835 8.56247627,18.6966687 C8.69420225,18.7087173 8.84917179,18.729826 8.99085553,18.7458767 C9.12271004,18.7608139 9.24313585,18.770924 9.3205969,18.7768717 C9.61792452,18.7997014 9.81961165,18.8087952 9.92565829,18.8041532 L9.99682337,19.9984682 L7.9478814,18.652294 Z M1.19804772,10.075188 C1.201943,10.3473313 1.21201132,10.5795182 1.22825267,10.7717487 C1.24449403,10.9639791 1.28343619,11.2493174 1.34507915,11.6277635 L0.592435251,11.6277635 L0,10.1515589 L1.19804772,10.075188 Z M18.6837969,8.55661432 L20,9.84876379 L18.7784267,9.92572388 C18.7912837,9.79622754 18.7912837,9.63847118 18.7784267,9.4524548 C18.7655697,9.26643843 18.7340264,8.96782493 18.6837969,8.55661432 Z M9.99562361,5.55111512e-16 L11.756831,1.34579246 C11.3341063,1.29080273 11.0114748,1.25358627 10.7889366,1.23414306 C10.5663984,1.21469985 10.3277555,1.20287767 10.073008,1.19867652 L10.073008,1.19867652 L9.99562361,5.55111512e-16 Z" id="Mask" fill="#B6C1CB" fill-rule="nonzero"></path>
    </g>
</svg>