<?xml version="1.0" encoding="UTF-8"?>
<svg width="20px" height="20px" viewBox="0 0 20 20" version="1.1" xmlns="http://www.w3.org/2000/svg" xmlns:xlink="http://www.w3.org/1999/xlink">
    <title>bingqiu-weixuanhong</title>
    <g id="bingqiu-weixuanhong" stroke="none" stroke-width="1" fill="none" fill-rule="evenodd">
        <path d="M17.3376834,17.5686367 L17.3368169,18.0392726 L17.3215585,18.0391057 C17.3316521,18.0975676 17.3368169,18.1562722 17.3368169,18.2150159 C17.3368169,19.201238 15.8811084,20.0007289 14.085401,20.0007289 C12.2896935,20.0007289 10.8339851,19.201238 10.8339851,18.2150159 C10.8339851,18.1562722 10.8391498,18.0975676 10.8492434,18.0391057 L10.8339851,18.0392726 L10.832521,17.5736813 C11.3806531,18.338581 12.6418086,18.8588312 14.0833011,18.8588312 C15.5279603,18.8588312 16.7914894,18.3362927 17.3376834,17.5686367 Z M2.58632962,14.4659201 L2.58632962,18.4369201 L1.40148241,18.7374731 C0.83583446,18.8805081 0.261333456,18.5379125 0.118298499,17.9722646 C0.107518831,17.9296352 0.0994111775,17.8863743 0.0940228521,17.8427345 L0.0331493624,17.3497226 C-0.0233200704,16.8923789 0.0263272352,16.4281737 0.178239993,15.9931168 L0.300375894,15.6433366 C0.515207379,15.0280893 1.07124409,14.5963043 1.7205292,14.5405302 L2.58632962,14.4659201 Z M6.10532962,14.1769201 L6.10532962,17.4539201 L4.94723312,17.8298705 C4.84368001,17.8633815 4.7390603,17.8935024 4.63354122,17.9201849 L3.58632962,18.1849201 L3.58632962,14.3799201 L4.26262083,14.3221627 L4.40485831,14.3105123 L6.10532962,14.1769201 Z M19.358389,0.0983741278 L19.7205742,0.31558372 C19.9573936,0.457609003 20.0342394,0.764723302 19.8922141,1.00154271 C19.8859271,1.01202589 19.8792578,1.02227499 19.8722197,1.03226935 L10.9878651,13.6482585 L9.32888865,15.7189201 C8.83992972,16.3292171 8.18280198,16.7828026 7.43877854,17.0235773 L7.10532962,17.1309201 L7.10604214,14.084231 C8.12641964,13.9126999 9.04603803,13.3508794 9.66466052,12.5100218 L18.6984828,0.230871183 C18.8513434,0.0230966585 19.137174,-0.0342928841 19.358389,0.0983741278 Z M12.714,14.991 L12.6400811,15.0106753 C12.6877821,14.9976532 12.736148,14.9852557 12.7851433,14.9735021 L12.801,14.969 L12.8404004,14.9605808 C12.8353534,14.9617306 12.8303127,14.9628873 12.8252785,14.9640508 L12.801,14.969 L12.7911458,14.9720661 C12.7891439,14.9725437 12.7871431,14.9730224 12.7851433,14.9735021 L12.742,14.984 L12.7822029,14.9742084 L12.7822029,14.9742084 C12.8024899,14.9693598 12.8138676,14.9666879 12.8252785,14.9640508 L12.8767081,14.9524501 L12.8767081,14.9524501 L12.8404004,14.9605808 L12.9169947,14.9437563 L12.9169947,14.9437563 L12.963,14.933 L12.9745647,14.9319213 L12.9745647,14.9319213 L12.978,14.93 L12.9945328,14.9279758 L12.9945328,14.9279758 L12.982,14.93 L13.0738379,14.9131018 C13.1986326,14.8906875 13.3266813,14.872316 13.4575406,14.8582555 L13.456855,14.8583292 C13.5744995,14.8456885 13.6937037,14.8365653 13.8147887,14.831086 L13.8797763,14.8285024 L14.085401,14.8249892 C15.8811084,14.8249892 17.3368169,15.6244802 17.3368169,16.6107022 C17.3368169,17.5969243 15.8811084,18.3964152 14.085401,18.3964152 C12.2896935,18.3964152 10.8339851,17.5969243 10.8339851,16.6107022 C10.8339851,16.4333268 10.8810733,16.2619915 10.9687587,16.1002614 L11.0392127,15.9849411 L11.0392127,15.9849411 L11.098,15.906 L11.0600347,15.9552017 L11.0965747,15.9065035 L11.0965747,15.9065035 L11.1233856,15.8731723 L11.129,15.866 L11.142,15.851 L11.181029,15.8071062 L11.181029,15.8071062 L11.227,15.758 L11.271911,15.7150561 L11.271911,15.7150561 L11.2776225,15.7096776 L11.31,15.679 L11.32095,15.6702169 L11.32095,15.6702169 L11.3284179,15.6636417 L11.3284179,15.6636417 L11.384,15.616 L11.39,15.611 L11.4287315,15.5809428 L11.4287315,15.5809428 L11.4436214,15.5694729 L11.5000002,15.5276954 L11.5000002,15.5276954 L11.503,15.525 L11.5460992,15.495327 L11.5460992,15.495327 L11.581,15.471 L11.6291391,15.4406369 L11.6291391,15.4406369 L11.655,15.424 L11.684,15.406 L11.7334385,15.3777252 L11.7334385,15.3777252 L11.761689,15.361676 L11.761689,15.361676 L11.785,15.348 L11.762,15.361 L11.807,15.336 L11.8224652,15.3284573 L11.8224652,15.3284573 L11.9025965,15.2872032 L11.9025965,15.2872032 L11.8834773,15.2967962 L11.9507077,15.263724 L11.9507077,15.263724 L11.9852304,15.2474379 L12.0569132,15.2150439 L12.0569132,15.2150439 L12.0195992,15.2316722 C12.0739452,15.2070877 12.1297696,15.1834533 12.1869882,15.1608154 L12.1862499,15.1611076 C12.2951629,15.1180172 12.4083206,15.0787806 12.5258919,15.0434182 L12.4702294,15.0605528 L12.5544045,15.0349438 L12.5544045,15.0349438 L12.578,15.027 L12.606898,15.0198647 L12.606898,15.0198647 L12.6400811,15.0106753 L12.6892372,14.997539 L12.698,14.995 L12.696,14.995 L12.714,14.991 Z" id="冰球-列表-未选中" fill="#B6C1CB"></path>
    </g>
</svg>