<?xml version="1.0" encoding="UTF-8"?>
<svg width="20px" height="20px" viewBox="0 0 20 20" version="1.1" xmlns="http://www.w3.org/2000/svg" xmlns:xlink="http://www.w3.org/1999/xlink">
    <!-- Generator: Sketch 61.2 (89653) - https://sketch.com -->
    <title>收藏</title>
    <desc>Created with Sketch.</desc>
    <g id="页面-1" stroke="none" stroke-width="1" fill="none" fill-rule="evenodd">
        <g id="收藏" transform="translate(-2.000000, -2.000000)">
            <rect id="矩形备份-16" fill="#D8D8D8" opacity="0" x="0" y="0" width="24" height="24"></rect>
            <path d="M21.9400026,9.53872634 C21.801947,9.12564544 21.4568081,8.85025818 21.0426413,8.78141136 L15.5204176,7.92082615 L13.0354169,2.65404474 C12.8628475,2.24096384 12.4486807,2 12,2 C11.5513193,2 11.1716664,2.24096386 10.9645831,2.65404474 L8.4795824,7.92082615 L2.95735872,8.74698794 C2.54319194,8.81583475 2.19805295,9.09122203 2.05999737,9.50430292 C1.92194178,9.91738382 2.02548347,10.3648881 2.33610855,10.6402754 L6.37423462,14.7710843 L5.40784549,20.5886403 C5.3388177,21.0017212 5.51138718,21.4492255 5.89104005,21.6901893 C6.23617904,21.9311532 6.71937361,21.9655766 7.09902648,21.7590361 L12,19.1084337 L16.9354874,21.8623064 C17.1080569,21.9311532 17.2806264,22 17.4531959,22 C18.074446,22 18.5921545,21.4836489 18.5921545,20.8640275 C18.5921545,20.7263339 18.5576406,20.6230637 18.5231267,20.5197935 L17.6257654,14.8743546 L21.6638914,10.7435456 C21.9745165,10.3993115 22.0780582,9.95180723 21.9400026,9.53872634 L21.9400026,9.53872634 Z" id="路径" fill="#B6C1CB" fill-rule="nonzero"></path>
        </g>
    </g>
</svg>