<?xml version="1.0" encoding="UTF-8"?>
<svg width="20px" height="21px" viewBox="0 0 20 21" version="1.1" xmlns="http://www.w3.org/2000/svg" xmlns:xlink="http://www.w3.org/1999/xlink">
    <!-- Generator: Sketch 61.2 (89653) - https://sketch.com -->
    <title>搜索</title>
    <desc>Created with Sketch.</desc>
    <g id="页面-1" stroke="none" stroke-width="1" fill="none" fill-rule="evenodd">
        <g id="H5-今日" transform="translate(-304.000000, -57.000000)" fill="#333333" fill-rule="nonzero">
            <g id="搜索" transform="translate(303.000000, 56.000000)">
                <path d="M20.8965527,19.8196478 L16.4137384,15.3367156 C19.2593991,11.9374799 19.0875634,6.8519442 15.8944598,3.65884062 C14.2586027,2.02310134 12.083667,1.12220134 9.77024911,1.12220134 C7.45683125,1.12220134 5.28189554,2.02310134 3.64615625,3.65884062 C0.26943125,7.03568348 0.26943125,12.5301835 3.64615625,15.9070263 C5.28189554,17.5427656 7.45683125,18.4435478 9.77024911,18.4435478 C11.5455313,18.4435478 13.2380777,17.9113049 14.6690991,16.9254299 L19.229817,21.4862656 L20.8965527,19.8196478 L20.8965527,19.8196478 Z M5.31277411,14.2402906 C2.85498125,11.7824978 2.85498125,7.7833692 5.31277411,5.32557634 C6.50336696,4.13498348 8.08630625,3.47922634 9.77013125,3.47922634 C11.4539563,3.47922634 13.0370134,4.13486562 14.2276063,5.32557634 C16.6853991,7.7833692 16.6853991,11.7824978 14.2277241,14.2402906 C13.0368955,15.4308835 11.4539563,16.0865228 9.77013125,16.0865228 C8.08630625,16.0865228 6.50336696,15.4307656 5.31277411,14.2402906 Z" id="形状"></path>
            </g>
        </g>
    </g>
</svg>