<?xml version="1.0" encoding="UTF-8"?>
<svg width="20px" height="20px" viewBox="0 0 20 20" version="1.1" xmlns="http://www.w3.org/2000/svg" xmlns:xlink="http://www.w3.org/1999/xlink">
    <!-- Generator: Sketch 61.2 (89653) - https://sketch.com -->
    <title>篮</title>
    <desc>Created with Sketch.</desc>
    <g id="页面-1" stroke="none" stroke-width="1" fill="none" fill-rule="evenodd">
        <g id="篮" transform="translate(-2.000000, -2.000000)">
            <rect id="矩形备份-8" fill="#D8D8D8" opacity="0" x="0" y="0" width="24" height="24"></rect>
            <path d="M12.7055505,5.57112315 C13.0419823,5.59042317 13.3737584,5.62342319 13.7001702,5.66942324 C13.8239536,5.68692325 13.9133247,5.79342334 13.907758,5.91692345 C13.903507,6.00952354 13.9019888,6.10412362 13.9033046,6.2011237 C13.9399437,8.83642603 15.3962969,10.5969276 16.6813979,12.1502289 C17.52602,13.1712298 18.341594,14.1309307 18.6254964,15.2244317 C19.6245695,19.0731351 16.9944495,20.7304365 16.8859493,20.7824366 C15.5962937,21.4002371 14.2113968,21.8893375 12.7091941,21.9993376 C12.569419,22.0095376 12.4497853,21.9006375 12.4497853,21.7621374 L12.4497853,21.7621374 L12.4497853,5.80842336 C12.4497853,5.67132324 12.5669899,5.56312314 12.7055505,5.57112315 Z M11.2943281,5.57102315 C11.4328886,5.56302314 11.5500932,5.67122324 11.5500932,5.80832336 L11.5500932,5.80832336 L11.5500932,21.7621374 C11.5500932,21.9006375 11.4306619,22.0095376 11.2907856,21.9993376 C9.78139679,21.8887375 8.33243209,21.3927371 7.03893049,20.7824366 C7.01180542,20.7696365 4.31782013,19.2213352 5.37458462,15.2244317 C5.66324397,14.1322307 6.47395976,13.1712298 7.31868311,12.1502289 C8.60368282,10.5968276 10.0601373,8.83632603 10.0966752,6.2010237 C10.0980921,6.10412362 10.0963715,6.00952354 10.0922218,5.91682345 C10.0865539,5.79342334 10.1760261,5.68682325 10.2998096,5.66942324 C10.6261201,5.62332319 10.9579974,5.59032317 11.2943281,5.57102315 Z M8.89269642,5.95592349 C9.04613526,5.91462345 9.19927046,6.02872355 9.19726606,6.18572369 L9.19726606,6.18572369 C9.16475685,8.51402574 7.87216617,10.0765271 6.62208493,11.5876285 C5.71521683,12.6838294 4.85875278,13.7191303 4.50683533,14.9897315 C4.21382382,16.0476324 4.13831895,16.9437332 4.19388486,17.6958338 C4.21129349,17.932134 3.90785705,18.0489341 3.76352737,17.859634 C2.86242841,16.6774329 2.16021291,15.3087317 2.02276571,13.7950304 C1.69746727,10.2128272 4.9010598,7.02932443 8.89269642,5.95592349 Z M15.0501139,5.94752504 L15.1073036,5.95592349 C19.0989402,7.02942443 22.3025327,10.2128272 21.9772343,13.7950304 C21.8397871,15.3087317 21.1375716,16.6774329 20.2364726,17.859634 C20.092143,18.0489341 19.7887065,17.932134 19.8061151,17.6958338 C19.861681,16.9437332 19.7861762,16.0476324 19.4931647,14.9897315 C19.1412472,13.7191303 18.2847832,12.6838294 17.3779151,11.5877285 C16.1278338,10.0766271 14.8352432,8.51402574 14.802855,6.18892369 L14.802855,6.18892369 C14.8008307,6.02862355 14.953966,5.91472345 15.1073036,5.95592349 Z M6.11358091,3.89578167 C6.5813872,3.84888163 7.82944418,3.78748158 8.51759107,4.35108207 C8.64734609,4.45738217 8.75847791,4.58268228 8.85108777,4.7263824 C8.93833334,4.86178252 8.86839518,5.04258268 8.7115151,5.08408272 C6.30821342,5.71938328 4.2654323,7.03178444 2.90968474,8.74978595 C2.74076031,8.96398614 2.39876173,8.77578597 2.49471161,8.52128575 C3.18933614,6.67798412 4.4184663,5.08978272 5.99495932,3.94108171 C6.02977658,3.91568169 6.0705654,3.90008168 6.11358091,3.89578167 Z M15.479494,4.35359208 C16.1392,3.8105916 17.3397882,3.84239162 17.8727756,3.88829166 C17.9171069,3.89209167 17.9593127,3.90769168 17.9951421,3.9337917 C19.5762909,5.08309272 20.8091659,6.67409412 21.5053086,8.52129575 C21.6012585,8.77569597 21.2593611,8.96399614 21.0903355,8.74979595 C19.7344867,7.03169444 17.6918068,5.71939328 15.2885051,5.08409272 C15.1317263,5.04269268 15.0616869,4.86189252 15.1488313,4.7266924 C15.2407326,4.58399228 15.3509535,4.45939217 15.479494,4.35359208 Z M11.5500224,2 L11.5500224,4.44240215 C11.5500224,4.56950227 11.448607,4.67290236 11.3201677,4.67950236 C10.9024619,4.70110238 10.49093,4.74220242 10.0871915,4.80200247 C9.9770718,4.81840248 9.87110183,4.75870243 9.8278839,4.65720234 C9.66037646,4.263002 9.41503625,3.9317017 9.09186327,3.66680147 C8.81342643,3.43880127 8.50280386,3.28260113 8.18904369,3.17730104 C7.97710376,3.10620098 7.96516063,2.81520072 8.17234355,2.73140064 C9.22242799,2.30690027 10.3598592,2.05160005 11.5501236,2 L11.5500224,2 Z M12.7085767,2.01446001 C13.8050167,2.08956008 14.8538866,2.3377603 15.8275552,2.73146064 C16.0347382,2.81526072 16.0228962,3.10616098 15.8109563,3.17726104 C15.4970949,3.28266113 15.1864724,3.43886127 14.9081367,3.66686147 C14.5848625,3.9316617 14.3396235,4.262962 14.1720149,4.65726234 C14.1288982,4.75876243 14.0229282,4.81836248 13.9127073,4.80196247 C13.50907,4.74216242 13.0975381,4.70106238 12.6798323,4.67956236 C12.5512918,4.67296236 12.4498764,4.56956227 12.4498764,4.44236215 L12.4498764,4.44236215 L12.4498764,2.25166022 C12.4498764,2.1134601 12.5690041,2.00486 12.7085767,2.01446001 Z" id="形状结合" fill="#B6C1CB"></path>
        </g>
    </g>
</svg>