<?xml version="1.0" encoding="UTF-8"?>
<svg width="20px" height="20px" viewBox="0 0 20 20" version="1.1" xmlns="http://www.w3.org/2000/svg" xmlns:xlink="http://www.w3.org/1999/xlink">
    <title>奖杯 (2)备份 2</title>
    <g id="页面-1" stroke="none" stroke-width="1" fill="none" fill-rule="evenodd">
        <g id="画板" transform="translate(-85.000000, -39.000000)" fill="#B6C1CB" fill-rule="nonzero">
            <g id="奖杯-(2)备份-2" transform="translate(85.000000, 39.000000)">
                <path d="M19.6196452,2.74417373 L16.3477941,2.74417373 L16.3477941,2.74417373 C16.4183824,1.26394774 16.3713235,0.122704802 16.3713235,0.122704802 C16.3713235,0.0662076271 16.3125,0.00971045198 16.2536765,0.00971045198 L3.67720588,0.00971045198 C3.61838235,0.00971045198 3.55955882,0.0549081921 3.55955882,0.122704802 C3.55955882,0.179201977 3.5125,1.27524718 3.58308824,2.74417373 L0.518382353,2.74417373 C0.242239978,2.74417373 0.0183823528,2.96803135 0.0183823528,3.24417373 L0.0183823528,4.00971045 L0.0183823528,4.00971045 C0.0183823528,4.04360876 0.0183823528,4.07750706 0.0301470587,4.1227048 C0.0536764704,5.55773305 0.311751128,6.95886299 0.93528054,8.25829802 C1.58233936,9.53513418 2.63014706,10.6424788 3.81838235,11.478637 C4.84191176,12.179202 5.98308824,12.698976 7.20661765,12.9814619 C7.60661765,13.4221398 8.77754324,14.04067 9.37962731,14.1423609 L9.22668614,15.0463157 C8.93942877,17.07849 7.54260651,18.2469706 5.03621936,18.5517577 C4.32763997,18.6379142 3.79485294,19.2394152 3.79485294,19.9532133 L3.79485294,19.9532133 L3.79485294,19.9532133 L16.1948529,19.9532133 C16.1948529,19.2496883 15.7009051,18.642829 15.0120274,18.5000184 C12.2624866,17.9299716 10.7982279,16.7787374 10.6192513,15.0463157 L10.4545455,14.1197621 C11.0092995,14.0394731 12.3595588,13.4108404 12.7477941,12.9814619 C13.9713235,12.698976 15.1360294,12.1905014 16.1595588,11.478637 C17.3595588,10.6424788 18.3242647,9.53513418 18.9595588,8.25829802 C19.7007353,6.61987994 20.0419118,4.84586864 19.9360294,3.06055791 C19.9360294,2.88582375 19.7943794,2.74417373 19.6196452,2.74417373 Z M1.77823153,7.6385498 C1.23705506,6.53120517 1.05398354,4.94631333 1.03045413,3.72597434 L3.68832081,3.72597434 C3.72361493,4.11015513 3.77132353,4.86846751 3.84191176,5.21875 C4.10100763,7.73473566 5.15697132,10.0132058 6.34094238,11.743497 C4.10100763,10.6916948 2.5076433,9.09617692 1.77823153,7.6385498 Z M12.5360294,5.4108404 L11.6066176,6.28089689 C11.5242647,6.35999294 11.4654412,6.52948446 11.4772059,6.64247881 L11.7007353,7.8628178 C11.7125,7.95321328 11.7007353,8.04360876 11.6536765,8.10010593 C11.6066176,8.14530367 11.5477941,8.17920198 11.4772059,8.17920198 C11.4301471,8.17920198 11.3713235,8.16790254 11.3125,8.13400424 L10.1713235,7.55773305 C10.1242647,7.53513418 10.0536765,7.51253531 9.97132353,7.51253531 C9.88897059,7.51253531 9.81838235,7.52383475 9.77132353,7.55773305 L8.63014706,8.13400424 C8.57132353,8.15660311 8.52426471,8.17920198 8.46544118,8.17920198 C8.39485294,8.17920198 8.33602941,8.15660311 8.28897059,8.10010593 C8.24191176,8.04360876 8.21838235,7.96451271 8.24191176,7.8628178 L8.46544118,6.64247881 C8.48897059,6.52948446 8.43014706,6.35999294 8.33602941,6.28089689 L7.43014706,5.4108404 C7.38308824,5.36564266 7.30073529,5.26394774 7.33602941,5.13965395 C7.37132353,5.01536017 7.50073529,4.98146186 7.57132353,4.97016243 L8.85367647,4.78937147 C8.97132353,4.77807203 9.12426471,4.66507768 9.18308824,4.56338277 L9.75955882,3.45603814 C9.79485294,3.38824153 9.86544118,3.28654661 9.99485294,3.28654661 C10.1242647,3.28654661 10.1948529,3.38824153 10.2301471,3.45603814 L10.8066176,4.56338277 C10.8654412,4.66507768 11.0066176,4.77807203 11.1360294,4.78937147 L12.4183824,4.97016243 C12.4889706,4.98146186 12.6183824,5.01536017 12.6536765,5.13965395 C12.6772059,5.26394774 12.5948529,5.36564266 12.5360294,5.4108404 L12.5360294,5.4108404 Z M18.1316584,7.80123624 C17.4022466,9.25886336 15.7811945,10.9585294 13.6869118,11.681574 C15.0523793,9.74642667 15.7125,7.39954096 16.0889706,5.21875 C16.1477941,4.84586864 16.2355966,4.08947848 16.2708907,3.71659712 L18.9918102,3.71659712 C19.1062789,4.9189897 18.6610701,6.69389161 18.1316584,7.80123624 Z" id="形状"></path>
            </g>
        </g>
    </g>
</svg>