<?xml version="1.0" encoding="UTF-8"?>
<svg width="25px" height="25px" viewBox="0 0 25 25" version="1.1" xmlns="http://www.w3.org/2000/svg" xmlns:xlink="http://www.w3.org/1999/xlink">
    <!-- Generator: Sketch 58 (84663) - https://sketch.com -->
    <title>mdpi/我的_点亮</title>
    <desc>Created with Sketch.</desc>
    <defs>
        <linearGradient x1="50%" y1="12.7996667%" x2="50%" y2="99.504756%" id="linearGradient-1">
            <stop stop-color="#C5A585" offset="0%"></stop>
            <stop stop-color="#FFE4C4" offset="67.7391258%"></stop>
            <stop stop-color="#C7A887" offset="90.374261%"></stop>
            <stop stop-color="#957A5F" offset="100%"></stop>
        </linearGradient>
        <linearGradient x1="50%" y1="-29.5238371%" x2="50%" y2="79.9711566%" id="linearGradient-2">
            <stop stop-color="#C5A585" offset="0%"></stop>
            <stop stop-color="#FFE4C4" offset="30.3684544%"></stop>
            <stop stop-color="#B99978" offset="100%"></stop>
        </linearGradient>
        <linearGradient x1="50%" y1="10.5172895%" x2="50%" y2="96.1928281%" id="linearGradient-3">
            <stop stop-color="#C5A585" offset="0%"></stop>
            <stop stop-color="#FFE4C4" offset="76.1243666%"></stop>
            <stop stop-color="#B99978" offset="100%"></stop>
        </linearGradient>
        <linearGradient x1="50%" y1="1.24313767%" x2="50%" y2="100%" id="linearGradient-4">
            <stop stop-color="#C5A585" offset="0%"></stop>
            <stop stop-color="#FFE4C4" offset="36.0087627%"></stop>
            <stop stop-color="#B99978" offset="100%"></stop>
        </linearGradient>
    </defs>
    <g id="页面-1" stroke="none" stroke-width="1" fill="none" fill-rule="evenodd">
        <g id="panda体育-首页" transform="translate(-190.000000, -737.000000)">
            <g id="我的_点亮" transform="translate(192.000000, 738.000000)">
                <g id="编组-2" transform="translate(0.000000, 0.000000)">
                    <path d="M6.0117333,12.1333333 L14.5641264,12.1333333 C17.1932509,12.1333333 19.4570351,13.9887253 19.9732852,16.5666667 L20.3579746,18.4876478 C20.5857105,19.6248671 19.8484284,20.7313819 18.7112091,20.9591177 C18.5754423,20.9863059 18.4373193,21 18.298857,21 L2.1,21 C0.940202025,21 2.68229883e-13,20.059798 2.68229883e-13,18.9 C2.68229883e-13,18.7242733 0.0220567008,18.5492415 0.0656529207,18.3790087 L0.586807755,16.3440231 C1.22135053,13.8662847 3.45403269,12.1333333 6.0117333,12.1333333 Z" id="路径" fill="url(#linearGradient-1)" fill-rule="nonzero"></path>
                    <path d="M5.88437453,12.2282715 C2.82946777,12.4230957 1.2177124,18.1956177 1.9395752,19.8985596 C2.29181511,20.7295265 17.6016224,20.7237652 18.255249,20.0715332 C19.456665,18.8726807 18.3803711,12.2282715 14.4367676,12.2282715 L5.88437453,12.2282715 Z" id="路径" fill="url(#linearGradient-2)" fill-rule="nonzero"></path>
                    <path d="M9.51702544,-1.33226763e-14 L10.7384881,-1.33226763e-14 C13.5735498,-1.33226763e-14 15.8718214,2.29827162 15.8718214,5.13333333 C15.8718214,5.16283251 15.8715672,5.19233114 15.8710586,5.22182593 L15.8242941,7.93416549 C15.7707109,11.0419923 13.2360455,13.5333333 10.1277568,13.5333333 C7.01946805,13.5333333 4.48480261,11.0419923 4.43121939,7.93416549 L4.38445492,5.22182593 C4.33558181,2.3871855 6.59389242,0.0496359213 9.42853284,0.000762810515 C9.45802764,0.000254279618 9.48752626,-1.33226763e-14 9.51702544,-1.33226763e-14 Z" id="路径" fill="url(#linearGradient-3)" fill-rule="nonzero"></path>
                    <path d="M9.20157771,0.341796875 L11.0725098,0.341796875 C13.2935433,0.341796875 15.1277489,2.63471995 15.1277489,4.93908046 C15.1277489,4.96305762 15.1275497,4.98703434 15.1271513,5.01100794 L15.0905153,7.21561891 C15.0485373,9.74168506 12.9711085,12.703125 10.1707398,12.703125 C7.37037099,12.703125 5.29295453,9.74168506 5.25097656,7.21561891 L5.21434051,5.01100794 C5.17605252,2.70698986 6.91154767,0.382141343 9.13225117,0.342416893 C9.15535787,0.342003555 9.17846757,0.341796875 9.20157771,0.341796875 Z" id="路径" fill="url(#linearGradient-4)" fill-rule="nonzero"></path>
                    <path d="M7.51351037,8.51538086 L12.8857521,8.51538086 C12.45264,10.1688639 11.5572664,10.9956055 10.1996312,10.9956055 C8.84199607,10.9956055 7.94662245,10.1688639 7.51351037,8.51538086 Z" id="矩形" fill="#FFFFFF"></path>
                </g>
            </g>
        </g>
    </g>
</svg>