<svg width="18" height="18" viewBox="0 0 18 18" fill="none" xmlns="http://www.w3.org/2000/svg">
<path fill-rule="evenodd" clip-rule="evenodd" d="M14.1 3.8C14.1 4.51797 13.518 5.1 12.8 5.1C12.082 5.1 11.5 4.51797 11.5 3.8C11.5 3.08203 12.082 2.5 12.8 2.5C13.518 2.5 14.1 3.08203 14.1 3.8ZM15.484 4.6C15.1398 5.7566 14.0684 6.6 12.8 6.6C11.5316 6.6 10.4602 5.7566 10.116 4.6H1.8C1.35817 4.6 1 4.24183 1 3.8C1 3.35817 1.35817 3 1.8 3H10.116C10.4602 1.8434 11.5316 1 12.8 1C14.0684 1 15.1398 1.8434 15.484 3H16.2C16.6418 3 17 3.35817 17 3.8C17 4.24183 16.6418 4.6 16.2 4.6H15.484Z" fill="#7981A4"/>
<path fill-rule="evenodd" clip-rule="evenodd" d="M14.1 14.8C14.1 15.518 13.518 16.1 12.8 16.1C12.082 16.1 11.5 15.518 11.5 14.8C11.5 14.082 12.082 13.5 12.8 13.5C13.518 13.5 14.1 14.082 14.1 14.8ZM15.484 15.6C15.1398 16.7566 14.0684 17.6 12.8 17.6C11.5316 17.6 10.4602 16.7566 10.116 15.6H1.8C1.35817 15.6 1 15.2418 1 14.8C1 14.3582 1.35817 14 1.8 14H10.116C10.4602 12.8434 11.5316 12 12.8 12C14.0684 12 15.1398 12.8434 15.484 14H16.2C16.6418 14 17 14.3582 17 14.8C17 15.2418 16.6418 15.6 16.2 15.6H15.484Z" fill="#7981A4"/>
<path fill-rule="evenodd" clip-rule="evenodd" d="M3.9 9.3C3.9 10.018 4.48203 10.6 5.2 10.6C5.91797 10.6 6.5 10.018 6.5 9.3C6.5 8.58203 5.91797 8 5.2 8C4.48203 8 3.9 8.58203 3.9 9.3ZM2.51595 10.1C2.86017 11.2566 3.93159 12.1 5.2 12.1C6.46841 12.1 7.53983 11.2566 7.88405 10.1H16.2C16.6418 10.1 17 9.74183 17 9.3C17 8.85817 16.6418 8.5 16.2 8.5H7.88405C7.53983 7.3434 6.46841 6.5 5.2 6.5C3.91939 6.5 2.83958 7.35971 2.50622 8.53347C2.5094 8.52228 2.51264 8.51113 2.51595 8.5H1.8C1.35817 8.5 1 8.85817 1 9.3C1 9.74183 1.35817 10.1 1.8 10.1H2.51595Z" fill="#7981A4"/>
</svg>
