<?xml version="1.0" encoding="UTF-8"?>
<svg width="246px" height="210px" viewBox="0 0 246 210" version="1.1" xmlns="http://www.w3.org/2000/svg" xmlns:xlink="http://www.w3.org/1999/xlink">
    <title>无数据、空数据@2x</title>
    <defs>
        <linearGradient x1="50.0000569%" y1="76.6915994%" x2="50.0000569%" y2="0.0132799837%" id="linearGradient-1">
            <stop stop-color="#414141" offset="0%"></stop>
            <stop stop-color="#363636" offset="100%"></stop>
        </linearGradient>
        <linearGradient x1="50.0000569%" y1="76.6915994%" x2="50.0000569%" y2="0.601856463%" id="linearGradient-2">
            <stop stop-color="#707070" offset="0%"></stop>
            <stop stop-color="#949494" offset="100%"></stop>
        </linearGradient>
        <linearGradient x1="100%" y1="50%" x2="11.2%" y2="88.8653061%" id="linearGradient-3">
            <stop stop-color="#FFFFFF" stop-opacity="0" offset="0%"></stop>
            <stop stop-color="#747F95" offset="100%"></stop>
        </linearGradient>
    </defs>
    <g id="页面-1" stroke="none" stroke-width="1" fill="none" fill-rule="evenodd">
        <g id="缺失页面" transform="translate(-200.000000, -147.000000)">
            <g id="无数据、空数据@2x" transform="translate(200.000000, 147.000000)">
                <path d="M10.8695652,175.714286 C4.86616848,175.714286 0,158.445536 0,137.142857 C0,115.840179 4.86616848,98.5714286 10.8695652,98.5714286 C10.8953804,98.5714286 18.8947011,98.82375 23.607337,94.5380357 C28.3199728,90.2523214 29.7214674,86.7776786 29.7214674,81.4296429 C29.7214674,63.0776786 39.6949728,50.0367857 48.9130435,47.5119643 C51.5686141,47.1433929 55.7065217,47.9501786 59.7826087,45.1794643 C63.8586957,42.40875 65.2173913,40.15875 65.2173913,36.4296429 C65.2173913,16.3108929 73.7336957,0.00107142857 84.2391304,0.00107142857 C94.7445652,0.00107142857 103.26087,16.3108929 103.26087,36.4296429 C103.26087,40.15875 102.807745,41.9625 106.883832,44.7332143 C110.959918,47.5039286 116.911005,47.1439286 119.565217,47.5119643 C128.783288,50.0373214 135.869565,65.22 135.869565,83.5719643 C135.944929,87.1760582 136.475862,90.765244 137.454484,94.28625 C137.454484,94.28625 140.501359,100.630179 144.92731,97.2326786 C149.353261,93.8351786 151.129755,89.2585714 151.890625,84.9803571 C154.053668,72.8158929 158.702446,64.2857143 163.043478,64.2857143 C167.472147,64.2857143 171.281929,73.1603571 172.992527,86.0175 C173.495924,89.8028571 174.487092,92.3083929 177.422554,95.4460714 C179.141171,97.2982284 181.822293,98.4452035 184.728261,98.5714286 L184.782609,98.5714286 C189.190217,98.5714286 192.984375,107.361964 194.712636,120.165 C195.05231,122.69625 195.379755,124.236429 198.313179,126.340179 C201.246603,128.443929 206.442935,128.571429 206.442935,128.571429 L206.521739,128.571429 C207.98913,128.571429 209.412364,129.535714 210.752717,131.434286 C212.335911,133.905091 213.497708,136.530178 214.20788,139.24125 C216.26087,146.120357 217.391304,155.26875 217.391304,165 C217.391304,168.651964 217.230299,172.256786 216.915761,175.714286 L10.8695652,175.714286 Z" id="形状" fill="url(#linearGradient-1)" fill-rule="nonzero"></path>
                <path d="M188.158288,175.714286 L109.150136,175.714286 C108.83356,172.257321 108.674592,168.653036 108.674592,165 C108.674592,155.269821 109.805027,146.121429 111.858016,139.24125 C112.568189,136.530178 113.729985,133.905091 115.313179,131.434286 C116.653533,129.535714 118.076766,128.571429 119.544158,128.571429 L119.622962,128.571429 C119.622962,128.571429 124.820652,128.441786 127.752717,126.339643 C130.684783,124.2375 131.013587,122.696786 131.353261,120.164464 C133.081522,107.361429 136.876359,98.5714286 141.283288,98.5714286 C142.052481,98.4522922 142.803826,98.2702365 143.525136,98.0282143 C144.057975,97.8428211 144.535805,97.5716688 144.927989,97.2321429 C149.35394,93.8346429 151.130435,89.2585714 151.891304,84.9798214 C154.055027,72.8164286 158.703125,64.2857143 163.044158,64.2857143 C167.472147,64.2857143 171.281929,73.1603571 172.992527,86.0180357 C173.496603,89.8028571 174.487092,92.3083929 177.422554,95.4466071 C179.141309,97.2985619 181.82241,98.4453313 184.728261,98.5714286 L184.783288,98.5714286 C189.190217,98.5714286 192.985054,107.361964 194.713315,120.164464 C195.052989,122.695714 195.381114,124.235893 198.313859,126.339643 C201.246603,128.443393 206.442935,128.571429 206.442935,128.571429 L206.521739,128.571429 C207.98913,128.571429 209.412364,129.535714 210.752717,131.434286 C212.335911,133.905091 213.497708,136.530178 214.20788,139.24125 C216.26087,146.121964 217.391304,155.270357 217.391304,165 C217.391304,168.6525 217.230299,172.256786 216.915761,175.714286 L188.158288,175.714286 Z" id="形状" fill="url(#linearGradient-2)" fill-rule="nonzero"></path>
                <path d="M65.2173913,184.285714 C57.8546196,182.09625 54.1440217,184.285714 43.4782609,184.285714 C25.46875,184.285714 10.8695652,179.488929 10.8695652,173.571429 C10.8695652,167.653929 25.46875,162.857143 43.4782609,162.857143 L217.391304,162.857143 C223.394399,162.857143 228.26087,166.694702 228.26087,171.428571 C228.26087,176.162441 223.394399,180 217.391304,180 C217.391304,180 206.861413,180 198.709239,181.607143 C190.557065,183.214286 184.782609,187.8825 184.782609,187.8825 C184.782609,187.8825 159.233696,210 127.717391,210 C101.874321,210 80.0434783,202.903929 72.9300272,193.043036 C71.4802989,191.035714 72.580163,186.475179 65.2173913,184.285714 Z" id="路径" fill="#414141" fill-rule="nonzero"></path>
                <path d="M244.565217,47.1428571 C244.565217,47.1428571 206.280571,71.59875 201.086957,55.7142857 C195.893342,39.8298214 251.528533,46.2053571 190.217391,94.2857143" id="路径" stroke="#A7A7A7" stroke-width="2" stroke-linecap="round" stroke-dasharray="10"></path>
                <path d="M176.630435,99.7955357 C178.77038,98.2151786 184.782609,98.6169643 184.782609,98.6169643 C184.782609,98.6169643 183.763587,100.759821 183.016304,102.902679 C182.269022,105.045536 182.858696,106.085893 181.793478,107.188393 C179.076087,110.000893 173.913043,109.866964 173.913043,109.866964 C173.913043,109.866964 174.422554,108.045536 175.271739,105.58125 C176.120924,103.116964 174.490489,101.375893 176.630435,99.7955357 Z" id="路径" fill="#A7A7A7" fill-rule="nonzero"></path>
                <ellipse id="椭圆形" fill="url(#linearGradient-3)" fill-rule="nonzero" cx="76.7663043" cy="199.285714" rx="6.79347826" ry="2.14285714"></ellipse>
                <path d="M155.719695,158.304348 C155.719695,158.304348 160.067017,154.228261 159.437553,151.51087 C158.808088,148.793478 157.364338,148.538723 156.434874,146.161005 C155.889625,144.888316 155.641552,143.444993 155.719695,142 C155.719695,142 152.144874,143.783288 152.001838,148.368886 C151.937553,150.436821 153.574695,151.744565 154.50416,154.228261 C155.0145,155.532714 155.421668,156.898078 155.719695,158.304348 Z" id="路径" fill="#A7A7A7" fill-rule="nonzero" transform="translate(155.749930, 150.152174) rotate(-90.000000) translate(-155.749930, -150.152174) "></path>
                <polygon id="路径" fill="#8F8F8F" fill-rule="nonzero" points="0 150 38.7228261 152.410714 92.3913043 150 113.790761 156.428571 125.339674 161.785714 100.203804 166.339286 83.5597826 163.660714 44.1576087 166.339286 2.7173913 162.321429"></polygon>
                <path d="M91.0882353,145.6 C91.3643777,145.6 91.5882353,145.823858 91.5882353,146.1 L91.5882353,149.5 C91.5882353,149.776142 91.3643777,150 91.0882353,150 L52.9117647,150 C52.6356223,150 52.4117647,149.776142 52.4117647,149.5 L52.4117647,146.1 C52.4117647,145.823858 52.6356223,145.6 52.9117647,145.6 L91.0882353,145.6 Z M99,84 C104.522847,84 109,88.4771525 109,94 L109,131.2 C109,136.722847 104.522847,141.2 99,141.2 L45,141.2 C39.4771525,141.2 35,136.722847 35,131.2 L35,94 C35,88.4771525 39.4771525,84 45,84 L99,84 Z M64.5570315,96.5 C62.8686796,96.5 61.5,97.8539296 61.5,99.5240864 L61.5,99.5240864 L61.5,125.475515 C61.5,126.044537 61.6622913,126.602014 61.9682242,127.083883 C62.8661784,128.498234 64.7531627,128.9247 66.1829215,128.036423 L66.1829215,128.036423 L87.0684556,115.060709 C87.4577442,114.818853 87.7868818,114.493262 88.031373,114.108169 C88.9293272,112.693818 88.4982144,110.82717 87.0684556,109.938893 L87.0684556,109.938893 L66.1829215,96.9631782 C65.695803,96.6605424 65.1322527,96.5 64.5570315,96.5 Z M65.8671879,101.868502 L82.9791828,112.499801 L65.8671879,123.1311 L65.8671879,101.868502 Z" id="视频备份" fill="#8E8E8E" fill-rule="nonzero"></path>
                <path d="M2.44565217,161.892857 L44.1576087,166.071429 L84.0692935,163.258929 L100.543478,166.071429 L125,161.25 L125,174.375 L101.494565,176.785714 L90.4891304,172.901786 L68.3423913,173.571429 L64.8777174,174.375 L49.048913,172.901786 L6.79347826,173.705357 C6.79347826,173.705357 5.29891304,170.203393 4.21195652,167.25 C3.125,164.296607 2.44565217,161.892857 2.44565217,161.892857 Z" id="路径" fill="#787878" fill-rule="nonzero"></path>
                <polygon id="路径" fill="#303030" fill-rule="nonzero" points="126.358696 197.053393 138.586957 191.964107 140.398777 194.106964 140.398777 198.499821 135.190217 201.428571 131.906929 198.499286 126.358696 199.109464"></polygon>
                <polygon id="路径" fill="#8E8E8E" fill-rule="nonzero" points="129.076087 193.482321 138.586957 191.785714 138.586957 197.142857 135.190217 198.839464 131.906929 196.696607 126.358696 197.142857"></polygon>
                <polygon id="路径" fill="#303030" fill-rule="nonzero" transform="translate(147.435058, 180.803732) rotate(0.973934) translate(-147.435058, -180.803732) " points="141.853385 179.426861 152.884039 175.693785 153.016732 183.252184 151.58951 185.746753 141.967181 185.913679"></polygon>
                <polygon id="路径" fill="#8E8E8E" fill-rule="nonzero" points="148.607337 175.714286 152.853261 175.714286 150.305707 179.464286 141.983696 179.464286"></polygon>
                <g id="编组" transform="translate(173.233696, 104.607143)" fill-rule="nonzero">
                    <polygon id="路径" fill="#8F8F8F" points="65.8967391 47 43.4259511 49.4107143 16.5190217 47 5.79008152 53.4285714 0 58.7857143 12.6019022 63.3392857 20.9463315 60.6607143 40.701087 63.3392857 56.6576087 60.6607143 61.0509511 54.1646429"></polygon>
                    <ellipse id="椭圆形" fill="#303030" opacity="0.5" cx="38.7663043" cy="53.4642857" rx="27" ry="5"></ellipse>
                    <g id="路径" transform="translate(32.027174, 28.392857) scale(-1, 1) translate(-32.027174, -28.392857) translate(11.527174, 0.392857)">
                        <g id="编组" transform="translate(27.506793, 23.866071)">
                            <path d="M0.529891304,0 C2.59896559,1.58428586 4.23671069,3.48459193 5.34307065,5.58482143 C7.22622283,9.12053571 9.33559783,12.795 11.0400815,13.5026786 C12.7445652,14.2103571 13.5502717,18.8775 5.56929348,17.8875 C-2.41168478,16.8975 0.529891304,0 0.529891304,0 Z" id="路径" fill="#CDCDCD"></path>
                            <path d="M1.17595109,1.425 C3.81554987,4.01470245 5.45519382,7.1483059 5.89945652,10.4523214 C6.47486413,15.0744643 7.8919837,17.5944643 9.39877717,17.4251786 C8.06030315,17.6775794 6.66456052,17.6729865 5.32880435,17.4117857 C2.94089674,16.9982143 0.211277174,1.485 1.17595109,1.425 Z" id="路径" fill="#A7A7A7"></path>
                        </g>
                        <path d="M27.2262228,51.4928571 C30.3414352,52.2110662 33.6121546,52.409929 36.830163,52.0767857 C41.517663,51.5544643 42.7588315,44.7123214 36.390625,44.0094643 C31.4538043,43.4630357 32.296875,37.4914286 31.3865489,31.9917857 C30.4762228,26.4921429 26.9300272,21.8946429 26.3838315,19.6564286 C25.8376359,17.4182143 29.2717391,14.7101786 28.8389946,9.98035714 C28.3960598,5.12410714 24.5591033,4.36660714 23.1956522,4.58357143 C21.8322011,4.80053571 20.7438859,5.865 19.0149457,6.4425 C17.2860054,7.02 14.7404891,6.08196429 11.4660326,7.30982143 C8.19157609,8.53767857 5.09578804,11.3528571 5.09578804,11.3528571 C3.73097826,12.7248214 5.36752717,17.0571429 4.45855978,19.2230357 C3.54959239,21.3889286 -0.0889945652,40.2353571 0.00203804348,45.50625 C0.0930706522,50.7771429 4.36752717,54.4607143 13.5563859,55.3992857 C22.7452446,56.3378571 26.7486413,55.0746429 27.0455163,53.0164286 C27.2350543,51.7076786 28.3396739,47.0951786 21.7466033,46.30125 C18.4653533,45.9048214 16.7445652,45.5796429 16.7445652,45.5796429" fill="#CDCDCD"></path>
                        <path d="M22.3118207,5.43642857 C22.3118207,5.43642857 22.9646739,4.59107143 23.484375,4.5825 C24.3763587,4.56857143 25.3186141,5.45625 25.3186141,5.45625 C25.3186141,5.45625 22.3410326,6.38464286 22.3118207,5.43642857 Z" fill="#A7A7A7"></path>
                        <path d="M23.5142663,0.0391071429 C22.1188859,-0.248035714 21.966712,1.15607143 21.966712,1.15607143 C21.966712,1.15607143 20.0033967,0.988392857 20.2004076,2.08982143 C20.4429348,3.46446429 24.1616848,3.39857143 24.1616848,3.39857143 C24.1616848,3.39857143 25.216712,0.390535714 23.5142663,0.0391071429 Z" fill="#A7A7A7"></path>
                        <path d="M5.74116848,12.2946429 C5.74116848,12.2946429 1.60529891,11.5778571 1.15217391,14.0721429 C0.699048913,16.5664286 3.99252717,18.0948214 6.35326087,14.3935714" fill="#A7A7A7"></path>
                        <path d="M5.83084239,30.6696429 C5.83084239,30.6696429 4.84578804,40.2589286 6.578125,42.6616071 C8.140625,44.8280357 13.8213315,45.4141071 17.9605978,45.1419643 C19.3518109,45.0524781 20.723766,44.8282925 22.0455163,44.4744643 C26.1677989,43.3189286 23.96875,41.1530357 22.0455163,39.7103571 C20.1222826,38.2676786 19.5061141,34.1678571 16.2078804,31.9425" fill="#A7A7A7"></path>
                        <path d="M15.2241848,8.95821429 C15.0765637,8.9588481 14.9409143,9.02237387 14.8695652,9.12428571 L14.8695652,9.12428571 L14.8634511,9.13178571 C14.3939334,9.77624533 13.5946519,10.2296328 12.6705163,10.3757143 L12.6576087,10.3757143 L12.6576087,10.3757143 C12.4802323,10.3953874 12.3399285,10.5040707 12.3118207,10.6435714 L12.3043478,10.6435714 L12.0285326,11.2210714 C12.0285326,11.2210714 12.2601902,11.2135714 12.6005435,11.1739286 L12.6392663,11.0094643 L12.7139946,10.6966071 L12.7139946,11.16 C12.841712,11.1433929 12.9782609,11.1208929 13.1216033,11.0951786 L13.1216033,10.695 L13.1650815,10.9382143 L13.1902174,11.0817857 C13.7844022,10.9833101 14.3401433,10.7742913 14.8111413,10.4721429 C15.1946877,10.1851432 15.4662213,9.81767589 15.59375,9.41303571 C15.6209239,9.33 15.630436,9.28017857 15.630436,9.28017857 C15.6308108,9.10286702 15.4490354,8.95880508 15.2241848,8.95821429 Z" fill="#A7A7A7"></path>
                        <path d="M29.4157609,31.5583929 C26.9701087,29.6796429 24.8192935,31.8557143 24.8192935,31.8557143 C24.8192935,31.8557143 20.607337,29.2371429 19.044837,31.995 C17.0903533,35.4353571 27.0618207,40.9907143 27.0618207,40.9907143 C27.0618207,40.9907143 31.9184783,33.4810714 29.4157609,31.5583929 Z" fill="#A7A7A7"></path>
                        <path d="M5.85733696,30.3294643 C5.85733696,30.3294643 9.26766304,38.5119643 11.0006793,40.9151786 C13.1990489,43.9623214 17.4327446,45.4741071 21.5529891,44.3196429 C25.6732337,43.1651786 23.4762228,41.35875 21.5529891,39.9144643 C19.6297554,38.4701786 18.7853261,33.5994643 15.4870924,31.3735714" fill="#CDCDCD"></path>
                    </g>
                    <path d="M56.9293478,59.825 L37.8396739,61.9383929 L19.5794837,60.5176786 L12.0387228,61.94 L0,58.7857143 L0,66.1378571 L11.6052989,67.3571429 L16.6419837,65.3926786 L26.7758152,65.73125 L28.361413,66.1378571 L35.6046196,65.3926786 L55.2995924,66.1378571 C55.2995924,66.1378571 54.3485054,65.1853571 55.2995924,63.6071429 C55.9775986,62.3850712 56.5228083,61.1198133 56.9293478,59.825 L56.9293478,59.825 Z" id="路径" fill="#787878"></path>
                </g>
            </g>
        </g>
    </g>
</svg>