<?xml version="1.0" encoding="UTF-8"?>
<svg width="250px" height="210px" viewBox="0 0 250 210" version="1.1" xmlns="http://www.w3.org/2000/svg" xmlns:xlink="http://www.w3.org/1999/xlink">
    <title>暂无收藏@2x</title>
    <defs>
        <linearGradient x1="0.00315881837%" y1="50.0029946%" x2="98.4761608%" y2="50.0029946%" id="linearGradient-1">
            <stop stop-color="#CECECE" offset="0%"></stop>
            <stop stop-color="#E0E0E0" offset="100%"></stop>
        </linearGradient>
        <linearGradient x1="0.00315881837%" y1="50.0029946%" x2="98.4761608%" y2="50.0029946%" id="linearGradient-2">
            <stop stop-color="#CECECE" offset="0%"></stop>
            <stop stop-color="#E0E0E0" offset="100%"></stop>
        </linearGradient>
        <linearGradient x1="50.0000569%" y1="76.6915994%" x2="50.0000569%" y2="0.0132799837%" id="linearGradient-3">
            <stop stop-color="#F5F5F5" offset="0%"></stop>
            <stop stop-color="#CACACA" offset="100%"></stop>
        </linearGradient>
        <linearGradient x1="50.0000569%" y1="76.6915994%" x2="50.0000569%" y2="0.0132799837%" id="linearGradient-4">
            <stop stop-color="#F5F5F5" offset="0%"></stop>
            <stop stop-color="#CACACA" offset="100%"></stop>
        </linearGradient>
        <linearGradient x1="50%" y1="0%" x2="50%" y2="100%" id="linearGradient-5">
            <stop stop-color="#414141" offset="0%"></stop>
            <stop stop-color="#707070" offset="100%"></stop>
        </linearGradient>
        <linearGradient x1="50%" y1="0%" x2="50%" y2="100%" id="linearGradient-6">
            <stop stop-color="#414141" offset="0%"></stop>
            <stop stop-color="#707070" offset="100%"></stop>
        </linearGradient>
        <linearGradient x1="51.5966474%" y1="29.3076404%" x2="60.5356485%" y2="57.8569759%" id="linearGradient-7">
            <stop stop-color="#868686" stop-opacity="0.994973776" offset="0%"></stop>
            <stop stop-color="#313131" stop-opacity="0" offset="100%"></stop>
        </linearGradient>
        <linearGradient x1="50.0000569%" y1="76.6915994%" x2="50.0000569%" y2="0.0132799837%" id="linearGradient-8">
            <stop stop-color="#565656" stop-opacity="0" offset="0%"></stop>
            <stop stop-color="#2C2C2C" offset="100%"></stop>
        </linearGradient>
        <linearGradient x1="50%" y1="0%" x2="50%" y2="100%" id="linearGradient-9">
            <stop stop-color="#2A3040" offset="0%"></stop>
            <stop stop-color="#111111" offset="100%"></stop>
        </linearGradient>
        <linearGradient x1="50%" y1="0%" x2="50%" y2="100%" id="linearGradient-10">
            <stop stop-color="#2A3040" offset="0%"></stop>
            <stop stop-color="#111111" offset="100%"></stop>
        </linearGradient>
        <linearGradient x1="50%" y1="0%" x2="50%" y2="100%" id="linearGradient-11">
            <stop stop-color="#2A3040" offset="0%"></stop>
            <stop stop-color="#111111" offset="100%"></stop>
        </linearGradient>
        <linearGradient x1="0.00315881837%" y1="50.0029946%" x2="98.4761608%" y2="50.0029946%" id="linearGradient-12">
            <stop stop-color="#D1D1D1" offset="0%"></stop>
            <stop stop-color="#B1AFAF" offset="100%"></stop>
        </linearGradient>
        <linearGradient x1="0.00315881837%" y1="50.0029946%" x2="98.4761608%" y2="50.0029946%" id="linearGradient-13">
            <stop stop-color="#D1D1D1" offset="0%"></stop>
            <stop stop-color="#B1AFAF" offset="100%"></stop>
        </linearGradient>
        <linearGradient x1="50%" y1="0%" x2="50%" y2="100%" id="linearGradient-14">
            <stop stop-color="#5B5B5B" offset="0%"></stop>
            <stop stop-color="#9D9D9D" offset="100%"></stop>
        </linearGradient>
    </defs>
    <g id="页面-1" stroke="none" stroke-width="1" fill="none" fill-rule="evenodd">
        <g id="缺失页面" transform="translate(-622.000000, -147.000000)" fill-rule="nonzero">
            <g id="暂无收藏@2x" transform="translate(622.000000, 147.000000)">
                <g id="背景_24_">
                    <path d="M83.7786003,65.4919029 L83.7786003,64.3815395 L73.8526245,64.3815395 L73.8526245,65.6709938 L71.6722746,65.6709938 L71.6722746,95.8982764 L86.1574697,95.8982764 L86.1574697,65.4919029 L83.7786003,65.4919029 L83.7786003,65.4919029 Z M84.9024226,92.4304259 L72.7759085,92.4304259 L72.7759085,91.5349716 L84.9024226,91.5349716 L84.9024226,92.4304259 Z M84.9024226,88.3048235 L72.7759085,88.3048235 L72.7759085,87.4093692 L84.9024226,87.4093692 L84.9024226,88.3048235 Z M84.9024226,84.1759649 L72.7759085,84.1759649 L72.7759085,83.2805106 L84.9024226,83.2805106 L84.9024226,84.1759649 Z M84.9024226,80.157817 L72.7759085,80.157817 L72.7759085,79.2623627 L84.9024226,79.2623627 L84.9024226,80.157817 Z M84.9024226,76.1461816 L72.7759085,76.1461816 L72.7759085,75.2507272 L84.9024226,75.2507272 L84.9024226,76.1461816 Z M84.9024226,72.0205792 L72.7759085,72.0205792 L72.7759085,71.1251248 L84.9024226,71.1251248 L84.9024226,72.0205792 Z M84.9024226,67.9991751 L72.7759085,67.9991751 L72.7759085,67.1037207 L84.9024226,67.1037207 L84.9024226,67.9991751 Z" id="形状" fill="#606060"></path>
                    <path d="M64.2664872,82.3622628 L64.2664872,47.1334607 L53.2469717,47.1334607 L53.2469717,44.287544 L48.5834455,44.287544 L48.5834455,61.6528459 L47.3283984,61.6528459 L47.3283984,114.780966 L67.0154778,114.780966 L67.0154778,82.3622628 L64.2664872,82.3622628 Z M56.026245,92.7202275 L53.2469717,92.7202275 L53.2469717,90.1120132 L56.026245,90.1120132 L56.026245,92.7202275 Z M56.026245,88.6402119 L53.2469717,88.6402119 L53.2469717,86.0319976 L56.026245,86.0319976 L56.026245,88.6402119 Z M56.026245,84.5764772 L53.2469717,84.5764772 L53.2469717,81.9682629 L56.026245,81.9682629 L56.026245,84.5764772 Z M56.026245,80.5290236 L53.2469717,80.5290236 L53.2469717,77.9208093 L56.026245,77.9208093 L56.026245,80.5290236 Z M56.026245,76.4457517 L53.2469717,76.4457517 L53.2469717,73.8375374 L56.026245,73.8375374 L56.026245,76.4457517 Z M56.026245,68.3052577 L53.2469717,68.3052577 L53.2469717,65.6970434 L56.026245,65.6970434 L56.026245,68.3052577 Z M56.026245,64.225242 L53.2469717,64.225242 L53.2469717,61.6170277 L56.026245,61.6170277 L56.026245,64.225242 Z M56.026245,60.1647636 L53.2469717,60.1647636 L53.2469717,57.5565493 L56.026245,57.5565493 L56.026245,60.1647636 Z M56.026245,56.1140537 L53.2469717,56.1140537 L53.2469717,53.5058394 L56.026245,53.5058394 L56.026245,56.1140537 Z M56.026245,52.0340381 L53.2469717,52.0340381 L53.2469717,49.4258238 L56.026245,49.4258238 L56.026245,52.0340381 Z M60.1816958,92.7202275 L57.4024226,92.7202275 L57.4024226,90.1120132 L60.1816958,90.1120132 L60.1816958,92.7202275 Z M60.1816958,88.6402119 L57.4024226,88.6402119 L57.4024226,86.0319976 L60.1816958,86.0319976 L60.1816958,88.6402119 Z M60.1816958,84.5764772 L57.4024226,84.5764772 L57.4024226,81.9682629 L60.1816958,81.9682629 L60.1816958,84.5764772 Z M60.1816958,80.5290236 L57.4024226,80.5290236 L57.4024226,77.9208093 L60.1816958,77.9208093 L60.1816958,80.5290236 Z M60.1816958,76.4457517 L57.4024226,76.4457517 L57.4024226,73.8375374 L60.1816958,73.8375374 L60.1816958,76.4457517 Z M60.1816958,68.3052577 L57.4024226,68.3052577 L57.4024226,65.6970434 L60.1816958,65.6970434 L60.1816958,68.3052577 Z M60.1816958,64.225242 L57.4024226,64.225242 L57.4024226,61.6170277 L60.1816958,61.6170277 L60.1816958,64.225242 Z M60.1816958,60.1647636 L57.4024226,60.1647636 L57.4024226,57.5565493 L60.1816958,57.5565493 L60.1816958,60.1647636 Z M60.1816958,56.1140537 L57.4024226,56.1140537 L57.4024226,53.5058394 L60.1816958,53.5058394 L60.1816958,56.1140537 Z M60.1816958,52.0340381 L57.4024226,52.0340381 L57.4024226,49.4258238 L60.1816958,49.4258238 L60.1816958,52.0340381 Z" id="形状" fill="url(#linearGradient-1)" opacity="0.6"></path>
                    <path d="M172.715343,100.883515 C172.836474,99.3693831 172.715343,49.9305345 172.715343,49.9305345 L178.950202,49.9305345 L178.950202,60.9071767 L188.876178,60.9071767 L188.876178,83.847089 L194.505384,83.847089 L194.505384,100.883515 L172.715343,100.883515 Z" id="路径" fill="#606060"></path>
                    <path d="M213.502692,78.6957843 L213.502692,77.1165285 L211.820323,77.1165285 L211.820323,63.3330439 L207.715343,63.3330439 L207.715343,61.802631 L204.946164,61.802631 L204.946164,59.5525984 L203.502692,59.5525984 L203.502692,52.9946164 L202.462988,52.9946164 L202.462988,59.5981852 L201.137281,59.5981852 L201.137281,61.8482178 L197.032301,61.8482178 L197.032301,65.5342335 L194.660162,65.5342335 L194.660162,108.265315 L214.639973,108.265315 L214.639973,78.6925281 L213.502692,78.6925281 L213.502692,78.6957843 Z M198.189771,95.8819954 L196.837147,95.8819954 L196.837147,90.9195502 L198.189771,90.9195502 L198.189771,95.8819954 Z M198.189771,89.8091868 L196.837147,89.8091868 L196.837147,84.8467416 L198.189771,84.8467416 L198.189771,89.8091868 Z M198.189771,83.7363782 L196.837147,83.7363782 L196.837147,78.7739331 L198.189771,78.7739331 L198.189771,83.7363782 Z M198.189771,77.5528589 L196.837147,77.5528589 L196.837147,72.5904138 L198.189771,72.5904138 L198.189771,77.5528589 Z M198.189771,71.3725958 L196.837147,71.3725958 L196.837147,66.4101507 L198.189771,66.4101507 L198.189771,71.3725958 Z M200.972409,95.8819954 L199.619785,95.8819954 L199.619785,90.9195502 L200.972409,90.9195502 L200.972409,95.8819954 Z M200.972409,89.8091868 L199.619785,89.8091868 L199.619785,84.8467416 L200.972409,84.8467416 L200.972409,89.8091868 Z M200.972409,83.7363782 L199.619785,83.7363782 L199.619785,78.7739331 L200.972409,78.7739331 L200.972409,83.7363782 Z M200.972409,77.5528589 L199.619785,77.5528589 L199.619785,72.5904138 L200.972409,72.5904138 L200.972409,77.5528589 Z M200.972409,71.3725958 L199.619785,71.3725958 L199.619785,66.4101507 L200.972409,66.4101507 L200.972409,71.3725958 Z M203.758412,95.8819954 L202.405787,95.8819954 L202.405787,90.9195502 L203.758412,90.9195502 L203.758412,95.8819954 Z M203.758412,89.8091868 L202.405787,89.8091868 L202.405787,84.8467416 L203.758412,84.8467416 L203.758412,89.8091868 Z M203.758412,83.7363782 L202.405787,83.7363782 L202.405787,78.7739331 L203.758412,78.7739331 L203.758412,83.7363782 Z M203.758412,77.5528589 L202.405787,77.5528589 L202.405787,72.5904138 L203.758412,72.5904138 L203.758412,77.5528589 Z M203.758412,71.3725958 L202.405787,71.3725958 L202.405787,66.4101507 L203.758412,66.4101507 L203.758412,71.3725958 Z M206.544415,95.8819954 L205.19179,95.8819954 L205.19179,90.9195502 L206.544415,90.9195502 L206.544415,95.8819954 Z M206.544415,89.8091868 L205.19179,89.8091868 L205.19179,84.8467416 L206.544415,84.8467416 L206.544415,89.8091868 Z M206.544415,83.7363782 L205.19179,83.7363782 L205.19179,78.7739331 L206.544415,78.7739331 L206.544415,83.7363782 Z M206.544415,77.5528589 L205.19179,77.5528589 L205.19179,72.5904138 L206.544415,72.5904138 L206.544415,77.5528589 Z M206.544415,71.3725958 L205.19179,71.3725958 L205.19179,66.4101507 L206.544415,66.4101507 L206.544415,71.3725958 Z M209.330417,95.8819954 L207.977793,95.8819954 L207.977793,90.9195502 L209.330417,90.9195502 L209.330417,95.8819954 Z M209.330417,89.8091868 L207.977793,89.8091868 L207.977793,84.8467416 L209.330417,84.8467416 L209.330417,89.8091868 Z M209.330417,83.7363782 L207.977793,83.7363782 L207.977793,78.7739331 L209.330417,78.7739331 L209.330417,83.7363782 Z M209.330417,77.5528589 L207.977793,77.5528589 L207.977793,72.5904138 L209.330417,72.5904138 L209.330417,77.5528589 Z M209.330417,71.3725958 L207.977793,71.3725958 L207.977793,66.4101507 L209.330417,66.4101507 L209.330417,71.3725958 Z" id="形状" fill="url(#linearGradient-2)" opacity="0.6"></path>
                    <polygon id="路径" fill="url(#linearGradient-3)" opacity="0.298711868" points="24.5222073 121.967395 24.5222073 92.811401 27.974428 92.811401 27.974428 77.9305779 39.8384926 72.9583641 39.8384926 92.5769548 42.4394347 92.5769548 42.4394347 121.967395"></polygon>
                    <polygon id="路径" fill="url(#linearGradient-4)" opacity="0.298711868" points="228.01144 116.55885 217.600942 116.55885 217.600942 76.4652889 228.01144 81.3398168"></polygon>
                    <path d="M22.7792732,19.9116485 C22.7792732,19.9116485 25.9219381,11.6148569 33.6473755,14.8710546 C35.4306864,13.1192202 37.6379542,11.846047 40.6224764,12.4191378 C43.6069987,12.9922285 45.5316285,15.1576 46.1843876,16.5968393 C47.1197847,16.5545087 54.6096904,16.7954674 54.6096904,24.3140277 C54.6096904,31.832588 45.5450875,31.6893153 44.8889637,31.0934312 C44.0814266,31.7902575 40.1985195,35.5707029 35.4878869,31.256241 C34.4683715,32.0995962 31.1372813,35.671645 25.871467,30.7417618 C23.4320323,31.7283897 17.6345895,32.4870837 16.5107672,26.6943082 C15.3869448,20.9047888 21.1507402,19.2701776 22.7792732,19.9116485 Z" id="路径" fill="url(#linearGradient-5)"></path>
                    <path d="M196.759758,7.92232883 C196.759758,7.92232883 199.902423,-0.374462727 207.62786,2.8817349 C209.411171,1.12990058 211.618439,-0.143272696 214.602961,0.429818087 C217.587483,1.00616507 219.512113,3.16828029 220.164872,4.60751965 C221.100269,4.56518908 228.590175,4.8061477 228.590175,12.324708 C228.590175,19.8432684 219.525572,19.6999957 218.869448,19.1041115 C218.061911,19.8009378 214.179004,23.5813832 209.468371,19.2669214 C208.448856,20.1102766 205.117766,23.6823254 199.851952,18.7524421 C197.412517,19.73907 191.615074,20.4977641 190.491252,14.7049885 C189.367429,8.91546911 195.131225,7.2808579 196.759758,7.92232883 Z" id="路径" fill="url(#linearGradient-5)"></path>
                    <path d="M156.60498,25.6783745 C156.60498,25.6783745 158.879542,19.6706899 164.471736,22.0314332 C165.763795,20.7615161 167.358681,19.8400122 169.522207,20.2568055 C171.682369,20.6735987 173.07537,22.2398298 173.546433,23.2785569 C174.222746,23.2492511 179.646703,23.4218295 179.646703,28.8629358 C179.646703,34.304042 173.085464,34.1998437 172.611036,33.7700256 C172.025572,34.2747362 169.216016,37.0099423 165.804172,33.8905049 C165.067295,34.4994139 162.654778,37.088091 158.845895,33.5192984 C157.079408,34.2324057 152.88358,34.7827031 152.069314,30.5887205 C151.251682,26.3979942 155.427322,25.2127382 156.60498,25.6783745 Z" id="路径" fill="url(#linearGradient-6)"></path>
                    <ellipse id="椭圆形" fill="#303030" cx="124.862046" cy="151.735553" rx="124.825034" ry="57.3286155"></ellipse>
                    <polygon id="路径" fill="url(#linearGradient-7)" opacity="0.5" points="178.250336 120.90913 229.973082 166.000955 130.097577 195.990535 87.3048452 126.44141 128.758412 115.083793"></polygon>
                    <path d="M152.257739,35.2841575 L161.15074,52.7210958 C162.489906,55.3488473 165.080754,57.1690618 168.078735,57.5923675 L187.964334,60.3894412 C195.51144,61.4509617 198.52288,70.4250423 193.061911,75.5730908 L178.674293,89.1449225 C176.507402,91.1898146 175.51817,94.1366735 176.02961,97.0249208 L179.42463,116.1909 C180.713324,123.461989 172.82638,129.01055 166.076716,125.575262 L148.290713,116.526288 C145.612382,115.161942 142.409152,115.161942 139.727456,116.526288 L121.941454,125.575262 C115.19179,129.007294 107.304845,123.461989 108.59354,116.1909 L111.98856,97.0249208 C112.5,94.1366735 111.510767,91.1898146 109.343876,89.1449225 L94.9562584,75.5730908 C89.4952894,70.4217861 92.5100942,61.4477055 100.053836,60.3894412 L119.939435,57.5923675 C122.937416,57.172318 125.524899,55.3488473 126.867429,52.7210958 L135.760431,35.2841575 C139.131898,28.6675639 148.882907,28.6675639 152.257739,35.2841575 Z" id="路径" fill="#414141"></path>
                    <path d="M129.518843,39.0255286 L138.411844,56.4624669 C139.751009,59.0902184 142.341857,60.9104329 145.339838,61.3337385 L165.225437,64.1308123 C172.772544,65.1923327 175.783984,74.1664134 170.323015,79.3144619 L155.935397,92.8862936 C153.768506,94.9311857 152.779273,97.8780445 153.290713,100.766292 L156.685734,119.932271 C157.974428,127.20336 150.087483,132.751921 143.33782,129.316633 L125.551817,120.267659 C122.873486,118.903313 119.670256,118.903313 116.98856,120.267659 L99.2025572,129.316633 C92.4528937,132.748665 84.5659489,127.20336 85.8546433,119.932271 L89.2496635,100.766292 C89.7611036,97.8780445 88.7718708,94.9311857 86.6049798,92.8862936 L72.217362,79.3144619 C66.756393,74.1631572 69.7711978,65.1890765 77.3149394,64.1308123 L97.2005384,61.3337385 C100.19852,60.9136891 102.786003,59.0902184 104.128533,56.4624669 L113.021534,39.0255286 C116.393001,32.408935 126.144011,32.408935 129.518843,39.0255286 Z" id="路径" fill="#707070"></path>
                </g>
                <g id="树苗_24_" transform="translate(30.282638, 81.079321)">
                    <g id="编组" transform="translate(0.000000, 12.699171)">
                        <path d="M11.7530283,45.111362 C11.7530283,45.111362 10.5652759,46.742717 12.5504711,49.1718404 C14.320323,51.3339556 17.1164199,50.9139061 18.0450875,50.220336 C18.3310902,52.1024183 20.7166891,56.068467 24.4919246,53.8249468 C28.0417227,51.7181869 26.3324361,48.5140885 25.1985195,47.25394 C27.4158816,46.6482872 29.0679677,41.5067512 23.9804845,39.7321235 C24.7341857,37.6090826 24.8687752,36.6485043 23.7651413,34.7403725 C22.7018843,32.903877 20.9555855,32.6108193 18.1695828,33.727695 L14.1386272,35.3720748 L11.5713324,30.7352494 L10.1985195,31.5037121 L13.1594886,35.9321408 L9.23620458,37.8370165 C9.23620458,37.8370165 5.88156124,39.1069335 7.32839838,42.591065 C8.67092867,45.821213 11.7530283,45.111362 11.7530283,45.111362 Z" id="路径" fill="#414141"></path>
                        <path d="M4.92597577,25.3434643 L17.0592194,25.3434643 C17.0592194,25.3434643 20.9791386,25.4504407 21.7597577,21.1164416 C22.6177658,16.3591369 19.0410498,15.7046412 19.0410498,15.7046412 C19.0410498,15.7046412 21.1944818,14.7473191 20.7267833,11.1492207 C20.2557201,7.5543785 16.9851952,7.09851083 15.6224764,7.26457691 C15.8445491,5.13176746 16.3088829,0.30282638 11.1271871,0.253983415 C6.12382234,0.205140451 6.15410498,5.0796683 6.52759085,7.0008249 C4.74427995,7.02036209 -0.642664872,9.6090392 3.14602961,15.2878479 C1.08344549,16.9973516 0.211978466,17.9839795 0.30282638,20.4489211 C0.390309556,22.9138627 1.95154778,25.3434643 4.92597577,25.3434643 Z" id="路径" fill="#707070" style="mix-blend-mode: luminosity;"></path>
                        <polygon id="路径" fill="#414141" style="mix-blend-mode: luminosity;" points="16.7597577 18.7524421 11.5847914 22.0477141 11.4434724 18.8631529 14.7139973 15.1315504 11.3930013 17.7299961 10.9623149 7.99396518 10.6460296 17.7918638 7.15343203 15.1022446 10.6123822 18.7915165 10.5080754 22.0705075 5.18506057 18.2868059 10.4676985 23.2525073 10.2018843 31.5102245 12.0020188 31.5102245 11.6386272 23.3013502"></polygon>
                    </g>
                    <g id="编组" transform="translate(176.648721, 10.419832)">
                        <path d="M10.8882907,41.4318586 C10.8882907,41.4318586 9.79475101,42.9362219 11.6218035,45.1699735 C13.2503365,47.1627665 15.8277254,46.7752789 16.6823688,46.133808 C16.9448183,47.8661052 19.1453567,51.5163027 22.6211306,49.4551296 C25.8882907,47.5144358 24.3169583,44.5643208 23.2705249,43.4051144 C25.3129206,42.8483046 26.833782,38.1105371 22.1500673,36.479182 C22.846568,34.5254635 22.9710633,33.6397777 21.9515478,31.8846872 C20.9724092,30.1947206 19.3640646,29.9212 16.8001346,30.9534147 L13.0854643,32.4675466 L10.7200538,28.1986715 L9.45827725,28.9052664 L12.1837147,32.9820258 L8.57335128,34.7371163 C8.57335128,34.7371163 5.48452221,35.9060913 6.81695828,39.1167021 C8.04845222,42.0830982 10.8882907,41.4318586 10.8882907,41.4318586 Z" id="路径" fill="#414141"></path>
                        <path d="M4.59623149,23.2264577 L15.7671602,23.2264577 C15.7671602,23.2264577 19.3775236,23.3273998 20.0942127,19.3353015 C20.8815612,14.9557157 17.5908479,14.3533192 17.5908479,14.3533192 C17.5908479,14.3533192 19.5760431,13.4708896 19.1419919,10.1593366 C18.7079408,6.84778361 15.6965007,6.42773412 14.4414536,6.58403161 C14.6467026,4.62054444 15.0740242,0.172578474 10.3028264,0.126991708 C5.69650067,0.0814049407 5.72341857,4.56844527 6.0666218,6.33981678 C4.42462988,6.35609777 -0.538358008,8.73963444 2.95423957,13.972344 C1.05652759,15.5450875 0.252355316,16.4568228 0.336473755,18.7231364 C0.423956931,20.9894499 1.86069987,23.2264577 4.59623149,23.2264577 Z" id="路径" fill="#707070" style="mix-blend-mode: luminosity;"></path>
                        <polygon id="路径" fill="#414141" style="mix-blend-mode: luminosity;" points="15.4946164 17.1569053 10.730148 20.1916815 10.5989233 17.2578474 13.6137281 13.8225589 10.5551817 16.2158642 10.1581427 7.24829592 9.8654105 16.2744758 6.65208614 13.7965094 9.83512786 17.1927235 9.73755047 20.2112187 4.8384926 16.7270872 9.7039031 21.3020449 9.45491252 28.9052664 11.1170929 28.9052664 10.7806191 21.3476317"></polygon>
                    </g>
                    <g id="编组" transform="translate(33.983849, 0.000000)">
                        <path d="M5.67631225,22.4807884 C5.67631225,22.4807884 5.08748318,23.2883254 6.06998654,24.4898624 C6.9448183,25.5611514 8.32772544,25.3527547 8.78869448,25.0075978 C8.93001346,25.9388703 10.1110363,27.8991013 11.9784657,26.7919941 C13.7348587,25.7500109 12.8903096,24.1642426 12.3283984,23.5423089 C13.4253028,23.2427387 14.2429341,20.6996483 11.7261104,19.8237312 C12.0995962,18.7752355 12.166891,18.2998307 11.6184388,17.3555334 C11.0935397,16.4470542 10.2288022,16.3005253 8.8526245,16.8540789 L6.85733513,17.6681283 L5.58882907,15.3757652 L4.90915209,15.7567403 L6.37281292,17.9449051 L4.43135935,18.8859463 C4.43135935,18.8859463 2.77254374,19.5143924 3.48923284,21.2369209 C4.15208614,22.8324578 5.67631225,22.4807884 5.67631225,22.4807884 Z" id="路径" fill="#414141"></path>
                        <path d="M2.29811575,12.7026504 L8.2974428,12.7026504 C8.2974428,12.7026504 10.2355316,12.7545261 10.6224764,10.6119481 C11.0464334,8.25771719 9.27658143,7.93535362 9.27658143,7.93535362 C9.27658143,7.93535362 10.3432032,7.45994877 10.1110363,5.68206486 C9.87886945,3.90418096 8.26043069,3.67950332 7.58748318,3.76090826 C7.69851952,2.70590023 7.92732167,0.31585117 5.36339166,0.293057787 C2.88694482,0.270264403 2.90376851,2.67985065 3.08882907,3.63066036 C2.20726783,3.64042895 -0.457604307,4.92011462 1.41655451,7.73021317 C0.397039031,8.57356836 -0.0370121131,9.0652542 0.0100942127,10.2830721 C0.0538358008,11.50089 0.827725437,12.7026504 2.29811575,12.7026504 Z" id="路径" fill="#707070"></path>
                        <polygon id="路径" fill="#414141" points="8.14939435 9.44297313 5.59219381 11.0743281 5.52153432 9.49832849 7.13997308 7.65206443 5.49798116 8.9350063 5.28263795 4.11909 5.12786003 8.96756827 3.39838493 7.63903964 5.11103634 9.46251031 5.05720054 11.0840967 2.42597577 9.21178309 5.04037685 11.6702123 4.90578735 15.7534841 5.7974428 15.7534841 5.61911171 11.6930057"></polygon>
                    </g>
                </g>
                <g id="编组" transform="translate(74.024226, 108.105761)">
                    <polygon id="路径" fill="url(#linearGradient-8)" points="11.7227456 39.5172144 35.0403769 70.552034 21.2213997 74.1501324 1.47711978 40.0121565 5.63930013 38.4784874 6.94818304 38.8366691 8.16621803 40.8294621"></polygon>
                    <path d="M7.6345895,2.48447879 C7.6345895,2.48447879 8.49596231,3.22363565 7.80619112,5.33039552 C7.62786003,5.73416403 7.41588156,7.02687448 6.47711978,6.49937047 C6.39636608,6.47983328 6.34253028,6.60031259 6.32234186,6.71427951 C6.30215343,6.82499023 6.04979812,8.77219641 6.04979812,8.77219641 L3.3512786,8.7884774 C3.3512786,8.7884774 4.59959623,3.97581731 4.57940781,3.03151999 C4.56931359,2.54634655 5.07402423,1.69322277 6.07671602,1.647636 C7.07267833,1.59553684 7.6345895,2.48447879 7.6345895,2.48447879 Z" id="路径" fill="#FFBE92"></path>
                    <path d="M6.63189771,0.905222941 C6.63189771,0.905222941 6.90444145,0.377718925 7.6615074,0.761950245 C8.41857335,1.14618157 8.0551817,1.82998307 8.0282638,2.00256154 C8.0013459,2.17188382 8.10565276,2.30538792 8.32772544,2.21421439 C8.54979812,2.11978466 8.94683715,2.0546607 9.22274563,2.57565232 C9.49528937,3.09664395 8.91318977,4.47401554 8.03162853,4.33725524 C7.15006729,4.20049494 7.53364738,4.43494117 7.08950202,4.52285851 C6.68573351,4.60426345 6.7833109,5.42808145 6.49730821,5.69834585 C6.15410498,6.02070942 6.12718708,5.17409803 5.43741588,5.75370121 C5.30619112,5.86441193 4.72072678,5.30434594 4.54239569,5.50297399 C4.36069987,5.70485825 3.95693136,5.55507316 3.80888291,5.26201537 C3.66083445,4.96895758 3.4858681,4.27864369 3.63055182,3.09990014 C3.69111709,2.76776799 3.59017497,2.7482308 3.42193809,2.56262753 C3.25370121,2.37702427 3.01144011,2.08396648 3.25706595,1.65740459 C3.50269179,1.2340989 3.73485868,1.28619806 4.0410498,1.29922285 C4.34724092,1.31224764 4.33378197,1.19828073 4.3371467,1.01267746 C4.34051144,0.827074198 4.56258412,0.107454522 5.16823688,0.120479312 C5.77388964,0.133504103 6.03297443,0.485173447 6.18775236,0.781487431 C6.34253028,1.08105761 6.53432032,1.00290887 6.63189771,0.905222941 Z" id="路径" fill="url(#linearGradient-9)"></path>
                    <path d="M0.450874832,10.5696175 C0.450874832,10.5696175 0.373485868,13.0475839 0.757065949,13.8681457 C1.14064603,14.6887075 2.38223419,17.2578474 2.38223419,17.2578474 L2.91049798,13.21365 L1.97846568,10.1039812 L0.450874832,10.5696175 Z" id="路径" fill="#4F4F4F"></path>
                    <path d="M8.512786,12.093518 L12.7254374,9.53740286 C12.7523553,9.52112187 12.7860027,9.51460947 12.8196501,9.52112187 L16.2348587,10.2342291 C16.3492598,10.2570225 16.3795424,10.4068076 16.2886945,10.478444 L12.4192463,13.4480962 C12.3855989,13.4741458 12.3418573,13.4806582 12.3014805,13.4708896 L8.54306864,12.3442452 C8.4320323,12.308427 8.41184388,12.1553858 8.512786,12.093518 Z" id="路径" fill="#171C61"></path>
                    <path d="M9.1218035,11.9990883 L12.6749664,9.84348543 C12.7018843,9.84022924 12.7288022,9.83371684 12.7557201,9.83046064 L15.5720054,10.4198324 C15.6359354,10.4328572 15.6561238,10.5175183 15.602288,10.5598489 L12.2745626,13.1127079 C12.2476447,13.1355012 12.2106326,13.1420136 12.1769852,13.132245 L9.1487214,12.2139973 C9.05450875,12.1814353 9.03768506,12.0511874 9.1218035,11.9990883 Z" id="路径" fill="#DFDFDF"></path>
                    <path d="M2.37213997,38.15938 C2.37213997,38.15938 1.58142665,38.4817436 1.55787349,39.2925368 C1.53432032,40.10333 1.97510094,40.8685364 2.92059219,40.8457431 C3.86608345,40.8229497 4.25975774,40.7317761 4.83176312,40.3052143 C5.40376851,39.8786524 6.96164199,39.1329831 7.35868102,38.9538922 C7.75572005,38.7748014 8.15612382,37.351843 7.14333782,37.0815786 C6.13055182,36.8113142 5.18169583,37.153215 3.84253028,37.6253636 C3.09555855,37.7490991 3.07537012,37.6514132 2.37213997,38.15938 Z" id="路径" fill="url(#linearGradient-10)"></path>
                    <path d="M1.61170929,39.510702 C1.61170929,39.510702 2.00538358,40.8815612 4.14535666,40.2335779 C4.73755047,40.0219251 4.95289367,39.839578 5.21197847,39.6897929 C5.57873486,39.4748839 6.13728129,39.1688013 6.9448183,38.8399253 C7.42934051,38.7129336 7.84993271,38.0812313 7.77590848,37.8011983 C7.94078062,38.0812313 7.80955585,38.686884 7.41251682,38.9343551 C7.01547779,39.1785699 5.73351279,39.7451483 5.48452221,39.9242391 C5.23889637,40.1000738 5.04374159,40.2107845 5.04374159,40.2107845 L5.07402423,40.4810489 C5.07402423,40.4810489 3.37146703,41.3960405 2.31830417,40.9173794 C1.58479139,40.5722225 1.43001346,40.1098424 1.43674293,39.8819086 C1.44010767,39.7809664 1.4602961,39.3771979 1.55787349,39.24695 C1.57806191,39.3576607 1.61170929,39.510702 1.61170929,39.510702 Z" id="路径" fill="#E6E8E8"></path>
                    <path d="M6.48048452,40.1261234 C6.48048452,40.1261234 5.86473755,40.5657101 5.84118439,41.3765033 C5.81763122,42.1872965 6.11709287,42.871098 7.06258412,42.8483046 C8.00807537,42.8255112 8.34118439,42.6333956 8.97375505,42.3077758 C9.94279946,41.8095776 11.1843876,41.1225199 11.4131898,40.7513133 C11.6453567,40.3768506 12.1938089,39.4455781 11.1810229,39.0059914 C10.2187079,38.5891981 9.34724092,39.328355 8.00807537,39.8005036 C7.26446837,39.9209829 7.18371467,39.6181566 6.48048452,40.1261234 Z" id="路径" fill="url(#linearGradient-11)"></path>
                    <path d="M5.89502019,41.5946685 C5.89502019,41.5946685 6.1473755,42.8841228 8.29071332,42.2328833 C8.88290713,42.0212304 9.15881561,41.8747015 9.4179004,41.7216602 C9.7846568,41.5067512 10.2557201,41.2169496 10.9993271,40.7871315 C11.3728129,40.5689663 11.7967699,39.7939912 11.7227456,39.5139582 C11.8876178,39.7939912 11.6958277,40.6666522 11.3257066,40.9499414 C10.9152086,41.2657926 10.3129206,41.6076933 9.98990579,41.7932966 C9.72745626,41.9430817 9.19246299,42.2068337 9.19246299,42.2068337 L9.22274563,42.4770981 C9.22274563,42.4770981 7.52018843,43.3920896 6.46702557,42.9134286 C5.84118439,42.5454782 5.743607,42.1091477 5.72678331,41.9593627 C5.71332436,41.8584205 5.75033647,41.454652 5.84791386,41.3244041 C5.86137281,41.4416272 5.89502019,41.5946685 5.89502019,41.5946685 Z" id="路径" fill="#E6E8E8"></path>
                    <path d="M2.20726783,17.6225416 C2.20726783,17.6225416 0.999327052,19.6055659 1.7025572,23.5455651 C2.40578735,27.4888204 2.95087483,29.9602744 2.75235532,31.9628359 C2.5538358,33.9686537 2.13660834,38.9180741 2.13660834,38.9180741 C2.13660834,38.9180741 3.02153432,39.8949334 4.26648721,39.1883385 C4.9461642,36.5084878 6.09017497,29.4848695 6.15410498,28.6056962 C6.21130552,27.8632831 5.98250336,25.4569531 5.65275908,23.0245734 C5.3230148,20.5921938 5.19179004,19.0161942 5.19179004,19.0161942 L2.20726783,17.6225416 Z" id="路径" fill="url(#linearGradient-12)"></path>
                    <path d="M8.84253028,19.4232189 C8.84253028,19.491599 9.70053836,19.8953675 9.63324361,23.0734164 C9.56594886,26.2514653 9.80820996,27.9837624 9.63324361,29.5369687 C9.45827725,31.090175 8.62382234,41.2006686 8.62382234,41.2006686 C8.62382234,41.2006686 7.63122476,42.096123 6.4064603,41.1941562 C6.30888291,37.4788347 6.79340511,29.8365389 6.45020188,28.4982417 C5.61574697,25.2322754 3.04508748,24.1740112 4.38425303,19.556723 C6.73283984,18.9738636 8.84253028,19.4232189 8.84253028,19.4232189 Z" id="路径" fill="url(#linearGradient-13)"></path>
                    <path d="M6.19784657,7.57391569 C6.19784657,7.57391569 4.49192463,8.56705596 3.81224764,6.92267616 C2.84656797,6.74358529 1.7025572,6.65241176 1.13391655,7.71067599 C0.561911171,8.76894022 0.144683715,10.9310554 0.144683715,10.9310554 L2.03230148,11.5627578 C2.03230148,11.5627578 2.64804845,14.0635176 2.27456258,15.9097816 C1.90107672,17.7560457 0.814266487,19.7488386 1.23149394,20.2242435 C1.6487214,20.6963921 5.33983849,22.3765901 9.46837147,21.7676812 C10.1312248,21.6276647 9.77119785,20.6084748 9.39771198,18.9185082 C9.02422611,17.2285417 10.2018843,15.0338645 10.2018843,15.0338645 L10.4475101,15.0110711 C10.4475101,15.0110711 10.4037685,11.2273694 9.50201884,9.51460947 C8.60026918,7.80184952 6.52759085,7.25806452 6.19784657,7.57391569 Z" id="路径" fill="url(#linearGradient-14)"></path>
                    <path d="M13.3916555,12.6275344 C13.3916555,12.6275344 13.102288,12.7187079 13.0450875,12.5005427 C13.0450875,12.5005427 13.0450875,12.5005427 13.0450875,12.5005427 C13.0282638,12.4712369 13.0148048,12.4354187 13.0047106,12.3865758 C12.8936743,11.9144271 13.1258412,11.0352538 12.5874832,11.4520471 C12.0491252,11.8688404 12.2139973,12.6014848 12.0592194,13.0638649 C11.9044415,13.526245 10.4138627,15.7632527 10.3364738,15.5743933 C10.269179,15.4604263 10.2288022,15.0240959 10.2288022,15.0240959 C10.2288022,15.0240959 7.50672948,15.3953024 7.53701211,15.4311206 C7.57065949,15.4636825 8.88627187,19.9670039 10.1177658,19.5534668 C11.3492598,19.1366735 12.6345895,14.5063604 12.960969,14.3402944 C13.2907133,14.1709721 14.9394347,13.8355837 14.6870794,11.7092867 L13.3916555,12.6275344 Z" id="路径" fill="#4F4F4F"></path>
                </g>
            </g>
        </g>
    </g>
</svg>