<?xml version="1.0" encoding="UTF-8"?>
<svg width="180px" height="180px" viewBox="0 0 180 180" version="1.1" xmlns="http://www.w3.org/2000/svg" xmlns:xlink="http://www.w3.org/1999/xlink">
    <title>Default/img_default_liebiaokong备份 5</title>
    <defs>
        <linearGradient x1="50%" y1="0%" x2="50%" y2="87.8255208%" id="linearGradient-1">
            <stop stop-color="#DCDCDC" stop-opacity="0.994973776" offset="0%"></stop>
            <stop stop-color="#DCDCDC" stop-opacity="0" offset="100%"></stop>
        </linearGradient>
        <linearGradient x1="50%" y1="0%" x2="50%" y2="100%" id="linearGradient-2">
            <stop stop-color="#DCDCDC" stop-opacity="0.994973776" offset="0%"></stop>
            <stop stop-color="#DCDCDC" stop-opacity="0" offset="100%"></stop>
        </linearGradient>
        <linearGradient x1="50%" y1="0%" x2="50%" y2="87.8255208%" id="linearGradient-3">
            <stop stop-color="#DCDCDC" stop-opacity="0.994973776" offset="0%"></stop>
            <stop stop-color="#DCDCDC" stop-opacity="0" offset="100%"></stop>
        </linearGradient>
        <linearGradient x1="50%" y1="0%" x2="50%" y2="100%" id="linearGradient-4">
            <stop stop-color="#DCDCDC" stop-opacity="0.994973776" offset="0%"></stop>
            <stop stop-color="#DCDCDC" stop-opacity="0" offset="100%"></stop>
        </linearGradient>
    </defs>
    <g id="页面-1" stroke="none" stroke-width="1" fill="none" fill-rule="evenodd">
        <g id="结算记录为空" transform="translate(-98.000000, -292.000000)">
            <g id="Default/img_default_liebiaokong备份-5" transform="translate(98.000000, 292.000000)">
                <rect id="矩形" x="0" y="0" width="180" height="180"></rect>
                <path d="M13,50 C13,50 18.910961,38 29.2881276,38 C36.2062387,38 40.8903793,39.9374009 43.3405494,43.8122027 C46.0725682,44.0077912 48.3633637,44.3826354 50.2129358,44.9367354 C52.0625079,45.4908355 53.658196,47.1785903 55,50 C27,50 13,50 13,50 Z" id="路径-5备份" fill="url(#linearGradient-1)" opacity="0.398875"></path>
                <path d="M103,43 C103,43 112.288653,25 128.595629,25 C139.466946,25 146.827739,27.9061014 150.678006,33.7183041 C154.971179,34.0116867 158.571,34.5739531 161.477471,35.4051032 C164.383941,36.2362532 166.891451,38.7678855 169,43 C125,43 103,43 103,43 Z" id="路径-5备份-2" fill="url(#linearGradient-2)" opacity="0.398875" transform="translate(136.000000, 34.000000) scale(-1, 1) translate(-136.000000, -34.000000) "></path>
                <path d="M89.5,133 C119.91243,133 146.883649,139 170.413657,151 L9,151 C32.2542368,139 59.0875701,133 89.5,133 Z" id="路径-2" fill="url(#linearGradient-3)" opacity="0.4"></path>
                <g id="编组-12" transform="translate(37.000000, 24.000000)">
                    <path d="M79.9510428,3.19721345 C81.1465194,2.89587367 82.0154041,2.89587367 82.5576969,3.19721345 L98.4470815,55.2047096 C98.8530442,57.7336688 98.0373504,59.2485778 96,59.7494364 C92.9439744,60.5007243 28.9090316,77.2199958 27.0302767,77.8455013 C25.1515218,78.4710067 22.5769081,78.850915 21.1896674,75.6287304 C20.2648403,73.4806073 15.2937376,56.6073828 6.27635912,25.0090567 C54.1973383,10.7691676 78.7555662,3.49855322 79.9510428,3.19721345 Z" id="路径-16" fill="#DCDCDC"></path>
                    <path d="M0.333849702,30.1734532 C-0.148603164,23.3203939 -1.32617809,21.5975446 7.51657384,19.4934993 C16.307432,17.4018015 75.0248902,1.66442247 78.87906,1 C81.4485065,0.557051687 82.9088069,2.3789028 83.2599611,6.46555333 C84.0380805,12.9582045 84.8392518,20.8608378 85.663475,30.1734532 C85.9146723,33.0116463 84.3865261,35.415466 79.8391214,36.6410162 C70.3238901,39.2054225 49.0754776,45.4185255 47.2917393,45.9052211 C44.9982973,46.5309901 43.9619389,47.2057844 42.3404492,51.7492642 C40.7189595,56.2927441 40.6458824,56.8016851 38.0962982,57.7756084 C35.5467139,58.7495318 16.9557505,63.6069701 10.8544806,64.9132522 C4.75321074,66.2195344 2.42994585,62.6120831 2.08378429,57.2268049 C1.73762274,51.8415267 0.490040285,32.392081 0.333849702,30.1734532 Z" id="路径-15" fill="#EBEBEB"></path>
                    <path d="M42.568,87 C42.806587,87 43,87.193413 43,87.432 L43,90.568 C43,90.806587 42.806587,91 42.568,91 L39.432,91 C39.193413,91 39,90.806587 39,90.568 L39,87.432 C39,87.193413 39.193413,87 39.432,87 L42.568,87 Z M55.024,77 C55.262587,77 55.456,77.193413 55.456,77.432 L55.456,80.024 C55.456,80.262587 55.262587,80.456 55.024,80.456 L52.432,80.456 C52.193413,80.456 52,80.262587 52,80.024 L52,77.432 C52,77.193413 52.193413,77 52.432,77 L55.024,77 Z M66.6401897,70.5494364 C66.8787767,70.5494364 67.0721897,70.7428494 67.0721897,70.9814364 L67.0721897,73.5734364 C67.0721897,73.8120234 66.8787767,74.0054364 66.6401897,74.0054364 L64.0481897,74.0054364 C63.8096027,74.0054364 63.6161897,73.8120234 63.6161897,73.5734364 L63.6161897,70.9814364 C63.6161897,70.7428494 63.8096027,70.5494364 64.0481897,70.5494364 L66.6401897,70.5494364 Z M38.1281897,65.3654364 C38.3667767,65.3654364 38.5601897,65.5588494 38.5601897,65.7974364 L38.5601897,70.1174364 C38.5601897,70.3560234 38.3667767,70.5494364 38.1281897,70.5494364 L33.8081897,70.5494364 C33.5696027,70.5494364 33.3761897,70.3560234 33.3761897,70.1174364 L33.3761897,65.7974364 C33.3761897,65.5588494 33.5696027,65.3654364 33.8081897,65.3654364 L38.1281897,65.3654364 Z M52.3841897,59.7494364 C52.6227767,59.7494364 52.8161897,59.9428494 52.8161897,60.1814364 L52.8161897,63.2054364 C52.8161897,63.4440234 52.6227767,63.6374364 52.3841897,63.6374364 L49.3601897,63.6374364 C49.1216027,63.6374364 48.9281897,63.4440234 48.9281897,63.2054364 L48.9281897,60.1814364 C48.9281897,59.9428494 49.1216027,59.7494364 49.3601897,59.7494364 L52.3841897,59.7494364 Z M52.3841897,50.6774364 C52.6227767,50.6774364 52.8161897,50.8708494 52.8161897,51.1094364 L52.8161897,54.1334364 C52.8161897,54.3720234 52.6227767,54.5654364 52.3841897,54.5654364 L49.3601897,54.5654364 C49.1216027,54.5654364 48.9281897,54.3720234 48.9281897,54.1334364 L48.9281897,51.1094364 C48.9281897,50.8708494 49.1216027,50.6774364 49.3601897,50.6774364 L52.3841897,50.6774364 Z M69.6641897,48.9494364 C69.9027767,48.9494364 70.0961897,49.1428494 70.0961897,49.3814364 L70.0961897,52.4054364 C70.0961897,52.6440234 69.9027767,52.8374364 69.6641897,52.8374364 L66.6401897,52.8374364 C66.4016027,52.8374364 66.2081897,52.6440234 66.2081897,52.4054364 L66.2081897,49.3814364 C66.2081897,49.1428494 66.4016027,48.9494364 66.6401897,48.9494364 L69.6641897,48.9494364 Z" id="形状结合" fill="#F0F3F5"></path>
                </g>
                <g id="编组-5" transform="translate(45.000000, 124.000000)" fill="#DCDCDC">
                    <path d="M0.809016994,10 C0.532874619,10 0.309016994,9.77614237 0.309016994,9.5 C0.309016994,9.42237745 0.32708954,9.34582092 0.361803399,9.2763932 L4.5527864,0.894427191 C4.67628103,0.647437942 4.97661755,0.547325769 5.2236068,0.670820393 C5.3203705,0.719202244 5.39883174,0.79766349 5.4472136,0.894427191 L9.6381966,9.2763932 C9.76169123,9.52338245 9.66157905,9.82371897 9.4145898,9.9472136 C9.34516209,9.98192745 9.26860555,10 9.19098301,10 L6,10 L6,15 L4,15 L4,10 L0.809016994,10 Z" id="形状结合"></path>
                </g>
                <g id="编组-6" transform="translate(92.000000, 123.000000)" fill="#DCDCDC">
                    <path d="M11.0715032,0.775606402 C11.1682669,0.823988253 11.2467281,0.902449499 11.29511,0.9992132 L21.2815871,20.9721674 C21.4050817,21.2191567 21.3049696,21.5194932 21.0579803,21.6429878 C20.9885526,21.6777017 20.9119961,21.6957742 20.8343735,21.6957742 L12.508017,21.6949245 L12.5087416,30.0000005 L8.35662853,30.0000005 L8.35601699,21.6949245 L0.861419286,21.6957742 C0.585276911,21.6957742 0.361419286,21.4719166 0.361419286,21.1957742 C0.361419286,21.1181517 0.379491831,21.0415951 0.41420569,20.9721674 L10.4006828,0.9992132 C10.5241774,0.752223951 10.8245139,0.652111778 11.0715032,0.775606402 Z" id="形状结合"></path>
                </g>
                <g id="编组-4" transform="translate(128.000000, 128.000000)" fill="#DCDCDC">
                    <path d="M0.809016994,8 C0.532874619,8 0.309016994,7.77614237 0.309016994,7.5 C0.309016994,7.42237745 0.32708954,7.34582092 0.361803399,7.2763932 L3.5527864,0.894427191 C3.67628103,0.647437942 3.97661755,0.547325769 4.2236068,0.670820393 C4.3203705,0.719202244 4.39883174,0.79766349 4.4472136,0.894427191 L7.6381966,7.2763932 C7.76169123,7.52338245 7.66157905,7.82371897 7.4145898,7.9472136 C7.34516209,7.98192745 7.26860555,8 7.19098301,8 L5,8 L5,11 L3,11 L3,8 L0.809016994,8 Z" id="形状结合"></path>
                </g>
                <path d="M116,116 C116,116 120.925801,106 129.57344,106 C135.338532,106 139.241983,107.614501 141.283791,110.843502 C143.560474,111.006493 145.46947,111.318863 147.01078,111.780613 C148.55209,112.242363 149.88183,113.648825 151,116 C127.666667,116 116,116 116,116 Z" id="路径-5" fill="url(#linearGradient-4)" opacity="0.398875" transform="translate(133.500000, 111.000000) scale(-1, 1) translate(-133.500000, -111.000000) "></path>
            </g>
        </g>
    </g>
</svg>