<!-- Generated by IcoMoon.io -->
<svg version="1.1" xmlns="http://www.w3.org/2000/svg" width="1152" height="1024" viewBox="0 0 1152 1024">
<title></title>
<g id="icomoon-ignore">
</g>
<path fill="#6aaaf5" d="M624 884.613l508.65-398.1c7.8-6.15 19.35-0.6 19.35 9.45v115.95c0 7.35-3.45 14.4-9.15 18.9l-489.3 382.95c-17.4 13.65-41.85 13.65-59.25 0l-489.15-382.95c-5.85-4.5-9.15-11.55-9.15-18.9v-115.95c0-10.050 11.55-15.6 19.35-9.45l508.65 398.1z"></path>
<path fill="#6aaaf5" opacity="0.5" d="M624 428.613l508.65-398.1c7.8-6.15 19.35-0.6 19.35 9.45v115.95c0 7.35-3.45 14.4-9.15 18.9l-489.3 382.95c-17.4 13.65-41.85 13.65-59.25 0l-489.15-382.95c-5.85-4.5-9.15-11.55-9.15-18.9v-115.95c0-10.050 11.55-15.6 19.35-9.45l508.65 398.1z"></path>
</svg>
