<?xml version="1.0" encoding="UTF-8"?>
<svg width="14px" height="14px" viewBox="0 0 14 14" version="1.1" xmlns="http://www.w3.org/2000/svg" xmlns:xlink="http://www.w3.org/1999/xlink">
    <!-- Generator: Sketch 58 (84663) - https://sketch.com -->
    <title>icon/notstarted</title>
    <desc>Created with Sketch.</desc>
    <g id="专业版" stroke="none" stroke-width="1" fill="none" fill-rule="evenodd">
        <g id="投注区切图" transform="translate(-78.000000, -386.000000)" fill-rule="nonzero">
            <g id="icon/notstarted" transform="translate(78.000000, 386.000000)">
                <rect id="矩形" fill="#000000" opacity="0" x="0" y="0" width="14" height="14"></rect>
                <path d="M7.007,1.246 C8.631,1.246 10.15,1.876 11.298,3.024 C12.446,4.172 13.076,5.698 13.076,7.315 C13.076,8.771875 12.5468984,10.1610742 11.5982839,11.2576526 L11.403,11.473 L11.333,11.55 L12.271,12.488 C12.369,12.586 12.425,12.719 12.425,12.859 C12.425,12.999 12.369,13.132 12.271,13.23 C12.173,13.328 12.04,13.384 11.9,13.384 C11.788,13.384 11.68048,13.34816 11.591776,13.283648 L11.529,13.23 L10.542,12.243 L10.472,12.292 C9.45,13.006 8.253,13.384 7.007,13.384 C5.85684615,13.384 4.74844379,13.0619172 3.78089531,12.4507856 L3.542,12.292 L3.472,12.243 L2.492,13.223 C2.394,13.314 2.261,13.37 2.121,13.37 C1.974,13.37 1.834,13.314 1.736,13.209 C1.55555556,13.0223333 1.53550617,12.7471728 1.67585185,12.5408409 L1.736,12.467 L2.66,11.543 L2.59,11.466 C1.526,10.339 0.938,8.862 0.938,7.315 C0.938,3.969 3.661,1.246 7.007,1.246 Z M7,2.324 C4.242,2.324 2.002,4.564 2.002,7.322 C2.002,10.08 4.242,12.32 7,12.32 C9.758,12.32 11.998,10.08 11.998,7.322 C11.998,4.564 9.758,2.324 7,2.324 Z M5.726,5.138 C5.852,5.019 6.048,4.984 6.202,5.075 L6.202,5.075 L9.303,6.86 C9.422,6.93 9.492,7.056 9.499,7.196 C9.499,7.343 9.429,7.469 9.303,7.539 L9.303,7.539 L6.209,9.331 C6.146,9.366 6.083,9.387 6.013,9.387 C5.824,9.387 5.621,9.24 5.621,8.995 L5.621,8.995 L5.614,5.418 C5.614,5.313 5.656,5.208 5.726,5.138 Z M2.737,0.609 C3.139,0.609 3.53071429,0.706714286 3.88128571,0.893326531 L4.053,0.994 L4.109,1.029 L4.053,1.057 C2.6945625,1.700125 1.57606641,2.77391406 0.870546387,4.10533252 L0.735,4.375 L0.707,4.431 L0.672,4.375 C0.42,3.983 0.287,3.528 0.287,3.059 C0.287,1.708 1.386,0.609 2.737,0.609 Z M11.312,0.616 C12.628,0.616 13.706,1.687 13.706,3.01 C13.706,3.4 13.6134286,3.77971429 13.4326939,4.12269388 L13.335,4.291 L13.3,4.347 L13.272,4.291 C12.642,2.9588125 11.5936406,1.86656641 10.2941887,1.18152856 L10.031,1.05 L9.975,1.022 L10.031,0.987 C10.409,0.742 10.857,0.616 11.312,0.616 Z" id="形状结合" fill="#DB6372"></path>
            </g>
        </g>
    </g>
</svg>