<svg width="24" height="32" viewBox="0 0 24 32" fill="none" xmlns="http://www.w3.org/2000/svg">
<path d="M24 12C24 18.6274 12 30 12 30C12 30 0 18.6274 0 12C0 5.37258 5.37258 0 12 0C18.6274 0 24 5.37258 24 12Z" fill="url(#paint0_linear_1240_38599)"/>
<path d="M24 14C24 20.6274 12 32 12 32C12 32 0 20.6274 0 14C0 7.37258 5.37258 2 12 2C18.6274 2 24 7.37258 24 14Z" fill="url(#paint1_linear_1240_38599)"/>
<g clip-path="url(#clip0_1240_38599)">
<circle cx="12.0001" cy="14" r="9.09091" fill="url(#paint2_linear_1240_38599)"/>
<mask id="mask0_1240_38599" style="mask-type:luminance" maskUnits="userSpaceOnUse" x="2" y="4" width="20" height="20">
<circle cx="12.0001" cy="14" r="9.09091" fill="white"/>
</mask>
<g mask="url(#mask0_1240_38599)">
<path d="M19.3397 17.7071C19.326 17.7359 19.3178 17.7577 19.304 17.7753C19.1203 18.0386 18.8984 18.2607 18.6519 18.4466C18.5451 18.527 18.4383 18.5961 18.3233 18.6588C18.1836 18.7362 18.0413 18.7663 17.9155 18.7132C17.9018 18.7082 17.88 18.708 17.8663 18.7143C17.806 18.7576 17.7376 18.7945 17.6937 18.8507C17.4388 19.16 17.1757 19.4517 16.8771 19.7156C16.8661 19.724 16.8579 19.7345 16.8551 19.755C16.8743 19.7417 16.8962 19.7305 16.9154 19.7116C17.1044 19.5373 17.3044 19.3827 17.5344 19.2912C17.8136 19.1816 18.0845 19.1334 18.3443 19.2008C18.3526 19.2016 18.358 19.2058 18.3662 19.2066C18.369 19.2087 18.3717 19.2109 18.3799 19.2229C18.3525 19.258 18.3251 19.2987 18.2894 19.3274C17.9908 19.5913 17.6732 19.7895 17.3228 19.883C17.1613 19.9264 17.0136 19.9183 16.9016 19.8082C16.8907 19.7996 16.866 19.7917 16.8523 19.798C16.7866 19.8314 16.7155 19.8605 16.6525 19.9074C16.3265 20.1612 15.9924 20.3917 15.6419 20.5812C15.62 20.5923 15.5981 20.6091 15.5762 20.6203C15.5789 20.628 15.5789 20.6337 15.5816 20.6415C15.6145 20.6276 15.6473 20.6193 15.6747 20.6012C15.8609 20.4924 16.0471 20.4062 16.2441 20.3737C16.5287 20.3248 16.7749 20.3703 16.9771 20.5339C17.0318 20.5766 17.029 20.5858 16.9578 20.6431C16.8345 20.7389 16.7004 20.8036 16.5635 20.8549C16.3719 20.9255 16.1775 20.9828 15.9888 20.9652C15.8164 20.9492 15.6715 20.8869 15.6061 20.7115C15.6007 20.7016 15.5925 20.6895 15.5843 20.6887C15.5213 20.6961 15.4557 20.6843 15.3982 20.7129C15.0751 20.8673 14.7493 20.9913 14.4154 21.0751C14.4045 21.0778 14.3935 21.0806 14.3798 21.0868C14.3744 21.0882 14.3744 21.0938 14.3524 21.1163C14.3962 21.1109 14.4263 21.1118 14.4564 21.1015C14.6508 21.0442 14.8423 21.0187 15.0174 21.0707C15.2799 21.1516 15.4547 21.3334 15.5665 21.5902C15.5692 21.598 15.5692 21.6036 15.5719 21.6283C15.5117 21.6491 15.4542 21.6776 15.3967 21.6892C15.0437 21.7524 14.7264 21.7192 14.4777 21.5136C14.4039 21.4503 14.3658 21.364 14.3577 21.256C14.3524 21.1614 14.295 21.1109 14.1937 21.1279C13.9201 21.1796 13.6546 21.1926 13.392 21.1739L13.2197 21.1579C13.2169 21.167 13.2142 21.1705 13.2114 21.1797C13.236 21.1876 13.2579 21.1991 13.2798 21.1992C13.4248 21.2051 13.5643 21.2237 13.6846 21.2895C13.9306 21.4252 14.0534 21.6624 14.1077 21.959C14.1158 22.0106 14.1212 22.0657 14.1293 22.1341C14.0609 22.1372 14.0034 22.1488 13.9487 22.14C13.6533 22.0956 13.4073 21.9712 13.2462 21.721C13.1698 21.5992 13.1344 21.4585 13.1784 21.2895C13.1949 21.229 13.1376 21.139 13.0774 21.1259C12.875 21.0864 12.6836 21.0159 12.5059 20.9279C12.4895 20.9208 12.4758 20.9101 12.4595 20.8973C12.4951 20.8404 12.5334 20.8251 12.5772 20.848C12.7576 20.9381 12.949 20.9973 13.1515 21.0368C13.2554 21.0558 13.3293 21.0232 13.3979 20.9129C13.5377 20.6945 13.7186 20.525 13.9322 20.3924C14.1649 20.2522 14.3976 20.1854 14.6301 20.1919C14.6466 20.1934 14.6657 20.1971 14.6958 20.198C14.6629 20.2345 14.6382 20.2604 14.6136 20.2863C14.4108 20.4839 14.2217 20.6921 13.9971 20.8613C13.8273 20.9885 13.6549 21.0515 13.4743 21.0404C13.4497 21.0381 13.4251 21.0358 13.4032 21.0244C13.3649 20.9945 13.3403 21.0148 13.3019 21.0639C13.321 21.0676 13.3347 21.0726 13.3511 21.0741C13.6767 21.1138 14.0105 21.0921 14.3581 21.0133C14.4511 20.99 14.5087 20.8994 14.5389 20.8213C14.6817 20.4639 14.9229 20.1833 15.2242 19.9554C15.3776 19.8379 15.5446 19.7537 15.7171 19.6964C15.7335 19.6922 15.7472 19.6916 15.7745 19.6848C15.7197 19.7719 15.6703 19.8519 15.621 19.9264C15.5222 20.0753 15.4263 20.2263 15.3221 20.3709C15.1795 20.5703 15.0178 20.7547 14.7988 20.8435C14.7331 20.8713 14.6592 20.8926 14.5908 20.8957C14.5333 20.9016 14.5059 20.9254 14.473 20.9901C14.5606 20.9625 14.6372 20.9433 14.7139 20.9184C14.9958 20.8279 15.2723 20.7162 15.5407 20.5643C15.6201 20.519 15.6667 20.4255 15.6805 20.3458C15.7908 19.754 16.139 19.3197 16.6347 18.9781C16.6456 18.9697 16.6566 18.967 16.6675 18.9586C16.6703 18.9551 16.6757 18.9594 16.684 18.9601C16.5466 19.3049 16.4476 19.6569 16.2338 19.9757C16.1049 20.1689 15.9487 20.3237 15.7379 20.3963C15.7078 20.4067 15.6831 20.4496 15.6585 20.4755C15.6612 20.4833 15.6666 20.4875 15.6666 20.4932L15.8063 20.4158C16.1459 20.2065 16.4691 19.9731 16.7786 19.7008C16.7923 19.6889 16.8088 19.6735 16.8142 19.6608C16.8417 19.5693 16.8857 19.4793 16.8639 19.3832C16.8286 19.1975 16.8836 18.9975 16.9523 18.7969C17.065 18.4724 17.2596 18.2008 17.5008 17.9541C17.5062 17.9471 17.5145 17.9422 17.5227 17.9373C17.5254 17.9451 17.5309 17.9494 17.5281 17.9529C17.4894 18.2052 17.4645 18.4568 17.4148 18.7119C17.3707 18.9543 17.2746 19.1843 17.0855 19.3756C17.0472 19.4134 17.0033 19.4526 16.9595 19.4749C16.8938 19.5027 16.8883 19.5492 16.8745 19.6232C16.9786 19.5237 17.0745 19.4404 17.1594 19.3486C17.3732 19.1144 17.576 18.8774 17.7843 18.6389C17.8254 18.5919 17.8585 18.4313 17.8366 18.3917C17.7193 18.1926 17.7333 17.9493 17.7912 17.6951C17.8517 17.426 17.9752 17.1778 18.1425 16.9469L18.1726 16.9083C18.1754 16.9048 18.1808 16.9034 18.1918 16.895C18.1945 16.9366 18.2026 16.9769 18.2053 17.0185C18.2214 17.2007 18.2431 17.3814 18.2483 17.5663C18.2534 17.7906 18.1929 18.0146 18.0448 18.2266C18.0064 18.2814 17.9626 18.3319 17.9187 18.3767C17.8722 18.4194 17.8749 18.4554 17.8802 18.5161C17.9241 18.46 17.9597 18.42 17.9899 18.3758C18.2175 18.0507 18.4313 17.7206 18.6124 17.3705C18.6646 17.27 18.6538 17.1655 18.5855 17.1121C18.4352 16.9891 18.3944 16.799 18.3892 16.5916C18.3814 16.3425 18.4556 16.0954 18.5654 15.8478C18.5682 15.8443 18.5709 15.8352 18.5764 15.8281C18.5791 15.8246 18.5846 15.8233 18.5874 15.8197C18.5901 15.8219 18.5956 15.8205 18.5983 15.8226C18.6801 16.0109 18.7729 16.1963 18.8437 16.3929C18.9036 16.5697 18.8951 16.7665 18.7854 16.9689C18.7607 17.0118 18.736 17.0546 18.7004 17.0946C18.662 17.1381 18.6675 17.1706 18.6865 17.2137C18.6975 17.1997 18.7112 17.1878 18.7167 17.1751C18.8951 16.8116 19.0434 16.4416 19.1616 16.065C19.1753 16.0192 19.1317 15.906 19.0907 15.8966C18.8172 15.8185 18.7245 15.5879 18.6976 15.3013C18.6841 15.1608 18.7007 15.0099 18.742 14.8501C18.7721 14.8736 18.8021 14.8914 18.824 14.9141C18.9497 15.0349 19.0918 15.1347 19.1764 15.2968C19.2637 15.4611 19.2771 15.6411 19.1673 15.8491C19.1399 15.9011 19.1645 15.9204 19.1891 15.9565C19.2001 15.9255 19.2083 15.9094 19.2138 15.8911C19.3018 15.5869 19.3679 15.2826 19.4067 14.9795C19.4122 14.9217 19.3576 14.8395 19.3084 14.8349C18.9719 14.8093 18.819 14.5882 18.7757 14.2549C18.7622 14.1709 18.7732 14.0778 18.7734 13.9875C18.7816 13.9826 18.7871 13.9813 18.7953 13.9764C18.8199 13.99 18.85 14.0022 18.8746 14.0157C19.0113 14.083 19.1589 14.1362 19.2655 14.2477C19.3911 14.3798 19.4593 14.5404 19.3796 14.7719C19.3631 14.8212 19.3659 14.8233 19.426 14.8534C19.4344 14.7356 19.4482 14.6278 19.4484 14.5205C19.4486 14.3625 19.4461 14.208 19.4436 14.0478C19.4409 14.0231 19.4355 13.9963 19.4218 13.98C19.2278 13.8002 19.1762 13.5451 19.2232 13.2428C19.2453 13.0906 19.2948 12.9371 19.3661 12.7895C19.3716 12.7768 19.3826 12.7628 19.3935 12.7431C19.4317 12.8181 19.4672 12.8854 19.5027 12.9527C19.5872 13.1148 19.6636 13.2818 19.6606 13.4941C19.6576 13.6613 19.619 13.8177 19.4902 13.96C19.482 13.9705 19.4738 13.9923 19.4765 14.0057C19.4979 14.3445 19.4782 14.6908 19.4339 15.0404C19.4312 15.0495 19.4366 15.0594 19.4339 15.0686C19.4394 15.0672 19.4448 15.0715 19.4503 15.0701C19.464 15.03 19.4887 14.9871 19.4888 14.9533C19.503 14.5971 19.6375 14.2615 19.8596 13.9435C19.9556 13.8037 20.068 13.6768 20.1749 13.5456C20.1913 13.5246 20.2132 13.5134 20.2516 13.4813C20.2459 13.6011 20.2485 13.6992 20.2347 13.8014C20.1959 14.0876 20.1107 14.3713 19.9379 14.6375C19.8337 14.799 19.7159 14.9386 19.538 15.003C19.5243 15.0092 19.5051 15.0225 19.4996 15.0352C19.4502 15.1096 19.4064 15.1827 19.3925 15.2736C19.3455 15.6041 19.2575 15.9365 19.1503 16.2652L19.1338 16.3201C19.1366 16.3223 19.1448 16.323 19.1475 16.3252C19.1612 16.2963 19.1859 16.2648 19.1941 16.2373C19.2795 15.8915 19.4578 15.5844 19.6962 15.3018C19.8442 15.1292 20.0086 14.9865 20.1975 14.8742C20.2085 14.8658 20.2194 14.863 20.2413 14.8519C20.2331 14.8906 20.233 14.9245 20.222 14.9555C20.0956 15.3652 19.8953 15.7455 19.5938 16.0806C19.4924 16.1935 19.3719 16.2689 19.2378 16.2997C19.2214 16.3038 19.1968 16.3128 19.1913 16.3255C19.1364 16.3956 19.0816 16.4602 19.0487 16.5474C18.9278 16.8768 18.7796 17.196 18.604 17.5052C18.6013 17.5087 18.5985 17.5179 18.6095 17.5321C18.6314 17.504 18.6615 17.4767 18.6807 17.4465C18.7877 17.2758 18.881 17.0944 18.9989 16.9323C19.2429 16.5974 19.5496 16.3794 19.9109 16.2606C19.9164 16.2592 19.9219 16.2635 19.941 16.2615C19.9136 16.3191 19.8943 16.3776 19.8642 16.4331C19.6749 16.7768 19.4419 17.0863 19.1487 17.3432C19.0145 17.4643 18.8666 17.5352 18.708 17.5243C18.697 17.5214 18.6806 17.5255 18.6751 17.5325C18.6148 17.5928 18.5382 17.6459 18.497 17.7154C18.2995 18.0414 18.0802 18.3503 17.8527 18.6528C17.8472 18.6598 17.8417 18.6725 17.8362 18.6795C17.839 18.6816 17.8444 18.6859 17.8444 18.6915C17.8663 18.6691 17.8965 18.6475 17.9156 18.6229C18.05 18.4453 18.1843 18.2678 18.3541 18.1293C18.65 17.8914 18.9594 17.7433 19.2959 17.7124C19.3041 17.7076 19.3151 17.7048 19.3397 17.7071Z" fill="white"/>
<path d="M4.75013 17.7071C4.76385 17.7359 4.77209 17.7577 4.7858 17.7753C4.9695 18.0386 5.19144 18.2607 5.43795 18.4466C5.54478 18.527 5.65158 18.5961 5.76659 18.6588C5.90624 18.7362 6.04855 18.7663 6.17433 18.7132C6.188 18.7082 6.20989 18.708 6.22358 18.7143C6.28383 18.7576 6.35229 18.7945 6.39615 18.8507C6.65105 19.16 6.91414 19.4517 7.21275 19.7156C7.22371 19.724 7.23193 19.7345 7.2347 19.755C7.21552 19.7417 7.19362 19.7305 7.17444 19.7116C6.9854 19.5373 6.78544 19.3827 6.55548 19.2912C6.27625 19.1816 6.00532 19.1334 5.7455 19.2008C5.73729 19.2016 5.73182 19.2058 5.72362 19.2066C5.72088 19.2087 5.71815 19.2109 5.70996 19.2229C5.73737 19.258 5.76479 19.2987 5.8004 19.3274C6.09901 19.5913 6.41668 19.7895 6.76703 19.883C6.92852 19.9264 7.07625 19.9183 7.18826 19.8082C7.19919 19.7996 7.22381 19.7917 7.23749 19.798C7.30321 19.8314 7.37439 19.8605 7.43738 19.9074C7.76334 20.1612 8.09747 20.3917 8.44796 20.5812C8.46986 20.5923 8.49178 20.6091 8.51368 20.6203C8.51096 20.628 8.51097 20.6337 8.50824 20.6415C8.47539 20.6276 8.44254 20.6193 8.41516 20.6012C8.22895 20.4924 8.04277 20.4062 7.84573 20.3737C7.56112 20.3248 7.31495 20.3703 7.11272 20.5339C7.05807 20.5766 7.06082 20.5858 7.13204 20.6431C7.2553 20.7389 7.38946 20.8036 7.52633 20.8549C7.71796 20.9255 7.9123 20.9828 8.10105 20.9652C8.2734 20.9492 8.41831 20.8869 8.48372 20.7115C8.48918 20.7016 8.49737 20.6895 8.50557 20.6887C8.56851 20.6961 8.63416 20.6843 8.69166 20.7129C9.01473 20.8673 9.3405 20.9913 9.67442 21.0751C9.68536 21.0778 9.69631 21.0806 9.71 21.0868C9.71547 21.0882 9.71548 21.0938 9.7374 21.1163C9.69362 21.1109 9.66353 21.1118 9.63341 21.1015C9.43907 21.0442 9.24752 21.0187 9.07249 21.0707C8.80995 21.1516 8.63512 21.3334 8.52332 21.5902C8.52059 21.598 8.5206 21.6036 8.5179 21.6283C8.57813 21.6491 8.63562 21.6776 8.6931 21.6892C9.04613 21.7524 9.36346 21.7192 9.61213 21.5136C9.68591 21.4503 9.72409 21.364 9.73214 21.256C9.73747 21.1614 9.79485 21.1109 9.89611 21.1279C10.1698 21.1796 10.4352 21.1926 10.6978 21.1739L10.8702 21.1579C10.8729 21.167 10.8757 21.1705 10.8784 21.1797C10.8538 21.1876 10.8319 21.1991 10.81 21.1992C10.665 21.2051 10.5255 21.2237 10.4052 21.2895C10.1592 21.4252 10.0364 21.6624 9.98215 21.959C9.97402 22.0106 9.96863 22.0657 9.96052 22.1341C10.0289 22.1372 10.0864 22.1488 10.1411 22.14C10.4365 22.0956 10.6826 21.9712 10.8436 21.721C10.9201 21.5992 10.9554 21.4585 10.9114 21.2895C10.8949 21.229 10.9522 21.139 11.0124 21.1259C11.2148 21.0864 11.4062 21.0159 11.5839 20.9279C11.6003 20.9208 11.614 20.9101 11.6304 20.8973C11.5947 20.8404 11.5564 20.8251 11.5127 20.848C11.3322 20.9381 11.1408 20.9973 10.9384 21.0368C10.8345 21.0558 10.7605 21.0232 10.692 20.9129C10.5521 20.6945 10.3713 20.525 10.1577 20.3924C9.92492 20.2522 9.69226 20.1854 9.45971 20.1919C9.44329 20.1934 9.42415 20.1971 9.39405 20.198C9.42694 20.2345 9.4516 20.2604 9.47626 20.2863C9.67902 20.4839 9.86811 20.6921 10.0927 20.8613C10.2625 20.9885 10.435 21.0515 10.6155 21.0404C10.6402 21.0381 10.6648 21.0358 10.6867 21.0244C10.7249 20.9945 10.7496 21.0148 10.788 21.0639C10.7688 21.0676 10.7551 21.0726 10.7387 21.0741C10.4132 21.1138 10.0794 21.0921 9.73178 21.0133C9.63872 20.99 9.58113 20.8994 9.55092 20.8213C9.40812 20.4639 9.16694 20.1833 8.86565 19.9554C8.71226 19.8379 8.54524 19.7537 8.37279 19.6964C8.35636 19.6922 8.34268 19.6916 8.31531 19.6848C8.37016 19.7719 8.41953 19.8519 8.46888 19.9264C8.5676 20.0753 8.66358 20.2263 8.76776 20.3709C8.91033 20.5703 9.07202 20.7547 9.29103 20.8435C9.35674 20.8713 9.43064 20.8926 9.49905 20.8957C9.55651 20.9016 9.58391 20.9254 9.61683 20.9901C9.52924 20.9625 9.45261 20.9433 9.37596 20.9184C9.09402 20.8279 8.81752 20.7162 8.54917 20.5643C8.46976 20.519 8.42311 20.4255 8.40931 20.3458C8.299 19.754 7.95089 19.3197 7.45517 18.9781C7.44421 18.9697 7.43326 18.967 7.42231 18.9586C7.41957 18.9551 7.4141 18.9594 7.40589 18.9601C7.5432 19.3049 7.64222 19.6569 7.85609 19.9757C7.98497 20.1689 8.14115 20.3237 8.35193 20.3963C8.38204 20.4067 8.40673 20.4496 8.43139 20.4755C8.42866 20.4833 8.4232 20.4875 8.42321 20.4932L8.28356 20.4158C7.94398 20.2065 7.62079 19.9731 7.31122 19.7008C7.29753 19.6889 7.28109 19.6735 7.2756 19.6608C7.2481 19.5693 7.20419 19.4793 7.22594 19.3832C7.26123 19.1975 7.20622 18.9975 7.13752 18.7969C7.02487 18.4724 6.83021 18.2008 6.58908 17.9541C6.5836 17.9471 6.57539 17.9422 6.56717 17.9373C6.56445 17.9451 6.55898 17.9494 6.56172 17.9529C6.6004 18.2052 6.62539 18.4568 6.67502 18.7119C6.71915 18.9543 6.81525 19.1843 7.00431 19.3756C7.04267 19.4134 7.08651 19.4526 7.13032 19.4749C7.19602 19.5027 7.20156 19.5492 7.21535 19.6232C7.11124 19.5237 7.01535 19.4404 6.9304 19.3486C6.71665 19.1144 6.51384 18.8774 6.30555 18.6389C6.26444 18.5919 6.23137 18.4313 6.2532 18.3917C6.37055 18.1926 6.35652 17.9493 6.29869 17.6951C6.2381 17.426 6.11461 17.1778 5.94738 16.9469L5.91722 16.9083C5.91448 16.9048 5.90901 16.9034 5.89805 16.895C5.89538 16.9366 5.88723 16.9769 5.88455 17.0185C5.86841 17.2007 5.84678 17.3814 5.84158 17.5663C5.83644 17.7906 5.89696 18.0146 6.04502 18.2266C6.08341 18.2814 6.12726 18.3319 6.1711 18.3767C6.21767 18.4194 6.21499 18.4554 6.20961 18.5161C6.16575 18.46 6.13012 18.42 6.09996 18.3758C5.87239 18.0507 5.6585 17.7206 5.47741 17.3705C5.42528 17.27 5.43607 17.1655 5.50439 17.1121C5.65469 16.9891 5.69545 16.799 5.70061 16.5916C5.70845 16.3425 5.63422 16.0954 5.52441 15.8478C5.52167 15.8443 5.51892 15.8352 5.51344 15.8281C5.5107 15.8246 5.50522 15.8233 5.50248 15.8197C5.49975 15.8219 5.49428 15.8205 5.49154 15.8226C5.40974 16.0109 5.31699 16.1963 5.24614 16.3929C5.18621 16.5697 5.19471 16.7665 5.30445 16.9689C5.32914 17.0118 5.35382 17.0546 5.38945 17.0946C5.42782 17.1381 5.42239 17.1706 5.4033 17.2137C5.39234 17.1997 5.37864 17.1878 5.37315 17.1751C5.19478 16.8116 5.04649 16.4416 4.92828 16.065C4.91454 16.0192 4.95815 15.906 4.99917 15.8966C5.27266 15.8185 5.36534 15.5879 5.39228 15.3013C5.40575 15.1608 5.38911 15.0099 5.34784 14.8501C5.31778 14.8736 5.28771 14.8914 5.26585 14.9141C5.14018 15.0349 4.99805 15.1347 4.91347 15.2968C4.82616 15.4611 4.81275 15.6411 4.9225 15.8491C4.94993 15.9011 4.92534 15.9204 4.90077 15.9565C4.88978 15.9255 4.88154 15.9094 4.87604 15.8911C4.78804 15.5869 4.72193 15.2826 4.68318 14.9795C4.67763 14.9217 4.73222 14.8395 4.78147 14.8349C5.11796 14.8093 5.27085 14.5882 5.31413 14.2549C5.32769 14.1709 5.31661 14.0778 5.31647 13.9875C5.30826 13.9826 5.30278 13.9813 5.29457 13.9764C5.26996 13.99 5.23989 14.0022 5.21528 14.0157C5.07858 14.083 4.93092 14.1362 4.82438 14.2477C4.69871 14.3798 4.63055 14.5404 4.71024 14.7719C4.72673 14.8212 4.72399 14.8233 4.66384 14.8534C4.65546 14.7356 4.64162 14.6278 4.64147 14.5205C4.64123 14.3625 4.64374 14.208 4.64624 14.0478C4.64894 14.0231 4.65437 13.9963 4.66803 13.98C4.86202 13.8002 4.91363 13.5451 4.86667 13.2428C4.84456 13.0906 4.79509 12.9371 4.72373 12.7895C4.71824 12.7768 4.70728 12.7628 4.6963 12.7431C4.65811 12.8181 4.62264 12.8854 4.58717 12.9527C4.5026 13.1148 4.42623 13.2818 4.42928 13.4941C4.43226 13.6613 4.4708 13.8177 4.5996 13.96C4.60782 13.9705 4.61606 13.9923 4.61335 14.0057C4.59196 14.3445 4.61162 14.6908 4.65591 15.0404C4.65866 15.0495 4.6532 15.0594 4.65595 15.0686C4.65048 15.0672 4.64501 15.0715 4.63954 15.0701C4.6258 15.03 4.60111 14.9871 4.60106 14.9533C4.58686 14.5971 4.4523 14.2615 4.23022 13.9435C4.13425 13.8037 4.02189 13.6768 3.91499 13.5456C3.89854 13.5246 3.87664 13.5134 3.83829 13.4813C3.84394 13.6011 3.84134 13.6992 3.85518 13.8014C3.8939 14.0876 3.97913 14.3713 4.15189 14.6375C4.2561 14.799 4.37395 14.9386 4.55189 15.003C4.56558 15.0092 4.58475 15.0225 4.59024 15.0352C4.6396 15.1096 4.68348 15.1827 4.6973 15.2736C4.74429 15.6041 4.83234 15.9365 4.93952 16.2652L4.95602 16.3201C4.95329 16.3223 4.94508 16.323 4.94235 16.3252C4.92863 16.2963 4.90396 16.2648 4.89571 16.2373C4.81038 15.8915 4.63209 15.5844 4.39364 15.3018C4.24564 15.1292 4.08127 14.9865 3.89232 14.8742C3.88137 14.8658 3.87042 14.863 3.84851 14.8519C3.85678 14.8906 3.85683 14.9245 3.86782 14.9555C3.99428 15.3652 4.19457 15.7455 4.49602 16.0806C4.59742 16.1935 4.71791 16.2689 4.85202 16.2997C4.86844 16.3038 4.89308 16.3128 4.89857 16.3255C4.9534 16.3956 5.00821 16.4602 5.04117 16.5474C5.16204 16.8768 5.31025 17.196 5.48581 17.5052C5.48856 17.5087 5.4913 17.5179 5.48038 17.5321C5.45845 17.504 5.42832 17.4767 5.40912 17.4465C5.30216 17.2758 5.20887 17.0944 5.09099 16.9323C4.84699 16.5974 4.54024 16.3794 4.17891 16.2606C4.17344 16.2592 4.16797 16.2635 4.14881 16.2615C4.17626 16.3191 4.1955 16.3776 4.22568 16.4331C4.41497 16.7768 4.64798 17.0863 4.94111 17.3432C5.07535 17.4643 5.2232 17.5352 5.38187 17.5243C5.39281 17.5214 5.40924 17.5255 5.41472 17.5325C5.475 17.5928 5.55169 17.6459 5.59283 17.7154C5.7903 18.0414 6.00963 18.3503 6.23717 18.6528C6.24265 18.6598 6.24814 18.6725 6.25362 18.6795C6.25089 18.6816 6.24543 18.6859 6.24543 18.6915C6.22351 18.6691 6.19338 18.6475 6.1742 18.6229C6.03987 18.4453 5.90555 18.2678 5.73571 18.1293C5.43987 17.8914 5.13048 17.7433 4.79391 17.7124C4.7857 17.7076 4.77475 17.7048 4.75013 17.7071Z" fill="white"/>
<circle cx="11.9999" cy="13.9999" r="5.90909" fill="#3C3C45"/>
<circle cx="12.0004" cy="14" r="5.1108" fill="#3C3C45" stroke="#DBBF7A" stroke-width="0.6875"/>
<path d="M9.72754 11.0949C9.72754 11.0676 9.7497 11.0454 9.77704 11.0454H14.2235C14.2508 11.0454 14.273 11.0676 14.273 11.0949V13.7727C14.273 15.0279 13.2555 16.0454 12.0003 16.0454C10.7451 16.0454 9.72754 15.0279 9.72754 13.7727V11.0949Z" fill="white"/>
<mask id="path-10-inside-1_1240_38599" fill="white">
<path d="M8.81836 11.7385C8.81836 11.7322 8.82342 11.7272 8.82967 11.7272H10.1365C10.4127 11.7272 10.6365 11.951 10.6365 12.2272V13.9909C10.6365 13.9959 10.6325 13.9999 10.6275 13.9999C9.62834 13.9999 8.81836 13.1899 8.81836 12.1908V11.7385Z"/>
</mask>
<path d="M8.81836 11.7385C8.81836 11.7322 8.82342 11.7272 8.82967 11.7272H10.1365C10.4127 11.7272 10.6365 11.951 10.6365 12.2272V13.9909C10.6365 13.9959 10.6325 13.9999 10.6275 13.9999C9.62834 13.9999 8.81836 13.1899 8.81836 12.1908V11.7385Z" stroke="white" stroke-width="1.81818" mask="url(#path-10-inside-1_1240_38599)"/>
<mask id="path-11-inside-2_1240_38599" fill="white">
<path d="M15.1816 11.7385C15.1816 11.7322 15.1766 11.7272 15.1703 11.7272H13.8635C13.5873 11.7272 13.3635 11.951 13.3635 12.2272V13.9909C13.3635 13.9959 13.3675 13.9999 13.3725 13.9999C14.3717 13.9999 15.1816 13.1899 15.1816 12.1908V11.7385Z"/>
</mask>
<path d="M15.1816 11.7385C15.1816 11.7322 15.1766 11.7272 15.1703 11.7272H13.8635C13.5873 11.7272 13.3635 11.951 13.3635 12.2272V13.9909C13.3635 13.9959 13.3675 13.9999 13.3725 13.9999C14.3717 13.9999 15.1816 13.1899 15.1816 12.1908V11.7385Z" stroke="white" stroke-width="1.81818" mask="url(#path-11-inside-2_1240_38599)"/>
<rect x="11.7725" y="15.5908" width="0.454546" height="1.81818" fill="white"/>
<rect x="13.8184" y="17.1818" width="0.454546" height="3.63636" rx="0.227273" transform="rotate(90 13.8184 17.1818)" fill="white"/>
<path fill-rule="evenodd" clip-rule="evenodd" d="M12.1723 13.7493C12.0648 13.6928 11.9364 13.6928 11.8289 13.7493C11.6259 13.856 11.3887 13.6836 11.4275 13.4576C11.448 13.3379 11.4083 13.2158 11.3214 13.131C11.1571 12.9709 11.2478 12.692 11.4747 12.6591C11.5949 12.6416 11.6988 12.5661 11.7525 12.4572C11.854 12.2516 12.1473 12.2516 12.2488 12.4572C12.3025 12.5661 12.4064 12.6416 12.5265 12.6591C12.7535 12.692 12.8441 12.9709 12.6799 13.131C12.5929 13.2158 12.5533 13.3379 12.5738 13.4576C12.6126 13.6836 12.3753 13.856 12.1723 13.7493Z" fill="#DBBF7A"/>
<path fill-rule="evenodd" clip-rule="evenodd" d="M11.9996 7.06819L11.3317 7.41935L11.4593 6.67559L10.9189 6.14886L11.6657 6.04034L11.9996 5.36365L12.3336 6.04034L13.0804 6.14886L12.54 6.67559L12.6676 7.41935L11.9996 7.06819Z" fill="white"/>
<path fill-rule="evenodd" clip-rule="evenodd" d="M7.90909 8.3181L7.37474 8.59903L7.47679 8.00402L7.04449 7.58263L7.64192 7.49582L7.90909 6.95447L8.17627 7.49582L8.77369 7.58263L8.34139 8.00402L8.44344 8.59903L7.90909 8.3181Z" fill="white"/>
<path fill-rule="evenodd" clip-rule="evenodd" d="M16.0907 8.3181L15.5564 8.59903L15.6584 8.00402L15.2261 7.58263L15.8236 7.49582L16.0907 6.95447L16.3579 7.49582L16.9553 7.58263L16.523 8.00402L16.6251 8.59903L16.0907 8.3181Z" fill="white"/>
<path fill-rule="evenodd" clip-rule="evenodd" d="M5.40909 11.0454L4.87474 11.3263L4.97679 10.7313L4.54449 10.3099L5.14192 10.2231L5.40909 9.68176L5.67627 10.2231L6.27369 10.3099L5.84139 10.7313L5.94344 11.3263L5.40909 11.0454Z" fill="white"/>
<path fill-rule="evenodd" clip-rule="evenodd" d="M18.5907 11.0454L18.0564 11.3263L18.1584 10.7313L17.7261 10.3099L18.3236 10.2231L18.5907 9.68176L18.8579 10.2231L19.4553 10.3099L19.023 10.7313L19.1251 11.3263L18.5907 11.0454Z" fill="white"/>
</g>
</g>
<defs>
<linearGradient id="paint0_linear_1240_38599" x1="12" y1="0" x2="12" y2="30" gradientUnits="userSpaceOnUse">
<stop stop-color="#EB8622"/>
<stop offset="1" stop-color="#CA9246"/>
</linearGradient>
<linearGradient id="paint1_linear_1240_38599" x1="12" y1="2" x2="12" y2="32" gradientUnits="userSpaceOnUse">
<stop stop-color="#F4B762"/>
<stop offset="1" stop-color="#E8750C"/>
</linearGradient>
<linearGradient id="paint2_linear_1240_38599" x1="-1.01222" y1="15.6489" x2="13.0632" y2="27.3764" gradientUnits="userSpaceOnUse">
<stop stop-color="#FF7171"/>
<stop offset="1" stop-color="#F90000"/>
</linearGradient>
<clipPath id="clip0_1240_38599">
<rect width="20" height="20" fill="white" transform="translate(2 4)"/>
</clipPath>
</defs>
</svg>
