<svg width="20" height="20" viewBox="0 0 20 20" fill="none" xmlns="http://www.w3.org/2000/svg">
<g id="refresh">
<path id="Ellipse 3393 (Stroke)" fill-rule="evenodd" clip-rule="evenodd" d="M5.24945 9.01879L3.63104 8.69297C3.54511 9.11466 3.5 9.55135 3.5 9.99887C3.5 13.5887 6.41015 16.4989 10 16.4989C11.9108 16.4989 13.628 15.6756 14.8187 14.3613L15.8842 16.1329C14.3579 17.5972 12.2837 18.4989 10 18.4989C5.30558 18.4989 1.5 14.6933 1.5 9.99887C1.5 8.17403 2.07617 6.48091 3.05633 5.09521L5.24945 9.01879Z" fill="#179CFF"/>
<path id="Ellipse 3393 (Stroke)_2" fill-rule="evenodd" clip-rule="evenodd" d="M14.7652 11.0183L16.3836 11.3441C16.4695 10.9225 16.5146 10.4858 16.5146 10.0382C16.5146 6.44839 13.6045 3.53824 10.0146 3.53824C8.10382 3.53824 6.38667 4.36149 5.19597 5.67577L4.13042 3.90426C5.65671 2.4399 7.73096 1.53824 10.0146 1.53824C14.7091 1.53824 18.5146 5.34382 18.5146 10.0382C18.5146 11.8631 17.9385 13.5562 16.9583 14.9419L14.7652 11.0183Z" fill="#179CFF"/>
</g>
</svg>
