<?xml version="1.0" encoding="UTF-8"?>
<svg width="12px" height="12px" viewBox="0 0 12 12" version="1.1" xmlns="http://www.w3.org/2000/svg" xmlns:xlink="http://www.w3.org/1999/xlink">
    <!-- Generator: Sketch 58 (84663) - https://sketch.com -->
    <title>关闭</title>
    <desc>Created with Sketch.</desc>
    <g id="页面-1" stroke="none" stroke-width="1" fill="none" fill-rule="evenodd">
        <g id="混合投注-点击问号" transform="translate(-309.000000, -103.000000)" fill-rule="nonzero">
            <g id="编组">
                <g id="编组-5" transform="translate(38.000000, 87.000000)">
                    <g id="编组-4">
                        <g id="关闭" transform="translate(269.000000, 14.000000)">
                            <rect id="矩形" fill="#000000" opacity="0" x="0" y="0" width="16" height="16"></rect>
                            <path d="M13.2318906,12.48475 L8.78128125,8.03414062 L13.2318906,3.58164062 C13.4461719,3.36735937 13.4461719,3.0184375 13.2318906,2.80415625 C13.0176094,2.589875 12.6686875,2.589875 12.4544062,2.80415625 L8.00379687,7.25476562 L3.55129687,2.80415625 C3.33701562,2.589875 2.98809375,2.589875 2.7738125,2.80415625 C2.55953125,3.0184375 2.55953125,3.36735937 2.7738125,3.58164062 L7.2263125,8.03414062 L2.7738125,12.48475 C2.55953125,12.6990312 2.55953125,13.0479531 2.7738125,13.2622344 C2.98809375,13.4765156 3.33701562,13.4765156 3.55129687,13.2622344 L8.00379687,8.80973437 L12.4562969,13.2622344 C12.6705781,13.4765156 13.0195,13.4765156 13.2337812,13.2622344 C13.4461719,13.0479531 13.4461719,12.6990312 13.231875,12.48475 L13.2318906,12.48475 Z" id="路径" fill="#FFFFFF"></path>
                        </g>
                    </g>
                </g>
            </g>
        </g>
    </g>
</svg>