<?xml version="1.0" encoding="UTF-8"?>
<svg width="24px" height="24px" viewBox="0 0 24 24" version="1.1" xmlns="http://www.w3.org/2000/svg" xmlns:xlink="http://www.w3.org/1999/xlink">
    <!-- Generator: Sketch 61.1 (89650) - https://sketch.com -->
    <title>shoucang</title>
    <desc>Created with Sketch.</desc>
    <g id="shoucang" stroke="none" stroke-width="1" fill="none" fill-rule="evenodd">
        <g id="编组-2">
            <rect id="矩形" fill="#D8D8D8" opacity="0" x="0" y="0" width="24" height="24"></rect>
            <g id="编组" transform="translate(4.000000, 2.000000)" fill="#9AA4C2">
                <path d="M14,0.25 L2,0.25 C1.03350169,0.25 0.25,1.03350169 0.25,2 L0.25,17.3282579 C0.25,17.6170921 0.32149102,17.9014357 0.458095759,18.1559241 L0.535169674,18.2859275 C1.02629626,19.0390028 2.02091547,19.3032113 2.82766618,18.8701622 L8.206,15.982 L13.1317983,18.7963237 C13.3962094,18.9474061 13.6954691,19.0268745 14,19.0268745 C14.9664983,19.0268745 15.75,18.2433728 15.75,17.2768745 L15.75,2 C15.75,1.03350169 14.9664983,0.25 14,0.25 Z M2,1.75 L14,1.75 C14.1380712,1.75 14.25,1.86192881 14.25,2 L14.25,17.2768745 C14.25,17.4149457 14.1380712,17.5268745 14,17.5268745 C13.9564956,17.5268745 13.9137442,17.5155219 13.8759712,17.4939387 L8.22997595,14.2678601 L2.11823803,17.54853 C1.99658514,17.613831 1.84502902,17.5681488 1.77972797,17.446496 C1.760213,17.4101405 1.75,17.36952 1.75,17.3282579 L1.75,2 C1.75,1.86192881 1.86192881,1.75 2,1.75 Z" id="矩形" fill-rule="nonzero"></path>
                <rect id="矩形" x="5" y="4.5" width="6" height="1.5" rx="0.75"></rect>
            </g>
        </g>
    </g>
</svg>