<?xml version="1.0" encoding="UTF-8"?>
<svg width="18px" height="18px" viewBox="0 0 18 18" version="1.1" xmlns="http://www.w3.org/2000/svg" xmlns:xlink="http://www.w3.org/1999/xlink">
    <title>黄色晒单勾选备份</title>
    <g id="页面-1" stroke="none" stroke-width="1" fill="none" fill-rule="evenodd">
        <g id="画板备份" transform="translate(-115.000000, -398.000000)" fill="#FFB001">
            <g id="晒单勾选" transform="translate(115.000000, 398.000000)">
                <path d="M9,0 C13.9705627,-9.13077564e-16 18,4.02943725 18,9 L18,16 C18,17.1045695 17.1045695,18 16,18 L9,18 C4.02943725,18 6.08718376e-16,13.9705627 0,9 L0,2 C-1.3527075e-16,0.8954305 0.8954305,2.02906125e-16 2,0 L9,0 Z M12.7275305,6.27246948 C12.3642379,5.90917684 11.7752242,5.90917684 11.4119315,6.27246948 L11.4119315,6.27246948 L8.12205693,9.56058993 L6.58806848,8.02660149 C6.22477585,7.66330885 5.63576211,7.66330885 5.27246948,8.02660149 C4.90917684,8.38989412 4.90917684,8.97890786 5.27246948,9.3422005 L5.27246948,9.3422005 L7.46513449,11.5348655 C7.82842712,11.8981581 8.41744086,11.8981581 8.7807335,11.5348655 L8.7807335,11.5348655 L12.7275305,7.58806848 C13.0908232,7.22477585 13.0908232,6.63576211 12.7275305,6.27246948 Z" id="形状结合"></path>
            </g>
        </g>
    </g>
</svg>