<?xml version="1.0" encoding="UTF-8"?>
<svg width="24px" height="24px" viewBox="0 0 24 24" version="1.1" xmlns="http://www.w3.org/2000/svg" xmlns:xlink="http://www.w3.org/1999/xlink">
    <!-- Generator: Sketch 61.1 (89650) - https://sketch.com -->
    <title>shuaxin-xuanzhong</title>
    <desc>Created with Sketch.</desc>
    <g id="shuaxin-xuanzhong" stroke="none" stroke-width="1" fill="none" fill-rule="evenodd">
        <g id="编组">
            <rect id="矩形" fill="#D8D8D8" opacity="0" x="0" y="0" width="24" height="24"></rect>
            <path d="M20.9250822,12.267642 L21.0269801,12.272218 C21.438596,12.3185338 21.7347303,12.689761 21.6884144,13.1013769 C21.1365342,18.0060181 16.9745916,21.75 12,21.75 C8.34829226,21.75 5.0547194,19.7243321 3.37726594,16.5547935 C3.183509,16.1886909 3.32322278,15.734835 3.68932539,15.5410781 C4.05542801,15.3473212 4.50928385,15.4870349 4.70304079,15.8531375 C6.12305434,18.536245 8.90948202,20.25 12,20.25 C16.2089868,20.25 19.7310848,17.0816067 20.1978211,12.9336523 C20.2364177,12.590639 20.500647,12.3278213 20.825855,12.2765468 L20.9250822,12.267642 Z M12,2.25 C15.7611763,2.25 19.1367225,4.39930979 20.7614417,7.71756583 C20.9435911,8.0895799 20.7896754,8.53881816 20.4176614,8.72096758 C20.0456473,8.903117 19.596409,8.74920129 19.4142596,8.37718722 C18.0390362,5.56849051 15.1830501,3.75 12,3.75 C7.78341383,3.75 4.25723386,6.92956156 3.79990746,11.0867623 C3.7546138,11.498492 3.38412314,11.7955472 2.97239343,11.7502535 C2.56066371,11.7049598 2.2636086,11.3344692 2.30890227,10.9227395 C2.8496536,6.00718704 7.01642862,2.25 12,2.25 Z" id="形状" fill="#414655" fill-rule="nonzero"></path>
            <path d="M2,14.4879216 L2,18.16775 C2,18.388664 2.1790861,18.5677501 2.40000001,18.5677501 C2.49082861,18.5677501 2.57895281,18.5368378 2.64987803,18.4800976 L6.32970651,15.5362348 C6.50221129,15.398231 6.53017984,15.146514 6.39217601,14.9740092 C6.33338367,14.9005188 6.25056098,14.8501122 6.15827494,14.831655 L2.47844646,14.0956893 C2.26182256,14.0523645 2.05109251,14.1928512 2.00776773,14.4094751 C2.00260188,14.4353044 2,14.4615808 2,14.4879216 Z" id="路径-19" fill="#414655"></path>
            <path d="M17,5.48792157 L17,9.16775005 C17,9.38866395 17.1790861,9.56775005 17.4,9.56775005 C17.4908286,9.56775005 17.5789528,9.53683775 17.649878,9.48009758 L21.3297065,6.53623479 C21.5022113,6.39823097 21.5301798,6.14651402 21.392176,5.97400924 C21.3333837,5.90051882 21.250561,5.8501122 21.1582749,5.83165499 L17.4784465,5.09568929 C17.2618226,5.05236451 17.0510925,5.19285121 17.0077677,5.40947511 C17.0026019,5.43530439 17,5.46158077 17,5.48792157 Z" id="路径-19" fill="#414655" transform="translate(19.500000, 7.500000) scale(-1, -1) translate(-19.500000, -7.500000) "></path>
        </g>
    </g>
</svg>