<?xml version="1.0" encoding="UTF-8"?>
<svg width="22px" height="16px" viewBox="0 0 22 16" version="1.1" xmlns="http://www.w3.org/2000/svg" xmlns:xlink="http://www.w3.org/1999/xlink">
    <!-- Generator: Sketch 58 (84663) - https://sketch.com -->
    <title>Icon/tab_dianjing_normal</title>
    <desc>Created with Sketch.</desc>
    <g id="专业版" stroke="none" stroke-width="1" fill="none" fill-rule="evenodd">
        <g id="投注区切图" transform="translate(-225.000000, -198.000000)" fill="#CBCED8">
            <g id="Icon/tab_dianjing_normal" transform="translate(225.000000, 195.000000)">
                <g id="Tabbar/Sports/BetSheet/_resource/Icon_eSports">
                    <path d="M18.2431328,10.3077535 C17.5669996,10.3077535 17.0251581,9.74459686 17.0518331,9.05836505 C17.0756664,8.44769439 17.5703913,7.94127782 18.1767661,7.90806412 C18.8638076,7.8705142 19.4365408,8.42038535 19.4365408,9.1069862 C19.4365408,9.77098329 18.9002909,10.3077535 18.2431328,10.3077535 M15.2721252,8.53432677 C14.5953503,8.53432677 14.0531421,7.97006302 14.0809171,7.28355442 C14.1056671,6.67297602 14.600942,6.16748206 15.2071335,6.13500645 C15.8935333,6.09828686 16.4654415,6.64741993 16.4654415,7.33402079 C16.4654415,7.99792562 15.9292833,8.53432677 15.2721252,8.53432677 M15.2721252,11.8378899 C14.595167,11.8378899 14.0528671,11.2730726 14.0809171,10.5862872 C14.1058504,9.97580107 14.6013087,9.47049163 15.2075002,9.43820054 C15.8937167,9.40175773 16.4654415,9.95079854 16.4654415,10.6372149 C16.4654415,11.301212 15.9292833,11.8378899 15.2721252,11.8378899 M8.35853517,10.1714851 L6.8513522,10.1714851 L6.8513522,11.6336257 C6.8513522,11.6336257 6.53216894,11.8788535 6.0381774,11.8725798 C5.54510252,11.8651989 5.32189424,11.6051173 5.32189424,11.6051173 L5.32189424,10.1718541 L3.89840292,10.1718541 C3.89840292,10.1718541 3.72066129,9.98862525 3.67317797,9.50591957 C3.62633632,9.02321389 3.86961959,8.63304525 3.86961959,8.63304525 L5.37735256,8.63304525 L5.37735256,7.11600979 C5.37735256,7.11600979 5.68736915,6.94874194 6.13341904,6.96156612 C6.57974393,6.97558968 6.90671885,7.14442595 6.90671885,7.14442595 L6.90057719,8.63258395 L8.32406851,8.63258395 C8.32406851,8.63258395 8.57276012,8.95383417 8.59329344,9.34197309 C8.61373511,9.73048104 8.35853517,10.1714851 8.35853517,10.1714851 M20.032924,6.2604804 C17.127183,1.4554738 12.7498258,4.7983398 12.7498258,4.7983398 C12.4660258,5.01432107 11.9425176,5.19182981 11.5868511,5.19266015 L10.414343,5.19349049 C10.0586764,5.19395179 9.53516822,5.01635079 9.25164328,4.80046179 C9.25164328,4.80046179 4.87391935,1.45667318 1.96772005,6.26167978 C-0.937654241,11.0650257 0.233203808,16.2960902 0.233203808,16.2960902 C0.438353758,17.5769394 1.11439526,18.4316384 2.39030328,18.3242475 C3.66245297,18.2173178 6.42391064,14.8748209 6.42391064,14.8748209 C6.65197725,14.5995163 7.12992713,14.3744935 7.48476871,14.3744935 L14.5138587,14.3732018 C14.8691586,14.3732018 15.3467418,14.5982246 15.5744417,14.8737138 C15.5744417,14.8737138 18.3362661,18.2161185 19.6104324,18.3230481 C20.8845988,18.430439 21.562382,17.5749096 21.7663402,16.2948908 C21.7658819,16.2948908 22.9388483,11.0646567 20.032924,6.2604804" id="Fill-1"></path>
                </g>
            </g>
        </g>
    </g>
</svg>