<?xml version="1.0" encoding="UTF-8"?>
<svg width="20px" height="20px" viewBox="0 0 20 20" version="1.1" xmlns="http://www.w3.org/2000/svg" xmlns:xlink="http://www.w3.org/1999/xlink">
    <!-- Generator: Sketch 58 (84663) - https://sketch.com -->
    <title>Icon/tab_pingpang_normal</title>
    <desc>Created with Sketch.</desc>
    <g id="专业版" stroke="none" stroke-width="1" fill="none" fill-rule="evenodd">
        <g id="投注区切图" transform="translate(-260.000000, -238.000000)" fill="#CBCED8">
            <g id="Icon/tab_pingpang_normal" transform="translate(259.000000, 237.000000)">
                <g id="Tabbar/Sports/BetSheet/_resource/Icon_pingpang">
                    <path d="M18.0776199,15.9205761 C19.2313763,15.9205761 20.1666667,16.8710675 20.1666667,18.0435755 C20.1666667,19.2160836 19.2313763,20.1666667 18.0776199,20.1666667 C16.9238636,20.1666667 15.9885732,19.2160836 15.9885732,18.0435755 C15.9885732,16.8710675 16.9238636,15.9205761 18.0776199,15.9205761 Z M4.08794332,8.01122971 L12.9064085,16.9729275 C12.6285003,17.0278358 12.3467135,17.0672524 12.0624011,17.0899858 C10.4088431,17.2218024 8.75853224,16.7953692 7.37855272,15.8851194 L7.37855272,15.8851194 L4.16470406,19.1511103 C4.09055914,19.2264602 3.99332286,19.2641352 3.89608657,19.2641352 C3.79876009,19.2641352 3.701614,19.2264602 3.62755928,19.1511103 L3.62755928,19.1511103 L1.94468602,17.4408857 C1.79621577,17.2900941 1.79621577,17.0457108 1.94468602,16.8950108 L1.94468602,16.8950108 L5.15835427,13.6289283 C4.26275216,12.226612 3.8429584,10.5492041 3.97284731,8.86895449 C3.99512687,8.57992956 4.03391314,8.29365464 4.08794332,8.01122971 L4.08794332,8.01122971 Z M16.786452,4.06805153 C19.7184236,7.04758411 19.7184236,11.8959246 16.7863618,14.8754572 C16.1475007,15.5247014 15.4033032,16.0464725 14.5937434,16.4224219 L14.2871727,16.5565317 L4.49769775,6.60785922 C4.873203,5.66442613 5.43307834,4.79845134 6.15188721,4.06805153 C9.08376867,1.08851894 13.8544803,1.0883356 16.786452,4.06805153 Z" id="形状结合"></path>
                </g>
            </g>
        </g>
    </g>
</svg>