<?xml version="1.0" encoding="UTF-8"?>
<svg width="16px" height="20px" viewBox="0 0 16 20" version="1.1" xmlns="http://www.w3.org/2000/svg" xmlns:xlink="http://www.w3.org/1999/xlink">
    <!-- Generator: Sketch 58 (84663) - https://sketch.com -->
    <title>tab_yjs2</title>
    <desc>Created with Sketch.</desc>
    <g id="页面-1" stroke="none" stroke-width="1" fill="none" fill-rule="evenodd">
        <g id="画板" transform="translate(-194.000000, -76.000000)" fill="#414655" fill-rule="nonzero">
            <g id="tab_yjs2" transform="translate(194.000000, 76.000000)">
                <path d="M10.3106602,0.25 L15.75,5.68933983 L15.75,18 C15.75,18.9664983 14.9664983,19.75 14,19.75 L2,19.75 C1.0335017,19.75 0.25,18.9664983 0.25,18 L0.25,2 C0.25,1.03350169 1.03350169,0.25 2,0.25 L10.3106602,0.25 Z M8.25,1.75 L2,1.75 C1.86192881,1.75 1.75,1.86192881 1.75,2 L1.75,18 C1.75,18.1380712 1.86192884,18.25 2,18.25 L14,18.25 C14.1380711,18.25 14.25,18.1380711 14.25,18 L14.25,7.75 L10,7.75 C9.03350169,7.75 8.25,6.96649831 8.25,6 L8.25,1.75 Z M5.64644661,9.64644661 C5.84170876,9.45118446 6.15829124,9.45118446 6.35355339,9.64644661 L6.35355339,9.64644661 L8,11.2928932 L9.64644661,9.64644661 C9.84170876,9.45118446 10.1582912,9.45118446 10.3535534,9.64644661 C10.5488155,9.84170876 10.5488155,10.1582912 10.3535534,10.3535534 L10.3535534,10.3535534 L8.707,12 L10,12 C10.2761424,12 10.5,12.2238576 10.5,12.5 C10.5,12.7454599 10.3231248,12.9496084 10.0898756,12.9919443 L10,13 L8.5,13 L8.5,14 L10,14 C10.2761424,14 10.5,14.2238576 10.5,14.5 C10.5,14.7454599 10.3231248,14.9496084 10.0898756,14.9919443 L10,15 L8.5,15 L8.5,16 C8.5,16.2454599 8.32312484,16.4496084 8.08987563,16.4919443 L8,16.5 C7.75454011,16.5 7.55039163,16.3231248 7.50805567,16.0898756 L7.5,16 L7.5,15 L6,15 C5.72385763,15 5.5,14.7761424 5.5,14.5 C5.5,14.2545401 5.67687516,14.0503916 5.91012437,14.0080557 L6,14 L7.5,14 L7.5,13 L6,13 C5.72385763,13 5.5,12.7761424 5.5,12.5 C5.5,12.2545401 5.67687516,12.0503916 5.91012437,12.0080557 L6,12 L7.293,12 L5.64644661,10.3535534 C5.47288026,10.179987 5.45359511,9.91056264 5.58859116,9.7156945 Z M14.249,6.309 L14.25,6.31066017 L14.25,6.311 L14.25,6.31066017 L14.249,6.309 Z M9.75,1.811 L9.75,6 C9.75,6.13807119 9.86192881,6.25 10,6.25 L14.1893398,6.25 L11.97,4.03 L9.75,1.811 Z" id="形状结合"></path>
            </g>
        </g>
    </g>
</svg>