<?xml version="1.0" encoding="UTF-8"?>
<svg width="20px" height="20px" viewBox="0 0 20 20" version="1.1" xmlns="http://www.w3.org/2000/svg" xmlns:xlink="http://www.w3.org/1999/xlink">
    <title>解释</title>
    <g id="页面-1" stroke="none" stroke-width="1" fill="none" fill-rule="evenodd">
        <g id="H5-点击屏幕出现按钮备份-2" transform="translate(-760.000000, -151.000000)">
            <g id="编组-13" transform="translate(760.000000, 101.000000)">
                <g id="解释" transform="translate(0.000000, 50.000000)">
                    <rect id="矩形复制-67" fill-opacity="0.8" fill="#000000" x="0" y="0" width="20" height="20" rx="10"></rect>
                    <g id="说明" transform="translate(4.000000, 4.000000)">
                        <rect id="矩形" stroke="#DEDEDE" x="0.5" y="0.5" width="11" height="11" rx="5.5"></rect>
                        <path d="M6.5828125,4.3625 C7.10625,4.3625 7.63125,4.6546875 7.2234375,5.7609375 L7.2234375,5.7609375 L6.35,8.034375 C6.234375,8.209375 6.1171875,8.4984375 6.1171875,8.675 C6.1171875,8.7921875 6.1171875,8.8515625 6.234375,8.8515625 C6.640625,8.8515625 7.28125,7.8609375 7.4578125,7.8609375 C7.515625,7.8609375 7.5734375,7.9171875 7.63125,8.0421875 C7.63125,8.33125 6.2328125,9.7890625 5.009375,9.7890625 C4.5421875,9.7890625 4.2515625,9.3203125 4.2515625,8.8546875 C4.2515625,8.3296875 4.7171875,7.6328125 4.7765625,7.45625 L4.7765625,7.45625 L5.65,5.415625 C5.765625,5.2421875 5.65,5.125 5.5328125,5.125 C5.0671875,5.125 4.659375,6.23125 4.4265625,6.23125 C4.309375,6.23125 4.25,6.1140625 4.25,6.0546875 C4.25,5.878125 4.5984375,5.296875 4.775,5.1203125 C5.2421875,4.7125 5.8828125,4.3625 6.5828125,4.3625 Z M7.225,2.20625 C7.690625,2.20625 8.0421875,2.496875 8.0421875,3.0234375 C8.0421875,3.55 7.5765625,3.9578125 7.0515625,3.9578125 C6.584375,3.9578125 6.234375,3.60625 6.234375,3.140625 C6.234375,2.6140625 6.7,2.20625 7.225,2.20625 Z" id="形状结合" fill="#FFFFFF" fill-rule="nonzero"></path>
                    </g>
                </g>
            </g>
        </g>
    </g>
</svg>