<?xml version="1.0" encoding="UTF-8"?>
<svg width="14px" height="14px" viewBox="0 0 14 14" version="1.1" xmlns="http://www.w3.org/2000/svg" xmlns:xlink="http://www.w3.org/1999/xlink">
    <!-- Generator: Sketch 58 (84663) - https://sketch.com -->
    <title>Path</title>
    <desc>Created with Sketch.</desc>
    <g id="日间模式" stroke="none" stroke-width="1" fill="none" fill-rule="evenodd">
        <g id="动画" transform="translate(-342.000000, -172.000000)" fill="#FFFFFF" fill-rule="nonzero">
            <g id="live备份" transform="translate(339.000000, 169.000000)">
                <path d="M3.75,16.25 L8.70500751,12.3188648 L10.6816911,14.4227365 L10.758174,14.4393818 C10.9638951,14.4772327 11.5163542,14.5305646 11.5576282,14.0227908 L11.5068295,11.8930895 L14.4351787,8.51271633 L15.7107409,8.43858341 C15.7107409,8.43858341 16.7115572,8.23695182 15.98633,7.36125905 L12.4076964,3.7558984 L12.3358169,3.75081011 C12.1118365,3.74272795 11.4450414,3.78103124 11.5067912,4.5316287 L11.5067912,5.50816603 L8.17960242,8.33944548 L6.12801423,8.46358841 L6.06051723,8.49095224 C5.88244333,8.57144697 5.42850606,8.83573076 5.65172155,9.36512992 L7.57925442,11.2682138 L3.75,16.25 Z M8.64421166,11.1954444 L6.65662173,9.23306531 L8.49459429,9.1218484 L12.3067912,5.87785009 L12.3067912,4.78984309 L15.1645798,7.66897518 L14.0516278,7.73365755 L10.6996829,11.6030132 L10.7405673,13.3170645 L8.78421446,11.2348318 L8.34780411,11.5810649 L8.64421166,11.1954444 Z" id="Path"></path>
            </g>
        </g>
    </g>
</svg>