<?xml version="1.0" encoding="UTF-8"?>
<svg width="12px" height="12px" viewBox="0 0 12 12" version="1.1" xmlns="http://www.w3.org/2000/svg" xmlns:xlink="http://www.w3.org/1999/xlink">
    <!-- Generator: Sketch 58 (84663) - https://sketch.com -->
    <title>形状结合</title>
    <desc>Created with Sketch.</desc>
    <g id="日间模式" stroke="none" stroke-width="1" fill="none" fill-rule="evenodd">
        <g id="动画" transform="translate(-343.000000, -133.000000)" fill="#FFFFFF" fill-rule="nonzero">
            <g id="live" transform="translate(339.000000, 129.000000)">
                <g id="Section/itembox/_resource/icon_live" transform="translate(4.000000, 4.500000)">
                    <g id="tv_icon">
                        <path d="M9.09010989,10.1538462 C9.27703704,10.1538462 9.42857143,10.3053805 9.42857143,10.4923077 C9.42857143,10.6792348 9.27703704,10.8307692 9.09010989,10.8307692 L2.90989011,10.8307692 C2.72296296,10.8307692 2.57142857,10.6792348 2.57142857,10.4923077 C2.57142857,10.3053805 2.72296296,10.1538462 2.90989011,10.1538462 L9.09010989,10.1538462 Z M10,6.21724894e-15 C11.1045695,6.21724894e-15 12,0.8954305 12,2 L12,7.30769231 C12,8.41226181 11.1045695,9.30769231 10,9.30769231 L2,9.30769231 C0.8954305,9.30769231 0,8.41226181 0,7.30769231 L0,2 C0,0.8954305 0.8954305,6.21724894e-15 2,6.21724894e-15 L10,6.21724894e-15 Z M10,0.8 L2,0.8 L1.87730697,0.806195465 C1.27219968,0.867647457 0.8,1.37867966 0.8,2 L0.8,7.30769231 C0.8,7.97043401 1.3372583,8.50769231 2,8.50769231 L10,8.50769231 C10.6627417,8.50769231 11.2,7.97043401 11.2,7.30769231 L11.2,2 C11.2,1.3372583 10.6627417,0.8 10,0.8 Z M4.76762418,2.6043955 C4.83762463,2.6043955 4.90620482,2.62484921 4.96548379,2.66340618 L7.50710941,4.31656206 C7.68110121,4.42973198 7.73356467,4.66755018 7.62428982,4.84774388 C7.59453693,4.89680625 7.55448315,4.93828774 7.50710941,4.96910117 L4.96548379,6.62225705 C4.79149199,6.73542697 4.561859,6.68109346 4.45258415,6.50089976 C4.41535424,6.43950781 4.3956045,6.36848309 4.3956045,6.2959875 L4.3956045,2.98967573 C4.3956045,2.77689134 4.56216338,2.6043955 4.76762418,2.6043955 Z" id="形状结合"></path>
                    </g>
                </g>
            </g>
        </g>
    </g>
</svg>