<svg width="24px" height="24px" viewBox="0 0 24 24" version="1.1" xmlns="http://www.w3.org/2000/svg" xmlns:xlink="http://www.w3.org/1999/xlink">
    <!-- Generator: Sketch 61.1 (89650) - https://sketch.com -->
    <title>作业报警</title>
    <desc>Created with Sketch.</desc>
    <g id="页面-1" stroke="none" stroke-width="1" fill="none" fill-rule="evenodd">
        <g id="作业报警" fill-rule="nonzero">
            <rect id="矩形" fill="#000000" opacity="0" x="0" y="0" width="24" height="24"></rect>
            <path d="M5.145,21.44175 L4.3755,23.79075 L19.65525,23.79075 L18.8835,21.44175 L5.145,21.44175 Z M7.5435,23.35575 L5.03175,23.35575 L5.51925,21.87675 L9.021,21.87675 C8.529,22.368 8.0355,22.86225 7.5435,23.35575 L7.5435,23.35575 Z M11.97075,7.263 C8.60775009,7.263 5.8815,9.98925009 5.8815,13.35225 L5.8815,20.83275 L18.147,20.83275 L18.147,13.35225 C18.147,9.98925009 15.4207499,7.263 12.05775,7.263 L11.97075,7.263 Z M16.9725,13.5255 C16.9725,13.8135855 16.7389605,14.047125 16.450875,14.047125 C16.1627895,14.047125 15.92925,13.8135855 15.92925,13.5255 C15.9263572,11.4126749 14.2140757,9.70072883 12.10125,9.69825 L12.015,9.69825 C11.7267074,9.69825 11.493,9.46454264 11.493,9.17625 C11.493,8.88795736 11.7267074,8.65425 12.015,8.65425 L12.10125,8.65425 C14.7901965,8.65755592 16.9691941,10.8365535 16.9725,13.5255 L16.9725,13.5255 Z M4.902,10.91025 C4.95365825,10.6521571 4.90065319,10.3841142 4.75464951,10.1651087 C4.60864582,9.94610313 4.38160812,9.79408194 4.1235,9.7425 L1.2525,9.16575 C0.935158088,9.10258728 0.606934656,9.19787906 0.372755543,9.42116265 C0.13857643,9.64444624 0.0277667764,9.96776089 0.07575,10.28775 C0.13725,10.68825 0.441,11.028 0.86325,11.112 L3.73425,11.688 C4.27138117,11.7951701 4.79385967,11.4471867 4.902,10.91025 Z M4.24275,4.25625 L6.0735,6.5445 C6.4155,6.972 7.03875,7.0425 7.46625,6.699 C7.67218077,6.53500881 7.80431727,6.29575233 7.83345016,6.03411925 C7.86258306,5.77248617 7.78631306,5.51002359 7.6215,5.30475 L5.793,3.01725 C5.45085959,2.5891603 4.82646473,2.51948463 4.39837502,2.86162502 C3.97028531,3.20376542 3.90060962,3.82816028 4.24275,4.25625 Z M12.1395,5.1225 C12.68724,5.13465783 13.1414897,4.70120835 13.155,4.1535 L13.1475,1.2255 C13.1603406,0.677702564 12.7266724,0.22321562 12.178875,0.210375 C11.6310776,0.19753438 11.1765906,0.631202564 11.16375,1.179 L11.1705,4.107 C11.1640602,4.37023786 11.2625959,4.62522585 11.4443762,4.81572933 C11.6261564,5.00623281 11.8762494,5.11660334 12.1395,5.1225 L12.1395,5.1225 Z M16.73175,6.9165 C16.9289864,7.09065706 17.1874388,7.17913272 17.4500267,7.16238675 C17.7126147,7.14564079 17.9577344,7.02505094 18.13125,6.82725 L20.0655,4.62825 C20.4036928,4.21486769 20.3539983,3.60795585 19.9530647,3.25509388 C19.5521311,2.90223192 18.9438232,2.93003536 18.57675,3.318 L16.64175,5.517 C16.4481338,5.73694175 16.3618972,6.03135464 16.40625,6.321 C16.43925,6.5445 16.54725,6.756 16.73175,6.9165 L16.73175,6.9165 Z M23.95275,10.5045 C23.8699691,9.96258947 23.3637078,9.59027931 22.82175,9.67275 L19.9275,10.11375 C19.5640126,10.1524092 19.2511551,10.3876431 19.1130828,10.7261009 C18.9750105,11.0645586 19.0340515,11.4515069 19.2667759,11.733388 C19.4995004,12.0152691 19.8682733,12.146499 20.22675,12.075 L23.12025,11.63475 C23.3805693,11.5953542 23.6145592,11.4541143 23.7707002,11.2421282 C23.9268413,11.030142 23.992331,10.7647912 23.95275,10.5045 L23.95275,10.5045 Z" id="形状" fill="#FFFFFF"></path>
        </g>
    </g>
</svg>