<?xml version="1.0" encoding="UTF-8"?>
<svg width="12px" height="12px" viewBox="0 0 12 12" version="1.1" xmlns="http://www.w3.org/2000/svg" xmlns:xlink="http://www.w3.org/1999/xlink">
    <!-- Generator: Sketch 58 (84663) - https://sketch.com -->
    <title>icon/zaopan</title>
    <desc>Created with Sketch.</desc>
    <g id="专业版" stroke="none" stroke-width="1" fill="none" fill-rule="evenodd">
        <g id="投注区切图" transform="translate(-101.000000, -387.000000)">
            <g id="icon/zaopan" transform="translate(100.000000, 386.000000)">
                <g id="编组-2">
                    <rect id="矩形" fill="#000000" fill-rule="nonzero" opacity="0" x="0" y="0" width="14" height="14"></rect>
                    <path d="M3,2 L3,2.5 C3,3.27969612 3.59488808,3.92044868 4.35553999,3.99313342 L4.5,4 C5.27969612,4 5.92044868,3.40511192 5.99313342,2.64446001 L6,2.5 L6,2 L8,2 L8,2.5 C8,3.27969612 8.59488808,3.92044868 9.35553999,3.99313342 L9.5,4 C10.2796961,4 10.9204487,3.40511192 10.9931334,2.64446001 L11,2.5 L11,2 L12,2 C12.5522847,2 13,2.44771525 13,3 L13,12 C13,12.5522847 12.5522847,13 12,13 L2,13 C1.44771525,13 1,12.5522847 1,12 L1,3 C1,2.44771525 1.44771525,2 2,2 L3,2 Z M11.4,5 L2.6,5 C2.30176624,5 2.05435325,5.21758961 2.00785299,5.50267688 L2,5.6 L2,11.4 C2,11.6982338 2.21758961,11.9456468 2.50267688,11.992147 L2.6,12 L11.4,12 C11.6982338,12 11.9456468,11.7824104 11.992147,11.4973231 L12,11.4 L12,5.6 C12,5.26862915 11.7313708,5 11.4,5 Z M9.66805845,6.55298013 L9.94363257,6.81199412 C10.0187891,6.88263429 10.0187891,7.00036792 9.94363257,7.0710081 L6.39874739,10.4381898 C6.32359081,10.5206034 6.19832986,10.5206034 6.12317328,10.4381898 L4.05636743,8.48381163 C3.98121086,8.41317145 3.98121086,8.29543782 4.05636743,8.22479765 L4.33194155,7.96578366 C4.40709813,7.89514349 4.53235908,7.89514349 4.60751566,7.96578366 L6.16075156,9.43745401 C6.21085595,9.48454747 6.29853862,9.48454747 6.34864301,9.43745401 L9.39248434,6.55298013 C9.46764092,6.48233996 9.59290187,6.48233996 9.66805845,6.55298013 Z M4.5,1 C4.77614237,1 5,1.22385763 5,1.5 L5,2.5 C5,2.77614237 4.77614237,3 4.5,3 C4.22385763,3 4,2.77614237 4,2.5 L4,1.5 C4,1.22385763 4.22385763,1 4.5,1 Z M9.5,1 C9.77614237,1 10,1.22385763 10,1.5 L10,2.5 C10,2.77614237 9.77614237,3 9.5,3 C9.22385763,3 9,2.77614237 9,2.5 L9,1.5 C9,1.22385763 9.22385763,1 9.5,1 Z" id="形状结合" fill="#FFB63D"></path>
                </g>
            </g>
        </g>
    </g>
</svg>