<?xml version="1.0" encoding="UTF-8"?>
<svg width="14px" height="14px" viewBox="0 0 14 14" version="1.1" xmlns="http://www.w3.org/2000/svg" xmlns:xlink="http://www.w3.org/1999/xlink">
    <title>编组 45</title>
    <g id="页面-1" stroke="none" stroke-width="1" fill="none" fill-rule="evenodd">
        <g id="内嵌-欧宝1350-1" transform="translate(-1805.000000, -134.000000)">
            <g id="编组-45" transform="translate(1805.000000, 134.000000)">
                <rect id="矩形" stroke="#DEDEDE" stroke-width="0.5" fill-opacity="0.05" fill="#D8D8D8" x="0.25" y="0.25" width="13.5" height="13.5" rx="6.75"></rect>
                <g id="刷新" transform="translate(2.000000, 2.000000)" fill="#999999" fill-rule="nonzero">
                    <path d="M6.5304395,0.646345621 C6.45598304,0.821740585 6.53769585,1.02431244 6.71302342,1.09878929 C8.66540607,1.92813578 9.71541193,4.08004502 9.16360704,6.13940888 L9.11858819,6.29559825 C8.59284282,7.99830734 7.06717019,9.18799278 5.31632131,9.30211975 L5.233125,9.305625 L6.05454409,8.37927706 L6.08513247,8.33866399 C6.16579804,8.2067831 6.15644025,8.05020623 6.06796001,7.93745991 L6.03339227,7.90002532 L5.98476992,7.86161936 C5.85290597,7.78087892 5.69632913,7.79031762 5.58360531,7.87893035 L5.5461917,7.91353291 L4.23315445,9.39453279 L4.20457828,9.43184647 C4.06509703,9.65197195 4.19718747,9.93571973 4.45010442,9.96602241 C6.89237348,10.2586375 9.19026236,8.70502485 9.82988078,6.31793639 C10.4707873,3.92604067 9.25135826,1.42720742 6.98275757,0.46353566 C6.80740872,0.389049771 6.60490498,0.47092939 6.5304395,0.646345621 Z" id="路径"></path>
                    <path d="M0.232619217,3.74583537 C-0.40828731,6.13773109 0.811141738,8.63656434 3.07974243,9.6002361 C3.25509128,9.67472199 3.45759502,9.59284237 3.5320605,9.41742614 C3.60651696,9.24203117 3.52480415,9.03945932 3.34947658,8.96498247 C1.39709393,8.13563598 0.34708807,5.98372674 0.898892955,3.92436288 L0.943911809,3.76817351 C1.46965718,2.06546442 2.99532981,0.875778978 4.74617869,0.76165201 L4.82875,0.7575 L4.00795643,1.68449412 L3.97736753,1.72510777 C3.89670196,1.85698865 3.90605975,2.01356553 3.99453999,2.12631185 L4.02910773,2.16374644 L4.07773008,2.2021524 C4.20959403,2.28289284 4.36617087,2.27345414 4.47889469,2.18484141 L4.5163083,2.15023885 L5.82934555,0.669238966 L5.85792172,0.631925286 C5.99740297,0.411799812 5.86531253,0.128052033 5.61239558,0.0977493499 C3.17012652,-0.194865707 0.87223764,1.35874691 0.232619217,3.74583537 Z" id="路径"></path>
                </g>
            </g>
        </g>
    </g>
</svg>