<svg width="12" height="12" viewBox="0 0 12 12" fill="none" xmlns="http://www.w3.org/2000/svg">
<path d="M0 0H12V12H4C1.79086 12 0 10.2091 0 8V0Z" fill="url(#paint0_linear_519_142235)"/>
<path d="M7.57948 2.56229C7.61047 2.50084 7.57948 2.40869 7.54849 2.34724C7.39369 2.28578 7.23881 2.25509 7.08401 2.19364C7.0221 2.22433 6.96012 2.28578 6.9292 2.37793L6.65081 3.39175C6.8676 3.4532 7.05339 3.51466 7.23919 3.63749L7.57948 2.56229ZM8.60143 5.60353L9.84016 5.26564C9.80917 5.05058 9.74726 4.83553 9.68535 4.65124L8.44662 4.98913C8.53952 5.17349 8.57051 5.38855 8.60143 5.60353ZM9.0969 3.60673C9.0969 3.60673 9.0969 3.57604 9.12789 3.54527C9.00401 3.39167 8.88012 3.23807 8.75631 3.11516C8.72532 3.11516 8.6944 3.11516 8.66341 3.14585L7.79627 4.00615C7.95107 4.15975 8.10595 4.31335 8.22984 4.49764L9.0969 3.60673ZM8.53952 6.52528C8.26053 7.63109 7.23889 8.46055 6.03115 8.46055C4.60662 8.46055 3.46079 7.32389 3.46079 5.91058C3.46079 4.49726 4.60662 3.36061 6.03115 3.36061V2.04004C3.89436 2.04004 2.16016 3.76033 2.16016 5.88004C2.16016 7.99975 3.89436 9.72004 6.03115 9.72004C7.95115 9.72004 9.53047 8.33764 9.84016 6.52513L8.53952 6.52528ZM5.41178 7.17007L7.36277 5.88004L5.41178 4.59001V7.17007Z" fill="white" stroke="white" stroke-width="0.4" stroke-linejoin="round"/>
<defs>
<linearGradient id="paint0_linear_519_142235" x1="6" y1="-6" x2="-6" y2="6" gradientUnits="userSpaceOnUse">
<stop stop-color="#3D72FA"/>
<stop offset="1" stop-color="#62B6FF"/>
</linearGradient>
</defs>
</svg>
