<?xml version="1.0" encoding="UTF-8"?>
<svg width="20px" height="14px" viewBox="0 0 20 14" version="1.1" xmlns="http://www.w3.org/2000/svg" xmlns:xlink="http://www.w3.org/1999/xlink">
    <title>动画-选中</title>
    <defs>
        <linearGradient x1="100%" y1="50%" x2="0%" y2="50%" id="linearGradient-1">
            <stop stop-color="#FFB001" offset="0%"></stop>
            <stop stop-color="#FF7000" offset="100%"></stop>
        </linearGradient>
    </defs>
    <g id="页面-1" stroke="none" stroke-width="1" fill="none" fill-rule="evenodd">
        <g id="组件_1" transform="translate(-1629.000000, -240.000000)" fill="url(#linearGradient-1)">
            <path d="M1647,240 C1648.10457,240 1649,240.895431 1649,242 L1649,252 C1649,253.104569 1648.10457,254 1647,254 L1639.75,254 L1639.7506,250.929688 C1641.60095,250.578395 1643,248.95258 1643,247 C1643,245.04742 1641.60095,243.421605 1639.7506,243.070312 L1639.75,240 L1647,240 Z M1638.25,240 L1638.25039,243.070123 C1636.39955,243.421022 1635,245.047069 1635,247 C1635,248.952931 1636.39955,250.578978 1638.25039,250.929877 L1638.25,254 L1631,254 C1629.89543,254 1629,253.104569 1629,252 L1629,242 C1629,240.895431 1629.89543,240 1631,240 L1638.25,240 Z M1639,244.5 C1640.38071,244.5 1641.5,245.619288 1641.5,247 C1641.5,248.380712 1640.38071,249.5 1639,249.5 C1637.61929,249.5 1636.5,248.380712 1636.5,247 C1636.5,245.619288 1637.61929,244.5 1639,244.5 Z M1631.75,245 C1631.33579,245 1631,245.335786 1631,245.75 L1631,245.75 L1631,248.25 C1631,248.664214 1631.33579,249 1631.75,249 C1632.16421,249 1632.5,248.664214 1632.5,248.25 L1632.5,248.25 L1632.5,245.75 C1632.5,245.335786 1632.16421,245 1631.75,245 Z M1646.25,245 C1645.83579,245 1645.5,245.335786 1645.5,245.75 L1645.5,245.75 L1645.5,248.25 C1645.5,248.664214 1645.83579,249 1646.25,249 C1646.66421,249 1647,248.664214 1647,248.25 L1647,248.25 L1647,245.75 C1647,245.335786 1646.66421,245 1646.25,245 Z" id="动画-选中"></path>
        </g>
    </g>
</svg>