<svg width="20" height="14" viewBox="0 0 20 14" fill="none" xmlns="http://www.w3.org/2000/svg">
<path fill-rule="evenodd" clip-rule="evenodd" d="M6 7C6 5.004 7.4635 3.354 9.375 3.0535V0H2C0.8955 0 0 0.8955 0 2V12C0 13.1045 0.8955 14 2 14H9.375V10.9465C7.4635 10.6455 6 8.996 6 7ZM12.5 7C12.5 5.6215 11.3785 4.5 10 4.5C8.6215 4.5 7.5 5.6215 7.5 7C7.5 8.3785 8.6215 9.5 10 9.5C11.3785 9.5 12.5 8.3785 12.5 7ZM10.625 0H18C19.1045 0 20 0.8955 20 2V12C20 13.1045 19.1045 14 18 14H10.625V10.9465C12.5365 10.6455 14 8.996 14 7C14 5.004 12.5365 3.354 10.625 3.0535V0ZM16.875 10C16.5315 10 16.25 9.719 16.25 9.375V4.625C16.25 4.281 16.5315 4 16.875 4C17.2185 4 17.5 4.281 17.5 4.625V9.375C17.5 9.719 17.2185 10 16.875 10ZM2.5 9.375C2.5 9.719 2.7815 10 3.125 10C3.4685 10 3.75 9.719 3.75 9.375V4.625C3.75 4.281 3.4685 4 3.125 4C2.7815 4 2.5 4.281 2.5 4.625V9.375Z" fill="#CBCED8"/>
</svg>
