<?xml version="1.0" encoding="UTF-8"?>
<svg width="16px" height="16px" viewBox="0 0 16 16" version="1.1" xmlns="http://www.w3.org/2000/svg" xmlns:xlink="http://www.w3.org/1999/xlink">
    <title>emoji02@1x</title>
    <g id="页面-1" stroke="none" stroke-width="1" fill="none" fill-rule="evenodd">
        <g id="画板" transform="translate(-57.000000, -36.000000)">
            <g id="emoji02" transform="translate(57.000000, 36.000000)">
                <path d="M14.2859184,16.0002286 L1.7143102,16.0002286 C0.772011029,16.0002286 0,15.2282175 0,14.2859184 L0,1.7143102 C0,0.771439592 0.772011029,0 1.7143102,0 L14.2859184,0 C15.228789,0 16.0002286,0.771439592 16.0002286,1.7143102 L16.0002286,14.2859184 C16.0002286,15.2282175 15.228789,16.0002286 14.2859184,16.0002286" id="Fill-1"></path>
                <path d="M8.00011429,0 C12.4184631,0 16.0002286,3.58176545 16.0002286,8.00011429 C16.0002286,12.4178917 12.4184631,16.0002286 8.00011429,16.0002286 C3.58233689,16.0002286 0,12.4178917 0,8.00011429 C0,3.58176545 3.58233689,0 8.00011429,0 Z M8.00011429,1.14287347 C4.21948885,1.14287347 1.14287347,4.21891741 1.14287347,8.00011429 C1.14287347,11.7807397 4.21948885,14.8573551 8.00011429,14.8573551 C11.7813112,14.8573551 14.8573551,11.7807397 14.8573551,8.00011429 C14.8573551,4.21891741 11.7813112,1.14287347 8.00011429,1.14287347 Z M11.9755997,8.61452306 C12.3487478,8.61452306 12.6350376,8.97109959 12.5304647,9.32939042 C11.9567422,11.2911327 10.1475735,12.7242961 8.00011429,12.7242961 C5.85322647,12.7242961 4.04405777,11.2911327 3.46976385,9.32939042 C3.36519093,8.97109959 3.65148074,8.61452306 4.02520036,8.61452306 C4.27091816,8.61452306 4.49663567,8.76938242 4.56577951,9.00481435 C5.0012143,10.4916927 6.37437678,11.5814226 8.00011429,11.5814226 C9.62642323,11.5814226 10.9995857,10.4916927 11.4350205,9.00481435 C11.5041643,8.76938242 11.7298819,8.61452306 11.9755997,8.61452306 Z M4.54800783,5.20041715 C5.02115745,5.20041715 5.40516293,5.58442263 5.40516293,6.05757225 C5.40516293,6.5312933 5.02115745,6.91472735 4.54800783,6.91472735 C4.07428678,6.91472735 3.69085273,6.5312933 3.69085273,6.05757225 C3.69085273,5.58442263 4.07428678,5.20041715 4.54800783,5.20041715 Z M11.1552451,5.20041715 C11.6283947,5.20041715 12.0124002,5.58442263 12.0124002,6.05757225 C12.0124002,6.5312933 11.6283947,6.91472735 11.1552451,6.91472735 C10.681524,6.91472735 10.29809,6.5312933 10.29809,6.05757225 C10.29809,5.58442263 10.681524,5.20041715 11.1552451,5.20041715 Z" id="形状结合" fill="#FF7000"></path>
            </g>
        </g>
    </g>
</svg>