<?xml version="1.0" encoding="UTF-8"?>
<svg width="14px" height="14px" viewBox="0 0 14 14" version="1.1" xmlns="http://www.w3.org/2000/svg" xmlns:xlink="http://www.w3.org/1999/xlink">
    <title>编组</title>
    <g id="页面-1" stroke="none" stroke-width="1" fill="none" fill-rule="evenodd">
        <g id="深06备份-5" transform="translate(-1036.000000, -1009.000000)" fill="#FFFFFF">
            <g id="编组-136" transform="translate(1024.000000, 1004.000000)">
                <g id="编组" transform="translate(12.249950, 5.250000)">
                    <path d="M11.375,5.5249 C11.1415,5.2919 10.76,5.2919 10.5265,5.5249 L7.35,8.7014 L7.35,3.3499 C7.35,3.0199 7.08,2.7499 6.75,2.7499 C6.42,2.7499 6.15,3.0199 6.15,3.3499 L6.15,8.7014 L2.9735,5.5249 C2.74,5.2919 2.3585,5.2919 2.125,5.5249 C1.8915,5.7584 1.8915,6.1399 2.125,6.3734 L6.3225,10.5704 C6.3235,10.5719 6.3235,10.5739 6.325,10.5749 C6.37,10.6199 6.4245,10.6489 6.4785,10.6764 C6.4925,10.6839 6.503,10.6964 6.5185,10.7029 C6.5925,10.7334 6.6705,10.7499 6.7495,10.7499 L6.75,10.7499 L6.7505,10.7499 C6.8295,10.7499 6.908,10.7334 6.982,10.7029 C6.997,10.6964 7.008,10.6839 7.022,10.6764 C7.076,10.6484 7.13,10.6199 7.175,10.5749 C7.1765,10.5739 7.1765,10.5719 7.1775,10.5709 L11.375,6.3734 C11.6085,6.1399 11.6085,5.7584 11.375,5.5249" id="Fill-5"></path>
                </g>
            </g>
        </g>
    </g>
</svg>