<svg width="18" height="18" viewBox="0 0 18 18" fill="none" xmlns="http://www.w3.org/2000/svg">
<path fill-rule="evenodd" clip-rule="evenodd" d="M12.191 1.44724C11.1819 1.02111 10.1085 0.80402 9.00101 0.80402C7.89347 0.80402 6.8201 1.02111 5.81106 1.44724C4.83618 1.8593 3.9598 2.45226 3.20603 3.20402C2.45226 3.95578 1.86131 4.83417 1.44925 5.80905C1.02312 6.81809 0.80603 7.89146 0.80603 8.99899C0.80603 10.1065 1.02111 11.1799 1.44925 12.1889C1.86131 13.1638 2.45427 14.0402 3.20603 14.794C3.95779 15.5477 4.83618 16.1387 5.81106 16.5508C6.8201 16.9769 7.89347 17.194 9.00101 17.194C10.1085 17.194 11.1819 16.9789 12.191 16.5508C13.1658 16.1387 14.0422 15.5457 14.796 14.794C15.5497 14.0422 16.1407 13.1638 16.5528 12.1889C16.9789 11.1799 17.196 10.1065 17.196 8.99899C17.196 7.89146 16.9809 6.81809 16.5528 5.80905C16.1407 4.83417 15.5477 3.95779 14.796 3.20402C14.0442 2.45025 13.1658 1.8593 12.191 1.44724ZM0 9.001C0 4.03015 4.03015 0 9.00101 0C13.9719 0 18 4.03216 18 9.001C18 13.9698 13.9678 18 8.99899 18C4.03015 18 0 13.9719 0 9.001ZM9.52357 11.3868C9.50347 11.7124 9.2301 11.9637 8.90447 11.9637C8.54467 11.9637 8.25925 11.6561 8.28739 11.2963C8.31955 10.8561 8.42608 10.2752 8.73161 9.79886C9.02637 9.3393 9.3239 9.08185 9.64756 8.8018C9.93969 8.54903 10.2531 8.27784 10.605 7.82298C11.3628 6.84409 10.7517 4.95665 8.9487 5.00288C7.64015 5.03705 7.13764 6.04007 6.95272 6.63705C6.87231 6.89836 6.63312 7.07524 6.35975 7.07524H6.29141C5.87734 7.07524 5.57784 6.67725 5.69643 6.27926C5.89945 5.59585 6.23312 5.04107 6.86226 4.55062C7.80096 3.82097 9.62407 3.63605 10.9366 4.46821C12.0381 5.1657 12.3175 5.95967 12.2814 7.1074C12.252 8.02644 11.3508 8.85036 10.5877 9.54812C10.4094 9.71108 10.2387 9.86715 10.0884 10.0159C10.0794 10.024 10.0703 10.0325 10.0613 10.0411C10.0522 10.0496 10.0432 10.0582 10.0341 10.0662C9.66226 10.3999 9.55171 10.9607 9.52357 11.3868ZM8.21302 13.7627C8.21302 14.1506 8.52859 14.4662 8.91653 14.4662C9.30447 14.4662 9.61804 14.1506 9.62005 13.7627V13.6883C9.62005 13.3004 9.30447 12.9848 8.91653 12.9848C8.52859 12.9848 8.21302 13.3004 8.21302 13.6883V13.7627Z" fill="#FF7000"/>
</svg>
