<?xml version="1.0" encoding="UTF-8"?>
<svg width="20px" height="14px" viewBox="0 0 20 14" version="1.1" xmlns="http://www.w3.org/2000/svg" xmlns:xlink="http://www.w3.org/1999/xlink">
    <title>比分未选</title>
    <g id="页面-1" stroke="none" stroke-width="1" fill="none" fill-rule="evenodd">
        <g id="滚球" transform="translate(-1546.000000, -112.000000)" fill="#C1C4C7" fill-rule="nonzero">
            <g id="编组-134" transform="translate(1356.000000, 101.000000)">
                <g id="编组-131" transform="translate(190.000000, 11.000000)">
                    <path d="M18,0 C19.1045695,-2.02906125e-16 20,0.8954305 20,2 L20,6.562 L18.6193182,6.5625 C18.4045408,6.5625 18.2259109,6.71726577 18.1888669,6.92135882 L18.1818182,7 C18.1818182,7.2147774 18.3365839,7.39340732 18.540677,7.43045129 L18.6193182,7.4375 L20,7.437 L20,12 C20,13.1045695 19.1045695,14 18,14 L2,14 C0.8954305,14 1.3527075e-16,13.1045695 0,12 L0,7.437 L1.38068182,7.4375 C1.59545922,7.4375 1.77408914,7.28273423 1.81113311,7.07864118 L1.81818182,7 C1.81818182,6.7852226 1.66341605,6.60659268 1.459323,6.56954871 L1.38068182,6.5625 L0,6.562 L0,2 C-1.3527075e-16,0.8954305 0.8954305,2.02906125e-16 2,0 L18,0 Z M10.4545455,0.875 L9.54545455,0.875 L9.54545455,13.125 L10.4545455,13.125 L10.4545455,0.875 Z M4.68351742,2.625 L4.40739167,2.625 C4.01085918,2.625 3.67632222,2.67541504 3.4037808,2.77636719 C3.13123938,2.87731934 2.91166631,3.00427246 2.7453271,3.15722656 C2.57898789,3.31018066 2.45858114,3.47949219 2.38423959,3.66503906 C2.30989805,3.85058594 2.27272727,4.0279541 2.27272727,4.19726562 L2.27272727,4.19726562 L2.27272727,9.80273438 C2.27272727,9.93945312 2.30458794,10.098999 2.36830926,10.28125 C2.43203059,10.463501 2.54526869,10.6361084 2.70815633,10.7988281 C2.87104397,10.9615479 3.0887585,11.0982666 3.36129992,11.2089844 C3.63384133,11.3197021 3.98258284,11.375 4.40739167,11.375 L4.40739167,11.375 L4.68351742,11.375 C5.10832625,11.375 5.45879354,11.3197021 5.73491929,11.2089844 C6.01104503,11.0982666 6.22875956,10.9615479 6.38806287,10.7988281 C6.54736619,10.6361084 6.6588785,10.463501 6.72259983,10.28125 C6.78632116,10.098999 6.81818182,9.93945312 6.81818182,9.80273438 L6.81818182,9.80273438 L6.81818182,4.19726562 C6.81818182,4.0279541 6.78101105,3.85058594 6.7066695,3.66503906 C6.63232795,3.47949219 6.5119212,3.31018066 6.34558199,3.15722656 C6.17924278,3.00427246 5.95966971,2.87731934 5.68712829,2.77636719 C5.41458687,2.67541504 5.08004992,2.625 4.68351742,2.625 L4.68351742,2.625 Z M15.9090909,2.625 L14.6198347,2.625 L13.1818182,4.17345506 L13.1818182,5.89396067 L14.6198347,4.34550562 L14.6198347,11.375 L15.9090909,11.375 L15.9090909,2.625 Z M4.60526316,3.5 C4.93226675,3.5 5.15550239,3.58649297 5.27511962,3.75959079 C5.39473684,3.93268862 5.45454545,4.15647379 5.45454545,4.43094629 L5.45454545,4.43094629 L5.45454545,9.56905371 C5.45454545,9.83759591 5.38277512,10.0599265 5.23923445,10.2359335 C5.09569378,10.4119405 4.88441986,10.5 4.60526316,10.5 L4.60526316,10.5 L4.49760766,10.5 C4.2423744,10.5 4.03513756,10.4179827 3.87559809,10.2538363 C3.71605861,10.0896899 3.63636364,9.86142903 3.63636364,9.56905371 L3.63636364,9.56905371 L3.63636364,4.43094629 C3.63636364,4.15647379 3.69019139,3.93268862 3.79784689,3.75959079 C3.90550239,3.58649297 4.13875598,3.5 4.49760766,3.5 L4.49760766,3.5 Z" id="比分未选"></path>
                </g>
            </g>
        </g>
    </g>
</svg>