<svg width="20" height="14" viewBox="0 0 20 14" fill="none" xmlns="http://www.w3.org/2000/svg">
<path fill-rule="evenodd" clip-rule="evenodd" d="M20 6.375H18.875C18.5315 6.375 18.25 6.656 18.25 7C18.25 7.3435 18.5315 7.625 18.875 7.625H20V12C20 13.1045 19.1045 14 18 14H2C0.8955 14 0 13.1045 0 12V7.625H1.125C1.4685 7.625 1.75 7.3435 1.75 7C1.75 6.656 1.4685 6.375 1.125 6.375H0V2C0 0.8955 0.8955 0 2 0H18C19.1045 0 20 0.8955 20 2V6.375ZM9.375 12.375C9.375 12.719 9.6565 13 10 13C10.3435 13 10.625 12.719 10.625 12.375V1.625C10.625 1.2815 10.3435 1 10 1C9.6565 1 9.375 1.2815 9.375 1.625V12.375ZM6.35145 5.36447C6.35145 4.70147 5.96495 4.29297 5.40145 4.29297C4.83745 4.29297 4.43945 4.70147 4.43945 5.36447V8.64647C4.43945 9.30947 4.83745 9.70747 5.40145 9.70747C5.96495 9.70747 6.35145 9.30947 6.35145 8.64647V5.36447ZM5.40241 11C4.11991 11 3.00391 10.16 3.00391 8.6575V5.343C3.00391 3.8395 4.11991 3 5.40241 3C6.68341 3 7.78841 3.8395 7.78841 5.343V8.6575C7.78841 10.16 6.68341 11 5.40241 11ZM14.4205 4.5725V11H15.8805V3H14.4205L12.791 4.4155V5.989L14.4205 4.5725Z" fill="#CBCED8"/>
</svg>
