<?xml version="1.0" encoding="UTF-8"?>
<svg width="20px" height="14px" viewBox="0 0 20 14" version="1.1" xmlns="http://www.w3.org/2000/svg" xmlns:xlink="http://www.w3.org/1999/xlink">
    <title>专题01@1x</title>
    <defs>
        <linearGradient x1="100%" y1="50%" x2="0%" y2="50%" id="linearGradient-1">
            <stop stop-color="#FFB001" offset="0%"></stop>
            <stop stop-color="#FF7000" offset="100%"></stop>
        </linearGradient>
    </defs>
    <g id="页面-1" stroke="none" stroke-width="1" fill="none" fill-rule="evenodd">
        <g id="画板" transform="translate(-69.000000, -73.000000)" fill="url(#linearGradient-1)">
            <g id="专题01" transform="translate(68.999600, 73.000000)">
                <path d="M10.1304617,0.000207740959 L13.0730104,2.47401521 L9.73420515,2.47401521 L6.7816563,0.000207740959 L10.1304617,0.000207740959 Z M14.4705335,0.000207740959 L17.4243324,2.47401521 L14.0730269,2.47401521 L11.1204781,0.000207740959 L14.4705335,0.000207740959 Z M5.78038974,0.000207740959 L8.72293842,2.47401521 L5.38288316,2.47401521 L2.43033431,0.000207740959 L5.78038974,0.000207740959 Z M1.42906775,0.000207740959 L4.39286678,2.47401521 L0.000294107461,2.47401521 L0.000294107459,1.30397931 C-0.00720601663,0.956473562 0.129046238,0.62146802 0.374050291,0.375213945 C0.620304365,0.128959871 0.956559929,-0.00604236245 1.30406568,0.000207740959 L1.42906775,0.000207740959 Z M18.6856033,0.000207740959 C19.033109,-0.00604236245 19.3693646,0.128959871 19.6156186,0.375213945 C19.8606227,0.62146802 19.9968749,0.956473562 19.9893748,1.30397931 L19.9893748,2.47401521 L18.4243489,2.47401521 L15.4718001,0.000207740959 L18.6856033,0.000207740959 Z M8.43916718,6.76683845 L8.43916718,10.5565426 C8.43916718,11.0116838 8.7404481,11.2293145 9.09040393,11.2293145 C9.21293043,11.2355923 9.33377849,11.2000181 9.44035976,11.1246844 L11.9127096,9.34283284 C12.114123,9.20995254 12.2391672,8.94942346 12.2391672,8.66587574 C12.2391672,8.38337433 12.114123,8.12284524 11.9127096,7.98996495 L9.44035976,6.19974301 C9.33293927,6.12859451 9.21209121,6.09302026 9.09040393,6.09402265 C8.7404481,6.09402265 8.43916718,6.30437317 8.43916718,6.76683845 Z M20.000625,3.35027971 L20.000625,12.700451 C20.0056251,13.0492067 19.8718729,13.3842123 19.6256188,13.6292163 C19.3793647,13.8767204 19.0443592,14.0117226 18.6956034,14.0042225 L1.30406568,14.0042225 C0.956559929,14.0117226 0.620304365,13.8767204 0.374050291,13.6292163 C0.129046238,13.3842123 -0.00720601662,13.0492067 0.000294107466,12.700451 L0.000294107463,3.35027971 L20.000625,3.35027971 Z" id="Fill-1"></path>
            </g>
        </g>
    </g>
</svg>