<svg width="16" height="16" viewBox="0 0 16 16" fill="none" xmlns="http://www.w3.org/2000/svg">
<g id="&#231;&#188;&#150;&#231;&#187;&#132;">
<path id="&#229;&#189;&#162;&#231;&#138;&#182;&#231;&#187;&#147;&#229;&#144;&#136;" fill-rule="evenodd" clip-rule="evenodd" d="M8.50019 8.88918L12.9982 6.19037C13.4772 5.90355 13.6412 5.26756 13.3642 4.77082C13.0882 4.27408 12.4772 4.10365 11.9982 4.39047L8.00019 6.78999L4.00219 4.39047C3.52319 4.10365 2.91219 4.27408 2.63619 4.77082C2.36019 5.26756 2.52319 5.90355 3.00219 6.19037L7.50019 8.88918C7.52256 8.90264 7.54597 8.9089 7.5694 8.91516C7.58577 8.91954 7.60215 8.92391 7.61819 8.93075C7.68319 8.95881 7.74419 8.98375 7.81119 8.9983C7.87519 9.01077 7.93619 9.01181 8.00019 9.01181C8.06419 9.01181 8.12519 9.01077 8.18819 8.9983C8.25719 8.98375 8.31819 8.95881 8.38219 8.93075C8.39817 8.92394 8.41465 8.91957 8.43109 8.91521C8.45477 8.90893 8.47835 8.90268 8.50019 8.88918ZM3.429 0H12.571C14.457 0 16 1.60349 16 3.56343V8.90806C16 10.867 14.457 12.4704 12.571 12.4704H3.429C1.543 12.4704 0 10.867 0 8.90806V3.56343C0 1.60349 1.543 0 3.429 0ZM3 16.0001H13C13.553 16.0001 14 15.5345 14 14.9609C14 14.3872 13.553 13.9217 13 13.9217H3C2.448 13.9217 2 14.3872 2 14.9609C2 15.5345 2.448 16.0001 3 16.0001Z" fill="#179CFF"/>
</g>
</svg>
