<svg width="20" height="14" viewBox="0 0 20 14" fill="none" xmlns="http://www.w3.org/2000/svg">
<path fill-rule="evenodd" clip-rule="evenodd" d="M20 2C20 0.8955 19.1045 0 18 0H2C0.8955 0 0 0.8955 0 2V12C0 13.1045 0.8955 14 2 14H18C19.1045 14 20 13.1045 20 12V2ZM14.4778 3H16.3763C16.7213 3 17.0013 3.28 17.0013 3.625C17.0013 3.97 16.7213 4.25 16.3763 4.25H14.8538V5.7545H16.0173C16.3628 5.7545 16.6423 6.0345 16.6423 6.3795C16.6423 6.725 16.3628 7.0045 16.0173 7.0045H14.8538V8.75H16.3728C16.7183 8.75 16.9978 9.03 16.9978 9.375C16.9978 9.72 16.7183 10 16.3728 10H14.4778C14.0348 10 13.6758 9.6405 13.6758 9.1975V3.802C13.6758 3.359 14.0348 3 14.4778 3ZM9.45759 3C9.07709 3 8.79609 3.354 8.88309 3.7245L10.2066 9.38C10.2916 9.743 10.6151 10 10.9886 10C11.3611 10 11.6841 9.7435 11.7696 9.381L13.0991 3.725C13.1861 3.3545 12.9051 3 12.5246 3H12.5206C12.2386 3 11.9961 3.1995 11.9421 3.476L11.0281 8.12L10.9931 8.3555H10.9721L10.9376 8.101L10.0366 3.4775C9.98309 3.2 9.73959 3 9.45759 3ZM7.06055 3.5875C7.06055 3.263 7.32405 3 7.64805 3C7.97255 3 8.23555 3.263 8.23555 3.5875V9.4125C8.23555 9.737 7.97255 10 7.64805 10C7.32405 10 7.06055 9.737 7.06055 9.4125V3.5875ZM3.58935 3C3.26385 3 2.99985 3.2635 2.99985 3.589V9.201C2.99985 9.6425 3.35735 10 3.79885 10H5.76785C6.09335 10 6.35685 9.736 6.35685 9.4105V9.339C6.35685 9.0135 6.09335 8.75 5.76785 8.75H4.57835C4.35735 8.75 4.17835 8.571 4.17835 8.35V3.589C4.17835 3.2635 3.91435 3 3.58935 3ZM3.5 11H16.5C16.7765 11 17 11.2235 17 11.5C17 11.776 16.7765 12 16.5 12H3.5C3.2235 12 3 11.776 3 11.5C3 11.2235 3.2235 11 3.5 11Z" fill="#CBCED8"/>
</svg>
