<?xml version="1.0" encoding="UTF-8"?>
<svg width="20px" height="14px" viewBox="0 0 20 14" version="1.1" xmlns="http://www.w3.org/2000/svg" xmlns:xlink="http://www.w3.org/1999/xlink">
    <title>视频-默认</title>
    <g id="页面-1" stroke="none" stroke-width="1" fill="none" fill-rule="evenodd">
        <g id="组件_1" transform="translate(-1604.000000, -103.000000)" fill="#C1C4C7" fill-rule="nonzero">
            <path d="M1622,103 C1623.10457,103 1624,103.895431 1624,105 L1624,115 C1624,116.104569 1623.10457,117 1622,117 L1606,117 C1604.89543,117 1604,116.104569 1604,115 L1604,105 C1604,103.895431 1604.89543,103 1606,103 L1622,103 Z M1620.5,114 L1607.5,114 C1607.22386,114 1607,114.223858 1607,114.5 C1607,114.776142 1607.22386,115 1607.5,115 L1607.5,115 L1620.5,115 C1620.77614,115 1621,114.776142 1621,114.5 C1621,114.223858 1620.77614,114 1620.5,114 L1620.5,114 Z M1608.17829,106 L1607,106 L1607,113 L1610.35707,113 L1610.35707,111.75 L1608.17829,111.75 L1608.17829,106 Z M1612.23606,106 L1611.06125,106 L1611.06125,113 L1612.23606,113 L1612.23606,106 Z M1613.94422,106 L1612.71365,106 L1614.35209,113 L1615.6245,113 L1617.26992,106 L1616.03586,106 L1615.02839,111.120192 L1614.99353,111.355769 L1614.97261,111.355769 L1614.93775,111.100962 L1613.94422,106 Z M1621,106 L1617.6743,106 L1617.6743,113 L1620.99651,113 L1620.99651,111.75 L1618.85259,111.75 L1618.85259,110.004808 L1620.64094,110.004808 L1620.64094,108.754808 L1618.85259,108.754808 L1618.85259,107.25 L1621,107.25 L1621,106 Z" id="视频-默认"></path>
        </g>
    </g>
</svg>