<?xml version="1.0" encoding="UTF-8"?>
<svg width="24px" height="24px" viewBox="0 0 24 24" version="1.1" xmlns="http://www.w3.org/2000/svg" xmlns:xlink="http://www.w3.org/1999/xlink">
    <title>3</title>
    <g id="页面-1" stroke="none" stroke-width="1" fill="none" fill-rule="evenodd">
        <g id="泥地摩托车" transform="translate(-254.000000, -388.000000)">
            <g id="3" transform="translate(254.000000, 388.000000)">
                <rect id="矩形备份-10" stroke-opacity="0.25" stroke="#000000" fill="#185CA9" x="0.5" y="0.5" width="23" height="23" rx="2"></rect>
                <path d="M11.9025,17.105 C13.6875,17.105 15.1725,16.055 15.1725,14 C15.1725,12.68 14.5875,11.885 13.6725,11.48 C14.4975,11.075 15.0075,10.34 15.0075,9.2 C15.0075,7.43 13.7175,6.215 11.9025,6.215 C10.1925,6.215 8.8575,7.31 8.7675,9.125 L10.2975,9.125 C10.3725,8.18 10.9725,7.595 11.9025,7.595 C12.7725,7.595 13.4775,8.165 13.4775,9.245 C13.4775,10.22 12.9675,10.865 11.8575,10.865 L11.6025,10.865 L11.6025,12.2 L11.8575,12.2 C13.0575,12.2 13.6425,12.875 13.6425,13.955 C13.6425,15.08 12.8925,15.725 11.9025,15.725 C11.0175,15.725 10.2225,15.245 10.1625,14.105 L8.6325,14.105 C8.6925,16.19 10.1925,17.105 11.9025,17.105 Z" fill="#FFFFFF" fill-rule="nonzero"></path>
            </g>
        </g>
    </g>
</svg>