<?xml version="1.0" encoding="UTF-8"?>
<svg width="20px" height="20px" viewBox="0 0 20 20" version="1.1" xmlns="http://www.w3.org/2000/svg" xmlns:xlink="http://www.w3.org/1999/xlink">
    <title>矩形备份 25@2x</title>
    <g id="矩形备份-25" stroke="none" stroke-width="1" fill="none" fill-rule="evenodd">
        <path d="M2,0 L18,0 C19.1045695,0 20,0.8954305 20,2 L20,18 C20,19.1045695 19.1045695,20 18,20 L2,20 C0.8954305,20 0,19.1045695 0,18 L0,2 C0,0.8954305 0.8954305,0 2,0 Z" id="矩形备份-3" fill="#3A404C"></path>
        <path d="M18,0 C19.1045695,0 20,0.8954305 20,2 L20,18 C20,19.1045695 19.1045695,20 18,20 L2,20 C0.8954305,20 0,19.1045695 0,18 L0,2 C0,0.8954305 0.8954305,0 2,0 L18,0 Z M18,1 L2,1 C1.48716416,1 1.06449284,1.38604019 1.00672773,1.88337887 L1,2 L1,18 C1,18.5128358 1.38604019,18.9355072 1.88337887,18.9932723 L2,19 L18,19 C18.5128358,19 18.9355072,18.6139598 18.9932723,18.1166211 L19,18 L19,2 C19,1.48716416 18.6139598,1.06449284 18.1166211,1.00672773 L18,1 Z" id="矩形备份-3" fill="#5A6074" fill-rule="nonzero"></path>
        <path d="M9.78,15.084 C11.544,15.084 12.888,13.936 12.888,11.976 C12.888,10.128 11.614,9.022 10.27,9.022 C10.032,9.022 9.766,9.05 9.528,9.148 L11.6,5.032 L9.612,5.032 L7.512,9.344 C7.064,10.254 6.672,11.094 6.672,12.004 C6.672,13.978 8.016,15.084 9.78,15.084 Z M9.78,13.446 C9.038,13.446 8.492,12.914 8.492,11.99 C8.492,11.066 9.038,10.534 9.78,10.534 C10.55,10.534 11.068,11.108 11.068,11.99 C11.068,12.914 10.522,13.446 9.78,13.446 Z" id="6" fill="#FFFFFF" fill-rule="nonzero"></path>
    </g>
</svg>