<?xml version="1.0" encoding="UTF-8"?>
<svg width="14" height="14" viewBox="0 0 14 14" fill="none" xmlns="http://www.w3.org/2000/svg">
    <path fill-rule="evenodd" clip-rule="evenodd" d="M4.67727 0.405912C6.17273 -0.135304 7.85909 -0.135304 9.35454 0.405912C12.1227 1.39284 14 4.03525 14 6.99602C14 10.8482 10.85 14 7 14C3.15 14 0 10.8482 0 6.99602C0 4.03525 1.87727 1.39284 4.67727 0.405912ZM11.8053 3.87659C11.1371 2.85783 10.1189 2.03008 8.9098 1.58438C8.78253 1.5207 8.62344 1.48887 8.46435 1.45703L7.35071 2.25294C7.12798 2.41212 6.8098 2.41212 6.58707 2.25294L5.47344 1.45703C5.44454 1.46667 5.4098 1.47923 5.37189 1.49294L5.37188 1.49294C5.28456 1.52451 5.18036 1.56218 5.09162 1.58438C3.88253 2.03008 2.86435 2.85783 2.19616 3.87659L2.6098 5.18187C2.70526 5.43656 2.6098 5.72309 2.38707 5.88227L1.27344 6.71002V6.99654C1.27344 8.3655 1.75071 9.60712 2.54616 10.594H3.91435C4.20071 10.594 4.42344 10.7851 4.51889 11.0397L4.93253 12.345C5.56889 12.5997 6.26889 12.7271 7.00071 12.7271C7.73253 12.7271 8.40071 12.5997 9.03707 12.345L9.45071 11.0397C9.54616 10.7851 9.76889 10.594 10.0553 10.594H11.4234C12.2189 9.60712 12.6962 8.3655 12.6962 6.99654V6.71002L11.5825 5.91411C11.3598 5.75493 11.2643 5.4684 11.3598 5.21371L11.8053 3.87659ZM7.38111 4.00415C7.15838 3.84497 6.8402 3.84497 6.61747 4.00415L4.29474 5.69147C4.07201 5.85066 3.97656 6.13718 4.07201 6.39187L4.96292 9.16163C5.05838 9.41632 5.28111 9.60734 5.56747 9.60734H8.46292C8.74929 9.60734 8.97201 9.41632 9.06747 9.16163L9.95838 6.39187C10.0538 6.13718 9.95838 5.85066 9.73565 5.69147L7.38111 4.00415Z" fill="#0BC65E"/>
</svg>
