<?xml version="1.0" encoding="UTF-8"?>
<svg width="16" height="15" viewBox="0 0 16 15" fill="none" xmlns="http://www.w3.org/2000/svg">
    <path fill-rule="evenodd" clip-rule="evenodd" d="M0 2.5C0 1.39543 0.895431 0.5 2 0.5H14C15.1046 0.5 16 1.39543 16 2.5V10.6333C16 11.7379 15.1046 12.6333 14 12.6333H2C0.895431 12.6333 0 11.7379 0 10.6333V2.5ZM3.76471 14.0333C3.76471 13.7756 3.97364 13.5667 4.23137 13.5667H11.7686C12.0264 13.5667 12.2353 13.7756 12.2353 14.0333C12.2353 14.2911 12.0264 14.5 11.7686 14.5H4.23137C3.97364 14.5 3.76471 14.2911 3.76471 14.0333ZM6.58598 9.86633C6.28041 10.0599 5.87714 9.96694 5.68523 9.65881C5.61985 9.55383 5.58517 9.43238 5.58517 9.30842V3.65467C5.58517 3.29081 5.87767 2.99585 6.2385 2.99585C6.36143 2.99585 6.48187 3.03083 6.58598 3.09676L11.0495 5.92363C11.3551 6.11715 11.4472 6.52381 11.2553 6.83194C11.2031 6.91584 11.1327 6.98677 11.0495 7.03946L6.58598 9.86633ZM6.5185 8.79767L10.1756 6.48155L6.5185 4.16542V8.79767Z" fill="#F48484"/>
</svg>
