<?xml version="1.0" encoding="UTF-8"?>
<svg viewBox="0 0 1024 1024" version="1.1" xmlns="http://www.w3.org/2000/svg"
     style="height: 30px; width: 30px;">
    <path d="M237.546667 34.325333l2.986666 0.789334a37.333333 37.333333 0 0 1 25.450667 43.690666l-0.789333 2.986667-14.314667 46.506667a463.552 463.552 0 0 1 141.013333-64.490667C639.466667-2.517333 893.866667 144.384 960.213333 391.914667c66.325333 247.530667-80.576 501.952-328.106666 568.277333C384.554667 1026.517333 130.133333 879.616 63.808 632.085333a462.186667 462.186667 0 0 1-6.336-213.866666 37.333333 37.333333 0 0 1 73.130667 15.146666 387.52 387.52 0 0 0 5.333333 179.413334c55.658667 207.68 269.141333 330.944 476.821333 275.285333 207.701333-55.658667 330.965333-269.141333 275.306667-476.821333C832.426667 203.52 618.922667 80.277333 411.242667 135.936a388.544 388.544 0 0 0-126.4 59.733333l62.293333 3.157334a37.333333 37.333333 0 0 1 35.456 36.074666l-0.021333 3.072a37.333333 37.333333 0 0 1-36.096 35.456l-3.072-0.042666-137.962667-6.933334a57.728 57.728 0 0 1-53.482667-70.016l1.216-4.629333 40.661334-132.010667a37.333333 37.333333 0 0 1 43.733333-25.472z"></path>
</svg>