<svg width="12" height="12" viewBox="0 0 12 12" fill="none" xmlns="http://www.w3.org/2000/svg">
<circle cx="6" cy="6" r="6" fill="#4987FB"/>
<path d="M7.57851 2.56229C7.6095 2.50084 7.57851 2.40869 7.54752 2.34724C7.39271 2.28578 7.23783 2.25509 7.08303 2.19364C7.02112 2.22433 6.95914 2.28578 6.92823 2.37793L6.64984 3.39175C6.86662 3.4532 7.05242 3.51466 7.23821 3.63749L7.57851 2.56229ZM8.60045 5.60353L9.83918 5.26564C9.80819 5.05058 9.74628 4.83553 9.68438 4.65124L8.44565 4.98913C8.53854 5.17349 8.56953 5.38855 8.60045 5.60353ZM9.09593 3.60673C9.09593 3.60673 9.09593 3.57604 9.12692 3.54527C9.00303 3.39167 8.87914 3.23807 8.75533 3.11516C8.72434 3.11516 8.69342 3.11516 8.66243 3.14585L7.79529 4.00615C7.9501 4.15975 8.10497 4.31335 8.22886 4.49764L9.09593 3.60673ZM8.53854 6.52528C8.25955 7.63109 7.23791 8.46055 6.03017 8.46055C4.60565 8.46055 3.45982 7.32389 3.45982 5.91058C3.45982 4.49726 4.60565 3.36061 6.03017 3.36061V2.04004C3.89339 2.04004 2.15918 3.76033 2.15918 5.88004C2.15918 7.99975 3.89339 9.72004 6.03017 9.72004C7.95017 9.72004 9.5295 8.33764 9.83918 6.52513L8.53854 6.52528ZM5.41081 7.17007L7.3618 5.88004L5.41081 4.59001V7.17007Z" fill="white" stroke="white" stroke-width="0.3"/>
<path d="M0.240234 7.32031C0.542953 8.52929 1.05858 9.49803 1.78711 10.2266C2.51564 10.9551 3.50002 11.4863 4.74023 11.8203H1.08398C0.618 11.8203 0.240234 11.4425 0.240234 10.9766V7.32031Z" fill="#4987FB" fill-opacity="0.5"/>
</svg>
