<svg width="121" height="32" viewBox="0 0 121 32" fill="none" xmlns="http://www.w3.org/2000/svg">
<mask id="path-1-outside-1_414_125285" maskUnits="userSpaceOnUse" x="0" y="0.427734" width="31" height="31" fill="black">
<rect fill="white" y="0.427734" width="31" height="31"/>
<path fill-rule="evenodd" clip-rule="evenodd" d="M2.00003 15.5823C2.00003 8.34723 7.91953 2.42773 15.1547 2.42773C22.5213 2.42773 28.3092 8.34723 28.3092 15.5823C28.3092 22.8173 22.3897 28.7369 15.1547 28.7369C12.5236 28.7369 10.0242 27.8161 7.9195 26.5005L9.89279 24.6589C11.4714 25.5798 13.313 26.1061 15.2862 26.1061C21.0742 26.1061 25.8099 21.3704 25.8099 15.5823C25.8099 9.79427 21.0742 5.05869 15.2862 5.05869C9.62966 5.05869 5.1571 9.26816 4.76246 14.793L9.89282 16.3131C5.93763 20.3721 3.9163 22.3308 3.83143 22.1888C2.62823 20.1956 1.99478 17.9105 2.00003 15.5823ZM20.1537 16.7626L14.1561 20.5999C13.9224 20.7492 13.6861 20.8224 13.4525 20.8224C12.792 20.8224 12.3145 20.234 12.3145 19.4203V11.7458C12.3145 10.935 12.7945 10.3438 13.4525 10.3438C13.6862 10.3438 13.9224 10.4197 14.1561 10.5661L20.1537 14.4063C20.583 14.6821 20.8319 15.1101 20.8319 15.5831C20.8319 16.056 20.5855 16.4868 20.1537 16.7626Z"/>
</mask>
<path fill-rule="evenodd" clip-rule="evenodd" d="M2.00003 15.5823C2.00003 8.34723 7.91953 2.42773 15.1547 2.42773C22.5213 2.42773 28.3092 8.34723 28.3092 15.5823C28.3092 22.8173 22.3897 28.7369 15.1547 28.7369C12.5236 28.7369 10.0242 27.8161 7.9195 26.5005L9.89279 24.6589C11.4714 25.5798 13.313 26.1061 15.2862 26.1061C21.0742 26.1061 25.8099 21.3704 25.8099 15.5823C25.8099 9.79427 21.0742 5.05869 15.2862 5.05869C9.62966 5.05869 5.1571 9.26816 4.76246 14.793L9.89282 16.3131C5.93763 20.3721 3.9163 22.3308 3.83143 22.1888C2.62823 20.1956 1.99478 17.9105 2.00003 15.5823ZM20.1537 16.7626L14.1561 20.5999C13.9224 20.7492 13.6861 20.8224 13.4525 20.8224C12.792 20.8224 12.3145 20.234 12.3145 19.4203V11.7458C12.3145 10.935 12.7945 10.3438 13.4525 10.3438C13.6862 10.3438 13.9224 10.4197 14.1561 10.5661L20.1537 14.4063C20.583 14.6821 20.8319 15.1101 20.8319 15.5831C20.8319 16.056 20.5855 16.4868 20.1537 16.7626Z" fill="white"/>
<path d="M2.00003 15.5823L4.00003 15.5868V15.5823H2.00003ZM7.9195 26.5005L6.55491 25.0384C6.10048 25.4625 5.86907 26.0738 5.92873 26.6925C5.98839 27.3112 6.33233 27.867 6.85942 28.1965L7.9195 26.5005ZM9.89279 24.6589L10.9006 22.9314C10.1379 22.4865 9.17371 22.5943 8.52821 23.1968L9.89279 24.6589ZM4.76246 14.793L2.76755 14.6505C2.70066 15.5869 3.29413 16.4439 4.19429 16.7106L4.76246 14.793ZM9.89282 16.3131L11.3252 17.7089C11.8141 17.2071 12.0049 16.4862 11.8281 15.8083C11.6513 15.1304 11.1327 14.5945 10.461 14.3955L9.89282 16.3131ZM3.83143 22.1888L5.54818 21.1627L5.54365 21.1552L3.83143 22.1888ZM14.1561 20.5999L15.2333 22.285L15.234 22.2846L14.1561 20.5999ZM20.1537 16.7626L19.0771 15.0771L19.0758 15.0779L20.1537 16.7626ZM14.1561 10.5661L15.2345 8.88182C15.2292 8.87839 15.2238 8.875 15.2184 8.87163L14.1561 10.5661ZM20.1537 14.4063L21.2348 12.7236L21.2321 12.7219L20.1537 14.4063ZM15.1547 0.427734C6.81497 0.427734 3.24249e-05 7.24265 3.24249e-05 15.5823H4.00003C4.00003 9.45181 9.02409 4.42773 15.1547 4.42773V0.427734ZM30.3092 15.5823C30.3092 7.25575 23.6389 0.427734 15.1547 0.427734V4.42773C21.4037 4.42773 26.3092 9.43872 26.3092 15.5823H30.3092ZM15.1547 30.7369C23.4943 30.7369 30.3092 23.9219 30.3092 15.5823H26.3092C26.3092 21.7128 21.2851 26.7369 15.1547 26.7369V30.7369ZM6.85942 28.1965C9.19655 29.6573 12.0593 30.7369 15.1547 30.7369V26.7369C12.988 26.7369 10.8519 25.9749 8.97958 24.8046L6.85942 28.1965ZM8.52821 23.1968L6.55491 25.0384L9.28408 27.9627L11.2574 26.1211L8.52821 23.1968ZM15.2862 24.1061C13.6733 24.1061 12.1787 23.677 10.9006 22.9314L8.88503 26.3865C10.7642 27.4827 12.9528 28.1061 15.2862 28.1061V24.1061ZM23.8099 15.5823C23.8099 20.2658 19.9697 24.1061 15.2862 24.1061V28.1061C22.1788 28.1061 27.8099 22.475 27.8099 15.5823H23.8099ZM15.2862 7.05869C19.9697 7.05869 23.8099 10.8989 23.8099 15.5823H27.8099C27.8099 8.68968 22.1788 3.05869 15.2862 3.05869V7.05869ZM6.75738 14.9355C7.07708 10.4598 10.6764 7.05869 15.2862 7.05869V3.05869C8.58293 3.05869 3.23712 8.07652 2.76755 14.6505L6.75738 14.9355ZM10.461 14.3955L5.33063 12.8754L4.19429 16.7106L9.32465 18.2307L10.461 14.3955ZM2.11469 23.2148C2.54502 23.9348 3.25474 24.1679 3.74118 24.1932C4.14316 24.2141 4.44922 24.1089 4.56215 24.0672C4.81513 23.9739 5.00473 23.8472 5.07122 23.8024C5.24542 23.6851 5.4206 23.5399 5.56451 23.4158C5.8735 23.1492 6.29177 22.7577 6.80273 22.2624C7.83437 21.2625 9.34474 19.7413 11.3252 17.7089L8.46041 14.9173C6.48572 16.9438 5.00783 18.4315 4.01877 19.3902C3.5194 19.8742 3.16922 20.1994 2.95174 20.387C2.83241 20.49 2.80485 20.5062 2.83682 20.4847C2.84984 20.4759 2.88087 20.4555 2.92609 20.43C2.96544 20.4079 3.05406 20.36 3.17791 20.3144C3.27041 20.2802 3.55982 20.1784 3.94893 20.1986C4.4225 20.2233 5.12313 20.4516 5.54816 21.1627L2.11469 23.2148ZM3.74317e-05 15.5778C-0.00603747 18.2719 0.726941 20.916 2.1192 23.2224L5.54365 21.1552C4.52951 19.4752 3.9956 17.5492 4.00003 15.5868L3.74317e-05 15.5778ZM15.234 22.2846L21.2316 18.4473L19.0758 15.0779L13.0782 18.9152L15.234 22.2846ZM13.4525 22.8224C14.1226 22.8224 14.7274 22.6084 15.2333 22.285L13.0789 18.9148C13.1175 18.8901 13.2497 18.8224 13.4525 18.8224V22.8224ZM10.3145 19.4203C10.3145 20.9283 11.3176 22.8224 13.4525 22.8224V18.8224C13.7645 18.8224 14.0366 18.9787 14.1887 19.1661C14.322 19.3304 14.3145 19.4469 14.3145 19.4203H10.3145ZM10.3145 11.7458V19.4203H14.3145V11.7458H10.3145ZM13.4525 8.34375C11.3203 8.34375 10.3145 10.2405 10.3145 11.7458H14.3145C14.3145 11.7245 14.3206 11.8398 14.1896 12.0012C14.041 12.1843 13.7705 12.3438 13.4525 12.3438V8.34375ZM15.2184 8.87163C14.7338 8.56779 14.1343 8.34375 13.4525 8.34375V12.3438C13.2381 12.3438 13.1111 12.2716 13.0937 12.2607L15.2184 8.87163ZM21.2321 12.7219L15.2345 8.88182L13.0777 12.2505L19.0753 16.0906L21.2321 12.7219ZM22.8319 15.5831C22.8319 14.358 22.1741 13.3271 21.2348 12.7236L19.0726 16.0889C19.0387 16.0671 18.9768 16.0161 18.922 15.9212C18.8656 15.8236 18.8319 15.7047 18.8319 15.5831H22.8319ZM21.2303 18.4482C22.1853 17.8382 22.8319 16.7982 22.8319 15.5831H18.8319C18.8319 15.4657 18.8641 15.3489 18.9203 15.251C18.9753 15.1551 19.039 15.1015 19.0771 15.0771L21.2303 18.4482Z" fill="#484848" fill-opacity="0.4" mask="url(#path-1-outside-1_414_125285)"/>
<path d="M48.2439 7.31381C49.8375 7.31381 51.0928 7.72724 52.0099 8.5541C52.942 9.36593 53.4081 10.516 53.4081 12.0044C53.4081 13.2371 53.0848 14.2444 52.4384 15.0262C51.807 15.8079 50.9124 16.3116 49.7548 16.5371C50.6268 17.4992 51.401 18.499 52.0776 19.5363C52.7541 20.5736 53.4005 21.7613 54.0169 23.0993H50.5892C49.8826 21.6711 49.2287 20.491 48.6273 19.5589C48.0259 18.6268 47.2442 17.6721 46.282 16.6949H44.6584V23.0993H40.9375V7.31381H48.2439ZM47.9733 14.1016C48.7401 14.1016 49.3339 13.8986 49.7548 13.4927C50.1758 13.0868 50.3863 12.5907 50.3863 12.0044C50.3863 11.403 50.1683 10.9069 49.7323 10.516C49.3113 10.1101 48.725 9.90715 47.9733 9.90715H44.6584V14.1016H47.9733Z" fill="white"/>
<path d="M66.4512 22.4454C65.8799 22.7911 65.2109 23.0467 64.4442 23.2121C63.6925 23.3775 62.9633 23.4601 62.2568 23.4601C59.8513 23.4601 58.0247 22.8889 56.7769 21.7463C55.5442 20.6037 54.9278 19.0026 54.9278 16.943C54.9278 14.8984 55.4765 13.3349 56.574 12.2524C57.6865 11.155 59.1974 10.6062 61.1067 10.6062C63.0009 10.6062 64.4968 11.155 65.5943 12.2524C66.7068 13.3349 67.263 14.8984 67.263 16.943C67.263 17.1685 67.248 17.4917 67.2179 17.9127H58.4457C58.7764 19.852 60.0468 20.8217 62.2568 20.8217C63.8052 20.8217 65.2034 20.3632 66.4512 19.4461V22.4454ZM63.8579 15.387C63.6624 14.6353 63.3242 14.079 62.8431 13.7182C62.362 13.3574 61.7832 13.177 61.1067 13.177C60.4752 13.177 59.934 13.3649 59.483 13.7408C59.047 14.1166 58.7388 14.6654 58.5584 15.387H63.8579Z" fill="white"/>
<path d="M68.6256 28.2409C68.806 27.7297 68.9263 27.0156 68.9864 26.0986C69.0465 25.1815 69.0766 24.3471 69.0766 23.5954V10.9219H72.6847V12.0495C73.1808 11.5985 73.722 11.2527 74.3084 11.0121C74.9097 10.7566 75.5111 10.6288 76.1124 10.6288C77.2249 10.6288 78.1946 10.8994 79.0215 11.4406C79.8634 11.9818 80.5098 12.741 80.9608 13.7182C81.4269 14.6804 81.6599 15.7854 81.6599 17.0332C81.6599 18.281 81.4344 19.386 80.9834 20.3481C80.5324 21.2953 79.8859 22.0394 79.044 22.5807C78.2021 23.1219 77.2249 23.3925 76.1124 23.3925C74.7594 23.3925 73.6168 23.0016 72.6847 22.2198V23.5954C72.6847 24.3922 72.6396 25.2416 72.5494 26.1437C72.4742 27.0607 72.369 27.7598 72.2337 28.2409H68.6256ZM72.6847 19.2883C73.0004 19.9046 73.3988 20.3106 73.8799 20.506C74.376 20.7014 74.827 20.7992 75.2329 20.7992C75.7441 20.7992 76.2252 20.6338 76.6762 20.303C77.1422 19.9573 77.5106 19.4987 77.7812 18.9274C78.0668 18.3562 78.2096 17.7247 78.2096 17.0332C78.2096 16.3266 78.0668 15.6877 77.7812 15.1164C77.5106 14.53 77.1422 14.0715 76.6762 13.7408C76.2252 13.41 75.7441 13.2447 75.2329 13.2447C74.827 13.2447 74.376 13.3424 73.8799 13.5378C73.3988 13.7333 73.0004 14.1392 72.6847 14.7556V19.2883Z" fill="white"/>
<path d="M87.4512 23.2797C86.0982 23.2797 85.0759 22.9039 84.3843 22.1522C83.6928 21.3855 83.347 20.2655 83.347 18.7921V5.75781H86.9551V17.8901C86.9551 18.4915 87.0002 18.95 87.0904 19.2657C87.1806 19.5814 87.3309 19.822 87.5414 19.9873C87.7068 20.1226 87.8872 20.2128 88.0826 20.2579C88.2931 20.288 88.6539 20.303 89.1651 20.303V23.2797H87.4512Z" fill="white"/>
<path d="M95.7129 23.3925C94.5703 23.3925 93.5706 23.1219 92.7136 22.5807C91.8717 22.0394 91.2178 21.2953 90.7517 20.3481C90.3007 19.401 90.0752 18.296 90.0752 17.0332C90.0752 15.7854 90.3007 14.6804 90.7517 13.7182C91.2178 12.741 91.8642 11.9818 92.6911 11.4406C93.533 10.8994 94.5102 10.6288 95.6227 10.6288C96.1338 10.6288 96.645 10.7265 97.1561 10.9219C97.6823 11.1023 98.1709 11.3579 98.6219 11.6887V10.9219H102.23V20.2579C102.23 21.4757 102.38 22.4228 102.681 23.0993H99.2985C99.1932 22.8889 99.103 22.6182 99.0278 22.2875C98.0957 23.0242 96.9908 23.3925 95.7129 23.3925ZM93.5255 17.0332C93.5255 17.7247 93.6608 18.3562 93.9314 18.9274C94.217 19.4987 94.5854 19.9573 95.0364 20.303C95.5024 20.6338 95.991 20.7992 96.5022 20.7992C96.863 20.7992 97.2689 20.724 97.7199 20.5736C98.1709 20.4083 98.5618 20.0625 98.8925 19.5363V14.4849C98.5618 13.9588 98.1709 13.6205 97.7199 13.4702C97.2839 13.3198 96.878 13.2447 96.5022 13.2447C95.991 13.2447 95.5024 13.41 95.0364 13.7408C94.5854 14.0715 94.217 14.53 93.9314 15.1164C93.6608 15.6877 93.5255 16.3266 93.5255 17.0332Z" fill="white"/>
<path d="M112.607 23.3925C112.11 24.971 111.246 26.1512 110.013 26.933C108.78 27.7448 106.954 28.1808 104.533 28.2409V25.3319C105.556 25.3319 106.443 25.2191 107.194 24.9936C107.886 24.7681 108.39 24.4674 108.705 24.0916C109.036 23.7157 109.284 23.2271 109.449 22.6258L109.743 21.5884H107.758L103.361 10.9219H107.037L110.329 19.4687L112.719 10.9219H116.463L112.607 23.3925Z" fill="white"/>
<path fill-rule="evenodd" clip-rule="evenodd" d="M48.4175 9.93363C48.9602 10 49.3987 10.1944 49.7329 10.5167C49.8301 10.6038 49.9164 10.6961 49.9919 10.7936C50.0027 10.8076 50.0133 10.8217 50.0237 10.8359C50.2658 11.1672 50.3869 11.5569 50.3869 12.005C50.3869 12.4072 50.2879 12.7669 50.0898 13.0842C50.0836 13.0942 50.0773 13.1041 50.0708 13.114C49.9837 13.2482 49.8786 13.3746 49.7555 13.4934C49.6037 13.6398 49.4294 13.7598 49.2326 13.8534C49.1238 13.9051 49.0081 13.9488 48.8856 13.9844C48.7394 14.0269 48.5833 14.0579 48.4175 14.0774C48.2767 14.0939 48.1289 14.1022 47.974 14.1022H44.659V9.90779H47.974C48.0667 9.90779 48.1569 9.91088 48.2446 9.91706C48.3033 9.92119 48.361 9.92672 48.4175 9.93363ZM40.9381 7.31446H48.2446C49.6717 7.31446 50.8275 7.64602 51.7121 8.30915C51.741 8.33082 51.7696 8.35283 51.7979 8.37521C51.8707 8.43272 51.9416 8.49256 52.0106 8.55475C52.5769 9.04798 52.9711 9.66607 53.1934 10.409C53.3369 10.8889 53.4087 11.4209 53.4087 12.005C53.4087 12.9233 53.2294 13.7164 52.8707 14.3844C52.7478 14.6132 52.6039 14.8274 52.439 15.0268C52.2558 15.2537 52.0503 15.4572 51.8228 15.6372C51.6304 15.7894 51.4222 15.9248 51.1981 16.0435C51.0869 16.1024 50.9719 16.1572 50.8529 16.2079C50.518 16.3505 50.1522 16.4604 49.7555 16.5377C50.0127 16.8215 50.2614 17.1086 50.5016 17.3989C50.6733 17.6065 50.8407 17.8158 51.0037 18.0267C51.085 18.1319 51.1652 18.2374 51.2443 18.3434C51.4897 18.6721 51.7247 19.0048 51.9493 19.3415C51.9927 19.4065 52.0356 19.4717 52.0782 19.537C52.1175 19.5972 52.1567 19.658 52.1958 19.7193C52.5912 20.339 52.9762 21.0105 53.3509 21.734C53.5769 22.1704 53.7991 22.6258 54.0176 23.1H50.5899C50.2409 22.3946 49.9047 21.7497 49.5814 21.1653C49.2501 20.5665 48.9323 20.0312 48.6279 19.5595C48.5601 19.4543 48.4899 19.3489 48.4175 19.2431C48.215 18.9475 47.9945 18.6497 47.7561 18.3496C47.6272 18.1873 47.493 18.0243 47.3535 17.8607C47.0256 17.4759 46.6686 17.0876 46.2827 16.6956H44.659V23.1H40.9381V7.31446ZM47.6245 25.4094C46.9367 26.2913 45.8641 26.8584 44.659 26.8584H40.9381C38.8624 26.8584 37.1797 25.1757 37.1797 23.1V7.31446C37.1797 5.23872 38.8624 3.556 40.9381 3.556H48.2446C50.4799 3.556 52.718 4.14478 54.5034 5.74191C55.2426 6.39102 55.8098 7.1313 56.2269 7.9303C57.7216 7.1769 59.3889 6.84841 61.1073 6.84841C63.0155 6.84841 64.8612 7.25838 66.4731 8.21249C67.1486 7.56323 68.0663 7.16412 69.0772 7.16412H72.6854C72.997 7.16412 73.2998 7.20205 73.5893 7.27354C74.3949 7.01362 75.2397 6.87096 76.1131 6.87096C77.3079 6.87096 78.4823 7.07397 79.5892 7.51855V5.75846C79.5892 3.68272 81.2719 2 83.3476 2H86.9557C89.0315 2 90.7142 3.68272 90.7142 5.75846V8.24472C92.2148 7.29568 93.8944 6.87096 95.6233 6.87096C96.4263 6.87096 97.2059 6.99528 97.952 7.22376C98.1696 7.18458 98.3937 7.16412 98.6226 7.16412H102.231C102.423 7.16412 102.613 7.17862 102.798 7.2066C102.983 7.17852 103.171 7.16412 103.361 7.16412H107.037C108.148 7.16412 109.178 7.65322 109.879 8.46213C110.576 7.65709 111.603 7.16412 112.72 7.16412H116.463C117.657 7.16412 118.78 7.73112 119.488 8.69178C120.197 9.65244 120.407 10.8925 120.054 12.0329L116.193 24.52C115.471 26.8153 114.12 28.7704 112.053 30.0906C109.973 31.4498 107.334 31.9316 104.627 31.9988C103.615 32.024 102.635 31.6393 101.91 30.932C101.184 30.2246 100.776 29.2545 100.776 28.2415V26.8584H99.2991C99.0075 26.8584 98.721 26.8247 98.4444 26.7601C97.5692 27.0235 96.6532 27.1516 95.7135 27.1516C94.2577 27.1516 92.833 26.8607 91.5171 26.2126C90.8733 26.7296 90.0556 27.0388 89.1657 27.0388H87.4519C85.5588 27.0388 83.5574 26.5365 81.9902 25.0718C81.7032 25.312 81.3988 25.536 81.0771 25.7428C79.5963 26.6948 77.9385 27.132 76.2297 27.1509C76.1481 27.9001 76.031 28.6241 75.8524 29.2591C75.3965 30.8801 73.9182 32 72.2343 32H68.6262C67.4065 32 66.2625 31.4081 65.558 30.4123C64.8535 29.4166 64.6761 28.1409 65.082 26.9907C65.0815 26.9922 65.0894 26.969 65.1022 26.9157C64.158 27.1135 63.208 27.2192 62.2574 27.2192C60.2041 27.2192 58.1838 26.8805 56.4084 26C55.7442 26.5475 54.9019 26.8584 54.0176 26.8584H50.5899C49.4173 26.8584 48.3279 26.3128 47.6245 25.4094ZM83.545 20.5192C83.6739 21.0171 83.866 21.4505 84.1213 21.8194C84.1294 21.8311 84.1376 21.8428 84.1458 21.8544C84.2015 21.9327 84.26 22.008 84.3214 22.0803C84.3423 22.1048 84.3634 22.129 84.385 22.1528C84.4566 22.2307 84.5318 22.3045 84.6105 22.3743C84.7988 22.5413 85.0075 22.6852 85.2364 22.806C85.2579 22.8174 85.2797 22.8285 85.3016 22.8395C85.3364 22.8569 85.3716 22.8738 85.4073 22.8901C85.9586 23.1431 86.6182 23.2731 87.386 23.2801C87.4079 23.2803 87.4298 23.2804 87.4519 23.2804H89.1657V20.3037C88.6546 20.3037 88.2937 20.2886 88.0833 20.2586C87.8878 20.2135 87.7074 20.1233 87.5421 19.988C87.5107 19.9633 87.4806 19.9369 87.4519 19.9089C87.3409 19.8007 87.25 19.6676 87.179 19.5095C87.1712 19.4922 87.1637 19.4747 87.1564 19.4568C87.1319 19.3967 87.1101 19.3332 87.091 19.2663C87.0531 19.1337 87.0232 18.9758 87.0012 18.7928C86.9709 18.5401 86.9557 18.2395 86.9557 17.8908V5.75846H83.3476V18.7928C83.3476 19.3426 83.3958 19.8432 83.4921 20.2946C83.5084 20.3709 83.526 20.4457 83.545 20.5192ZM79.0221 11.4412C78.8726 11.3434 78.7184 11.2543 78.5595 11.1742C78.5446 11.1666 78.5296 11.1592 78.5146 11.1518C77.8918 10.8457 77.198 10.6741 76.4331 10.6371C76.3278 10.632 76.2211 10.6294 76.1131 10.6294C75.8199 10.6294 75.5267 10.6598 75.2336 10.7205C75.0009 10.7687 74.7682 10.8361 74.5355 10.9226C74.46 10.9506 74.3845 10.9807 74.309 11.0128C73.899 11.181 73.5111 11.4006 73.1452 11.6718C73.1393 11.6761 73.1334 11.6805 73.1275 11.6849C73.0286 11.7588 72.9314 11.8364 72.8357 11.9178C72.7851 11.9609 72.735 12.005 72.6854 12.0501V10.9226H69.0772V23.5961C69.0772 23.88 69.0729 24.1756 69.0644 24.4831C69.0581 24.7067 69.0496 24.9365 69.0389 25.1725C69.0297 25.3738 69.0188 25.5796 69.0064 25.79C69.0051 25.8111 69.0038 25.8323 69.0025 25.8535C68.9976 25.9348 68.9924 26.0167 68.987 26.0992C68.9578 26.5445 68.9144 26.942 68.8569 27.2916C68.7959 27.662 68.719 27.9786 68.6262 28.2415H72.2343C72.3533 27.8185 72.4491 27.2268 72.5215 26.4666C72.5258 26.4222 72.5299 26.3773 72.534 26.3318C72.5395 26.2704 72.5448 26.2079 72.55 26.1443C72.6225 25.4193 72.6659 24.7283 72.6801 24.0713C72.6836 23.9108 72.6854 23.7525 72.6854 23.5961V22.2205C72.7349 22.262 72.785 22.3025 72.8357 22.3418C72.9113 22.4004 72.9883 22.4566 73.0665 22.5104C73.073 22.5148 73.0795 22.5192 73.086 22.5236C73.7165 22.9522 74.4324 23.2223 75.2336 23.334C75.5161 23.3734 75.8093 23.3931 76.1131 23.3931C76.2247 23.3931 76.3349 23.3904 76.4438 23.385C77.2146 23.3464 77.9171 23.1714 78.5514 22.8599C78.5567 22.8572 78.5621 22.8546 78.5675 22.8519C78.7311 22.7708 78.8902 22.6806 79.0447 22.5813C79.3974 22.3546 79.7158 22.0922 79.9999 21.7942C80.359 21.4176 80.6633 20.984 80.9128 20.4936C80.924 20.4715 80.9351 20.4493 80.9461 20.427C80.9589 20.4011 80.9715 20.375 80.984 20.3488C81.2103 19.8661 81.3798 19.3474 81.4926 18.7928C81.6045 18.2419 81.6605 17.6556 81.6605 17.0338C81.6605 15.786 81.4275 14.681 80.9615 13.7189C80.9527 13.6998 80.9438 13.6807 80.9348 13.6618C80.9193 13.629 80.9035 13.5965 80.8875 13.5642C80.553 12.8879 80.1202 12.3211 79.5892 11.864C79.4112 11.7108 79.2222 11.5698 79.0221 11.4412ZM77.7818 15.117C77.6275 14.7827 77.4415 14.49 77.2237 14.2388C77.2175 14.2316 77.2112 14.2245 77.205 14.2174C77.0456 14.0369 76.8696 13.8782 76.6768 13.7414C76.4939 13.6072 76.3059 13.5003 76.1131 13.4205C75.8381 13.3068 75.553 13.2485 75.2579 13.2454C75.2498 13.2453 75.2417 13.2453 75.2336 13.2453C75.2307 13.2453 75.2278 13.2453 75.2249 13.2453C74.8535 13.2466 74.4445 13.3294 73.9978 13.4938C73.959 13.5081 73.9199 13.523 73.8805 13.5385C73.4729 13.7041 73.1246 14.0208 72.8357 14.4887C72.7837 14.5729 72.7335 14.6621 72.6854 14.7562V19.2889C72.7335 19.383 72.7837 19.4722 72.8357 19.5564C73.1246 20.0243 73.4729 20.341 73.8805 20.5066C73.9427 20.5311 74.0042 20.5541 74.065 20.5755C74.489 20.725 74.8786 20.7998 75.2336 20.7998C75.5374 20.7998 75.8305 20.7414 76.1131 20.6246C76.3059 20.5448 76.4939 20.4379 76.6768 20.3037C76.8842 20.1499 77.0721 19.9737 77.2408 19.7753C77.4512 19.5276 77.6316 19.2452 77.7818 18.9281C77.7927 18.9064 77.8033 18.8846 77.8138 18.8627C77.8168 18.8563 77.8199 18.8499 77.8229 18.8435C78.0811 18.2946 78.2103 17.6914 78.2103 17.0338C78.2103 16.3744 78.0859 15.7738 77.8371 15.2322C77.8281 15.2126 77.8189 15.1931 77.8095 15.1736C77.8005 15.1547 77.7912 15.1358 77.7818 15.117ZM67.2186 17.9133C67.2471 17.5138 67.2621 17.2023 67.2635 16.9788C67.2636 16.9668 67.2637 16.9551 67.2637 16.9436C67.2637 16.6075 67.2486 16.2844 67.2186 15.9743C67.2116 15.903 67.2039 15.8324 67.1954 15.7625C67.1446 15.3444 67.0654 14.9508 66.9577 14.5818C66.9151 14.4356 66.8679 14.2933 66.8164 14.1548C66.5386 13.409 66.1314 12.7751 65.5949 12.2531C65.5055 12.1637 65.4135 12.0779 65.3188 11.9958C65.0796 11.7883 64.8235 11.6041 64.5505 11.4431C63.6052 10.8856 62.4574 10.6069 61.1073 10.6069C59.7262 10.6069 58.5535 10.894 57.5894 11.4682C57.575 11.4768 57.5606 11.4854 57.5463 11.4941C57.415 11.574 57.2876 11.6594 57.1641 11.7501C57.0542 11.8308 56.9474 11.9158 56.8437 12.005C56.7515 12.0843 56.6618 12.167 56.5746 12.2531C55.9526 12.8666 55.5068 13.6346 55.2374 14.5572C55.0739 15.117 54.9753 15.7336 54.9415 16.4072C54.9388 16.4624 54.9365 16.518 54.9346 16.574C54.9305 16.6954 54.9284 16.8186 54.9284 16.9436C54.9284 16.9751 54.9286 17.0064 54.9288 17.0377C54.9288 17.0376 54.9288 17.0377 54.9288 17.0377C54.929 17.0538 54.9292 17.0701 54.9294 17.0862C54.9321 17.282 54.9406 17.4736 54.9547 17.661C54.9592 17.7205 54.9643 17.7797 54.9699 17.8384C54.9914 18.0621 55.0212 18.2796 55.0594 18.4909C55.3002 19.8232 55.8729 20.9085 56.7776 21.7469C56.7974 21.7651 56.8173 21.7831 56.8375 21.8009C57.1049 22.0384 57.3981 22.2504 57.7171 22.4369C58.8848 23.1195 60.3982 23.4608 62.2574 23.4608C62.964 23.4608 63.6931 23.3781 64.4448 23.2127C64.7518 23.1465 65.0431 23.0658 65.3188 22.9707C65.7316 22.8282 66.1093 22.6533 66.4518 22.446V19.4468C66.087 19.7149 65.7093 19.9438 65.3188 20.1336C65.2498 20.167 65.1805 20.1993 65.1108 20.2304C64.7166 20.4059 64.3096 20.5423 63.8899 20.6398C63.8864 20.6406 63.8828 20.6414 63.8793 20.6422C63.4947 20.7309 63.0994 20.7868 62.6934 20.81C62.5494 20.8182 62.4041 20.8223 62.2574 20.8223C60.696 20.8223 59.6037 20.3383 58.9803 19.3703C58.9767 19.3646 58.973 19.3589 58.9694 19.3532C58.9271 19.2864 58.8869 19.2174 58.8489 19.1461C58.731 18.9245 58.6344 18.681 58.5591 18.4156C58.5138 18.2561 58.4762 18.0886 58.4463 17.9133H67.2186ZM63.285 14.1548C63.344 14.2307 63.3996 14.3111 63.4518 14.3962C63.4593 14.4083 63.4667 14.4206 63.474 14.4329C63.6357 14.7053 63.7638 15.0235 63.8585 15.3876H58.5591C58.6352 15.0829 58.7342 14.8091 58.8559 14.5661C58.8559 14.5662 58.856 14.566 58.8559 14.5661C58.9303 14.4176 59.0133 14.2803 59.1047 14.1548C59.218 13.9994 59.3443 13.8616 59.4837 13.7414C59.9347 13.3656 60.4759 13.1776 61.1073 13.1776C61.7838 13.1776 62.3626 13.3581 62.8437 13.7189C63.0073 13.8416 63.1544 13.9869 63.285 14.1548ZM105.748 25.2731C105.367 25.3127 104.963 25.3325 104.534 25.3325V28.2415C105.886 28.208 107.052 28.0572 108.034 27.7892C108.056 27.783 108.078 27.7769 108.1 27.7706C108.165 27.7524 108.229 27.7337 108.292 27.7144C108.957 27.5118 109.531 27.2515 110.014 26.9336C110.382 26.7004 110.717 26.4317 111.019 26.1276C111.036 26.1108 111.052 26.0939 111.069 26.0769C111.73 25.3946 112.23 24.5383 112.57 23.5082C112.573 23.5009 112.575 23.4937 112.577 23.4864C112.587 23.4555 112.597 23.4244 112.607 23.3931L116.463 10.9226H112.72L110.33 19.4693L107.037 10.9226H103.361L107.759 21.5891H109.743L109.45 22.6264C109.406 22.7871 109.356 22.9397 109.3 23.0842C109.146 23.4808 108.948 23.8168 108.706 24.0922C108.618 24.1966 108.516 24.2951 108.4 24.3879C108.386 24.3986 108.372 24.4093 108.358 24.4198C108.188 24.5498 107.988 24.6681 107.759 24.7747C107.587 24.8544 107.399 24.9276 107.195 24.9942C106.993 25.0548 106.782 25.1072 106.56 25.1515C106.303 25.203 106.032 25.2435 105.748 25.2731ZM102.231 10.9226H98.6226V11.6893C98.5729 11.6529 98.5228 11.6174 98.4722 11.5828C98.4451 11.5642 98.4179 11.546 98.3905 11.5279C98.3844 11.5239 98.3783 11.5199 98.3722 11.5159C97.9922 11.2679 97.587 11.0701 97.1568 10.9226C96.9388 10.8392 96.7208 10.7737 96.5028 10.7258C96.2096 10.6616 95.9165 10.6294 95.6233 10.6294C95.3657 10.6294 95.1154 10.6439 94.8723 10.6729C94.2709 10.7447 93.7139 10.9053 93.2013 11.1547C93.1863 11.162 93.1713 11.1694 93.1563 11.1769C92.9971 11.2563 92.8423 11.3445 92.6917 11.4412C91.8996 11.9597 91.273 12.6783 90.812 13.597C90.8063 13.6083 90.8006 13.6197 90.795 13.6311C90.7806 13.6601 90.7664 13.6894 90.7524 13.7189C90.7395 13.7464 90.7267 13.7741 90.7142 13.8018C90.3331 14.6458 90.1227 15.5978 90.0828 16.6579C90.0782 16.7817 90.0758 16.907 90.0758 17.0338C90.0758 17.096 90.0764 17.1579 90.0775 17.2193C90.0816 17.4485 90.0933 17.6723 90.1126 17.8908C90.1274 18.0591 90.1468 18.2244 90.1708 18.3864C90.2737 19.0842 90.4605 19.7233 90.7311 20.3037C90.7381 20.3188 90.7452 20.3338 90.7524 20.3488C90.7638 20.3719 90.7753 20.395 90.7869 20.4179C90.7981 20.4399 90.8094 20.4619 90.8207 20.4837C91.2816 21.3669 91.9128 22.0661 92.7143 22.5813C92.7833 22.6249 92.8533 22.6668 92.9242 22.7068C92.9873 22.7425 93.0511 22.7768 93.1157 22.8097C93.1507 22.8276 93.186 22.845 93.2214 22.862C93.8819 23.1792 94.6175 23.3544 95.428 23.3874C95.5222 23.3912 95.6173 23.3931 95.7135 23.3931C95.9844 23.3931 96.2475 23.3766 96.5028 23.3435C97.2031 23.2527 97.8449 23.0375 98.4283 22.6977C98.4478 22.6864 98.4672 22.6749 98.4865 22.6633C98.5403 22.631 98.5936 22.5976 98.6464 22.5632C98.7769 22.478 98.9042 22.3864 99.0285 22.2881C99.1036 22.6189 99.1939 22.8895 99.2991 23.1H102.682C102.57 22.8482 102.479 22.559 102.409 22.2324C102.366 22.0345 102.331 21.823 102.304 21.5976C102.302 21.5802 102.3 21.5627 102.298 21.5452C102.285 21.4329 102.274 21.3173 102.265 21.1983C102.243 20.9236 102.232 20.631 102.231 20.3206C102.231 20.3 102.231 20.2793 102.231 20.2586V10.9226ZM98.8932 14.4856C98.8071 14.3486 98.7168 14.2243 98.6226 14.1128C98.5736 14.0548 98.5234 14.0003 98.4722 13.9492C98.2436 13.7211 97.9931 13.5616 97.7205 13.4708C97.6085 13.4322 97.4984 13.3985 97.3902 13.3698C97.0778 13.2868 96.782 13.2453 96.5028 13.2453C96.4546 13.2453 96.4067 13.2468 96.3589 13.2497C96.3272 13.2517 96.2956 13.2543 96.264 13.2575C96.0462 13.2799 95.8327 13.3332 95.6233 13.4173C95.4241 13.4974 95.2286 13.6054 95.037 13.7414C94.848 13.88 94.6735 14.0411 94.5135 14.2246C94.5073 14.2317 94.5011 14.2389 94.4949 14.2461C94.2809 14.4957 94.0933 14.786 93.932 15.117C93.9201 15.1422 93.9084 15.1675 93.897 15.1929C93.8939 15.2 93.8907 15.2071 93.8876 15.2141C93.6466 15.7604 93.5261 16.367 93.5261 17.0338C93.5261 17.6783 93.6436 18.2705 93.8786 18.8105C93.8846 18.8242 93.8906 18.8378 93.8967 18.8515C93.9082 18.8771 93.92 18.9027 93.932 18.9281C94.0909 19.2459 94.2754 19.5288 94.4855 19.7768C94.4915 19.7839 94.4975 19.791 94.5036 19.798C94.6662 19.9872 94.8441 20.1558 95.037 20.3037C95.2575 20.4601 95.483 20.5796 95.7135 20.662C95.9704 20.7539 96.2334 20.7998 96.5028 20.7998C96.8537 20.7998 97.2473 20.7287 97.6836 20.5865C97.6959 20.5825 97.7082 20.5784 97.7205 20.5743C97.9931 20.4744 98.2436 20.3086 98.4722 20.0769C98.622 19.9252 98.7623 19.7452 98.8932 19.537V14.4856Z" fill="#484848" fill-opacity="0.4"/>
</svg>
