<?xml version="1.0" encoding="UTF-8"?>
<svg width="20px" height="14px" viewBox="0 0 20 14" version="1.1" xmlns="http://www.w3.org/2000/svg" xmlns:xlink="http://www.w3.org/1999/xlink">
    <title>动画01</title>
    <g id="页面-1" stroke="none" stroke-width="1" fill="none" fill-rule="evenodd">
        <g id="Y0蓝白版备份-3" transform="translate(-1282.000000, -526.000000)" fill="#A5AEC8" fill-rule="nonzero">
            <g id="编组-62" transform="translate(234.000000, 273.000000)">
                <g id="编组-93" transform="translate(1038.000000, 0.000000)">
                    <g id="动画01" transform="translate(10.000000, 253.000100)">
                        <path d="M9.375,0 L9.375,3.0535 C7.4635,3.354 6,5.004 6,7 C6,8.92717241 7.36430916,10.5313294 9.17889836,10.9105928 L9.375,10.9465 L9.375,14 L2,14 C0.945704545,14 0.0818409091,13.1840589 0.00548614763,12.1492537 L0,12 L0,2 C0,0.945704545 0.815941116,0.0818409091 1.85074629,0.00548614763 L2,0 L9.375,0 Z M18,0 C19.0542955,0 19.9181591,0.815941116 19.9945139,1.85074629 L20,2 L20,12 C20,13.0542955 19.1840589,13.9181591 18.1492537,13.9945139 L18,14 L10.625,14 L10.625,10.9465 C12.5365,10.6455 14,8.996 14,7 C14,5.07282759 12.6356908,3.46820452 10.8211016,3.08935897 L10.625,3.0535 L10.625,0 L18,0 Z M16.875,4 C16.5315,4 16.25,4.281 16.25,4.625 L16.25,4.625 L16.25,9.375 C16.25,9.719 16.5315,10 16.875,10 L16.875,10 L16.9669797,9.99319684 C17.2673554,9.94838843 17.5,9.68772727 17.5,9.375 L17.5,9.375 L17.5,4.625 C17.5,4.281 17.2185,4 16.875,4 Z M3.125,4 C2.7815,4 2.5,4.281 2.5,4.625 L2.5,4.625 L2.5,9.375 C2.5,9.719 2.7815,10 3.125,10 L3.125,10 L3.21697971,9.99319684 C3.51735537,9.94838843 3.75,9.68772727 3.75,9.375 L3.75,9.375 L3.75,4.625 C3.75,4.281 3.4685,4 3.125,4 Z M10,4.5 C11.3785,4.5 12.5,5.6215 12.5,7 C12.5,8.3785 11.3785,9.5 10,9.5 C8.6215,9.5 7.5,8.3785 7.5,7 C7.5,5.6215 8.6215,4.5 10,4.5 Z" id="形状结合"></path>
                    </g>
                </g>
            </g>
        </g>
    </g>
</svg>