<?xml version="1.0" standalone="no"?>
<!DOCTYPE svg PUBLIC "-//W3C//DTD SVG 20010904//EN"
 "http://www.w3.org/TR/2001/REC-SVG-20010904/DTD/svg10.dtd">
<svg version="1.0" xmlns="http://www.w3.org/2000/svg"
 width="1280.000000pt" height="664.000000pt" viewBox="0 0 1280.000000 664.000000"
 preserveAspectRatio="xMidYMid meet">
<metadata>
Created by potrace 1.15, written by Peter Selinger 2001-2017
</metadata>
<g transform="translate(0.000000,664.000000) scale(0.100000,-0.100000)"
fill="rgba(0,0,0,.3)" stroke="none">
<path d="M7615 6619 c-406 -31 -753 -189 -972 -442 l-42 -48 -88 52 c-644 380
-1591 337 -2168 -99 -33 -25 -99 -85 -146 -134 l-86 -89 -119 40 c-328 111
-573 147 -952 138 -237 -5 -341 -17 -520 -57 -711 -159 -1231 -575 -1369
-1097 -22 -86 -26 -117 -25 -248 1 -82 2 -161 4 -175 3 -23 -1 -25 -52 -32
-350 -50 -602 -152 -809 -328 -82 -70 -170 -186 -220 -290 l-46 -95 0 -190 c0
-183 1 -192 26 -253 44 -102 89 -170 178 -264 88 -93 227 -194 334 -244 l59
-26 -75 -74 c-132 -128 -198 -238 -237 -389 -101 -396 184 -791 704 -974 160
-56 309 -82 520 -88 l189 -6 111 -111 c177 -177 342 -293 596 -415 238 -114
512 -197 798 -242 192 -30 607 -38 811 -15 251 28 493 84 714 167 l108 40 77
-69 c416 -371 1007 -567 1652 -549 802 24 1475 361 1779 892 28 49 51 92 51
96 0 4 32 -6 71 -22 236 -96 531 -149 829 -149 360 0 670 68 970 213 416 201
683 530 729 896 5 40 11 74 13 76 2 2 53 11 113 20 790 117 1408 564 1556
1124 60 232 39 472 -61 696 -45 100 -148 250 -235 344 l-76 80 24 48 c71 140
103 289 94 435 -7 120 -29 201 -83 315 -155 325 -496 569 -964 692 l-105 28
-26 72 c-41 108 -101 201 -195 301 -210 220 -483 356 -856 426 -129 25 -456
30 -600 10 -290 -41 -555 -140 -752 -281 l-74 -53 -39 32 c-154 131 -387 236
-628 285 -88 18 -330 43 -374 40 -9 -1 -61 -5 -116 -10z"/>
</g>
</svg>
