<?xml version="1.0" encoding="UTF-8"?>
<svg width="14px" height="14px" viewBox="0 0 14 14" version="1.1" xmlns="http://www.w3.org/2000/svg" xmlns:xlink="http://www.w3.org/1999/xlink">
    <title>编组 20备份 2</title>
    <g id="页面-1" stroke="none" stroke-width="1" fill="none" fill-rule="evenodd">
        <g id="编组-20备份-2">
            <circle id="椭圆形" fill="#FF9124" cx="7" cy="7" r="7"></circle>
            <path d="M7,2.5 C6.79372167,2.5 6.59589,2.5877975 6.45002944,2.7440775 C6.304165,2.90035792 6.22222222,3.11232083 6.22222222,3.33333333 C6.21949222,3.37355833 6.21949222,3.41394167 6.22222222,3.45416667 C5.10222222,3.80833333 4.27777778,4.925 4.27777778,6.25 L4.27777778,8.75 L3.5,9.58333333 L3.5,10 L10.5,10 L10.5,9.58333333 L9.72222222,8.75 L9.72222222,6.25 C9.72222222,4.925 8.89777778,3.80833333 7.77777778,3.45416667 C7.7805,3.41394167 7.7805,3.37355833 7.77777778,3.33333333 C7.77777778,3.11232083 7.69583889,2.90035792 7.54996667,2.7440775 C7.40409444,2.5877975 7.20627833,2.5 7,2.5 Z M6.3,10.75 C6.3,10.9489 6.3737485,11.1396625 6.5050265,11.280325 C6.636301,11.4209875 6.8143495,11.5 7,11.5 C7.1856505,11.5 7.363685,11.4209875 7.49497,11.280325 C7.626255,11.1396625 7.7,10.9489 7.7,10.75 L6.3,10.75 Z" id="形状" fill="#FFFFFF" fill-rule="nonzero"></path>
        </g>
    </g>
</svg>