<?xml version="1.0" encoding="UTF-8"?>
<svg width="16px" height="12px" viewBox="0 0 16 12" version="1.1" xmlns="http://www.w3.org/2000/svg" xmlns:xlink="http://www.w3.org/1999/xlink">
    <title>形状结合@2x</title>
    <g id="页面-1" stroke="none" stroke-width="1" fill="none" fill-rule="evenodd">
        <g id="加时赛" transform="translate(-41.000000, -347.000000)" fill="#79BFAF" fill-rule="nonzero">
            <g id="形状结合" transform="translate(41.000000, 345.000000)">
                <path d="M13.6470588,2 C14.9465524,2 16,3.03318904 16,4.30769231 L16,4.30769231 L16,11.6923077 C16,12.966811 14.9465524,14 13.6470588,14 L13.6470588,14 L2.35294118,14 C1.05344765,14 0,12.966811 0,11.6923077 L0,11.6923077 L0,4.30769231 C0,3.03318904 1.05344765,2 2.35294118,2 L2.35294118,2 Z M7.435,2.923 L2.35294118,2.92307692 C1.57324506,2.92307692 0.941176471,3.54299035 0.941176471,4.30769231 L0.941176471,4.30769231 L0.941176471,11.6923077 C0.941176471,12.4570097 1.57324506,13.0769231 2.35294118,13.0769231 L2.35294118,13.0769231 L7.435,13.076 L7.43481192,11.1091978 C6.04162385,10.8312394 4.98823529,9.54488793 4.98823529,8 C4.98823529,6.45511207 6.04162385,5.1687606 7.43481192,4.89080218 L7.435,2.923 Z M13.6470588,2.92307692 L8.564,2.923 L8.56518808,4.89080218 C9.95837615,5.1687606 11.0117647,6.45511207 11.0117647,8 C11.0117647,9.54488793 9.95837615,10.8312394 8.56518808,11.1091978 L8.564,13.076 L13.6470588,13.0769231 C14.3808905,13.0769231 14.9839517,12.5277956 15.0523609,11.8256554 L15.0588235,11.6923077 L15.0588235,4.30769231 C15.0588235,3.54299035 14.4267549,2.92307692 13.6470588,2.92307692 L13.6470588,2.92307692 Z M8,6.02197802 C6.96040518,6.02197802 6.11764706,6.90756863 6.11764706,8 C6.11764706,9.09243137 6.96040518,9.97802198 8,9.97802198 C9.03959482,9.97802198 9.88235294,9.09243137 9.88235294,8 C9.88235294,6.90756863 9.03959482,6.02197802 8,6.02197802 Z M2.54117647,6.41758242 C2.85305492,6.41758242 3.10588235,6.67040985 3.10588235,6.9822883 L3.10588235,9.0177117 C3.10588235,9.32959015 2.85305492,9.58241758 2.54117647,9.58241758 C2.22929802,9.58241758 1.97647059,9.32959015 1.97647059,9.0177117 L1.97647059,6.9822883 C1.97647059,6.67040985 2.22929802,6.41758242 2.54117647,6.41758242 Z M13.4588235,6.41758242 C13.770702,6.41758242 14.0235294,6.67040985 14.0235294,6.9822883 L14.0235294,9.0177117 C14.0235294,9.32959015 13.770702,9.58241758 13.4588235,9.58241758 C13.1469451,9.58241758 12.8941176,9.32959015 12.8941176,9.0177117 L12.8941176,6.9822883 C12.8941176,6.67040985 13.1469451,6.41758242 13.4588235,6.41758242 Z"></path>
            </g>
        </g>
    </g>
</svg>