<svg width="14" height="14" viewBox="0 0 14 14" fill="none" xmlns="http://www.w3.org/2000/svg">
<path fill-rule="evenodd" clip-rule="evenodd" d="M0 7C0 10.866 3.13401 14 7 14C10.866 14 14 10.866 14 7C14 3.13401 10.866 0 7 0C3.13401 0 0 3.13401 0 7ZM8.309 3.61084C8.30921 4.01723 8.09259 4.39286 7.74075 4.59623C7.38891 4.79961 6.9553 4.79983 6.60325 4.59681C6.25121 4.3938 6.03421 4.01839 6.034 3.612C6.03368 2.98378 6.5427 2.47424 7.17092 2.47392C7.79914 2.4736 8.30868 2.98261 8.309 3.61084ZM5.3838 10.5642V11.0636H9.19296V10.5631L8.71696 10.3881C8.44863 10.2901 8.27129 10.0346 8.27129 9.74991V5.73657H5.38379V6.24641L5.86096 6.42257C6.12816 6.52054 6.30571 6.77498 6.30546 7.05957V9.74991C6.30551 10.0347 6.12812 10.2894 5.86095 10.3881L5.3838 10.5642Z" fill="url(#paint0_linear_1037_10330)"/>
<defs>
<linearGradient id="paint0_linear_1037_10330" x1="0" y1="0" x2="0" y2="14" gradientUnits="userSpaceOnUse">
<stop stop-color="#62B6FF"/>
<stop offset="1" stop-color="#3D72FA"/>
</linearGradient>
</defs>
</svg>
