<svg width="14" height="14" viewBox="0 0 14 14" fill="none" xmlns="http://www.w3.org/2000/svg">
<g clip-path="url(#clip0_1411_72230)">
<path d="M0 7C0 10.866 3.13401 14 7 14C10.866 14 14 10.866 14 7C14 3.13401 10.866 0 7 0C3.13401 0 0 3.13401 0 7ZM8.309 3.61084C8.30921 4.01723 8.09259 4.39286 7.74075 4.59623C7.38891 4.79961 6.9553 4.79983 6.60325 4.59681C6.25121 4.3938 6.03421 4.01839 6.034 3.612C6.03368 2.98378 6.5427 2.47424 7.17092 2.47392C7.79914 2.4736 8.30868 2.98261 8.309 3.61084ZM5.38416 11.0635V10.5642L5.86132 10.388C6.12849 10.2893 6.30589 10.0346 6.30584 9.74984V7.0595C6.30609 6.77491 6.12854 6.52047 5.86134 6.4225L5.38416 6.24634V5.7365H8.27166V9.74984C8.27166 10.0345 8.449 10.29 8.71734 10.388L9.19334 10.563V11.0635H5.38416Z" fill="#727D89"/>
</g>
<defs>
<clipPath id="clip0_1411_72230">
<rect width="14" height="14" fill="white"/>
</clipPath>
</defs>
</svg>
