<?xml version="1.0" encoding="UTF-8"?>
<svg width="10px" height="10px" viewBox="0 0 10 10" version="1.1" xmlns="http://www.w3.org/2000/svg" xmlns:xlink="http://www.w3.org/1999/xlink">
    <title>星星</title>
    <g id="页面-1" stroke="none" stroke-width="1" fill="none" fill-rule="evenodd">
        <g id="赛马排行备份-2" transform="translate(-240.000000, -495.000000)" fill="#569FFD">
            <g id="星星" transform="translate(240.000000, 495.000000)">
                <rect id="矩形" fill-rule="nonzero" opacity="0" x="0" y="0" width="10" height="10"></rect>
                <path d="M5.36198688,0.591538299 L6.6839183,3.1959321 L9.64933202,3.61263511 C10.0066108,3.64736036 10.1137944,4.06406337 9.86369927,4.30714012 L7.72002671,6.32120466 L8.22021697,9.16867522 C8.29167272,9.48120247 7.93439396,9.75900448 7.61284308,9.58537823 L5.00470812,8.23109345 L2.36084529,9.58537823 C2.07502228,9.75900448 1.71774352,9.51592772 1.7534714,9.16867522 L2.25366166,6.32120466 L0.109989098,4.30714012 C-0.104378159,4.06406337 0.00280546969,3.64736036 0.360084231,3.61263511 L3.32549795,3.1959321 L4.64742936,0.591538299 C4.79034087,0.279011043 5.21907538,0.279011043 5.36198688,0.591538299 Z" id="路径"></path>
            </g>
        </g>
    </g>
</svg>