<?xml version="1.0" encoding="UTF-8"?>
<svg width="23px" height="23px" viewBox="0 0 23 23" version="1.1" xmlns="http://www.w3.org/2000/svg" xmlns:xlink="http://www.w3.org/1999/xlink">
    <title>亮色</title>
    <g id="页面-1" stroke="none" stroke-width="1" fill="none" fill-rule="evenodd">
        <g id="亮色" transform="translate(0.843146, 0.343146)">
            <path d="M13.8102708,1.16405227 L20.8359477,8.18972922 C22.3880174,9.74179891 22.3880174,12.2582011 20.8359477,13.8102708 L13.8102708,20.8359477 C12.2582011,22.3880174 9.74179891,22.3880174 8.18972922,20.8359477 L1.16405227,13.8102708 C-0.388017424,12.2582011 -0.388017424,9.74179891 1.16405227,8.18972922 L8.18972922,1.16405227 C9.74179891,-0.388017424 12.2582011,-0.388017424 13.8102708,1.16405227 Z" id="矩形" fill="#FFB001"></path>
            <path d="M7.97506002,1.25297117 C9.64568824,-0.417657055 12.3543118,-0.417657055 14.02494,1.25297117 L14.02494,1.25297117 L20.7470288,7.97506002 C22.4176571,9.64568824 22.4176571,12.3543118 20.7470288,14.02494 L20.7470288,14.02494 L14.02494,20.7470288 C12.3543118,22.4176571 9.64568824,22.4176571 7.97506002,20.7470288 L7.97506002,20.7470288 L1.25297117,14.02494 C-0.417657055,12.3543118 -0.417657055,9.64568824 1.25297117,7.97506002 L1.25297117,7.97506002 Z M13.3527311,1.92518005 C12.0533536,0.625802546 9.94664641,0.625802546 8.6472689,1.92518005 L8.6472689,1.92518005 L1.92518005,8.6472689 C0.625802546,9.94664641 0.625802546,12.0533536 1.92518005,13.3527311 L1.92518005,13.3527311 L8.6472689,20.0748199 C9.94664641,21.3741975 12.0533536,21.3741975 13.3527311,20.0748199 L13.3527311,20.0748199 L20.0748199,13.3527311 C21.3741975,12.0533536 21.3741975,9.94664641 20.0748199,8.6472689 L20.0748199,8.6472689 Z M10.152097,5.07944506 L10.1517089,15.3274451 L12.7228732,14.2897358 C12.8689124,14.2307321 13.0351324,14.3012884 13.0941361,14.4473276 C13.1045408,14.47308 13.1109167,14.49946 13.1135604,14.5257689 L12.9972128,14.5274179 C13.408383,14.5076262 13.7121183,14.6107243 13.9084186,14.8367122 C14.0922555,15.0483516 14.1558406,15.3985777 14.099174,15.8873903 C14.1718838,15.9398036 14.2196859,16.0250118 14.2196859,16.1213848 C14.2196859,16.2788932 14.0920001,16.4065789 13.9344918,16.4065789 L10.064094,16.4080519 C10.0128754,16.4570847 9.94340701,16.4872081 9.86690296,16.4872081 C9.70939462,16.4872081 9.58170888,16.3595224 9.58170888,16.202014 L9.58170888,5.57944506 C9.58170888,5.30330269 9.80556651,5.07944506 10.0817089,5.07944506 L10.152097,5.07944506 Z M10.3080031,5.07944506 L15.0612377,9.83267967 L10.3080031,9.83267967 L10.3080031,5.07944506 Z" id="形状结合" fill="#FFFFFF" fill-rule="nonzero"></path>
        </g>
    </g>
</svg>