<?xml version="1.0" encoding="UTF-8"?>
<svg width="14px" height="14px" viewBox="0 0 14 14" version="1.1" xmlns="http://www.w3.org/2000/svg" xmlns:xlink="http://www.w3.org/1999/xlink">
    <title>编组 2@2x</title>
    <g id="页面-1" stroke="none" stroke-width="1" fill="none" fill-rule="evenodd">
        <g id="筛选" transform="translate(-352.000000, -372.000000)">
            <g id="编组-2" transform="translate(352.000000, 372.000000)">
                <circle id="椭圆形备份-19" fill="#FFB001" cx="7" cy="7" r="7"></circle>
                <path d="M9.42081863,9.98112024 C8.82061665,10.5757337 8.02370043,10.9021006 7.17425256,10.9021006 C6.32480469,10.9021006 5.52788847,10.5757337 4.92768649,9.98112024 C4.3297199,9.38762443 4,8.60076746 4,7.76361423 C4,7.27741709 4.10953407,6.81133846 4.32524912,6.37767297 C4.5353757,5.95406673 4.84833017,5.57516827 5.22834632,5.28344999 C5.46865066,5.10014808 5.68883648,4.88666842 5.88331534,4.64859948 C6.16273898,4.30770264 6.38180711,3.92768649 6.53381357,3.51972797 C6.59416908,3.35766226 6.63999456,3.1844196 6.66905462,3 C6.93841901,3.24812819 7.16419331,3.54767034 7.35308369,3.89862643 C7.72639367,4.59830323 7.89851864,5.2208591 7.8649878,5.75064632 C7.84934008,6.00548068 7.94881489,6.2480204 8.13770527,6.41902767 C8.30200637,6.56656335 8.51436834,6.64144889 8.73455417,6.62915425 C8.95474,6.6179773 9.15704271,6.52073787 9.3045784,6.35643677 C9.45323177,6.18990028 9.58176665,6.02001071 9.68906533,5.84676805 C9.84554256,6.04683538 9.97631283,6.26478582 10.0802584,6.49950168 C10.2579719,6.89963633 10.3485051,7.32547796 10.3485051,7.76361423 C10.3485051,8.60076746 10.0187852,9.38874212 9.42081863,9.98112024 Z" id="形状备份" fill="#FFFFFF" fill-rule="nonzero"></path>
            </g>
        </g>
    </g>
</svg>