<?xml version="1.0" encoding="UTF-8"?>
<svg width="16px" height="16px" viewBox="0 0 16 16" version="1.1" xmlns="http://www.w3.org/2000/svg" xmlns:xlink="http://www.w3.org/1999/xlink">
    <title>直播停止@1x</title>
    <g id="页面-1" stroke="none" stroke-width="1" fill="none" fill-rule="evenodd">
        <g id="虚拟体育备份-26" transform="translate(-146.000000, -502.000000)">
            <g id="直播停止" transform="translate(146.000000, 502.000000)">
                <rect id="矩形" fill="#D7D9DF" x="0" y="2" width="16" height="12" rx="2"></rect>
                <path d="M12.3671151,11.4666667 C12.514391,11.4666667 12.6337818,11.5860574 12.6337818,11.7333333 C12.6337818,11.8806093 12.514391,12 12.3671151,12 L3.55814649,12 C3.41087055,12 3.29147982,11.8806093 3.29147982,11.7333333 C3.29147982,11.5860574 3.41087055,11.4666667 3.55814649,11.4666667 L12.3671151,11.4666667 Z M3.83707025,4 L3.83707025,9.49213483 L5.23467862,9.49213483 L5.23467862,10.4 L3,10.4 L3,4 L3.83707025,4 Z M6.69955157,4 L6.69955157,10.4 L5.86248132,10.4 L5.86248132,4 L6.69955157,4 Z M8.09715994,4 L8.77727952,8.85393258 L9.46487294,4 L10.3841555,4 L9.21076233,10.4 L8.34379671,10.4 L7.17787743,4 L8.09715994,4 Z M13,4 L13,4.90786517 L11.6023916,4.90786517 L11.6023916,6.72359551 L12.8056801,6.72359551 L12.8056801,7.63146067 L11.6023916,7.63146067 L11.6023916,9.49213483 L13,9.49213483 L13,10.4 L10.7653214,10.4 L10.7653214,4 L13,4 Z" id="形状结合" fill="#FFFFFF" fill-rule="nonzero"></path>
            </g>
        </g>
    </g>
</svg>