<?xml version="1.0" encoding="UTF-8"?>
<svg width="18px" height="14px" viewBox="0 0 18 14" version="1.1" xmlns="http://www.w3.org/2000/svg" xmlns:xlink="http://www.w3.org/1999/xlink">
    <title>Sheet/Betting Sheet/_resource/Icon_Video_Normal备份 3@2x</title>
    <g id="页面-1" stroke="none" stroke-width="1" fill="none" fill-rule="evenodd">
        <g id="虚拟体育备份-2" transform="translate(-133.000000, -475.000000)" fill-rule="nonzero">
            <g id="编组" transform="translate(134.000000, 474.000000)">
                <path d="M7.14051423,5.47156469 L10.2857579,7.78718204 C10.374708,7.8526696 10.3937281,7.97786605 10.3282405,8.06681613 C10.317094,8.0819562 10.3038683,8.09544896 10.2889541,8.10689596 L7.16550073,10.504222 C6.99025464,10.6387276 6.73915128,10.6057009 6.60464566,10.4304548 C6.55137585,10.3610501 6.52233066,10.2760941 6.52196036,10.1886038 L6.50336636,5.79537438 C6.50243137,5.57446246 6.6807579,5.39462 6.90166982,5.39368501 C6.98758231,5.39332139 7.07132898,5.42062856 7.14051423,5.47156469 Z" id="形状结合" fill="#DD4646"></path>
                <path d="M14.2980423,14 L1.70195765,14 C0.76388334,14 0,13.2924633 0,12.4235846 L0,3.57641544 C0,2.7075367 0.76388334,2 1.70195765,2 L14.2980423,2 C15.2361167,2 16,2.7075367 16,3.57641544 L16,12.4235846 C16,13.2924633 15.2361167,14 14.2980423,14 L14.2980423,14 Z" id="路径备份-12" stroke="#DD4646"></path>
            </g>
        </g>
    </g>
</svg>