<?xml version="1.0" encoding="UTF-8"?>
<svg width="16px" height="12px" viewBox="0 0 16 12" version="1.1" xmlns="http://www.w3.org/2000/svg" xmlns:xlink="http://www.w3.org/1999/xlink">
    <title>视频@2x</title>
    <g id="页面-1" stroke="none" stroke-width="1" fill="none" fill-rule="evenodd">
        <g id="点球大战" transform="translate(-42.000000, -347.000000)" fill-rule="nonzero">
            <g id="编组-6" transform="translate(7.000000, 172.000000)">
                <g id="编组" transform="translate(35.000000, 173.000000)">
                    <path d="M7.14051423,5.47156469 L10.2857579,7.78718204 C10.374708,7.8526696 10.3937281,7.97786605 10.3282405,8.06681613 C10.317094,8.0819562 10.3038683,8.09544896 10.2889541,8.10689596 L7.16550073,10.504222 C6.99025464,10.6387276 6.73915128,10.6057009 6.60464566,10.4304548 C6.55137585,10.3610501 6.52233066,10.2760941 6.52196036,10.1886038 L6.50336636,5.79537438 C6.50243137,5.57446246 6.6807579,5.39462 6.90166982,5.39368501 C6.98758231,5.39332139 7.07132898,5.42062856 7.14051423,5.47156469 Z" id="形状结合" fill="#DD4646"></path>
                    <path d="M14.2980423,2.5 C14.6338999,2.5 14.9398751,2.62435658 15.1610337,2.82920171 C15.3677716,3.02068997 15.5,3.28385115 15.5,3.57641544 L15.5,3.57641544 L15.5,12.4235846 C15.5,12.7161489 15.3677716,12.97931 15.1610337,13.1707983 C14.9398751,13.3756434 14.6338999,13.5 14.2980423,13.5 L14.2980423,13.5 L1.70195765,13.5 C1.36610009,13.5 1.06012487,13.3756434 0.838966325,13.1707983 C0.632228372,12.97931 0.5,12.7161489 0.5,12.4235846 L0.5,12.4235846 L0.5,3.57641544 C0.5,3.28385115 0.632228372,3.02068997 0.838966325,2.82920171 C1.06012487,2.62435658 1.36610009,2.5 1.70195765,2.5 L1.70195765,2.5 Z" id="路径备份-12" stroke="#DD4646"></path>
                </g>
            </g>
        </g>
    </g>
</svg>