<svg xmlns="http://www.w3.org/2000/svg" width="14" height="14" viewBox="0 0 14 14" fill="none">
  <ellipse cx="7" cy="12.1711" rx="7" ry="1.73873" fill="#D2D5D9"/>
  <path fill-rule="evenodd" clip-rule="evenodd" d="M4.96761 0.352886C6.27614 -0.117629 7.7517 -0.117629 9.06023 0.352886C11.4824 1.21088 13.125 3.5081 13.125 6.0821C13.125 9.43106 10.3687 12.1711 7 12.1711C3.63125 12.1711 0.875 9.43106 0.875 6.0821C0.875 3.5081 2.51761 1.21088 4.96761 0.352886ZM11.2036 3.36969C10.619 2.48401 9.72805 1.7644 8.6701 1.37692C8.55874 1.32156 8.41953 1.29388 8.28033 1.26621L7.30589 1.95814C7.11101 2.09653 6.8326 2.09653 6.63771 1.95814L5.66328 1.26621C5.63799 1.27459 5.6076 1.2855 5.57442 1.29742L5.57442 1.29742C5.49801 1.32487 5.40684 1.35762 5.32919 1.37692C4.27124 1.7644 3.38033 2.48401 2.79567 3.36969L3.1576 4.50446C3.24112 4.72588 3.1576 4.97497 2.96271 5.11336L1.98828 5.83297V6.08207C1.98828 7.27219 2.40589 8.35161 3.10192 9.20961H4.29908C4.54964 9.20961 4.74453 9.37567 4.82805 9.59709L5.18999 10.7319C5.7468 10.9533 6.3593 11.064 6.99964 11.064C7.63999 11.064 8.22465 10.9533 8.78146 10.7319L9.14339 9.59709C9.22692 9.37567 9.4218 9.20961 9.67237 9.20961H10.8695C11.5656 8.35161 11.9832 7.27219 11.9832 6.08207V5.83297L11.0087 5.14104C10.8138 5.00265 10.7303 4.75355 10.8138 4.53213L11.2036 3.36969ZM7.33409 3.48043C7.1392 3.34204 6.8608 3.34204 6.66591 3.48043L4.63352 4.94733C4.43864 5.08571 4.35511 5.33481 4.43864 5.55623L5.21818 7.96416C5.3017 8.18558 5.49659 8.35164 5.74716 8.35164H8.28068C8.53125 8.35164 8.72614 8.18558 8.80966 7.96416L9.5892 5.55623C9.67273 5.33481 9.5892 5.08571 9.39432 4.94733L7.33409 3.48043Z" fill="#ABBAC8"/>
</svg>