<svg xmlns="http://www.w3.org/2000/svg" width="14" height="14" viewBox="0 0 14 14" fill="none">
  <path fill-rule="evenodd" clip-rule="evenodd" d="M14 6.95097C14 4.00926 12.1227 1.38387 9.35454 0.403298C7.85909 -0.134433 6.17273 -0.134433 4.67727 0.403298C1.87727 1.38387 0 4.00926 0 6.95097C0 10.7783 3.15 13.9098 7 13.9098C7.50203 13.9098 7.99215 13.8566 8.46517 13.7554C8.83455 13.8561 9.22346 13.9098 9.625 13.9098C12.0412 13.9098 14 11.9637 14 9.56302C14 9.16438 13.946 8.77827 13.8438 8.41162C13.9461 7.94028 14 7.45158 14 6.95097ZM6.12495 9.56302C6.12495 7.64247 7.69195 6.08556 9.62495 6.08556C11.5579 6.08556 13.125 7.64247 13.125 9.56302C13.125 11.4836 11.5579 13.0405 9.62495 13.0405C7.69195 13.0405 6.12495 11.4836 6.12495 9.56302ZM8.46337 1.44765L7.34973 2.23843C7.12701 2.39659 6.80882 2.39659 6.5861 2.23843L5.47246 1.44765C5.44356 1.45723 5.40882 1.4697 5.3709 1.48332C5.28358 1.51469 5.17938 1.55212 5.09064 1.57417C3.88155 2.01701 2.86337 2.83942 2.19519 3.85162L2.60882 5.14851C2.70428 5.40156 2.60882 5.68624 2.3861 5.84439L1.27246 6.66681V6.95149C1.27246 8.31163 1.74973 9.54525 2.54519 10.5258H3.91337C4.19973 10.5258 4.42246 10.7156 4.51792 10.9687L4.93155 12.2655C5.42716 12.4626 5.96137 12.583 6.51915 12.6265C5.73484 11.8404 5.24973 10.7583 5.24973 9.56354L5.25134 9.45776C5.11989 9.37846 5.01957 9.2514 4.96337 9.10241L4.07246 6.35049C3.97701 6.09744 4.07246 5.81276 4.29519 5.65461L6.61792 3.97815C6.84064 3.81999 7.15882 3.81999 7.38155 3.97815L9.15771 5.24119C9.31116 5.22501 9.46697 5.21671 9.62473 5.21671C10.2394 5.21671 10.8244 5.34265 11.3552 5.56997C11.3111 5.44618 11.3102 5.30905 11.3588 5.18014L11.8043 3.85162C11.1361 2.83942 10.1179 2.01701 8.90882 1.57417C8.78155 1.51091 8.62246 1.47928 8.46337 1.44765ZM12.25 9.56302C12.25 8.12261 11.0747 6.95492 9.62499 6.95492C8.17524 6.95492 6.99995 8.12261 6.99995 9.56302H12.25Z" fill="#0BC65E"/>
</svg>