<svg xmlns="http://www.w3.org/2000/svg" width="14" height="14" viewBox="0 0 14 14" fill="none">
  <path fill-rule="evenodd" clip-rule="evenodd" d="M5.32577 0.324829C5.68101 0.324829 5.93038 0.580413 5.93475 0.947271C6.36349 1.27762 7.36182 1.9131 8.59903 1.88528C10.2107 1.88528 11.8854 2.39732 12.3238 3.18493C12.3238 3.18493 10.0182 2.58249 9.37337 3.88214C8.7294 5.18266 7.94368 4.55761 7.30932 4.82015C6.68985 5.08008 6.68372 5.38 6.29436 5.44868C6.17274 5.46867 6.0485 5.45128 5.93388 5.41825L5.93475 8.68259C5.89888 9.0538 5.61276 8.9147 5.32577 8.9147C4.96791 8.9147 4.7168 9.09118 4.7168 8.7191V0.956834C4.7168 0.58476 4.96791 0.324829 5.32577 0.324829Z" fill="#FF4A4A"/>
  <path fill-rule="evenodd" clip-rule="evenodd" d="M5.45636 11.0162C4.97687 11.0162 4.47027 10.8275 4.11328 10.552L5.39073 9.22535L7.44953 9.84345C7.00505 10.4755 6.20883 11.0162 5.45636 11.0162ZM12.6556 10.0837L5.34874 7.92771C5.32337 7.9251 5.29974 7.93206 5.27437 7.93206C5.24112 7.92945 5.20787 7.93293 5.17375 7.93727C5.13612 7.94249 5.10112 7.95031 5.06525 7.96074C5.03725 7.97118 5.011 7.98074 4.98388 7.99465C4.88151 8.04333 4.79226 8.11375 4.72576 8.2085L1.08677 11.9823C0.835659 12.2048 0.835659 12.5769 1.08677 12.8368C1.33701 13.0976 1.69575 13.0976 1.91012 12.8368L3.29082 11.4042C3.89192 11.831 4.65489 12.1309 5.45636 12.1309C6.78194 12.1309 8.01651 11.2859 8.67536 10.2114L12.3327 11.3094C12.6556 11.3459 12.9426 11.1608 13.0493 10.8626C13.1928 10.4914 13.0135 10.1575 12.6556 10.0837Z" fill="#0BC65E"/>
</svg>