<?xml version="1.0" encoding="UTF-8"?>
<svg width="14px" height="14px" viewBox="0 0 14 14" version="1.1" xmlns="http://www.w3.org/2000/svg" xmlns:xlink="http://www.w3.org/1999/xlink">
    <title>关闭1</title>
    <g id="页面-1" stroke="none" stroke-width="1" fill="none" fill-rule="evenodd">
        <g id="04-1备份-2" transform="translate(-347.000000, -173.000000)">
            <g id="关闭1" transform="translate(347.000000, 173.000000)">
                <rect id="矩形" fill="#333333" opacity="0.854236421" x="0" y="0" width="14" height="14" rx="7"></rect>
                <path d="M7,3.5 C7.48324916,3.5 7.875,3.89175084 7.875,4.375 L7.875,6.124 L9.625,6.125 C10.1082492,6.125 10.5,6.51675084 10.5,7 C10.5,7.48324916 10.1082492,7.875 9.625,7.875 L7.875,7.874 L7.875,9.625 C7.875,10.1082492 7.48324916,10.5 7,10.5 C6.51675084,10.5 6.125,10.1082492 6.125,9.625 L6.125,7.874 L4.375,7.875 C3.89175084,7.875 3.5,7.48324916 3.5,7 C3.5,6.51675084 3.89175084,6.125 4.375,6.125 L6.125,6.124 L6.125,4.375 C6.125,3.89175084 6.51675084,3.5 7,3.5 Z" id="形状结合" fill="#FFFFFF" transform="translate(7.000000, 7.000000) rotate(-315.000000) translate(-7.000000, -7.000000) "></path>
            </g>
        </g>
    </g>
</svg>