<?xml version="1.0" encoding="UTF-8"?>
<svg width="22px" height="21px" viewBox="0 0 22 21" version="1.1" xmlns="http://www.w3.org/2000/svg" xmlns:xlink="http://www.w3.org/1999/xlink">
    <title>关注选中@2x</title>
    <g id="页面-1" stroke="none" stroke-width="1" fill="none" fill-rule="evenodd">
        <g id="画板" transform="translate(-214.000000, -337.000000)">
            <g id="关注选中" transform="translate(214.000000, 337.000000)">
                <path d="M10.2884729,0.442402065 L7.31786599,6.45894668 L0.679244414,7.42391523 C0.506588074,7.44900366 0.347017286,7.53030904 0.225235466,7.65524434 L0.149566121,7.74519618 C-0.0768841724,8.05868744 -0.0456491245,8.49905573 0.239574509,8.77708006 L5.04400555,13.4590255 L3.90997319,20.0734056 C3.88047996,20.2453643 3.90849589,20.4222499 3.98968377,20.5766784 L4.04618756,20.668592 C4.27287446,20.9868889 4.70555018,21.0966016 5.06104394,20.9097075 L10.9998738,17.7865994 L16.9387036,20.9097075 C17.0931321,20.9908954 17.2700177,21.0189113 17.4419764,20.9894181 L17.539012,20.9665038 C17.9162761,20.8521299 18.1581424,20.4720219 18.0897743,20.0734056 L16.9547503,13.4590255 L21.760173,8.77708006 C21.8851083,8.65529824 21.9664137,8.49572745 21.9915021,8.32307111 L21.9998505,8.22370383 C22.0075,7.82956085 21.7207366,7.48207256 21.3205031,7.42391523 L14.6808899,6.45894668 L11.7112746,0.442402065 C11.6340603,0.285948881 11.5074243,0.159312786 11.3509711,0.0820985236 C10.9580752,-0.111807166 10.4823786,0.0495062243 10.2884729,0.442402065 Z" id="星形" fill="#FFB001" fill-rule="nonzero"></path>
                <path d="M13.4723478,10.5436485 C13.7406627,10.5983667 13.9138171,10.8602366 13.8590989,11.1285515 C13.5789009,12.5025257 12.3659033,13.504231 10.9468597,13.504231 C9.52846328,13.504231 8.31585491,12.5034264 8.03497322,11.1302786 C7.98009525,10.8619964 8.15309357,10.6000233 8.42137578,10.5451454 C8.689658,10.4902674 8.95163108,10.6632657 9.00650906,10.9315479 C9.19343853,11.845391 10.0018246,12.512578 10.9468597,12.512578 C11.8923255,12.512578 12.7009708,11.8447907 12.8874449,10.9303996 C12.9360832,10.6918975 13.1483971,10.528584 13.3834236,10.5336668 L13.4723478,10.5436485 Z" id="路径" fill="#4C3A13"></path>
            </g>
        </g>
    </g>
</svg>