<?xml version="1.0" encoding="UTF-8"?>
<svg width="22px" height="22px" viewBox="0 0 22 22" version="1.1" xmlns="http://www.w3.org/2000/svg" xmlns:xlink="http://www.w3.org/1999/xlink">
    <title>让球-置灰</title>
    <g id="页面-1" stroke="none" stroke-width="1" fill="none" fill-rule="evenodd" opacity="0.300000012">
        <g id="111" transform="translate(-163.000000, -320.000000)" fill="#006EFF">
            <g id="编组备份" transform="translate(50.000000, 306.000000)">
                <g id="编组-25" transform="translate(113.000000, 14.000000)">
                    <rect id="矩形备份-37" fill-opacity="0.2" x="0" y="1.87583282e-13" width="11" height="2.75"></rect>
                    <path d="M14.675,6.6 C15.2272847,6.6 15.675,7.04771525 15.675,7.6 L15.675,12.924 L21,12.925 C21.5522847,12.925 22,13.3727153 22,13.925 L22,14.675 C22,15.2272847 21.5522847,15.675 21,15.675 L15.675,15.675 L15.675,21 C15.675,21.5522847 15.2272847,22 14.675,22 L13.925,22 C13.3727153,22 12.925,21.5522847 12.925,21 L12.925,15.675 L7.6,15.675 C7.04771525,15.675 6.6,15.2272847 6.6,14.675 L6.6,13.925 C6.6,13.3727153 7.04771525,12.925 7.6,12.925 L12.925,12.924 L12.925,7.6 C12.925,7.04771525 13.3727153,6.6 13.925,6.6 L14.675,6.6 Z" id="形状结合备份-32"></path>
                </g>
            </g>
        </g>
    </g>
</svg>