<?xml version="1.0" encoding="UTF-8"?>
<svg width="22px" height="22px" viewBox="0 0 22 22" version="1.1" xmlns="http://www.w3.org/2000/svg" xmlns:xlink="http://www.w3.org/1999/xlink">
    <title>独赢-置灰</title>
    <g id="页面-1" stroke="none" stroke-width="1" fill="none" fill-rule="evenodd" opacity="0.300000012">
        <g id="111" transform="translate(-90.000000, -320.000000)" fill-rule="nonzero">
            <g id="编组备份" transform="translate(50.000000, 306.000000)">
                <g id="独赢-置灰" transform="translate(40.000000, 14.000000)">
                    <path d="M11.7042028,0.254984174 C11.7553122,0.297575317 11.8024523,0.344715371 11.8450434,0.395824742 L16.5,5.98177265 L20.2128354,3.0115043 C20.6872236,2.63199379 21.3794452,2.7089073 21.7589557,3.18329543 C21.9149912,3.37833979 22,3.62068134 22,3.87045999 L22,20.8964835 C22,21.5039967 21.5075132,21.9964835 20.9,21.9964835 L1.1,21.9964835 C0.492486775,21.9964835 0,21.5039967 0,20.8964835 L0,3.87045999 C0,3.26294676 0.492486775,2.77045999 1.1,2.77045999 C1.34977864,2.77045999 1.5921202,2.85546881 1.78716455,3.0115043 L5.5,5.98177265 L10.1549566,0.395824742 C10.5438771,-0.0708798446 11.2374983,-0.133936315 11.7042028,0.254984174 Z M11,1.10107265 L6.34504341,6.68597549 C5.99110583,7.11070059 5.38354996,7.20198501 4.92432016,6.91923242 L4.81283545,6.84072834 L1.1,3.87045999 L1.1,20.8964835 L20.9,20.8964835 L20.9,3.87045999 L17.1871646,6.84072834 C16.755447,7.18610235 16.1419081,7.15405632 15.7484921,6.78518659 L15.6549566,6.68597549 L11,1.10107265 Z" id="矩形备份-28" fill="#414655"></path>
                    <path d="M11,8.7964835 C13.4300529,8.7964835 15.4,10.7664306 15.4,13.1964835 C15.4,15.6265364 13.4300529,17.5964835 11,17.5964835 C8.5699471,17.5964835 6.6,15.6265364 6.6,13.1964835 C6.6,10.7664306 8.5699471,8.7964835 11,8.7964835 Z M11,9.8964835 C9.17746033,9.8964835 7.7,11.3739438 7.7,13.1964835 C7.7,15.0190232 9.17746033,16.4964835 11,16.4964835 C12.8225397,16.4964835 14.3,15.0190232 14.3,13.1964835 C14.3,11.3739438 12.8225397,9.8964835 11,9.8964835 Z" id="矩形备份-29" fill="#FF9124"></path>
                </g>
            </g>
        </g>
    </g>
</svg>