<?xml version="1.0" encoding="UTF-8"?>
<svg width="22px" height="22px" viewBox="0 0 22 22" version="1.1" xmlns="http://www.w3.org/2000/svg" xmlns:xlink="http://www.w3.org/1999/xlink">
    <title>矩形备份 15@2x</title>
    <g id="页面-1" stroke="none" stroke-width="1" fill="none" fill-rule="evenodd">
        <g id="滚球列表" transform="translate(-1538.000000, -728.000000)">
            <g id="矩形备份-15" transform="translate(1538.000000, 728.000000)">
                <rect id="矩形备份-2" x="0" y="0" width="22" height="22"></rect>
                <path d="M12.3024324,17.1890191 C12.9821008,17.1563033 13.4841781,17.3267254 13.8086645,17.7002856 C14.1331509,18.0738458 14.2309936,18.7086063 14.1021924,19.6045671 L7.15599748,19.613981 L12.3024324,17.1890191 Z" id="路径-2备份" fill="#D8D8D8"></path>
                <path d="M9.8400419,15.2876592 C10.1004047,15.2876592 10.3114705,15.4987249 10.3114705,15.7590877 L10.3114705,20.4733735 C10.3114705,20.7337363 10.1004047,20.944802 9.8400419,20.944802 C9.57967909,20.944802 9.36861333,20.7337363 9.36861333,20.4733735 L9.36861333,15.7590877 C9.36861333,15.4987249 9.57967909,15.2876592 9.8400419,15.2876592 Z" id="矩形备份-13" fill="#D8D8D8" transform="translate(9.840042, 18.116231) rotate(-112.000000) translate(-9.840042, -18.116231) "></path>
                <polygon id="路径-3备份" fill="#D8D8D8" points="7.85714286 1.57142857 15.7142857 9.42857143 7.85714286 9.42857143"></polygon>
                <path d="M7.15657143,1.57142857 L7.59942857,1.57142857 L7.59942857,1.57142857 L7.59942857,19.9571429 C7.59942857,20.2175057 7.38836281,20.4285714 7.128,20.4285714 C6.86763719,20.4285714 6.65657143,20.2175057 6.65657143,19.9571429 L6.65657143,2.07142857 C6.65657143,1.7952862 6.88042905,1.57142857 7.15657143,1.57142857 Z" id="矩形备份-3" fill="#D8D8D8"></path>
                <path d="M10.5517637,16.0524334 C10.8121266,16.0524334 11.0231923,16.2634992 11.0231923,16.523862 L11.0231923,23.123862 C11.0231923,23.3842248 10.8121266,23.5952906 10.5517637,23.5952906 C10.2914009,23.5952906 10.0803352,23.3842248 10.0803352,23.123862 L10.0803352,16.523862 C10.0803352,16.2634992 10.2914009,16.0524334 10.5517637,16.0524334 Z" id="矩形备份-12" fill="#D8D8D8" transform="translate(10.551764, 19.823862) rotate(-90.000000) translate(-10.551764, -19.823862) "></path>
            </g>
        </g>
    </g>
</svg>