<?xml version="1.0" encoding="UTF-8"?>
<svg width="22px" height="22px" viewBox="0 0 22 22" version="1.1" xmlns="http://www.w3.org/2000/svg" xmlns:xlink="http://www.w3.org/1999/xlink">
    <title>编组 15@2x</title>
    <g id="编组-15" stroke="none" stroke-width="1" fill="none" fill-rule="evenodd">
        <g transform="translate(2.000000, 0.000000)">
            <path d="M10.5,8 C10.7761424,8 11,8.22385763 11,8.5 C11,8.74545989 10.8231248,8.94960837 10.5898756,8.99194433 L10.5,9 L3.5,9 C3.22385763,9 3,8.77614237 3,8.5 C3,8.25454011 3.17687516,8.05039163 3.41012437,8.00805567 L3.5,8 L10.5,8 Z" id="直线-7备份-6" fill="#ACACAC" fill-rule="nonzero"></path>
            <path d="M14.4545455,12 C14.7306878,12 14.9545455,12.2238576 14.9545455,12.5 C14.9545455,12.7454599 14.7776703,12.9496084 14.5444211,12.9919443 L14.4545455,13 L3.54545455,13 C3.26931217,13 3.04545455,12.7761424 3.04545455,12.5 C3.04545455,12.2545401 3.22232971,12.0503916 3.45557891,12.0080557 L3.54545455,12 L14.4545455,12 Z" id="直线-7备份-7" fill="#FFB001"></path>
            <path d="M14.4545455,16 C14.7306878,16 14.9545455,16.2238576 14.9545455,16.5 C14.9545455,16.7454599 14.7776703,16.9496084 14.5444211,16.9919443 L14.4545455,17 L3.54545455,17 C3.26931217,17 3.04545455,16.7761424 3.04545455,16.5 C3.04545455,16.2545401 3.22232971,16.0503916 3.45557891,16.0080557 L3.54545455,16 L14.4545455,16 Z" id="直线-7备份-8" fill="#ACACAC" fill-rule="nonzero"></path>
            <path d="M4.83730887,2 L4.83730887,3 L2.625,3 C1.77121092,3 1.08067467,3.60527391 1.00658357,4.36451067 L1,4.5 L1,19.5 C1,20.2757884 1.64310352,20.9241617 2.47611825,20.9938087 L2.625,21 L15.375,21 C16.2287891,21 16.9193253,20.3947261 16.9934164,19.6354893 L17,19.5 L17,4.5 C17,3.72421159 16.3568965,3.07583832 15.5238818,3.00619126 L15.375,3 L13.2768137,3 L13.2768137,2 L15.375,2 C16.7626906,2 17.9087055,3.02836911 17.9948077,4.34114887 L18,4.5 L18,19.5 C18,20.8343423 16.9073578,21.9140322 15.5403105,21.9951114 L15.375,22 L2.625,22 C1.2373094,22 0.0912945103,20.9716309 0.00519231528,19.6588511 L0,19.5 L0,4.5 C0,3.16565772 1.09264218,2.08596775 2.45968954,2.00488856 L2.625,2 L4.83730887,2 Z" id="路径" fill="#ACACAC" fill-rule="nonzero"></path>
            <path d="M12.5,0 L5.5,0 C4.67157288,0 4,0.671572875 4,1.5 L4,3.5 C4,4.32842712 4.67157288,5 5.5,5 L12.5,5 C13.3284271,5 14,4.32842712 14,3.5 L14,1.5 C14,0.671572875 13.3284271,0 12.5,0 Z M5.5,1 L12.5,1 C12.7761424,1 13,1.22385763 13,1.5 L13,3.5 C13,3.77614237 12.7761424,4 12.5,4 L5.5,4 C5.22385763,4 5,3.77614237 5,3.5 L5,1.5 C5,1.22385763 5.22385763,1 5.5,1 Z" id="矩形备份-7" fill="#ACACAC" fill-rule="nonzero"></path>
        </g>
    </g>
</svg>