<?xml version="1.0" encoding="UTF-8"?>
<svg width="20px" height="20px" viewBox="0 0 20 20" version="1.1" xmlns="http://www.w3.org/2000/svg" xmlns:xlink="http://www.w3.org/1999/xlink">
    <title>筛选</title>
    <g id="筛选" stroke="none" stroke-width="1" fill="none" fill-rule="evenodd">
        <path d="M8.92526258,15.3339586 L6.86733809,14.0095515 C6.77562515,13.9505283 6.71313417,13.8587697 6.69179535,13.7558815 L6.68369366,13.6769662 L6.68229972,7.88698729 L1.32928399,3.10335342 C0.854941741,2.58821853 0.902083799,1.82796425 1.41257948,1.36513768 L1.50746502,1.28666031 C1.71867105,1.12737602 1.97492947,1.03054294 2.24323349,1.00612704 L2.3782365,1 L17.6218273,1 C18.3764884,1 19,1.56427713 19,2.27566331 C19,2.54194046 18.9101818,2.79973937 18.7269517,3.03272579 L18.6426949,3.13101036 L13.3152852,7.88778458 L13.3163701,12.8795598" id="路径" stroke="#000000" stroke-linecap="round" stroke-linejoin="round" fill-rule="nonzero"></path>
        <path d="M13.2727711,15 C13.518231,15 13.7223795,15.1286366 13.7647154,15.2982725 L13.7727711,15.3636366 L13.7727711,18.6363774 C13.7727711,18.8372083 13.5489135,19.000014 13.2727711,19.000014 C13.0273112,19.000014 12.8231627,18.8713774 12.7808268,18.7017415 L12.7727711,18.6363774 L12.7727711,15.3636366 C12.7727711,15.1628057 12.9966287,15 13.2727711,15 Z" id="直线-4" fill="#FF9124"></path>
    </g>
</svg>