<?xml version="1.0" encoding="UTF-8"?>
<svg width="22px" height="22px" viewBox="0 0 22 22" version="1.1" xmlns="http://www.w3.org/2000/svg" xmlns:xlink="http://www.w3.org/1999/xlink">
    <title>多边形@2x</title>
    <g id="多边形" stroke="none" stroke-width="1" fill="none" fill-rule="evenodd">
        <path d="M6,13.0180864 C7.19301261,14.8405412 8.98742363,16 10.9940971,16 C13.0074008,16 14.8070371,14.8328667 16,13" id="路径备份" stroke="#FF9124" stroke-linecap="round"></path>
        <line x1="6" y1="9" x2="9" y2="9" id="直线备份-3" stroke="#979797" stroke-linecap="round"></line>
        <path d="M11,0.809401077 C11.2589746,0.809401077 11.5179492,0.876388375 11.75,1.01036297 L11.75,1.01036297 L19.2762794,5.35566243 C19.7403811,5.62361163 20.0262794,6.11880215 20.0262794,6.65470054 L20.0262794,6.65470054 L20.0262794,15.3452995 C20.0262794,15.8811978 19.7403811,16.3763884 19.2762794,16.6443376 L19.2762794,16.6443376 L11.75,20.989637 C11.2858984,21.2575862 10.7141016,21.2575862 10.25,20.989637 L10.25,20.989637 L2.72372056,16.6443376 C2.49166975,16.510363 2.30416975,16.319578 2.17468245,16.0952995 C2.04519515,15.8710209 1.97372056,15.6132487 1.97372056,15.3452995 L1.97372056,15.3452995 L1.97372056,6.65470054 C1.97372056,6.11880215 2.25961894,5.62361163 2.72372056,5.35566243 L2.72372056,5.35566243 L10.25,1.01036297 C10.4820508,0.876388375 10.7410254,0.809401077 11,0.809401077 Z" id="多边形备份" stroke="#000000"></path>
    </g>
</svg>